<svg width="135" height="142" viewBox="0 0 135 142" fill="none" xmlns="http://www.w3.org/2000/svg">
<g id="UA05">
<path d="M8.69998 110.3H8.59998H8.49997H8.39996H8.19998H8.09998H7.99997L7.89996 110.2L7.79996 110.1H7.69998L7.59998 110L7.49997 109.9V109.8L7.29996 109.7L7.19998 109.6L7.09998 109.5L6.89996 109.4V109.3H6.79996L6.69998 109.1V109L6.59998 108.9L6.49997 108.8V108.6L6.39996 108.5L6.29996 108.3L6.19998 108V107.9L6.09998 107.8L5.99997 107.7V107.6H5.89996V107.5V107.4V107.3V107.2V107.1H5.99997V107V106.9V106.7L6.09998 106.5V106.4V106.3V106.2V106.1V105.9V105.8V105.6V105.5V105.4V105.3V105.1L5.99997 105V104.8V104.7V104.6L5.89996 104.5V104.4V104.3L5.79996 104.1V103.9L5.69998 103.7V103.6L5.59998 103.5V103.3L5.49997 103.2V103.1L5.39996 103V102.9V102.8V102.7L5.29996 102.6V102.5V102.4V102.3L5.19998 102.2V102L5.09998 101.8L4.99997 101.7V101.6V101.5L4.89996 101.4L4.79996 101.3V101.2V101.1L4.69998 101H4.59998V100.9L4.49997 100.7L4.39996 100.5L4.09998 100.2L3.99997 100H3.89996L3.69998 99.8L3.39996 99.6L3.19998 99.4L2.89996 99.2L2.69998 99.1L2.49997 99L2.19998 98.8L1.79996 98.6L1.39996 98.4L1.19998 98.3L0.899963 98.2L0.599976 98.1V98V97.9L0.699982 97.8V97.7V97.6V97.5H0.799957V97.4V97.3V97.2L0.899963 97.1H0.799957V97L0.899963 96.9V96.8V96.7V96.6V96.5L0.999969 96.4L1.09998 96.3L1.19998 96.2V96.1V96L1.29996 95.9V95.8L1.39996 95.7V95.6V95.5H1.29996V95.4H1.39996V95.3V95.2L1.29996 95.1V95V94.9V94.8H1.39996V94.7V94.6V94.5V94.4V94.3V94.2H1.49997V94.1H1.59998V94V93.9H1.69998V93.8L1.89996 93.6V93.7H1.99997H2.09998L2.19998 93.8H2.29996V93.7V93.6V93.5L2.19998 93.2L2.29996 93.1L2.49997 93.2V93.1H2.59998V93V92.9L2.69998 92.8V92.7V92.6V92.5V92.4L2.59998 92.3L2.49997 92.1V92L2.39996 91.9L2.29996 91.8L2.19998 91.7L2.09998 91.4V91.1L1.89996 90.7V90.5L1.99997 90.4L2.29996 90.1L2.39996 90V89.9H2.49997H2.59998V89.8L2.69998 89.7H2.59998V89.6V89.5L2.49997 89.4V89.3H2.39996H2.29996V89.2V89.1H2.19998V89.2L2.09998 89.1V89L1.99997 88.9V88.8H1.89996V88.7V88.6H1.79996L1.69998 88.7H1.59998V88.6L1.49997 88.5V88.4V88.3V88.2V88.1V88V87.9H1.39996V87.8H1.49997V87.7H1.59998H1.69998L1.79996 87.6H1.89996H1.99997L2.09998 87.7H2.19998H2.29996V87.6H2.39996V87.5V87.4L2.29996 87.3H2.19998V87.2H2.09998V87.1H2.19998L2.29996 87H2.39996L2.49997 86.9L2.59998 86.8L2.69998 86.6V86.5L2.79996 86.4L2.89996 86.1L2.79996 85.9H2.89996H2.99997V85.8V85.7H3.09998H3.19998V85.6L3.29996 85.5V85.3H3.19998H3.09998V85.2H2.99997L2.89996 85.1V85V84.9V84.8H2.79996V84.7V84.6H2.69998V84.5H2.59998V84.4H2.49997V84.3V84.2V84.1V84V83.9L2.59998 83.8H2.69998V83.7L2.79996 83.6V83.5V83.4V83.3V83.2V83L2.69998 82.9L2.59998 82.5V82.3L2.79996 82.2V82.1V82V81.9V81.8L2.69998 81.7V81.6V81.5H2.59998V81.4V81.3L2.69998 81.2V80.9L2.79996 80.8V80.7V80.6L2.69998 80.5V79V78.9V78.8L2.59998 78.7L2.39996 78.5L2.19998 78.3L2.09998 78.1H1.99997V78L1.89996 77.9L1.69998 77.5L1.59998 77.4V77.1L1.69998 76.8V76.5V76.1V75.7L1.79996 75.5H1.69998L1.59998 75.4H1.69998V75.3H1.79996V75.2H1.69998H1.59998V75.1L1.49997 75H1.59998V74.9H1.69998V74.8V74.7L1.59998 74.6L1.49997 74.5L1.59998 74.4V74.3H1.69998V74.2H1.79996L1.89996 74.1L1.99997 74V73.9V73.8H2.09998V73.7V73.6L1.99997 73.5L2.09998 73.4H2.19998H2.29996V73.5H2.39996H2.49997V73.4V73.3V73.2L2.59998 73.3L2.69998 73.4L2.79996 73.3L2.69998 73L2.49997 72.8L2.69998 72.4V72.3L2.79996 71.9H2.59998L2.49997 71.8H2.39996V71.7H2.29996L2.19998 71.5L2.09998 71.4V71.3H1.99997V71.2V71.1L1.79996 70.8V70.7V70.6H1.69998V70.4V70.3V70.1V70L1.79996 69.9L1.89996 69.7L1.19998 69.3V69.2H1.09998V69.1H1.19998L1.79996 68.2L1.89996 68L2.19998 67.5V67.4V67.3H2.29996V67.2V67.1V67L2.39996 66.9V66.8V66.7V66.6H2.49997V66.5V66.4V66.3H2.59998V66.2V66.1V66L2.69998 65.8V65.7V65.6H2.79996H2.89996H3.19998L3.29996 65.7V65.6V65.5V65.3V65.2V65.1V64.9V64.8H3.39996H3.49997H3.79996L3.89996 64.7V64.6H3.79996V64.5V64.4H3.89996H3.99997H4.09998H4.29996H4.39996H4.59998H4.69998H4.79996H4.99997V64.3H5.09998H5.19998L5.29996 64.4H5.39996H5.49997L5.69998 64.5L5.79996 64.4H5.89996H6.09998L6.49997 64.5L6.69998 64.6H6.79996H6.89996H6.99997V64.7H7.09998L7.19998 64.6V64.5V64.4H7.09998V64.3L6.99997 64.1V64H6.89996V63.9H6.79996L6.59998 63.7L6.49997 63.6H6.39996L6.29996 63.5L6.19998 63.4L6.09998 63.3V63.2L5.99997 63.1V63L5.89996 62.9H5.99997L6.09998 62.8L6.39996 62.6H6.49997V62.5H6.59998V62.4H6.69998V62.3L6.79996 62.1L6.89996 61.9L6.99997 61.7L7.29996 61.3H7.19998V61.2L6.79996 60.7L6.69998 60.5L6.59998 60.4H6.69998L6.79996 60.3L6.89996 60.1H6.99997H7.09998V60H7.19998H7.29996V59.9V59.8V59.7L7.39996 59.6V59.7H7.49997H7.59998L7.69998 59.8V60H7.79996H7.99997L8.09998 60.1H8.19998V60.2V60.3H8.29996H8.39996V60.4H8.49997H8.59998H8.69998L8.89996 60.2V59.9V59.8H8.79996V59.7V59.6V59.5V59.4V59.3L8.69998 59.2V59.1V59L8.59998 58.9H8.69998V59H8.79996L8.89996 59.1L8.99997 59.2L9.09998 59.3V59.4H9.19998V59.5H9.29996V59.6L9.39996 59.7L9.49997 59.8L9.69998 59.9H9.79996L9.89996 60L10.3 60.2L10.4 60.3H10.5V60.4H10.6H10.7H10.8H10.9L11 60.3L11.3 60L11.4 59.9L11.6 59.7L11.8 59.5L11.9 59.4V59.3V59.2H11.8V59.1H11.7V59L11.6 58.9H11.7V58.8V58.7H11.8V58.6V58.5V58.4V58.3V58.2V58.1V58H11.7V57.9V57.8H11.8V57.7L11.9 57.6H12V57.5V57.4H12.1V57.3H12.2H12.3H12.4H12.5H12.6H12.7H12.8H12.9H13L13.1 57.2H13.2H13.3L13.6 57.1H13.7L13.9 57L14 56.9H14.1L14.2 57H14.3H14.4L14.5 57.1L14.6 57.2V57.3L14.7 57.4H14.8V57.5L14.9 57.6H15V57.7H15.1H15.2V57.8H15.3V57.9H15.4L15.5 58H15.6V58.1H15.7L15.8 58.2L15.9 58.3L16 58.4L16.1 58.5L16.2 58.6V58.7H16.3V58.8L16.4 58.9L16.5 58.8L16.6 58.7H16.7V58.6H16.8V58.8L16.9 59.1H17L17.3 59L17.4 58.9H17.5V58.8L17.6 58.6L17.7 58.4L18 58.5H18.1V58.6H18.2V58.7H18.3L18.4 58.8H18.5H18.6H18.7L18.8 58.9H19V59H19.1V59.1V59.2L19.2 59.1V59V58.9L19.1 58.8H19.2V58.7H19.3L19.4 58.6V58.5H19.5L19.7 58.3L20 58V57.9V57.8H19.9H19.8V57.7L19.7 57.6L19.8 57.5H19.9V57.4L20 57.3H20.1L20.2 57.4L20.3 57.5V57.4L20.8 56.8L20.9 56.7L21 56.6V56.5H21.1V56.4V56.3L21.2 56.2L21.1 56.1V56L21 55.7L20.9 55.3V55.2V55.1H21H21.1H21.2V55.2V55.3L21.3 55.4L21.6 55.9L21.7 56L21.8 56.1L21.9 56.2L22.1 56.1V56H22.2V55.9V55.8V55.7V55.6H22.3V55.5V55.4H22.4H22.5H22.6H22.7V55.3H22.8V55.2H22.9H23V55.3H23.1V55.4V55.5V55.6L23.2 55.7V55.8V55.9V56H23.3V55.9L23.4 56H23.5V55.9H23.6H23.7H23.9H24.1L24.3 56H24.4H24.5V56.1H24.6V56.2H24.7V56.3V56.4L24.8 56.6H24.9H25H25.1V56.5H25.2H25.3V56.4H25.4H25.5V56.3L25.6 56.2H25.7H25.8H25.9H26L26.1 56.1H26.2H26.3V56V55.9L26.4 55.8V55.7H26.5V55.6H26.6L26.7 55.5H26.8H26.9H27L27.1 55.4V55.3L27 55.1V54.9V54.6V54.5V54.4L26.9 54.2V54.1V53.9V53.8V53.7L26.8 53.6H26.7V53.5H26.6V53.4L26.5 53.3L26.3 53.1L26.2 53.2L26.1 53.3H26H25.9H25.8H25.7H25.6H25.5V53.2L25.4 53.1V53H25.5L25.4 52.9V52.8L25.3 52.4L25.2 52.2V52.1V52L25.1 51.7L25 51.4V51.3H25.1V51.2H25.2H25.3H25.4L25.5 51.1H25.6H25.7L25.8 50.9V50.8V50.7V50.5L25.6 50.6L25.5 50.5L25.2 50.3L25.1 50.2H25V49.9V49.8V49.7V49.6L24.6 49.4V49.2L24.7 49.1L24.8 48.6V48.5L25 48.2V48.3H25.1H25.2V48.2L25.1 48.1V48L25.3 47.2V47.1V47L25.2 46.9V46.7V46.6L25.1 46.5L25 46.3L24.9 46.1L24.8 46V45.9H24.7V45.8V45.7L24.8 45.6V45.5L24.9 45.4V45.3H25V45.2V45.1V45L24.8 44.9L24.9 44.7L25 44.5H25.1L25 44.4V44.3L24.9 44.2V44.1H24.8V44V43.9H24.7V43.8V43.7H24.6V43.6L24.5 43.4L24.4 43.3L24.3 43H24.2V42.9L24 42.8V42.7H23.9H23.8H23.6L23.4 42.6L23.3 42.5L23.2 42.4H23L22.9 42.3L22.8 42.2V42.1V42V41.9V41.8L22.7 41.7V41.6V41.5V41.4H22.8H23.1H23.6L23.5 40.8L23 40.9L22.9 40.5H22.7V39.8H23.2V39.6H23.8L23.7 38.9V38.7V38.6V38.5V38.4H23.8V38.3V38.2H23.9L24 38.1L24.2 37.9L24.3 37.7L24.6 37.3V37.2L24.7 36.8L24.6 36.7V36.6H24.5V36.5H24.4L24.3 36.6L23.9 36.9H23.8V37H23.7L23.5 37.2L23.3 36.9L23 36.6V36.5H22.9V36.4H22.8V36.3L22.6 36.1L22.5 36V35.8H22.4V35.9H22.3L22.2 36L22 36.1L21.6 36.2L21.5 36L21.3 35.9L21.2 35.6L20.7 35.7L20.5 35.8L20.4 35.5L20 35.7H19.8L19.6 35.8L19.4 35.3L19.3 35L19.7 34.3L19.9 34H20V33.9L20.1 33.5V33.4L20.2 33.3V33.2V33.1V33L20.3 32.8H20.4L20.6 33H20.7L20.9 33.1L21.1 32.8L21.2 32.5L21.3 32.2V32.1H21.4H21.6H21.7V32L21.6 31.9V31.8H21.5V31.7H21.4L21.3 31.8H21.1H20.9H20.8L20.7 31.9H20.6H20.5L20.4 31.8L20.3 31.7H20.2H20.1H20H19.9H19.8H19.7H19.5H19.4H19.3H19.2H19.1H19V31.6H18.9V31.5H18.8V31.4H18.9L19 31.3V31.2V31.1H18.9V31V30.9V30.8V30.7V30.6V30.5V30.4H18.8V30.3V30.2H18.9V30.1V30V29.9V29.8L19 29.7V29.6V29.5H19.1V29.4V29.3V29.2V29.1V29V28.9L19.2 28.8V28.7H19.3V28.8H19.4H19.5H19.6V28.7H19.7L19.8 28.6H19.9H20V28.7H20.1V28.8H20.2H20.3V28.9L20.4 29V29.1H20.5V29.2V29.3L20.6 29.4H20.7H20.8V29.5H20.9H21L21.1 29.4V29.3H21.2V29.2L21.3 29.1H21.4V29L21.5 28.9L21.6 28.8H21.7H21.8V28.7V28.6V28.5V28.4V28.3L21.7 28.2V28.1V28H21.6H21.5V27.9H21.4V27.8V27.7V27.6V27.5H21.5V27.4V27.3H21.6L21.7 27.2L21.8 27.1V27L21.7 26.9V26.8L21.6 26.7V26.6L21.5 26.5V26.4H21.4H21.3V26.3H21.2L21.1 26.2L21 26.1H20.9V26L20.8 25.9L20.7 25.8H20.6V25.7H20.5H20.4V25.6H20.3V25.5H20.2H20.1H20V25.4V25.3V25.2V25.1V25H20.1V24.9V24.8V24.7L20.2 24.6L20.3 24.5H20.4L20.5 24.4V24.3H20.6L20.7 24.2V24.1V24V23.8L20.8 23.6H20.9H21H21.1H21.2H21.3L21.4 23.5L21.5 23.3L21.6 23.2L21.7 23V22.9V22.8V22.7V22.6H21.8V22.5V22.4V22.3H21.9V22.2V22.1L22 22V21.9L22.1 21.7L22.2 21.8L22.7 22.2V21.9V21.7V21.6V21.1V20.9V20.8V20.7V20.4V20.3V20.1V20H22.6V19.9H22.7L22.6 19.8H22.5V19.7H22.4L22.3 19.6L22.2 19.5L21.9 19.3L21.8 19.2L21.6 19L21.4 18.9L21.3 18.8L21.2 18.7H21.1L20.9 18.6L20.8 18.5L20.7 18.4L20.4 18.2V17.9V17.7V17.5V16.9H20.3V16.8V16.7V16.5L20.2 15.8H20.3L20.5 15.7H20.6H20.7H20.8L20.9 15.6H21.2H21.3H21.4V15.5H21.5L21.6 15.6H21.7L21.8 15.5H21.9H22.1H22.3L22.6 15.4H22.7V15.3L22.6 15.2V15.1L22.5 15V14.8L22.7 14.5L22.8 14.4H22.9L23 14.3V14.2L23.1 14.1L23.3 14V13.9H23.4L23.5 13.7L23.6 13.6L23.9 13.3H24V13.2H23.9H23.8H23.7L23.6 13.1H23.5H23.4H23.3L23.2 13H23.1V12.9H23V12.8V12.5V12.2L23.4 12.1H23.7H23.9V12V11.8V11.6V11.4V11.3V11.2H24L24.2 11.3L24.3 11.4H24.4H24.5H24.6H24.7H24.8H24.9L25.1 11.3H25.4H25.5H25.6H25.8H25.9H26H26.1V11.2H26.2H26.3H26.4H26.5L26.7 11.1H26.8V10.9V10.7V10.6H26.9V10.5L27 10.4H27.1V10.3H27.2H27.3H27.4H27.5H27.6H27.7H27.8H28H28.1H28.2H28.3H28.4H28.5L28.6 10.2H28.7H28.8H28.9V10.1H29H29.1H29.2V9.99998H29.3L29.5 9.89998L29.6 9.69998L29.8 9.59999L29.9 9.49998H30H30.1L30.2 9.39998H30.3H30.4H30.5H30.6H30.7H30.8L31 9.29999H31.2H31.3H31.4H31.5V9.39998H31.6H31.7H31.8L32.1 9.49998H32.2L32.3 9.59999H32.4H32.5H32.6H32.7V9.69998H32.8V9.79999H32.9V9.89998H33L33.1 9.99998H33.2H33.3H33.4H33.5H33.6H33.7H33.8H33.9V10.1H34H34.2H34.4H34.5V9.99998H34.6H34.9L35.2 9.89998H35.4H35.5H35.8H36H36.1V9.99998H36.5H36.9V9.89998H37H37.1V9.99998L37.2 9.89998H37.4H37.5L37.7 9.79999H37.8L37.9 9.69998H38V9.59999H38.1L38.3 9.39998H38.4L38.5 9.29999H38.6H38.7L38.8 9.19998H38.9H39L39.1 9.09999H39.2L39.5 8.99998V8.89998L39.6 8.79999L39.7 8.69998L39.9 8.59999V8.69998L40 8.79999H40.3L40.6 8.69998H40.9H41H41.1H41.2H41.3H41.4H41.5L41.6 8.59999H41.7H41.8H41.9H42H42.2H42.3L42.4 8.49998H42.6H42.8V8.39998H42.9L43.3 8.49998L43.1 8.89998H43.2H43.3H43.4H43.5H43.6V8.79999V8.69998H43.5V8.59999L43.6 8.49998V8.39998L43.7 8.19998L43.8 8.09999L44.5 7.89998V7.59999V6.89998V6.79999V6.69998H44.7L44.9 6.59999L45.4 6.99998V7.09999V7.19998V7.49998V7.69998V7.79999H45.6H45.9L46 7.89998H46.1H46.3H46.4H46.5H46.6H46.7H46.8H46.9L47 7.79999L47.2 7.69998H47.4L48.6 7.99998L48.8 8.09999H49L49.1 8.19998H49.2H49.3H49.4L49.6 8.29999H49.7H49.8V8.39998H49.9L50.2 8.59999L50.4 8.69998L50.5 8.79999H50.6L50.8 8.99998L51 9.09999L51.2 9.19998H51.3V9.29999L51.5 9.19998L51.8 8.99998H51.9L52 8.89998L52.2 8.79999V8.69998H52.3V8.59999H52.4H52.5L52.6 8.49998L52.7 8.39998L52.8 8.09999V7.89998L52.9 7.69998V7.49998L53 7.29999V7.19998V7.09999V6.99998V6.89998H53.1V6.79999L53.2 6.69998V6.59999V6.49998L53.3 6.39998V6.29999V6.19998L53.4 6.09999L53.3 5.99998L53.4 5.89998V5.79999H53.5V5.89998H53.6L53.7 5.99998L53.9 6.09999H54H54.1H54.2H54.3V5.99998H54.4L54.6 6.09999H54.7H54.8H54.9H55H55.1H55.2H55.3L55.4 5.99998H55.5H55.6H55.7L55.8 5.89998H55.9V5.99998V6.09999V6.19998V6.29999L56 6.39998V6.49998V6.59999V6.69998V6.79999L56.2 6.89998H56.4V6.99998L56.5 7.09999H56.6H56.7L56.8 6.99998L57 6.89998L57.1 6.79999H57.3L57.5 6.69998H57.6L57.7 6.59999H57.8H58L58.2 6.49998L58.5 6.39998L58.8 6.09999L58.9 6.19998H58.8V6.29999V6.39998V6.49998L58.9 6.59999V6.69998L59.1 6.79999L59.2 6.89998L59.4 7.19998H59.5V7.29999L59.7 7.59999V7.69998L59.8 7.79999L59.9 8.09999L60.4 8.79999H60.6L60.7 8.99998L60.9 9.59999V9.69998V9.79999H61L61.3 9.69998H61.4L61.7 9.49998L61.9 9.39998L62.3 9.29999L62.4 9.19998H62.5V9.09999V8.99998V8.89998V8.79999V8.29999L62.6 7.99998V7.19998V7.09999V6.99998L62.7 6.89998H62.8H62.9H63H63.1H63.2V6.79999H63.3L63.4 6.69998H63.5V6.59999H63.6L63.7 6.69998H63.8H63.9V6.79999H64H64.1H64.2L64.5 6.99998L64.4 6.89998L64.3 6.49998V6.39998L64.4 6.49998L64.9 6.69998L65.4 6.89998L65.7 6.99998L65.8 7.09999H65.9L66.1 7.19998L66.5 7.49998L66.6 7.59999H66.7L66.8 7.69998H66.9L67 7.79999L66.9 7.49998V7.39998V7.29999H67.1L67.3 7.19998L67.6 7.09999L67.8 6.99998L68 7.29999L68.3 7.19998H68.4L68.6 7.09999L68.7 7.39998V7.49998L68.8 7.89998V7.99998L69.2 7.89998V7.69998L69.3 7.59999L69.4 7.29999L69.5 6.99998L69.7 6.69998L69.8 6.49998V6.39998L70 6.29999H70.3H70.5V5.89998L70.2 5.99998H70.1V5.49998V5.39998V5.29999V5.19998V4.99998V4.59999V4.29999H70.6H71L71.3 4.39998H71.4H71.5H71.6H71.8L71.7 3.79999V3.69998H72H72.6L73.1 3.59999H73.2H73.3V3.49998V3.39998V3.19998H73.4H73.6L73.8 3.09999H74.6H74.8V2.99998L74.9 2.79999V2.69998L75 2.39998L75.1 2.09999V1.79999L75.2 1.69998L75.4 0.999985V0.799988H75.5H75.8H75.9H76H76.2H76.4H76.5H76.6V0.899979L76.7 0.999985V1.09999H76.8H76.9V1.19998H77H77.1H77.2L77.3 1.29999H77.4L77.5 1.39998L77.4 1.79999V1.89998V1.99998V2.09999H77.5V2.19998H77.6H77.7L77.8 2.29999H77.9V2.39998H78V2.49998H78.1V2.59999H78V2.69998H77.9L77.8 2.79999L78 2.99998L78.4 3.19998L78.8 3.29999L79.5 3.59999V3.69998L79.6 3.79999V3.89998H79.7V3.99998L79.8 4.09999L79.9 4.19998V4.29999H80L80.1 4.39998V4.49998H80.2V4.59999H80.3L80.2 4.89998V5.09999L80 5.49998V5.69998V5.79999L79.9 6.09999L79.8 6.19998H79.9H80H80.1H80.2H80.3V6.09999H80.4H80.5H80.7V6.19998V6.29999V6.39998V6.59999V6.69998V6.89998V6.99998L80.8 7.09999V7.19998L80.9 7.29999L81 7.39998L81.1 7.49998L80.9 7.79999L80.5 8.19998L80.2 8.59999L79.8 9.09999H79.9L80.3 9.29999L80.5 9.39998L80.7 9.49998L80.9 9.59999V10.3L80.8 10.9V11.3H80.9H81L82 12L82.4 12.2L82.6 12.3L82.7 12.4V12.6V12.7L82.8 12.8V12.9V13H82.9V13.1V13.3V13.5L82.6 13.4V13.5H82.5L82.4 13.6V13.7L82.3 13.9L82.2 14.1L82.4 14.3L82.1 14.7L81.9 14.9L81.7 15.3L81.4 15.7H81.3L81.1 15.6H81H80.9H80.8V15.7V15.8V15.9V16L80.7 16.1V16.2L80.6 16.3V16.5L80.5 16.7V16.8H80.2H80.1L80 16.9L79.9 17V17.1V17.2V17.3H80V17.4V17.5L80.1 17.6H80.2H80.3H80.4H80.5H80.6V17.7H80.7H80.8V17.8L80.9 17.9L81.1 18.1L81.2 18.4L81.3 18.5L81.4 18.7L81.6 18.9L81.7 19.2L81.9 19.4V19.5H81.8H81.7H81.6L81.8 19.9L82.1 19.8L82.4 20.1L82.6 20.3L82.8 20.5L83.1 20.7V20.8L83 21H82.9V21.1H82.8V21.2V21.3L82.7 21.4V21.5L82.6 21.6V21.8H82.5V22L82.4 22.1L82.3 22.2V22.3L82.2 22.4L82.1 22.5V22.6H82V22.7V22.8L81.9 22.9V23V23.1L82 23.2V23.3H82.1V23.4L82.3 23.5V23.6H82.4H82.5L82.6 23.7H82.7H82.8L82.9 23.8H83H83.1V23.9H83.2H83.3L83.5 24H83.6H83.7H83.8L83.9 24.1H84H84.1H84.2V24H84.3H84.4H84.5L84.6 23.9H84.7H84.8L84.9 23.8H85H85.2H85.3H85.4H85.5L85.6 23.9H85.7H85.9L86.1 23.8L86.3 23.9H86.4H86.5H86.6H86.7L86.8 24L86.9 23.9H87H87.1L87.2 23.8H87.3H87.4V23.9H87.9L88.5 24.6H88.6V24.5L88.7 24.4H88.8L88.9 24.3L89.1 24.2H89.2L89.3 24.1H89.4H89.5L89.6 24H89.7H89.8H89.9L90 23.9H90.2H90.3H90.4V24H90.5V24.1H90.6L90.7 24H90.8H90.9H91V24.1H91.1H91.2H91.3L91.4 24.2H91.5H91.6V24.3H91.7H91.8H91.9H92H92.1H92.2H92.3H92.4V24.2H92.5V24.1H92.6V24H92.7L92.8 23.9V23.8H92.9V23.9H93V24H93.1L93.2 24.1L93.3 24.2L93.4 24.3L93.7 24.1H93.9V24V23.9V23.8H94L94.9 23L95 23.2L95.2 23.5L95.3 23.7L95.4 23.8V23.9V24.1H96.5V23.9V23.3V22.8V21.9V21.3V21.2H96.6H96.7L97.1 21.3H97.2H97.3H97.4H97.8L98.2 21.2H98.7H98.9H99.2V21.3L99.4 21.6L99.7 22.1L99.8 22.2L99.9 22.1L100 21.9L100.4 21.4L100.5 21.2H100.6V21.3L100.7 21.2L100.8 21.3H100.9V21.4V21.5H101V21.6H101.1V21.7H101.2V21.8H101.3L101.4 21.9V21.8H101.5H101.6H101.7H101.8L102.1 21L102.4 20.1L102.5 19.9V19.8L102.6 19.6L102.8 19.4L103.3 18.8V18.7L103.4 18.8H103.5V18.9H103.6V19H103.7V19.1H103.8H103.9L104 19.2L104.1 19.3L104.2 19.2V19.1V19L104.3 18.9V18.6L104.4 18.5L104.7 18.6L104.9 18.7L105.1 18.8H105.2H105.3V18.9L105.6 19H105.8L105.9 19.1L106.6 19.4L107 19.5L107.1 19.1L107.4 19.3L108 19.5H108.1L108.5 19.7H108.7L108.8 19.8H108.9V19.9V20.1V20.2H109L109.1 20.3H109.3L109.4 20.4L109.6 20.5V20.7L109.5 20.9H109.3L109.2 20.8L109 21.2V21.3H108.9V21.4L108.8 21.5L108.6 21.6L108.3 21.8V21.9V22L108.4 22.2V22.4L108.3 22.5L108.2 22.7L108 22.9L107.9 23.1L107.8 23.2L107.7 23.3L107.9 23.4H108L108.1 23.5V23.6L108 23.7L107.8 23.8L108.1 24.2L108.2 24.4L108.3 24.6L108.4 24.7L108.5 24.8V24.9L108.6 25L108.7 25.2L108.8 25.4H108.9L109 25.6V25.7L109.1 25.8L109.2 25.9V26L109.3 26.1L109.4 26.2V26.3V26.5H109.5V26.7V26.8V27V27.2L109.6 27.4V27.5V27.6L109.7 27.7V27.8V27.9L109.8 28.1V28.2H109.9H110.1V28.3V28.4L110.2 28.6V28.7H110.1L110 28.6V28.9L109.9 29V29.3L109.8 29.5H109.9L110 29.6H110.3L110.4 29.7H110.5L110.6 29.8L111.2 30.6L111.3 30.8H111.4V30.9L111.5 30.7L111.6 30.6H111.7H111.9H112.1L112.2 30.8V31.1H112.1V31.4V31.5V31.6H112L111.9 31.5H111.8L111.7 31.4H111.6H111.5V31.3H111.4H111.3H111.2V31.4H111.1H111V31.3H110.9H110.8V31.4H110.7V31.5H110.6V31.6V31.7V31.8L110.5 31.9V32L110.4 32.1H110.3H110.2H110.1V32.2V32.3H110L110.1 32.4V32.5L110.3 32.8L110.5 33.2L110.7 33.6L110.9 33.9H111L111.1 34V34.1L111.3 34.2L111.4 34.3L111.6 34.4L111.8 34.5L112.3 34.7H112.4V34.8V34.9L112.5 35V35.1L112.6 35.4V35.5L112 35.9L111.9 36L111.8 36.1L111.7 36.2L111.5 36.3L111.6 36.5L111.7 36.6V36.7L111.5 36.9H111.4V37L111.1 37.2L110.9 37.5H110.8L111 37.8H110.9V37.9L110.5 38.2L110.2 38.4L110.1 38.6L110 38.8L109.9 38.7H109.8L109.7 38.8H109.6L109.1 38.9L108.7 39L108.1 39.2L108.2 39.7V39.9V40H108.1L108 40.2V40.3L107.9 40.6V40.8L108 41.2L108.1 41.3H108.2H108.3L108.5 41.5L108.6 41.6L108.7 41.7L108.8 41.8L108.9 41.9V42V42.1V42.2V42.3V42.4V42.5L109 42.6V42.7V42.8V42.9V43V43.3L109.1 43.4L109 43.5V43.6V43.7V43.8L109.2 44V44.1V44.2L109.3 44.3L109.4 44.4L109.5 44.5V44.6H109.6V44.7V44.8H109.9L110.2 44.9H110.4H110.5V45L110.6 44.9H110.7H110.8H110.9H111V45H111.1H111.2V45.1H111.3L111.4 45V44.9L111.5 44.8H111.6H111.7L111.8 44.9H111.9H112L112.4 45.2H112.6L113.1 45.6L113.5 45.9L113.9 46.2L113.7 46.3V46.4V46.5H113.6H113.5H113.4V46.6H113.3V46.7V46.8L113.4 46.9V47V47.1V47.2V47.3L113.5 47.4H113.6V47.5H113.7V47.6V47.7H113.8L113.7 47.8H113.8V47.9V48H113.9V48.1V48.2L113.8 48.3H113.7V48.4H113.6V48.5L113.7 48.6H113.8H113.9H114L113.9 48.7L113.8 48.9L113.7 49.1L113.6 49.3L113.7 49.4V49.5L113.8 49.6L113.9 49.7H114L114.1 49.8H114.2V49.9H114.3V50V50.1H114.4L114.5 50.2V50.3H114.6L114.7 50.4V50.5L114.8 50.6V50.7H114.9V50.8H115H115.1H115.2H115.3H115.4L115.5 50.7H115.7L115.8 50.6H115.9L116 50.5H116.1L116.2 50.6L116.3 50.7L117.2 51.3L117.4 51.5L117.5 51.4V51.2L117.6 51.1V51V50.9V50.7V50.6V50.5V50.4V50.3L117.7 50.2V50.1V50L117.8 49.9V49.8H117.9L118 49.7L118.1 49.6L118.4 49.5H118.5L118.9 50.5L119.1 50.9L119 51H118.9H118.8V51.1V51.2V51.3V51.4V51.5V51.6L119 51.8L119.2 51.9H119.3L119.4 52H119.5H119.6L119.7 52.1H119.8V52.2L119.7 52.3H119.6L119.5 52.4L119.4 52.5V52.6L119.3 52.7H119.2H119.1H119H118.9H118.8L118.7 52.6H118.6H118.5V52.5H118.4H118.3V52.4H118.2H118.1L118.2 52.8L118.5 53.8L118.7 53.9L119.3 54.1V54.7V55.1V55.5V55.7V55.8L119.2 55.7H119.1H119V55.6L118.9 55.7L118.8 55.9V56.2V56.6H118.9L118.8 57V57.2V57.4V57.5V57.7L118.7 57.8H118.4L118.5 58V58.3V58.8H118.6V58.9L118.7 59.1L118.8 59.3L118.9 59.6H119.5L119.6 59.8V60.3L119.4 60.4H119.3H119.2L119.1 60.5H119H118.9H118.8H118.7V60.6H118.4L118 60.7L117.2 60.8L117 61.1H116.9H116.8L117 61.9V62V62.1L117.1 62.2V62.3V62.4L117.2 62.5V62.6V62.7L117.3 62.9L117.2 63L117 62.9H116.9L116.8 62.8H116.7H116.6H116.5L116.4 62.7H116.3V62.6H116.2L116 62.5H115.9H115.8H115.7L115.6 62.4L115.5 62.3L115.4 62.5L115.3 63L115.1 63.5V63.7L115 64L114.8 64.7L114.6 65.1L115 65.4L114.9 65.5V65.6L114.8 65.7H114.7H114.6H114.5L114.4 65.8V65.9L114.5 66.1L114.4 66.2L114.3 66.1L114.2 66H114.1V65.9L114 65.8H113.9V65.7L113.8 65.5H113.7V65.4H113.6L113.2 65.3V65.4L113.3 65.5L113.4 65.6V65.7H113.5V65.8V65.9V66V66.1V66.2H113.6V66.3V66.4L113.7 66.5V66.6H113.8L113.9 66.7L114 66.8V66.9L114.1 67V67.1L114.3 67.6V67.7V67.8V67.9V68H114.4V68.1L114.7 68.6L114.9 68.9L115.4 68.5H115.5L115.6 68.7V68.6H115.7H115.8V68.5H115.9V68.4H116V68.3H116.1L116.2 68.2H116.3V68.1H116.4V68V67.9H116.5H116.6V68H116.7V68.1L117 67.8L117.1 67.7V67.9V68.1L117 68.3L117.1 68.4V68.6V68.7H117.2L117.4 68.6L117.5 68.8L117.3 69L117.2 69.2L117.1 69.3L117.3 69.4L117.7 69.7L117.2 70.4L117 70.7L116.6 71.3L116.4 71.7L115.9 72.4L115.7 72.6L115.5 72.9L115.7 73.2L115.9 73.6L116 73.7L115.9 73.8L115.7 74.3L115.6 74.5L115.8 74.6L115.7 74.7L115.8 74.8L116.1 75L116.3 75.1V75.2L116.4 75.3L116.2 75.4L116.1 75.5V75.6H116.3L116.5 75.8L117.3 76.5L118 76.2L118.2 76.3L118.4 76.4V76.5H118.5L118.6 76.6H118.7H118.8L119.3 76.7H119.4L119.7 76.8V76.9H119.6V77L119.5 77.1L119.1 77.3L119 77.4L118.9 77.5L118.6 77.6H118.5H118.4V77.7V77.8L118.5 77.9V78H118.6H118.7V78.1H118.8H118.9H119H119.1V78.2L119.2 78.3H119.3V78.4L119.4 78.5L119.3 78.7L119.4 78.8V78.9V79.4V79.7L119.5 80V80.5V80.8V80.9L119.8 81H120H120.1V81.1L120.4 81.2L120.7 81.4H120.8L121 81.5H121.1V82V82.7V82.8L121.2 83.4V83.8V84.3V84.8V85.2L121.3 85.6V85.9V86.1V86.2L121.6 86.3L121.7 86.4L121.8 86.3H121.9L122 86.2H122.1H122.2L122.3 86.3L122.4 86.4L122.5 86.5L122.6 86.6H122.7H122.8H122.9L123 86.7H123.2H123.3L123.2 86.9H123.1V87L123 87.1L123.8 87.3H124L125.4 87.7H125.5L125.7 87.8L126 87.9H126.3V88.2L126 88.3L126.1 88.5L126.3 88.7L126.6 89.2H126.7L126.9 89.3V89.4V89.5H127V89.6V89.7H127.1V89.8H127.2V89.9V90V90.1L127.1 90.4L126.7 90.2L126.4 90.1L126.3 90.5L126.2 90.6L126.1 91L126 91.1L126.1 91.2L125.8 91.7L126.2 91.8L126.1 92.1H126.3L126.1 92.8L126.6 92.5L126.7 92.6L127.1 93L127.4 93.4L127.8 93.8L128 94L128.3 94.3L128.6 94.6L128.9 94.9L129.6 95L130.4 95.1L130.3 95.3L130.2 95.4V95.5V95.6V95.7L130.3 96L130.9 95.9L131 96.6L131.4 96.5V96.8V97L131.5 97.1L131.6 97.2H131.9V97.5L132 97.7L132.6 97.6L132.7 97.9V98V98.1L132.6 98.2L132.5 98.3V98.4V98.6V98.7V98.8H132.4V99H132.5L132.6 99.1V99.2V99.3V99.4H132.5L132.4 99.5H132.3L132.2 99.6V99.5H131.9H131.6L131.5 99.6H131.4L131 99.7H130.8H130.6L130.7 99.9L130.6 100V100.3L130.5 100.7H130.4L130.5 100.8V100.9V101L130.6 101.1L130.7 101.4L130.9 101.6L131 101.7L131.6 101.6L131.9 101.7L132.3 101.9L132.7 102L133.2 102.4H133.4V102.5V102.6L133.3 102.8V102.9V103.4V103.5L133.4 103.6V103.7L133.3 103.8V104.1L133.4 104.2L133.5 104.3V104.6H133.6L133.5 104.8H133.6H133.8V104.9L133.9 105H134H134.1V105.1L134 105.3H134.1V105.4V105.8L134 106.1V106.3V106.4H134.1V106.5V106.6L134 106.7L133.9 106.6L133.8 106.5H133.7H133.6H133.5H133.4V106.6H133.3V106.5H133.2L133.1 106.4H133H132.9H132.8L132.7 106.5L132.5 106.7L132.6 106.9L132.9 107H133H133.1L133.3 106.8V107H133.4V107.1V107.2L133.3 107.3V107.5V107.6L133.2 108V108.3L133.1 108.6H132.7L132.5 108.5H132.1V108.6L131.9 108.8H131.7L131.6 108.7H131.5H131.4L131.3 109.2L131.2 109.5V109.7L131.1 110V110.1H131.3L131.5 110.2L131.4 110.4V110.6L131.3 111H131.1L130.9 110.9H130.8H130.7V111V111.1V111.2L130.8 111.3V111.4V111.5L130.5 111.6L130.6 111.8L130.2 112L130.1 112.1L130 112.2L129.8 112.3V112.4L129.6 112.5L129.4 112.6V112.5V112.4V112.3L129.3 112.4L128.7 112.5L128.4 112.7V112.8L127.6 113.3L127.3 113.5L127.2 113.3L126.3 113.6L126.2 113.7L126.3 113.8V113.9V114H126.4V114.1H126.5V114.2L126.6 114.3V114.4H126.5V114.5L125.9 114.9L124.9 115.8L124.1 116.5L122.7 117.6L122.3 117.9L122.4 118L122.5 118.1L122.6 118.2L122.7 118.3H122.8H122.9H123L123.1 118.4V118.5L123.2 118.6H123.3V118.7V118.8V118.9V119V119.1V119.2L123.4 119.3H123.5V119.4H123.6V119.5H123.7V119.6L123.6 119.7L123.2 119.5V119.6V119.9V120.2V120.7V120.8H123L122.9 121H122.7H122.4L122.2 120.9V121.2L122.1 121.8V122V122.1H121.9H121.8H121.7L121.6 122.2H121.7V122.3H121.6V122.4V122.5H121.5H121.4V122.6L121.6 122.9L121.5 123V123.1L121.3 123.2H121.2V123.3L121.1 123.4V123.5H121V123.4L120.9 123.3H120.8H120.7H120.6H120.5V123.5V123.7V123.9L120.4 124L120.7 124.1V124.2V124.4V124.5H120.9V124.6V124.7V124.8H121L120.9 124.9H121L121.1 125H121.2L121.3 125.1L121.4 125.2L121.6 125.3L121.5 125.5V125.6L121.6 125.9L121.8 126.3H121.7L121.5 126.5L121.7 126.8L121.9 127V127.1L122 127.3L122.1 127.5V127.6L122 127.9L121.9 128.1V128.2L121.8 128.3V128.5H121.7V128.6L121.6 128.7V128.8H121.5L121.6 129V129.1V129.2H121.7V129.3H121.6V129.4H121.7L121.6 129.5H121.7L121.8 129.7L121.9 129.8L122 130V130.1V130.4H121.9L121.7 130.6H121.6H121.5H121.4L121.1 130.8V130.7H121H120.9H120.8H120.6H120.4L120.3 130.6H120.2H120.1H120H119.9H119.8H119.7H119.6H119.5H119.4H119.3H119.2H119.1L118.9 130.7H118.8H118.7L118.5 130.8L118.4 130.9H118.3L118.2 131H118.1V131.1H118H117.9L117.7 131.2L117.5 131.3L117.3 131.5L117.2 131.6L117.1 131.7L116.7 131.4L116.5 131.3L116.4 131.2L116.3 131.1H116.2H116H115.9H115.7V131.2L115.8 131.6L116 132L116.1 132.2L116.4 132.7L116.5 132.9L116.6 133.1V133.2L116.7 133.3V133.5V133.6V133.7V133.8V134.2L116.6 134.6V135.2L116.5 135.4V135.5V135.7V135.8V135.9V136.1L116.6 136.2V136.3H116.5V136.5L116.4 136.7L116.3 136.8L116.1 136.7V136.9L115.8 136.8V136.9L116 137L116.2 137.1H116.3V137.3L116.2 137.5V137.6V137.7L116.1 137.8L116 137.7L115.9 137.6L115.8 137.5H115.7H115.5H115.4V137.4H115.3H115.2L115 137.5H114.9H114.8V137.4V137.2V137.1L114.9 136.9V136.6H114.8L114.6 136.5L114.5 136.4L114.2 136.3L113 135.9V136L112.9 136.3L112.8 136.5V136.6V136.7V136.8V136.9L112.7 137H112.6V137.1H112.5H112.4H112.3L112.2 137.2V137.3L112.1 137.4L112 137.5L112.1 137.6L112.2 137.8V138V138.1L112.3 138.2H112.2H112.1H112L111.8 138.1H111.7L111.6 138L111.5 138.1V138.2L111.4 138.4H111.3H111.2V138.3H111.1H110.9V138.4L110.7 138.5L110.6 138.4H110.5H110.4L110.3 138.3H110.2H110.1L110 138.2H109.9L109.8 138.3H109.7H109.6L109.5 138.4V138.5H109.4H109.3H109.2L109.1 138.4H109H108.9H108.8H108.7H108.6L108.5 138.3H108.4H108.3H108.2L108.1 138.2H107.9H107.8H107.6V138.1L107.5 138H107.4L107.3 137.9H107.2H107.1L106.8 137.8H106.7V137.7V137.6V137.5V137.3L106.6 137.1V137L106.5 136.9V136.7L106.2 136.6H105.8L105 136.7L104.7 136.8L104.3 136.9H104.1L103.9 137L103.5 137.1H103.2L102.6 137.3H102.5V137.4H102.4L102.3 137.5L102 138.1H101.9L102.2 138.7L101.4 139.1L101.2 138.8L101 138.9H100.9L100.7 139L100.4 139.1H100.3V139V138.9L100.4 138.8V138.7V138.6L100.1 138.8L99.9 138.9L99.8 138.8H99.7H99.6H99.5L99.2 138.9L98.5 139.3L98.4 139.4L98.3 139.3L98.2 139.2L98.1 139.1H98L97.9 139L97.7 139.1H97.4H97.3L97.2 139V138.9H97.1L97 138.8V138.9H96.9L96.8 139H96.7H96.6H96.5L96.2 138.9L96 138.8V138.7V138.6L96.1 138.1V137.8H95.6L95.7 137.6V137.5L95.6 137.4V137.5H95.5L95.4 137.7L95.1 137.6V137.5L95 137.6V137.7H94.8V137.8L94.6 137.7H94.5V137.8V137.9L94.4 138.1H94.3H94.2H94.1L94 138H93.9L93.8 137.9V138H93.6L93.7 137.7L93.5 137.6L93.3 137.3V137.2H93.2L93 137.1L92.9 137V136.9L93 136.7L93.1 136.6L93.4 136.5H93.5H93.6L93.8 136.4V136.5H93.9L94 136.6V136.7H94.1L94.5 136.8L94.6 136.7L94.8 136.3V136.2L95 136.1H95.2V136.2H95.3H95.4H95.5L95.6 136.1L95.8 136V135.8H95.7V135.9H95.6L95.5 135.8V135.7V135.6H95.4V135.5V135.4V135.3V135.2V134.9L95.3 134.6L95.2 134.7V134.8H95.1L94.8 135.2L94.7 135.3L94.5 135.2H94.3V135.3L94.2 135.2L94 135.1H93.9V135.2L93.6 135.1H93.4H93.3V135.2V135.3V135.4H93.2V135.8H92.8L92.4 135.7H92.3L92.2 135.6V135.5L92 135.4V135.3L91.8 135.2H91.5H91.3H91.2L91.1 135.3H90.8H90.6H90.4H90.1H89.9H89.8V135.2H89.9H90L90.2 135.1V135H90.3H90.4V134.9L90.5 134.8L90.6 134.7L90.4 134.6L90.3 134.5L90.2 134.4H90.1L90 134.1L89.7 134.2L89.4 134.4V134.3H89.3L89.2 134.2L89 134L88.8 133.8L88.7 133.7L88.6 133.6L88.4 133.3L88.3 133.2L88.2 133.1L87.8 132.7L87.7 132.5L87.6 132.4H87.5V132.3H87.4V132.2L87.3 132.1V132H87.2L86.9 131.6L86.7 131.7L86.6 131.4V131.3H86.5V131.2H86.4V131.3H86.3H86.2L86 131.2H85.9L85.8 131.4L85.6 131.3V131.6L85.8 131.8L85.7 131.9H85.6L85.7 132L85.6 132.3L85.4 132.2L85.2 132.4L85 132.7V132.8L84.9 133.1V133.2V133.3V133.5V133.6V133.7V133.8L84.8 134L84.9 134.1L85.1 134.3V134.4V134.5L85.2 134.6L85.1 134.8H85L84.9 135.1L84.8 135.2V135.3V135.4H84.7V135.5H84.6V135.6L84.3 135.9L84.4 136H84.5V136.1L84.3 136.3V136.4H84.2L84 136.3H83.9V136.2L83.7 136.1L83.6 136V135.9V135.8V135.7L83.5 135.6V135.5L83.4 135.3L83.3 135.1V135L83.2 134.9L83.1 134.7H83H82.9V134.6V134.5H82.8V134.6V134.7H82.7L82.6 134.6L82.5 134.5L82.3 134.4L82.2 134.5L82.1 134.6V134.7L82 134.8L81.9 134.9L81.7 134.8L81.6 134.6L81.5 134.5V134.4H81.2L81.1 134.3V134.2H81H80.9H80.7H80.6H80.5L80.2 134.1H79.9L79.8 134.3V134.5L79.7 134.8L79.6 135.1L79.5 135.5L79.3 136.3L79.2 137L79.1 137.6V137.9L79 138.3V138.4V138.5H78.9H78.8L78.9 138.6V138.7H79V138.8H78.9L78.6 138.9L78.2 139L77.1 139.3L77 139.4L76.2 139.7L76.1 139.8L76 140H76.1L76.2 140.1H76.3V140.2V140.3L76.2 140.4V140.5H76.1L76 140.6V140.7L75.8 140.6V140.5L75.6 140.4L75.4 140.3V140.1V140H75.3H75.2L75 139.9V139.8V139.7H75.1V139.6V139.5L75.3 138.7L75.4 138.4L75.5 138.2L75.4 138L75.3 137.7V137.6L75.2 137.5L75.1 137.4L75 137.3V137.2H74.9V137L74.8 136.9L74.7 136.6V136.5L74.6 136.4L74.4 136.5V136.4L74.3 136.3L74.2 136.2L73.9 136.3L73.6 136.4L73.3 136.5L73.2 136.4L73.1 136.2L73 136.1V135.9H72.9V135.8V135.7L72.8 135.8L72.7 135.9L72.6 136H72.4H72.3V136.1V136.2V136.4H72.1H71.7H71.6L71.3 136.5H71.2L71.1 136.4L70.9 136.3L70.8 136.2L70.6 136L70.3 135.6H70.1L69.9 135.7L69.6 135.8H69.3L69.1 136L69 136.1L68.6 136.4L68.4 136.3L68 136.1H67.9H67.8H67.7V136.2H67.6V136.3H67.5H67.4L67.3 136.4H67.2H67.1L67 136.5H66.9L66.8 136.3L66.6 135.9L66.5 135.7V135.6V135.4V135.3L66.4 135.1L66.5 135L66.6 134.8H66.5H66.4L66.3 134.9H66.2H66.1H65.7L65.5 135H65.3H65.2H65.1L65 135.1H64.9V135V134.9V134.8V134.7V134.6V134.5V134.4H64.8L64.6 134.3H64.4V134.2H64.3H64.2V134.3H64.1H64V134.2H63.9H63.8V134.1H63.7L63.6 134H63.5L63.4 133.9H63.3H63.2V133.8L63 134V133.9H62.9L62.8 133.8V133.7L62.7 133.6L62.6 133.5V133.4H62.5L62.4 133.3L62.3 133.2L62.2 133V132.9H62.1V132.8H62L61.9 132.9L61.8 133L61.7 133.1L61.6 133.2L61.4 133.3L61.3 133.2V133.1L61.1 132.9L61 132.8V132.7L60.9 132.6L60.8 132.7H60.7H60.6V132.8H60.5L60.3 132.9V133H60.2H60.1H60H59.9L59.7 133.1V133.2V133.3H59.6V133.4H59.5V133.5H59.4V133.6H59.3V133.7H59.2V133.8V133.9V134H59.1H59V134.1H58.9V134.2V134.3H58.8L58.7 134.4H58.6H58.5H58.4H58.3H58.2V134.5H58.1V134.4H58H57.9H57.8H57.7L57.6 134.5L57.8 134.8L58 135L58.2 135.2L58.3 135.3L58.4 135.4L58.5 135.5H58.3L58 135.8L57.6 136L57.4 136.3V136.6V136.7V136.8L57.5 136.9V137L57.4 137.2H57.3V137.3L57.2 137.4V137.5V137.6V137.9V138V138.2V138.3V138.4V138.5V138.6V138.7V138.8V138.9L57.3 139V139.1V139.2V139.3L57.2 139.4V139.5V139.6L57.1 139.7V139.8L57 139.9V140V140.1V140.2V140.3V140.4H57.1V140.5H57.2L57.3 140.6H57.4V140.7H57.5V140.8H57.4V140.9L57.3 141H57.2L57 140.9H56.9H56.8L56.7 140.8L56.6 140.7L56.5 140.6H56.4L56.3 140.5H56.2L56.1 140.4H56H55.9H55.8H55.7L55.6 140.3H55.5L55.4 140.2L55.2 140.1V140H55.1L55 139.9L54.9 139.8V139.7L54.8 139.6V139.5V139.4L54.7 139.3V139.2L54.6 139.1V139L54.5 138.9L54.4 138.8L54.3 138.7V138.6L54.2 138.5V138.4V138.3V138.2V138.1V138V137.9V137.8L54.1 137.7V137.6L54 137.5V137.4L53.9 137.3L53.8 137.2L53.7 137.1V137L53.6 136.9L53.5 136.7H53.4V136.6V136.5V136.4V136.3L53.5 136.2V136.1V136H53.6L53.7 135.8L53.8 135.6L53.9 135.5L54.1 135.4L54.3 135.3L54.4 135.1V135V134.9L54.3 134.8V134.7L54.2 134.6V134.5V134.4V134.3L54.1 134.2V134.1L54.2 134V133.8V133.7V133.6V133.5L54.1 133.4V133.3V133.2H54V133.1L53.9 133L53.8 132.9V132.8H53.7L53.6 132.7H53.5L53.3 132.6H53.2H53.1L53 132.5H52.9H52.8H52.7H52.6H52.3H52.1H52H51.9L51.7 132.6H51.6L51.5 132.7L51.4 132.8L51.3 132.9L51.2 133.1H51.1V133.2L51 133.3V133.4L50.9 133.6L50.8 133.7V133.9L50.7 134.1V134.2V134.3L50.6 134.5V134.6L50.5 134.7V134.8L50.4 134.9V135V135.1L50.3 135.2V135.3H50.2L50.1 135.4V135.5H50V135.6H49.9L49.8 135.7H49.6L49.5 135.8H49.4H49.3H49.2V135.9H49.1H49H48.9H48.8H48.7H48.5H48.4H48.3L48.2 135.8L48.1 135.7H48V135.6H47.9L47.8 135.5H47.7V135.4L47.6 135.3L47.5 135.2V135.1L47.6 135V134.9V134.7H47.7V134.6V134.5H47.6V134.4V134.3V134.2V134.1V134V133.9L47.7 133.8V133.7L47.8 133.6L47.9 133.5H48V133.4H48.1L48.2 133.3H48.3L48.4 133.2L48.7 133.1L48.8 133L49 132.8L49.3 132.7L49.6 132.5L49.8 132.3L50 132.1L50.3 131.6L50.4 131.5L50.5 131.4V131.3V131.2V131.1V131V130.9L50.6 130.8V130.7L50.8 130.3V130.2V130.1V130V129.9V129.8L50.9 129.7V129.6L50.8 129.4V129.3V129.2V129.1V129V128.8V128.7V128.6V128.5H50.7V128.4L50.6 128.3V128.1L50.5 128V127.9L50.4 127.8V127.7L50.3 127.6V127.5H50.2V127.4L50.1 127.3L50 127.2H49.9H49.8H49.7H49.6L49.5 127.3H49.4L49.3 127.4H49.2V127.5H49.1L49 127.6L48.9 127.7V127.9H48.8V128V128.1H48.7L48.6 128.2H48.5L48.4 128.3H48.3V128.2H48.2H48.1V128.1L48 128V127.9H47.9V127.8L47.8 127.7V127.6H47.7H47.6H47.5L47.4 127.7H47.3L47.2 127.8L47.1 127.9L47 128L46.9 128.1L46.8 128.3L46.7 128.4H46.6L46.5 128.5H46.4H46.2L46.1 128.6H46L45.9 128.7H45.8L45.7 128.8L45.6 128.9H45.5L45.4 129V129.1L45.3 129.2H45.1V129.3L44.9 129.4H44.8L44.6 129.5L44.5 129.6L44.4 129.7H44.3L44 129.9L43.9 130H43.8L43.5 130.2L43.3 130.3H43.2H43.1L43 130.4H42.9H42.8H42.7H42.6H42.5H42.4L42.3 130.3L42.2 130.2L42.1 130.1L41.9 130L41.8 129.9L41.7 129.8V129.7H41.6V129.6V129.5V129.4L41.5 129.2V129V128.9V128.8V128.7V128.6L41.4 128.4V128.3V128.2V128V127.9V127.7V127.6L41.5 127.4V127.3L41.6 127.2V127.1V126.9V126.8L41.5 126.7L41.3 126.5H41.2L41.1 126.4H40.9L40.7 126.3H40.6L40.4 126.2H40.2L39.9 126.1H39.8L39.7 126H39.6L39.5 126.1H39.4L39.3 126.2V126.3V126.5V126.7V126.8L39.2 126.9V127V127.1L39.1 127.3L39 127.4L38.9 127.5L38.8 127.6L38.7 127.7L38.6 127.8L38.5 127.9H38.4H38.3V128H38.2H38.1V128.1H38V128.2H37.9L37.8 128.3H37.7V128.4H37.6H37.5H37.4H37.3H37.2L37.1 128.3H37H36.9L36.8 128.2H36.7H36.6L36.5 128.1L36.4 128V127.9L36.3 127.8V127.7V127.6L36.2 127.5V127.4V127.3V127.2V127.1V127V126.9L36.3 126.6V126.5L36.4 126.2L36.5 125.9V125.7L36.7 125.4V125.3V125.2V125.1V125V124.9V124.8L36.8 124.5V124.3V124.1L36.9 124V123.9V123.7V123.6L36.8 123.4L36.7 123.3V123.2V123.1L36.6 122.8L36.5 122.7V122.6H36.4L36.3 122.5L36.2 122.3V122.2H36.1V122.1L36 122L35.9 121.9L35.8 121.8L35.7 121.7L35.6 121.6H35.4L35.2 121.5H35.1L34.9 121.4H34.8L34.5 121.3H34.4H34.2H34H33.8H33.6L33.5 121.2H33.4H33.2H32.9H32.7H32.6L32.5 121.3H32.4H32.3H32.2L32 121.4H31.9L31.7 121.3H31.6H31.5H31.4H31.3H31.2V121.4H31.1H30.9H30.8H30.6L30.4 121.3H30.3H30.2L30.1 121.2L29.9 121.1L29.8 121L29.7 120.9L29.6 120.8L29.4 120.6L29.3 120.5L29.2 120.4L29 120.3L28.9 120.2L28.7 120.1L28.6 120H28.5V119.9H28.4L28.1 119.7L28 119.6L27.9 119.5L27.8 119.4L27.7 119.3H27.6V119.2H27.5L27.4 119.1L27.2 119L27.1 118.8L26.9 118.7L26.8 118.5V118.4L26.7 118.3H26.6V118.2L26.5 118.1L26.4 117.9L26.3 117.8L26.2 117.7V117.5L26.1 117.3L26 117.1V116.9V116.7V116.6V116.5H26.1V116.3V116.2V116.1V116V115.9L26 115.8V115.7L25.9 115.5V115.4L25.8 115.3L25.7 115.2H25.6L25.5 115.1L25.3 115L25.1 114.9L25 114.8L24.8 114.7H24.7L24.6 114.6H24.5L24.4 114.5H24.2H24.1H24H23.9H23.8L23.7 114.4H23.5L23.4 114.3H23.3L23.2 114.2H23.1L23 114.1V114L22.9 113.9V113.6L22.8 113.5L22.6 113.2H22.5L22.4 113.1V113H22.3L22.2 112.9L22 112.8L21.9 112.7L21.8 112.5L21.7 112.4L21.6 112.2H21.5L21.4 112.1H21.3L21.2 112H21L20.9 111.9L20.7 111.8H20.6L20.5 111.7L20.4 111.6L20.3 111.5L20.2 111.4H20.1L19.9 111.3H19.6H19.5H19.4H19.3H19.2H19.1H19L18.9 111.4H18.7L18.6 111.5H18.5L18.2 111.6H18.1L18 111.7H17.8L17.7 111.8H17.5L17.3 111.9L17.2 112L17.1 112.1H16.9V112.2H16.8L16.7 112.3L16.6 112.4L16.4 112.5H16.3L16.2 112.6H16.1H15.9H15.7H15.5H15.4H15.3H15.2H15H14.9H14.7L14.4 112.5H14.2L14 112.4L13.7 112.2H13.6H13.5V112.1H13.4H13.3H13.2V112H13.1L13 111.9H12.9V111.8L12.8 111.7L12.6 111.6L12.4 111.5L12.3 111.4L12.1 111.3H12L11.9 111.2L11.8 111.1H11.7H11.6V111H11.5V110.9V110.8V110.7V110.6L11.6 110.4H11.7V110.3V110.2V110.1H11.8V110L11.9 109.9V109.8V109.7L12 109.6V109.5L12.1 109.4L12.2 109.3V109.2V109.1V109L12.1 108.9V108.8H12V108.7H11.9H11.8L11.7 108.6H11.6H11.5H11.4H11.3L11.2 108.7H11.1H11V108.8H10.9H10.8L10.6 109L10.5 109.1L10.3 109.2H10.2L10.1 109.3L9.99997 109.4L9.89996 109.5L9.69998 109.6L9.49997 109.7L9.19998 110L8.89996 110.2H8.79996V110.3H8.69998Z" fill="#6F9C76"/>
<path d="M2.39996 89.3H2.49997V89.4L2.59998 89.5V89.6V89.7H2.69998L2.59998 89.8V89.9H2.49997H2.39996V90L2.29996 90.1L1.99997 90.4L1.89996 90.5V90.7L2.09998 91.1V91.4L2.19998 91.7L2.29996 91.8L2.39996 91.9L2.49997 92V92.1L2.59998 92.3L2.69998 92.4V92.5V92.6V92.7V92.8L2.59998 92.9V93V93.1H2.49997V93.2L2.29996 93.1L2.19998 93.2L2.29996 93.5V93.6V93.7V93.8H2.19998L2.09998 93.7H1.99997H1.89996V93.6L1.69998 93.8V93.9H1.59998V94V94.1H1.49997V94.2H1.39996V94.3V94.4V94.5V94.6V94.7V94.8H1.29996V94.9V95V95.1L1.39996 95.2V95.3V95.4H1.29996V95.5H1.39996V95.6V95.7L1.29996 95.8V95.9L1.19998 96V96.1V96.2L1.09998 96.3L0.999969 96.4L0.899963 96.5V96.6V96.7V96.8V96.9L0.799957 97V97.1H0.899963L0.799957 97.2V97.3V97.4V97.5H0.699982V97.6V97.7V97.8L0.599976 97.9V98V98.1L0.899963 98.2L1.19998 98.3L1.39996 98.4L1.79996 98.6L2.19998 98.8L2.49997 99L2.69998 99.1L2.89996 99.2L3.19998 99.4L3.39996 99.6L3.69998 99.8L3.89996 100H3.99997L4.09998 100.2L4.39996 100.5L4.49997 100.7L4.59998 100.9V101H4.69998L4.79996 101.1V101.2V101.3L4.89996 101.4L4.99997 101.5V101.6V101.7L5.09998 101.8L5.19998 102V102.2L5.29996 102.3V102.4V102.5V102.6L5.39996 102.7V102.8V102.9V103L5.49997 103.1V103.2L5.59998 103.3V103.5L5.69998 103.6V103.7L5.79996 103.9V104.1L5.89996 104.3V104.4V104.5L5.99997 104.6V104.7V104.8V105L6.09998 105.1V105.3V105.4V105.5V105.6V105.8V105.9V106.1V106.2V106.3V106.4V106.5L5.99997 106.7V106.9V107V107.1H5.89996V107.2V107.3V107.4V107.5V107.6H5.99997V107.7L6.09998 107.8L6.19998 107.9V108L6.29996 108.3L6.39996 108.5L6.49997 108.6V108.8L6.59998 108.9L6.69998 109V109.1L6.79996 109.3H6.89996V109.4L7.09998 109.5L7.19998 109.6L7.29996 109.7L7.49997 109.8V109.9L7.59998 110L7.69998 110.1H7.79996L7.89996 110.2L7.99997 110.3H8.09998H8.19998H8.39996H8.49997H8.59998H8.69998H8.79996V110.2H8.89996L9.19998 110L9.49997 109.7L9.69998 109.6L9.89996 109.5L9.99997 109.4L10.1 109.3L10.2 109.2H10.3L10.5 109.1L10.6 109L10.8 108.8H10.9H11V108.7H11.1H11.2L11.3 108.6H11.4H11.5H11.6H11.7L11.8 108.7H11.9H12V108.8H12.1V108.9L12.2 109V109.1V109.2V109.3L12.1 109.4L12 109.5V109.6L11.9 109.7V109.8V109.9L11.8 110V110.1H11.7V110.2V110.3V110.4H11.6L11.5 110.6V110.7V110.8V110.9V111H11.6V111.1H11.7H11.8L11.9 111.2L12 111.3H12.1L12.3 111.4L12.4 111.5L12.6 111.6L12.8 111.7L12.9 111.8V111.9H13L13.1 112H13.2V112.1H13.3H13.4H13.5V112.2H13.6H13.7L14 112.4L14.2 112.5H14.4L14.7 112.6H14.9H15H15.2H15.3H15.4H15.5H15.7H15.9H16.1H16.2L16.3 112.5H16.4L16.6 112.4L16.7 112.3L16.8 112.2H16.9V112.1H17.1L17.2 112L17.3 111.9L17.5 111.8H17.7L17.8 111.7H18L18.1 111.6H18.2L18.5 111.5H18.6L18.7 111.4H18.9L19 111.3H19.1H19.2H19.3H19.4H19.5H19.6H19.9L20.1 111.4H20.2L20.3 111.5L20.4 111.6L20.5 111.7L20.6 111.8H20.7L20.9 111.9L21 112H21.2L21.3 112.1H21.4L21.5 112.2H21.6L21.7 112.4L21.8 112.5L21.9 112.7L22 112.8L22.2 112.9L22.3 113H22.4V113.1L22.5 113.2H22.6L22.8 113.5L22.9 113.6V113.9L23 114V114.1L23.1 114.2H23.2L23.3 114.3H23.4L23.5 114.4H23.7L23.8 114.5H23.9H24H24.1H24.2H24.4L24.5 114.6H24.6L24.7 114.7H24.8L25 114.8L25.1 114.9L25.3 115L25.5 115.1L25.6 115.2H25.7L25.8 115.3L25.9 115.4V115.5L26 115.7V115.8L26.1 115.9V116V116.1V116.2V116.3V116.5H26V116.6V116.7V116.9V117.1L26.1 117.3L26.2 117.5V117.7L26.3 117.8L26.4 117.9L26.5 118.1L26.6 118.2V118.3H26.7L26.8 118.4V118.5L26.9 118.7L27.1 118.8L27.2 119L27.4 119.1L27.5 119.2H27.6V119.3H27.7L27.8 119.4L27.9 119.5L28 119.6L28.1 119.7L28.4 119.9H28.5V120H28.6L28.7 120.1L28.9 120.2L29 120.3L29.2 120.4L29.3 120.5L29.4 120.6L29.6 120.8L29.7 120.9L29.8 121L29.9 121.1L30.1 121.2L30.2 121.3H30.3H30.4L30.6 121.4H30.8H30.9H31.1H31.2V121.3H31.3H31.4H31.5H31.6H31.7L31.9 121.4H32L32.2 121.3H32.3H32.4H32.5L32.6 121.2H32.7H32.9H33.2H33.4H33.5L33.6 121.3H33.8H34H34.2H34.4H34.5L34.8 121.4H34.9L35.1 121.5H35.2L35.4 121.6H35.6L35.7 121.7L35.8 121.8L35.9 121.9L36 122L36.1 122.1V122.2H36.2V122.3L36.3 122.5L36.4 122.6H36.5V122.7L36.6 122.8L36.7 123.1V123.2V123.3L36.8 123.4L36.9 123.6V123.7V123.9V124L36.8 124.1V124.3V124.5L36.7 124.8V124.9V125V125.1V125.2V125.3V125.4L36.5 125.7V125.9L36.4 126.2L36.3 126.5V126.6L36.2 126.9V127V127.1V127.2V127.3V127.4V127.5L36.3 127.6V127.7V127.8L36.4 127.9V128L36.5 128.1L36.6 128.2H36.7H36.8L36.9 128.3H37H37.1L37.2 128.4H37.3H37.4H37.5H37.6H37.7V128.3H37.8L37.9 128.2H38V128.1H38.1V128H38.2H38.3V127.9H38.4H38.5L38.6 127.8L38.7 127.7L38.8 127.6L38.9 127.5L39 127.4L39.1 127.3L39.2 127.1V127V126.9L39.3 126.8V126.7V126.5V126.3V126.2L39.4 126.1H39.5L39.6 126H39.7L39.8 126.1H39.9L40.2 126.2H40.4L40.6 126.3H40.7L40.9 126.4H41.1L41.2 126.5H41.3L41.5 126.7L41.6 126.8V126.9V127.1V127.2L41.5 127.3V127.4L41.4 127.6V127.7V127.9V128V128.2V128.3V128.4L41.5 128.6V128.7V128.8V128.9V129V129.2L41.6 129.4V129.5V129.6V129.7H41.7V129.8L41.8 129.9L41.9 130L42.1 130.1L42.2 130.2L42.3 130.3L42.4 130.4H42.5H42.6H42.7H42.8H42.9H43L43.1 130.3H43.2H43.3L43.5 130.2L43.8 130H43.9L44 129.9L44.3 129.7H44.4L44.5 129.6L44.6 129.5L44.8 129.4H44.9L45.1 129.3V129.2H45.3L45.4 129.1V129L45.5 128.9H45.6L45.7 128.8L45.8 128.7H45.9L46 128.6H46.1L46.2 128.5H46.4H46.5L46.6 128.4H46.7L46.8 128.3L46.9 128.1L47 128L47.1 127.9L47.2 127.8L47.3 127.7H47.4L47.5 127.6H47.6H47.7H47.8V127.7L47.9 127.8V127.9H48V128L48.1 128.1V128.2H48.2H48.3V128.3H48.4L48.5 128.2H48.6L48.7 128.1H48.8V128V127.9H48.9V127.7L49 127.6L49.1 127.5H49.2V127.4H49.3L49.4 127.3H49.5L49.6 127.2H49.7H49.8H49.9H50L50.1 127.3L50.2 127.4V127.5H50.3V127.6L50.4 127.7V127.8L50.5 127.9V128L50.6 128.1V128.3L50.7 128.4V128.5H50.8V128.6V128.7V128.8V129V129.1V129.2V129.3V129.4L50.9 129.6V129.7L50.8 129.8V129.9V130V130.1V130.2V130.3L50.6 130.7V130.8L50.5 130.9V131V131.1V131.2V131.3V131.4L50.4 131.5L50.3 131.6L50 132.1L49.8 132.3L49.6 132.5L49.3 132.7L49 132.8L48.8 133L48.7 133.1L48.4 133.2L48.3 133.3H48.2L48.1 133.4H48V133.5H47.9L47.8 133.6L47.7 133.7V133.8L47.6 133.9V134V134.1V134.2V134.3V134.4V134.5H47.7V134.6V134.7H47.6V134.9V135L47.5 135.1V135.2L47.6 135.3L47.7 135.4V135.5H47.8L47.9 135.6H48V135.7H48.1L48.2 135.8L48.3 135.9H48.4H48.5H48.7H48.8H48.9H49H49.1H49.2V135.8H49.3H49.4H49.5L49.6 135.7H49.8L49.9 135.6H50V135.5H50.1V135.4L50.2 135.3H50.3V135.2L50.4 135.1V135V134.9L50.5 134.8V134.7L50.6 134.6V134.5L50.7 134.3V134.2V134.1L50.8 133.9V133.7L50.9 133.6L51 133.4V133.3L51.1 133.2V133.1H51.2L51.3 132.9L51.4 132.8L51.5 132.7L51.6 132.6H51.7L51.9 132.5H52H52.1H52.3H52.6H52.7H52.8H52.9H53L53.1 132.6H53.2H53.3L53.5 132.7H53.6L53.7 132.8H53.8V132.9L53.9 133L54 133.1V133.2H54.1V133.3V133.4L54.2 133.5V133.6V133.7V133.8V134L54.1 134.1V134.2L54.2 134.3V134.4V134.5V134.6L54.3 134.7V134.8L54.4 134.9V135V135.1L54.3 135.3L54.1 135.4L53.9 135.5L53.8 135.6L53.7 135.8L53.6 136H53.5V136.1V136.2L53.4 136.3V136.4V136.5V136.6V136.7H53.5L53.6 136.9L53.7 137V137.1L53.8 137.2L53.9 137.3L54 137.4V137.5L54.1 137.6V137.7L54.2 137.8V137.9V138V138.1V138.2V138.3V138.4V138.5L54.3 138.6V138.7L54.4 138.8L54.5 138.9L54.6 139V139.1L54.7 139.2V139.3L54.8 139.4V139.5V139.6L54.9 139.7V139.8L55 139.9L55.1 140H55.2V140.1L55.4 140.2L55.5 140.3H55.6L55.7 140.4H55.8H55.9H56H56.1L56.2 140.5H56.3L56.4 140.6H56.5L56.6 140.7L56.7 140.8L56.8 140.9H56.9H57L57.2 141H57.3L57.4 140.9V140.8H57.5V140.7H57.4V140.6H57.3L57.2 140.5H57.1V140.4H57V140.3V140.2V140.1V140V139.9L57.1 139.8V139.7L57.2 139.6V139.5V139.4L57.3 139.3V139.2V139.1V139L57.2 138.9V138.8V138.7V138.6V138.5V138.4V138.3V138.2V138V137.9V137.6V137.5V137.4L57.3 137.3V137.2H57.4L57.5 137V136.9L57.4 136.8V136.7V136.6V136.3L57.6 136L58 135.8L58.3 135.5H58.5L58.4 135.4L58.3 135.3L58.2 135.2L58 135L57.8 134.8L57.6 134.5L57.7 134.4H57.8H57.9H58H58.1V134.5H58.2V134.4H58.3H58.4H58.5H58.6H58.7L58.8 134.3H58.9V134.2V134.1H59V134H59.1H59.2V133.9V133.8V133.7H59.3V133.6H59.4V133.5H59.5V133.4H59.6V133.3H59.7V133.2V133.1L59.9 133H60H60.1H60.2H60.3V132.9L60.5 132.8H60.6V132.7H60.7H60.8L60.9 132.6L61 132.7V132.8L61.1 132.9L61.3 133.1V133.2L61.4 133.3L61.6 133.2L61.7 133.1L61.8 133L61.9 132.9L62 132.8H62.1V132.9H62.2V133L62.3 133.2L62.4 133.3L62.5 133.4H62.6V133.5L62.7 133.6L62.8 133.7V133.8L62.9 133.9H63V134L63.2 133.8V133.9H63.3H63.4L63.5 134H63.6L63.7 134.1H63.8V134.2H63.9H64V134.3H64.1H64.2V134.2H64.3H64.4V134.3H64.6L64.8 134.4H64.9V134.5V134.6V134.7V134.8V134.9V135V135.1H65L65.1 135H65.2H65.3H65.5L65.7 134.9H66.1H66.2H66.3L66.4 134.8H66.5H66.6L66.5 135L66.4 135.1L66.5 135.3V135.4V135.6V135.7L66.6 135.9L66.8 136.3L66.9 136.5H67L67.1 136.4H67.2H67.3L67.4 136.3H67.5H67.6V136.2H67.7V136.1H67.8H67.9H68L68.4 136.3L68.6 136.4L69 136.1L69.1 136L69.3 135.8H69.6L69.9 135.7L70.1 135.6H70.3L70.6 136L70.8 136.2L70.9 136.3L71.1 136.4L71.2 136.5H71.3L71.6 136.4H71.7H72.1H72.3V136.2V136.1V136H72.4H72.6L72.7 135.9L72.8 135.8L72.9 135.7V135.8V135.9H73V136.1L73.1 136.2L73.2 136.4L73.3 136.5L73.6 136.4L73.9 136.3L74.2 136.2L74.3 136.3L74.4 136.4V136.5L74.6 136.4L74.7 136.5V136.6L74.8 136.9L74.9 137V137.2H75V137.3L75.1 137.4L75.2 137.5L75.3 137.6V137.7L75.4 138L75.5 138.2L75.4 138.4L75.3 138.7L75.1 139.5V139.6V139.7H75V139.8V139.9M2.39996 89.3V89.2M2.39996 89.3H2.29996V89.2V89.1H2.19998V89.2L2.09998 89.1V89L1.99997 88.9V88.8H1.89996V88.7V88.6H1.79996L1.69998 88.7H1.59998V88.6L1.49997 88.5V88.4V88.3V88.2V88.1V88V87.9H1.39996V87.8H1.49997V87.7H1.59998H1.69998L1.79996 87.6H1.89996H1.99997L2.09998 87.7H2.19998H2.29996V87.6H2.39996V87.5V87.4L2.29996 87.3H2.19998V87.2H2.09998V87.1H2.19998L2.29996 87H2.39996L2.49997 86.9L2.59998 86.8L2.69998 86.6V86.5L2.79996 86.4L2.89996 86.1L2.79996 85.9H2.89996H2.99997V85.8V85.7H3.09998H3.19998V85.6L3.29996 85.5V85.3H3.19998H3.09998V85.2H2.99997L2.89996 85.1V85V84.9V84.8H2.79996V84.7V84.6H2.69998V84.5H2.59998V84.4H2.49997V84.3V84.2V84.1V84V83.9L2.59998 83.8H2.69998V83.7L2.79996 83.6V83.5V83.4V83.3V83.2V83L2.69998 82.9L2.59998 82.5V82.3L2.79996 82.2V82.1V82V81.9V81.8L2.69998 81.7V81.6V81.5H2.59998V81.4V81.3L2.69998 81.2V80.9L2.79996 80.8V80.7V80.6L2.69998 80.5V79V78.9V78.8L2.59998 78.7L2.39996 78.5L2.19998 78.3L2.09998 78.1H1.99997V78L1.89996 77.9L1.69998 77.5L1.59998 77.4V77.1L1.69998 76.8V76.5V76.1V75.7L1.79996 75.5H1.69998L1.59998 75.4H1.69998V75.3H1.79996V75.2H1.69998H1.59998V75.1L1.49997 75H1.59998V74.9H1.69998V74.8V74.7L1.59998 74.6L1.49997 74.5L1.59998 74.4V74.3H1.69998V74.2H1.79996L1.89996 74.1L1.99997 74V73.9V73.8H2.09998V73.7V73.6L1.99997 73.5L2.09998 73.4H2.19998H2.29996V73.5H2.39996H2.49997V73.4V73.3V73.2L2.59998 73.3L2.69998 73.4L2.79996 73.3L2.69998 73L2.49997 72.8L2.69998 72.4V72.3L2.79996 71.9H2.59998L2.49997 71.8H2.39996V71.7H2.29996L2.19998 71.5L2.09998 71.4V71.3H1.99997V71.2V71.1L1.79996 70.8V70.7V70.6H1.69998V70.4V70.3V70.1V70L1.79996 69.9L1.89996 69.7L1.19998 69.3V69.2H1.09998V69.1H1.19998L1.79996 68.2L1.89996 68L2.19998 67.5V67.4V67.3H2.29996V67.2V67.1V67L2.39996 66.9V66.8V66.7V66.6H2.49997V66.5V66.4V66.3H2.59998V66.2V66.1V66L2.69998 65.8V65.7V65.6H2.79996H2.89996H3.19998L3.29996 65.7V65.6V65.5V65.3V65.2V65.1V64.9V64.8H3.39996H3.49997H3.79996L3.89996 64.7V64.6H3.79996V64.5V64.4H3.89996H3.99997H4.09998H4.29996H4.39996H4.59998H4.69998H4.79996H4.99997V64.3H5.09998H5.19998L5.29996 64.4H5.39996H5.49997L5.69998 64.5L5.79996 64.4H5.89996H6.09998L6.49997 64.5L6.69998 64.6H6.79996H6.89996H6.99997V64.7H7.09998L7.19998 64.6V64.5V64.4H7.09998V64.3L6.99997 64.1V64H6.89996V63.9H6.79996L6.59998 63.7L6.49997 63.6H6.39996L6.29996 63.5L6.19998 63.4L6.09998 63.3V63.2L5.99997 63.1V63L5.89996 62.9H5.99997L6.09998 62.8L6.39996 62.6H6.49997V62.5H6.59998V62.4H6.69998V62.3L6.79996 62.1L6.89996 61.9L6.99997 61.7L7.29996 61.3H7.19998V61.2L6.79996 60.7L6.69998 60.5L6.59998 60.4H6.69998L6.79996 60.3L6.89996 60.1H6.99997H7.09998V60H7.19998H7.29996V59.9V59.8V59.7L7.39996 59.6V59.7H7.49997H7.59998L7.69998 59.8V60H7.79996H7.99997L8.09998 60.1H8.19998V60.2V60.3H8.29996H8.39996V60.4H8.49997H8.59998H8.69998L8.89996 60.2V59.9V59.8H8.79996V59.7V59.6V59.5V59.4V59.3L8.69998 59.2V59.1V59M8.69998 59L8.59998 58.9H8.69998V59ZM8.69998 59H8.79996L8.89996 59.1L8.99997 59.2L9.09998 59.3V59.4H9.19998V59.5H9.29996V59.6L9.39996 59.7L9.49997 59.8L9.69998 59.9H9.79996L9.89996 60L10.3 60.2L10.4 60.3H10.5V60.4H10.6H10.7H10.8H10.9L11 60.3L11.3 60L11.4 59.9L11.6 59.7L11.8 59.5L11.9 59.4V59.3V59.2H11.8V59.1H11.7V59L11.6 58.9H11.7V58.8V58.7H11.8V58.6V58.5V58.4V58.3V58.2V58.1V58H11.7V57.9V57.8H11.8V57.7L11.9 57.6H12V57.5V57.4H12.1V57.3H12.2H12.3H12.4H12.5H12.6H12.7H12.8H12.9H13L13.1 57.2H13.2H13.3L13.6 57.1H13.7L13.9 57L14 56.9H14.1L14.2 57H14.3H14.4L14.5 57.1L14.6 57.2V57.3L14.7 57.4H14.8V57.5L14.9 57.6H15V57.7H15.1H15.2V57.8H15.3V57.9H15.4L15.5 58H15.6V58.1H15.7L15.8 58.2L15.9 58.3L16 58.4L16.1 58.5L16.2 58.6V58.7H16.3V58.8L16.4 58.9L16.5 58.8L16.6 58.7H16.7V58.6H16.8V58.8L16.9 59.1H17L17.3 59L17.4 58.9H17.5V58.8L17.6 58.6L17.7 58.4L18 58.5H18.1V58.6H18.2V58.7H18.3L18.4 58.8H18.5H18.6H18.7L18.8 58.9H19V59H19.1V59.1V59.2L19.2 59.1V59V58.9L19.1 58.8H19.2V58.7H19.3L19.4 58.6V58.5H19.5L19.7 58.3L20 58V57.9V57.8H19.9H19.8V57.7L19.7 57.6L19.8 57.5H19.9V57.4L20 57.3H20.1L20.2 57.4L20.3 57.5V57.4L20.8 56.8L20.9 56.7L21 56.6V56.5H21.1V56.4V56.3L21.2 56.2L21.1 56.1V56L21 55.7L20.9 55.3V55.2V55.1H21H21.1H21.2V55.2V55.3L21.3 55.4L21.6 55.9L21.7 56L21.8 56.1L21.9 56.2L22.1 56.1V56H22.2V55.9V55.8M22.2 55.8H22.3M22.2 55.8V55.7V55.6H22.3V55.5V55.4H22.4H22.5H22.6H22.7V55.3H22.8V55.2H22.9H23V55.3H23.1V55.4V55.5V55.6L23.2 55.7V55.8V55.9V56H23.3V55.9L23.4 56H23.5V55.9H23.6H23.7H23.9H24.1L24.3 56H24.4H24.5V56.1H24.6V56.2H24.7V56.3V56.4L24.8 56.6H24.9H25H25.1V56.5H25.2H25.3V56.4H25.4H25.5V56.3L25.6 56.2H25.7H25.8H25.9H26L26.1 56.1H26.2H26.3V56V55.9L26.4 55.8V55.7H26.5V55.6H26.6L26.7 55.5H26.8H26.9H27L27.1 55.4V55.3L27 55.1V54.9V54.6V54.5V54.4L26.9 54.2V54.1V53.9V53.8V53.7L26.8 53.6H26.7V53.5H26.6V53.4L26.5 53.3L26.3 53.1L26.2 53.2L26.1 53.3H26H25.9H25.8H25.7H25.6H25.5V53.2L25.4 53.1V53H25.5L25.4 52.9V52.8L25.3 52.4L25.2 52.2V52.1V52L25.1 51.7L25 51.4V51.3H25.1V51.2H25.2H25.3H25.4L25.5 51.1H25.6H25.7L25.8 50.9V50.8V50.7V50.5L25.6 50.6L25.5 50.5L25.2 50.3L25.1 50.2H25V49.9V49.8V49.7V49.6L24.6 49.4V49.2L24.7 49.1L24.8 48.6V48.5L25 48.2V48.3H25.1H25.2V48.2L25.1 48.1V48L25.3 47.2V47.1V47L25.2 46.9V46.7V46.6L25.1 46.5L25 46.3L24.9 46.1L24.8 46V45.9H24.7V45.8V45.7L24.8 45.6V45.5L24.9 45.4V45.3H25V45.2V45.1V45L24.8 44.9L24.9 44.7L25 44.5H25.1L25 44.4V44.3L24.9 44.2V44.1H24.8V44V43.9H24.7V43.8V43.7H24.6V43.6L24.5 43.4L24.4 43.3L24.3 43H24.2V42.9L24 42.8V42.7H23.9H23.8H23.6L23.4 42.6L23.3 42.5L23.2 42.4H23L22.9 42.3L22.8 42.2V42.1V42V41.9V41.8L22.7 41.7V41.6V41.5V41.4H22.8H23.1H23.6L23.5 40.8L23 40.9L22.9 40.5H22.7V39.8H23.2V39.6H23.8L23.7 38.9V38.7V38.6V38.5V38.4H23.8V38.3V38.2H23.9L24 38.1L24.2 37.9L24.3 37.7L24.6 37.3V37.2L24.7 36.8L24.6 36.7V36.6H24.5V36.5H24.4L24.3 36.6L23.9 36.9H23.8V37H23.7L23.5 37.2L23.3 36.9L23 36.6V36.5H22.9V36.4H22.8V36.3L22.6 36.1L22.5 36V35.8H22.4V35.9H22.3L22.2 36L22 36.1L21.6 36.2L21.5 36L21.3 35.9L21.2 35.6L20.7 35.7L20.5 35.8L20.4 35.5L20 35.7H19.8L19.6 35.8L19.4 35.3L19.3 35L19.7 34.3L19.9 34H20V33.9L20.1 33.5V33.4L20.2 33.3V33.2V33.1V33L20.3 32.8H20.4L20.6 33H20.7L20.9 33.1L21.1 32.8L21.2 32.5L21.3 32.2V32.1H21.4H21.6H21.7V32L21.6 31.9V31.8H21.5V31.7H21.4L21.3 31.8H21.1H20.9H20.8L20.7 31.9H20.6H20.5L20.4 31.8L20.3 31.7H20.2H20.1H20H19.9H19.8H19.7H19.5H19.4H19.3H19.2H19.1H19V31.6H18.9V31.5H18.8V31.4H18.9L19 31.3V31.2V31.1H18.9V31V30.9V30.8V30.7V30.6V30.5V30.4H18.8V30.3V30.2H18.9V30.1V30V29.9V29.8L19 29.7V29.6V29.5H19.1V29.4V29.3V29.2V29.1V29V28.9L19.2 28.8V28.7H19.3V28.8H19.4H19.5H19.6V28.7H19.7L19.8 28.6H19.9H20V28.7H20.1V28.8H20.2H20.3V28.9L20.4 29V29.1H20.5V29.2V29.3L20.6 29.4M20.6 29.4V29.3M20.6 29.4H20.7H20.8V29.5H20.9H21L21.1 29.4V29.3H21.2V29.2L21.3 29.1H21.4V29L21.5 28.9L21.6 28.8H21.7H21.8V28.7V28.6V28.5V28.4V28.3L21.7 28.2V28.1V28H21.6H21.5V27.9H21.4V27.8V27.7V27.6V27.5H21.5V27.4V27.3H21.6L21.7 27.2L21.8 27.1V27L21.7 26.9V26.8L21.6 26.7V26.6L21.5 26.5V26.4H21.4H21.3V26.3H21.2L21.1 26.2L21 26.1H20.9V26L20.8 25.9L20.7 25.8H20.6V25.7H20.5H20.4V25.6H20.3V25.5H20.2H20.1H20V25.4V25.3V25.2V25.1V25H20.1V24.9V24.8V24.7L20.2 24.6L20.3 24.5H20.4L20.5 24.4V24.3H20.6L20.7 24.2V24.1V24V23.8L20.8 23.6H20.9H21H21.1H21.2H21.3L21.4 23.5L21.5 23.3L21.6 23.2L21.7 23V22.9V22.8V22.7V22.6H21.8V22.5V22.4V22.3H21.9V22.2V22.1L22 22V21.9L22.1 21.7L22.2 21.8L22.7 22.2V21.9V21.7V21.6V21.1V20.9V20.8V20.7V20.4V20.3V20.1V20H22.6V19.9H22.7L22.6 19.8H22.5V19.7H22.4L22.3 19.6L22.2 19.5L21.9 19.3L21.8 19.2L21.6 19L21.4 18.9L21.3 18.8L21.2 18.7H21.1L20.9 18.6L20.8 18.5L20.7 18.4L20.4 18.2V17.9V17.7V17.5V16.9H20.3V16.8V16.7V16.5L20.2 15.8H20.3L20.5 15.7H20.6H20.7H20.8L20.9 15.6H21.2H21.3H21.4V15.5H21.5L21.6 15.6H21.7L21.8 15.5H21.9H22.1H22.3L22.6 15.4H22.7V15.3L22.6 15.2V15.1L22.5 15V14.8L22.7 14.5L22.8 14.4H22.9L23 14.3V14.2L23.1 14.1L23.3 14V13.9H23.4L23.5 13.7L23.6 13.6L23.9 13.3H24V13.2H23.9H23.8H23.7L23.6 13.1H23.5H23.4H23.3L23.2 13H23.1V12.9H23V12.8V12.5V12.2L23.4 12.1H23.7H23.9V12V11.8V11.6V11.4V11.3V11.2H24L24.2 11.3L24.3 11.4H24.4H24.5H24.6H24.7H24.8H24.9L25.1 11.3H25.4H25.5H25.6H25.8H25.9H26H26.1V11.2H26.2H26.3H26.4H26.5L26.7 11.1H26.8V10.9V10.7V10.6H26.9V10.5L27 10.4H27.1V10.3H27.2H27.3H27.4H27.5H27.6H27.7H27.8H28H28.1H28.2H28.3H28.4H28.5L28.6 10.2H28.7H28.8H28.9V10.1H29H29.1H29.2V9.99998H29.3L29.5 9.89998L29.6 9.69998L29.8 9.59999L29.9 9.49998H30H30.1L30.2 9.39998H30.3H30.4H30.5H30.6H30.7H30.8L31 9.29999H31.2H31.3H31.4H31.5V9.39998H31.6H31.7H31.8L32.1 9.49998H32.2L32.3 9.59999H32.4H32.5H32.6H32.7V9.69998H32.8V9.79999H32.9V9.89998H33L33.1 9.99998H33.2H33.3H33.4H33.5H33.6H33.7H33.8H33.9V10.1H34H34.2H34.4H34.5V9.99998H34.6H34.9L35.2 9.89998H35.4H35.5H35.8H36H36.1V9.99998H36.5H36.9V9.89998H37H37.1V9.99998L37.2 9.89998H37.4H37.5L37.7 9.79999H37.8L37.9 9.69998H38V9.59999H38.1L38.3 9.39998H38.4L38.5 9.29999H38.6H38.7L38.8 9.19998H38.9H39L39.1 9.09999H39.2L39.5 8.99998V8.89998L39.6 8.79999L39.7 8.69998L39.9 8.59999V8.69998L40 8.79999H40.3L40.6 8.69998H40.9H41H41.1H41.2H41.3H41.4H41.5L41.6 8.59999H41.7H41.8H41.9H42H42.2H42.3L42.4 8.49998H42.6H42.8V8.39998H42.9L43.3 8.49998L43.1 8.89998H43.2H43.3H43.4H43.5H43.6V8.79999V8.69998H43.5V8.59999L43.6 8.49998V8.39998L43.7 8.19998L43.8 8.09999L44.5 7.89998V7.59999V6.89998V6.79999V6.69998H44.7L44.9 6.59999L45.4 6.99998V7.09999V7.19998V7.49998V7.69998V7.79999H45.6H45.9L46 7.89998H46.1H46.3H46.4H46.5H46.6H46.7H46.8H46.9L47 7.79999L47.2 7.69998M47.2 7.69998V7.59999M47.2 7.69998H47.4L48.6 7.99998L48.8 8.09999H49L49.1 8.19998H49.2H49.3H49.4L49.6 8.29999H49.7H49.8V8.39998H49.9L50.2 8.59999L50.4 8.69998L50.5 8.79999H50.6L50.8 8.99998L51 9.09999L51.2 9.19998H51.3V9.29999L51.5 9.19998L51.8 8.99998H51.9L52 8.89998L52.2 8.79999V8.69998H52.3V8.59999H52.4H52.5L52.6 8.49998L52.7 8.39998L52.8 8.09999V7.89998L52.9 7.69998V7.49998L53 7.29999V7.19998V7.09999V6.99998V6.89998H53.1V6.79999L53.2 6.69998V6.59999V6.49998L53.3 6.39998V6.29999V6.19998L53.4 6.09999L53.3 5.99998L53.4 5.89998V5.79999H53.5V5.89998H53.6L53.7 5.99998L53.9 6.09999H54H54.1H54.2H54.3V5.99998H54.4L54.6 6.09999H54.7H54.8H54.9H55H55.1H55.2H55.3L55.4 5.99998H55.5H55.6H55.7L55.8 5.89998H55.9V5.99998V6.09999V6.19998V6.29999L56 6.39998V6.49998V6.59999V6.69998V6.79999L56.2 6.89998H56.4V6.99998L56.5 7.09999M56.5 7.09999V7.19998M56.5 7.09999H56.6H56.7L56.8 6.99998L57 6.89998L57.1 6.79999H57.3L57.5 6.69998H57.6L57.7 6.59999H57.8H58L58.2 6.49998L58.5 6.39998L58.8 6.09999L58.9 6.19998H58.8V6.29999V6.39998V6.49998L58.9 6.59999V6.69998L59.1 6.79999L59.2 6.89998L59.4 7.19998H59.5V7.29999L59.7 7.59999V7.69998L59.8 7.79999L59.9 8.09999L60.4 8.79999H60.6L60.7 8.99998L60.9 9.59999V9.69998V9.79999H61L61.3 9.69998H61.4L61.7 9.49998L61.9 9.39998L62.3 9.29999L62.4 9.19998H62.5V9.09999V8.99998V8.89998V8.79999V8.29999L62.6 7.99998V7.19998V7.09999V6.99998L62.7 6.89998H62.8H62.9H63H63.1H63.2V6.79999H63.3L63.4 6.69998H63.5V6.59999H63.6L63.7 6.69998H63.8H63.9V6.79999H64H64.1M64.1 6.79999V6.69998M64.1 6.79999H64.2L64.5 6.99998L64.4 6.89998L64.3 6.49998V6.39998L64.4 6.49998L64.9 6.69998L65.4 6.89998L65.7 6.99998L65.8 7.09999H65.9L66.1 7.19998L66.5 7.49998L66.6 7.59999H66.7L66.8 7.69998H66.9L67 7.79999L66.9 7.49998V7.39998V7.29999H67.1L67.3 7.19998L67.6 7.09999L67.8 6.99998L68 7.29999L68.3 7.19998H68.4L68.6 7.09999L68.7 7.39998V7.49998L68.8 7.89998V7.99998L69.2 7.89998V7.69998L69.3 7.59999L69.4 7.29999L69.5 6.99998L69.7 6.69998L69.8 6.49998V6.39998L70 6.29999H70.3H70.5V5.89998L70.2 5.99998H70.1V5.49998V5.39998V5.29999V5.19998V4.99998V4.59999V4.29999H70.6H71L71.3 4.39998H71.4H71.5H71.6H71.8L71.7 3.79999V3.69998H72H72.6L73.1 3.59999H73.2H73.3V3.49998V3.39998V3.19998H73.4H73.6L73.8 3.09999H74.6H74.8V2.99998L74.9 2.79999V2.69998L75 2.39998L75.1 2.09999V1.79999L75.2 1.69998L75.4 0.999985V0.799988H75.5H75.8H75.9H76H76.2H76.4H76.5H76.6V0.899979L76.7 0.999985V1.09999H76.8H76.9V1.19998H77H77.1H77.2L77.3 1.29999H77.4L77.5 1.39998L77.4 1.79999V1.89998V1.99998V2.09999H77.5V2.19998H77.6H77.7L77.8 2.29999H77.9V2.39998H78V2.49998H78.1V2.59999H78V2.69998H77.9L77.8 2.79999M77.8 2.79999H77.7M77.8 2.79999L78 2.99998L78.4 3.19998L78.8 3.29999L79.5 3.59999V3.69998L79.6 3.79999V3.89998H79.7V3.99998L79.8 4.09999L79.9 4.19998V4.29999H80L80.1 4.39998V4.49998H80.2V4.59999H80.3L80.2 4.89998V5.09999L80 5.49998V5.69998V5.79999L79.9 6.09999L79.8 6.19998H79.9H80H80.1H80.2H80.3V6.09999H80.4H80.5H80.7V6.19998V6.29999V6.39998V6.59999V6.69998V6.89998V6.99998L80.8 7.09999V7.19998L80.9 7.29999L81 7.39998L81.1 7.49998L80.9 7.79999L80.5 8.19998L80.2 8.59999L79.8 9.09999H79.9L80.3 9.29999L80.5 9.39998L80.7 9.49998L80.9 9.59999V10.3L80.8 10.9V11.3H80.9H81L82 12L82.4 12.2L82.6 12.3L82.7 12.4V12.6V12.7L82.8 12.8V12.9V13H82.9V13.1V13.3V13.5L82.6 13.4V13.5H82.5L82.4 13.6V13.7L82.3 13.9L82.2 14.1L82.4 14.3L82.1 14.7L81.9 14.9L81.7 15.3L81.4 15.7H81.3L81.1 15.6H81H80.9H80.8V15.7V15.8V15.9V16L80.7 16.1V16.2L80.6 16.3V16.5L80.5 16.7V16.8H80.2H80.1L80 16.9L79.9 17V17.1V17.2V17.3H80V17.4V17.5L80.1 17.6H80.2H80.3H80.4H80.5H80.6V17.7H80.7H80.8V17.8L80.9 17.9L81.1 18.1L81.2 18.4L81.3 18.5L81.4 18.7L81.6 18.9L81.7 19.2L81.9 19.4V19.5H81.8H81.7H81.6L81.8 19.9L82.1 19.8L82.4 20.1L82.6 20.3L82.8 20.5L83.1 20.7V20.8L83 21H82.9V21.1H82.8V21.2V21.3L82.7 21.4V21.5L82.6 21.6V21.8H82.5V22L82.4 22.1L82.3 22.2V22.3L82.2 22.4L82.1 22.5V22.6H82V22.7V22.8L81.9 22.9V23V23.1L82 23.2V23.3H82.1V23.4L82.3 23.5V23.6H82.4H82.5L82.6 23.7H82.7H82.8L82.9 23.8H83H83.1V23.9H83.2H83.3L83.5 24H83.6H83.7H83.8L83.9 24.1H84H84.1H84.2V24H84.3H84.4H84.5L84.6 23.9H84.7H84.8L84.9 23.8H85H85.2H85.3H85.4H85.5L85.6 23.9H85.7H85.9L86.1 23.8L86.3 23.9H86.4H86.5H86.6H86.7L86.8 24L86.9 23.9H87H87.1L87.2 23.8H87.3H87.4V23.9H87.9L88.5 24.6H88.6V24.5L88.7 24.4H88.8L88.9 24.3L89.1 24.2H89.2L89.3 24.1H89.4H89.5L89.6 24H89.7H89.8H89.9L90 23.9H90.2H90.3H90.4V24H90.5V24.1H90.6L90.7 24H90.8H90.9H91V24.1H91.1H91.2H91.3L91.4 24.2H91.5H91.6V24.3H91.7H91.8H91.9H92H92.1H92.2H92.3H92.4V24.2H92.5V24.1H92.6V24H92.7L92.8 23.9V23.8H92.9V23.9H93V24H93.1L93.2 24.1L93.3 24.2L93.4 24.3L93.7 24.1H93.9V24V23.9V23.8H94L94.9 23L95 23.2L95.2 23.5L95.3 23.7L95.4 23.8V23.9V24.1H96.5V23.9V23.3V22.8V21.9V21.3V21.2H96.6H96.7L97.1 21.3H97.2H97.3H97.4H97.8L98.2 21.2H98.7H98.9H99.2V21.3L99.4 21.6L99.7 22.1L99.8 22.2L99.9 22.1L100 21.9L100.4 21.4L100.5 21.2H100.6V21.3L100.7 21.2L100.8 21.3H100.9V21.4V21.5H101V21.6H101.1V21.7H101.2V21.8H101.3L101.4 21.9V21.8H101.5H101.6H101.7H101.8L102.1 21L102.4 20.1L102.5 19.9V19.8L102.6 19.6L102.8 19.4L103.3 18.8V18.7L103.4 18.8H103.5V18.9H103.6V19H103.7V19.1H103.8M103.8 19.1V19M103.8 19.1H103.9L104 19.2L104.1 19.3L104.2 19.2V19.1V19L104.3 18.9V18.6L104.4 18.5L104.7 18.6L104.9 18.7L105.1 18.8H105.2H105.3V18.9L105.6 19H105.8L105.9 19.1L106.6 19.4L107 19.5L107.1 19.1L107.4 19.3L108 19.5H108.1L108.5 19.7H108.7L108.8 19.8H108.9V19.9V20.1V20.2H109L109.1 20.3H109.3L109.4 20.4L109.6 20.5V20.7L109.5 20.9H109.3L109.2 20.8L109 21.2V21.3H108.9V21.4L108.8 21.5L108.6 21.6L108.3 21.8V21.9V22L108.4 22.2V22.4L108.3 22.5L108.2 22.7L108 22.9L107.9 23.1L107.8 23.2L107.7 23.3L107.9 23.4H108L108.1 23.5V23.6L108 23.7L107.8 23.8L108.1 24.2L108.2 24.4L108.3 24.6L108.4 24.7L108.5 24.8V24.9L108.6 25L108.7 25.2L108.8 25.4H108.9L109 25.6V25.7L109.1 25.8L109.2 25.9V26L109.3 26.1L109.4 26.2V26.3V26.5H109.5V26.7V26.8V27V27.2L109.6 27.4V27.5V27.6L109.7 27.7V27.8V27.9L109.8 28.1V28.2H109.9H110.1V28.3V28.4L110.2 28.6V28.7H110.1L110 28.6V28.9L109.9 29V29.3L109.8 29.5H109.9L110 29.6H110.3L110.4 29.7H110.5L110.6 29.8L111.2 30.6L111.3 30.8H111.4V30.9L111.5 30.7L111.6 30.6H111.7H111.9H112.1L112.2 30.8V31.1H112.1V31.4V31.5V31.6H112L111.9 31.5H111.8L111.7 31.4H111.6H111.5V31.3H111.4H111.3H111.2V31.4H111.1M111.1 31.4V31.3M111.1 31.4H111V31.3H110.9H110.8V31.4H110.7V31.5H110.6V31.6V31.7M110.6 31.7H110.5M110.6 31.7V31.8L110.5 31.9V32L110.4 32.1H110.3M110.3 32.1V32.2M110.3 32.1H110.2H110.1V32.2V32.3H110L110.1 32.4V32.5L110.3 32.8L110.5 33.2L110.7 33.6L110.9 33.9H111L111.1 34V34.1L111.3 34.2L111.4 34.3L111.6 34.4L111.8 34.5L112.3 34.7H112.4V34.8V34.9L112.5 35V35.1L112.6 35.4V35.5L112 35.9L111.9 36L111.8 36.1L111.7 36.2L111.5 36.3L111.6 36.5L111.7 36.6V36.7L111.5 36.9H111.4V37L111.1 37.2L110.9 37.5H110.8L111 37.8H110.9V37.9L110.5 38.2L110.2 38.4L110.1 38.6L110 38.8L109.9 38.7H109.8L109.7 38.8H109.6L109.1 38.9L108.7 39L108.1 39.2L108.2 39.7V39.9V40H108.1L108 40.2V40.3L107.9 40.6V40.8L108 41.2L108.1 41.3H108.2H108.3L108.5 41.5L108.6 41.6L108.7 41.7L108.8 41.8L108.9 41.9V42V42.1V42.2V42.3V42.4V42.5L109 42.6V42.7V42.8V42.9V43V43.3L109.1 43.4L109 43.5V43.6V43.7V43.8L109.2 44V44.1V44.2L109.3 44.3L109.4 44.4L109.5 44.5V44.6H109.6V44.7V44.8H109.9L110.2 44.9H110.4H110.5V45L110.6 44.9H110.7H110.8H110.9H111V45H111.1H111.2V45.1H111.3L111.4 45V44.9L111.5 44.8H111.6H111.7L111.8 44.9H111.9H112L112.4 45.2H112.6L113.1 45.6L113.5 45.9L113.9 46.2L113.7 46.3V46.4V46.5H113.6H113.5M113.5 46.5V46.6M113.5 46.5H113.4V46.6H113.3V46.7V46.8L113.4 46.9V47V47.1V47.2V47.3L113.5 47.4H113.6V47.5H113.7V47.6V47.7H113.8L113.7 47.8H113.8V47.9V48H113.9V48.1V48.2L113.8 48.3H113.7V48.4H113.6V48.5L113.7 48.6H113.8H113.9H114L113.9 48.7L113.8 48.9L113.7 49.1L113.6 49.3L113.7 49.4V49.5L113.8 49.6L113.9 49.7H114L114.1 49.8H114.2V49.9H114.3V50V50.1H114.4L114.5 50.2V50.3H114.6L114.7 50.4V50.5L114.8 50.6V50.7H114.9V50.8H115H115.1H115.2H115.3H115.4L115.5 50.7H115.7L115.8 50.6H115.9L116 50.5H116.1L116.2 50.6L116.3 50.7L117.2 51.3L117.4 51.5L117.5 51.4V51.2L117.6 51.1V51V50.9V50.7V50.6V50.5V50.4V50.3L117.7 50.2V50.1V50L117.8 49.9V49.8H117.9L118 49.7L118.1 49.6L118.4 49.5H118.5L118.9 50.5L119.1 50.9L119 51H118.9H118.8V51.1V51.2V51.3V51.4V51.5V51.6L119 51.8L119.2 51.9H119.3L119.4 52H119.5H119.6L119.7 52.1H119.8V52.2L119.7 52.3H119.6L119.5 52.4L119.4 52.5V52.6L119.3 52.7H119.2H119.1H119H118.9H118.8L118.7 52.6H118.6H118.5V52.5H118.4H118.3V52.4H118.2H118.1L118.2 52.8L118.5 53.8L118.7 53.9L119.3 54.1V54.7V55.1V55.5V55.7V55.8L119.2 55.7H119.1H119V55.6L118.9 55.7L118.8 55.9V56.2V56.6H118.9L118.8 57V57.2V57.4V57.5V57.7L118.7 57.8H118.4L118.5 58V58.3V58.8H118.6V58.9L118.7 59.1L118.8 59.3L118.9 59.6H119.5L119.6 59.8V60.3L119.4 60.4H119.3H119.2L119.1 60.5H119H118.9H118.8H118.7V60.6H118.4L118 60.7L117.2 60.8L117 61.1H116.9H116.8L117 61.9V62V62.1L117.1 62.2V62.3V62.4L117.2 62.5V62.6V62.7L117.3 62.9L117.2 63L117 62.9H116.9L116.8 62.8H116.7H116.6H116.5L116.4 62.7H116.3V62.6H116.2L116 62.5H115.9H115.8H115.7L115.6 62.4L115.5 62.3L115.4 62.5L115.3 63L115.1 63.5V63.7L115 64L114.8 64.7L114.6 65.1L115 65.4L114.9 65.5V65.6L114.8 65.7H114.7H114.6H114.5L114.4 65.8V65.9L114.5 66.1L114.4 66.2L114.3 66.1L114.2 66H114.1V65.9L114 65.8H113.9V65.7L113.8 65.5H113.7V65.4H113.6L113.2 65.3V65.4L113.3 65.5L113.4 65.6V65.7H113.5V65.8V65.9V66V66.1V66.2H113.6V66.3V66.4L113.7 66.5V66.6H113.8L113.9 66.7L114 66.8V66.9L114.1 67V67.1L114.3 67.6V67.7V67.8V67.9V68H114.4V68.1L114.7 68.6L114.9 68.9L115.4 68.5H115.5L115.6 68.7V68.6H115.7H115.8V68.5H115.9V68.4H116V68.3H116.1L116.2 68.2H116.3V68.1H116.4V68V67.9H116.5H116.6V68H116.7V68.1L117 67.8L117.1 67.7V67.9V68.1L117 68.3L117.1 68.4V68.6V68.7H117.2L117.4 68.6L117.5 68.8L117.3 69L117.2 69.2L117.1 69.3L117.3 69.4L117.7 69.7L117.2 70.4L117 70.7L116.6 71.3L116.4 71.7L115.9 72.4L115.7 72.6L115.5 72.9L115.7 73.2L115.9 73.6L116 73.7L115.9 73.8L115.7 74.3L115.6 74.5L115.8 74.6L115.7 74.7L115.8 74.8L116.1 75L116.3 75.1V75.2L116.4 75.3L116.2 75.4L116.1 75.5V75.6H116.3L116.5 75.8L117.3 76.5L118 76.2L118.2 76.3L118.4 76.4V76.5H118.5L118.6 76.6H118.7H118.8L119.3 76.7H119.4L119.7 76.8V76.9H119.6V77L119.5 77.1L119.1 77.3L119 77.4L118.9 77.5L118.6 77.6H118.5H118.4V77.7V77.8L118.5 77.9V78H118.6H118.7V78.1H118.8H118.9H119H119.1V78.2L119.2 78.3H119.3V78.4L119.4 78.5L119.3 78.7L119.4 78.8V78.9V79.4V79.7L119.5 80V80.5V80.8V80.9L119.8 81H120H120.1V81.1L120.4 81.2L120.7 81.4H120.8L121 81.5H121.1V82V82.7V82.8L121.2 83.4V83.8V84.3V84.8V85.2L121.3 85.6V85.9V86.1V86.2L121.6 86.3L121.7 86.4L121.8 86.3H121.9L122 86.2H122.1H122.2L122.3 86.3L122.4 86.4L122.5 86.5L122.6 86.6H122.7H122.8H122.9L123 86.7H123.2H123.3L123.2 86.9H123.1V87L123 87.1L123.8 87.3H124L125.4 87.7H125.5L125.7 87.8L126 87.9H126.3V88.2L126 88.3L126.1 88.5L126.3 88.7L126.6 89.2H126.7L126.9 89.3V89.4V89.5H127V89.6V89.7H127.1V89.8H127.2V89.9V90V90.1L127.1 90.4L126.7 90.2L126.4 90.1L126.3 90.5L126.2 90.6L126.1 91L126 91.1L126.1 91.2L125.8 91.7L126.2 91.8L126.1 92.1H126.3L126.1 92.8L126.6 92.5L126.7 92.6L127.1 93L127.4 93.4L127.8 93.8L128 94L128.3 94.3L128.6 94.6L128.9 94.9L129.6 95L130.4 95.1L130.3 95.3L130.2 95.4V95.5V95.6V95.7L130.3 96L130.9 95.9L131 96.6L131.4 96.5V96.8V97L131.5 97.1L131.6 97.2H131.9V97.5L132 97.7L132.6 97.6L132.7 97.9V98V98.1L132.6 98.2L132.5 98.3V98.4V98.6V98.7V98.8H132.4V99H132.5L132.6 99.1V99.2V99.3V99.4H132.5L132.4 99.5H132.3L132.2 99.6V99.5H131.9H131.6L131.5 99.6H131.4L131 99.7H130.8H130.6L130.7 99.9L130.6 100V100.3L130.5 100.7H130.4L130.5 100.8V100.9V101L130.6 101.1L130.7 101.4L130.9 101.6L131 101.7L131.6 101.6L131.9 101.7L132.3 101.9L132.7 102L133.2 102.4H133.4V102.5V102.6L133.3 102.8V102.9V103.4V103.5L133.4 103.6V103.7L133.3 103.8V104.1L133.4 104.2L133.5 104.3V104.6H133.6L133.5 104.8H133.6H133.8V104.9L133.9 105H134H134.1V105.1L134 105.3H134.1V105.4V105.8L134 106.1V106.3V106.4H134.1V106.5V106.6L134 106.7L133.9 106.6L133.8 106.5H133.7H133.6H133.5H133.4V106.6H133.3V106.5H133.2L133.1 106.4H133H132.9H132.8L132.7 106.5L132.5 106.7L132.6 106.9L132.9 107H133H133.1L133.3 106.8V107H133.4V107.1V107.2L133.3 107.3V107.5V107.6L133.2 108V108.3L133.1 108.6H132.7L132.5 108.5H132.1V108.6L131.9 108.8H131.7L131.6 108.7H131.5H131.4L131.3 109.2L131.2 109.5V109.7L131.1 110V110.1H131.3L131.5 110.2L131.4 110.4V110.6L131.3 111H131.1L130.9 110.9H130.8H130.7V111V111.1V111.2L130.8 111.3V111.4V111.5L130.5 111.6L130.6 111.8L130.2 112L130.1 112.1L130 112.2L129.8 112.3V112.4L129.6 112.5L129.4 112.6V112.5V112.4V112.3L129.3 112.4L128.7 112.5L128.4 112.7V112.8L127.6 113.3L127.3 113.5L127.2 113.3L126.3 113.6L126.2 113.7L126.3 113.8V113.9V114H126.4V114.1H126.5V114.2L126.6 114.3V114.4H126.5V114.5L125.9 114.9L124.9 115.8L124.1 116.5L122.7 117.6L122.3 117.9L122.4 118L122.5 118.1L122.6 118.2L122.7 118.3H122.8H122.9H123L123.1 118.4V118.5L123.2 118.6H123.3V118.7V118.8V118.9V119V119.1V119.2L123.4 119.3H123.5V119.4H123.6V119.5H123.7V119.6L123.6 119.7L123.2 119.5V119.6V119.9V120.2V120.7V120.8H123L122.9 121H122.7H122.4L122.2 120.9V121.2L122.1 121.8V122V122.1H121.9H121.8H121.7L121.6 122.2H121.7V122.3H121.6V122.4V122.5H121.5H121.4V122.6L121.6 122.9L121.5 123V123.1L121.3 123.2H121.2V123.3L121.1 123.4V123.5H121V123.4L120.9 123.3H120.8H120.7H120.6H120.5V123.5V123.7V123.9L120.4 124L120.7 124.1V124.2V124.4V124.5H120.9V124.6V124.7V124.8H121L120.9 124.9H121L121.1 125H121.2L121.3 125.1L121.4 125.2L121.6 125.3L121.5 125.5V125.6L121.6 125.9L121.8 126.3H121.7L121.5 126.5L121.7 126.8L121.9 127V127.1L122 127.3L122.1 127.5V127.6L122 127.9L121.9 128.1V128.2L121.8 128.3V128.5H121.7V128.6L121.6 128.7V128.8H121.5L121.6 129V129.1V129.2H121.7V129.3H121.6V129.4H121.7L121.6 129.5H121.7L121.8 129.7L121.9 129.8L122 130V130.1V130.4H121.9L121.7 130.6H121.6H121.5H121.4L121.1 130.8V130.7H121H120.9H120.8H120.6H120.4L120.3 130.6H120.2H120.1H120H119.9H119.8H119.7H119.6H119.5H119.4H119.3H119.2H119.1L118.9 130.7H118.8H118.7L118.5 130.8L118.4 130.9H118.3L118.2 131H118.1V131.1H118H117.9L117.7 131.2L117.5 131.3L117.3 131.5L117.2 131.6L117.1 131.7L116.7 131.4L116.5 131.3L116.4 131.2L116.3 131.1H116.2H116H115.9H115.7V131.2L115.8 131.6L116 132L116.1 132.2L116.4 132.7L116.5 132.9L116.6 133.1V133.2L116.7 133.3V133.5V133.6V133.7V133.8V134.2L116.6 134.6V135.2L116.5 135.4V135.5V135.7V135.8V135.9V136.1L116.6 136.2V136.3H116.5V136.5L116.4 136.7L116.3 136.8L116.1 136.7V136.9L115.8 136.8V136.9L116 137L116.2 137.1H116.3V137.3L116.2 137.5V137.6V137.7L116.1 137.8L116 137.7L115.9 137.6L115.8 137.5H115.7H115.5H115.4V137.4H115.3H115.2L115 137.5H114.9H114.8V137.4V137.2V137.1L114.9 136.9V136.6H114.8L114.6 136.5L114.5 136.4L114.2 136.3L113 135.9V136L112.9 136.3L112.8 136.5V136.6V136.7V136.8V136.9L112.7 137H112.6V137.1H112.5H112.4H112.3L112.2 137.2V137.3L112.1 137.4L112 137.5L112.1 137.6L112.2 137.8V138V138.1L112.3 138.2H112.2H112.1H112L111.8 138.1H111.7L111.6 138L111.5 138.1V138.2L111.4 138.4H111.3H111.2V138.3H111.1H110.9V138.4L110.7 138.5L110.6 138.4H110.5H110.4L110.3 138.3H110.2H110.1L110 138.2H109.9L109.8 138.3H109.7H109.6L109.5 138.4V138.5H109.4H109.3H109.2L109.1 138.4H109H108.9H108.8H108.7H108.6L108.5 138.3H108.4H108.3H108.2L108.1 138.2H107.9H107.8H107.6V138.1L107.5 138H107.4L107.3 137.9H107.2H107.1L106.8 137.8H106.7V137.7V137.6V137.5V137.3L106.6 137.1V137L106.5 136.9V136.7L106.2 136.6H105.8L105 136.7L104.7 136.8L104.3 136.9H104.1L103.9 137L103.5 137.1H103.2L102.6 137.3H102.5V137.4H102.4L102.3 137.5L102 138.1H101.9L102.2 138.7L101.4 139.1L101.2 138.8L101 138.9H100.9L100.7 139L100.4 139.1H100.3V139V138.9L100.4 138.8V138.7V138.6L100.1 138.8L99.9 138.9L99.8 138.8H99.7H99.6H99.5L99.2 138.9L98.5 139.3L98.4 139.4L98.3 139.3L98.2 139.2L98.1 139.1H98L97.9 139L97.7 139.1H97.4H97.3L97.2 139V138.9H97.1L97 138.8V138.9H96.9L96.8 139H96.7H96.6H96.5L96.2 138.9L96 138.8V138.7V138.6L96.1 138.1V137.8H95.6L95.7 137.6V137.5L95.6 137.4V137.5H95.5L95.4 137.7L95.1 137.6V137.5L95 137.6V137.7H94.8V137.8L94.6 137.7H94.5V137.8V137.9L94.4 138.1H94.3H94.2H94.1L94 138H93.9L93.8 137.9V138H93.6L93.7 137.7L93.5 137.6L93.3 137.3V137.2H93.2L93 137.1L92.9 137V136.9L93 136.7L93.1 136.6L93.4 136.5H93.5H93.6L93.8 136.4V136.5H93.9L94 136.6V136.7H94.1L94.5 136.8L94.6 136.7L94.8 136.3V136.2L95 136.1H95.2V136.2H95.3H95.4H95.5L95.6 136.1L95.8 136V135.8H95.7V135.9H95.6L95.5 135.8V135.7V135.6H95.4V135.5V135.4V135.3V135.2V134.9L95.3 134.6L95.2 134.7V134.8H95.1L94.8 135.2L94.7 135.3L94.5 135.2H94.3V135.3L94.2 135.2L94 135.1H93.9V135.2L93.6 135.1H93.4H93.3V135.2V135.3V135.4H93.2V135.8H92.8L92.4 135.7H92.3L92.2 135.6V135.5L92 135.4V135.3L91.8 135.2H91.5H91.3H91.2L91.1 135.3H90.8H90.6H90.4H90.1H89.9H89.8V135.2H89.9H90L90.2 135.1V135H90.3H90.4V134.9L90.5 134.8L90.6 134.7L90.4 134.6L90.3 134.5L90.2 134.4H90.1L90 134.1L89.7 134.2L89.4 134.4V134.3H89.3L89.2 134.2L89 134L88.8 133.8L88.7 133.7L88.6 133.6L88.4 133.3L88.3 133.2L88.2 133.1L87.8 132.7L87.7 132.5L87.6 132.4H87.5V132.3H87.4V132.2L87.3 132.1V132H87.2L86.9 131.6L86.7 131.7L86.6 131.4V131.3H86.5V131.2H86.4V131.3H86.3H86.2L86 131.2H85.9L85.8 131.4L85.6 131.3V131.6L85.8 131.8L85.7 131.9H85.6L85.7 132L85.6 132.3L85.4 132.2L85.2 132.4L85 132.7V132.8L84.9 133.1V133.2V133.3V133.5V133.6V133.7V133.8L84.8 134L84.9 134.1L85.1 134.3V134.4V134.5L85.2 134.6L85.1 134.8H85L84.9 135.1L84.8 135.2V135.3V135.4H84.7V135.5H84.6V135.6L84.3 135.9L84.4 136H84.5V136.1L84.3 136.3V136.4H84.2L84 136.3H83.9V136.2L83.7 136.1L83.6 136V135.9V135.8V135.7L83.5 135.6V135.5L83.4 135.3L83.3 135.1V135L83.2 134.9L83.1 134.7H83H82.9V134.6V134.5H82.8V134.6V134.7H82.7L82.6 134.6L82.5 134.5L82.3 134.4L82.2 134.5L82.1 134.6V134.7L82 134.8L81.9 134.9L81.7 134.8L81.6 134.6L81.5 134.5V134.4H81.2L81.1 134.3V134.2H81H80.9H80.7H80.6H80.5L80.2 134.1H79.9L79.8 134.3V134.5L79.7 134.8L79.6 135.1L79.5 135.5L79.3 136.3L79.2 137L79.1 137.6V137.9L79 138.3V138.4V138.5H78.9H78.8L78.9 138.6V138.7H79V138.8H78.9L78.6 138.9L78.2 139L77.1 139.3L77 139.4L76.2 139.7L76.1 139.8L76 140H76.1L76.2 140.1H76.3V140.2V140.3L76.2 140.4V140.5H76.1L76 140.6V140.7L75.8 140.6V140.5L75.6 140.4L75.4 140.3V140.1V140H75.3H75.2L75 139.9M75 139.9H74.9" stroke="white" stroke-width="0.5" stroke-linecap="round" stroke-linejoin="round"/>
</g>
</svg>
