<svg width="127" height="135" viewBox="0 0 127 135" fill="none" xmlns="http://www.w3.org/2000/svg">
<g id="UA07">
<path d="M100.9 3.39999H101L100.9 3.59999L101 3.69999H101.1L101.5 3.89999L101.8 4.09999L102.1 4.39999H102.2L102.3 4.49999L102.4 4.59999L102.5 4.69999V4.8H102.6H102.7H102.8H103.2H103.5H104.1H104.2H104.5L105 4.69999V4.8H105.1H105.2V4.89999H105.4L105.5 4.99999H105.6L106.1 5.19999L106.5 5.3L105.6 6.59999H105.5V6.69999H105.4H105.3H105.2H105.1L105 6.8L104.8 6.99999L104.7 7.09999L104.5 7.19999L104.1 7.39999V7.69999V7.8V7.89999H104V7.99999H103.9L103.7 8.19999L103.6 8.49999L103.5 8.69999L103.4 8.8L103.3 8.89999L103.2 9.09999V9.19999V9.39999L103.1 9.49999V9.59999H103.2V9.69999V9.89999L103.1 9.99999V10.1H103.2V10.2V10.3V10.4H103.3V10.5V10.6H103.4V10.7V10.8H103.5H103.6V10.9V11V11.1H103.7V11.2L103.6 11.3V11.4V11.5H103.7V11.6H103.6V11.7V11.8H103.5V11.7H103.4H103.3V11.8V11.9H103.2H103.1H103V12H102.9V12.1V12.2V12.3H103V12.4V12.5H102.9H102.8H102.7V12.6H102.8V12.7H102.7V12.8L103.5 13.5V13.6L103.6 14H103.7H103.9L104.1 14.3V14.5L103.9 14.6L103.8 15.1L103.7 15.4V15.8H103.6H103.8V15.9H103.9V16H104H104.1H104.2V15.9L104.4 15.6L104.6 15.5V15.4H104.7L104.8 15.7L104.9 16L105 16.1L105.1 16.3L105.2 16.5L105.3 16.7H105.2L105 17.3L104.9 17.6V17.8V17.9V18H104.8L104.7 18.1V18.2H104.6V18.3V18.4L104.5 18.5L104.4 18.6V18.7H104.3V18.8V18.9L104.4 19V19.2L104.5 19.3V19.5V19.6H104.4L104.3 19.8L104.1 20L103.8 20.3L103.7 20.4V20.5L103.6 20.6L103.7 20.7V20.8V20.9V21V21.1V21.2V21.3V21.4V21.5H103.6V21.6V21.7V21.8H103.5V21.9H103.4V22H103.3H103.2V22.1H103.1H103V22.2V22.3V22.4H103.1V22.5V22.6V22.7H103.2V22.8H103.1V22.9L103 23V23.1V23.2H102.9V23.3V23.4H102.8H102.7H102.6V23.5H102.5H102.4V23.6V23.7H102.5V23.8V23.9V24V24.1L102.3 24.4V24.5H102.2V24.6H102.1V24.7V24.8V24.9V25L102 25.1V25.2H101.9V25.3L101.8 25.5L101.7 25.6V25.7L101.6 26L101 25.9L100.6 25.8L100.5 26L100.2 26.8L100.1 27L100 27.4L99.5 27.2V26.7L97.8 26.8V27.7L97.7 28.2L98.3 28L98.2 27.8L98.9 27.4L99 28L99.2 28.6L99.3 29.1L99.7 29L100.2 28.9L100.3 29.3V29.8L100.4 29.9H100.5L100.8 30.2L101.2 30.8H101.3L101.2 31L101.1 31.5L101 32.1L100.9 32.4L100.8 32.5H100.7H100.6H100.5H100.4V32.6H100.3L100.1 32.8L99.9 33L99.8 33.1L99.4 34.3L99.6 34.4L99.9 34.5L100.2 34.7L100.3 34.8L100.6 34.9L100.8 35.1H100.9L101 35.2V35.4V35.5L100.9 35.6V35.7H100.7L100.3 35.9L98.7 36.4L98.9 37.4L100.2 37.2L100.9 37.1L101.7 36.9L101.3 38H101.6H101.7H102.1H102.3L102.1 38.9L102 39.3H102.2L102.8 39.2H103L103.1 39.1H103.2V39.2L103.3 39.9L103.5 42L103 42.5L103.1 42.9L103.3 43.4L103.4 44.1L103.5 44.2L103.9 44.1L104.1 44.6L104.6 44.4L105.2 44.7L105.6 45.2V45.9L105.7 46.1V46.3L106.3 46.1L106.4 46.3V46.5V46.6L106.3 46.7H106.2L106.4 46.9H106.3H106.2L106 47L106.2 47.5L106.4 47.4V47.2L106.8 47V47.1H106.9H107H107.1V47.2H107.2H107.4V46.8L107.1 46.5L107.3 46.2L107.4 46.1L107.5 45.9L107.4 45.6H108.8H109.2L109.1 46.1L109 46.6V46.7V47.1L109.2 47.2L110.3 47.7L110.7 47.3L111.2 47.5H111.3L111.6 47.6L112 47.3L112.5 46.9L112.8 46.6L112.9 46.7V46.8L113 46.9L113.1 47.1L113.2 47.3L113.3 47.4L113.4 47.5V47.6H113.3V47.7V47.8H113.2V47.7H113.1V47.8H113V47.9L112.9 47.8L112.8 47.9H112.7V48V48.1V48.2V48.3H112.6V48.4H112.7V48.5H112.8H112.9H113V48.6V48.7H112.9V48.8L112.8 49L112.7 49.1L112.8 49.2L112.6 49.6V49.7H112.5V49.6H112.4V49.7V49.8V49.9H112.3V50V50.1H112.4V50.2L112.7 50.3L112.8 50.9H112.9H113V51H113.1V50.9H113.2V51H113.3V51.1H113.2V51.2L113.3 51.3H113.4V51.2H113.5V51.3V51.4V51.5L113.4 51.7V51.8V51.9L113.6 52L113.7 52.1L113.8 52.2L114 52.1V52H114.1H114.2V52.1H114.1V52.2H114.2V52.1H114.3V52.2H114.4H114.5V52.3H114.4V52.4H114.5H114.6V52.3V52.2H114.7V52.3V52.4H114.8H114.9V52.5L115 52.4V52.5H115.1V52.6H115.2V52.7V52.8L115.1 52.9L115 53.2V53.3H115.4H115.5L115.6 53.2H115.7V53.3H115.6V53.4H115.7V53.5H115.6H115.5V53.6H115.6H115.7L115.6 53.7V53.8H115.7L115.9 53.6H116.1H116.2V53.7V53.9L116.1 54V54.1L116 54.3H116.1L116.2 54.4L116.3 54.2H116.4V54.3L116.5 54.4L116.6 54.5V54.6H116.7H116.8H116.9H117H117.1V54.7V54.8H117.2V54.7H117.3V54.8H117.2V54.9V55H117.3V55.1H117.4V55.2V55.3H117.5H117.6V55.4H117.7H117.8V55.5H117.9V55.6H118V55.5H118.1V55.4H118.2V55.5L118.1 55.6H118V55.7H117.9L118 55.8H118.1V55.9V56L118 55.9H117.9L117.8 56V56.1H117.9V56H118V56.1H118.1V56.2V56.3H118H117.9V56.4H118V56.5H118.1H118.2V56.6H118.1V56.7H118H117.9V56.6H117.8L117.9 56.7V56.8V56.9V57H118V57.1V57.2H118.1V57.1L118.2 57V57.1V57.2L118.3 57.3V57.4L118.4 57.5V57.6H118.5H118.6H118.7V57.7V57.8V57.9H118.6V58V58.1V58.2H118.7L118.6 58.3L118.5 58.4H118.6V58.5V58.6H118.5V58.7V58.8H118.6V58.9V59V59.1H118.7L118.9 59.2H119H119.3L119.9 59.3H120L120.5 59.4L121 59.5H121.1L121.3 59.7L121.6 60L121.8 60.3L122 60.5L122.2 60.7L122.5 61L122.7 61.2L122.9 61.4L123.2 61.7L123.3 61.8L123.5 62.1L123.8 62.4L124 62.6L124.2 62.9H124.3V63V63.1L124.4 63.2H124.5V63.3L124.6 63.4L124.7 63.5V63.6L124.6 63.7H124.5H124.4V63.8V63.9H124.3H124.2V64H124.3V64.1V64.2V64.3H124.4V64.4V64.5L124.5 64.6L124.6 64.7V64.8V64.9H124.7L124.8 65L124.9 65.1V65.3L124.8 65.4V65.5V65.6L124.7 65.8V65.9L124.6 66L124.4 66.2L124.3 66.3L123.9 66.4H123.7H123.6L123.5 66.6H123.4L123.3 66.7H123.2L123.1 66.8H123H122.9L122.8 66.9L122.7 67H122.6L122.5 67.1L122.2 67.2L121.9 67.3L121.8 67.1V67V66.9L121.7 66.5L121.3 66.6H121.2H121V67.4V67.9H120.8H120.3H120.2L119.9 67.7H119.8H119.6H119.4H119.3L118.7 68V68.1L118.5 68.2H118.4L118.2 68.6V68.7V68.8H118.3L118.4 68.9L118.5 69.1L118.6 69.2L118.7 69.3L118.8 69.4V69.5V70L118.7 70.1V70.2H118.6H118.5V70.3V70.4H118.6V70.5V70.6V70.7V70.8L118.5 71L118.4 70.9V71L118.5 71.1H118.6H118.7L119 71.2L119.3 71.3H119.5L119.6 71.4H119.7H119.9L120 71.5H120.1H120.2L120.3 71.6H120.4L120.5 71.5H120.6H120.7H120.8H120.9H121H121.1H121.2L121.4 71.4L121.6 71.3L121.9 71.2L122.2 71.1L122.4 71.3L123 71.7L123.5 72L123.9 72.3L124.4 72.6L125 73.1L125.6 73.5L125.9 73.7L126 74.1V74.3L126.1 74.4V74.6V74.7L126.2 74.9L126.3 75.7L126.5 76.2L126.6 76.7V77L126.7 77.1V77.4H126.4H126.2H125.8L125.6 77.6V77.8H125.5L125.4 78.1L125.3 78.5V78.6L125.4 79.2V79.3L125.5 79.5V79.9V80L125.4 80.1H125.3H125.2H125.1L125 80H124.8L124.7 80.1H124.6L124.5 80.2H124.4L124.3 80.1H124.2H124.1H124V80H123.9H123.8H123.7V80.1H123.6H123.5L123.4 80.2H123.3H123.2V80.3H123.1H123V80.4H122.9H122.8V80.5H122.7H122.6L122.5 80.6H122.4V80.7H122.3H122.1H122H121.8H121.6L121.5 80.6H121.4H121.3L121.2 80.7H121.1H121V80.8L120.9 80.9H120.8H120.7H120.6H120.5H120.4L120.3 81H120.2L119.7 81.2H119.6L119.9 81.5L121.1 82.7L121.2 82.8L121.4 83L121.3 84.1L121.2 84.8L121.1 86.2L121 87V87.6L120.9 88.1V88.5L121.3 88.8H121.4L121.6 88.7V88.6L121.7 88.5H121.8H122L122.1 88.6V88.7L122.2 88.8L122.3 88.9L122.4 89L122.6 89.1L122.8 89.4H122.9L123 89.5L122.9 89.6L123.2 89.7V89.8V89.9V90V90.1V90.2V90.3V90.4H123.3V90.5H123.2H123.1H122.9V90.6L122.8 90.5V90.6V90.7L122.7 90.8V90.9H122.8V91.1L122.7 91V91.1L122.6 91.2V91.4V91.5V91.7V91.8V91.9L122.5 92L122.4 92.1L122.3 92H122.2H122.1L122 91.9H121.9V92L121.8 91.9H121.7V92H121.6V92.1H121.5L121.3 92.2H121.1L121 92.1L120.9 92H121L120.9 91.9H120.8H120.7H120.6H120.5V92H120.4H120.3V92.1H120.2H120.1V92H120V91.9V91.8H119.9V91.7H119.8H119.7H119.6H119.5H119.4V91.8H119.3V91.9H119.2V91.8H119.1V91.7V91.6V91.5L119 91.4H118.9V91.5H118.8V91.6H118.7V91.7L118.6 91.6H118.5H118.4V91.5H118.5L118.4 91.4H118.3H118.2H118.1H118V91.3H117.9V91.4H117.8H117.7V91.3H117.6H117.5V91.2H117.4V91.3H117.3V91.4H117.2H117.1H117H116.9V91.3V91.2H116.8H116.7V91.3H116.6V91.4V91.8L116.7 92.2V92.5L116.4 92.7L116.2 92.9L115.9 93.5V93.6L115.8 93.7V93.8V93.9V94.2V94.3V94.5L115.7 94.8H115.6V94.9V95.1V95.2V95.3V95.5V95.8V96V96.3V96.6V96.7L115.5 96.8V96.9V97H115.4V97.1L115.3 97.3V97.4H115.2L115.1 97.5L114.9 98.2V98.3V98.4V98.5V98.6V98.7H114.8L114.9 98.8V98.9V99V99.1V99.2L115 99.4V99.6V99.7L115.1 99.8V100V100.1L115 100.2V100.4H115.1V100.5L115.2 100.6L115.1 100.7V100.9V101H115.2V101.1V101.2H115.1V101.3V101.4H115V101.6V101.7H114.9V101.8V101.9H114.8V102V102.1V102.2V102.3V102.4V102.5V102.6V102.7H114.7V102.8H114.6V102.9L114.5 103L114.4 103.1V103.2H114.3L114.2 103.3L114.1 103.5L114 103.6H113.9V103.7V103.8L113.8 103.9V104V104.1V104.2L113.7 104.3L113.5 104.6L113.4 104.8L113.3 104.9L113.2 105L113.1 105.1L113 105.2L112.8 105.4L112.7 105.6L112.6 105.7L112.5 105.8L112.4 106L112.5 106.2V106.4H112.6L112.7 106.5L112.8 106.6V106.7H112.9V106.8L113.1 106.9L113.2 107L113.3 107.1L113.4 107.2L113.3 107.4L113.2 107.5L113 107.8L112.8 108L112.7 108.1H112.6H112.5V108L112.4 107.9V107.8H112.3V107.7H112.2V107.6V107.5H112.1L112.2 107.2V107.1L112.1 107L112 106.8V106.7V106.6H111.9V106.5L111.8 106.4V106.2L111.7 106.1L111.6 106V105.8L111.5 105.6L111.4 105.5V105.4L111.3 105.3L111.2 105.2V105.1L111.1 104.9L111 104.7L110.9 104.5V104.4V104.3L111 104.2H110.5L110.2 103.9L109.9 103.6L109.5 103.7V103.8H109.4H109.3V103.9H109.1H109H108.9L108.8 104H108.7H108.6H108.5L108.4 104.1L108.3 104.2H108.2L108 104.1H107.9H107.8H107.7L107.6 104H107.5H107.4H107.3H107.2H107.1H107H106.8H106.7H106.6V103.9V103.8V103.7V103.6V103.4H106.7H106.8L106.9 103.3H107V103.2H107.1H107.2V103.1H107.3L107.2 103V102.9H107.1H107V102.8L106.9 102.7L106.8 102.6L106.7 102.5V102.4H106.6V102.3H106.5V102.2V102.1V102L106.4 101.9V101.8L106.3 101.7H106.2H106.1L106 101.6V101.5L105.9 101.4H106H106.1V101.3V101.1L106 100.8L105.9 100.1V99.8L105.5 99.9L105.2 100L104.9 100.1H104.7L104.3 100.2L104 100.3L103.6 100.4L103.2 100.5H103.1H103L102.6 100.6H102.5H102.4H102.3L102.2 100.5H102.1H102H101.9H101.8L101.7 100.4H101.6H101.5H101.4H101.3V100.5H101.2H101.1V100.6H101V100.7V100.8L101.1 100.9V101V101.1V101.3V101.4V101.5V101.6V101.7L101.2 101.8V102.1H101.1H101V102H100.9V101.9L100.8 101.8L100.7 101.7H100.6H100.5H100.4H100.3H100.2H100.1V101.8H100V101.9H99.9V102H99.8V102.1H99.7V102.2H99.6V102.3H99.5H99.4L99.3 102.4L99.2 102.2L98.8 102.4L98.6 102.5L98.3 102.6L98.1 102.7L97.9 102.8L97.7 102.9H97.6H97.5H97.4H97.3V103H97.2H97.1H96.9H96.7L96.5 103.1L96.4 103.2L96.2 103.3L96.3 103.4L95.7 103.6L95.5 103.7H95.4L95 103.9H94.9H94.8V103.8V103.7V103.6H94.7V103.5L94.6 103.4V103.3H94.5L94.3 103.5L94.2 103.6L94 103.8L94.3 104.2L94 104.5L93.9 104.7H93.8H93.7H93.6H93.5H93.4L93.3 104.6H93.2L93.1 104.5H93H92.9L92.8 104.6V104.5H92.7V104.4H92.6H92.5H92.4H92.3H92.2H92.1H92H91.9H91.8V104.3H91.7H91.6V104.2H91.5L91.4 104.3V104.2H91.3V104.1H91.2V104H91.1H91V103.9H90.9V103.8V103.7H90.8V103.6V103.5H90.7V103.4H90.6L90.7 103.3H90.6V103.2V103.1H90.5V103V102.9H90.4V102.8H90.3V102.7V102.6L90.1 102.8L90 102.9V103L89.9 103.1H89.8V103.2H89.9H90H90.1V103.3L90.2 103.4L90.3 103.5V103.6H90.4V103.7V103.8V103.9V104V104.1L90.5 104.2V104.3H90.4V104.4H90.5V104.5L90.4 104.6V104.5H90.3V104.6V104.7H90.4V104.8V104.9V105V105.1L90.3 105.2V105.3H90.2L90.1 105.4V105.5H90V105.6H89.9H89.8H89.7H89.6V105.5H89.7V105.4H89.6H89.5V105.5H89.4H89.3H89.2V105.6H89.1V105.7H89V105.8H88.9V105.9V106H88.8V105.9V105.8H88.7H88.6V105.9V106V106.1H88.7V106.2H88.6V106.3V106.4V106.5H88.7H88.8V106.6H88.9V106.5V106.4H89V106.3H89.1H89.2L89.1 106.4V106.5V106.6H89.2V106.7L89.5 106.9L89.6 107H89.7H89.8H90V107.1L89.9 107.2H90H90.1H90.2L90.3 107.3V107.4H90.2V107.5V107.6V107.7V107.8H90.3V107.9H90.2V108V108.1L90.3 108.2L90.4 108.3H90.5V108.4V108.5H90.6H90.7V108.4H90.8H90.9H91V108.5H91.1V108.6H91.2L91.3 108.7V108.8L91.2 108.9H91.1V109H91V109.1H90.9H90.8H90.7H90.6V109H90.5H90.4H90.3H90.2V108.9V108.8H89.6V108.9H89.5L89.2 109L89.1 108.9H89H88.7H88.6H88.5V108.8V108.7V108.6H88.3H88.1H88L87.9 108.7H87.8H87.7H87.6H87.4L87.3 108.6L87.2 108.3L87.1 108.1L87 108L86.9 107.9L86.8 107.8V107.7L86.7 107.6V107.5L86.6 107.4L86.5 107.3H86.4H86.3H86.2H86.1H86H85.8H85.6V107.8V108.2V108.6V108.7L86 108.9H86.1L86 109V109.1V109.2V109.3V109.4H86.1H86.2V109.5L86.3 109.7V109.9L86.2 110V110.2V110.3V110.5L86 111.2V111.3L86.3 111.2L86.6 111.1L87 111V111.2V111.3V111.6L87.1 112V112.2L87 112.4L86.9 112.8L86.8 113.1H86.7H86.6V113.8V113.9V114H86.5H86.4V114.1H86.3V114.2H86.2V114.3H86.1V114.4V114.5L86 114.6H85.9H85.8H85.6H85.5H85.4L85.3 114.7H85.2H85.1H85L84.9 114.8H84.8H84.7V114.9H84.6V115H84.5H84.4H84.3H84.2H83.9L83.8 115.1V115H83.5H83.4H83.3H83.2L83.3 114.7H83.2L83.1 114.6H83L82.9 114.5H82.8H82.7V114.4H82.5H82.4H82.3H82.2H81.9H81.7H81.4L81.2 114.3H81.1H80.9H80.8H80.7H80.6L80.5 114.2H80.4V114.1V114V113.9V113.8L80.5 113.7V113.6H80.4H80.2H80H79.9L79.8 113.7H79.7H79.5H79.4H79.3H79.2L79 113.8H78.8L78.6 113.9H78.5H78.4L78.2 113.8H78.1H77.9H77.8H77.7H77.6V113.7H77.4V113.6H77.3L77.2 113.5V113.4H77.1V113.8V114V114.1L77 114.2V114.4V114.5H76.9V114.6L76.8 114.7L77 115V115.1V115.2V115.3V115.4H77.1V115.5H77.2L77.3 115.6H77.4L77.5 115.7H77.6L77.7 115.8H77.8L77.9 115.9H78H78.1V116H78.2L78.3 116.2L78.4 116.3L78.5 116.4V116.5H78.6V116.6V116.8L78.7 116.9H78.8V117H78.9V117.1V117.2V117.3V117.4H79V117.5L79.1 117.6L79 117.7V117.8L78.9 118V118.3V118.4V118.7V118.8V119L78.8 119.1L78.7 119.2V119.3V119.4L78.6 119.6V119.8L78.5 119.9V120V120.1V120.2L78.4 120.3L78.3 120.2H78.2V120.1V120H78.1H78L77.9 119.9L77.8 120V120.1V120.2H77.7H77.6L77.5 120.1H77.4H77.3L77.1 120H77L76.8 119.9H76.7H76.6H76.5H76.3H76.2L76.1 120H76V119.9H75.9L75.8 119.8H75.7L75.6 119.7H75.5V119.6H75.4H75.3H75.2H75.1L75.2 119.7L75.3 119.8L75.4 119.9L75.5 120H75.6V120.1H75.7H75.8V120.2H75.9H76H76.1L76.2 120.3L76.5 120.4H76.6L76.7 120.5L76.9 120.6L77 120.7H77.1H77.2V120.8H77.3H77.4H77.5H77.6H77.7H77.8L77.9 120.7V120.8V120.9V121V121.1V121.2V121.3L77.8 121.4H78H78.4L78.5 121.8V121.9V122H78.4V122.1L78.3 122.2V122.3H78.2V122.4L78.1 122.3H78V122.4V122.5V122.6H77.9H77.8V122.7V122.8V122.9V123H77.9V123.1V123.2V123.3V123.4H78V123.3H78.1H78.2V123.4H78.3V123.3H78.4V123.4H78.5H78.6V123.3H78.7H78.8H78.9L78.8 123.4H78.9V123.5H78.8V123.6H78.9V123.7H78.8V123.8H78.9V123.9H79V124L79.1 124.1H79.2H79.3V124.2H79.4L79.3 124.3V124.4H79.4V124.5H79.3V124.6H79.4V124.7V124.8H79.5V124.9V125V125.1V125.2V125.3V125.4H79.6V125.5H79.5H79.4V125.6V125.7V125.8V125.9H79.5V126H79.6V126.1H79.7V126H79.8V126.1V126.2L79.9 126.1V126H80V125.9H80.1H80.2H80.3H80.4H80.5L80.6 126H80.7V126.1H80.8H80.9V126.2H81L81.1 126.3V126.4V126.5V126.6H81.2H81.3V126.7H81.2V126.8H81.3V126.9H81.2V127V127.1H81.3L81.4 127H81.5V127.1H81.4L81.3 127.2H81.4V127.3V127.4V127.5V127.6V127.7H81.3V127.6H81.2V127.7H81.3V127.8H81.2V127.9L81.1 128V128.1H81.2V128.2H81.1V128.1H81V128.2V128.3H80.9V128.4H80.8H80.7V128.5H80.6V128.4H80.5H80.4V128.5H80.3V128.4H80.2H80.1V128.5V128.6H80H79.9V128.5V128.4L80 128.3H79.9V128.2H79.8V128.1V128H79.7V127.9H79.6V127.8V127.7V127.6V127.5V127.4H79.5H79.4V127.3V127.2H79.3H79.2H79.1H79L79.1 127.3V127.4V127.5H79H78.9L79 127.6V127.7H78.9H78.8V127.8H78.7H78.6V127.9H78.5H78.4L78.3 127.8V127.9H78.2H78.1V128H78L78.3 128.3L78.2 128.5L78.1 128.6L78.2 128.7L78.3 128.8V128.9L78.4 129.1L78.5 129.3V129.4L78.4 129.6L78.2 129.9V130H78.3L78.4 130.1H78.5L78.6 130.2H78.7V130.3L78.8 130.4L79 130.6L79.2 130.9L79.3 131H79.2L79.1 131.1L78.9 131.2L78.6 131.4L78.3 131.5L78.2 131.6L78 131.7L77.4 132L77.5 132.2V132.4V132.5L77.4 132.6H77.3H77H76.8L76.6 132.5H76.4V133.1L76.3 133V133.5L75.9 133.4L76 133.6V133.9H76.3H76.5L76.6 134.5L76.1 134.3L75.9 134.2H75.8H75.6L75.2 134.1H74.9L74.8 134H74.6L74.5 133.9L74.3 133.7L74.2 133.6H74.1L74 133.5H73.9H73.8L73.7 133.4V133.3V133.2H73.6V133.1H73.5V133H73.6V132.9V132.8V132.7V132.6H73.7V132.5V132.4H73.6V132.3V132.2V132.1H73.7V132V131.9H73.8V131.8H73.7V131.7H73.8V131.6H73.9V131.5L73.8 131.4H73.9V131.3V131.2V131.1V131V130.9H73.8V130.8H73.7L73.6 130.7V130.6H73.7V130.5V130.4V130.3H73.8H73.9V130.2H73.8V130.1H73.7H73.6H73.4H73.2H73.1H73V130H72.9L72.8 129.9H72.7H72.6H72.5H72.4H72.3H72.2H72.1V130H72L71.9 130.1H71.8L71.7 130.2L71.6 130.1L71.5 129.9L71.4 129.8L71.3 129.7L71.2 129.6L71.1 129.5L70.9 129.3L70.7 129.1L70.6 129L70.5 128.9H70.4L70.3 128.8V128.7L70.2 128.6L70 128.4L69.8 128.3V128.2H69.7V128.1H69.6V128H69.5V127.9L69.3 127.8L69.1 127.6L69 127.4L68.9 127.3L68.8 127.2L68.7 127.1L68.6 127H68.5V126.9H68.4V126.8L68.3 126.7V126.6H68.2V126.5H68.1L68 126.4H67.9L67.8 126.7V126.8L67.7 126.9V127H67.6L67.5 127.1L67.3 127.3L67.5 127.6L67.6 127.7L67.7 127.8L67.8 128.2V128.4V128.5V128.6V128.7V128.9V129.1V129.2L67.7 129.5V129.7V129.9L67.5 129.8H67.2H67.1H67V129.9H66.9H66.8V129.8H66.7H66.6H66.5H66.4V129.9H66.3H66.2H66.1H66H65.8L65.6 129.8H65.4H65.3L65.2 129.9H65.1V129.6L65.2 129.3V129.1V128.8H65.1H64.4H64.2H64.1L64 129L63.9 129.1V129.2H63.8V129.4V129.6V129.5H63.7L63.6 129.4H63.5H63.4H63.3H63.1L63 129.5H62.9H62.6L62.4 129.6H62.2H62.1H61.9H61.7L61.5 129.7H61.4H61.3H61.2V129.8H61.1H60.9H60.8H60.7H60.6V129.9H60.5H60.4L60.3 129.8H60.2L60.1 129.9V130V130.1H60L59.6 130.5L59 130.4H58.6H58.4L58.1 130.3H57.5L57.3 130.2H57L56.5 130.1H56.4L56.5 130V129.7V129.4V129.1L56.6 129L56.5 128.9L56.6 128.6L56.7 128.3V128.2L56.8 128.1V128V127.8V127.7V127.6L56.7 127.5L56.6 127.4L56.5 127.2L56.3 127.1L56.2 127L56.1 126.9V126.8L55.8 126.7L55.7 126.6L55.5 126.5L55.4 126.4H55.3V126.3L55 126.1L54.8 126L54.6 125.8L54.5 125.7H54.4H54.3V125.6H54.2H54.1H54V125.5H53.9L53.8 125.6V125.5H53.6H53.5L53.4 125.4V125.3H53.3V125.2L53.4 125V124.9V124.8H53.3V124.7H53.2H53.1L53 124.8H52.9L52.8 124.9H52.7H52.6H52.5H52.4H52.3H52.2H52.1H52H51.9H51.8V124.8H51.7H51.6H51.5H51.4H51.3L51.2 124.7H51.1L51 124.6H50.9H50.8H50.7L50.6 124.5H50.5V124.3V124.1V124L50.6 123.5V123.2V123V122.9V122.8V122.7V122.6V122.5V122.4V122.1V121.9V121.8V121.6V121.4V121.3V121.2L50.7 121.1H50.6H50.5H50.4H50.3V121H50.2V120.9V120.8H50.1V120.7L50.6 120.3V119.8V119.6V119.4V119.3H50.5L50.4 119.2H50.3V119.1V119V118.9H50.2V118.8L50.3 118.6H50.2V118.5L50.1 118.2L50.2 118.1H50.3L50.4 118H50.5V117.9V117.8H50.4H50.3V117.7H50.2H50.1L50 117.6V117.7V117.8L50.1 117.9V118V118.1V118.2H50L49.9 118.3H49.8V118.4H49.7H49.6H49.5H49.4H49.3V118.5H49.2H49.1H49H48.9H48.8V118.2H48.4V118.1V117.5V117.4V117.2L48.5 117.1V117H48.6V116.9V116.8V116.7H48.5V116.6L48.4 116.4V116.3V116.2H48.3V116.1H48.2V116V115.9L48.1 115.8V115.7V115.6V115.5V115.4V115.2V115.1V115L48 114.9V114.8H47.9V114.7L47.8 114.6L47.7 114.5V114.4L47.6 114.3V114.2L47.5 114.1V114V113.9H47.4L47.3 113.8L47.2 113.7L47.1 113.6H47L46.9 113.5L46.5 113.2H46.4H46.3H46.1H46H45.9L45.7 113.3L45.6 113.4V113.5L45.1 113.6H45L44.9 113.7L44.8 113.8H44.7V113.9H44.6L44.5 114V114.1H44.4L44.3 114.2L44.1 114.3H44V114.4H43.9H43.8H43.7L43.6 114.5L43.5 114.4H43.4H43.3L43.2 114.5H43.1V114.4H43L42.9 114.3H42.8L42.7 114.2L42.6 114.1H42.5L42.4 114H42.3V113.9H42.2V113.8H42.1L42 113.7V113.6H41.9V113.5H41.8L41.7 113.4H41.6V113.3H41.5V113.2L41.4 113.1V113H41.3H41.2V112.9H41.1H41H40.9V112.8V112.7L40.8 112.6V112.5V112.4L40.7 112.2V112.1L40.8 112L40.7 111.9L40.6 111.8H40.5V111.7L40.7 111.5H40.8L40.9 111.4L41.1 111.2V111.1V111H41.2V110.9L41.3 110.8L41.2 110.7H41.1V110.6H40.9L40.8 110.5H40.7L40.6 110.4L40.5 110.3V110.2L40.4 110.1V110V109.9L40.3 109.8L40.2 109.7L40 109.5L39.9 109.3V109.2L39.6 109V109.1L39.5 109.2L39.4 109.3L39.3 109.4L39.2 109.5V109.6H39L38.8 109.8H38.7V109.9V110H38.6V109.9H38.5H38.4L38.3 109.8H38.2H38.1H38H37.9H37.8H37.5H37.4H37.3H37.2L37 109.7H36.8L36.7 109.8H36.8V109.9L36.9 110.3L36.7 110.7V110.8L36.6 111L36.5 111.1V111.2V111.3V111.4V111.5V111.6V111.7V111.8H36.4V111.9H36.3H36.2H36.1V111.8H36H35.9L35.7 111.7H35.6H35.5H35.4L35.3 111.8H35.2L35.1 111.7H35L34.9 111.6H34.8H34.7H34.6L34.5 111.5H34.4H34.3V111.4H34.2H34.1L34 111.3H33.9L33.8 111.2H33.7L33.6 111.3H33.5H33.4H33.3V111.2H33.2H33.1H33H32.9H32.8H32.7L32.6 111.1H32.5H32.4V111H32.3V110.9H32.2V111H32.1H32V110.9V110.8H31.9V110.7H31.8L31.7 110.6H31.6V110.5V110.4H31.7H31.8V110.3H31.7H31.6V110.2H31.5H31.4V110.3V110.4H31.3H31.2H31.1V110.3V110.2V110.1H31.2V110V109.9H31.1H31V109.8H31.1V109.7H31V109.6V109.5H30.9V109.6H30.8V109.5H30.9V109.4H30.8H30.7V109.3V109.2H30.8V109.1H30.7H30.6H30.5V109H30.6H30.7V108.9V108.8V108.7H30.6V108.6H30.5H30.4V108.7H30.3V108.6L30.2 108.5V108.4H30.1V108.3H30V108.4V108.5L29.9 108.6V108.5H29.8V108.4V108.3V108.2H29.7V108.3V108.4H29.6V108.3H29.5V108.2H29.4H29.3V108.3V108.4H29.2V108.3V108.2H29.3V108.1V108H29.2V107.9H29.3V107.8H29.2L29 107.9V107.8L29.1 107.7H29.2L29.1 107.6H29V107.5H29.1V107.4H29V107.3H28.9H28.8H28.7V107.2H28.8H28.9L29 107.3H29.1L29.2 107.2V107.1H29.1V107V106.9H29V107H28.9V106.9V106.8H28.8V106.7H28.7H28.6V106.6H28.5V106.5V106.4V106.3H28.4V106.4V106.5V106.6L28.3 106.5V106.4V106.3H28.2H28.1V106.2H28.2V106.1H28.3V106H28.2V106.1H28.1V106.2V106.3H28V106.2V106.1V106V105.9L27.9 106H27.8V106.1V106.2V106.3H27.7H27.6V106.2H27.5V106.1V106H27.4V106.1V106.2V106.3H27.3V106.2V106.1H27.2H27.1H27V106V105.9H26.9V105.8H26.8H26.7V105.9L26.6 106H26.5V105.9H26.4H26.3V106V106.1H26.4H26.5V106.2H26.6V106.3H26.5H26.4H26.3L26.2 106.4H26.3V106.5H26.2L26.1 106.6V106.7H26V106.8H25.9V106.9H25.8V107H25.7L24.9 105V104.8L24.7 104.5L24.6 104.2V104L24.5 103.9V103.7L24.2 102.5L24.5 100.7L24.2 100.6L23.2 100.4L23.1 100.3H23L22.9 100.2L21.8 99.5L21.4 98.9V98.8L21.3 98.7L21.1 98.3L21.2 98L21.4 97.7V97.6L21.6 97.1L21.7 97V96.9V96.4H21.5L20.3 96.2L19.1 95.7L18.7 95.1L18.4 94.7V94.3V94.1L18.3 93.1L18.9 91.8L19.5 91.3L20.1 90.9L21.5 90.7L22.8 91.5L23.8 91H24.3H24.4H24.6H25.5L27 90.7L27.7 89.3L27.6 89.2L27.1 88.4L27 88.3L26.6 88.1V88L26.1 87.8L26 87.7L25.3 87.3L23.7 86.4L23.1 86.1L22.8 85.9L19.4 82.8L18.6 81.5L18.4 80.5L18.3 79.8L18.2 79.1L17.6 78.2L17 77.8L16.4 77.6L16 77.2L16.2 76.6V76.1L15.6 72.8L15.2 71.7L13.8 69.6L13.4 68.8V68.7L13.2 68.3L13.1 68L13.3 67.4V67.3L13.8 67L14.1 66.9L13.8 66.3L13.6 65.9L13 65.3L12.8 65.1L12.6 64.9L12.5 64.8L12.4 64.7L11.2 63.4L11 63.3L10 62.7L9.39999 62.3L8.6 61.8L7.7 60.7L7.5 60.4L7.3 60.1L6.7 58.9L6.6 58.6L4.9 54.8L4.7 54.3L3.8 53.7H2.9H2.8L2 53.3L1.7 51.6L2 50.5L2.7 49.3L3.5 48.4L3.6 48.3L3.8 48.2L4.2 48.1L4.5 48L4.4 47.9V47.8L4.3 47.4V47.3L4.2 46.9V46.3V46.1L4.3 45.9L4.4 45.8L4.5 45.7L4.6 45.5L5.2 45.2L4.8 44.3L3.2 42L2.8 41.3L2.7 41.2V41.1L2.6 40.8H2.7H2.8H2.9H3V40.7H3.1L3.2 40.6V40.5V40.4H3.3V40.3H3.4L3.5 40.2H3.6V40.1V40V39.9V39.8H3.7H3.8V39.9H3.9H4H4.1V39.8V39.7L4 39.6H3.9V39.5L3.8 39.4V39.3H3.9V39.2L3.8 39.1V39V38.9V38.8H3.7H3.6V38.7H3.5L3.4 38.6L3.5 38.5H3.4V38.4L3.3 38.3L3.2 38.2V38.3H3.1H3V38.4V38.5V38.6H2.9H2.8H2.7L2.1 38.4V38.3V38.2H2H1.9H1.8L1.7 38.1V38H1.6V37.9H1.5H1.4V37.8H1.3L1.2 37.7H1.3V37.6H1.4H1.5V37.5V37.4H1.4H1.3H1.2V37.3H1.1V37.2V37.1V37V36.9V36.8L1.2 36.9H1.3V37L1.4 37.1L1.5 37.2H1.6H1.7H1.9L2.1 37.3H2.2H2.3H2.4L2.7 37.4H2.8H2.9H3L3.1 37.5H3.2H3.3H3.4H3.5V37.6H3.6H3.8L3.9 37.5V37.4H4V37.3V37.2L4.1 37.1V37V36.9V36.8L4 36.6V36.5L3.9 36.3V36.1V35.9L3.8 35.8L3.7 35.6L3.6 35.5L3.4 35.3L3.3 35.1L3.1 34.9V34.8V34.7L3 34.6V34.5L2.9 34.4L2.8 34.3L2.6 34.2L2.5 34L2.4 33.9L2.3 33.7L2.1 33.6V33.5V33.4V33.2V32.9L2.3 32.8H2.4L2.5 32.7V32.6H2.6L2.7 32.4L2.8 32.3V32.2L2.9 32.1L3 32H3.1H3.2H3.3L3.4 31.6L3.5 31.3V31.2V31.1V31L3.4 30.9V30.7H3.3V30.6H3.2V30.5V30.4H3.1H3L2.9 30.3H2.8L2.7 30.2L2.5 30.1L2.4 30L2.2 29.9H2.1H2V30H1.9H1.8V29.9V29.8V29.7H1.7V29.6L1.6 29.5V29.4H1.5V29.3V29.2V29.1H1.6V29H1.5V28.8V28.7H1.4H1.3L1.2 28.6V28.5H1.1V28.4V28.3H1L0.900002 28.2H0.800003L0.5 28L0.599998 27.9L1.1 27.4L1.3 27.2L1.6 27.1L1.7 27H1.8L6.6 25.7L7.8 25.8L11.4 26.8L12.6 27L14.6 27.8L15 28.2L14.9 28.3H14.8L14.4 28.7L14.2 29.6V29.7L14.3 29.8V29.9L14.4 30L14.6 29.9H14.7L14.9 29.8L15.1 29.7H15.2L15.4 29.6H15.6H15.8H16.1L17.5 30.8L19.3 30.5L19.4 30.6L19.6 30.7H19.7V30.8L19.8 30.9H19.9H20L20.2 31H20.3L20.6 30.7L21 30.4L21.1 30.3L21.2 30.2L21.3 30.1V29.7L21.4 29.6L21.9 29.2L22.1 29.1L22.3 28.9L22.6 28.8H22.7L22.9 28.6L23.2 28.4L23.5 28.2H23.7L23.8 28.1L24 28L24.2 27.9L24.3 27.7L24.5 27.5L24.7 27.2L24.9 26.9L25 26.8L25.2 26.6L25.4 26.3V26.2L25.5 26.1L25.6 25.9L25.7 25.7V25.6L25.8 25.5V25.3L26 25.1L26.1 24.7L26.3 24.4V24.3L27 23.7L27.2 23.6L27.4 23.5L27.5 23.4L27.7 23.3H27.8V23.2H27.9L28 23.1L28.2 23L28.5 22.9L28.8 22.7L28.9 22.6L29.3 22.5L29.5 22.3L29.7 22.2L29.9 22.1L30.1 22L30.3 21.9L30.5 21.8L30.6 21.7L30.9 21.6L31.3 21.4L31.5 21.3L31.8 21.1L32 21L32.3 20.8L32.5 20.7L32.8 20.6L33 20.5L33.3 20.3L33.6 20.1L33.9 20L34.1 19.9L34.7 19.2L35.1 18.7L35.6 18.1L35.9 17.9L36.1 17.6L36.5 17.1L36.2 16.4V16.3L36 15.9L35.9 15.6V15.5V15L35.8 14.8L35.6 14.1L35.5 13.9L35.4 13.5L35.3 13.2V12.8L35.4 12.4V12.3L35.6 12.1L35.9 11.4L36.1 10.9L37.5 8.89999L38 8.09999L39.1 6.99999L40.1 6.59999L42.9 6.39999L45.3 6.19999L52.7 5.59999L55.8 6.3L56.8 6.39999L57.7 6.19999L59.4 5.99999L67.1 4.69999L67.3 5.09999H67.4V5.19999H67.5H67.9H68.2H68.5H68.6L69 5.09999H69.1H69.2L69.8 4.69999L70.3 4.19999L71 4.09999L75.5 1.69999L77.8 0.899994H80.1L88.6 3.19999L94.5 3.3H94.6H98.5L100.9 3.39999Z" fill="#6F9C76"/>
<path d="M103.6 10.8H103.5H103.4V10.7V10.6H103.3V10.5V10.4H103.2V10.3V10.2V10.1H103.1V9.99999L103.2 9.89999V9.69999V9.59999H103.1V9.49999L103.2 9.39999V9.19999V9.09999L103.3 8.89999L103.4 8.8L103.5 8.69999L103.6 8.49999L103.7 8.19999L103.9 7.99999H104V7.89999H104.1V7.8V7.69999V7.39999L104.5 7.19999L104.7 7.09999L104.8 6.99999L105 6.8L105.1 6.69999H105.2H105.3H105.4H105.5V6.59999H105.6L106.5 5.3L106.1 5.19999L105.6 4.99999H105.5L105.4 4.89999H105.2V4.8H105.1H105V4.69999L104.5 4.8H104.2H104.1H103.5H103.2H102.8H102.7H102.6H102.5V4.69999L102.4 4.59999L102.3 4.49999L102.2 4.39999H102.1L101.8 4.09999L101.5 3.89999L101.1 3.69999H101L100.9 3.59999L101 3.39999H100.9L98.5 3.3H94.6H94.5L88.6 3.19999L80.1 0.899994H77.8L75.5 1.69999L71 4.09999L70.3 4.19999L69.8 4.69999L69.2 5.09999H69.1H69L68.6 5.19999H68.5H68.2H67.9H67.5H67.4V5.09999H67.3L67.1 4.69999L59.4 5.99999L57.7 6.19999L56.8 6.39999L55.8 6.3L52.7 5.59999L45.3 6.19999L42.9 6.39999L40.1 6.59999L39.1 6.99999L38 8.09999L37.5 8.89999L36.1 10.9L35.9 11.4L35.6 12.1L35.4 12.3V12.4L35.3 12.8V13.2L35.4 13.5L35.5 13.9L35.6 14.1L35.8 14.8L35.9 15V15.5V15.6L36 15.9L36.2 16.3V16.4L36.5 17.1L36.1 17.6L35.9 17.9L35.6 18.1L35.1 18.7L34.7 19.2L34.1 19.9L33.9 20L33.6 20.1L33.3 20.3L33 20.5L32.8 20.6L32.5 20.7L32.3 20.8L32 21L31.8 21.1L31.5 21.3L31.3 21.4L30.9 21.6L30.6 21.7L30.5 21.8L30.3 21.9L30.1 22L29.9 22.1L29.7 22.2L29.5 22.3L29.3 22.5L28.9 22.6L28.8 22.7L28.5 22.9L28.2 23L28 23.1L27.9 23.2H27.8V23.3H27.7L27.5 23.4L27.4 23.5L27.2 23.6L27 23.7L26.3 24.3V24.4L26.1 24.7L26 25.1L25.8 25.3V25.5L25.7 25.6V25.7L25.6 25.9L25.5 26.1L25.4 26.2V26.3L25.2 26.6L25 26.8L24.9 26.9L24.7 27.2L24.5 27.5L24.3 27.7L24.2 27.9L24 28L23.8 28.1L23.7 28.2H23.5L23.2 28.4L22.9 28.6L22.7 28.8H22.6L22.3 28.9L22.1 29.1L21.9 29.2L21.4 29.6L21.3 29.7V30.1L21.2 30.2L21.1 30.3L21 30.4L20.6 30.7L20.3 31H20.2L20 30.9H19.9H19.8L19.7 30.8V30.7H19.6L19.4 30.6L19.3 30.5L17.5 30.8L16.1 29.6H15.8H15.6H15.4L15.2 29.7H15.1L14.9 29.8L14.7 29.9H14.6L14.4 30L14.3 29.9V29.8L14.2 29.7V29.6L14.4 28.7L14.8 28.3H14.9L15 28.2L14.6 27.8L12.6 27L11.4 26.8L7.8 25.8L6.6 25.7L1.8 27H1.7L1.6 27.1L1.3 27.2L1.1 27.4L0.599998 27.9L0.5 28L0.800003 28.2H0.900002L1 28.3H1.1V28.4V28.5H1.2V28.6L1.3 28.7H1.4H1.5V28.8V29H1.6V29.1H1.5V29.2V29.3V29.4H1.6V29.5L1.7 29.6V29.7H1.8V29.8V29.9V30H1.9H2V29.9H2.1H2.2L2.4 30L2.5 30.1L2.7 30.2L2.8 30.3H2.9L3 30.4H3.1H3.2V30.5V30.6H3.3V30.7H3.4V30.9L3.5 31V31.1V31.2V31.3L3.4 31.6L3.3 32H3.2H3.1H3L2.9 32.1L2.8 32.2V32.3L2.7 32.4L2.6 32.6H2.5V32.7L2.4 32.8H2.3L2.1 32.9V33.2V33.4V33.5V33.6L2.3 33.7L2.4 33.9L2.5 34L2.6 34.2L2.8 34.3L2.9 34.4L3 34.5V34.6L3.1 34.7V34.8V34.9L3.3 35.1L3.4 35.3L3.6 35.5L3.7 35.6L3.8 35.8L3.9 35.9V36.1V36.3L4 36.5V36.6L4.1 36.8V36.9V37V37.1L4 37.2V37.3V37.4H3.9V37.5L3.8 37.6H3.6H3.5V37.5H3.4H3.3H3.2H3.1L3 37.4H2.9H2.8H2.7L2.4 37.3H2.3H2.2H2.1L1.9 37.2H1.7H1.6H1.5L1.4 37.1L1.3 37V36.9H1.2L1.1 36.8V36.9V37V37.1V37.2V37.3H1.2V37.4H1.3H1.4H1.5V37.5V37.6H1.4H1.3V37.7H1.2L1.3 37.8H1.4V37.9H1.5H1.6V38H1.7V38.1L1.8 38.2H1.9H2H2.1V38.3V38.4L2.7 38.6H2.8H2.9H3V38.5V38.4V38.3H3.1H3.2V38.2L3.3 38.3L3.4 38.4V38.5H3.5L3.4 38.6L3.5 38.7H3.6V38.8H3.7H3.8V38.9V39V39.1L3.9 39.2V39.3H3.8V39.4L3.9 39.5M103.6 10.8V10.7M103.6 10.8V10.9V11V11.1H103.7V11.2L103.6 11.3V11.4V11.5M103.6 11.5H103.5M103.6 11.5H103.7V11.6H103.6V11.7V11.8H103.5V11.7H103.4H103.3V11.8V11.9H103.2H103.1H103V12H102.9V12.1V12.2V12.3H103V12.4V12.5H102.9M102.9 12.5V12.6M102.9 12.5H102.8H102.7V12.6H102.8V12.7H102.7V12.8L103.5 13.5V13.6L103.6 14H103.7H103.9L104.1 14.3V14.5L103.9 14.6L103.8 15.1L103.7 15.4V15.8H103.6H103.8V15.9H103.9V16H104H104.1H104.2V15.9L104.4 15.6L104.6 15.5V15.4H104.7L104.8 15.7L104.9 16L105 16.1L105.1 16.3L105.2 16.5L105.3 16.7H105.2L105 17.3L104.9 17.6V17.8V17.9V18H104.8L104.7 18.1V18.2H104.6V18.3V18.4L104.5 18.5L104.4 18.6V18.7H104.3V18.8M104.3 18.8H104.2M104.3 18.8V18.9L104.4 19V19.2L104.5 19.3V19.5V19.6H104.4L104.3 19.8L104.1 20L103.8 20.3L103.7 20.4V20.5L103.6 20.6L103.7 20.7V20.8V20.9V21V21.1V21.2M103.7 21.2H103.6M103.7 21.2V21.3V21.4V21.5H103.6V21.6V21.7V21.8H103.5V21.9H103.4V22H103.3H103.2V22.1H103.1H103V22.2V22.3V22.4H103.1V22.5V22.6V22.7H103.2V22.8H103.1V22.9L103 23V23.1V23.2H102.9V23.3V23.4H102.8H102.7H102.6V23.5H102.5H102.4V23.6V23.7H102.5V23.8V23.9V24V24.1L102.3 24.4V24.5H102.2V24.6H102.1V24.7V24.8V24.9V25L102 25.1V25.2H101.9V25.3L101.8 25.5L101.7 25.6V25.7L101.6 26L101 25.9L100.6 25.8L100.5 26L100.2 26.8L100.1 27L100 27.4L99.5 27.2V26.7L97.8 26.8V27.7L97.7 28.2L98.3 28L98.2 27.8L98.9 27.4L99 28L99.2 28.6L99.3 29.1L99.7 29L100.2 28.9L100.3 29.3V29.8L100.4 29.9H100.5L100.8 30.2L101.2 30.8H101.3L101.2 31L101.1 31.5L101 32.1L100.9 32.4L100.8 32.5H100.7H100.6H100.5H100.4V32.6H100.3L100.1 32.8L99.9 33L99.8 33.1L99.4 34.3L99.6 34.4L99.9 34.5L100.2 34.7L100.3 34.8L100.6 34.9L100.8 35.1H100.9L101 35.2V35.4V35.5L100.9 35.6V35.7H100.7L100.3 35.9L98.7 36.4L98.9 37.4L100.2 37.2L100.9 37.1L101.7 36.9L101.3 38H101.6H101.7H102.1H102.3L102.1 38.9L102 39.3H102.2L102.8 39.2H103L103.1 39.1H103.2V39.2L103.3 39.9L103.5 42L103 42.5L103.1 42.9L103.3 43.4L103.4 44.1L103.5 44.2L103.9 44.1L104.1 44.6L104.6 44.4L105.2 44.7L105.6 45.2V45.9L105.7 46.1V46.3L106.3 46.1L106.4 46.3V46.5V46.6L106.3 46.7H106.2L106.4 46.9H106.3H106.2L106 47L106.2 47.5L106.4 47.4V47.2L106.8 47V47.1H106.9H107H107.1V47.2H107.2H107.4V46.8L107.1 46.5L107.3 46.2L107.4 46.1L107.5 45.9L107.4 45.6H108.8H109.2L109.1 46.1L109 46.6V46.7V47.1L109.2 47.2L110.3 47.7L110.7 47.3L111.2 47.5H111.3L111.6 47.6L112 47.3L112.5 46.9L112.8 46.6L112.9 46.7V46.8L113 46.9L113.1 47.1L113.2 47.3L113.3 47.4L113.4 47.5V47.6H113.3V47.7V47.8H113.2V47.7H113.1M113.1 47.7V47.6M113.1 47.7H113M113.1 47.7V47.8H113V47.9L112.9 47.8L112.8 47.9H112.7V48V48.1V48.2V48.3H112.6V48.4H112.7V48.5H112.8H112.9H113V48.6V48.7H112.9V48.8L112.8 49L112.7 49.1L112.8 49.2L112.6 49.6V49.7H112.5V49.6H112.4V49.7V49.8V49.9H112.3V50V50.1H112.4V50.2L112.7 50.3L112.8 50.9H112.9H113V51H113.1V50.9H113.2V51H113.3V51.1H113.2V51.2L113.3 51.3H113.4V51.2H113.5V51.3V51.4V51.5L113.4 51.7V51.8V51.9L113.6 52L113.7 52.1L113.8 52.2L114 52.1V52H114.1H114.2V52.1M114.2 52.1H114.1V52.2H114.2V52.1ZM114.2 52.1H114.3V52.2H114.4H114.5V52.3H114.4V52.4H114.5H114.6V52.3V52.2H114.7V52.3V52.4H114.8H114.9V52.5L115 52.4V52.5H115.1V52.6H115.2V52.7V52.8L115.1 52.9L115 53.2V53.3H115.4H115.5L115.6 53.2H115.7V53.3H115.6V53.4H115.7V53.5H115.6H115.5V53.6H115.6H115.7L115.6 53.7V53.8H115.7L115.9 53.6H116.1H116.2V53.7V53.9L116.1 54V54.1L116 54.3H116.1L116.2 54.4L116.3 54.2H116.4V54.3L116.5 54.4L116.6 54.5V54.6H116.7M116.7 54.6V54.5M116.7 54.6H116.8H116.9H117H117.1V54.7V54.8H117.2M117.2 54.8V54.7H117.3V54.8M117.2 54.8H117.3M117.2 54.8V54.9V55H117.3V55.1H117.4V55.2V55.3H117.5H117.6V55.4H117.7M117.3 54.8V54.9M117.7 55.4V55.3M117.7 55.4H117.8V55.5H117.9V55.6H118M118 55.6V55.5H118.1V55.4H118.2V55.5L118.1 55.6H118ZM118 55.6V55.7H117.9L118 55.8H118.1V55.9M118.1 55.9H118.2M118.1 55.9V56L118 55.9H117.9L117.8 56V56.1H117.9V56H118V56.1H118.1V56.2V56.3H118H117.9V56.4H118V56.5H118.1H118.2V56.6H118.1V56.7H118H117.9M117.9 56.7V56.6H117.8L117.9 56.7ZM117.9 56.7V56.8V56.9V57H118V57.1V57.2H118.1V57.1L118.2 57V57.1V57.2L118.3 57.3V57.4L118.4 57.5V57.6H118.5H118.6H118.7V57.7V57.8V57.9H118.6V58V58.1M118.6 58.1H118.5M118.6 58.1V58.2H118.7L118.6 58.3L118.5 58.4H118.6V58.5V58.6H118.5V58.7V58.8H118.6V58.9V59V59.1H118.7L118.9 59.2H119H119.3L119.9 59.3H120L120.5 59.4L121 59.5H121.1L121.3 59.7L121.6 60L121.8 60.3L122 60.5L122.2 60.7L122.5 61L122.7 61.2L122.9 61.4L123.2 61.7L123.3 61.8L123.5 62.1L123.8 62.4L124 62.6L124.2 62.9H124.3V63V63.1L124.4 63.2H124.5V63.3L124.6 63.4L124.7 63.5V63.6L124.6 63.7H124.5H124.4V63.8V63.9H124.3H124.2V64H124.3V64.1V64.2V64.3H124.4V64.4V64.5L124.5 64.6L124.6 64.7V64.8V64.9H124.7L124.8 65L124.9 65.1V65.3L124.8 65.4V65.5V65.6L124.7 65.8V65.9L124.6 66L124.4 66.2L124.3 66.3L123.9 66.4H123.7H123.6L123.5 66.6H123.4L123.3 66.7H123.2L123.1 66.8H123H122.9L122.8 66.9L122.7 67H122.6L122.5 67.1L122.2 67.2L121.9 67.3L121.8 67.1V67V66.9L121.7 66.5L121.3 66.6H121.2H121V67.4V67.9H120.8H120.3H120.2L119.9 67.7H119.8H119.6H119.4H119.3L118.7 68V68.1L118.5 68.2H118.4L118.2 68.6V68.7V68.8H118.3L118.4 68.9L118.5 69.1L118.6 69.2L118.7 69.3L118.8 69.4V69.5V70L118.7 70.1V70.2H118.6H118.5V70.3V70.4H118.6V70.5V70.6V70.7V70.8L118.5 71L118.4 70.9V71L118.5 71.1H118.6H118.7L119 71.2L119.3 71.3H119.5L119.6 71.4H119.7H119.9L120 71.5H120.1H120.2L120.3 71.6H120.4L120.5 71.5H120.6H120.7H120.8H120.9H121H121.1H121.2L121.4 71.4L121.6 71.3L121.9 71.2L122.2 71.1L122.4 71.3L123 71.7L123.5 72L123.9 72.3L124.4 72.6L125 73.1L125.6 73.5L125.9 73.7L126 74.1V74.3L126.1 74.4V74.6V74.7L126.2 74.9L126.3 75.7L126.5 76.2L126.6 76.7V77L126.7 77.1V77.4H126.4H126.2H125.8L125.6 77.6V77.8H125.5L125.4 78.1L125.3 78.5V78.6L125.4 79.2V79.3L125.5 79.5V79.9V80L125.4 80.1H125.3H125.2H125.1L125 80H124.8L124.7 80.1H124.6L124.5 80.2H124.4L124.3 80.1H124.2H124.1H124V80H123.9H123.8H123.7V80.1H123.6H123.5L123.4 80.2H123.3H123.2V80.3H123.1H123V80.4H122.9H122.8V80.5H122.7H122.6L122.5 80.6H122.4V80.7H122.3H122.1H122H121.8H121.6L121.5 80.6H121.4H121.3L121.2 80.7H121.1H121V80.8L120.9 80.9H120.8H120.7H120.6H120.5H120.4L120.3 81H120.2L119.7 81.2H119.6L119.9 81.5L121.1 82.7L121.2 82.8L121.4 83L121.3 84.1L121.2 84.8L121.1 86.2L121 87V87.6L120.9 88.1V88.5L121.3 88.8H121.4L121.6 88.7V88.6L121.7 88.5H121.8H122L122.1 88.6V88.7L122.2 88.8L122.3 88.9L122.4 89L122.6 89.1L122.8 89.4H122.9L123 89.5L122.9 89.6L123.2 89.7V89.8V89.9V90V90.1V90.2V90.3V90.4H123.3V90.5H123.2H123.1H122.9V90.6L122.8 90.5V90.6V90.7L122.7 90.8V90.9H122.8V91.1L122.7 91V91.1L122.6 91.2V91.4V91.5V91.7V91.8V91.9L122.5 92L122.4 92.1L122.3 92H122.2H122.1L122 91.9H121.9V92L121.8 91.9H121.7V92H121.6V92.1H121.5L121.3 92.2H121.1L121 92.1L120.9 92H121L120.9 91.9H120.8H120.7H120.6M120.6 91.9V92M120.6 91.9H120.5V92H120.4H120.3V92.1H120.2H120.1V92H120V91.9V91.8H119.9V91.7H119.8H119.7H119.6H119.5H119.4V91.8H119.3V91.9H119.2V91.8H119.1V91.7V91.6V91.5L119 91.4H118.9V91.5H118.8V91.6H118.7V91.7L118.6 91.6H118.5H118.4V91.5H118.5L118.4 91.4H118.3H118.2H118.1H118V91.3H117.9V91.4H117.8H117.7V91.3H117.6H117.5V91.2H117.4V91.3H117.3V91.4H117.2H117.1M117.1 91.4V91.5M117.1 91.4H117H116.9V91.3V91.2H116.8H116.7V91.3H116.6V91.4V91.8L116.7 92.2V92.5L116.4 92.7L116.2 92.9L115.9 93.5V93.6L115.8 93.7V93.8V93.9V94.2V94.3V94.5L115.7 94.8H115.6V94.9V95.1V95.2V95.3V95.5V95.8V96V96.3V96.6V96.7L115.5 96.8V96.9V97H115.4V97.1L115.3 97.3V97.4H115.2L115.1 97.5L114.9 98.2V98.3V98.4V98.5V98.6V98.7H114.8L114.9 98.8V98.9V99V99.1V99.2L115 99.4V99.6V99.7L115.1 99.8V100V100.1L115 100.2V100.4H115.1V100.5L115.2 100.6L115.1 100.7V100.9V101H115.2V101.1V101.2H115.1V101.3V101.4H115V101.6V101.7H114.9V101.8V101.9H114.8V102V102.1V102.2V102.3V102.4V102.5V102.6V102.7H114.7V102.8H114.6V102.9L114.5 103L114.4 103.1V103.2H114.3L114.2 103.3L114.1 103.5L114 103.6H113.9V103.7V103.8L113.8 103.9V104V104.1V104.2L113.7 104.3L113.5 104.6L113.4 104.8L113.3 104.9L113.2 105L113.1 105.1L113 105.2L112.8 105.4L112.7 105.6L112.6 105.7L112.5 105.8L112.4 106L112.5 106.2V106.4H112.6L112.7 106.5L112.8 106.6V106.7H112.9V106.8L113.1 106.9L113.2 107L113.3 107.1L113.4 107.2L113.3 107.4L113.2 107.5L113 107.8L112.8 108L112.7 108.1H112.6H112.5V108L112.4 107.9V107.8H112.3V107.7H112.2V107.6V107.5H112.1L112.2 107.2V107.1L112.1 107L112 106.8V106.7V106.6H111.9V106.5L111.8 106.4V106.2L111.7 106.1L111.6 106V105.8L111.5 105.6L111.4 105.5V105.4L111.3 105.3L111.2 105.2V105.1L111.1 104.9L111 104.7L110.9 104.5V104.4V104.3L111 104.2H110.5L110.2 103.9L109.9 103.6L109.5 103.7V103.8H109.4H109.3V103.9H109.1H109H108.9L108.8 104H108.7H108.6H108.5L108.4 104.1L108.3 104.2H108.2L108 104.1H107.9H107.8H107.7L107.6 104H107.5H107.4H107.3H107.2H107.1H107H106.8H106.7H106.6V103.9V103.8V103.7V103.6V103.4H106.7H106.8L106.9 103.3H107V103.2H107.1H107.2V103.1H107.3L107.2 103V102.9H107.1H107V102.8L106.9 102.7L106.8 102.6L106.7 102.5V102.4H106.6V102.3H106.5V102.2V102.1V102L106.4 101.9V101.8L106.3 101.7H106.2H106.1L106 101.6V101.5L105.9 101.4H106H106.1V101.3V101.1L106 100.8L105.9 100.1V99.8L105.5 99.9L105.2 100L104.9 100.1H104.7L104.3 100.2L104 100.3L103.6 100.4L103.2 100.5H103.1H103L102.6 100.6H102.5H102.4H102.3L102.2 100.5H102.1H102H101.9H101.8L101.7 100.4H101.6H101.5H101.4H101.3V100.5H101.2H101.1V100.6H101V100.7V100.8L101.1 100.9V101V101.1V101.3V101.4V101.5V101.6V101.7L101.2 101.8V102.1H101.1H101V102H100.9V101.9L100.8 101.8L100.7 101.7H100.6H100.5H100.4H100.3H100.2H100.1V101.8H100V101.9H99.9V102H99.8V102.1H99.7V102.2H99.6V102.3H99.5H99.4L99.3 102.4L99.2 102.2L98.8 102.4L98.6 102.5L98.3 102.6L98.1 102.7L97.9 102.8L97.7 102.9H97.6H97.5H97.4H97.3V103H97.2H97.1H96.9H96.7L96.5 103.1L96.4 103.2L96.2 103.3L96.3 103.4L95.7 103.6L95.5 103.7H95.4L95 103.9H94.9H94.8V103.8V103.7V103.6H94.7V103.5L94.6 103.4V103.3H94.5L94.3 103.5L94.2 103.6L94 103.8L94.3 104.2L94 104.5L93.9 104.7H93.8H93.7H93.6H93.5H93.4L93.3 104.6H93.2L93.1 104.5H93H92.9L92.8 104.6V104.5H92.7V104.4H92.6H92.5H92.4H92.3H92.2H92.1H92H91.9H91.8V104.3H91.7H91.6V104.2H91.5L91.4 104.3V104.2H91.3V104.1H91.2V104H91.1H91V103.9H90.9V103.8V103.7H90.8V103.6V103.5H90.7V103.4H90.6L90.7 103.3H90.6V103.2V103.1H90.5V103V102.9H90.4V102.8H90.3V102.7V102.6L90.1 102.8L90 102.9V103L89.9 103.1H89.8V103.2H89.9H90H90.1V103.3L90.2 103.4L90.3 103.5V103.6H90.4V103.7V103.8V103.9V104V104.1L90.5 104.2V104.3H90.4V104.4H90.5V104.5L90.4 104.6V104.5H90.3V104.6V104.7H90.4V104.8V104.9V105V105.1L90.3 105.2V105.3H90.2L90.1 105.4V105.5H90V105.6H89.9H89.8H89.7H89.6V105.5H89.7V105.4H89.6H89.5V105.5H89.4H89.3H89.2V105.6H89.1V105.7H89V105.8H88.9V105.9V106M88.9 106V106.1M88.9 106H88.8V105.9V105.8H88.7H88.6V105.9V106V106.1H88.7V106.2H88.6V106.3V106.4V106.5H88.7H88.8V106.6H88.9V106.5V106.4H89V106.3H89.1H89.2L89.1 106.4V106.5V106.6H89.2V106.7L89.5 106.9L89.6 107H89.7H89.8H90V107.1L89.9 107.2H90H90.1H90.2L90.3 107.3V107.4M90.3 107.4H90.4M90.3 107.4H90.2V107.5V107.6V107.7V107.8H90.3V107.9H90.2V108V108.1L90.3 108.2L90.4 108.3H90.5V108.4V108.5H90.6H90.7V108.4H90.8H90.9H91V108.5H91.1V108.6H91.2L91.3 108.7V108.8L91.2 108.9H91.1V109H91V109.1H90.9H90.8H90.7M90.7 109.1V109.2H90.6V109.3M90.7 109.1H90.6V109H90.5H90.4H90.3H90.2V108.9V108.8H89.6V108.9H89.5L89.2 109L89.1 108.9H89H88.7H88.6H88.5V108.8V108.7V108.6H88.3H88.1H88L87.9 108.7H87.8H87.7H87.6H87.4L87.3 108.6L87.2 108.3L87.1 108.1L87 108L86.9 107.9L86.8 107.8V107.7L86.7 107.6V107.5L86.6 107.4L86.5 107.3H86.4H86.3H86.2H86.1H86H85.8H85.6V107.8V108.2V108.6V108.7L86 108.9H86.1L86 109V109.1V109.2V109.3V109.4H86.1H86.2V109.5L86.3 109.7V109.9L86.2 110V110.2V110.3V110.5L86 111.2V111.3L86.3 111.2L86.6 111.1L87 111V111.2V111.3V111.6L87.1 112V112.2L87 112.4L86.9 112.8L86.8 113.1H86.7H86.6V113.8V113.9V114H86.5H86.4V114.1H86.3V114.2H86.2V114.3H86.1V114.4V114.5L86 114.6H85.9H85.8H85.6H85.5H85.4L85.3 114.7H85.2H85.1H85L84.9 114.8H84.8H84.7V114.9H84.6V115H84.5H84.4H84.3H84.2H83.9L83.8 115.1V115H83.5H83.4H83.3H83.2L83.3 114.7H83.2L83.1 114.6H83L82.9 114.5H82.8H82.7V114.4H82.5H82.4H82.3H82.2H81.9H81.7H81.4L81.2 114.3H81.1H80.9H80.8H80.7H80.6L80.5 114.2H80.4V114.1V114V113.9V113.8L80.5 113.7V113.6H80.4H80.2H80H79.9L79.8 113.7H79.7H79.5H79.4H79.3H79.2L79 113.8H78.8L78.6 113.9H78.5H78.4L78.2 113.8H78.1H77.9H77.8H77.7H77.6V113.7H77.4V113.6H77.3L77.2 113.5V113.4H77.1V113.8V114V114.1L77 114.2V114.4V114.5H76.9V114.6L76.8 114.7L77 115V115.1V115.2V115.3V115.4H77.1V115.5H77.2L77.3 115.6H77.4L77.5 115.7H77.6L77.7 115.8H77.8L77.9 115.9H78H78.1V116H78.2L78.3 116.2L78.4 116.3L78.5 116.4V116.5H78.6V116.6V116.8L78.7 116.9H78.8V117H78.9V117.1V117.2V117.3V117.4H79V117.5L79.1 117.6L79 117.7V117.8L78.9 118V118.3V118.4V118.7V118.8V119L78.8 119.1L78.7 119.2V119.3V119.4L78.6 119.6V119.8L78.5 119.9V120V120.1V120.2L78.4 120.3L78.3 120.2H78.2V120.1V120H78.1H78L77.9 119.9L77.8 120V120.1V120.2H77.7H77.6L77.5 120.1H77.4H77.3L77.1 120H77L76.8 119.9H76.7H76.6H76.5H76.3H76.2L76.1 120H76V119.9H75.9L75.8 119.8H75.7L75.6 119.7H75.5V119.6H75.4H75.3H75.2H75.1L75.2 119.7L75.3 119.8L75.4 119.9L75.5 120H75.6V120.1H75.7H75.8V120.2H75.9H76H76.1L76.2 120.3L76.5 120.4H76.6L76.7 120.5L76.9 120.6L77 120.7H77.1H77.2V120.8H77.3H77.4H77.5H77.6H77.7H77.8L77.9 120.7V120.8V120.9V121V121.1V121.2V121.3L77.8 121.4H78H78.4L78.5 121.8V121.9V122H78.4V122.1L78.3 122.2V122.3H78.2V122.4M78.2 122.4V122.5M78.2 122.4L78.1 122.3H78V122.4V122.5V122.6H77.9H77.8V122.7V122.8V122.9M77.8 122.9H77.7M77.8 122.9V123H77.9V123.1V123.2V123.3V123.4H78V123.3H78.1M78.1 123.3V123.4M78.1 123.3H78.2V123.4H78.3V123.3H78.4V123.4H78.5H78.6V123.3H78.7H78.8H78.9L78.8 123.4H78.9V123.5H78.8V123.6H78.9V123.7H78.8V123.8H78.9V123.9H79V124L79.1 124.1H79.2H79.3V124.2H79.4L79.3 124.3V124.4H79.4V124.5H79.3V124.6H79.4V124.7V124.8H79.5V124.9V125M79.5 125H79.4M79.5 125V125.1V125.2V125.3V125.4H79.6V125.5H79.5H79.4V125.6V125.7V125.8V125.9H79.5V126H79.6V126.1H79.7V126H79.8V126.1V126.2L79.9 126.1V126H80V125.9H80.1H80.2H80.3H80.4H80.5L80.6 126H80.7V126.1H80.8H80.9V126.2H81L81.1 126.3V126.4V126.5V126.6M81.1 126.6V126.7M81.1 126.6H81.2M81.2 126.6V126.7M81.2 126.6H81.3V126.7H81.2M81.2 126.7V126.8H81.3V126.9H81.2V127V127.1H81.3L81.4 127H81.5V127.1H81.4L81.3 127.2H81.4V127.3V127.4V127.5V127.6V127.7H81.3M81.3 127.7V127.6H81.2V127.7H81.3ZM81.3 127.7V127.8H81.2V127.9L81.1 128V128.1M81.1 128.1H81.2M81.1 128.1V128.2H81.2V128.1M81.1 128.1H81V128.2V128.3H80.9V128.4M81.2 128.1H81.3M80.9 128.4V128.5M80.9 128.4H80.8H80.7V128.5H80.6V128.4H80.5H80.4V128.5H80.3V128.4M80.3 128.4V128.3M80.3 128.4H80.2M80.2 128.4V128.5M80.2 128.4H80.1V128.5V128.6H80H79.9V128.5V128.4L80 128.3H79.9V128.2H79.8V128.1V128H79.7V127.9H79.6V127.8V127.7V127.6V127.5V127.4H79.5H79.4V127.3V127.2H79.3H79.2H79.1H79L79.1 127.3V127.4V127.5H79H78.9L79 127.6V127.7H78.9H78.8V127.8H78.7H78.6V127.9H78.5H78.4L78.3 127.8V127.9H78.2H78.1V128H78L78.3 128.3L78.2 128.5L78.1 128.6L78.2 128.7L78.3 128.8V128.9L78.4 129.1L78.5 129.3V129.4L78.4 129.6L78.2 129.9V130H78.3L78.4 130.1H78.5L78.6 130.2H78.7V130.3L78.8 130.4L79 130.6L79.2 130.9L79.3 131H79.2L79.1 131.1L78.9 131.2L78.6 131.4L78.3 131.5L78.2 131.6L78 131.7L77.4 132L77.5 132.2V132.4V132.5L77.4 132.6H77.3H77H76.8L76.6 132.5H76.4V133.1L76.3 133V133.5L75.9 133.4L76 133.6V133.9H76.3H76.5L76.6 134.5L76.1 134.3L75.9 134.2H75.8H75.6L75.2 134.1H74.9L74.8 134H74.6L74.5 133.9L74.3 133.7L74.2 133.6H74.1L74 133.5H73.9H73.8L73.7 133.4M73.7 133.4H73.6M73.7 133.4V133.3M73.7 133.3H73.6M73.7 133.3V133.2H73.6V133.1H73.5V133H73.6V132.9V132.8V132.7M73.6 132.7H73.7M73.6 132.7V132.6H73.7V132.5M73.7 132.5H73.6M73.7 132.5V132.4H73.6M73.6 132.4H73.5M73.6 132.4V132.3V132.2V132.1H73.7V132V131.9H73.8V131.8H73.7V131.7H73.8V131.6M73.8 131.6H73.7M73.8 131.6H73.9V131.5L73.8 131.4H73.9V131.3V131.2V131.1V131M73.9 131H73.8M73.9 131V130.9H73.8V130.8H73.7L73.6 130.7V130.6H73.7V130.5V130.4V130.3H73.8H73.9V130.2H73.8V130.1H73.7H73.6H73.4H73.2H73.1H73V130H72.9L72.8 129.9H72.7H72.6H72.5H72.4H72.3H72.2H72.1V130H72L71.9 130.1H71.8L71.7 130.2L71.6 130.1L71.5 129.9L71.4 129.8L71.3 129.7L71.2 129.6L71.1 129.5L70.9 129.3L70.7 129.1L70.6 129L70.5 128.9H70.4L70.3 128.8V128.7L70.2 128.6L70 128.4L69.8 128.3V128.2H69.7V128.1H69.6V128H69.5V127.9L69.3 127.8L69.1 127.6L69 127.4L68.9 127.3L68.8 127.2L68.7 127.1L68.6 127H68.5V126.9H68.4V126.8L68.3 126.7V126.6H68.2V126.5H68.1L68 126.4H67.9L67.8 126.7V126.8L67.7 126.9V127H67.6L67.5 127.1L67.3 127.3L67.5 127.6L67.6 127.7L67.7 127.8L67.8 128.2V128.4V128.5V128.6V128.7V128.9V129.1V129.2L67.7 129.5V129.7V129.9L67.5 129.8H67.2H67.1H67V129.9H66.9H66.8V129.8H66.7H66.6H66.5H66.4V129.9H66.3H66.2H66.1H66H65.8L65.6 129.8H65.4H65.3L65.2 129.9H65.1V129.6L65.2 129.3V129.1V128.8H65.1H64.4H64.2H64.1L64 129L63.9 129.1V129.2H63.8V129.4V129.6V129.5H63.7L63.6 129.4H63.5H63.4H63.3H63.1L63 129.5H62.9H62.6L62.4 129.6H62.2H62.1H61.9H61.7L61.5 129.7H61.4H61.3H61.2V129.8H61.1H60.9H60.8H60.7H60.6V129.9H60.5H60.4L60.3 129.8H60.2L60.1 129.9V130V130.1H60L59.6 130.5L59 130.4H58.6H58.4L58.1 130.3H57.5L57.3 130.2H57L56.5 130.1H56.4L56.5 130V129.7V129.4V129.1L56.6 129L56.5 128.9L56.6 128.6L56.7 128.3V128.2L56.8 128.1V128V127.8V127.7V127.6L56.7 127.5L56.6 127.4L56.5 127.2L56.3 127.1L56.2 127L56.1 126.9V126.8L55.8 126.7L55.7 126.6L55.5 126.5L55.4 126.4H55.3V126.3L55 126.1L54.8 126L54.6 125.8L54.5 125.7H54.4H54.3V125.6H54.2H54.1H54V125.5H53.9L53.8 125.6V125.5H53.6H53.5L53.4 125.4V125.3H53.3V125.2L53.4 125V124.9V124.8H53.3V124.7H53.2H53.1L53 124.8H52.9L52.8 124.9H52.7H52.6H52.5H52.4H52.3H52.2H52.1H52H51.9H51.8V124.8H51.7H51.6H51.5H51.4H51.3L51.2 124.7H51.1L51 124.6H50.9H50.8H50.7L50.6 124.5H50.5V124.3V124.1V124L50.6 123.5V123.2V123V122.9V122.8V122.7V122.6V122.5V122.4V122.1V121.9V121.8V121.6V121.4V121.3V121.2L50.7 121.1H50.6H50.5H50.4H50.3V121H50.2V120.9V120.8H50.1V120.7L50.6 120.3V119.8V119.6V119.4V119.3H50.5L50.4 119.2H50.3V119.1V119V118.9H50.2V118.8L50.3 118.6H50.2V118.5L50.1 118.2M50.1 118.2L50.2 118.1H50.3L50.4 118H50.5V117.9V117.8H50.4H50.3V117.7H50.2H50.1L50 117.6V117.7V117.8L50.1 117.9V118V118.1V118.2ZM50.1 118.2H50L49.9 118.3H49.8V118.4H49.7H49.6H49.5H49.4H49.3V118.5H49.2H49.1H49H48.9H48.8V118.2H48.4V118.1V117.5V117.4V117.2L48.5 117.1V117H48.6V116.9V116.8V116.7H48.5V116.6L48.4 116.4V116.3V116.2H48.3V116.1H48.2V116V115.9L48.1 115.8V115.7V115.6V115.5V115.4V115.2V115.1V115L48 114.9V114.8H47.9V114.7L47.8 114.6L47.7 114.5V114.4L47.6 114.3V114.2L47.5 114.1V114V113.9H47.4L47.3 113.8L47.2 113.7L47.1 113.6H47L46.9 113.5L46.5 113.2H46.4H46.3H46.1H46H45.9L45.7 113.3L45.6 113.4V113.5L45.1 113.6H45L44.9 113.7L44.8 113.8H44.7V113.9H44.6L44.5 114V114.1H44.4L44.3 114.2L44.1 114.3H44V114.4H43.9H43.8H43.7L43.6 114.5L43.5 114.4H43.4H43.3L43.2 114.5H43.1V114.4H43L42.9 114.3H42.8L42.7 114.2L42.6 114.1H42.5L42.4 114H42.3V113.9H42.2V113.8H42.1L42 113.7V113.6H41.9V113.5H41.8L41.7 113.4H41.6V113.3H41.5V113.2L41.4 113.1V113H41.3H41.2V112.9H41.1H41H40.9V112.8V112.7L40.8 112.6V112.5V112.4L40.7 112.2V112.1L40.8 112L40.7 111.9L40.6 111.8H40.5V111.7L40.7 111.5H40.8L40.9 111.4L41.1 111.2V111.1V111H41.2V110.9L41.3 110.8L41.2 110.7H41.1V110.6H40.9L40.8 110.5H40.7L40.6 110.4L40.5 110.3V110.2L40.4 110.1V110V109.9L40.3 109.8L40.2 109.7L40 109.5L39.9 109.3V109.2L39.6 109V109.1L39.5 109.2L39.4 109.3L39.3 109.4L39.2 109.5V109.6H39L38.8 109.8H38.7V109.9V110H38.6V109.9H38.5H38.4L38.3 109.8H38.2H38.1H38H37.9H37.8H37.5H37.4H37.3H37.2L37 109.7H36.8L36.7 109.8H36.8V109.9L36.9 110.3L36.7 110.7V110.8L36.6 111L36.5 111.1V111.2V111.3V111.4V111.5V111.6V111.7V111.8H36.4V111.9H36.3H36.2M36.2 111.9V112M36.2 111.9H36.1V111.8H36H35.9L35.7 111.7H35.6H35.5H35.4L35.3 111.8H35.2L35.1 111.7H35L34.9 111.6H34.8H34.7H34.6L34.5 111.5H34.4H34.3V111.4H34.2H34.1L34 111.3H33.9L33.8 111.2H33.7L33.6 111.3H33.5H33.4H33.3V111.2H33.2H33.1H33H32.9H32.8H32.7L32.6 111.1H32.5H32.4V111H32.3V110.9H32.2V111H32.1H32V110.9V110.8H31.9V110.7H31.8L31.7 110.6H31.6V110.5V110.4H31.7H31.8V110.3H31.7H31.6V110.2H31.5H31.4V110.3V110.4H31.3H31.2H31.1V110.3V110.2V110.1H31.2V110V109.9H31.1H31V109.8H31.1V109.7H31V109.6V109.5H30.9M30.9 109.5V109.6H30.8V109.5H30.9ZM30.9 109.5V109.4H30.8H30.7V109.3V109.2H30.8V109.1H30.7H30.6H30.5V109H30.6H30.7V108.9V108.8V108.7H30.6V108.6H30.5H30.4V108.7H30.3V108.6L30.2 108.5V108.4H30.1V108.3H30V108.4V108.5L29.9 108.6V108.5H29.8V108.4V108.3V108.2H29.7V108.3V108.4H29.6V108.3H29.5V108.2H29.4H29.3M29.3 108.2V108.3V108.4H29.2V108.3V108.2M29.3 108.2H29.2M29.3 108.2V108.1V108H29.2V107.9H29.3V107.8H29.2M29.2 108.2V108.1M29.2 107.8L29 107.9V107.8L29.1 107.7H29.2M29.2 107.8V107.7M29.2 107.7L29.1 107.6H29V107.5H29.1V107.4H29V107.3M29 107.3H28.9H28.8H28.7V107.2H28.8H28.9L29 107.3ZM29 107.3H29.1L29.2 107.2V107.1H29.1V107V106.9H29V107H28.9V106.9V106.8H28.8V106.7H28.7H28.6V106.6H28.5V106.5V106.4V106.3H28.4V106.4V106.5V106.6L28.3 106.5V106.4V106.3H28.2H28.1M28.1 106.3V106.2M28.1 106.3H28V106.2V106.1V106V105.9L27.9 106H27.8V106.1V106.2V106.3H27.7H27.6V106.2H27.5V106.1V106H27.4V106.1V106.2V106.3H27.3V106.2V106.1H27.2H27.1H27V106V105.9H26.9V105.8H26.8H26.7V105.9L26.6 106H26.5V105.9H26.4H26.3V106V106.1H26.4H26.5V106.2H26.6V106.3H26.5H26.4H26.3L26.2 106.4H26.3V106.5H26.2L26.1 106.6V106.7H26V106.8H25.9V106.9H25.8V107H25.7L24.9 105V104.8L24.7 104.5L24.6 104.2V104L24.5 103.9V103.7L24.2 102.5L24.5 100.7L24.2 100.6L23.2 100.4L23.1 100.3H23L22.9 100.2L21.8 99.5L21.4 98.9V98.8L21.3 98.7L21.1 98.3L21.2 98L21.4 97.7V97.6L21.6 97.1L21.7 97V96.9V96.4H21.5L20.3 96.2L19.1 95.7L18.7 95.1L18.4 94.7V94.3V94.1L18.3 93.1L18.9 91.8L19.5 91.3L20.1 90.9L21.5 90.7L22.8 91.5L23.8 91H24.3H24.4H24.6H25.5L27 90.7L27.7 89.3L27.6 89.2L27.1 88.4L27 88.3L26.6 88.1V88L26.1 87.8L26 87.7L25.3 87.3L23.7 86.4L23.1 86.1L22.8 85.9L19.4 82.8L18.6 81.5L18.4 80.5L18.3 79.8L18.2 79.1L17.6 78.2L17 77.8L16.4 77.6L16 77.2L16.2 76.6V76.1L15.6 72.8L15.2 71.7L13.8 69.6L13.4 68.8V68.7L13.2 68.3L13.1 68L13.3 67.4V67.3L13.8 67L14.1 66.9L13.8 66.3L13.6 65.9L13 65.3L12.8 65.1L12.6 64.9L12.5 64.8L12.4 64.7L11.2 63.4L11 63.3L10 62.7L9.39999 62.3L8.6 61.8L7.7 60.7L7.5 60.4L7.3 60.1L6.7 58.9L6.6 58.6L4.9 54.8L4.7 54.3L3.8 53.7H2.9H2.8L2 53.3L1.7 51.6L2 50.5L2.7 49.3L3.5 48.4L3.6 48.3L3.8 48.2L4.2 48.1L4.5 48L4.4 47.9V47.8L4.3 47.4V47.3L4.2 46.9V46.3V46.1L4.3 45.9L4.4 45.8L4.5 45.7L4.6 45.5L5.2 45.2L4.8 44.3L3.2 42L2.8 41.3L2.7 41.2V41.1L2.6 40.8H2.7H2.8H2.9H3V40.7H3.1L3.2 40.6V40.5V40.4H3.3V40.3H3.4L3.5 40.2H3.6V40.1V40V39.9V39.8H3.7H3.8V39.9H3.9H4H4.1V39.8V39.7L4 39.6H3.9V39.5M28.1 106.2H28.2V106.1M28.1 106.2V106.1H28.2M28.2 106.1H28.3V106H28.2V106.1ZM3.9 39.5H3.8" stroke="white" stroke-width="0.5" stroke-linecap="round" stroke-linejoin="round"/>
</g>
</svg>
