<svg width="118" height="174" viewBox="0 0 118 174" fill="none" xmlns="http://www.w3.org/2000/svg">
<g id="UA09">
<path d="M62.8 169.7V169.6V169.5L62.7 169.3L62.6 169.1L62.5 168.4L62.4 168V167.8V167.7V167.6L62.6 167L62.7 166.8L62.9 166.5V166.3L63.1 165.9L63.4 164.9L63.6 164.6V164.5V164.4H63.5H63.4H63.3V164.3V164.2H63.2H63.1V164.1V164H63V163.9H63.1V163.8H63H62.9V163.7V163.6L62.8 163.5V163.4H62.7V163.5H62.6V163.6V163.7H62.5L62.4 163.6H62.3V163.7V163.8H62.2H62.1V163.9H62H61.9V163.8L61.8 163.7H61.7L61.6 163.6L61.7 163.4H61.8L61.7 163.3H61.6V163.4H61.5H61.4V163.3V163.2H61.3H61.2V163.1H61.1V163.2H61V163.1V163V162.9V162.8V162.7L61.1 162.6V162.5V162.4V162.3L61.2 162V161.6L61.3 160.9L61.2 160.5V160.2V160.1L61.1 160V159.9V159.8V159.5V159.4H61H60.9H60.8H60.6H60.5L60.3 159.3H59.9H59.7H59.3L58.9 159.2H58.7H58.4H58.1L57.8 159.1H57.6H56.6H56.5H56.4H56.3H56.2V159H55.9H55.8H55.6H55.5H55.4H55.2H55.1L55 158.9H54.8H54.5H54.4H54.3H54.2H54L52.9 158.8H52.2H51.9L51.6 158.7H51.3H51.1H51V158.8L50.9 158.9L50.8 158.8L50.6 158.6V158.5H50.5V158.4V158.3V158.2L50.4 158.1L50.2 157.6L50 157.2H50.1V157.1L50.2 157L50.1 156.7V156.6L49.9 156.7L49.8 156.5L49.7 156.4V156.3H49.6L49.7 156.1H49.8H49.9L50 156L50.3 155.3L50.4 155.2L50.5 155.1H50.4L50.2 154.9L50.4 154.4V154.3V154.2V154.1V154L50.3 154.1V154.2L50.2 154.3V154.4H50.1V154.5V154.6L50 154.7V154.8L49.9 154.9V155H49.8L49.7 154.9V154.8H49.6H49.5L49.4 154.7H49.3L49.2 154.6H49.1L49 154.5L48.9 154.3L49 154.2L49.1 154.1L49.2 154H49.3H49.4L49.5 153.9L49.6 153.8L49.7 153.7L49.8 153.5L49.7 153.4H49.6V153.3L49.3 153.2L49.4 153V152.9V152.8H49.5V152.7V152.6V152.5L49.6 152.3V152.2L49.7 151.8L49.8 151.7V151.6V151.5L49.9 151.3V151.2V151.1H49.8H49.6H49.5V151V150.9H49.4H49.3V151H49.2V150.9H49.1V151H49H48.9V150.9L48.8 150.8V150.7H48.7H48.6L48.5 150.6V150.5H48.4H48.3H48.2H48.1H48V150.4V150.3V150.2V150.1L47.9 150V150.1H47.8V150.2H47.7V150.3H47.6H47.5V150.2V150.1H47.4H47.3V150V149.9H47.2H47.1H47H46.9V150H46.8L46.7 149.9H46.6H46.5V149.8H46.4H46.3V149.7H46.2H46.1H46V149.8H45.9V149.7L45.8 149.8V149.7H45.7H45.6V149.6H45.5H45.4V149.5H45.3H45.2H45.1H45V149.4H44.9L44.8 149.3L44.5 149.2H44.3L44.2 149.1H44L43.9 149H43.8H43.7V148.9H43.6H43.4L43.6 147.9H43.5L43.4 147.8H43.3H43.2L43.1 147.9H42.9H42.8H42.7H42.6H42.5H42.4V147.8V147.7V147.6H42.5V147.5H42.4H42.3H42H41.6H41.4H41.2H41L40.9 147.6L40.8 147.7H40.7L40.6 147.6H40.5L40.2 147.4L40 147.3H39.9L39.8 147.2H39.7V147.1H39.6H39.5H39.4L39.3 147L39.2 146.9H39.1H39V146.8V146.7V146.6H38.9V146.5H38.8V146.4V146.3H38.7V146.2H38.8V146.1H38.9V146V145.9L39 145.8H39.1V145.7V145.6H39.2H39.3H39.4V145.5V145.4H39.5V145.3H39.4H39.3V145.2V145.1V145L39.4 144.9V144.8V144.7H39.5V144.6V144.5V144.4H39.4V144.3H39.3V144.2V144.1H39.2H39.1V144V143.9H39V143.8H38.9L38.8 143.7V143.6L38.7 143.5H38.6V143.4V143.3V143.2L38.5 143.1V143V142.9H38.4V142.8H38.3V142.7V142.6V142.5V142.4V142.3H38.4V142.2H38.3V142.1V142V141.9V141.8V141.7H38.2L38.3 141.6V141.5V141.4V141.3V141.2V141.1H38.4L38.3 141L38.4 140.9V140.8L38.3 140.7V140.6V140.5V140.4H38.2L38.1 140.3L38 140.1L37.9 140L37.8 139.9H37.7V139.8L37.6 139.7L37.5 139.6H37.4L37.3 139.5H37.2V139.4H37.1V139.3H37L36.9 139.2L36.8 139.1H36.7L36.6 139.2H36.5H36.3L36.2 139.3H36.1H36H35.9H35.8H35.7H35.2H35.1H35H34.9H34.8L34.5 139.2H34.2H34.1H34H33.9H33.8V139.3H33.7H33.6H33.5H33.4V139.2H33.3H33.2H33.1L33 139.1H32.9H32.7H32.5H32.4L32.1 139H31.8H31.4L31.2 138.9H30.9H30.8H30.7H30.5H30.4H30.3H30.2V138.8V138.7H30.1V138.6L30.2 138.5V138.4V138.3H30.1V138.2H30V138.1H30.1V138H30.2V137.9H30.3V137.8V137.7V137.6H30.4V137.5H30.5V137.4V137.3V137.2H30.4V137.1H30.3V137H30.2V136.9V136.8L30.1 136.7L30.2 136.6L30.3 136.5H30.4V136.4H30.5V136.3V136.2V136.1H30.6V136H30.7V135.9V135.7V135.5L30.6 135.3V135.2V135L30.5 134.8V134.7V134.5V134.4V134.3V134.2V134.1H30.6L30.8 133.9H30.9L31.2 133.7H31.9L32.1 133.5H32L31.9 133.4L32 133.3V133.2L32.2 133.1L32.3 133H32.4V132.9V132.8L32.3 132.7L32.8 132.6H32.9L33 132.5H33.1H33.2L33.1 132.3H33V132.2H32.9H32.8L32.7 132.1H32.6H32.5L32.4 131.9V131.8V131.7L32.3 131.6L32.2 131.5V131.4V131.3V131.2H32.1H32H31.9H31.6L31.4 131.1L31.3 131.3V131.4H31.2V131.3L31.1 131.2V131L31 130.6L30.9 130.5L30.8 130.2L30.7 130L30.6 129.9L30.7 129.8V129.7V129.6V129.5V129.4V129.3V129.2H30.6L30.7 129.1V129V128.9L30.8 128.8V128.7V128.6V128.5V128.4V128.3H30.7V128.2H30.8V128.1L30.7 128V127.9H30.6V127.8V127.7V127.6V127.5V127.4L30.5 127.3V127.2V127.1L30.4 127V126.9H30.5V126.8V126.7V126.6V126.4V126.3V126.2V126.1V126H30.4V126.1H30.3H30.2L30.1 126.2H30H29.9V126.3H29.8H29.7H29.6V126.4L29.3 126.5H29.1L28.8 126.6L28.9 126.7V127L28.5 127.2H28.4L28.3 127.3H28.1L27.9 127.4L27.8 127.3L27.7 127L27.5 126.5V126.4H27.4H27.3H27.2H27.1V126.3H27V126.4H26.9V126.3L26.8 126.4H26.7V126.5H26.6H26.5H26.4H26.3H26.2V126.6H26.1V126.7H26V126.8H25.9H25.8V126.7V126.6H25.7H25.6L24.3 125.4L24.4 125.2L24.5 125.1L24.6 124.8L24.7 124.7L23.9 124.3L23.5 124L23.3 123.9L23.2 123.8H23.3L23.4 123.7L23.6 123.8V123.6L23.7 123.7H23.8V123.8L23.9 124L24 123.9L23.9 123.7V123.4L23.8 123.3V123.2H24L23.9 122.9H23.8V122.8H23.6V122.7V122.5V122.4V122.3H23.7H23.8L23.9 122.4H24L24.4 122.1L24.3 121.8H24.4V121.7H24.3V121.6H24.4V121.5L24.5 121.4H24.6H24.7V121.3L24.6 121.2L24.5 121L24.3 120.8L24 120.5L23.8 120.3L23.6 120V119.9L23.5 119.8H23.4V119.7H23.3V119.6L23.2 119.5L23 119.3H22.9H22.8V119.2L22.7 119.1V119H22.6L22.5 118.8V118.7V118.6H22.4L22.7 118.5V118.4L22.6 118V117.8V117.7L22.5 117.3V117V116.9L22.4 116.3V116V115.9V115.8L22.3 115.5V115.2V115V114.8V114.6L22.2 114.3V114.1L22.1 113.6V113.3V113.1V112.9L22 112.2L21.9 111.7V111.2H21.5L21 111.3H20.6H20.4L20.3 110.3L20.7 110.4L20.6 110.1H20.7L21.1 110H21.5L21.7 109.9V109.5L21.6 109.2L22 109.1H22.4L22.7 109H22.9H23L22.9 108.2L23 108.1H23.2H23.3H23.6L24 108V108.1H24.1H24.2V108H24.3H24.4V107.8L24.2 107.6V107.5L24.3 107.4L24.5 107.1V106.8V106.6V106.4H24.4L24.2 106.2L24.1 106.1L24 106V105.9H23.9V105.8H24.3L25 105.7V105.1L24.9 104.5L24.8 104.2L24.6 104.1L24.1 104H23.9H23.8L23.6 103.9H23.5H23.2H23.1H23H22.9V103.8L22.8 103.7L22.6 103.5L22.1 103L22 102.9H21.9L22.2 102.1L22.3 101.8L22.5 101.2H22.9V100.9V100.8L22.8 100.6V100.1L22.7 99.9V99.5V99.4V99.3L22.6 99.2V99L22.7 98.9H22.8H22.9V98.8L23 98.7V98.6V98.5L23.2 98.2L24.6 98V97.8V97.7L24.5 97.5L24.4 96.9L24 97H23.6L23.5 97.1H23.2H23H22.9H22.8L22.4 97.2L22.3 96.9V96.6L22.2 96.5V96.4L21.8 95.9L21.7 95.8L21.6 95.9H20.9L20.8 96H20.7H20.5H20.4L19.8 96.1V96V95.9L19.9 95.8V95.7V95.6V95.5H20V95.4V95.3V95.2V95.1H20.1V95V94.9H20V94.8H20.1V94.7L20.2 94.6V94.5V94.4V94.3V94.2V94.1V94H20.1V93.9L20.2 93.8V93.6V93.5V93.1V92.2L20.1 90.6V90.5V90.3V90.1V90V89.7L19.9 89V88.8L19.7 88.9L19.4 89L18.8 89.2L18.7 89.3H18.6H18.5H18.4H18.3H18.2H18.1L17.9 89.2H17.8H17.7H17.6L17.5 89.1H17.4H17.3H17.2L17.1 89H17L16.9 89.1H16.8H16.7H16.6H16.5H16.4H16.3L16.2 89H16.1L16 88.9H15.9H15.8L15.7 89V89.1L15.6 89.2V89.3V89.4L15.5 89.5L15.4 89.6H15.3H15.2V89.5L15.1 89.4H15H14.9H14.8H14.7H14.6L14.5 89.3L14.4 89.4L13.9 89.2L13.6 89.1H13.5L13.4 89L13.2 88.9L12.9 88.8H12.8H12.6L12.4 88.7H12.2H12H11.9L11.8 88.8H11.7L11.6 88.9L11 88.8H10.9L10.8 88.7V88.6L10.7 88.5V88.4L10.6 88.2V88.1H10.4H10.1H9.70001H9.59998H9.5H9.29999L9.09998 88H8.90002L8.79999 87.9L8.90002 87.7L9.09998 87.5V87.4L9.20001 87.3L9.5 86.8L9.59998 86.6L10.1 85.8V85.7L11.2 86.4H11.3V85.9L11.5 85.6L11.4 85.5L11.2 85.4V85.3V85.1V85V84.9H11.3L11.5 84.7L11.9 84.6H12L12.1 84.5H12.4L12.7 84.4H12.9H13H13.1H13.3H13.4L13.6 84.3V84.2V84.1V83.8H13.5V83.7L13.4 83.6V83.4L13 82.6L12.9 82.3L12.7 81.9L12.5 81.3L12.4 80.9L12.3 80.7L12.1 80.5L11.9 80.2L11.4 79.4L11.3 79.3V79.2L11.5 79.1L11.6 79L11.7 78.9L11.8 78.8V78.3V78.2L11.9 77.7V77.3L12 76.8V76.5V76.4V76.3L12.1 76.2L12.2 75.8L12.3 75.6V75.3L12.4 75.2V75.1L12.5 74.9L12.6 74.4L12.8 73.3V72.8L12.7 72.4L12.1 72.5H12H11.9L11.7 72.4H11.6L11.5 72.3H11.4H11.3V72.2H11.2H11.1H11H10.9H10.8V72.3V72.4L10.7 72.7V72.8V73.1L10.6 73.7V73.8V73.9V74H10.5L10 73.9H9.59998L7.59998 73.7V73.6L7.5 73.5L7.40002 73.4L6.90002 73.3H6.5H6.59998V73.2V73.1H6.5V73V72.9L6.40002 72.8L6 73L5.90002 73.1H5.79999L5.70001 73L4.79999 72.6H4.70001L4.5 72.4L4.20001 72.2L4 72.1L3.70001 71.9L3.59998 71.8L3.20001 71.4L3.70001 71V70.9L3.59998 70.8L3.20001 70.3L3.40002 70.1L3.79999 69.9V69.8H3.90002V69.6L4.20001 69.5V69.4L4.5 69.3L5.29999 69V68.9L5.20001 68.8L4.79999 67.9L4.40002 68.1L4 67.3H3.90002H3.70001L3.09998 67.4V66.9L2.5 66.7L2.40002 66.4L2.5 66.3L2.40002 66.1V65.9L2.29999 65.8V65.7L2.20001 65.5V65.4L2 65.1V65L1.90002 64.8L2.29999 64.7H2.40002L2.5 64.6H2.70001L2.79999 64.5H2.90002V64.4H3.09998L3.20001 64.3H3.29999H3.40002V64.2V64.1L3.29999 64H3.5L3.90002 63.9L4 63.8L4.20001 63.7L3.5 62.9H3.59998L4 62.5L4.20001 62.4L4.29999 62.3H4.5H4.59998L4.79999 62.2H5L5.5 62.1H5.79999L6.09998 62H6.20001L6.29999 61.9L6.5 61.8L6.29999 61.4L6.20001 61.2L6.09998 60.9L6 60.8V60.7L5.90002 60.4V60.3H5.79999H5.70001H5.59998L5.20001 60.2L4.40002 60L4 59.9L3.70001 59.8H3.59998L3.09998 59.7H3H2.90002V59.6H2.79999V59.4V59.3L2.70001 59L2.59998 58.8L2.5 58.6V58.5L2.40002 58.4V58.3H2.5V58.2V58.1L2.70001 57.8V57.7V57.5L2.79999 57.4H2.90002V57.2V57L2.79999 56.8V56.6V56.5H2.90002V56.1V55.9L3 55.8V55.6V55.5L3.09998 55.1V54.7L3.20001 54.3V54L3.29999 53.7V53.3V53L3.40002 52.9V52.7V52.6L3 52.2L2.59998 51.7L2.5 51.8V51.7L2.59998 51.6L2.5 51.5H2.40002V51.4L2.5 51.1V50.5V50.1L2.29999 50L2.40002 49.3H1.70001L0.700012 49.4L0.799988 48.9V48.5L0.900024 48.2V47.9L1 47.4V46.6L1.09998 46.4V46.1L0.799988 45.9L0.700012 45.8L0.400024 45.7V45.6H0.5V45.5L0.599976 45.4V45.3L0.700012 45.2V45.1L0.799988 45V44.9L0.700012 44.8V44.6V44.5H0.599976V44.4L0.700012 44.2L0.799988 44.1V44V43.9L0.900024 43.6V43.5H1.20001L1.5 43.6H1.90002H2.20001L2.79999 43.7L2.90002 43.6L3.20001 43.3L3.29999 43.2L3.59998 43L4 42.7L4.29999 42.6L4.5 42.5L4.59998 42.2L4.90002 41.9V41.8V41.4H4L2.90002 41.3V41.2L3.40002 40L3.59998 39.5V39.4L3.79999 39.6H4.09998L4.29999 39.7L4.5 39.8L4.70001 39.9L4.79999 39.7H5H5.29999H5.79999L6.20001 39.8L6.29999 39.7V39.6V39.5H6.20001V39.4L6.09998 39.3L6 39.2L5.90002 39.1H5.79999L5.59998 38.8L5.5 38.7V38.6L5.40002 38.4L5.29999 38.3V38.2V38.1V37.8H5.70001L5.79999 37V36.5H6L6.20001 36.4H6.70001H7.29999H7.40002L7.29999 36.2H7.40002V36.1L7.5 36L7.40002 35.8V35.7L7.5 35.6L7.59998 35.4V35.3H7.70001L8.29999 35.2H8.40002V35.1V35H8.29999V34.9L8.20001 34.7L8.09998 34.6L8 34.3V34.1L8.09998 34L8.40002 33.7V33.6H8.5H8.59998L10.5 33L10.9 32.9L10.6 32.7V32.6L10.4 32.5V32.6V32.7H10.3H10.2V32.6H10.1L10 32.5V32.4L10.1 32.3L10.2 32.2V32.1V32H10L9.90002 31.9L9.79999 31.8L9.70001 31.6H9.59998V31.5V31.3H9.20001L9.40002 31.2L9.29999 30.9L9.20001 30.8V30.7H9.29999V30.6V30.5V30.2V29.9H8.90002L8.59998 29.5L9.20001 29.3L9.40002 29.1H9.5V28.7V28.6L9.09998 28.5H8.79999H8.5H8.40002L8.29999 28.4L8.09998 28.3L7.29999 28.9L7.09998 28.6H7L6.79999 28.4L6.59998 28.1L6.40002 27.6L6.20001 27.2V27.1V27V26.9L6.29999 26.8L6.59998 25.9L6.90002 25.3L7 25L7.20001 24.7L7.40002 24.3L7.5 24.4L7.59998 24.5L7.70001 25.1H7.79999V25.2H7.90002H8V25.3H8.09998V25.4H8.5L8.90002 25.2L9.09998 25.1V25L9.20001 24.5L9.40002 24.3L9.5 24.1L9.79999 23.9V23.7H9.90002L10.4 23.4V23.3L10.5 23.1L10.7 23H11.3L11.4 22.4L11 22.3L10.7 22.2L10.6 22.1L10.5 22L10.3 21.7L10.2 21.6L10 21.5L9.09998 20.7V20.6L9.20001 20.4L9.29999 20.2L9.40002 19.7L9.5 19.4L9.59998 19.3V19.1V19L9.5 18.9V18.8H9.59998H9.70001L10.6 18.7H10.7H10.9H11H11.1L11.2 18.8H11.3H11.4L11.6 18.9H12H12.2H12.3H12.4H12.5H12.6V18.8L12.8 18.6H12.9L13.3 18.2V18.1L13.2 18L13 17.8L12.8 17.5L12.6 17.4L12.4 17.1L12.2 16.9L12 16.7L11.8 16.4L11.7 16.3L11.5 16L11.3 15.6L11.2 15.5L10.7 14.6V14.5L10.4 14.1L10.3 13.9L10.2 13.8L9.90002 13.4L9.79999 13.2L11.4 12.1H11.5H11.6L11.8 12L11.9 11.9L12.1 11.8L12.6 11.6L13.2 11.7L14.1 12.3L14.6 12.4L15 12.1L15.8 11.6L16.6 11.1L17 10.7V10.3L17.1 9.80002L17.2 9.70001H17.3L17.5 9.60002L17.7 9.50002H17.8V9.40001L18.1 9.30002L18.3 9.20001L18.4 9.10002H18.6L18.5 8.90001V8.80002V8.70001V8.50002L18.6 8.40001L18.7 8.30002L19 8.20001L19.1 8.10002L19.4 7.90001L19.5 7.80002H19.6V7.70001V7.60002V7.50002V7.40001V7.30002H19.5V7.20001H19.6V7.10002H19.5V7.00002H19.4L19.3 6.90001H19.2V6.80002H19.1L19 6.60002V6.50002V6.40001V6.30002H18.9V6.20001L19 6.10002V6.00002H18.9H18.8V5.90001V5.80002H18.7V5.70001H18.8L18.6 5.50002V5.40001H18.5L18.3 5.00002L18.2 4.70001L18.1 4.50002L18 4.30002L18.1 4.20001V4.10002V4.00002V3.90001V3.70001V3.50002V3.20001V3.10002V3.00002V2.90001L18 2.80002V2.70001L17.9 2.60002V2.50002V2.40001V2.30002V2.10002V1.90001V1.80002H18V1.70001H17.9V1.60002V1.50002V1.20001H18.2L21.4 1.50002L22.8 1.20001L23.7 1.30002L24.5 2.20001L26 6.70001L26.6 7.60002L27.6 8.10002L29.8 8.30002L30.7 8.70001L31.9 9.50002L33.7 10.2L37.4 9.50002L39.9 10L40.3 9.70001L40.8 9.40001H41L41.5 9.20001L42 9.00002L42.1 8.80002V9.00002L42.6 10.6L42.7 11.8L43 12.5L43.3 12.8L46.3 15.1L50.8 16.4L51.6 16.6L53.3 18.2L54.4 20L54.5 20.1L55.9 21.5L57.3 21.4L60.7 21.2L61.5 20.9L62.1 20.5H62.2H62.4H62.5V20.4L62.6 20.3V20.2H62.7H62.8V20.1H62.9V20H63L63.1 19.9H63.2V19.8H63.3V19.7H63.4H63.5V19.6H63.6V19.5H63.7L63.8 19.4L63.9 19.3H64L64.2 19.2L64.4 19L64.5 18.9H64.6V18.8L64.7 18.7V18.6H64.8V18.5H64.9V18.4L65 18.3V18.2L65.1 18.1V18L65.2 17.8L65.3 17.6L65.4 17.5L65.5 17.3V17.2L65.6 17.1V17L65.7 16.9L65.8 16.8L65.9 16.7L66.1 16.6L66.2 16.4L66.4 16.3L66.6 16.1H66.7L66.9 16L68.2 17.1L68.3 17.2L71.1 24.5L72.2 26.1L73.7 27.1L75.6 27.5L77.6 27.1L79.5 26.1L81.4 25.7L83.3 26.9L84.2 27.4L87.2 27.7L87.8 28.5L88.4 30.3L89.2 33.6L90.5 36.3L92 37.4L93.8 37.9L95.8 38.8L98.5 41.4L99.5 41.8L100.9 41.9L102.4 41.6L103.9 41L105.2 40.2L105.8 39.6L106.4 39L107.9 37.5H108L108.1 37.4H108.3H108.5H108.6L108.9 37.3H109.4L110 37.2L110.3 37.1H110.4H110.5H110.6L110.9 37H111.1H111.3L112.7 37.4H112.8L115.3 38.1L115.5 38.2L116.1 38.9L115.9 40.5L115.4 41.2L115.1 41.6L113.1 42.7L112.2 43.6L111.6 45.2L111.3 46.1V46.7L111.6 48.6L112 49.4L112.6 50.9L114.6 54L117 56.8L117.5 58L117.4 59.4L116.7 62L116.6 64.8L116.4 65.3L116.3 65.4L116.2 65.5L116.1 65.6L116 65.7L115.1 66.2L114.1 67L112.5 69.6H112.3L112.2 69.7H112.1H112H111.9H111.8V69.8H111.6H111.5L111.3 69.9H111.2H111.1L111 70L110.9 70.1V70.2L110.8 70.3V70.4L110.7 70.5L110.6 70.6V70.7H110.5V70.8L110.4 70.9L110.3 71V71.1H110.2V71.2L110.1 71.3V71.4H110V71.5L109.8 71.7V71.9H109.7V72L108.5 72.8L107.1 74.2L106 76L105.8 77.1L105.6 79.3V79.4H105.5H105.3H105.1H105H104.9V79.3H104.8H104.7L104.6 79.2H104.5L104.3 79.1H104.2H104.1L103.9 79L103.7 78.9H103.5V78.8H103.4L103.2 78.9H103.1H103H102.9H102.8H102.7L102.6 79H102.5H102.3H102H101.8L101.7 79.1H101.6H101.5H101.4H101.3L101.2 79.2H101.1H100.9H100.8H100.7H100.6V79.3H100.5H100.4H100.3H100.2V79.2H100.1V79.1H100H99.9H99.8H99.7L99.6 79.2H99.5V79.3H99.4L99.3 79.4L99.2 79.5L99.1 79.6L99 79.7L98.9 79.8L98.8 79.9L98.7 80L98.5 80.2H98.4V80.3L98.2 80.4L98.1 80.5L98 80.6H97.9L97.7 80.7H97.6L97.5 80.6H97.4H97.3H97H96.9H96.7L96.5 80.5H96.4H96.3L96.2 80.4H96H95.9H95.7L95.5 80.3H95.4L95.3 80.2H95.2H95.1L95 80.1H94.9H94.8L94.7 80H94.6L94.1 79.9H94L93.5 80.3H93.4L93.2 80.4V80.5L93 80.6H92.9L93 80.7H93.1V80.8H93.2V80.9L93.3 81L93.5 80.8V80.9L93.6 81V81.1V81.2H93.5H93.4V81.3H93.5V81.4V81.5H93.4V81.6H93.3H93.2V81.7V81.8V81.9V82V82.1V82.2H93.1V82.3H93V82.4V82.5V82.6V82.7H93.1H93.2H93.3V82.8H93.2V82.9L93.1 83V83.1L93 83.2V83.3V83.4H92.9V83.5H92.8L92.7 83.6L92.6 83.7H92.5L92.6 83.8L92.7 83.9L92.8 84.1L92.9 84.2L93 84.3V84.4H93.1V84.5H93.2V84.6L93.1 86.1L93.7 87L94.8 87.7L95.7 88.6L96.4 90L96.8 91L97.3 91.8L98.5 92.3L102.5 93.2L104.3 93L104.9 93.1L105.4 93.6L106.4 94.8L107 95.1L108.1 94.5L108.6 93.8L109 93.3L109.4 92.9L109.9 92.4L111.2 92.5L112.2 93.8V95.3L112 95.4L111.9 95.6L111.5 96L111.3 96.2L111 96.6L110.6 97L110.2 97.4L109.8 97.9L109.2 98.6L108.9 99L108.5 99.4L108.3 99.6L107.8 99.5L107.6 99.4H107.5H107.4H107.3H107.2H107.1H107H106.9H106.8L106.7 99.3L106.4 99.1L106.3 99L106.1 98.9L105.8 98.8V98.7L105.5 98.6L105.2 98.4L104.9 98.2L104.7 98.1L104.3 97.8L103.9 97.6H103.8V97.5H103.7L103.5 97.4L103 97.2L102.5 97.1L102.1 97L101.7 96.8L101.3 96.6H101H100.9L100.8 96.7L100.6 96.6L100.5 96.5L100.3 96.4L99.8 96.2V96.1V96H99.7V95.9V95.8H99.6H99.5H99.4V95.9H99.3V96H99.2V96.1V96.2V96.3H99.1H99V96.4V96.5V96.6V96.7V96.8V96.9V97H99.1H99.2V97.1H99.3V97.2V97.3H99.2H99.1V97.4H99H98.9V97.3V97.2H98.8H98.7V97.3H98.6V97.4H98.7V97.5V97.6H98.8V97.7V97.8H98.7V97.9H98.6V98H98.5V98.1H98.4V98.2V98.3V98.4V98.5L97.4 99.7L96.9 100.5L96.6 101.3V101.4L96.5 101.5L96.4 101.7L96.2 102V102.1L94.9 102.6L94.5 103.2L91.4 113.5L90.9 115.4L92.9 115.3L93.2 115.1H93.3L93.5 115V115.1H93.6V115.2H93.7V115.3V115.4H93.8H93.9H94H94.1H94.2H94.3L94.4 115.3H94.5L94.6 115.4H94.7H94.8L94.9 115.5H95H95.1H95.2H95.3L95.4 115.6L95.5 115.5H95.6V115.4H95.7H95.8L95.9 115.5H96H96.1H96.2L96.3 115.4H96.4V115.3L96.5 115.2L96.9 115.3L97.8 115.4L99.9 115.6L100.4 116L100.9 116.3L101.2 116.4L102.1 117.7H102.2L102.6 119.7V120.3L102.7 120.7L102.9 121V121.3L102.7 121.9L102.2 122.1L101.8 122L101.5 122.1L101.7 123.3V123.4V123.5V123.6V123.7V123.8V123.9V124L101.8 124.1V124.2H101.9V124.3L102 124.5L102.1 124.6L102.2 124.7L102.3 124.8L102.8 125.1L103.1 125.2L104.3 127.8L104.8 129.7L104.9 130.1L105.1 130.6L105.2 130.8L105.3 130.9V131V131.1V131.2H105.4V131.3L105.5 131.4L105.6 131.5L104.5 132.6L103.7 133.7L102.6 134.6L101.5 135.5L100.2 136.6L103.7 138.8L104.7 138.7L105 138.6H104.9V138.7V138.9V139H105V139.1V139.2H105.1V139.3H105V139.4H105.1L105.2 139.3V139.4V139.5H105.3H105.4V139.4H105.5H105.6H105.7V139.3H105.8L105.7 139.2H105.8V139.1V139H105.9V138.9H106H106.1V138.8H106.2V138.7H106.1V138.6H106V138.5H106.1H106.2V138.4H106.3V138.3V138.2V138.1L107.3 137.7L108.4 138L109.2 139.2L109 140.7L108.4 142.1L107.8 142.7H107.4L107.1 142.6H106.8H106.6H106.5V143.2L106.4 143.9L105.1 145L104.1 146.1L101.6 150.9L101 152.3L100.9 154.1L101.1 154.8L101.2 155L101.6 156.4V156.8L101.5 156.7V156.8H101.4H101.3V156.7H101.2H101.1V156.8H101H100.9H100.8H100.7H100.6H100.5H100.4H100.3H100.2H100L99.8 156.9H99.7L99.6 156.8H99.5L99.4 156.9H99.3H99.1H99H98.9H98.8H98.7H98.6H98.5H98.4H98.2V157H98.3V157.1V157.2V157.3H98.4V157.4H98.5V157.5V157.6V157.7H98.3L97.8 158.1L97.4 158.8L97.5 159.2L97.9 159.6L98.4 160.4L99.1 162.1L99.2 162.8L99.1 164L98.9 164.6L98.4 165.7L98.3 166.4V166.9L98.5 168V168.4L98.3 169.7H98.2H98.1H98V169.6H97.9H97.8H97.7H97.6H97.5V169.7V169.8V169.9V170V170.1V170.2L97.6 170.4V170.6V170.7V170.9V171V171.1V171.2V171.4V171.5H97.5H97.4H97.3V171.4H97.2V171.5H97.1V171.6L97 171.8L96.9 171.9L96.8 172L96.7 172.3L96.5 172.6L96.4 172.8H96.3V172.9H96.2H96.1H96V172.8H95.9H95.7H95.6H95.5H95.3H95L94.6 172.7H94.3L93.8 172.6H93.5H93.3H92.9L92.3 172.5H92L91.6 172.2H91.5H91.4V172.1H91.3L91.2 172.2V172.1H91.1L91 172H90.9L90.8 172.1V172H90.7H90.6H90.5V172.1H90.4L89.9 172.2H89.8H89.6H89.4H89.3H89.2H89H88.8H88.5H88.2H87.8H87.7H87.6H87.5V172.3H87.4V172.4L87.3 172.5H87.2V172.6H87.1H87V172.7H86.9V172.8H86.8H86.7H86.6V172.9H86.3H86.2V172.8L86 172.5L85.9 172.6L85.7 172.7L85.5 172.9L85.3 173V173.1L85 172.7L84.7 172.3L84.3 171.9L83.8 171.3L83.3 170.6L83.2 170.5V170.4H83.1H83V170.5H82.9H82.8H82.7H82.6H82.5H82.4V170.6H82.3V170.7H82.2V170.8H82.1H82H81.9V170.9H81.8V171H81.7H81.6H81.5V170.9V170.8H81.4H81.3V170.9H81.2V171L81.1 171.1V171.2L81 171.4L80.9 171.6V171.7V171.8V171.9V172V172.1H80.8H80.7H80.6V172.2H80.5L80.4 172.3V172.4L80.3 172.5H80.2V172.6H80.1H80H79.9H79.8V172.5V172.4L79.7 172.3L79.6 172.2L79.5 171.9L79.4 171.6L79.3 171.4L79.2 171.2L79.1 170.9L78.9 170.5L78.7 170L78.6 169.6H78.5H78.4H78.1L77.8 169.5H77.5H77.2H77H76.9H76.8L76.6 169.6H76.7V169.7V169.8V169.9H76.6H76.5H76.4H76.1H75.9H75.6H75.4H75.2H75H74.6H74.5H74.2H74.1H74H73.7H73.6H73.5H73.4H73.3H73H72.8H72.4H72.1H71.8H71.3H71.2V170H71.1L71 170.1V170.2V170.3V170.4H70.9V170.5V170.6H70.8L70.9 170.7V170.8V170.9H70.8H70.7H70.5H70.2H70.1H69.8H69.5H69.1H68.7H68.5H68.4H68.3H68.2H68.1V171L68 171.1H67.9V171.2V171.3H67.8V171.4H67.7H67.6H67.5V171.3H67.4V171.2H67.3V171.1H67.2V171L67.1 171.1H67H66.9H66.7H66.6V171.2V171.3V171.6V171.7H66.4H66.3H66.1H65.8H65.5H65.2H65H64.6V171.5V171.1H64.4H64.3H64.2H64.1H64H63.8H63.7H63.5H63.4H63.3H63.2V171V170.7V170.2V169.7H63.1H62.8Z" fill="#6F9C76"/>
<path d="M50.2 157L50.1 157.1V157.2H50L50.2 157.6L50.4 158.1L50.5 158.2V158.3V158.4V158.5H50.6V158.6L50.8 158.8L50.9 158.9L51 158.8V158.7H51.1H51.3H51.6L51.9 158.8H52.2H52.9L54 158.9H54.2H54.3H54.4H54.5H54.8H55L55.1 159H55.2H55.4H55.5H55.6H55.8H55.9H56.2V159.1H56.3H56.4H56.5H56.6H57.6H57.8L58.1 159.2H58.4H58.7H58.9L59.3 159.3H59.7H59.9H60.3L60.5 159.4H60.6H60.8H60.9H61H61.1V159.5V159.8V159.9V160L61.2 160.1V160.2V160.5L61.3 160.9L61.2 161.6V162L61.1 162.3V162.4V162.5V162.6L61 162.7V162.8V162.9V163V163.1V163.2H61.1V163.1H61.2V163.2H61.3H61.4V163.3V163.4H61.5H61.6V163.3H61.7L61.8 163.4H61.7L61.6 163.6L61.7 163.7H61.8L61.9 163.8V163.9H62H62.1V163.8H62.2H62.3V163.7V163.6H62.4L62.5 163.7H62.6V163.6V163.5H62.7V163.4H62.8V163.5L62.9 163.6V163.7V163.8H63H63.1V163.9H63V164H63.1V164.1V164.2H63.2H63.3V164.3V164.4H63.4H63.5H63.6V164.5V164.6L63.4 164.9L63.1 165.9L62.9 166.3V166.5L62.7 166.8L62.6 167L62.4 167.6V167.7V167.8V168L62.5 168.4L62.6 169.1L62.7 169.3L62.8 169.5V169.6V169.7H63.1H63.2V170.2V170.7V171V171.1H63.3H63.4H63.5H63.7H63.8H64H64.1H64.2H64.3H64.4H64.6V171.5V171.7H65H65.2H65.5H65.8H66.1H66.3H66.4H66.6V171.6V171.3V171.2V171.1H66.7H66.9H67H67.1L67.2 171V171.1H67.3V171.2H67.4V171.3H67.5V171.4H67.6H67.7M50.2 157H50.3M50.2 157L50.1 156.7V156.6L49.9 156.7L49.8 156.5L49.7 156.4V156.3H49.6L49.7 156.1H49.8H49.9L50 156L50.3 155.3L50.4 155.2L50.5 155.1H50.4L50.2 154.9L50.4 154.4V154.3V154.2V154.1V154L50.3 154.1V154.2L50.2 154.3V154.4H50.1V154.5V154.6L50 154.7V154.8L49.9 154.9V155H49.8L49.7 154.9V154.8H49.6H49.5L49.4 154.7H49.3L49.2 154.6H49.1L49 154.5L48.9 154.3L49 154.2L49.1 154.1L49.2 154H49.3H49.4L49.5 153.9L49.6 153.8L49.7 153.7L49.8 153.5L49.7 153.4H49.6V153.3L49.3 153.2L49.4 153V152.9V152.8H49.5V152.7V152.6V152.5L49.6 152.3V152.2L49.7 151.8L49.8 151.7V151.6V151.5L49.9 151.3V151.2V151.1H49.8H49.6H49.5V151V150.9H49.4H49.3V151H49.2V150.9H49.1V151H49H48.9V150.9L48.8 150.8V150.7H48.7H48.6L48.5 150.6V150.5H48.4H48.3H48.2H48.1H48V150.4V150.3V150.2V150.1L47.9 150V150.1H47.8V150.2H47.7V150.3H47.6H47.5V150.2V150.1H47.4H47.3V150V149.9H47.2H47.1H47H46.9V150H46.8L46.7 149.9H46.6H46.5V149.8H46.4H46.3V149.7H46.2H46.1H46V149.8H45.9V149.7L45.8 149.8V149.7H45.7H45.6V149.6H45.5H45.4V149.5H45.3H45.2H45.1H45V149.4H44.9L44.8 149.3L44.5 149.2H44.3L44.2 149.1H44L43.9 149H43.8H43.7V148.9H43.6H43.4L43.6 147.9H43.5L43.4 147.8H43.3H43.2L43.1 147.9H42.9H42.8H42.7H42.6H42.5H42.4V147.8V147.7V147.6H42.5V147.5H42.4H42.3H42H41.6H41.4H41.2H41L40.9 147.6L40.8 147.7H40.7L40.6 147.6H40.5L40.2 147.4L40 147.3H39.9L39.8 147.2H39.7V147.1H39.6H39.5H39.4L39.3 147L39.2 146.9H39.1H39V146.8M39 146.8H38.9M39 146.8V146.7V146.6H38.9V146.5H38.8V146.4V146.3H38.7V146.2H38.8V146.1H38.9V146V145.9L39 145.8H39.1V145.7V145.6H39.2H39.3H39.4V145.5V145.4H39.5V145.3H39.4H39.3V145.2V145.1V145L39.4 144.9V144.8V144.7H39.5V144.6V144.5M39.5 144.5H39.6M39.5 144.5V144.4H39.4V144.3H39.3V144.2V144.1H39.2H39.1V144V143.9H39V143.8H38.9L38.8 143.7V143.6L38.7 143.5H38.6V143.4V143.3V143.2L38.5 143.1V143V142.9H38.4V142.8H38.3V142.7V142.6V142.5V142.4V142.3H38.4V142.2H38.3V142.1V142V141.9V141.8V141.7H38.2L38.3 141.6V141.5V141.4V141.3V141.2V141.1H38.4L38.3 141L38.4 140.9V140.8L38.3 140.7V140.6V140.5V140.4H38.2L38.1 140.3L38 140.1L37.9 140L37.8 139.9H37.7V139.8L37.6 139.7L37.5 139.6H37.4L37.3 139.5H37.2V139.4H37.1V139.3H37L36.9 139.2L36.8 139.1H36.7L36.6 139.2H36.5H36.3L36.2 139.3H36.1H36H35.9H35.8H35.7H35.2H35.1H35H34.9H34.8L34.5 139.2H34.2H34.1H34H33.9H33.8V139.3H33.7H33.6H33.5H33.4V139.2H33.3H33.2H33.1L33 139.1H32.9H32.7H32.5H32.4L32.1 139H31.8H31.4L31.2 138.9H30.9H30.8H30.7H30.5H30.4H30.3H30.2V138.8V138.7H30.1V138.6L30.2 138.5V138.4V138.3H30.1V138.2H30V138.1H30.1V138H30.2V137.9H30.3V137.8V137.7V137.6H30.4V137.5H30.5V137.4V137.3V137.2H30.4V137.1H30.3V137H30.2V136.9V136.8L30.1 136.7L30.2 136.6L30.3 136.5H30.4V136.4H30.5V136.3V136.2V136.1H30.6V136H30.7V135.9V135.7V135.5L30.6 135.3V135.2V135L30.5 134.8V134.7V134.5V134.4V134.3V134.2V134.1H30.6L30.8 133.9H30.9L31.2 133.7H31.9L32.1 133.5H32L31.9 133.4L32 133.3V133.2L32.2 133.1L32.3 133H32.4V132.9V132.8L32.3 132.7L32.8 132.6H32.9L33 132.5H33.1M33.1 132.5V132.6M33.1 132.5H33.2L33.1 132.3H33V132.2H32.9H32.8L32.7 132.1H32.6H32.5L32.4 131.9V131.8V131.7L32.3 131.6L32.2 131.5V131.4V131.3V131.2H32.1H32H31.9H31.6L31.4 131.1L31.3 131.3V131.4H31.2V131.3L31.1 131.2V131L31 130.6L30.9 130.5L30.8 130.2L30.7 130L30.6 129.9L30.7 129.8V129.7V129.6V129.5V129.4V129.3V129.2H30.6L30.7 129.1V129V128.9L30.8 128.8V128.7V128.6V128.5V128.4V128.3H30.7V128.2H30.8V128.1L30.7 128V127.9H30.6V127.8V127.7V127.6V127.5V127.4L30.5 127.3V127.2V127.1L30.4 127V126.9H30.5V126.8V126.7V126.6V126.4V126.3V126.2V126.1V126H30.4V126.1H30.3H30.2L30.1 126.2H30H29.9V126.3H29.8H29.7H29.6V126.4L29.3 126.5H29.1L28.8 126.6L28.9 126.7V127L28.5 127.2H28.4L28.3 127.3H28.1L27.9 127.4L27.8 127.3L27.7 127L27.5 126.5V126.4H27.4H27.3H27.2H27.1V126.3H27V126.4H26.9V126.3L26.8 126.4H26.7V126.5H26.6H26.5H26.4H26.3H26.2V126.6H26.1V126.7H26V126.8H25.9H25.8V126.7V126.6H25.7H25.6L24.3 125.4L24.4 125.2L24.5 125.1L24.6 124.8L24.7 124.7L23.9 124.3L23.5 124L23.3 123.9L23.2 123.8H23.3L23.4 123.7L23.6 123.8V123.6L23.7 123.7H23.8V123.8L23.9 124L24 123.9L23.9 123.7V123.4L23.8 123.3V123.2H24L23.9 122.9H23.8V122.8H23.6V122.7V122.5V122.4V122.3H23.7H23.8L23.9 122.4H24L24.4 122.1L24.3 121.8H24.4V121.7H24.3V121.6H24.4V121.5L24.5 121.4H24.6H24.7V121.3L24.6 121.2L24.5 121L24.3 120.8L24 120.5L23.8 120.3L23.6 120V119.9L23.5 119.8H23.4V119.7H23.3V119.6L23.2 119.5L23 119.3H22.9H22.8V119.2L22.7 119.1V119H22.6L22.5 118.8V118.7V118.6H22.4L22.7 118.5V118.4L22.6 118V117.8V117.7L22.5 117.3V117V116.9L22.4 116.3V116V115.9V115.8L22.3 115.5V115.2V115V114.8V114.6L22.2 114.3V114.1L22.1 113.6V113.3V113.1V112.9L22 112.2L21.9 111.7V111.2H21.5L21 111.3H20.6H20.4L20.3 110.3L20.7 110.4L20.6 110.1H20.7L21.1 110H21.5L21.7 109.9V109.5L21.6 109.2L22 109.1H22.4L22.7 109H22.9H23L22.9 108.2L23 108.1H23.2H23.3H23.6L24 108V108.1H24.1H24.2V108H24.3H24.4V107.8L24.2 107.6V107.5L24.3 107.4L24.5 107.1V106.8V106.6V106.4H24.4L24.2 106.2L24.1 106.1L24 106V105.9H23.9V105.8H24.3L25 105.7V105.1L24.9 104.5L24.8 104.2L24.6 104.1L24.1 104H23.9H23.8L23.6 103.9H23.5H23.2H23.1H23H22.9V103.8L22.8 103.7L22.6 103.5L22.1 103L22 102.9H21.9L22.2 102.1L22.3 101.8L22.5 101.2H22.9V100.9V100.8L22.8 100.6V100.1L22.7 99.9V99.5V99.4V99.3L22.6 99.2V99L22.7 98.9H22.8H22.9V98.8L23 98.7V98.6V98.5L23.2 98.2L24.6 98V97.8V97.7L24.5 97.5L24.4 96.9L24 97H23.6L23.5 97.1H23.2H23H22.9H22.8L22.4 97.2L22.3 96.9V96.6L22.2 96.5V96.4L21.8 95.9L21.7 95.8L21.6 95.9H20.9L20.8 96H20.7H20.5H20.4L19.8 96.1V96V95.9L19.9 95.8V95.7V95.6V95.5H20V95.4V95.3V95.2V95.1H20.1V95M20.1 95H20M20.1 95V94.9H20V94.8H20.1V94.7L20.2 94.6V94.5V94.4V94.3V94.2V94.1V94H20.1V93.9L20.2 93.8V93.6V93.5V93.1V92.2L20.1 90.6V90.5V90.3V90.1V90V89.7L19.9 89V88.8L19.7 88.9L19.4 89L18.8 89.2L18.7 89.3H18.6H18.5H18.4H18.3H18.2H18.1L17.9 89.2H17.8H17.7H17.6L17.5 89.1H17.4H17.3H17.2L17.1 89H17L16.9 89.1H16.8H16.7H16.6H16.5H16.4H16.3L16.2 89H16.1L16 88.9H15.9H15.8L15.7 89V89.1L15.6 89.2V89.3V89.4L15.5 89.5L15.4 89.6H15.3H15.2V89.5L15.1 89.4H15H14.9H14.8H14.7H14.6L14.5 89.3L14.4 89.4L13.9 89.2L13.6 89.1H13.5L13.4 89L13.2 88.9L12.9 88.8H12.8H12.6L12.4 88.7H12.2H12H11.9L11.8 88.8H11.7L11.6 88.9L11 88.8H10.9L10.8 88.7V88.6L10.7 88.5V88.4L10.6 88.2V88.1H10.4H10.1H9.70001H9.59998H9.5H9.29999L9.09998 88H8.90002L8.79999 87.9L8.90002 87.7L9.09998 87.5V87.4L9.20001 87.3L9.5 86.8L9.59998 86.6L10.1 85.8V85.7L11.2 86.4H11.3V85.9L11.5 85.6L11.4 85.5L11.2 85.4V85.3V85.1V85V84.9H11.3L11.5 84.7L11.9 84.6H12L12.1 84.5H12.4L12.7 84.4H12.9H13H13.1H13.3H13.4L13.6 84.3V84.2V84.1V83.8H13.5V83.7L13.4 83.6V83.4L13 82.6L12.9 82.3L12.7 81.9L12.5 81.3L12.4 80.9L12.3 80.7L12.1 80.5L11.9 80.2L11.4 79.4L11.3 79.3V79.2L11.5 79.1L11.6 79L11.7 78.9L11.8 78.8V78.3V78.2L11.9 77.7V77.3L12 76.8V76.5V76.4V76.3L12.1 76.2L12.2 75.8L12.3 75.6V75.3L12.4 75.2V75.1L12.5 74.9L12.6 74.4L12.8 73.3V72.8L12.7 72.4L12.1 72.5H12H11.9L11.7 72.4H11.6L11.5 72.3H11.4H11.3V72.2H11.2H11.1H11H10.9H10.8V72.3V72.4L10.7 72.7V72.8V73.1L10.6 73.7V73.8V73.9V74H10.5L10 73.9H9.59998L7.59998 73.7V73.6L7.5 73.5L7.40002 73.4L6.90002 73.3H6.5H6.59998V73.2V73.1H6.5V73V72.9L6.40002 72.8L6 73L5.90002 73.1H5.79999L5.70001 73L4.79999 72.6H4.70001L4.5 72.4L4.20001 72.2L4 72.1L3.70001 71.9L3.59998 71.8L3.20001 71.4L3.70001 71V70.9L3.59998 70.8L3.20001 70.3L3.40002 70.1L3.79999 69.9V69.8H3.90002V69.6L4.20001 69.5V69.4L4.5 69.3L5.29999 69V68.9L5.20001 68.8L4.79999 67.9L4.40002 68.1L4 67.3H3.90002H3.70001L3.09998 67.4V66.9L2.5 66.7L2.40002 66.4L2.5 66.3L2.40002 66.1V65.9L2.29999 65.8V65.7L2.20001 65.5V65.4L2 65.1V65L1.90002 64.8L2.29999 64.7H2.40002L2.5 64.6H2.70001L2.79999 64.5H2.90002V64.4H3.09998L3.20001 64.3H3.29999H3.40002V64.2V64.1L3.29999 64H3.5L3.90002 63.9L4 63.8L4.20001 63.7L3.5 62.9H3.59998L4 62.5L4.20001 62.4L4.29999 62.3H4.5H4.59998L4.79999 62.2H5L5.5 62.1H5.79999L6.09998 62H6.20001L6.29999 61.9L6.5 61.8L6.29999 61.4L6.20001 61.2L6.09998 60.9L6 60.8V60.7L5.90002 60.4V60.3H5.79999H5.70001H5.59998L5.20001 60.2L4.40002 60L4 59.9L3.70001 59.8H3.59998L3.09998 59.7H3H2.90002V59.6H2.79999V59.4V59.3L2.70001 59L2.59998 58.8L2.5 58.6V58.5L2.40002 58.4V58.3H2.5V58.2V58.1L2.70001 57.8V57.7V57.5L2.79999 57.4H2.90002V57.2V57L2.79999 56.8V56.6V56.5H2.90002V56.1V55.9L3 55.8V55.6V55.5L3.09998 55.1V54.7L3.20001 54.3V54L3.29999 53.7V53.3V53L3.40002 52.9V52.7V52.6L3 52.2L2.59998 51.7L2.5 51.8M2.5 51.8V51.9M2.5 51.8V51.7L2.59998 51.6L2.5 51.5H2.40002V51.4L2.5 51.1V50.5V50.1L2.29999 50L2.40002 49.3H1.70001L0.700012 49.4L0.799988 48.9V48.5L0.900024 48.2V47.9L1 47.4V46.6L1.09998 46.4V46.1L0.799988 45.9L0.700012 45.8L0.400024 45.7V45.6H0.5V45.5L0.599976 45.4V45.3L0.700012 45.2V45.1L0.799988 45V44.9L0.700012 44.8V44.6V44.5H0.599976V44.4L0.700012 44.2L0.799988 44.1V44V43.9L0.900024 43.6V43.5H1.20001L1.5 43.6H1.90002H2.20001L2.79999 43.7L2.90002 43.6L3.20001 43.3L3.29999 43.2L3.59998 43L4 42.7L4.29999 42.6L4.5 42.5L4.59998 42.2L4.90002 41.9V41.8V41.4H4L2.90002 41.3V41.2L3.40002 40L3.59998 39.5V39.4L3.79999 39.6H4.09998L4.29999 39.7L4.5 39.8L4.70001 39.9L4.79999 39.7H5H5.29999H5.79999L6.20001 39.8L6.29999 39.7V39.6V39.5H6.20001V39.4L6.09998 39.3L6 39.2L5.90002 39.1H5.79999L5.59998 38.8L5.5 38.7V38.6L5.40002 38.4L5.29999 38.3V38.2V38.1V37.8H5.70001L5.79999 37V36.5H6L6.20001 36.4H6.70001H7.29999H7.40002L7.29999 36.2H7.40002V36.1L7.5 36L7.40002 35.8V35.7L7.5 35.6L7.59998 35.4V35.3H7.70001L8.29999 35.2H8.40002V35.1V35H8.29999V34.9L8.20001 34.7L8.09998 34.6L8 34.3V34.1L8.09998 34L8.40002 33.7V33.6H8.5H8.59998L10.5 33L10.9 32.9L10.6 32.7V32.6L10.4 32.5V32.6V32.7H10.3H10.2V32.6H10.1L10 32.5V32.4L10.1 32.3L10.2 32.2M10.2 32.2H10.1M10.2 32.2V32.1V32H10L9.90002 31.9L9.79999 31.8L9.70001 31.6H9.59998V31.5V31.3H9.20001L9.40002 31.2L9.29999 30.9L9.20001 30.8V30.7H9.29999V30.6V30.5V30.2V29.9H8.90002L8.59998 29.5L9.20001 29.3L9.40002 29.1H9.5V28.7V28.6L9.09998 28.5H8.79999H8.5H8.40002L8.29999 28.4L8.09998 28.3L7.29999 28.9L7.09998 28.6H7L6.79999 28.4L6.59998 28.1L6.40002 27.6L6.20001 27.2V27.1V27V26.9L6.29999 26.8L6.59998 25.9L6.90002 25.3L7 25L7.20001 24.7L7.40002 24.3L7.5 24.4L7.59998 24.5L7.70001 25.1H7.79999V25.2H7.90002H8V25.3H8.09998V25.4H8.5L8.90002 25.2L9.09998 25.1V25L9.20001 24.5L9.40002 24.3L9.5 24.1L9.79999 23.9V23.7H9.90002L10.4 23.4V23.3L10.5 23.1L10.7 23H11.3L11.4 22.4L11 22.3L10.7 22.2L10.6 22.1L10.5 22L10.3 21.7L10.2 21.6L10 21.5L9.09998 20.7V20.6L9.20001 20.4L9.29999 20.2L9.40002 19.7L9.5 19.4L9.59998 19.3V19.1V19L9.5 18.9V18.8H9.59998H9.70001L10.6 18.7H10.7H10.9H11H11.1L11.2 18.8H11.3H11.4L11.6 18.9H12H12.2H12.3H12.4H12.5H12.6V18.8L12.8 18.6H12.9L13.3 18.2V18.1L13.2 18L13 17.8L12.8 17.5L12.6 17.4L12.4 17.1L12.2 16.9L12 16.7L11.8 16.4L11.7 16.3L11.5 16L11.3 15.6L11.2 15.5L10.7 14.6V14.5L10.4 14.1L10.3 13.9L10.2 13.8L9.90002 13.4L9.79999 13.2L11.4 12.1H11.5H11.6L11.8 12L11.9 11.9L12.1 11.8L12.6 11.6L13.2 11.7L14.1 12.3L14.6 12.4L15 12.1L15.8 11.6L16.6 11.1L17 10.7V10.3L17.1 9.80002L17.2 9.70001H17.3L17.5 9.60002L17.7 9.50002H17.8V9.40001L18.1 9.30002L18.3 9.20001L18.4 9.10002H18.6L18.5 8.90001V8.80002V8.70001V8.50002L18.6 8.40001L18.7 8.30002L19 8.20001L19.1 8.10002L19.4 7.90001L19.5 7.80002H19.6V7.70001V7.60002V7.50002V7.40001V7.30002H19.5V7.20001H19.6V7.10002H19.5V7.00002H19.4L19.3 6.90001H19.2V6.80002H19.1L19 6.60002V6.50002V6.40001V6.30002H18.9V6.20001L19 6.10002V6.00002H18.9H18.8V5.90001V5.80002H18.7V5.70001H18.8L18.6 5.50002V5.40001H18.5L18.3 5.00002L18.2 4.70001L18.1 4.50002L18 4.30002L18.1 4.20001V4.10002V4.00002V3.90001V3.70001V3.50002V3.20001V3.10002V3.00002V2.90001L18 2.80002V2.70001L17.9 2.60002V2.50002V2.40001V2.30002V2.10002V1.90001V1.80002H18V1.70001H17.9V1.60002V1.50002V1.20001H18.2L21.4 1.50002L22.8 1.20001L23.7 1.30002L24.5 2.20001L26 6.70001L26.6 7.60002L27.6 8.10002L29.8 8.30002L30.7 8.70001L31.9 9.50002L33.7 10.2L37.4 9.50002L39.9 10L40.3 9.70001L40.8 9.40001H41L41.5 9.20001L42 9.00002L42.1 8.80002V9.00002L42.6 10.6L42.7 11.8L43 12.5L43.3 12.8L46.3 15.1L50.8 16.4L51.6 16.6L53.3 18.2L54.4 20L54.5 20.1L55.9 21.5L57.3 21.4L60.7 21.2L61.5 20.9L62.1 20.5H62.2H62.4H62.5V20.4L62.6 20.3V20.2H62.7H62.8V20.1H62.9V20H63L63.1 19.9H63.2V19.8H63.3V19.7H63.4H63.5V19.6H63.6V19.5H63.7L63.8 19.4L63.9 19.3H64L64.2 19.2L64.4 19L64.5 18.9H64.6V18.8L64.7 18.7V18.6H64.8V18.5H64.9V18.4L65 18.3V18.2L65.1 18.1V18L65.2 17.8L65.3 17.6L65.4 17.5L65.5 17.3V17.2L65.6 17.1V17L65.7 16.9L65.8 16.8L65.9 16.7L66.1 16.6L66.2 16.4L66.4 16.3L66.6 16.1H66.7L66.9 16L68.2 17.1L68.3 17.2L71.1 24.5L72.2 26.1L73.7 27.1L75.6 27.5L77.6 27.1L79.5 26.1L81.4 25.7L83.3 26.9L84.2 27.4L87.2 27.7L87.8 28.5L88.4 30.3L89.2 33.6L90.5 36.3L92 37.4L93.8 37.9L95.8 38.8L98.5 41.4L99.5 41.8L100.9 41.9L102.4 41.6L103.9 41L105.2 40.2L105.8 39.6L106.4 39L107.9 37.5H108L108.1 37.4H108.3H108.5H108.6L108.9 37.3H109.4L110 37.2L110.3 37.1H110.4H110.5H110.6L110.9 37H111.1H111.3L112.7 37.4H112.8L115.3 38.1L115.5 38.2L116.1 38.9L115.9 40.5L115.4 41.2L115.1 41.6L113.1 42.7L112.2 43.6L111.6 45.2L111.3 46.1V46.7L111.6 48.6L112 49.4L112.6 50.9L114.6 54L117 56.8L117.5 58L117.4 59.4L116.7 62L116.6 64.8L116.4 65.3L116.3 65.4L116.2 65.5L116.1 65.6L116 65.7L115.1 66.2L114.1 67L112.5 69.6H112.3L112.2 69.7H112.1H112H111.9H111.8V69.8H111.6H111.5L111.3 69.9H111.2H111.1L111 70L110.9 70.1V70.2L110.8 70.3V70.4L110.7 70.5L110.6 70.6V70.7H110.5V70.8L110.4 70.9L110.3 71V71.1H110.2V71.2L110.1 71.3V71.4H110V71.5L109.8 71.7V71.9H109.7V72L108.5 72.8L107.1 74.2L106 76L105.8 77.1L105.6 79.3V79.4H105.5H105.3H105.1H105H104.9V79.3H104.8H104.7L104.6 79.2H104.5L104.3 79.1H104.2H104.1L103.9 79L103.7 78.9H103.5V78.8H103.4L103.2 78.9H103.1H103H102.9H102.8H102.7L102.6 79H102.5H102.3H102H101.8L101.7 79.1H101.6H101.5H101.4H101.3L101.2 79.2H101.1H100.9H100.8H100.7H100.6V79.3H100.5H100.4H100.3H100.2V79.2H100.1V79.1H100H99.9H99.8H99.7L99.6 79.2H99.5V79.3H99.4L99.3 79.4L99.2 79.5L99.1 79.6L99 79.7L98.9 79.8L98.8 79.9L98.7 80L98.5 80.2H98.4V80.3L98.2 80.4L98.1 80.5L98 80.6H97.9L97.7 80.7H97.6L97.5 80.6H97.4H97.3H97H96.9H96.7L96.5 80.5H96.4H96.3L96.2 80.4H96H95.9H95.7L95.5 80.3H95.4L95.3 80.2H95.2H95.1L95 80.1H94.9H94.8L94.7 80H94.6L94.1 79.9H94L93.5 80.3H93.4L93.2 80.4V80.5L93 80.6H92.9L93 80.7H93.1V80.8H93.2V80.9L93.3 81L93.5 80.8V80.9L93.6 81V81.1V81.2H93.5H93.4V81.3H93.5V81.4V81.5H93.4V81.6H93.3H93.2V81.7V81.8V81.9V82V82.1V82.2H93.1V82.3H93V82.4V82.5V82.6V82.7H93.1H93.2H93.3V82.8H93.2V82.9L93.1 83V83.1L93 83.2V83.3V83.4H92.9V83.5H92.8L92.7 83.6L92.6 83.7H92.5L92.6 83.8L92.7 83.9L92.8 84.1L92.9 84.2L93 84.3V84.4H93.1V84.5H93.2V84.6L93.1 86.1L93.7 87L94.8 87.7L95.7 88.6L96.4 90L96.8 91L97.3 91.8L98.5 92.3L102.5 93.2L104.3 93L104.9 93.1L105.4 93.6L106.4 94.8L107 95.1L108.1 94.5L108.6 93.8L109 93.3L109.4 92.9L109.9 92.4L111.2 92.5L112.2 93.8V95.3L112 95.4L111.9 95.6L111.5 96L111.3 96.2L111 96.6L110.6 97L110.2 97.4L109.8 97.9L109.2 98.6L108.9 99L108.5 99.4L108.3 99.6L107.8 99.5L107.6 99.4H107.5H107.4H107.3H107.2H107.1H107H106.9H106.8L106.7 99.3L106.4 99.1L106.3 99L106.1 98.9L105.8 98.8V98.7L105.5 98.6L105.2 98.4L104.9 98.2L104.7 98.1L104.3 97.8L103.9 97.6H103.8V97.5H103.7L103.5 97.4L103 97.2L102.5 97.1L102.1 97L101.7 96.8L101.3 96.6H101H100.9L100.8 96.7L100.6 96.6L100.5 96.5L100.3 96.4L99.8 96.2V96.1V96H99.7V95.9V95.8H99.6H99.5H99.4V95.9H99.3V96H99.2V96.1V96.2V96.3H99.1H99V96.4V96.5V96.6V96.7V96.8V96.9V97H99.1H99.2V97.1H99.3V97.2V97.3H99.2H99.1V97.4H99H98.9V97.3V97.2H98.8H98.7V97.3H98.6V97.4H98.7V97.5V97.6H98.8V97.7V97.8H98.7V97.9H98.6V98H98.5V98.1H98.4V98.2V98.3V98.4V98.5L97.4 99.7L96.9 100.5L96.6 101.3V101.4L96.5 101.5L96.4 101.7L96.2 102V102.1L94.9 102.6L94.5 103.2L91.4 113.5L90.9 115.4L92.9 115.3L93.2 115.1H93.3L93.5 115V115.1H93.6V115.2H93.7V115.3V115.4H93.8H93.9H94H94.1H94.2H94.3L94.4 115.3H94.5L94.6 115.4H94.7H94.8L94.9 115.5H95H95.1H95.2H95.3L95.4 115.6L95.5 115.5H95.6V115.4H95.7H95.8L95.9 115.5H96H96.1H96.2L96.3 115.4H96.4V115.3L96.5 115.2L96.9 115.3L97.8 115.4L99.9 115.6L100.4 116L100.9 116.3L101.2 116.4L102.1 117.7H102.2L102.6 119.7V120.3L102.7 120.7L102.9 121V121.3L102.7 121.9L102.2 122.1L101.8 122L101.5 122.1L101.7 123.3V123.4V123.5V123.6V123.7V123.8V123.9V124L101.8 124.1V124.2H101.9V124.3L102 124.5L102.1 124.6L102.2 124.7L102.3 124.8L102.8 125.1L103.1 125.2L104.3 127.8L104.8 129.7L104.9 130.1L105.1 130.6L105.2 130.8L105.3 130.9V131V131.1V131.2H105.4V131.3L105.5 131.4L105.6 131.5L104.5 132.6L103.7 133.7L102.6 134.6L101.5 135.5L100.2 136.6L103.7 138.8L104.7 138.7L105 138.6H104.9V138.7V138.9V139H105V139.1V139.2H105.1V139.3H105V139.4H105.1L105.2 139.3V139.4V139.5H105.3H105.4V139.4H105.5H105.6H105.7V139.3H105.8L105.7 139.2H105.8V139.1V139H105.9V138.9H106H106.1V138.8H106.2V138.7H106.1V138.6H106V138.5H106.1M106.1 138.5V138.4M106.1 138.5H106.2V138.4H106.3V138.3V138.2V138.1L107.3 137.7L108.4 138L109.2 139.2L109 140.7L108.4 142.1L107.8 142.7H107.4L107.1 142.6H106.8H106.6H106.5V143.2L106.4 143.9L105.1 145L104.1 146.1L101.6 150.9L101 152.3L100.9 154.1L101.1 154.8L101.2 155L101.6 156.4V156.8L101.5 156.7V156.8H101.4H101.3V156.7H101.2H101.1V156.8H101H100.9H100.8H100.7H100.6H100.5H100.4H100.3H100.2H100L99.8 156.9H99.7L99.6 156.8H99.5L99.4 156.9H99.3H99.1H99H98.9H98.8H98.7H98.6H98.5H98.4H98.2V157H98.3V157.1V157.2V157.3H98.4V157.4H98.5V157.5V157.6V157.7H98.3L97.8 158.1L97.4 158.8L97.5 159.2L97.9 159.6L98.4 160.4L99.1 162.1L99.2 162.8L99.1 164L98.9 164.6L98.4 165.7L98.3 166.4V166.9L98.5 168V168.4L98.3 169.7H98.2H98.1H98V169.6H97.9M97.9 169.6V169.7M97.9 169.6H97.8H97.7H97.6H97.5V169.7V169.8V169.9V170V170.1V170.2L97.6 170.4V170.6V170.7V170.9V171V171.1V171.2V171.4V171.5H97.5H97.4H97.3V171.4H97.2V171.5H97.1V171.6L97 171.8L96.9 171.9L96.8 172L96.7 172.3L96.5 172.6L96.4 172.8H96.3V172.9H96.2H96.1H96V172.8H95.9H95.7H95.6H95.5H95.3H95L94.6 172.7H94.3L93.8 172.6H93.5H93.3H92.9L92.3 172.5H92L91.6 172.2H91.5H91.4V172.1H91.3L91.2 172.2V172.1H91.1L91 172H90.9L90.8 172.1V172H90.7H90.6H90.5V172.1H90.4L89.9 172.2H89.8H89.6H89.4H89.3H89.2H89H88.8H88.5H88.2H87.8H87.7H87.6H87.5V172.3H87.4V172.4L87.3 172.5H87.2V172.6H87.1H87V172.7H86.9V172.8H86.8H86.7H86.6V172.9H86.3H86.2V172.8L86 172.5L85.9 172.6L85.7 172.7L85.5 172.9L85.3 173V173.1L85 172.7L84.7 172.3L84.3 171.9L83.8 171.3L83.3 170.6L83.2 170.5V170.4H83.1H83V170.5H82.9H82.8H82.7H82.6H82.5H82.4V170.6H82.3V170.7H82.2V170.8H82.1H82H81.9V170.9H81.8V171H81.7H81.6H81.5V170.9V170.8H81.4H81.3V170.9H81.2V171L81.1 171.1V171.2L81 171.4L80.9 171.6V171.7V171.8V171.9V172V172.1H80.8H80.7H80.6V172.2H80.5L80.4 172.3V172.4L80.3 172.5H80.2V172.6H80.1H80H79.9H79.8V172.5V172.4L79.7 172.3L79.6 172.2L79.5 171.9L79.4 171.6L79.3 171.4L79.2 171.2L79.1 170.9L78.9 170.5L78.7 170L78.6 169.6H78.5H78.4H78.1L77.8 169.5H77.5H77.2H77H76.9H76.8L76.6 169.6H76.7V169.7V169.8V169.9H76.6H76.5H76.4H76.1H75.9H75.6H75.4H75.2H75H74.6H74.5H74.2H74.1H74H73.7H73.6H73.5H73.4H73.3H73H72.8H72.4H72.1H71.8H71.3H71.2V170H71.1L71 170.1V170.2V170.3V170.4H70.9V170.5V170.6H70.8L70.9 170.7V170.8V170.9H70.8H70.7H70.5H70.2H70.1H69.8H69.5H69.1H68.7H68.5H68.4H68.3H68.2H68.1V171L68 171.1H67.9V171.2V171.3H67.8V171.4H67.7M67.7 171.4V171.5" stroke="white" stroke-width="0.5" stroke-linecap="round" stroke-linejoin="round"/>
</g>
</svg>
