<svg width="202" height="133" viewBox="0 0 202 133" fill="none" xmlns="http://www.w3.org/2000/svg">
<g id="UA12">
<path d="M104.2 4.10001H104.3H104.4L104.6 4H104.7H104.8H104.9L105 3.89999H105.1L105.2 3.79999H105.3H105.4H105.5V3.70001L105.6 3.60001V3.5V3.39999V3.29999H105.7V3.20001L105.8 3.10001V3V2.89999V2.79999V2.70001V2.60001L105.7 2.5V2.39999V2.29999H105.8V2.20001H105.9V2.10001H106V2.20001H106.1V2.29999H106.2V2.20001H106.3H106.4V2.29999V2.39999H106.5L106.6 2.5H106.7L106.8 2.60001H106.9L107 2.70001L106.8 2.89999L106.9 3.5L107.1 3.39999L107.3 3.29999V3.39999V3.5V3.60001V3.70001V3.79999H107.2V3.89999V4H107.1V4.10001V4.20001V4.29999L107.2 4.39999V4.5V4.60001H107.3V4.70001H107.4V4.79999L107.5 4.89999H107.6V4.79999V4.70001V4.60001V4.5V4.39999V4.29999H107.7V4.20001H107.8V4.10001V4H107.9V3.89999L108 3.79999H108.1V3.70001H108.2H108.3L108.4 3.60001H108.5H108.6H108.7V3.70001H108.8V3.60001H108.9L109 3.5H109.1V3.39999H109.2H109.3V3.29999V3.20001L109.4 3.10001H109.5V3.20001V3.29999V3.39999H109.6L109.7 3.5H109.8V3.39999L109.7 3.29999H109.8L109.9 3.39999H110V3.5H110.1H110.2V3.60001V3.70001H110.1H110V3.79999H109.9V3.89999H110V4H110.1H110.2L110.3 4.10001H110.4H110.5V4.20001H110.6H110.7V4.10001H110.8H110.9V4H111V3.89999V3.79999H111.1V3.70001L111.2 3.60001V3.5H111.3V3.39999L111.4 3.29999H111.6H111.7H111.9H112H112.1V3.39999H112.2H112.3V3.5L112.4 3.39999H112.5V3.29999H112.6L112.7 3.20001H112.8V3.29999V3.39999H112.9H113H113.1V3.5L113.2 3.60001V3.70001L113.3 3.79999H113.4H113.5H113.6L113.7 3.89999L113.8 4L113.9 4.10001V4.20001H113.8H113.7H113.5H113.4H113.3H113.2L113.1 4.29999H113H112.9V4.39999V4.5H112.8V4.60001L112.9 4.70001H112.8V4.79999V4.89999L112.9 4.79999V4.89999V5V5.10001H113H113.1H113.2H113.3V5.20001H113.4V5.29999H113.5V5.20001H113.6L113.7 5.29999L114.1 5.60001L114.2 5.70001H114.3L114.5 5.79999L114.6 5.89999H114.7V6H114.8V6.10001H114.7L114.6 6.20001L114.4 6.10001H114.3H114.2H114.1L114 6.20001H113.9V6.29999H113.8V6.39999H113.9V6.5V6.70001L113.7 6.60001H113.6H113.4H113.3L113.2 6.70001L113.1 6.79999V6.89999H113H112.9V7V7.10001H112.8V7.20001L112.9 7.29999H113V7.39999H113.1H113.2H113.3H113.4H113.5H113.6H113.7H113.8H113.9L114 7.5H114.3H114.4L114.5 7.60001V7.70001V7.79999V7.89999V8H114.6V7.89999H114.7V8H114.8H114.9V7.89999V7.79999H115V7.70001V7.60001L115.1 7.5V7.39999H115.2V7.29999L115.3 7.20001V7.10001V7H115.4H115.5H115.6V7.10001H115.7V7.20001H115.8H115.9L116 7.10001H116.1L116.2 7H116.3V7.10001V7.20001V7.29999V7.39999V7.5V7.60001H116.4V7.70001H116.5V7.60001H116.6H116.7L116.8 7.70001V7.79999L116.9 7.89999V8V8.10001L116.8 8.20001V8.29999L116.9 8.39999V8.5H117L117.1 8.60001L117.2 8.70001V8.79999H117.3H117.4V8.70001V8.60001V8.5V8.39999V8.29999L117.5 8.39999H117.6V8.5H117.5V8.60001V8.70001V8.79999H117.6V8.70001H117.7V8.60001V8.5H117.8H117.9H118V8.39999L118.1 8.5V8.60001H118.2V8.70001H118.3V8.79999H118.4V8.89999H118.5H118.6V8.79999V8.70001H118.7H118.8V8.79999V8.89999H118.9V9H119V9.10001V9.20001V9.29999V9.39999V9.5H119.1V9.60001V9.70001V9.79999H119V9.89999H118.9H118.8V10V10.1V10.2H118.7V10.1L118.6 10.2V10.3H118.5V10.4H118.6H118.7V10.5H118.8H118.9H119V10.6H119.1H119.2V10.5H119.3V10.6L119.4 10.7V10.8H119.5V10.9H119.6V11H119.7V10.9H119.8V11H119.9H120H120.1L120.2 11.1V11.2V11.3H120.3V11.4H120.4H120.5L120.6 11.5V11.6H120.7V11.7H120.6V11.8L120.5 11.9H120.4H120.3V12H120.4V12.1H120.5V12.2V12.3H120.6H120.7V12.4H120.8H120.9V12.5H121V12.6H121.1H121.2H121.3H121.4H121.5H121.6H121.7V12.7H121.9L122 12.8L122.1 12.9V13H122.2L122.3 13.1V13.2H122.4L122.5 13.3V13.4H122.6V13.5V13.6H122.7L122.8 13.7H122.9L123 13.6H123.1H123.2V13.5H123.3H123.4V13.4H123.5V13.5H123.6V13.6H123.7H123.8V13.7V13.8H123.7H123.6V13.9V14H123.7V14.1V14.2V14.3H123.6L123.5 14.2L123.4 14.3H123.5V14.4V14.5H123.6H123.7V14.6L123.8 14.7H123.9V14.8H124H124.1H124.2V14.7H124.3V14.6L124.4 14.7L124.5 14.8H124.6V14.7H124.7V14.8L124.8 14.9H124.9V14.8V14.7H125H125.1V14.8H125.2H125.3V14.9H125.4V15V15.1H125.3V15.2H125.2V15.3V15.4H125.3V15.5H125.4H125.5V15.6L125.6 15.7H125.7L125.8 15.8H125.9V15.9H126H126.1H126.2H126.3H126.4V16H126.5V16.1V16.2L126.3 16.4V16.5V16.6H126.4L126.5 16.7H126.6H126.7L126.8 16.6L126.9 16.7H127V16.8L127.1 16.9L127.2 17V17.1V17.2L127.3 17.3V17.4H127.4H127.5V17.3H127.6L127.7 17.2H127.8H127.9V17.3H128V17.4H127.9H127.8V17.5V17.6V17.7H127.7V17.8L127.8 17.9L127.9 17.8L128 17.7L128.1 17.6H128.2L128.3 17.5V17.4H128.4V17.5H128.5H128.6L128.7 17.4L128.8 17.3L128.9 17.2V17.1H129.1L129.2 17.3V17.4H129.3L129.6 17.5L130 17.6H130.1V17.5V17.4L130 17.3V17.2V17.1H130.1H130.2H130.3H130.4L130.5 17.2V17.3H130.6V17.4V17.5H130.7H130.8L130.9 17.6H131H131.1H131.2H131.3L131.4 17.5H131.5V17.6V17.7L131.6 17.8H131.7V17.7H131.8V17.6V17.5H131.9L132 17.4H132.1V17.5H132.2V17.6H132.1V17.7V17.8H132.2H132.3L132.4 17.7H132.5V17.6V17.5V17.4H132.6V17.3V17.2H132.7H132.8V17.1V17V16.9L132.7 16.8H132.8V16.7L132.9 16.8V16.9H133L133.1 17V16.9H133.2V16.8H133.3H133.4V16.9V17V17.1H133.5V17.2H133.6H133.7H133.8H133.9V17.1H134V17.2H134.1H134.2H134.3V17.1H134.4H134.5H134.6H134.7H134.8H134.9H135V17.2V17.3H134.9V17.4V17.5V17.6H134.8V17.7V17.8V17.9V18L134.9 18.1V18.2V18.3L135.1 18.6H135.4H135.5H135.6H135.7H135.8V18.3V18.2H135.7V18.1H135.8V18H135.9V17.9V17.8H136H136.1H136.2H136.3H136.4H136.5V17.7H136.6V17.8H136.7V17.9V18V18.1V18.2H136.8V18.1H136.9V18H137V17.9H137.1H137.2H137.3H137.4V18H137.5H137.6V17.9H137.7V18H137.8H137.9V18.1H138H138.1V18.2H138.2H138.3V18.3H138.4V18.4V18.5V18.6V18.7L138.3 18.8V18.9H138.2V19L138.3 19.1V19.2H138.4V19.3V19.4H138.3V19.5H138.2V19.6H138.1V19.7H138.2V19.8V19.9V20H138.3V20.1H138.4V20.2L138.5 20.1V20V19.9H138.4V19.8L138.5 19.7H138.6V19.8V19.9H138.7H138.8H138.9H139L139.1 19.8L139.2 19.7H139.3V19.6V19.5H139.4V19.4V19.3H139.3V19.2V19.1H139.2V19L139.3 18.9V18.8H139.4V18.7L139.5 18.6V18.5H139.6V18.4H139.7V18.3H139.8H139.9V18.4V18.5H140H140.1H140.2V18.4V18.3H140.3L140.4 18.4L140.5 18.5V18.6H140.6V18.7L140.5 18.8V18.9H140.4V19L140.5 19.1H140.6V19.2V19.3V19.4H140.5V19.5V19.6H140.6V19.7H140.7H140.8H140.9H141L141.1 19.8H141.2H141.3H141.4H141.5V19.7H141.6V19.6L141.5 19.5V19.4V19.3H141.6V19.2H141.7H141.8L141.9 19.3H142V19.4H142.1V19.5H142.2V19.6H142.3V19.7H142.4H142.5L142.6 19.6H142.7V19.5H142.8V19.4V19.3V19.2H142.9H143V19.3H143.1H143.2V19.4V19.5V19.6L143.1 19.7V19.8V19.9H143.2V20H143.3L143.5 20.1H143.6H143.7V20.2L143.6 20.3V20.4H143.5H143.3H143.2V20.5V20.6V20.7V20.8H143.3V20.9H143.4V21V21.1H143.5V21.2L143.6 21.3H143.7V21.4L143.8 21.3H143.9H144V21.4H144.1V21.3H144.2H144.3V21.2H144.4V21.1L144.3 21V20.9L144.2 20.7V20.6H144.1V20.5V20.4V20.3H144.2V20.2H144.3H144.4V20.3H144.5V20.4H144.6H144.7V20.3V20.2L144.8 20.1L144.9 20L145 19.9V19.8H145.1V19.7V19.6H145.2L145.3 19.7V19.8H145.4V19.9V20H145.5V20.1L145.6 19.8L146.1 19.9H146.2L146.3 20H146.4H146.5V19.9L146.4 19.1V19L147.1 18.8H147.2V18.7L147.6 18.6L147.9 17.7L148.6 17.9H148.7H148.8V17.8H148.9H149V17.9H149.1H149.2V18H149.3V18.1V18.2H149.4H149.5H149.6V18.1V18H149.7V17.9H149.8V17.8H149.9H150H150.1V17.7H150.2H150.3L150.6 17.8V17.7H150.7L150.8 17.6H150.9V17.5H150.8V17.4H150.7V17.3H150.6H150.5V17.4H150.4H150.3V17.3V17.2H150.4V17.1V17H150.5V16.9V16.8H150.6V16.7V16.6V16.5V16.4H150.5V16.3H150.4V16.2V16.1H150.5L150.6 16V15.9V15.8H150.7L151.3 16.4L151.7 16.8L152.1 17.1L152.2 17.2L152.5 17.4L152.8 17.8L153.2 18.1V18.2L152.6 18.9L153.7 19.7L153.9 19.9L153.5 20.4L153.8 20.6L154.8 21.4L155 21.5L155.4 21.9L155.7 22.1H155.8L155.9 22.2V22.3L154.9 23.7L154.7 23.9L154.3 24.4L154.9 24.8L155.1 25L155.2 25.1L155.4 25.2L155.8 25.5L155.7 25.6L155.3 26.1L154.7 26.9L154.9 27.1L155.1 27.2L155.5 27.5L155.8 27.8H155.9L156 27.7L156.1 27.8H156.2H156.4H156.5H156.6V27.9H156.7H156.8L156.9 28L157 28.1H157.1L157.2 28.2H157.3H157.4V28.3H157.5V28.4V28.5V28.6V28.7H157.6V28.8H157.5H157.4V28.9L157.3 29V29.1V29.2H157.2V29.3V29.4H157.3V29.5V29.6V29.7H157.2V29.8V29.9V30H157.1V30.1H157V30.2V30.3H157.1V30.4H157.2V30.5H157.3V30.4H157.4V30.5H157.5H157.6H157.7H157.8H157.9V30.4H158V30.5H158.1V30.4H158.2V30.5H158.3V30.4H158.4V30.5H158.5H158.6H158.7H158.8L158.9 30.6H159L159.1 30.4H159.3L160 30.5V30.6V30.7H160.1V30.6H160.2H160.3H160.4V30.7V30.8L160.5 30.9V31L160.9 31.4L161.5 32.1L161.8 32.3H161.7L161.5 32.5L161.4 32.6L161.5 32.9L161.6 33.1L161.7 33.4V33.5L161.2 33.6H161.1L161 33.7H160.8L161.5 34.7L161.9 35L161.4 35.9L160.9 36.9L161.7 37.5L162.5 38.1L163.5 38.8L164.3 39.4L165.1 40.1L165.9 40.6L166.3 40.9L166.5 41L166.8 41.3L167.2 41.6L167.3 41.5H167.2V41.4V41.3H167.3L167.5 41.5L168.1 41.9L167.8 42.2H167.7L167.4 42.5H167.3V42.6H167.2V42.7L167.1 42.8H167.2V42.9V43V43.1H167.3V43.2V43.3V43.4H167.2V43.3H167.1V43.4H167.2V43.5H167.3V43.6H167.2V43.7V43.8H167.1V43.9H167V44V44.1V44.2V44.3H166.9V44.4L166.8 44.5V44.6H166.7V44.5H166.6L166.5 44.4H166.4V44.5V44.6V44.7V44.8L167 45.3H167.1V45.4L167.2 45.5L167.7 45.8L168.7 46.5L169.8 47.4L169.7 47.5L169.5 47.8L169.2 48.2L169 48.5L168.5 49.1L168.3 49.5L168.2 49.6L168 49.9L167.5 50.5L167.4 50.7L168.7 51.6L168.8 51.4L169.1 51L169.3 50.7L169.6 50.3L170.1 49.8L170.3 49.9L170.5 50.1L171.2 50.7L171.6 51L171.4 51.3L171.6 51.6L171.7 51.5L172.2 50.9V50.8L172.4 50.6L172.7 50.1L173.5 49.1L173 48.7L173.3 48.2L173.6 47.7L173.8 47.5L174 47.2V47.1L174.4 46.6V46.5H174.5V46.4V46.3L174.9 45.8L175 45.7L175.1 45.6L175.2 45.4L175.3 45.3L175.4 45.4H175.5H175.6V45.5H175.7H175.8H175.9L176 45.4H176.1H176.2V45.3H176.1H176H175.9H175.8H175.7H175.6H175.5L175.4 45.2H175.3L175.6 44.9L175.9 44.4L176 44.2L175.8 44.1L175.6 44H175.4H175.2L174.9 43.8V43.7H175.1H175.3L175.4 43.8L175.9 43.9H176H176.1H176.2H176.3L176.5 43.6H176.6L176.8 43.2L177.4 42.4L177.8 42L178.1 41.6V41.5L178.2 41.6L178.7 42L178.9 42.2L179.2 42.5L179.5 42.7L179.7 42.9L179.9 43L180.2 43.3L180.5 43.5L181.2 44.1L181.7 44.5L181.8 44.6H181.9H182L182.1 44.7H182V44.8V44.9H182.1V45V45.1H182.3L182.4 45.2H182.9L183 45.8V45.9L183.5 45.8V46.2L184.9 46L185.1 45.9H185.2L186 45.8L186.8 45.7V45.5L186.7 45.2L187.7 45L187.6 44.5H187.7H187.9L188.3 44.4L189 44.3H189.2V44.7L189.6 44.6H189.8L191 44.4V44.6L191.2 46.1L191.3 46.6V46.7L192.6 46.4H193L193.1 46.7H193.6H193.8H193.9H194.1H194.4V47.1V47.3L194.6 48.8L194.9 48.7H195.3V48.9H195.8H196.2L196.5 48.8H196.6H196.8H196.9H197H197.1L197.7 50.2L198.2 50.1H198.3L198.4 50.7V50.8L199.1 50.7H199.2L199.3 51.2V51.6V51.7L199.4 51.8V51.9V52.1V52.2V52.3H199.3H199L198.2 52.4V52.5H198L196.6 52.7L196.7 52.9V53.2L196.8 54.3L196.9 54.5V55L196.5 55.1H196L195.6 55.2L195.7 55.9V56.1V56.2L195.8 56.6V57.2L195.9 57.8V58.3H196.1H196.4V58.7L196.5 59.1V59.4V59.5L196.6 59.7L196.7 59.8H196.6V59.9V60V60.1V60.2H196.7V60.3V60.4H196.6H196.5V60.3H196.4V60.2H196.3V60.1H196.2H196.1H196H195.9V60.2V60.3H195.8V60.4H195.7V60.3H195.6V60.4H195.5L195.4 60.5H195.3V60.6L195.4 60.7H195.5H195.6V60.8H195.7H195.8V60.9V61H195.7L195.6 61.1H195.5H195.4H195.1L195.2 61.5V61.6V61.8V62.1L195.3 62.4V62.5V62.8L195.4 63.4L195.5 63.7V63.8V63.9H195.4V64H195.3V64.1L195.2 64.2H195.1H195H194.9V64.1H194.8V64H194.7V64.2V64.3V64.4L194.8 64.6V64.9V65.1V65.2L194.9 65.5H194.8L194.5 65.6L194.6 66L194.7 66.8V66.9L194.8 67.5L194.9 68.1V68.2V68.3L195.3 68.2H195.4L196.4 68.1L197.1 68H197.5V67.9H197.7L197.8 68.8H197.9L199.3 68.6L199.7 68.5L199.9 69.3L200 70L200.1 71.1L200.2 71.6L200.3 72.1V72.5V72.6L200.4 72.8V73.3L200.5 73.7V73.8V74L200.6 74.4L200.7 75V75.1L200.9 76.9L201 77.2H200.9L200.8 77.1H200.7H200.6H200.5V77.2H200.4H200.3H200.2H200.1H200H199.9H199.8V77.3H199.7H199.6V77.4H199.5V77.3H199.4H199.3V77.4V77.5H199.4V77.6V77.7H199.3H199.2V77.6V77.5V77.4L199.1 77.5V77.6V77.7H199H198.9V77.6V77.5V77.4H198.8V77.5V77.6V77.7H198.7V77.8V77.9H198.8H198.9V78H198.8V78.1H198.7L198.8 78.2V78.3V78.4H198.7H198.6V78.5H198.5H198.4V78.4H198.3V78.3V78.2H198.4V78.1H198.3H198.2L198.1 78.2V78.1H198L197.9 78H197.8V78.5L197.9 78.8V79.2L198 80L198.1 80.4L198.2 80.7V80.9V81V81.1V81.2V81.3L198.3 81.4V81.5V81.6V81.7V82L198.4 82.3V82.5L198.5 83V83.4L198.6 83.5V83.6V83.7V83.8L198.7 84.2V84.4L198.8 84.8V85.4L198.9 86L198.5 86.6L198.3 86.9L198.2 87.1V87.2H198V87.6L197.9 88H197.5H197.2H197V88.5L196.9 88.8V89V89.1V89.2V89.3V89.4H196.8L196.7 89.3H196.5V89.2H196.4V89.1L196.3 89H196.2H196.1L196 89.1V89.2H195.9H195.8H195.7H195.6H195.5H195.4V89.1H195.3V89H195.2L195.1 88.9H195V88.8H194.9H194.8H194.7L194.6 88.7V88.6H194.5V88.5V88.4H194.4V88.3H194.3V88.2V88.1V88V87.9H194.2H194.1V88H194V88.1H193.9V88.2H193.8H193.7H193.6V88.1H193.5V88H193.4H193.3V88.1V88.2V88.3H193.2H193.1V88.2H193H192.9V88.3H192.8H192.7V88.2V88.1H192.6V88H192.5L192.4 87.9V87.8H192.3V87.7H192.2H192.1V87.8V87.9V88H192H191.9V88.1H191.8V88.2H191.7H191.6H191.5V88.1H191.4H191.3H191.2V88H191.3V87.9H191.2H191.1V87.8L191.2 87.7V87.6V87.5V87.4H191.3V87.3H191.4H191.5V87.2H191.4V87.1V87H191.3H191.2V86.9H191.1V87H191V86.9V86.8H191.1V86.7H191H190.9H190.8H190.7H190.6H190.5V86.6H190.4V86.5V86.4H190.3V86.3V86.2V86.1V86V85.9H190.2V85.8H190.1V85.7V85.6H190V85.5H189.9H189.8V85.6V85.7H189.7V85.8V85.9H189.6H189.5V85.8H189.4V85.7H189.3H189.2H189.1L189 85.6V85.5H188.9V85.4H188.8H188.7H188.6H188.5H188.4H188.3H188.2H188.1V85.3L188 85.2H187.9V85.1H187.8V85H187.7V85.1L187.6 85H187.5H187.4V85.1L187.3 85.2V85.3H187.2L187.1 85.2V85.1V85H187V84.9H186.9V84.8H186.8V84.7V84.6H186.9V84.5V84.4H186.8H186.7V84.3H186.6V84.4H186.5V84.5V84.6V84.7H186.4H186.3V84.6H186.2V84.7H186.1H186H185.9H185.8V84.8H185.9V84.9H186V85H186.1V84.9H186.2V84.8H186.3H186.4V84.9H186.5L186.6 85H186.5V85.1H186.6V85.2H186.5H186.4V85.1H186.3V85.2L186.2 85.3H186.1V85.2H186V85.1H185.9V85.2H185.8V85.3H185.7V85.2H185.6H185.5H185.4V85.3V85.4H185.5L185.6 85.3V85.4H185.7L185.6 85.5V85.6H185.5V85.5H185.4V85.4H185.3V85.5L185.2 85.6V85.7H185.1V85.6H185V85.5H184.9V85.4H184.8H184.7V85.3H184.6H184.5V85.2V85.1H184.4H184.3H184.2V85H184.1V85.1H184V85.2L184.1 85.3H184.2V85.4V85.5H184.1H184H183.9V85.6H183.8L183.7 85.7H183.6H183.5L183.4 85.6H183.3V85.7V85.8H183.4V85.9L183.3 86H183.2V85.9H183.1V85.8L183 85.9V86L183.1 86.1H183.2H183.3V86.2V86.3L183.2 86.4V86.5V86.6H183.3V86.7V86.8V86.9V87V87.1H183.2H183.1H183H182.9V87.2V87.3H183V87.4H183.1V87.5H183.2V87.6L183.3 87.7V87.8V87.9H183.4L183.3 88H183.2V88.1L183.1 88.2L183 88.3L182.9 88.4V88.5V88.6H182.8V88.7H182.7V88.8V88.9L182.8 89H182.9V89.1H183V89.2L183.1 89.3V89.4H183.2V89.5L183.3 89.6V89.7V89.8H183.4V89.9V90V90.1V90.2H183.5V90.3V90.4H183.4V90.5H183.3V90.6H183.2H183.1V90.7H183H182.9H182.8V90.8H182.7H182.6L182.5 90.9H182.4V91V91.1H182.5L182.6 91.2V91.1H182.7H182.8L182.9 91.2L183 91.3V91.4H183.1V91.5L183.2 91.6V91.7H183.3V91.8V91.9H183.2H183.1H183H182.9V92H182.8V92.2V92.3L182.9 92.7L183 93.5L183.1 94L183.2 94.6L183.3 95.2L183.6 95.1H183.9L184.5 94.9H185L185.1 94.8H185.4H185.5L185.6 95.5V95.8L185.7 96.1L185.8 96.4V96.6L185.9 97L186 97.9H185.9L185.3 98L184.9 98.1L184.5 98L184.3 97.9L183.9 97.8H183.7H183.6H183.5V98L183.6 98.6H183.3L183.2 98.7H183.1H183H182.9H182.8H182.7L182.5 98.8H182.4H182.2H182.1L181.3 98.9L181.1 99V99.1V99.3L181.2 99.7L181.3 100.1V100.3V100.4V100.5L181.4 101.1L182.8 100.9L182.9 101.6L183 102.2L183.1 102.3L183.2 103.1V103.4L182.8 103.5L182.4 103.6L182.2 103.7L181.6 103.8L180.7 104L180.6 104.1L180 104.2V104.3V104.4L180.1 104.6V104.8H179.7H179.6L179 104.9L178.5 105L177.9 105.1H177.7H177.6H177.4H177.3H176.9H176.5H176.4H176.3H176.2L176 105H175.9V104.9H175.8H175.7H175.3V104.8H175.2H175H174.9H174.8L174.7 104.9H174.6H174.5L174.4 104.8H174.3L174.2 104.7H174.1H174H173.9V104.6H173.8H173.7H173.6L173.4 104.7H173.2H173H172.9H172.8H172.7V104.6V104.5L172.6 104.1H172.3L171.7 104H171.1H170.1L170 104.1V104.2V104.3H170.1L170.2 104.4V104.5H170.3V104.6H170.4V104.7H170.3V104.8V104.9H170.4H170.5V105V105.1H170.4V105.2V105.3H170.5V105.4H170.4L170.2 105.5H169.7L168.8 105.7V105.6L168.1 105.7L167.6 105.8V105.6V105.4L167.5 105.2L167.3 104.8L167.2 104.6L167.1 104.4H166.6L165.8 104.5H164.7H164.1H164H163.9H163.8H163.7V104.4H163.6V104.3H163.5V104.2V104.1H163.4V104.2H163.3V104.1H163.2V104V103.9V103.8L163.3 103.7L163.4 103.6V103.5L163.6 103.2V103.1V103V102.8H163.7V102.7V102.6V102.5H163.6H163.5H163.4L163 102.6H162.7V102.9L162.8 103.2H162.4H162.3L162 103.3H161.5L160.2 103.5L159.4 103.7H158.8V103.8V103.2H158.7H158.6H158.5H158.4H158.3H158.2L158.1 103.3H158H157.9H157.8H157.7H157.6H157.5H157.4V103.1L157.3 102.4L157.2 101.9L156.6 101.8L156.5 100.9L157.5 100.7H157.8V100.8L157.9 101.1L158 101.9L158.1 102.3L159 102.2L159.8 102.1L159.7 101.9V101.8H159.6V101.7V101.6L159.7 101.5V101.4L159.8 101.3V101.2V101.1L160 100.6H160.1V100.5L160.2 100.4V100.3L160.3 100.1L159.9 99.4L160.2 99.3L159.6 98.2L159.3 97.6L159.8 97.3L159.4 96.5L159.2 96.3L158.9 96.5L158.8 96.6L158.1 97L158 97.1V96.9L157.9 96.4L157.7 96L157.6 95.5L157.5 95L157.4 94.5L156.4 95H156.3L156.1 94.5L156.7 94.2L157.1 94.1L157.3 94V93.9L157.1 93.2L157 92.5L156.9 91.9L156.8 91.8H156.7V91.7H156.4H156.3L156.2 91.6H156.1H156H155.9H155.8L155.5 90.6V90.5L157 90L156.7 88.8L156.5 88.4H156.6L156.4 87.5L154.6 88L153.9 88.2L153.3 88.4L153 88.5H152.9L152.6 88.6H152.5V88.5V88.4V88.3H152.6V88.2V88.1V88L152.7 87.9V87.8H152.8V87.7V87.6H152.9H153H153.1L153.2 87.5H153.1V87.4H153V87.3L152.9 87.2H152.8V87.1H152.7H152.6V87.2V87.3H152.5V87.4H152.4H152.3V87.3V87.2L152.4 87.1V87V86.9V86.8V86.7H152.3V86.6V86.5H152.2V86.4V86.3H152.3V86.2H152.4V86.1H152.5V86H152.6H152.7H152.8H152.9V85.9H153V85.8H152.9V85.7V85.6H153V85.5V85.4H152.9V85.3H152.8V85.4H152.7H152.6H152.5V85.3V85.2V85.1V85V84.9H152.4H152.3V84.8H152.2H152.1V84.7L152 84.8H151.9L151.7 84.9L151.4 85L150.4 85.5L150 85.6L149.8 85.7L149.1 85.9L147.6 86.2H147.4L147.2 86.3L146.9 86.4L145 86.8L144.5 86.9L144.2 85.3L144 84.7V84.4L143.9 84.3H143.8V84.4H143.7L143.6 84.5H143.5V84.6H143.4H143.3L143.2 84.7H143.1H143H142.9H142.8V84.8H142.7L142.6 84.7H142.5V84.6H142.4H142.3H142.2H142.1L142 84.5H141.8H141.7H141.6H141.5H141.4L141.5 84.6H141.2H140.9L140.8 84.7L140.5 84.2L140.3 84V83.9L140.2 83.7L140.1 83.6L139 81.8V81.7L138.8 81.3L138.6 81.5L138.4 81.6L138.3 81.7H138.1V81.8H138L137 82.4L136.3 82.8L135.3 83.3L134.5 83.8L134.2 83.9L134.1 84L133.5 84.3L132.8 84.7L132.7 84.8L132.1 85.1L131.3 85.5L130.2 86.1L129.7 86.3V86.1L129.5 84.9V84.8V84.7H129.4H129.3H129.2V84.6H129.1H129H128.9H128.8H128.7H128.6V84.5H128.5V84.6H128.4H128.3H128.2H128.1L128 84.7H127.9H127.8H127.7H127.6V84.6H127.5L127.4 84.5H127.3H127.2H127.1L127 84.4H126.9L126.8 84.3H126.7H126.6V84.2H126.5H126.4H126.3H126.2V84.1H126.1H126H125.9L125.8 84.2H125.7L124.7 84.3H124.5L124.3 83.6H124.2V83.5H124.1H124H123.9H123.8H123.7V83.4H123.6V83.3V83.2H123.5V83.3H123.4H123.3H123.2V83.2H123.1H123V83.1H122.9V83H122.8H122.7V82.9H122.6H122.5V83H122.4H122.3V82.9H122.2H122.1H122H121.9V82.8H121.8H121.7V82.7H121.6H121.5H121.4H121.3V82.8H121.2V82.7H121.1H121H120.9V82.6H120.8H120.7H120.6V82.5H120.5V82.6H120.4L120.3 82.5H120.2V82.4L120.1 82.3V82.2L120 82.1H119.8L119.7 82H119.6L119.4 81.9L119.2 81.7L119.1 81.6L118.9 81.4L118.6 81.2H118.5L118.4 81.1H118.3L118.1 81H117.9L117.6 81.1H117.5H117.2H117L116.8 81.2L116.6 81.4L116.4 81.5L116 81.6L115.6 81.7H115.5H115.4H115.2L114.9 81.5H114.8L114.7 81.4L114.6 81.3L114.5 81.2H114.4H114.3L114.2 81.3H114H113.8H113.5H113.3H113.2H113.1L112.7 81.7V81.8H112.6L112.4 81.9L112.2 82H112.1L111.9 82.1H111.8L111.6 82.2H111.5H111.1H110.9H110.8H110.5L110.2 82.1H109.9H109.8L109.4 82H109.3H109.1H108.7H108.6L108.3 82.1L108.1 82.2H108L107.8 82.3L107.7 82.5H107.6L107.4 82.6H107.3L107.2 82.7H107H106.9H106.7H106.5H106.4L106.3 82.8L106.1 82.9L106 83.1L105.7 83.4L105.5 83.6V83.8L105.4 83.9L105.3 84V84.1V84.3V84.4H105.2L105.1 84.5L104.7 84.6H104.6H104.4H104.3V84.7H104.2H104.1V84.8H104H103.9H103.8H103.7H103.6H103.5L103.4 84.9H103.3H103.2H103.1V85H103L102.7 85.1V84.9V84.8L102.6 84.6L101.2 84.8L100.2 85L99.8 85.1V84.9L99 85L98.8 84.1V83.3L99.2 83.2L99 82L97.3 82.3L97.1 81.8H96.3L96 81.9L96.1 82.4L96.2 83V83.4L96.3 83.8L96.4 84.4L96.6 85.5L96.8 86.7L97 87.8L95.3 88.1L95.2 88.2L95.3 88.6V88.9L95.4 89.4L95.5 90.1V90.2V90.7V90.9L96.1 90.7L96.3 91.2L96.4 91.7V91.8L96.5 92.4L96.6 92.9L96.7 93.2L97.2 93.1L98.5 93L98.6 93.7L98.7 93.9V94.4L98.9 95.1H98.7V95.2L98.8 95.4L98.9 96.4L99.1 96.7L99.2 96.9H99.1L98.3 97.1L97.3 97.3L97.2 96.8L97.1 96.5V96.3H96.7L96.1 96.5H95.9L95.7 96.6V97L95.8 97.3L95.9 97.8L95.6 97.9H95.5H95.3L95.1 98H94.9L94.5 98.1H94.3H94.1L93.3 98.3V98.5L93.4 98.8L93.6 99.7L93.7 100.3L93.8 100.8V100.9L93.9 101.4V101.5V101.6H94V101.7V101.8V101.9V102V102.1H94.1H94.2V102H94.3L94.4 101.9H94.5V101.8H94.6H94.7L94.8 101.7H94.9H95H95.1L95.2 101.6H95.3V101.5H95.4V101.4H95.5V101.3H95.6V101.2H95.7V101.1H95.8V101H95.9H96L96.1 100.9H96.2H96.3H96.4V101V101.1L96.5 101.2V101.3V101.5V101.8L96.6 102V102.3L96.7 102.4V102.6V102.9L96.8 103.1H96.9H97H97.1H97.2H97.3L98.1 103L98.2 103.5L98.3 103.9V104.2V104.3L98.4 104.4V104.7L98.3 104.8L98.1 104.9L97.8 105.1L97.6 105.2L97.4 105.3L97.3 105.4L97.2 105.5L97.3 106.5L97.5 107.3L97.6 108.2L97.8 109.2L97.9 109.9L98.6 109.8H98.8L99.9 109.5L101.1 109.2V109.3L101.2 110L101.3 110.3L101.5 111.4L101 111.5L101.1 112.4H100.9L101.1 113.5H100.5L99.8 113.6H99.7L99.9 114.6L100 115.1L100.1 116.1L99.3 116.3L98.5 116.4L98.7 117.2L98.8 117.8L98.9 118.4L99.1 119.4L99.9 119.3L100 119.9L100.2 121L100.3 121.7V121.8H100.4L100.3 121.9H100.2V122L100.1 122.1V122.2H100.2V122.3L100.1 122.4V122.5L100 122.6H99.9V122.5V122.4H99.8V122.5L99.7 122.4H99.6V122.5V122.6H99.7V122.7H99.8L99.9 122.8H100V122.9V123L100.1 123.2L99.9 123.3H99.8H99.6V123.4H99.9H100.1H100.2H100.3V123.5V123.6H100.4V123.7H100.5L100.6 123.9L100.4 124L100.2 124.1H100.1V124.2H100V124.3H100.1L100.5 124.1V124H100.6H100.7H100.8H100.9V124.1L101.1 124.3L101.2 124.5V124.7L101.4 125L101.5 125.4V125.5V125.6V125.7V125.8V125.9L101.4 126.1L101.3 126.3L101.1 126.6L101 126.8L100.8 126.9L100.6 127.1L100.5 127.2L100.3 127.3L100.1 127.4H100L99.7 127.6H99.6H99.5L99.3 127.7L98.8 127.8L98.4 128L98 128.1L97.6 128.2H97.2L97.1 128.3H96.9H96.6H96.4H96.3L96 128.1L95.5 127.9L95.3 127.8L95 127.7L94.9 127.6H94.8L94.6 127.4L94.1 127.1L93.8 126.9H93.7L93.4 126.8L93 126.6H92.6H92.5H92.1L91.4 126.5H90.6H90.5H90.3H90.1L89.7 126.4L89.2 126.2H89.1L88.6 126L87.9 125.7L87.6 125.6L87.1 125.4L86.7 125.2H86.4L85.8 125L85.3 124.9L84.8 124.8H84.5H84.3H83.7H83.4L83.2 124.7H82.6H82.2L81.7 124.8H81.6L81.3 124.9L80.6 125L80.5 125.1L79.8 125.3L79.5 125.4L79.2 125.5L78.9 125.7L78.7 125.8L78.3 126L78 126.1V126.2L77.8 126.3L77.6 126.4L77.4 126.6L77.2 126.7L77 126.8L76.9 126.9H76.8L76.6 127H76.4H76.3L76 127.1H75.8H75.7H75.4H75.2H75.1H74.9H74.8H74.4H74.2L74 127.2H73.9H73.8H73.6H73.5L73.4 127.3H73.3H73.1H73H72.9L72.6 127.4H72.3L72 127.5H71.9H71.8H71.7L71.4 127.6H71L70.5 127.7L70.3 127.8H70.1H69.9H69.5H69.4L69.2 127.9H69H68.7H68.6H68.5H68.4H68.2L67.9 128L67.7 128.1H67.6L67.3 128.2L67.1 128.4L66.8 128.5L66.6 128.6L66.4 128.7L66.3 128.8H66.2V128.9L65.9 129L65.7 129.2L65.6 129.3L65.4 129.4H65.3L65.2 129.5L65 129.6L64.7 129.8H64.6L64.3 129.9L64 130.1H63.7L63.4 130.2L63.3 130.3H63.1L62.7 130.4H62.6L62.3 130.5H62.2L61.9 130.6H61.7V130.7H61.6H61.5H61.3L61 130.8L60.8 130.9L60.4 131H60.1L59.9 131.1H59.7L59.5 131.2H59.2L58.8 131.3H58.3L57.9 131.4L57.5 131.5H57.1L56.7 131.6L56.4 131.7H56.1L55.7 131.8L55.3 131.9L54.8 132.1L54.1 132.2L54 132.3L53.7 132.4L53.3 132.6H53L52.8 132.4H52.6H52.5V132.5H52.4H52.3H52.2V132.6L52.1 132.5H52H51.9L51.8 132.4H51.7L51.5 132.5L50.9 132.6H50.8H50.7H50.6L50.5 132.5L50.4 132.4V132.3V132.2V132.1V132V131.5L50.3 130.8V130.5L50.2 129.5V129.4L50.1 129.3V129.2L50 129V128.9V128.8L49.9 128.7V128.6V128.5V128.4V128.3H49.8V128.2H49.7H49.6H49.5H49.4H49.3L49.2 128.3H49.1H49L48.9 128.4H48.8H48.7H48.5L48.3 128.5H48L47.5 128.6H47.4L46.3 128.8L45.5 128.9L44.4 129L42.7 129.3L41.5 129.5L40.7 129.6L39.9 129.8H39.8H39.7L38.4 130L37.8 130.1L37.3 130.2L36.5 130.3H36.2L36.1 130.4L34.9 130.6V130.5L34.8 130.3L34.6 129.3L34.5 128.4H34L33.5 128.5L32.9 128.6V129.1L32.1 129.2L31.8 127.7L31.7 127.3V127V126.9L31.8 126.8L32 126.5L32.3 126.1L32.1 125.2V125.1L33.1 124.9V124.8V124.7L32.9 123.8L32.3 123.9L32.1 122.8H31.8L31.7 121.9L31.2 122L30.6 122.1L29.8 122.3L29 122.4L28.5 122.5L28.2 122.6H27.8L27.3 122.7L26.9 122.8L26.3 122.9L26.4 123.1V123.2L26.5 123.9L26.7 124.8L26.9 126.1L26.6 126.2L26 126.3L25.2 126.4L24.9 126.5L24 126.7H23.9L23.4 126.8L23 126.9L22.4 127L21.9 127.1L21.3 127.2L20.7 127.3H20.5L19.9 127.5H19.6H19.5L19.3 127.6H19L18.8 127.7V127.8L18.9 128.1L19 128.7L19.2 128.8L19.5 129.2L19.7 129.6L20 129.9H19.9L19.7 130.1L19.3 130.3H19.2H19.1L19 130.4H18.9L18.6 130.5L18.2 130.7V130.6H18.1L17.9 130.4H18L18.1 130.3H18.2V130.2H18.3V130.1V130V129.9L18.2 129.8V129.7V129.6H18.1V129.5V129.4V129.3H18V129.2H17.9H17.8H17.7H17.6H17.5H17.4V129.1H17.3V129H17.2V128.9H17.1V128.8H17L16.9 128.7V128.6H16.8V128.5H16.7V128.4H16.6V128.3V128.2H16.5V128.1V128V127.9V127.8H16.6V127.7H16.7V127.6H16.8V127.5H16.9V127.4V127.3V127.2V127.1H17V127V126.9V126.8V126.7V126.6V126.5H16.9V126.4V126.3V126.2V126.1H16.8H16.7V126H16.6H16.5H16.4V125.9H16.3L16.2 126H16.1V126.1H16H15.9V126.2H15.8L15.7 126.3L15.6 126.4H15.5V126.5L15.4 126.6V126.7H15.3L15.2 126.8H15.1V126.9H15H14.9V127H14.8V127.1H14.7H14.6H14.5H14.4H14.3V127.2H14.2H14.1H14V127.1H13.9H13.8H13.7H13.6H13.5V127H13.4H13.3V126.9V126.8L13.4 126.7L13.5 126.6V126.5H13.6V126.4V126.3V126.2V126.1V126H13.5V125.9H13.4V125.8V125.7H13.5L13.6 125.6H13.7V125.5H13.8L13.9 125.4H14V125.3L14.1 125.2V125.1H14.2V125V124.9L14.3 124.8V124.7V124.6V124.5H14.4V124.4V124.3V124.2V124.1V124L14.3 123.9V123.8L14.2 123.7V123.6H14.1H14V123.7L13.9 123.8V123.9H13.8H13.7L13.6 124H13.5H13.4L13.3 124.1H13.2L13.1 124.2H13H12.9H12.8H12.7H12.6H12.5H12.4H12.3V124.1H12.2H12.1V124H12L11.9 123.9H11.8H11.7V124H11.6L11.5 124.1L11.4 124.2V124.3H11.3L11.2 124.4H11.1H11L10.9 124.3H10.8H10.7L8.59998 123.8L7.09998 123.5V123L7.20001 122.5V122.1L6.5 122.2L5.59998 122.3H4.5L4.20001 122.4H4.09998H3.40002L2.29999 122.5L1.70001 122.6H0.900024L0.5 122.7L0.400024 122.6V122.5V122.4V122.3V122.2V122.1L0.5 122H0.599976V121.9H0.700012L0.799988 121.8H0.900024V121.7V121.6V121.5H1V121.6H1.09998V121.7H1.20001V121.6L1.29999 121.5V121.4H1.40002V121.5V121.6H1.5V121.7H1.59998V121.6H1.70001L1.79999 121.5H1.90002V121.4V121.3H1.79999V121.2V121.1V121H1.70001V120.9H1.79999V120.8L1.90002 120.7H2H2.09998H2.29999L2.20001 120.6V120.5V120.3V120.2H2.09998V120.1V120V119.9V119.5L2 118.9L1.90002 118.8V118.4L1.79999 117.9L1.70001 117.2L1.59998 116.4L1.5 116.3L1.40002 115.6L1.29999 115L1.09998 113.3L1 112.8V112.7H1.09998L1.70001 112.6H2.09998L2.79999 112.5V112.3V112L4.09998 111.8H4.5L5 111.7L5.5 111.6H5.90002L6 111.5L5.90002 110.5L5.79999 110.1V109.7L5.20001 109.8L5.09998 109.6L5 109.1V108.6L4.90002 108.3L5.5 108.2H5.79999V107.8L5.70001 107.4L5.59998 106.6L5.5 106.2L5.40002 105.2L5.29999 104.5L6 104.4L6.5 104.3V104.2L6.40002 103.5L6.20001 102.6L6 101.4V101.1L5.90002 100.7H6L6.79999 100.5L6.70001 100L6.5 98.7L6.40002 98.4V98.2V98V97.9H6.09998L6 98H5.79999H5.70001L5.40002 98.1L5.09998 98.2H4.79999L4.70001 98.3L3.90002 98.4L3.40002 98.6H3.09998H3H2.90002V98.5H2.79999V98.4H2.70001V98.3H2.59998V98.2H2.5V98.1V98V97.9H2.40002V97.8V97.7H2.29999V97.6V97.5V97.4V97.3V97.2H2.20001V97.1V97H2.09998V96.9V96.8H2.20001L2.59998 96.7H2.70001H2.79999L2.70001 96.1V95.8L2.59998 95.7V95.3L2.5 94.6V94.4V94.3H2.40002H2.20001L2.09998 93.5V93.4L2.20001 93V92.9H2.29999H2.40002L2.5 92.8H2.59998V92.7H2.70001H2.79999V92.8H2.90002L3 92.9H3.09998L3.20001 93H3.29999L3.5 93.1H3.59998H3.70001V93H3.59998V92.9L3.5 92.8V92.5V92.4L3.59998 92.3V91.8L3.70001 91.7V91.6V91.5V91.4H3.59998V91.3V91.2L3.90002 91.1H4V91H4.09998H4.20001V90.9V90.8V90.7V90.3H4.09998V90.1V90V89.9L4 89.6H4.09998V89.5H4.20001H4.29999V89.4L4.20001 89.3H4.40002H4.5L4.90002 89.2H5.20001L5.5 89.1H5.79999L6.09998 89L7.09998 88.8H7.20001H7.59998L7.79999 88.7H7.90002H8L7.90002 88.6L7.79999 88.5V88.4H7.70001V88.3V88.2V88.1V88V87.9V87.8L7.59998 87.7L7.70001 87.6V87.5H7.79999V87.4V87.3V87.2L7.70001 87.1L8.20001 87V87.3H8.40002L8.59998 87.2H8.79999L9.20001 87.1H9.59998L9.70001 87.2V87.3L9.79999 88L9.90002 88.8L10.2 88.7L10 87.9V87.6V87.3L9.90002 87.1V86.8H9.70001L9.59998 86.1H9.90002L10.1 86H10.2V85.9L10.1 85.6L10.6 85.5H11V85.4H11.1L11.5 85.3L11.9 85.2L12.8 85.1H12.9L13.7 84.9L13.6 83.9L14.4 83.8L14.3 83.3L13.7 83.4V83.2H13.5L13.6 83.8H13.4L12.7 83.9L11.9 84H11.8H11.7V83.9V83.6L11.6 83.4V83.2V83L11.8 82.9L12.5 82.8L13.2 82.7H13.4V82.5L13.9 82.4H14H14.1V82.3V82.1L14 81.8V81.7V81.5L13.9 81.2V80.9V80.6L13.5 80.7H13.4L13.3 80L13.2 79.7L13.1 79.1L13.9 79L14.3 78.9H14.7L14.8 80L14.9 80.5L16.1 80.3L16.3 81.2V81.4L16.1 81.5L16.2 81.9V82L16.4 84.1L16.8 84.2H17.1H17.2V84.1V84H17.3V83.9L17.4 83.7V83.5H17.6V83.4V83.3V83.2V83.1V83V82.9H17.7H17.8H17.9L18 83H18.2H18.3V82.8L18.4 82.7V82.6V82.5V82.4L18.3 82.3V82.2H17.9L17.7 81.8L17.4 81.2L17.3 80.9L17.2 80.8L17.1 80.6L17.5 80.5L18 80.4H18.4V80.3L18.3 80H18.4L19.4 79.9H20.3H20.4V79.8L20.5 79.7V79.6H20.6V79.5L20.7 79.6H20.8H20.9H21H21.1H21.2H21.3H21.4H21.5V79.5L21.6 79.4H22L22.4 79.3L22.9 79.2H23.5L23.7 79.1L24.1 79H24.2L24 78.2V78V77.9V77.8L24.1 77.7V77.6L24.8 77.5L25.8 77.3L26.6 77.2L26.5 76.8L27.4 76.6V76.5L27.5 76.4V76.2V76L27.2 76.2L26.8 75.7H26.9H27H27.1L27.5 75.5L27.6 74.9V74.8V74.7L27.7 74.4L28.2 74.5H28.3L28.7 75.2V75.1L28.9 75L29 75.1L29.4 74.9L29.6 74.7V74.6V74.5V74.4L29.7 74.3L30 74.2V74.1L29.9 74L29.7 73.1V73L29.6 72.8H29.4V72.6L29.3 72L29.2 71.4L29.1 71L28.3 70.9V70.8H28.4V70.7V70.6H28.5V70.5H28.6V70.4H28.5V70.3V70.2L28.4 69.9V69.8L28.1 69.7L28.2 69.1L28.3 68.1L28.4 68V67.5L28.5 67.3V67.2V67.1L28.4 67H28.3L28.2 66.9H28.1L28 66.8H27.9H27.8H27.7L27.6 66.9H27.5H27.4H27.3H27.1L27 67H26.9H26.8H26.6H26.5V67.3L26.3 67.2L26.4 66.6L26.5 65.7L26.6 65.5H26.4H25.7L25.6 65V64.8L26.1 64.3L26.4 63.9L26.3 63.8H26.1V63.5L26.2 62.9V62.8V62.7H26.3V62.6H26.4H26.8L26.9 62.3V62.1H27H27.1H27.5L27.4 61.3H26.9V61.1L27 60.9V60.7V60.4V60V59.8V59.6V59.5L27.1 58.8V58.7V58.6L27 58.5V58.1L26.9 57.5L26.8 56.9V56.5L26.7 56.3V55.7L26.6 55.2L26.5 54.8V54.2L26.3 53.2V52.8L26.2 52.1L26.1 51.5L26.2 51.4L26.4 51.3H26.6V51.2L26.5 51.1L26.4 50.8L26.2 50.6L26.8 50.4V50.3V50L26.7 49.6L27.4 49.5L27.8 49.4V49.6L28.2 49.5V49.3L28.1 48.8L28.5 48.7H28.7L29.4 48.6L30.4 48.4L31.3 48.3L31.9 48.2L32 48.4L32.2 49.5L33.5 49.1L33.8 49V48.9L33.6 48.2V48L33.3 47.1V47L33.2 46.7V46.6L33.1 46.5V46.4H33.2L33.8 46.3L34 46.2V46.6L34.8 46.5L35 46.4H35.2L35.3 47H35.5L35.6 47.5L35.7 47.4V47.5L36.2 47.2L36.8 46.7L37 46.5L37.4 46.2L37.7 45.9L38 45.8L38.1 45.7L38.5 45.5H38.6H38.7L38.8 45.4V45.3L39.3 45.2V45.3H39.4V45.2L39.5 45.1H39.6L39.7 45.2H39.8L39.9 45.3V45.2H40V45.1H39.9V45V44.9H40L40.1 44.8H40.2H40.3L40.4 44.7V44.6H40.5H40.6V44.5H40.7H40.8L40.9 44.4V44.3V44.1L40.8 43.8L40.7 43.1H40.9V42.8H40.8H40.7V42.6L40.6 42.4V42.3L40.5 42H40.7L41.4 41.9L42.9 41.6L43 40.7V40.3V39.8V39.7H42.9L42.4 39.8L42.2 39.9L41.6 40H41.5H41.4L41.1 40.1L40.6 40.2H40.3L40.2 40.1L40.1 39.6V39.3H40L39.3 39.4L39.2 39.3L39 39.1L38.7 38.9V38.8L38.5 38.7L38.4 38.6L38.3 38.5L38.2 38.4L38 38.1L37.7 37.8L37.5 37.6H37.4L37.3 37.4L36.9 37.1L36.8 37H36.2L35.8 37.1H35.5L35.2 37.2V36.8L34.7 36.9H34.5H34.4L34.2 36.8H34.1H34V36.7H33.9H33.7L33.6 36.6L33.5 36.4V36.1L33.4 36L33.3 35.6L33.1 34.8L32.3 35.1L32.2 34.9V34.7H32L31.9 34.6V34.5V34.4H32L31.9 34.2L31.8 33.9V33.8L31.7 33.7L31.6 32.9V32.7H31.8H31.9H32V32.5L31.9 32.1V31.9L31.8 31.4L32.5 31.3L32.8 31.2L32.9 31.7L33.5 31.6L33.6 32.1L33.9 32H34.1V31.9H34.4H34.6L35.1 31.8L35.2 31.7H35.4H35.5L35.6 31.6V31.5V31.4H35.7V31.3V31.2L35.8 31.1V31L35.9 30.9L36 30.7V30.6H36.1V30.5L36.2 30.4V30.3V30.2H36.3V30.1H36.4V30L36.5 29.9L36.6 30H36.7H36.9L37 30.1L37.1 30.3L37.2 30.5L37.4 30.4L37.9 30.1H38H38.1H38.4V30.2V30.3L38.7 30.4L38.8 30.8V30.9V31L38.9 31.2V31.6L39 32.1H39.1H39.2L39.6 32H39.9V31.9V31.8H40L40.1 31.6V31.5H40.2L40.5 31.4H40.8V31.3L41.3 31.2V31.3V31.4V31.5V31.6L41.4 31.7H41.5H41.7L41.9 31.6H42.1H42.3H42.4V31.5V31.4V31.3V31.2V31.1L42.5 31H42.6H42.7H42.8H42.9L43.2 30.9H43.3L43.4 31.1V31.2V31.4L43.5 31.5V31.6V31.7V31.8V31.9L43.6 32.2V32.3V32.4V32.5V32.6H43.7V32.9L43.8 33H43.9H44L44.1 33.1H44.2V33.2V33.3H44.3V33.4V33.5H44.4L44.6 33.4H44.7H44.8H45H45.1H45.2L45.3 33.3V33.2L45.4 33.1V32.9V32.7V32.6V32.4V32.3L45.3 31.8V31.7L45.2 30.9H45.3L45.4 30.6L45.5 29.9L45.8 28.9L45.9 28.2H46V28.1H46.1H46.2H46.3L46.4 28H46.5L46.6 27.4L46.8 26.7L46.9 26L47 25.8L47.1 25.4L47.2 25V24.9L47.3 24.6V24.4V24.3V24.2L47.4 23.7L47.5 23.4V23.3L47.6 23.4L47.7 23.5V23.6L47.9 23.7L48 23.8V23.9L48.3 24.1L48.4 24.2L48.5 24.3V24.4L48.7 24.6L48.9 24.7L49.1 24.9L49.4 25H49.5H49.6H49.8H49.9H50L50.1 25.1H50.2L50.5 25.2L50.9 25.5H51L51.5 25.8L51.8 26L51.9 26.1H52.1H52.3H52.7H53L53.7 26.2L54 26.3H54.1L54.3 26.5L54.4 26.6V26.7V27.1V27.3V27.5V27.6L54.5 27.7L54.6 27.9L54.8 28L55.1 28.2L55.4 28.3L55.7 28.5L55.9 28.7L56.2 29L56.3 29.2L56.5 29.3L56.7 29.4H56.8H57H57.3L57.5 29.3H57.7L57.8 29.2H58L58.3 29.3H58.5L58.6 29.4L58.8 29.5L59 29.7L59.1 29.9L59.2 30L59.3 30.2V30.3L59.2 30.4V30.6L58.9 30.8V30.9L58.8 31.1V31.3L58.7 31.5L58.8 31.8V32.1L58.9 32.4L59.1 32.6L59.2 32.7L59.4 32.9L59.8 33.1H60L60.5 33.2H60.7H60.8L61 33.1L61.2 33L61.4 32.9H61.6H61.7L61.9 33L62 33.1L62.2 33.2L62.3 33.3L62.5 33.5L62.9 33.9L63.1 34.1L63.3 34.2L63.5 34.3L63.8 34.2H64L64.2 34.3L64.4 34.4H64.5L64.6 34.6L65.1 35L65.4 35.3L65.6 35.4L65.9 35.5H66L66.2 35.4L66.5 35.3H66.6H67L67.2 35.4H67.4L67.6 35.6L67.8 35.7V35.8L67.9 35.9V36L67.8 36.2L67.7 36.5L67.6 36.7V36.9L67.8 37H67.9V36.9L68 36.8H68.1L68.2 36.7H68.3V36.6V36.5L68.1 36.3V36.2V36.1L68.2 36H68.3H68.4V35.9H68.3V35.8H68.4H68.5H68.6V35.7L68.5 35.6V35.5V35.4H68.4V35.3L68.5 35.2H68.6H68.7V35.1V35V34.9V34.8L68.8 34.7V34.6V34.5V34.4V34.3H68.7H68.6H68.5V34.2V34.1V34H68.4V33.9V33.8V33.7H68.5H68.6L68.7 33.6H68.8H68.9H69V33.5H69.1V33.4V33.3V33.2H69.2V33.1L69.3 33H69.4L69.5 32.9H69.6V32.8H69.7V32.7H69.8V32.6H69.9V32.5H70H70.1V32.4V32.3H70L69.8 32.2V32.1H69.7L69.6 32L69.3 31.8L69.2 31.7L69 31.9L68.8 32.2H68.7V32.3H68.6H68.5H67.9V32V31.6V30.8V30.4L67.8 30.3V29.5H68.5H69.3L69.4 29.4H69.5H69.6V29.5H69.7H69.8L69.9 29.4L70 29.3V29.2H70.2H70.1H70V29.1H69.9L69.8 29H69.7H69.6H69.5V28.9H69.4H69.3H69.2H69.1L69.2 28.8V28.5V28.4V28.2V27.8V27.7H69.4H69.5H69.6H69.7V27.8H69.8V27.7H69.9V27.8V27.9V28H70V27.9H70.1H70.2L70.3 27.8V27.7H70.4V27.6H70.5V27.5V27.4V27.3V27.2V27.1V27V26.8H70.3H70.1H70H69.9H69.8H69.7L69.8 26.6V26.2V25.9V25.8L69.9 25.6L69.4 25.3L69.2 25.2L68.9 25L68.6 24.8L68.5 24.7L68.3 24.6L68.4 24.5L68.6 24.3L68.4 24.2V24.1L68.3 24H68.2V23.9L68 23.8V23.7V23.5L68.1 23.2V23.1V22.8L68.2 22.7V22.6V22.2L68.3 22.1V22V21.9V21.8L68.4 21.5V21.2L68.5 20.9L68.6 20.3L69 19.7L69.2 19.3L69.4 19L69.6 18.7L69.8 18.4L69.9 18.3V18.2L70 18.1V18L70.2 17.8L70.5 17.3L70.6 17L70.5 16.9L70.2 16.6L70.3 16.3H70.2V16.2H70.1L70 16.1H69.9H69.8L69.6 16L69.4 15.9H69.3V15.7L69.4 15.6V15.5L69.6 15.2V15.1L69.7 15L69.8 14.8L70.1 14.6L70.2 14.5H70.7L70.6 14.2V14.1L70.8 13.9L71 13.8L71.2 13.6L71.1 13.3L71 13.2L71.2 13.1L71.6 12.9L72.1 12.8L72.5 12.6L72.8 12.4L72.7 12.3L72.6 12.1L72.5 11.9L72.8 11.8L73.2 11.7L73.6 11.6L73.8 11.5L73.7 11.2L73.6 10.8L73.5 10.5V10.4L73.2 10L73.4 9.70001L73.3 9.60001V9.5V9.39999V9.29999V9.20001L73.2 8.79999V8.60001H73.1V8.5L73.2 8.60001H73.4L73.5 8.70001H73.6V8.79999H73.7L74 9.10001L74.4 9.39999L75 9.89999L75.5 10.2L75.8 10.4L76 10.6L76.2 10.7L76.3 10.8H76.4L76.3 10.7L76.5 10.5L76.7 10.3L76.8 10.1L77.2 10.4L77.6 10.7L77.8 10.8L77.9 10.9L78 11L78.2 10.9L78.3 10.7L78.4 10.6L78.5 10.4L78.6 10.3L78.9 10.2L79 10.4L79.1 10.5H79.2V10.6H79.3L79.4 10.7V10.8H79.5L79.7 11L79.8 11.1V11.2H79.9L80 11.3L80.3 11.5H80.4H80.5L80.6 11.4H80.8H80.9L81 11.5L81.1 11.4L81.3 11.2V11.3L81.8 10.9L81.7 10.8L81.6 10.6L81.7 10.5H81.6L81.5 10.3L81.3 10.1L81.5 9.70001L81.4 9.5V9.39999H81.5V9.29999H81.6H81.7V9.20001V9.10001H81.6V9V8.89999L81.7 8.79999H81.8V8.70001V8.60001V8.5L81.7 8.39999L81.9 8.29999L82 8.5L82.1 8.39999L82.2 8.5H82.3H82.4H82.5L82.6 8.60001H82.7H82.8V8.5V8.39999H82.7V8.29999V8.20001H82.6V8.10001V8V7.89999V7.79999V7.70001L82.7 7.60001L82.6 7.5H82.5V7.39999V7.29999L82.6 7.20001V7.10001H82.7H82.8H82.9V7.20001H83V7.10001H83.1L83 7.20001V7.29999V7.39999H83.1L83.2 7.29999V7.20001H83.3H83.4L83.5 7.10001V6.89999L83.8 6.70001L84.1 6.5H84.2V6.39999L84.3 6.29999H84.4V6.20001H84.5H84.6V6.10001H84.7H84.8V6.20001H84.9H85V6.10001H84.9V6H85H85.1V5.89999H85.2H85.3H85.4V5.79999H85.3V5.70001H85.4H85.5V5.60001H85.6V5.70001V5.79999H85.7V5.89999V6V6.10001V6.20001V6.29999H85.8V6.20001H85.9H86V6.29999H86.1V6.39999L86.2 6.5L86.3 6.60001L87.2 6.39999V6V5.89999V5.79999V5.70001H87.3V5.60001H87.4H87.5V5.5H87.6H87.7H87.8L87.9 5.39999L88 5.5H87.9V5.60001H88V5.70001H88.1V5.79999H88.2H88.3H88.4H88.5V5.70001H88.6H88.7V5.60001H88.8L88.9 5.5H89V5.39999L89.1 5.29999H89.2V5.20001H89.3V5.29999H89.4H89.5H89.6L89.7 5.20001L89.8 5.10001L89.9 5L90 4.89999V4.79999H90.1V4.70001V4.60001H90.2H90.3V4.70001H90.4V4.79999L90.5 4.89999H90.6H90.7V4.79999V4.70001V4.60001L91.1 4.70001H91.3L91.5 4.60001V4.39999L91.4 4.20001V4.10001L91.5 4V3.79999H91.4V3.70001H91.3V3.60001H91.2V3.5V3.39999V3.29999V3.20001H91.1V3.10001V3H91V2.89999H91.1V2.79999H91.2H91.4V2.70001V2.60001H91.5V2.70001H91.6V2.60001H91.7H91.8V2.5H91.9V2.39999V2.29999H92L91.9 2.20001H92H92.1H92.2H92.3L92.4 2.10001H92.5L92.4 2.20001V2.29999H92.5V2.20001H92.6H92.7H92.8H92.9V2.10001H93H93.1V2H93.2H93.3H93.4V2.10001H93.5V2.20001H93.4H93.3V2.29999V2.39999H93.4H93.5V2.29999H93.6V2.39999H93.5V2.5V2.60001V2.70001V2.79999V2.89999H93.6V3L93.7 2.89999H93.8H93.9V2.79999H94V2.70001V2.60001V2.5L94.1 2.39999H94.2H94.3H94.4V2.29999H94.5H94.6V2.20001V2.10001H94.5L94.4 2.20001H94.3V2.10001V2H94.4V1.89999H94.5V1.79999H94.4H94.3V1.70001V1.60001H94.2V1.5H94.1V1.39999H94.2V1.29999H94.3V1.20001H94.4H94.5L94.4 1.29999H94.5H94.6H94.7V1.20001H94.8H94.9H95H95.1L95.2 1.10001H95.3H95.4H95.5V1H95.6H95.7V1.10001H95.8H95.9H96H96.1V1.20001H96V1.29999L96.1 1.39999H96V1.5H96.1V1.60001H96.2V1.70001H96.3H96.4V1.79999H96.5H96.6H96.7H96.8H96.9H97L97.1 1.89999H97.2H97.3H97.4H97.5H97.6V2H97.7H97.8H97.9V2.10001H98V2H98.1H98.2H98.3L98.4 2.10001H98.3V2.20001V2.29999V2.39999H98.2V2.5L98.1 2.60001V2.70001H98V2.79999H97.9H97.8V2.89999H97.7V2.79999H97.5L97.3 2.70001H97.2H97.1L97 2.79999H96.9H96.8H96.7V2.89999H96.6V3H96.5V3.29999V3.39999V3.5H96.6H96.7V3.39999L96.8 3.5L97.1 3.60001L97.7 3.79999V4L98.2 4.20001L98.4 4V3.89999H98.5H98.6V3.79999V3.70001H98.7V3.79999H98.8V3.89999H98.9L99 3.79999H99.1H99.2V3.70001V3.60001H99.3L99.2 3.5V3.39999V3.20001L99.3 3V2.79999V2.70001V2.60001V2.5V2.39999V2.29999V2.20001L99.4 2.10001V2V1.89999L99.5 1.79999V1.70001V1.60001H99.6V1.5H99.7L99.8 1.60001L100 1.79999L100.2 1.5L100.3 1.39999L100.6 0.899994H100.7V1H100.8V0.899994H100.9H101H101.1L101.2 1H101.3V1.10001H101.2V1.20001V1.29999H101.1V1.39999H101.2V1.5H101.3V1.39999L101.4 1.29999V1.39999V1.5V1.60001H101.5V1.70001H101.6H101.7H101.8H101.9L102 1.79999H102.1H102.2V1.89999L102.1 2.10001L102.6 2.79999L102.7 2.70001L103 2.89999V3V3.10001H103.1L103.4 3.29999H103.5L103.6 3.39999H103.7L103.6 3.70001H103.7H103.8V3.79999H103.9H104V3.89999V4V4.10001H103.9V4.20001V4.29999H104L104.1 4.20001H104.2V4.10001Z" fill="#6F9C76"/>
<path d="M105.9 2.20001H105.8V2.29999H105.7V2.39999V2.5L105.8 2.60001V2.70001V2.79999V2.89999V3V3.10001L105.7 3.20001V3.29999H105.6V3.39999V3.5V3.60001L105.5 3.70001V3.79999H105.4H105.3H105.2L105.1 3.89999H105L104.9 4H104.8H104.7H104.6L104.4 4.10001H104.3H104.2V4.20001H104.1L104 4.29999H103.9V4.20001V4.10001H104V4V3.89999V3.79999H103.9H103.8V3.70001H103.7M105.9 2.20001V2.29999M105.9 2.20001V2.10001H106V2.20001H106.1M106.1 2.20001H106.2M106.1 2.20001V2.29999H106.2V2.20001M106.2 2.20001H106.3H106.4V2.29999V2.39999H106.5L106.6 2.5H106.7L106.8 2.60001H106.9L107 2.70001L106.8 2.89999L106.9 3.5L107.1 3.39999L107.3 3.29999V3.39999V3.5V3.60001V3.70001V3.79999H107.2V3.89999M107.2 3.89999H107.1M107.2 3.89999V4H107.1V4.10001V4.20001V4.29999L107.2 4.39999V4.5V4.60001H107.3V4.70001H107.4V4.79999L107.5 4.89999H107.6V4.79999V4.70001V4.60001M107.6 4.60001H107.5M107.6 4.60001V4.5V4.39999V4.29999M107.6 4.29999V4.20001M107.6 4.29999H107.7V4.20001H107.8V4.10001V4H107.9V3.89999L108 3.79999H108.1V3.70001H108.2H108.3L108.4 3.60001H108.5M108.5 3.60001V3.70001M108.5 3.60001H108.6H108.7V3.70001H108.8V3.60001H108.9L109 3.5H109.1V3.39999H109.2H109.3V3.29999V3.20001L109.4 3.10001H109.5V3.20001V3.29999V3.39999H109.6L109.7 3.5H109.8V3.39999L109.7 3.29999H109.8L109.9 3.39999H110V3.5H110.1H110.2V3.60001V3.70001H110.1H110V3.79999H109.9V3.89999H110V4H110.1H110.2L110.3 4.10001H110.4H110.5V4.20001H110.6H110.7V4.10001H110.8H110.9V4H111V3.89999V3.79999H111.1V3.70001L111.2 3.60001V3.5H111.3V3.39999L111.4 3.29999H111.6H111.7H111.9H112H112.1V3.39999M112.1 3.39999V3.5M112.1 3.39999H112.2M112.2 3.39999V3.5M112.2 3.39999H112.3V3.5L112.4 3.39999H112.5V3.29999H112.6L112.7 3.20001H112.8V3.29999V3.39999H112.9H113H113.1V3.5L113.2 3.60001V3.70001L113.3 3.79999H113.4H113.5H113.6L113.7 3.89999L113.8 4L113.9 4.10001V4.20001H113.8H113.7H113.5H113.4H113.3H113.2L113.1 4.29999H113M113 4.29999V4.39999H112.9M113 4.29999H112.9V4.39999M112.9 4.39999H112.8M112.9 4.39999V4.5H112.8V4.60001L112.9 4.70001H112.8V4.79999V4.89999L112.9 4.79999V4.89999V5V5.10001M112.9 5.10001V5.20001M112.9 5.10001H113H113.1H113.2H113.3V5.20001H113.4V5.29999H113.5V5.20001H113.6L113.7 5.29999L114.1 5.60001L114.2 5.70001H114.3L114.5 5.79999L114.6 5.89999H114.7V6H114.8V6.10001H114.7L114.6 6.20001L114.4 6.10001H114.3M114.3 6.10001V6.20001M114.3 6.10001H114.2H114.1L114 6.20001H113.9V6.29999H113.8V6.39999H113.9V6.5V6.70001L113.7 6.60001H113.6H113.4H113.3L113.2 6.70001L113.1 6.79999V6.89999H113M113 6.89999V7M113 6.89999H112.9V7V7.10001H112.8V7.20001L112.9 7.29999H113V7.39999H113.1H113.2H113.3H113.4H113.5H113.6H113.7H113.8H113.9L114 7.5H114.3H114.4L114.5 7.60001V7.70001V7.79999V7.89999V8H114.6V7.89999H114.7M114.7 7.89999H114.8M114.7 7.89999V8H114.8H114.9V7.89999V7.79999H115V7.70001V7.60001L115.1 7.5V7.39999H115.2V7.29999L115.3 7.20001V7.10001V7H115.4H115.5H115.6V7.10001H115.7V7.20001H115.8H115.9L116 7.10001H116.1L116.2 7H116.3V7.10001V7.20001V7.29999V7.39999V7.5V7.60001H116.4V7.70001H116.5V7.60001H116.6H116.7L116.8 7.70001V7.79999L116.9 7.89999V8V8.10001L116.8 8.20001V8.29999L116.9 8.39999V8.5H117L117.1 8.60001L117.2 8.70001V8.79999H117.3H117.4V8.70001V8.60001V8.5V8.39999V8.29999L117.5 8.39999H117.6V8.5H117.5V8.60001V8.70001V8.79999H117.6V8.70001H117.7V8.60001V8.5H117.8H117.9H118V8.39999L118.1 8.5V8.60001H118.2V8.70001H118.3V8.79999H118.4V8.89999H118.5H118.6V8.79999V8.70001H118.7H118.8V8.79999V8.89999H118.9V9H119V9.10001V9.20001V9.29999V9.39999V9.5H119.1V9.60001V9.70001V9.79999H119V9.89999H118.9H118.8V10V10.1V10.2H118.7V10.1L118.6 10.2V10.3H118.5V10.4H118.6H118.7V10.5H118.8H118.9H119V10.6H119.1H119.2V10.5H119.3V10.6L119.4 10.7V10.8H119.5V10.9H119.6V11H119.7V10.9H119.8V11H119.9H120H120.1L120.2 11.1V11.2V11.3H120.3V11.4H120.4H120.5L120.6 11.5V11.6H120.7V11.7H120.6V11.8L120.5 11.9H120.4H120.3V12H120.4V12.1H120.5V12.2V12.3H120.6H120.7V12.4H120.8H120.9V12.5H121V12.6H121.1H121.2H121.3H121.4H121.5H121.6H121.7V12.7H121.9L122 12.8L122.1 12.9V13H122.2L122.3 13.1V13.2H122.4L122.5 13.3V13.4H122.6V13.5V13.6H122.7L122.8 13.7H122.9L123 13.6H123.1H123.2V13.5H123.3H123.4V13.4H123.5V13.5H123.6V13.6H123.7H123.8V13.7V13.8H123.7H123.6V13.9V14H123.7V14.1V14.2V14.3H123.6L123.5 14.2L123.4 14.3H123.5V14.4M123.5 14.4H123.6M123.5 14.4V14.5H123.6H123.7V14.6L123.8 14.7H123.9V14.8H124H124.1M124.1 14.8V14.7M124.1 14.8H124.2V14.7H124.3V14.6L124.4 14.7L124.5 14.8H124.6V14.7H124.7V14.8L124.8 14.9H124.9V14.8V14.7H125H125.1V14.8H125.2H125.3V14.9H125.4V15V15.1H125.3V15.2H125.2V15.3V15.4H125.3V15.5H125.4H125.5V15.6L125.6 15.7H125.7L125.8 15.8H125.9V15.9H126H126.1H126.2H126.3H126.4V16H126.5V16.1V16.2L126.3 16.4V16.5V16.6H126.4L126.5 16.7H126.6H126.7L126.8 16.6L126.9 16.7H127V16.8L127.1 16.9L127.2 17V17.1V17.2L127.3 17.3V17.4H127.4H127.5V17.3H127.6L127.7 17.2H127.8H127.9V17.3H128V17.4H127.9H127.8V17.5V17.6V17.7H127.7V17.8L127.8 17.9L127.9 17.8L128 17.7L128.1 17.6H128.2L128.3 17.5V17.4H128.4V17.5H128.5H128.6L128.7 17.4L128.8 17.3L128.9 17.2V17.1H129.1L129.2 17.3V17.4H129.3L129.6 17.5L130 17.6H130.1V17.5V17.4L130 17.3V17.2V17.1H130.1H130.2H130.3H130.4L130.5 17.2V17.3H130.6V17.4V17.5H130.7H130.8L130.9 17.6H131H131.1H131.2H131.3L131.4 17.5H131.5V17.6V17.7L131.6 17.8H131.7V17.7H131.8V17.6V17.5H131.9L132 17.4H132.1V17.5H132.2V17.6H132.1V17.7V17.8H132.2H132.3L132.4 17.7H132.5V17.6V17.5V17.4H132.6V17.3V17.2H132.7H132.8V17.1V17V16.9L132.7 16.8H132.8V16.7L132.9 16.8V16.9H133L133.1 17V16.9H133.2V16.8H133.3H133.4V16.9V17V17.1H133.5V17.2H133.6H133.7H133.8H133.9V17.1H134V17.2H134.1H134.2H134.3V17.1H134.4H134.5H134.6H134.7H134.8H134.9H135V17.2V17.3H134.9V17.4V17.5V17.6H134.8V17.7V17.8V17.9V18L134.9 18.1V18.2V18.3L135.1 18.6H135.4H135.5H135.6H135.7H135.8V18.3V18.2H135.7V18.1H135.8V18H135.9V17.9V17.8H136H136.1H136.2H136.3H136.4H136.5V17.7H136.6V17.8H136.7V17.9V18V18.1V18.2H136.8V18.1H136.9V18H137V17.9H137.1H137.2H137.3H137.4V18H137.5H137.6V17.9H137.7V18H137.8M137.8 18V17.9M137.8 18H137.9V18.1H138H138.1V18.2H138.2H138.3V18.3H138.4V18.4V18.5V18.6V18.7L138.3 18.8V18.9H138.2V19L138.3 19.1V19.2H138.4V19.3V19.4H138.3V19.5H138.2V19.6H138.1V19.7H138.2V19.8V19.9V20H138.3V20.1H138.4V20.2L138.5 20.1V20M138.5 20H138.4M138.5 20V19.9H138.4V19.8L138.5 19.7H138.6V19.8V19.9H138.7H138.8H138.9H139L139.1 19.8L139.2 19.7H139.3V19.6V19.5H139.4V19.4V19.3H139.3V19.2V19.1H139.2V19L139.3 18.9V18.8H139.4V18.7L139.5 18.6V18.5H139.6V18.4H139.7V18.3H139.8H139.9V18.4V18.5H140H140.1H140.2V18.4V18.3H140.3L140.4 18.4L140.5 18.5V18.6H140.6V18.7L140.5 18.8V18.9H140.4V19L140.5 19.1H140.6V19.2V19.3V19.4H140.5V19.5V19.6H140.6V19.7H140.7H140.8H140.9H141L141.1 19.8H141.2H141.3H141.4H141.5V19.7H141.6V19.6L141.5 19.5V19.4V19.3H141.6V19.2H141.7H141.8L141.9 19.3H142V19.4H142.1V19.5H142.2V19.6H142.3V19.7H142.4H142.5L142.6 19.6H142.7V19.5H142.8V19.4V19.3V19.2H142.9H143V19.3H143.1H143.2V19.4V19.5V19.6L143.1 19.7V19.8V19.9H143.2V20H143.3L143.5 20.1H143.6H143.7V20.2L143.6 20.3V20.4H143.5H143.3H143.2V20.5V20.6V20.7V20.8H143.3V20.9H143.4V21V21.1H143.5V21.2L143.6 21.3H143.7V21.4L143.8 21.3H143.9H144V21.4H144.1V21.3H144.2H144.3V21.2H144.4V21.1L144.3 21V20.9L144.2 20.7V20.6H144.1V20.5V20.4V20.3H144.2V20.2H144.3H144.4V20.3H144.5V20.4H144.6H144.7V20.3V20.2L144.8 20.1L144.9 20L145 19.9V19.8H145.1V19.7V19.6H145.2L145.3 19.7V19.8H145.4V19.9V20H145.5V20.1L145.6 19.8L146.1 19.9H146.2L146.3 20H146.4H146.5V19.9L146.4 19.1V19L147.1 18.8H147.2V18.7L147.6 18.6L147.9 17.7L148.6 17.9H148.7H148.8V17.8H148.9H149V17.9H149.1H149.2V18H149.3V18.1V18.2H149.4H149.5H149.6V18.1V18H149.7V17.9H149.8V17.8H149.9H150H150.1V17.7H150.2H150.3M150.3 17.7V17.8M150.3 17.7L150.6 17.8V17.7H150.7L150.8 17.6H150.9V17.5H150.8V17.4H150.7V17.3H150.6H150.5V17.4H150.4H150.3V17.3M150.3 17.3H150.2M150.3 17.3V17.2H150.4V17.1V17H150.5V16.9V16.8H150.6V16.7V16.6V16.5V16.4H150.5V16.3H150.4V16.2V16.1H150.5L150.6 16V15.9V15.8H150.7L151.3 16.4L151.7 16.8L152.1 17.1L152.2 17.2L152.5 17.4L152.8 17.8L153.2 18.1V18.2L152.6 18.9L153.7 19.7L153.9 19.9L153.5 20.4L153.8 20.6L154.8 21.4L155 21.5L155.4 21.9L155.7 22.1H155.8L155.9 22.2V22.3L154.9 23.7L154.7 23.9L154.3 24.4L154.9 24.8L155.1 25L155.2 25.1L155.4 25.2L155.8 25.5L155.7 25.6L155.3 26.1L154.7 26.9L154.9 27.1L155.1 27.2L155.5 27.5L155.8 27.8H155.9L156 27.7L156.1 27.8H156.2H156.4H156.5H156.6V27.9H156.7H156.8L156.9 28L157 28.1H157.1L157.2 28.2H157.3H157.4V28.3H157.5V28.4V28.5V28.6V28.7H157.6V28.8H157.5H157.4V28.9L157.3 29V29.1V29.2H157.2V29.3V29.4H157.3V29.5V29.6V29.7H157.2V29.8V29.9V30H157.1V30.1H157V30.2V30.3H157.1V30.4M157.1 30.4H157M157.1 30.4H157.2V30.5H157.3V30.4H157.4V30.5H157.5H157.6H157.7H157.8H157.9V30.4H158V30.5H158.1V30.4H158.2V30.5H158.3V30.4H158.4V30.5H158.5H158.6H158.7M158.7 30.5V30.6M158.7 30.5H158.8L158.9 30.6M158.9 30.6V30.7M158.9 30.6H159L159.1 30.4H159.3L160 30.5V30.6V30.7H160.1V30.6H160.2H160.3H160.4V30.7V30.8L160.5 30.9V31L160.9 31.4L161.5 32.1L161.8 32.3H161.7L161.5 32.5L161.4 32.6L161.5 32.9L161.6 33.1L161.7 33.4V33.5L161.2 33.6H161.1L161 33.7H160.8L161.5 34.7L161.9 35L161.4 35.9L160.9 36.9L161.7 37.5L162.5 38.1L163.5 38.8L164.3 39.4L165.1 40.1L165.9 40.6L166.3 40.9L166.5 41L166.8 41.3L167.2 41.6L167.3 41.5H167.2V41.4V41.3H167.3L167.5 41.5L168.1 41.9L167.8 42.2H167.7L167.4 42.5H167.3V42.6H167.2V42.7M167.2 42.7H167.3M167.2 42.7L167.1 42.8H167.2V42.9V43V43.1H167.3V43.2V43.3V43.4H167.2M167.2 43.4V43.3H167.1V43.4H167.2ZM167.2 43.4V43.5H167.3V43.6H167.2V43.7V43.8H167.1V43.9H167V44M167 44H166.9M167 44V44.1V44.2V44.3H166.9V44.4L166.8 44.5V44.6H166.7V44.5H166.6L166.5 44.4H166.4V44.5V44.6V44.7V44.8L167 45.3H167.1V45.4L167.2 45.5L167.7 45.8L168.7 46.5L169.8 47.4L169.7 47.5L169.5 47.8L169.2 48.2L169 48.5L168.5 49.1L168.3 49.5L168.2 49.6L168 49.9L167.5 50.5L167.4 50.7L168.7 51.6L168.8 51.4L169.1 51L169.3 50.7L169.6 50.3L170.1 49.8L170.3 49.9L170.5 50.1L171.2 50.7L171.6 51L171.4 51.3L171.6 51.6L171.7 51.5L172.2 50.9V50.8L172.4 50.6L172.7 50.1L173.5 49.1L173 48.7L173.3 48.2L173.6 47.7L173.8 47.5L174 47.2V47.1L174.4 46.6V46.5H174.5V46.4V46.3L174.9 45.8L175 45.7L175.1 45.6L175.2 45.4L175.3 45.3L175.4 45.4H175.5H175.6V45.5H175.7H175.8H175.9L176 45.4H176.1H176.2V45.3H176.1H176H175.9H175.8H175.7H175.6H175.5L175.4 45.2H175.3L175.6 44.9L175.9 44.4L176 44.2L175.8 44.1L175.6 44H175.4H175.2L174.9 43.8V43.7H175.1H175.3L175.4 43.8L175.9 43.9H176H176.1H176.2H176.3L176.5 43.6H176.6L176.8 43.2L177.4 42.4L177.8 42L178.1 41.6V41.5L178.2 41.6L178.7 42L178.9 42.2L179.2 42.5L179.5 42.7L179.7 42.9L179.9 43L180.2 43.3L180.5 43.5L181.2 44.1L181.7 44.5L181.8 44.6H181.9H182L182.1 44.7H182V44.8V44.9H182.1V45V45.1H182.3L182.4 45.2H182.9L183 45.8V45.9L183.5 45.8V46.2L184.9 46L185.1 45.9H185.2L186 45.8L186.8 45.7V45.5L186.7 45.2L187.7 45L187.6 44.5H187.7H187.9L188.3 44.4L189 44.3H189.2V44.7L189.6 44.6H189.8L191 44.4V44.6L191.2 46.1L191.3 46.6V46.7L192.6 46.4H193L193.1 46.7H193.6H193.8H193.9H194.1H194.4V47.1V47.3L194.6 48.8L194.9 48.7H195.3V48.9H195.8H196.2L196.5 48.8H196.6H196.8H196.9H197H197.1L197.7 50.2L198.2 50.1H198.3L198.4 50.7V50.8L199.1 50.7H199.2L199.3 51.2V51.6V51.7L199.4 51.8V51.9V52.1V52.2V52.3H199.3H199L198.2 52.4V52.5H198L196.6 52.7L196.7 52.9V53.2L196.8 54.3L196.9 54.5V55L196.5 55.1H196L195.6 55.2L195.7 55.9V56.1V56.2L195.8 56.6V57.2L195.9 57.8V58.3H196.1H196.4V58.7L196.5 59.1V59.4V59.5L196.6 59.7L196.7 59.8H196.6V59.9V60V60.1V60.2H196.7V60.3V60.4H196.6H196.5V60.3H196.4V60.2H196.3V60.1H196.2M196.2 60.1V60M196.2 60.1H196.1H196H195.9V60.2V60.3H195.8V60.4H195.7V60.3H195.6V60.4H195.5L195.4 60.5H195.3V60.6L195.4 60.7H195.5H195.6V60.8H195.7H195.8V60.9V61H195.7L195.6 61.1H195.5H195.4H195.1L195.2 61.5V61.6V61.8V62.1L195.3 62.4V62.5V62.8L195.4 63.4L195.5 63.7V63.8V63.9H195.4V64H195.3V64.1L195.2 64.2H195.1H195H194.9V64.1H194.8V64H194.7V64.2V64.3V64.4L194.8 64.6V64.9V65.1V65.2L194.9 65.5H194.8L194.5 65.6L194.6 66L194.7 66.8V66.9L194.8 67.5L194.9 68.1V68.2V68.3L195.3 68.2H195.4L196.4 68.1L197.1 68H197.5V67.9H197.7L197.8 68.8H197.9L199.3 68.6L199.7 68.5L199.9 69.3L200 70L200.1 71.1L200.2 71.6L200.3 72.1V72.5V72.6L200.4 72.8V73.3L200.5 73.7V73.8V74L200.6 74.4L200.7 75V75.1L200.9 76.9L201 77.2H200.9L200.8 77.1H200.7H200.6H200.5V77.2H200.4H200.3H200.2H200.1H200H199.9H199.8V77.3H199.7H199.6V77.4H199.5V77.3H199.4H199.3V77.4V77.5H199.4V77.6V77.7H199.3H199.2V77.6V77.5V77.4L199.1 77.5V77.6V77.7H199H198.9V77.6V77.5V77.4H198.8V77.5V77.6V77.7H198.7V77.8V77.9H198.8H198.9V78H198.8V78.1H198.7L198.8 78.2V78.3V78.4H198.7H198.6V78.5H198.5H198.4V78.4H198.3V78.3V78.2H198.4V78.1H198.3H198.2L198.1 78.2V78.1H198L197.9 78H197.8V78.5L197.9 78.8V79.2L198 80L198.1 80.4L198.2 80.7V80.9V81V81.1V81.2V81.3L198.3 81.4V81.5V81.6V81.7V82L198.4 82.3V82.5L198.5 83V83.4L198.6 83.5V83.6V83.7V83.8L198.7 84.2V84.4L198.8 84.8V85.4L198.9 86L198.5 86.6L198.3 86.9L198.2 87.1V87.2H198V87.6L197.9 88H197.5H197.2H197V88.5L196.9 88.8V89V89.1V89.2V89.3V89.4H196.8L196.7 89.3H196.5V89.2H196.4V89.1L196.3 89H196.2H196.1L196 89.1V89.2H195.9H195.8H195.7H195.6H195.5H195.4V89.1H195.3V89H195.2L195.1 88.9H195V88.8H194.9H194.8H194.7L194.6 88.7V88.6H194.5V88.5V88.4H194.4V88.3H194.3V88.2V88.1V88V87.9H194.2H194.1V88H194V88.1H193.9V88.2H193.8H193.7M193.7 88.2V88.3M193.7 88.2H193.6V88.1H193.5V88H193.4H193.3V88.1M193.3 88.1H193.4M193.3 88.1V88.2V88.3H193.2M193.2 88.3V88.4M193.2 88.3H193.1V88.2H193H192.9V88.3H192.8H192.7V88.2V88.1H192.6V88H192.5L192.4 87.9V87.8H192.3V87.7H192.2H192.1V87.8V87.9V88H192H191.9V88.1H191.8V88.2H191.7H191.6H191.5V88.1H191.4H191.3H191.2V88H191.3V87.9H191.2H191.1V87.8L191.2 87.7V87.6V87.5V87.4M191.2 87.4V87.3M191.2 87.4H191.3V87.3H191.4H191.5V87.2H191.4V87.1V87H191.3M191.3 87V87.1M191.3 87H191.2V86.9H191.1V87H191V86.9V86.8H191.1V86.7H191H190.9H190.8H190.7H190.6H190.5V86.6H190.4V86.5V86.4H190.3V86.3V86.2V86.1V86V85.9H190.2V85.8H190.1V85.7V85.6H190V85.5H189.9H189.8V85.6V85.7H189.7V85.8V85.9H189.6H189.5V85.8H189.4V85.7H189.3H189.2H189.1L189 85.6V85.5H188.9V85.4H188.8H188.7H188.6H188.5H188.4H188.3H188.2H188.1V85.3L188 85.2H187.9V85.1H187.8V85H187.7V85.1L187.6 85H187.5H187.4V85.1L187.3 85.2V85.3H187.2L187.1 85.2V85.1V85H187V84.9H186.9V84.8H186.8V84.7V84.6H186.9V84.5V84.4H186.8H186.7V84.3H186.6V84.4H186.5V84.5V84.6V84.7H186.4H186.3V84.6H186.2V84.7H186.1H186H185.9H185.8V84.8H185.9V84.9H186V85H186.1V84.9H186.2V84.8H186.3H186.4V84.9H186.5L186.6 85H186.5V85.1H186.6V85.2H186.5M186.5 85.2V85.3M186.5 85.2H186.4V85.1H186.3V85.2L186.2 85.3H186.1V85.2H186V85.1H185.9V85.2H185.8V85.3H185.7V85.2H185.6H185.5H185.4V85.3V85.4M185.4 85.4H185.5L185.6 85.3V85.4H185.7L185.6 85.5V85.6H185.5V85.5H185.4V85.4ZM185.4 85.4H185.3V85.5L185.2 85.6V85.7H185.1V85.6H185V85.5H184.9V85.4H184.8H184.7V85.3H184.6H184.5V85.2V85.1H184.4H184.3H184.2V85H184.1V85.1H184V85.2L184.1 85.3H184.2V85.4V85.5H184.1H184H183.9V85.6H183.8L183.7 85.7H183.6H183.5L183.4 85.6H183.3V85.7V85.8H183.4V85.9L183.3 86H183.2V85.9H183.1V85.8L183 85.9V86L183.1 86.1H183.2H183.3V86.2V86.3L183.2 86.4V86.5V86.6H183.3V86.7V86.8V86.9V87V87.1H183.2H183.1H183H182.9V87.2V87.3H183V87.4H183.1V87.5H183.2V87.6L183.3 87.7V87.8V87.9H183.4L183.3 88H183.2V88.1L183.1 88.2L183 88.3L182.9 88.4V88.5V88.6H182.8V88.7H182.7V88.8V88.9L182.8 89H182.9V89.1H183V89.2L183.1 89.3V89.4H183.2V89.5L183.3 89.6V89.7V89.8H183.4V89.9V90V90.1V90.2H183.5V90.3V90.4H183.4V90.5H183.3V90.6H183.2H183.1V90.7H183H182.9H182.8V90.8H182.7H182.6L182.5 90.9H182.4V91V91.1H182.5L182.6 91.2V91.1H182.7H182.8L182.9 91.2L183 91.3V91.4H183.1V91.5L183.2 91.6V91.7H183.3V91.8V91.9H183.2H183.1H183H182.9V92H182.8V92.2V92.3L182.9 92.7L183 93.5L183.1 94L183.2 94.6L183.3 95.2L183.6 95.1H183.9L184.5 94.9H185L185.1 94.8H185.4H185.5L185.6 95.5V95.8L185.7 96.1L185.8 96.4V96.6L185.9 97L186 97.9H185.9L185.3 98L184.9 98.1L184.5 98L184.3 97.9L183.9 97.8H183.7H183.6H183.5V98L183.6 98.6H183.3L183.2 98.7H183.1H183H182.9H182.8H182.7L182.5 98.8H182.4H182.2H182.1L181.3 98.9L181.1 99V99.1V99.3L181.2 99.7L181.3 100.1V100.3V100.4V100.5L181.4 101.1L182.8 100.9L182.9 101.6L183 102.2L183.1 102.3L183.2 103.1V103.4L182.8 103.5L182.4 103.6L182.2 103.7L181.6 103.8L180.7 104L180.6 104.1L180 104.2V104.3V104.4L180.1 104.6V104.8H179.7H179.6L179 104.9L178.5 105L177.9 105.1H177.7H177.6H177.4H177.3H176.9H176.5H176.4H176.3H176.2L176 105H175.9V104.9H175.8H175.7H175.3V104.8H175.2H175H174.9H174.8L174.7 104.9H174.6H174.5L174.4 104.8H174.3L174.2 104.7H174.1H174H173.9V104.6H173.8H173.7H173.6L173.4 104.7H173.2H173H172.9H172.8H172.7V104.6V104.5L172.6 104.1H172.3L171.7 104H171.1H170.1L170 104.1V104.2V104.3H170.1L170.2 104.4V104.5H170.3V104.6H170.4V104.7H170.3V104.8V104.9H170.4H170.5V105V105.1H170.4V105.2V105.3H170.5V105.4H170.4L170.2 105.5H169.7L168.8 105.7V105.6L168.1 105.7L167.6 105.8V105.6V105.4L167.5 105.2L167.3 104.8L167.2 104.6L167.1 104.4H166.6L165.8 104.5H164.7H164.1H164H163.9H163.8H163.7V104.4H163.6V104.3H163.5V104.2V104.1H163.4V104.2H163.3V104.1H163.2V104V103.9V103.8L163.3 103.7L163.4 103.6V103.5L163.6 103.2V103.1V103V102.8H163.7V102.7V102.6V102.5H163.6H163.5H163.4L163 102.6H162.7V102.9L162.8 103.2H162.4H162.3L162 103.3H161.5L160.2 103.5L159.4 103.7H158.8V103.8V103.2H158.7H158.6H158.5H158.4H158.3H158.2L158.1 103.3H158H157.9H157.8H157.7H157.6H157.5H157.4V103.1L157.3 102.4L157.2 101.9L156.6 101.8L156.5 100.9L157.5 100.7H157.8V100.8L157.9 101.1L158 101.9L158.1 102.3L159 102.2L159.8 102.1L159.7 101.9V101.8H159.6V101.7V101.6L159.7 101.5V101.4L159.8 101.3V101.2V101.1L160 100.6H160.1V100.5L160.2 100.4V100.3L160.3 100.1L159.9 99.4L160.2 99.3L159.6 98.2L159.3 97.6L159.8 97.3L159.4 96.5L159.2 96.3L158.9 96.5L158.8 96.6L158.1 97L158 97.1V96.9L157.9 96.4L157.7 96L157.6 95.5L157.5 95L157.4 94.5L156.4 95H156.3L156.1 94.5L156.7 94.2L157.1 94.1L157.3 94V93.9L157.1 93.2L157 92.5L156.9 91.9L156.8 91.8H156.7V91.7H156.4H156.3L156.2 91.6H156.1H156H155.9H155.8L155.5 90.6V90.5L157 90L156.7 88.8L156.5 88.4H156.6L156.4 87.5L154.6 88L153.9 88.2L153.3 88.4L153 88.5H152.9L152.6 88.6H152.5V88.5V88.4V88.3H152.6V88.2V88.1V88L152.7 87.9V87.8H152.8V87.7V87.6H152.9H153H153.1L153.2 87.5H153.1V87.4H153V87.3L152.9 87.2H152.8V87.1H152.7H152.6V87.2V87.3H152.5V87.4H152.4H152.3V87.3V87.2L152.4 87.1V87V86.9V86.8V86.7H152.3V86.6V86.5H152.2V86.4V86.3H152.3V86.2H152.4V86.1H152.5V86H152.6H152.7H152.8H152.9V85.9H153V85.8H152.9V85.7V85.6H153V85.5V85.4H152.9V85.3H152.8V85.4H152.7H152.6H152.5V85.3V85.2V85.1V85V84.9H152.4H152.3V84.8H152.2H152.1V84.7L152 84.8H151.9L151.7 84.9L151.4 85L150.4 85.5L150 85.6L149.8 85.7L149.1 85.9L147.6 86.2H147.4L147.2 86.3L146.9 86.4L145 86.8L144.5 86.9L144.2 85.3L144 84.7V84.4L143.9 84.3H143.8V84.4H143.7L143.6 84.5H143.5V84.6H143.4H143.3L143.2 84.7H143.1H143H142.9H142.8V84.8H142.7L142.6 84.7H142.5V84.6H142.4H142.3H142.2H142.1L142 84.5H141.8H141.7H141.6H141.5H141.4L141.5 84.6H141.2H140.9L140.8 84.7L140.5 84.2L140.3 84V83.9L140.2 83.7L140.1 83.6L139 81.8V81.7L138.8 81.3L138.6 81.5L138.4 81.6L138.3 81.7H138.1V81.8H138L137 82.4L136.3 82.8L135.3 83.3L134.5 83.8L134.2 83.9L134.1 84L133.5 84.3L132.8 84.7L132.7 84.8L132.1 85.1L131.3 85.5L130.2 86.1L129.7 86.3V86.1L129.5 84.9V84.8V84.7H129.4H129.3H129.2V84.6H129.1H129H128.9H128.8H128.7H128.6V84.5H128.5V84.6H128.4H128.3H128.2H128.1L128 84.7H127.9H127.8H127.7H127.6V84.6H127.5M127.5 84.6V84.5M127.5 84.6L127.4 84.5H127.3H127.2H127.1L127 84.4H126.9L126.8 84.3H126.7H126.6V84.2H126.5H126.4H126.3H126.2V84.1H126.1H126H125.9L125.8 84.2H125.7L124.7 84.3H124.5L124.3 83.6H124.2V83.5M124.2 83.5H124.3M124.2 83.5H124.1H124H123.9H123.8H123.7V83.4H123.6V83.3V83.2H123.5V83.3H123.4H123.3H123.2V83.2H123.1H123V83.1H122.9V83H122.8H122.7V82.9H122.6M122.6 82.9V82.8M122.6 82.9H122.5V83H122.4H122.3V82.9H122.2H122.1H122H121.9V82.8H121.8H121.7V82.7H121.6M121.6 82.7V82.8M121.6 82.7H121.5M121.5 82.7V82.8M121.5 82.7H121.4H121.3V82.8H121.2V82.7H121.1M121.1 82.7V82.8M121.1 82.7H121H120.9V82.6H120.8M120.8 82.6V82.7M120.8 82.6H120.7H120.6V82.5H120.5V82.6H120.4L120.3 82.5H120.2V82.4L120.1 82.3V82.2L120 82.1H119.8L119.7 82H119.6L119.4 81.9L119.2 81.7L119.1 81.6L118.9 81.4L118.6 81.2H118.5L118.4 81.1H118.3L118.1 81H117.9L117.6 81.1H117.5H117.2H117L116.8 81.2L116.6 81.4L116.4 81.5L116 81.6L115.6 81.7H115.5H115.4H115.2L114.9 81.5H114.8L114.7 81.4L114.6 81.3L114.5 81.2H114.4H114.3L114.2 81.3H114H113.8H113.5H113.3H113.2H113.1L112.7 81.7V81.8H112.6L112.4 81.9L112.2 82H112.1L111.9 82.1H111.8L111.6 82.2H111.5H111.1H110.9H110.8H110.5L110.2 82.1H109.9H109.8L109.4 82H109.3H109.1H108.7H108.6L108.3 82.1L108.1 82.2H108L107.8 82.3L107.7 82.5H107.6L107.4 82.6H107.3L107.2 82.7H107H106.9H106.7H106.5H106.4L106.3 82.8L106.1 82.9L106 83.1L105.7 83.4L105.5 83.6V83.8L105.4 83.9L105.3 84V84.1V84.3V84.4H105.2L105.1 84.5L104.7 84.6H104.6H104.4H104.3V84.7H104.2H104.1V84.8H104H103.9H103.8H103.7H103.6H103.5L103.4 84.9H103.3H103.2H103.1V85H103L102.7 85.1V84.9V84.8L102.6 84.6L101.2 84.8L100.2 85L99.8 85.1V84.9L99 85L98.8 84.1V83.3L99.2 83.2L99 82L97.3 82.3L97.1 81.8H96.3L96 81.9L96.1 82.4L96.2 83V83.4L96.3 83.8L96.4 84.4L96.6 85.5L96.8 86.7L97 87.8L95.3 88.1L95.2 88.2L95.3 88.6V88.9L95.4 89.4L95.5 90.1V90.2V90.7V90.9L96.1 90.7L96.3 91.2L96.4 91.7V91.8L96.5 92.4L96.6 92.9L96.7 93.2L97.2 93.1L98.5 93L98.6 93.7L98.7 93.9V94.4L98.9 95.1H98.7V95.2L98.8 95.4L98.9 96.4L99.1 96.7L99.2 96.9H99.1L98.3 97.1L97.3 97.3L97.2 96.8L97.1 96.5V96.3H96.7L96.1 96.5H95.9L95.7 96.6V97L95.8 97.3L95.9 97.8L95.6 97.9H95.5H95.3L95.1 98H94.9L94.5 98.1H94.3H94.1L93.3 98.3V98.5L93.4 98.8L93.6 99.7L93.7 100.3L93.8 100.8V100.9L93.9 101.4V101.5V101.6H94V101.7V101.8V101.9V102V102.1H94.1H94.2V102H94.3L94.4 101.9H94.5V101.8H94.6H94.7L94.8 101.7H94.9H95H95.1L95.2 101.6H95.3V101.5H95.4V101.4H95.5V101.3H95.6V101.2H95.7V101.1H95.8V101H95.9H96L96.1 100.9H96.2H96.3H96.4V101V101.1L96.5 101.2V101.3V101.5V101.8L96.6 102V102.3L96.7 102.4V102.6V102.9L96.8 103.1H96.9H97H97.1H97.2H97.3L98.1 103L98.2 103.5L98.3 103.9V104.2V104.3L98.4 104.4V104.7L98.3 104.8L98.1 104.9L97.8 105.1L97.6 105.2L97.4 105.3L97.3 105.4L97.2 105.5L97.3 106.5L97.5 107.3L97.6 108.2L97.8 109.2L97.9 109.9L98.6 109.8H98.8L99.9 109.5L101.1 109.2V109.3L101.2 110L101.3 110.3L101.5 111.4L101 111.5L101.1 112.4H100.9L101.1 113.5H100.5L99.8 113.6H99.7L99.9 114.6L100 115.1L100.1 116.1L99.3 116.3L98.5 116.4L98.7 117.2L98.8 117.8L98.9 118.4L99.1 119.4L99.9 119.3L100 119.9L100.2 121L100.3 121.7V121.8H100.4L100.3 121.9H100.2V122L100.1 122.1V122.2H100.2V122.3L100.1 122.4V122.5L100 122.6H99.9V122.5M99.9 122.5H99.8M99.9 122.5V122.4H99.8V122.5M99.8 122.5L99.7 122.4H99.6V122.5V122.6H99.7V122.7H99.8L99.9 122.8H100V122.9V123L100.1 123.2L99.9 123.3H99.8H99.6V123.4H99.9H100.1H100.2H100.3V123.5V123.6H100.4V123.7H100.5L100.6 123.9L100.4 124L100.2 124.1H100.1V124.2H100V124.3H100.1L100.5 124.1V124H100.6H100.7H100.8H100.9V124.1L101.1 124.3L101.2 124.5V124.7L101.4 125L101.5 125.4V125.5V125.6V125.7V125.8V125.9L101.4 126.1L101.3 126.3L101.1 126.6L101 126.8L100.8 126.9L100.6 127.1L100.5 127.2L100.3 127.3L100.1 127.4H100L99.7 127.6H99.6H99.5L99.3 127.7L98.8 127.8L98.4 128L98 128.1L97.6 128.2H97.2L97.1 128.3H96.9H96.6H96.4H96.3L96 128.1L95.5 127.9L95.3 127.8L95 127.7L94.9 127.6H94.8L94.6 127.4L94.1 127.1L93.8 126.9H93.7L93.4 126.8L93 126.6H92.6H92.5H92.1L91.4 126.5H90.6H90.5H90.3H90.1L89.7 126.4L89.2 126.2H89.1L88.6 126L87.9 125.7L87.6 125.6L87.1 125.4L86.7 125.2H86.4L85.8 125L85.3 124.9L84.8 124.8H84.5H84.3H83.7H83.4L83.2 124.7H82.6H82.2L81.7 124.8H81.6L81.3 124.9L80.6 125L80.5 125.1L79.8 125.3L79.5 125.4L79.2 125.5L78.9 125.7L78.7 125.8L78.3 126L78 126.1V126.2L77.8 126.3L77.6 126.4L77.4 126.6L77.2 126.7L77 126.8L76.9 126.9H76.8L76.6 127H76.4H76.3L76 127.1H75.8H75.7H75.4H75.2H75.1H74.9H74.8H74.4H74.2L74 127.2H73.9H73.8H73.6H73.5L73.4 127.3H73.3H73.1H73H72.9L72.6 127.4H72.3L72 127.5H71.9H71.8H71.7L71.4 127.6H71L70.5 127.7L70.3 127.8H70.1H69.9H69.5H69.4L69.2 127.9H69H68.7H68.6H68.5H68.4H68.2L67.9 128L67.7 128.1H67.6L67.3 128.2L67.1 128.4L66.8 128.5L66.6 128.6L66.4 128.7L66.3 128.8H66.2V128.9L65.9 129L65.7 129.2L65.6 129.3L65.4 129.4H65.3L65.2 129.5L65 129.6L64.7 129.8H64.6L64.3 129.9L64 130.1H63.7L63.4 130.2L63.3 130.3H63.1L62.7 130.4H62.6L62.3 130.5H62.2L61.9 130.6H61.7V130.7H61.6H61.5H61.3L61 130.8L60.8 130.9L60.4 131H60.1L59.9 131.1H59.7L59.5 131.2H59.2L58.8 131.3H58.3L57.9 131.4L57.5 131.5H57.1L56.7 131.6L56.4 131.7H56.1L55.7 131.8L55.3 131.9L54.8 132.1L54.1 132.2L54 132.3L53.7 132.4L53.3 132.6H53L52.8 132.4H52.6H52.5V132.5H52.4H52.3H52.2V132.6L52.1 132.5H52H51.9L51.8 132.4H51.7L51.5 132.5L50.9 132.6H50.8H50.7H50.6L50.5 132.5L50.4 132.4V132.3V132.2V132.1V132V131.5L50.3 130.8V130.5L50.2 129.5V129.4L50.1 129.3V129.2L50 129V128.9V128.8L49.9 128.7V128.6V128.5V128.4V128.3H49.8V128.2H49.7H49.6H49.5H49.4H49.3L49.2 128.3H49.1H49L48.9 128.4H48.8H48.7H48.5L48.3 128.5H48L47.5 128.6H47.4L46.3 128.8L45.5 128.9L44.4 129L42.7 129.3L41.5 129.5L40.7 129.6L39.9 129.8H39.8H39.7L38.4 130L37.8 130.1L37.3 130.2L36.5 130.3H36.2L36.1 130.4L34.9 130.6V130.5L34.8 130.3L34.6 129.3L34.5 128.4H34L33.5 128.5L32.9 128.6V129.1L32.1 129.2L31.8 127.7L31.7 127.3V127V126.9L31.8 126.8L32 126.5L32.3 126.1L32.1 125.2V125.1L33.1 124.9V124.8V124.7L32.9 123.8L32.3 123.9L32.1 122.8H31.8L31.7 121.9L31.2 122L30.6 122.1L29.8 122.3L29 122.4L28.5 122.5L28.2 122.6H27.8L27.3 122.7L26.9 122.8L26.3 122.9L26.4 123.1V123.2L26.5 123.9L26.7 124.8L26.9 126.1L26.6 126.2L26 126.3L25.2 126.4L24.9 126.5L24 126.7H23.9L23.4 126.8L23 126.9L22.4 127L21.9 127.1L21.3 127.2L20.7 127.3H20.5L19.9 127.5H19.6H19.5L19.3 127.6H19L18.8 127.7V127.8L18.9 128.1L19 128.7L19.2 128.8L19.5 129.2L19.7 129.6L20 129.9H19.9L19.7 130.1L19.3 130.3H19.2H19.1L19 130.4H18.9L18.6 130.5L18.2 130.7V130.6H18.1L17.9 130.4H18L18.1 130.3H18.2V130.2H18.3V130.1V130V129.9L18.2 129.8V129.7V129.6H18.1V129.5V129.4V129.3H18V129.2H17.9H17.8H17.7H17.6H17.5H17.4V129.1H17.3V129H17.2V128.9H17.1V128.8H17L16.9 128.7V128.6H16.8V128.5H16.7V128.4H16.6V128.3V128.2H16.5V128.1V128V127.9V127.8H16.6V127.7H16.7V127.6H16.8V127.5H16.9V127.4V127.3V127.2V127.1H17V127V126.9V126.8V126.7V126.6V126.5H16.9V126.4V126.3V126.2V126.1H16.8H16.7V126H16.6H16.5H16.4V125.9H16.3L16.2 126H16.1V126.1H16H15.9V126.2H15.8L15.7 126.3L15.6 126.4H15.5V126.5L15.4 126.6V126.7H15.3L15.2 126.8H15.1V126.9H15H14.9V127H14.8V127.1H14.7H14.6H14.5H14.4H14.3V127.2H14.2H14.1H14V127.1H13.9H13.8H13.7H13.6H13.5V127H13.4H13.3V126.9V126.8L13.4 126.7L13.5 126.6V126.5H13.6V126.4V126.3V126.2V126.1V126H13.5V125.9H13.4V125.8V125.7H13.5L13.6 125.6H13.7V125.5H13.8L13.9 125.4H14V125.3L14.1 125.2V125.1H14.2V125V124.9L14.3 124.8V124.7V124.6V124.5H14.4V124.4V124.3V124.2V124.1V124L14.3 123.9V123.8L14.2 123.7V123.6H14.1H14V123.7L13.9 123.8V123.9H13.8H13.7L13.6 124H13.5H13.4L13.3 124.1H13.2L13.1 124.2H13H12.9H12.8H12.7H12.6H12.5H12.4H12.3V124.1H12.2H12.1V124H12L11.9 123.9H11.8H11.7V124H11.6L11.5 124.1L11.4 124.2V124.3H11.3L11.2 124.4H11.1H11L10.9 124.3H10.8H10.7L8.59998 123.8L7.09998 123.5V123L7.20001 122.5V122.1L6.5 122.2L5.59998 122.3H4.5L4.20001 122.4H4.09998H3.40002L2.29999 122.5L1.70001 122.6H0.900024L0.5 122.7L0.400024 122.6V122.5V122.4V122.3V122.2V122.1L0.5 122H0.599976V121.9H0.700012L0.799988 121.8H0.900024V121.7V121.6V121.5H1V121.6H1.09998V121.7H1.20001V121.6L1.29999 121.5V121.4H1.40002V121.5V121.6H1.5V121.7H1.59998V121.6H1.70001L1.79999 121.5H1.90002V121.4V121.3H1.79999V121.2V121.1V121H1.70001V120.9H1.79999V120.8L1.90002 120.7H2H2.09998H2.29999L2.20001 120.6V120.5V120.3V120.2H2.09998V120.1V120V119.9V119.5L2 118.9L1.90002 118.8V118.4L1.79999 117.9L1.70001 117.2L1.59998 116.4L1.5 116.3L1.40002 115.6L1.29999 115L1.09998 113.3L1 112.8V112.7H1.09998L1.70001 112.6H2.09998L2.79999 112.5V112.3V112L4.09998 111.8H4.5L5 111.7L5.5 111.6H5.90002L6 111.5L5.90002 110.5L5.79999 110.1V109.7L5.20001 109.8L5.09998 109.6L5 109.1V108.6L4.90002 108.3L5.5 108.2H5.79999V107.8L5.70001 107.4L5.59998 106.6L5.5 106.2L5.40002 105.2L5.29999 104.5L6 104.4L6.5 104.3V104.2L6.40002 103.5L6.20001 102.6L6 101.4V101.1L5.90002 100.7H6L6.79999 100.5L6.70001 100L6.5 98.7L6.40002 98.4V98.2V98V97.9H6.09998L6 98H5.79999H5.70001L5.40002 98.1L5.09998 98.2H4.79999L4.70001 98.3L3.90002 98.4L3.40002 98.6H3.09998H3H2.90002V98.5H2.79999V98.4H2.70001V98.3H2.59998V98.2H2.5V98.1V98V97.9H2.40002V97.8V97.7H2.29999V97.6V97.5V97.4V97.3V97.2H2.20001V97.1V97H2.09998V96.9V96.8H2.20001L2.59998 96.7H2.70001H2.79999L2.70001 96.1V95.8L2.59998 95.7V95.3L2.5 94.6V94.4V94.3H2.40002H2.20001L2.09998 93.5V93.4L2.20001 93V92.9H2.29999H2.40002L2.5 92.8H2.59998V92.7H2.70001H2.79999V92.8H2.90002L3 92.9H3.09998L3.20001 93H3.29999L3.5 93.1H3.59998H3.70001V93H3.59998V92.9L3.5 92.8V92.5V92.4L3.59998 92.3V91.8L3.70001 91.7V91.6V91.5V91.4H3.59998V91.3V91.2L3.90002 91.1H4V91H4.09998H4.20001V90.9V90.8V90.7V90.3H4.09998V90.1V90V89.9L4 89.6H4.09998V89.5H4.20001H4.29999V89.4L4.20001 89.3H4.40002H4.5L4.90002 89.2H5.20001L5.5 89.1H5.79999L6.09998 89L7.09998 88.8H7.20001H7.59998L7.79999 88.7H7.90002H8L7.90002 88.6L7.79999 88.5V88.4H7.70001V88.3V88.2V88.1V88V87.9V87.8L7.59998 87.7L7.70001 87.6V87.5H7.79999V87.4V87.3V87.2L7.70001 87.1L8.20001 87V87.3H8.40002L8.59998 87.2H8.79999L9.20001 87.1H9.59998L9.70001 87.2V87.3L9.79999 88L9.90002 88.8L10.2 88.7L10 87.9V87.6V87.3L9.90002 87.1V86.8H9.70001L9.59998 86.1H9.90002L10.1 86H10.2V85.9L10.1 85.6L10.6 85.5H11V85.4H11.1L11.5 85.3L11.9 85.2L12.8 85.1H12.9L13.7 84.9L13.6 83.9L14.4 83.8L14.3 83.3L13.7 83.4V83.2H13.5L13.6 83.8H13.4L12.7 83.9L11.9 84H11.8H11.7V83.9V83.6L11.6 83.4V83.2V83L11.8 82.9L12.5 82.8L13.2 82.7H13.4V82.5L13.9 82.4H14H14.1V82.3V82.1L14 81.8V81.7V81.5L13.9 81.2V80.9V80.6L13.5 80.7H13.4L13.3 80L13.2 79.7L13.1 79.1L13.9 79L14.3 78.9H14.7L14.8 80L14.9 80.5L16.1 80.3L16.3 81.2V81.4L16.1 81.5L16.2 81.9V82L16.4 84.1L16.8 84.2H17.1H17.2V84.1V84H17.3V83.9L17.4 83.7V83.5H17.6V83.4V83.3V83.2V83.1V83V82.9H17.7H17.8H17.9L18 83H18.2H18.3V82.8L18.4 82.7V82.6V82.5V82.4L18.3 82.3V82.2H17.9L17.7 81.8L17.4 81.2L17.3 80.9L17.2 80.8L17.1 80.6L17.5 80.5L18 80.4H18.4V80.3L18.3 80H18.4L19.4 79.9H20.3H20.4V79.8L20.5 79.7V79.6H20.6V79.5L20.7 79.6H20.8H20.9H21H21.1H21.2H21.3H21.4H21.5V79.5L21.6 79.4H22L22.4 79.3L22.9 79.2H23.5L23.7 79.1L24.1 79H24.2L24 78.2V78V77.9V77.8L24.1 77.7V77.6L24.8 77.5L25.8 77.3L26.6 77.2L26.5 76.8L27.4 76.6V76.5L27.5 76.4V76.2V76L27.2 76.2L26.8 75.7H26.9H27H27.1L27.5 75.5L27.6 74.9V74.8V74.7L27.7 74.4L28.2 74.5H28.3L28.7 75.2V75.1L28.9 75L29 75.1L29.4 74.9L29.6 74.7V74.6V74.5V74.4L29.7 74.3L30 74.2V74.1L29.9 74L29.7 73.1V73L29.6 72.8H29.4V72.6L29.3 72L29.2 71.4L29.1 71L28.3 70.9V70.8H28.4V70.7V70.6H28.5V70.5H28.6V70.4H28.5V70.3V70.2L28.4 69.9V69.8L28.1 69.7L28.2 69.1L28.3 68.1L28.4 68V67.5L28.5 67.3V67.2V67.1L28.4 67H28.3L28.2 66.9H28.1L28 66.8H27.9M27.9 66.8V66.7M27.9 66.8H27.8H27.7L27.6 66.9H27.5H27.4H27.3H27.1L27 67H26.9H26.8H26.6H26.5V67.3L26.3 67.2L26.4 66.6L26.5 65.7L26.6 65.5H26.4H25.7L25.6 65V64.8L26.1 64.3L26.4 63.9L26.3 63.8H26.1V63.5L26.2 62.9V62.8V62.7H26.3V62.6H26.4H26.8L26.9 62.3V62.1H27H27.1H27.5L27.4 61.3H26.9V61.1L27 60.9V60.7V60.4V60V59.8V59.6V59.5L27.1 58.8V58.7V58.6L27 58.5V58.1L26.9 57.5L26.8 56.9V56.5L26.7 56.3V55.7L26.6 55.2L26.5 54.8V54.2L26.3 53.2V52.8L26.2 52.1L26.1 51.5L26.2 51.4L26.4 51.3H26.6V51.2L26.5 51.1L26.4 50.8L26.2 50.6L26.8 50.4V50.3V50L26.7 49.6L27.4 49.5L27.8 49.4V49.6L28.2 49.5V49.3L28.1 48.8L28.5 48.7H28.7L29.4 48.6L30.4 48.4L31.3 48.3L31.9 48.2L32 48.4L32.2 49.5L33.5 49.1L33.8 49V48.9L33.6 48.2V48L33.3 47.1V47L33.2 46.7V46.6L33.1 46.5V46.4H33.2L33.8 46.3L34 46.2V46.6L34.8 46.5L35 46.4H35.2L35.3 47H35.5L35.6 47.5L35.7 47.4V47.5L36.2 47.2L36.8 46.7L37 46.5L37.4 46.2L37.7 45.9L38 45.8L38.1 45.7L38.5 45.5H38.6H38.7L38.8 45.4V45.3L39.3 45.2V45.3H39.4V45.2L39.5 45.1H39.6L39.7 45.2H39.8L39.9 45.3V45.2H40V45.1H39.9V45V44.9H40L40.1 44.8H40.2H40.3L40.4 44.7V44.6H40.5H40.6V44.5H40.7H40.8L40.9 44.4V44.3V44.1L40.8 43.8L40.7 43.1H40.9V42.8H40.8H40.7V42.6L40.6 42.4V42.3L40.5 42H40.7L41.4 41.9L42.9 41.6L43 40.7V40.3V39.8V39.7H42.9L42.4 39.8L42.2 39.9L41.6 40H41.5H41.4L41.1 40.1L40.6 40.2H40.3L40.2 40.1L40.1 39.6V39.3H40L39.3 39.4L39.2 39.3L39 39.1L38.7 38.9V38.8L38.5 38.7L38.4 38.6L38.3 38.5L38.2 38.4L38 38.1L37.7 37.8L37.5 37.6H37.4L37.3 37.4L36.9 37.1L36.8 37H36.2L35.8 37.1H35.5L35.2 37.2V36.8L34.7 36.9H34.5H34.4L34.2 36.8H34.1H34V36.7H33.9H33.7L33.6 36.6L33.5 36.4V36.1L33.4 36L33.3 35.6L33.1 34.8L32.3 35.1L32.2 34.9V34.7H32L31.9 34.6V34.5V34.4H32L31.9 34.2L31.8 33.9V33.8L31.7 33.7L31.6 32.9V32.7H31.8H31.9H32V32.5L31.9 32.1V31.9L31.8 31.4L32.5 31.3L32.8 31.2L32.9 31.7L33.5 31.6L33.6 32.1L33.9 32H34.1V31.9H34.4H34.6L35.1 31.8L35.2 31.7H35.4H35.5L35.6 31.6V31.5V31.4H35.7V31.3V31.2L35.8 31.1V31L35.9 30.9L36 30.7V30.6H36.1V30.5L36.2 30.4V30.3V30.2H36.3V30.1H36.4V30L36.5 29.9L36.6 30H36.7H36.9L37 30.1L37.1 30.3L37.2 30.5L37.4 30.4L37.9 30.1H38H38.1H38.4V30.2V30.3L38.7 30.4L38.8 30.8V30.9V31L38.9 31.2V31.6L39 32.1H39.1H39.2L39.6 32H39.9V31.9V31.8H40L40.1 31.6V31.5H40.2L40.5 31.4H40.8V31.3L41.3 31.2V31.3V31.4V31.5V31.6L41.4 31.7H41.5H41.7L41.9 31.6H42.1H42.3H42.4V31.5V31.4V31.3V31.2V31.1L42.5 31H42.6H42.7H42.8H42.9L43.2 30.9H43.3L43.4 31.1V31.2V31.4L43.5 31.5V31.6V31.7V31.8V31.9L43.6 32.2V32.3V32.4V32.5V32.6H43.7V32.9L43.8 33H43.9H44L44.1 33.1H44.2V33.2V33.3H44.3V33.4V33.5H44.4L44.6 33.4H44.7H44.8H45H45.1H45.2L45.3 33.3V33.2L45.4 33.1V32.9V32.7V32.6V32.4V32.3L45.3 31.8V31.7L45.2 30.9H45.3L45.4 30.6L45.5 29.9L45.8 28.9L45.9 28.2H46V28.1H46.1H46.2H46.3L46.4 28H46.5L46.6 27.4L46.8 26.7L46.9 26L47 25.8L47.1 25.4L47.2 25V24.9L47.3 24.6V24.4V24.3V24.2L47.4 23.7L47.5 23.4V23.3L47.6 23.4L47.7 23.5V23.6L47.9 23.7L48 23.8V23.9L48.3 24.1L48.4 24.2L48.5 24.3V24.4L48.7 24.6L48.9 24.7L49.1 24.9L49.4 25H49.5H49.6H49.8H49.9H50L50.1 25.1H50.2L50.5 25.2L50.9 25.5H51L51.5 25.8L51.8 26L51.9 26.1H52.1H52.3H52.7H53L53.7 26.2L54 26.3H54.1L54.3 26.5L54.4 26.6V26.7V27.1V27.3V27.5V27.6L54.5 27.7L54.6 27.9L54.8 28L55.1 28.2L55.4 28.3L55.7 28.5L55.9 28.7L56.2 29L56.3 29.2L56.5 29.3L56.7 29.4H56.8H57H57.3L57.5 29.3H57.7L57.8 29.2H58L58.3 29.3H58.5L58.6 29.4L58.8 29.5L59 29.7L59.1 29.9L59.2 30L59.3 30.2V30.3L59.2 30.4V30.6L58.9 30.8V30.9L58.8 31.1V31.3L58.7 31.5L58.8 31.8V32.1L58.9 32.4L59.1 32.6L59.2 32.7L59.4 32.9L59.8 33.1H60L60.5 33.2H60.7H60.8L61 33.1L61.2 33L61.4 32.9H61.6H61.7L61.9 33L62 33.1L62.2 33.2L62.3 33.3L62.5 33.5L62.9 33.9L63.1 34.1L63.3 34.2L63.5 34.3L63.8 34.2H64L64.2 34.3L64.4 34.4H64.5L64.6 34.6L65.1 35L65.4 35.3L65.6 35.4L65.9 35.5H66L66.2 35.4L66.5 35.3H66.6H67L67.2 35.4H67.4L67.6 35.6L67.8 35.7V35.8L67.9 35.9V36L67.8 36.2L67.7 36.5L67.6 36.7V36.9L67.8 37H67.9V36.9L68 36.8H68.1L68.2 36.7H68.3V36.6V36.5L68.1 36.3V36.2V36.1L68.2 36H68.3H68.4V35.9H68.3V35.8H68.4H68.5H68.6V35.7L68.5 35.6V35.5V35.4H68.4V35.3L68.5 35.2H68.6H68.7V35.1V35V34.9V34.8L68.8 34.7V34.6V34.5V34.4V34.3H68.7H68.6H68.5V34.2V34.1V34H68.4V33.9V33.8V33.7H68.5H68.6L68.7 33.6H68.8H68.9H69V33.5H69.1V33.4V33.3V33.2H69.2V33.1L69.3 33H69.4L69.5 32.9H69.6V32.8H69.7V32.7H69.8V32.6H69.9V32.5H70H70.1V32.4V32.3H70L69.8 32.2V32.1H69.7L69.6 32L69.3 31.8L69.2 31.7L69 31.9L68.8 32.2H68.7V32.3H68.6H68.5H67.9V32V31.6V30.8V30.4L67.8 30.3V29.5H68.5H69.3L69.4 29.4H69.5H69.6V29.5H69.7H69.8L69.9 29.4L70 29.3V29.2M70 29.2H70.2H70.1H70ZM70 29.2V29.1H69.9L69.8 29H69.7H69.6H69.5V28.9H69.4H69.3H69.2H69.1L69.2 28.8V28.5V28.4V28.2V27.8V27.7H69.4H69.5H69.6H69.7V27.8H69.8V27.7H69.9V27.8V27.9V28H70V27.9H70.1H70.2L70.3 27.8V27.7H70.4V27.6H70.5V27.5V27.4V27.3V27.2V27.1V27V26.8H70.3H70.1H70H69.9H69.8H69.7L69.8 26.6V26.2V25.9V25.8L69.9 25.6L69.4 25.3L69.2 25.2L68.9 25L68.6 24.8L68.5 24.7L68.3 24.6L68.4 24.5L68.6 24.3L68.4 24.2V24.1L68.3 24H68.2V23.9L68 23.8V23.7V23.5L68.1 23.2V23.1V22.8L68.2 22.7V22.6V22.2L68.3 22.1V22V21.9V21.8L68.4 21.5V21.2L68.5 20.9L68.6 20.3L69 19.7L69.2 19.3L69.4 19L69.6 18.7L69.8 18.4L69.9 18.3V18.2L70 18.1V18L70.2 17.8L70.5 17.3L70.6 17L70.5 16.9L70.2 16.6L70.3 16.3H70.2V16.2H70.1L70 16.1H69.9H69.8L69.6 16L69.4 15.9H69.3V15.7L69.4 15.6V15.5L69.6 15.2V15.1L69.7 15L69.8 14.8L70.1 14.6L70.2 14.5H70.7L70.6 14.2V14.1L70.8 13.9L71 13.8L71.2 13.6L71.1 13.3L71 13.2L71.2 13.1L71.6 12.9L72.1 12.8L72.5 12.6L72.8 12.4L72.7 12.3L72.6 12.1L72.5 11.9L72.8 11.8L73.2 11.7L73.6 11.6L73.8 11.5L73.7 11.2L73.6 10.8L73.5 10.5V10.4L73.2 10L73.4 9.70001L73.3 9.60001V9.5V9.39999V9.29999V9.20001L73.2 8.79999V8.60001M73.2 8.60001H73.1V8.5L73.2 8.60001ZM73.2 8.60001H73.4L73.5 8.70001H73.6V8.79999H73.7L74 9.10001L74.4 9.39999L75 9.89999L75.5 10.2L75.8 10.4L76 10.6L76.2 10.7L76.3 10.8H76.4L76.3 10.7L76.5 10.5L76.7 10.3L76.8 10.1L77.2 10.4L77.6 10.7L77.8 10.8L77.9 10.9L78 11L78.2 10.9L78.3 10.7L78.4 10.6L78.5 10.4L78.6 10.3L78.9 10.2L79 10.4L79.1 10.5H79.2V10.6H79.3L79.4 10.7V10.8H79.5L79.7 11L79.8 11.1V11.2H79.9L80 11.3L80.3 11.5H80.4H80.5L80.6 11.4H80.8H80.9L81 11.5L81.1 11.4L81.3 11.2V11.3L81.8 10.9L81.7 10.8L81.6 10.6L81.7 10.5H81.6L81.5 10.3L81.3 10.1L81.5 9.70001L81.4 9.5V9.39999H81.5V9.29999H81.6H81.7V9.20001V9.10001H81.6V9M81.6 9H81.5M81.6 9V8.89999L81.7 8.79999H81.8V8.70001V8.60001V8.5L81.7 8.39999L81.9 8.29999L82 8.5L82.1 8.39999L82.2 8.5H82.3H82.4H82.5L82.6 8.60001H82.7H82.8V8.5V8.39999H82.7V8.29999V8.20001H82.6V8.10001V8V7.89999V7.79999V7.70001L82.7 7.60001L82.6 7.5H82.5V7.39999V7.29999L82.6 7.20001V7.10001H82.7H82.8H82.9V7.20001H83M83 7.20001V7.10001H83.1L83 7.20001ZM83 7.20001V7.29999V7.39999H83.1L83.2 7.29999V7.20001H83.3H83.4L83.5 7.10001V6.89999L83.8 6.70001L84.1 6.5H84.2V6.39999L84.3 6.29999H84.4V6.20001H84.5H84.6V6.10001H84.7M84.7 6.10001V6H84.8M84.7 6.10001H84.8V6.20001H84.9H85V6.10001H84.9V6H85H85.1V5.89999H85.2H85.3H85.4V5.79999H85.3V5.70001H85.4H85.5V5.60001H85.6V5.70001V5.79999H85.7V5.89999V6M84.7 6.10001V6.20001M85.7 6H85.6M85.7 6V6.10001V6.20001V6.29999H85.8V6.20001H85.9H86V6.29999H86.1V6.39999L86.2 6.5L86.3 6.60001L87.2 6.39999V6V5.89999V5.79999V5.70001H87.3V5.60001H87.4H87.5V5.5H87.6H87.7H87.8L87.9 5.39999L88 5.5H87.9V5.60001H88V5.70001H88.1V5.79999H88.2H88.3H88.4H88.5V5.70001H88.6H88.7V5.60001H88.8L88.9 5.5H89V5.39999L89.1 5.29999H89.2V5.20001H89.3V5.29999H89.4H89.5H89.6L89.7 5.20001L89.8 5.10001L89.9 5L90 4.89999V4.79999H90.1V4.70001V4.60001H90.2H90.3V4.70001H90.4V4.79999L90.5 4.89999H90.6H90.7V4.79999V4.70001V4.60001L91.1 4.70001H91.3L91.5 4.60001V4.39999L91.4 4.20001V4.10001L91.5 4V3.79999H91.4V3.70001H91.3V3.60001H91.2V3.5V3.39999V3.29999V3.20001H91.1V3.10001V3H91V2.89999H91.1V2.79999H91.2H91.4V2.70001V2.60001H91.5V2.70001H91.6V2.60001H91.7M91.7 2.60001V2.70001M91.7 2.60001H91.8M91.8 2.60001H91.9M91.8 2.60001V2.5H91.9V2.39999V2.29999H92L91.9 2.20001H92H92.1H92.2H92.3L92.4 2.10001M92.4 2.10001V2M92.4 2.10001H92.5L92.4 2.20001V2.29999H92.5V2.20001H92.6H92.7H92.8H92.9V2.10001H93M93 2.10001V2M93 2.10001H93.1V2H93.2H93.3H93.4V2.10001H93.5V2.20001H93.4H93.3V2.29999V2.39999H93.4H93.5M93.5 2.39999V2.29999H93.6M93.5 2.39999H93.6V2.29999M93.5 2.39999V2.5V2.60001V2.70001V2.79999V2.89999H93.6V3L93.7 2.89999H93.8H93.9V2.79999H94V2.70001V2.60001M93.6 2.29999V2.20001M93.6 2.29999H93.7M94 2.60001H93.9M94 2.60001V2.5L94.1 2.39999H94.2H94.3H94.4V2.29999H94.5H94.6V2.20001V2.10001H94.5L94.4 2.20001H94.3V2.10001V2H94.4V1.89999H94.5V1.79999H94.4H94.3V1.70001V1.60001H94.2V1.5H94.1V1.39999H94.2V1.29999H94.3V1.20001H94.4H94.5L94.4 1.29999H94.5H94.6H94.7V1.20001H94.8H94.9H95H95.1L95.2 1.10001H95.3H95.4H95.5V1H95.6M95.6 1V1.10001M95.6 1H95.7V1.10001H95.8H95.9H96H96.1V1.20001H96V1.29999L96.1 1.39999H96V1.5H96.1V1.60001H96.2V1.70001H96.3M96.3 1.70001V1.60001M96.3 1.70001H96.4V1.79999H96.5H96.6H96.7H96.8H96.9H97L97.1 1.89999H97.2H97.3H97.4H97.5H97.6V2H97.7M97.7 2V2.10001M97.7 2H97.8H97.9V2.10001H98V2H98.1H98.2H98.3L98.4 2.10001H98.3V2.20001V2.29999V2.39999H98.2V2.5L98.1 2.60001V2.70001H98V2.79999H97.9H97.8V2.89999H97.7V2.79999H97.5L97.3 2.70001H97.2H97.1L97 2.79999H96.9H96.8H96.7V2.89999H96.6V3H96.5V3.29999V3.39999V3.5H96.6H96.7V3.39999L96.8 3.5L97.1 3.60001L97.7 3.79999V4L98.2 4.20001L98.4 4V3.89999H98.5H98.6V3.79999V3.70001H98.7V3.79999H98.8V3.89999H98.9L99 3.79999H99.1H99.2V3.70001V3.60001H99.3L99.2 3.5V3.39999V3.20001L99.3 3V2.79999V2.70001V2.60001V2.5V2.39999V2.29999V2.20001L99.4 2.10001V2V1.89999L99.5 1.79999V1.70001V1.60001H99.6V1.5H99.7L99.8 1.60001L100 1.79999L100.2 1.5L100.3 1.39999L100.6 0.899994H100.7V1H100.8V0.899994H100.9M100.9 0.899994V1M100.9 0.899994H101H101.1L101.2 1H101.3V1.10001H101.2V1.20001V1.29999H101.1V1.39999H101.2V1.5H101.3V1.39999L101.4 1.29999M101.4 1.29999V1.20001V1.10001M101.4 1.29999V1.39999V1.5V1.60001H101.5V1.70001H101.6H101.7H101.8H101.9L102 1.79999H102.1H102.2V1.89999L102.1 2.10001L102.6 2.79999L102.7 2.70001L103 2.89999V3V3.10001H103.1L103.4 3.29999H103.5L103.6 3.39999H103.7L103.6 3.70001H103.7M103.7 3.70001V3.79999" stroke="white" stroke-width="0.5" stroke-linecap="round" stroke-linejoin="round"/>
</g>
</svg>
