<svg width="130" height="180" viewBox="0 0 130 180" fill="none" xmlns="http://www.w3.org/2000/svg">
<g id="UA14">
<path d="M27.3 178.1V178L26.9 177.4L26.7 177L26.4 176.5L26.2 176.2L26.1 176.1V176L26 175.8L25.9 175.7L25.8 175.5H25.7V175.4L25.3 174.9L25.4 174.8L25.8 174.4H25.9L26.1 174.1L26.5 173.8L26.6 173.7H26.7L27.2 173.3L27.4 173.1L28 172.6L28.3 172.3L28.8 171.9H28.9L29.3 172.5L29.9 172L30.3 171.7L30.5 171.6L30.8 171.3L31 171.2L31.2 171L31.3 170.9L31.2 170.8L31.1 170.7H31L30.5 170.3L30 170L29.7 169.7L29.5 169.6L29.4 169.5L28.9 169.2L28.7 169L28.8 168.9L29.1 168.4L29.3 168.1L29.9 167.4L30.2 167L30.5 166.7L30.4 166.6L30.1 166.2L29.8 165.9L29.4 165.4L29.1 165.2L28.6 165.6L28.5 165.7L28.4 165.8V165.9L28.3 166L27.9 165.9L27.7 165.8L27.5 165.6L26.9 165.3L26.5 165.1L26 164.9L25.3 164.6L25 164.4L24.7 164.3L24.6 164.2L24.4 164.1H24.3H24.2L24.1 164L23.9 163.9H23.8V163.8H23.7L23.6 163.7H23.5V163.6H23.6H23.7H23.8V163.5H23.9V163.4H24H24.1H24.2H24.3V163.3H24.4H24.5H24.6V163.2H24.7V163.1V163H24.8V162.9V162.8H24.7H24.6V162.7V162.6V162.5H24.7V162.4H24.8V162.3H24.7V162.2H24.6V162.3H24.5H24.4V162.2H24.3V162.1V162V161.9H24.4H24.5V161.8H24.6V161.7V161.6H24.7V161.5V161.4V161.3V161.2V161.1H24.6L24.5 161.2H24.4H24.3V161.1H24.2V161V160.9V160.8V160.7H24.3V160.6V160.5H24.2V160.4H24.3V160.3V160.2V160.1H24.2V160H24.1H24V160.1H23.9V160.2V160.3H23.8V160.4H23.7V160.3H23.6H23.5H23.4H23.3L23.2 160.2H23.1V160.1L23.2 160V159.9H23.1V159.8H23V159.7L22.9 159.6H22.8H22.7V159.5V159.4H22.8V159.3V159.2V159.1H22.7V159H22.6V158.9H22.5H22.4V158.8H22.3V158.7V158.6V158.5H22.2H22.1H22H21.9V158.4V158.3V158.2V158.1H21.8H21.7V158V157.9V157.8H21.6V157.7H21.5H21.4H21.3V157.8L21.2 157.9H21.1V157.8L21 157.7V157.6V157.5V157.4V157.3H20.9H20.8V157.4H20.7V157.5H20.6V157.6H20.5H20.4V157.7H20.3V157.6V157.5V157.4V157.3V157.2H20.4V157.1V157L20.3 156.9V157H20.2V156.9V156.8H20.1V156.9H20V157H19.9V157.1V157.2V157.3H19.8H19.7V157.4H19.6H19.5V157.3H19.4V157.2H19.5V157.1H19.4V157H19.3H19.2V156.9H19.3L19.2 156.8V156.7H19.1H19L18.9 156.8H18.8V156.9H18.7H18.6H18.5V156.8H18.4V156.7H18.5V156.6V156.5H18.4V156.4H18.3V156.5V156.6H18.2H18.1V156.5H18V156.4V156.3V156.2H17.9V156.1H17.8L17.7 156V155.9H17.6H17.5H17.4V155.8H17.3V155.7V155.6H17.2L17.1 155.5V155.4V155.3H17V155.2H16.9V155.1V155H17V154.9H16.9L16.8 154.8H17.1H17.3H17.5H17.6H18.1H18.3V154.7H18.4H18.5H18.6L18.3 154.5L18.2 154.3H18.3H19.2H19.5L20.7 154.2V154.7H20.9L22.1 154.6H22.3V154.5L22.2 154.2V153.9L22.1 153.6V153.4L22 153V152.8L21.9 152.6H21.7H21.6V152.5V152.4L21.4 151.7L21.3 150.7L21.2 150.5V150.4V150.2V149.8L21.1 149.4L21 149V148.3V148.2L20.9 148V147.8L20.8 147.5L20.6 146.8V146.7L20.4 145.9H20.5L20.6 145.8H21.4L21.5 146.5H21.6H21.8L22.2 146.4H22.6H23.3L23.9 146.3H24H24.1H24.6L25.5 146.2V146.3H25.6V146.4V146.5H25.7V146.6H25.8H25.9V146.7V146.8V146.9H26V147V147.1V147.2H25.9V147.3H26L26.9 146.9L27.4 146.6L28.3 146.2V146H28.2L28.3 145.8L28.2 145.7V145.6H28.5L29 145.4L28.8 145.1L29.5 144.7L29.7 144.6L30.3 144.3L30.2 143.7L30 143.1L29.8 142.4L29.5 141.7H29.6L30.4 141.5L30.7 141.4H30.8L31.1 141.3H31.2H31.3V141.4L31.4 141.5H31.5L31.6 141.8V141.9L31.7 142V142.1L31.9 142.5V142.6L32.1 143.5L32.3 144.2L32.8 144L33.5 143.6L34.4 143.1L34.3 142.9L34.2 142.5L34 141.9L34.4 140.9L34.5 140.6L34.7 140.1L34.8 139.7L35.1 139.1L35.2 138.9L35.3 138.6L35.6 137.9V137.8L35.7 137.5L35.9 137.1H36.1L36.2 136.8L36.3 136.7V136.5L36.5 136.2V135.8L36.4 135.7L36.3 135.6H36.2V135.5L36.3 135.4L36.5 134.8V134.7H35.2H34.8V134.9H34.7L34.6 134.7H34.5H34.4H33.8H33.7L33.8 134.5V134.4L34.1 134L33.9 133.9L33.7 133.8L33.2 133.6L32.9 134.2V134.3L32.3 135.4L32.2 135.5V135.6L32.1 135.8L32 135.7L31.8 135.6L31.5 135.3L30.7 134.8V134.7H30.6L30.2 134.3L29 133.2L28.4 132.7L28.1 133L28 132.9H27.9V132.8L27.7 132.5L27 131.3L26.8 131L26.4 130.2L26.2 129.9L26.1 129.7L25.9 129.5L25.7 129.1V129L25.5 128.8L25.4 128.7L25.3 128.5H25.2L25 128.7L24.3 129.5H24.2L23.7 128.6H23.6V128.5L23.2 127.9L22.5 128.4L21.4 126.7L20.4 127.6L19.9 128.1H19.8L19.3 128.6L18.9 129H18.8L18.5 128.5L18.2 127.8L18 127.5L17.7 127L17.5 126.6L17.3 126.2L17.1 125.9L16.9 125.6L16.8 125.3L16.5 124.8L16.3 124.4L16.2 124.3L16 123.8L15.7 123.3L15.6 123.1L15.5 123.2H15.4L15.2 123.3L15 123.4L14.7 123.6L14.3 123.8L13.8 124.1L13.4 124.3L12.8 124.6L12.5 124.8H12.4L12.3 124.9H12.2V124.8V124.7V124.6V124.5V124.4H12.3H11.9H11.5L11.4 124L11.3 123.3H11.5H11.7L12.3 123.2V123.1V123V122.9V122.7V122.6V122.5L12.4 122.4H12.3H12L11 122.5L10.3 122.6L10.2 122.2V122L10.1 121.6V121.5L10 120.8L9.90002 120.5L10.8 120.4L11.8 120.3V120.1H11.7V119.9H11.9H12H12.1H12.3L12.5 119.8V119.9L12.7 120V120.1H12.8H12.9V120V119.9V119.8H12.8V119.7H12.9V119.8L13 119.9H13.1V119.8H13V119.7H13.1H13.2V119.6V119.5H13.3V119.4L13.2 119.3H13.1V119.2L13.2 119.1V119V118.9H13.3H13.4V119H13.5V118.9H13.6H13.7V118.8H13.6V118.7V118.6H13.4H13.2L13 118.7H12.6L12.1 118.8L11.3 118.9H10.9H10.7L10.3 119L9.70001 119.1V118.8L9.59998 118.4V118.2L9.5 118V117.9V117.5L9.40002 117L9.29999 116.4L9.20001 115.9L9 115L8.70001 115.1H8.29999L8.20001 114.6L8.09998 114.1V113.8V113.7L8 113.4V113.2V113.1V113V112.8L7.90002 112L7.79999 111.9V111.6V111.3L7.59998 110.6V110.4L7.20001 110.5L6.79999 110.6L5.79999 110.8H5.70001H5.59998L5.20001 110.9L4.20001 111L4 111.1H3.79999H3.70001H3.59998L3.40002 111V110.7V110.2V109.7V109V108.8V108.7H3.70001H3.90002V108.6H4V108.4L4.09998 108L4.29999 107.4L4.40002 106.9L4.29999 106.6L4.20001 106.2V106.1L3.90002 106.2H3.79999V106.3H3.70001H3.59998L3.20001 106.4V106.1L3.09998 105.3L3 105.2L2.90002 104.6L2.79999 103.9L1.40002 104.1L1.29999 103.5V103.4V103.3V103.1L1.20001 102.7L1.09998 102.3V102.1V102L1.29999 101.9L2.09998 101.8H2.20001H2.40002H2.5L2.70001 101.7H2.79999H2.90002H3H3.09998H3.20001L3.29999 101.6H3.59998L3.5 101V100.8H3.59998H3.70001H3.90002L4.29999 100.9L4.5 101L4.90002 101.1L5.29999 101L5.90002 100.9H6L5.90002 100L5.79999 99.6V99.4L5.70001 99.1L5.59998 98.8V98.5L5.5 97.8H5.40002H5.09998L5 97.9H4.5L3.90002 98.1H3.59998L3.29999 98.2L3.20001 97.6L3.09998 97L3 96.5L2.90002 95.7L2.79999 95.3V95.2V95H2.90002V94.9H3H3.09998H3.20001H3.29999V94.8V94.7H3.20001V94.6L3.09998 94.5V94.4H3V94.3L2.90002 94.2L2.79999 94.1H2.70001H2.59998V94.2L2.5 94.1H2.40002V94V93.9H2.5L2.59998 93.8H2.70001H2.79999V93.7H2.90002H3H3.09998V93.6H3.20001H3.29999V93.5H3.40002V93.4H3.5V93.3V93.2H3.40002V93.1V93V92.9V92.8H3.29999V92.7V92.6L3.20001 92.5V92.4H3.09998V92.3L3 92.2V92.1H2.90002V92H2.79999L2.70001 91.9V91.8V91.7H2.79999V91.6H2.90002V91.5V91.4L3 91.3L3.09998 91.2L3.20001 91.1V91H3.29999L3.40002 90.9H3.29999V90.8V90.7L3.20001 90.6V90.5H3.09998V90.4H3V90.3H2.90002V90.2V90.1H3H3.09998H3.20001H3.29999V90V89.9V89.8V89.7V89.6H3.20001V89.5V89.4L3.29999 89.3V89.2V89.1H3.20001H3.09998L3 89V88.9L3.09998 88.8V88.9H3.20001V89H3.29999L3.40002 88.9V88.8H3.29999V88.7V88.6H3.40002L3.5 88.7H3.59998H3.70001L3.79999 88.6H3.90002V88.5H4H4.09998H4.20001V88.4V88.3H4.09998L4 88.2V88.1H4.09998V88H4.20001V88.1H4.29999H4.40002H4.5V88.2V88.3H4.59998H4.70001V88.4H4.79999H4.90002V88.5H5V88.6H5.09998V88.7H5.20001V88.6L5.29999 88.5V88.4H5.40002V88.5H5.5V88.6H5.59998V88.5L5.70001 88.4H5.59998V88.3L5.5 88.4H5.40002V88.3V88.2H5.5H5.59998H5.70001V88.3H5.79999V88.2H5.90002V88.1H6V88.2H6.09998V88.3H6.20001L6.29999 88.2V88.1H6.40002V88.2H6.5H6.59998V88.1H6.5V88H6.59998L6.5 87.9H6.40002V87.8H6.29999H6.20001V87.9H6.09998V88H6V87.9H5.90002V87.8H5.79999V87.7H5.90002H6H6.09998H6.20001V87.6H6.29999V87.7H6.40002H6.5V87.6V87.5V87.4H6.59998V87.3H6.70001V87.4H6.79999H6.90002V87.5V87.6H6.79999V87.7V87.8H6.90002V87.9H7V88H7.09998V88.1V88.2L7.20001 88.3H7.29999V88.2L7.40002 88.1V88H7.5H7.59998L7.70001 88.1V88H7.79999V88.1H7.90002V88.2H8L8.09998 88.3V88.4H8.20001H8.29999H8.40002H8.5H8.59998H8.70001H8.79999H8.90002V88.5H9V88.6L9.09998 88.7H9.20001H9.29999H9.40002V88.8H9.5V88.9H9.59998H9.70001V88.8V88.7H9.79999V88.6V88.5H9.90002H10V88.6H10.1V88.7V88.8H10.2V88.9H10.3V89V89.1V89.2V89.3V89.4H10.4V89.5V89.6H10.5V89.7H10.6H10.7H10.8H10.9H11H11.1V89.8H11V89.9V90H11.1V89.9H11.2V90H11.3H11.4V90.1V90.2H11.5V90.3H11.4H11.3V90.4H11.2V90.5V90.6V90.7L11.1 90.8V90.9H11.2H11.3V91H11.2V91.1H11.3H11.4H11.5V91.2H11.6H11.7H11.8V91.1H11.9V91H12H12.1V90.9V90.8V90.7H12.2H12.3V90.8H12.4V90.9L12.5 91H12.6V91.1H12.7V91.2V91.3H12.8H12.9V91.2H13H13.1V91.3H13.2H13.3V91.2V91.1V91H13.4H13.5V91.1H13.6V91.2H13.7H13.8H13.9V91.1H14V91H14.1V90.9H14.2H14.3V91V91.1V91.2V91.3H14.4V91.4H14.5V91.5V91.6H14.6V91.7L14.7 91.8H14.8H14.9H15V91.9H15.1L15.2 92H15.3V92.1H15.4V92.2H15.5H15.6H15.7H15.8H15.9H16V92.1L16.1 92H16.2H16.3L16.4 92.1V92.2H16.5V92.3H16.7L16.8 92.4H16.9V92.3V92.2V92.1V92V91.8L17 91.5V91H17.2H17.5H17.9L18 90.6V90.2H18.2V90.1L18.3 89.9L18.5 89.6L18.9 89L18.8 88.4V87.8L18.7 87.4V87.2L18.6 86.8V86.7V86.6V86.5L18.5 86.4V86L18.4 85.5V85.3L18.3 85V84.7V84.6V84.5V84.4L18.2 84.3V84.2V84.1V84V83.9V83.7L18.1 83.4L18 83L17.9 82.2V81.8L17.8 81.5V81H17.9L18 81.1H18.1V81.2L18.2 81.1H18.3H18.4V81.2H18.3V81.3V81.4H18.4V81.5H18.5H18.6V81.4H18.7H18.8V81.3V81.2L18.7 81.1H18.8V81H18.9V80.9H18.8H18.7V80.8V80.7H18.8V80.6V80.5V80.4H18.9V80.5V80.6V80.7H19H19.1V80.6V80.5L19.2 80.4V80.5V80.6V80.7H19.3H19.4V80.6V80.5H19.3V80.4V80.3H19.4H19.5V80.4H19.6V80.3H19.7H19.8V80.2H19.9H20H20.1H20.2H20.3H20.4H20.5V80.1H20.6H20.7H20.8L20.9 80.2H21L20.9 79.9L20.7 78.1V78L20.6 77.4L20.5 77V76.8V76.7L20.4 76.3V75.8L20.3 75.6V75.5V75.1L20.2 74.6L20.1 74.1L20 73L19.9 72.3L19.7 71.5L19.3 71.6L17.9 71.8H17.8L17.7 70.9H17.5V71H17.1L16.4 71.1L15.4 71.2H15.3L14.9 71.3V71.2V71.1L14.8 70.5L14.7 69.9V69.8L14.6 69L14.5 68.6L14.8 68.5H14.9L14.8 68.2V68.1V67.9V67.6L14.7 67.4V67.3V67.2V67H14.8V67.1H14.9V67.2H15H15.1H15.2L15.3 67.1V67H15.4V66.9H15.5V66.8V66.7L15.4 66.4L15.3 65.8V65.5V65.4L15.2 65.1V64.8V64.6V64.5L15.1 64.1H15.4H15.5H15.6L15.7 64H15.8V63.9V63.8H15.7H15.6V63.7H15.5H15.4L15.3 63.6V63.5H15.4L15.5 63.4H15.6V63.3H15.7V63.4H15.8V63.3H15.9V63.2V63.1H16H16.1H16.2H16.3V63.2H16.4V63.3H16.5V63.4H16.6H16.7V63.3V63.2H16.6V63.1V63V62.9V62.8H16.7L16.6 62.7L16.5 62.5V62.4V62.1L16.4 61.7V61.3H16.1H15.9V60.8L15.8 60.2V59.6L15.7 59.2V59.1V58.9L15.6 58.2L16 58.1H16.5L16.9 58V57.5L16.8 57.3L16.7 56.2V55.9L16.6 55.7L18 55.5H18.2V55.4L19 55.3H19.3H19.4V55.2V55.1V54.9V54.8L19.3 54.7V54.6V54.2L19.2 53.7H19.1L18.4 53.8V53.7L18.3 53.1H18.2L17.7 53.2L17.1 51.8H17H16.9H16.8H16.6H16.5L16.2 51.9H15.8H15.3V51.7H14.9L14.6 51.8L14.4 50.3V50.1V49.7H14.1H13.9H13.8H13.6H13.1L13 49.4H12.6L11.3 49.7V49.6L11.2 49.1L11 47.6V47.4V47.1L10.9 46.9V46.8V46.7V46.6V46.5L10.8 46.2V46.1V46V45.9H10.7V45.8H10.6H10.5V45.7V45.6V45.5V45.4H10.4H10.3V45.3H10.2V45.2V45.1H10.3H10.4H10.5H10.6V45V44.9H10.5V44.8H10.4H10.3V44.7V44.6H10.2H10.1V44.5L10.2 44.4V44.3H10.3H10.4V44.2H10.3V44.1L10.2 44V43.9V43.8H10.1H10H9.90002V43.7V43.6H10V43.5H9.90002V43.4H9.79999V43.3V43.2H9.90002H10L9.90002 43.1V43H10V43.1H10.1V43V42.9H10V42.8V42.7V42.6L9.90002 42.5H9.79999H9.70001V42.4H9.59998V42.3H9.70001H9.79999H9.90002V42.2H10V42.3L10.1 42.2H10.2H10.3H10.4H10.5V42.1H10.6V42V41.9L10.7 41.8L10.8 41.6V41.4V41.3H10.7V41.2V41.1H10.6V41L10.5 40.9L10.4 40.8V40.7L10.3 40.6L10.1 39.9L9.90002 39.2L9.70001 38.5V38.4H9.79999H9.90002V38.3V38.1L9.79999 38L9.70001 37.9V37.8V37.7H9.59998L9.70001 37.6V37.5L9.59998 37.1L9.5 36.7V36.6V36.5H9.40002H9.29999H9.20001H9.09998H9H8.90002V36.4H8.79999H8.70001V36.5H8.59998V36.4L8.5 36.1V35.9L8.70001 35.8L8.79999 35.6L8.90002 35.5H9L9.09998 35.4H9.20001V35.3L9.29999 35.2V35.1L9.40002 34.9L9.5 34.8L9.59998 34.6L9.79999 34.3L9.90002 34L10.1 33.7H10.2H10.3H10.5L10.6 33.8H10.7H10.8H10.9L11 33.9H11.1L11.3 34H11.4L11.7 34.2H11.9L12.1 34.3H12.2H12.3H12.4H12.5H12.6H12.7L13 34.2L13.1 34.1H13.3L13.4 34H13.5H13.6L13.4 34.6L13.3 34.9L13.7 35.2L13.6 35.3L13.5 35.6H13.6L13.8 35.7H14H14.1H14.4L14.6 35.8H14.7H14.9L15 36.1H15.1L15.2 36.3H15.4L15.9 36.2H16.1V36.1V36V35.9L16.2 35.8L16.3 35.5L16.4 35.1L16.6 34.6L16.8 34.1H17.6L18 34.2H18.2H18.9L20 34.3H20.2V34.4V34.5H20.3V34.6H20.5L20.8 34.7H21.3H21.4L21.5 34.4H21.6L21.7 34.5L22.4 34.6H22.5H22.6V34.7H22.7V34.8H22.8H22.9V34.9V35H23V35.1H23.1V35.2H23.2V35.3H23.3V35.4V35.5H23.4V35.6V35.7H23.5V35.8V35.9H23.6V36V36.1H23.7H23.8V36.2H23.9V36.3H24V36.4H24.1V36.5H24.2V36.6V36.7H24.3L24.4 36.8H24.5H24.6H24.7V36.9L24.8 37L24.9 37.1H25V37.2H25.1V37.3V37.4H25.2V37.5H25.3V37.6V37.7H25.4H25.5V37.8H25.6L25.7 37.9V38H25.8L26 37.8H26.1L26.2 37.5L26.3 37V36.7H26.4L25.9 36.6H25.4H25.3L25.4 36.3V36.1V36H25.3L25.1 35.9L24.9 35.8L24.8 35.7L24.5 35.5L24.2 35.3L23.9 35.1L24.2 34.7V34.6L24.4 34.3L24.5 34.1V33.9H24.8H24.9L25 34H25.1L25.2 33.6V33.3L25.4 32.7L25.6 32.8H25.7L25.8 32.9H25.9H26H26.1H26.2L26.3 33H26.4H26.6H27.2H27.5L27.6 32.8H28H28.1L28.5 31.8L29.2 30.2L29.7 30.4L29.8 30.5L30.2 30.6L30.7 30.8H30.8H30.9H31H31.1H31.2L31.6 30.9L31.5 31.1L31.4 31.2L31.3 31.5V31.6H31.8L31.9 31.8V31.9L32 32V32.1L32.1 32.2L32.2 32.3H32.3H32.4L32.5 32.4H32.6L32.8 32.5L32.9 32.6L33.1 32.7L33.9 33V32.7L34 30.4V30.3V30.1L33.9 29.7L33.8 29.3V29V28.9V28.7H33.7V28.6L33.8 28.5V28.4V28.3V28.2H33.9V28.1V27.9V27.8H34H34.1V27.9H34.2V27.8H34.3V27.7V27.6H34.4H34.5H34.6V27.5H34.7V27.4H34.8V27.3H34.9V27.2H35V27.1V27L35.1 26.9V26.8L35.2 26.7L35.3 26.6V26.5H35.4V26.4V26.3V26.2H35.5V26.1L35.4 26H35.5V25.9V25.8H35.7H35.8L36.5 25.9V25.8L37.6 25.9L37.7 25.5V24.7H38.5H38.7H39.1H39.3V24.8V24.9V25H39.4V24.9H39.6L40 24.7H40.3L40.6 24.8H40.7L40.8 24.5V24.4L40.9 24.1V23.8H40.8H40.7V23.7V23.6L40.9 23.4V23.3L40.7 23.2V23.5H40.6V23.6H40.5V23.5H40.4H40.3H40.2L40.1 23.4H40V23.3V23.2H39.9H39.8V23.1H39.7V23V22.9V22.8V22.5H39.8H40.1L40.3 22.4V22.3V22.2L40.4 22.1H40.3H40.2H40.1H40H39.9V22H39.8V21.9V21.8H39.7H39.6V21.7H39.5V21.6V21.5H39.6V21.4H39.7H39.8H39.9L39.8 21.3L39.7 21.2L39.5 21.3H39.4H39.3H39.2H39.1V21.2L39 21.1V21H39.1V20.9H39.2H39.3V20.8H39.2V20.7V20.6H39.3L39.4 20.7V20.6V20.5H39.5V20.4L39.6 20.3L39.7 20.2V20.3H39.8H39.9H40V20.4V20.5H40.1V20.3V20.2V20.1H40.2H40.3H40.4H40.5V20V19.9H40.4H40.3H40.1H40H39.9V19.8L40 19.6H40.3H40.4L40.5 19.5L40.8 19.3V19.4L41.2 19.2V19.1H41.3V19V18.9L41.4 18.7L41.5 18.5H41.6L41.8 18.6L41.9 18.7H42L42.2 18.8L42.3 18.9V19.1V19.3L42.4 19.4H42.5H42.6V19.3H42.8V19.2H42.9H43V19.1V18.8L42.9 18.5V18.4V17.9V17.5L43 17.2L43.1 16.7L43.6 16.8L43.7 16.9L43.8 16.8V16.9H43.9V16.8V16.7V16.6L43.8 16.5H43.7V16.4L43.6 16.3V16.2V16.1V16V15.9H43.7V15.8H43.8L43.7 15.6L43.6 15.4V15.3L43.5 15.2V15.1L43.6 15H43.7L43.8 14.9H43.9H44H44.1L44.2 14.8H44.3H44.4H44.5H44.6H44.7L44.8 14.7L44.9 14.6L45 14.5V14.4L45.1 14.3V14.2L45.2 14.1V14H45.3L45.4 14.1H45.5H45.7H45.8V14.2H45.9H46V14.1H46.1L46.3 14V14.1L46.4 14.2L46.5 14.3H46.6L46.7 14.2L46.8 14.1V14H46.9V14.1V14.2V14.3V14.4V14.5H46.8L46.9 14.6V14.7H47V14.6H47.1V14.5H47.2V14.4H47.3H47.4V14.3H47.5V14.2L47.6 14.1V14H47.7V14.1V14.2V14.3V14.4V14.5L47.8 14.6L47.9 14.5V14.4L48.1 14.3L48.2 14.1V14V13.9H48.3H48.4H48.5H48.6H48.9H49.1H49.2V13.8V13.7L49.3 13.6V13.5H49.4L49.5 13.4H49.6L49.7 13.3V13.2V13.1V13V12.9H49.8V12.8V12.7H49.7V12.6V12.5L49.6 12.4V12.3L49.5 12.2L49.4 12.1L49.3 12L49.4 11.7H49.3L49.1 11.6V11.5H49V11.4L48.9 11.3L48.7 11.1L48.9 11L49.1 10.7L49.2 10.8H49.3L49.6 10.7L51.1 10.3L51.7 10.1L53.1 9.39999L53.7 9.10001V9L53.5 8.79999H53.4L53.3 8.70001L53.2 8.5L53.1 8.39999L53 8.29999H52.9H52.8L52.6 8.5H52.5L52.3 8.20001V8.10001H52.2V8L52.1 7.89999H52L51.8 7.79999L51.7 7.70001H51.6V7.60001H51.5L51.7 7.5L51.9 7.39999H52H52.1L52.3 7.60001H52.4H52.5H52.6V7.5V7.39999V7.29999L52.5 7.20001V7L52.4 6.89999V6.79999V6.70001V6.60001H52.3V6.39999V6.29999V6.20001H52.2V6.10001H52.1V6H52L51.9 5.89999L51.7 5.79999L51.4 5.60001L51.2 5.5L51 5.39999L50.9 5.29999L50.7 5.20001H50.6L50.4 5.10001L50.2 5H50.1H50L49.9 4.89999H49.8H49.7H49.6H49.5L49.4 4.79999H49.3V4.70001H49.4L49.5 4.29999L49.6 4.20001V4L49.7 3.89999L49.8 3.70001L49.9 3.60001L50 3.5L51.1 2.79999L51.5 2.5L51.7 2.29999L51.8 2.20001L52 1.89999L52.1 1.79999V1.70001H52.2L52.5 1.20001L52.6 1.10001L52.8 1L52.9 0.899994H53.1H53.2H53.4L53.5 1H53.6H54H54.1H54.3H54.4H54.5L54.7 0.899994H54.8L55 0.799988H55.1H55.2H55.3L55.5 0.899994L56.2 1L56.9 1.10001L57.6 1.29999L58.2 1.39999L59 1.60001L59.7 1.70001L59.9 1.79999H60.1H60.2L60.6 2L61.8 2.39999L62.7 2.60001L63.4 2.89999L63.9 3L64.4 3.20001V3.10001V2.89999V2.79999H64.5H64.6H64.7H64.8H64.9H65V2.89999H65.1V2.79999H65.2H65.3L65.6 2.89999H65.8V3.10001L66.3 3.20001H66.4H66.7L66.8 3H66.9V2.89999L67 2L67.1 1.70001L67.2 1.60001L67.3 1.29999L67.4 1.10001L67.6 0.899994V0.799988L67.7 0.700012V0.600006L67.8 0.5H67.9H68H68.1L68.2 0.399994V0.5L68.3 0.700012V0.799988L68.4 0.899994V1.10001L68.5 1.29999L68.4 1.39999L68.5 1.70001L69.1 1.89999V2.39999L69.7 2.29999H69.9H70L70.4 3.10001L70.8 2.89999L71.2 3.79999L71.3 3.89999V4L70.5 4.29999L70.2 4.39999V4.5L69.9 4.60001V4.79999H69.8V4.89999L69.4 5.10001L69.2 5.29999L69.6 5.79999L69.7 5.89999V6L69.2 6.39999L69.6 6.79999L69.7 6.89999L70 7.10001L70.2 7.20001L70.5 7.39999L70.7 7.60001H70.8L71.7 8L71.8 8.10001H71.9L72 8L72.4 7.79999L72.5 7.89999V8V8.10001H72.6V8.20001V8.29999H72.5H72.9L73.4 8.39999L73.5 8.5L73.6 8.60001V8.70001L75.6 8.89999H76L76.5 9H76.6V8.89999V8.79999V8.70001L76.7 8.10001V7.79999V7.70001L76.8 7.39999V7.29999V7.20001H76.9H77H77.1H77.2H77.3V7.29999H77.4H77.5L77.6 7.39999H77.7L77.9 7.5H78H78.1L78.7 7.39999L78.8 7.79999V8.29999L78.6 9.39999L78.5 9.89999L78.4 10.1V10.2L78.3 10.3V10.6L78.2 10.8L78.1 11.2L78 11.3V11.4V11.5V11.8L77.9 12.3V12.7L77.8 13.2V13.3V13.8L77.7 13.9L77.6 14L77.5 14.1L77.3 14.2V14.3L77.4 14.4L77.9 15.2L78.1 15.5L78.3 15.7L78.4 15.9L78.5 16.3L78.7 16.9L78.9 17.3L79 17.6L79.4 18.4V18.6L79.5 18.7V18.8H79.6V19.1V19.2V19.3L79.4 19.4H79.3H79.1H79H78.9H78.7L78.4 19.5H78.1L78 19.6H77.9L77.5 19.7L77.3 19.9H77.2V20V20.1V20.3V20.4L77.4 20.5L77.5 20.6L77.3 20.9V21.4H77.2L76.1 20.7V20.8L75.6 21.6L75.5 21.8L75.2 22.3L75.1 22.4V22.5L74.9 22.7L74.8 22.9L74.9 23H75.1L75.3 23.1H75.5H75.6H75.7H76.1H76.4H76.6V23.2L76.7 23.4V23.5L76.8 23.6V23.7L76.9 23.8H77L77.6 23.9L77.7 23.8H77.8L77.9 23.7H78H78.2H78.4L78.6 23.8H78.8H78.9L79.2 23.9L79.4 24L79.5 24.1H79.6L79.9 24.2L80.4 24.4L80.5 24.3L80.6 24.4H80.7H80.8H80.9H81H81.1L81.2 24.5V24.6H81.3H81.4L81.5 24.5L81.6 24.4V24.3V24.2L81.7 24.1V24L81.8 23.9H81.9H82L82.1 24H82.2L82.3 24.1H82.4H82.5H82.6H82.7H82.8H82.9L83 24H83.1L83.2 24.1H83.3H83.4H83.5L83.6 24.2H83.7H83.8H83.9L84.1 24.3H84.2H84.3H84.4H84.5H84.6H84.7L84.8 24.2L85.4 24L85.7 23.9L85.9 23.8V24L86.1 24.7V25V25.1V25.3V25.5V25.6L86.2 27.2V28.1V28.5V28.6V28.8L86.1 28.9V29H86.2V29.1V29.2V29.3V29.4V29.5V29.6L86.1 29.7V29.8H86V29.9H86.1V30V30.1H86V30.2V30.3V30.4V30.5H85.9V30.6V30.7V30.8L85.8 30.9V31V31.1L86.4 31H86.5H86.7H86.8L86.9 30.9H87.6L87.7 30.8L87.8 30.9L88.2 31.4V31.5L88.3 31.6V31.9L88.4 32.2L88.8 32.1H88.9H89H89.2H89.5L89.6 32H90L90.4 31.9L90.5 32.5L90.6 32.7V32.8V33L89.2 33.2L89 33.5V33.6V33.7L88.9 33.8V33.9H88.8H88.7L88.6 34V34.2L88.7 34.3V34.4V34.5V34.9L88.8 35.1V35.6L88.9 35.8V35.9V36.2H88.5L88.3 36.8L88.2 37.1L87.9 37.9H88L88.1 38L88.6 38.5L88.8 38.7L88.9 38.8V38.9H89H89.1H89.2H89.5H89.6L89.8 39H89.9H90.1L90.6 39.1L90.8 39.2L90.9 39.5L91 40.1V40.7L90.3 40.8H89.9V40.9H90V41L90.1 41.1L90.2 41.2L90.4 41.4H90.5V41.6V41.8V42.1L90.3 42.4L90.2 42.5V42.6L90.4 42.8V43H90.3H90.2V43.1H90.1H90V43L89.6 43.1H89.3H89.2H89L88.9 43.2L89 44H88.9H88.7L88.4 44.1H88L87.6 44.2L87.7 44.5V44.9L87.5 45H87.1L86.7 45.1H86.6L86.7 45.4L86.3 45.3L86.4 46.3H86.6H87L87.5 46.2H87.9V46.7L88 47.2L88.1 47.9V48.1V48.3V48.6L88.2 49.1V49.3L88.3 49.6V49.8V50V50.2V50.5L88.4 50.8V50.9V51V51.3L88.5 51.9V52V52.3L88.6 52.7V52.8V53L88.7 53.4V53.5L88.4 53.6H88.5V53.7V53.8L88.6 54H88.7V54.1L88.8 54.2V54.3H88.9H89L89.2 54.5L89.3 54.6V54.7H89.4V54.8H89.5L89.6 54.9V55L89.8 55.3L90 55.5L90.3 55.8L90.5 56L90.6 56.2L90.7 56.3V56.4H90.6H90.5L90.4 56.5V56.6H90.3V56.7H90.4V56.8H90.3L90.4 57.1L90 57.4H89.9L89.8 57.3H89.7H89.6V57.4V57.5V57.7V57.8H89.8V57.9H89.9L90 58.2H89.8V58.3L89.9 58.4V58.7L90 58.9L89.9 59L89.8 58.8V58.7H89.7L89.6 58.6V58.8L89.4 58.7L89.3 58.8H89.2L89.3 58.9L89.5 59L89.9 59.3L90.7 59.7L90.6 59.8L90.5 60.1L90.4 60.2L90.3 60.4L91.6 61.6H91.7H91.8V61.7V61.8H91.9H92V61.7H92.1V61.6H92.2V61.5H92.3H92.4H92.5H92.6H92.7V61.4H92.8L92.9 61.3V61.4H93V61.3H93.1V61.4H93.2H93.3H93.4H93.5V61.5L93.7 62L93.8 62.3L93.9 62.4L94.1 62.3H94.3L94.4 62.2H94.5L94.9 62V61.7L94.8 61.6L95.1 61.5H95.3L95.6 61.4V61.3H95.7H95.8H95.9V61.2H96H96.1L96.2 61.1H96.3H96.4V61H96.5V61.1V61.2V61.3V61.4V61.6V61.7V61.8V61.9H96.4V62L96.5 62.1V62.2V62.3L96.6 62.4V62.5V62.6V62.7V62.8V62.9H96.7V63L96.8 63.1V63.2H96.7V63.3H96.8V63.4V63.5V63.6V63.7V63.8L96.7 63.9V64V64.1L96.6 64.2H96.7V64.3V64.4V64.5V64.6V64.7V64.8L96.6 64.9L96.7 65L96.8 65.2L96.9 65.5L97 65.6L97.1 66V66.2L97.2 66.3V66.4H97.3V66.3L97.4 66.1L97.6 66.2H97.9H98H98.1H98.2V66.3V66.4V66.5L98.3 66.6L98.4 66.7V66.8V66.9L98.5 67.1H98.6H98.7L98.8 67.2H98.9H99V67.3H99.1L99.2 67.5H99.1H99L98.9 67.6H98.8L98.3 67.7L98.4 67.8V67.9V68H98.3L98.2 68.1L98 68.2V68.3L97.9 68.4L98 68.5H98.1L97.9 68.7H97.2L96.9 68.9H96.8L96.6 69.1H96.5V69.2V69.3V69.4V69.5V69.7V69.8L96.6 70V70.2V70.3L96.7 70.5V70.7V70.9V71H96.6V71.1H96.5V71.2V71.3V71.4H96.4V71.5H96.3L96.2 71.6L96.1 71.7L96.2 71.8V71.9V72H96.3V72.1H96.4V72.2H96.5V72.3V72.4V72.5H96.4V72.6H96.3V72.7V72.8V72.9H96.2V73H96.1V73.1H96V73.2H96.1V73.3H96.2V73.4V73.5L96.1 73.6V73.7H96.2V73.8V73.9H96.3H96.4H96.5H96.7H96.8H96.9H97.2L97.4 74H97.8H98.1L98.4 74.1H98.5H98.7H98.9H99L99.1 74.2H99.2H99.3H99.4V74.3H99.5H99.6H99.7H99.8V74.2H99.9H100H100.1H100.2H100.5L100.8 74.3H100.9H101H101.1H101.2H101.7H101.8H101.9H102H102.1H102.2L102.3 74.2H102.5H102.6L102.7 74.1H102.8L102.9 74.2L103 74.3H103.1V74.4H103.2V74.5H103.3L103.4 74.6H103.5L103.6 74.7L103.7 74.8V74.9H103.8L103.9 75L104 75.1L104.1 75.3L104.2 75.4H104.3V75.5V75.6V75.7L104.4 75.8V75.9L104.3 76L104.4 76.1H104.3V76.2V76.3V76.4V76.5V76.6L104.2 76.7H104.3V76.8V76.9V77V77.1V77.2H104.4V77.3H104.3V77.4V77.5V77.6V77.7V77.8H104.4V77.9H104.5V78V78.1L104.6 78.2V78.3V78.4V78.5H104.7L104.8 78.6V78.7L104.9 78.8H105V78.9H105.1V79V79.1H105.2H105.3V79.2V79.3H105.4V79.4H105.5V79.5V79.6V79.7H105.4V79.8V79.9L105.3 80V80.1V80.2V80.3H105.4H105.5V80.4H105.4V80.5V80.6H105.3H105.2H105.1V80.7V80.8H105L104.9 80.9V81V81.1H104.8V81.2H104.7V81.3H104.8V81.4V81.5H104.9V81.6H105V81.7V81.8V81.9H105.1H105.2L105.3 82L105.4 82.1H105.5H105.6H105.7V82.2H105.8L105.9 82.3H106L106.2 82.4L106.5 82.6H106.6L106.7 82.7H106.8L106.9 82.6L107 82.5H107.2H107.4H107.6H108H108.3H108.4H108.5V82.6H108.4V82.7V82.8V82.9H108.5H108.6H108.7H108.8H108.9H109.1L109.2 82.8H109.3H109.4L109.5 82.9H109.6L109.4 83.9H109.6H109.7V84H109.8H109.9L110 84.1H110.2L110.3 84.2H110.5L110.8 84.3L110.9 84.4H111V84.5H111.1H111.2H111.3H111.4V84.6H111.5H111.6V84.7H111.7H111.8V84.8L111.9 84.7V84.8H112V84.7H112.1H112.2H112.3V84.8H112.4H112.5V84.9H112.6H112.7L112.8 85H112.9V84.9H113H113.1H113.2H113.3V85V85.1H113.4H113.5V85.2V85.3H113.6H113.7V85.2H113.8V85.1H113.9V85L114 85.1V85.2V85.3V85.4V85.5H114.1H114.2H114.3H114.4H114.5V85.6L114.6 85.7H114.7H114.8V85.8L114.9 85.9V86H115H115.1V85.9H115.2V86H115.3V85.9H115.4H115.5V86V86.1H115.6H115.8H115.9V86.2V86.3L115.8 86.5V86.6V86.7L115.7 86.8L115.6 87.2V87.3L115.5 87.5V87.6V87.7V87.8H115.4V87.9V88L115.3 88.2L115.6 88.3V88.4H115.7L115.8 88.5L115.7 88.7L115.6 88.8L115.5 88.9L115.4 89H115.3H115.2L115.1 89.1L115 89.2L114.9 89.3L115 89.5L115.1 89.6H115.2L115.3 89.7H115.4L115.5 89.8H115.6H115.7V89.9L115.8 90H115.9V89.9L116 89.8V89.7L116.1 89.6V89.5V89.4H116.2V89.3L116.3 89.2V89.1L116.4 89V89.1V89.2V89.3V89.4L116.2 89.9L116.4 90.1H116.5L116.4 90.2L116.3 90.3L116 91L115.9 91.1H115.8H115.7L115.6 91.3H115.7V91.4L115.8 91.5L115.9 91.7L116.1 91.6V91.7L116.2 92L116.1 92.1V92.2H116L116.2 92.6L116.4 93.1L116.5 93.2V93.3V93.4V93.5H116.6V93.6L116.8 93.8L116.9 93.9L117 93.8V93.7H117.1H117.3H117.6L117.9 93.8H118.2H118.9L120 93.9H120.2H120.3H120.4H120.5H120.8H121L121.1 94H121.2H121.4H121.5H121.6H121.8H121.9H122.2V94.1H122.3H122.4H122.5H122.6H123.6H123.8L124.1 94.2H124.4H124.7H124.9L125.3 94.3H125.7H125.9H126.3L126.5 94.4H126.6H126.8H126.9H127H127.1V94.5V94.8V94.9V95L127.2 95.1V95.2V95.5L127.3 95.9L127.2 96.6V97L127.1 97.3V97.4V97.5V97.6L127 97.7V97.8V97.9V98V98.1V98.2H127.1V98.1H127.2V98.2H127.3H127.4V98.3V98.4H127.5H127.6V98.3H127.7L127.8 98.4H127.7L127.6 98.6L127.7 98.7H127.8L127.9 98.8V98.9H128H128.1V98.8H128.2H128.3V98.7V98.6H128.4L128.5 98.7H128.6V98.6V98.5H128.7V98.4H128.8V98.5L128.9 98.6V98.7V98.8H129H129.1V98.9H129V99H129.1V99.1V99.2H129.2H129.3V99.3V99.4H129.4H129.5H129.6V99.5V99.6L129.4 99.9L129.1 100.9L128.9 101.3V101.5L128.7 101.8L128.6 102L128.4 102.6V102.7V102.8V103L128.5 103.4L128.6 104.1L128.7 104.3L128.8 104.5V104.6V104.7H128.7H124.9H124.8H124.7H124.6H124.5H124.3H124H123.9H123.7H123.5H122.8H122.7H122.6L122.5 104.6H122.4L122.3 104.5H122.2H122.1L122 104.4H121.6H121.3L121 104.3H120.9H120.7H120.6H120.5V104.4V104.5H120.4H120.3H120.2H120.1H120V104.4H119.9L119.8 104.3V104.4L119.7 104.3V104.4H119.6H119.5H119.4H119.3V104.3H119.2H119.1V104.2H119H118.9V104.3V104.4H119V104.5H118.9V104.6L118.8 104.9L118.4 105H118H117.6H117.2V104.9H117.1L117 105L116.9 105.1V105.2H116.8V105.3V105.4V105.5L116.9 105.6V105.7H116.8V105.8V105.9V106L116.7 106.1V106.2H116.6H116.5V106.3H116.4H116.3V106.4V106.5V106.6L114.8 108.4L114.6 108.8L114.4 109.3L113.5 111.4L112.6 114.8L112.2 118L111.9 118.6V118.5V118.4H111.8H111.7H111.6V118.3H111.5V118.2H111.4V118.1V118H111.5H111.6V117.9H111.7V117.8V117.7V117.6V117.5V117.4H111.6H111.5H111.4V117.5H111.3H111.2H111.1H111H110.9H110.8H110.5H110.4H110.3H110.2H110.1H110L109.8 117.6H109.6H109.5L109.4 117.5V117.6L109.3 117.5H109.2H109H108.9H108.8H108.7H108.5H108.4H108.3L108.2 117.4H108.1V117.5H108H107.9V117.6H108H108.1H108.2V117.7V118.7H108L107.1 119.4L106.8 119.7L106.4 120.2L105.2 121.6H105.1H105H104.8H104.7H104.6H104.5H104.4H104.3H104.2H104.1H104H103.9H103.8H103.6H103.5H103.2H103.1H103H102.9H102.6H102.3H102.2H102.1H101.9H101.7H101.4H101.3H101.2H101H100.7H100.2H100.1H100H99.8H99.6H99.4H99.1H98.8H98.6H98.3H97.8H97.6V121.7V122.1V122.7V123.3V123.7H97.5H97.3H97.1L96.9 123.6L96.8 123.7H96.6H96.3H96.2H96H95.8H95.7H95.3H95.1H94.9H94.7H94.3H94.2H94.1H94H93.9H93.8H93.7H93.6H93.4H93.2H93.1H93H92.8H92.7H92.6H92.5H92.4H92.3V123.8V123.9V124V124.1V124.2V124.3V124.5L90.7 125.6L89.4 127.7L88.5 130.3L87.7 132.9L87.9 138.2L87.6 140.4L86.4 142.7L84.9 144.7L84.2 146L84.1 147.2L84.8 148L85.7 148.1L87.6 147.8L88.5 147.9L89.3 148.3L89.8 149.1L89.7 150.5V150.6L89.1 151.4L89 151.7L88.7 151.9H88.6H88.2H88H87.9H87.8L87.7 152L87.6 152.1L87.5 152.2H87.4H87.3H87.2H87.1H87L86.9 152.3H86.8H86.7H86.6V152.4H86.5H86.4V152.5V152.6V152.7V152.8H86.5V152.9H86.6V153V153.1L85.8 153.6L84.9 155.3L84.6 157.5L84.8 159.9L85.4 161.5H85.3V161.6H85.2L85.1 161.7H85V161.8H84.9L84.8 161.9H84.7V162H84.6L84.5 162.1V162.2H84.4H84.3V162.3V162.4H84.2H84.1V162.5H84V162.6H83.9V162.7V162.8H83.8V162.9H83.7V163V163.1H83.6V163.2V163.3H83.5V163.4V163.5H83.4V163.6V163.7H83.3V163.8V163.9H83.2V164L83.1 164.1L83 164.2V164.3L82.9 164.4V164.5H82.8V164.6H82.7V164.7H82.6V164.8H82.5V164.9H82.4L82.3 165V165.1H82.2V165.2H82.1V165.3H82V165.4H81.9V165.5H81.8V165.6H81.7V165.7H81.6V165.8H81.5V165.9H81.4H81.3V166H81.2V166.1H81.1H81H80.9V166.2H80.8H80.7V166.3H80.6V166.4H80.5H80.4V166.5H80.3H80.2V166.6V166.7H80.1V166.8H80V166.9H79.9V167L79.8 167.1V167.2H79.7V167.3H79.6V167.4H79.5V167.5H79.4V167.6H79.3V167.7H79.2H79.1V167.8H79V167.7V167.6H79.1H79.2V167.5H79.3H79.4V167.4L79.5 167.3V167.2H79.6H79.7V167.1H79.8V167H79.9V166.9V166.8V166.7H80V166.6V166.5V166.4H80.1V166.5H80.2H80.3V166.4H80.4V166.3H80.5V166.2H80.6V166.1L80.7 166V165.9H80.8H80.9H81V165.8H81.1V165.7H81.2V165.6H81.3H81.4H81.5V165.5V165.4V165.3V165.2V165.1H81.4V165V164.9V164.8V164.7L81.3 164.6V164.5V164.4L81.2 164.3V164.2L81.1 164.1V164V163.9H81V163.8V163.7L80.9 163.6V163.5H80.8V163.4L80.7 163.3V163.2H80.6V163.1L80.5 163L80.4 162.9V162.8H80.3V162.7L80.1 162.5L80 162.4L79.9 162.3L79.8 162.2L79.7 162.1V162H79.6L79.5 161.9L79.4 161.8H79.3L79.2 161.7L79.1 161.6H79H78.9L78.8 161.5H78.7H78.6H78.5L78.4 161.4H78.3H78.2H78.1H78V161.3H77.9H77.8H77.7H77.6V161.4H77.5H77.4V161.5H77.3L77.2 161.6V161.7H77.1V161.8H77V161.9V162H76.9V162.1H76.8V162.2L76.7 162.3V162.4H76.6V162.5V162.6V162.7H76.5V162.8H76.4V162.9H76.3H76.2H76.1V162.8H76H75.9H75.8L75.7 162.7H75.6H75.5V162.6H75.4H75.3V162.5H75.2H75.1V162.4H75H74.9V162.3H74.8H74.7H74.6V162.2H74.5H74.4H74.3H74.2H74.1H74H73.9H73.8H73.7H73.6V162.3H73.5V162.4H73.4L73.3 162.5H73.2V162.6H73.3V162.7H73.4H73.5V162.8H73.6H73.7V162.9H73.8H73.9V163L73.8 163.1H73.7H73.6H73.5L73.4 163H73.3L73.2 162.9H73.1H73L72.9 162.8L72.7 162.7H72.6L72.5 162.6H72.4V162.5H72.3H72.2H72.1V162.4H72H71.9V162.3H71.8H71.7V162.2H71.6H71.5L71.4 162.1H71.3L71.2 162H71.1V161.9H71H70.9L70.8 161.8H70.7V161.7H70.6H70.5L70.4 161.6H70.3H70.2V161.5H70.1H70L69.9 161.4H69.7L69.6 161.3H69.5H69.4H69.3H69.2H69.1H69V161.4H68.9H68.8H68.7V161.5H68.6L68.7 161.6H68.6H68.5H68.4H68.3H68.2H68.1H68H67.9H67.8H67.7L67.6 161.7H67.5H67.4V161.8H67.3H67.2V161.9H67.1H67H66.9V162H66.8H66.7H66.6V162.1H66.5L66.4 162.2H66.3L66.2 162.3H66.1V162.4H66L65.9 162.5V162.6H65.8H65.7V162.7H65.6V162.8H65.5H65.4V162.9H65.3H65.2H65.1H65V163H64.9H64.8H64.7V163.1H64.6V163.2H64.5H64.4H64.3H64.2V163.3H64.1V163.2H64H63.9L63.8 163.1H63.7H63.6V163H63.5H63.4H63.3H63.2H63.1H63H62.9H62.8H62.7H62.6V163.1H62.5H62.4H62.3H62.2V163.2H62.1H62L61.9 163.3H61.8H61.7H61.6H61.5V163.4H61.4H61.3H61.2H61.1V163.5H61H60.9H60.8H60.7H60.6H60.5H60.4V163.6H60.3H60.2H60.1H60H59.9H59.8H59.7H59.6H59.5H59.4H59.3H59.2H59.1H59V163.5H58.9H58.8H58.7H58.6H58.5H58.4V163.4H58.3H58.2V163.3H58.1L58 163.2H57.9H57.8V163.1H57.7H57.6H57.5V163H57.4H57.3V162.9H57.2H57.1H57L56.9 162.8H56.8H56.7L56.6 162.7H56.5H56.4V162.6H56.3H56.2V162.7L56.1 162.6V162.5H56H55.9L55.8 162.6V162.7H55.7V162.8H55.6V162.9L55.5 163V163.1H55.4H55.3L55.2 163.2H55.1V163.3H55H54.9H54.8V163.2V163.1V163V162.9H54.7V163V163.1H54.6V163.2H54.5H54.4H54.3H54.2H54.1V163.3L54.2 163.4V163.5V163.6H54.1H54V163.7H53.9H53.8H53.7V163.6H53.6V163.5H53.5V163.4H53.6V163.3V163.2V163.1V163H53.5V162.9V162.8V162.7H53.4V162.6V162.5H53.3V162.4L53.2 162.3V162.2H53.1V162.3V162.4V162.5H53.2V162.6V162.7H53.3V162.8V162.9H53.4V163H53.3V163.1H53.2V163V162.9H53.1V162.8V162.7H53V162.6V162.5V162.4H52.9V162.5H53V162.6V162.7V162.8V162.9L53.1 163V163.1V163.2H53H52.9H52.8V163.3H52.7H52.6H52.5H52.4H52.3V163.4H52.2H52.1H52H51.9H51.8L51.7 163.5H51.6H51.5H51.4H51.3V163.6H51.2H51.1V163.7H51V163.8H50.9H50.8V163.9H50.7V164H50.6V164.1H50.5L50.4 164.2V164.3L50.3 164.4V164.6V164.7V164.8V164.9V165H50.2H50.1L50 164.9V165L49.9 165.1L49.8 165.2L49.7 165.4L49.8 165.5H49.7H49.6L49.5 165.6L49.4 165.8V165.9H49.3L49.5 166L49.4 166.1L49.2 166.4H49.3V166.5H49.2V166.4H49.1H49H48.9L48.8 166.5V166.6H48.7V166.7V166.8H48.6V166.9H48.5V167H48.4V167.1L48.3 167.2V167.3H48.2V167.4H48.1V167.5H48V167.6V167.7H47.9V167.8L47.8 167.9V168L47.7 168.1V168.2L47.6 168.3V168.4H47.5V168.5V168.6H47.4V168.7V168.8H47.3V168.9L47.2 169L47.1 169.1V169.2L47 169.4L46.9 169.5V169.6L46.7 169.9L46.6 170.1L46.4 170.3L46.3 170.5L46.2 170.6V170.7L46.1 170.8L46 170.9V171H45.9V171.1H45.8V171.2L45.7 171.3L45.6 171.4L45.5 171.5V171.6H45.4V171.7H45.3V171.8L45.2 171.9L45.1 172V172.1H45V172.2H44.9V172.3H44.8V172.4H44.7V172.5H44.6V172.6H44.5L44.4 172.7V172.8H44.3V172.9L44.2 173L44.1 173.1L44 173.2V173.3L43.9 173.4V173.5H43.8V173.6H43.7V173.7V173.8H43.6V173.9H43.5V174V174.1H43.4V174.2H43.3V174.3V174.4H43.2V174.5H43.1V174.6V174.7H43V174.8L42.9 174.9V175H42.8V175.1L42.7 175.2V175.3H42.6V175.4L42.5 175.5V175.6H42.4V175.7V175.8H42.3V175.9L42.2 176V176.1H42.1V176.2V176.3H42V176.4L41.9 176.5V176.6H41.8V176.7H41.7V176.8V176.9H41.6V177H41.5V177.1V177.2H41.4V177.3H41.3V177.4V177.5H41.2V177.6H41.1V177.7H41V177.8V177.9H40.9V178H40.8V178.1H40.7V178.2H40.6V178.3L40.5 178.4L40.4 178.5V178.6H40.3V178.7H40.2V178.8H40.1V178.9H40H39.9V179H39.8V179.1H39.7H39.6V179.2H39.5H39.4V179.3H39.3H39.2H39.1H39H38.9H38.8H38.7H38.6H38.5V179.2V179.1V179H38.6V179.1V179.2H38.7V179.3H38.8H38.9V179.2H39H39.1L39.2 179.1H39.3V179H39.4V178.9H39.5V178.8H39.6H39.7V178.7V178.6H39.8V178.5L39.9 178.4V178.3H40V178.2H40.1V178.3H40V178.4L39.9 178.5H40V178.6H40.1V178.5H40.2V178.4H40.3V178.3V178.2H40.4V178.1H40.5V178.2L40.6 178.1V178H40.7V177.9H40.6V178H40.5V177.9V177.8H40.6V177.7V177.6V177.5V177.4V177.3V177.2H40.5V177.1V177V176.9L40.4 176.8V176.7V176.6V176.5H40.5V176.4H40.4V176.3V176.2V176.1H40.3V176H40.2V175.9L40.1 175.8V175.7H40V175.6H39.9L39.8 175.5V175.4H39.7V175.3H39.6V175.2L39.5 175.1L39.4 175L39.3 174.9L39.2 174.8H39.1V174.7H39V174.6H38.9V174.5H38.8V174.4H38.7L38.6 174.3H38.5V174.2H38.4L38.3 174.1H38.2L38.1 174L38 173.9H37.9L37.8 173.8H37.7V173.7H37.6L37.5 173.6H37.4H37.3V173.5H37.2H37.1L37 173.4H36.9L36.8 173.3H36.7H36.6L36.5 173.2H36.4H36.3H36.2H36.1H36H35.9L35.8 173.3H35.7V173.4H35.6V173.5H35.5V173.6H35.4V173.7H35.3V173.8H35.2V173.9V174H35.1V174.1H35V174.2H34.9V174.3H34.8V174.4H34.7H34.6H34.5H34.4H34.3H34.2H34.1H34H33.9V174.5H33.8H33.7V174.6H33.6V174.7H33.5V174.8V174.9H33.4V175H33.3V175.1H33.2V175.2H33.1V175.3H33L32.9 175.4V175.5H32.8V175.6H32.7V175.7H32.6V175.8H32.5L32.4 175.9H32.3V176H32.2H32.1H32H31.9V176.1H31.8H31.7H31.6H31.5H31.4H31.3L31.2 176.2H31.1H31H30.9L30.7 176.3L30.5 176.4H30.4H30.3L30.2 176.5H30.1V176.6H30L29.9 176.7H29.8V176.8H29.7V176.9H29.6V177H29.5H29.4V177.1H29.3H29.2V177.2H29.1V177.3H29H28.9V177.4H28.8H28.7V177.5H28.6H28.5V177.6H28.4V177.7H28.3H28.2H28.1V177.8H28H27.9V177.9H27.8H27.7V178H27.6H27.5L27.4 178.1H27.3ZM111.9 118.7L111.8 118.9H111.7V118.8V118.7H111.8H111.9Z" fill="#6F9C76"/>
<path d="M23.6 160.3H23.7V160.4H23.8V160.3H23.9V160.2V160.1H24V160H24.1H24.2V160.1H24.3V160.2V160.3V160.4H24.2V160.5H24.3V160.6V160.7H24.2V160.8V160.9V161V161.1H24.3V161.2H24.4H24.5L24.6 161.1H24.7V161.2V161.3V161.4V161.5V161.6H24.6V161.7V161.8H24.5V161.9H24.4H24.3V162V162.1V162.2H24.4V162.3H24.5H24.6V162.2H24.7V162.3H24.8V162.4H24.7V162.5H24.6V162.6V162.7V162.8H24.7H24.8V162.9V163H24.7V163.1V163.2H24.6V163.3H24.5H24.4H24.3V163.4H24.2H24.1H24H23.9V163.5H23.8V163.6H23.7H23.6H23.5V163.7H23.6L23.7 163.8H23.8V163.9H23.9L24.1 164L24.2 164.1H24.3H24.4L24.6 164.2L24.7 164.3L25 164.4L25.3 164.6L26 164.9L26.5 165.1L26.9 165.3L27.5 165.6L27.7 165.8L27.9 165.9L28.3 166L28.4 165.9V165.8L28.5 165.7L28.6 165.6L29.1 165.2L29.4 165.4L29.8 165.9L30.1 166.2L30.4 166.6L30.5 166.7L30.2 167L29.9 167.4L29.3 168.1L29.1 168.4L28.8 168.9L28.7 169L28.9 169.2L29.4 169.5L29.5 169.6L29.7 169.7L30 170L30.5 170.3L31 170.7H31.1L31.2 170.8L31.3 170.9L31.2 171L31 171.2L30.8 171.3L30.5 171.6L30.3 171.7L29.9 172L29.3 172.5L28.9 171.9H28.8L28.3 172.3L28 172.6L27.4 173.1L27.2 173.3L26.7 173.7H26.6L26.5 173.8L26.1 174.1L25.9 174.4H25.8L25.4 174.8L25.3 174.9L25.7 175.4V175.5H25.8L25.9 175.7L26 175.8L26.1 176V176.1L26.2 176.2L26.4 176.5L26.7 177L26.9 177.4L27.3 178V178.1H27.4L27.5 178H27.6H27.7V177.9H27.8H27.9V177.8H28H28.1V177.7H28.2H28.3H28.4V177.6H28.5V177.5H28.6H28.7V177.4H28.8H28.9V177.3H29H29.1V177.2H29.2V177.1H29.3H29.4V177H29.5H29.6V176.9H29.7V176.8H29.8V176.7H29.9L30 176.6H30.1V176.5H30.2L30.3 176.4H30.4H30.5L30.7 176.3L30.9 176.2H31H31.1H31.2L31.3 176.1H31.4H31.5H31.6H31.7H31.8H31.9V176H32H32.1H32.2H32.3V175.9H32.4L32.5 175.8H32.6V175.7H32.7V175.6H32.8V175.5H32.9V175.4L33 175.3H33.1V175.2H33.2V175.1H33.3V175H33.4V174.9H33.5V174.8V174.7H33.6V174.6H33.7V174.5H33.8H33.9V174.4H34H34.1H34.2H34.3H34.4H34.5H34.6H34.7H34.8V174.3H34.9V174.2H35V174.1H35.1V174H35.2V173.9V173.8H35.3V173.7H35.4V173.6H35.5V173.5H35.6V173.4H35.7V173.3H35.8L35.9 173.2H36H36.1H36.2H36.3H36.4H36.5L36.6 173.3H36.7H36.8L36.9 173.4H37L37.1 173.5H37.2H37.3V173.6H37.4H37.5L37.6 173.7H37.7V173.8H37.8L37.9 173.9H38L38.1 174L38.2 174.1H38.3L38.4 174.2H38.5V174.3H38.6L38.7 174.4H38.8V174.5H38.9V174.6H39V174.7H39.1V174.8H39.2L39.3 174.9L39.4 175L39.5 175.1L39.6 175.2V175.3H39.7V175.4H39.8V175.5L39.9 175.6H40V175.7H40.1V175.8L40.2 175.9V176H40.3V176.1H40.4V176.2V176.3V176.4M23.6 160.3V160.2M23.6 160.3H23.5H23.4H23.3L23.2 160.2H23.1V160.1L23.2 160V159.9H23.1V159.8H23V159.7L22.9 159.6H22.8H22.7V159.5V159.4H22.8V159.3V159.2M22.8 159.2H22.9M22.8 159.2V159.1H22.7V159H22.6V158.9H22.5H22.4V158.8H22.3V158.7V158.6V158.5H22.2H22.1H22H21.9V158.4V158.3V158.2V158.1H21.8H21.7V158V157.9V157.8H21.6V157.7H21.5H21.4H21.3V157.8L21.2 157.9H21.1V157.8L21 157.7V157.6V157.5V157.4V157.3H20.9H20.8V157.4H20.7V157.5H20.6V157.6H20.5H20.4V157.7H20.3V157.6V157.5V157.4V157.3V157.2H20.4V157.1V157M20.4 157H20.3M20.4 157L20.3 156.9V157M20.3 157H20.2V156.9V156.8H20.1V156.9H20V157H19.9V157.1V157.2V157.3H19.8H19.7V157.4H19.6H19.5V157.3H19.4V157.2H19.5V157.1H19.4V157H19.3H19.2V156.9H19.3L19.2 156.8V156.7H19.1H19L18.9 156.8H18.8V156.9H18.7H18.6H18.5V156.8H18.4V156.7H18.5V156.6V156.5H18.4V156.4H18.3V156.5V156.6H18.2H18.1V156.5H18V156.4V156.3V156.2H17.9V156.1H17.8L17.7 156V155.9H17.6H17.5H17.4V155.8H17.3V155.7V155.6H17.2L17.1 155.5V155.4V155.3H17V155.2H16.9V155.1V155H17V154.9H16.9L16.8 154.8H17.1H17.3H17.5H17.6H18.1H18.3V154.7H18.4H18.5H18.6L18.3 154.5L18.2 154.3H18.3H19.2H19.5L20.7 154.2V154.7H20.9L22.1 154.6H22.3V154.5L22.2 154.2V153.9L22.1 153.6V153.4L22 153V152.8L21.9 152.6H21.7H21.6V152.5V152.4L21.4 151.7L21.3 150.7L21.2 150.5V150.4V150.2V149.8L21.1 149.4L21 149V148.3V148.2L20.9 148V147.8L20.8 147.5L20.6 146.8V146.7L20.4 145.9H20.5L20.6 145.8H21.4L21.5 146.5H21.6H21.8L22.2 146.4H22.6H23.3L23.9 146.3H24H24.1H24.6L25.5 146.2V146.3H25.6V146.4V146.5H25.7V146.6H25.8M25.8 146.6V146.7M25.8 146.6H25.9V146.7V146.8V146.9H26V147V147.1V147.2H25.9V147.3H26L26.9 146.9L27.4 146.6L28.3 146.2V146H28.2L28.3 145.8L28.2 145.7V145.6H28.5L29 145.4L28.8 145.1L29.5 144.7L29.7 144.6L30.3 144.3L30.2 143.7L30 143.1L29.8 142.4L29.5 141.7H29.6L30.4 141.5L30.7 141.4H30.8L31.1 141.3H31.2H31.3V141.4L31.4 141.5H31.5L31.6 141.8V141.9L31.7 142V142.1L31.9 142.5V142.6L32.1 143.5L32.3 144.2L32.8 144L33.5 143.6L34.4 143.1L34.3 142.9L34.2 142.5L34 141.9L34.4 140.9L34.5 140.6L34.7 140.1L34.8 139.7L35.1 139.1L35.2 138.9L35.3 138.6L35.6 137.9V137.8L35.7 137.5L35.9 137.1H36.1L36.2 136.8L36.3 136.7V136.5L36.5 136.2V135.8L36.4 135.7L36.3 135.6H36.2V135.5L36.3 135.4L36.5 134.8V134.7H35.2H34.8V134.9H34.7L34.6 134.7H34.5H34.4H33.8H33.7L33.8 134.5V134.4L34.1 134L33.9 133.9L33.7 133.8L33.2 133.6L32.9 134.2V134.3L32.3 135.4L32.2 135.5V135.6L32.1 135.8L32 135.7L31.8 135.6L31.5 135.3L30.7 134.8V134.7H30.6L30.2 134.3L29 133.2L28.4 132.7L28.1 133L28 132.9H27.9V132.8L27.7 132.5L27 131.3L26.8 131L26.4 130.2L26.2 129.9L26.1 129.7L25.9 129.5L25.7 129.1V129L25.5 128.8L25.4 128.7L25.3 128.5H25.2L25 128.7L24.3 129.5H24.2L23.7 128.6H23.6V128.5L23.2 127.9L22.5 128.4L21.4 126.7L20.4 127.6L19.9 128.1H19.8L19.3 128.6L18.9 129H18.8L18.5 128.5L18.2 127.8L18 127.5L17.7 127L17.5 126.6L17.3 126.2L17.1 125.9L16.9 125.6L16.8 125.3L16.5 124.8L16.3 124.4L16.2 124.3L16 123.8L15.7 123.3L15.6 123.1L15.5 123.2H15.4L15.2 123.3L15 123.4L14.7 123.6L14.3 123.8L13.8 124.1L13.4 124.3L12.8 124.6L12.5 124.8H12.4L12.3 124.9H12.2V124.8V124.7V124.6V124.5V124.4H12.3H11.9H11.5L11.4 124L11.3 123.3H11.5H11.7L12.3 123.2V123.1V123V122.9V122.7V122.6V122.5L12.4 122.4H12.3H12L11 122.5L10.3 122.6L10.2 122.2V122L10.1 121.6V121.5L10 120.8L9.90002 120.5L10.8 120.4L11.8 120.3V120.1H11.7V119.9H11.9H12H12.1H12.3L12.5 119.8V119.9L12.7 120V120.1H12.8H12.9V120V119.9V119.8M12.9 119.8H12.8V119.7H12.9V119.8ZM12.9 119.8L13 119.9H13.1V119.8H13V119.7H13.1M13.1 119.7V119.6M13.1 119.7H13.2V119.6V119.5H13.3V119.4L13.2 119.3H13.1V119.2L13.2 119.1V119V118.9H13.3H13.4V119H13.5V118.9H13.6H13.7V118.8H13.6V118.7V118.6H13.4H13.2L13 118.7H12.6L12.1 118.8L11.3 118.9H10.9H10.7L10.3 119L9.70001 119.1V118.8L9.59998 118.4V118.2L9.5 118V117.9V117.5L9.40002 117L9.29999 116.4L9.20001 115.9L9 115L8.70001 115.1H8.29999L8.20001 114.6L8.09998 114.1V113.8V113.7L8 113.4V113.2V113.1V113V112.8L7.90002 112L7.79999 111.9V111.6V111.3L7.59998 110.6V110.4L7.20001 110.5L6.79999 110.6L5.79999 110.8H5.70001H5.59998L5.20001 110.9L4.20001 111L4 111.1H3.79999H3.70001H3.59998L3.40002 111V110.7V110.2V109.7V109V108.8V108.7H3.70001H3.90002V108.6H4V108.4L4.09998 108L4.29999 107.4L4.40002 106.9L4.29999 106.6L4.20001 106.2V106.1L3.90002 106.2H3.79999V106.3H3.70001H3.59998L3.20001 106.4V106.1L3.09998 105.3L3 105.2L2.90002 104.6L2.79999 103.9L1.40002 104.1L1.29999 103.5V103.4V103.3V103.1L1.20001 102.7L1.09998 102.3V102.1V102L1.29999 101.9L2.09998 101.8H2.20001H2.40002H2.5L2.70001 101.7H2.79999H2.90002H3H3.09998H3.20001L3.29999 101.6H3.59998L3.5 101V100.8H3.59998H3.70001H3.90002L4.29999 100.9L4.5 101L4.90002 101.1L5.29999 101L5.90002 100.9H6L5.90002 100L5.79999 99.6V99.4L5.70001 99.1L5.59998 98.8V98.5L5.5 97.8H5.40002H5.09998L5 97.9H4.5L3.90002 98.1H3.59998L3.29999 98.2L3.20001 97.6L3.09998 97L3 96.5L2.90002 95.7L2.79999 95.3V95.2V95H2.90002V94.9H3H3.09998H3.20001H3.29999V94.8V94.7H3.20001V94.6L3.09998 94.5V94.4H3V94.3L2.90002 94.2L2.79999 94.1H2.70001H2.59998V94.2L2.5 94.1H2.40002V94V93.9H2.5L2.59998 93.8H2.70001H2.79999V93.7H2.90002H3H3.09998V93.6H3.20001H3.29999V93.5H3.40002V93.4H3.5V93.3V93.2H3.40002V93.1V93V92.9V92.8H3.29999V92.7V92.6L3.20001 92.5V92.4H3.09998V92.3L3 92.2V92.1H2.90002V92H2.79999L2.70001 91.9V91.8V91.7H2.79999V91.6H2.90002V91.5V91.4L3 91.3L3.09998 91.2L3.20001 91.1V91H3.29999L3.40002 90.9H3.29999V90.8V90.7L3.20001 90.6V90.5H3.09998V90.4H3V90.3H2.90002V90.2V90.1H3H3.09998H3.20001H3.29999V90V89.9V89.8V89.7V89.6H3.20001V89.5V89.4L3.29999 89.3V89.2V89.1H3.20001H3.09998L3 89V88.9L3.09998 88.8V88.9H3.20001V89H3.29999L3.40002 88.9V88.8H3.29999V88.7V88.6H3.40002L3.5 88.7H3.59998H3.70001L3.79999 88.6H3.90002V88.5H4H4.09998H4.20001V88.4V88.3H4.09998L4 88.2V88.1H4.09998V88H4.20001V88.1H4.29999H4.40002H4.5V88.2V88.3H4.59998H4.70001V88.4H4.79999H4.90002V88.5H5V88.6H5.09998V88.7H5.20001V88.6L5.29999 88.5V88.4H5.40002M5.40002 88.4V88.5H5.5V88.6H5.59998V88.5L5.70001 88.4H5.59998V88.3L5.5 88.4H5.40002ZM5.40002 88.4V88.3V88.2H5.5H5.59998H5.70001V88.3H5.79999V88.2H5.90002V88.1H6V88.2H6.09998V88.3H6.20001L6.29999 88.2V88.1H6.40002V88.2H6.5M6.5 88.2V88.3M6.5 88.2H6.59998V88.1H6.5V88H6.59998L6.5 87.9H6.40002V87.8H6.29999H6.20001V87.9H6.09998V88H6V87.9H5.90002V87.8H5.79999V87.7H5.90002H6H6.09998H6.20001V87.6H6.29999V87.7H6.40002H6.5V87.6V87.5V87.4H6.59998V87.3H6.70001V87.4H6.79999H6.90002V87.5V87.6H6.79999V87.7V87.8H6.90002V87.9H7V88H7.09998V88.1V88.2L7.20001 88.3H7.29999V88.2L7.40002 88.1V88H7.5H7.59998L7.70001 88.1V88H7.79999V88.1H7.90002V88.2H8L8.09998 88.3V88.4H8.20001H8.29999H8.40002H8.5H8.59998H8.70001H8.79999H8.90002V88.5H9V88.6L9.09998 88.7H9.20001H9.29999H9.40002V88.8H9.5V88.9H9.59998H9.70001V88.8V88.7H9.79999V88.6V88.5H9.90002H10V88.6H10.1V88.7V88.8H10.2V88.9H10.3V89V89.1V89.2V89.3V89.4H10.4V89.5V89.6H10.5V89.7H10.6H10.7H10.8H10.9H11H11.1V89.8H11V89.9V90H11.1V89.9H11.2V90H11.3M11.3 90V90.1M11.3 90H11.4V90.1V90.2H11.5V90.3H11.4H11.3V90.4H11.2M11.2 90.4V90.3M11.2 90.4V90.5V90.6V90.7L11.1 90.8V90.9H11.2H11.3V91H11.2V91.1H11.3H11.4H11.5V91.2H11.6H11.7H11.8V91.1H11.9V91H12H12.1V90.9V90.8V90.7H12.2H12.3V90.8H12.4V90.9L12.5 91H12.6V91.1H12.7V91.2V91.3H12.8H12.9V91.2H13H13.1V91.3H13.2M13.2 91.3V91.4M13.2 91.3H13.3V91.2V91.1M13.3 91.1H13.4M13.3 91.1V91H13.4H13.5V91.1H13.6V91.2H13.7M13.7 91.2V91.3M13.7 91.2H13.8H13.9V91.1H14V91H14.1V90.9H14.2H14.3V91V91.1V91.2V91.3H14.4V91.4H14.5V91.5V91.6H14.6V91.7L14.7 91.8H14.8H14.9H15V91.9H15.1L15.2 92H15.3V92.1H15.4V92.2H15.5H15.6H15.7H15.8H15.9H16V92.1L16.1 92H16.2H16.3L16.4 92.1V92.2H16.5V92.3H16.7L16.8 92.4H16.9V92.3V92.2V92.1V92V91.8L17 91.5V91H17.2H17.5H17.9L18 90.6V90.2H18.2V90.1L18.3 89.9L18.5 89.6L18.9 89L18.8 88.4V87.8L18.7 87.4V87.2L18.6 86.8V86.7V86.6V86.5L18.5 86.4V86L18.4 85.5V85.3L18.3 85V84.7V84.6V84.5V84.4L18.2 84.3V84.2V84.1V84V83.9V83.7L18.1 83.4L18 83L17.9 82.2V81.8L17.8 81.5V81H17.9L18 81.1H18.1V81.2L18.2 81.1H18.3H18.4V81.2H18.3V81.3V81.4H18.4V81.5H18.5H18.6V81.4H18.7H18.8V81.3V81.2L18.7 81.1H18.8V81H18.9V80.9H18.8H18.7V80.8V80.7H18.8V80.6V80.5V80.4H18.9V80.5V80.6V80.7H19H19.1V80.6V80.5L19.2 80.4V80.5V80.6V80.7H19.3H19.4V80.6V80.5H19.3V80.4V80.3H19.4H19.5V80.4H19.6V80.3H19.7H19.8V80.2H19.9H20H20.1H20.2H20.3H20.4H20.5V80.1H20.6H20.7H20.8L20.9 80.2H21L20.9 79.9L20.7 78.1V78L20.6 77.4L20.5 77V76.8V76.7L20.4 76.3V75.8L20.3 75.6V75.5V75.1L20.2 74.6L20.1 74.1L20 73L19.9 72.3L19.7 71.5L19.3 71.6L17.9 71.8H17.8L17.7 70.9H17.5V71H17.1L16.4 71.1L15.4 71.2H15.3L14.9 71.3V71.2V71.1L14.8 70.5L14.7 69.9V69.8L14.6 69L14.5 68.6L14.8 68.5H14.9L14.8 68.2V68.1V67.9V67.6L14.7 67.4V67.3V67.2V67H14.8V67.1H14.9V67.2H15H15.1H15.2L15.3 67.1V67H15.4V66.9H15.5V66.8V66.7L15.4 66.4L15.3 65.8V65.5V65.4L15.2 65.1V64.8V64.6V64.5L15.1 64.1H15.4H15.5H15.6L15.7 64H15.8V63.9V63.8H15.7H15.6V63.7H15.5H15.4L15.3 63.6V63.5H15.4L15.5 63.4H15.6V63.3H15.7V63.4H15.8V63.3H15.9V63.2V63.1H16H16.1H16.2M16.2 63.1V63M16.2 63.1H16.3V63.2H16.4V63.3H16.5V63.4H16.6H16.7V63.3V63.2H16.6V63.1V63V62.9V62.8H16.7L16.6 62.7L16.5 62.5V62.4V62.1L16.4 61.7V61.3H16.1H15.9V60.8L15.8 60.2V59.6L15.7 59.2V59.1V58.9L15.6 58.2L16 58.1H16.5L16.9 58V57.5L16.8 57.3L16.7 56.2V55.9L16.6 55.7L18 55.5H18.2V55.4L19 55.3H19.3H19.4V55.2V55.1V54.9V54.8L19.3 54.7V54.6V54.2L19.2 53.7H19.1L18.4 53.8V53.7L18.3 53.1H18.2L17.7 53.2L17.1 51.8H17H16.9H16.8H16.6H16.5L16.2 51.9H15.8H15.3V51.7H14.9L14.6 51.8L14.4 50.3V50.1V49.7H14.1H13.9H13.8H13.6H13.1L13 49.4H12.6L11.3 49.7V49.6L11.2 49.1L11 47.6V47.4V47.1L10.9 46.9V46.8V46.7V46.6V46.5L10.8 46.2V46.1V46V45.9H10.7V45.8H10.6H10.5V45.7M10.5 45.7H10.4M10.5 45.7V45.6V45.5V45.4H10.4M10.4 45.4V45.3M10.4 45.4H10.3V45.3H10.2V45.2V45.1H10.3H10.4H10.5H10.6V45V44.9H10.5V44.8H10.4H10.3V44.7V44.6H10.2H10.1V44.5L10.2 44.4M10.2 44.4H10.3M10.2 44.4V44.3H10.3H10.4V44.2H10.3V44.1L10.2 44V43.9V43.8H10.1H10H9.90002V43.7V43.6H10V43.5H9.90002V43.4H9.79999V43.3V43.2H9.90002H10L9.90002 43.1V43H10V43.1H10.1V43V42.9H10V42.8V42.7V42.6L9.90002 42.5M9.90002 42.5V42.4M9.90002 42.5H9.79999H9.70001V42.4H9.59998V42.3H9.70001H9.79999H9.90002V42.2H10V42.3L10.1 42.2H10.2H10.3H10.4H10.5V42.1H10.6V42V41.9L10.7 41.8L10.8 41.6V41.4V41.3H10.7V41.2V41.1H10.6V41L10.5 40.9L10.4 40.8V40.7L10.3 40.6L10.1 39.9L9.90002 39.2L9.70001 38.5V38.4H9.79999H9.90002V38.3V38.1L9.79999 38L9.70001 37.9V37.8V37.7H9.59998L9.70001 37.6V37.5L9.59998 37.1L9.5 36.7V36.6V36.5H9.40002H9.29999H9.20001H9.09998H9H8.90002V36.4H8.79999H8.70001V36.5H8.59998V36.4L8.5 36.1V35.9L8.70001 35.8L8.79999 35.6L8.90002 35.5H9L9.09998 35.4H9.20001V35.3L9.29999 35.2V35.1L9.40002 34.9L9.5 34.8L9.59998 34.6L9.79999 34.3L9.90002 34L10.1 33.7H10.2H10.3H10.5L10.6 33.8H10.7H10.8H10.9L11 33.9H11.1L11.3 34H11.4L11.7 34.2H11.9L12.1 34.3H12.2H12.3H12.4H12.5H12.6H12.7L13 34.2L13.1 34.1H13.3L13.4 34H13.5H13.6L13.4 34.6L13.3 34.9L13.7 35.2L13.6 35.3L13.5 35.6H13.6L13.8 35.7H14H14.1H14.4L14.6 35.8H14.7H14.9L15 36.1H15.1L15.2 36.3H15.4L15.9 36.2H16.1V36.1V36V35.9L16.2 35.8L16.3 35.5L16.4 35.1L16.6 34.6L16.8 34.1H17.6L18 34.2H18.2H18.9L20 34.3H20.2V34.4V34.5H20.3V34.6H20.5L20.8 34.7H21.3H21.4L21.5 34.4H21.6L21.7 34.5L22.4 34.6H22.5H22.6V34.7H22.7V34.8H22.8H22.9V34.9V35H23V35.1H23.1V35.2H23.2V35.3H23.3V35.4V35.5H23.4V35.6V35.7H23.5V35.8V35.9H23.6V36V36.1H23.7H23.8V36.2H23.9V36.3H24V36.4H24.1V36.5H24.2V36.6V36.7H24.3M24.3 36.7V36.8M24.3 36.7L24.4 36.8H24.5H24.6H24.7V36.9L24.8 37L24.9 37.1H25V37.2H25.1V37.3V37.4H25.2V37.5H25.3V37.6V37.7H25.4H25.5V37.8H25.6L25.7 37.9V38H25.8L26 37.8H26.1L26.2 37.5L26.3 37V36.7H26.4L25.9 36.6H25.4H25.3L25.4 36.3V36.1V36H25.3L25.1 35.9L24.9 35.8L24.8 35.7L24.5 35.5L24.2 35.3L23.9 35.1L24.2 34.7V34.6L24.4 34.3L24.5 34.1V33.9H24.8H24.9L25 34H25.1L25.2 33.6V33.3L25.4 32.7L25.6 32.8H25.7L25.8 32.9H25.9H26H26.1H26.2L26.3 33H26.4H26.6H27.2H27.5L27.6 32.8H28H28.1L28.5 31.8L29.2 30.2L29.7 30.4L29.8 30.5L30.2 30.6L30.7 30.8H30.8H30.9H31H31.1H31.2L31.6 30.9L31.5 31.1L31.4 31.2L31.3 31.5V31.6H31.8L31.9 31.8V31.9L32 32V32.1L32.1 32.2L32.2 32.3H32.3H32.4L32.5 32.4H32.6L32.8 32.5L32.9 32.6L33.1 32.7L33.9 33V32.7L34 30.4V30.3V30.1L33.9 29.7L33.8 29.3V29V28.9V28.7H33.7V28.6L33.8 28.5V28.4V28.3V28.2H33.9V28.1V27.9V27.8H34H34.1V27.9H34.2V27.8H34.3V27.7V27.6H34.4H34.5H34.6V27.5H34.7V27.4H34.8V27.3H34.9V27.2H35V27.1V27L35.1 26.9V26.8L35.2 26.7L35.3 26.6V26.5H35.4V26.4V26.3V26.2H35.5V26.1L35.4 26H35.5V25.9V25.8H35.7H35.8L36.5 25.9V25.8L37.6 25.9L37.7 25.5V24.7H38.5H38.7H39.1H39.3V24.8V24.9V25H39.4V24.9H39.6L40 24.7H40.3L40.6 24.8H40.7L40.8 24.5V24.4L40.9 24.1V23.8H40.8H40.7V23.7V23.6L40.9 23.4V23.3L40.7 23.2V23.5H40.6V23.6H40.5V23.5H40.4H40.3H40.2L40.1 23.4H40V23.3V23.2H39.9H39.8V23.1H39.7V23V22.9V22.8V22.5H39.8H40.1L40.3 22.4V22.3V22.2L40.4 22.1H40.3H40.2H40.1H40H39.9V22H39.8V21.9V21.8H39.7H39.6V21.7H39.5V21.6V21.5H39.6V21.4H39.7H39.8H39.9L39.8 21.3L39.7 21.2L39.5 21.3H39.4H39.3H39.2H39.1V21.2L39 21.1V21H39.1V20.9H39.2H39.3V20.8H39.2V20.7V20.6H39.3L39.4 20.7V20.6V20.5H39.5V20.4L39.6 20.3L39.7 20.2V20.3H39.8H39.9H40V20.4V20.5H40.1V20.3V20.2V20.1H40.2H40.3H40.4H40.5M40.5 20.1H40.6M40.5 20.1V20V19.9H40.4H40.3H40.1H40M40 19.9V19.8M40 19.9H39.9V19.8L40 19.6H40.3H40.4L40.5 19.5L40.8 19.3V19.4L41.2 19.2V19.1H41.3V19V18.9L41.4 18.7L41.5 18.5H41.6L41.8 18.6L41.9 18.7H42L42.2 18.8L42.3 18.9V19.1V19.3L42.4 19.4H42.5H42.6V19.3H42.8V19.2H42.9H43V19.1V18.8L42.9 18.5V18.4V17.9V17.5L43 17.2L43.1 16.7L43.6 16.8L43.7 16.9L43.8 16.8V16.9H43.9V16.8V16.7V16.6L43.8 16.5H43.7V16.4L43.6 16.3V16.2V16.1V16V15.9H43.7V15.8H43.8L43.7 15.6L43.6 15.4V15.3L43.5 15.2V15.1L43.6 15H43.7L43.8 14.9H43.9H44H44.1L44.2 14.8H44.3H44.4H44.5H44.6H44.7L44.8 14.7L44.9 14.6L45 14.5V14.4L45.1 14.3V14.2L45.2 14.1V14H45.3L45.4 14.1H45.5H45.7H45.8V14.2H45.9H46V14.1H46.1L46.3 14V14.1L46.4 14.2L46.5 14.3H46.6L46.7 14.2L46.8 14.1V14H46.9V14.1V14.2V14.3V14.4V14.5H46.8L46.9 14.6V14.7H47V14.6H47.1V14.5H47.2V14.4H47.3M47.3 14.4V14.5M47.3 14.4H47.4V14.3H47.5V14.2L47.6 14.1V14H47.7V14.1V14.2V14.3V14.4V14.5L47.8 14.6L47.9 14.5V14.4L48.1 14.3L48.2 14.1V14V13.9H48.3H48.4M48.4 13.9V14M48.4 13.9H48.5H48.6H48.9H49.1H49.2V13.8V13.7L49.3 13.6V13.5H49.4L49.5 13.4H49.6L49.7 13.3V13.2V13.1V13V12.9H49.8V12.8V12.7H49.7V12.6V12.5L49.6 12.4V12.3L49.5 12.2L49.4 12.1L49.3 12L49.4 11.7H49.3L49.1 11.6V11.5H49V11.4L48.9 11.3L48.7 11.1L48.9 11L49.1 10.7L49.2 10.8H49.3L49.6 10.7L51.1 10.3L51.7 10.1L53.1 9.39999L53.7 9.10001V9L53.5 8.79999H53.4L53.3 8.70001L53.2 8.5L53.1 8.39999L53 8.29999H52.9H52.8L52.6 8.5H52.5L52.3 8.20001V8.10001H52.2V8L52.1 7.89999H52L51.8 7.79999L51.7 7.70001H51.6V7.60001H51.5L51.7 7.5L51.9 7.39999H52H52.1L52.3 7.60001H52.4H52.5H52.6V7.5V7.39999V7.29999L52.5 7.20001V7L52.4 6.89999V6.79999V6.70001V6.60001H52.3V6.39999V6.29999V6.20001H52.2V6.10001H52.1V6H52L51.9 5.89999L51.7 5.79999L51.4 5.60001L51.2 5.5L51 5.39999L50.9 5.29999L50.7 5.20001H50.6L50.4 5.10001L50.2 5H50.1H50L49.9 4.89999H49.8H49.7H49.6H49.5L49.4 4.79999H49.3V4.70001H49.4L49.5 4.29999L49.6 4.20001V4L49.7 3.89999L49.8 3.70001L49.9 3.60001L50 3.5L51.1 2.79999L51.5 2.5L51.7 2.29999L51.8 2.20001L52 1.89999L52.1 1.79999V1.70001H52.2L52.5 1.20001L52.6 1.10001L52.8 1L52.9 0.899994H53.1H53.2H53.4L53.5 1H53.6H54H54.1H54.3H54.4H54.5L54.7 0.899994H54.8L55 0.799988H55.1H55.2H55.3L55.5 0.899994L56.2 1L56.9 1.10001L57.6 1.29999L58.2 1.39999L59 1.60001L59.7 1.70001L59.9 1.79999H60.1H60.2L60.6 2L61.8 2.39999L62.7 2.60001L63.4 2.89999L63.9 3L64.4 3.20001V3.10001V2.89999V2.79999H64.5H64.6H64.7H64.8H64.9H65V2.89999H65.1V2.79999H65.2H65.3L65.6 2.89999H65.8V3.10001L66.3 3.20001H66.4H66.7L66.8 3H66.9V2.89999L67 2L67.1 1.70001L67.2 1.60001L67.3 1.29999L67.4 1.10001L67.6 0.899994V0.799988L67.7 0.700012V0.600006L67.8 0.5H67.9H68H68.1L68.2 0.399994V0.5L68.3 0.700012V0.799988L68.4 0.899994V1.10001L68.5 1.29999L68.4 1.39999L68.5 1.70001L69.1 1.89999V2.39999L69.7 2.29999H69.9H70L70.4 3.10001L70.8 2.89999L71.2 3.79999L71.3 3.89999V4L70.5 4.29999L70.2 4.39999V4.5L69.9 4.60001V4.79999H69.8V4.89999L69.4 5.10001L69.2 5.29999L69.6 5.79999L69.7 5.89999V6L69.2 6.39999L69.6 6.79999L69.7 6.89999L70 7.10001L70.2 7.20001L70.5 7.39999L70.7 7.60001H70.8L71.7 8L71.8 8.10001H71.9L72 8L72.4 7.79999L72.5 7.89999V8V8.10001H72.6V8.20001V8.29999H72.5H72.9L73.4 8.39999L73.5 8.5L73.6 8.60001V8.70001L75.6 8.89999H76L76.5 9H76.6V8.89999V8.79999V8.70001L76.7 8.10001V7.79999V7.70001L76.8 7.39999V7.29999V7.20001H76.9H77H77.1H77.2H77.3V7.29999H77.4H77.5L77.6 7.39999H77.7L77.9 7.5H78H78.1L78.7 7.39999L78.8 7.79999V8.29999L78.6 9.39999L78.5 9.89999L78.4 10.1V10.2L78.3 10.3V10.6L78.2 10.8L78.1 11.2L78 11.3V11.4V11.5V11.8L77.9 12.3V12.7L77.8 13.2V13.3V13.8L77.7 13.9L77.6 14L77.5 14.1L77.3 14.2V14.3L77.4 14.4L77.9 15.2L78.1 15.5L78.3 15.7L78.4 15.9L78.5 16.3L78.7 16.9L78.9 17.3L79 17.6L79.4 18.4V18.6L79.5 18.7V18.8H79.6V19.1V19.2V19.3L79.4 19.4H79.3H79.1H79H78.9H78.7L78.4 19.5H78.1L78 19.6H77.9L77.5 19.7L77.3 19.9H77.2V20V20.1V20.3V20.4L77.4 20.5L77.5 20.6L77.3 20.9V21.4H77.2L76.1 20.7V20.8L75.6 21.6L75.5 21.8L75.2 22.3L75.1 22.4V22.5L74.9 22.7L74.8 22.9L74.9 23H75.1L75.3 23.1H75.5H75.6H75.7H76.1H76.4H76.6V23.2L76.7 23.4V23.5L76.8 23.6V23.7L76.9 23.8H77L77.6 23.9L77.7 23.8H77.8L77.9 23.7H78H78.2H78.4L78.6 23.8H78.8H78.9L79.2 23.9L79.4 24L79.5 24.1H79.6L79.9 24.2L80.4 24.4L80.5 24.3L80.6 24.4H80.7H80.8H80.9H81H81.1L81.2 24.5V24.6H81.3H81.4L81.5 24.5L81.6 24.4V24.3V24.2L81.7 24.1V24L81.8 23.9H81.9H82L82.1 24H82.2L82.3 24.1H82.4H82.5H82.6H82.7H82.8H82.9L83 24H83.1L83.2 24.1H83.3H83.4H83.5L83.6 24.2H83.7H83.8H83.9L84.1 24.3H84.2H84.3H84.4H84.5H84.6H84.7L84.8 24.2L85.4 24L85.7 23.9L85.9 23.8V24L86.1 24.7V25V25.1V25.3V25.5V25.6L86.2 27.2V28.1V28.5V28.6V28.8L86.1 28.9V29H86.2V29.1V29.2V29.3V29.4V29.5V29.6L86.1 29.7V29.8H86V29.9H86.1V30M86.1 30H86M86.1 30V30.1H86V30.2V30.3V30.4V30.5H85.9V30.6V30.7V30.8L85.8 30.9V31V31.1L86.4 31H86.5H86.7H86.8L86.9 30.9H87.6L87.7 30.8L87.8 30.9L88.2 31.4V31.5L88.3 31.6V31.9L88.4 32.2L88.8 32.1H88.9H89H89.2H89.5L89.6 32H90L90.4 31.9L90.5 32.5L90.6 32.7V32.8V33L89.2 33.2L89 33.5V33.6V33.7L88.9 33.8V33.9H88.8H88.7L88.6 34V34.2L88.7 34.3V34.4V34.5V34.9L88.8 35.1V35.6L88.9 35.8V35.9V36.2H88.5L88.3 36.8L88.2 37.1L87.9 37.9H88L88.1 38L88.6 38.5L88.8 38.7L88.9 38.8V38.9H89H89.1H89.2H89.5H89.6L89.8 39H89.9H90.1L90.6 39.1L90.8 39.2L90.9 39.5L91 40.1V40.7L90.3 40.8H89.9V40.9H90V41L90.1 41.1L90.2 41.2L90.4 41.4H90.5V41.6V41.8V42.1L90.3 42.4L90.2 42.5V42.6L90.4 42.8V43H90.3H90.2V43.1H90.1H90V43L89.6 43.1H89.3H89.2H89L88.9 43.2L89 44H88.9H88.7L88.4 44.1H88L87.6 44.2L87.7 44.5V44.9L87.5 45H87.1L86.7 45.1H86.6L86.7 45.4L86.3 45.3L86.4 46.3H86.6H87L87.5 46.2H87.9V46.7L88 47.2L88.1 47.9V48.1V48.3V48.6L88.2 49.1V49.3L88.3 49.6V49.8V50V50.2V50.5L88.4 50.8V50.9V51V51.3L88.5 51.9V52V52.3L88.6 52.7V52.8V53L88.7 53.4V53.5L88.4 53.6H88.5V53.7V53.8L88.6 54H88.7V54.1L88.8 54.2V54.3H88.9H89L89.2 54.5L89.3 54.6V54.7H89.4V54.8H89.5L89.6 54.9V55L89.8 55.3L90 55.5L90.3 55.8L90.5 56L90.6 56.2L90.7 56.3V56.4H90.6H90.5L90.4 56.5V56.6H90.3V56.7H90.4V56.8H90.3L90.4 57.1L90 57.4H89.9L89.8 57.3H89.7H89.6V57.4V57.5V57.7V57.8H89.8V57.9H89.9L90 58.2H89.8V58.3L89.9 58.4V58.7L90 58.9L89.9 59L89.8 58.8V58.7H89.7L89.6 58.6V58.8L89.4 58.7L89.3 58.8H89.2L89.3 58.9L89.5 59L89.9 59.3L90.7 59.7L90.6 59.8L90.5 60.1L90.4 60.2L90.3 60.4L91.6 61.6H91.7H91.8V61.7V61.8H91.9H92V61.7H92.1V61.6H92.2V61.5H92.3H92.4H92.5H92.6H92.7V61.4H92.8L92.9 61.3V61.4H93V61.3H93.1V61.4H93.2H93.3H93.4H93.5V61.5L93.7 62L93.8 62.3L93.9 62.4L94.1 62.3H94.3L94.4 62.2H94.5L94.9 62V61.7L94.8 61.6L95.1 61.5H95.3L95.6 61.4V61.3H95.7H95.8H95.9V61.2H96H96.1L96.2 61.1H96.3H96.4V61H96.5V61.1V61.2V61.3V61.4V61.6V61.7V61.8V61.9H96.4V62L96.5 62.1V62.2V62.3L96.6 62.4V62.5V62.6V62.7V62.8V62.9H96.7V63L96.8 63.1V63.2H96.7V63.3H96.8V63.4V63.5V63.6V63.7V63.8L96.7 63.9V64V64.1L96.6 64.2H96.7V64.3V64.4V64.5V64.6V64.7V64.8L96.6 64.9L96.7 65L96.8 65.2L96.9 65.5L97 65.6L97.1 66V66.2L97.2 66.3V66.4H97.3V66.3L97.4 66.1L97.6 66.2H97.9H98H98.1H98.2V66.3V66.4V66.5L98.3 66.6L98.4 66.7V66.8V66.9L98.5 67.1H98.6H98.7L98.8 67.2H98.9H99V67.3H99.1L99.2 67.5H99.1M99.1 67.5V67.6M99.1 67.5H99L98.9 67.6H98.8L98.3 67.7L98.4 67.8V67.9V68H98.3L98.2 68.1L98 68.2V68.3L97.9 68.4L98 68.5H98.1L97.9 68.7H97.2L96.9 68.9H96.8L96.6 69.1H96.5V69.2V69.3V69.4V69.5V69.7V69.8L96.6 70V70.2V70.3L96.7 70.5V70.7V70.9V71H96.6V71.1H96.5V71.2V71.3V71.4H96.4V71.5H96.3L96.2 71.6L96.1 71.7L96.2 71.8V71.9V72H96.3V72.1H96.4V72.2H96.5V72.3V72.4V72.5H96.4V72.6H96.3V72.7V72.8V72.9H96.2V73H96.1V73.1H96V73.2H96.1V73.3H96.2V73.4V73.5L96.1 73.6V73.7H96.2V73.8V73.9H96.3H96.4H96.5H96.7H96.8H96.9H97.2L97.4 74H97.8H98.1L98.4 74.1H98.5H98.7H98.9H99L99.1 74.2H99.2H99.3H99.4V74.3H99.5H99.6H99.7H99.8V74.2H99.9H100H100.1H100.2H100.5L100.8 74.3H100.9H101H101.1H101.2H101.7H101.8H101.9H102H102.1H102.2L102.3 74.2H102.5H102.6L102.7 74.1H102.8L102.9 74.2L103 74.3H103.1V74.4H103.2V74.5H103.3L103.4 74.6H103.5L103.6 74.7L103.7 74.8V74.9H103.8L103.9 75L104 75.1L104.1 75.3L104.2 75.4H104.3V75.5V75.6V75.7L104.4 75.8V75.9L104.3 76L104.4 76.1H104.3V76.2V76.3V76.4V76.5V76.6L104.2 76.7H104.3V76.8V76.9V77V77.1V77.2H104.4V77.3H104.3V77.4V77.5V77.6V77.7V77.8H104.4V77.9H104.5V78V78.1L104.6 78.2V78.3V78.4V78.5H104.7L104.8 78.6V78.7L104.9 78.8H105V78.9H105.1V79V79.1H105.2H105.3V79.2V79.3H105.4V79.4H105.5V79.5M105.5 79.5H105.6M105.5 79.5V79.6V79.7H105.4V79.8V79.9L105.3 80V80.1V80.2V80.3H105.4H105.5V80.4H105.4V80.5V80.6H105.3H105.2H105.1V80.7V80.8H105L104.9 80.9V81V81.1H104.8V81.2H104.7V81.3H104.8V81.4V81.5H104.9V81.6H105V81.7V81.8M105 81.8H104.9M105 81.8V81.9H105.1H105.2L105.3 82L105.4 82.1H105.5H105.6H105.7V82.2H105.8L105.9 82.3H106L106.2 82.4L106.5 82.6H106.6L106.7 82.7H106.8L106.9 82.6L107 82.5H107.2H107.4H107.6H108H108.3H108.4H108.5V82.6H108.4V82.7V82.8V82.9H108.5H108.6H108.7H108.8H108.9H109.1L109.2 82.8H109.3H109.4L109.5 82.9H109.6L109.4 83.9H109.6H109.7V84H109.8H109.9L110 84.1H110.2L110.3 84.2H110.5L110.8 84.3L110.9 84.4H111V84.5H111.1H111.2H111.3H111.4V84.6H111.5H111.6V84.7H111.7H111.8V84.8L111.9 84.7V84.8H112V84.7H112.1H112.2H112.3V84.8H112.4H112.5V84.9H112.6H112.7L112.8 85H112.9V84.9H113H113.1H113.2H113.3V85V85.1H113.4H113.5V85.2V85.3H113.6H113.7V85.2H113.8V85.1H113.9V85L114 85.1V85.2V85.3V85.4V85.5H114.1H114.2H114.3H114.4H114.5V85.6L114.6 85.7H114.7H114.8V85.8L114.9 85.9V86H115H115.1V85.9H115.2V86H115.3V85.9H115.4H115.5V86V86.1H115.6H115.8H115.9V86.2V86.3L115.8 86.5V86.6V86.7L115.7 86.8L115.6 87.2V87.3L115.5 87.5V87.6V87.7V87.8H115.4V87.9V88L115.3 88.2L115.6 88.3V88.4H115.7L115.8 88.5L115.7 88.7L115.6 88.8L115.5 88.9L115.4 89H115.3H115.2L115.1 89.1L115 89.2L114.9 89.3L115 89.5L115.1 89.6H115.2L115.3 89.7H115.4L115.5 89.8H115.6H115.7V89.9L115.8 90H115.9V89.9L116 89.8V89.7L116.1 89.6V89.5V89.4H116.2V89.3L116.3 89.2V89.1L116.4 89V89.1V89.2V89.3V89.4L116.2 89.9L116.4 90.1H116.5L116.4 90.2L116.3 90.3L116 91L115.9 91.1H115.8H115.7L115.6 91.3H115.7V91.4L115.8 91.5L115.9 91.7L116.1 91.6V91.7L116.2 92M116.2 92H116.3M116.2 92L116.1 92.1V92.2H116L116.2 92.6L116.4 93.1L116.5 93.2V93.3V93.4V93.5H116.6V93.6L116.8 93.8L116.9 93.9L117 93.8V93.7H117.1H117.3H117.6L117.9 93.8H118.2H118.9L120 93.9H120.2H120.3H120.4H120.5H120.8H121L121.1 94H121.2H121.4H121.5H121.6H121.8H121.9H122.2V94.1H122.3H122.4H122.5H122.6H123.6H123.8L124.1 94.2H124.4H124.7H124.9L125.3 94.3H125.7H125.9H126.3L126.5 94.4H126.6H126.8H126.9H127H127.1V94.5V94.8V94.9V95L127.2 95.1V95.2V95.5L127.3 95.9L127.2 96.6V97L127.1 97.3V97.4V97.5V97.6L127 97.7V97.8V97.9V98V98.1V98.2H127.1V98.1H127.2V98.2H127.3H127.4V98.3V98.4H127.5H127.6V98.3H127.7L127.8 98.4H127.7L127.6 98.6L127.7 98.7H127.8L127.9 98.8V98.9H128H128.1V98.8H128.2H128.3V98.7V98.6H128.4L128.5 98.7H128.6V98.6V98.5H128.7V98.4H128.8V98.5L128.9 98.6V98.7V98.8H129H129.1V98.9H129V99H129.1V99.1V99.2H129.2H129.3V99.3V99.4H129.4H129.5H129.6V99.5V99.6L129.4 99.9L129.1 100.9L128.9 101.3V101.5L128.7 101.8L128.6 102L128.4 102.6V102.7V102.8V103L128.5 103.4L128.6 104.1L128.7 104.3L128.8 104.5V104.6V104.7H128.7H124.9H124.8H124.7H124.6H124.5H124.3H124H123.9H123.7H123.5H122.8H122.7H122.6L122.5 104.6H122.4L122.3 104.5H122.2H122.1L122 104.4H121.6H121.3L121 104.3H120.9H120.7H120.6H120.5V104.4V104.5H120.4H120.3H120.2H120.1H120V104.4H119.9L119.8 104.3V104.4L119.7 104.3V104.4H119.6M119.6 104.4V104.5M119.6 104.4H119.5H119.4H119.3V104.3H119.2H119.1V104.2H119H118.9V104.3V104.4H119V104.5H118.9V104.6L118.8 104.9L118.4 105H118H117.6H117.2V104.9H117.1L117 105L116.9 105.1V105.2H116.8V105.3V105.4V105.5L116.9 105.6V105.7H116.8V105.8V105.9V106L116.7 106.1V106.2H116.6H116.5V106.3H116.4H116.3V106.4M116.3 106.4H116.4M116.3 106.4V106.5V106.6L114.8 108.4L114.6 108.8L114.4 109.3L113.5 111.4L112.6 114.8L112.2 118L111.9 118.6V118.5V118.4H111.8M111.8 118.4V118.3M111.8 118.4H111.7H111.6V118.3H111.5V118.2H111.4V118.1V118H111.5H111.6V117.9H111.7V117.8V117.7V117.6V117.5V117.4H111.6H111.5H111.4V117.5H111.3H111.2H111.1H111H110.9H110.8H110.5H110.4H110.3H110.2H110.1H110L109.8 117.6H109.6H109.5L109.4 117.5V117.6L109.3 117.5H109.2H109H108.9H108.8H108.7H108.5H108.4H108.3L108.2 117.4H108.1V117.5H108H107.9V117.6H108H108.1H108.2V117.7V118.7H108L107.1 119.4L106.8 119.7L106.4 120.2L105.2 121.6H105.1H105H104.8H104.7H104.6H104.5H104.4H104.3H104.2H104.1H104H103.9H103.8H103.6H103.5H103.2H103.1H103H102.9H102.6H102.3H102.2H102.1H101.9H101.7H101.4H101.3H101.2H101H100.7H100.2H100.1H100H99.8H99.6H99.4H99.1H98.8H98.6H98.3H97.8H97.6V121.7V122.1V122.7V123.3V123.7H97.5H97.3H97.1L96.9 123.6L96.8 123.7H96.6H96.3H96.2H96H95.8H95.7H95.3H95.1H94.9H94.7H94.3H94.2H94.1H94H93.9H93.8H93.7H93.6H93.4H93.2H93.1H93H92.8H92.7H92.6H92.5H92.4H92.3V123.8V123.9V124V124.1V124.2V124.3V124.5L90.7 125.6L89.4 127.7L88.5 130.3L87.7 132.9L87.9 138.2L87.6 140.4L86.4 142.7L84.9 144.7L84.2 146L84.1 147.2L84.8 148L85.7 148.1L87.6 147.8L88.5 147.9L89.3 148.3L89.8 149.1L89.7 150.5V150.6L89.1 151.4L89 151.7L88.7 151.9H88.6H88.2H88H87.9H87.8L87.7 152L87.6 152.1L87.5 152.2H87.4H87.3H87.2M87.2 152.2V152.3M87.2 152.2H87.1H87L86.9 152.3H86.8H86.7H86.6V152.4H86.5H86.4V152.5V152.6V152.7V152.8H86.5V152.9H86.6V153M86.6 153H86.7M86.6 153V153.1L85.8 153.6L84.9 155.3L84.6 157.5L84.8 159.9L85.4 161.5H85.3V161.6H85.2L85.1 161.7H85V161.8H84.9L84.8 161.9H84.7V162H84.6L84.5 162.1V162.2H84.4H84.3V162.3V162.4H84.2H84.1V162.5H84V162.6H83.9V162.7M83.9 162.7H83.8M83.9 162.7V162.8H83.8V162.9H83.7V163V163.1H83.6V163.2V163.3H83.5V163.4V163.5H83.4V163.6V163.7H83.3V163.8M83.3 163.8H83.2M83.3 163.8V163.9H83.2V164L83.1 164.1L83 164.2V164.3L82.9 164.4V164.5H82.8V164.6H82.7V164.7H82.6V164.8H82.5V164.9H82.4L82.3 165V165.1H82.2V165.2H82.1V165.3H82V165.4H81.9V165.5H81.8V165.6H81.7V165.7H81.6V165.8H81.5V165.9H81.4H81.3V166H81.2V166.1H81.1H81H80.9V166.2H80.8H80.7V166.3H80.6V166.4H80.5H80.4M80.4 166.4V166.5H80.3M80.4 166.4H80.3V166.5M80.4 166.4V166.3H80.5V166.2H80.6V166.1L80.7 166V165.9H80.8H80.9M80.3 166.5H80.2M80.2 166.5V166.6V166.7H80.1V166.8H80V166.9H79.9M80.2 166.5H80.1V166.4M79.9 166.9V167M79.9 166.9V166.8V166.7H80V166.6V166.5V166.4H80.1M79.9 167L79.8 167.1M79.9 167H79.8V167.1M79.8 167.1V167.2H79.7M79.8 167.1H79.7V167.2M79.7 167.2V167.3H79.6V167.4H79.5V167.5H79.4M79.7 167.2H79.6H79.5V167.3L79.4 167.4V167.5M79.4 167.5V167.6H79.3V167.7H79.2H79.1V167.8H79V167.7M79.4 167.5H79.3H79.2V167.6H79.1H79V167.7M79 167.7H78.9M80.1 166.4H80.2M80.9 165.9V165.8M80.9 165.9H81V165.8H81.1V165.7H81.2V165.6H81.3H81.4H81.5V165.5V165.4V165.3V165.2V165.1H81.4V165V164.9V164.8V164.7L81.3 164.6V164.5V164.4L81.2 164.3V164.2L81.1 164.1V164V163.9H81V163.8V163.7L80.9 163.6V163.5H80.8V163.4L80.7 163.3V163.2H80.6V163.1L80.5 163L80.4 162.9V162.8H80.3V162.7L80.1 162.5L80 162.4L79.9 162.3L79.8 162.2L79.7 162.1V162H79.6L79.5 161.9L79.4 161.8H79.3L79.2 161.7L79.1 161.6H79H78.9L78.8 161.5H78.7H78.6H78.5L78.4 161.4H78.3H78.2H78.1H78V161.3H77.9H77.8H77.7H77.6V161.4H77.5H77.4V161.5H77.3L77.2 161.6V161.7H77.1V161.8H77V161.9V162H76.9V162.1H76.8V162.2L76.7 162.3V162.4H76.6V162.5M76.6 162.5H76.5M76.6 162.5V162.6V162.7H76.5V162.8H76.4V162.9H76.3H76.2H76.1V162.8H76H75.9H75.8L75.7 162.7H75.6H75.5V162.6H75.4H75.3V162.5H75.2H75.1V162.4H75H74.9V162.3H74.8H74.7H74.6V162.2H74.5H74.4H74.3H74.2H74.1H74H73.9H73.8H73.7H73.6V162.3H73.5V162.4H73.4L73.3 162.5H73.2V162.6M73.2 162.6H73.1M73.2 162.6H73.3V162.7H73.4H73.5V162.8H73.6H73.7V162.9H73.8H73.9V163L73.8 163.1H73.7H73.6H73.5L73.4 163H73.3L73.2 162.9H73.1H73L72.9 162.8L72.7 162.7H72.6L72.5 162.6H72.4V162.5H72.3H72.2H72.1V162.4H72H71.9V162.3H71.8H71.7V162.2H71.6H71.5L71.4 162.1H71.3L71.2 162H71.1V161.9H71H70.9L70.8 161.8H70.7V161.7H70.6H70.5L70.4 161.6H70.3H70.2V161.5H70.1H70L69.9 161.4H69.7L69.6 161.3H69.5H69.4H69.3H69.2H69.1H69V161.4H68.9H68.8H68.7V161.5H68.6L68.7 161.6H68.6H68.5H68.4H68.3H68.2H68.1H68H67.9H67.8H67.7L67.6 161.7H67.5H67.4V161.8H67.3H67.2V161.9H67.1H67H66.9V162H66.8H66.7H66.6V162.1H66.5L66.4 162.2H66.3L66.2 162.3H66.1V162.4H66L65.9 162.5V162.6H65.8H65.7V162.7H65.6V162.8H65.5H65.4V162.9H65.3H65.2H65.1H65V163H64.9H64.8H64.7V163.1H64.6V163.2H64.5H64.4H64.3H64.2V163.3H64.1V163.2H64H63.9L63.8 163.1H63.7H63.6V163H63.5H63.4H63.3H63.2H63.1H63H62.9H62.8H62.7H62.6V163.1H62.5H62.4H62.3H62.2V163.2H62.1H62L61.9 163.3H61.8H61.7H61.6H61.5V163.4H61.4H61.3H61.2H61.1V163.5H61H60.9H60.8H60.7H60.6H60.5H60.4V163.6H60.3H60.2H60.1H60H59.9H59.8H59.7H59.6H59.5H59.4H59.3H59.2H59.1H59V163.5H58.9H58.8H58.7M58.7 163.5V163.6M58.7 163.5H58.6H58.5H58.4V163.4H58.3H58.2V163.3H58.1L58 163.2H57.9H57.8V163.1H57.7H57.6H57.5V163H57.4H57.3V162.9H57.2H57.1H57L56.9 162.8H56.8H56.7L56.6 162.7H56.5H56.4V162.6H56.3H56.2V162.7L56.1 162.6V162.5H56H55.9L55.8 162.6V162.7H55.7V162.8H55.6V162.9L55.5 163V163.1H55.4H55.3L55.2 163.2H55.1V163.3H55H54.9H54.8V163.2V163.1V163V162.9H54.7V163V163.1H54.6V163.2H54.5H54.4H54.3H54.2H54.1M54.1 163.2V163.1H54M54.1 163.2V163.3L54.2 163.4V163.5V163.6H54.1H54V163.7H53.9H53.8H53.7V163.6H53.6V163.5H53.5V163.4H53.6V163.3V163.2V163.1V163H53.5V162.9V162.8V162.7H53.4V162.6V162.5H53.3V162.4L53.2 162.3V162.2H53.1V162.3V162.4V162.5H53.2V162.6V162.7H53.3V162.8V162.9H53.4V163H53.3V163.1H53.2V163V162.9H53.1V162.8V162.7H53M53 162.7V162.6V162.5M53 162.7V162.8V162.9L53.1 163V163.1V163.2H53H52.9H52.8V163.3H52.7H52.6H52.5H52.4H52.3V163.4H52.2H52.1H52H51.9H51.8L51.7 163.5M53 162.5V162.4H52.9V162.5H53ZM51.7 163.5V163.4M51.7 163.5H51.6H51.5H51.4H51.3V163.6H51.2H51.1V163.7H51V163.8H50.9H50.8V163.9H50.7V164H50.6V164.1H50.5L50.4 164.2V164.3L50.3 164.4V164.6V164.7V164.8V164.9V165M50.3 165V165.1M50.3 165H50.2H50.1L50 164.9V165L49.9 165.1L49.8 165.2M49.8 165.2L49.9 165.3M49.8 165.2L49.7 165.4L49.8 165.5H49.7H49.6L49.5 165.6L49.4 165.8V165.9H49.3L49.5 166L49.4 166.1L49.2 166.4M49.2 166.4H49.3V166.5M49.2 166.4V166.5H49.3M49.2 166.4H49.1H49H48.9L48.8 166.5V166.6H48.7V166.7V166.8H48.6V166.9H48.5V167H48.4V167.1L48.3 167.2V167.3H48.2V167.4H48.1V167.5H48V167.6V167.7H47.9V167.8L47.8 167.9V168L47.7 168.1V168.2L47.6 168.3V168.4H47.5V168.5V168.6H47.4V168.7V168.8H47.3V168.9L47.2 169L47.1 169.1V169.2L47 169.4L46.9 169.5V169.6L46.7 169.9L46.6 170.1L46.4 170.3L46.3 170.5L46.2 170.6V170.7L46.1 170.8L46 170.9V171H45.9V171.1H45.8V171.2L45.7 171.3L45.6 171.4L45.5 171.5V171.6H45.4V171.7H45.3V171.8L45.2 171.9L45.1 172V172.1H45V172.2H44.9V172.3H44.8V172.4H44.7V172.5H44.6V172.6H44.5L44.4 172.7V172.8H44.3V172.9L44.2 173L44.1 173.1L44 173.2V173.3L43.9 173.4V173.5H43.8V173.6H43.7V173.7V173.8H43.6V173.9H43.5V174V174.1H43.4V174.2H43.3V174.3V174.4H43.2V174.5H43.1V174.6V174.7H43V174.8L42.9 174.9V175H42.8V175.1L42.7 175.2V175.3H42.6V175.4L42.5 175.5V175.6H42.4V175.7V175.8H42.3V175.9L42.2 176V176.1H42.1V176.2V176.3H42V176.4L41.9 176.5V176.6H41.8V176.7H41.7V176.8V176.9H41.6V177H41.5V177.1V177.2H41.4V177.3H41.3V177.4V177.5H41.2V177.6H41.1V177.7H41V177.8V177.9H40.9V178H40.8V178.1H40.7V178.2H40.6V178.3L40.5 178.4L40.4 178.5V178.6H40.3V178.7H40.2V178.8H40.1V178.9H40H39.9V179H39.8V179.1H39.7H39.6V179.2H39.5H39.4V179.3H39.3H39.2H39.1H39H38.9M49.3 166.5V166.6M38.9 179.3H38.8H38.7M38.9 179.3V179.2H39H39.1L39.2 179.1H39.3V179H39.4V178.9H39.5V178.8H39.6H39.7V178.7V178.6H39.8V178.5L39.9 178.4V178.3H40M38.7 179.3H38.6H38.5V179.2V179.1V179H38.6V179.1M38.7 179.3V179.2H38.6V179.1M38.6 179.1H38.7M40 178.3V178.2H40.1V178.3H40ZM40 178.3V178.4L39.9 178.5H40V178.6H40.1V178.5H40.2V178.4H40.3V178.3V178.2H40.4V178.1H40.5M40.5 178.1V178.2L40.6 178.1V178M40.5 178.1V178M40.6 178H40.7V177.9M40.6 178V177.9H40.7M40.6 178H40.5M40.7 177.9H40.8V177.8M40.5 178V177.9V177.8H40.6V177.7V177.6V177.5V177.4V177.3V177.2H40.5V177.1V177V176.9L40.4 176.8V176.7V176.6V176.5M40.4 176.5V176.4M40.4 176.5H40.5M40.4 176.4H40.3V176.3M40.4 176.4H40.5V176.5M40.5 176.5V176.6M111.9 118.7L111.8 118.9H111.7V118.8V118.7H111.8H111.9Z" stroke="white" stroke-width="0.5" stroke-linecap="round" stroke-linejoin="round"/>
</g>
</svg>
