<svg width="130" height="166" viewBox="0 0 130 166" fill="none" xmlns="http://www.w3.org/2000/svg">
<g id="UA18">
<path d="M110.8 23.2V23.3V23.5H111L111.9 23.3L112.5 23.2V23.6V24.5V25.4L112.4 26V26.2V26.3L112.5 26.4V26.5V26.9L112.6 27.4L112.7 27.8V27.9L112.2 28.9L111.7 29.8L111.3 30.4L111 30.8L110.9 31.2L110.7 31.5L110.5 31.7L110.4 31.8L110.1 31.9H110L109.9 32H109.7L109.6 32.1H109.5V32H109.4H109.3H109.2V31.9L109.3 31.8L109.4 31.6V31.4L109.3 31.5V31.6H109.2H109.1H109L108.9 31.7H108.8H108.7L108.4 31.6H108.3L108.2 31.7V31.8V32H108.1H108V31.9H107.9V31.8H107.8H107.7L107.4 32L107.2 32.1L106.3 32.4L106.1 32.5L106.2 32.9L106.3 33.2V33.5L106.4 33.8L106.6 34.4V34.7V34.9L106.8 35.3V35.4V35.5V35.7L106.9 35.8V35.9V36L107 36.5L107.2 37.5L107.3 37.8L107.4 38L107.6 39V39.2V39.3L107.7 39.4L107.8 40L107.9 40.4L108 40.8V40.9V41V41.1H108.1V41.3V41.4L108.2 41.5L108.3 42.2L108.4 42.6L108.6 43.2L108.8 43.5V43.6H108.9H109L109.2 43.7L109.3 43.1V42.2V42.1V42V41.2V41.1H109.5L110.2 40.9L110.4 41.1L110.7 41.2L110.9 41.4L111 41.5L111.1 41.6L111.4 41.8L111.6 41.9L111.8 42.1L112.7 42.7L112.8 42.8L113.1 43L113.4 43.3H113.5H113.6V43.4L114 43.6L114.1 43.7L114.2 43.8L114.3 44L114.5 44.3L114.7 44.7L115 45.2L115.1 45.5L115.5 46.1L115.7 46.5L115.8 46.6L115.9 46.7H116V46.8H116.1L116.2 46.9H116.3V47H116.4V47.1L116.5 47.2H116.6V47.3L116.7 47.4L116.8 47.5H116.9L117 47.6L117.1 47.7H117.2L117.3 47.8H117.4L117.5 47.9H117.6L117.7 48.1L117.9 48.2V48.3L118.2 48.6L118.3 48.7V48.8L118.4 48.9H118.5L117.2 50.6L117.1 50.7H117V50.8L116.8 51.1L116.6 51.3L116.7 51.4L116.4 51.9L116.2 52.2V52.3H116.1V52.5V52.6L116.2 52.7V52.8L116.3 53V53.1H116.2V53.2V53.3L116.1 53.4V53.5V53.6V53.9V54V54.3L116.2 54.7V54.8V54.9L116.3 55V55.1L116.6 55.4V55.5L116.2 55.3L115.9 55.2L115.8 55.1H115.7L115.3 54.9L115.1 54.8L115 54.7H114.9L114.6 54.8H114.2L114.1 54.9H114L113.5 55V55.3V55.7V56.3V56.5L113.4 57.9L113.9 58L114.4 58.2H114.5L114.6 58.1V58.2L114.8 58.4L114.9 58.5L115 58.6L115.2 58.8L115.4 58.9L115.7 59.3L115.9 59.5L116 59.6L116.2 59.8L116.3 59.9L116.4 60.2V60.3H116.5V60.4L116.6 60.6L116.4 61.5H116.5V61.6L116.7 61.9H116.8L116.9 62V62.1L117.1 62.4L117.2 62.5L117.3 62.6L117.9 62.8L118 62.9L118.1 63L118.2 63.2L118.4 63.3V63.4H118.5V63.5L118.7 63.7L118.8 63.9L118.9 64.3V64.5L118.8 64.6L118.6 65L118.4 65.5L118.3 65.6L118.2 65.9L118 66.2V66.3L117.9 66.4L117.8 66.7L117.7 66.8L118.1 67.1L118.9 67.6L119.3 67.9L119.4 67.8L119.6 67.4L120 67.5L120.1 68.1L120.2 68.4L120.3 68.7V68.8H119.8L119.6 68.7L119.4 68.6L119 68.5L118.7 68.4L118.2 68.3H118.1H118H117.9L117.3 68.8L117.4 68.9L117.6 69L117.4 69.2L117.7 69.6L117.8 69.7H117.9V69.8H118L118.2 70L118.3 70.1L118.4 70.2L118.6 70.3H118.7L118.8 70.2L118.9 70.4H119V70.5H118.9V70.6H118.8V70.7H118.7V70.8H118.6H118.5V70.9H118.4H118.3H118.2V71V71.1V71.2H118.3H118.4V71.3V71.4V71.5V71.6V71.7L118.3 71.8H118.2H118.1H118H117.9L117.8 71.7L117.7 71.8H117.5L117.3 71.9H117.1L116.7 71.8H116.6V72H116.8H116.9H117H117.1L117.2 72.1H117.3H117.4V72.2H117.3L117.4 72.3H117.5V72.2H117.6V72.3H117.7H117.8L117.9 72.4H118V72.5H118.1L118.2 72.4H118.3V72.3L118.4 72.2H118.5V72.1H118.6V72H118.7H118.8H118.9H119H119.1H119.2H119.3V71.9H119.4L119.5 71.8V71.7H119.6H119.7H119.8H119.9H120H120.1V71.8H120L120.1 71.9H120.2L120.3 72H120.4H120.5H120.6H120.7H120.8H120.9V72.1H121V72.2H121.1H121.2V72.1H121.3V72H121.4V72.1H121.3V72.2V72.3H121.4V72.2H121.5V72.3V72.4H121.4H121.3V72.5H121.4L121.3 72.6V72.7H121.2V72.8H121.3H121.4H121.5V72.9V73H121.6V73.1V73.2V73.3L121.7 73.4H121.6V73.5H121.7V73.6V73.7L121.8 73.8H121.9L122 73.9V74H121.9V74.1V74.2H121.8V74.3V74.4V74.5V74.6H121.9H122V74.7H122.1H122.2V74.8V74.9L122.3 75V75.1H122.4V75.2V75.3V75.4V75.5H122.5H122.6V75.4H122.5V75.3L122.6 75.2H122.7V75.3L122.8 75.4V75.5H122.7V75.6V75.7H122.6V75.8V75.9H122.5V76V76.1H122.4V76.2V76.3V76.4L122.3 76.5V76.6V76.7V76.8L122.2 76.9V77L122.1 77.1V77.2L122 77.3V77.4H121.9L121.8 77.5V77.6V77.7H121.7V77.8H121.6V77.9H121.5H121.4H121.3V78V78.1V78.2H121.2V78.3H121.1H121H120.9H120.8H120.7H120.6V78.4H120.5V78.3H120.4H120.3V78.4V78.5H120.2V78.6V78.7H120.1V78.6H120V78.7V78.8V78.9V79H119.9V79.1V79.2V79.3L119.8 79.2H119.7V79.3H119.6V79.4H119.5H119.4L119.3 79.5L119.2 79.6H119.3V79.7V79.8H119.4V79.9H119.3V80H119.4V80.1V80.2H119.3V80.3V80.4H119.2V80.5H119.3V80.4H119.4V80.3L119.5 80.4H119.4V80.5V80.6H119.3V80.7H119.2H119.1V80.8H119H118.9L118.8 80.9H118.7H118.6H118.5V81H118.4H118.3V81.1H118.2H118.1H118V81L117.9 80.9V80.8H117.8V80.9H117.7H117.6V81H117.5V80.9V80.8H117.6V80.7H117.5V80.8H117.4H117.3V80.7H117.2V80.8H117.1V80.9H117.2V81H117.1H117V81.1V81.2H116.9H116.8V81.3H116.7V81.4V81.5L116.9 81.8L117 81.9L117.1 82L117 82.1L116.9 82.2L116.8 82.4H116.7L116.6 82.5L116.5 82.6L116 83.1L116.4 83.4L116.5 83.5L115.9 83.7L115.1 84V84.1H115.2L115.3 84.2L115.6 84.4L115.7 84.5V84.6L115.8 84.7H115.9V84.8H116H116.1L116.2 84.9H116.3L116.5 85H116.6V85.1L116.7 85.2H116.8V85.4V85.5H116.9V85.6H117L117.1 85.7V85.8L117.2 85.9L117.5 86V86.1L117.6 86.2V86.3H117.7V86.4L117.8 86.5V86.6V86.7V86.9V87.2V87.4V87.5V87.6H117.9L118 87.7L118.1 87.8V87.9L118 88V88.1L117.9 88.3H117.8V88.4V88.5V88.6V88.8V88.9V89L117.9 89.2L118 89.4V89.5V89.6V89.7V89.8L117.9 89.9H117.8L117.7 90H117.6L117.5 90.1V90.2L117.4 90.3L117.3 90.5V90.6L117.2 90.7L117.1 90.6H117V90.5H116.9H116.8H116.7H116.3H116.2H116.1H115.9H115.8V90.6V90.7V90.8V90.9L115.9 91V91.1V91.2L116 91.3H116.1V91.4H116.2V91.5V91.6H116.1V91.7L116.2 91.6V91.7H116.1V91.8V91.9V92H116V92.1H115.9V92.2V92.3V92.4H116V92.5H116.1L116.2 92.6H116.3L116.4 92.7H116.5V92.8H116.6H116.7L116.8 92.9H116.9H117L117.1 93V93.1H117.2V93.2H117.3L117.4 93.3H117.5L117.6 93.4H117.7V93.5H117.8H117.9H118H118.1V93.6H118.2V93.7H118V94L118.1 94.1L118.2 94.3L118.3 94.6L118 94.9L118.1 95.1L118.2 95.3L118.3 95.7L118.4 95.9V96L118.3 96.1L118.2 96.2L118.1 96.3H118L117.9 96.2L117.8 96.3L117.6 96.5L117.4 96.6L117.2 96.7L117.1 96.8L117 96.9V96.8H116.9H116.8V96.7H116.7V96.6H116.6H116.5L116.3 96.5L116.2 96.4L116 96.3L115.8 96.1V96H115.7V96.1H115.6V96.2L115.4 96.7L115.3 97.1L115.2 97.2V97.4L115.4 97.5H115.5H115.6H115.7H115.9H116H116.7V97.6V97.7H116.8V97.6H116.9H117H117.1H117.2H117.3H117.4H117.5H117.6H117.7L117.8 97.7V97.8V98V98.2V98.3V98.4V98.5L117.7 98.8L117.6 98.9L117.5 99V99.1H117.4L117.3 99.2V99.3L117.2 99.4V99.5V99.6L117.1 99.7V99.8H117L116.9 100H116.7L116.6 99.9H116.4V100V100.2L116.3 100.3H116.2H116.1L115.8 100.1L115.6 100H115.5L115.4 99.9L115.3 100H115.1L115 100.1V100.2V100.3L115.1 100.6L115.3 101L115.6 101.5V101.4H115.9L116.4 101.3H116.7H116.9V101.2V101.1V100.9V100.6V100.5L117.8 100.4L117.9 100.3H118.1L118.9 100.1H119H119.3L119.7 100H119.8L120.3 99.9L120.6 99.8H120.7H120.9L121.2 100.1L121.6 100.5L121.9 100.9V101V101.1H122L122.1 101.2L122.4 101.5L122.3 101.9V102L122.2 102.2V102.3V102.4V102.5L122.3 102.6V102.7V102.9L122.4 103.1V103.4L122.3 103.6H122.7H122.8H122.9H123H123.1L123.3 103.7H123.4V103.8L123.5 103.9L123.6 104L123.7 104.1L123.8 104.3L123.9 104.2L124 104.3L124.5 103.7L124.7 103.8V103.9L124.6 104H124.7V104.1V104.2V104.3V104.4V104.5V104.7V104.8V104.9L124.6 105V105.1H124.5H124.4V105.2H124.3V105.3H124.2V105.4V105.5H124.1V105.6H124V105.7H124.1V105.8H124H123.9V105.9H123.8V106H123.7L123.6 106.1L123.5 106.2L123.6 106.3L123.7 106.4H123.8L123.9 106.5L124 106.8L124.1 106.9L124.2 107.1L124.3 107.2L124.6 107.3L124.9 107.4L125.2 107.5L125.3 107.6L125.4 107.5H125.5H125.6H125.7H125.8H125.9L126.1 107.6L126.3 107.7H126.4H126.5V107.8H126.6H126.7H126.8H127L127.4 107.6L127.6 107.5V107.6V107.7V107.8V107.9L127.5 108V108.3V108.7H127.4L127.3 108.6H127V108.7V108.9H126.9V109.1L126.8 109.5L126.7 109.7V109.8L126.8 110V110.1V110.4V110.5V110.6L127 110.7H127.4V110.9V111V111.1L127.2 111.2V111.3H127.1V111.4L127 111.5L126.9 111.6V111.5L126.8 111.4V111.3H126.7V111.2H126.6L126.4 111.4H126.3V111.5H126.2L126.4 111.7L126.6 112V112.1H126.5L126.2 112.2L126.4 112.4L126.5 112.5L126.8 112.7H126.7L126.8 113.1L127 113V113.1L127.1 113.2V113.3V113.4V113.5V113.6L127.2 113.7V113.8V113.9L127.3 114L127.4 114.1V114.2L127.5 114.3L127.6 114.4V114.5H127.7V114.6H127.8L127.9 114.7H128V114.8V114.9V115H127.9H127.8V115.1H127.7H127.6H127.5H127.4V115.2H127.3V115.3H127.2V115.4V115.5H127.1V115.6V115.9V116V116.1L127 116.2L126.9 116.4V116.5V116.6L126.8 116.7V116.8H126.7V116.9L126.6 117V117.1L126.5 117.2L126.4 117.3L126.2 117.5V117.6H126.1V117.7H126V117.8V117.9H125.9V118.1L125.7 118.3V118.4H125.6H125.5H125.4V118.5V118.6H125.3V118.7V118.8H125.2L125.1 118.9V119L125.2 119.1L125.3 119.2V119.3L125.4 119.4V119.5L125.5 119.6H125.6H125.7H125.8L125.9 119.7L126 119.8H126.1L126.2 119.9L126.3 120V120.1L126.4 120.2L126.5 120.3L126.6 120.4L126.7 120.5L126.8 120.6H126.9V120.7H127H127.1L127.2 120.8H127.3H127.4V120.9H127.5H127.6V121V121.1L127.5 121.4L127.4 121.5L127.3 121.8L126.3 122.7H126.2V122.8H126.1V122.9H126V123H125.9V123.1V123.2H125.8V123.4V123.5V123.6L125.7 123.8H125.8V123.9H125.9H126H126.1H126.2H126.4H126.5V124L126.4 124.1V124.2H126.3V124.3H126.2H126.1V124.4H126H125.9H125.8H125.7V124.5H125.6V124.4H125.5V124.5H125.4V124.6H125.3V124.7H125.2L125.3 124.8L125.4 124.9H125.5V125L125.6 125.1L125.7 125.2L125.8 125.3L125.9 125.5L126.1 125.6L126.3 125.9L126.9 126.6L127 126.7L127.4 127.2L127.8 127.7V127.8V127.9V128V128.2V128.3V128.4V128.5V128.6V128.7L127.7 129V129.3V129.6V129.7H127.6V129.8H127.5L127.4 130H127.3L127.1 130.2L126.9 130.3L126.6 130.5H126.5V130.6L126.8 130.8L126.9 130.9V131V131.1V131.2V131.3H127V131.4V131.5H126.9L127 131.6V131.7V131.8V131.9H127.1V132V132.1H127.2V132.2V132.3H127.3V132.4H127.4H127.5V132.5V132.6V132.7H127.6V132.8H127.7V132.7H127.8V132.6H127.9V132.7V132.8H127.8H127.7V132.9H127.6V133H127.5V133.1V133.2V133.3H127.6L127.7 133.4V133.5V133.6L127.8 133.7V133.8L127.9 133.9L128 134L128.1 134.1L128.2 134.2L128.3 134.3V134.4H128.4L128.5 134.5H128.6V134.6H128.7V134.7H128.8L128.7 134.9V135L128.5 135.3L128.6 135.4L128.7 135.6L129.4 135.4L129.5 135.8L129.6 136H129.5H129.4V136.1H129.3H129.2V136.2H129.1V136.3V136.4H129.2V136.5H129.3V136.6L129.4 136.7V136.8V136.9H129.5V137H129.6V137.1L129.7 137.2V137.4L129.2 137.7L129.4 138.4H129.3L128.3 138.9L127.6 139.3L126.8 139.7L126.3 140H126.2L125.7 140.7L125.6 140.8H125.5V140.9H125.4H125.3V141H125.2H125.1V141.1L125 141.2L124.9 141.4V141.5H124.8V141.6L124.7 141.7V141.8L124.6 141.9V142.1L124.5 142H124.4H124.3V142.1V142.2H124.4V142.3V142.4H124.5V142.5V142.6H124.6V142.7H124.7H124.8H124.9H125H125.1H125.2H125.3L125.4 142.6V142.7L125.9 142.8L126.2 142.9V143L126 143.2L125.8 143.5H125.7L125.6 143.6V143.7H125.5V143.6H125.4V143.5H125.3H125.2V143.4H125.1V143.3H125L124.8 143.5V143.6L124.7 143.7L124.6 143.8H124.5H124.4L124.3 144L124.2 144.1V144.2V144.3V144.4H124.1V144.5L124 144.6V144.7H123.9L123.6 144.6L123.1 144.4L123 144.6L122.8 144.7V144.8L122.9 145L122.8 145.2V145.3L122.6 145.5H122.5H122.4H122.3H122.2H122.1H122H121.9L121.8 145.6H121.7H121.6V145.7V145.8L121.4 145.9H121.3H121.2H121H120.9H120.8H120.7H120.6H120.5L120.3 146H120.2V146.2L120.3 146.5L120.4 146.6L120.2 146.8L120.1 147V147.1L120 147.3L119.9 147.2L119.8 147.1L119.7 147H119.6H119.5V146.9H119.4L119.3 146.8H119.2V146.7L119.1 146.6L119 146.5H118.9L118.8 146.4H118.7V146.3H118.6H118.5V146.2H118.4V146.1L118.3 146L118.2 146.1L118.1 146.2L117.9 146.4H117.8V146.5L117.6 146.6L117.4 146.8L117.6 147.1V147.2L117.7 147.4V147.5L117.6 147.6L117.7 147.7L117.8 147.9L117.4 148.1L117.2 148.3L117.3 148.4L117 148.6H116.9V148.5L116.7 148.3V148.2L116.6 148L116.5 147.9L116.3 147.6L116.2 147.8H116.1L116 147.9L115.9 148L115.3 148.6L114.9 148.3H114.8V148.4V148.5L114.9 148.8V148.9L115 149V149.1L115.1 149.2V149.3V149.4L115.2 149.6L115.3 149.7V149.8L115.4 149.9V150L115.5 150.1V150.3L115.6 150.4V150.5V150.6L115.7 150.7V150.8V150.9V151L115.8 151.1L115.9 151.7L115.6 152.7L115.1 154.1L114.6 154.3L115 155.2L115.1 155.5L116.5 155.6H116.7H116.8H117H117.1H117.2L117.3 155.5H117.4H117.5H117.6H117.7V155.6V155.7V155.8H117.6H117.5V155.9H117.4V156V156.1V156.4V157.5V157.6V157.8V157.9V158V158.1V158.2H117.3V159L118.5 159.4L118.4 159.8L118.3 160L118.2 160.2L118.1 160.5H118L117.4 160.3L117.1 160.1L117 160.5L116.6 160.4L115.9 160.1L115.8 160H115.6L115.3 159.9V159.8H115.2H115.1L114.9 159.7L114.7 159.6L114.4 159.5L114.3 159.6V159.9L114.2 160V160.1V160.2L114.1 160.3L114 160.2L113.9 160.1H113.8H113.7V160H113.6V159.9H113.5V159.8H113.4L113.3 159.7V159.8L112.8 160.4L112.6 160.6L112.5 160.8V160.9L112.4 161.1L112.1 162L111.8 162.8H111.7H111.6H111.5H111.4V162.9L111.3 162.8H111.2V162.7H111.1V162.6H111V162.5H110.9V162.4V162.3H110.8L110.7 162.2L110.6 162.3V162.2H110.5L110.4 162.4L110 162.9L109.9 163.1L109.8 163.2L109.7 163.1L109.4 162.6L109.2 162.3V162.2H108.9H108.7H108.2L107.8 162.3H107.4H107.3H107.2H107.1L106.7 162.2H106.6H106.5V162.3V162.9V163.8V164.3V164.9V165.1H105.4V164.9V164.8L105.3 164.7L105.2 164.5L105 164.2L104.9 164L104 164.8H103.9V164.9V165V165.1H103.7L103.4 165.3L103.3 165.2L103.2 165.1L103.1 165H103V164.9H102.9V164.8H102.8V164.9L102.7 165H102.6V165.1H102.5V165.2H102.4V165.3H102.3H102.2H102.1H102H101.9H101.8H101.7H101.6V165.2H101.5H101.4L101.3 165.1H101.2H101.1H101V165H100.9H100.8H100.7L100.6 165.1H100.5V165H100.4V164.9H100.3H100.2H100L99.9 165H99.8H99.7H99.6L99.5 165.1H99.4H99.3L99.2 165.2H99.1L98.9 165.3L98.8 165.4H98.7L98.6 165.5V165.6H98.5L97.9 164.9H97.4V164.8H97.3H97.2L97.1 164.9H97H96.9L96.8 165L96.7 164.9H96.6H96.5H96.4H96.3L96.1 164.8L95.9 164.9H95.7H95.6L95.5 164.8H95.4H95.3H95.2H95H94.9L94.8 164.9H94.7H94.6L94.5 165H94.4H94.3H94.2V165.1H94.1H94H93.9L93.8 165H93.7H93.6H93.5L93.3 164.9H93.2H93.1V164.8H93H92.9L92.8 164.7H92.7H92.6L92.5 164.6H92.4H92.3V164.5L92.1 164.4V164.3H92V164.2L91.9 164.1V164V163.9L92 163.8V163.7V163.6H92.1V163.5L92.2 163.4L92.3 163.3V163.2L92.4 163.1L92.5 163V162.8H92.6V162.6L92.7 162.5V162.4L92.8 162.3V162.2V162.1H92.9V162H93L93.1 161.8V161.7L92.8 161.5L92.6 161.3L92.4 161.1L92.1 160.8L91.8 160.9L91.6 160.5H91.7H91.8H91.9V160.4L91.7 160.2L91.6 159.9L91.4 159.7L91.3 159.5L91.2 159.4L91.1 159.1L90.9 158.9L90.8 158.8V158.7H90.7H90.6V158.6H90.5H90.4H90.3H90.2H90.1L90 158.5V158.4V158.3H89.9V158.2V158.1V158L90 157.9L90.1 157.8H90.2H90.5V157.7L90.6 157.5V157.3L90.7 157.2V157.1L90.8 157V156.9V156.8V156.7V156.6H90.9H91H91.1L91.3 156.7H91.4L91.7 156.3L91.9 155.9L92.1 155.7L92.4 155.3L92.2 155.1L92.3 154.9L92.4 154.7V154.6L92.5 154.5H92.6V154.4L92.9 154.5V154.3V154.1V154H92.8V153.9V153.8L92.7 153.7V153.6V153.4L92.6 153.3L92.4 153.2L92 153L91 152.3H90.9H90.8V151.9L90.9 151.3V150.6L90.7 150.5L90.5 150.4L90.3 150.3L89.9 150.1H89.8L90.2 149.6L90.5 149.2L90.9 148.8L91.1 148.5L91 148.4L90.9 148.3L90.8 148.2V148.1L90.7 148V147.9V147.7V147.6V147.4V147.3V147.2V147.1H90.5H90.4H90.3V147.2H90.2H90.1H90H89.9H89.8L89.9 147.1L90 146.8V146.7V146.5L90.2 146.1V145.9L90.3 145.6H90.2V145.5H90.1V145.4L90 145.3H89.9V145.2L89.8 145.1L89.7 145V144.9H89.6V144.8L89.5 144.7V144.6L88.8 144.3L88.4 144.2L88 144L87.8 143.8L87.9 143.7H88V143.6H88.1V143.5H88V143.4H87.9V143.3H87.8L87.7 143.2H87.6H87.5V143.1H87.4V143V142.9V142.8L87.5 142.4L87.4 142.3H87.3L87.2 142.2H87.1H87H86.9V142.1H86.8H86.7V142L86.6 141.9V141.8H86.5H86.4H86.2H86H85.9H85.8H85.5H85.4V142L85.2 142.7L85.1 142.8V143.1L85 143.4L84.9 143.7V143.8L84.8 144V144.1H84.6H83.8L83.6 144.2H83.4H83.3V144.4V144.5V144.6H83.2H83.1L82.6 144.7H82H81.7V144.8L81.8 145.4H81.6H81.5H81.4H81.3L81 145.3H80.6H80.1V145.6V146V146.2V146.3V146.4V146.5V147H80.2L80.5 146.9V147.3H80.3H80L79.8 147.4V147.5L79.7 147.7L79.5 148L79.4 148.3L79.3 148.6L79.2 148.7V148.9L78.8 149V148.9L78.7 148.5V148.4L78.6 148.1L78.4 148.2H78.3L78 148.3L77.8 148L77.6 148.1L77.3 148.2L77.1 148.3H76.9V148.4V148.5L77 148.8L76.9 148.7H76.8L76.7 148.6H76.6L76.5 148.5L76.1 148.2L75.9 148.1H75.8L75.7 148L75.4 147.9L74.9 147.7L74.4 147.5L74.3 147.4V147.5L74.4 147.9L74.5 148L74.2 147.8H74.1H74H73.9V147.7H73.8H73.7L73.6 147.6H73.5V147.7H73.4L73.3 147.8H73.2V147.9H73.1H73H72.9H72.8H72.7L72.6 148V148.1V148.2V149L72.5 149.3V149.8V149.9V150V150.1V150.2H72.4L72.3 150.3L71.9 150.4L71.7 150.5L71.4 150.7H71.3L71 150.8H70.9V150.7V150.6L70.7 150L70.6 149.8H70.4L69.9 149.1L69.8 148.8L69.7 148.7V148.6L69.5 148.3V148.2H69.4L69.2 147.9L69.1 147.8L68.9 147.7V147.6L68.8 147.5V147.4V147.3V147.2H68.9L68.8 147.1L68.5 147.4L68.2 147.5L68 147.6H67.8H67.7L67.6 147.7H67.5L67.3 147.8H67.1L67 147.9L66.8 148L66.7 148.1H66.6H66.5L66.4 148V147.9H66.2L66 147.8V147.7V147.6V147.5V147.4L65.9 147.3V147.2V147.1V147V146.9H65.8L65.7 147H65.6H65.5H65.4L65.3 147.1H65.2H65.1H65H64.9H64.8H64.7H64.6L64.4 147H64.3V147.1H64.2H64.1H64H63.9L63.7 147L63.6 146.9H63.5V146.8H63.4V146.9L63.3 147L63.4 147.1L63.3 147.2V147.3V147.4L63.2 147.5V147.6V147.7L63.1 147.8V147.9H63V148V148.1V148.2V148.3L62.9 148.5V148.7L62.8 148.9V149.1L62.7 149.4L62.6 149.5L62.5 149.6H62.4H62.3V149.7H62.2V149.8L62 149.9L61.9 150H61.8L61.5 150.2L61.3 150.3V150.2H61.2L61 150.1L60.8 150L60.6 149.8H60.5L60.4 149.7L60.2 149.6L59.9 149.4H59.8V149.3H59.7H59.6L59.4 149.2H59.3H59.2H59.1L59 149.1H58.8L58.6 149L57.4 148.7H57.2L57 148.8L56.9 148.9H56.8H56.7H56.6H56.5H56.4H56.3H56.1H56L55.9 148.8H55.6H55.4V148.7V148.5V148.2V148.1V148L54.9 147.6L54.7 147.7H54.5V147.8V147.9V148.6V148.9L53.8 149.1L53.7 149.2L53.6 149.4V149.5L53.5 149.6V149.7H53.6V149.8V149.9H53.5H53.4H53.3H53.2H53.1L53.3 149.5L52.9 149.4H52.8V149.5H52.6H52.4L52.3 149.6H52.2H52H51.9H51.8H51.7H51.6L51.5 149.7H51.4H51.3H51.2H51.1H51H50.9H50.6L50.3 149.8H50L49.9 149.7V149.6L49.7 149.7L49.6 149.8L49.5 149.9V150L49.2 150.1H49.1L49 150.2H48.9H48.8L48.7 150.3H48.6H48.5L48.4 150.4H48.3L48.1 150.6H48V150.7H47.9L47.8 150.8H47.7L47.5 150.9H47.4H47.2L47.1 151V150.9H47H46.9V151H46.5H46.1V150.9H46H45.8H45.5H45.4H45.2L44.9 151H44.6H44.5V151.1H44.4H44.2H44H43.9V151H43.8H43.7H43.6H43.5H43.4H43.3H43.2H43.1L43 150.9H42.9V150.8H42.8V150.7H42.7V150.6H42.6H42.5H42.4H42.3L42.2 150.5H42.1L41.8 150.4H41.7H41.6H41.5V150.3H41.4H41.3H41.2H41L40.8 150.4H40.7H40.6H40.5H40.4H40.3H40.2L40.1 150.5H40H39.9L39.8 150.6L39.6 150.7L39.5 150.9L39.3 151H39.2V151.1H39.1H39H38.9V151.2H38.8H38.7H38.6L38.5 151.3H38.4H38.3H38.2H38.1H38H37.8H37.7H37.6H37.5H37.4H37.3H37.2H37.1V151.4H37L36.9 151.5V151.6H36.8V151.7V151.9V152.1H36.7L36.5 152.2H36.4H36.3H36.2H36.1V152.3H36H35.9H35.8H35.6H35.5H35.4H35.1L34.9 152.4H34.8H34.7H34.6H34.5H34.4H34.3L34.2 152.3L34 152.2H33.9V152.3V152.4V152.6V152.8V153V153.1H33.7H33.4L33 153.2V153.5V153.8V153.9H32.9V154L32.8 154.1L32.7 154.2L32.5 154.3V154.4H32.4H32.3V154.3H32.2H32.1H32L31.9 154.4H31.8H31.7H31.6V154.5L31.5 154.4H31.4V154.3H31.3H31.2H31.1V154.2L31 154.1V154H30.9V153.9H30.8L30.7 153.8V153.7H30.6V153.6L30.5 153.5V153.4H30.4V153.3H30.3V153.2L30.2 153.1H30.1V153H30V152.9H29.9V152.8V152.7H30V152.6H29.9V152.5H29.8V152.4H29.7V152.3L29.6 152.2V152.1H29.5H29.4H29.3V152H29.2H29.1V151.9H29L28.9 151.8H28.8V151.7H28.7V151.6H28.6H28.5L28.3 151.5H28.2H28.1V151.4H28H27.9H27.8L27.7 151.3H27.6L27.4 151.2H27.3V151.1V150.8L27.4 150.6V150.5V150.4V150.3H27.5L27.6 150.2V150.1H27.7H27.8L27.9 150V149.9H28V149.8H28.1V149.7H28.2L28.3 149.5L28.2 149.4V149.3H28.3V149.2V149.1L28.4 149V148.9V148.8V148.7H28.3L28.2 148.6L28.1 148.5L28 148.3H27.9L27.8 148.2H27.7H27.6H27.5H27.4L27.3 148.1H27.2H27.1H27L26.9 148V148.1L26.8 148.2V148.3L26.7 148.5V148.6H26.6L26.5 148.5H26.4V148.4H26.3H26.2L26.1 148.3H26H25.9H25.8V148.2H25.7H25.6H25.5L25.4 148.3V148.5L25.3 148.7V148.8L25.2 149.1V149.2H25.1V149.1H25V149H24.9V148.9H25H25.1V148.8H25V148.7H24.9H24.8V148.6V148.5V148.4H24.7H24.6V148.3H24.5V148.2H24.4H24.3V148.1V148V147.9H24.2V147.8H24.1V147.7V147.6H24.2V147.5V147.4H24.1V147.3V147.2H24H23.9V147.1V147H24V146.9V146.8H23.9H23.8V146.9H23.7V146.8V146.7H23.8V146.6V146.5H23.7V146.4H23.6V146.3H23.5V146.2V146.1V146H23.4H23.3V145.9V145.8H23.2H23.1V145.7H23.2L23.1 145.6V145.5H23.2V145.4L23.1 145.3V145.2H23.2L23.3 145.1H23.4L23.3 145H23.4V144.9V144.8H23.3V144.7H23.2H23.1V144.6L23 144.5V144.4V144.3H23.1V144.2V144.1L23.2 144H23.1V143.9H23V143.8H22.9H22.8V143.7V143.6V143.5V143.4V143.3V143.2V143.1V143H22.7V142.9H22.6L22.5 142.8L22.6 142.7L22.7 142.6V142.5L22.8 142.4V142.3H22.9V142.2L23 142.1V142V141.9H23.1L23.2 141.8V141.7L23.3 141.6V141.5H23.2H23.1L23 141.4H22.9L22.8 141.5L22.7 141.6H22.5L22.4 141.7V141.6H22.3H22.2H22.1H22V141.7H21.9H21.8V141.6V141.5V141.3H21.7V141.2H21.6H21.5V141.1H21.4V141H21.3V140.9L21.2 140.8H21.1V140.7H21L20.9 140.6H20.8V140.5V140.4H20.7V140.3L20.6 140.2H20.5H20.4H20.3H20.2H20.1V140.3V140.4V140.5V140.6V140.7H20.2V140.8H20.1H20H19.9H19.8V140.9H19.7H19.6H19.5L19.4 140.8V140.7H19.3V140.6H19.4V140.5V140.4V140.3H19.5V140.2V140.1V139.9V139.7H19.4V139.6V139.5V139.4V139.3V139.1V139V138.9V138.8V138.7V138.6V138.5V138.4V138.3V138.2H19.6H19.8V138.1H19.9V138V137.9V137.8V137.7H19.8V137.6V137.5V137.4H19.9H20V137.3H20.1H20.2V137.2H20.3L20.4 137.3H20.5V137.2H20.6H20.7L20.8 137.1V137H20.7V136.9V136.8L20.6 136.7V136.6L20.5 136.5H20.4V136.4H20.3V136.3V136.2V136.1V136L20.2 135.9V135.8V135.7V135.6V135.5V135.4V135.3V135.2V135.1H20.1V135V134.9V134.8V134.7V134.6V134.5V134.4V134.3H20H19.9V134.2H19.8V134.1H19.7V134V133.9H19.6V133.8V133.7V133.6H19.5V133.5V133.4H19.4V133.3V133.2V133.1V133V132.9H19.3V132.8V132.7V132.6V132.5V132.4V132.3V132.2H19.4H19.5H19.6H19.7H19.8L19.9 132.1H20V132H20.1V131.9V131.8V131.7H20.2V131.6H20.3H20.4H20.5L20.6 131.5V131.6H20.7L20.8 131.7H20.9H21H21.1H21.2V131.8H21.3L21.4 131.9H21.5L21.6 132H21.7V132.1H21.8L21.9 132.2H22V132.3H22.1L22.2 132.4H22.3V132.5H22.4L22.5 132.6H22.6L22.7 132.5V132.4L22.8 132.3L22.9 132.2V132.1V132H23V131.9L23.1 131.8L23.2 131.7V131.6L23.3 131.5L23.4 131.3L23.5 131.2L23.6 131.1V131L23.7 130.9V130.8L23.8 130.7L23.9 130.6L24 130.4L24.1 130.3V130.2H24.2H24.3V130.3H24.4H24.5V130.4H24.6H24.7V130.5H24.8H24.9H25V130.6V130.7V131L24.9 131.1H25.5H25.6V131V130.9H25.7V130.8H25.8V130.7V130.6V130.5H25.9H26V130.4H26.1V130.3V130.2H26V130.1H25.9V130H26V129.9H25.9V129.8H26V129.7V129.6V129.5H26.1V129.4H26.2L26.1 129.3V129.2V129.1H26V129V128.9V128.8H25.9V128.7H25.8V128.6V128.5H25.9V128.4H26V128.3L25.9 128.2H26V128.1V128H25.9V127.9V127.8H25.8V127.7V127.6H25.7L25.6 127.5V127.4V127.3H25.5V127.2V127.1V127H25.4L25.2 126.9H25H24.9V126.8H24.6H24.5L24.4 126.7H24.2L24 126.6H23.9H23.8L23.6 126.5H23.4H23.3L23.1 126.4L22.8 126.3L23.1 125.8L23.3 125.4L23.4 125.3V125.2L23.5 125.1V125L23.4 124.9H23.3H23.2V124.7V124.6L23.3 124.3H23.4H23.5H23.6V124.1V124H23.7H23.8H23.9H24V123.9L23.3 123.4L23.4 123.1V122.6H23.5H23.6V122.5L23.7 122.4L23.6 122.3L23.7 122L23.6 121.9V121.8V121.7V121.6H23.7H23.8V121.7H23.9V121.8H24.1H24.5V121.6H24.6V121.1H25.1L25.6 121H25.7L25.8 120.8V120.7H25.9V120.6V120.5L26 120.4H25.9L25.8 120.3V120.2H25.7V120.1H25.6V120L25.4 119.9V119.8H25.3L25.2 119.7V119.6V119.5L25.3 119.4V119.3H25.2V119.2V119.1V119H25.3L25.2 118.9V118.8V118.7V118.6V118.5V118.4V118.3V118.2V118.1V118L25.3 117.9H25.2V117.8L25 117.9H24.9L24.7 118L24.1 118.2H24L23.9 118.3L24 118.7L24.1 119.2V119.5L23.5 119.7L23.2 119.8H23.1V119.5V119.4V119.3V118.7V118.6V118.2H23.2V118V117.9V117.8V117.7V117.6V117.5V117.4H23.1V117.5H23H22.9V117.6H22.8V117.7H22.7V117.8H22.6V117.7V117.6H22.5H22.4V117.5H22.5H22.6V117.4V117.3H22.5V117.2V117.1V117V116.9V116.8V116.7V116.6V116.5H22.4V116.4V116.3V116.2H22.3H22.2V116.1H22.1H22H21.9H21.8H21.7V116V115.9V115.8V115.7V115.5V115.4V115.2V115.1V115L21.8 114.9L21.9 115H22V114.8V114.7V114.6V114.5L22.1 114.4V114.3V114.2V114.1V114V113.9V113.8L22 113.7V113.6V113.5L21.9 113.2V113.1V113V112.8V112.7H21.8H21.7H21.6H21.5H21.4H21.2H21.1H21H20.9L20.8 112.8V112.9L20.7 113V113.1H20.6V113.2H20.5H20.4H20.3V113.3V113.4V113.5V113.6H20.2H20.1V113.7L20 113.8H19.9V113.7H19.8H19.7H19.6H19.5H19.2H19.1V113.8V113.9L19 114V114.1L18.9 114.2V114.3L18.8 114.4V114.5L18.7 114.6V114.7L18.6 114.8V114.9L18.5 115V115.1H18.4V115.2V115.3L18.3 115.4H18.2H18.1L18 115.3H17.9V115.2H17.8L17.7 115.1H17.6L17.5 115L17.4 114.9L17.3 114.8H17.2L17.1 114.7H17V114.6H16.9L16.8 114.5L16.7 114.4H16.6L16.5 114.3H16.4V114.2V114.1L16.3 114V113.9V113.8L16.2 113.7L16.1 113.5L16 113.3V113.2V113.1V113V112.9V112.8H15V112.7L14.1 112.5V112.1L14.2 111.8V111.4H14H13.7H13.6H13.4L13.1 111.3V111.4V111.5V111.7H13V111.6H12.9V111.5H12.8H12.7V111.4L12.6 111.3L12.5 111.2V111.1H12.4V111H12.3V110.9H12.2L12.1 110.8V110.7H12V110.6H11.9V110.5V110.4H11.8V110.5H11.7V110.4H11.6L11.5 110.3L11.7 110.1L11.9 110.2L12 110.3H12.1H12.2H12.3L12.4 110.1H12.3L12.2 110H12.1V109.9H12.2H12.3H12.4H12.5H12.6V109.8H12.7V109.9H12.8V109.8H12.9V109.6V109.5H12.8V109.4V109.2V109V108.9L12.7 108.8L12.5 108.7L12.1 108.5L11.6 108L11.4 107.9H11.3L11.2 107.8L10.5 107.3V107.2H10.4L10.3 107.1H10.2V107H10.1V106.9H10H9.89999V107H9.60001H9.5L9.20001 106.9L9.10001 106.8L8.89999 106.9H8.70001H8.60001H8.5H8.39999V106.8L8.10001 106.9H8H7.89999V107H7.70001V106.9L7.60001 106.8V106.7V106.5L7.5 106.4V106.3L7.60001 106.2V106.1L7.70001 106L7.79999 105.8H7.89999V105.7V105.6L8 105.2V105.1V104.9V104.7V104.6V104.5V104.4H7.89999V104.3V104.2H8V104.1L7.5 103.8L7.20001 103.6L7.10001 103.5H6.89999H6.79999L6.20001 103.1L5.89999 103L5.70001 102.9V102.8H5.60001H5.5L5.39999 102.7L5.20001 102.6H5.10001L4.89999 102.5L4.70001 102.3H4.5L4.29999 102.1L4.5 101.3L4.60001 100.6V100.5L4.70001 100.3V100.2V100L4.79999 99.8V99.7V99.6L4.89999 99.4L5.10001 99.3V99.2L5.20001 99.1V99L5.29999 98.9V98.8L5.39999 98.7L5.5 98.5L5.60001 98.4V98.3H5.70001V98.2H5.79999L5.89999 98V97.9L6 97.8V97.7L6.20001 97.4L6.29999 97.3L6.39999 97.2V97.1V97H6.5V96.9V96.8V96.7H6.39999V96.4V96.3V96.2V96.1V96V95.9V95.8V95.7V95.6V95.5L6.5 95.4V95.3L6.60001 95.2V95.1L6.70001 95V94.9H6.79999V94.8V94.7L6.89999 94.6V94.5V94.4V94.3V94.2L6.79999 94.1H6.70001H6.60001L6.5 94.2V94.1H6.39999H6.29999L6.20001 94.2H6.10001H6L5.89999 94.3L5.79999 94.4H5.70001H5.60001L5.5 94.3H5.29999H5.20001V94.2V94.1H5.10001L5 94V93.9V93.8L4.89999 93.7L5 93V92.9L4.79999 92.6L4.60001 92.5H4.5L4.20001 92.3L3.89999 92.1L3.70001 92L3.39999 91.8H3.29999H3.20001L3.10001 91.7V91.6V91.5L3 91.4H2.89999L2.79999 91.3H2.60001L2.39999 91.2L2.29999 91.1H2.20001V91V90.9L2.10001 90.7V90.5V90.4V90.3L2 90.2V90.1V90H1.89999V89.9L1.79999 89.8V89.7L1.70001 89.5V89.4V89.3V89.2V89.1V88.9V88.8V88.7H1.79999L1.89999 88.6H2H2.20001H2.39999V88.5L2.79999 88.4H3.10001H3.20001H3.29999H3.39999V88.2L3.20001 87.9L3 87.6L2.89999 87.2L2.70001 86.9L2.60001 86.7V86.6V86.5H2.70001V86.4V86.3V86.2H2.79999L2.89999 86L3 85.8V85.7V85.6V85.5V85.4H3.10001V85.2H3L2.79999 85.1L2.70001 85H2.5V84.9H2.39999L2.29999 84.8V84.7H2.20001H2.10001H2L1.89999 84.5L1.79999 84.3L1.70001 84.2V84.1H1.60001H1.5H1.39999H1.29999V84V83.9V83.8L1.20001 83.7V83.6H1.29999V83.5H1.39999H1.5V83.6H1.60001H1.70001H1.79999H1.89999V83.5H2H2.10001V83.4V83.3H2H1.89999V83.2V83.1V83H2H2.10001V82.9L2.20001 82.8V82.7H2.29999H2.39999V82.6H2.5V82.5H2.39999H2.29999V82.4V82.3H2.20001V82.2H2.29999V82.1H2.39999V82H2.5V81.9V81.8V81.7V81.6H2.39999V81.5H2.5V81.4V81.3V81.2V81.1H2.39999L2.29999 81H2.20001H2.10001H2V80.9V80.8H1.89999V80.7H2V80.6V80.5V80.4H2.10001H2.20001V80.3H2.29999V80.2H2.39999H2.5V80.1H2.60001V80.2H2.70001V80.1H2.89999L3 79.9L3.20001 80.1L3.39999 79.9H3.79999L3.89999 79.8L4.10001 79.9V79.8L4.20001 79.7V79.5L4.29999 79.3V79.2V79.1V79L4.39999 78.9V78.8V78.7H4.5V78.6L4.60001 78.5H4.5V78.4V78.3H4.39999V78.2H4.5H4.60001V78.1V78H4.70001H4.79999V77.9H4.89999V77.8V77.7H4.79999V77.6V77.5V77.4H4.89999V77.3H5V77.2V77.1L5.10001 77H5.20001V76.9H5.29999V76.8H5.39999H5.5V76.7V76.6V76.5V76.4V76.3V76.2H5.60001V76.1L5.70001 76V75.9H5.60001V75.8V75.7V75.6H5.5V75.5H5.39999V75.4V75.3V75.2H5.5V75.1V75H5.39999V74.9H5.29999H5.20001V74.8H5.29999V74.7H5.20001V74.6V74.5H5.10001V74.4V74.3V74.2H5V74.1H5.10001V74V73.9V73.8H5.20001V73.7H5.29999V73.6V73.5H5.39999V73.4V73.3V73.2V73.1V73V72.9V72.8V72.7H5.29999H5.20001H5.10001H5V72.8H4.89999V72.7H4.79999V72.6V72.5V72.4H4.70001H4.60001V72.3H4.5H4.39999H4.29999V72.2H4.20001H4.10001H4L3.89999 72.1H4V72V71.9H3.89999V71.8V71.7V71.6V71.5V71.4V71.1L4 70.4L3.70001 70.2L3.60001 70.1V70V69.6V69.5V69.4H3.70001V69.3V69.2V69.1H3.60001V69V68.9V68.8H3.70001L3.79999 68.7V68.6V68.5V68.4V68.3V68.2V68.1V68V67.9V67.8L3.89999 67.7V67.6L4 67.5H3.89999V67.4H3.79999V67.3V67.2V67.1H3.70001V67V66.9H3.60001H3.5V66.8V66.7V66.6H3.60001V66.5V66.4V66.3V66.2H3.70001V66.1V66H3.79999V65.9V65.8H3.89999V65.7H4V65.6V65.5H4.10001V65.4H4.20001V65.3H4.29999V65.2V65.1L4.20001 64.9L4.10001 64.2L4.29999 63.8L4.5 63.3L4.20001 63.1L4.29999 62.9L4.39999 62.7L4.5 62.6V62.5L4.60001 62.3H4.70001V62.1H4.60001L4.5 62V61.9H4.39999L4.29999 61.8L4.20001 61.7H4.10001L4 61.6H3.89999L3.79999 61.5L3.60001 61.3V61.2V61.1V61L3.5 60.9V60.8H3.39999H3.29999L3.20001 60.9V60.8H3.10001V60.9H3V60.8H2.89999V60.7V60.6V60.5L2.79999 60.4H2.70001V60.3V60.2V60.1V60L2.60001 59.8V59.7H2.70001L2.79999 59.5L2.89999 59.3L3.10001 59.4L3.29999 59.2L3.5 59.1L3.70001 59L3.79999 58.8H3.70001H3.60001V58.7V58.5L3.70001 58.4V58.3L3.79999 58.2L3.70001 58.1L3.5 58V57.9H3.60001L3.39999 57.8L3 57.6V57.3H3.10001V57.2V57.1V57V56.8L3 56.7V56.6H3.10001V56.5L2.89999 56.2L2.79999 55.9H2.70001V55.8L2.60001 55.7V55.6L2.5 55.4L2.39999 55.3V55.2L2.20001 54.9L2.10001 54.8V54.7H2V54.6V54.5V54.4V54.3V54.2L1.79999 53.8L2.20001 53.6L2.39999 53.4L2.60001 53.1L3.20001 53.2V53.1V52.4L3.29999 52.3V52.1V52L3.10001 51.9V51.8L3 51.7L2.89999 51.6V51.4H2.79999L3.20001 51.3H4H4.20001H4.39999L4.89999 51.2H5.29999H5.70001V51.1L5.79999 50.6L6.10001 50.5H7.39999L8.20001 50.4L8.10001 50.2L7.79999 49.7V49.6V49.4V49.1L7.89999 48.9V48.8V48.7L8.10001 48.4V48.3V48.2V48L8 47.7L8.10001 47.2L8.20001 47.3L8.60001 47.1V47L8.70001 46.7H8.79999H8.89999H9.10001L9.39999 46.8H9.70001L9.60001 46.1H9.89999L10.3 46L10.2 45.4L10.1 45L10.4 44.8L10.3 44.3L10.2 43.5V42.9L10.1 42.5V42.3H10.2H10.5V42.2H10.6L10.9 42V41.9L10.6 41.4L11 41L11.2 40.7L11.8 40.2V40.1L11.7 40L12 39.3L12.1 39.2L12.2 38.7L12.1 38.6L12 38.4V37.8V37.7L12.7 37.6L13.6 36.5L13.7 36.4L13.8 36.2L14.1 35.9H14.2L14.9 35.8V35.7V35.6V35.5L15 35.4V35.3V35.2L15.1 35.1V35V34.8L15.6 34.7V34.5L15.5 34.3L15.4 34.2H15.3L15.2 34.1V34L15.1 33.9H15H14.7V33.8V33.6V33.5L14.4 33.4L14.3 33H14.7L14.5 32.8L14.6 32.7H14.7H14.8L15 32.6L14.9 32.4V32.3L14.7 31.8L14.4 31.1L14.2 29.9L14.1 29.6L14 28.8H14.1H14.2L14.5 28.7H14.6L15 28.6H15.5L16 28.5H16.1H16.2V28.4H16.3H16.4H16.5L16.7 28.2L16.8 28.1L16.9 27.9H17V27.8L17.2 27.5L17.4 27.1L17.5 26.8H17.6L18.1 26.3V26.2V26V25.9L18.4 25.3L18.3 25L18.2 24.8L18.3 24.3L17.2 23.8H17.1L16.9 23.7H16.7V23.6V23.5V23.2V23V22.9L16.6 20.9L16.8 20.5L16.9 20.1V19.8V19.7L17 19.5L17.2 18.7V18.6V17.9V17.4H17.3H17.4H17.5L17.8 17.3H17.9H18H18.1H18.3H18.5H18.7V17.4L18.6 17.5L18.5 17.7L18.3 18.1L18.4 18.3L18.5 18.4V18.5V18.6H18.6V18.8V18.9V19V19.1V19.2V19.3L18.9 19.5L19.7 20H19.8L20.3 20.2L20.4 20.3V20.4L20.5 20.5L20.6 20.6H20.7V20.7H20.8L20.9 20.8L21.1 20.9L21.2 21V21.1V21.5L22 21.4H22.3L22.7 21.3V20.8L22.2 20.4L22.3 20L22 19.8V19.1L21.1 19.2V19V18.5V18.2L21 16.9V16.8V16.7V16.6V16.5V16.1V15.2H21.5L23.2 14.9L24.4 13.7L24.5 13.3L24.8 13.5H24.9H25L25.1 13.6L25.4 13.7L25.3 14.1L25.4 14.3L25.6 14.7L26.2 15.5L27.1 16.1L27.8 16.4L28.6 16.3L29.1 15.8L29.3 15.6L31.2 12.9L31.5 12.6L31.7 12.1L31.9 11.5L32 11.2L32.1 10.9V10.8H32.2H32.3H32.4H32.5H32.7H32.9H33L33.1 10.7H33.2H33.3H33.4H33.5H33.8V10.6H33.9L34 10.5L34.2 10.4L34.3 10.3H34.4V10.2L34.5 10.1H34.6V9.99998V9.89999V9.79999V9.69998H34.5V9.59998H34.4V9.49998V9.39999H34.3H34.2V9.49998H34.1V9.39999V9.29999H34.2V9.19998H34.1V9.09998V8.99998H34H33.9V8.89999H34V8.79999H34.1V8.69998H34V8.59998V8.49998L33.9 8.39999H33.8V8.29999V8.19998V8.09998H33.7V7.99998V7.89999V7.79999H33.6V7.69998H33.5V7.59998L33.6 7.49998L33.5 7.39999L33.4 7.29999V7.19998V7.09998L33.5 6.89999V6.79999H33.6V6.49998V5.99998V5.69998V5.59998L33.7 5.49998V5.39999L33.8 5.29999L33.9 5.19998V5.09998L34 4.99998L34.1 4.79999V4.69998L34 4.59998H33.9H33.8V4.49998H33.7L33.6 4.39999L33.7 4.29999L34.8 4.09998L35.9 4.69998L38.2 7.19998L39 8.09998L39.4 8.29999L39.9 8.59998L40.4 8.69998L40.8 8.79999H45.8L46.7 8.49998L48 7.39999L49.3 4.89999H49.4H49.5L49.6 4.99998H49.7L49.8 4.79999V4.69998L50 4.49998V4.39999H50.1V4.29999V4.19998L50.2 4.09998L50.3 3.99998L50.4 3.89999V3.79999L50.5 3.69998L50.6 3.59998V3.39999H50.7V3.29999L50.8 3.19998V3.09998V2.99998V2.89999L50.7 2.79999V2.69998V2.59998L51.7 1.69998L52.8 1.19998H53.8L54.6 2.09998L54.8 2.89999L54.7 3.59998L54.8 4.29999L55.2 5.19998L55.8 5.79999L57.3 6.79999L57.9 7.49998L58.2 8.29999L58.8 10.5L59 11.2L59.7 11.5L60.3 11.1L61.6 9.79999L64.2 8.09998L65.5 7.69998L66.8 7.59998L71.4 8.59998L72.7 9.09998L73.1 10.3L73.2 11.9L74 16.4L74.3 17.6L74.8 18.4L75.7 18.8L76.4 18.5L77 18.1H77.1H77.5H77.7L78.1 19.1L78.4 20.6L79 21.5L79.9 20.5L80 19.9V20V20.1V20.2V20.3H80.1V20.4H80.2L80.4 20L80.6 19.8L80.7 19.6L80.8 19.4V19.1L80.9 18.9V18.7V18.6L81 18.3L81.1 18V17.9V17.8V17.7L81.2 17.5H81.5V17.2L81.4 17L81.3 16.9V16.7V16.3L81.2 16V15.9V15.8V15.7H81.3V15.6H81.2V15.5H81.1V15.4V15.3H81L80.9 15.2L80.8 15.1L80.6 14.9V14.7V14.6V14.5L80.7 14.4L80.8 14.2V14.1L80.9 14L81 13.8L81.2 13.5V13.3L81.4 13.1L81.5 12.8L81.6 12.6V12.5L81.7 12.2L81.9 11.9V11.7L82 11.6V11.5L82.5 10.8L84.2 9.59998L85.8 8.69998L87.2 8.39999H90.3L91.7 7.89999L91.8 7.69998H91.9L92 7.59998H92.1H92.3H92.4L92.5 7.49998H92.6H92.7L92.8 7.29999L93 7.19998L93.1 7.09998L93.4 6.79999L93.5 6.69998H93.6L93.7 6.59998L93.8 6.49998V6.39999H93.9L94.1 6.19998H94.2V6.09998V5.99998V5.89999H94.3V5.69998L94.4 5.59998V5.49998L94.5 5.39999L94.6 5.29999V5.19998L94.7 5.09998L94.8 4.99998L94.9 4.89999L95 4.79999H95.1V4.69998L95.2 4.59998L95.3 4.39999L95.4 4.29999V4.19998V4.09998V3.99998L95.5 3.89999V3.79999H95.6L95.7 3.69998V3.59998V3.49998H95.8V3.39999H95.9H96V3.29999H96.1V3.19998H96.2H96.3V3.09998H96.4H96.5H96.6H96.7H96.8H96.9H97H97.1H97.2L97.3 2.99998L98.9 3.29999L100.1 4.09998L100.7 5.09998L101.8 8.09998L103.5 10.6L104.1 11.9L104.3 14.1L103.8 16.2L104.1 17.1L105 17.7L106 18.9L106.6 20.5L107 22.3L107.6 23.7L108.8 24.4L109.8 24L110.5 23.4L110.8 23.2ZM25.5 13.5L25.4 12.9L25.3 12.7V12.6L25.2 12.1L25.3 12.2L25.4 12.3L25.6 12.6L25.8 12.7L25.5 13.5Z" fill="#6F9C76"/>
<path d="M121.3 72.1H121.2V72.2H121.1H121V72.1H120.9V72H120.8H120.7H120.6H120.5H120.4H120.3L120.2 71.9H120.1L120 71.8H120.1V71.7H120H119.9H119.8H119.7H119.6H119.5V71.8L119.4 71.9H119.3V72H119.2H119.1H119H118.9H118.8H118.7H118.6V72.1H118.5V72.2H118.4L118.3 72.3V72.4H118.2L118.1 72.5H118V72.4H117.9L117.8 72.3H117.7H117.6V72.2H117.5V72.3H117.4L117.3 72.2H117.4V72.1H117.3H117.2L117.1 72H117H116.9H116.8H116.6V71.8H116.7L117.1 71.9H117.3L117.5 71.8H117.7L117.8 71.7L117.9 71.8H118H118.1H118.2H118.3L118.4 71.7V71.6V71.5V71.4V71.3V71.2H118.3H118.2V71.1V71V70.9H118.3H118.4H118.5V70.8H118.6H118.7V70.7H118.8V70.6H118.9V70.5H119V70.4H118.9L118.8 70.2L118.7 70.3H118.6L118.4 70.2L118.3 70.1L118.2 70L118 69.8H117.9V69.7H117.8L117.7 69.6L117.4 69.2L117.6 69L117.4 68.9L117.3 68.8L117.9 68.3H118H118.1H118.2L118.7 68.4L119 68.5L119.4 68.6L119.6 68.7L119.8 68.8H120.3V68.7L120.2 68.4L120.1 68.1L120 67.5L119.6 67.4L119.4 67.8L119.3 67.9L118.9 67.6L118.1 67.1L117.7 66.8L117.8 66.7L117.9 66.4L118 66.3V66.2L118.2 65.9L118.3 65.6L118.4 65.5L118.6 65L118.8 64.6L118.9 64.5V64.3L118.8 63.9L118.7 63.7L118.5 63.5V63.4H118.4V63.3L118.2 63.2L118.1 63L118 62.9L117.9 62.8L117.3 62.6L117.2 62.5L117.1 62.4L116.9 62.1V62L116.8 61.9H116.7L116.5 61.6V61.5H116.4L116.6 60.6L116.5 60.4V60.3H116.4V60.2L116.3 59.9L116.2 59.8L116 59.6L115.9 59.5L115.7 59.3L115.4 58.9L115.2 58.8L115 58.6L114.9 58.5L114.8 58.4L114.6 58.2V58.1L114.5 58.2H114.4L113.9 58L113.4 57.9L113.5 56.5V56.3V55.7V55.3V55L114 54.9H114.1L114.2 54.8H114.6L114.9 54.7H115L115.1 54.8L115.3 54.9L115.7 55.1H115.8L115.9 55.2L116.2 55.3L116.6 55.5V55.4L116.3 55.1V55L116.2 54.9V54.8V54.7L116.1 54.3V54V53.9V53.6V53.5V53.4L116.2 53.3V53.2V53.1H116.3V53L116.2 52.8V52.7L116.1 52.6V52.5V52.3H116.2V52.2L116.4 51.9L116.7 51.4L116.6 51.3L116.8 51.1L117 50.8V50.7H117.1L117.2 50.6L118.5 48.9H118.4L118.3 48.8V48.7L118.2 48.6L117.9 48.3V48.2L117.7 48.1L117.6 47.9H117.5L117.4 47.8H117.3L117.2 47.7H117.1L117 47.6L116.9 47.5H116.8L116.7 47.4L116.6 47.3V47.2H116.5L116.4 47.1V47H116.3V46.9H116.2L116.1 46.8H116V46.7H115.9L115.8 46.6L115.7 46.5L115.5 46.1L115.1 45.5L115 45.2L114.7 44.7L114.5 44.3L114.3 44L114.2 43.8L114.1 43.7L114 43.6L113.6 43.4V43.3H113.5H113.4L113.1 43L112.8 42.8L112.7 42.7L111.8 42.1L111.6 41.9L111.4 41.8L111.1 41.6L111 41.5L110.9 41.4L110.7 41.2L110.4 41.1L110.2 40.9L109.5 41.1H109.3V41.2V42V42.1V42.2V43.1L109.2 43.7L109 43.6H108.9H108.8V43.5L108.6 43.2L108.4 42.6L108.3 42.2L108.2 41.5L108.1 41.4V41.3V41.1H108V41V40.9V40.8L107.9 40.4L107.8 40L107.7 39.4L107.6 39.3V39.2V39L107.4 38L107.3 37.8L107.2 37.5L107 36.5L106.9 36V35.9V35.8L106.8 35.7V35.5V35.4V35.3L106.6 34.9V34.7V34.4L106.4 33.8L106.3 33.5V33.2L106.2 32.9L106.1 32.5L106.3 32.4L107.2 32.1L107.4 32L107.7 31.8H107.8H107.9V31.9H108V32H108.1H108.2V31.8V31.7L108.3 31.6H108.4L108.7 31.7H108.8H108.9L109 31.6H109.1H109.2H109.3V31.5L109.4 31.4V31.6L109.3 31.8L109.2 31.9V32H109.3H109.4H109.5V32.1H109.6L109.7 32H109.9L110 31.9H110.1L110.4 31.8L110.5 31.7L110.7 31.5L110.9 31.2L111 30.8L111.3 30.4L111.7 29.8L112.2 28.9L112.7 27.9V27.8L112.6 27.4L112.5 26.9V26.5V26.4L112.4 26.3V26.2V26L112.5 25.4V24.5V23.6V23.2L111.9 23.3L111 23.5H110.8V23.3V23.2L110.5 23.4L109.8 24L108.8 24.4L107.6 23.7L107 22.3L106.6 20.5L106 18.9L105 17.7L104.1 17.1L103.8 16.2L104.3 14.1L104.1 11.9L103.5 10.6L101.8 8.09998L100.7 5.09998L100.1 4.09998L98.9 3.29999L97.3 2.99998L97.2 3.09998H97.1H97H96.9H96.8H96.7H96.6H96.5H96.4H96.3V3.19998H96.2H96.1V3.29999H96V3.39999H95.9H95.8V3.49998H95.7V3.59998V3.69998L95.6 3.79999H95.5V3.89999L95.4 3.99998V4.09998V4.19998V4.29999L95.3 4.39999L95.2 4.59998L95.1 4.69998V4.79999H95L94.9 4.89999L94.8 4.99998L94.7 5.09998L94.6 5.19998V5.29999L94.5 5.39999L94.4 5.49998V5.59998L94.3 5.69998V5.89999H94.2V5.99998V6.09998V6.19998H94.1L93.9 6.39999H93.8V6.49998L93.7 6.59998L93.6 6.69998H93.5L93.4 6.79999L93.1 7.09998L93 7.19998L92.8 7.29999L92.7 7.49998H92.6H92.5L92.4 7.59998H92.3H92.1H92L91.9 7.69998H91.8L91.7 7.89999L90.3 8.39999H87.2L85.8 8.69998L84.2 9.59998L82.5 10.8L82 11.5V11.6L81.9 11.7V11.9L81.7 12.2L81.6 12.5V12.6L81.5 12.8L81.4 13.1L81.2 13.3V13.5L81 13.8L80.9 14L80.8 14.1V14.2L80.7 14.4L80.6 14.5V14.6V14.7V14.9L80.8 15.1L80.9 15.2L81 15.3H81.1V15.4V15.5H81.2V15.6H81.3V15.7H81.2V15.8V15.9V16L81.3 16.3V16.7V16.9L81.4 17L81.5 17.2V17.5H81.2L81.1 17.7V17.8V17.9V18L81 18.3L80.9 18.6V18.7V18.9L80.8 19.1V19.4L80.7 19.6L80.6 19.8L80.4 20L80.2 20.4H80.1V20.3H80V20.2V20.1V20V19.9L79.9 20.5L79 21.5L78.4 20.6L78.1 19.1L77.7 18.1H77.5H77.1H77L76.4 18.5L75.7 18.8L74.8 18.4L74.3 17.6L74 16.4L73.2 11.9L73.1 10.3L72.7 9.09998L71.4 8.59998L66.8 7.59998L65.5 7.69998L64.2 8.09998L61.6 9.79999L60.3 11.1L59.7 11.5L59 11.2L58.8 10.5L58.2 8.29999L57.9 7.49998L57.3 6.79999L55.8 5.79999L55.2 5.19998L54.8 4.29999L54.7 3.59998L54.8 2.89999L54.6 2.09998L53.8 1.19998H52.8L51.7 1.69998L50.7 2.59998V2.69998V2.79999L50.8 2.89999V2.99998V3.09998V3.19998L50.7 3.29999V3.39999H50.6V3.59998L50.5 3.69998L50.4 3.79999V3.89999L50.3 3.99998L50.2 4.09998L50.1 4.19998V4.29999V4.39999H50V4.49998L49.8 4.69998V4.79999L49.7 4.99998H49.6L49.5 4.89999H49.4H49.3L48 7.39999L46.7 8.49998L45.8 8.79999H40.8L40.4 8.69998L39.9 8.59998L39.4 8.29999L39 8.09998L38.2 7.19998L35.9 4.69998L34.8 4.09998L33.7 4.29999L33.6 4.39999L33.7 4.49998H33.8V4.59998H33.9H34L34.1 4.69998V4.79999L34 4.99998L33.9 5.09998V5.19998L33.8 5.29999L33.7 5.39999V5.49998L33.6 5.59998V5.69998V5.99998V6.49998V6.79999H33.5V6.89999L33.4 7.09998V7.19998V7.29999L33.5 7.39999L33.6 7.49998L33.5 7.59998V7.69998H33.6V7.79999H33.7V7.89999V7.99998V8.09998H33.8V8.19998V8.29999V8.39999H33.9L34 8.49998V8.59998V8.69998H34.1V8.79999H34V8.89999H33.9V8.99998H34H34.1V9.09998V9.19998H34.2V9.29999H34.1V9.39999V9.49998H34.2V9.39999H34.3H34.4V9.49998V9.59998H34.5V9.69998H34.6V9.79999V9.89999V9.99998V10.1H34.5L34.4 10.2V10.3H34.3L34.2 10.4L34 10.5L33.9 10.6H33.8V10.7H33.5H33.4H33.3H33.2H33.1L33 10.8H32.9H32.7H32.5H32.4H32.3H32.2H32.1V10.9L32 11.2L31.9 11.5L31.7 12.1L31.5 12.6L31.2 12.9L29.3 15.6L29.1 15.8L28.6 16.3L27.8 16.4L27.1 16.1L26.2 15.5L25.6 14.7L25.4 14.3L25.3 14.1L25.4 13.7L25.1 13.6L25 13.5H24.9H24.8L24.5 13.3L24.4 13.7L23.2 14.9L21.5 15.2H21V16.1V16.5V16.6V16.7V16.8V16.9L21.1 18.2V18.5V19V19.2L22 19.1V19.8L22.3 20L22.2 20.4L22.7 20.8V21.3L22.3 21.4H22L21.2 21.5V21.1V21L21.1 20.9L20.9 20.8L20.8 20.7H20.7V20.6H20.6L20.5 20.5L20.4 20.4V20.3L20.3 20.2L19.8 20H19.7L18.9 19.5L18.6 19.3V19.2V19.1V19V18.9V18.8V18.6H18.5V18.5V18.4L18.4 18.3L18.3 18.1L18.5 17.7L18.6 17.5L18.7 17.4V17.3H18.5H18.3H18.1H18H17.9H17.8L17.5 17.4H17.4H17.3H17.2V17.9V18.6V18.7L17 19.5L16.9 19.7V19.8V20.1L16.8 20.5L16.6 20.9L16.7 22.9V23V23.2V23.5V23.6V23.7H16.9L17.1 23.8H17.2L18.3 24.3L18.2 24.8L18.3 25L18.4 25.3L18.1 25.9V26V26.2V26.3L17.6 26.8H17.5L17.4 27.1L17.2 27.5L17 27.8V27.9H16.9L16.8 28.1L16.7 28.2L16.5 28.4H16.4H16.3H16.2V28.5H16.1H16L15.5 28.6H15L14.6 28.7H14.5L14.2 28.8H14.1H14L14.1 29.6L14.2 29.9L14.4 31.1L14.7 31.8L14.9 32.3V32.4L15 32.6L14.8 32.7H14.7H14.6L14.5 32.8L14.7 33H14.3L14.4 33.4L14.7 33.5V33.6V33.8V33.9H15H15.1L15.2 34V34.1L15.3 34.2H15.4L15.5 34.3L15.6 34.5V34.7L15.1 34.8V35V35.1L15 35.2V35.3V35.4L14.9 35.5V35.6V35.7V35.8L14.2 35.9H14.1L13.8 36.2L13.7 36.4L13.6 36.5L12.7 37.6L12 37.7V37.8V38.4L12.1 38.6L12.2 38.7L12.1 39.2L12 39.3L11.7 40L11.8 40.1V40.2L11.2 40.7L11 41L10.6 41.4L10.9 41.9V42L10.6 42.2H10.5V42.3H10.2H10.1V42.5L10.2 42.9V43.5L10.3 44.3L10.4 44.8L10.1 45L10.2 45.4L10.3 46L9.89999 46.1H9.60001L9.70001 46.8H9.39999L9.10001 46.7H8.89999H8.79999H8.70001L8.60001 47V47.1L8.20001 47.3L8.10001 47.2L8 47.7L8.10001 48V48.2V48.3V48.4L7.89999 48.7V48.8V48.9L7.79999 49.1V49.4V49.6V49.7L8.10001 50.2L8.20001 50.4L7.39999 50.5H6.10001L5.79999 50.6L5.70001 51.1V51.2H5.29999H4.89999L4.39999 51.3H4.20001H4H3.20001L2.79999 51.4H2.89999V51.6L3 51.7L3.10001 51.8V51.9L3.29999 52V52.1V52.3L3.20001 52.4V53.1V53.2L2.60001 53.1L2.39999 53.4L2.20001 53.6L1.79999 53.8L2 54.2V54.3V54.4V54.5V54.6V54.7H2.10001V54.8L2.20001 54.9L2.39999 55.2V55.3L2.5 55.4L2.60001 55.6V55.7L2.70001 55.8V55.9H2.79999L2.89999 56.2L3.10001 56.5V56.6H3V56.7L3.10001 56.8V57V57.1V57.2V57.3H3V57.6L3.39999 57.8L3.60001 57.9H3.5V58L3.70001 58.1L3.79999 58.2L3.70001 58.3V58.4L3.60001 58.5V58.7V58.8H3.70001H3.79999L3.70001 59L3.5 59.1L3.29999 59.2L3.10001 59.4L2.89999 59.3L2.79999 59.5L2.70001 59.7H2.60001V59.8L2.70001 60V60.1V60.2V60.3V60.4H2.79999L2.89999 60.5V60.6V60.7V60.8H3V60.9H3.10001V60.8H3.20001V60.9L3.29999 60.8H3.39999H3.5V60.9L3.60001 61V61.1V61.2V61.3L3.79999 61.5L3.89999 61.6H4L4.10001 61.7H4.20001L4.29999 61.8L4.39999 61.9H4.5V62L4.60001 62.1H4.70001V62.3H4.60001L4.5 62.5V62.6L4.39999 62.7L4.29999 62.9L4.20001 63.1L4.5 63.3L4.29999 63.8L4.10001 64.2L4.20001 64.9L4.29999 65.1V65.2V65.3H4.20001V65.4H4.10001V65.5H4V65.6V65.7H3.89999V65.8H3.79999V65.9V66H3.70001V66.1V66.2H3.60001V66.3V66.4V66.5V66.6H3.5V66.7M121.3 72.1V72H121.4V72.1H121.3ZM121.3 72.1V72.2V72.3H121.4V72.2H121.5V72.3V72.4H121.4H121.3V72.5H121.4L121.3 72.6V72.7H121.2V72.8H121.3H121.4H121.5V72.9V73M121.5 73V73.1M121.5 73H121.6V73.1V73.2V73.3L121.7 73.4H121.6V73.5H121.7V73.6V73.7L121.8 73.8M121.8 73.8V73.9M121.8 73.8H121.9L122 73.9V74H121.9V74.1V74.2H121.8V74.3V74.4V74.5V74.6H121.9H122V74.7H122.1H122.2V74.8V74.9L122.3 75V75.1H122.4V75.2V75.3V75.4V75.5H122.5H122.6V75.4H122.5V75.3L122.6 75.2H122.7V75.3L122.8 75.4V75.5H122.7V75.6V75.7H122.6V75.8V75.9H122.5V76V76.1H122.4V76.2V76.3V76.4L122.3 76.5V76.6V76.7V76.8L122.2 76.9V77L122.1 77.1V77.2L122 77.3V77.4H121.9L121.8 77.5V77.6V77.7H121.7V77.8H121.6V77.9H121.5H121.4M121.4 77.9V77.8M121.4 77.9H121.3V78V78.1V78.2H121.2V78.3H121.1M121.1 78.3V78.2M121.1 78.3H121H120.9H120.8H120.7H120.6V78.4H120.5V78.3H120.4H120.3V78.4V78.5H120.2V78.6V78.7H120.1V78.6H120M120 78.6V78.5M120 78.6V78.7V78.8V78.9M120 78.9H119.9M120 78.9V79H119.9M119.9 78.9V78.8M119.9 78.9V79M119.9 79V79.1V79.2V79.3L119.8 79.2H119.7V79.3H119.6V79.4H119.5H119.4L119.3 79.5L119.2 79.6H119.3V79.7V79.8H119.4V79.9H119.3V80H119.4V80.1V80.2H119.3V80.3V80.4M119.3 80.4H119.2V80.5H119.3V80.4ZM119.3 80.4H119.4M119.4 80.4V80.3L119.5 80.4H119.4ZM119.4 80.4V80.5V80.6H119.3V80.7H119.2H119.1V80.8H119H118.9L118.8 80.9H118.7H118.6H118.5V81H118.4H118.3V81.1H118.2H118.1H118V81L117.9 80.9V80.8H117.8V80.9H117.7H117.6M117.6 80.9V80.8M117.6 80.9H117.5M117.6 80.9V81H117.5V80.9M117.6 80.8H117.5M117.6 80.8V80.7H117.5V80.8M117.5 80.9V80.8M117.5 80.8H117.4M117.4 80.8V80.7M117.4 80.8H117.3V80.7H117.2M117.2 80.7H117.1M117.2 80.7V80.8H117.1V80.9H117.2V81H117.1M117.1 81V81.1M117.1 81H117V81.1V81.2H116.9M116.9 81.2V81.1M116.9 81.2H116.8M116.8 81.2H116.7M116.8 81.2V81.3H116.7V81.4M116.7 81.4H116.8M116.7 81.4V81.5L116.9 81.8L117 81.9L117.1 82L117 82.1L116.9 82.2L116.8 82.4H116.7L116.6 82.5L116.5 82.6L116 83.1L116.4 83.4L116.5 83.5L115.9 83.7L115.1 84V84.1H115.2L115.3 84.2L115.6 84.4L115.7 84.5V84.6L115.8 84.7H115.9V84.8H116H116.1L116.2 84.9H116.3L116.5 85H116.6V85.1L116.7 85.2H116.8V85.4V85.5H116.9V85.6H117L117.1 85.7V85.8L117.2 85.9L117.5 86V86.1L117.6 86.2V86.3H117.7V86.4L117.8 86.5V86.6V86.7V86.9V87.2V87.4V87.5V87.6H117.9L118 87.7L118.1 87.8V87.9L118 88V88.1L117.9 88.3H117.8V88.4V88.5V88.6V88.8V88.9V89L117.9 89.2L118 89.4V89.5V89.6V89.7V89.8L117.9 89.9H117.8L117.7 90H117.6L117.5 90.1V90.2L117.4 90.3L117.3 90.5V90.6L117.2 90.7L117.1 90.6H117V90.5H116.9H116.8H116.7H116.3H116.2H116.1H115.9H115.8V90.6V90.7V90.8V90.9L115.9 91V91.1V91.2L116 91.3H116.1V91.4H116.2V91.5M116.2 91.5H116.1M116.2 91.5V91.6M116.2 91.6H116.1V91.7M116.2 91.6L116.1 91.7M116.2 91.6V91.7H116.1M116.1 91.7V91.8V91.9V92H116V92.1H115.9V92.2V92.3V92.4H116V92.5H116.1L116.2 92.6H116.3L116.4 92.7H116.5V92.8H116.6H116.7L116.8 92.9H116.9H117L117.1 93V93.1H117.2V93.2H117.3L117.4 93.3H117.5L117.6 93.4H117.7V93.5H117.8H117.9H118H118.1V93.6H118.2V93.7H118V94L118.1 94.1L118.2 94.3L118.3 94.6L118 94.9L118.1 95.1L118.2 95.3L118.3 95.7L118.4 95.9V96L118.3 96.1L118.2 96.2L118.1 96.3H118L117.9 96.2L117.8 96.3L117.6 96.5L117.4 96.6L117.2 96.7L117.1 96.8L117 96.9V96.8H116.9H116.8V96.7H116.7V96.6H116.6H116.5L116.3 96.5L116.2 96.4L116 96.3L115.8 96.1V96H115.7M115.7 96V95.9M115.7 96V96.1H115.6V96.2L115.4 96.7L115.3 97.1L115.2 97.2V97.4L115.4 97.5H115.5H115.6H115.7H115.9H116H116.7V97.6V97.7H116.8V97.6H116.9H117H117.1H117.2H117.3H117.4H117.5H117.6H117.7L117.8 97.7V97.8V98V98.2V98.3V98.4V98.5L117.7 98.8L117.6 98.9L117.5 99V99.1H117.4L117.3 99.2V99.3L117.2 99.4V99.5V99.6L117.1 99.7V99.8H117L116.9 100H116.7L116.6 99.9H116.4V100V100.2L116.3 100.3H116.2H116.1L115.8 100.1L115.6 100H115.5L115.4 99.9L115.3 100H115.1L115 100.1V100.2V100.3L115.1 100.6L115.3 101L115.6 101.5V101.4H115.9L116.4 101.3H116.7H116.9V101.2V101.1V100.9V100.6V100.5L117.8 100.4L117.9 100.3H118.1L118.9 100.1H119H119.3L119.7 100H119.8L120.3 99.9L120.6 99.8H120.7H120.9L121.2 100.1L121.6 100.5L121.9 100.9V101V101.1H122L122.1 101.2L122.4 101.5L122.3 101.9V102L122.2 102.2V102.3V102.4V102.5L122.3 102.6V102.7V102.9L122.4 103.1V103.4L122.3 103.6H122.7H122.8H122.9H123H123.1L123.3 103.7H123.4V103.8L123.5 103.9L123.6 104L123.7 104.1L123.8 104.3L123.9 104.2L124 104.3L124.5 103.7L124.7 103.8V103.9L124.6 104H124.7V104.1V104.2V104.3V104.4V104.5V104.7V104.8V104.9L124.6 105V105.1H124.5H124.4V105.2H124.3V105.3H124.2V105.4V105.5H124.1V105.6H124V105.7H124.1V105.8H124H123.9V105.9H123.8V106H123.7L123.6 106.1L123.5 106.2L123.6 106.3L123.7 106.4H123.8L123.9 106.5L124 106.8L124.1 106.9L124.2 107.1L124.3 107.2L124.6 107.3L124.9 107.4L125.2 107.5L125.3 107.6L125.4 107.5H125.5H125.6H125.7H125.8H125.9L126.1 107.6L126.3 107.7H126.4H126.5V107.8H126.6H126.7H126.8H127L127.4 107.6L127.6 107.5V107.6V107.7V107.8V107.9L127.5 108V108.3V108.7H127.4L127.3 108.6H127V108.7V108.9H126.9V109.1L126.8 109.5L126.7 109.7V109.8L126.8 110V110.1V110.4V110.5V110.6L127 110.7H127.4V110.9V111V111.1L127.2 111.2V111.3H127.1V111.4L127 111.5L126.9 111.6V111.5L126.8 111.4V111.3H126.7V111.2H126.6L126.4 111.4H126.3V111.5H126.2L126.4 111.7L126.6 112V112.1H126.5L126.2 112.2L126.4 112.4L126.5 112.5L126.8 112.7H126.7L126.8 113.1L127 113V113.1L127.1 113.2V113.3V113.4V113.5V113.6L127.2 113.7V113.8V113.9L127.3 114L127.4 114.1V114.2L127.5 114.3L127.6 114.4V114.5H127.7V114.6H127.8L127.9 114.7H128V114.8V114.9V115H127.9H127.8V115.1H127.7H127.6H127.5H127.4V115.2H127.3V115.3H127.2V115.4V115.5H127.1V115.6V115.9V116V116.1L127 116.2L126.9 116.4V116.5V116.6L126.8 116.7V116.8H126.7V116.9L126.6 117V117.1L126.5 117.2L126.4 117.3L126.2 117.5V117.6H126.1V117.7H126V117.8V117.9H125.9V118.1L125.7 118.3V118.4H125.6H125.5H125.4V118.5V118.6H125.3V118.7V118.8H125.2L125.1 118.9V119L125.2 119.1L125.3 119.2V119.3L125.4 119.4V119.5L125.5 119.6H125.6H125.7H125.8L125.9 119.7L126 119.8H126.1L126.2 119.9L126.3 120V120.1L126.4 120.2L126.5 120.3L126.6 120.4L126.7 120.5L126.8 120.6H126.9V120.7H127H127.1L127.2 120.8H127.3H127.4V120.9H127.5H127.6V121V121.1L127.5 121.4L127.4 121.5L127.3 121.8L126.3 122.7H126.2V122.8H126.1V122.9H126V123H125.9V123.1V123.2H125.8V123.4V123.5V123.6L125.7 123.8H125.8V123.9H125.9H126H126.1H126.2H126.4H126.5V124L126.4 124.1V124.2H126.3V124.3H126.2H126.1V124.4H126H125.9H125.8H125.7V124.5H125.6V124.4H125.5V124.5H125.4V124.6H125.3V124.7H125.2L125.3 124.8L125.4 124.9H125.5V125L125.6 125.1L125.7 125.2L125.8 125.3L125.9 125.5L126.1 125.6L126.3 125.9L126.9 126.6L127 126.7L127.4 127.2L127.8 127.7V127.8V127.9V128V128.2V128.3V128.4V128.5V128.6V128.7L127.7 129V129.3V129.6V129.7H127.6V129.8H127.5L127.4 130H127.3L127.1 130.2L126.9 130.3L126.6 130.5H126.5V130.6L126.8 130.8L126.9 130.9V131V131.1V131.2V131.3H127V131.4V131.5H126.9L127 131.6V131.7V131.8V131.9H127.1V132V132.1H127.2V132.2V132.3H127.3V132.4H127.4H127.5V132.5V132.6V132.7H127.6V132.8H127.7M127.7 132.8V132.7H127.8V132.6H127.9V132.7V132.8H127.8H127.7ZM127.7 132.8V132.9H127.6V133H127.5V133.1V133.2V133.3H127.6L127.7 133.4V133.5V133.6L127.8 133.7V133.8L127.9 133.9L128 134L128.1 134.1L128.2 134.2L128.3 134.3V134.4H128.4L128.5 134.5H128.6V134.6H128.7V134.7H128.8L128.7 134.9V135L128.5 135.3L128.6 135.4L128.7 135.6L129.4 135.4L129.5 135.8L129.6 136H129.5H129.4V136.1H129.3H129.2V136.2H129.1V136.3M129.1 136.3H129M129.1 136.3V136.4H129.2V136.5H129.3V136.6L129.4 136.7V136.8V136.9H129.5V137H129.6V137.1L129.7 137.2V137.4L129.2 137.7L129.4 138.4H129.3L128.3 138.9L127.6 139.3L126.8 139.7L126.3 140H126.2L125.7 140.7L125.6 140.8H125.5V140.9H125.4H125.3V141H125.2H125.1V141.1L125 141.2L124.9 141.4V141.5H124.8V141.6L124.7 141.7V141.8L124.6 141.9V142.1L124.5 142H124.4H124.3V142.1V142.2H124.4V142.3V142.4H124.5V142.5V142.6H124.6V142.7H124.7H124.8H124.9H125H125.1H125.2H125.3L125.4 142.6V142.7L125.9 142.8L126.2 142.9V143M126.2 143H126.3M126.2 143L126 143.2L125.8 143.5H125.7L125.6 143.6V143.7H125.5V143.6H125.4V143.5H125.3H125.2V143.4H125.1V143.3H125L124.8 143.5V143.6L124.7 143.7L124.6 143.8H124.5M124.5 143.8V143.7M124.5 143.8H124.4L124.3 144L124.2 144.1V144.2V144.3M124.2 144.3H124.3M124.2 144.3V144.4H124.1V144.5L124 144.6V144.7H123.9L123.6 144.6L123.1 144.4L123 144.6L122.8 144.7V144.8L122.9 145L122.8 145.2V145.3L122.6 145.5H122.5H122.4H122.3H122.2H122.1H122H121.9L121.8 145.6H121.7H121.6V145.7V145.8L121.4 145.9H121.3H121.2H121H120.9H120.8H120.7H120.6H120.5L120.3 146H120.2V146.2L120.3 146.5L120.4 146.6L120.2 146.8L120.1 147V147.1L120 147.3L119.9 147.2L119.8 147.1L119.7 147H119.6H119.5V146.9H119.4L119.3 146.8H119.2V146.7L119.1 146.6L119 146.5H118.9L118.8 146.4H118.7V146.3H118.6H118.5V146.2H118.4V146.1M118.4 146.1H118.3M118.4 146.1L118.3 146L118.2 146.1L118.1 146.2L117.9 146.4H117.8V146.5L117.6 146.6L117.4 146.8L117.6 147.1V147.2L117.7 147.4V147.5L117.6 147.6L117.7 147.7L117.8 147.9L117.4 148.1L117.2 148.3L117.3 148.4L117 148.6H116.9V148.5L116.7 148.3V148.2L116.6 148L116.5 147.9L116.3 147.6L116.2 147.8H116.1L116 147.9L115.9 148L115.3 148.6L114.9 148.3H114.8V148.4V148.5L114.9 148.8V148.9L115 149V149.1L115.1 149.2V149.3V149.4L115.2 149.6L115.3 149.7V149.8L115.4 149.9V150L115.5 150.1V150.3L115.6 150.4V150.5V150.6L115.7 150.7V150.8V150.9V151L115.8 151.1L115.9 151.7L115.6 152.7L115.1 154.1L114.6 154.3L115 155.2L115.1 155.5L116.5 155.6H116.7H116.8H117H117.1H117.2L117.3 155.5H117.4H117.5H117.6H117.7V155.6V155.7V155.8H117.6H117.5V155.9H117.4V156V156.1V156.4V157.5V157.6V157.8V157.9V158V158.1V158.2H117.3V159L118.5 159.4L118.4 159.8L118.3 160L118.2 160.2L118.1 160.5H118L117.4 160.3L117.1 160.1L117 160.5L116.6 160.4L115.9 160.1L115.8 160H115.6L115.3 159.9V159.8H115.2H115.1L114.9 159.7L114.7 159.6L114.4 159.5L114.3 159.6V159.9L114.2 160V160.1V160.2L114.1 160.3L114 160.2L113.9 160.1H113.8M113.8 160.1V160M113.8 160.1H113.7V160H113.6V159.9H113.5V159.8H113.4L113.3 159.7V159.8L112.8 160.4L112.6 160.6L112.5 160.8V160.9L112.4 161.1L112.1 162L111.8 162.8H111.7H111.6H111.5H111.4V162.9L111.3 162.8H111.2V162.7H111.1V162.6H111V162.5H110.9V162.4V162.3H110.8L110.7 162.2L110.6 162.3V162.2H110.5L110.4 162.4L110 162.9L109.9 163.1L109.8 163.2L109.7 163.1L109.4 162.6L109.2 162.3V162.2H108.9H108.7H108.2L107.8 162.3H107.4H107.3H107.2H107.1L106.7 162.2H106.6H106.5V162.3V162.9V163.8V164.3V164.9V165.1H105.4V164.9V164.8L105.3 164.7L105.2 164.5L105 164.2L104.9 164L104 164.8H103.9V164.9V165V165.1H103.7L103.4 165.3L103.3 165.2L103.2 165.1L103.1 165H103V164.9H102.9V164.8H102.8V164.9L102.7 165H102.6V165.1H102.5V165.2H102.4V165.3H102.3H102.2H102.1H102H101.9H101.8H101.7H101.6V165.2H101.5H101.4L101.3 165.1H101.2H101.1H101V165H100.9H100.8H100.7L100.6 165.1H100.5V165H100.4V164.9H100.3H100.2H100L99.9 165H99.8H99.7H99.6L99.5 165.1H99.4H99.3L99.2 165.2H99.1L98.9 165.3L98.8 165.4H98.7L98.6 165.5V165.6H98.5L97.9 164.9H97.4V164.8H97.3H97.2L97.1 164.9H97H96.9L96.8 165L96.7 164.9H96.6H96.5H96.4H96.3L96.1 164.8L95.9 164.9H95.7H95.6L95.5 164.8H95.4H95.3H95.2H95H94.9L94.8 164.9H94.7H94.6L94.5 165H94.4H94.3H94.2V165.1H94.1H94H93.9L93.8 165H93.7H93.6H93.5L93.3 164.9H93.2H93.1V164.8H93H92.9L92.8 164.7H92.7H92.6L92.5 164.6H92.4H92.3V164.5L92.1 164.4V164.3H92V164.2L91.9 164.1V164V163.9L92 163.8V163.7V163.6H92.1V163.5L92.2 163.4L92.3 163.3V163.2L92.4 163.1L92.5 163V162.8H92.6V162.6L92.7 162.5V162.4L92.8 162.3V162.2V162.1H92.9V162H93L93.1 161.8V161.7L92.8 161.5L92.6 161.3L92.4 161.1L92.1 160.8L91.8 160.9L91.6 160.5H91.7H91.8H91.9V160.4L91.7 160.2L91.6 159.9L91.4 159.7L91.3 159.5L91.2 159.4L91.1 159.1L90.9 158.9L90.8 158.8V158.7H90.7H90.6V158.6H90.5H90.4H90.3H90.2H90.1L90 158.5V158.4V158.3H89.9V158.2V158.1V158L90 157.9L90.1 157.8H90.2H90.5V157.7L90.6 157.5V157.3L90.7 157.2V157.1L90.8 157V156.9V156.8V156.7V156.6H90.9H91H91.1L91.3 156.7H91.4L91.7 156.3L91.9 155.9L92.1 155.7L92.4 155.3L92.2 155.1L92.3 154.9L92.4 154.7V154.6L92.5 154.5H92.6V154.4L92.9 154.5V154.3V154.1V154H92.8V153.9V153.8L92.7 153.7V153.6V153.4L92.6 153.3L92.4 153.2L92 153L91 152.3H90.9H90.8V151.9L90.9 151.3V150.6L90.7 150.5L90.5 150.4L90.3 150.3L89.9 150.1H89.8L90.2 149.6L90.5 149.2L90.9 148.8L91.1 148.5L91 148.4L90.9 148.3L90.8 148.2V148.1L90.7 148V147.9V147.7V147.6V147.4V147.3V147.2V147.1H90.5H90.4H90.3V147.2H90.2H90.1H90H89.9H89.8L89.9 147.1L90 146.8V146.7V146.5L90.2 146.1V145.9L90.3 145.6H90.2V145.5H90.1V145.4L90 145.3H89.9V145.2L89.8 145.1L89.7 145V144.9H89.6V144.8L89.5 144.7V144.6L88.8 144.3L88.4 144.2L88 144L87.8 143.8M87.8 143.8H87.7M87.8 143.8L87.9 143.7H88V143.6H88.1V143.5H88V143.4H87.9V143.3H87.8L87.7 143.2H87.6H87.5V143.1H87.4V143V142.9V142.8L87.5 142.4L87.4 142.3H87.3L87.2 142.2H87.1H87H86.9V142.1H86.8H86.7V142L86.6 141.9V141.8H86.5H86.4H86.2H86H85.9H85.8H85.5H85.4V142L85.2 142.7L85.1 142.8V143.1L85 143.4L84.9 143.7V143.8L84.8 144V144.1H84.6H83.8L83.6 144.2H83.4H83.3V144.4V144.5V144.6H83.2H83.1L82.6 144.7H82H81.7V144.8L81.8 145.4H81.6H81.5H81.4H81.3L81 145.3H80.6H80.1V145.6V146V146.2V146.3V146.4V146.5V147H80.2L80.5 146.9V147.3H80.3H80L79.8 147.4V147.5L79.7 147.7L79.5 148L79.4 148.3L79.3 148.6L79.2 148.7V148.9L78.8 149V148.9L78.7 148.5V148.4L78.6 148.1L78.4 148.2H78.3L78 148.3L77.8 148L77.6 148.1L77.3 148.2L77.1 148.3H76.9V148.4V148.5L77 148.8L76.9 148.7H76.8L76.7 148.6H76.6L76.5 148.5L76.1 148.2L75.9 148.1H75.8L75.7 148L75.4 147.9L74.9 147.7L74.4 147.5L74.3 147.4V147.5L74.4 147.9L74.5 148L74.2 147.8H74.1M74.1 147.8V147.7M74.1 147.8H74H73.9V147.7H73.8H73.7L73.6 147.6H73.5V147.7H73.4L73.3 147.8H73.2V147.9H73.1H73H72.9H72.8H72.7L72.6 148V148.1V148.2V149L72.5 149.3V149.8V149.9V150V150.1V150.2H72.4L72.3 150.3L71.9 150.4L71.7 150.5L71.4 150.7H71.3L71 150.8H70.9V150.7V150.6L70.7 150L70.6 149.8H70.4L69.9 149.1L69.8 148.8L69.7 148.7V148.6L69.5 148.3V148.2H69.4L69.2 147.9L69.1 147.8L68.9 147.7V147.6L68.8 147.5V147.4V147.3V147.2H68.9L68.8 147.1L68.5 147.4L68.2 147.5L68 147.6H67.8H67.7L67.6 147.7H67.5L67.3 147.8H67.1L67 147.9L66.8 148L66.7 148.1H66.6H66.5M66.5 148.1V148.2M66.5 148.1L66.4 148V147.9H66.2L66 147.8V147.7V147.6V147.5V147.4L65.9 147.3V147.2V147.1V147V146.9H65.8L65.7 147H65.6H65.5H65.4L65.3 147.1H65.2H65.1H65H64.9H64.8H64.7H64.6L64.4 147H64.3V147.1H64.2H64.1H64H63.9L63.7 147L63.6 146.9H63.5V146.8H63.4V146.9L63.3 147L63.4 147.1L63.3 147.2V147.3V147.4L63.2 147.5V147.6V147.7L63.1 147.8V147.9H63V148V148.1V148.2V148.3L62.9 148.5V148.7L62.8 148.9V149.1L62.7 149.4L62.6 149.5L62.5 149.6H62.4H62.3V149.7H62.2V149.8L62 149.9L61.9 150H61.8L61.5 150.2L61.3 150.3V150.2H61.2L61 150.1L60.8 150L60.6 149.8H60.5L60.4 149.7L60.2 149.6L59.9 149.4H59.8V149.3H59.7H59.6L59.4 149.2H59.3H59.2H59.1L59 149.1H58.8L58.6 149L57.4 148.7H57.2M57.2 148.7V148.6M57.2 148.7L57 148.8L56.9 148.9H56.8H56.7H56.6H56.5H56.4H56.3H56.1H56L55.9 148.8H55.6H55.4V148.7V148.5V148.2V148.1V148L54.9 147.6L54.7 147.7H54.5V147.8V147.9V148.6V148.9L53.8 149.1L53.7 149.2L53.6 149.4V149.5L53.5 149.6V149.7H53.6V149.8V149.9H53.5H53.4H53.3H53.2H53.1L53.3 149.5L52.9 149.4H52.8V149.5H52.6H52.4L52.3 149.6H52.2H52H51.9H51.8H51.7H51.6L51.5 149.7H51.4H51.3H51.2H51.1H51H50.9H50.6L50.3 149.8H50L49.9 149.7V149.6L49.7 149.7L49.6 149.8L49.5 149.9V150L49.2 150.1H49.1L49 150.2H48.9H48.8L48.7 150.3H48.6H48.5L48.4 150.4H48.3L48.1 150.6H48V150.7H47.9L47.8 150.8H47.7L47.5 150.9H47.4H47.2L47.1 151V150.9H47H46.9V151H46.5H46.1V150.9H46H45.8H45.5H45.4H45.2L44.9 151H44.6H44.5V151.1H44.4H44.2H44H43.9V151H43.8H43.7H43.6H43.5H43.4H43.3H43.2H43.1L43 150.9H42.9V150.8H42.8V150.7H42.7V150.6H42.6H42.5H42.4H42.3L42.2 150.5H42.1L41.8 150.4H41.7H41.6H41.5V150.3H41.4H41.3H41.2H41L40.8 150.4H40.7H40.6H40.5H40.4H40.3H40.2L40.1 150.5H40H39.9L39.8 150.6L39.6 150.7L39.5 150.9L39.3 151H39.2V151.1H39.1H39H38.9V151.2H38.8H38.7H38.6L38.5 151.3H38.4H38.3H38.2H38.1H38H37.8H37.7H37.6H37.5H37.4H37.3H37.2H37.1V151.4H37L36.9 151.5V151.6H36.8V151.7V151.9V152.1H36.7L36.5 152.2H36.4H36.3H36.2H36.1V152.3H36H35.9H35.8H35.6H35.5H35.4H35.1L34.9 152.4H34.8H34.7H34.6H34.5H34.4H34.3L34.2 152.3L34 152.2H33.9V152.3V152.4V152.6V152.8V153V153.1H33.7H33.4L33 153.2V153.5V153.8V153.9H32.9V154L32.8 154.1L32.7 154.2L32.5 154.3V154.4H32.4H32.3V154.3H32.2H32.1H32L31.9 154.4H31.8H31.7H31.6V154.5L31.5 154.4H31.4V154.3H31.3H31.2H31.1V154.2L31 154.1V154H30.9V153.9H30.8L30.7 153.8V153.7H30.6V153.6L30.5 153.5V153.4H30.4V153.3H30.3V153.2L30.2 153.1H30.1V153H30V152.9H29.9V152.8V152.7H30V152.6H29.9V152.5H29.8V152.4H29.7V152.3L29.6 152.2V152.1H29.5H29.4H29.3V152H29.2H29.1V151.9H29L28.9 151.8H28.8V151.7H28.7V151.6H28.6H28.5L28.3 151.5H28.2H28.1V151.4H28H27.9H27.8L27.7 151.3H27.6L27.4 151.2H27.3M27.3 151.2H27.2M27.3 151.2V151.1V150.8L27.4 150.6V150.5V150.4V150.3H27.5L27.6 150.2V150.1H27.7H27.8L27.9 150V149.9H28V149.8H28.1V149.7H28.2L28.3 149.5L28.2 149.4V149.3H28.3V149.2V149.1L28.4 149V148.9V148.8V148.7H28.3L28.2 148.6L28.1 148.5L28 148.3H27.9L27.8 148.2H27.7H27.6H27.5H27.4L27.3 148.1H27.2H27.1H27L26.9 148V148.1L26.8 148.2V148.3L26.7 148.5V148.6H26.6L26.5 148.5H26.4V148.4H26.3H26.2L26.1 148.3H26H25.9H25.8V148.2H25.7H25.6H25.5M25.5 148.2V148.1M25.5 148.2L25.4 148.3V148.5L25.3 148.7V148.8L25.2 149.1V149.2H25.1V149.1H25V149H24.9V148.9H25H25.1V148.8H25V148.7H24.9M24.9 148.7V148.6M24.9 148.7H24.8V148.6M24.8 148.6H24.7M24.8 148.6V148.5V148.4H24.7H24.6V148.3M24.6 148.3V148.2M24.6 148.3H24.5V148.2H24.4H24.3V148.1V148V147.9H24.2V147.8H24.1V147.7V147.6H24.2V147.5V147.4H24.1V147.3V147.2H24H23.9V147.1M23.9 147.1H24M23.9 147.1V147H24V146.9V146.8H23.9H23.8V146.9M23.8 146.9H23.9M23.8 146.9H23.7V146.8V146.7H23.8V146.6V146.5H23.7V146.4H23.6V146.3H23.5V146.2V146.1V146H23.4H23.3V145.9V145.8H23.2H23.1V145.7H23.2L23.1 145.6V145.5H23.2V145.4L23.1 145.3V145.2H23.2L23.3 145.1H23.4L23.3 145H23.4V144.9V144.8H23.3V144.7H23.2H23.1V144.6L23 144.5V144.4V144.3H23.1V144.2V144.1L23.2 144H23.1V143.9H23V143.8H22.9H22.8V143.7V143.6V143.5V143.4V143.3V143.2V143.1V143H22.7V142.9H22.6L22.5 142.8L22.6 142.7L22.7 142.6V142.5L22.8 142.4V142.3H22.9V142.2L23 142.1V142V141.9H23.1L23.2 141.8V141.7L23.3 141.6V141.5H23.2H23.1L23 141.4H22.9L22.8 141.5L22.7 141.6H22.5L22.4 141.7V141.6H22.3H22.2H22.1H22V141.7H21.9H21.8V141.6V141.5V141.3H21.7V141.2H21.6H21.5V141.1H21.4V141H21.3V140.9L21.2 140.8H21.1V140.7H21L20.9 140.6H20.8V140.5V140.4H20.7V140.3L20.6 140.2H20.5H20.4H20.3H20.2H20.1V140.3V140.4V140.5V140.6V140.7H20.2V140.8H20.1H20H19.9H19.8V140.9H19.7H19.6H19.5L19.4 140.8V140.7H19.3V140.6H19.4V140.5V140.4V140.3H19.5V140.2V140.1V139.9V139.7H19.4V139.6V139.5V139.4V139.3V139.1V139V138.9V138.8V138.7V138.6V138.5V138.4V138.3V138.2H19.6H19.8V138.1H19.9V138V137.9V137.8V137.7H19.8V137.6V137.5V137.4H19.9H20V137.3H20.1H20.2V137.2H20.3L20.4 137.3H20.5V137.2H20.6H20.7L20.8 137.1V137H20.7V136.9V136.8L20.6 136.7V136.6L20.5 136.5H20.4V136.4H20.3V136.3V136.2V136.1V136L20.2 135.9V135.8V135.7V135.6V135.5V135.4V135.3V135.2V135.1H20.1V135V134.9V134.8V134.7V134.6V134.5V134.4V134.3H20H19.9V134.2H19.8V134.1H19.7V134V133.9H19.6V133.8V133.7V133.6H19.5V133.5V133.4H19.4V133.3V133.2V133.1V133V132.9H19.3V132.8V132.7V132.6V132.5V132.4V132.3V132.2H19.4H19.5H19.6H19.7H19.8L19.9 132.1H20V132H20.1V131.9V131.8V131.7H20.2V131.6H20.3H20.4M20.4 131.6V131.7M20.4 131.6H20.5L20.6 131.5V131.6H20.7L20.8 131.7H20.9H21H21.1H21.2V131.8H21.3L21.4 131.9H21.5L21.6 132H21.7V132.1H21.8L21.9 132.2H22V132.3H22.1L22.2 132.4H22.3V132.5H22.4L22.5 132.6H22.6L22.7 132.5V132.4L22.8 132.3L22.9 132.2V132.1V132H23V131.9L23.1 131.8L23.2 131.7V131.6L23.3 131.5L23.4 131.3L23.5 131.2L23.6 131.1V131L23.7 130.9V130.8L23.8 130.7L23.9 130.6L24 130.4L24.1 130.3V130.2H24.2H24.3V130.3H24.4M24.4 130.3V130.2M24.4 130.3H24.5V130.4H24.6H24.7V130.5H24.8M24.8 130.5V130.4M24.8 130.5H24.9H25V130.6V130.7V131L24.9 131.1H25.5H25.6V131V130.9H25.7V130.8H25.8V130.7V130.6V130.5H25.9H26V130.4H26.1V130.3V130.2H26V130.1H25.9V130H26M26 130H26.1M26 130V129.9H25.9V129.8H26V129.7V129.6V129.5H26.1V129.4H26.2L26.1 129.3V129.2V129.1H26V129V128.9V128.8H25.9V128.7H25.8V128.6V128.5H25.9V128.4H26V128.3L25.9 128.2H26V128.1V128H25.9V127.9V127.8H25.8V127.7V127.6H25.7L25.6 127.5V127.4V127.3H25.5V127.2V127.1V127H25.4L25.2 126.9H25H24.9V126.8H24.6H24.5L24.4 126.7H24.2L24 126.6H23.9H23.8L23.6 126.5H23.4H23.3L23.1 126.4L22.8 126.3L23.1 125.8L23.3 125.4L23.4 125.3V125.2L23.5 125.1V125M23.5 125H23.6M23.5 125L23.4 124.9H23.3M23.3 124.9V125M23.3 124.9H23.2V124.7V124.6L23.3 124.3H23.4H23.5H23.6V124.1V124H23.7H23.8H23.9H24V123.9L23.3 123.4L23.4 123.1V122.6H23.5H23.6V122.5L23.7 122.4L23.6 122.3L23.7 122L23.6 121.9V121.8V121.7V121.6H23.7H23.8V121.7H23.9V121.8H24.1H24.5V121.6H24.6V121.1H25.1L25.6 121H25.7L25.8 120.8V120.7H25.9V120.6V120.5L26 120.4H25.9L25.8 120.3V120.2H25.7V120.1H25.6V120L25.4 119.9V119.8H25.3L25.2 119.7V119.6V119.5L25.3 119.4V119.3H25.2V119.2V119.1V119H25.3L25.2 118.9V118.8V118.7V118.6V118.5V118.4V118.3V118.2V118.1V118L25.3 117.9H25.2V117.8L25 117.9H24.9L24.7 118L24.1 118.2H24L23.9 118.3L24 118.7L24.1 119.2V119.5L23.5 119.7L23.2 119.8H23.1V119.5V119.4V119.3V118.7V118.6V118.2H23.2V118V117.9V117.8V117.7V117.6V117.5V117.4H23.1V117.5H23H22.9V117.6H22.8V117.7H22.7V117.8H22.6V117.7V117.6H22.5M22.5 117.6V117.5M22.5 117.6H22.4V117.5H22.5M22.5 117.5H22.6V117.4V117.3H22.5V117.2V117.1V117V116.9V116.8V116.7V116.6V116.5H22.4V116.4V116.3V116.2H22.3H22.2V116.1H22.1H22H21.9H21.8H21.7V116V115.9V115.8V115.7V115.5V115.4V115.2V115.1V115L21.8 114.9L21.9 115H22V114.8V114.7V114.6V114.5L22.1 114.4V114.3V114.2V114.1V114V113.9V113.8L22 113.7V113.6V113.5L21.9 113.2V113.1V113V112.8V112.7H21.8H21.7H21.6H21.5H21.4H21.2H21.1H21H20.9L20.8 112.8V112.9L20.7 113V113.1H20.6V113.2H20.5H20.4H20.3V113.3V113.4V113.5V113.6H20.2H20.1V113.7L20 113.8H19.9V113.7H19.8H19.7H19.6H19.5H19.2H19.1V113.8V113.9L19 114V114.1L18.9 114.2V114.3L18.8 114.4V114.5L18.7 114.6V114.7L18.6 114.8V114.9L18.5 115V115.1H18.4V115.2V115.3L18.3 115.4H18.2H18.1L18 115.3H17.9V115.2H17.8L17.7 115.1H17.6L17.5 115L17.4 114.9L17.3 114.8H17.2L17.1 114.7H17V114.6H16.9L16.8 114.5L16.7 114.4H16.6L16.5 114.3H16.4V114.2V114.1L16.3 114V113.9V113.8L16.2 113.7L16.1 113.5L16 113.3V113.2V113.1V113V112.9V112.8H15V112.7L14.1 112.5V112.1L14.2 111.8V111.4H14H13.7H13.6H13.4L13.1 111.3V111.4V111.5V111.7H13V111.6H12.9V111.5H12.8H12.7V111.4L12.6 111.3L12.5 111.2V111.1H12.4V111H12.3V110.9H12.2L12.1 110.8V110.7H12V110.6H11.9V110.5V110.4H11.8V110.5H11.7V110.4H11.6L11.5 110.3L11.7 110.1L11.9 110.2L12 110.3H12.1H12.2H12.3L12.4 110.1H12.3L12.2 110H12.1V109.9H12.2H12.3H12.4H12.5H12.6V109.8H12.7V109.9H12.8V109.8H12.9V109.6V109.5H12.8V109.4V109.2V109V108.9L12.7 108.8L12.5 108.7L12.1 108.5L11.6 108L11.4 107.9H11.3L11.2 107.8L10.5 107.3V107.2H10.4L10.3 107.1H10.2V107H10.1V106.9H10H9.89999V107H9.60001H9.5L9.20001 106.9L9.10001 106.8L8.89999 106.9H8.70001H8.60001H8.5H8.39999V106.8L8.10001 106.9H8H7.89999V107H7.70001V106.9L7.60001 106.8V106.7V106.5L7.5 106.4V106.3L7.60001 106.2V106.1L7.70001 106L7.79999 105.8H7.89999V105.7V105.6L8 105.2M8 105.2H8.10001M8 105.2V105.1V104.9V104.7V104.6V104.5V104.4H7.89999V104.3V104.2H8V104.1L7.5 103.8L7.20001 103.6L7.10001 103.5H6.89999M6.89999 103.5V103.4M6.89999 103.5H6.79999L6.20001 103.1L5.89999 103L5.70001 102.9V102.8H5.60001H5.5L5.39999 102.7L5.20001 102.6H5.10001L4.89999 102.5L4.70001 102.3H4.5L4.29999 102.1L4.5 101.3L4.60001 100.6V100.5L4.70001 100.3V100.2V100L4.79999 99.8V99.7V99.6L4.89999 99.4L5.10001 99.3V99.2L5.20001 99.1V99L5.29999 98.9V98.8L5.39999 98.7L5.5 98.5L5.60001 98.4V98.3H5.70001V98.2H5.79999L5.89999 98V97.9L6 97.8V97.7L6.20001 97.4L6.29999 97.3L6.39999 97.2V97.1V97H6.5V96.9V96.8V96.7H6.39999V96.4V96.3V96.2V96.1V96V95.9V95.8V95.7V95.6V95.5L6.5 95.4V95.3L6.60001 95.2V95.1L6.70001 95V94.9H6.79999V94.8V94.7L6.89999 94.6V94.5V94.4V94.3V94.2M6.89999 94.2H7M6.89999 94.2L6.79999 94.1H6.70001H6.60001L6.5 94.2V94.1H6.39999H6.29999L6.20001 94.2H6.10001H6L5.89999 94.3L5.79999 94.4H5.70001H5.60001L5.5 94.3H5.29999H5.20001V94.2V94.1H5.10001L5 94V93.9V93.8L4.89999 93.7L5 93V92.9L4.79999 92.6L4.60001 92.5H4.5L4.20001 92.3L3.89999 92.1L3.70001 92L3.39999 91.8H3.29999H3.20001L3.10001 91.7V91.6V91.5M3.10001 91.5H3.20001M3.10001 91.5L3 91.4H2.89999L2.79999 91.3H2.60001L2.39999 91.2L2.29999 91.1H2.20001V91V90.9L2.10001 90.7V90.5V90.4V90.3L2 90.2V90.1V90H1.89999V89.9L1.79999 89.8V89.7L1.70001 89.5V89.4V89.3V89.2V89.1V88.9V88.8V88.7H1.79999L1.89999 88.6H2H2.20001H2.39999V88.5L2.79999 88.4H3.10001H3.20001H3.29999H3.39999V88.2L3.20001 87.9L3 87.6L2.89999 87.2L2.70001 86.9L2.60001 86.7V86.6V86.5H2.70001V86.4V86.3V86.2H2.79999L2.89999 86L3 85.8V85.7V85.6V85.5V85.4H3.10001V85.2H3L2.79999 85.1L2.70001 85H2.5V84.9H2.39999L2.29999 84.8V84.7H2.20001H2.10001H2L1.89999 84.5L1.79999 84.3L1.70001 84.2V84.1H1.60001H1.5H1.39999H1.29999V84V83.9V83.8L1.20001 83.7M1.20001 83.7H1.29999M1.20001 83.7V83.6H1.29999V83.5H1.39999H1.5V83.6H1.60001H1.70001H1.79999H1.89999V83.5H2H2.10001V83.4V83.3H2H1.89999V83.2V83.1V83H2H2.10001V82.9L2.20001 82.8V82.7H2.29999H2.39999V82.6H2.5V82.5H2.39999M2.39999 82.5V82.4H2.29999M2.39999 82.5H2.29999V82.4M2.29999 82.4V82.3H2.20001V82.2H2.29999V82.1H2.39999V82H2.5V81.9V81.8M2.5 81.8H2.39999M2.5 81.8V81.7V81.6H2.39999V81.5H2.5V81.4V81.3V81.2V81.1H2.39999L2.29999 81H2.20001H2.10001H2V80.9V80.8H1.89999V80.7H2V80.6V80.5M2 80.5H2.10001M2 80.5V80.4H2.10001M2.10001 80.4V80.3M2.10001 80.4H2.20001V80.3H2.29999M2.29999 80.3H2.39999V80.2M2.29999 80.3V80.2H2.39999M2.39999 80.2H2.5V80.1H2.60001V80.2H2.70001V80.1H2.89999L3 79.9L3.20001 80.1L3.39999 79.9H3.79999L3.89999 79.8L4.10001 79.9V79.8L4.20001 79.7V79.5L4.29999 79.3V79.2V79.1V79L4.39999 78.9V78.8V78.7H4.5V78.6M4.5 78.6H4.39999M4.5 78.6H4.60001M4.5 78.6L4.60001 78.5H4.5V78.4M4.5 78.4H4.39999V78.3M4.5 78.4V78.3H4.39999M4.39999 78.3V78.2H4.5H4.60001V78.1V78H4.70001H4.79999V77.9H4.89999V77.8V77.7H4.79999V77.6V77.5V77.4H4.89999V77.3H5V77.2V77.1L5.10001 77H5.20001V76.9H5.29999V76.8H5.39999H5.5V76.7V76.6V76.5V76.4V76.3V76.2H5.60001V76.1L5.70001 76V75.9H5.60001V75.8V75.7V75.6H5.5V75.5H5.39999V75.4V75.3V75.2H5.5V75.1V75H5.39999V74.9H5.29999H5.20001V74.8H5.29999V74.7H5.20001V74.6V74.5H5.10001V74.4V74.3V74.2H5V74.1H5.10001V74V73.9V73.8H5.20001V73.7H5.29999V73.6V73.5H5.39999V73.4M5.39999 73.4H5.29999M5.39999 73.4V73.3M5.39999 73.3H5.29999M5.39999 73.3V73.2V73.1V73V72.9V72.8V72.7H5.29999H5.20001H5.10001H5V72.8H4.89999V72.7H4.79999V72.6V72.5V72.4H4.70001H4.60001V72.3H4.5H4.39999H4.29999V72.2H4.20001H4.10001H4L3.89999 72.1H4V72V71.9H3.89999V71.8V71.7V71.6V71.5V71.4V71.1L4 70.4L3.70001 70.2L3.60001 70.1V70V69.6V69.5V69.4H3.70001V69.3V69.2V69.1H3.60001V69V68.9V68.8H3.70001L3.79999 68.7V68.6V68.5V68.4V68.3V68.2V68.1V68M3.79999 68H3.70001M3.79999 68V67.9V67.8L3.89999 67.7V67.6M3.89999 67.6V67.5M3.89999 67.6L4 67.5H3.89999M3.89999 67.5V67.4H3.79999V67.3V67.2M3.79999 67.2H3.70001M3.79999 67.2V67.1H3.70001V67M3.70001 67H3.60001M3.70001 67V66.9H3.60001H3.5V66.8V66.7M3.5 66.7H3.39999M25.5 13.5L25.4 12.9L25.3 12.7V12.6L25.2 12.1L25.3 12.2L25.4 12.3L25.6 12.6L25.8 12.7L25.5 13.5Z" stroke="white" stroke-width="0.5" stroke-linecap="round" stroke-linejoin="round"/>
</g>
</svg>
