<svg width="127" height="91" viewBox="0 0 127 91" fill="none" xmlns="http://www.w3.org/2000/svg">
<g id="UA21">
<path d="M37.4 6.5L37.5 6.60001L37.6 6.70001H37.7H37.8V6.79999H37.9H38V6.70001H38.1L38.2 6.60001H38.3V6.5H38.4H38.5H38.6L38.7 6.39999H38.8H38.9V6.5V6.60001H39V6.70001L39.1 6.89999H39.2V7L39.3 7.10001V7.20001H39.4V7.29999H39.5V7.39999L39.6 7.5V7.60001H39.7V7.70001V7.79999V7.89999L39.8 8V8.10001H39.9V8.20001L39.8 8.29999V8.39999V8.5H39.7V8.60001L39.8 8.70001V8.79999V8.89999H39.9V9V9.10001L39.8 9.20001V9.29999H39.7H39.6V9.39999H39.5H39.4H39.3H39.2V9.29999H39.1L39 9.10001H38.9V9.20001H38.8V9.29999L38.7 9.39999H38.6V9.5H38.5H38.4V9.60001H38.3H38.2V9.70001H38.1V9.79999H38H37.9L37.8 9.89999L37.7 10H37.6V10.1V10.2V10.3V10.4V10.5V10.6V10.7V10.8V10.9H37.5V11V11.1L37.6 11.2V11.3V11.4H37.7V11.5V11.6H37.8V11.7V11.8V11.9V12H37.9V12.1H38V12.2V12.3H38.1V12.4H38.2V12.5L38.3 12.6V12.7V12.8L38.4 12.9V13V13.2H38.5V13.3V13.4V13.5V13.6L38.6 13.7V13.8L38.7 13.9V14H38.8V14.1H38.9V14.2H39L39.1 14.3H39.2V14.4H39.3H39.4V14.5H39.5V14.6H39.6V14.7H39.7V14.8H39.8H39.9V14.9H40V15H40.1L40.2 15.1H40.3V15.2H40.4V15.3V15.4H40.5H40.6V15.5H40.7H40.8V15.6H40.9V15.7H41L41.1 15.8H41.2H41.3L41.4 15.9H41.5V16H41.6L41.7 16.1H41.8H41.9V16.2L42.1 16.1V16.2H42.2L42.3 16.3H42.4V16.4H42.5V16.5V16.6H42.4V16.7H42.5V16.8V16.9V17V17.1V17.2V17.3V17.4V17.5H42.6V17.6V17.7V17.8V17.9V18V18.1V18.2V18.3V18.4V18.5H42.7V18.6V18.7H42.8V18.8H42.9V18.9L43 19V19.1H43.1L43.2 19.2L43.3 19.3L43.4 19.4H43.5H43.6L43.7 19.5L43.8 19.6L43.9 19.7H44V19.8H44.1V19.7L44.2 19.6H44.3V19.5L44.5 19.3L44.6 19.2V19V18.9L44.7 18.8L44.8 18.7L44.9 18.6L45 18.5H45.1H45.2H45.3L45.4 18.6L45.5 18.5H45.6L45.7 18.4H45.8L45.9 18.3H46V18.2H46.1H46.2H46.3H46.4H46.5H46.6V18.3H46.7V18.4H46.8V18.5H46.9L47 18.4V18.3H47.1V18.2H47.2V18.1H47.3V18H47.4L47.5 17.9H47.6H47.7V18H47.8H47.9L48 17.9H48.1H48.2H48.3V17.8V17.7V17.6V17.5H48.4V17.4H48.5H48.6H48.7V17.3H48.8H48.9H49L49.1 17.4L49.2 17.6H49.3V17.7H49.4H49.6H49.7V17.8H49.8V17.9H49.9H50H50.1L50.2 18V18.1V18.2H50.3H50.4L50.5 18.1H50.6L50.7 18.3L50.8 18.5V18.6L50.9 18.7H50.8L50.7 18.8V18.9L50.6 19V19.1L50.7 19.5H51.1H51.2H51.3H51.4L51.5 19.6H51.6L51.7 19.7V19.8V19.9H51.8L51.9 20L52 20.1V20.2H52.1V20.3V20.4H52.2V20.5L52.3 20.6V20.7L52.4 20.8H52.5V20.9V21L52.6 21.1V21.2V21.3V21.4V21.5H52.7H52.8L52.9 21.6H53V21.7H52.9V21.8L53 21.9V22V22.1V22.2V22.3V22.4V22.5V22.6V22.7V22.8H53.1V22.9L53.2 23V23.1L53.3 23.2L53.4 23.3L53.5 23.4V23.5H53.6V23.6V23.7L53.7 23.8V23.9V24V24.1V24.2L53.8 24.3V24.4V24.5H53.9V24.6L54 24.7V24.8V24.9V25H54.1V25.1H54.2V25.2L54.3 25.1H54.4H54.5H54.6H54.8H54.9L55.1 25H55.2V24.9H55.3H55.4L55.5 25L55.6 25.1H55.7H55.8V25.2H55.9H56L56.1 25.3H56.2V25.2H56.3H56.4H56.5V25.1H56.6V25H56.7H56.8H56.9V25.1H57H57.1H57.2H57.3L57.4 25H57.5H57.6V24.9V24.8H57.7V24.7H57.8H57.9H58L58.1 24.6V24.5V24.4V24.3V24.1L58.2 24H58.3H58.4L58.5 24.1H58.6L58.7 24.2V24.3H58.8V24.4L58.9 24.6V24.7H59H59.1H59.2L59.3 24.8V24.9L59.5 25V25.1H59.6H59.7L59.8 25.2L59.9 25.3V25.4H60V25.5V25.6V25.7H60.1H60.2H60.3H60.4L60.5 25.6H60.6H60.7H60.8V25.5H60.9H61L61.1 25.4H61.2V25.3H61.3V25.2H61.4V25.1H61.5L61.6 25H61.7L61.8 24.9H61.9V24.8V24.7V24.6H62V24.5H62.1V24.4V24.3V24.2H62.2V24.3L62.3 24.4L62.4 24.5V24.6H62.5L62.6 24.7V24.8L62.7 24.9V25H62.8V25.1V25.2H62.9V25.4V25.5V25.6V25.7H63V25.8L62.9 25.9V26V26.1L63 26.2V26.3V26.4H63.1V26.5H63.2V26.6H63.3H63.4H63.5L63.6 26.7H63.7V26.8H63.8V26.9V27H63.9V27.1V27.2H64H64.1H64.2H64.3H64.4L64.5 27.1H64.6V27H64.7V27.1H64.8V27.2H64.9V27.3H65H65.1V27.4H65.2L65.3 27.5H65.4H65.5V27.6H65.6V27.7H65.7H65.8H65.9V27.8H66H66.1H66.2H66.3H66.4H66.5H66.6H66.7H66.8H66.9H67V27.9H67.1H67.2H67.3H67.4H67.5L67.6 28V28.1V28.2V28.3H67.7L67.8 28.4V28.3H67.9V28.2H68L68.1 28.1H68.2H68.3H68.4H68.5H68.6L68.7 28H68.8L68.9 27.9L69 27.8V27.7H69.1H69.2V27.6H69.3V27.5V27.4H69.4L69.5 27.3H69.6V27.2H69.7V27.1H69.8H69.9V27.2H70V27.3L70.1 27.4H70.2V27.5H70.3H70.4V27.6H70.5V27.7H70.6H70.7V27.8H70.8H70.9H71L71.1 27.9H71.2V28H71.3V27.9H71.4H71.5V27.8H71.6L71.7 27.9H71.8H71.9H72H72.1L72.2 27.8L72.3 27.9H72.4H72.5H72.6H72.7H72.8H72.9L73 28H73.1V28.1H73.2L73.3 28.2H73.4V28.3H73.5V28.4H73.6V28.3H73.7L73.8 28.4H73.9V28.5V28.6V28.7V28.8L74 28.9L74.1 29V29.1V29.2V29.3H74.2V29.4H74.3H74.4V29.3H74.5H74.6H74.7L74.8 29.4H74.9V29.5H75V29.4V29.3H75.1H75.2H75.3H75.4H75.5H75.6L75.7 29.4H75.8L75.9 29.5V29.6H76V29.7H76.1V29.8H76.2V29.9V30L76.1 30.1V30.2V30.3H76.2V30.4V30.5H76.3V30.6H76.2V30.7V30.8L76.1 30.9V31H76.2H76.3V31.1H76.4H76.5V31.2H76.6V31.3H76.7H76.8V31.4H76.9V31.5H77V31.6V31.7H77.1V31.8H77.2H77.3L77.4 31.9V32V32.1V32.2H77.5V32.3H77.6H77.7H77.8H77.9V32.4H78V32.5L78.1 32.6V32.7V32.8L78.2 32.9V33H78.3V33.1H78.4V33.2V33.3V33.4H78.5V33.5V33.6H78.6V33.7V33.8H78.7V33.9H78.9L79 34H79.1L79.2 34.1H79.3V34.2H79.4V34.3H79.5V34.4H79.6L79.7 34.5H79.8H79.9H80H80.1H80.2H80.3H80.4H80.5H80.6H80.7H80.8H80.9H81V34.4H81.1V34.3H81.2V34.2H81.3V34.1H81.4V34V33.9H81.5V33.8H81.6V33.9H81.7H81.8H81.9H82V34H82.1H82.2H82.3H82.4L82.5 33.9H82.6L82.7 34L82.8 34.1V34.2H82.9V34.3H83V34.2H83.1L83.2 34.1H83.3H83.4V34.2H83.5V34.3H83.6H83.7H83.8V34.4H83.9V34.5H84V34.6L84.1 34.7V34.8L84.2 34.9V35V35.1H84.1H84L84.1 35.2V35.3V35.4V35.5V35.6V35.7V35.8H84.2L84.1 35.9V36H84V36.1V36.2V36.3H83.9H83.8L83.7 36.4V36.5V36.6V36.7V36.8V36.9V37V37.1H83.8V37.2H83.9V37.3H84H84.1H84.2V37.4H84.1V37.5V37.6L84 37.7H83.9V37.8V37.9V38L84 38.1L84.1 38.2V38.3H84.2H84.3V38.4H84.4V38.5H84.5V38.6V38.7V38.8V38.9H84.6L84.7 38.8H84.8V38.9H84.9H85.1H85.2L85.3 39H85.4H85.5H85.8L85.9 38.9H86L86.1 39V39.1V39.2H86V39.3H86.1V39.4V39.5V39.6L86 39.7V39.8V39.9H86.1V40H86.2H86.3V40.1H86.4V40.2H86.5L86.8 40.6L87.1 40.9L87.2 41H87.3H87.4H87.5V40.9H87.6H87.7V40.8L87.8 40.7H87.9L88 40.8H88.1H88.2H88.3V40.9H88.4V41H88.5V40.9H88.6H88.7V40.8H88.8V40.9H88.9H89V40.8H89.1L89.2 40.7V40.6H89.3H89.4V40.5H89.5L89.6 40.4L89.7 40.3H89.8V40.4L89.9 40.5L90 40.6V40.7V40.8H90.1L90.2 40.9H90.3H90.4H90.5L90.6 41H90.7H90.8V41.1V41.3V41.4H90.7V41.5H90.6L90.5 41.6H90.4V41.7L90.3 41.8V41.9V42V42.1V42.2V42.3H90.2H90.1V42.4V42.5V42.6H90.2L90.3 42.7L90.4 42.8V42.9L90.3 43V43.1H90.4V43.2L90.5 43.3L90.4 43.4V43.5V43.6H90.5V43.7H90.6V43.8V43.9V44V44.1L90.5 44.2H90.4V44.3H90.3V44.4H90.2V44.5V44.6L90.3 44.7V44.8V44.9V45V45.1V45.2V45.3V45.4L90.4 45.5L90.3 45.6L90.2 45.7V45.8H90.1V45.9V46H90V46.1H89.9L89.8 46.2V46.3V46.4V46.5V46.6L89.9 46.7V46.8V46.9L90 47V47.1L90.1 47.2L90.2 47.3H90.3L90.4 47.4V47.5H90.5V47.6H90.6V47.7H90.7H90.8H91H91.1V47.8H91.2H91.3L91.4 47.9H91.5H91.6L91.7 47.8V47.9H91.8V48H91.9L92 48.1H92.1H92.2H92.3H92.4V48.2H92.5H92.6H92.7L92.8 48.1H92.9V48L93 47.9H93.1V47.8H93.2H93.3L93.4 47.7V47.6H93.5L93.4 47.5V47.4V47.3H93.3V47.2H93.2V47.1V47H93.1V46.9V46.8V46.7H93.2V46.6H93.3H93.4V46.5H93.5V46.4V46.3H93.6V46.2L93.7 46V45.9H93.8V45.8H93.9V45.7V45.6V45.5V45.4V45.3H94V45.2H94.1V45.1V45V44.9H94.2V44.8H94.3V44.7H94.4V44.6H94.5L94.6 44.5L94.7 44.6V44.7H94.8V44.8H94.9V44.7H95H95.1L95.2 44.6H95.3V44.7L95.4 44.6H95.5L95.6 44.7H95.7V44.8H95.8V44.9H95.9H96V45H96.1V44.9H96.2V44.8H96.3V44.7H96.4V44.6H96.5V44.5V44.4H96.6V44.3H96.7V44.2V44.1H96.8H96.9H97L97.1 44H97.2H97.3V43.9H97.4H97.5H97.6V43.8L97.7 43.7H97.8H97.9H98V43.8L98.1 43.9L98.2 44H98.3H98.4V43.9V43.8L98.5 43.7H98.6H98.7V43.6H98.8V43.5H98.9V43.4V43.3V43.2V43.1V43V42.9L99 43H99.1L99.2 43.1H99.3H99.4H99.5H99.6V43V42.9H99.7L99.8 42.8V42.7L99.9 42.6L100 42.5L100.1 42.4H100.2H100.3H100.4H100.5H100.6H100.7L100.8 42.5L100.9 42.7H101L101.1 42.8V42.9V43H101.2L101.1 43.1V43.2V43.3V43.4H101V43.5V43.6H100.9V43.7V43.8H100.8V43.9H100.7V44H100.6V44.1V44.2V44.3V44.4V44.5V44.6H100.5V44.7H100.4V44.8V44.9H100.3V45H100.2V45.1V45.2V45.3H100.3L100.5 45.5L100.7 45.6H100.8V45.7V45.8H100.9V45.9H101V46L101.1 46.1H101.2L101.3 46.2V46.3H101.4V46.4H101.5V46.5L101.3 46.7L101.2 46.9L101 47V47.1V47.2H100.9H100.8V47.3V47.4L100.7 47.6V47.7V47.9L100.8 48L100.9 48.2L100.8 48.4V48.5H100.7V48.6H100.8L100.9 48.7V48.8V48.9V49H100.8L100.9 49.1V49.2H101V49.3V49.4V49.5L101.1 49.6V49.7H101.2V49.8H101.3H101.4H101.5V49.9H101.6L101.7 50V50.1V50.2L101.6 50.3V50.4L101.7 50.7L101.8 51V51.1V51.2H101.7V51.3V51.4V51.5H101.6V51.7V51.8L101.5 51.9V52H101.6V52.1H101.7L101.8 52.2L101.9 52.3L102 52.4L102.1 52.5V52.6V52.7V52.8H102V52.9V53V53.1L101.9 53.2V53.3V53.4V53.5H102V53.6H102.1V53.7H102.2H102.3L102.5 53.8H102.6V53.9H102.7H102.8V54V54.1V54.2V54.3L102.9 54.4H103V54.5H103.1H103.2H103.3H103.4H103.5V54.6V54.7V54.8L103.4 55V55.1V55.2L103.5 55.3H103.6L103.7 55.4L103.8 55.3H103.9V55.2H104H104.1H104.2L104.3 55.3H104.4L104.5 55.4H104.6H104.7H104.8V55.3H104.9H105H105.1L105.2 55.5L105.4 55.7L105.6 55.8L105.9 56L106 55.9H106.2L106.3 55.8H106.4H106.5H106.6H106.9V55.9H107L107.1 56.1V56.2L107.2 56.3L107.4 56.4H107.5L107.6 56.3V56.2L107.7 56.1H107.8L107.9 55.9L108 55.8V55.7H107.9V55.6V55.5H108V55.4H108.1V55.3H108.2L108.3 55.2L108.2 55V54.9L108.3 54.8L108.4 54.7L108.6 54.6H108.7V54.5V54.4V54.3L108.8 54.2H108.9L109 54.1V54H108.9V53.9V53.8V53.7H108.8V53.6H108.7V53.5V53.4H108.6V53.3V53.2H108.7V53.1L108.8 53V52.9V52.8V52.7L108.7 52.6V52.5H108.8L109 52.6H109.1L109.2 52.7L109.3 52.8H109.4H109.5H109.6H109.7L109.8 52.9H109.9V53H110H110.1L110.2 53.1H110.3H110.4V53.2V53.3H110.5V53.4H110.6H110.7V53.5H110.8H110.9H111L111.1 53.4L111.2 53.5H111.3V53.6H111.4V53.7H111.5H111.6H111.7H111.8V53.8V53.9V54H111.9H112H112.1V54.1H112.2V54.2H112.3V54.3L112.4 54.4V54.5H112.5V54.6V54.7L112.4 54.8H112.3V54.9V55L112.2 55.1V55.2V55.3V55.4V55.5V55.6V55.7H112.3V55.8V55.9L112.4 56V56.1V56.2H112.5V56.3H112.6V56.4H112.7L112.8 56.5H112.9H113H113.1V56.4H113.2L113.3 56.5L113.4 56.6H113.5V56.7H113.6L113.7 56.8H113.8H113.9V56.9V57H114H114.1V57.1V57.2H114.2V57.3V57.4V57.5L114.3 57.6H114.4H114.5H114.6L114.7 57.5H114.8V57.6L114.9 57.7H115L115.1 57.8H115.2H115.3H115.4H115.5V57.9L115.4 58V58.1V58.2L115.5 58.3L115.6 58.4H115.7L115.8 58.5V58.6H115.9V58.7V58.8H116V58.9H116.1L116 59L116.1 59.1L116.2 59.2H116.3H116.4V59.1L116.5 59.2V59.3H116.6V59.4V59.5V59.6V59.7H116.7L116.8 59.8V59.9H116.9V60V60.1H117H117.1V60.2H117.2V60.3H117.3H117.4H117.5V60.4H117.6V60.5V60.6V60.7V60.8H117.7H117.8V60.9H117.9H118H118.1V61V61.1H118.2V61.2H118.3V61.3H118.4V61.4V61.5H118.5H118.6L118.7 61.4L118.8 61.5V61.6H118.9V61.7H119H119.1V61.8V61.9V62V62.1V62.2L119.2 62.3H119.1V62.4L119 62.5V62.6V62.7V62.8H119.1V62.9V63V63.1V63.2H119V63.3V63.4V63.5V63.6V63.7V63.8L118.9 63.9L118.8 64.1V64.2V64.3L118.9 64.4V64.5H119H119.1H119.2H119.3L119.4 64.6H119.5H119.6H119.7L119.8 64.7L119.9 64.8H120L120.1 64.9H120.3H120.5V65H120.6H120.7L120.8 65.1V65.2L121 65.3L121.2 65.5L121.3 65.6L121.4 65.7H121.5V65.8H121.6V65.9V66L121.7 66.2L121.8 66.4H121.9V66.5V66.6L121.8 66.7H121.7H121.6V66.8H121.5H121.4H121.3H121.2V66.9H121.1V67L121 67.2V67.4V67.5H120.9V67.6V67.7H120.8H120.7V67.8H120.8V67.9H120.9V68V68.1V68.2H120.8V68.3L120.7 68.4L120.6 68.5V68.6H120.5V68.7L120.3 68.8H120.2V68.9L120.3 69.1H120.4V69.2L120.5 69.3L120.6 69.5H120.7L120.5 69.8V69.9H120.4L120 70.2H119.9V70.5L119.8 70.6H119.7V70.7V70.8V70.9L119.8 71V71.1V71.2V71.3H119.9V71.4L120.1 71.5H120.2H120.3V71.6L120.4 71.7L120.5 71.8H120.6V71.9L120.8 72V72.1H120.9V72.2V72.3V72.4H121V72.5V72.6H121.1L121.2 72.7V72.8L121.3 72.9V73V73.1V73.2L121.2 73.3V73.4V73.5V73.6H121.3H121.4H121.5V73.7H121.6L121.7 73.8H121.8H121.9L122 73.9V73.8H122.1V73.9H122.2H122.3V74H122.4V74.1H122.5V74.2V74.3H122.6V74.4V74.5V74.6V74.7H122.5V74.8L122.6 74.9L122.7 75L122.8 74.9H122.9V75H123H123.1L123.2 75.1H123.3V75.2H123.4V75.3L123.5 75.4H123.6V75.5H123.7L123.8 75.6V75.7V75.8H123.9V75.9H124V76H124.1H124.2L124.4 76.1H124.5V76.2L124.6 76.3L124.7 76.5V76.6L124.8 76.7L124.9 76.9V77V77.1L125 77.2H125.1V77.3L125.2 77.4V77.5V77.6H125.3V77.7H125.4V77.8H125.5V77.9H125.6V78H125.7V78.2H125.8V78.3V78.4V78.5V78.6H125.9V78.7V78.8H126V78.9V79V79.1V79.2H126.1V79.3V79.4H126H125.9L125.8 79.5L125.6 79.7L125.5 79.8H125.4V79.9V80L125.3 80.1H125.2V80.2H125.1L125 80.1H124.9H124.8H124.7V80.2H124.6L124.5 80.3L124.4 80.4V80.5H124.3V80.6L124.2 80.7V80.8V80.9H124.1V81L124 81.1H123.9V81.2H123.8V81.3H123.7V81.4H123.6V81.5V81.6H123.5V81.7V81.8H123.4V81.9V82V82.1V82.2H123.3V82.3V82.4V82.5H123.2V82.6V82.7L123.3 82.8V82.9H123.4V83H123.3H123.2V83.1H123.1V83.2V83.3L123 83.4H123.1V83.5V83.6H123V83.7V83.8V83.9V84V84.1V84.2V84.3V84.4L122.9 84.5V84.6H122.8V84.7V84.8V84.9L122.9 85V85.1L122.8 85.2V85.3L122.7 85.4L122.6 85.5L122.5 85.6V85.8L122.3 86H122.2V85.9L121.5 85.8L121.2 85.9V85.8H121.1H121L120.9 85.9L120.8 86L120.7 86.1L120.6 86.2L120.4 86.3V86.4H120.3V86.5H119.8L119.6 86.4L119.4 86.2H119L118.9 86.1L118.7 85.9L118.4 85.8V85.7H118.3H118.2H118L117.9 85.8H117.8L117.7 85.7H117.3H117.2L117 85.6L116.4 85.1V85.2H116.2V85.3H116.1L115.9 85.5L115.4 85.9H115.3H115.1L115 86H114.9L114.8 86.1L114.7 86.2H114.6H114.5H114.4V86.3H114.3L114.2 86.4V86.8V86.9H114.1L114 87.1L113.9 87.3V87.4H113.8L113.7 87.6V87.7L113.6 87.9V88L113.7 88.1V88.2V88.4L113.5 88.5L113.2 88.6L113 88.7L112.9 88.8L112.8 88.9H112.7H112.6V89H112.4L112.3 89.2H112.2H112.1V89.3H111.8L111.7 89.2L111.5 89L111.3 89.1L111.1 88.9H110.1V89L110 89.1H109.9H109.8L109.7 89.3H109.6L109.5 89.5V89.6H109.4H109.3H109.2L108.9 89.7V89.8L108.7 89.9H108.6L108.5 90H108.4L108.3 89.9H108.2H108H107.9H107.8H107.7H107.6L106.9 90.2L106.8 90.3H106.7L106.6 90.4L106.5 90.5H106.4H106.3L106.1 90.6H106L105.9 90.7H105.8L105.7 90.6H105.6H105.5H105.4V90.5V90.4V90.3V90.2L105.3 90.1L105.2 90V89.9H105.1L105 89.8V89.7H104.9H104.8L104.7 89.6H104.6L104.5 89.5V89.4L104.4 89.3L104.3 89.2H104.2H104.1V89.3H104H103.9H103.8H103.7H103.6H103.5V89.2H103.4H103.3V89.1H103.2H103.1H103L102.9 89V88.9H102.8H102.7V89V89.1V89.2H102.6V89.3H102.5H102.4V89.2H102.3V89.1H102.2H102.1L102 89.2H101.9V89.3H101.8V89.4L101.7 89.5H101.6H101.5H101.4H101.3V89.4H101.2L101.1 89.3L101 89.2H100.9V89.3L100.8 89.2H100.7L100.6 89.3H100.5H100.3H100.2H100.1L100 89.2L99.9 89.1V89L99.8 88.9V88.8L99.7 88.7V88.6L99.6 88.5L99.5 88.4V88.3V88.2L99.4 88.1V88V87.9V87.8L99.3 87.6H99.2H99.1L99 87.5L98.2 87.1L96.4 86.6L96.3 86.7H96.2H96.1H96V86.6L95.9 86.5L95.7 86.4L94.9 85.8H94.2H94.1H94H93.9L93.8 85.9H93.7H93.6V86H93.5H93.4V85.9V85.8V85.7V85.6V85.5L93.3 85.4L93.2 85.3H93.1L93 85.4H92.9V85.5H92.8V85.6V85.7H92.7H92.6H92.5H92.4V85.6V85.5H92.3H92.2V85.6H92.1H92L91.9 85.7L91.8 85.8V85.9V86V86.1V86.3L91.7 86.4V86.5L91.6 86.6L91.5 86.7V86.8H91.4V86.9H91.3H91.2V86.8H91.1H91H90.9H90.8L90.7 86.9L90.6 87H90.5H90.4H90.3H90.2L88.2 87.8H87.9V87.9H87.8V88H87.7H87.6H87.5L87.4 87.9H87.3V87.8H87.2H87.1H87L86.9 87.6V87.5H86.8L86.7 87.4L86.6 87.3H86.5V87.2V87.1V86.9H86.6V86.8H86.5V86.7L86.3 86.6V86.5L86.2 86.4L86.3 86.3L86.2 86.2H86.1H86V86.1V86V85.9V85.8V85.7V85.6V85.5V85.4V85.3H85.9V85.2H85.8L85.7 85.1L85.6 85L85.5 84.9H85.4L85.3 84.8V84.7H85.2V84.6H85.3L85.4 84.5V84.4V84.3L85.3 84.2H85.2H85.1H85L84.9 84.1H84.8H84.7L84.5 84H84.4H84.3H84.2H84.1H84H83.9L83.8 83.9H83.7V83.8L83.6 83.7H83.5V83.6H83.4V83.5H83.3L83.2 83.4V83.3H83.1H83L82.9 83.2H82.8L82.6 83.3L82.5 83.4H82.4H82.3H82.2H82.1V83.3V83.2H82V83.1L81.9 83.2H81.8H81.7H81.6H81.5H81.4L81.3 83.3H81.2H81.1H81H80.9L80.8 83.4H80.7V83.3H80.6H80.5H80.4V83.4H80.3V83.5V83.6V83.7H80.2V83.8H80.1L80 83.7V83.6V83.5V83.4H79.9V83.3H79.8L79.7 83.4H79.5L79.4 83.5L79.3 83.6H79.2H79.1H79V83.7H78.9L78.8 83.8H78.7V83.9H78.4H78.1H78L77.9 84V84.1H77.8H77.7H77.6H77.5V84L77.4 83.9H77.3L77.2 83.8L77 83.7H76.9H76.8L76.7 83.6H76.6V83.5H76.5V83.4V83.3V83.2V83.1L76.4 83L76.3 82.9L76.2 82.8L76.1 82.7H76H75.9L75.8 82.6L75.7 82.7H75.6H75.5H75.4V82.6H75.3V82.5H75.2V82.4V82.3H75.1H75H74.8H74.7L74.6 82.4H74.5H74.4H74.3L74.1 82.3H74H73.9H73.8L73.7 82.4V82.5L73.6 82.6H73.5H73.4L73.2 82.5H73.1L73 82.6H72.9H72.8V82.7H72.7H72.6L72.5 82.6L72.3 82.5L72.2 82.4L72 82.3H71.9L71.8 82.2H71.7H71.6H71.5H71.4H71.3L71.2 82.1L71.1 81.9L71 81.7V81.6L70.9 81.5H70.8V81.4H70.7V81.5H70.6V81.6V81.7V81.8L70.5 81.9V82V82.1V82.4V82.5L70.4 82.6L70.3 82.9V83.1V83.3H70.2V83.4H70.1L70 83.5V83.6V83.7H69.9V83.8V83.9H69.8V84V84.1H69.7V84.2H69.6V84.3H69.5V84.4L69.4 84.5V84.6V84.7V84.8H69.3V84.9H69.4V85V85.1L69.3 85.2V85.3H69.2H69.1H69H68.9H68.8L68.7 85.2L68.6 85.1H68.5V85H68.4H68.3L68.2 84.9H68.1L67.9 84.8V84.9H67.8H67.7L67.6 84.8L67.3 84.9H67.2V84.8H67.1H67V84.7H66.9H66.8H66.7V84.6H66.6V84.5L66.5 84.4V84.3H66.4H66.3L66.2 84.2H66.1H66V84.1V84L65.9 83.8V83.7V83.6H65.8V83.7H65.7H65.6L65.5 83.8V83.7L65.4 83.8V83.7H65.3V83.8H65.2H65.1V83.9H65V83.8H64.9L64.8 83.7H64.7H64.6V83.6H64.5V83.5H64.4V83.4H64.3L64.2 83.3L64.3 83.2V83.1V83L64.2 82.9L64.1 82.8H64H63.9H63.8V82.7L63.7 82.6H63.6H63.5H63.4H63.3H63.2L63.1 82.7H63V82.6V82.5V82.4V82.3H62.9V82.2H62.8H62.7V82.1H62.6H62.5L62.4 82H62.3V81.9V81.8H62.2H62.1H62L61.9 81.7V81.6H61.8V81.5V81.4H61.7H61.6V81.3L61.5 81.4H61.4V81.5H61.3H61.2H61.1H61V81.4L60.9 81.3H60.8H60.7V81.2L60.6 81.1V80.9L60.7 80.8H60.6V80.7L60.7 80.6V80.5L60.8 80.4L60.9 80.3H61.1V80.2H61L60.9 80.1L60.8 80H60.7V80.1H60.6L60.5 80.2H60.4V80.1L60.3 80V79.9H60.2V79.8H60.1L60 79.7V79.6H59.9V79.5H59.8H59.7V79.6H59.6H59.5L59.4 79.7H59.3H59.2V79.6H59.1L58.9 79.5H58.8H58.7V79.4H58.6H58.5V79.3V79.2V79.1H58.4H58.3V79L58.2 78.9V78.8H58.1V78.7V78.6H58H57.9L58 78.4H57.9L58 78.3H58.1V78.2H58.2V78.1H58.3V78L58.2 77.9H58.3V77.8V77.7H58.4V77.6H58.6V77.5H58.7V77.4V77.3H58.6L58.5 77.2L58.4 77H58.3V76.9H58.2V76.8V76.7H58.1H58L57.8 76.6L57.7 76.5H57.6L57.5 76.3L57.6 76H57.5V75.9V75.7V75.5V75.3H57.4H57.3H57.2H57.1H57H56.9H56.7V75.4L56.6 75.5V75.6L56.5 75.8L56.4 75.9H56.3V75.8H56.2H56.1H56V75.9L55.9 76L55.8 75.9H55.6H55.5H55.4H55.3V75.8H55.1H55H54.9H54.8V75.7H54.7H54.6H54.5H54.4H54.3V75.6H54.2H54.1H54H53.9V75.5H53.8H53.7H53.5V75.4L53.4 75.2L53.3 75.1H53.4V75H53.5L53.4 74.7H53.5L53.4 74.5L53.2 74.4V74.2L53.1 74L52.9 73.9L52.8 73.8L52.7 74L52.5 73.9V73.8H52.4L52.3 74.2H51.9V74.4L51.7 74.3L51.6 74.4V74.5L51.5 74.9L51.4 75.4L51.2 75.5L51.1 75.6L51 75.8H50.9V75.6L50.6 75.7H50.5L50.4 75.9L50.2 76L50 76.1V76.2H49.9L50 76.3H49.9H49.8L49.7 76.4L50 76.6L50.2 76.7V76.9L50.1 77H50.2L50.1 77.2L49.9 77.1L49.8 77.5L49.7 77.6V77.7L49.6 77.6V77.7H49.5V77.8H49.4L49.3 77.9V78H49.4V78.1H49.5L49.6 78.2H49.7L49.5 78.4V78.6H49.6V78.7L49.7 78.8H49.6L49.5 79L49.3 79.3L49.1 79.4L48.9 79.6H49L49.1 79.8H49.2L49.3 79.9H49.4L49.5 80V80.2L49.4 80.5L49.3 80.6L49.2 80.7L49.1 80.9L49 81V81.1H48.9L48.8 81.2H48.7V81.3L48.5 81.4V81.6L48.9 81.7L48.8 81.8L48.7 82V82.1H48.6V82.2V82.3V82.4H48.5V82.5H48.4H48.3H48.2L47.9 82.3L47.8 82.2L47.5 82.3H47.3L46.9 82.6L46.8 82.7H46.4L45.9 82.8L45.6 82.9H45.5V83L45.4 83.1V83.2H45.3V83.3L45.2 83.5H45.1H45H44.9V83.6H44.8V83.5H44.7V83.6L44.5 83.4L44.4 83.3L44.3 83.2H44.2H44.1H43.9H43.8V83.1V82.9V82.8L43.6 82.5V82.6V82.7L43.3 82.6V82.5H43.2L42.8 82.4V82.3L42.9 82.2V82.1H42.6L42.3 82H42.2H42.1V82.1V82.2V82.3H42L41.6 82L41.5 81.9V82L41.4 81.9H41.3L41.2 81.8V81.7L40.7 81.5H40.5H40.3V81.6H40.2L40.1 81.8H40V82L40.1 82.1L40 82.2V82.3V82.4V82.5L40.1 82.6V82.7H40.2V82.8H40.3V82.9H40.4H40.5H40.6H40.7V83L40.8 83.1V83.2L40.9 83.3V83.4V83.5V83.6L41 83.7V83.8V83.9V84L40.9 84.1H41V84.2V84.3V84.4V84.5H41.1V84.6V84.7V84.8V84.9V85V85.1V85.2H41.2V85.3H41.3V85.4H41.2L41.1 85.5V85.6H41H40.9H40.8V85.7H40.7V85.8L40.6 85.9H40.5L40.4 86H40.3H40.2V85.9H40.1V86H40H39.9V86.1V86.2H39.8V86.1V86V85.9L39.7 86V86.1H39.6V86V85.9H39.5V86V86.1H39.4V86V85.9H39.3L39.2 86V86.1V86.2H39.1V86.1H39V86.2V86.3H38.9H38.8V86.4H38.7V86.3V86.2H38.8V86.1H38.7V86.2H38.6H38.5V86.1V86L38.6 85.9V85.8H38.5V85.7H38.6V85.6V85.5V85.4H38.5H38.4L38.3 85.5L38.2 85.4L38.1 85.5V85.6H38H37.9V85.5V85.4H37.8V85.3H37.7V85.4L37.6 85.5V85.4V85.3H37.5V85.2H37.6V85.1H37.5V85V84.9H37.6V84.8H37.5V84.7H37.4V84.6H37.3H37.2V84.7H37.3V84.8V84.9L37.2 84.8H37.1V84.9H37V84.8V84.7L37.1 84.6V84.5H37V84.6L36.9 84.7H36.8V84.6H36.9V84.5H36.8H36.7V84.4V84.3L36.6 84.4H36.5V84.3H36.4H36.3V84.2H36.2H36.1V84.3H36H35.9V84.2L36 84.1H36.1V84H36V83.9V83.8H35.9V83.7H35.8H35.7V83.6H35.8V83.5L35.9 83.4V83.3H36V83.2L36.1 83.1V83H36.2L36.3 83.1L36.4 83H36.3V82.9V82.8V82.7H36.4H36.5V82.6L36.8 82.3V82.2H36.9L37.2 82V81.8V81.6V81.4V81.3V81.2H37.3H37.4V81.1H37.5H37.6V81V80.9V80.8H37.7L37.8 80.3L38 80.1V79.8V79.5V79.2V78.9V78.8H37.9H37.8H37.7V78.7H37.6H37.5V78.8H37.6V78.9V79H37.5H37.4H37.3V78.9L37.2 78.8V78.7H37.1V78.6H37V78.5H37.1L37.2 78.4H37.1H37V78.3H37.1V78.2H37V78.1V78H36.9V77.9V77.8V77.7V77.6H37V77.5H36.9V77.4H37V77.3H36.9L36.8 77.2V77.1V77H36.7H36.6V76.9H36.5L36.4 76.8V76.7L36.3 76.6H36.2H36.1V76.7H36V76.8V76.9H35.9H35.8H35.7V76.8V76.7V76.6H35.8H35.9V76.5V76.4H35.8H35.7V76.3H35.6V76.2V76.1V76V75.9H35.5H35.4V75.8V75.7H35.3V75.6V75.5V75.4V75.3V75.2L35.4 75.1V75H35.5V74.9V74.8V74.7V74.6L35.4 74.5V74.4V74.3H35.3V74.2H35.2V74.1L35 74H34.9H34.8H34.7L34.6 74.1L34.5 74.2V74.3V74.4V74.5H34.4V74.6V74.7V74.8L34.3 74.9H34.2H34.1V74.8H34V74.7V74.6V74.5V74.4H34.1V74.3V74.2H34.2V74.1V74H34.3V73.9H34.2V73.8L34.1 73.7H34H33.9H33.8V73.8H33.7V73.9V74H33.6V74.1H33.5H33.4L33.3 74L33.1 73.9L33 73.8H32.9V73.7H32.8H32.7H32.6H32.5V73.8H32.4V73.9V74L32.5 74.1H32.6V74.2L32.7 74.3H32.8V74.4V74.5H32.7V74.6H32.6L32.5 74.7H32.4L32.3 74.6H32.2H32.1V74.5H32V74.4H31.9V74.3V74.2V74.1V74L31.8 73.9L31.7 73.8H31.6H31.5H31.4V73.9L31.3 74H31.2H31.1H31L30.9 73.9H30.8H30.7H30.6H30.5V74V74.1L30.4 74.2L30.3 74.3H30.2V74.2H30.1H30H29.9L29.8 74.3L29.7 74.4L29.6 74.5L29.5 74.6H29.4H29.3H29.2H29.1L29 74.7V74.8L28.9 74.9L28.8 75H28.7L28.6 75.1V75.2H28.5L28.2 75.4L28.1 75.5L28 75.6L27.9 75.7V75.8H27.8L27.7 75.9H27.6V76H27.5H27.4H27.2L27.1 75.9H27L26.9 75.8L26.8 75.7H26.7H26.6H26.5H26.4H26.3H26.2H26.1H26H25.9H25.7H25.6H25.5V75.6L25.3 75.5L25.2 75.4L25.1 75.2V75.1H25H24.9H24.8V75V74.9H24.7L24.6 75H24.5V75.1H24.4H24.3H24.2H24.1V75H24H23.9H23.8V74.9V74.8H23.7H23.6L23.5 74.7H23.4V74.8H23.3L23.4 74.4V74.3L23.6 74.2L23.8 74.1L23.7 74L23.6 73.9V73.8H23.5V73.6H23.4V73.5V73.4V73.3V73.2V73.1V73V72.9H23.5V72.8H23.6V72.7V72.6H23.5H23.4V72.5L23.3 72.4H23.2V72.3V72.2L23.3 72.1H23.4V72H23.5H23.6H23.7V71.9L23.4 71.4L23.3 71.5L23.1 71.3V71.2L23 71L22.9 70.8L22.7 71L22.6 70.9H22.5V70.8V70.7V70.6V70.4L22.3 69.9L22.2 69.8L22.1 69.6L22 69.5L22.1 69.4L21.9 69.2V68.9H22.2L22.4 68.5V68.4V68.2L22.3 68.1H22.2L22 68H21.9L21.7 67.9H21.6L21.5 67.7L21.3 67.5L21.2 67.4L21 67.2L20.6 67H20.5L20.4 67.1L20.3 66.9L20.2 66.8V66.7H20.1L20 66.6V66.5H19.9V66.4V66.3L19.8 66.2L19.7 66.1H19.6L19.5 65.9L19.4 65.8V65.7V65.6V65.5L19.5 65.4V65.3H19.6L19.5 65.2V65.1V65L19.6 64.9H19.5L18.9 64.8H18.6L18.7 64.7L18.8 64.6L18.9 64.5V64.4V64.3H18.8V64.2L18.9 64.1L18.7 64L18.6 63.9H18.4L18.3 63.8H18.2V63.7H18.1V63.8H18H17.9V63.9V64H17.8V64.1H17.7V64H17.6V64.1H17.5H17.4V64.2H17.3H17.2V64.3H17.3V64.4H17.2V64.5H17.1H17H16.9H16.8V64.6H16.7H16.6L16.5 64.5H16.4H16.3H16.2H16.1V64.4L16 64.3V64.2H15.9V64.1H15.8V64H15.7H15.6L15.5 63.9L15.4 63.8L15.3 63.9V64V64.2H15.1L15 64.1H14.9H14.7V64V63.9L14.6 64H14.4H14.3H14.1H14L13.9 64.1H13.8H13.7V64.2H13.6V64.3L13.5 64.4V64.5V64.6H13.4V64.7H13.3H13.2V64.8H13.1V64.9H13V65V65.1V65.2H12.9L12.8 65L12.6 64.8L12.5 64.7L12.3 64.5L12.2 64.4V64.3L12.1 64L12 63.8V63.7V63.6V63.5L11.9 63.3L11.8 63L11.7 62.8L11.5 62.6L11.4 62.5L11.3 62.4L11.2 62.3V62.4H11.1V62.3L10.9 62.1L10.7 61.9L10.6 61.8L10.7 61.6V61.5V61.3L10.6 61V60.9V60.8V60.7L10.7 60.6V60.5V60.4L10.6 60.3V60.2V60.1V60V59.9L10.5 59.8V59.7V59.6H10.4V59.5H10.3H10.2V59.4H10.1V59.3H10H9.9V59.2L9.8 59.1H9.7V59H9.6V58.9V58.8V58.7V58.6H9.7V58.5H9.6H9.5V58.4H9.4V58.3H9.3V58.2V58.1H9.4L9.5 57.9L9.6 57.8V57.5L9.7 57.3V57.2L9.6 57.1L9.5 56.9V56.8L9.6 56.7L9.7 56.5V56.4H9.6V56.3V56.2V56.1H9.2L8.7 56.2L8.6 56.1H8.5L8.4 56L8.3 55.9L7.8 55.8L7.2 55.6H7.1H7L6.8 55.2L6.6 54.8L6.5 54.7V54.6V54.5H6.4V54.4V54.3H6.3V54.2V54.1H6.2L6.1 54V53.9H6H5.9V53.8H5.8L5.7 53.7L5.6 53.6V53.5H5.7L5.8 53.4H6H6.1L6.2 53.3H6.3H6.4V53.2H6.5V53.1V53L6.6 52.9L6.7 52.8V52.7L6.8 52.6V52.5V52.4L6.9 52.3V52.2L6.2 51.8H6.1H6L5.9 51.9H5.8H5.7H5.6H5.5L5.4 51.8H5.3L5.2 51.7L5.1 51.6H5V51.5H4.9V51.4L3.7 51.2L2.1 51.9L1.6 52.4H1.5L1.4 52.5L0.900002 52.4H0.799999V52.3H0.700001V52.2V52.1V52V51.9V51.8V51.7L0.599998 51.6L0.5 51.5V51.4V51.3V51.2V51.1V51V50.9V50.8V50.7V50.6L0.599998 50.5V50.4V50.3L0.5 50.2V50.1V49.9L0.599998 49.6V49.1V49L0.700001 48.8V48.7V48.6V48.3V48.2L0.799999 48V47.6L0.900002 47.5V47.2V47L1 46.7L1.1 46.2V45.8L1.2 45.3V45L1.3 44.8V44.5V44.3V44.2V44L1.4 43.9L1.5 43.4V43V42.6V42.5L1.6 42.1V41.9V41.8V41.7V41.6V41.5V41.2V41.1V40.9V40.7V40.6V40.4V40.3V40.2L1.7 40.1V40V39.9V39.7L1.8 39.5V39.4L1.9 39.2L2 39V38.9V38.8L2.1 38.7L2.2 38.3L2.4 38.1V37.9L2.5 37.8L2.7 37.5L2.8 37.3V37.2L3 37.1V37H3.1V36.9V36.8V36.7V36.6H3.2L3.3 36.7H3.4H3.5L3.9 36.4L4.1 36.1V36L4.4 35.8H4.6H4.8H5H5.1H5.2V35.7L5.3 35.6H5.4V35.5L5.7 35.3V35.2L5.8 35.1L5.9 34.8L6 34.7V34.6L6.1 34.5V34.4V34.3V34.2V34.1V33.9L6.2 33.8L6.3 33.7H6.4L6.6 33.5H6.7H6.8V33.4H6.9V33.3V33.2H7H7.1L7.4 33L7.6 32.8L7.8 32.7L8 32.5L8.1 32.3V32.2H8.2V32.1H8.3L8.5 32L8.6 31.9H8.7L8.8 31.7V31.6H8.9L9 31.5H9.1L9.2 31.4H9.3H9.4V31.3H9.5V31.2H9.6L9.7 31.1H9.8H9.9H10H10.1H10.3H10.4V31H10.5H10.6H10.7L10.8 30.7V30.4L10.9 30.2L11 29.9V29.8V29.7V29.6V29.5V29.4V29.3V29.1H11.1V28.9L11.2 28.8L11.3 28.7L11.4 28.4L11.2 28.2L11.3 28.1L11.4 28V27.9H11.5L11.6 27.8H11.7L11.8 27.5V27.2L11.7 27.1V26.8L11.8 26.7L11.7 26.6L11.5 26.5H11.4V26.4H11.3V26.3V26.2H11.2V26.1V26H11.1H11H10.9H10.8V25.9V25.8L10.9 25.6L11 25.4V25.3V25.2V25V24.9V24.8V24.7L11.1 24.6V24.5L11.2 24.4V24.3H11.3V24.2H11.4H11.5H11.6L11.7 24L11.8 23.9V23.8L11.9 23.7L12 23.6H12.1L12.3 23.5H12.4V23.4V23.3V23.2H12.5V23.1L12.6 23L12.5 22.9L12.6 22.8V22.7V22.6L12.7 22.5V22.4H12.8L12.9 22.3L13.1 22.2V22.1V22H13V21.9V21.7V21.6V21.5V21.3V21.2V21.1L12.9 20.8V20.6V20.4V20.2L12.8 20.1H12.7V20V19.9L12.6 19.7L12.5 19.6V19.5V19.4V19.3H12.6L12.7 19.1V19V18.6L12.8 18.4V18.3V18.1V17.9V17.8V17.7V17.6V17.5V17.4H12.9V17.3V17.1V17L13 16.8L13.3 16.7L13.4 16.5V16.4V16.2H13.5L13.9 16H14L14.3 15.9L14.4 15.8L14.6 15.7H14.7H14.8V15.6V15.4V15.2V15V14.9V14.7L14.9 14.4L14.8 14.3V14.2V14.1H14.9V14V13.9V13.8L15 13.7V13.6V13.5V13.4V13.3L15.1 13.2L15.2 13.1H15.3V13V12.8L15.2 12.7L15.1 12.6H15V12.5V12.4V12.2H15.1V12.1V12H15.2L15.3 11.8L15.5 11.4L15.6 11.3L15.7 11.2V11.1L15.8 10.9L15.9 10.8V10.7L16.1 10.5L16.2 10.3L16.4 10L16.5 9.79999L16.6 9.60001L16.8 9.29999L17 8.89999L17.1 8.79999H17.2V8.70001H17.3H17.5V8.60001V8.5V8.39999V8.29999L17.6 8.20001V8.10001V8V7.89999V7.70001V7.5V7.39999H17.7V7.29999H17.9H18.1L18.3 7.20001L18.4 7.10001L18.5 6.89999H18.6L18.8 6.79999H19H19.1L19.2 6.89999H19.3L19.4 7H19.5H19.7H19.8H19.9V6.89999L20 6.79999L20.1 6.70001L20.3 6.60001V6.5H20.4H20.6L20.7 6.39999H20.9L21 6.29999L21.1 6.20001L21 6.10001V5.89999L20.9 5.70001L20.7 5.39999V5.20001V5.10001L21 5L21.2 4.79999L21.3 4.60001L21.4 4.39999L21.3 4V3.79999V3.60001V3.20001V3V2.89999L21.4 2.70001L21.3 2.39999L21.4 2V1.70001V1.39999V1V0.799988V0.600006L21.5 0.700012L21.6 0.600006H21.7L21.9 0.5L22 0.399994H22.1V0.299988L22.8 0.5L24.7 2.60001L26 3.39999L27.1 3.60001L27.5 3.5H28.1H28.3L30 3.60001L31.1 3.29999H31.3H31.6L31.7 3.39999L32.2 3.79999L33.1 5.10001L33.7 5.29999L34.6 5.79999L35.7 6.79999L36.7 7.20001L37 6.60001H37.1L37.3 6.5H37.4Z" fill="#6F9C76"/>
<path d="M74.8 29.4L74.7 29.3H74.6H74.5H74.4V29.4H74.3H74.2V29.3H74.1V29.2V29.1V29L74 28.9L73.9 28.8V28.7V28.6V28.5V28.4H73.8L73.7 28.3H73.6V28.4H73.5V28.3H73.4V28.2H73.3L73.2 28.1H73.1V28H73L72.9 27.9H72.8H72.7H72.6H72.5H72.4H72.3L72.2 27.8L72.1 27.9H72H71.9H71.8H71.7L71.6 27.8H71.5V27.9H71.4H71.3V28H71.2V27.9H71.1L71 27.8H70.9H70.8H70.7V27.7H70.6H70.5V27.6H70.4V27.5H70.3H70.2V27.4H70.1L70 27.3V27.2H69.9V27.1H69.8H69.7V27.2H69.6V27.3H69.5L69.4 27.4H69.3V27.5V27.6H69.2V27.7H69.1H69V27.8L68.9 27.9L68.8 28H68.7L68.6 28.1H68.5H68.4H68.3H68.2H68.1L68 28.2H67.9V28.3H67.8V28.4L67.7 28.3H67.6V28.2V28.1V28L67.5 27.9H67.4H67.3H67.2H67.1H67V27.8H66.9H66.8H66.7H66.6H66.5H66.4H66.3H66.2H66.1H66H65.9V27.7H65.8H65.7H65.6V27.6H65.5V27.5H65.4H65.3L65.2 27.4H65.1V27.3H65H64.9V27.2H64.8V27.1H64.7V27H64.6V27.1H64.5L64.4 27.2H64.3H64.2H64.1H64H63.9V27.1V27H63.8V26.9V26.8H63.7V26.7H63.6L63.5 26.6H63.4H63.3H63.2V26.5H63.1V26.4H63V26.3V26.2L62.9 26.1V26V25.9L63 25.8V25.7H62.9V25.6V25.5V25.4V25.2H62.8V25.1V25H62.7V24.9L62.6 24.8V24.7L62.5 24.6H62.4V24.5L62.3 24.4L62.2 24.3V24.2H62.1V24.3V24.4V24.5H62V24.6H61.9V24.7V24.8V24.9H61.8L61.7 25H61.6L61.5 25.1H61.4V25.2H61.3V25.3H61.2V25.4H61.1L61 25.5H60.9H60.8V25.6H60.7H60.6H60.5L60.4 25.7H60.3H60.2H60.1H60V25.6V25.5V25.4H59.9V25.3L59.8 25.2L59.7 25.1H59.6H59.5V25L59.3 24.9V24.8L59.2 24.7H59.1H59H58.9V24.6L58.8 24.4V24.3H58.7V24.2L58.6 24.1H58.5L58.4 24H58.3H58.2L58.1 24.1V24.3V24.4V24.5V24.6L58 24.7H57.9H57.8H57.7V24.8H57.6V24.9V25H57.5H57.4L57.3 25.1H57.2H57.1H57H56.9V25H56.8H56.7H56.6V25.1H56.5V25.2H56.4H56.3H56.2V25.3H56.1L56 25.2H55.9H55.8V25.1H55.7H55.6L55.5 25L55.4 24.9H55.3H55.2V25H55.1L54.9 25.1H54.8H54.6H54.5H54.4H54.3L54.2 25.2V25.1H54.1V25H54V24.9V24.8V24.7L53.9 24.6V24.5H53.8V24.4V24.3L53.7 24.2V24.1V24V23.9V23.8L53.6 23.7V23.6V23.5H53.5V23.4L53.4 23.3L53.3 23.2L53.2 23.1V23L53.1 22.9V22.8H53V22.7V22.6V22.5V22.4V22.3V22.2V22.1V22V21.9L52.9 21.8V21.7H53V21.6H52.9L52.8 21.5H52.7H52.6V21.4V21.3V21.2V21.1L52.5 21V20.9V20.8H52.4L52.3 20.7V20.6L52.2 20.5V20.4H52.1V20.3V20.2H52V20.1L51.9 20L51.8 19.9H51.7V19.8V19.7L51.6 19.6H51.5L51.4 19.5H51.3H51.2H51.1H50.7L50.6 19.1V19L50.7 18.9V18.8L50.8 18.7H50.9L50.8 18.6V18.5L50.7 18.3L50.6 18.1H50.5L50.4 18.2H50.3H50.2V18.1V18L50.1 17.9H50H49.9H49.8V17.8H49.7V17.7H49.6H49.4H49.3V17.6H49.2L49.1 17.4L49 17.3H48.9H48.8H48.7V17.4H48.6H48.5H48.4V17.5H48.3V17.6V17.7V17.8V17.9H48.2H48.1H48L47.9 18H47.8H47.7V17.9H47.6H47.5L47.4 18H47.3V18.1H47.2V18.2H47.1V18.3H47V18.4L46.9 18.5H46.8V18.4H46.7V18.3H46.6V18.2H46.5H46.4H46.3H46.2H46.1H46V18.3H45.9L45.8 18.4H45.7L45.6 18.5H45.5L45.4 18.6L45.3 18.5H45.2H45.1H45L44.9 18.6L44.8 18.7L44.7 18.8L44.6 18.9V19V19.2L44.5 19.3L44.3 19.5V19.6H44.2L44.1 19.7V19.8H44V19.7H43.9L43.8 19.6L43.7 19.5L43.6 19.4H43.5H43.4L43.3 19.3L43.2 19.2L43.1 19.1H43V19L42.9 18.9V18.8H42.8V18.7H42.7V18.6V18.5H42.6V18.4V18.3V18.2V18.1V18V17.9V17.8V17.7V17.6V17.5H42.5V17.4V17.3V17.2V17.1V17V16.9V16.8V16.7H42.4V16.6H42.5V16.5V16.4H42.4V16.3H42.3L42.2 16.2H42.1V16.1L41.9 16.2V16.1H41.8H41.7L41.6 16H41.5V15.9H41.4L41.3 15.8H41.2H41.1L41 15.7H40.9V15.6H40.8V15.5H40.7H40.6V15.4H40.5H40.4V15.3V15.2H40.3V15.1H40.2L40.1 15H40V14.9H39.9V14.8H39.8H39.7V14.7H39.6V14.6H39.5V14.5H39.4V14.4H39.3H39.2V14.3H39.1L39 14.2H38.9V14.1H38.8V14H38.7V13.9L38.6 13.8V13.7L38.5 13.6V13.5V13.4V13.3V13.2H38.4V13V12.9L38.3 12.8V12.7V12.6L38.2 12.5V12.4H38.1V12.3H38V12.2V12.1H37.9V12H37.8V11.9V11.8V11.7V11.6H37.7V11.5V11.4H37.6V11.3V11.2L37.5 11.1V11V10.9H37.6V10.8V10.7V10.6V10.5V10.4V10.3V10.2V10.1V10H37.7L37.8 9.89999L37.9 9.79999H38H38.1V9.70001H38.2V9.60001H38.3H38.4V9.5H38.5H38.6V9.39999H38.7L38.8 9.29999V9.20001H38.9V9.10001H39L39.1 9.29999H39.2V9.39999H39.3H39.4H39.5H39.6V9.29999H39.7H39.8V9.20001L39.9 9.10001V9V8.89999H39.8V8.79999V8.70001L39.7 8.60001V8.5H39.8V8.39999V8.29999L39.9 8.20001V8.10001H39.8V8L39.7 7.89999V7.79999V7.70001V7.60001H39.6V7.5L39.5 7.39999V7.29999H39.4V7.20001H39.3V7.10001L39.2 7V6.89999H39.1L39 6.70001V6.60001H38.9V6.5V6.39999H38.8H38.7L38.6 6.5H38.5H38.4H38.3V6.60001H38.2L38.1 6.70001H38V6.79999H37.9H37.8V6.70001H37.7H37.6L37.5 6.60001L37.4 6.5H37.3L37.1 6.60001H37L36.7 7.20001L35.7 6.79999L34.6 5.79999L33.7 5.29999L33.1 5.10001L32.2 3.79999L31.7 3.39999L31.6 3.29999H31.3H31.1L30 3.60001L28.3 3.5H28.1H27.5L27.1 3.60001L26 3.39999L24.7 2.60001L22.8 0.5L22.1 0.299988V0.399994H22L21.9 0.5L21.7 0.600006H21.6L21.5 0.700012L21.4 0.600006V0.799988V1V1.39999V1.70001V2L21.3 2.39999L21.4 2.70001L21.3 2.89999V3V3.20001V3.60001V3.79999V4L21.4 4.39999L21.3 4.60001L21.2 4.79999L21 5L20.7 5.10001V5.20001V5.39999L20.9 5.70001L21 5.89999V6.10001L21.1 6.20001L21 6.29999L20.9 6.39999H20.7L20.6 6.5H20.4H20.3V6.60001L20.1 6.70001L20 6.79999L19.9 6.89999V7H19.8H19.7H19.5H19.4L19.3 6.89999H19.2L19.1 6.79999H19H18.8L18.6 6.89999H18.5L18.4 7.10001L18.3 7.20001L18.1 7.29999H17.9H17.7V7.39999H17.6V7.5V7.70001V7.89999V8V8.10001V8.20001L17.5 8.29999V8.39999V8.5V8.60001V8.70001H17.3H17.2V8.79999H17.1L17 8.89999L16.8 9.29999L16.6 9.60001L16.5 9.79999L16.4 10L16.2 10.3L16.1 10.5L15.9 10.7V10.8L15.8 10.9L15.7 11.1V11.2L15.6 11.3L15.5 11.4L15.3 11.8L15.2 12H15.1V12.1V12.2H15V12.4V12.5V12.6H15.1L15.2 12.7L15.3 12.8V13V13.1H15.2L15.1 13.2L15 13.3V13.4V13.5V13.6V13.7L14.9 13.8V13.9V14V14.1H14.8V14.2V14.3L14.9 14.4L14.8 14.7V14.9V15V15.2V15.4V15.6V15.7H14.7H14.6L14.4 15.8L14.3 15.9L14 16H13.9L13.5 16.2H13.4V16.4V16.5L13.3 16.7L13 16.8L12.9 17V17.1V17.3V17.4H12.8V17.5V17.6V17.7V17.8V17.9V18.1V18.3V18.4L12.7 18.6V19V19.1L12.6 19.3H12.5V19.4V19.5V19.6L12.6 19.7L12.7 19.9V20V20.1H12.8L12.9 20.2V20.4V20.6V20.8L13 21.1V21.2V21.3V21.5V21.6V21.7V21.9V22H13.1V22.1V22.2L12.9 22.3L12.8 22.4H12.7V22.5L12.6 22.6V22.7V22.8L12.5 22.9L12.6 23L12.5 23.1V23.2H12.4V23.3V23.4V23.5H12.3L12.1 23.6H12L11.9 23.7L11.8 23.8V23.9L11.7 24L11.6 24.2H11.5H11.4H11.3V24.3H11.2V24.4L11.1 24.5V24.6L11 24.7V24.8V24.9V25V25.2V25.3V25.4L10.9 25.6L10.8 25.8V25.9V26H10.9H11H11.1H11.2V26.1V26.2H11.3V26.3V26.4H11.4V26.5H11.5L11.7 26.6L11.8 26.7L11.7 26.8V27.1L11.8 27.2V27.5L11.7 27.8H11.6L11.5 27.9H11.4V28L11.3 28.1L11.2 28.2L11.4 28.4L11.3 28.7L11.2 28.8L11.1 28.9V29.1H11V29.3V29.4V29.5V29.6V29.7V29.8V29.9L10.9 30.2L10.8 30.4V30.7L10.7 31H10.6H10.5H10.4V31.1H10.3H10.1H10H9.9H9.8H9.7L9.6 31.2H9.5V31.3H9.4V31.4H9.3H9.2L9.1 31.5H9L8.9 31.6H8.8V31.7L8.7 31.9H8.6L8.5 32L8.3 32.1H8.2V32.2H8.1V32.3L8 32.5L7.8 32.7L7.6 32.8L7.4 33L7.1 33.2H7H6.9V33.3V33.4H6.8V33.5H6.7H6.6L6.4 33.7H6.3L6.2 33.8L6.1 33.9V34.1V34.2V34.3V34.4V34.5L6 34.6V34.7L5.9 34.8L5.8 35.1L5.7 35.2V35.3L5.4 35.5V35.6H5.3L5.2 35.7V35.8H5.1H5H4.8H4.6H4.4L4.1 36V36.1L3.9 36.4L3.5 36.7H3.4H3.3L3.2 36.6H3.1V36.7M74.8 29.4V29.5M74.8 29.4H74.9V29.5H75V29.4V29.3H75.1H75.2H75.3H75.4H75.5H75.6L75.7 29.4H75.8L75.9 29.5V29.6H76V29.7H76.1V29.8H76.2V29.9V30L76.1 30.1V30.2V30.3H76.2V30.4V30.5H76.3V30.6H76.2V30.7V30.8L76.1 30.9V31H76.2H76.3V31.1H76.4H76.5V31.2H76.6V31.3H76.7H76.8V31.4H76.9V31.5H77V31.6V31.7H77.1V31.8H77.2H77.3L77.4 31.9V32V32.1V32.2H77.5V32.3H77.6H77.7H77.8H77.9V32.4H78V32.5L78.1 32.6V32.7V32.8L78.2 32.9V33H78.3V33.1H78.4V33.2V33.3V33.4H78.5V33.5V33.6H78.6V33.7V33.8H78.7V33.9H78.9L79 34H79.1L79.2 34.1H79.3V34.2H79.4V34.3H79.5V34.4H79.6L79.7 34.5H79.8H79.9H80H80.1H80.2H80.3M80.3 34.5V34.4M80.3 34.5H80.4H80.5H80.6H80.7H80.8H80.9H81V34.4H81.1V34.3H81.2V34.2H81.3V34.1H81.4V34V33.9H81.5V33.8H81.6V33.9H81.7H81.8H81.9H82V34H82.1H82.2H82.3H82.4L82.5 33.9H82.6L82.7 34L82.8 34.1V34.2H82.9V34.3H83V34.2H83.1L83.2 34.1H83.3H83.4V34.2H83.5V34.3H83.6H83.7H83.8V34.4H83.9V34.5H84V34.6L84.1 34.7V34.8L84.2 34.9V35V35.1H84.1H84L84.1 35.2V35.3V35.4V35.5V35.6V35.7V35.8H84.2L84.1 35.9V36H84V36.1V36.2V36.3H83.9H83.8L83.7 36.4V36.5V36.6V36.7V36.8V36.9V37V37.1H83.8V37.2H83.9V37.3H84H84.1H84.2V37.4H84.1V37.5V37.6L84 37.7H83.9V37.8V37.9V38L84 38.1L84.1 38.2V38.3H84.2H84.3V38.4H84.4V38.5H84.5V38.6V38.7V38.8V38.9H84.6L84.7 38.8H84.8V38.9H84.9H85.1H85.2L85.3 39H85.4H85.5H85.8L85.9 38.9H86L86.1 39V39.1V39.2H86V39.3H86.1V39.4V39.5V39.6L86 39.7V39.8V39.9H86.1V40H86.2H86.3V40.1H86.4V40.2H86.5L86.8 40.6L87.1 40.9L87.2 41H87.3H87.4H87.5V40.9H87.6H87.7V40.8L87.8 40.7H87.9L88 40.8H88.1H88.2H88.3V40.9H88.4V41H88.5V40.9H88.6H88.7V40.8H88.8V40.9H88.9H89V40.8H89.1L89.2 40.7V40.6H89.3H89.4V40.5H89.5L89.6 40.4L89.7 40.3M89.7 40.3V40.2M89.7 40.3H89.8V40.4L89.9 40.5L90 40.6V40.7V40.8H90.1L90.2 40.9H90.3H90.4H90.5L90.6 41H90.7H90.8V41.1V41.3V41.4H90.7V41.5H90.6L90.5 41.6H90.4V41.7L90.3 41.8V41.9V42V42.1V42.2V42.3H90.2H90.1V42.4V42.5V42.6H90.2L90.3 42.7L90.4 42.8V42.9L90.3 43V43.1H90.4V43.2L90.5 43.3L90.4 43.4V43.5V43.6H90.5V43.7H90.6V43.8V43.9V44V44.1L90.5 44.2H90.4V44.3H90.3V44.4H90.2V44.5V44.6L90.3 44.7V44.8V44.9V45V45.1V45.2V45.3V45.4L90.4 45.5L90.3 45.6L90.2 45.7V45.8H90.1V45.9V46H90V46.1H89.9L89.8 46.2V46.3V46.4V46.5V46.6L89.9 46.7V46.8V46.9L90 47V47.1L90.1 47.2L90.2 47.3H90.3L90.4 47.4V47.5H90.5V47.6H90.6V47.7H90.7H90.8H91H91.1V47.8H91.2H91.3L91.4 47.9H91.5H91.6L91.7 47.8V47.9H91.8V48H91.9L92 48.1H92.1H92.2H92.3H92.4V48.2H92.5H92.6H92.7L92.8 48.1H92.9V48L93 47.9H93.1V47.8H93.2H93.3L93.4 47.7V47.6H93.5L93.4 47.5V47.4V47.3H93.3V47.2H93.2V47.1V47H93.1V46.9V46.8V46.7H93.2V46.6H93.3H93.4V46.5H93.5V46.4V46.3H93.6V46.2L93.7 46V45.9H93.8V45.8H93.9V45.7V45.6V45.5V45.4V45.3H94V45.2H94.1V45.1V45V44.9H94.2V44.8H94.3V44.7H94.4V44.6H94.5L94.6 44.5L94.7 44.6V44.7H94.8V44.8H94.9V44.7H95H95.1L95.2 44.6H95.3V44.7L95.4 44.6H95.5L95.6 44.7H95.7V44.8H95.8V44.9H95.9H96V45H96.1V44.9H96.2V44.8H96.3V44.7H96.4V44.6H96.5V44.5V44.4H96.6V44.3H96.7V44.2V44.1H96.8H96.9H97L97.1 44H97.2M97.2 44V43.9M97.2 44H97.3V43.9H97.4H97.5H97.6V43.8L97.7 43.7H97.8H97.9H98V43.8L98.1 43.9L98.2 44H98.3M98.3 44V44.1M98.3 44H98.4V43.9V43.8L98.5 43.7H98.6H98.7V43.6H98.8V43.5H98.9V43.4V43.3V43.2V43.1V43V42.9L99 43H99.1L99.2 43.1H99.3H99.4H99.5H99.6V43V42.9H99.7L99.8 42.8V42.7L99.9 42.6L100 42.5L100.1 42.4H100.2H100.3H100.4H100.5H100.6H100.7L100.8 42.5L100.9 42.7H101L101.1 42.8V42.9V43H101.2L101.1 43.1V43.2V43.3V43.4H101V43.5V43.6H100.9V43.7V43.8H100.8V43.9H100.7V44H100.6V44.1V44.2V44.3V44.4V44.5V44.6H100.5V44.7H100.4V44.8V44.9H100.3V45H100.2V45.1V45.2V45.3H100.3L100.5 45.5L100.7 45.6H100.8V45.7V45.8H100.9V45.9H101V46L101.1 46.1H101.2L101.3 46.2V46.3H101.4V46.4H101.5V46.5L101.3 46.7L101.2 46.9L101 47V47.1V47.2H100.9H100.8V47.3V47.4L100.7 47.6V47.7V47.9L100.8 48L100.9 48.2L100.8 48.4V48.5H100.7V48.6H100.8L100.9 48.7V48.8M100.9 48.8H101M100.9 48.8V48.9V49H100.8L100.9 49.1V49.2H101V49.3V49.4V49.5L101.1 49.6V49.7H101.2V49.8H101.3H101.4H101.5V49.9H101.6L101.7 50M101.7 50H101.8M101.7 50V50.1V50.2L101.6 50.3V50.4L101.7 50.7L101.8 51V51.1V51.2H101.7V51.3V51.4V51.5H101.6V51.7V51.8L101.5 51.9V52H101.6V52.1H101.7L101.8 52.2L101.9 52.3L102 52.4L102.1 52.5V52.6V52.7V52.8H102V52.9V53V53.1L101.9 53.2V53.3V53.4V53.5H102V53.6H102.1V53.7H102.2H102.3L102.5 53.8H102.6V53.9H102.7H102.8V54V54.1V54.2V54.3L102.9 54.4H103V54.5H103.1H103.2H103.3H103.4H103.5V54.6V54.7V54.8L103.4 55V55.1V55.2L103.5 55.3H103.6L103.7 55.4L103.8 55.3H103.9V55.2H104H104.1H104.2L104.3 55.3H104.4L104.5 55.4H104.6H104.7H104.8V55.3H104.9H105H105.1L105.2 55.5L105.4 55.7L105.6 55.8L105.9 56L106 55.9H106.2L106.3 55.8H106.4H106.5H106.6H106.9V55.9H107L107.1 56.1V56.2L107.2 56.3L107.4 56.4H107.5L107.6 56.3V56.2L107.7 56.1H107.8L107.9 55.9L108 55.8V55.7H107.9V55.6V55.5H108V55.4H108.1V55.3H108.2L108.3 55.2L108.2 55V54.9L108.3 54.8L108.4 54.7L108.6 54.6H108.7V54.5V54.4V54.3L108.8 54.2H108.9L109 54.1V54H108.9V53.9V53.8V53.7H108.8V53.6H108.7V53.5V53.4H108.6V53.3V53.2H108.7V53.1L108.8 53V52.9V52.8V52.7L108.7 52.6V52.5H108.8L109 52.6H109.1L109.2 52.7L109.3 52.8H109.4H109.5H109.6H109.7L109.8 52.9H109.9V53H110H110.1L110.2 53.1H110.3H110.4V53.2V53.3H110.5V53.4H110.6H110.7V53.5H110.8H110.9H111L111.1 53.4L111.2 53.5H111.3V53.6H111.4V53.7H111.5H111.6H111.7H111.8V53.8V53.9V54H111.9H112H112.1V54.1H112.2V54.2H112.3V54.3L112.4 54.4V54.5H112.5V54.6V54.7L112.4 54.8H112.3V54.9V55L112.2 55.1V55.2V55.3V55.4V55.5V55.6V55.7H112.3V55.8V55.9L112.4 56V56.1V56.2H112.5V56.3H112.6V56.4H112.7L112.8 56.5H112.9H113H113.1V56.4H113.2L113.3 56.5L113.4 56.6H113.5V56.7H113.6L113.7 56.8H113.8H113.9V56.9V57H114H114.1V57.1V57.2H114.2V57.3V57.4V57.5L114.3 57.6H114.4H114.5H114.6L114.7 57.5H114.8V57.6L114.9 57.7H115L115.1 57.8H115.2H115.3H115.4H115.5V57.9L115.4 58V58.1V58.2L115.5 58.3L115.6 58.4H115.7L115.8 58.5V58.6H115.9V58.7V58.8H116V58.9H116.1L116 59L116.1 59.1L116.2 59.2H116.3H116.4V59.1L116.5 59.2V59.3H116.6V59.4V59.5V59.6V59.7H116.7L116.8 59.8V59.9H116.9V60V60.1H117H117.1V60.2H117.2V60.3H117.3H117.4H117.5V60.4H117.6V60.5V60.6V60.7V60.8H117.7H117.8V60.9H117.9H118H118.1V61V61.1H118.2V61.2H118.3V61.3H118.4V61.4V61.5H118.5H118.6L118.7 61.4L118.8 61.5V61.6H118.9V61.7H119H119.1V61.8V61.9V62V62.1M119.1 62.1H119.2M119.1 62.1V62.2L119.2 62.3H119.1V62.4L119 62.5V62.6V62.7V62.8H119.1V62.9V63V63.1V63.2H119V63.3V63.4V63.5V63.6V63.7V63.8L118.9 63.9L118.8 64.1V64.2V64.3L118.9 64.4V64.5H119H119.1H119.2H119.3L119.4 64.6H119.5H119.6H119.7L119.8 64.7L119.9 64.8H120L120.1 64.9H120.3H120.5V65H120.6H120.7L120.8 65.1V65.2L121 65.3L121.2 65.5L121.3 65.6L121.4 65.7H121.5V65.8H121.6V65.9V66L121.7 66.2L121.8 66.4H121.9V66.5V66.6L121.8 66.7H121.7H121.6V66.8H121.5H121.4H121.3H121.2V66.9H121.1V67L121 67.2V67.4V67.5H120.9V67.6V67.7H120.8H120.7V67.8H120.8V67.9H120.9V68V68.1V68.2H120.8V68.3L120.7 68.4L120.6 68.5V68.6H120.5V68.7L120.3 68.8H120.2V68.9L120.3 69.1H120.4V69.2L120.5 69.3L120.6 69.5H120.7L120.5 69.8V69.9H120.4L120 70.2H119.9V70.5L119.8 70.6H119.7V70.7V70.8V70.9L119.8 71V71.1V71.2V71.3H119.9V71.4L120.1 71.5H120.2H120.3V71.6L120.4 71.7L120.5 71.8H120.6V71.9L120.8 72V72.1H120.9V72.2V72.3V72.4H121V72.5V72.6H121.1L121.2 72.7V72.8L121.3 72.9V73V73.1V73.2L121.2 73.3V73.4V73.5V73.6H121.3H121.4H121.5V73.7H121.6L121.7 73.8H121.8H121.9L122 73.9V73.8H122.1V73.9H122.2H122.3V74H122.4V74.1H122.5V74.2V74.3H122.6V74.4V74.5V74.6V74.7H122.5V74.8L122.6 74.9L122.7 75L122.8 74.9H122.9V75H123H123.1L123.2 75.1H123.3V75.2H123.4V75.3L123.5 75.4H123.6V75.5H123.7L123.8 75.6V75.7V75.8H123.9V75.9H124V76H124.1H124.2L124.4 76.1H124.5V76.2L124.6 76.3L124.7 76.5V76.6L124.8 76.7L124.9 76.9V77V77.1L125 77.2H125.1V77.3L125.2 77.4V77.5V77.6H125.3V77.7H125.4V77.8H125.5V77.9H125.6V78H125.7V78.2H125.8V78.3V78.4V78.5V78.6H125.9V78.7V78.8H126V78.9V79V79.1V79.2H126.1V79.3V79.4H126H125.9L125.8 79.5L125.6 79.7L125.5 79.8H125.4V79.9V80L125.3 80.1H125.2V80.2H125.1L125 80.1H124.9H124.8H124.7V80.2H124.6L124.5 80.3L124.4 80.4V80.5H124.3V80.6L124.2 80.7V80.8V80.9H124.1V81L124 81.1H123.9V81.2H123.8V81.3H123.7V81.4H123.6V81.5V81.6H123.5V81.7V81.8H123.4V81.9V82M123.4 82H123.3M123.4 82V82.1V82.2H123.3V82.3V82.4V82.5H123.2V82.6V82.7L123.3 82.8V82.9H123.4V83H123.3H123.2V83.1H123.1V83.2V83.3L123 83.4H123.1V83.5V83.6H123V83.7V83.8V83.9V84V84.1V84.2V84.3V84.4L122.9 84.5V84.6H122.8V84.7V84.8V84.9L122.9 85V85.1L122.8 85.2V85.3L122.7 85.4L122.6 85.5L122.5 85.6V85.8L122.3 86H122.2V85.9L121.5 85.8L121.2 85.9V85.8H121.1H121L120.9 85.9L120.8 86L120.7 86.1L120.6 86.2L120.4 86.3V86.4H120.3V86.5H119.8L119.6 86.4L119.4 86.2H119L118.9 86.1L118.7 85.9L118.4 85.8V85.7H118.3H118.2H118L117.9 85.8H117.8L117.7 85.7H117.3H117.2L117 85.6L116.4 85.1V85.2H116.2V85.3H116.1L115.9 85.5L115.4 85.9H115.3H115.1L115 86H114.9L114.8 86.1L114.7 86.2H114.6H114.5H114.4V86.3H114.3L114.2 86.4V86.8V86.9H114.1L114 87.1L113.9 87.3V87.4H113.8L113.7 87.6V87.7L113.6 87.9V88L113.7 88.1V88.2V88.4L113.5 88.5L113.2 88.6L113 88.7L112.9 88.8L112.8 88.9H112.7H112.6V89H112.4L112.3 89.2H112.2H112.1V89.3H111.8L111.7 89.2L111.5 89L111.3 89.1L111.1 88.9H110.1V89L110 89.1H109.9H109.8L109.7 89.3H109.6L109.5 89.5V89.6H109.4H109.3H109.2L108.9 89.7V89.8L108.7 89.9H108.6L108.5 90H108.4L108.3 89.9H108.2H108H107.9H107.8H107.7H107.6L106.9 90.2L106.8 90.3H106.7L106.6 90.4L106.5 90.5H106.4H106.3L106.1 90.6H106L105.9 90.7H105.8L105.7 90.6H105.6H105.5H105.4V90.5V90.4V90.3V90.2L105.3 90.1L105.2 90V89.9H105.1L105 89.8V89.7H104.9H104.8L104.7 89.6H104.6L104.5 89.5V89.4L104.4 89.3L104.3 89.2H104.2H104.1V89.3H104H103.9H103.8H103.7H103.6H103.5V89.2H103.4H103.3V89.1H103.2H103.1H103L102.9 89V88.9H102.8H102.7V89V89.1V89.2H102.6V89.3H102.5H102.4V89.2H102.3V89.1H102.2H102.1L102 89.2H101.9V89.3H101.8V89.4L101.7 89.5H101.6H101.5H101.4H101.3V89.4H101.2L101.1 89.3L101 89.2H100.9V89.3L100.8 89.2H100.7L100.6 89.3H100.5H100.3H100.2H100.1L100 89.2L99.9 89.1V89L99.8 88.9V88.8L99.7 88.7V88.6L99.6 88.5L99.5 88.4V88.3V88.2L99.4 88.1V88V87.9V87.8L99.3 87.6H99.2H99.1L99 87.5L98.2 87.1L96.4 86.6L96.3 86.7H96.2H96.1H96V86.6L95.9 86.5L95.7 86.4L94.9 85.8H94.2H94.1H94H93.9L93.8 85.9H93.7H93.6V86H93.5H93.4V85.9V85.8V85.7V85.6V85.5L93.3 85.4L93.2 85.3H93.1L93 85.4H92.9V85.5H92.8V85.6V85.7H92.7H92.6H92.5H92.4V85.6V85.5H92.3H92.2V85.6H92.1H92L91.9 85.7L91.8 85.8V85.9V86V86.1V86.3L91.7 86.4V86.5L91.6 86.6L91.5 86.7V86.8H91.4V86.9H91.3H91.2V86.8H91.1H91H90.9H90.8L90.7 86.9L90.6 87H90.5H90.4H90.3H90.2L88.2 87.8H87.9V87.9H87.8V88H87.7H87.6H87.5L87.4 87.9H87.3V87.8H87.2H87.1H87L86.9 87.6V87.5H86.8L86.7 87.4L86.6 87.3H86.5V87.2V87.1V86.9H86.6V86.8H86.5V86.7L86.3 86.6V86.5L86.2 86.4L86.3 86.3L86.2 86.2H86.1H86V86.1V86V85.9V85.8V85.7V85.6V85.5V85.4V85.3H85.9V85.2H85.8L85.7 85.1L85.6 85L85.5 84.9H85.4L85.3 84.8V84.7H85.2V84.6H85.3L85.4 84.5V84.4V84.3L85.3 84.2H85.2H85.1H85L84.9 84.1H84.8H84.7L84.5 84H84.4H84.3H84.2H84.1H84H83.9L83.8 83.9H83.7V83.8L83.6 83.7H83.5V83.6H83.4V83.5H83.3L83.2 83.4V83.3H83.1H83L82.9 83.2H82.8L82.6 83.3L82.5 83.4H82.4H82.3H82.2H82.1V83.3V83.2H82V83.1L81.9 83.2H81.8H81.7H81.6H81.5H81.4L81.3 83.3H81.2H81.1H81H80.9L80.8 83.4H80.7V83.3H80.6H80.5H80.4V83.4H80.3V83.5V83.6V83.7H80.2V83.8H80.1L80 83.7V83.6V83.5V83.4H79.9V83.3H79.8L79.7 83.4H79.5L79.4 83.5L79.3 83.6H79.2H79.1H79V83.7H78.9L78.8 83.8H78.7V83.9H78.4H78.1H78L77.9 84V84.1H77.8H77.7H77.6H77.5V84L77.4 83.9H77.3L77.2 83.8L77 83.7H76.9H76.8L76.7 83.6H76.6V83.5H76.5V83.4V83.3V83.2V83.1L76.4 83L76.3 82.9L76.2 82.8L76.1 82.7H76H75.9L75.8 82.6L75.7 82.7H75.6H75.5H75.4V82.6H75.3V82.5H75.2V82.4V82.3H75.1H75H74.8H74.7L74.6 82.4H74.5H74.4H74.3L74.1 82.3H74H73.9H73.8L73.7 82.4V82.5L73.6 82.6H73.5H73.4L73.2 82.5H73.1L73 82.6H72.9H72.8V82.7H72.7H72.6L72.5 82.6L72.3 82.5L72.2 82.4L72 82.3H71.9L71.8 82.2H71.7H71.6H71.5H71.4H71.3L71.2 82.1L71.1 81.9L71 81.7V81.6L70.9 81.5H70.8V81.4H70.7V81.5H70.6V81.6V81.7V81.8L70.5 81.9V82V82.1V82.4V82.5L70.4 82.6L70.3 82.9V83.1V83.3H70.2V83.4H70.1L70 83.5V83.6V83.7H69.9V83.8V83.9H69.8V84V84.1H69.7V84.2H69.6V84.3H69.5V84.4L69.4 84.5V84.6V84.7V84.8H69.3V84.9H69.4V85M69.4 85H69.5M69.4 85V85.1L69.3 85.2V85.3H69.2H69.1H69H68.9H68.8L68.7 85.2L68.6 85.1H68.5V85H68.4H68.3L68.2 84.9H68.1L67.9 84.8V84.9H67.8H67.7L67.6 84.8L67.3 84.9H67.2V84.8H67.1H67V84.7H66.9H66.8H66.7V84.6H66.6V84.5L66.5 84.4V84.3H66.4H66.3L66.2 84.2H66.1H66V84.1V84L65.9 83.8V83.7V83.6H65.8V83.7H65.7H65.6L65.5 83.8V83.7L65.4 83.8V83.7H65.3V83.8H65.2H65.1V83.9H65V83.8H64.9L64.8 83.7H64.7H64.6V83.6H64.5V83.5H64.4V83.4H64.3L64.2 83.3L64.3 83.2V83.1V83L64.2 82.9L64.1 82.8H64H63.9H63.8V82.7L63.7 82.6H63.6H63.5H63.4H63.3H63.2L63.1 82.7H63V82.6V82.5V82.4V82.3H62.9V82.2H62.8H62.7V82.1H62.6H62.5L62.4 82H62.3V81.9M62.3 81.9H62.4M62.3 81.9V81.8H62.2H62.1H62L61.9 81.7V81.6H61.8V81.5V81.4H61.7H61.6V81.3L61.5 81.4H61.4V81.5H61.3H61.2H61.1H61V81.4L60.9 81.3H60.8H60.7V81.2L60.6 81.1V80.9L60.7 80.8H60.6V80.7L60.7 80.6V80.5L60.8 80.4L60.9 80.3H61.1V80.2H61L60.9 80.1L60.8 80H60.7V80.1H60.6L60.5 80.2H60.4V80.1L60.3 80V79.9H60.2V79.8H60.1L60 79.7V79.6H59.9V79.5H59.8H59.7V79.6H59.6H59.5L59.4 79.7H59.3H59.2V79.6H59.1L58.9 79.5H58.8H58.7V79.4H58.6H58.5V79.3V79.2V79.1H58.4H58.3V79L58.2 78.9V78.8H58.1V78.7V78.6H58H57.9L58 78.4H57.9L58 78.3H58.1V78.2H58.2V78.1H58.3V78L58.2 77.9H58.3V77.8V77.7H58.4V77.6H58.6V77.5H58.7V77.4V77.3H58.6L58.5 77.2L58.4 77H58.3V76.9H58.2V76.8V76.7H58.1H58L57.8 76.6L57.7 76.5H57.6L57.5 76.3L57.6 76H57.5V75.9V75.7V75.5V75.3H57.4H57.3H57.2H57.1H57H56.9H56.7V75.4L56.6 75.5V75.6L56.5 75.8L56.4 75.9H56.3V75.8H56.2H56.1H56V75.9L55.9 76L55.8 75.9H55.6H55.5H55.4H55.3V75.8H55.1H55H54.9H54.8V75.7H54.7H54.6H54.5H54.4H54.3V75.6H54.2H54.1H54H53.9V75.5H53.8H53.7H53.5V75.4L53.4 75.2L53.3 75.1H53.4V75H53.5L53.4 74.7H53.5L53.4 74.5L53.2 74.4V74.2L53.1 74L52.9 73.9L52.8 73.8L52.7 74L52.5 73.9V73.8H52.4L52.3 74.2H51.9V74.4L51.7 74.3L51.6 74.4V74.5L51.5 74.9L51.4 75.4L51.2 75.5L51.1 75.6L51 75.8H50.9V75.6L50.6 75.7H50.5L50.4 75.9L50.2 76L50 76.1V76.2H49.9L50 76.3H49.9H49.8L49.7 76.4L50 76.6L50.2 76.7V76.9L50.1 77H50.2L50.1 77.2L49.9 77.1L49.8 77.5L49.7 77.6V77.7L49.6 77.6V77.7H49.5V77.8H49.4L49.3 77.9V78H49.4V78.1H49.5L49.6 78.2H49.7L49.5 78.4V78.6H49.6V78.7L49.7 78.8H49.6L49.5 79L49.3 79.3L49.1 79.4L48.9 79.6H49L49.1 79.8H49.2L49.3 79.9H49.4L49.5 80V80.2L49.4 80.5L49.3 80.6L49.2 80.7L49.1 80.9L49 81V81.1H48.9L48.8 81.2H48.7V81.3M48.7 81.3H48.6M48.7 81.3L48.5 81.4V81.6L48.9 81.7L48.8 81.8L48.7 82V82.1H48.6V82.2V82.3V82.4H48.5V82.5H48.4H48.3H48.2L47.9 82.3L47.8 82.2L47.5 82.3H47.3L46.9 82.6L46.8 82.7H46.4L45.9 82.8L45.6 82.9H45.5V83L45.4 83.1V83.2H45.3V83.3L45.2 83.5H45.1H45H44.9V83.6H44.8V83.5H44.7V83.6L44.5 83.4L44.4 83.3L44.3 83.2H44.2H44.1H43.9H43.8V83.1V82.9V82.8L43.6 82.5V82.6V82.7L43.3 82.6V82.5H43.2L42.8 82.4V82.3L42.9 82.2V82.1H42.6L42.3 82H42.2H42.1V82.1V82.2V82.3H42L41.6 82L41.5 81.9V82L41.4 81.9H41.3L41.2 81.8V81.7L40.7 81.5H40.5H40.3V81.6H40.2L40.1 81.8H40V82L40.1 82.1L40 82.2V82.3V82.4V82.5L40.1 82.6V82.7H40.2V82.8H40.3V82.9H40.4H40.5H40.6H40.7V83L40.8 83.1V83.2L40.9 83.3V83.4V83.5V83.6L41 83.7V83.8V83.9V84L40.9 84.1H41V84.2V84.3V84.4V84.5H41.1V84.6V84.7V84.8V84.9V85V85.1V85.2H41.2V85.3H41.3V85.4H41.2L41.1 85.5V85.6H41H40.9H40.8V85.7H40.7V85.8L40.6 85.9H40.5L40.4 86H40.3H40.2V85.9H40.1V86H40H39.9V86.1V86.2H39.8V86.1V86V85.9L39.7 86V86.1H39.6V86V85.9H39.5V86V86.1H39.4V86V85.9H39.3L39.2 86V86.1V86.2H39.1V86.1H39V86.2V86.3H38.9H38.8V86.4H38.7V86.3V86.2M38.7 86.2H38.8V86.1H38.7V86.2ZM38.7 86.2H38.6H38.5V86.1V86L38.6 85.9V85.8H38.5M38.5 85.8H38.4M38.5 85.8V85.7H38.6V85.6V85.5M38.6 85.5H38.5M38.6 85.5V85.4H38.5H38.4L38.3 85.5L38.2 85.4L38.1 85.5V85.6H38H37.9M37.9 85.6V85.7M37.9 85.6V85.5V85.4H37.8V85.3H37.7V85.4L37.6 85.5V85.4V85.3H37.5V85.2H37.6V85.1H37.5V85V84.9H37.6V84.8H37.5V84.7H37.4V84.6H37.3H37.2V84.7H37.3V84.8V84.9L37.2 84.8H37.1V84.9H37V84.8V84.7L37.1 84.6V84.5H37V84.6L36.9 84.7H36.8V84.6H36.9V84.5M36.9 84.5V84.4M36.9 84.5H36.8H36.7V84.4V84.3L36.6 84.4H36.5V84.3H36.4H36.3V84.2H36.2H36.1V84.3H36H35.9V84.2L36 84.1H36.1V84H36V83.9V83.8H35.9V83.7H35.8H35.7V83.6H35.8V83.5L35.9 83.4V83.3H36V83.2L36.1 83.1V83H36.2L36.3 83.1L36.4 83H36.3V82.9V82.8V82.7H36.4H36.5V82.6L36.8 82.3V82.2H36.9L37.2 82V81.8V81.6V81.4V81.3V81.2H37.3H37.4V81.1H37.5H37.6V81V80.9V80.8H37.7L37.8 80.3L38 80.1V79.8V79.5V79.2V78.9V78.8H37.9H37.8H37.7V78.7H37.6H37.5V78.8H37.6V78.9M37.6 78.9H37.5M37.6 78.9V79H37.5H37.4H37.3V78.9L37.2 78.8V78.7H37.1V78.6H37V78.5H37.1L37.2 78.4H37.1H37V78.3H37.1V78.2H37V78.1M37 78.1H37.1M37 78.1V78H36.9V77.9V77.8M36.9 77.8H37M36.9 77.8V77.7M36.9 77.7H36.8M36.9 77.7V77.6H37V77.5H36.9V77.4H37V77.3H36.9L36.8 77.2V77.1V77H36.7H36.6V76.9H36.5L36.4 76.8V76.7L36.3 76.6H36.2H36.1V76.7H36V76.8V76.9H35.9H35.8H35.7V76.8V76.7V76.6H35.8H35.9V76.5V76.4H35.8H35.7V76.3H35.6V76.2V76.1V76V75.9M35.6 75.9H35.7M35.6 75.9H35.5H35.4V75.8V75.7H35.3V75.6V75.5V75.4V75.3V75.2L35.4 75.1V75H35.5V74.9V74.8V74.7V74.6L35.4 74.5V74.4V74.3H35.3V74.2H35.2V74.1L35 74H34.9H34.8H34.7L34.6 74.1L34.5 74.2V74.3V74.4V74.5H34.4V74.6V74.7V74.8L34.3 74.9H34.2H34.1V74.8H34V74.7V74.6V74.5V74.4H34.1V74.3V74.2H34.2V74.1V74H34.3V73.9H34.2V73.8L34.1 73.7H34H33.9H33.8V73.8H33.7V73.9V74H33.6V74.1H33.5H33.4L33.3 74L33.1 73.9L33 73.8H32.9V73.7H32.8H32.7H32.6H32.5V73.8H32.4V73.9V74L32.5 74.1H32.6V74.2L32.7 74.3H32.8V74.4V74.5H32.7V74.6H32.6L32.5 74.7H32.4L32.3 74.6H32.2H32.1V74.5H32V74.4H31.9V74.3V74.2V74.1V74L31.8 73.9L31.7 73.8H31.6H31.5H31.4V73.9L31.3 74H31.2H31.1H31L30.9 73.9H30.8H30.7H30.6H30.5V74V74.1L30.4 74.2L30.3 74.3H30.2V74.2H30.1H30H29.9L29.8 74.3L29.7 74.4L29.6 74.5L29.5 74.6H29.4H29.3H29.2H29.1L29 74.7V74.8L28.9 74.9L28.8 75H28.7L28.6 75.1V75.2H28.5L28.2 75.4L28.1 75.5L28 75.6L27.9 75.7V75.8H27.8L27.7 75.9H27.6V76H27.5H27.4H27.2L27.1 75.9H27L26.9 75.8L26.8 75.7H26.7H26.6H26.5H26.4H26.3H26.2H26.1H26H25.9H25.7H25.6H25.5V75.6L25.3 75.5L25.2 75.4L25.1 75.2V75.1H25H24.9H24.8V75V74.9H24.7L24.6 75H24.5V75.1H24.4H24.3H24.2H24.1V75H24H23.9H23.8V74.9V74.8H23.7H23.6L23.5 74.7H23.4V74.8H23.3L23.4 74.4V74.3L23.6 74.2L23.8 74.1L23.7 74L23.6 73.9V73.8H23.5V73.6H23.4V73.5V73.4V73.3V73.2V73.1V73V72.9H23.5V72.8H23.6V72.7V72.6H23.5H23.4V72.5L23.3 72.4H23.2V72.3V72.2L23.3 72.1H23.4V72H23.5H23.6H23.7V71.9L23.4 71.4L23.3 71.5L23.1 71.3V71.2L23 71L22.9 70.8L22.7 71L22.6 70.9H22.5V70.8V70.7V70.6V70.4L22.3 69.9L22.2 69.8L22.1 69.6L22 69.5L22.1 69.4L21.9 69.2V68.9H22.2L22.4 68.5V68.4V68.2L22.3 68.1H22.2L22 68H21.9L21.7 67.9H21.6L21.5 67.7L21.3 67.5L21.2 67.4L21 67.2L20.6 67H20.5L20.4 67.1L20.3 66.9L20.2 66.8V66.7H20.1L20 66.6V66.5H19.9V66.4V66.3L19.8 66.2L19.7 66.1H19.6L19.5 65.9L19.4 65.8V65.7V65.6V65.5L19.5 65.4V65.3H19.6L19.5 65.2V65.1V65L19.6 64.9H19.5L18.9 64.8H18.6L18.7 64.7L18.8 64.6L18.9 64.5V64.4V64.3H18.8V64.2L18.9 64.1L18.7 64L18.6 63.9H18.4L18.3 63.8H18.2V63.7H18.1V63.8H18H17.9V63.9V64H17.8V64.1H17.7V64H17.6V64.1H17.5H17.4V64.2H17.3H17.2V64.3H17.3V64.4H17.2V64.5H17.1M17.1 64.5V64.6M17.1 64.5H17H16.9H16.8V64.6H16.7H16.6M16.6 64.6V64.7M16.6 64.6L16.5 64.5H16.4H16.3H16.2H16.1V64.4L16 64.3V64.2H15.9V64.1H15.8V64H15.7H15.6L15.5 63.9L15.4 63.8L15.3 63.9V64V64.2M15.3 64.2H15.4M15.3 64.2H15.1L15 64.1H14.9H14.7V64V63.9L14.6 64H14.4H14.3H14.1H14L13.9 64.1H13.8H13.7V64.2H13.6V64.3L13.5 64.4V64.5V64.6H13.4V64.7H13.3H13.2V64.8H13.1V64.9H13V65V65.1V65.2H12.9L12.8 65L12.6 64.8L12.5 64.7L12.3 64.5L12.2 64.4V64.3L12.1 64L12 63.8V63.7V63.6V63.5L11.9 63.3L11.8 63L11.7 62.8L11.5 62.6L11.4 62.5L11.3 62.4L11.2 62.3V62.4H11.1V62.3L10.9 62.1L10.7 61.9L10.6 61.8L10.7 61.6V61.5V61.3L10.6 61V60.9V60.8V60.7L10.7 60.6V60.5V60.4L10.6 60.3V60.2V60.1V60V59.9L10.5 59.8V59.7V59.6H10.4V59.5H10.3H10.2V59.4H10.1V59.3H10H9.9V59.2L9.8 59.1H9.7V59H9.6V58.9V58.8M9.6 58.8H9.7M9.6 58.8V58.7V58.6H9.7V58.5H9.6H9.5V58.4H9.4V58.3H9.3V58.2V58.1H9.4L9.5 57.9L9.6 57.8V57.5L9.7 57.3V57.2L9.6 57.1L9.5 56.9V56.8L9.6 56.7L9.7 56.5V56.4H9.6V56.3V56.2V56.1H9.2L8.7 56.2L8.6 56.1H8.5L8.4 56L8.3 55.9L7.8 55.8L7.2 55.6H7.1H7L6.8 55.2L6.6 54.8L6.5 54.7V54.6V54.5H6.4V54.4V54.3H6.3V54.2V54.1H6.2L6.1 54V53.9H6H5.9V53.8H5.8L5.7 53.7L5.6 53.6V53.5H5.7L5.8 53.4H6H6.1L6.2 53.3H6.3H6.4V53.2H6.5V53.1V53L6.6 52.9L6.7 52.8V52.7L6.8 52.6V52.5V52.4L6.9 52.3V52.2L6.2 51.8H6.1H6L5.9 51.9H5.8H5.7H5.6H5.5L5.4 51.8H5.3L5.2 51.7L5.1 51.6H5V51.5H4.9V51.4L3.7 51.2L2.1 51.9L1.6 52.4H1.5L1.4 52.5L0.900002 52.4H0.799999V52.3H0.700001V52.2V52.1V52V51.9V51.8V51.7L0.599998 51.6L0.5 51.5V51.4V51.3V51.2V51.1V51V50.9V50.8V50.7V50.6L0.599998 50.5V50.4V50.3L0.5 50.2V50.1V49.9L0.599998 49.6V49.1V49L0.700001 48.8V48.7V48.6V48.3V48.2L0.799999 48V47.6L0.900002 47.5V47.2V47L1 46.7L1.1 46.2V45.8L1.2 45.3V45L1.3 44.8V44.5V44.3V44.2V44L1.4 43.9L1.5 43.4V43V42.6V42.5L1.6 42.1V41.9V41.8V41.7V41.6V41.5V41.2V41.1V40.9V40.7V40.6V40.4V40.3V40.2L1.7 40.1V40V39.9V39.7L1.8 39.5V39.4L1.9 39.2L2 39V38.9V38.8L2.1 38.7L2.2 38.3L2.4 38.1V37.9L2.5 37.8L2.7 37.5L2.8 37.3V37.2L3 37.1V37H3.1V36.9V36.8V36.7M3.1 36.7H3" stroke="white" stroke-width="0.5" stroke-linecap="round" stroke-linejoin="round"/>
</g>
</svg>
