<svg width="158" height="141" viewBox="0 0 158 141" fill="none" xmlns="http://www.w3.org/2000/svg">
<g id="UA23">
<path d="M106 118.7V118.8H105.9H105.8V118.9V119V119.1H105.7V119V118.9H105.8V118.8V118.7H105.9V118.6H106V118.7ZM133.8 112.5V112.6H133.7V112.5H133.8ZM133.6 112.5V112.6V112.7H133.5V112.8V112.9H133.4V112.8V112.7H133.5V112.6H133.4H133.3V112.5H133.4H133.5V112.4H133.6V112.5ZM133.7 112.5H133.6V112.4V112.3H133.7V112.4V112.5ZM133.7 112.1V112.2H133.6V112.3V112.4H133.5H133.4V112.3H133.5H133.6V112.2H133.7V112.1ZM133.5 111.4H133.4V111.3H133.5V111.4ZM135.4 110.5H135.3V110.4V110.3H135.4V110.4V110.5ZM135.4 110.3V110.2H135.5V110.1H135.6V110.2H135.5V110.3H135.4ZM135.3 110.1V110.2H135.4V110.3H135.3V110.2H135.2V110.3V110.4L135.1 110.5H135.2V110.6L135.1 110.5V110.4V110.3V110.2H135.2V110.1V110V109.9V109.8V109.7V109.6V109.5V109.4V109.3V109.2V109.1V109V108.9V108.8H135.3V108.7V108.6V108.5H135.4V108.4H135.5L135.4 108.5V108.6L135.3 108.7V108.8V108.9V109L135.2 109.2H135.3V109.3L135.2 109.5V109.6V109.8V109.9V110V110.1H135.3ZM135.3 108.4V108.3H135.4V108.4H135.3ZM0.900024 51.1L1.09998 51H1.40002L1.79999 50.9L2 50.8L2.29999 50.7H2.5H2.59998H2.70001V50.6H2.90002L3.20001 50.5H3.29999L3.59998 50.4H3.70001L4.09998 50.3H4.29999L4.40002 50.2L4.70001 50.1H5L5.29999 49.9L5.59998 49.8H5.70001L6 49.6L6.20001 49.5L6.29999 49.4H6.40002L6.59998 49.3L6.70001 49.2L6.90002 49L7.20001 48.9V48.8H7.29999L7.40002 48.7L7.59998 48.6L7.79999 48.5L8.09998 48.4L8.29999 48.2L8.59998 48.1H8.70001L8.90002 48L9.20001 47.9H9.40002H9.5H9.59998H9.70001H10H10.2L10.4 47.8H10.5H10.9H11.1H11.3L11.5 47.7L12 47.6H12.4L12.7 47.5H12.8H12.9H13L13.3 47.4H13.6L13.9 47.3H14H14.1H14.3H14.4L14.5 47.2H14.6H14.8H14.9H15L15.2 47.1H15.4H15.8H15.9H16.1H16.2H16.4H16.7H16.8H17L17.3 47H17.4H17.6L17.8 46.9H17.9L18 46.8L18.2 46.7L18.4 46.6L18.6 46.4L18.8 46.3L19 46.2V46.1L19.3 46L19.7 45.8L19.9 45.7L20.2 45.5L20.5 45.4L20.8 45.3L21.5 45.1L21.6 45L22.3 44.9L22.6 44.8H22.7L23.2 44.7H23.6H24.2L24.4 44.8H24.7H25.3H25.5H25.8L26.3 44.9L26.8 45L27.4 45.2H27.7L28.1 45.4L28.6 45.6L28.9 45.7L29.6 46L30.1 46.2H30.2L30.7 46.4L31.1 46.5H31.3H31.5H31.6H32.4L33.1 46.6H33.5H33.6H34L34.4 46.8L34.7 46.9H34.8L35.1 47.1L35.6 47.4L35.8 47.6H35.9L36 47.7L36.3 47.8L36.5 47.9L37 48.1L37.3 48.3H37.4H37.6H37.9H38.1L38.2 48.2H38.6L39 48.1L39.4 48L39.8 47.8L40.3 47.7L40.5 47.6H40.6H40.7L41 47.4H41.1L41.3 47.3L41.5 47.2L41.6 47.1L41.8 46.9L42 46.8L42.1 46.6L42.3 46.3L42.4 46.1L42.5 45.9V45.8V45.7V45.6V45.5V45.4L42.4 45L42.2 44.7V44.5L42.1 44.3L41.9 44.1V44H41.8H41.7H41.6H41.5V44.1L41.1 44.3H41V44.2H41.1V44.1H41.2L41.4 44L41.6 43.9L41.5 43.7H41.4V43.6H41.3V43.5V43.4H41.2H41.1H40.9H40.6V43.3H40.8H40.9L41.1 43.2L41 43V42.9V42.8H40.9L40.8 42.7H40.7V42.6H40.6V42.5V42.4H40.7L40.8 42.5V42.4H40.9V42.5V42.6H41L41.1 42.5V42.4L41.2 42.3V42.2H41.1V42.1L41.2 42V41.9H41.3L41.4 41.8H41.3V41.7L41.2 41L41 39.9L40.9 39.3L40.1 39.4L39.9 38.4L39.8 37.8L39.7 37.2L39.5 36.4L40.3 36.3L41.1 36.1L41 35.1L40.9 34.6L40.7 33.6H40.8L41.5 33.5H42.1L41.9 32.4H42.1L42 31.5L42.5 31.4L42.3 30.3L42.2 30L42.1 29.3V29.2L40.9 29.5L39.8 29.8H39.6L38.9 29.9L38.8 29.2L38.6 28.2L38.5 27.3L38.3 26.5L38.2 25.5L38.3 25.4L38.4 25.3L38.6 25.2L38.8 25.1L39.1 24.9L39.3 24.8L39.4 24.7V24.4L39.3 24.3V24.2V23.9L39.2 23.5L39.1 23L38.3 23.1H38.2H38.1H38H37.9H37.8L37.7 22.9V22.6V22.4L37.6 22.3V22L37.5 21.8V21.5V21.3V21.2L37.4 21.1V21V20.9H37.3H37.2H37.1L37 21H36.9H36.8V21.1H36.7V21.2H36.6V21.3H36.5V21.4H36.4V21.5H36.3V21.6H36.2L36.1 21.7H36H35.9H35.8L35.7 21.8H35.6H35.5V21.9H35.4L35.3 22H35.2V22.1H35.1H35V22V21.9V21.8V21.7V21.6H34.9V21.5V21.4L34.8 20.9V20.8L34.7 20.3L34.6 19.7L34.4 18.8L34.3 18.5V18.3L35.1 18.1H35.3H35.5L35.9 18H36.1L36.3 17.9H36.5H36.6L36.9 17.8L36.8 17.3L36.7 17V16.6L36.9 16.5H37.1L37.7 16.3H38.1V16.5L38.2 16.8L38.3 17.3L39.3 17.1L40.1 16.9H40.2L40.1 16.7L39.9 16.4L39.8 15.4L39.7 15.2V15.1H39.9L39.7 14.4V13.9L39.6 13.7L39.5 13L38.2 13.1L37.7 13.2L37.6 12.9L37.5 12.4L37.4 11.8V11.7L37.3 11.2L37.1 10.7L36.5 10.9V10.7V10.2V10.1L36.4 9.39999L36.3 8.89999V8.60001L36.2 8.20001L36.3 8.10001L38 7.79999L37.8 6.70001L37.6 5.5L37.4 4.39999L37.3 3.79999L37.2 3.39999V3L37.1 2.39999L37 1.89999L37.3 1.79999H38.1L38.3 2.29999L40 2L40.2 3.20001L39.8 3.29999V4.10001L40 5L40.8 4.89999V5.10001L41.2 5L42.2 4.79999L43.6 4.60001L43.7 4.79999V4.89999V5.10001L44 5H44.1V4.89999H44.2H44.3H44.4L44.5 4.79999H44.6H44.7H44.8H44.9H45H45.1V4.70001H45.2H45.3V4.60001H45.4H45.6H45.7L46.1 4.5L46.2 4.39999H46.3V4.29999V4.10001V4L46.4 3.89999L46.5 3.79999V3.60001L46.7 3.39999L47 3.10001L47.1 2.89999L47.3 2.79999L47.4 2.70001H47.5H47.7H47.9H48H48.2L48.3 2.60001H48.4L48.6 2.5H48.7L48.8 2.29999L49 2.20001H49.1L49.3 2.10001L49.6 2H49.7H50.1H50.3H50.4L50.8 2.10001H50.9H51.2L51.5 2.20001H51.8H51.9H52.1H52.5H52.6L52.8 2.10001H52.9L53.1 2H53.2L53.4 1.89999L53.6 1.79999H53.7V1.70001L54.1 1.29999H54.2H54.3H54.5H54.8H55H55.2L55.3 1.20001H55.4H55.5L55.6 1.29999L55.7 1.39999L55.8 1.5H55.9L56.2 1.70001H56.4H56.5H56.6L57 1.60001L57.4 1.5L57.6 1.39999L57.8 1.20001L58 1.10001H58.2H58.5H58.6L58.9 1H59.1L59.3 1.10001H59.4L59.5 1.20001H59.6L59.9 1.39999L60.1 1.60001L60.2 1.70001L60.4 1.89999L60.6 2H60.7L60.8 2.10001H61L61.1 2.20001V2.29999L61.2 2.39999V2.5H61.3L61.4 2.60001H61.5V2.5H61.6V2.60001H61.7H61.8H61.9V2.70001H62H62.1H62.2V2.79999H62.3V2.70001H62.4H62.5H62.6H62.7V2.79999H62.8H62.9V2.89999H63H63.1H63.2H63.3V3H63.4H63.5V2.89999H63.6H63.7V3H63.8H63.9V3.10001H64V3.20001H64.1H64.2V3.29999H64.3H64.4H64.5V3.20001H64.6V3.29999V3.39999H64.7V3.5H64.8H64.9H65H65.1H65.2V3.60001H65.3L65.5 4.29999H65.7L66.7 4.20001H66.8L66.9 4.10001H67H67.1H67.2V4.20001H67.3H67.4H67.5H67.6V4.29999H67.7H67.8L67.9 4.39999H68L68.1 4.5H68.2H68.3H68.4L68.5 4.60001H68.6V4.70001H68.7H68.8H68.9H69L69.1 4.60001H69.2H69.3H69.4H69.5V4.5H69.6V4.60001H69.7H69.8H69.9H70H70.1H70.2V4.70001H70.3H70.4H70.5V4.79999V4.89999L70.7 6.10001V6.29999L71.2 6.10001L72.3 5.5L73.1 5.10001L73.7 4.79999L73.8 4.70001L74.5 4.29999L75.1 4L75.2 3.89999L75.5 3.79999L76.3 3.29999L77.3 2.79999L78 2.39999L79 1.79999H79.1V1.70001H79.3L79.4 1.60001L79.6 1.5L79.8 1.29999L80 1.70001V1.79999L81.1 3.60001L81.2 3.70001L81.3 3.89999V4L81.5 4.20001L81.8 4.70001L81.9 4.60001H82.2H82.5L82.4 4.5H82.5H82.6H82.7H82.8H83L83.1 4.60001H83.2H83.3H83.4H83.5V4.70001H83.6L83.7 4.79999H83.8V4.70001H83.9H84H84.1H84.2L84.3 4.60001H84.4H84.5V4.5H84.6L84.7 4.39999H84.8V4.29999H84.9L85 4.39999V4.70001L85.2 5.29999L85.5 6.89999L86 6.79999L87.9 6.39999L88.2 6.29999L88.4 6.20001H88.6L90.1 5.89999L90.8 5.70001L91 5.60001L91.4 5.5L92.4 5L92.7 4.89999L92.9 4.79999H93L93.1 4.70001V4.79999H93.2H93.3V4.89999H93.4H93.5V5V5.10001V5.20001V5.29999V5.39999H93.6H93.7H93.8V5.29999H93.9V5.39999H94V5.5V5.60001H93.9V5.70001V5.79999H94V5.89999H93.9V6H93.8H93.7H93.6H93.5V6.10001H93.4V6.20001H93.3V6.29999H93.2V6.39999V6.5H93.3V6.60001V6.70001H93.4V6.79999V6.89999V7V7.10001L93.3 7.20001V7.29999V7.39999H93.4H93.5V7.29999H93.6V7.20001V7.10001H93.7H93.8V7.20001H93.9L94 7.29999V7.39999H94.1V7.5H94.2L94.1 7.60001H94H93.9H93.8V7.70001V7.79999H93.7V7.89999L93.6 8V8.10001V8.20001V8.29999H93.5V8.39999V8.5V8.60001H93.6L93.9 8.5H94L94.3 8.39999L94.9 8.20001L95.6 8L97.4 7.5L97.6 8.39999H97.5L97.7 8.79999L98 10L96.5 10.5V10.6L96.8 11.6H96.9H97H97.1H97.2L97.3 11.7H97.4H97.7V11.8H97.8L97.9 11.9L98 12.5L98.1 13.2L98.3 13.9V14L98.1 14.1L97.7 14.2L97.1 14.5L97.3 15H97.4L98.4 14.5L98.5 15L98.6 15.5L98.7 16L98.9 16.4L99 16.9V17.1L99.1 17L99.8 16.6L99.9 16.5L100.2 16.3L100.4 16.5L100.8 17.3L100.3 17.6L100.6 18.2L101.2 19.3L100.9 19.4L101.3 20.1L101.2 20.3V20.4L101.1 20.5V20.6H101L100.8 21.1V21.2V21.3L100.7 21.4V21.5L100.6 21.6V21.7V21.8H100.7V21.9L100.8 22.1L100 22.2L99.1 22.3L99 21.9L98.9 21.1L98.8 20.8V20.7H98.5L97.5 20.9L97.6 21.8L98.2 21.9L98.3 22.4L98.4 23.1V23.3H98.5H98.6H98.7H98.8H98.9H99H99.1L99.2 23.2H99.3H99.4H99.5H99.6H99.7H99.8V23.8V23.7H100.4L101.2 23.5L102.5 23.3H103L103.3 23.2H103.4H103.8L103.7 22.9V22.6H104L104.4 22.5H104.5H104.6H104.7V22.6V22.7V22.8H104.6V23V23.1V23.2L104.4 23.5V23.6L104.3 23.7L104.2 23.8V23.9V24V24.1H104.3V24.2H104.4V24.1H104.5V24.2V24.3H104.6V24.4H104.7V24.5H104.8H104.9H105H105.1H105.7H106.8L107.6 24.4H108.1L108.2 24.6L108.3 24.8L108.5 25.2L108.6 25.4V25.6V25.8L109.1 25.7L109.8 25.6V25.7L110.7 25.5H111.2L111.4 25.4H111.5V25.3H111.4V25.2V25.1H111.5V25V24.9H111.4H111.3V24.8V24.7H111.4V24.6H111.3V24.5H111.2V24.4L111.1 24.3H111V24.2V24.1L111.1 24H112.1H112.7L113.3 24.1H113.6L113.7 24.5V24.6V24.7H113.8H113.9H114H114.2H114.4L114.6 24.6H114.7H114.8H114.9V24.7H115H115.1H115.2L115.3 24.8H115.4L115.5 24.9H115.6H115.7L115.8 24.8H115.9H116H116.2H116.3V24.9H116.7H116.8H116.9V25H117L117.2 25.1H117.3H117.4H117.5H117.9H118.3H118.4H118.6H118.7H118.9L119.5 25L120 24.9L120.6 24.8H120.7H121.1V24.6L121 24.4V24.3V24.2L121.6 24.1L121.7 24L122.6 23.8L123.2 23.7L123.4 23.6L123.8 23.5L124.2 23.4L124.6 23.3H124.7H124.8V23.2H124.9L125.2 23.1V23.2L125.3 23.6L125.4 23.9L125.3 24.4L125.1 25L125 25.4V25.6H124.9V25.7H124.7H124.4V25.8V26V26.7V27.2V27.7V28L124.6 28.1H124.7H124.8H125L125.2 28L126.2 27.9L126.6 27.8H126.7H126.8L127.8 27.6L128.2 27.5L128.6 27.4V27.6L128.8 28.3V28.6V28.9L128.9 29L129 29.8V30V30.1V30.2V30.4L129.1 30.7V30.8V31.1L129.2 31.6L129.3 32.1H129.7L130 32L130.2 32.9L130.3 33.4L130.4 34L130.5 34.5V34.9V35L130.6 35.2V35.4L130.7 35.8V36.1L131.3 36L131.7 35.9H131.9H132.3L133.1 35.8L133.6 35.7H134L134.2 35.6H134.4H134.6V35.7V35.8H134.7V35.9H134.6H134.5V36H134.4V35.9H134.3H134.2V36V36.1L134.1 36.2V36.3H134.2L134.3 36.4V36.5H134.2V36.6V36.7H134.1H134V36.8H134.1V36.9H134L133.9 36.8V36.7H133.8V36.8H133.9V36.9V37V37.1H133.8H133.7V37L133.5 36.9V36.8L133.3 36.9H133.1H133H132.9H132.7V37.1H132.8V37.3L131.8 37.4L130.9 37.5L131 37.8L131.1 38.5V38.6L131.2 39V39.2L131.3 39.6L132 39.5L133 39.4H133.3H133.4L133.3 39.5V39.6V39.7V39.9V40V40.1V40.2L132.7 40.3H132.5H132.3L132.4 41L132.5 41.4H132.9H133.3H133.2V41.5V41.6V41.7V41.8V41.9H133.3L133.4 41.8H133.5L133.8 41.6L134.4 41.3L134.8 41.1L135.3 40.8L135.7 40.6L136 40.4L136.2 40.3L136.4 40.2H136.5L136.6 40.1L136.7 40.3L137 40.8L137.2 41.3L137.3 41.4L137.5 41.8L137.8 42.3L137.9 42.6L138.1 42.9L138.3 43.2L138.5 43.6L138.7 44L139 44.5L139.2 44.8L139.5 45.5L139.8 46H139.9L140.3 45.6L140.8 45.1H140.9L141.4 44.6L142.4 43.7L143.5 45.4L144.2 44.9L144.6 45.5V45.6H144.7L145.2 46.5H145.3L146 45.7L146.2 45.5H146.3L146.4 45.7L146.5 45.8L146.7 46V46.1L146.9 46.5L147.1 46.7L147.2 46.9L147.4 47.2L147.8 48L148 48.3L148.7 49.5L148.9 49.8V49.9H149L149.1 50L149.4 49.7L150 50.2L151.2 51.3L151.6 51.7H151.7V51.8L152.5 52.3L152.8 52.6L153 52.7L153.1 52.8L153.2 52.6V52.5L153.3 52.4L153.9 51.3V51.2L154.2 50.6L154.7 50.8L154.9 50.9L155.1 51L154.8 51.4V51.5L154.7 51.7H154.8H155.4H155.5H155.6L155.7 51.9H155.8V51.7H156.2H157.5V51.8L157.3 52.4L157.2 52.5V52.6H157.3L157.4 52.7L157.5 52.8V53.2L157.3 53.5V53.7L157.2 53.8L157.1 54.1H156.9L156.7 54.5L156.6 54.8V54.9L156.3 55.6L156.2 55.9L156.1 56.1L155.8 56.7L155.7 57.1L155.5 57.6L155.4 57.9L155 58.9L155.2 59.5L155.3 59.9L155.4 60.1L154.5 60.6L153.8 61L153.3 61.2L153.1 60.5L152.9 59.6V59.5L152.7 59.1V59L152.6 58.9V58.8L152.5 58.5H152.4L152.3 58.4V58.3H152.2H152.1L151.8 58.4H151.7L151.4 58.5L150.6 58.7H150.5L150.8 59.4L151 60.1L151.2 60.7L151.3 61.3L150.7 61.6L150.5 61.7L149.8 62.1L150 62.4L149.5 62.6H149.2V62.7L149.3 62.8L149.2 63H149.3V63.2L148.4 63.6L147.9 63.9L147 64.3H146.9V64.2H147V64.1V64V63.9H146.9V63.8V63.7V63.6H146.8H146.7V63.5H146.6V63.4V63.3H146.5V63.2L145.6 63.3H145.1H145H144.9L144.3 63.4H143.6H143.2L142.8 63.5H142.6H142.5L142.4 62.8H141.6L141.5 62.9H141.4L141.6 63.7V63.8L141.8 64.5L141.9 64.8V65L142 65.2V65.3V66L142.1 66.4L142.2 66.8V67.2V67.4V67.5L142.3 67.7L142.4 68.7L142.6 69.4V69.5V69.6H142.7H142.9L143 69.8V70L143.1 70.4V70.6L143.2 70.9V71.2L143.3 71.5V71.6H143.1L141.9 71.7H141.7V71.2L140.5 71.3H140.2H139.3H139.2L139.3 71.5L139.6 71.7H139.5H139.4H139.3V71.8H139.1H138.6H138.5H138.3H138.1H137.8L137.9 71.9H138V72H137.9V72.1V72.2H138V72.3H138.1V72.4V72.5L138.2 72.6H138.3V72.7V72.8H138.4V72.9H138.5H138.6H138.7V73L138.8 73.1H138.9V73.2H139V73.3V73.4V73.5H139.1V73.6H139.2H139.3V73.5V73.4H139.4V73.5H139.5V73.6V73.7H139.4V73.8H139.5V73.9H139.6H139.7H139.8V73.8H139.9L140 73.7H140.1H140.2V73.8L140.3 73.9H140.2V74H140.3H140.4V74.1H140.5V74.2H140.4V74.3H140.5V74.4H140.6H140.7V74.3H140.8H140.9V74.2V74.1V74H141V73.9H141.1V73.8H141.2V73.9V74H141.3V73.9L141.4 74V74.1V74.2H141.3V74.3V74.4V74.5V74.6V74.7H141.4V74.6H141.5H141.6V74.5H141.7V74.4H141.8V74.3H141.9H142V74.4V74.5V74.6V74.7L142.1 74.8V74.9H142.2L142.3 74.8V74.7H142.4H142.5H142.6V74.8H142.7V74.9V75V75.1H142.8H142.9V75.2V75.3V75.4V75.5H143H143.1H143.2H143.3V75.6V75.7V75.8H143.4V75.9H143.5H143.6V76H143.7V76.1H143.8V76.2V76.3V76.4H143.7V76.5V76.6H143.8H143.9L144 76.7V76.8H144.1V76.9H144.2V77L144.1 77.1V77.2H144.2L144.3 77.3H144.4H144.5H144.6H144.7V77.4H144.8V77.3H144.9V77.2V77.1H145V77H145.1H145.2V77.1H145.3V77.2V77.3V77.4H145.2V77.5H145.3V77.6V77.7H145.2V77.8V77.9V78V78.1H145.3V78.2H145.4H145.5L145.6 78.1H145.7V78.2V78.3V78.4V78.5V78.6H145.6V78.7V78.8H145.5V78.9H145.4H145.3V79V79.1V79.2H145.4V79.3H145.5H145.6V79.2H145.7V79.3H145.8V79.4H145.7V79.5H145.6V79.6V79.7V79.8H145.7H145.8V79.9V80H145.7V80.1V80.2H145.6V80.3H145.5H145.4H145.3V80.4H145.2H145.1H145H144.9V80.5H144.8V80.6H144.7H144.6H144.5V80.7H144.6L144.7 80.8H144.8V80.9H144.9L145.1 81L145.2 81.1H145.3H145.4L145.6 81.2L145.7 81.3L146 81.4L146.3 81.6L147 81.9L147.5 82.1L147.9 82.3L148.5 82.6L148.7 82.8L148.9 82.9L149.3 83L149.4 82.9V82.8L149.5 82.7L149.6 82.6L150.1 82.2L150.4 82.4L150.8 82.9L151.1 83.2L151.4 83.6L151.5 83.7L151.2 84L150.9 84.4L150.3 85.1L150.1 85.4L149.8 85.9L149.7 86L149.9 86.2L150.4 86.5L150.5 86.6L150.7 86.7L151 87L151.5 87.3L152 87.7H152.1L152.2 87.8L152.3 87.9L152.2 88L152 88.2L151.8 88.3L151.5 88.6L151.3 88.7L150.9 89L150.3 89.5L149.9 88.9H149.8L149.3 89.3L149 89.6L148.4 90.1L148.2 90.3L147.7 90.7H147.6L147.5 90.8L147.1 91.1L146.9 91.4H146.8L146.4 91.8L146.3 91.9L146.7 92.4V92.5H146.8L146.9 92.7L147 92.8L147.1 93V93.1L147.2 93.2L147.4 93.5L147.7 94L147.9 94.4L148.3 95V95.1V95.2H148.2H148.1L148 95.3H147.9V95.4H147.8L147.7 95.5H147.6V95.6H147.5V95.7H147.4L147.3 95.8H147.2V95.9H147.1V96H147V96.1H146.9H146.8H146.7H146.6H146.5H146.4H146.3H146.2H146.1L146 96.2H145.9H145.8H145.7H145.6H145.5H145.4V96.3H145.3H145.2H145.1V96.4H145H144.9L144.8 96.5H144.7L144.6 96.6H144.5V96.7H144.4V96.8H144.3L144.2 96.9H144.1V97H144L143.9 97.1L143.8 97.2H143.7L143.6 97.3V97.4H143.5V97.5H143.4L143.3 97.6L143.2 97.7L143.1 97.8H143V97.9H142.9V98H142.8V98.1H142.7L142.6 98.2H142.5V98.3H142.4V98.4L142.3 98.5H142.2V98.6H142.1V98.7L142 98.8L141.9 98.9H141.8L141.7 99H141.6V99.1H141.5V99.2H141.4V99.3H141.3H141.2V99.4H141.1V99.5H141V99.6H140.9V99.7H140.8V99.8H140.7V99.9H140.6V100H140.5V100.1H140.4V100.2L140.3 100.3V100.4H140.2V100.5H140.1V100.6H140V100.7V100.8H139.9V100.9L139.8 101V101.1H139.7V101.2V101.3H139.6V101.4V101.5H139.5V101.6V101.7H139.4V101.8L139.3 101.9V102H139.2V102.1V102.2H139.1V102.3V102.4V102.5H139V102.6V102.7H138.9V102.8V102.9H138.8V103V103.1H138.7V103.2V103.3H138.6V103.4H138.5V103.5V103.6L138.4 103.7V103.8V103.9H138.3V104V104.1V104.2H138.2V104.3V104.4H138.1V104.5V104.6V104.7H138V104.8V104.9H137.9V105V105.1V105.2H137.8V105.3V105.4L137.7 105.5V105.6V105.7H137.6V105.8V105.9V106H137.5V106.1V106.2V106.3H137.4V106.4V106.5V106.6H137.3V106.7V106.8V106.9H137.2V107V107.1V107.2H137.1V107.3V107.4H137V107.5V107.6V107.7V107.8H136.9V107.9V108V108.1H136.8V108.2V108.3H136.7V108.4V108.5V108.6H136.6V108.7V108.8H136.5V108.9V109V109.1H136.4V109.2V109.3H136.3V109.4V109.5L136.2 109.6V109.7H136.1V109.8V109.9H136V110V110.1H135.9V110.2V110.3H135.8V110.4L135.7 110.5V110.6H135.6V110.7V110.8V110.9H135.5V111V111.1H135.4V111.2H135.3V111.3V111.4H135.2V111.5H135.1V111.6V111.7H135V111.8H134.9V111.9V112H134.8V112.1H134.7V112.2L134.6 112.3V112.4H134.5V112.5L134.4 112.6V112.7H134.3V112.8H134.2V112.9L134.1 113V113.1H134V113.2H133.9V113.3H133.8V113.4H133.7V113.5H133.6L133.4 113.7H133.3H133.2L133.1 113.8H133H132.9L132.7 113.7H132.6V113.6V113.5V113.4V113.3L132.5 113.2V113.1V113L132.6 112.9V112.8H132.7H132.8V112.9H132.7V113H132.8L132.9 112.9L133 112.8H133.1V112.7V112.6L133 112.4V112.3V112.2V112.1V112H133.1V112.1V112.2V112.3H133.2V112.4L133.1 112.5V112.6V112.7V112.8V112.9L133.2 112.8H133.3V112.7H133.4V112.8V112.9H133.5V113H133.6V112.9V112.8H133.7V112.7V112.6H133.8H133.9V112.7H134V112.6H133.9V112.5V112.4H134V112.3V112.2L134.1 112.1V112V111.9V111.8H134.2V111.9V112V112.1H134.3V112V111.9V111.8V111.7V111.6V111.5H134.4V111.4H134.5V111.5H134.4V111.6V111.7V111.8H134.5V111.7V111.6H134.6V111.5H134.7V111.4V111.3H134.8H134.9H135H135.1V111.2H135H134.9V111.1H134.8H134.7V111V110.9V110.8H134.8V110.7H134.9V110.8V110.9H135V111H135.1V111.1L135.2 111V110.9V110.8L135.3 110.7V110.6H135.4V110.7H135.5V110.6H135.6V110.5H135.7V110.4H135.8V110.3V110.2H135.7V110.1V110L135.8 109.9H135.9V109.8H136V109.7H136.1V109.6H136.2V109.5L136.3 109.3V109.2V109.1H136.4V109L136.5 108.9V108.8V108.7L136.6 108.6V108.5V108.4V108.3V108.2H136.5V108.1V108L136.4 107.9V107.8H136.3V107.6L136.2 107.5L136.1 107.2L136 107V106.9L135.9 106.8L135.8 106.6L135.7 106.5V106.4L135.6 106.3H135.5V106.2L135.4 106.1V106L135.2 105.8L135.1 105.6H135V105.5L134.9 105.4L134.8 105.3H134.7V105.2L134.6 105.1H134.5V105H134.4L134.3 104.9H134.2H134.1L134 104.8L133.9 104.9V105.1H133.8V105V104.8H133.9L133.8 104.7H133.7V104.6H133.8V104.5H133.7V104.4L133.6 104.3H133.5L133.4 104.2L133.3 104.1H133.2V104H133.1V103.9H133L132.9 103.8L132.7 103.7L132.6 103.6L132.5 103.5H132.4H132.3H132.2V103.4H132.1H132V103.3H131.9V103.2H131.8H131.7V103.1H131.6L131.4 103L131.2 102.9L131.1 102.8H131H130.9H130.7H130.6L130.4 102.7H130.2H130H129.7L129.4 102.8H129.3H129.2H129.1V102.9H129H128.9H128.8V102.8H128.7H128.6H128.5H128.3L128.2 102.7H128H127.8H127.5H127.3H127H126.8H126.7L126.5 102.8H126.4H126.3H126.2H126.1H126L125.8 102.9H125.7L125.6 103H125.5H125.4L125.3 103.1H125.2V103.2H125.1H125V103.3V103.4H124.9L124.8 103.5H124.7L124.6 103.6L124.5 103.7H124.4L124.2 103.8H124.1V103.9H124H123.9L123.8 104H123.7H123.6L123.4 104.1H123.3L123.1 104.2H123H122.9H122.8H122.6H122.5L122.4 104.3H122.3L122.1 104.4H122H121.9H121.8H121.7H121.6L121.5 104.5H121.4L121.2 104.6H121.1H121V104.7H120.7V104.8L120.5 104.9H120.3L120.1 105L120 105.1H119.9H119.8H119.7L119.6 105.2L119.3 105.3L119 105.4L118.7 105.5L117.7 105.8L117.6 105.9L117.4 106L117.1 106.1L116.4 106.4L116.1 106.6H116L115.7 106.7L115.3 106.9L115.1 107L114.9 107.2L114.8 107.3H114.7L114.6 107.4L114.5 107.5L114.3 107.6H114.2V107.7H114.1L114 107.8L113.9 107.9L113.8 108H113.7V108.1H113.6H113.5V108.2L113.3 108.3L113.2 108.5H113.1L113 108.6L112.9 108.7L112.7 108.9L112.6 109.1L112.4 109.3L112.2 109.4L112.1 109.6L111.9 109.8L111.8 110L111.6 110.1L111.5 110.4L111.4 110.5L111.2 110.8L111.1 110.9L110.9 111.2L110.8 111.5L110.5 111.8L110.4 112L110.2 112.3L110.1 112.5L110 112.7L109.8 113L109.7 113.3L109.5 113.5L109.4 113.8L109.3 114L109.2 114.2L109.1 114.3L109 114.5L108.9 114.7L108.8 114.8V114.9L108.7 115.1L108.6 115.4L108.5 115.5L108.4 115.6V115.7L108.3 116L108.1 116.2L108 116.4L107.9 116.6L107.8 116.7V116.8L107.7 116.9V117H107.6V117.2L107.5 117.3V117.4L107.4 117.5L107.3 117.6V117.7L107.2 117.8V117.9H107.1V118L107 118.1L106.9 118.3L106.8 118.5L106.7 118.6V118.7L106.6 118.8L106.5 118.9V119L106.4 119.1L106.3 119.3V119.4L106.1 119.6V119.7L106 119.9L105.9 120L105.8 120.1L105.7 120.3L105.5 120.5L105.4 120.6L105.3 120.8L105.2 121L105 121.2L104.9 121.3L104.8 121.6L104.7 121.7L104.5 121.9L104.4 122.1L104.3 122.2L104.1 122.4L104 122.6L103.9 122.8L103.8 122.9L103.6 123.1V123.2H103.5L103.4 123.3V123.4L103.3 123.5H103.2H103.1V123.4H103V123.3L102.8 123.2L102.7 123.1H102.6H102.5H102.4H102.3H102.2H102.1L102 123.2H101.9L101.8 123.3L101.7 123.4H101.6V123.5H101.5L101.4 123.6L101.3 123.7H101.2L101.1 123.8H101V123.9H100.9V124H100.8V124.1H100.7H100.6H100.5V124.2H100.4L100.3 124.1H100.2H100.1L100 124H99.9H99.8V123.9H99.9H100L100.1 123.8L100.2 123.7V123.6H100.3V123.5H100.4V123.6H100.5V123.7H100.6H100.7H100.8H100.9H101H101.1H101.2L101.3 123.6L101.4 123.5H101.5L101.7 123.4L101.8 123.2L101.9 123.1H102L102.1 123V122.9H102.2V122.8L102.3 122.6V122.5V122.4L102.4 122.3V122.2L102.5 122V121.9V121.7V121.5V121.4V121.2V121V120.9V120.7V120.6V120.5V120.4H102.4V120.3H102.5V120.4L102.6 120.5L102.7 120.7L102.8 120.8V120.9V121V121.1V121.2L102.7 121.1V121V120.9H102.6L102.7 120.8H102.6V120.7H102.7L102.6 120.6V120.7V120.8H102.5V120.9V121V121.1V121.2H102.6V121.3V121.4H102.7V121.5H102.8L102.9 121.6H103H103.1H103.2H103.3V121.7H103.4V121.6H103.5V121.5H103.6H103.7V121.4H103.8L103.9 121.3H104H104.1L104.2 121.2H104.3V121.1H104.4V121H104.5V120.9H104.6V120.8H104.7V120.7H104.8V120.6V120.5H104.9V120.4V120.3H105V120.4V120.5H104.9V120.6H105H105.1V120.5H105.2V120.4H105.3H105.4V120.3V120.2H105.5V120.1V120H105.6V119.9V119.8H105.7V119.9H105.8V119.8H105.9H106V119.7V119.6H106.1V119.5H106.2V119.4L106.3 119.3V119.2L106.4 119.1V119H106.5V118.9V118.8V118.7H106.6V118.6H106.7V118.5V118.4H106.8V118.3H106.9V118.2V118.1H107V118V117.9H107.1V117.8H107.2V117.7H107.3V117.6V117.5H107.2V117.4V117.3V117.2H107.3V117.3V117.4H107.4V117.3H107.5V117.2V117.1H107.6V117V116.9H107.7V116.8V116.7H107.8V116.6V116.5H107.9V116.4V116.3H108V116.2V116.1H108.1V116H108.2V115.9V115.8H108.3V115.7V115.6H108.4V115.5H108.5V115.4V115.3V115.2V115.1H108.6V115H108.7V114.9V114.8H108.8V114.7V114.6H108.9V114.5H109V114.4V114.3V114.2H109.1V114.1V114H109.2V113.9V113.8H109.3V113.7H109.4V113.6H109.3V113.5H109.4V113.4H109.5V113.3H109.6V113.2V113.1H109.7V113V112.9H109.6V112.8H109.5V112.7H109.4V112.6H109.3V112.5H109.2V112.4H109.1H109V112.3H108.9H108.8V112.2H108.7H108.6H108.5H108.4V112.3V112.4H108.5H108.6L108.7 112.5V112.6H108.8V112.7H108.9H109H109.1V112.8H109.2V112.9H109.3V113H109.4H109.5V113.1H109.6V113.2H109.5H109.4V113.1H109.3L109.2 113H109.1V112.9H109H108.9V113V113.1H109V113.2V113.3V113.4H108.9H108.8V113.3H108.7V113.2H108.6V113.3H108.5V113.4V113.5H108.4V113.6V113.7H108.5V113.8V113.9H108.6V114V114.1L108.7 114.2V114.3H108.6V114.4V114.5V114.6V114.7V114.8L108.5 114.9V114.8V114.7H108.4V114.6V114.5V114.4H108.3V114.3H108.4V114.2H108.3V114.1H108.2V114.2H108.1V114.3V114.4V114.5V114.6V114.7H108V114.8V114.9V115H108.1V115.1V115.2V115.3H108V115.4V115.5V115.6H108.1V115.7V115.8H108H107.9V115.9V116V116.1H107.8V116.2V116.3H107.7L107.8 116.2V116.1V116V115.9H107.9V115.8V115.7V115.6L108 115.5V115.4V115.3V115.2V115.1V115V114.9L107.9 114.8V114.7V114.6L107.8 114.5V114.4V114.3L107.7 114.2V114.1V114H107.6V113.9V113.8L107.5 113.7V113.6H107.4V113.5L107.3 113.3V113.2H107.2V113.1L107.1 113V112.9H107V112.8L106.9 112.7L106.8 112.6V112.5H106.7L106.6 112.4V112.3H106.5V112.2H106.4V112.1H106.3V112H106.2V111.9H106.1V111.8L106 111.7H105.9V111.6H105.8L105.7 111.5L105.6 111.4L105.5 111.3H105.4H105.3V111.2H105.2H105.1V111.1H105L104.9 111H104.8V110.9H104.7H104.6V110.8H104.5H104.4H104.3H104.2H104.1H104H103.9H103.8H103.7H103.6H103.5H103.4H103.3H103.2H103.1H103H102.9H102.8H102.7H102.6H102.5L102.4 110.9H102.3H102.2H102.1V111H102H101.9H101.8V111.1H101.7H101.6V111.2H101.5H101.4V111.3H101.3H101.2L101.1 111.4H101H100.9V111.5H100.8H100.7H100.6V111.6H100.5H100.4V111.7H100.3H100.2H100.1H100H99.9H99.8H99.7L99.6 111.6H99.5H99.4H99.3V111.5H99.2H99.1L99 111.4H98.9H98.8L98.7 111.3H98.6H98.5L98.4 111.2H98.3H98.2L98.1 111.1H98H97.9H97.8H97.7V111H97.6H97.5H97.4H97.3H97.2H97.1L97 110.9H96.9H96.8H96.7H96.6H96.5H96.4H96.3H96.2H96.1V111H96H95.9H95.8H95.7H95.6H95.5H95.4V111.1H95.3H95.2H95.1H95L94.9 111.2H94.8H94.7H94.6H94.5H94.4H94.3H94.2V111.3H94.1H94H93.9H93.8H93.7H93.6H93.5H93.4H93.3H93.2V111.4H93.1V111.3H93V111.4H92.9H92.8H92.7H92.6H92.5H92.4H92.3H92.2H92.1H92H91.9H91.8H91.7V111.5H91.6H91.5H91.4H91.3H91.2H91.1V111.6H91H90.9H90.8H90.7V111.7H90.6V111.8H90.5H90.4H90.3L90.2 111.9H90.1V111.8H90V111.9H89.9H89.8V112H89.7H89.6L89.5 112.1H89.4V112.2H89.3H89.2H89.1H89V112.3H88.9V112.4H88.8H88.7V112.5H88.6V112.6H88.5H88.4V112.7H88.3H88.2H88.1H88H87.9V112.8H87.8V112.9H87.7V113H87.6H87.5V113.1H87.4V113.2H87.3V113.3H87.2V113.4H87.1V113.5H87V113.6L86.8 113.7V113.8H86.7V113.9H86.6L86.5 114H86.4V114.1H86.3V114.2H86.2H86.1V114.3H86H85.9V114.4H85.8H85.7V114.5H85.6H85.5V114.6H85.4L85.3 114.7H85.2L85.1 114.8H85V114.9H84.9H84.8V115H84.7H84.6V115.1H84.5H84.4V115.2H84.3H84.2H84.1V115.3H84H83.9L83.8 115.4H83.7V115.5H83.6H83.5L83.4 115.6H83.3H83.2V115.7H83.1H83V115.8H82.9H82.8V115.9H82.7H82.6V116H82.5H82.4V116.1H82.3H82.2V116.2H82.1H82V116.3H81.9V116.4H81.8H81.7V116.5H81.6V116.6H81.5L81.4 116.7H81.3V116.8H81.2H81.1V116.9H81H80.9V117H80.8V117.1H80.7V117.2H80.6V117.3V117.4H80.5V117.5L80.4 117.6V117.7H80.3L80.2 117.9H80.1L80 118.1H79.9H79.8V118.2L79.7 118.3V118.4H79.6V118.5H79.5L79.4 118.6V118.7L79.3 118.8L79.2 118.9V119H79.1V119.1H79V119.2V119.3H78.9V119.4H78.8V119.5L78.7 119.6V119.7H78.6V119.8H78.5V119.9L78.4 120V120.1H78.3V120.2H78.2V120.3H78.1V120.4L78 120.5L77.9 120.6L77.8 120.7L77.7 120.9L77.6 121L77.5 121.1V121.2H77.4V121.3H77.3V121.4H77.2V121.5H77.1V121.6L77 121.7L76.9 121.8H76.8V121.9H76.7V122L76.6 122.1H76.5V122.2H76.4V122.3H76.3V122.4H76.2V122.5H76.1V122.6H76V122.7H75.9V122.8H75.8V122.9H75.7V123H75.6V123.1H75.5V123.2H75.4V123.3H75.3H75.2V123.4L75.1 123.5H75V123.6H74.9V123.7H74.8V123.8H74.7V123.9H74.6V124H74.5H74.4V124.1H74.3V124.2H74.2V124.3H74.1V124.4H74H73.9V124.5H73.8V124.6H73.7H73.6V124.7H73.5V124.8H73.4H73.3V124.9H73.2H73.1V125H73V125.1H72.9H72.8L72.7 125.2H72.6L72.5 125.3H72.4H72.3L72.2 125.4H72.1H72H71.9H71.8V125.5H71.7H71.6V125.6H71.5H71.4V125.7H71.3H71.2V125.8H71.1H71V125.9H70.9V126H70.8V126.1H70.7H70.6V126.2H70.5V126.3H70.4H70.3V126.4H70.2H70.1V126.5H70H69.9H69.8V126.6H69.7H69.6V126.7H69.5H69.4L69.3 126.8H69.2H69.1H69H68.9V126.9H68.8H68.7H68.6V127H68.5H68.4H68.3H68.2V127.1H68.1H68H67.9V127.2H67.8L67.7 127.3H67.6V127.4H67.5H67.4V127.5H67.3V127.6H67.2V127.7H67.1V127.8H67V127.9H66.9V128H66.8V128.1H66.7V128.2H66.6V128.3H66.5V128.4H66.4V128.5V128.6H66.3V128.7H66.2V128.8H66.1V128.9V129H66L65.9 129.2L65.8 129.3L65.7 129.4H65.6V129.5L65.5 129.6V129.7H65.4V129.8H65.3V129.9L65.2 130V130.1H65.1V130.2H65V130.3H64.9V130.4H64.8V130.5V130.6H64.7V130.7H64.6V130.8V130.9H64.5V131L64.4 131.1V131.2H64.3V131.3H64.2V131.4H64.1V131.5V131.6H64V131.7H63.9V131.8V131.9H63.8V132H63.7V132.1H63.6V132.2V132.3H63.5V132.4H63.4V132.5V132.6H63.3V132.7H63.2V132.8L63.1 132.9L63 133V133.1H62.9V133.2L62.8 133.3V133.4H62.7V133.5L62.6 133.6V133.7H62.5V133.8H62.4V133.9V134H62.3V134.1H62.2V134.2V134.3H62.1V134.4H62V134.5V134.6H61.9V134.7L61.8 134.8V134.9L61.7 135V135.1L61.6 135.2V135.3L61.5 135.4V135.5L61.4 135.6V135.7H61.3V135.8H61.2V135.9V136H61.1V136.1L61 136.2V136.3H60.9V136.4H60.8V136.5V136.6H60.7V136.7V136.8H60.6V136.9V137H60.5V137.1L60.4 137.2V137.3H60.3V137.4V137.5H60.2V137.6L60.1 137.7V137.8H60V137.9H59.9V138H59.8V138.1H59.7V138.2H59.6V138.3H59.5V138.4L59.4 138.5V138.6L59.3 138.7V138.8H59.2V138.9L59.1 139V139.2H59V139.3V139.4H58.9V139.5V139.6H58.8V139.7L58.7 139.8V139.9L58.6 140L58.5 140.2L58.4 140.4L58.3 140.6L58.2 140.5H57.9L57.6 140.3L57.1 140.1L56.8 139.9L56.4 139.7L55.1 139.1L54.6 139L53.9 138.8L53.3 138.6L52.8 138.4L51.5 138.1L51 138L49.8 137.8L49.5 137.9H49.3H49.2H48.8H48.6L48 138L47.9 137.6V137.4V137.1V137L47.8 136.6V136.2H47.7V136V135.9L47.8 135.8L47.7 135.6V135.5L47.6 135.4V135.3V135.1V134.9L47.5 134.6V134.3V134.2V133.9L47.3 132.7L47.2 132.5L47.7 132.4H47.8L47.9 132.2L47.8 132V131.6L47.7 130.9V130.8L47.6 130.1V129.7V129.3L47.5 128.9V128.8H47.4V128.5L47.3 128.1L47.2 127.3V127.1V127L47.1 126.3V126V125.8L47 125.4V124.7H46.9L46.3 124.8H46.1L45.5 124.9H45.4L45.3 124.8H45.1L44.7 124.6V124.5H44.5L43.6 124L43 123.7L42.4 123.4L42.3 123.3H42.2V123.2L41.9 123.1H41.8H41.7V123V122.9V122.8V122.7L41.6 122.4V122.5H41.4L40.8 122.6L40 122.7L38.9 122.8L38.8 122.9V122.8L38.6 121.8V121.5L38.5 120.7L38.6 120.6H38.9H39V120.3L38.9 119.3L38.8 118.8V118.7H38.6H38.3L38 118.8L35.9 119.1L34 119.4H33.9L32 119.7V119.6V119.3L31.9 118.8H31.8L31.7 118.1L31.6 117.2L31 117.3L30.3 117.4L30.2 116.9L29.8 114.5L31.2 114.2L32 114L31.9 113.5V113.1V112.9L31.8 112.6V112.5V112.3L31.7 111.8V111.5V111.3V111.2L31.6 111.1V110.9V110.6L31.5 110.5V110.1V109.9L31 110H30.9L30.2 110.1L29.1 110.2V110.3H28.7L28.4 110.4H28.3V110.2V110L28.2 109.3L27.6 109.4H27.5L26.2 109.6H26H25.7V109.5L25.6 108.4L25.5 108V107.9L25.4 106.9L26.5 106.8L26.8 106.7H27.2L27.1 106V105.7L28 105.6L29 105.4H29.4L30.6 105.2H30.9V104.5L31.4 104.4H31.6H31.7V103.5V102.7H32.6L32.5 102.2L32.4 102L32.3 101.1V101V100.9L32.2 100.6V100.4V100.3L32.1 100.1V100V99.9V99.8V99.7V99.6L32.7 99.5L34.5 99.3L35 99.2H35.1L34.9 98.9H34.8V98.4L34.7 97.8V97.4L34.6 96.6L34.5 96.1L34.4 95.3V95.2L33.9 95.3L32.5 95.4H31.8V95.3V95.2L31.7 94.8V94.3L31.6 93.5L31.5 93.1V92.7L31.3 91.4L31.1 90.2L31 89.4H30.8L30.6 89.5H30.2L29.6 89.6L29.2 89.7L28.6 89.8H28.5V89.7L28.4 88.9L28.2 88.1L27.6 88.2L26.8 88.3L26.2 88.4L26.1 88.5H25.8H25.3L25.2 87.7L25.1 87.2V87H24.8L24.6 87.1H24.5L24.1 87.2V87.1L24 86.6L23.9 85.6L23.8 85.3L23.7 84.7V84.6H23.6L22.5 84.7L22.4 84.5V84L22.3 83.4L22.2 82.7V82.6L21.9 80.2L21.7 79.1V79H21.8V78.7H21.7H21.6H21.3H21.1L20.9 78.8H20.8H20V78L19.9 77.8L19.8 77.1L19.6 75.7L19.4 74.1V73.9V73.8L19.3 73.5V73.4L19.2 72.6L19 71.5L18.9 70.9L18.8 70.3V70.2L18.7 69.3L18.6 68.3L18.8 68.2H19.1H19.2L19.3 68.1H19.4H19.6H19.7L19.8 68H19.9H20H20.1V67.9L20.3 68H20.4L20.6 67.9V67.7L20.5 67.5V67.1L20.4 66.9V66.7H20.2L20.1 66.3V66.1L20 65.7V65.5L19.8 65.6L19 65.7L18.5 65.8L18.3 65.1L18.2 64.1L18 63.2H18.2L18.8 63.1H18.9L19.2 63H19.5H19.6H19.7L19.8 62.9H19.9L19.8 62.8V62.7V62.6V62.5H19.7L19.6 62.4H19.5H19.4L19.5 62.3V62.2V62.1H19.6V62V61.9H19.7L19.8 61.8H19.9V61.7L19.8 61.6H19.7H19.6H19.5H19.4H19.3H19.2V61.5V61.4H19.1V61.5H19V61.6L18.9 61.7V61.8H18.8L18.7 61.9H18.6H18.5L18.4 62H18.3H18.1L17.3 62.1L16.8 62.2L16 62.4L14.7 62.6L14.9 63.5L15 64.3H14.8L14 64.4L14.1 65.3H13.9L13.2 65.4L12.9 65.5H12.8H12.7H12.6H12.5L12.4 65.4L12.1 65.1L11.9 64.8H11.7H11.6L11.4 64.9H11L10.7 65H10.5L10.4 65.1L10.2 65.3L10.1 65.5L9.79999 65.9L9.29999 66.5V66.6L9.09998 66.5L9 66.4H8.90002V66.3H8.79999V66.2H8.70001V66.3L8.59998 66.2V66.1V66V65.9V65.8V65.7L8.5 65.5L8.40002 65V64.5L8.29999 64.1L8.20001 63.5L8.09998 63.2V62.8L8 62.5L8.09998 62.4V62.3L7.90002 61.5L7.79999 60.7L7.59998 59.8L7 59.9V59.8L6.79999 58.8L6.59998 57.8L6.5 57.5L6.79999 57.2L6.5 55.8L6.40002 55.6V55.5V55.4V55.3L6.29999 54.9L6.20001 54.7L6.09998 54.3L5.79999 53.9L5.5 53.5L5.20001 53.2L4.79999 52.9L4.29999 52.6L3.20001 52.1L3 52L2.79999 51.9H2.70001V51.8H2.5L2.09998 51.6L0.900024 51.1Z" fill="#6F9C76"/>
<path d="M105.9 118.8H106V118.7V118.6H105.9V118.7M105.9 118.8V118.7M105.9 118.8H105.8M105.9 118.7H105.8V118.8M105.8 118.8V118.9M105.8 118.9V119V119.1H105.7V119V118.9H105.8ZM133.8 112.5H133.9M133.8 112.5V112.6M133.8 112.5H133.7M133.9 112.5V112.6M133.9 112.5H134M133.9 112.5V112.4H134V112.3V112.2L134.1 112.1V112V111.9V111.8H134.2M133.8 112.6H133.7M133.8 112.6H133.9M133.7 112.6V112.5M133.7 112.6V112.7V112.8H133.6M133.7 112.5H133.6M133.7 112.5V112.4V112.3H133.6M133.6 112.5V112.6V112.7H133.5M133.6 112.5V112.4M133.5 112.7V112.8M133.5 112.7H133.4M133.5 112.7V112.6H133.4H133.3V112.5H133.4H133.5V112.4M133.5 112.8H133.6M133.5 112.8V112.9M133.6 112.8V112.9V113H133.5V112.9M133.5 112.9H133.4V112.8V112.7M133.4 112.7H133.3V112.8H133.2L133.1 112.9V112.8M133.5 112.4H133.6M133.5 112.4H133.4V112.3H133.5H133.6M133.6 112.4V112.3M133.6 112.3V112.2H133.7V112.1H133.8V112M133.4 111.4H133.5V111.3H133.4V111.4ZM133.4 111.4V111.5V111.6M135.3 110.3V110.4V110.5H135.4V110.4V110.3M135.3 110.3H135.4M135.3 110.3V110.2M135.4 110.3V110.2M135.4 110.3H135.5V110.2M135.4 110.2H135.5M135.4 110.2H135.3M135.5 110.2V110.1H135.6M135.5 110.2H135.6V110.1M135.6 110.1H135.7M135.3 110.2V110.1H135.2M135.3 110.2H135.2M135.2 110.2V110.1M135.2 110.2V110.3V110.4L135.1 110.5M135.2 110.2H135.1V110.3V110.4V110.5M135.2 110.1V110V109.9V109.8M135.1 110.5H135.2V110.6L135.1 110.5ZM135.2 109.8V109.7V109.6M135.2 109.8V109.6M135.2 109.6V109.5M135.2 109.5V109.4V109.3V109.2M135.2 109.5L135.3 109.3V109.2H135.2M135.2 109.2V109.1V109V108.9V108.8H135.3M135.2 109.2L135.3 109V108.9V108.8M135.3 108.8V108.7M135.3 108.7V108.6V108.5M135.3 108.7L135.4 108.6V108.5M135.3 108.5H135.4M135.3 108.5V108.4M135.4 108.5V108.4M135.4 108.5L135.5 108.4H135.4M135.4 108.4V108.3H135.3V108.4M135.4 108.4H135.3M40.8 42.5L40.7 42.4H40.6V42.5V42.6H40.7V42.7H40.8L40.9 42.8H41V42.9V43L41.1 43.2L40.9 43.3H40.8H40.6V43.4H40.9H41.1H41.2H41.3V43.5V43.6H41.4V43.7H41.5L41.6 43.9L41.4 44L41.2 44.1H41.1V44.2H41V44.3H41.1L41.5 44.1V44H41.6H41.7H41.8H41.9V44.1L42.1 44.3L42.2 44.5V44.7L42.4 45L42.5 45.4V45.5V45.6V45.7V45.8V45.9L42.4 46.1L42.3 46.3L42.1 46.6L42 46.8L41.8 46.9L41.6 47.1L41.5 47.2L41.3 47.3L41.1 47.4H41L40.7 47.6H40.6H40.5L40.3 47.7L39.8 47.8L39.4 48L39 48.1L38.6 48.2H38.2L38.1 48.3H37.9H37.6H37.4H37.3L37 48.1L36.5 47.9L36.3 47.8L36 47.7L35.9 47.6H35.8L35.6 47.4L35.1 47.1L34.8 46.9H34.7L34.4 46.8L34 46.6H33.6H33.5H33.1L32.4 46.5H31.6H31.5H31.3H31.1L30.7 46.4L30.2 46.2H30.1L29.6 46L28.9 45.7L28.6 45.6L28.1 45.4L27.7 45.2H27.4L26.8 45L26.3 44.9L25.8 44.8H25.5H25.3H24.7H24.4L24.2 44.7H23.6H23.2L22.7 44.8H22.6L22.3 44.9L21.6 45L21.5 45.1L20.8 45.3L20.5 45.4L20.2 45.5L19.9 45.7L19.7 45.8L19.3 46L19 46.1V46.2L18.8 46.3L18.6 46.4L18.4 46.6L18.2 46.7L18 46.8L17.9 46.9H17.8L17.6 47H17.4H17.3L17 47.1H16.8H16.7H16.4H16.2H16.1H15.9H15.8H15.4H15.2L15 47.2H14.9H14.8H14.6H14.5L14.4 47.3H14.3H14.1H14H13.9L13.6 47.4H13.3L13 47.5H12.9H12.8H12.7L12.4 47.6H12L11.5 47.7L11.3 47.8H11.1H10.9H10.5H10.4L10.2 47.9H10H9.70001H9.59998H9.5H9.40002H9.20001L8.90002 48L8.70001 48.1H8.59998L8.29999 48.2L8.09998 48.4L7.79999 48.5L7.59998 48.6L7.40002 48.7L7.29999 48.8H7.20001V48.9L6.90002 49L6.70001 49.2L6.59998 49.3L6.40002 49.4H6.29999L6.20001 49.5L6 49.6L5.70001 49.8H5.59998L5.29999 49.9L5 50.1H4.70001L4.40002 50.2L4.29999 50.3H4.09998L3.70001 50.4H3.59998L3.29999 50.5H3.20001L2.90002 50.6H2.70001V50.7H2.59998H2.5H2.29999L2 50.8L1.79999 50.9L1.40002 51H1.09998L0.900024 51.1L2.09998 51.6L2.5 51.8H2.70001V51.9H2.79999L3 52L3.20001 52.1L4.29999 52.6L4.79999 52.9L5.20001 53.2L5.5 53.5L5.79999 53.9L6.09998 54.3L6.20001 54.7L6.29999 54.9L6.40002 55.3V55.4V55.5V55.6L6.5 55.8L6.79999 57.2L6.5 57.5L6.59998 57.8L6.79999 58.8L7 59.8V59.9L7.59998 59.8L7.79999 60.7L7.90002 61.5L8.09998 62.3V62.4L8 62.5L8.09998 62.8V63.2L8.20001 63.5L8.29999 64.1L8.40002 64.5V65L8.5 65.5L8.59998 65.7V65.8V65.9V66V66.1V66.2L8.70001 66.3V66.2H8.79999V66.3H8.90002V66.4H9L9.09998 66.5L9.29999 66.6V66.5L9.79999 65.9L10.1 65.5L10.2 65.3L10.4 65.1L10.5 65H10.7L11 64.9H11.4L11.6 64.8H11.7H11.9L12.1 65.1L12.4 65.4L12.5 65.5H12.6H12.7H12.8H12.9L13.2 65.4L13.9 65.3H14.1L14 64.4L14.8 64.3H15L14.9 63.5L14.7 62.6L16 62.4L16.8 62.2L17.3 62.1L18.1 62H18.3H18.4L18.5 61.9H18.6H18.7L18.8 61.8H18.9V61.7L19 61.6V61.5H19.1V61.4H19.2V61.5V61.6H19.3H19.4H19.5H19.6H19.7H19.8L19.9 61.7V61.8H19.8L19.7 61.9H19.6V62V62.1H19.5V62.2M40.8 42.5V42.4H40.9V42.5M40.8 42.5H40.9M40.9 42.5V42.6H41L41.1 42.5V42.4L41.2 42.3V42.2H41.1V42.1L41.2 42V41.9H41.3L41.4 41.8H41.3V41.7L41.2 41L41 39.9L40.9 39.3L40.1 39.4L39.9 38.4L39.8 37.8L39.7 37.2L39.5 36.4L40.3 36.3L41.1 36.1L41 35.1L40.9 34.6L40.7 33.6H40.8L41.5 33.5H42.1L41.9 32.4H42.1L42 31.5L42.5 31.4L42.3 30.3L42.2 30L42.1 29.3V29.2L40.9 29.5L39.8 29.8H39.6L38.9 29.9L38.8 29.2L38.6 28.2L38.5 27.3L38.3 26.5L38.2 25.5L38.3 25.4L38.4 25.3L38.6 25.2L38.8 25.1L39.1 24.9L39.3 24.8L39.4 24.7V24.4L39.3 24.3V24.2V23.9L39.2 23.5L39.1 23L38.3 23.1H38.2H38.1H38H37.9H37.8L37.7 22.9V22.6V22.4L37.6 22.3V22L37.5 21.8V21.5V21.3V21.2L37.4 21.1V21V20.9H37.3H37.2H37.1L37 21H36.9H36.8V21.1H36.7V21.2H36.6V21.3H36.5V21.4H36.4V21.5H36.3V21.6H36.2L36.1 21.7H36H35.9H35.8L35.7 21.8H35.6H35.5V21.9H35.4L35.3 22H35.2V22.1H35.1H35V22V21.9V21.8V21.7V21.6H34.9V21.5V21.4L34.8 20.9V20.8L34.7 20.3L34.6 19.7L34.4 18.8L34.3 18.5V18.3L35.1 18.1H35.3H35.5L35.9 18H36.1L36.3 17.9H36.5H36.6L36.9 17.8L36.8 17.3L36.7 17V16.6L36.9 16.5H37.1L37.7 16.3H38.1V16.5L38.2 16.8L38.3 17.3L39.3 17.1L40.1 16.9H40.2L40.1 16.7L39.9 16.4L39.8 15.4L39.7 15.2V15.1H39.9L39.7 14.4V13.9L39.6 13.7L39.5 13L38.2 13.1L37.7 13.2L37.6 12.9L37.5 12.4L37.4 11.8V11.7L37.3 11.2L37.1 10.7L36.5 10.9V10.7V10.2V10.1L36.4 9.39999L36.3 8.89999V8.60001L36.2 8.20001L36.3 8.10001L38 7.79999L37.8 6.70001L37.6 5.5L37.4 4.39999L37.3 3.79999L37.2 3.39999V3L37.1 2.39999L37 1.89999L37.3 1.79999H38.1L38.3 2.29999L40 2L40.2 3.20001L39.8 3.29999V4.10001L40 5L40.8 4.89999V5.10001L41.2 5L42.2 4.79999L43.6 4.60001L43.7 4.79999V4.89999V5.10001L44 5H44.1V4.89999H44.2H44.3H44.4L44.5 4.79999H44.6H44.7H44.8H44.9H45H45.1V4.70001H45.2H45.3V4.60001H45.4H45.6H45.7L46.1 4.5L46.2 4.39999H46.3V4.29999V4.10001V4L46.4 3.89999L46.5 3.79999V3.60001L46.7 3.39999L47 3.10001L47.1 2.89999L47.3 2.79999L47.4 2.70001H47.5H47.7H47.9H48H48.2L48.3 2.60001H48.4L48.6 2.5H48.7L48.8 2.29999L49 2.20001H49.1L49.3 2.10001L49.6 2H49.7H50.1H50.3H50.4L50.8 2.10001H50.9H51.2L51.5 2.20001H51.8H51.9H52.1H52.5H52.6L52.8 2.10001H52.9L53.1 2H53.2L53.4 1.89999L53.6 1.79999H53.7V1.70001L54.1 1.29999H54.2H54.3H54.5H54.8H55H55.2L55.3 1.20001H55.4H55.5L55.6 1.29999L55.7 1.39999L55.8 1.5H55.9L56.2 1.70001H56.4H56.5H56.6L57 1.60001L57.4 1.5L57.6 1.39999L57.8 1.20001L58 1.10001H58.2H58.5H58.6L58.9 1H59.1L59.3 1.10001H59.4L59.5 1.20001H59.6L59.9 1.39999L60.1 1.60001L60.2 1.70001L60.4 1.89999L60.6 2H60.7L60.8 2.10001H61L61.1 2.20001V2.29999L61.2 2.39999V2.5H61.3L61.4 2.60001H61.5V2.5H61.6V2.60001H61.7H61.8M61.8 2.60001V2.70001M61.8 2.60001H61.9V2.70001H62H62.1M62.1 2.70001V2.79999M62.1 2.70001H62.2V2.79999H62.3V2.70001H62.4H62.5M62.5 2.70001V2.79999M62.5 2.70001H62.6M62.6 2.70001V2.79999M62.6 2.70001H62.7V2.79999H62.8H62.9V2.89999H63H63.1H63.2H63.3V3H63.4H63.5V2.89999H63.6M63.6 2.89999V2.79999M63.6 2.89999H63.7V3H63.8H63.9V3.10001H64V3.20001H64.1H64.2V3.29999H64.3H64.4H64.5V3.20001H64.6V3.29999V3.39999H64.7V3.5H64.8H64.9H65H65.1H65.2M65.2 3.5H65.3M65.2 3.5V3.60001H65.3L65.5 4.29999H65.7L66.7 4.20001H66.8L66.9 4.10001H67H67.1H67.2V4.20001H67.3H67.4H67.5H67.6V4.29999H67.7H67.8L67.9 4.39999H68L68.1 4.5H68.2H68.3H68.4L68.5 4.60001M68.5 4.60001V4.5M68.5 4.60001H68.6V4.70001H68.7H68.8H68.9H69L69.1 4.60001H69.2H69.3H69.4H69.5V4.5H69.6V4.60001H69.7H69.8H69.9H70H70.1H70.2V4.70001H70.3H70.4H70.5V4.79999V4.89999L70.7 6.10001V6.29999L71.2 6.10001L72.3 5.5L73.1 5.10001L73.7 4.79999L73.8 4.70001L74.5 4.29999L75.1 4L75.2 3.89999L75.5 3.79999L76.3 3.29999L77.3 2.79999L78 2.39999L79 1.79999H79.1V1.70001H79.3L79.4 1.60001L79.6 1.5L79.8 1.29999L80 1.70001V1.79999L81.1 3.60001L81.2 3.70001L81.3 3.89999V4L81.5 4.20001L81.8 4.70001L81.9 4.60001H82.2H82.5L82.4 4.5H82.5H82.6H82.7H82.8H83L83.1 4.60001H83.2H83.3H83.4H83.5V4.70001H83.6L83.7 4.79999H83.8V4.70001H83.9H84H84.1H84.2L84.3 4.60001H84.4H84.5V4.5H84.6L84.7 4.39999H84.8V4.29999H84.9L85 4.39999V4.70001L85.2 5.29999L85.5 6.89999L86 6.79999L87.9 6.39999L88.2 6.29999L88.4 6.20001H88.6L90.1 5.89999L90.8 5.70001L91 5.60001L91.4 5.5L92.4 5L92.7 4.89999L92.9 4.79999H93L93.1 4.70001V4.79999H93.2H93.3V4.89999H93.4H93.5V5V5.10001V5.20001V5.29999V5.39999H93.6H93.7H93.8V5.29999H93.9V5.39999H94V5.5V5.60001H93.9V5.70001V5.79999H94V5.89999H93.9V6H93.8H93.7H93.6H93.5V6.10001H93.4V6.20001H93.3V6.29999H93.2V6.39999V6.5H93.3V6.60001V6.70001H93.4V6.79999V6.89999V7V7.10001L93.3 7.20001V7.29999V7.39999H93.4H93.5V7.29999H93.6V7.20001V7.10001H93.7H93.8V7.20001H93.9L94 7.29999V7.39999H94.1V7.5H94.2L94.1 7.60001H94H93.9H93.8V7.70001V7.79999H93.7V7.89999L93.6 8V8.10001V8.20001V8.29999H93.5V8.39999V8.5V8.60001H93.6L93.9 8.5H94L94.3 8.39999L94.9 8.20001L95.6 8L97.4 7.5L97.6 8.39999H97.5L97.7 8.79999L98 10L96.5 10.5V10.6L96.8 11.6H96.9H97H97.1H97.2L97.3 11.7H97.4H97.7V11.8H97.8L97.9 11.9L98 12.5L98.1 13.2L98.3 13.9V14L98.1 14.1L97.7 14.2L97.1 14.5L97.3 15H97.4L98.4 14.5L98.5 15L98.6 15.5L98.7 16L98.9 16.4L99 16.9V17.1L99.1 17L99.8 16.6L99.9 16.5L100.2 16.3L100.4 16.5L100.8 17.3L100.3 17.6L100.6 18.2L101.2 19.3L100.9 19.4L101.3 20.1L101.2 20.3V20.4L101.1 20.5V20.6H101L100.8 21.1V21.2V21.3L100.7 21.4V21.5L100.6 21.6V21.7V21.8H100.7V21.9L100.8 22.1L100 22.2L99.1 22.3L99 21.9L98.9 21.1L98.8 20.8V20.7H98.5L97.5 20.9L97.6 21.8L98.2 21.9L98.3 22.4L98.4 23.1V23.3H98.5H98.6H98.7H98.8H98.9H99H99.1L99.2 23.2H99.3H99.4H99.5H99.6H99.7H99.8V23.8V23.7H100.4L101.2 23.5L102.5 23.3H103L103.3 23.2H103.4H103.8L103.7 22.9V22.6H104L104.4 22.5H104.5H104.6H104.7V22.6V22.7V22.8H104.6V23V23.1V23.2L104.4 23.5V23.6L104.3 23.7L104.2 23.8V23.9V24V24.1H104.3V24.2H104.4V24.1H104.5V24.2V24.3H104.6V24.4H104.7V24.5H104.8H104.9H105H105.1H105.7H106.8L107.6 24.4H108.1L108.2 24.6L108.3 24.8L108.5 25.2L108.6 25.4V25.6V25.8L109.1 25.7L109.8 25.6V25.7L110.7 25.5H111.2L111.4 25.4H111.5V25.3H111.4V25.2V25.1H111.5V25V24.9H111.4H111.3V24.8V24.7H111.4V24.6H111.3V24.5H111.2V24.4L111.1 24.3H111V24.2V24.1L111.1 24H112.1H112.7L113.3 24.1H113.6L113.7 24.5V24.6V24.7H113.8H113.9H114H114.2H114.4L114.6 24.6H114.7H114.8H114.9V24.7H115H115.1H115.2L115.3 24.8H115.4L115.5 24.9H115.6H115.7L115.8 24.8H115.9H116H116.2H116.3V24.9H116.7H116.8H116.9V25H117L117.2 25.1H117.3H117.4H117.5H117.9H118.3H118.4H118.6H118.7H118.9L119.5 25L120 24.9L120.6 24.8H120.7H121.1V24.6L121 24.4V24.3V24.2L121.6 24.1L121.7 24L122.6 23.8L123.2 23.7L123.4 23.6L123.8 23.5L124.2 23.4L124.6 23.3H124.7H124.8V23.2H124.9L125.2 23.1V23.2L125.3 23.6L125.4 23.9L125.3 24.4L125.1 25L125 25.4V25.6H124.9V25.7H124.7H124.4V25.8V26V26.7V27.2V27.7V28L124.6 28.1H124.7H124.8H125L125.2 28L126.2 27.9L126.6 27.8H126.7H126.8L127.8 27.6L128.2 27.5L128.6 27.4V27.6L128.8 28.3V28.6V28.9L128.9 29L129 29.8V30V30.1V30.2V30.4L129.1 30.7V30.8V31.1L129.2 31.6L129.3 32.1H129.7L130 32L130.2 32.9L130.3 33.4L130.4 34L130.5 34.5V34.9V35L130.6 35.2V35.4L130.7 35.8V36.1L131.3 36L131.7 35.9H131.9H132.3L133.1 35.8L133.6 35.7H134L134.2 35.6H134.4H134.6V35.7V35.8H134.7V35.9H134.6H134.5V36H134.4V35.9H134.3H134.2V36V36.1L134.1 36.2V36.3H134.2L134.3 36.4V36.5H134.2V36.6V36.7H134.1M134.1 36.7V36.6M134.1 36.7H134V36.8H134.1V36.9H134L133.9 36.8M133.9 36.8V36.7H133.8V36.8H133.9ZM133.9 36.8V36.9V37V37.1H133.8H133.7V37L133.5 36.9V36.8L133.3 36.9H133.1H133H132.9H132.7V37.1H132.8V37.3L131.8 37.4L130.9 37.5L131 37.8L131.1 38.5V38.6L131.2 39V39.2L131.3 39.6L132 39.5L133 39.4H133.3H133.4L133.3 39.5V39.6V39.7V39.9V40V40.1V40.2L132.7 40.3H132.5H132.3L132.4 41L132.5 41.4H132.9H133.3H133.2V41.5V41.6V41.7V41.8V41.9H133.3L133.4 41.8H133.5L133.8 41.6L134.4 41.3L134.8 41.1L135.3 40.8L135.7 40.6L136 40.4L136.2 40.3L136.4 40.2H136.5L136.6 40.1L136.7 40.3L137 40.8L137.2 41.3L137.3 41.4L137.5 41.8L137.8 42.3L137.9 42.6L138.1 42.9L138.3 43.2L138.5 43.6L138.7 44L139 44.5L139.2 44.8L139.5 45.5L139.8 46H139.9L140.3 45.6L140.8 45.1H140.9L141.4 44.6L142.4 43.7L143.5 45.4L144.2 44.9L144.6 45.5V45.6H144.7L145.2 46.5H145.3L146 45.7L146.2 45.5H146.3L146.4 45.7L146.5 45.8L146.7 46V46.1L146.9 46.5L147.1 46.7L147.2 46.9L147.4 47.2L147.8 48L148 48.3L148.7 49.5L148.9 49.8V49.9H149L149.1 50L149.4 49.7L150 50.2L151.2 51.3L151.6 51.7H151.7V51.8L152.5 52.3L152.8 52.6L153 52.7L153.1 52.8L153.2 52.6V52.5L153.3 52.4L153.9 51.3V51.2L154.2 50.6L154.7 50.8L154.9 50.9L155.1 51L154.8 51.4V51.5L154.7 51.7H154.8H155.4H155.5H155.6L155.7 51.9H155.8V51.7H156.2H157.5V51.8L157.3 52.4L157.2 52.5V52.6H157.3L157.4 52.7L157.5 52.8V53.2L157.3 53.5V53.7L157.2 53.8L157.1 54.1H156.9L156.7 54.5L156.6 54.8V54.9L156.3 55.6L156.2 55.9L156.1 56.1L155.8 56.7L155.7 57.1L155.5 57.6L155.4 57.9L155 58.9L155.2 59.5L155.3 59.9L155.4 60.1L154.5 60.6L153.8 61L153.3 61.2L153.1 60.5L152.9 59.6V59.5L152.7 59.1V59L152.6 58.9V58.8L152.5 58.5H152.4L152.3 58.4V58.3H152.2H152.1L151.8 58.4H151.7L151.4 58.5L150.6 58.7H150.5L150.8 59.4L151 60.1L151.2 60.7L151.3 61.3L150.7 61.6L150.5 61.7L149.8 62.1L150 62.4L149.5 62.6H149.2V62.7L149.3 62.8L149.2 63H149.3V63.2L148.4 63.6L147.9 63.9L147 64.3H146.9V64.2H147V64.1V64V63.9H146.9V63.8V63.7V63.6H146.8M146.8 63.6V63.7M146.8 63.6H146.7V63.5H146.6V63.4V63.3H146.5V63.2L145.6 63.3H145.1H145H144.9L144.3 63.4H143.6H143.2L142.8 63.5H142.6H142.5L142.4 62.8H141.6L141.5 62.9H141.4L141.6 63.7V63.8L141.8 64.5L141.9 64.8V65L142 65.2V65.3V66L142.1 66.4L142.2 66.8V67.2V67.4V67.5L142.3 67.7L142.4 68.7L142.6 69.4V69.5V69.6H142.7H142.9L143 69.8V70L143.1 70.4V70.6L143.2 70.9V71.2L143.3 71.5V71.6H143.1L141.9 71.7H141.7V71.2L140.5 71.3H140.2H139.3H139.2L139.3 71.5L139.6 71.7H139.5H139.4H139.3V71.8H139.1H138.6H138.5H138.3H138.1H137.8L137.9 71.9H138V72H137.9V72.1V72.2H138V72.3H138.1V72.4V72.5L138.2 72.6H138.3V72.7V72.8H138.4V72.9H138.5H138.6H138.7V73L138.8 73.1H138.9V73.2H139V73.3V73.4V73.5H139.1V73.6H139.2H139.3V73.5V73.4H139.4V73.5H139.5V73.6V73.7H139.4V73.8H139.5V73.9H139.6H139.7H139.8V73.8H139.9L140 73.7H140.1H140.2V73.8L140.3 73.9H140.2V74H140.3H140.4V74.1H140.5V74.2H140.4V74.3H140.5V74.4H140.6H140.7V74.3H140.8H140.9V74.2V74.1V74H141V73.9H141.1V73.8H141.2V73.9V74H141.3M141.3 74V73.9L141.4 74M141.3 74H141.4M141.4 74V74.1V74.2H141.3V74.3V74.4V74.5V74.6V74.7H141.4V74.6H141.5H141.6V74.5H141.7V74.4H141.8V74.3H141.9H142V74.4V74.5V74.6V74.7L142.1 74.8V74.9H142.2L142.3 74.8V74.7H142.4H142.5H142.6V74.8H142.7V74.9V75V75.1H142.8H142.9V75.2V75.3V75.4V75.5H143H143.1H143.2H143.3V75.6V75.7V75.8H143.4V75.9H143.5H143.6V76H143.7V76.1H143.8V76.2M143.8 76.2H143.9M143.8 76.2V76.3V76.4H143.7V76.5V76.6H143.8H143.9L144 76.7V76.8H144.1V76.9H144.2V77L144.1 77.1V77.2H144.2L144.3 77.3H144.4H144.5H144.6M144.6 77.3V77.2M144.6 77.3H144.7V77.4H144.8V77.3H144.9V77.2V77.1H145V77H145.1H145.2V77.1H145.3V77.2V77.3V77.4H145.2V77.5H145.3V77.6V77.7H145.2V77.8V77.9V78V78.1H145.3V78.2H145.4H145.5L145.6 78.1H145.7V78.2V78.3V78.4V78.5V78.6H145.6V78.7V78.8H145.5V78.9H145.4H145.3V79V79.1V79.2H145.4V79.3H145.5H145.6V79.2H145.7V79.3H145.8V79.4H145.7V79.5H145.6V79.6V79.7V79.8H145.7H145.8V79.9V80H145.7V80.1V80.2H145.6V80.3H145.5H145.4H145.3V80.4H145.2H145.1H145H144.9V80.5H144.8V80.6H144.7H144.6H144.5V80.7H144.6L144.7 80.8H144.8V80.9H144.9L145.1 81L145.2 81.1H145.3H145.4L145.6 81.2L145.7 81.3L146 81.4L146.3 81.6L147 81.9L147.5 82.1L147.9 82.3L148.5 82.6L148.7 82.8L148.9 82.9L149.3 83L149.4 82.9V82.8L149.5 82.7L149.6 82.6L150.1 82.2L150.4 82.4L150.8 82.9L151.1 83.2L151.4 83.6L151.5 83.7L151.2 84L150.9 84.4L150.3 85.1L150.1 85.4L149.8 85.9L149.7 86L149.9 86.2L150.4 86.5L150.5 86.6L150.7 86.7L151 87L151.5 87.3L152 87.7H152.1L152.2 87.8L152.3 87.9L152.2 88L152 88.2L151.8 88.3L151.5 88.6L151.3 88.7L150.9 89L150.3 89.5L149.9 88.9H149.8L149.3 89.3L149 89.6L148.4 90.1L148.2 90.3L147.7 90.7H147.6L147.5 90.8L147.1 91.1L146.9 91.4H146.8L146.4 91.8L146.3 91.9L146.7 92.4V92.5H146.8L146.9 92.7L147 92.8L147.1 93V93.1L147.2 93.2L147.4 93.5L147.7 94L147.9 94.4L148.3 95V95.1V95.2H148.2H148.1L148 95.3H147.9V95.4H147.8L147.7 95.5H147.6V95.6H147.5V95.7H147.4L147.3 95.8H147.2V95.9H147.1V96H147V96.1H146.9H146.8H146.7H146.6H146.5H146.4H146.3H146.2H146.1M146.1 96.1V96.2M146.1 96.1L146 96.2H145.9H145.8H145.7H145.6H145.5H145.4V96.3H145.3H145.2H145.1V96.4H145H144.9L144.8 96.5H144.7L144.6 96.6H144.5V96.7H144.4V96.8H144.3L144.2 96.9H144.1V97H144L143.9 97.1L143.8 97.2H143.7L143.6 97.3V97.4H143.5V97.5H143.4L143.3 97.6L143.2 97.7L143.1 97.8H143V97.9H142.9V98H142.8V98.1H142.7L142.6 98.2H142.5V98.3H142.4V98.4L142.3 98.5H142.2V98.6H142.1V98.7L142 98.8L141.9 98.9H141.8L141.7 99H141.6V99.1H141.5V99.2H141.4V99.3H141.3H141.2V99.4H141.1V99.5H141V99.6H140.9V99.7H140.8V99.8H140.7V99.9H140.6V100H140.5V100.1H140.4V100.2L140.3 100.3V100.4H140.2V100.5H140.1V100.6H140V100.7V100.8H139.9V100.9L139.8 101V101.1H139.7V101.2V101.3H139.6V101.4V101.5H139.5V101.6V101.7H139.4V101.8L139.3 101.9V102H139.2V102.1V102.2H139.1V102.3V102.4V102.5H139V102.6V102.7H138.9V102.8V102.9H138.8V103V103.1H138.7V103.2V103.3H138.6V103.4H138.5V103.5V103.6L138.4 103.7V103.8V103.9H138.3V104V104.1V104.2H138.2V104.3V104.4H138.1V104.5V104.6V104.7H138V104.8V104.9H137.9V105V105.1V105.2H137.8V105.3V105.4L137.7 105.5V105.6V105.7H137.6V105.8V105.9V106H137.5V106.1V106.2V106.3H137.4V106.4V106.5V106.6H137.3V106.7V106.8V106.9H137.2V107V107.1V107.2H137.1V107.3V107.4H137V107.5V107.6V107.7V107.8H136.9V107.9V108V108.1H136.8V108.2V108.3H136.7V108.4V108.5V108.6H136.6M136.6 108.6V108.7V108.8H136.5M136.6 108.6L136.5 108.7V108.8M136.6 108.6V108.5V108.4V108.3V108.2H136.5V108.1V108L136.4 107.9V107.8H136.3V107.6L136.2 107.5L136.1 107.2L136 107V106.9L135.9 106.8L135.8 106.6L135.7 106.5V106.4L135.6 106.3H135.5V106.2L135.4 106.1V106L135.2 105.8L135.1 105.6H135V105.5L134.9 105.4L134.8 105.3H134.7V105.2L134.6 105.1H134.5V105H134.4L134.3 104.9H134.2H134.1L134 104.8L133.9 104.9V105.1H133.8V105V104.8H133.9L133.8 104.7H133.7V104.6H133.8V104.5H133.7V104.4L133.6 104.3H133.5L133.4 104.2L133.3 104.1H133.2V104H133.1V103.9H133L132.9 103.8L132.7 103.7L132.6 103.6L132.5 103.5H132.4H132.3M136.5 108.8V108.9M136.5 108.9V109V109.1H136.4M136.5 108.9L136.4 109V109.1M136.4 109.1V109.2V109.3H136.3M136.4 109.1H136.3V109.2V109.3M136.3 109.3V109.4V109.5L136.2 109.6M136.3 109.3L136.2 109.5V109.6M136.2 109.6V109.7H136.1M136.2 109.6H136.1V109.7M136.1 109.7V109.8V109.9H136V110V110.1H135.9V110.2V110.3H135.8M136.1 109.7H136V109.8H135.9V109.9H135.8L135.7 110V110.1M135.8 110.3V110.4M135.8 110.3V110.2H135.7V110.1M135.8 110.4L135.7 110.5M135.8 110.4H135.7V110.5M135.7 110.5H135.8M135.7 110.5V110.6H135.6M135.7 110.5H135.6V110.6M135.6 110.6V110.7V110.8V110.9H135.5V111V111.1H135.4V111.2H135.3V111.3V111.4H135.2V111.5H135.1V111.6V111.7H135V111.8H134.9V111.9V112H134.8V112.1H134.7V112.2L134.6 112.3V112.4H134.5V112.5L134.4 112.6V112.7H134.3V112.8H134.2V112.9L134.1 113V113.1H134V113.2H133.9V113.3H133.8V113.4H133.7V113.5H133.6L133.4 113.7H133.3H133.2L133.1 113.8H133H132.9L132.7 113.7H132.6V113.6V113.5V113.4V113.3L132.5 113.2V113.1V113L132.6 112.9V112.8H132.7H132.8V112.9H132.7V113H132.8L132.9 112.9L133 112.8H133.1M135.6 110.6H135.5V110.7H135.4V110.6H135.3V110.7L135.2 110.8V110.9V111L135.1 111.1V111H135V110.9H134.9V110.8V110.7H134.8V110.8H134.7V110.9V111V111.1H134.8H134.9V111.2H135H135.1V111.3H135H134.9H134.8M133.1 112.8V112.7V112.6M133.1 112.6L133 112.4V112.3V112.2V112.1V112M133.1 112.6V112.5L133.2 112.4V112.3H133.1V112.2V112.1V112H133M133 112V111.9H133.1V111.8H133.2M133.9 112.6V112.7H134V112.6H133.9ZM134.2 111.8V111.7M134.2 111.8V111.9V112V112.1H134.3V112V111.9V111.8M134.2 111.8H134.3M134.3 111.8V111.7V111.6V111.5H134.4M134.4 111.5V111.4H134.5V111.5M134.4 111.5H134.5M134.4 111.5V111.6V111.7V111.8H134.5V111.7V111.6M134.5 111.5V111.6M134.5 111.6H134.6V111.5H134.7V111.4V111.3H134.8M134.8 111.3V111.2M132.3 103.5L132.2 103.6M132.3 103.5H132.2V103.4H132.1H132M132 103.4V103.5M132 103.4V103.3H131.9V103.2H131.8H131.7M131.7 103.2V103.3M131.7 103.2V103.1H131.6L131.4 103L131.2 102.9L131.1 102.8H131H130.9H130.7H130.6L130.4 102.7H130.2H130H129.7L129.4 102.8H129.3H129.2H129.1V102.9H129H128.9H128.8V102.8H128.7H128.6H128.5H128.3L128.2 102.7H128H127.8H127.5H127.3H127H126.8H126.7L126.5 102.8H126.4H126.3H126.2H126.1H126L125.8 102.9H125.7L125.6 103H125.5H125.4L125.3 103.1H125.2V103.2H125.1H125V103.3M125 103.3H125.1M125 103.3V103.4H124.9L124.8 103.5H124.7L124.6 103.6L124.5 103.7H124.4L124.2 103.8H124.1V103.9H124H123.9L123.8 104H123.7H123.6L123.4 104.1H123.3L123.1 104.2H123H122.9H122.8H122.6H122.5L122.4 104.3H122.3L122.1 104.4H122H121.9H121.8H121.7H121.6L121.5 104.5H121.4L121.2 104.6H121.1H121V104.7H120.7V104.8L120.5 104.9H120.3L120.1 105L120 105.1H119.9H119.8H119.7L119.6 105.2L119.3 105.3L119 105.4L118.7 105.5L117.7 105.8L117.6 105.9L117.4 106L117.1 106.1L116.4 106.4L116.1 106.6H116L115.7 106.7L115.3 106.9L115.1 107L114.9 107.2L114.8 107.3H114.7L114.6 107.4L114.5 107.5L114.3 107.6H114.2V107.7H114.1L114 107.8L113.9 107.9L113.8 108H113.7V108.1H113.6H113.5V108.2L113.3 108.3L113.2 108.5H113.1L113 108.6L112.9 108.7L112.7 108.9L112.6 109.1L112.4 109.3L112.2 109.4L112.1 109.6L111.9 109.8L111.8 110L111.6 110.1L111.5 110.4L111.4 110.5L111.2 110.8L111.1 110.9L110.9 111.2L110.8 111.5L110.5 111.8L110.4 112L110.2 112.3L110.1 112.5L110 112.7L109.8 113L109.7 113.3L109.5 113.5L109.4 113.8L109.3 114L109.2 114.2L109.1 114.3L109 114.5M109 114.5L108.9 114.7L108.8 114.8M109 114.5H108.9V114.6H108.8M109 114.5V114.4V114.3V114.2H109.1V114.1V114H109.2V113.9M108.8 114.8V114.9L108.7 115.1L108.6 115.4L108.5 115.5M108.8 114.8H108.7V114.9V115H108.6V115.1H108.5M108.8 114.8V114.7V114.6M108.5 115.5L108.4 115.6M108.5 115.5H108.4V115.6M108.5 115.5V115.4V115.3V115.2V115.1M108.4 115.6V115.7L108.3 116L108.1 116.2M108.4 115.6H108.3V115.7V115.8H108.2V115.9V116H108.1V116.1H108V116.2M108.1 116.2L108 116.4L107.9 116.6L107.8 116.7M108.1 116.2H108M107.8 116.7V116.8L107.7 116.9M107.8 116.7H107.7V116.8V116.9M107.8 116.7V116.6M107.7 116.9V117H107.6M107.7 116.9H107.6V117M107.6 117V117.2L107.5 117.3M107.6 117V117.1H107.5M107.5 117.3V117.4L107.4 117.5L107.3 117.6M107.5 117.3H107.4V117.4H107.3V117.3V117.2M107.5 117.3V117.2M107.3 117.6V117.7M107.3 117.6V117.5H107.2V117.4V117.3V117.2H107.3M107.3 117.7L107.2 117.8M107.3 117.7H107.2M107.2 117.8V117.9H107.1M107.2 117.8H107.1V117.9M107.2 117.8V117.7M107.1 117.9V118L107 118.1M107.1 117.9H107V118V118.1M107 118.1L106.9 118.3M107 118.1H106.9V118.2V118.3M106.9 118.3L106.8 118.5L106.7 118.6M106.9 118.3H106.8V118.4H106.7V118.5V118.6M106.7 118.6V118.7L106.6 118.8L106.5 118.9M106.7 118.6H106.6V118.7H106.5V118.8V118.9M106.5 118.9V119M106.5 119L106.4 119.1M106.5 119H106.4V119.1M106.4 119.1L106.3 119.3M106.4 119.1L106.3 119.2V119.3M106.3 119.3V119.4L106.1 119.6M106.3 119.3L106.2 119.4V119.5H106.1V119.6M106.1 119.6V119.7L106 119.9L105.9 120L105.8 120.1L105.7 120.3L105.5 120.5L105.4 120.6L105.3 120.8L105.2 121L105 121.2L104.9 121.3L104.8 121.6L104.7 121.7L104.5 121.9L104.4 122.1L104.3 122.2L104.1 122.4L104 122.6L103.9 122.8L103.8 122.9L103.6 123.1V123.2H103.5L103.4 123.3V123.4L103.3 123.5H103.2H103.1V123.4H103V123.3L102.8 123.2L102.7 123.1H102.6H102.5H102.4H102.3H102.2H102.1L102 123.2H101.9L101.8 123.3L101.7 123.4M106.1 119.6H106V119.7V119.8H105.9H105.8V119.9H105.7V119.8H105.6M101.7 123.4H101.6V123.5H101.5M101.7 123.4L101.5 123.5M101.7 123.4L101.8 123.2L101.9 123.1H102L102.1 123V122.9H102.2V122.8L102.3 122.6V122.5V122.4L102.4 122.3V122.2L102.5 122V121.9V121.7V121.5V121.4V121.2M101.5 123.5L101.4 123.6L101.3 123.7H101.2M101.5 123.5H101.4L101.3 123.6L101.2 123.7M101.2 123.7L101.1 123.8H101V123.9H100.9V124H100.8V124.1H100.7H100.6H100.5V124.2H100.4L100.3 124.1H100.2H100.1L100 124H99.9H99.8V123.9H99.9H100L100.1 123.8L100.2 123.7V123.6H100.3V123.5H100.4V123.6H100.5V123.7H100.6H100.7H100.8H100.9H101H101.1H101.2ZM102.5 121.2V121M102.5 121.2V121.1V121M102.5 121.2H102.6V121.3V121.4H102.7V121.5H102.8L102.9 121.6H103H103.1H103.2H103.3V121.7H103.4V121.6H103.5V121.5H103.6H103.7V121.4H103.8L103.9 121.3H104H104.1L104.2 121.2H104.3V121.1H104.4V121H104.5V120.9H104.6V120.8H104.7V120.7H104.8V120.6V120.5H104.9M102.5 121V120.9M102.5 120.9V120.7V120.6V120.5V120.4M102.5 120.9V120.8H102.6M102.5 120.4H102.4V120.3H102.5V120.4ZM102.5 120.4L102.6 120.5L102.7 120.7M102.7 120.7L102.8 120.8V120.9V121V121.1M102.7 120.7H102.6M102.7 120.7L102.6 120.6V120.7M102.8 121.1V121.2L102.7 121.1M102.8 121.1H102.7M102.7 121.1V121V120.9H102.6L102.7 120.8H102.6M102.6 120.8V120.7M104.9 120.5V120.4V120.3H105M104.9 120.5H105V120.4V120.3M104.9 120.5V120.6H105H105.1V120.5H105.2V120.4H105.3H105.4V120.3V120.2H105.5V120.1V120H105.6V119.9V119.8M105 120.3V120.2H105.1V120.1H105.2V120H105.3V119.9H105.4M105.6 119.8H105.5M107.2 117.7V117.6M107.3 117.2V117.1M107.5 117.2H107.4M107.5 117.2V117.1M107.5 117.1H107.4M107.8 116.6H107.7M107.8 116.6V116.5H107.9V116.4V116.3H108V116.2M108.5 115.1V115V114.9M108.8 114.6V114.5M109.2 113.9H109.3M109.2 113.9V113.8H109.3V113.7H109.4V113.6H109.3V113.5H109.4V113.4H109.5V113.3H109.6V113.2M109.6 113.2V113.1M109.6 113.2H109.5H109.4V113.1H109.3L109.2 113H109.1V112.9H109H108.9V113V113.1H109V113.2V113.3M109.6 113.1H109.7V113V112.9H109.6V112.8H109.5V112.7H109.4V112.6H109.3V112.5H109.2V112.4H109.1H109V112.3H108.9H108.8V112.2H108.7H108.6H108.5H108.4V112.3V112.4H108.5H108.6L108.7 112.5V112.6H108.8V112.7H108.9H109H109.1M109.6 113.1H109.5V113H109.4H109.3V112.9H109.2V112.8H109.1V112.7M109.1 112.7V112.6M109 113.3H109.1M109 113.3V113.4H108.9H108.8V113.3H108.7V113.2H108.6V113.3H108.5V113.4V113.5M109.1 113.3H109.2M109.1 113.3V113.4M109.2 113.3V113.2M109.2 113.3V113.4M108.5 113.5H108.6V113.6H108.7V113.5M108.5 113.5H108.4V113.6V113.7H108.5V113.8V113.9H108.6V114V114.1L108.7 114.2M108.7 114.2H108.6M108.7 114.2V114.3M108.7 114.3V114.4M108.7 114.3H108.6V114.4V114.5V114.6V114.7M108.6 114.7H108.5M108.6 114.7V114.8L108.5 114.9M108.5 114.7V114.8V114.9M108.5 114.7H108.4V114.6V114.5V114.4H108.3V114.3H108.4V114.2H108.3V114.1H108.2M108.2 114.1V114M108.2 114.1V114.2H108.1V114.3V114.4V114.5V114.6V114.7M108.1 114.7V114.8M108.1 114.7H108V114.8M108.1 114.8V114.9V115M108.1 114.8H108M108.1 115H108M108.1 115V115.1V115.2M108 115V114.9M108 115V115.1V115.2V115.3M108 114.8V114.9M108 114.9L107.9 114.8V114.7V114.6L107.8 114.5V114.4V114.3L107.7 114.2V114.1V114H107.6V113.9V113.8L107.5 113.7V113.6H107.4V113.5L107.3 113.3V113.2H107.2V113.1L107.1 113V112.9H107V112.8L106.9 112.7L106.8 112.6V112.5H106.7L106.6 112.4V112.3H106.5V112.2H106.4V112.1H106.3V112H106.2V111.9H106.1V111.8L106 111.7H105.9V111.6H105.8L105.7 111.5L105.6 111.4L105.5 111.3H105.4H105.3V111.2H105.2H105.1V111.1H105L104.9 111H104.8V110.9H104.7H104.6V110.8H104.5H104.4H104.3H104.2H104.1H104H103.9H103.8H103.7H103.6H103.5H103.4H103.3H103.2H103.1H103H102.9H102.8H102.7H102.6H102.5L102.4 110.9H102.3H102.2H102.1V111H102H101.9H101.8V111.1H101.7H101.6V111.2H101.5H101.4V111.3H101.3H101.2L101.1 111.4H101H100.9V111.5H100.8H100.7H100.6V111.6H100.5H100.4V111.7H100.3H100.2H100.1H100H99.9H99.8H99.7L99.6 111.6H99.5H99.4H99.3V111.5H99.2H99.1L99 111.4H98.9H98.8L98.7 111.3H98.6H98.5L98.4 111.2H98.3H98.2L98.1 111.1H98H97.9H97.8H97.7V111H97.6H97.5H97.4H97.3H97.2H97.1L97 110.9H96.9H96.8H96.7H96.6H96.5H96.4H96.3H96.2H96.1V111H96H95.9H95.8H95.7H95.6H95.5H95.4V111.1H95.3H95.2H95.1H95L94.9 111.2H94.8H94.7H94.6H94.5H94.4H94.3H94.2V111.3H94.1H94H93.9H93.8H93.7H93.6H93.5H93.4H93.3H93.2V111.4H93.1V111.3H93V111.4H92.9H92.8H92.7H92.6H92.5H92.4H92.3H92.2H92.1H92H91.9H91.8H91.7V111.5H91.6H91.5H91.4H91.3H91.2H91.1V111.6H91H90.9H90.8H90.7V111.7H90.6V111.8H90.5H90.4H90.3L90.2 111.9H90.1V111.8H90V111.9H89.9H89.8V112H89.7H89.6L89.5 112.1H89.4V112.2H89.3H89.2H89.1H89V112.3H88.9V112.4H88.8H88.7V112.5H88.6V112.6H88.5H88.4V112.7H88.3H88.2H88.1H88H87.9V112.8H87.8V112.9H87.7V113H87.6H87.5V113.1H87.4V113.2H87.3V113.3H87.2V113.4H87.1V113.5H87V113.6L86.8 113.7V113.8H86.7V113.9H86.6L86.5 114H86.4V114.1H86.3V114.2H86.2H86.1V114.3H86H85.9V114.4H85.8H85.7V114.5H85.6H85.5V114.6H85.4L85.3 114.7H85.2L85.1 114.8H85V114.9H84.9H84.8V115H84.7H84.6V115.1H84.5H84.4V115.2H84.3H84.2H84.1V115.3H84H83.9L83.8 115.4H83.7V115.5H83.6H83.5L83.4 115.6H83.3H83.2V115.7H83.1H83V115.8H82.9H82.8V115.9H82.7H82.6V116H82.5H82.4V116.1H82.3H82.2V116.2H82.1H82V116.3H81.9V116.4H81.8H81.7V116.5H81.6V116.6H81.5L81.4 116.7H81.3V116.8H81.2H81.1V116.9H81H80.9V117H80.8V117.1H80.7V117.2H80.6V117.3V117.4H80.5V117.5L80.4 117.6V117.7H80.3L80.2 117.9H80.1L80 118.1H79.9H79.8V118.2L79.7 118.3V118.4H79.6V118.5H79.5L79.4 118.6V118.7L79.3 118.8L79.2 118.9V119H79.1V119.1H79V119.2V119.3H78.9V119.4H78.8V119.5L78.7 119.6V119.7H78.6V119.8H78.5V119.9L78.4 120V120.1H78.3V120.2H78.2V120.3H78.1V120.4L78 120.5L77.9 120.6L77.8 120.7L77.7 120.9L77.6 121L77.5 121.1V121.2H77.4V121.3H77.3V121.4H77.2V121.5H77.1V121.6L77 121.7L76.9 121.8H76.8V121.9H76.7V122L76.6 122.1H76.5V122.2H76.4V122.3H76.3V122.4H76.2V122.5H76.1V122.6H76V122.7H75.9V122.8H75.8V122.9H75.7V123H75.6V123.1H75.5V123.2H75.4V123.3H75.3H75.2V123.4L75.1 123.5H75V123.6H74.9V123.7H74.8V123.8H74.7V123.9H74.6V124H74.5H74.4V124.1H74.3V124.2H74.2V124.3H74.1V124.4H74H73.9V124.5H73.8V124.6H73.7H73.6V124.7H73.5V124.8H73.4H73.3V124.9H73.2H73.1V125H73V125.1H72.9H72.8L72.7 125.2H72.6L72.5 125.3H72.4H72.3L72.2 125.4H72.1H72H71.9H71.8V125.5H71.7H71.6V125.6H71.5H71.4V125.7H71.3H71.2V125.8H71.1H71V125.9H70.9V126H70.8V126.1H70.7H70.6V126.2H70.5V126.3H70.4H70.3V126.4H70.2H70.1V126.5H70H69.9H69.8V126.6H69.7H69.6V126.7H69.5H69.4L69.3 126.8H69.2H69.1H69H68.9V126.9H68.8H68.7H68.6V127H68.5H68.4H68.3H68.2V127.1H68.1H68H67.9V127.2H67.8L67.7 127.3H67.6V127.4H67.5H67.4V127.5H67.3V127.6H67.2V127.7H67.1V127.8H67V127.9H66.9V128H66.8V128.1H66.7V128.2H66.6V128.3H66.5V128.4H66.4V128.5V128.6H66.3V128.7H66.2V128.8H66.1V128.9V129H66L65.9 129.2L65.8 129.3L65.7 129.4H65.6V129.5L65.5 129.6V129.7H65.4V129.8H65.3V129.9L65.2 130V130.1H65.1V130.2H65V130.3H64.9V130.4H64.8V130.5V130.6H64.7V130.7H64.6V130.8V130.9H64.5V131L64.4 131.1V131.2H64.3V131.3H64.2V131.4H64.1V131.5V131.6H64V131.7H63.9V131.8V131.9H63.8V132H63.7V132.1H63.6V132.2V132.3H63.5V132.4H63.4V132.5V132.6H63.3V132.7H63.2V132.8L63.1 132.9L63 133V133.1H62.9V133.2L62.8 133.3V133.4H62.7V133.5L62.6 133.6V133.7H62.5V133.8H62.4V133.9V134H62.3V134.1H62.2V134.2V134.3H62.1V134.4H62V134.5V134.6H61.9V134.7L61.8 134.8V134.9L61.7 135V135.1L61.6 135.2V135.3L61.5 135.4V135.5L61.4 135.6V135.7H61.3V135.8H61.2V135.9V136H61.1V136.1L61 136.2V136.3H60.9V136.4H60.8V136.5V136.6H60.7V136.7V136.8H60.6V136.9V137H60.5V137.1L60.4 137.2V137.3H60.3V137.4V137.5H60.2V137.6L60.1 137.7V137.8H60V137.9H59.9V138H59.8V138.1H59.7V138.2H59.6V138.3H59.5V138.4L59.4 138.5V138.6L59.3 138.7V138.8H59.2V138.9L59.1 139V139.2H59V139.3V139.4H58.9V139.5V139.6H58.8V139.7L58.7 139.8V139.9L58.6 140L58.5 140.2L58.4 140.4L58.3 140.6L58.2 140.5H57.9L57.6 140.3L57.1 140.1L56.8 139.9L56.4 139.7L55.1 139.1L54.6 139L53.9 138.8L53.3 138.6L52.8 138.4L51.5 138.1L51 138L49.8 137.8L49.5 137.9H49.3H49.2H48.8H48.6L48 138L47.9 137.6V137.4V137.1V137L47.8 136.6V136.2H47.7V136V135.9L47.8 135.8L47.7 135.6V135.5L47.6 135.4V135.3V135.1V134.9L47.5 134.6V134.3V134.2V133.9L47.3 132.7L47.2 132.5L47.7 132.4H47.8L47.9 132.2L47.8 132V131.6L47.7 130.9V130.8L47.6 130.1V129.7V129.3L47.5 128.9V128.8H47.4V128.5L47.3 128.1L47.2 127.3V127.1V127L47.1 126.3V126V125.8L47 125.4V124.7H46.9L46.3 124.8H46.1L45.5 124.9H45.4L45.3 124.8H45.1L44.7 124.6V124.5H44.5L43.6 124L43 123.7L42.4 123.4L42.3 123.3H42.2V123.2L41.9 123.1H41.8H41.7V123V122.9V122.8V122.7L41.6 122.4V122.5H41.4L40.8 122.6L40 122.7L38.9 122.8L38.8 122.9V122.8L38.6 121.8V121.5L38.5 120.7L38.6 120.6H38.9H39V120.3L38.9 119.3L38.8 118.8V118.7H38.6H38.3L38 118.8L35.9 119.1L34 119.4H33.9L32 119.7V119.6V119.3L31.9 118.8H31.8L31.7 118.1L31.6 117.2L31 117.3L30.3 117.4L30.2 116.9L29.8 114.5L31.2 114.2L32 114L31.9 113.5V113.1V112.9L31.8 112.6V112.5V112.3L31.7 111.8V111.5V111.3V111.2L31.6 111.1V110.9V110.6L31.5 110.5V110.1V109.9L31 110H30.9L30.2 110.1L29.1 110.2V110.3H28.7L28.4 110.4H28.3V110.2V110L28.2 109.3L27.6 109.4H27.5L26.2 109.6H26H25.7V109.5L25.6 108.4L25.5 108V107.9L25.4 106.9L26.5 106.8L26.8 106.7H27.2L27.1 106V105.7L28 105.6L29 105.4H29.4L30.6 105.2H30.9V104.5L31.4 104.4H31.6H31.7V103.5V102.7H32.6L32.5 102.2L32.4 102L32.3 101.1V101V100.9L32.2 100.6V100.4V100.3L32.1 100.1V100V99.9V99.8V99.7V99.6L32.7 99.5L34.5 99.3L35 99.2H35.1L34.9 98.9H34.8V98.4L34.7 97.8V97.4L34.6 96.6L34.5 96.1L34.4 95.3V95.2L33.9 95.3L32.5 95.4H31.8V95.3V95.2L31.7 94.8V94.3L31.6 93.5L31.5 93.1V92.7L31.3 91.4L31.1 90.2L31 89.4H30.8L30.6 89.5H30.2L29.6 89.6L29.2 89.7L28.6 89.8H28.5V89.7L28.4 88.9L28.2 88.1L27.6 88.2L26.8 88.3L26.2 88.4L26.1 88.5H25.8H25.3L25.2 87.7L25.1 87.2V87H24.8L24.6 87.1H24.5L24.1 87.2V87.1L24 86.6L23.9 85.6L23.8 85.3L23.7 84.7V84.6H23.6L22.5 84.7L22.4 84.5V84L22.3 83.4L22.2 82.7V82.6L21.9 80.2L21.7 79.1V79H21.8V78.7H21.7H21.6H21.3H21.1L20.9 78.8H20.8H20V78L19.9 77.8L19.8 77.1L19.6 75.7L19.4 74.1V73.9V73.8L19.3 73.5V73.4L19.2 72.6L19 71.5L18.9 70.9L18.8 70.3V70.2L18.7 69.3L18.6 68.3L18.8 68.2H19.1H19.2L19.3 68.1H19.4H19.6H19.7L19.8 68H19.9H20H20.1V67.9L20.3 68H20.4L20.6 67.9V67.7L20.5 67.5V67.1L20.4 66.9V66.7H20.2L20.1 66.3V66.1L20 65.7V65.5L19.8 65.6L19 65.7L18.5 65.8L18.3 65.1L18.2 64.1L18 63.2H18.2L18.8 63.1H18.9L19.2 63H19.5H19.6H19.7L19.8 62.9H19.9L19.8 62.8V62.7V62.6V62.5H19.7L19.6 62.4H19.5H19.4L19.5 62.3V62.2M108.1 115.2H108.2M108.1 115.2V115.3H108M108 115.3V115.4V115.5M108 115.5V115.6H108.1V115.7V115.8H108M108 115.5L107.9 115.6V115.7V115.8M108 115.8V115.9M108 115.8V115.7M108 115.8H107.9M107.9 115.8V115.9M107.9 115.9V116V116.1H107.8M107.9 115.9H107.8V116V116.1M107.8 116.1V116.2M107.8 116.2V116.3H107.7L107.8 116.2ZM19.5 62.2H19.4" stroke="white" stroke-width="0.5" stroke-linecap="round" stroke-linejoin="round"/>
</g>
</svg>
