<svg width="108" height="141" viewBox="0 0 108 141" fill="none" xmlns="http://www.w3.org/2000/svg">
<g id="UA26">
<path d="M51.8 122.3V122.2L51.9 122.1V122L51.8 121.9V121.8V121.7V121.6H51.9V121.5L52 121.4V121.3V121.2V121.1V121V120.9V120.8V120.7V120.6H52.1V120.5V120.4H52L52.1 120.3V120.2V120.1H52.2V120H52.3H52.4V119.9H52.3V119.8L52.2 119.7V119.6V119.5H52.3V119.4V119.3V119.2H52.4V119.1V119V118.9V118.8H52.5V118.7V118.6H52.6V118.5V118.4H52.7V118.3H52.8V118.2H52.9V118.1H53L53.1 118V117.9H53.2V117.8V117.7L53.3 117.6V117.5H53.4V117.4L53.5 117.3L53.6 117.2H53.7V117.1H53.8H53.9H54L54.1 117.2H54.2V117.1H54.3L54.4 117V116.9V116.8H54.5L54.6 116.7L54.8 116.5L54.9 116.4H55H55.1V116.3V116.2H55V116.1V116V115.9V115.8H54.9V115.7V115.6H54.8V115.5V115.4V115.3V115.2H54.7V115H54.6V114.9H54.5V114.8H54.4V114.7H54.3V114.6H54.2V114.5V114.4L54.1 114.3V114.2H54L53.9 114.1V114V113.9L53.8 113.7L53.7 113.6V113.5L53.6 113.3L53.5 113.2V113.1H53.4L53.2 113H53.1H53V112.9H52.9V112.8H52.8V112.7V112.6L52.7 112.5H52.6V112.4H52.5L52.4 112.3V112.2H52.3V112.1H52.2L52.1 112H52H51.9V111.9H51.8L51.7 112L51.6 111.9L51.5 111.8V111.7H51.6V111.6V111.5V111.4V111.3H51.5V111.2V111.1H51.4V111H51.3V110.9H51.2H51.1V110.8H51V110.9L50.9 110.8H50.8H50.7L50.6 110.7H50.5V110.6H50.4H50.3H50.2V110.5V110.4V110.3L50.3 110.2V110.1V110V109.9L50.2 109.8V109.7L50.1 109.6H50V109.5V109.4H49.9V109.3V109.2V109.1H49.8V109L49.6 108.9V108.8H49.5L49.4 108.7L49.3 108.6V108.5H49.2H49.1L48.9 108.4V108.3H48.8V108.2V108.1V108L48.7 107.9V107.8V107.7V107.6H48.8L48.9 107.5V107.2H49L49.4 106.9H49.5V106.8L49.7 106.5H49.6L49.5 106.3L49.4 106.2V106.1H49.3L49.2 105.9V105.8H49.3L49.5 105.7V105.6H49.6V105.5L49.7 105.4L49.8 105.3V105.2H49.9V105.1V105V104.9H49.8V104.8H49.7V104.7H49.8H49.9V104.6V104.5H50V104.4V104.2L50.1 104V103.9H50.2V103.8H50.3H50.4H50.5H50.6V103.7H50.7H50.8L50.9 103.6V103.5V103.4H50.8L50.7 103.2L50.6 103V102.9V102.8H50.5V102.7H50.4L50.3 102.6L50.2 102.5L50 102.3L49.8 102.2V102.1L49.7 102H49.6H49.5V101.9H49.3H49.1L49 101.8H48.9L48.8 101.7L48.7 101.6H48.6H48.5H48.4L48.3 101.5H48.2H48.1H48H47.9V101.4L47.8 101.3V101.2V101.1L47.9 100.9L48 100.8V100.7V100.6V100.5V100.4V100.3V100.2H48.1V100.1V100V99.9V99.8H48V99.7V99.6V99.5L48.1 99.4V99.3H48.2L48.1 99.2V99.1V99V98.9V98.8V98.7H48H47.9V98.6H47.8V98.5L47.7 98.4L47.6 98.5H47.5H47.4V98.4V98.3H47.3V98.2H47.2V98.1H47.1V98V97.9H47H46.9H46.8V97.8H46.7H46.6V97.7V97.6V97.5V97.4H46.5V97.3H46.4H46.3H46.2V97.2H46.1V97.1H46H45.9V97V96.9H45.8V96.8L45.7 96.7H45.6V96.6V96.5V96.4V96.3H45.5V96.2L45.4 96.1V96.2H45.3H45.2L45.1 96.1L45 96L45.1 95.9H45V95.8H44.9V95.7V95.6H44.8V95.5L44.7 95.4H44.6L44.5 95.3L44.4 95.2V95.1V95L44.5 94.9V94.8H44.4H44.3H44.2H44.1L44 94.7H43.9L43.8 94.6V94.5H43.7L43.6 94.6H43.5H43.4H43.3L43.2 94.5V94.4V94.3V94.2H43.1V94.1V94H43H42.9V93.9V93.8H42.8H42.7L42.6 93.7H42.5V93.6H42.4L42.3 93.5L42.2 93.4H42.1V93.5H42H41.9H41.8L41.7 93.4H41.6V93.3H41.5V93.2H41.4V93.1V93L41.3 92.9V92.8V92.7H41.2V92.6V92.5V92.4V92.3V92.2V92.1L41.3 92V91.9V91.8H41.4L41.5 91.7V91.6V91.5H41.4V91.4L41.3 91.3V91.2H41.2V91.1H41.1V91H41H40.9H40.8V90.9V90.8V90.7H40.7H40.6H40.5H40.4V90.6H40.3V90.5H40.2L40.1 90.4L40 90.5H39.9H39.8H39.7V90.4H39.6H39.5V90.3H39.4V90.2V90.1H39.3H39.2L39.1 90H39H38.9V89.9H38.8L38.7 89.8H38.6H38.5H38.4H38.3L38.2 89.7L38.1 89.6H38L37.8 89.5H37.7V89.6L37.8 89.7V89.8V89.9V90L37.7 90.1V90.2H37.6V90.3V90.4H37.7V90.5V90.6H37.8V90.7H37.9V90.8V90.9V91H38V91.1L37.9 91.2H37.8L37.7 91.3V91.4V91.5V91.6H37.6L37.4 91.7L37.3 91.8L37.2 91.9V92L37.3 92.2L37.2 92.3H37.1V92.4H37V92.5H36.9V92.6V92.7H37V92.8L36.9 92.9L36.8 93.1H36.7L36.6 93.2V93.3L36.5 93.4H36.4L36.2 93.3L36.1 93.2V93.1L36 92.9H35.9V92.8H35.6H35.5H35.4H35.3L35.2 92.9H35L34.9 93L34.6 92.8L34.4 92.7L34.2 92.5L34.1 92.3H34H33.9H33.8V92.4H33.7H33.6H33.5L33.4 92.3H33.3L33.2 92.2H33.1H33H32.9V92.3H32.8L32.7 92.4L32.6 92.3H32.5L32.4 92.2V92.1V92L32.5 91.8V91.7V91.6V91.5H32.4H32.3H32.2H32.1H32V91.4H31.9L31.8 91.3V91.2V91.1V91V90.9H31.7H31.6V90.8H31.5L31.3 90.7H31.2H31.1V90.6H31V90.5H30.9V90.4V90.3V90.2L31 90.1V90V89.9V89.8H31.1V89.7V89.6V89.5L31 89.4L30.9 89.3L30.8 89.2L30.7 89.1H30.6V89H30.5V88.9L30.6 88.8V88.7V88.5H30.7V88.4V88.3V88.2H30.8V88.1V88L30.7 87.7L30.6 87.4V87.3L30.7 87.2V87.1V87L30.6 86.9H30.5V86.8H30.4H30.3H30.2V86.7H30.1V86.6L30 86.5V86.4V86.3V86.2H29.9V86.1L29.8 86H29.9V85.9V85.8V85.7L29.8 85.6H29.7V85.5H29.8V85.4L29.9 85.2L29.8 85L29.7 84.9V84.7V84.6L29.8 84.4V84.3V84.2H29.9H30V84.1V84L30.2 83.9L30.3 83.7L30.5 83.5V83.4H30.4V83.3H30.3V83.2L30.2 83.1H30.1L30 83V82.9H29.9V82.8H29.8V82.7V82.6H29.7L29.5 82.5L29.3 82.3H29.2V82.2V82.1V82H29.3V81.9H29.4V81.8V81.7H29.5V81.6H29.6V81.5V81.4V81.3V81.2V81.1V81H29.7V80.9H29.8V80.8H29.9V80.7V80.6H30V80.5V80.4H30.1V80.3V80.2V80.1L30.2 80H30.1V79.9V79.8L30 79.7H29.9L29.8 79.5L29.7 79.4H29.6H29.5H29.4H29.3H29.2H29.1L29 79.5L28.9 79.6L28.8 79.7V79.8L28.7 79.9H28.6V80V80.1H28.5H28.4H28.3H28.2L28.1 80H28L27.9 79.9V80V80.1V80.2V80.3V80.4V80.5H27.8V80.6H27.7V80.7H27.6H27.5L27.4 80.8V80.9V81H27.3H27.2L27.1 80.9L27 80.8V80.7H26.9H26.8H26.7L26.6 80.8V80.9H26.5H26.4H26.3V81H26.2H26.1L26 81.1H25.9H25.8H25.7V81.2V81.3H25.6V81.4H25.5V81.5V81.6H25.4V81.7H25.3V81.8H25.2V81.9H25.1V82H25V81.9H24.9H24.8V81.8H24.7V81.7H24.6L24.5 81.6H24.4L24.3 81.7V81.6H24.2L24.1 81.7H24H23.9V81.8H23.8V81.7H23.7V81.6L23.6 81.5L23.5 81.6H23.4V81.7H23.3V81.8H23.2V81.9H23.1V82V82.1V82.2H23V82.3H22.9V82.4V82.5V82.6V82.7V82.8H22.8V82.9H22.7V83L22.6 83.2V83.3H22.5V83.4V83.5H22.4V83.6H22.3H22.2V83.7H22.1V83.8V83.9V84H22.2V84.1V84.2H22.3V84.3H22.4V84.4V84.5L22.5 84.6H22.4V84.7L22.3 84.8H22.2H22.1V84.9H22L21.9 85V85.1H21.8L21.7 85.2H21.6H21.5H21.4V85.1H21.3H21.2H21.1H21L20.9 85H20.8V84.9H20.7V84.8L20.6 84.9H20.5H20.4L20.3 84.8H20.2H20.1V84.7H20H19.8H19.7H19.6V84.6H19.5V84.5H19.4V84.4L19.3 84.3H19.2L19.1 84.2L19 84.1V84L18.9 83.9V83.8V83.7L18.8 83.6V83.5V83.4V83.3V83.2L18.9 83.1H19V83H19.1V82.9V82.8H19.2V82.7L19.3 82.6L19.4 82.5L19.3 82.4V82.3V82.2V82.1V82V81.9V81.8V81.7L19.2 81.6V81.5V81.4H19.3V81.3H19.4V81.2H19.5L19.6 81.1V81V80.9V80.8V80.7H19.5V80.6H19.4V80.5V80.4L19.5 80.3L19.4 80.2V80.1H19.3V80L19.4 79.9V79.8L19.3 79.7L19.2 79.6H19.1V79.5V79.4V79.3H19.2H19.3V79.2V79.1V79V78.9V78.8L19.4 78.7V78.6H19.5L19.6 78.5H19.7V78.4H19.8V78.3V78.1V78H19.7H19.6L19.5 77.9H19.4H19.3H19.2L19.1 77.8H19V77.7V77.6L18.9 77.5L18.8 77.4V77.3H18.7L18.6 77.4L18.5 77.5H18.4V77.6H18.3H18.2V77.7L18.1 77.8H18V77.9H17.9H17.8V77.8H17.7V77.9H17.6H17.5V78H17.4V77.9H17.3V77.8H17.2H17.1H17L16.9 77.7H16.8L16.7 77.8V77.9H16.6H16.5V78H16.4H16.3H16.2L16.1 77.9L15.8 77.6L15.5 77.2H15.4V77.1H15.3V77H15.2H15.1V76.9H15V76.8V76.7L15.1 76.6V76.5V76.4V76.3H15V76.2H15.1V76.1V76L15 75.9H14.9L14.8 76H14.5H14.4H14.3L14.2 75.9H14.1H13.9H13.8V75.8H13.7L13.6 75.9H13.5V75.8V75.7V75.6V75.5H13.4V75.4H13.3V75.3H13.2H13.1V75.2L13 75.1L12.9 75V74.9V74.8V74.7H13L13.1 74.6V74.5V74.4H13.2V74.3H13.1H13H12.9V74.2H12.8V74.1H12.7V74V73.9V73.8V73.7V73.6V73.5V73.4L12.8 73.3H12.9H13V73.2V73.1V73H13.1V72.9L13.2 72.8H13.1V72.7V72.6V72.5V72.4V72.3V72.2L13 72.1H13.1H13.2V72V71.9L13.1 71.8V71.7L13 71.6V71.5H12.9V71.4H12.8V71.3H12.7H12.6H12.5V71.2H12.4V71.1H12.3H12.2L12.1 71.2H12V71.3H11.9V71.2H11.8V71.1L11.7 71L11.6 70.9H11.5L11.4 71H11.3H11.2H11.1H11V70.9H10.9H10.8H10.7H10.6V70.8H10.5V70.9H10.4V71V71.1H10.3V71.2H10.2V71.3H10.1V71.4H10V71.5H9.9H9.8H9.7H9.6H9.5H9.4H9.3H9.2H9.1H9H8.9H8.8H8.7L8.6 71.4H8.5V71.3H8.4V71.2H8.3V71.1H8.2L8.1 71H8L7.9 70.9H7.7V70.8H7.6V70.7V70.6H7.5V70.5V70.4H7.4V70.3V70.2V70.1H7.3V70H7.2V69.9L7.1 69.8V69.7V69.6L7 69.5V69.4H6.9V69.3H6.8H6.7H6.6H6.5V69.2H6.4V69.1V69V68.9L6.3 68.8H6.2H6.1V68.7H6V68.6V68.5H5.9V68.4H5.8V68.3H5.7H5.6V68.2H5.5V68.1H5.4H5.3V68H5.2H5.1V67.9L5.2 67.8V67.7V67.6H5.3V67.5H5.2V67.4V67.3H5.1V67.2V67.1L5.2 67V66.9V66.8H5.1V66.7H5V66.6H4.9V66.5L4.8 66.4H4.7L4.6 66.3H4.5H4.4H4.3H4.2H4.1H4V66.4V66.5H3.9V66.4H3.8L3.7 66.3H3.6H3.5H3.4V66.4H3.3H3.2V66.3H3.1V66.2V66.1V66L3 65.9L2.9 65.8V65.7V65.6V65.5V65.4H2.8L2.7 65.3H2.6V65.4H2.5V65.3H2.4V65.2H2.3L2.2 65.1H2.1V65H2L1.9 64.9H1.8H1.7H1.6H1.5H1.4H1.3L1.2 64.8L1.1 64.9H1H0.900002H0.800003H0.699997L0.599998 64.8V64.7V64.6V64.5H0.699997V64.4V64.3V64.2V64.1V64V63.9V63.8H0.599998H0.5V63.7V63.6H0.599998V63.7H0.699997H0.800003V63.6L0.900002 63.5V63.4L1 63.3V63.2V63.1V63V62.9V62.8V62.7H1.1V62.6V62.5V62.4H1.2V62.3L1.3 62.2V62.1V62V61.9V61.8H1.4V61.7H1.5V61.6L1.6 61.5V61.4V61.3H1.7V61.2V61.1H1.8V61H1.9V60.9H2V60.8H2.1V60.7V60.6H2L2.1 60.5V60.4L2.2 60.3V60.2L2.1 60.1H2V60H1.9V59.9V59.8V59.7H1.8V59.6L1.7 59.4V59.3V59.2V59.1V59V58.9L1.8 58.8H1.7V58.7L1.6 58.6L1.5 58.5H1.4V58.4V58.3H1.3V58.2L1.2 58.1L1.1 58V57.8V57.7L1 57.6V57.5L0.800003 57.4L1 57.2L1.2 57.1L1.4 56.9H1.5V56.8V56.6V56.5H1.6L1.7 56.2V56.1V56L1.6 55.9V55.8H1.7V55.7H1.8L1.9 55.6H2V55.5H1.9L1.8 55.2L1.7 55V54.9H1.8V54.8V54.6L1.9 54.4L2 54.2V54.1V54H2.1V53.9L2.2 53.8H2.3V53.7V53.6H2.4H2.5H2.6L2.8 53.7H2.9L3 53.6H3.1L3.2 53.5H3.6V53.4V53.2V53.1V53V52.9V52.8H3.5L3.3 52.7H3.1H3L2.9 52.8H2.8H2.7H2.6V52.7L2.3 52.6V52.5H2.2H2.1V52.4L2 52.3L1.9 52.1V52V51.9H1.8L1.9 51.8V51.7V51.6L1.8 51.5V51.4L1.7 51.3L1.6 51.1L1.5 50.9V50.8H1.4V50.7V50.6V50.4V50.3L1.5 50.2V50.1L1.6 50V49.9L1.7 49.4L1.9 49.1V49L2 48.8L2.1 48.6L2.2 48.4V48.3L2.3 48.1L2.4 48V47.9V47.8L2.5 47.6V47.4V47.2V47.1L2.4 47H2.3L2.2 46.9V46.8V46.7V46.6V46.5H2.1V46.4H2L1.8 46.3L1.7 46.2H1.6V46.1V46L1.5 45.9V45.8V45.7H1.6V45.6H1.7L1.8 45.5L1.9 45.4L2 45.3H2.1V45.2L2.2 45.1L2.3 45V44.9H2.4V44.8H2.5L2.6 44.7V44.6H2.7V44.5L2.8 44.4L2.9 44.2V44.1L3 44L3.1 43.9L3.2 43.8V43.7H3.3H3.4H3.5V43.6H3.6L3.8 43.4H3.9V43.3L4 43.2L4.1 43.1L4.3 42.9L4.4 42.8L4.5 42.7H4.4V42.6V42.5V42.4V42.3V42.2H4.3V42.1V42V41.9V41.8H4.4H4.5L4.6 41.7H4.7L4.8 41.6H4.9V41.5L5 41.4V41.3H5.1L5.3 41.4V41.5V41.6V41.7H5.4V41.8L5.5 41.9L5.6 42H5.7H5.8H5.9V41.9L6 41.8V41.7H6.1L6.2 41.8H6.3L6.4 41.7L6.5 41.6V41.5H6.6V41.4L6.7 41.2L6.8 41.1H6.9V41V40.9V40.8V40.7V40.6H7H7.1V40.5L7.2 40.4V40.3V40.2V40.1V40V39.9H7.1V39.8H7.2V39.7V39.6V39.5V39.4L7.3 39.1L7.4 39V38.9L7.5 38.8L7.6 38.7H7.7V38.6V38.5H7.6V38.4H7.5V38.3H7.4L7.3 38.2H7.2V38.1L7.1 38H7.2V37.9L7.4 37.7V37.6V37.5H7.5V37.4L7.6 37.3V37.2H7.5V37.1V37L7.6 36.9V36.8L7.7 36.7L7.8 36.6V36.5V36.4L7.9 36.3H8H8.1V36.2L8.2 36.1V36H8.3L8.6 36.2L8.7 36.1V36H8.8V35.9L9.3 36.5L9.4 36.4H9.5H9.6V36.3L9.8 36.2L10 36L10.2 35.8V35.4V35.3L10.4 35.2L10.6 35.1V35H10.7L10.8 34.9H10.9L11 34.8V34.7V34.6V34.5V34.4V34.2H11.2H11.4L11.7 34.5L11.9 34.7L12 34.8L12.2 34.7L12.3 34.6H12.4V34.5H12.5V34.6H12.6L12.7 34.7L12.8 34.8L12.9 34.9L13 35L13.1 35.2V35.3L13.2 35.4V35.5H13.3L13.4 35.6V35.5H13.5H13.6L13.7 35.4L13.8 35.3H14H14.1H14.3H14.4H14.5V35.2H14.6V35.1H14.7V35H14.8H14.9L15.1 35.1H15.4H15.8L16.1 35.2L16.8 35.3H16.9L17.3 35.4L17.5 35.5H17.6L17.7 35.6H17.8L18.3 35.9L18.4 36L18.7 36.1L18.8 35.9L18.9 35.8V35.7L19 35.4L19.1 35.3H19.2V35.2L19.5 35L19.6 34.9L19.7 34.8H19.8V34.7H19.9V34.6L20 34.5V34.4H20.1L20.3 34.3L20.5 34.2L20.6 34H20.7L21.2 33.8H21.3V33.7L21.4 33.6L21.5 33.5V33.4H21.6L21.7 33.3V33.2H21.8V33.1L21.9 33H22H22.1L22.2 33.1H22.3H22.4L22.5 33.2L22.6 33.3V33.4H22.7L22.8 33.5H22.9L23.1 33.6H23.3L23.4 33.7H23.6L23.7 33.8V33.7L23.8 33.8H23.9V33.9H24V34V34.1H24.1V34.2V34.3V34.4H24V34.5L24.1 34.6V34.7H24.2L24.4 34.8H24.5L24.6 34.7L24.7 34.6L24.8 34.4L24.9 34.3L25.1 34.1H25.2L25.4 34V33.9L25.5 33.8L25.6 33.7V33.6H25.7V33.5L25.8 33.4L25.9 33.2L26 33L26.1 32.9L26.2 32.6L26.4 32.4L26.6 32.5H26.7H26.8H26.9H27H27.1H27.2H27.3H27.4V32.6H27.5L27.6 32.5V32.4H27.7V32.3L27.9 32.4L28 32.5H28.1L28.4 32.6H28.5V32.7L28.7 32.8L28.8 32.9H28.9L29.1 33H29.3L29.4 33.1H29.5H29.6H29.7H29.8L30 33H30.1H30.3L30.4 32.9L30.5 33H30.6V33.1V33.2H30.7V33.3L30.8 33.4L30.9 33.5V33.6V33.7L31 33.8L31.1 33.9H31.2H31.3V34H31.4H31.5H31.6L31.8 33.9V33.7L31.7 33.3L31.8 33.2V33.1L31.9 33V32.9H32L32.1 32.7H32.2H32.4H32.6V32.8H32.7L32.8 32.9H32.9H33V33L33.1 33.1H33.2L33.3 33.2V33.1L33.4 33L33.6 32.8L33.9 32.5L33.8 32.4L33.9 32.3H34L34.1 32.4H34.2L34.5 32.6H34.6H34.7L35 32.7L35.2 32.6H35.3L35.7 32.3V32.2L35.8 32.1L35.9 32.3L36 32.2V32.1H36.1V32L36.3 31.9L36.4 31.7H36.6V31.6L36.7 31.5L36.9 31.3L37.4 31L37.6 30.8H37.7H37.8H38.3L38.4 30.7H38.5H38.6H38.7L38.9 30.6H39L39.1 30.5H39.2V30.4H39.3H39.4H39.5V30.3L39.7 30.2H39.8L40 30.1V30H40.1H40.2V29.9H40.3H40.4H40.5H40.6L40.7 29.8H40.8H40.9L41 29.9H41.1V29.8H41.2H41.3V29.7L41.4 29.4H41.7H41.8V29.3H42.1H42.2L42.4 29.2H42.8L42.9 29.5H43L43.1 29.7L43.2 29.8L43.3 29.9L43.5 30V30.1L43.6 30.2L43.7 30.3L43.9 30.4L44.1 30.5L44.3 30.6V30.7L44.4 30.8H44.5V30.7H44.6H44.8V30.6H44.9H45V30.5H45.2L45.3 30.4H45.4V30.3L45.5 30.2V30.1H45.3V30L45.4 29.8V29.7V29.6V29.5H45.3V29.4V29.3L45.2 29.2V29.1V29L45.3 28.9V28.8L45.4 28.7L45.5 28.6V28.4H45.6V28.3L45.5 28.2V28.1L45.4 27.9V27.8H45.5L45.6 27.6L45.8 27.4H45.7V27.3H45.6V27.2V27.1H45.8H45.9L45.8 26.8V26.7V26.6L45.9 26.3L46 26.2L46.1 26V25.9L45.9 26H45.8H45.7H45.6L45.5 25.9L45.4 25.8H45.3H45.2H45.1H45L44.8 25.9L44.6 26H44.3L44.1 26.1H43.9L43.7 26.2H43.5H43.3H43.1H43H42.9L42.8 26.1L42.7 26H42.6H42.5L42.4 25.9H42.2H42.1H42H41.9H41.8H41.7L41.6 25.8H41.5H41.4V25.7H41.3H41.2V25.8H41.1H41H40.9V25.7H40.8V25.5V25.4L40.7 25.2L40.6 25.1L40.7 25H40.8L40.9 24.4L41 24.2H41.1H41.2V24.1V24V23.9V23.5L41.3 23.4L41.2 23.2V23.1L41.3 22.8H41.6L41.7 22.6V22.5L41.8 22.3V22.1H41.7H41.5V21.9V21.7L40.9 21.4H40.8H40.7L40.6 21.3L40.5 21.2L40.4 21.3L40.3 21.4V21.5L40.2 21.6H40.1L39.9 21.7H39.8L39.6 21.9L39.5 22L39.4 22.1L39.2 22.2V22.3L39 22.4H38.9H38.8L38.7 22L38.6 21.8V21.7V21.6H38.5V21.4V21.3V21.2V21V20.9V20.8V20.7V20.6L38.6 20.2V19.8V19.7L38.7 19.4L39.9 19.6L40.1 19.7L40.7 19.8V19.7H40.9L41 19.5L41.4 19.1L41.5 18.9L41.7 19.1L42 19.4L42.5 19.8L42.6 20V19.9V19.8H42.7V19.7V19.5L42.9 19.1V19L43 18.9L43.1 18.8L43.2 18.6L43.3 18.3V18.1L43.4 18H43.5V17.9H43.6V17.8L43.7 17.7V17.6L43.5 17.5H43.3V17.4V17.2L43.4 16.9V16.8V16.6V16.5H43.2H43.1L43.2 16.4L43.3 16.2L43.5 16.1L43.6 16.2V16.3H43.7H43.8V16.2V16.1V16L43.9 15.9L44 15.8H44.1L44 15.5L44.1 15.4H44.2H44.3H44.4V15.3H44.5L44.6 15.2L44.7 15.1H44.8H44.9L45 15L45.1 14.9V14.8V14.7V14.6H45.2L45.5 14.4L45.2 14.2L44.8 14.1V13.9H44.6V13.8L43.9 13.4H43.8H43.7H43.6H43.5L43 13.3V12.9L43.1 12.8V12.7V12.6L43 12.5V12.4V12.3L42.9 12.2L42.7 12.1L42.6 12L42.4 11.9V11.8V11.6L42.3 11.2V11.1V11V10.9V10.7V10.6H42.2H42.1L42.2 10.1L42.3 10L42.6 9.70001L42.8 9.60001L43.3 9.5L43.8 9.39999H44.1V9.29999L44.2 8.70001L44.3 8.5V8.29999L44.4 8V7.60001L44.5 7.20001L44.3 7.29999V7.10001L44 6.60001V6.5L43.9 6.10001L43.8 5.79999L43.7 5.70001V5.5L43.8 5.39999L43.9 5.29999L44 5.10001L44.1 5V4.89999H44.2V4.79999H44.3L44.4 4.70001V4.79999H44.5H44.6H44.7H44.8H44.9H45H45.1H45.2H45.3H45.4H45.5H45.6H45.7V4.70001L45.8 4.60001H45.9V4.29999V4.20001L45.8 4.10001V4L45.7 3.89999V3.79999V3.5L45.6 3.39999V3.29999V3.20001V3.10001L45.5 3V2.79999V2.70001V2.60001H45.4V2.5L45.3 2.29999L45.4 2.20001L45.5 2.10001L46 1.79999V1.70001L46.1 1.60001H46.2V1.5V1.39999H46.3V1.29999V1.20001H46.4V1.10001H46.5H46.6H46.7L47.1 1.39999L47 1.20001V0.899994V0.800003H47.1H47.2V0.899994H47.3H47.4L47.7 1V0.899994H47.6L47.4 0.800003L47.3 0.699997L47.2 0.600006L47.3 0.5H47.4H47.6L48.4 0.800003V0.699997H48.6L48.7 0.800003H48.8L48.9 0.899994L49 1V1.10001V1.39999V1.5H49.1L49.2 1.60001H49.3V1.70001H49.4H49.5H49.6L49.7 1.79999H49.8V1.89999V2V2.10001H49.7L49.6 2.20001H49.5H49.4V2.10001H49.3H49.2L49.1 2.20001V2.29999L49 2.39999L49.3 2.60001L49.4 2.70001H49.3V2.79999V2.89999V3L49.7 3.29999L49.6 3.39999V3.5L49.7 3.39999H49.8H49.9H50H50.1V3.29999V3.20001H50.2H50.3V3.29999H50.4H50.5V3.39999H50.6H50.7H50.8V3.20001H50.9V3.10001H51L51.1 3H51.2L51.3 2.89999L51.6 2.79999L51.9 2.60001L52.2 2.5V2.39999H52.3V2.5H52.4V2.60001V2.70001V2.79999V2.89999H52.5V3H52.4L52.5 3.10001V3L52.6 3.10001H52.7L52.8 3.20001L52.9 3.29999L53 3.39999V3.5L53.1 3.60001H53.2L53.3 3.70001L53.4 3.79999H53.5L53.6 3.89999H53.7L53.8 4L53.9 4.10001L54 4.20001L54.5 4.39999L54.6 4.29999H54.7L54.9 4.39999V4.5L55 4.60001V4.70001H55.1V4.79999L55.2 4.89999H55.3V5V5.10001L55.6 5.29999L55.7 5H55.9L56 5.10001H56.3L56.4 5L56.5 4.79999V4.70001L56.6 4.79999H56.7V4.89999L56.8 5H56.9H57V5.10001H57.1H57.2V5.20001H57.3H57.4L57.5 5.29999L57.6 5.39999H57.7V5.29999H57.8H57.9H58L58.1 5.39999L58.3 5.5H58.4L58.5 5.60001H58.7H58.9L59 5.5H59.1H59.2H59.4L59.5 5.39999H59.6H59.7H59.8V5.5H59.9L60 5.60001H60.1V5.70001H60.2V5.79999H60.3V5.89999H60.2V6V6.20001V6.29999L60 6.39999V6.5V6.60001H60.1H60.2V6.70001H60.3V6.79999L60.4 6.89999V7V7.10001H60.5L60.6 7.29999L60.7 7.39999V7.5L60.8 7.60001H60.9V7.70001H61V7.79999L61.1 7.89999L61 8V8.10001V8.20001V8.29999H61.1V8.39999V8.5H61.2V8.60001V8.70001L61.3 8.79999V8.89999V9V9.10001H61.4V9.20001L61.5 9.29999L61.6 9.39999L61.7 9.5H61.8V9.60001L61.9 9.70001V9.79999L62 9.89999V10H62.1V10.1V10.2L62.2 10.3L62.3 10.4V10.5V10.6V10.7V10.8L62.2 10.9H62.1V11L62.2 11.1V11.2H62.3V11.3V11.4V11.5H62.4V11.6V11.7V11.8H62.5V11.9V12V12.1V12.2H62.4V12.3V12.4L62.5 12.5V12.6V12.7V12.8V12.9V13V13.1L62.4 13.3V13.4H62.5V13.5V13.6V13.8L62.6 13.9V14H62.7L62.8 14.1V14.2H62.7V14.3H62.9H63.1H63.4H63.6L63.7 14.2L64.3 13.6H64.4L64.6 13.9H64.8H65.1L65.2 14H65.3V14.1V14.2H65.2V14.3V14.4L65.3 14.6V14.7V14.8L65.4 14.9V15L65.3 15.1V15.2H65.4V15.3V15.5V15.6L65.5 15.7V15.8L65.6 15.9V16L65.7 16.1L65.8 16.2L65.9 16.3H66V16.4L66.1 16.5H66.3V16.6H66.4L66.5 16.7L66.6 16.8L66.7 16.9L66.8 17V17.1H66.7H66.6H66.5H66.4V17.2L66.3 17.4V17.7V17.9L66 17.8V18V18.1V18.2L65.9 18.3V18.4V18.5L65.8 18.6V18.7V18.8L65.7 18.7L65.6 18.8V18.9L65.5 19.1L65.2 19V19.2V19.4V19.6V19.7V19.8L65.3 19.9V20V20.1H65.4V20.2V20.3H65.3V20.4V20.6V20.8V21V21.1L65.2 21.2V21.4V21.7V21.8H65.3H65.4H65.5L65.6 21.9H65.7H65.8L65.9 22.2V22.4L66 22.7V22.8V22.9V23V23.2V23.3V23.4V23.5H66.1V23.6H66.2H66.3L66.4 23.7H66.5L66.6 23.8H66.7L66.8 23.9H66.9H67H67.1H67.2H67.3H67.4L67.5 24L67.6 24.1H67.7V24.2L67.9 24.3H68H68.1V24.4H68.2L68.3 24.5V24.6H68.4H68.5V24.7H68.6V24.8H68.7L68.8 25H68.9V25.1H69L69.1 25.2H69.2L69.3 25.3H69.4H69.5L69.6 25.4H69.7H69.8H69.9H70H70.2L70.3 25.5H70.4L70.5 25.6V25.7V25.8V25.9V26.1L70.2 26.2L70 26.3L69.9 26.4L69.8 26.5H69.6V26.6H69.5L69.4 26.7L69.1 27L68.8 27.2L68.6 27.5L68.4 28V28.1H68.3V28.2L68.2 28.4V28.5L68.1 28.6L68 28.7L67.7 28.9L67.5 29.2L67.4 29.3L67.3 29.4L67.2 29.5L67.1 29.6L67 29.7L66.8 29.9L66.7 30V30.1V30.2V30.3V30.4V30.5L66.6 30.6V30.7V30.8H66.7V30.9V31L66.6 31.1V31.2H66.7H66.8V31.3V31.4H66.9V31.5L67 31.4L67.1 31.3H67.2V31.4V31.5L67.3 31.6L67.4 31.7L67.5 31.8L67.6 32.1H67.7V32.2L67.8 32.4V32.5H67.9V32.6H68V32.7H68.1L68.2 32.8L68.4 33H68.5V33.1V33.2L68.6 33.3V33.4H68.7V33.5V33.6L68.8 33.7V33.8H68.9H69V33.9H69.2H69.4H69.7H69.8H69.9H70.1H70.2V34H70.3H70.5H70.6H70.7H70.9H71L71.2 34.1H71.3H71.4H71.5L71.6 34L71.7 33.9V34H71.8L72.3 34.3V34.4H72.4L72.5 34.5H72.6L72.8 34.6V34.7H73V34.8V34.9V35V35.1V35.2L72.9 35.3V35.4V35.5H72.8V35.6V35.7H72.7V35.8V35.9V36V36.1L72.6 36.2V36.3L72.7 36.4L72.8 36.5V36.6V36.7V36.8L72.9 36.9H72.8V37L72.7 37.1H72.6V37.2V37.3L72.5 37.4L72.7 37.5L72.9 37.6L73 37.7H73.2V37.5V37.4H73.3V37.7H73.5V37.8V37.9V38L73.4 38.2V38.3H73.3H73.2L73.1 38.2L73 38.3H72.9L72.5 38.2H72.4H72.3H72.1V38L72 37.9L71.9 38V37.9H71.8L71.4 37.7H71.3L71.1 37.6L71 37.8L70.9 37.6L70.4 37.5L70 37.4H69.9V37.5L69.7 37.4L69.6 37.5L69.5 37.6L69.4 37.7H69.5L69.6 38V38.1V38.2H69.5V38.3V38.4V38.5V38.6H69.4H69.3H69.2V38.7H69.1V38.8V38.9V39V39.1V39.2V39.3V39.4H69V39.5V39.6V39.7V39.8L69.1 39.9H69.2H69.3H69.4L69.5 40V40.1L69.6 40.2V40.3H69.7V40.4L69.8 40.5L70 40.6L70.1 40.8H70.2V40.9H70.3L70.4 41H70.5V41.1V41.2L70.6 41.3V41.4H70.7V41.5H70.8H70.9V41.6H71L71.1 41.7L71.2 41.8L71.3 41.9H71.4L71.5 42L71.6 42.1H71.7L71.8 42.2L71.9 42.3V42.4V42.5L72 42.6L72.1 42.7L72.2 42.8L72.3 42.9L72.4 43V43.1L72.5 43.2V43.3V43.4V43.5L72.4 43.6V43.7L72.3 43.8L72.2 43.9H72.1V44V44.1V44.2V44.4L72.2 44.3L72.5 44.2L72.7 44.1L73 44L73.3 43.8H73.4H73.5L73.8 43.6L74 43.5L74.1 43.4H74.2V43.3H74.3V43.2H74.4L74.5 43.1L74.6 43H74.7V42.9H74.8L74.9 43H75V43.1H75.1L75.2 43.2L75.3 43.3L75.4 43.4H75.5V43.5H75.6V43.6V43.7H75.7H75.8V43.8H75.9V43.9H76H76.1H76.2L76.3 44H76.4V44.1V44.2L76.5 44.3H76.6L76.7 44.4H76.8H76.9V44.5H77H77.1H77.2L77.4 44.6L77.5 44.7H77.6H77.7V44.8H77.8V44.9H77.7L77.8 45H77.9H78.2H78.3V45.3H78.4H78.5V45.2H78.6H78.7V45.1H78.8L78.7 45H78.8V44.9L78.9 44.8H79L79.1 44.7L79 44.6V44.5L79.1 44.4V44.3L79.2 44.2H79.3V44.1H79.4V44H79.5H79.6L79.7 44.1L79.8 44.2V44.3L79.7 44.4L79.5 44.6V44.7L79.4 44.8V44.9L79.3 45V45.2V45.3V45.4V45.5V45.6V45.7V45.8H79.4V45.9V46L79.5 46.1V46.2V46.3L79.4 46.4H79.3L79.4 46.5V46.6H79.5L79.6 46.7V46.8L79.8 46.9H79.9L80 47H80.2L80.3 47.1L80.4 47.2H80.5L80.6 47.3V47.4V47.5L80.7 47.6H80.8L80.9 47.7L81.1 47.8L81.2 47.9L81.3 48V48.1V48.2V48.3H81.2V48.4L81.1 48.5L81 48.6L80.9 48.7L80.8 48.8L80.7 48.9L80.5 49L80.4 49.1L80.1 49.2L80 49.3L79.9 49.4V49.5H79.8V49.6V49.7V49.8L79.9 49.9V50.1L80 50.3L80.1 50.4L80.2 50.6L80.3 50.7V50.8V50.9L80.4 51.1V51.2V51.3V51.5L80.5 51.6L80.6 51.9L80.7 52V52.1V52.2V52.3V52.4V52.5V52.6V52.7L80.8 52.8V52.9V53V53.1V53.2V53.3V53.4H81L81.1 53.5H81.2V53.6L81.3 53.7H81.4L81.5 53.8L81.6 53.9L81.7 54L81.9 54.1H82H82.1H82.2L82.3 53.9H82.4L82.5 53.8V53.6L82.6 53.5V53.4V53.3V53.2V53.1V53V52.9V52.7V52.6V52.5L82.5 52.4H82.4V52.3L82.3 52.2V52.1V52V51.9H82.4V51.8H82.5V51.7V51.6L82.6 51.5H82.7H82.8L82.9 51.4L83.1 51.1L83.3 50.9L83.6 50.7V50.6H83.7V50.5H83.8V50.4L83.9 50.3V50.2L83.8 50.1V50H83.7L83.6 49.9V49.8L83.5 49.7V49.6V49.5V49.4V49.3H83.6H83.7L83.8 49.4L83.9 49.5H84L84.1 49.6L84.2 49.7H84.3L84.4 49.8H84.5V49.7H84.6H84.7V49.6H84.8V49.5L84.9 49.4L85 49.3L85.1 49.2L85.2 49.1L85.3 49H85.4H85.5H85.6H85.7L85.8 49.1V49.2L85.9 49.3V49.4V49.5V49.6V49.7V49.8L85.8 50V50.1V50.2L85.7 50.3L85.6 50.4V50.5L85.5 50.6V50.7V50.8V50.9V51V51.1V51.2V51.3V51.5V51.6V51.7V51.8V51.9V52.1V52.2V52.3V52.4V52.5L85.4 52.6V52.8V52.9L85.3 53.1V53.2L85.2 53.4V53.5L85.1 53.6L85 53.8V54L84.9 54.1L84.8 54.3V54.4L84.7 54.5L84.6 54.7L84.5 54.8V55L84.4 55.2V55.3V55.4V55.5H84.5V55.6H84.6H84.7H84.8H85H85.2L85.3 55.5L85.4 55.4L85.5 55.3V55.1L85.6 54.8V54.6V54.5L85.7 54.4V54.3L85.8 54.2V54.1H85.9V54H86H86.2H86.4H86.5H86.6H86.7H86.9H87H87.1H87.2H87.4L87.6 54.1H87.7L87.9 54.2L88 54.3H88.1H88.2V54.4V54.5L88.3 54.6V54.7V54.8H88.4V54.9V55V55.1V55.2V55.3V55.4L88.5 55.5V55.6H88.6V55.7H88.7H88.8H88.9L89 55.8H89.1L89.2 55.7H89.3L89.5 55.6H89.6L89.7 55.5H89.8H89.9H90H90.1V55.6H90.2L90.3 55.7V55.8V55.9V56V56.2H90.4H90.5H90.9H91.3L91.2 56.1V55.9V55.8L91.1 55.7V55.6V55.5V55.4V55.3V55.2V55.1V55V54.9V54.8H91.2V54.7H91.3L91.4 54.6H91.5H91.7L91.8 54.5L91.9 54.6H92H92.1H92.2H92.3H92.4L92.5 54.7L92.6 54.8H92.8L92.9 54.9H93H93.1L93.3 55L93.4 55.1L93.5 55.2H93.6H93.7H93.8L93.9 55.3L94 55.4L94.2 55.5H94.4L94.7 55.6L94.9 55.7H95L95.1 55.8H95.3H95.4H95.5H95.6H95.8V55.7L95.9 55.6H96V55.5V55.4V55.3V55.2L95.9 54.9L95.7 54.7L95.6 54.6L95.5 54.4L95.4 54.3V54.2V54.1V54V53.9V53.8H95.5V53.7H95.6L95.7 53.6H95.8H95.9H96L96.1 53.7L96.2 53.8H96.3L96.4 53.9H96.6L96.7 54H96.8L96.9 54.2L97 54.3H97.1L97.2 54.4H97.3V54.5H97.4V54.6H97.5V54.7V54.8H97.6L97.5 54.9V55L97.4 55.2L97.3 55.3L97.2 55.4L97.1 55.5V55.6L96.9 55.8H96.8V55.9H96.7L96.6 56V56.1V56.2V56.3V56.5L96.7 56.6L96.8 56.7L96.9 56.8L97.1 56.9H97.2L97.3 57H97.4H97.5L97.6 57.1L97.7 57.2L97.9 57.3H98L98.1 57.4H98.2L98.3 57.5L98.4 57.6L98.5 57.7H98.6V57.8H98.7V57.9L98.8 58L98.9 58.2V58.3H99L99.1 58.4L99.2 58.5L99.3 58.6H99.4L99.6 58.7H99.7H99.8H99.9L100 58.8H100.1H100.2L100.3 58.9H100.4H100.5H100.7H100.9H101H101.2H101.3H101.4V59H101.5L101.6 59.1H101.7V59.2H101.8L102 59.4H102.1L102.2 59.5L102.3 59.6L102.5 59.8L102.6 59.9L102.7 60.1L102.8 60.2L102.9 60.4H103V60.5H103.1L103.2 60.7L103.3 60.8L103.5 61L103.7 61.3L103.8 61.4L104 61.6L104.1 61.7L104.2 61.8L104.3 61.9H104.4H104.5V62H104.6L104.8 62.1H104.9L105.1 62.2L105.2 62.3L105.3 62.4L105.6 62.6H105.7L105.9 62.7L106 62.9H106.1V63L106.2 63.1V63.2V63.3V63.4V63.5L106.1 63.6L106 63.7L105.9 63.8V63.9H105.8L105.7 64L105.5 64.1H105.3L104.9 64.5L104.7 64.6V64.7V64.8L104.6 64.9V65L104.7 65.2V65.3L104.8 65.4L104.9 65.5H105L105.2 65.6H105.4H105.7L105.9 65.7L106.1 65.8H106.3L106.5 65.9L106.6 66L106.7 66.1L106.8 66.2V66.3V66.4V66.5V66.6V66.7L106.7 66.8V66.9L106.6 67L106.5 67.2L106.4 67.3L106.3 67.4H106.2L106 67.6L105.8 67.7L105.6 67.8L105.5 67.9L105.4 68L105.3 68.1L105.2 68.2V68.3V68.4V68.5L105.3 68.6V68.7H105.4L105.5 68.8H105.6L105.5 68.9V69L105.3 69.3L105.2 69.4L105.3 69.7L105.2 69.8H105.1L105 69.9V70H104.9L104.7 70.1V70.2H104.6L104.5 70.3L104.4 70.5L104.2 70.6V70.7L104.1 70.8L104 71H103.9L103.8 71.3L103.7 71.4V71.5H103.6L103.5 71.7H103.4V71.8V71.9V72.1V72.2V72.3L103.5 72.4L103.6 72.6V72.7V72.8H103.5L103.6 73V73.4V73.5L103.7 73.8V73.9V74L103.6 74.3V74.6V74.7V74.8V74.9L103.5 75V75.2L103.6 75.3L103.7 75.4V75.5L103.8 75.6V75.7V75.8L103.9 76V76.1V76.2H104V76.3V76.4H104.1V76.5H104.2V76.6H104.3V76.7V76.8L104.2 77H104.1H104V77.1H104.1V77.2V77.3H104.2V77.4H104.1V77.5V77.6H104L104.1 77.7L104.2 77.9L104.3 78V78.1V78.2V78.3V78.4H104.2V78.5V78.6L104.1 78.7V78.8L104.2 78.9V79V79.1H104.3H104.4H104.5V79.2V79.3V79.4V79.5H104.6V79.6V79.7V79.8V79.9V80V80.1V80.2L104.5 80.4V80.5V80.6V80.7V80.8L104.4 80.9V81V81.1L104.3 81.2V81.4V81.5L104.2 81.6V81.7V81.8L104.1 81.9V82V82.1V82.2V82.3L104.2 82.4V82.5V82.6V82.7V82.8V82.9V83V83.1V83.2V83.3V83.4V83.5V83.6V83.7L104.1 83.8V83.9L104 84V84.1H104.1V84.2V84.3H104.2V84.4V84.5H104.3V84.6H104.4V84.7V84.8H104.5V84.9V85V85.1V85.2H104.4V85.3H104.5V85.4V85.5V85.6V85.7V85.8H104.4V85.9H104.3V86V86.1V86.2V86.3H104.4V86.4V86.5V86.6H104.5V86.7V86.8V86.9V87V87.1H104.6V87.2V87.3H104.7V87.4V87.5V87.6H104.6V87.7V87.8V87.9H104.5V88H104.4V88.1V88.2V88.3H104.3V88.4H104.2L104.1 88.5H104.2V88.6V88.7L104.3 88.8V88.9H104.4L104.5 88.8H104.6H104.7V88.7V88.6H104.8H104.9V88.7H105V88.8H105.1V88.9H105.2V89L105.1 89.1V89.2V89.3H105V89.4H105.1V89.5L105.2 89.6V89.7V89.8H105.1V89.9L105 90V90.1V90.2V90.3L105.1 90.4V90.5H105.2V90.6V90.7V90.8V90.9V91.1H105.1H105H104.9H104.8H104.7V91.2H104.6H104.5V91.3H104.4H104.3V91.4H104.2H104.1V91.3H104H103.9H103.8H103.7H103.6H103.5L103.4 91.2H103.3H103.2V91.1H103.1H103H102.9L102.8 91.2H102.7H102.6H102.5V91.1H102.4H102.3L102.2 91H102.1H102H101.9V90.9H101.8L101.7 91H101.6H101.5V90.9V90.8H101.4H101.3H101.2V90.7H101.1H101V90.6H100.9V90.5V90.4L100.8 90.3V90.2H100.7L100.6 90.1H100.5V90L100.4 89.9H100.3V89.8H100.2V89.7H100.1H100H99.9H99.8H99.7H99.6H99.5V89.6H99.4H99.3H99.2H99.1H99H98.9H98.8H98.7H98.6V89.7H98.5L98.4 89.6H98.3L98.2 89.5L98.1 89.6H98L97.9 89.7H97.8L97.7 89.6L97.6 89.5H97.5H97.4V89.6H97.3H97.2H97.1H97L96.9 89.5H96.8V89.4H96.7V89.5H96.6H96.5H96.4H96.3V89.6H96.2H96.1V89.7L96 89.8L95.9 89.9L95.8 90H95.7H95.6H95.5H95.4H95.3H95.2H95.1H95V90.1H94.9V90.2H94.8L94.7 90.1L94.6 90H94.5H94.4V90.1H94.3H94.2V90.2V90.3V90.4H94.1H94H93.9H93.8H93.7H93.6V90.5H93.5H93.4L93.3 90.4H93.2L93.1 90.3H93V90.4H92.9L92.8 90.5L92.7 90.7H92.6L92.5 90.8H92.4H92.3V90.9H92.2H92.1L92 91H91.9V91.1H91.8V91.2H91.7H91.6L91.5 91.3H91.4L91.3 91.4L91.2 91.5L91 91.6L90.8 91.7L90.7 91.8H90.6V91.9H90.5L90.4 92H90.3H90.2H90.1V92.1H90H89.9V92.2H89.8L89.7 92.3V92.4V92.5H89.6V92.6H89.5V92.7H89.4V92.8V92.9H89.3V93H89.2H89.1V93.1H89V93.2H88.9V93.3V93.4H88.8V93.5V93.6V93.7H88.7V93.8H88.6V93.7L88.5 93.8H88.4L88.3 93.9H88.2H88.1V94L88 94.1V94.2V94.3V94.4V94.5L87.9 94.6H87.8H87.7L87.6 94.7L87.7 94.8L87.8 94.9V95H87.7V95.1H87.6H87.5H87.4V95H87.3V95.1H87.2V95.2L87.1 95.3H87V95.4V95.5V95.6H86.9V95.7V95.8V95.9V96H86.8L86.7 96.1H86.6H86.5L86.4 96H86.3V96.1L86.2 96.3L86.1 96.5L86 96.6L85.9 96.8V96.9L85.8 97.1V97.2H85.7V97.3V97.4V97.5L85.6 97.6V97.7L85.5 97.8L85.3 97.9L85.2 98L85.1 98.1L85 98.2V98.3L84.9 98.4V98.5V98.6L84.8 98.7L84.7 98.9L84.5 99.1H84.4V99.2L84.3 99.4L84.2 99.5V99.6V99.7L84.1 99.8V99.9H84L83.9 100L83.8 100.1V100.2L83.7 100.3V100.4V100.5V100.6H83.6L83.5 100.7H83.4L83.3 100.9L83.1 101.1L83 101.2L82.8 101.3V101.4H82.7H82.6L82.4 101.3H82.3H82.2L82.1 101.2H82H81.8H81.7L81.6 101.1H81.5V101.2H81.4L81.3 101.3H81.2H81.1V101.4H81V101.5L80.9 101.6L80.8 101.7L80.7 101.8L80.6 101.9H80.5L80.4 102L80.3 102.1H80.2V102.2V102.3V102.4H80.1H80L79.8 102.5V102.6L79.6 102.7L79.5 102.8H79.4H79.3V102.9H79.2V103H79.3V103.1H79.4H79.5H79.6L79.7 103.2H79.8V103.3L79.9 103.4V103.5V103.6V103.7H79.8L79.7 103.8L79.6 103.9V104V104.1H79.7V104.2L79.8 104.3H79.9L80 104.4H80.1H80.2V104.5H80.3L80.4 104.6V104.7V104.8H80.5V104.9H80.6L80.7 105L80.8 105.1V105.2L80.9 105.3V105.4H80.8L80.9 105.5V105.7V105.8V105.9L80.8 106V106.1V106.2L80.7 106.3L80.6 106.4H80.5V106.5H80.4H80.3L80.2 106.4H80.1V106.3H80V106.2L79.9 106.1H79.8V106H79.7L79.6 105.9H79.5H79.4H79.3H79.2H79.1H79L78.9 105.8H78.8V105.9H78.7L78.6 106L78.5 106.1H78.4L78.3 106.2L78.2 106.3V106.4H78.1V106.5V106.6H78V106.7V106.8V106.9L78.1 107V107.1H78.2V107.2H78.3V107.3H78.4L78.5 107.4L78.6 107.5V107.6V107.7H78.5V107.8H78.4H78.3H78.2H78.1H78H77.9H77.8H77.7H77.6H77.5V107.9H77.4H77.3V108H77.2V108.1V108.2V108.3V108.4V108.5L77.3 108.6L77.4 108.7H77.5V108.8V108.9V109V109.1H77.4V109.2L77.3 109.3V109.4V109.5V109.6V109.7V109.8V109.9H77.2V110H77.1V110.1H77H76.9H76.8H76.7H76.5H76.4H76.3H76.2H76.1H76V110.2H75.9L75.8 110.3L75.7 110.4V110.5V110.6V110.7V110.8H75.8V110.9V111H75.9V111.1V111.2V111.3L75.8 111.4L75.7 111.5H75.6L75.5 111.6H75.4H75.3H75.2H75.1L75 111.5H74.8V111.4L74.6 111.3H74.5L74.4 111.2H74.3V111.1V111H74.2V110.9H74.1H74V110.8H73.9H73.8H73.7H73.6V110.9H73.5H73.4V111H73.3L73.2 111.1L73.1 111.2L73 111.3L72.9 111.4V111.5H72.8V111.6L72.9 111.7V111.8V111.9H73V112H73.1L73.2 112.1V112.2V112.3V112.4L73.3 112.5V112.6V112.7V112.8H73.4H73.5L73.6 112.9H73.7V113L73.6 113.1V113.2V113.3V113.4H73.5V113.5L73.4 113.6L73.3 113.7V113.8H73.2V113.9V114H73.1V114.1H73H72.9L72.8 114.2H72.7L72.6 114.3V114.4H72.7V114.5V114.6H72.6V114.5H72.5H72.4H72.3V114.6H72.2V114.7H72.1V114.8H72V114.9L71.9 115V115.1V115.2H71.8V115.3V115.4H71.7V115.5H71.6L71.5 115.6L71.4 115.7V115.8H71.3V115.9H71.2V116H71.1L71 116.1L70.9 116.2H70.8V116.3H70.9V116.4H71V116.5H70.9V116.6H70.8H70.7V116.7V116.8H70.6L70.5 116.9H70.4V117H70.3V117.1H70.2V117.2H70.1V117.3H70H69.9V117.4V117.5V117.6H69.8H69.7V117.7H69.6V117.8H69.5H69.4V117.9V118V118.1V118.2V118.3V118.4V118.5V118.6H69.5V118.7V118.8V118.9H69.6H69.7L69.8 119V119.1V119.2V119.3H69.7V119.4H69.6V119.5L69.5 119.6V119.7V119.8V119.9H69.4V120H69.3V120.1V120.2V120.3H69.4V120.4V120.5L69.3 120.6V120.7H69.4V120.8V120.9H69.5V121V121.1V121.2V121.3V121.4V121.5V121.6H69.6V121.7H69.7V121.8V121.9H69.6V122V122.1V122.2V122.3L69.7 122.4L69.8 122.5H69.9H70V122.6V122.7H69.9H69.8V122.6H69.7H69.6V122.7L69.7 122.8V122.9V123H69.8V123.1V123.2V123.3H69.9V123.2H70L70.1 123.3H70.2H70.3V123.4L70.2 123.5H70.1V123.4H70H69.9V123.5H69.8V123.6V123.7V123.8V123.9V124H69.9V124.1V124.2V124.3H70V124.4L70.1 124.5V124.6H70.2V124.7H70.3L70.4 124.6H70.5V124.7L70.6 124.8H70.7V124.9V125L70.8 125.1H70.9H71L71.1 125.2V125.3V125.4V125.5H71.2V125.6V125.7V125.8H71.3H71.4V125.7H71.5V125.8V125.9H71.6H71.7V126V126.1V126.2V126.3V126.4V126.5H71.8H71.9V126.6V126.7V126.8H71.8V126.9H71.7V127H71.8H71.9V127.1V127.2H71.8H71.7H71.6H71.5H71.4H71.3V127.3H71.2V127.4L71.1 127.5V127.6V127.7H71.2V127.8H71.3V127.9V128V128.1V128.2H71.4H71.5V128.3H71.6V128.4H71.7V128.5V128.6V128.7V128.8V128.9V129L71.8 129.1H71.9V129.2H72H72.1H72.2V129.1H72.3V129.2H72.4H72.5V129.3V129.4H72.6V129.5V129.6L72.7 129.7H72.8V129.8H72.9H73H73.1V129.9L73.2 130V130.1H73.1V130.2L73 130.3V130.4H72.9L73 130.5H73.1V130.4H73.2V130.5L73.3 130.6H73.4V130.7H73.5L73.6 130.6H73.7V130.7V130.8V130.9V131H73.6V131.1V131.2V131.3H73.5V131.4L73.4 131.5H73.3V131.6V131.7V131.8V131.9V132H73.2V132.1V132.2V132.3V132.4V132.5H73.1H73V132.6H73.1V132.7V132.8H73V132.9V133H72.9H72.8H72.7H72.6V133.1V133.2H72.5V133.3H72.6V133.4V133.5L72.5 133.6H72.4H72.3V133.7H72.2V133.8H72.1V133.9V134V134.1H72V134.2H71.9V134.3V134.4V134.5H71.8H71.7V134.6V134.7V134.8V134.9H71.6H71.5V135H71.4V135.1H71.3V135.2V135.3H71.2V135.4V135.5L71.1 135.6V135.7V135.8V135.9H71V136V136.1V136.2V136.3H70.9V136.4L71 136.5H70.9V136.6V136.7V136.8H70.8V136.9V137V137.1V137.2V137.3V137.4V137.5V137.6V137.7H70.7V137.8V137.9V138V138.1H70.6V138.2L70.5 138.3H70.4V138.4L70.3 138.5V138.6H70.2V138.7V138.8V138.9V139V139.1H70.1V139.2L70 139.3V139.4V139.5V139.6V139.7V139.8V139.9H69.9V140V140.1V140.2V140.3V140.4L69.8 140.5H69.6H69.2L69 140.6H68.9H68.6H68.5H68.2H68.1H68V140.5V140.4H68.1V140.3V140.1V139.9L68 139.8V139.7L67.9 139.5V139.4L67.8 139.2V139.1L67.9 139L67.8 138.9L67.7 138.8V138.5L67.5 138.3L67.4 138.2L67.3 138.1L67.2 138H67.1V137.9L67 137.8H66.9L66.8 137.7L66.7 137.6L66.6 137.5V137.4V137.1H66.5L66.4 137V136.8L66.2 136.7L66 136.6H65.9L65.7 136.5H65.6V136.4V136.3V136.2L65.7 136.1V136V135.8L65.6 135.4L65.5 135.2V135.1H65.4L65.3 134.9L65.1 134.7L64.9 134.5V134.3L65 134.1V134V133.9L65.1 133.7V133.6H65.2V133.4L64.9 133.3H64.7H64.6H64.5V133.2H64.4H64.2L64 133.3L63.9 133.2L63.7 133.1H63.5H63.4H63.3H63.2L63 133.2L62.9 133V132.8L62.8 132.7L62.7 132.6V132.4V132.2V132.1H62.6L62.5 132.2L62.4 132.1L62.1 132H62L61.8 132.1L61.7 132.2H61.6V132.4L61.5 132.5L61.4 132.7L61.1 132.4V132.3L60.8 132.2V132.1L60.7 132V131.9V131.8H60.6V131.7H60.5V131.6L60.3 131.7V131.8H60.2V131.9H60.1H60H59.9H59.8V132H59.7L59.6 131.9H59.5H59.4H59.2H59.1H59V131.8V131.7V131.5V131.4V131.3V131.2L58.9 131.1V131H58.8L58.7 130.9L58.5 130.8H58.4V130.7H58.3H58.2H58.1L58 130.6H57.9V130.5H57.8V130.3H57.7H57.6L57.5 130.2H57.4V130.1H57.3V130L57.2 129.9V129.8V129.7L57.1 129.6V129.5V129.4L57 129.2V129.1H57.1V129V128.9V128.8V128.7V128.6V128.5V128.4H57.2L57.3 128.2V128.1L57.4 128V127.9V127.8V127.7V127.6H57.3L57.2 127.5V127.4L57.1 127.3V127.2L57 127.1L56.9 127L56.8 126.9V126.8V126.7H56.7H56.5L56.3 126.6H56.4V126.4V126.3V126.2L56.3 126.1V126L56.2 125.9H56.1L55.9 125.8L55.7 125.7L55.5 125.6V125.5V125.2L55.4 125L55.3 124.9L55.2 124.8L55.3 124.4V124.3L55.2 124.2V124.1V123.9L55.1 123.8L55 123.6L54.9 123.5H54.8L54.7 123.6H54.6H54.4H54.3V123.5H54.2V123.6L54.1 123.7H54V123.8H53.9L53.8 123.9V124L53.6 123.9H53.5L53.6 123.8V123.7V123.6L53.5 123.5V123.4V123.3L53.3 123.2V123.1L53.2 123L53.1 122.9H53L52.9 122.8V122.7L52.8 122.5H52.7L52.6 122.4L52.5 122.3H52.4H52.3H52.2H52.1H52H51.9H51.8Z" fill="#6F9C76"/>
<path d="M52.4 119V119.1V119.2H52.3V119.3V119.4V119.5H52.2V119.6V119.7L52.3 119.8V119.9H52.4V120H52.3H52.2V120.1H52.1V120.2V120.3L52 120.4H52.1V120.5V120.6H52V120.7V120.8V120.9V121V121.1V121.2V121.3V121.4L51.9 121.5V121.6H51.8V121.7V121.8V121.9L51.9 122V122.1L51.8 122.2V122.3H51.9H52H52.1H52.2H52.3H52.4H52.5L52.6 122.4L52.7 122.5H52.8L52.9 122.7V122.8L53 122.9H53.1L53.2 123L53.3 123.1V123.2L53.5 123.3V123.4V123.5L53.6 123.6V123.7V123.8L53.5 123.9H53.6L53.8 124V123.9L53.9 123.8H54V123.7H54.1L54.2 123.6V123.5H54.3V123.6H54.4H54.6H54.7L54.8 123.5H54.9L55 123.6L55.1 123.8L55.2 123.9V124.1V124.2L55.3 124.3V124.4L55.2 124.8L55.3 124.9L55.4 125L55.5 125.2V125.5V125.6L55.7 125.7L55.9 125.8L56.1 125.9H56.2L56.3 126V126.1L56.4 126.2V126.3V126.4V126.6H56.3L56.5 126.7H56.7H56.8V126.8V126.9L56.9 127L57 127.1L57.1 127.2V127.3L57.2 127.4V127.5L57.3 127.6H57.4V127.7V127.8V127.9V128L57.3 128.1V128.2L57.2 128.4H57.1V128.5V128.6V128.7V128.8V128.9V129V129.1H57V129.2L57.1 129.4V129.5V129.6L57.2 129.7V129.8V129.9L57.3 130V130.1H57.4V130.2H57.5L57.6 130.3H57.7H57.8V130.5H57.9V130.6H58L58.1 130.7H58.2H58.3H58.4V130.8H58.5L58.7 130.9L58.8 131H58.9V131.1L59 131.2V131.3V131.4V131.5V131.7V131.8V131.9H59.1H59.2H59.4H59.5H59.6L59.7 132H59.8V131.9H59.9H60H60.1H60.2V131.8H60.3V131.7L60.5 131.6V131.7H60.6V131.8H60.7V131.9V132L60.8 132.1V132.2L61.1 132.3V132.4L61.4 132.7L61.5 132.5L61.6 132.4V132.2H61.7L61.8 132.1L62 132H62.1L62.4 132.1L62.5 132.2L62.6 132.1H62.7V132.2V132.4V132.6L62.8 132.7L62.9 132.8V133L63 133.2L63.2 133.1H63.3H63.4H63.5H63.7L63.9 133.2L64 133.3L64.2 133.2H64.4H64.5V133.3H64.6H64.7H64.9L65.2 133.4V133.6H65.1V133.7L65 133.9V134V134.1L64.9 134.3V134.5L65.1 134.7L65.3 134.9L65.4 135.1H65.5V135.2L65.6 135.4L65.7 135.8V136V136.1L65.6 136.2V136.3V136.4V136.5H65.7L65.9 136.6H66L66.2 136.7L66.4 136.8V137L66.5 137.1H66.6V137.4V137.5L66.7 137.6L66.8 137.7L66.9 137.8H67L67.1 137.9V138H67.2L67.3 138.1L67.4 138.2L67.5 138.3L67.7 138.5V138.8L67.8 138.9L67.9 139L67.8 139.1V139.2L67.9 139.4V139.5L68 139.7V139.8L68.1 139.9V140.1V140.3V140.4H68V140.5V140.6H68.1H68.2H68.5H68.6H68.9H69L69.2 140.5H69.6H69.8L69.9 140.4M52.4 119H52.3M52.4 119V118.9V118.8H52.5V118.7V118.6H52.6V118.5V118.4H52.7V118.3H52.8V118.2H52.9V118.1H53L53.1 118V117.9H53.2V117.8V117.7L53.3 117.6V117.5H53.4V117.4L53.5 117.3L53.6 117.2H53.7V117.1H53.8H53.9H54L54.1 117.2H54.2V117.1H54.3L54.4 117V116.9V116.8H54.5L54.6 116.7L54.8 116.5L54.9 116.4H55H55.1V116.3V116.2H55V116.1V116V115.9V115.8H54.9V115.7V115.6H54.8V115.5V115.4V115.3V115.2H54.7V115H54.6V114.9H54.5V114.8H54.4V114.7H54.3V114.6H54.2V114.5V114.4L54.1 114.3V114.2H54L53.9 114.1V114V113.9L53.8 113.7L53.7 113.6V113.5L53.6 113.3L53.5 113.2V113.1H53.4L53.2 113H53.1H53V112.9H52.9V112.8H52.8V112.7V112.6L52.7 112.5H52.6V112.4H52.5L52.4 112.3V112.2H52.3V112.1H52.2L52.1 112H52H51.9V111.9H51.8L51.7 112L51.6 111.9L51.5 111.8V111.7H51.6V111.6V111.5V111.4V111.3H51.5V111.2V111.1H51.4V111H51.3V110.9H51.2H51.1V110.8H51V110.9L50.9 110.8H50.8H50.7L50.6 110.7H50.5V110.6H50.4H50.3H50.2V110.5V110.4V110.3L50.3 110.2V110.1V110V109.9L50.2 109.8V109.7L50.1 109.6H50V109.5V109.4H49.9V109.3V109.2V109.1H49.8V109L49.6 108.9V108.8H49.5L49.4 108.7L49.3 108.6V108.5H49.2H49.1L48.9 108.4V108.3H48.8V108.2V108.1V108L48.7 107.9V107.8V107.7V107.6H48.8L48.9 107.5V107.2H49L49.4 106.9H49.5V106.8L49.7 106.5H49.6L49.5 106.3L49.4 106.2V106.1H49.3L49.2 105.9V105.8H49.3L49.5 105.7V105.6H49.6V105.5L49.7 105.4L49.8 105.3V105.2H49.9V105.1V105V104.9H49.8V104.8H49.7V104.7H49.8H49.9V104.6V104.5H50V104.4V104.2L50.1 104V103.9H50.2V103.8H50.3H50.4H50.5H50.6V103.7H50.7H50.8L50.9 103.6V103.5V103.4H50.8L50.7 103.2L50.6 103V102.9V102.8H50.5V102.7H50.4L50.3 102.6L50.2 102.5L50 102.3L49.8 102.2V102.1L49.7 102H49.6H49.5V101.9H49.3H49.1L49 101.8H48.9L48.8 101.7L48.7 101.6H48.6H48.5H48.4L48.3 101.5H48.2H48.1H48H47.9V101.4L47.8 101.3V101.2V101.1L47.9 100.9L48 100.8V100.7V100.6V100.5V100.4V100.3V100.2H48.1V100.1V100V99.9V99.8H48V99.7V99.6V99.5L48.1 99.4V99.3H48.2L48.1 99.2V99.1M48.1 99.1H48.2M48.1 99.1V99V98.9V98.8V98.7H48H47.9V98.6H47.8V98.5L47.7 98.4L47.6 98.5H47.5H47.4V98.4V98.3H47.3V98.2H47.2V98.1H47.1V98V97.9H47H46.9H46.8V97.8H46.7H46.6V97.7V97.6V97.5V97.4H46.5V97.3H46.4H46.3H46.2V97.2H46.1V97.1H46H45.9V97V96.9H45.8V96.8L45.7 96.7H45.6V96.6V96.5V96.4V96.3H45.5V96.2L45.4 96.1V96.2H45.3H45.2L45.1 96.1L45 96L45.1 95.9H45V95.8H44.9V95.7V95.6H44.8V95.5L44.7 95.4H44.6L44.5 95.3L44.4 95.2V95.1V95L44.5 94.9V94.8H44.4H44.3H44.2H44.1L44 94.7H43.9L43.8 94.6V94.5H43.7L43.6 94.6H43.5H43.4H43.3L43.2 94.5V94.4V94.3V94.2H43.1V94.1V94H43H42.9V93.9V93.8H42.8H42.7L42.6 93.7H42.5V93.6H42.4L42.3 93.5L42.2 93.4H42.1V93.5H42H41.9H41.8L41.7 93.4H41.6V93.3H41.5V93.2H41.4V93.1V93L41.3 92.9V92.8V92.7H41.2V92.6V92.5V92.4V92.3V92.2V92.1L41.3 92V91.9V91.8H41.4L41.5 91.7V91.6V91.5H41.4V91.4L41.3 91.3V91.2H41.2V91.1H41.1V91H41H40.9H40.8V90.9V90.8V90.7H40.7H40.6H40.5H40.4V90.6H40.3V90.5H40.2L40.1 90.4L40 90.5H39.9H39.8H39.7V90.4H39.6H39.5V90.3H39.4V90.2V90.1H39.3H39.2L39.1 90H39H38.9V89.9H38.8L38.7 89.8H38.6H38.5H38.4H38.3L38.2 89.7L38.1 89.6H38L37.8 89.5H37.7V89.6L37.8 89.7V89.8V89.9V90L37.7 90.1V90.2H37.6V90.3V90.4H37.7V90.5V90.6H37.8V90.7H37.9V90.8V90.9V91H38V91.1L37.9 91.2H37.8L37.7 91.3V91.4V91.5V91.6H37.6L37.4 91.7L37.3 91.8L37.2 91.9V92L37.3 92.2L37.2 92.3H37.1V92.4H37V92.5H36.9V92.6V92.7H37V92.8L36.9 92.9L36.8 93.1H36.7L36.6 93.2V93.3L36.5 93.4H36.4L36.2 93.3L36.1 93.2V93.1L36 92.9H35.9V92.8H35.6H35.5H35.4H35.3L35.2 92.9H35L34.9 93L34.6 92.8L34.4 92.7L34.2 92.5L34.1 92.3H34H33.9H33.8V92.4H33.7H33.6H33.5L33.4 92.3H33.3L33.2 92.2H33.1H33H32.9V92.3H32.8L32.7 92.4L32.6 92.3H32.5L32.4 92.2V92.1V92L32.5 91.8V91.7V91.6V91.5H32.4H32.3H32.2H32.1H32V91.4H31.9L31.8 91.3V91.2V91.1V91V90.9H31.7H31.6V90.8H31.5L31.3 90.7H31.2H31.1V90.6H31V90.5H30.9V90.4V90.3V90.2L31 90.1V90V89.9V89.8H31.1V89.7V89.6V89.5L31 89.4L30.9 89.3L30.8 89.2L30.7 89.1H30.6V89H30.5V88.9L30.6 88.8V88.7V88.5H30.7V88.4V88.3V88.2H30.8V88.1V88L30.7 87.7L30.6 87.4V87.3L30.7 87.2V87.1V87M30.7 87H30.8M30.7 87L30.6 86.9H30.5V86.8H30.4H30.3H30.2V86.7H30.1V86.6L30 86.5V86.4V86.3V86.2H29.9V86.1L29.8 86H29.9V85.9V85.8M29.9 85.8H30M29.9 85.8V85.7L29.8 85.6H29.7V85.5H29.8V85.4L29.9 85.2L29.8 85L29.7 84.9V84.7V84.6L29.8 84.4V84.3V84.2H29.9H30V84.1V84L30.2 83.9L30.3 83.7L30.5 83.5V83.4H30.4V83.3H30.3V83.2L30.2 83.1H30.1L30 83V82.9H29.9V82.8H29.8V82.7V82.6H29.7L29.5 82.5L29.3 82.3H29.2V82.2V82.1V82H29.3V81.9H29.4V81.8V81.7H29.5V81.6H29.6V81.5V81.4V81.3V81.2V81.1V81H29.7V80.9H29.8V80.8H29.9V80.7V80.6H30V80.5V80.4H30.1V80.3V80.2V80.1L30.2 80H30.1V79.9V79.8L30 79.7H29.9L29.8 79.5L29.7 79.4H29.6H29.5H29.4H29.3H29.2H29.1L29 79.5L28.9 79.6L28.8 79.7V79.8L28.7 79.9H28.6V80V80.1H28.5H28.4H28.3H28.2L28.1 80H28L27.9 79.9V80V80.1V80.2V80.3V80.4V80.5H27.8V80.6H27.7V80.7H27.6H27.5L27.4 80.8V80.9V81H27.3M27.3 81V81.1M27.3 81H27.2L27.1 80.9L27 80.8V80.7H26.9H26.8H26.7L26.6 80.8V80.9H26.5H26.4H26.3V81H26.2M26.2 81V80.9M26.2 81H26.1L26 81.1H25.9H25.8H25.7V81.2V81.3H25.6V81.4H25.5V81.5V81.6H25.4V81.7H25.3V81.8H25.2V81.9H25.1V82H25V81.9H24.9H24.8V81.8H24.7V81.7H24.6L24.5 81.6H24.4L24.3 81.7V81.6H24.2L24.1 81.7H24H23.9V81.8H23.8V81.7H23.7V81.6L23.6 81.5L23.5 81.6H23.4V81.7H23.3V81.8H23.2V81.9H23.1V82V82.1V82.2H23V82.3H22.9V82.4V82.5V82.6V82.7V82.8H22.8V82.9H22.7V83L22.6 83.2V83.3H22.5V83.4V83.5H22.4V83.6H22.3H22.2V83.7H22.1V83.8V83.9V84H22.2V84.1V84.2H22.3V84.3H22.4V84.4V84.5L22.5 84.6H22.4V84.7L22.3 84.8H22.2H22.1V84.9H22L21.9 85V85.1H21.8L21.7 85.2H21.6H21.5H21.4V85.1H21.3H21.2H21.1H21L20.9 85H20.8V84.9H20.7V84.8L20.6 84.9H20.5H20.4L20.3 84.8H20.2H20.1V84.7H20H19.8H19.7H19.6V84.6H19.5V84.5H19.4V84.4L19.3 84.3H19.2L19.1 84.2L19 84.1V84L18.9 83.9V83.8V83.7L18.8 83.6V83.5V83.4V83.3V83.2L18.9 83.1H19V83H19.1V82.9V82.8H19.2V82.7L19.3 82.6L19.4 82.5L19.3 82.4V82.3V82.2V82.1V82V81.9V81.8V81.7L19.2 81.6V81.5V81.4H19.3V81.3H19.4V81.2H19.5L19.6 81.1V81V80.9V80.8V80.7H19.5V80.6H19.4V80.5V80.4L19.5 80.3L19.4 80.2V80.1H19.3V80L19.4 79.9V79.8L19.3 79.7L19.2 79.6H19.1V79.5V79.4V79.3H19.2H19.3V79.2V79.1V79V78.9V78.8L19.4 78.7V78.6H19.5L19.6 78.5H19.7V78.4H19.8V78.3V78.1V78H19.7H19.6L19.5 77.9H19.4H19.3H19.2L19.1 77.8H19V77.7V77.6L18.9 77.5L18.8 77.4V77.3H18.7M18.7 77.3V77.2M18.7 77.3L18.6 77.4L18.5 77.5H18.4V77.6H18.3H18.2V77.7L18.1 77.8H18V77.9H17.9H17.8V77.8H17.7V77.9H17.6H17.5V78H17.4V77.9H17.3V77.8H17.2H17.1H17L16.9 77.7H16.8L16.7 77.8V77.9H16.6H16.5V78H16.4H16.3H16.2L16.1 77.9L15.8 77.6L15.5 77.2H15.4V77.1H15.3V77H15.2H15.1V76.9H15V76.8V76.7L15.1 76.6V76.5V76.4V76.3H15V76.2H15.1V76.1V76L15 75.9H14.9L14.8 76H14.5H14.4H14.3L14.2 75.9H14.1H13.9H13.8V75.8H13.7L13.6 75.9H13.5V75.8V75.7V75.6V75.5H13.4V75.4H13.3V75.3H13.2H13.1V75.2L13 75.1L12.9 75V74.9V74.8V74.7H13L13.1 74.6V74.5V74.4H13.2V74.3H13.1H13H12.9V74.2H12.8V74.1H12.7V74V73.9V73.8V73.7V73.6V73.5V73.4L12.8 73.3H12.9H13V73.2V73.1V73H13.1V72.9L13.2 72.8H13.1V72.7V72.6V72.5V72.4V72.3V72.2L13 72.1H13.1H13.2V72V71.9L13.1 71.8V71.7L13 71.6V71.5H12.9V71.4H12.8V71.3H12.7H12.6H12.5V71.2H12.4V71.1H12.3H12.2L12.1 71.2H12V71.3H11.9V71.2H11.8V71.1L11.7 71L11.6 70.9H11.5L11.4 71H11.3H11.2H11.1H11V70.9H10.9H10.8H10.7H10.6V70.8H10.5V70.9H10.4V71V71.1H10.3V71.2H10.2V71.3H10.1V71.4H10V71.5H9.9H9.8H9.7H9.6H9.5H9.4H9.3M9.3 71.5V71.4M9.3 71.5H9.2H9.1H9H8.9H8.8H8.7L8.6 71.4H8.5V71.3H8.4V71.2H8.3V71.1H8.2L8.1 71H8L7.9 70.9H7.7V70.8H7.6V70.7V70.6H7.5V70.5V70.4H7.4V70.3V70.2V70.1H7.3V70H7.2V69.9L7.1 69.8V69.7V69.6L7 69.5V69.4H6.9V69.3H6.8H6.7H6.6H6.5V69.2H6.4V69.1V69V68.9L6.3 68.8H6.2H6.1V68.7H6V68.6V68.5H5.9V68.4H5.8V68.3H5.7H5.6V68.2H5.5V68.1H5.4H5.3V68H5.2H5.1V67.9L5.2 67.8V67.7V67.6H5.3V67.5H5.2V67.4V67.3H5.1V67.2V67.1L5.2 67V66.9V66.8H5.1V66.7H5V66.6H4.9V66.5L4.8 66.4H4.7L4.6 66.3H4.5H4.4H4.3H4.2H4.1H4V66.4V66.5H3.9V66.4H3.8M3.8 66.4V66.5M3.8 66.4L3.7 66.3H3.6H3.5H3.4V66.4H3.3H3.2V66.3H3.1V66.2V66.1V66L3 65.9L2.9 65.8V65.7V65.6V65.5V65.4H2.8L2.7 65.3H2.6V65.4H2.5V65.3H2.4V65.2H2.3L2.2 65.1H2.1V65H2L1.9 64.9H1.8H1.7H1.6H1.5H1.4H1.3L1.2 64.8L1.1 64.9H1H0.900002H0.800003H0.699997L0.599998 64.8V64.7V64.6V64.5H0.699997V64.4V64.3V64.2V64.1V64V63.9V63.8H0.599998H0.5V63.7V63.6H0.599998V63.7H0.699997H0.800003V63.6L0.900002 63.5V63.4L1 63.3V63.2V63.1V63V62.9V62.8V62.7H1.1V62.6V62.5V62.4H1.2V62.3L1.3 62.2V62.1V62V61.9V61.8H1.4V61.7H1.5V61.6L1.6 61.5V61.4V61.3H1.7V61.2M1.7 61.2H1.6M1.7 61.2V61.1H1.8V61H1.9V60.9H2V60.8H2.1V60.7V60.6H2L2.1 60.5V60.4L2.2 60.3V60.2L2.1 60.1H2V60H1.9V59.9V59.8V59.7H1.8V59.6L1.7 59.4V59.3V59.2V59.1V59V58.9L1.8 58.8H1.7V58.7L1.6 58.6L1.5 58.5H1.4V58.4V58.3H1.3V58.2L1.2 58.1L1.1 58V57.8V57.7L1 57.6V57.5L0.800003 57.4L1 57.2L1.2 57.1L1.4 56.9H1.5V56.8V56.6V56.5H1.6L1.7 56.2V56.1V56L1.6 55.9V55.8H1.7V55.7H1.8L1.9 55.6H2V55.5H1.9L1.8 55.2L1.7 55V54.9H1.8V54.8V54.6L1.9 54.4L2 54.2V54.1V54H2.1V53.9L2.2 53.8H2.3V53.7V53.6H2.4H2.5H2.6L2.8 53.7H2.9L3 53.6H3.1L3.2 53.5H3.6V53.4V53.2V53.1V53V52.9V52.8H3.5L3.3 52.7H3.1H3L2.9 52.8H2.8H2.7H2.6V52.7L2.3 52.6V52.5H2.2H2.1V52.4L2 52.3L1.9 52.1V52V51.9H1.8L1.9 51.8V51.7V51.6L1.8 51.5V51.4L1.7 51.3L1.6 51.1L1.5 50.9V50.8H1.4V50.7V50.6V50.4V50.3L1.5 50.2V50.1L1.6 50V49.9L1.7 49.4L1.9 49.1V49L2 48.8L2.1 48.6L2.2 48.4V48.3L2.3 48.1L2.4 48V47.9V47.8L2.5 47.6V47.4V47.2V47.1L2.4 47H2.3L2.2 46.9V46.8V46.7V46.6V46.5H2.1V46.4H2L1.8 46.3L1.7 46.2H1.6V46.1V46L1.5 45.9V45.8V45.7H1.6V45.6H1.7L1.8 45.5L1.9 45.4L2 45.3H2.1V45.2L2.2 45.1L2.3 45V44.9H2.4V44.8H2.5L2.6 44.7V44.6H2.7V44.5L2.8 44.4L2.9 44.2V44.1L3 44L3.1 43.9L3.2 43.8V43.7H3.3H3.4H3.5V43.6H3.6L3.8 43.4H3.9V43.3L4 43.2L4.1 43.1L4.3 42.9L4.4 42.8L4.5 42.7H4.4V42.6V42.5V42.4V42.3V42.2H4.3V42.1V42V41.9V41.8H4.4H4.5L4.6 41.7H4.7L4.8 41.6H4.9V41.5L5 41.4V41.3H5.1L5.3 41.4V41.5V41.6V41.7H5.4V41.8L5.5 41.9L5.6 42H5.7H5.8H5.9V41.9L6 41.8V41.7H6.1L6.2 41.8H6.3L6.4 41.7L6.5 41.6V41.5H6.6V41.4L6.7 41.2L6.8 41.1H6.9V41V40.9V40.8V40.7V40.6H7H7.1V40.5L7.2 40.4V40.3V40.2V40.1V40V39.9H7.1V39.8H7.2V39.7V39.6V39.5V39.4L7.3 39.1L7.4 39V38.9L7.5 38.8L7.6 38.7H7.7V38.6V38.5H7.6V38.4H7.5V38.3H7.4L7.3 38.2H7.2V38.1L7.1 38H7.2V37.9L7.4 37.7V37.6V37.5H7.5V37.4L7.6 37.3V37.2H7.5V37.1V37L7.6 36.9V36.8L7.7 36.7L7.8 36.6V36.5V36.4L7.9 36.3H8H8.1V36.2L8.2 36.1V36H8.3L8.6 36.2L8.7 36.1V36H8.8V35.9L9.3 36.5L9.4 36.4H9.5H9.6V36.3L9.8 36.2L10 36L10.2 35.8V35.4V35.3L10.4 35.2L10.6 35.1V35H10.7L10.8 34.9H10.9L11 34.8V34.7V34.6V34.5V34.4V34.2H11.2H11.4L11.7 34.5L11.9 34.7L12 34.8L12.2 34.7L12.3 34.6H12.4V34.5H12.5V34.6H12.6L12.7 34.7L12.8 34.8L12.9 34.9L13 35L13.1 35.2V35.3L13.2 35.4V35.5H13.3L13.4 35.6V35.5H13.5H13.6L13.7 35.4L13.8 35.3H14H14.1H14.3H14.4H14.5V35.2H14.6V35.1H14.7V35H14.8H14.9L15.1 35.1H15.4H15.8L16.1 35.2L16.8 35.3H16.9L17.3 35.4L17.5 35.5H17.6L17.7 35.6H17.8L18.3 35.9L18.4 36L18.7 36.1L18.8 35.9L18.9 35.8V35.7L19 35.4L19.1 35.3H19.2V35.2L19.5 35L19.6 34.9L19.7 34.8H19.8V34.7H19.9V34.6L20 34.5V34.4H20.1L20.3 34.3L20.5 34.2L20.6 34H20.7L21.2 33.8H21.3V33.7L21.4 33.6L21.5 33.5V33.4H21.6L21.7 33.3V33.2H21.8V33.1L21.9 33H22H22.1L22.2 33.1H22.3H22.4L22.5 33.2L22.6 33.3V33.4H22.7L22.8 33.5H22.9L23.1 33.6H23.3L23.4 33.7H23.6L23.7 33.8V33.7L23.8 33.8H23.9V33.9H24V34V34.1H24.1V34.2V34.3V34.4H24V34.5L24.1 34.6V34.7H24.2L24.4 34.8H24.5L24.6 34.7L24.7 34.6L24.8 34.4L24.9 34.3L25.1 34.1H25.2L25.4 34V33.9L25.5 33.8L25.6 33.7V33.6H25.7V33.5L25.8 33.4L25.9 33.2L26 33L26.1 32.9L26.2 32.6L26.4 32.4L26.6 32.5H26.7H26.8H26.9H27H27.1H27.2H27.3H27.4V32.6H27.5L27.6 32.5V32.4H27.7V32.3L27.9 32.4L28 32.5H28.1L28.4 32.6H28.5V32.7L28.7 32.8L28.8 32.9H28.9L29.1 33H29.3L29.4 33.1H29.5H29.6H29.7H29.8L30 33H30.1H30.3L30.4 32.9L30.5 33H30.6V33.1V33.2H30.7V33.3L30.8 33.4L30.9 33.5V33.6V33.7L31 33.8L31.1 33.9H31.2H31.3V34H31.4H31.5H31.6L31.8 33.9V33.7L31.7 33.3L31.8 33.2V33.1L31.9 33V32.9H32L32.1 32.7H32.2H32.4H32.6V32.8H32.7L32.8 32.9H32.9H33V33L33.1 33.1H33.2L33.3 33.2V33.1L33.4 33L33.6 32.8L33.9 32.5L33.8 32.4L33.9 32.3H34L34.1 32.4H34.2L34.5 32.6H34.6H34.7L35 32.7L35.2 32.6H35.3L35.7 32.3V32.2L35.8 32.1L35.9 32.3L36 32.2V32.1H36.1V32L36.3 31.9L36.4 31.7H36.6V31.6L36.7 31.5L36.9 31.3L37.4 31L37.6 30.8H37.7H37.8H38.3L38.4 30.7H38.5H38.6H38.7L38.9 30.6H39L39.1 30.5H39.2V30.4H39.3H39.4H39.5V30.3L39.7 30.2H39.8L40 30.1V30H40.1H40.2V29.9H40.3H40.4H40.5H40.6L40.7 29.8H40.8H40.9L41 29.9H41.1V29.8H41.2H41.3V29.7L41.4 29.4H41.7H41.8V29.3H42.1H42.2L42.4 29.2H42.8L42.9 29.5H43L43.1 29.7L43.2 29.8L43.3 29.9L43.5 30V30.1L43.6 30.2L43.7 30.3L43.9 30.4L44.1 30.5L44.3 30.6V30.7L44.4 30.8H44.5V30.7H44.6H44.8V30.6H44.9H45V30.5H45.2L45.3 30.4H45.4V30.3L45.5 30.2V30.1H45.3V30L45.4 29.8V29.7V29.6V29.5H45.3V29.4V29.3L45.2 29.2V29.1V29L45.3 28.9V28.8L45.4 28.7L45.5 28.6V28.4H45.6V28.3L45.5 28.2V28.1L45.4 27.9V27.8H45.5L45.6 27.6L45.8 27.4H45.7V27.3H45.6V27.2V27.1H45.8H45.9L45.8 26.8V26.7V26.6L45.9 26.3L46 26.2L46.1 26V25.9L45.9 26H45.8H45.7H45.6L45.5 25.9L45.4 25.8H45.3H45.2H45.1H45L44.8 25.9L44.6 26H44.3L44.1 26.1H43.9L43.7 26.2H43.5H43.3H43.1H43H42.9L42.8 26.1L42.7 26H42.6H42.5L42.4 25.9H42.2H42.1H42H41.9H41.8H41.7L41.6 25.8H41.5H41.4V25.7H41.3H41.2V25.8H41.1H41H40.9V25.7H40.8V25.5V25.4L40.7 25.2L40.6 25.1L40.7 25H40.8L40.9 24.4L41 24.2H41.1H41.2V24.1V24V23.9V23.5L41.3 23.4L41.2 23.2V23.1L41.3 22.8H41.6L41.7 22.6V22.5L41.8 22.3V22.1H41.7H41.5V21.9V21.7L40.9 21.4H40.8H40.7L40.6 21.3L40.5 21.2L40.4 21.3L40.3 21.4V21.5L40.2 21.6H40.1L39.9 21.7H39.8L39.6 21.9L39.5 22L39.4 22.1L39.2 22.2V22.3L39 22.4H38.9H38.8L38.7 22L38.6 21.8V21.7V21.6H38.5V21.4V21.3V21.2V21V20.9V20.8V20.7V20.6L38.6 20.2V19.8V19.7L38.7 19.4L39.9 19.6L40.1 19.7L40.7 19.8V19.7H40.9L41 19.5L41.4 19.1L41.5 18.9L41.7 19.1L42 19.4L42.5 19.8L42.6 20V19.9V19.8H42.7V19.7V19.5L42.9 19.1V19L43 18.9L43.1 18.8L43.2 18.6L43.3 18.3V18.1L43.4 18H43.5V17.9H43.6V17.8L43.7 17.7V17.6L43.5 17.5H43.3V17.4V17.2L43.4 16.9V16.8V16.6V16.5H43.2H43.1L43.2 16.4L43.3 16.2L43.5 16.1L43.6 16.2V16.3H43.7H43.8V16.2V16.1V16L43.9 15.9L44 15.8H44.1L44 15.5L44.1 15.4H44.2H44.3H44.4V15.3H44.5L44.6 15.2L44.7 15.1H44.8H44.9L45 15L45.1 14.9V14.8V14.7V14.6H45.2L45.5 14.4L45.2 14.2L44.8 14.1V13.9H44.6V13.8L43.9 13.4H43.8H43.7H43.6H43.5L43 13.3V12.9L43.1 12.8V12.7V12.6L43 12.5V12.4V12.3L42.9 12.2L42.7 12.1L42.6 12L42.4 11.9V11.8V11.6L42.3 11.2V11.1V11V10.9V10.7V10.6H42.2H42.1L42.2 10.1L42.3 10L42.6 9.70001L42.8 9.60001L43.3 9.5L43.8 9.39999H44.1V9.29999L44.2 8.70001L44.3 8.5V8.29999L44.4 8V7.60001L44.5 7.20001L44.3 7.29999V7.10001L44 6.60001V6.5L43.9 6.10001L43.8 5.79999L43.7 5.70001V5.5L43.8 5.39999L43.9 5.29999L44 5.10001L44.1 5V4.89999H44.2V4.79999H44.3L44.4 4.70001V4.79999H44.5H44.6H44.7H44.8H44.9H45H45.1H45.2H45.3H45.4H45.5H45.6H45.7V4.70001L45.8 4.60001H45.9V4.29999V4.20001L45.8 4.10001V4L45.7 3.89999V3.79999V3.5L45.6 3.39999V3.29999V3.20001V3.10001L45.5 3V2.79999V2.70001V2.60001H45.4V2.5L45.3 2.29999L45.4 2.20001L45.5 2.10001L46 1.79999V1.70001L46.1 1.60001H46.2V1.5V1.39999H46.3V1.29999V1.20001H46.4V1.10001H46.5H46.6H46.7L47.1 1.39999L47 1.20001V0.899994V0.800003H47.1H47.2V0.899994H47.3H47.4L47.7 1V0.899994H47.6L47.4 0.800003L47.3 0.699997L47.2 0.600006L47.3 0.5H47.4H47.6L48.4 0.800003V0.699997H48.6L48.7 0.800003H48.8L48.9 0.899994L49 1V1.10001V1.39999V1.5H49.1L49.2 1.60001H49.3V1.70001H49.4H49.5H49.6L49.7 1.79999H49.8V1.89999V2M49.8 2H49.9M49.8 2V2.10001H49.7L49.6 2.20001H49.5H49.4V2.10001H49.3H49.2L49.1 2.20001V2.29999L49 2.39999L49.3 2.60001L49.4 2.70001H49.3V2.79999V2.89999V3L49.7 3.29999L49.6 3.39999V3.5L49.7 3.39999H49.8H49.9H50H50.1V3.29999V3.20001H50.2H50.3V3.29999H50.4H50.5V3.39999H50.6H50.7H50.8V3.20001H50.9V3.10001H51L51.1 3H51.2L51.3 2.89999L51.6 2.79999L51.9 2.60001L52.2 2.5V2.39999H52.3V2.5H52.4V2.60001V2.70001V2.79999V2.89999H52.5V3M52.5 3H52.4L52.5 3.10001V3ZM52.5 3L52.6 3.10001H52.7L52.8 3.20001L52.9 3.29999L53 3.39999V3.5L53.1 3.60001H53.2L53.3 3.70001L53.4 3.79999H53.5L53.6 3.89999H53.7L53.8 4L53.9 4.10001L54 4.20001L54.5 4.39999L54.6 4.29999H54.7L54.9 4.39999V4.5L55 4.60001V4.70001H55.1V4.79999L55.2 4.89999H55.3V5V5.10001L55.6 5.29999L55.7 5H55.9L56 5.10001H56.3L56.4 5L56.5 4.79999V4.70001L56.6 4.79999H56.7V4.89999L56.8 5H56.9H57V5.10001H57.1H57.2V5.20001H57.3H57.4L57.5 5.29999L57.6 5.39999H57.7V5.29999H57.8H57.9H58L58.1 5.39999L58.3 5.5H58.4L58.5 5.60001H58.7H58.9L59 5.5H59.1H59.2H59.4L59.5 5.39999H59.6H59.7H59.8V5.5H59.9L60 5.60001H60.1V5.70001H60.2V5.79999H60.3V5.89999H60.2V6V6.20001V6.29999L60 6.39999V6.5V6.60001H60.1H60.2V6.70001H60.3V6.79999L60.4 6.89999V7V7.10001H60.5L60.6 7.29999L60.7 7.39999V7.5L60.8 7.60001H60.9V7.70001H61V7.79999L61.1 7.89999L61 8V8.10001V8.20001V8.29999H61.1V8.39999V8.5H61.2V8.60001V8.70001L61.3 8.79999V8.89999V9V9.10001H61.4V9.20001L61.5 9.29999L61.6 9.39999L61.7 9.5H61.8V9.60001L61.9 9.70001V9.79999L62 9.89999V10H62.1V10.1V10.2L62.2 10.3L62.3 10.4V10.5V10.6V10.7V10.8L62.2 10.9H62.1V11L62.2 11.1V11.2H62.3V11.3V11.4V11.5H62.4V11.6V11.7V11.8H62.5V11.9V12V12.1V12.2H62.4V12.3V12.4L62.5 12.5V12.6V12.7V12.8V12.9V13V13.1L62.4 13.3V13.4H62.5V13.5V13.6V13.8L62.6 13.9V14H62.7L62.8 14.1V14.2H62.7V14.3H62.9H63.1H63.4H63.6L63.7 14.2L64.3 13.6H64.4L64.6 13.9H64.8H65.1L65.2 14H65.3V14.1V14.2H65.2V14.3V14.4L65.3 14.6V14.7V14.8L65.4 14.9V15L65.3 15.1V15.2H65.4V15.3V15.5V15.6L65.5 15.7V15.8L65.6 15.9V16L65.7 16.1L65.8 16.2L65.9 16.3H66V16.4L66.1 16.5H66.3V16.6H66.4L66.5 16.7L66.6 16.8L66.7 16.9L66.8 17V17.1H66.7H66.6H66.5H66.4V17.2L66.3 17.4V17.7V17.9L66 17.8V18V18.1V18.2L65.9 18.3V18.4V18.5L65.8 18.6V18.7V18.8L65.7 18.7L65.6 18.8V18.9L65.5 19.1L65.2 19V19.2V19.4V19.6V19.7V19.8L65.3 19.9V20V20.1H65.4V20.2V20.3H65.3V20.4V20.6V20.8V21V21.1L65.2 21.2V21.4V21.7V21.8H65.3H65.4H65.5L65.6 21.9H65.7H65.8L65.9 22.2V22.4L66 22.7V22.8V22.9V23V23.2V23.3V23.4V23.5H66.1V23.6H66.2H66.3L66.4 23.7H66.5L66.6 23.8H66.7L66.8 23.9H66.9H67H67.1H67.2H67.3H67.4L67.5 24L67.6 24.1H67.7V24.2L67.9 24.3H68H68.1V24.4H68.2L68.3 24.5V24.6H68.4H68.5V24.7H68.6V24.8H68.7L68.8 25H68.9V25.1H69L69.1 25.2H69.2L69.3 25.3H69.4H69.5L69.6 25.4H69.7H69.8H69.9H70H70.2L70.3 25.5H70.4L70.5 25.6V25.7V25.8V25.9V26.1L70.2 26.2L70 26.3L69.9 26.4L69.8 26.5H69.6V26.6H69.5L69.4 26.7L69.1 27L68.8 27.2L68.6 27.5L68.4 28V28.1H68.3V28.2L68.2 28.4V28.5L68.1 28.6L68 28.7L67.7 28.9L67.5 29.2L67.4 29.3L67.3 29.4L67.2 29.5L67.1 29.6L67 29.7L66.8 29.9L66.7 30V30.1V30.2V30.3V30.4V30.5L66.6 30.6V30.7V30.8H66.7V30.9V31L66.6 31.1V31.2H66.7H66.8V31.3V31.4H66.9V31.5L67 31.4L67.1 31.3H67.2V31.4V31.5L67.3 31.6L67.4 31.7L67.5 31.8L67.6 32.1H67.7V32.2L67.8 32.4V32.5H67.9V32.6H68V32.7H68.1L68.2 32.8L68.4 33H68.5V33.1V33.2L68.6 33.3V33.4H68.7V33.5V33.6L68.8 33.7V33.8H68.9H69V33.9H69.2H69.4H69.7H69.8H69.9H70.1H70.2V34H70.3H70.5H70.6H70.7H70.9H71L71.2 34.1H71.3H71.4H71.5L71.6 34L71.7 33.9V34H71.8L72.3 34.3V34.4H72.4L72.5 34.5H72.6L72.8 34.6V34.7H73V34.8M73 34.8H73.1M73 34.8V34.9V35V35.1M73 35.1H73.1M73 35.1V35.2L72.9 35.3V35.4V35.5H72.8V35.6V35.7H72.7V35.8V35.9V36V36.1L72.6 36.2V36.3L72.7 36.4L72.8 36.5V36.6V36.7V36.8L72.9 36.9H72.8V37L72.7 37.1H72.6V37.2V37.3L72.5 37.4L72.7 37.5L72.9 37.6L73 37.7H73.2V37.5V37.4H73.3V37.7H73.5V37.8V37.9V38L73.4 38.2V38.3H73.3H73.2L73.1 38.2L73 38.3H72.9L72.5 38.2H72.4H72.3H72.1V38L72 37.9L71.9 38V37.9H71.8L71.4 37.7H71.3L71.1 37.6L71 37.8L70.9 37.6L70.4 37.5L70 37.4H69.9V37.5L69.7 37.4L69.6 37.5L69.5 37.6L69.4 37.7H69.5L69.6 38V38.1V38.2H69.5V38.3V38.4V38.5V38.6H69.4H69.3H69.2V38.7H69.1V38.8V38.9V39V39.1V39.2V39.3V39.4H69V39.5V39.6V39.7V39.8L69.1 39.9H69.2H69.3H69.4M69.4 39.9V39.8M69.4 39.9L69.5 40V40.1L69.6 40.2V40.3H69.7V40.4L69.8 40.5L70 40.6L70.1 40.8H70.2V40.9H70.3L70.4 41H70.5V41.1V41.2L70.6 41.3V41.4H70.7V41.5H70.8H70.9V41.6H71L71.1 41.7L71.2 41.8L71.3 41.9H71.4L71.5 42L71.6 42.1H71.7L71.8 42.2L71.9 42.3V42.4V42.5L72 42.6L72.1 42.7L72.2 42.8L72.3 42.9L72.4 43V43.1L72.5 43.2V43.3V43.4V43.5L72.4 43.6V43.7L72.3 43.8L72.2 43.9H72.1V44V44.1V44.2V44.4L72.2 44.3L72.5 44.2L72.7 44.1L73 44L73.3 43.8H73.4H73.5L73.8 43.6L74 43.5L74.1 43.4H74.2V43.3H74.3V43.2H74.4L74.5 43.1L74.6 43H74.7V42.9H74.8L74.9 43H75V43.1H75.1L75.2 43.2L75.3 43.3L75.4 43.4H75.5V43.5H75.6V43.6V43.7H75.7H75.8V43.8H75.9V43.9H76H76.1H76.2L76.3 44H76.4V44.1V44.2L76.5 44.3H76.6L76.7 44.4H76.8H76.9V44.5H77H77.1H77.2L77.4 44.6L77.5 44.7H77.6H77.7V44.8H77.8V44.9H77.7L77.8 45H77.9H78.2H78.3V45.3H78.4H78.5V45.2H78.6H78.7V45.1H78.8L78.7 45H78.8V44.9L78.9 44.8H79L79.1 44.7L79 44.6V44.5L79.1 44.4V44.3L79.2 44.2H79.3V44.1H79.4V44H79.5H79.6L79.7 44.1L79.8 44.2V44.3L79.7 44.4L79.5 44.6V44.7L79.4 44.8V44.9L79.3 45V45.2V45.3V45.4V45.5V45.6V45.7V45.8H79.4V45.9V46L79.5 46.1V46.2V46.3L79.4 46.4H79.3L79.4 46.5V46.6H79.5L79.6 46.7V46.8L79.8 46.9H79.9L80 47H80.2L80.3 47.1L80.4 47.2H80.5L80.6 47.3V47.4V47.5L80.7 47.6H80.8L80.9 47.7L81.1 47.8L81.2 47.9L81.3 48V48.1V48.2V48.3H81.2V48.4L81.1 48.5L81 48.6L80.9 48.7L80.8 48.8L80.7 48.9L80.5 49L80.4 49.1L80.1 49.2L80 49.3L79.9 49.4V49.5H79.8V49.6V49.7V49.8L79.9 49.9V50.1L80 50.3L80.1 50.4L80.2 50.6L80.3 50.7V50.8V50.9L80.4 51.1V51.2V51.3V51.5L80.5 51.6L80.6 51.9L80.7 52V52.1V52.2V52.3V52.4V52.5V52.6V52.7L80.8 52.8V52.9V53V53.1V53.2V53.3V53.4H81L81.1 53.5H81.2V53.6L81.3 53.7H81.4L81.5 53.8L81.6 53.9L81.7 54L81.9 54.1H82H82.1H82.2L82.3 53.9H82.4L82.5 53.8V53.6L82.6 53.5V53.4V53.3V53.2V53.1V53V52.9V52.7V52.6V52.5L82.5 52.4H82.4V52.3L82.3 52.2V52.1V52V51.9H82.4V51.8H82.5V51.7V51.6L82.6 51.5H82.7H82.8L82.9 51.4L83.1 51.1L83.3 50.9L83.6 50.7V50.6H83.7V50.5H83.8V50.4L83.9 50.3V50.2L83.8 50.1V50H83.7L83.6 49.9V49.8L83.5 49.7V49.6V49.5V49.4V49.3H83.6H83.7L83.8 49.4L83.9 49.5H84L84.1 49.6L84.2 49.7H84.3L84.4 49.8H84.5V49.7H84.6H84.7V49.6H84.8V49.5L84.9 49.4L85 49.3L85.1 49.2L85.2 49.1L85.3 49H85.4H85.5H85.6H85.7L85.8 49.1V49.2L85.9 49.3V49.4V49.5V49.6V49.7V49.8L85.8 50V50.1V50.2L85.7 50.3L85.6 50.4V50.5L85.5 50.6V50.7V50.8V50.9V51V51.1V51.2V51.3V51.5V51.6V51.7V51.8V51.9V52.1V52.2V52.3V52.4V52.5L85.4 52.6V52.8V52.9L85.3 53.1V53.2L85.2 53.4V53.5L85.1 53.6L85 53.8V54L84.9 54.1L84.8 54.3V54.4L84.7 54.5L84.6 54.7L84.5 54.8V55L84.4 55.2V55.3V55.4V55.5H84.5V55.6H84.6H84.7H84.8H85H85.2L85.3 55.5L85.4 55.4L85.5 55.3V55.1L85.6 54.8V54.6V54.5L85.7 54.4V54.3L85.8 54.2V54.1H85.9V54H86H86.2H86.4H86.5H86.6H86.7H86.9H87H87.1H87.2H87.4L87.6 54.1H87.7L87.9 54.2L88 54.3H88.1H88.2V54.4V54.5L88.3 54.6V54.7V54.8H88.4V54.9V55V55.1V55.2V55.3V55.4L88.5 55.5V55.6H88.6V55.7H88.7H88.8H88.9L89 55.8H89.1L89.2 55.7H89.3L89.5 55.6H89.6L89.7 55.5H89.8H89.9H90H90.1V55.6H90.2L90.3 55.7V55.8V55.9V56V56.2H90.4H90.5H90.9H91.3L91.2 56.1V55.9V55.8L91.1 55.7V55.6V55.5V55.4V55.3V55.2V55.1V55V54.9V54.8H91.2V54.7H91.3L91.4 54.6H91.5H91.7L91.8 54.5L91.9 54.6H92H92.1H92.2H92.3H92.4L92.5 54.7L92.6 54.8H92.8L92.9 54.9H93H93.1L93.3 55L93.4 55.1L93.5 55.2H93.6H93.7H93.8L93.9 55.3L94 55.4L94.2 55.5H94.4L94.7 55.6L94.9 55.7H95L95.1 55.8H95.3H95.4H95.5H95.6H95.8V55.7L95.9 55.6H96V55.5V55.4V55.3V55.2L95.9 54.9L95.7 54.7L95.6 54.6L95.5 54.4L95.4 54.3V54.2V54.1V54V53.9V53.8H95.5V53.7H95.6L95.7 53.6H95.8H95.9H96L96.1 53.7L96.2 53.8H96.3L96.4 53.9H96.6L96.7 54H96.8L96.9 54.2L97 54.3H97.1L97.2 54.4H97.3V54.5H97.4V54.6H97.5V54.7V54.8H97.6L97.5 54.9V55L97.4 55.2L97.3 55.3L97.2 55.4L97.1 55.5V55.6L96.9 55.8H96.8V55.9H96.7L96.6 56V56.1V56.2V56.3V56.5L96.7 56.6L96.8 56.7L96.9 56.8L97.1 56.9H97.2L97.3 57H97.4H97.5L97.6 57.1L97.7 57.2L97.9 57.3H98L98.1 57.4H98.2L98.3 57.5L98.4 57.6L98.5 57.7H98.6V57.8H98.7V57.9L98.8 58L98.9 58.2V58.3H99L99.1 58.4L99.2 58.5L99.3 58.6H99.4L99.6 58.7H99.7H99.8H99.9L100 58.8H100.1H100.2L100.3 58.9H100.4H100.5H100.7H100.9H101H101.2H101.3H101.4V59H101.5L101.6 59.1H101.7V59.2H101.8L102 59.4H102.1L102.2 59.5L102.3 59.6L102.5 59.8L102.6 59.9L102.7 60.1L102.8 60.2L102.9 60.4H103V60.5H103.1L103.2 60.7L103.3 60.8L103.5 61L103.7 61.3L103.8 61.4L104 61.6L104.1 61.7L104.2 61.8L104.3 61.9H104.4H104.5V62H104.6L104.8 62.1H104.9L105.1 62.2L105.2 62.3L105.3 62.4L105.6 62.6H105.7L105.9 62.7L106 62.9H106.1V63L106.2 63.1V63.2V63.3V63.4V63.5L106.1 63.6L106 63.7L105.9 63.8V63.9H105.8L105.7 64L105.5 64.1H105.3L104.9 64.5L104.7 64.6V64.7V64.8L104.6 64.9V65L104.7 65.2V65.3L104.8 65.4L104.9 65.5H105L105.2 65.6H105.4H105.7L105.9 65.7L106.1 65.8H106.3L106.5 65.9L106.6 66L106.7 66.1L106.8 66.2V66.3V66.4V66.5V66.6V66.7L106.7 66.8V66.9L106.6 67L106.5 67.2L106.4 67.3L106.3 67.4H106.2L106 67.6L105.8 67.7L105.6 67.8L105.5 67.9L105.4 68L105.3 68.1L105.2 68.2V68.3V68.4V68.5L105.3 68.6V68.7H105.4L105.5 68.8H105.6L105.5 68.9V69L105.3 69.3L105.2 69.4L105.3 69.7L105.2 69.8H105.1L105 69.9V70H104.9L104.7 70.1V70.2H104.6L104.5 70.3L104.4 70.5L104.2 70.6V70.7L104.1 70.8L104 71H103.9L103.8 71.3L103.7 71.4V71.5H103.6L103.5 71.7H103.4V71.8V71.9V72.1V72.2V72.3L103.5 72.4L103.6 72.6V72.7V72.8H103.5L103.6 73V73.4V73.5L103.7 73.8V73.9V74L103.6 74.3V74.6V74.7V74.8V74.9L103.5 75V75.2L103.6 75.3L103.7 75.4V75.5L103.8 75.6V75.7V75.8L103.9 76V76.1V76.2H104V76.3V76.4H104.1V76.5H104.2V76.6H104.3V76.7V76.8L104.2 77H104.1H104V77.1H104.1V77.2V77.3H104.2V77.4H104.1V77.5V77.6H104L104.1 77.7L104.2 77.9L104.3 78V78.1V78.2V78.3V78.4H104.2V78.5V78.6L104.1 78.7V78.8L104.2 78.9V79V79.1H104.3H104.4H104.5V79.2V79.3V79.4V79.5H104.6V79.6V79.7V79.8V79.9V80V80.1V80.2L104.5 80.4V80.5V80.6V80.7V80.8L104.4 80.9V81V81.1L104.3 81.2V81.4V81.5L104.2 81.6V81.7V81.8L104.1 81.9V82V82.1V82.2V82.3L104.2 82.4V82.5V82.6V82.7V82.8V82.9V83V83.1V83.2V83.3V83.4V83.5V83.6V83.7L104.1 83.8V83.9L104 84V84.1H104.1V84.2V84.3H104.2V84.4V84.5H104.3V84.6H104.4V84.7V84.8H104.5V84.9V85V85.1V85.2H104.4V85.3H104.5V85.4V85.5V85.6V85.7V85.8H104.4V85.9H104.3V86V86.1V86.2V86.3H104.4V86.4V86.5V86.6H104.5V86.7V86.8V86.9V87V87.1H104.6V87.2V87.3H104.7V87.4V87.5V87.6H104.6V87.7V87.8V87.9H104.5V88H104.4V88.1V88.2V88.3H104.3V88.4H104.2L104.1 88.5H104.2V88.6V88.7L104.3 88.8V88.9H104.4L104.5 88.8H104.6H104.7V88.7V88.6H104.8H104.9V88.7H105V88.8H105.1V88.9H105.2V89L105.1 89.1V89.2V89.3H105V89.4H105.1V89.5L105.2 89.6V89.7V89.8H105.1V89.9L105 90V90.1V90.2V90.3L105.1 90.4V90.5H105.2V90.6V90.7V90.8V90.9V91.1H105.1H105H104.9H104.8H104.7V91.2H104.6H104.5V91.3H104.4H104.3V91.4H104.2H104.1V91.3H104H103.9H103.8H103.7H103.6H103.5L103.4 91.2H103.3H103.2V91.1H103.1H103H102.9L102.8 91.2H102.7H102.6H102.5V91.1H102.4H102.3L102.2 91H102.1H102H101.9V90.9H101.8L101.7 91H101.6H101.5V90.9V90.8H101.4H101.3H101.2V90.7H101.1H101V90.6H100.9V90.5V90.4L100.8 90.3V90.2H100.7L100.6 90.1H100.5V90L100.4 89.9H100.3V89.8H100.2V89.7H100.1H100H99.9H99.8H99.7H99.6H99.5V89.6H99.4H99.3H99.2H99.1H99H98.9H98.8H98.7H98.6V89.7H98.5L98.4 89.6H98.3L98.2 89.5L98.1 89.6H98L97.9 89.7H97.8L97.7 89.6L97.6 89.5H97.5H97.4V89.6H97.3H97.2H97.1H97L96.9 89.5H96.8V89.4H96.7V89.5H96.6H96.5H96.4H96.3V89.6H96.2H96.1V89.7L96 89.8L95.9 89.9L95.8 90H95.7M95.7 90V90.1M95.7 90H95.6H95.5H95.4H95.3H95.2H95.1H95V90.1H94.9V90.2H94.8L94.7 90.1L94.6 90H94.5H94.4V90.1H94.3H94.2V90.2M94.2 90.2H94.1M94.2 90.2V90.3V90.4H94.1H94H93.9H93.8H93.7H93.6V90.5H93.5H93.4L93.3 90.4H93.2L93.1 90.3H93V90.4H92.9L92.8 90.5L92.7 90.7H92.6L92.5 90.8H92.4H92.3V90.9H92.2H92.1L92 91H91.9V91.1H91.8V91.2H91.7H91.6L91.5 91.3H91.4L91.3 91.4L91.2 91.5L91 91.6L90.8 91.7L90.7 91.8H90.6V91.9H90.5L90.4 92H90.3H90.2H90.1V92.1H90H89.9V92.2H89.8L89.7 92.3V92.4V92.5H89.6V92.6H89.5V92.7H89.4V92.8V92.9H89.3V93H89.2H89.1V93.1H89V93.2H88.9V93.3V93.4H88.8V93.5V93.6V93.7H88.7V93.8H88.6V93.7L88.5 93.8H88.4L88.3 93.9H88.2H88.1V94L88 94.1V94.2V94.3V94.4V94.5L87.9 94.6H87.8H87.7L87.6 94.7L87.7 94.8L87.8 94.9V95H87.7V95.1H87.6H87.5H87.4V95H87.3V95.1H87.2V95.2L87.1 95.3H87V95.4V95.5V95.6H86.9V95.7V95.8V95.9V96H86.8L86.7 96.1H86.6H86.5L86.4 96H86.3V96.1L86.2 96.3L86.1 96.5L86 96.6L85.9 96.8V96.9L85.8 97.1V97.2H85.7V97.3V97.4V97.5L85.6 97.6V97.7L85.5 97.8L85.3 97.9L85.2 98L85.1 98.1L85 98.2V98.3L84.9 98.4V98.5V98.6L84.8 98.7L84.7 98.9L84.5 99.1H84.4V99.2L84.3 99.4L84.2 99.5V99.6V99.7L84.1 99.8V99.9H84L83.9 100L83.8 100.1V100.2L83.7 100.3V100.4V100.5V100.6H83.6L83.5 100.7H83.4L83.3 100.9L83.1 101.1L83 101.2L82.8 101.3V101.4H82.7H82.6L82.4 101.3H82.3H82.2L82.1 101.2H82H81.8H81.7L81.6 101.1H81.5V101.2H81.4L81.3 101.3H81.2H81.1V101.4H81V101.5L80.9 101.6L80.8 101.7L80.7 101.8L80.6 101.9H80.5L80.4 102L80.3 102.1H80.2V102.2V102.3V102.4H80.1H80L79.8 102.5V102.6L79.6 102.7L79.5 102.8H79.4H79.3V102.9H79.2V103H79.3V103.1H79.4H79.5H79.6L79.7 103.2H79.8V103.3L79.9 103.4V103.5V103.6V103.7H79.8L79.7 103.8L79.6 103.9V104V104.1H79.7V104.2L79.8 104.3H79.9L80 104.4H80.1H80.2V104.5H80.3L80.4 104.6V104.7V104.8H80.5V104.9H80.6L80.7 105L80.8 105.1V105.2L80.9 105.3V105.4H80.8L80.9 105.5V105.7V105.8V105.9L80.8 106V106.1V106.2L80.7 106.3L80.6 106.4H80.5V106.5H80.4H80.3L80.2 106.4H80.1V106.3H80V106.2L79.9 106.1H79.8V106H79.7L79.6 105.9H79.5H79.4H79.3H79.2H79.1H79L78.9 105.8H78.8V105.9H78.7L78.6 106L78.5 106.1H78.4L78.3 106.2L78.2 106.3V106.4H78.1V106.5V106.6H78V106.7V106.8V106.9L78.1 107V107.1H78.2V107.2H78.3V107.3H78.4L78.5 107.4L78.6 107.5V107.6V107.7H78.5V107.8H78.4H78.3H78.2H78.1H78H77.9H77.8H77.7H77.6H77.5V107.9H77.4H77.3V108H77.2V108.1V108.2V108.3V108.4V108.5L77.3 108.6L77.4 108.7H77.5V108.8V108.9V109V109.1H77.4V109.2L77.3 109.3V109.4V109.5V109.6V109.7V109.8V109.9H77.2V110H77.1V110.1H77H76.9H76.8H76.7H76.5H76.4H76.3H76.2H76.1H76V110.2H75.9L75.8 110.3L75.7 110.4V110.5V110.6V110.7V110.8H75.8V110.9V111H75.9V111.1V111.2V111.3L75.8 111.4L75.7 111.5H75.6L75.5 111.6H75.4H75.3H75.2H75.1L75 111.5H74.8V111.4L74.6 111.3H74.5L74.4 111.2H74.3V111.1V111H74.2V110.9H74.1H74V110.8H73.9H73.8H73.7H73.6V110.9H73.5H73.4V111H73.3L73.2 111.1L73.1 111.2L73 111.3L72.9 111.4V111.5H72.8V111.6L72.9 111.7V111.8V111.9H73V112H73.1L73.2 112.1V112.2V112.3V112.4L73.3 112.5V112.6V112.7V112.8H73.4H73.5L73.6 112.9H73.7V113L73.6 113.1V113.2V113.3V113.4H73.5V113.5L73.4 113.6L73.3 113.7V113.8H73.2V113.9V114H73.1V114.1H73H72.9L72.8 114.2H72.7L72.6 114.3V114.4H72.7V114.5V114.6H72.6V114.5H72.5H72.4H72.3V114.6H72.2V114.7H72.1V114.8H72V114.9L71.9 115V115.1V115.2H71.8V115.3V115.4H71.7V115.5H71.6L71.5 115.6L71.4 115.7V115.8H71.3V115.9H71.2V116H71.1L71 116.1L70.9 116.2H70.8V116.3H70.9V116.4H71V116.5H70.9V116.6H70.8H70.7V116.7V116.8H70.6L70.5 116.9H70.4V117H70.3V117.1H70.2V117.2H70.1V117.3H70H69.9V117.4M69.9 117.4H69.8M69.9 117.4V117.5M69.9 117.5H70M69.9 117.5V117.6H69.8H69.7V117.7H69.6V117.8H69.5H69.4V117.9V118V118.1V118.2V118.3V118.4V118.5V118.6H69.5V118.7V118.8V118.9H69.6H69.7L69.8 119V119.1V119.2V119.3H69.7V119.4H69.6V119.5L69.5 119.6V119.7V119.8V119.9H69.4V120H69.3V120.1V120.2V120.3H69.4V120.4V120.5L69.3 120.6V120.7H69.4V120.8V120.9H69.5V121V121.1V121.2V121.3V121.4V121.5V121.6H69.6V121.7H69.7V121.8V121.9H69.6V122V122.1V122.2V122.3L69.7 122.4L69.8 122.5H69.9H70V122.6V122.7H69.9H69.8V122.6H69.7H69.6V122.7L69.7 122.8V122.9V123H69.8V123.1V123.2V123.3H69.9V123.2H70L70.1 123.3H70.2H70.3V123.4L70.2 123.5H70.1V123.4H70H69.9V123.5H69.8V123.6V123.7V123.8V123.9V124H69.9V124.1V124.2V124.3H70V124.4L70.1 124.5V124.6H70.2V124.7H70.3L70.4 124.6H70.5V124.7L70.6 124.8H70.7V124.9V125L70.8 125.1H70.9H71L71.1 125.2V125.3V125.4V125.5H71.2V125.6V125.7M71.2 125.7H71.1M71.2 125.7V125.8H71.3M71.3 125.8V125.9M71.3 125.8H71.4V125.7H71.5V125.8V125.9H71.6H71.7V126V126.1V126.2V126.3V126.4V126.5H71.8H71.9V126.6V126.7V126.8H71.8V126.9H71.7V127H71.8H71.9V127.1V127.2H71.8H71.7H71.6H71.5H71.4H71.3V127.3H71.2V127.4L71.1 127.5V127.6V127.7H71.2V127.8H71.3V127.9V128V128.1V128.2H71.4H71.5V128.3H71.6V128.4H71.7V128.5V128.6V128.7V128.8V128.9V129L71.8 129.1H71.9V129.2H72H72.1H72.2V129.1H72.3V129.2M72.3 129.2V129.3M72.3 129.2H72.4H72.5V129.3M72.5 129.3H72.4M72.5 129.3V129.4H72.6V129.5V129.6L72.7 129.7H72.8V129.8H72.9H73H73.1V129.9L73.2 130V130.1H73.1V130.2L73 130.3V130.4H72.9L73 130.5H73.1V130.4H73.2V130.5L73.3 130.6H73.4V130.7H73.5L73.6 130.6H73.7V130.7V130.8V130.9V131H73.6V131.1V131.2V131.3H73.5V131.4L73.4 131.5H73.3V131.6M73.3 131.6H73.4M73.3 131.6V131.7V131.8V131.9V132H73.2V132.1V132.2V132.3V132.4V132.5H73.1H73V132.6H73.1V132.7V132.8H73V132.9V133H72.9H72.8H72.7H72.6V133.1V133.2H72.5V133.3H72.6V133.4V133.5L72.5 133.6H72.4H72.3V133.7H72.2V133.8H72.1V133.9V134V134.1H72V134.2H71.9V134.3V134.4V134.5H71.8H71.7V134.6V134.7V134.8V134.9H71.6H71.5V135H71.4V135.1H71.3V135.2V135.3H71.2V135.4V135.5L71.1 135.6V135.7V135.8V135.9H71V136V136.1V136.2V136.3H70.9V136.4L71 136.5H70.9V136.6V136.7V136.8H70.8V136.9V137V137.1V137.2V137.3V137.4V137.5V137.6V137.7H70.7V137.8V137.9V138V138.1H70.6V138.2L70.5 138.3H70.4V138.4L70.3 138.5V138.6H70.2V138.7V138.8V138.9V139V139.1H70.1V139.2L70 139.3V139.4V139.5V139.6V139.7V139.8V139.9H69.9V140V140.1V140.2V140.3V140.4M69.9 140.4H70" stroke="white" stroke-width="0.5" stroke-linecap="round" stroke-linejoin="round"/>
</g>
</svg>
