<svg width="148" height="190" viewBox="0 0 148 190" fill="none" xmlns="http://www.w3.org/2000/svg">
<g id="UA30">
<path d="M55.4 85.9V86L55.5 85.9V86V86.1V86.3L55.8 86.4V86.5V86.6V86.7V86.8V86.9H55.7L55.5 87H55.4H55.3V86.9H55.2H55.1H55L55.1 87H55H54.9V86.9H54.8H54.7H54.6H54.5V86.8L54.3 86.7H54.2V86.6L54.3 86.7V86.6H54.2V86.5V86.4H54.1V86.3V86.1V86H54.2V86.1L54.4 86.2H54.5H54.6H54.7H54.8H54.9H55V86.1H55.1V85.9H55.2V85.8H55.3L55.4 85.9ZM77.3 4.69998L77.1 4.79999V4.59998L77.3 4.49998V4.59998V4.69998ZM71.6 4.69998L71.5 4.59998V4.49998L71.7 4.39999V4.49998V4.59998L71.6 4.69998ZM76.2 4.29999V4.39999H76.1L75.8 4.29999V4.19998L76 4.29999H76.2ZM66.1 25.9L66.2 26V26.1V26.2V26.3V26.4L66.3 26.5V26.6V26.7V26.8V26.9V27L66.2 27.1V27.2L66.1 27.3H66H65.8H65.7H65.6L65.4 27.2H65.3L65.2 27.1L65.1 27L65 26.9L64.8 26.8H64.7H64.6H64.5L64.4 26.9H64.2V27H64.1L64 27.1H63.9H63.8V27.2L63.7 27.3L63.6 27.4V27.5V27.6V27.8V27.9V28V28.1H63.7V28.2H63.8L64 28.4L64.2 28.5L64.3 28.6L64.4 28.7L64.5 28.8V29L64.6 29.1V29.2L64.7 29.4L64.8 29.5V29.6V29.7V29.8V29.9V30L64.7 30.1L64.6 30.2L64.4 30.3L64.3 30.4L64.2 30.5V30.6H64.1V30.7V30.8V30.9H64.2V31L64.3 31.1H64.4H64.6L64.7 31H64.9H65L65.2 31.1V31.2L65.3 31.3V31.5L65.2 31.6V31.7L65.1 31.8H65L64.8 31.9H64.6H64.4L64.2 31.8L64 31.7L63.9 31.6H63.8H63.6H63.5H63.4L63.2 31.8L63.1 32L63 32.1L62.9 32.5L62.8 32.7V33.5V34.1V34.3L62.9 34.5L63 34.8V35L63.1 35.2L63.3 35.5L63.4 35.7L63.7 36L63.9 36.2L64 36.4L64.1 36.7L64.2 36.9L64.1 37.2V37.4L64 37.6H63.9L63.8 37.7H63.5H63.3L63.1 37.8L62.8 38L62.6 38.2L62.5 38.4V38.5L62.6 38.6L62.8 38.8L63 39L63.3 39.3L63.7 39.6L63.8 39.7V39.8V39.9V40.1V40.3L63.7 40.6L63.6 40.8L63.5 41L63.4 41.2L63.1 41.5L63 41.7V41.8V41.9V42.1L63.1 42.4L63.3 42.7L63.4 43.2V43.5V43.7L63.3 44L66.7 43.7L68.4 43.6V43.8L68.5 44.4V44.5V44.8V45H68.6H68.8H69.3H69.5H69.6V45.1L70.5 45.6V45.8V45.9L70.7 46.5L70.8 46.8V46.9V47H70.9V47.1L70.8 47.2V47.3V47.4V47.6H70.7V47.7V47.8V48.1L70.6 48.7L71.3 49.5L71.5 50.2L71.7 50.7L71.8 50.8V50.9V51H71.7V51.1L71.8 51.2V51.4L71.9 51.7H72V51.9V52V52.1V52.2H72.1V52.3V52.4L72.2 52.5V52.6V52.7L72.3 52.8L72.4 53L72.6 53.6L73.2 53.5V53.7L74.1 53.8L74.2 53.9V54H74.3L74.4 54.1H74.5V54.2H74.7H74.8L75 54.1L75.1 54.2H75.2V54.3V54.5V54.8L75.6 55H75.7L75.8 55.1L75.9 55.2L76 55.3H76.1L76.2 55.4L76.5 55.5L76.6 55.6L76.7 55.7H76.8L76.9 55.8H77L76.8 56L76.9 56.2V56.3H77V56.4V56.5L77.1 56.6L77.2 56.7L77.3 57.3V57.4H77.2V57.5H77.1V57.6H77V57.7V57.8V57.9V58V58.1H77.1V58.2V58.3V58.4V58.5V58.6V58.7V58.8L77.2 58.9V59V59.1H77.3V59.2V59.3V59.4H77.2V59.5L77.1 59.6H77H76.9H76.8L76.7 59.7V59.8V59.9H76.8H76.9V60V60.1V60.2V60.3H77V60.4V60.5H76.9V60.6H76.8V60.7V60.8L76.6 60.9H76.5H76.4H76.3H76.2H76.1V60.8H76V60.7L75.9 60.6L75.8 60.5L75.6 60.2L75.3 60.4H75L75.1 60.8L75.2 61.1H75.3H75.4H75.5V61.2H75.6V61.3L75.7 61.4V61.5L75.6 61.6V61.7V61.8H75.7V61.9V62L75.6 62.1L75.5 62.2H75.6V62.3H75.7V62.4H75.8L75.9 62.5H75.8V62.6L75.7 62.7V62.8V62.9H75.6H75.5L75.4 63H75.3V63.1H75.4L75.3 63.2V63.1H75.2V63.2H75.3V63.3H75.4V63.4H75.3V63.5V63.6V63.7H75.4V63.8H75.3V63.9V64H75.4H75.5H75.6V63.9H75.7H75.8H75.9V63.8H76L76.1 63.7H76.2V63.8H76.3V63.9V64H76.4H76.5H76.6H76.7V64.1H76.8V64V63.9L76.9 63.8V63.7V63.5L77.2 63.6H77.3V63.7H77.4V63.8L77.6 63.9H77.8L78 64L78.1 64.1H78.2H78.3L78.4 64.2H78.5H78.6H78.7H78.8H78.9L79 64.3H79.1H79.2V64.4H79.3L79.4 64.5L79.5 64.6H79.6H79.7V64.7H79.8H79.9L80.1 64.8H80.3V64.7L80.4 64.6V64.5V64.4H80.5H80.6L80.7 64.3V64.2V64.1L80.6 64H80.7V63.9H80.8H80.9H81V63.8L81.1 63.7H81.3L81.5 63.5L81.7 63.4L82 63.3L82.2 63.6H82.1L81.4 64.1L81.2 64V64.1L81.1 64.2H81L80.9 64.4H80.8V64.5L80.7 64.6L80.6 64.7H80.5V64.8V64.9L80.4 65V65.1V65.2L80.6 65.3L80.5 65.4L79.8 65.2V65.8L80.1 65.9L80.2 66.2H80.4L81.7 66.1L82.2 66V65.9V65.5V65.4V65.3L82.3 65V64.7V64.4V64.3L82.5 64.2L83 63.9L83.1 64V64.1V64.2V64.3V64.4V64.5H83.2H83.3H83.4L83.7 64.6H83.8H84.2H84.3H84.4H84.5L84.7 64.7H85.2V64.8V64.9V65V65.1H85.3H85.4H85.6H85.7H85.8L85.9 65.2H86L86.1 65L86.2 64.7L86.7 64.8H87.1L87.3 64.9V64.8H87.7H87.8H87.9L88 64.7H88.1L89.2 64.5V64.6L89.3 64.7H89.4H89.7H89.8H89.9L90 64.8H90.1H90.2H90.3L90.5 64.7H90.6H90.8H91L91.3 64.6H91.4H91.7H92L92.1 64.4V64.1L92.3 63.3H92.4H92.5H92.8L93.1 63.4H93.4H93.5L93.7 63.5H94L94.5 63.7L94.9 63.8V64L94.8 64.3L94.7 64.7V64.8V65.2V65.8L94.9 65.9H95L95.1 66H95.2H95.4H95.7L95.9 66.3V66.4L96 66.5L96.1 66.7H96.4L96.7 67L96.9 67.1V67.3L96.8 67.6V67.7V67.8H98.1L98.2 68.9L98.1 69.5H98.2L98.7 69.3L98.9 69.2V69.6V69.7V69.8V70H99.3H99.4H99.5L99.6 70.1L99.5 70.4V70.5V70.7L99.6 71L99.7 71.7V72V72.1V72.2L99.8 72.3L99.3 72.7L98.8 73.2L98.7 73.4L98.6 74.1L98.8 74.7L99.1 74.9L99.5 75.2L99.9 75.5L100 75.6L99.5 76.1L99.8 76.5L100 76.6V76.7L99.7 77.2H98.9L98.5 77.1H98H97.6H96.9V77.9V78.1V78.5L97.4 78.6H98V79.8H98.8H98.9H99.1H99.3V79.9V80.1H100L100.5 80.2V80.3H100.6H100.7H100.8H100.9H101V80.6V80.7V80.8L101.2 81.2L101.5 81.1H101.6V81.2V81.3V81.5V81.6V81.7V81.8L101.5 81.9V82H101.4V82.1V82.2V82.3H101.5V82.4H101.6L101.7 82.5L101.8 82.6H101.9H102L102.2 82.7H102.3H102.4H102.5V82.8H102.6H102.7H102.8V82.9H102.9H103V83H103.1L103.2 82.9L103.3 83H103.4L103.5 83.1H103.6L104.1 83.2L104 83.3H104.1L104.4 83.4H104.5L104.7 83.5V83.7V84L104.8 84.6L105 85.1V85.2V85.3L105.1 85.5L105.2 85.6L105.6 84.9L105.7 84.8L105.8 84.7L106 84.4L106.1 84.3L106.2 84.1L106.5 83.5L106.6 83.3L106.9 83.2L107.2 83L107.3 83.2V83.3L107.4 83.4H107.5V83.5H107.6H107.7H107.9V83.6L108.1 83.7H108.3L108.5 83.8H108.6H108.7L108.8 83.9L109.1 84.2L109.4 84.3V84.4L109.7 84.9L109.8 85H109.7V85.1V85.2V85.4L110.3 85.5L111 85.6V85.4V85.2H111.3L111.4 85.1L111.5 84.8L112.1 84.6L112.7 84.4L113.4 84V83.8L113.7 83.9H113.8H113.9H114L114.3 83.8V84H114.5L114.6 83.9H114.7V83.3H115.1L115.2 83.5L115.5 83.4L115.9 83.9H116V84H116.1H116.2H116.3H116.4V84.1H116.5L116.6 84H116.7V84.1L117 84.2L117.2 83.9L117.3 83.8V83.5H117.8L118.1 83.6L118.5 83.7H118.7L119 83.8H119.2L119.6 83.9H119.7H119.8H119.9L120.1 84H120.3L120.8 83.7L120.9 83.6V83.4L121.1 83.2V83.1V83V81.5H121.4L121.8 81.4H121.9L122 81.6L122.3 81.8L122.4 81.7L122.5 81.6L122.7 81.2L122.8 81L123.1 80.7H123.9L124.6 80.8L125.2 80.9H125.8H125.9H126.8H127.5H127.7H127.8H128L127.9 80.3L127.8 79.9L127.7 79.5H127.8H127.9L128 79.4H128.1H128.2H128.3V78.8L128.2 78.5V78L128.1 77.9L128 77.3V77.2H128.1H128.2H128.3H128.4H128.5H128.6H128.7H128.8H128.9H129H129.1H129.2V77.3L129.3 77.2H129.4H129.5V76.6L129.4 76V75.9V75.8L131.2 75.5V75.4L131.9 75.2L132.3 76.2H132.5L133.1 77.1L133.3 77L133.8 77.4L134.2 77.6L134.6 77.8L134.8 77.9L134.9 78.1L135 78.2L135.1 78.4V78.6V78.8L135.2 79V79.1L135.3 79.2V79.3H135.4L135.5 79.4V79.5L135.7 79.6V79.7H135.8V79.8H135.9V79.9L136 80V80.1V80.2V80.3H136.1V80.4V80.5H136.2V80.6V80.7V80.8V80.9L136.3 81.1V81.2L136.5 81.5L136.6 81.7L136.7 82.1V82.2L137.7 82.5H137.8L138.6 82.4H139.5L141.3 82.3L142.1 82.4H142.2L142.1 82.7V83V83.2V83.3L141.6 83.8L142.2 84.7L141.3 86L139.6 86.6L139.3 86.7V86.6L139.2 86.5V86.1L139.1 86V85.9L139 86L138.9 85.9H138.8L138.7 86H138.6V86.1L138.3 86V85.9L138.2 86V86.1V86.2V86.3V86.5L138.3 86.6V86.7H138.2V86.8V86.9L138.1 87L137.9 86.9V86.8H137.8V86.6V86.5H137.7L137.6 86.6H137.5H137.4H137.3H137.2V86.7L137.1 86.8H137.2V86.9H137.3V87L137.4 87.1L137.5 87V86.9L137.6 87V87.1V87.2H137.7L137.8 87.1H137.9V87.2V87.3H137.8L137.7 87.4L137.6 87.5V87.6L137.5 87.7L137.6 88.2V88.3L137.9 88.4L138.7 88.6L139.6 88.8L140.1 88.9L140.2 89V89.1V89.3L140.3 89.7V89.9V90.3L140.4 90.7V90.8L140.9 91.2V91.3H141V91.9L141.1 92.4V92.5L141.2 92.7V92.8V92.9H141.3V93.4L141.4 93.5L141.8 93.8L142.4 93.4L142.5 93.3L142.8 93H142.9L143.1 92.8L143.2 92.7L143.8 92.2V92.3L144.1 92.6L143.2 93.8L142.8 94.2L143.2 94.7L143.1 94.9L143.2 95.2L142.8 95.6L143.3 95.8L143.6 96L143.8 95.8H143.9L144.2 95.6L144.3 95.3L144.9 95.1H145L145.4 95.2L145.6 95.3L145.9 95.4H146H146.1H146.6H146.7H146.8L147.1 96.1L146.5 96.8L146.1 97.2V97.3L146.2 97.6V97.7L146.3 97.9L146.5 98.2L146.6 98.5L146.4 99.2L146.2 99.7V99.8H146.1L145.7 100.1L145.5 100.2L145.7 100.5L146 101.1L145.8 101.2L145.6 101.4H145.5L145.4 101.5L145.1 101.7L144.9 101.9L144.6 102.1L143.9 102.5H143.8H143.7H143.6V102.6H143.5V102.7L143.3 102.8L143.5 102.9L144 103.2L143.8 103.3L144 103.4V103.6L143.8 104.3V104.5L143.5 105.5V105.7L143.7 105.8L143.8 105.9L144 106.1L143.8 106.3L144.2 106.6L144.9 107.1L144.4 107.8L143.8 107.7H143.5H143.3L143.1 108.1L142.9 108.4V108.5H142.8L142.5 109.1V109.2H142.4L142.3 109.5L142.2 109.6V109.7L142.1 109.8L142 110L141.9 110.2L141.8 110.3H141.5H141.3H141.2H141L140.8 110.1L140.7 110L140.5 109.9L140.4 109.7L140.3 109.6L140.1 109.4L139.9 109.1L139.7 108.9L139.3 109L139 109.1L138.6 109.3L138.5 109.6L138.6 109.7H138.7L139 109.8L138.9 109.9L138.8 110.1L138.7 110.2V110.3L138.5 110.4V110.5L138.4 110.6L138.3 110.9L138.2 111L138.1 111.1L138 111.4V111.5L137.9 111.7L137.8 111.8L137.7 111.9V112V112.1L137.6 112.2V112.4H137.5L137.2 113.2L136.6 113L136.4 112.9H136.3L136.2 112.8H136L135.8 112.7H135.7L135.6 112.6L135.7 112.8L135.8 113V113.2L135.9 113.4L136 113.6L136.2 114.1L136.3 114.4L136.5 114.2L136.8 114H136.9V114.1L137 114.2V114.3L137.1 114.4L137.2 114.5V114.6H137.3L137.4 114.8L137.5 114.9V115L137.7 115.3H137.6L137.5 115.4H137.4V115.5H137.3L137.2 115.6H137.1L137 115.7H136.9V115.8H136.8L136.4 116V116.1L136.2 116.2H136.1L135.9 116.3L135.8 116.4L135.7 116.5L135.4 116.6L135.3 116.7L134.8 117L134.7 117.1L134.5 117.2V117.4L134.4 118V118.1V118.2V118.3V118.4V118.6V118.8V119V119.2V119.3V119.4L134.3 119.7V120.2V120.3V120.4L134.2 120.6L134.4 120.7L134.7 120.5L135 120.4H135.2H135.3H135.5L135.9 120.5H136.1V120.6H136.3H136.5H136.6L137 120.7L137.3 120.8L137.6 120.9H137.8H137.9H138.1L138.3 121L138.2 121.1L138.1 121.4L138 121.8L137.9 122L137.6 121.8H137.5V121.7H137.4V121.6L137.2 121.7L137 121.8L136.6 122L136.3 122.2H136.2L135.9 122.4L135.7 122.5L135.5 122.6H135.4L135.3 122.7L135.1 122.8H134.8V122.9H134.7H134.6V123H134.5L134.4 123.1L134.3 123.2H134.2L134.3 123.5L134 123.6H133.9L134 123.7L134.1 123.8V123.9H134.2L134.3 124V124.1H134.4V124.4V124.6L134.5 124.9V125.6L134.6 125.9V126L134.7 126.1V126.2V126.3V126.4V126.5V126.6V126.7V126.8L134.8 126.9V127V127.1V127.2V127.3V127.4V127.5V127.6V127.7V127.8V128V128.1V128.2L134.7 128.3V128.4L134.6 128.5V128.6H134.5V128.7L134.4 128.8L134.2 129.1L134.1 129.3L134 129.5L133.9 129.2L133.8 129L133.6 128.9H133.5H133.4V128.8V128.6V128.3V128H133H132.4L132 127.9H131.5L130.8 127.8H130L129.6 127.7V128.1V128.2V128.3L129.5 128.5L129.3 128.8L129.1 129.2L129 129.4L128.7 130.1L128.6 130.3L128.5 130.4L128.4 130.5L128.2 130.7L128.1 130.8L127.9 130.9L127.8 131L127.6 131.2H127.5L127.4 131.4V131.6V131.9V132V132.1L127.5 132.4V132.9V133L127.6 133.4H127.5H127.2H127.1H126.5L126.4 133.5L126.2 133.9L125.9 134.4L125.3 135.5V135.6L125.2 135.7L125.1 135.9L124.9 136.3L124.7 136.5L124.6 136.6H124.7V136.7H124.5L124.4 136.8H124.3L124.1 136.7L123.7 136.6H123.5L122.9 136.4L122.5 136.3H122.4H122.3L122.2 136.2L122.1 136.3H122H121.9H121.8H121.6H121.5H121.2H121V136.2H120.9L120.1 136.3H120L119.5 136.4L119.6 135.4L119.7 134.9V134.7V134.5L119.6 134.3L119.5 134.1L119.4 133.9L119.3 133.8L119.2 133.7H119.3L119.4 133.6H119.5L119.4 133.1V132.9V132.4H119.2H118.7H118.4H117.9V132.6V132.7V132.8V133H117.8H117.7V133.3H117.4H117.3H117.2V133.5V133.7L117.1 133.9H117V134.2H116.9L116.8 134.4H116.7V134.6L116.6 134.9H116.4L116.3 135L116.2 134.9L116.1 135L116 134.8L115.9 134.6L115.8 134.7V134.8L115.6 134.9L115.5 134.8L115.4 134.9V135L115.1 135.1L115 135.2L114.8 135L114.6 135.2L114.5 135.3V135.4V135.5H114.6L114.7 135.6V135.7V135.9L114.6 136L114.4 136.1L114.3 136.2V136.3V136.4L114.2 136.5L114.5 136.9V137L114.4 137.1L114.3 137.2L114.2 137.3H114.1H113.9H113.8L113.7 137.1V137L113.6 136.8L113.5 136.3V136H113.3L113 136.2H112.8L112.6 136H112.5L112.4 135.8L112.3 135H111.9L111.8 134.7H110.7L110.5 134L110.3 133H110L109.8 132.1V131.8V131.6L109.9 131.2V130.8V130.7V130.5V130.3V130.2L110 130.1L110.3 129.6L110.4 129.5V129.3L110.3 129.2V129V128.9V128.6L110.4 128.2V128L110.7 127.4L110.9 127.3L111 127.2V127.1V127L110.9 126.8L110.8 126.7L110.5 126.3L110.2 126L109.8 125.8L109.6 125.7L109.4 125.9L108.8 125.7L108.1 125.5H107.9L107.1 125.7H106.9H106.8H106.6L106.5 125.8H106.4H105.9L105.4 125.7L105 125.6H104.7L104.2 125.7H104.1L103.8 126L103.6 126.2V126.4L103.4 126.9L103.6 127L104 126.6L104.4 127L104 127.4L103.5 128L103.4 128.1H103.3V128.2L103 128.6L103.4 128.4H103.6L103.7 128.2L104.2 127.8L105.3 128.4L106 128.9L106.2 129L105.9 129.2L105.5 129.4L105.4 129.9L106 130L106.6 130.7L107.5 132L107.7 132.3V132.4L107.5 132.7L107.4 133H107.2L107 133.2H106.9H106.7H106.5H106.4H106.3H106L105.6 133.3H105.5H105.4L105.3 133.4H105.2L104.6 133.5H104.5V133.7H104.4H104.3V133.8L103.6 134.1L103.2 134.3V134.4H103.1L102.7 134.9L102.5 135.2L102.4 135.3L102 135.9H101.9V136L101.7 136.1V136.2H101.6L101.5 136.1V136L101.4 135.9V135.8H101.3V135.7L101.2 135.6L101 135.5L99.4 136.4L99.1 136.6H99V136.7V136.8V136.9V137H99.1V137.1L99.2 137.2V137.3H99.3V137.4L99.4 137.5L99.5 137.8L99.7 138.2L99.6 138.4L99.4 138.7L99.1 139.3V139.4L98.9 139.7H98.8V139.8V139.9H98.9L98.8 140L98.7 140.2L98.6 140.4V140.5L98.3 141.1L98.2 141.4L98.1 141.5L98.4 141.8L99.1 142.3L99.4 142.6L99.2 143.2L99.1 143.6L99 143.8V143.9H99.1L99.2 144.1L99.1 144.2H99L99.1 144.5V144.6L99.2 144.7L99.3 144.9V145H99.4V145.1V145.2V145.3L99.5 145.5V145.7L99.6 145.8L99.7 146L99.5 146.1L99.4 146.2H99.3H99.2L98.9 147L98.8 147.4L98.7 147.8L98.6 147.9L98.4 148.4L98.8 148.6H98.9H99L99.1 148.7H99.2L99.3 148.9H99.4L99.5 149L99.4 149.1V149.2L99.3 149.4L99.2 149.6H99.1L98.9 149.5L99 149.3L98.8 149.2L98.6 149.4L98.7 149.5L98.5 149.7L98.4 149.8V149.9L98.5 150V150.1H98.6L98.7 150.4V150.5L98.5 150.9L98.2 151.3L98 151.6L97.7 152L97.4 152.5L97.1 153L97 153.1L96.9 153.3L96.8 153.4V153.5L96.6 153.7L96.5 153.9L96.4 154L96.3 154.1V154.2L96.2 154.4L96.1 154.5L96 154.7L95.7 155.3V155.4L95.6 155.5V155.6V155.7H95.5V155.8V155.9H95.4V156V156.1V156.2V156.3L95.3 156.4V156.5V156.6H95.2V156.7V156.8V156.9V157L95.1 157.1V157.2V157.3V157.4L95 157.6L95.4 157.7H95.5H95.6L95.8 157.8H95.9H96.1L96.2 157.9L96.1 158L96 158.1L95.9 158.2L95.8 158.3L95.7 158.4L95.5 158.6H95.6H95.7H95.8L95.9 158.7H96V158.8L96.1 158.9V159V159.1V159.2V159.3V159.4V159.5V159.6V159.7L96.2 159.8H96.1H96L95.9 159.7H95.8L95.7 159.6L95.6 159.9V160V160.1L95.5 160H95.4H95.3V159.9H95.2L95.1 159.8L94.9 159.6L94.8 159.5L94.6 159.4H94.5V159.5V159.6V159.7H94.4H94.3H94.2H94.1V159.6H94V159.7V159.8V159.9H93.9V160V160.1V160.2V160.3H93.8H93.7H93.6V160.4L93.5 160.5V160.6V160.7L93.4 160.8H93.5V160.9V161H93.6V161.1V161.2H93.5L93.6 161.3L93.7 161.4V161.5V161.6V161.7H93.6V161.8H93.5V161.9V162V162.1V162.2H93.6V162.3V162.4H93.5H93.4V162.5V162.6L93.3 162.7V162.8H93.2V162.9H93.3V163H93.4V163.1H93.3L93.2 163.2V163.3H93.1V163.4H93.2H93.3V163.5V163.6H93.2V163.7H93.3V163.8L93.4 163.7H93.5V163.8V163.9H93.4V164H93.3V163.9H93.2V164V164.1V164.2H93.3V164.3V164.4H93.2V164.5H93.1L93 164.4H92.9V164.5V164.6V164.7V164.8V164.9H92.8H92.7V165H92.6H92.5V165.1H92.4V165.2H92.3H92.2H92.1V165.3H92H91.9V165.4H91.8H91.7L91.6 165.5V165.6V165.7V165.9L91.4 165.8H91H90.9V165.9L90.8 166H90.7V166.1L90.5 166.2V166.5L90.6 166.6L90.8 167V167.1L90.7 167.2L90.8 167.4V167.5H90.7H90.6H90.5V167.4L90.4 167.3V167.2H90.3V167.1V167V166.9L90.2 166.7V166.6V166.5H90.1V166.4V166.3H90L89.9 166.4V166.5L89.5 167L89 167.6L88.9 167.7L88.8 167.9V168.2V168.3V168.4V168.7V169.1V169.5L88.7 169.6V169.7L88.5 169.8L88.4 169.9L88.3 170V170.1H88.2V170.2H88.1H88H87.9V170.1H87.8H87.7H87.5H87.3H87.2L86.7 170H86.3L86.2 170.1H86.1H86H85.9L85.6 170.2L85.3 170.3L85 170.4V170.5L84.5 170.7H84.6L84.9 171L85 171.2L85.3 171.3V171.4V171.6L85.2 171.7V171.9V172.2L85 172.3L84.9 172.4V172.6V172.8V172.9L85 173.1V173.2V173.3V173.4H84.9V173.5H84.8H84.7V173.4H84.6V173.3H84.5V173.4V173.5L84.4 173.6V173.7V173.8H84.3V173.9V174.1L84.2 174.2V174.3L84.1 174.5V174.6L84 174.7V174.9V175L83.9 175.1L83.3 174.8H83.2H83.1L82.8 174.7L82.4 174.9V175.1L82.2 175.3H82.1H82V175.4L81.9 175.5V175.6H81.6H81.5L81.4 175.5H81.3H81.1H80.9L80.5 175.6L80.4 175.5V175.6H80.3V175.7H80.2H80.1H80V175.6H79.9L79.8 175.5H79.7L79.6 175.4H79.4H79.2V175.5H79.1H78.7L78.5 175.4L78.4 175.5H78.3L78 175.8L77.7 176H77.6V176.1L77.3 176.2H77.2H77H76.9H76.7H76.6H76.5H76.4H76.3H76.2L75.9 176.1V176.2H75.8L75.7 176.4L75.6 176.5H75.5L75.4 176.6L75.3 176.8L74.9 177.1L74.8 177.2V177.1H74.7L74.5 176.9L74.4 176.8L74.2 176.6L73.8 176.8L73.6 176.6L73.4 176.5L73.1 176.2L72.8 175.8H72.7V175.7L72.5 175.6L72.4 175.5L72.3 175.4H72.2H72.1H71.9V175.3H71.8H71.7V175.4H71.6V175.5L71.5 175.4H71.4V175.3V175.2V175.1V175H71.2L71 175.1H70.9L70.6 175.2L70.3 175.3L70.2 175.2L70.1 175.1H70V175H69.9H69.8V174.9L69.6 174.8H69.5V174.7L69.4 174.6H69.2L69.1 174.5L69 174.4L68.9 174.3H68.8V174.2H68.7L68.2 174.9L67.8 175.4L67.6 175.7L67.5 175.8H67.4H67.3V175.7H67.2V175.6V175.5H67.1L67 175.4H66.9H66.8V175.5H66.7V175.6V175.7H66.6V175.8H66.5V175.9H66.4V176H66.3V176.1V176.2H66.2V176.3V176.4V176.5H66.1V176.6H66H65.9H65.8L65.7 176.7H65.6V176.8H65.5V176.9V177L65.6 177.1L65.5 177.2H65.4H65.3H65.2V177.5L64.7 177.3L64.4 177.4H64.3L64.1 177.5L63.9 177.2L63.5 176.8L63.2 176.4L63.1 176.2L62.9 176V175.9L62.5 175.4L62.2 174.9L62 174.6H61.9L61.8 174.7L61.7 174.8L61.6 174.9H61.5H61.4V175H61.3V175.1H61.2H61.1H61V175.2H60.9H60.8H60.7H60.6V175.3V175.4H60.5V175.5H60.4V175.6H60.3H60.2V176V176.1L60.3 176.2L60.4 176.8V176.9H60.3V177H60.2L60.1 177.1H60H59.9H59.8L59.6 177.2H59.5H59.3H59.2L59 177.3L59.2 178.7L59.3 179.1V179.3V179.4H59.2H59.1H59H58.8H58.7H58.5H58.4H58.3H58.2H58.1L58 180L57.9 180.4V180.7L57.8 181V181.3L57.7 181.8L57.6 181.9V182.2V182.5L57.5 182.8V182.9V183L57.4 183.1V183.3L57.3 183.7L57.2 184L57.1 184.4L57 184.6L56.8 184.5L56.9 184.4V184.3V184.2L57 184H56.8L56.5 183.9V183.8V183.7V183.6V183.5H56.6V183.4V183.3V183.2V183.1L56.3 183H56L55 182.8L54.8 182.7H54.6L54.3 182.6L53.7 182.5L53.4 182.4H53.3L53 182.3H52.9L52.5 182.2L52.4 182.1H52.3H52.2L51.8 182L51.3 181.9L51.1 181.8V182.1H51L50.9 182H50.8H50.7H50.6H50.5H50.4L50.3 181.9H50.2H50.1L50 182L49.7 181.8H49.3L48.7 181.7H48.5H48.1L47.7 181.6H47.6L47.7 181.1L47.8 180.8V180.7V180.6L47.9 180.3V180.1V179.8V179.4V179.3L48 178.6L48.1 178L48.2 177.4H47.9L47.1 177.5H47H46.9H46.6H46.3H46.1H46L45.6 177.6V177.3V177.2V177V176.9L45.5 177L45.3 177.1H45.2V177.2H45.1H45L44.9 177.6L44.8 178.2V178.4L44.7 178.6H44.6L44.5 178.7V178.8H44.4H44.3H44.2V178.9H44.1V179H43.9V178.9H43.8V179H43.7V179.1L43.6 179.2V179.3H43.5V179.4L43.6 179.5H43.7V179.6H43.8L43.9 179.7L44 179.8L44.1 179.9V180H44.2L44.1 180.1V180.2L44.2 180.3L44.3 180.5V180.6V180.7V180.8V180.9V181.1H44.2L44.1 181.2L44 181.3V181.4V181.5V181.6H43.9V181.7V181.8H43.8V181.9H43.7L43.6 181.8L43.5 181.7H43.4H43.3V181.6L43.1 181.5V181.4L43 181.3V181.2L42.9 181.1V181H42.8V180.9H42.7H42.6V180.8V180.7L42.5 180.6V180.5V180.4V180.3V180.2V180.1V180H42.4V179.9H42.3V179.8L42.2 179.7V179.6H42.3V179.5H42.4V179.4V179.3V179.2L42.3 179.1L42.4 179V178.9V178.8V178.7V178.5H42.3V178.4L42.2 178.3H42.1V178.2V178.1L42 177.9H41.9V177.8H41.8H41.7V177.7H41.6L40.4 177.4L39.8 177.2L39.7 177.1L39.4 177L39.1 177.4H39H38.9H38.8H38.7L38.6 177.5V177.6L38.5 177.9V178V178.1V178.2L38.4 178.5L38.3 178.4H38.2H38H37.9H37.7H37.6H37.4H37.3H37.2L37.1 178.5L36.8 178.7L36.6 178.8L36.5 178.9L36.4 179H36.3L36.1 179.1H36V179L35.9 178.9V178.8H35.8V178.7H35.7H35.6H35.5V178.8V178.9L35.4 179V179.1L35.3 179.2V179.3V179.4V179.5L35.4 179.7L35.5 179.9L35.6 180L35.7 180.1L35.8 180.4L35.9 180.5V180.6V180.7V180.8V181.1V181.4V181.6V182V182.4V182.5V182.7V182.8V182.9V183V183.1V183.2L35.8 183.3V183.4V183.5H35.7H35.6H35.5L35.2 183.6H35.1H35H34.9H34.8H34.7L34.6 183.7V183.8V183.9V184V184.1L34.5 184.2V184.3L34.3 184.6L34.1 184.9V185L34 185.1L33.6 185.4L33.3 185.7L33.4 185.9L33.5 186H33.4L33.5 186.1L33.2 186.3L32.7 186.7L32.9 187H32.7L32.4 187.2L32.1 187.3H32H31.9V187.4V187.5L32 187.6L32.1 187.7V187.8H32.2V187.9V188V188.1V188.2V188.4H32.1H31.8L31.6 188.3H31.5H31.2H31L30.9 188.2L30.7 188.3L30.5 188.4L30.2 188.5L29.9 188.6V188.7L29.6 188.8H29.5L29.4 188.9H29.3L29 189L28.9 188.8V188.7V188.6L28.8 188.5V188.4H28.7H28.6L28.4 188.5H28.3L27.4 188.6L27.1 188.7L26.7 188.8L26 188.9L25.9 188.8L25.7 188.5L25.5 188.2L25.3 188V187.9L25.2 187.8L25 187.5L24.9 187.4L24.8 187.3L24.5 187L24.3 186.7H24.4H24.5L24.6 186.6H24.8L24.9 186.5H25H25.1L25 186.2V186.1L25.1 186H25.2V185.9V185.8V185.7H25.3L25.2 185.6L25.3 185.5V185.6L25.4 185.5H25.5H25.6V185.4H25.7V185.3L25.3 185.5L25.2 185.4H25.1H25V185.3H24.9V185.2H24.8V185.1H24.7L24.6 185H24.5H24.4L24.3 184.9H24.2L24 184.8L23.8 184.6V184.5V184.4V184.3V184.2V184.1V184H23.9H24L24.1 183.9L23.9 183.5L23.5 182.5H23.4L23.1 182.6L23 182.7L22.9 182.8H22.8V182.9L22.7 183V183.1V183.2L22.6 183.3V183.4V183.5V183.6V183.7V183.9V184V184.1L22.5 184.2V184.4L22.4 184.5L22.2 184.3L21.3 183.7L21.2 183.6L21.1 183.5H21L20.9 183.6H20.8L20.7 183.7H20.5L20.4 183.8H20.3H20.2H20.1H20H19.9V183.7H19.8V183.6L19.7 183.5V183.4L19.6 183.3H19.5V183.2L19.4 183.1H19.3V183V182.9H19.2V182.8H19.1L19 182.7H18.9L18.8 182.6L18.7 182.5V182.4L18.6 182.3L18.7 182.1L18.8 181.9L18.9 181.7L19 181.6H18.9H18.8H18.7L18.6 181.5V181.4H18.7V181.3H18.8L18.9 181.2V181.1V181H18.8V180.9V180.8H18.7L18.8 180.7H18.7V180.6V180.5H18.6V180.4H18.5L18.4 180.3V180.2V180.1V180V179.9L18.3 179.8V179.7V179.6H18.4V179.5H18.5H18.6H18.7V179.4V179.3L18.9 179.2L18.5 178.9L18.1 178.6L17.6 178.2H17.4L17 177.9H16.9H16.8L16.7 177.8H16.6H16.5L16.4 177.9V178L16.3 178.1H16.2V178H16.1H16V177.9H15.9H15.8H15.7H15.6L15.5 178V177.9H15.4H15.2L14.9 177.8H14.6V177.7V177.6H14.5V177.5L14.4 177.4L14.3 177.3L14.2 177.2V177.1V177L14 176.8V176.7V176.6V176.5L14.1 176.4L14 176.3V176V175.9V175.8V175.7V175.6L13.9 175.5V175.4V175.3V175.2V175.1V175V174.9L13.8 174.8L13.7 174.7L13.6 174.6L13.5 174.5L13.3 174.3H13.2H13.1L13 174.2L12.9 173.8V173.6L13 173.3V173.2L13.1 173H13.2V172.9V172.7L13.1 172.2L13.7 172L14.1 171.9L14.6 171.8H14.7L14.8 171.7H14.9L15 171.8L15.1 171.6L15.2 171.4L15.5 171.2L15.9 170.9V170.8H16L15.8 170.5H15.9L16.1 170.2L16.4 170V169.9H16.5L16.7 169.7V169.6L16.6 169.5L16.5 169.3L16.7 169.2L16.8 169.1L16.9 169L17 168.9L17.6 168.5V168.4L17.5 168.1V168L17.4 167.9V167.8V167.7H17.3L16.8 167.5L16.6 167.4L16.4 167.3L16.3 167.2L16.1 167.1V167L16 166.9H15.9L15.7 166.6L15.5 166.2L15.3 165.8L15.1 165.5V165.4L15 165.3H15.1V165.2V165.1H15.2H15.3H15.4L15.5 165V164.9L15.6 164.8V164.7V164.6V164.5H15.7V164.4H15.8V164.3H15.9H16V164.4H16.1H16.2V164.3H16.3H16.4H16.5V164.4H16.6H16.7L16.8 164.5H16.9L17 164.6H17.1V164.5V164.4V164.1H17.2V163.8L17.1 163.6H16.9H16.7H16.6L16.5 163.7L16.4 163.9V163.8H16.3L16.2 163.6L15.6 162.8L15.5 162.7H15.4L15.3 162.6H15L14.9 162.5H14.8L14.9 162.3V162L15 161.9V161.6L15.1 161.7H15.2V161.6L15.1 161.4V161.3V161.2H14.9H14.8V161.1L14.7 160.9V160.8V160.7L14.6 160.6V160.5V160.4L14.5 160.2V160V159.8V159.7V159.5H14.4V159.3V159.2L14.3 159.1L14.2 159V158.9L14.1 158.8L14 158.7V158.6L13.9 158.4H13.8L13.7 158.2L13.6 158L13.5 157.9V157.8L13.4 157.7L13.3 157.6L13.2 157.4L13.1 157.2L12.8 156.8L13 156.7L13.1 156.6V156.5L13 156.4H12.9L12.7 156.3L12.8 156.2L12.9 156.1L13 155.9L13.2 155.7L13.3 155.5L13.4 155.4V155.2L13.3 155V154.9V154.8L13.6 154.6L13.8 154.5L13.9 154.4V154.3H14V154.2L14.2 153.8L14.3 153.9H14.5L14.6 153.7V153.5L14.4 153.4L14.3 153.3H14.1L14 153.2H13.9V153.1V152.9V152.8H13.8L13.7 152.7H13.5L13.1 152.5L13.2 152.2L13.3 152L13.4 151.8L13.5 151.4L12.3 151V150.2H12.4V150.1V150V149.9V149.8V149.6V149.5V148.4V148.1V148V147.9H12.5V147.8H12.6H12.7V147.7V147.6V147.5H12.6H12.5H12.4H12.3L12.2 147.6H12.1H12H11.8H11.7H11.5L10.1 147.5L10 147.2L9.60001 146.3L10.1 146.1L10.6 144.7L10.9 143.7L10.8 143.1L10.7 143V142.9V142.8V142.7L10.6 142.6V142.5V142.4L10.5 142.3V142.1L10.4 142V141.9L10.3 141.8V141.7L10.2 141.6L10.1 141.4V141.3V141.2L10 141.1V141L9.89999 140.9V140.8L9.79999 140.5V140.4V140.3H9.89999L10.3 140.6L10.9 140L11 139.9L11.1 139.8H11.2L11.3 139.6L11.5 139.9L11.6 140L11.7 140.2V140.3L11.9 140.5V140.6H12L12.3 140.4L12.2 140.3L12.4 140.1L12.8 139.9L12.7 139.7L12.6 139.6L12.7 139.5V139.4L12.6 139.2V139.1L12.4 138.8L12.6 138.6L12.8 138.5V138.4H12.9L13.1 138.2L13.2 138.1L13.3 138L13.4 138.1V138.2H13.5V138.3H13.6H13.7V138.4H13.8L13.9 138.5H14L14.1 138.6L14.2 138.7V138.8H14.3L14.4 138.9H14.5V139H14.6H14.7L14.8 139.1L14.9 139.2L15 139.3L15.1 139.1V139L15.2 138.8L15.4 138.6L15.3 138.5L15.2 138.2V138H15.3L15.5 137.9H15.6H15.7H15.8H15.9H16H16.2H16.3H16.4L16.6 137.8V137.7V137.6H16.7H16.8L16.9 137.5H17H17.1H17.2H17.3H17.4H17.5H17.6L17.8 137.3V137.2L17.9 137L17.8 136.8V136.7L18 136.6L18.1 136.4L18.6 136.6L18.9 136.7H19V136.6L19.1 136.5V136.4H19.2V136.3V136.2V136.1L19.3 136L19.4 135.8H19.5H19.6L19.7 135.7L19.8 135.6V135.5L20 135.3H20.1V135.4H20.2V135.5H20.3H20.4V135.6H20.5V135.7H20.6V135.6L20.7 135.5H20.8L21 135.2L21.2 135V134.9L20.9 134.8L20.4 134.7V134.6L20.3 134.7H20.2H20.1H20H19.9H19.8H19.7H19.6V134.6H19.5V134.5V134.4H19.4V134.3V134.2H19.3V134.1V134H19.4H19.5L19.6 134.1V133.9L19.7 133.8V133.7L19.8 133.6V133.5H19.9V133.4L20 133.2L20.1 133.1V133H20.2H20.3V132.9H20.4H20.5V132.8H20.6L20.7 132.7L21.2 132H21.3L21.8 131.7L22.6 131.3L23.3 130.9L24.3 130.4H24.4L24.2 129.7L24.7 129.4V129.2L24.6 129.1V129H24.5V128.9H24.4V128.8V128.7L24.3 128.6V128.5H24.2V128.4H24.1V128.3V128.2H24.2V128.1H24.3H24.4V128H24.5H24.6L24.5 127.8L24.4 127.4L23.7 127.6L23.6 127.4L23.5 127.3L23.7 127V126.9L23.8 126.7H23.7V126.6H23.6V126.5H23.5L23.4 126.4H23.3V126.3L23.2 126.2L23.1 126.1L23 126L22.9 125.9L22.8 125.8V125.7L22.7 125.6V125.5V125.4L22.6 125.3H22.5V125.2V125.1V125H22.6V124.9H22.7V124.8H22.8H22.9V124.7V124.6H22.8V124.7H22.7V124.8H22.6V124.7H22.5V124.6V124.5V124.4H22.4H22.3V124.3H22.2V124.2V124.1H22.1V124V123.9H22V123.8V123.7V123.6L21.9 123.5H22V123.4V123.3H21.9V123.2V123.1V123V122.9L21.8 122.8L21.5 122.6V122.5H21.6L21.9 122.3L22.1 122.2L22.3 122H22.4L22.5 121.8H22.6V121.7H22.7V121.6V121.3V121L22.8 120.7V120.6V120.5V120.4V120.3V120.2V120V119.9V119.8V119.7L22.4 119.2L22 118.7L21.9 118.6L21.3 117.9L21.1 117.6L20.9 117.5L20.8 117.3L20.7 117.2L20.6 117.1L20.5 117V116.9H20.4L20.3 116.8L20.2 116.7H20.3V116.6H20.4V116.5H20.5V116.4H20.6V116.5H20.7V116.4H20.8H20.9H21H21.1V116.3H21.2H21.3V116.2H21.4V116.1L21.5 116V115.9H21.4H21.2H21.1H21H20.9H20.8V115.8H20.7L20.8 115.6V115.5V115.4V115.2H20.9V115.1V115H21V114.9H21.1V114.8H21.2V114.7H21.3L22.3 113.8L22.4 113.5L22.5 113.4L22.6 113.1V113V112.9H22.5H22.4V112.8H22.3H22.2L22.1 112.7H22H21.9V112.6H21.8L21.7 112.5L21.6 112.4L21.5 112.3L21.4 112.2L21.3 112.1V112L21.2 111.9L21.1 111.8H21L20.9 111.7L20.8 111.6H20.7H20.6H20.5L20.4 111.5V111.4L20.3 111.3V111.2L20.2 111.1L20.1 111V110.9L20.2 110.8H20.3V110.7V110.6H20.4V110.5V110.4H20.5H20.6H20.7V110.3L20.9 110.1V109.9H21V109.8V109.7H21.1V109.6H21.2V109.5L21.4 109.3L21.5 109.2L21.6 109.1V109L21.7 108.9V108.8H21.8V108.7L21.9 108.6V108.5V108.4L22 108.2L22.1 108.1V108V107.9V107.6V107.5H22.2V107.4V107.3H22.3V107.2H22.4V107.1H22.5H22.6H22.7H22.8V107H22.9H23V106.9V106.8V106.7H22.9L22.8 106.6H22.7V106.5H22.6V106.4L22.5 106.3L22.4 106.2V106.1L22.3 106L22.2 105.9V105.8V105.7L22.1 105.6V105.5V105.4V105.3V105.2L22 105.1V105L21.8 105.1L21.7 104.7H21.8L21.5 104.5L21.4 104.4L21.2 104.2L21.5 104.1H21.6V104L21.4 103.7L21.2 103.5H21.3V103.4H21.4L21.6 103.2H21.7V103.3H21.8V103.4L21.9 103.5V103.6L22 103.5L22.1 103.4V103.3H22.2V103.2L22.4 103.1V103V102.9V102.7H22L21.8 102.6V102.5V102.4V102.1V102L21.7 101.8V101.7L21.8 101.5L21.9 101.1V100.9H22V100.7V100.6H22.3L22.4 100.7H22.5V100.3V100L22.6 99.9V99.8V99.7V99.6V99.5L22.4 99.6L22 99.8H21.8H21.7H21.6H21.5V99.7H21.4H21.3L21.1 99.6L20.9 99.5H20.8H20.7H20.6H20.5H20.4L20.3 99.6L20.2 99.5L19.9 99.4L19.6 99.3L19.3 99.2L19.2 99.1L19.1 98.9L19 98.8L18.9 98.5L18.8 98.4H18.7L18.6 98.3L18.5 98.2L18.6 98.1L18.7 98H18.8V97.9H18.9V97.8H19H19.1V97.7H19V97.6H19.1V97.5H19.2V97.4V97.3H19.3V97.2H19.4V97.1H19.5H19.6V97L19.7 96.9V96.8V96.7V96.5V96.4V96.3V96.2V96.1V96H19.6L19.7 95.9V95.8L19.5 95.7L19 96.3L18.9 96.2L18.8 96.3L18.7 96.1L18.6 96L18.5 95.9L18.4 95.8V95.7H18.3L18.1 95.6H18H17.9H17.8H17.7H17.3L17.4 95.4V95.1L17.3 94.9V94.7V94.6L17.2 94.5V94.4V94.3V94.2L17.3 94V93.9L17.4 93.5L17.1 93.2L17 93.1H16.9V93V92.9L16.6 92.5L16.2 92.1L15.9 91.8H15.7H15.6L15.3 91.9L14.8 92H14.7L14.3 92.1H14H13.9L13.1 92.3H12.9L12.8 92.4L11.9 92.5V92.6V92.9V93.1V93.2V93.3H11.7H11.4L10.9 93.4H10.6V93.5L10.3 93L10.1 92.6L10 92.3V92.2V92.1L10.1 92H10.3L10.4 91.9L10.5 92H10.6L10.8 92.1L11.1 92.3H11.2H11.3L11.4 92.2V92V91.9H11.6L11.7 92H11.9L12 91.8H12.1V91.7L12.2 91.6V91.5V91.4L12.3 91.3V91.2L12.4 91.1H12.5V91L12.6 90.9L12.7 90.8L12.8 90.5V90.4V90.3V90.2V90V89.8V89.7L12.7 89.6H12.6H12.5H12.4H12.3H12.2H12.1H12H11.9H11.8V89.7H11.7V89.6V89.5H11H10.9H10.7H10.6H10.5H10.4L10.2 89.4V89.2L10.3 89.1L10.4 88.7L10.6 88.2V88.1H10.7V88H10.8V88.1L11 88.3L11.2 88.4L11.3 88.5L11.5 88.6H11.6H11.7V88.7H11.8V88.8H11.9H12V88.9L12.1 88.8L12.2 88.7L12.4 88.6L12.6 88.5L12.8 88.3L12.9 88.2L13 88.3H13.1L13.2 88.2L13.3 88.1L13.4 88V87.9L13.3 87.7L13.2 87.3L13.1 87.1L13 86.9L13.3 86.6L13.2 86.3L13.1 86.1L13 86V85.7H13.2V85.6H13.1V85.5H13H12.9H12.8H12.7V85.4H12.6L12.5 85.3H12.4L12.3 85.2H12.2V85.1H12.1V85L12 84.9H11.9H11.8L11.7 84.8H11.6H11.5V84.7H11.4L11.3 84.6H11.2L11.1 84.5H11V84.4H10.9V84.3V84.2V84.1H11V84H11.1V83.9V83.8V83.7H11.2V83.6L11.1 83.7V83.6H11.2V83.5V83.4H11.1V83.3H11L10.9 83.2V83.1V83L10.8 82.9V82.8V82.7V82.6V82.5H10.9H11.1H11.2H11.3H11.7H11.8H11.9H12V82.6H12.1L12.2 82.7L12.3 82.6V82.5L12.4 82.3L12.5 82.2V82.1L12.6 82H12.7L12.8 81.9H12.9L13 81.8V81.7V81.6V81.5V81.4L12.9 81.2L12.8 81V80.9V80.8V80.6V80.5V80.4V80.3H12.9L13 80.1V80L13.1 79.9V79.8L13 79.7L12.9 79.6H12.8V79.5V79.4V79.2V78.9V78.7V78.6V78.5L12.7 78.4V78.3H12.6V78.2L12.5 78.1V78L12.2 77.9L12.1 77.8V77.7L12 77.6H11.9V77.5H11.8V77.4V77.2H11.7L11.6 77.1V77H11.5L11.3 76.9H11.2L11.1 76.8H11H10.9V76.7H10.8L10.7 76.6V76.5L10.6 76.4L10.3 76.2L10.2 76.1H10.1V76L10.9 75.7L11.5 75.5L11.4 75.4L11 75.1L11.5 74.6L11.6 74.5L11.7 74.4H11.8L11.9 74.2L12 74.1L12.1 74L12 73.9L11.9 73.8L11.7 73.5V73.4V73.3H11.8V73.2H11.9H12V73.1V73H12.1H12.2V72.9H12.1V72.8H12.2V72.7H12.3V72.8H12.4H12.5V72.7H12.6V72.8H12.5V72.9V73H12.6V72.9H12.7H12.8V72.8H12.9V72.9L13 73V73.1H13.1H13.2H13.3V73H13.4H13.5V72.9H13.6H13.7H13.8L13.9 72.8H14H14.1V72.7H14.2H14.3V72.6H14.4V72.5V72.4H14.5L14.4 72.3V72.4H14.3V72.5H14.2V72.4H14.3V72.3V72.2H14.4V72.1V72H14.3V71.9H14.4V71.8H14.3V71.7V71.6H14.2L14.3 71.5L14.4 71.4H14.5H14.6V71.3H14.7V71.2H14.8L14.9 71.3V71.2V71.1V71H15V70.9V70.8V70.7V70.6H15.1V70.7H15.2V70.6V70.5H15.3V70.4V70.3H15.4H15.5V70.4H15.6V70.3H15.7H15.8H15.9H16H16.1H16.2V70.2H16.3V70.1V70V69.9H16.4H16.5H16.6V69.8H16.7V69.7H16.8V69.6V69.5L16.9 69.4H17V69.3L17.1 69.2V69.1L17.2 69V68.9L17.3 68.8V68.7V68.6V68.5L17.4 68.4V68.3V68.2V68.1H17.5V68V67.9H17.6V67.8V67.7H17.7V67.6V67.5H17.8V67.4L17.7 67.3V67.2H17.6L17.5 67.3V67.4H17.6V67.5H17.5H17.4V67.4V67.3V67.2V67.1H17.3V67L17.2 66.9V66.8V66.7H17.1H17V66.6H16.9H16.8V66.5V66.4V66.3V66.2H16.9V66.1V66H17V65.9L16.9 65.8H16.8L16.7 65.7V65.6V65.5H16.6V65.4H16.7L16.6 65.3V65.2V65.1V65H16.5V64.9V64.8H16.4H16.3H16.2V64.7H16.3V64.6L16.4 64.5H16.3V64.4H16.4H16.5V64.3V64.2H16.4V64.3H16.3V64.2V64.1H16.4V64H16.3V64.1H16.2V64.2H16.1H16V64.1H15.9V64H15.8H15.7H15.6H15.5H15.4H15.3L15.2 63.9H15.1L15 63.8H15.1V63.7H15H14.9H14.8H14.7H14.6H14.5V63.8L14.4 63.9H14.3V64H14.2H14.1H14H13.9H13.8H13.7H13.6V64.1H13.5V64.2H13.4L13.3 64.3V64.4H13.2L13.1 64.5H13V64.4H12.9L12.8 64.3H12.7H12.6V64.2H12.5V64.3H12.4L12.3 64.2H12.4V64.1H12.3H12.2L12.1 64H12H11.9H11.8H11.6V63.8H11.7L12.1 63.9H12.3L12.5 63.8H12.7L12.8 63.7L12.9 63.8H13H13.1H13.2H13.3L13.4 63.7V63.6V63.5V63.4V63.3V63.2H13.3H13.2V63.1V63V62.9H13.3H13.4H13.5V62.8H13.6H13.7V62.7H13.8V62.6H13.9V62.5H14V62.4H13.9L13.8 62.2L13.7 62.3H13.6L13.4 62.2L13.3 62.1L13.2 62L13 61.8H12.9V61.7H12.8L12.7 61.6L12.4 61.2L12.6 61L12.4 60.9L12.3 60.8L12.9 60.3H13H13.1H13.2L13.7 60.4L14 60.5L14.4 60.6L14.6 60.7L14.8 60.8H15.3V60.7L15.2 60.4L15.1 60.1L15 59.5L14.6 59.4L14.4 59.8L14.3 59.9L13.9 59.6L13.1 59.1L12.7 58.8L12.8 58.7L12.9 58.4L13 58.3V58.2L13.2 57.9L13.3 57.6L13.4 57.5L13.6 57L13.8 56.6L13.9 56.5V56.3L13.8 55.9L13.7 55.7L13.5 55.5V55.4H13.4V55.3L13.2 55.2L13.1 55L13 54.9L12.9 54.8L12.3 54.6L12.2 54.5L12.1 54.4L11.9 54.1V54L11.8 53.9H11.7L11.5 53.6V53.5H11.4L11.6 52.6L11.5 52.4V52.3H11.4V52.2L11.3 51.9L11.2 51.8L11 51.6L10.9 51.5L10.7 51.3L10.4 50.9L10.2 50.8L10 50.6L9.89999 50.5L9.79999 50.4L9.60001 50.2V50.1L9.5 50.2H9.39999L8.89999 50L8.39999 49.9L8.5 48.5V48.3V47.7V47.3V47L9 46.9H9.10001L9.20001 46.8H9.60001L9.89999 46.7H10L10.1 46.8L10.3 46.9L10.7 47.1H10.8L10.9 47.2L11.2 47.3L11.6 47.5V47.4L11.3 47.1V47L11.2 46.9V46.8V46.7L11.1 46.3V46V45.9V45.6V45.5V45.4L11.2 45.3V45.2V45.1H11.3V45L11.2 44.8V44.7L11.1 44.6V44.5V44.3H11.2V44.2L11.4 43.9L11.7 43.4L11.6 43.3L11.8 43.1L12 42.8V42.7H12.1L12.2 42.6L13.5 40.9H13.4L13.3 40.8V40.7L13.2 40.6L12.9 40.3V40.2L12.7 40.1L12.6 39.9H12.5L12.4 39.8H12.3L12.2 39.7H12.1L12 39.6L11.9 39.5H11.8L11.7 39.4L11.6 39.3V39.2H11.5L11.4 39.1V39H11.3V38.9H11.2L11.1 38.8H11V38.7H10.9L10.8 38.6L10.7 38.5L10.5 38.1L10.1 37.5L10 37.2L9.70001 36.7L9.5 36.3L9.29999 36L9.20001 35.8L9.10001 35.7L9 35.6L8.60001 35.4V35.3H8.5H8.39999L8.10001 35L7.79999 34.8L7.70001 34.7L6.79999 34.1L6.60001 33.9L6.39999 33.8L6.10001 33.6L6 33.5L5.89999 33.4L5.70001 33.2L5.39999 33.1L5.20001 32.9L4.5 33.1H4.29999V33.2V34V34.1V34.2V35.1L4.20001 35.7L4 35.6H3.89999H3.79999V35.5L3.60001 35.2L3.39999 34.6L3.29999 34.2L3.20001 33.5L3.10001 33.4V33.3V33.1H3V33V32.9V32.8L2.89999 32.4L2.79999 32L2.70001 31.4L2.60001 31.3V31.2V31L2.39999 30L2.29999 29.8L2.20001 29.5L2 28.5L1.89999 28V27.9V27.8L1.79999 27.7V27.5V27.4V27.3L1.60001 26.9V26.7V26.4L1.39999 25.8L1.29999 25.5V25.2L1.20001 24.9L1.10001 24.5L1.29999 24.4L2.20001 24.1L2.39999 24L2.70001 23.8H2.79999H2.89999V23.9H3V24H3.10001H3.20001V23.8V23.7L3.29999 23.6H3.39999L3.70001 23.7H3.79999H3.89999L4 23.6H4.10001H4.20001H4.29999V23.5L4.39999 23.4V23.6L4.29999 23.8L4.20001 23.9V24H4.29999H4.39999H4.5V24.1H4.60001L4.70001 24H4.89999L5 23.9H5.10001L5.39999 23.8L5.5 23.7L5.70001 23.5L5.89999 23.2L6 22.8L6.29999 22.4L6.70001 21.8L7.20001 20.9L7.70001 19.9V19.8L7.60001 19.4L7.5 18.9V18.5V18.4L7.39999 18.3V18.2V18L7.5 17.4V16.5V15.6V15.2L6.89999 15.3L6 15.5H5.79999V15.3V15.2L6.79999 14.3L8 13.9L10.2 14.8H11.2L11.8 13.7H11.9L12 13.8H12.2H12.3H12.4L12.5 13.9H12.6L12.7 13.8V13.7L12.9 13.5L13 13.4V13.3L13.1 13.1V13L13.2 12.8V12.7V12.5L13.3 12.4V12.3L13.4 12L13.5 11.7L13.8 11.8L13.7 11.3H13.8V11.1V11L13.9 10.9V10.8L13.8 10.3L13.7 10.2H13.8L15.1 10.1L16.3 9.59998L17.1 8.69998L17.2 8.39999L17.8 7.59998L18.2 7.19998L18.8 6.69998L19.8 6.19998L21 5.99998L22.1 6.19998L22.9 6.79999L23.8 8.29999L24.2 9.49998L24.9 10.4L29.4 11.2L30.3 10.9L30.9 10.4L31.2 9.79999L31.7 8.79999L32.3 8.39999V8.29999L32.9 8.39999L33.7 8.89999H34.3L37.4 7.29999L38.5 6.89999L45.6 6.79999L47 7.19998L48.4 8.19998L50.3 10.8L51 11.6L53.6 12.8L54.2 13.4L54.5 14L54.7 14.5V15.1V16V16.5L54.6 16.6V16.9L54.2 18.3L54.1 18.4L54.5 19.2L56 21.2L56.7 21.8L57.4 22.2L58.9 22.1L59.7 22.3L60.4 23L61.5 24.7L62.3 25L63 24.9L63.7 25.1L64.4 25.5L64.9 26.1L65.3 26.9L65.9 26.8L66.1 26.3V26.2V25.9ZM74.4 78.8V78.9V79H74.3V79.1V79.2L74.2 79.3L74.1 79.4L74 79.6L73.9 79.7V79.8L74 80.1V80.2V80.7V80.9L74.1 81.1H73.9H73.8H73.7L73.3 81.2V81.1V81V80.9V80.8H73.2L73.1 80.9H73L72.9 81H72.8L72.7 81.1H72.6L72.5 81.2H72.4V81.3H72.3H72.2L72.1 81.4H72H71.9H71.8L71.7 81.5H71.6V81.6L71.5 81.7V81.8V81.9V82H71.4V82.1V82.2L71.3 82.3L71.2 82.4V82.6H71.1V82.7V82.9H70.9H70.4L70.1 82.8H69.6H69.5V82.9H69.4L69 82.8H68.8H68.4L68 82.7H67.5H67.1L66.9 82.6L66.8 82.2H66.9L67 81.9V81.8H66.9V81.9V82L66.8 82.1H66.7H66.5H66.4L66.3 82L66.1 81.9L65.9 81.8H65.7L65.6 81.7H65.2L65.1 81.8H65L64.9 81.9V82L64.8 82.1V82.2V82.3H64.9V82.4V82.5L65.1 82.6L65.5 83.4V83.6L65.4 83.8L65.2 83.6H65.1V83.5V83.4V83.3L65 83.2V83.1V83L64.9 82.9V82.8H64.8V82.7H64.7L64.6 82.6H64.5V82.5L64.3 82.4H64.2L64.1 82.3L64 82.2H63.9H63.8V82.1H63.7H63.6V82H63.5L63.4 81.9L63.3 81.8L63.2 81.7V81.6H63.1V81.5V81.4H63V81.3V81.2V81.1H62.9V81V80.9V80.8L62.8 80.6V80.5V80.4V80.3V80.2H62.7H62.6L62.5 80.3V80.2V80.1L62.4 79.9H62.3H62.2H62.1H62H61.9H61.8H61.7L61.6 80H61.5V79.9V79.8V79.7V79.6V79.5V79.4L61.4 79.1V79H61.3L61.1 78.9H61H60.8L60.6 78.8H60.4H60.3H60.2H60.1H59.9H59.8H59.5H59.1H58.7H58.4H58.3H57.9H57.5H57.2H57.1H56.9H56.8V79.1V79.5V79.8H56.4H56H55.7H55.6H55.4H55.3H55.2H55L54.8 79.9H54.7H54.5H54.4L54.1 80H54H53.7H53.6V80.1H53.7V80.2L53.8 80.1V80.2H53.9H54V80.3H54.1H54.2L54.3 80.4L54.5 80.5H54.6V80.6H54.5V80.7H54.6L54.7 80.8V80.9H54.8L55 81H55.1H55.2L55.3 81.1V81.2H55.2H55.1H55V81.1H54.9H54.8V81.2V81.3H54.7V81.4L54.8 81.5L54.9 81.6H54.8V81.7H54.7H54.6H54.5V81.8V81.9V82H54.6L54.5 81.9H54.4V81.8H54.3L54.2 81.7V81.6H54.1L54 81.5L53.9 81.3H53.8H53.7H53.6H53.5L53.4 81.4H53.3H53.2V81.3H53.1V81.4V81.5V81.6H53.2V81.7L53.3 81.8H53.4V81.9H53.3V82H53.4V82.1V82.2V82.3V82.4V82.5V82.6V82.7V82.8L53.3 82.9V83H53.2H53.1H52.9L52.8 83.1L52.7 83.3V83.4L52.8 83.5L52.6 83.6H52.5V83.7L52.4 83.8L52.3 83.9H52.2H52.1L52 84L51.9 83.9V84H51.8V84.1H51.7V84.2H51.6V84.3H51.5V84.4H51.4V84.5L51.3 84.6V84.7H51.2V84.9H51.3V85L51.4 85.2H51.5V85.3L51.7 85.4V85.5V85.6V85.7V85.8V85.9H51.6V86H51.5L51.4 86.1L51.5 86.2V86.3L51.4 86.4V86.5V86.6H51.3L51.2 86.7V86.8H51.1V86.7H51H50.9H50.8V86.8V86.9V87V87.1V87.2V87.3L50.7 87.4V87.5V87.6V87.7H50.8V87.8H50.9L51 87.9L51.1 88V88.1H51V88.2L50.9 88.3L50.8 88.4L50.7 88.5V88.6H50.6V88.7L50.4 88.9V89V89.1H50.3L50.2 89.2V89.3V89.4V89.5L50.1 89.6L50.2 89.7V89.8H50.3V89.9L50.4 90.1H50.5V90.2V90.3V90.4V90.5H50.4H50.3V90.6V90.7L50.2 90.8V90.9L50.1 91V91.1H50V91.2H50.1H50.2V91.3V91.4H50.3V91.5V91.6V91.7H50.4H50.5L50.6 91.6L50.7 91.5L50.8 91.4L50.9 91.3V91.2L51 91.1H51.1H51.2L51.4 91.3H51.5L51.6 91.4L51.7 91.5V91.4H51.8L51.9 91.3V91.2H52V91.1H51.9L52 91V90.9V90.8H52.1V90.7V90.6H52.2V90.5V90.4L52.3 90.3V90.2V90.1V89.8L52.4 89.9H52.5H52.6H52.7L53 90H53.1L53.2 90.1H53.6V90.2H53.8H53.9H54H54.1H54.2H54.3H54.4L54.5 90.1H54.7H54.8L55 90H55.1H55.2H55.3H55.4V89.9V89.8L55.5 89.7H55.4V89.6V89.5H55.3L55.2 89.4H55.3V89.3L55.4 89.4H55.5H55.6V89.5H55.7V89.6V89.7H55.8V89.8V89.9V90H55.9H56H56.1V90.2L56.2 90.4V90.6V90.7V90.8V90.9V91H56.3V91.1L56.4 91.2V91.3V91.4L56.5 91.5V91.6L56.6 91.8L56.7 91.9L56.9 92.1L57.1 92.3L57.4 92.6L57.5 92.7L57.7 92.9H57.8V93H57.9V93.1H58L58.2 93.3H58.3L58.5 93.4L58.6 93.5H58.7H58.8L58.9 93.6L59.1 93.7H59.2L59.3 93.8L59.1 93.9H59.2H59.3H59.4V94V94.1H59.5L59.6 94.2H59.7L60 94.5L60.1 94.7L60.4 95L60.3 95.1L60.2 95.2L60.1 95.3L60 95.5V95.6L59.9 95.7L59.8 95.8L60.1 96.1V96.2V96.5V96.6V96.7H60.2V96.9V97L60.5 97.1H60.6H60.7L60.9 97.2V97.1L61 96.9V96.7H61.1H61.2H61.3H61.4H61.5H61.6H61.7V96.8H61.6V96.9H61.7H61.8V97V97.1L61.7 97.2V97.4L61.9 97.5L62 98V98.1V98.2V98.3H62.1L62.2 98.4L62.1 98.6H62V98.7V98.8L62.1 98.9V98.8H62.2H62.3H62.4H62.5H62.6V98.6L62.8 98.7H62.9V98.8H63H63.1L63.2 98.9H63.1V99L62.9 99.1L62.8 99.2H62.7V99.3L62.8 99.4L63 99.6L63.1 99.7H63.2L63.3 99.6H63.4H63.5V99.5L63.7 99.4H63.8V99.5H63.9L64 99.7H64.1V99.8H64.2L64.4 99.9L64.6 100H64.7H64.8H64.9L65 100.1H65.1V100.2L65 100.3V100.5V100.7V100.9V101V101.1V101.2H64.9V101.3H65V101.4H65.1H65.2L65.1 101.5V101.6L65 101.7L64.9 101.9H64.8V102V102.1H64.7V102.2H64.8H64.9H65H65.2H65.3H65.4H65.5H65.6V102.3H65.7V102.6V102.8V102.9L65.5 103.3V103.4V103.5H65.6L65.7 103.6L65.8 103.7V103.8H65.9H66V103.9V104V104.1V104.3V104.4L65.9 104.5V104.6L66 104.7L66.1 104.8H66.2H66.4L66.7 104.7H66.8H67.1V104.8H67.2V104.9V105H67.3V105.2H67.4V105.3L67.5 105.4L67.6 105.5V105.7L67.7 105.8L67.8 106.3V106.4V106.5V106.6L67.9 106.7V106.8V106.9V107.1V107.2V107.3V107.4V107.8L67.8 108V108.1H67.9H68V108.2V108.3H68.1L68.8 108H68.9L69.1 107.9L69.2 107.8L69.5 107.7H69.6L70.2 107.5L70.5 107.3L70.2 106.6H70.4L70.5 106.5H70.6H70.7L70.6 106.4V106.3H70.7V106.2H70.6V106.1L70.5 106H70.4L70.3 105.9H70.2V105.8H70.1V105.7V105.6H70V105.5V105.4V105.3H69.9V105.2V105.1H69.8V105L69.7 105.1V105V104.9H69.6V104.8V104.7V104.6V104.5H69.7V104.4H69.6H69.5V104.3H69.4H69.3L69.2 104.2V104.1V103.9V103.8V103.7H69.1V103.6H69V103.5H68.9V103.4L68.8 103.3H68.9V103.2H68.8L68.9 103.1V103H69H69.1H69.3H69.4H69.5H69.6H69.8H69.9H70H70.2H70.4H70.3V102.9H70.2L70.3 102.8H70.2V102.7H70.3V102.6H70.4V102.5H70.5V102.4V102.3V102.2H70.6V102.1H70.7H70.8L71.1 101.9H71V101.7L70.9 101.6V101.5L70.8 101.4V101.3H70.7V101.2V101.1L70.6 101V100.9H70.5V100.8H70.4V100.7H70.3V100.6V100.5H70.2V100.4H70.1V100.3V100.2H70V100.1L69.9 99.9H69.8V99.8V99.7V99.6V99.5H69.7V99.4V99.3V99.2H69.6V99.1L69.5 99V98.9H69.4V98.8V98.7H69.3V98.6V98.5H69.4H69.6L69.8 98.4L69.7 98.2H69.9V98.3H70V98.2V98V97.9L69.9 97.8L70 97.7H69.9H69.8H69.7V97.6H69.6L69.4 97.5V97.4H69.6V97.3V97.2L69.7 97.1V97V96.9V96.7H69.8L70 96.6H70.1L70.2 96.5H70.7V96.6V96.7V96.8V97H70.8H71H71.1L71.5 96.9H71.6H71.7H71.8L71.9 96.8V96.9H72L72.1 97V97.1H72.2V97.2L72.3 97.3H72.4H72.5H72.6H72.7V97.4H72.8H72.9V97.5H73H73.1H73.2V97.6V97.7H73.3L73.5 97.6H73.6L73.8 97.4L73.9 97.3V97.2H74.1V97L74 96.9V96.8V96.7H73.9V96.6V96.5L73.8 96.4V96.3H73.7L73.8 96.2H73.9V96.1H74H74.1V96V95.9V95.8H74V95.7V95.6V95.5V95.4V95.3L74.1 95.2V95.1L74.2 95H74.3H74.4H74.5V95.1H74.6L74.7 95.2L74.9 95.4L74.7 95.5L75.2 95.7L75.5 95.8L75.7 95.9L76 95.8H76.2V95.7L76.5 95.8H76.8L77.3 95.9V95.8H77.2V95.7V95.6V95.5V95.4V95.3L77.3 95.2H77.2L77.1 95.1V95H77.2H77.3V94.9L77.4 94.8V94.7V94.6H77.3V94.5H77.2V94.4V94.3V94.1V94L77.3 93.9H77.5L77.6 93.8H77.7L78 93.7L78.1 93.9L78.2 94H78.3V94.1H78.4H78.5H78.6H78.7H78.8V94.2H78.9H79H79.1H79.2V94.1H79.3V94H79.4L79.5 93.9V93.8V93.7V93.6L79.6 93.5H79.5L79.8 93.3V93.2H79.7L79.5 92.9H79.4H79.3H79.2L79.1 92.8L78.9 92.7V92.8L78.7 92.7L78.6 92.6L78.5 92.5L78.4 92.4V92.3H78.3V92.2H78.2L78.3 92.1L78.4 92L78.5 91.9H78.4L78.5 91.8L78.6 91.7V91.6V91.5L78.3 91.3V91.2L78.1 91L78 90.9H77.9H77.8L77.6 90.8L77.5 90.7L77.4 90.6L77.3 90.5H77.2V90.4L77.3 90.3V90.2L76.9 90L76.5 89.8H76.4V89.7L76.2 89.6V89.5L75.8 89.2L75.7 89.1V89H75.6L75.5 88.9H75.6H75.7H75.8L75.9 88.8H76L76.1 88.7V88.6H76V88.5H75.9L76 88.4L76.1 88.3L76 88.2L76.1 88.1H76V88H75.8L75.7 88.1H75.6H75.5L75.6 88L75.8 87.8L75.9 87.7L75.8 87.5L75.7 87.4V87.3H75.8V87.2V87.1L75.9 87V86.9L76 87H76.1H76.2H76.4V86.9L76.2 86.6L76.1 86.4V86.5L76 86.6V86.7H75.9V86.6L75.8 86.5V86.4V86.3H75.7L75.6 86.4H75.5V86.3V86.2L75.4 86.1V85.9L75.3 85.8V85.7H75.4L75.5 85.6H75.6V85.5H75.7H75.8H75.9V85.4V85.3V85.2H76L76.1 85.1H76.2L76.3 85V84.9H76.4V85H76.5V84.9V84.8V84.7L76.4 84.6H76.3V84.5H76.2V84.4L76.1 84.3V84.2H76.2V84.1H76.3H76.4H76.5V84.2H76.6V84.3L76.7 84.4V84.5H76.8V84.4V84.3V84.2V84.1L76.7 84H76.8V83.9H76.9H77V83.8H77.1L77.2 83.7H77.3V83.6H77.4H77.5L77.6 83.5H77.7L77.8 83.4H77.9H78H78.1L78.2 83.3H78.3H78.4V83.2H78.5H78.6L78.7 83.1L78.8 83H78.9H79L79.1 82.9H79.3L79.4 82.8H79.5L79.6 82.7L79.5 82.6V82.5V82.4V82.3V82.2V82.1V82H79.4V81.8V81.7V81.6V81.5V81.4V81.3L79.3 81.2V81.1H79.2V81V80.9V80.8H79.1L79.2 80.7V80.6V80.5H79.1V80.4H79H78.9V80.3H78.8H78.7L78.6 80.2H78.5L78.4 80.1H78.3V80H78.2L78.1 79.9V79.8H78V79.7L77.9 79.6V79.5H77.8H77.7V79.4L77.6 79.3V79.4H77.5L77.6 79.5H77.5H77.4H77.3V79.6H77.2H77.1H77L76.9 79.5V79.4V79.3H76.8V79.2V79.1V79H76.7H76.6H76.5H76.4H76.3H76.2H76.1H76H75.9L75.8 78.9L75.4 78.8L75.3 78.7H75.2H75.1V78.6H74.9L74.8 78.5H74.7H74.6H74.5L74.4 78.4H74.3V78.5V78.6L74.4 78.7V78.8ZM75.7 2.19998H75.8H75.9H76H76.2H76.3V2.29999H76.5H76.8H77H77.3H77.4H77.5H77.6H77.7V2.39999V2.59998V2.69998V2.79999V2.89999L77.6 2.99998V3.19998V3.29999V3.39999L77.7 3.49998L77.8 3.39999V3.49998H77.9V3.59998H77.7V3.49998H77.6V3.89999V4.09998V4.19998V4.29999L77.5 4.49998H77.3L76.9 4.39999H76.7V4.29999H76.5L76.1 4.19998H75.7L75.6 4.09998H75.5H75.4H75.3H75.2H75.1V3.99998H74.9H74.7L74.6 3.89999H74.3H74.2L74 3.79999H73.9H73.8H73.6L73.5 3.69998H73.4H73.3H73.2H73H72.9H72.8H72.6H72.5H72.4H72.3H72.2H72.1H71.9L71.7 3.79999L71.5 3.89999L71.3 3.99998V3.89999H71.2V3.79999L71.1 3.89999V3.79999L71 3.69998V3.59998L70.7 3.69998L70.5 3.89999H70.4L69.9 4.19998V4.29999H69.8H69.7H69.5H69.4L69.1 4.19998H68.9H68.8H68.7H68.6V4.49998H68.5L68.4 4.59998L68.3 4.69998L68.2 4.39999L68.1 4.29999H68.2L68.3 4.19998L68.2 4.09998V3.89999L68.1 3.79999H68V3.89999L68.1 4.09998V4.19998H68H67.9H67.6V3.69998L68 3.79999V3.49998H68.4V3.59998L68.5 3.79999V3.89999L68.6 3.99998V4.09998V4.19998H68.7H68.8H68.9L69.5 4.29999H69.7H69.8V4.19998H69.9L70.2 3.99998L70.6 3.79999L70.9 3.59998H71L71.4 3.29999H71.5H71.6L71.8 3.19998H71.9V3.09998V2.99998H72H72.1H72.4H72.6H72.7H72.8H72.9L73 3.09998H73.1H73.2H73.3H73.4H73.5V2.99998H73.6H73.7H73.8H73.9V2.89999V2.29999V2.09998V1.99998L73.8 1.39999V1.19998H73.9H74L74.3 1.29999L74.6 1.39999H74.8L74.9 1.49998H75H75.1H75.2V1.69998V1.79999V1.89999V2.09998V2.19998H75.5H75.6H75.7Z" fill="#6F9C76"/>
<path d="M55.1 86.9H55.2H55.3V87H55.4H55.5L55.7 86.9H55.8V86.8V86.7V86.6V86.5V86.4L55.5 86.3V86.1V86V85.9L55.4 86V85.9L55.3 85.8H55.2V85.9H55.1V86.1H55V86.2H54.9H54.8H54.7H54.6H54.5H54.4L54.2 86.1V86H54.1V86.1V86.3V86.4H54.2V86.5V86.6M55.1 86.9V86.8M55.1 86.9H55L55.1 87H55H54.9V86.9H54.8H54.7H54.6H54.5V86.8M54.5 86.8H54.4M54.5 86.8L54.3 86.7M54.3 86.7H54.2V86.6M54.3 86.7L54.2 86.6M54.3 86.7V86.6H54.2M77.3 4.49998L77.1 4.59998V4.79999L77.3 4.69998V4.59998V4.49998ZM77.3 4.49998H77.5L77.6 4.29999V4.19998V4.09998V3.89999V3.49998H77.7M77.3 4.49998L76.9 4.39999H76.7V4.29999H76.5L76.1 4.19998H75.7L75.6 4.09998H75.5H75.4H75.3H75.2H75.1V3.99998H74.9H74.7L74.6 3.89999H74.3H74.2L74 3.79999H73.9H73.8H73.6L73.5 3.69998H73.4H73.3H73.2H73H72.9H72.8H72.6H72.5H72.4H72.3H72.2H72.1H71.9L71.7 3.79999L71.5 3.89999L71.3 3.99998V3.89999H71.2V3.79999L71.1 3.89999V3.79999L71 3.69998V3.59998M77.1 58.3V58.2V58.1H77V58V57.9V57.8V57.7V57.6H77.1V57.5H77.2V57.4H77.3V57.3L77.2 56.7L77.1 56.6L77 56.5V56.4V56.3H76.9V56.2L76.8 56L77 55.8H76.9L76.8 55.7H76.7L76.6 55.6L76.5 55.5L76.2 55.4L76.1 55.3H76L75.9 55.2L75.8 55.1L75.7 55H75.6L75.2 54.8V54.5V54.3V54.2H75.1L75 54.1L74.8 54.2H74.7H74.5V54.1H74.4L74.3 54H74.2V53.9L74.1 53.8L73.2 53.7V53.5L72.6 53.6L72.4 53L72.3 52.8L72.2 52.7V52.6V52.5L72.1 52.4V52.3V52.2H72V52.1V52V51.9V51.7H71.9L71.8 51.4V51.2L71.7 51.1V51H71.8V50.9V50.8L71.7 50.7L71.5 50.2L71.3 49.5L70.6 48.7L70.7 48.1V47.8V47.7V47.6H70.8V47.4V47.3V47.2L70.9 47.1V47H70.8V46.9V46.8L70.7 46.5L70.5 45.9V45.8V45.6L69.6 45.1V45H69.5H69.3H68.8H68.6H68.5V44.8V44.5V44.4L68.4 43.8V43.6L66.7 43.7L63.3 44L63.4 43.7V43.5V43.2L63.3 42.7L63.1 42.4L63 42.1V41.9V41.8V41.7L63.1 41.5L63.4 41.2L63.5 41L63.6 40.8L63.7 40.6L63.8 40.3V40.1V39.9V39.8V39.7L63.7 39.6L63.3 39.3L63 39L62.8 38.8L62.6 38.6L62.5 38.5V38.4L62.6 38.2L62.8 38L63.1 37.8L63.3 37.7H63.5H63.8L63.9 37.6H64L64.1 37.4V37.2L64.2 36.9L64.1 36.7L64 36.4L63.9 36.2L63.7 36L63.4 35.7L63.3 35.5L63.1 35.2L63 35V34.8L62.9 34.5L62.8 34.3V34.1V33.5V32.7L62.9 32.5L63 32.1L63.1 32L63.2 31.8L63.4 31.6H63.5H63.6H63.8H63.9L64 31.7L64.2 31.8L64.4 31.9H64.6H64.8L65 31.8H65.1L65.2 31.7V31.6L65.3 31.5V31.3L65.2 31.2V31.1L65 31H64.9H64.7L64.6 31.1H64.4H64.3L64.2 31V30.9H64.1V30.8V30.7V30.6H64.2V30.5L64.3 30.4L64.4 30.3L64.6 30.2L64.7 30.1L64.8 30V29.9V29.8V29.7V29.6V29.5L64.7 29.4L64.6 29.2V29.1L64.5 29V28.8L64.4 28.7L64.3 28.6L64.2 28.5L64 28.4L63.8 28.2H63.7V28.1H63.6V28V27.9V27.8V27.6V27.5V27.4L63.7 27.3L63.8 27.2V27.1H63.9H64L64.1 27H64.2V26.9H64.4L64.5 26.8H64.6H64.7H64.8L65 26.9L65.1 27L65.2 27.1L65.3 27.2H65.4L65.6 27.3H65.7H65.8H66H66.1L66.2 27.2V27.1L66.3 27V26.9V26.8V26.7V26.6V26.5L66.2 26.4V26.3V26.2V26.1V26L66.1 25.9V26.2V26.3L65.9 26.8L65.3 26.9L64.9 26.1L64.4 25.5L63.7 25.1L63 24.9L62.3 25L61.5 24.7L60.4 23L59.7 22.3L58.9 22.1L57.4 22.2L56.7 21.8L56 21.2L54.5 19.2L54.1 18.4L54.2 18.3L54.6 16.9V16.6L54.7 16.5V16V15.1V14.5L54.5 14L54.2 13.4L53.6 12.8L51 11.6L50.3 10.8L48.4 8.19998L47 7.19998L45.6 6.79999L38.5 6.89999L37.4 7.29999L34.3 8.89999H33.7L32.9 8.39999L32.3 8.29999V8.39999L31.7 8.79999L31.2 9.79999L30.9 10.4L30.3 10.9L29.4 11.2L24.9 10.4L24.2 9.49998L23.8 8.29999L22.9 6.79999L22.1 6.19998L21 5.99998L19.8 6.19998L18.8 6.69998L18.2 7.19998L17.8 7.59998L17.2 8.39999L17.1 8.69998L16.3 9.59998L15.1 10.1L13.8 10.2H13.7L13.8 10.3L13.9 10.8V10.9L13.8 11V11.1V11.3H13.7L13.8 11.8L13.5 11.7L13.4 12L13.3 12.3V12.4L13.2 12.5V12.7V12.8L13.1 13V13.1L13 13.3V13.4L12.9 13.5L12.7 13.7V13.8L12.6 13.9H12.5L12.4 13.8H12.3H12.2H12L11.9 13.7H11.8L11.2 14.8H10.2L8 13.9L6.79999 14.3L5.79999 15.2V15.3V15.5H6L6.89999 15.3L7.5 15.2V15.6V16.5V17.4L7.39999 18V18.2V18.3L7.5 18.4V18.5V18.9L7.60001 19.4L7.70001 19.8V19.9L7.20001 20.9L6.70001 21.8L6.29999 22.4L6 22.8L5.89999 23.2L5.70001 23.5L5.5 23.7L5.39999 23.8L5.10001 23.9H5L4.89999 24H4.70001L4.60001 24.1H4.5V24H4.39999H4.29999H4.20001V23.9L4.29999 23.8L4.39999 23.6V23.4L4.29999 23.5V23.6H4.20001H4.10001H4L3.89999 23.7H3.79999H3.70001L3.39999 23.6H3.29999L3.20001 23.7V23.8V24H3.10001H3V23.9H2.89999V23.8H2.79999H2.70001L2.39999 24L2.20001 24.1L1.29999 24.4L1.10001 24.5L1.20001 24.9L1.29999 25.2V25.5L1.39999 25.8L1.60001 26.4V26.7V26.9L1.79999 27.3V27.4V27.5V27.7L1.89999 27.8V27.9V28L2 28.5L2.20001 29.5L2.29999 29.8L2.39999 30L2.60001 31V31.2V31.3L2.70001 31.4L2.79999 32L2.89999 32.4L3 32.8V32.9V33V33.1H3.10001V33.3V33.4L3.20001 33.5L3.29999 34.2L3.39999 34.6L3.60001 35.2L3.79999 35.5V35.6H3.89999H4L4.20001 35.7L4.29999 35.1V34.2V34.1V34V33.2V33.1H4.5L5.20001 32.9L5.39999 33.1L5.70001 33.2L5.89999 33.4L6 33.5L6.10001 33.6L6.39999 33.8L6.60001 33.9L6.79999 34.1L7.70001 34.7L7.79999 34.8L8.10001 35L8.39999 35.3H8.5H8.60001V35.4L9 35.6L9.10001 35.7L9.20001 35.8L9.29999 36L9.5 36.3L9.70001 36.7L10 37.2L10.1 37.5L10.5 38.1L10.7 38.5L10.8 38.6L10.9 38.7H11V38.8H11.1L11.2 38.9H11.3V39H11.4V39.1L11.5 39.2H11.6V39.3L11.7 39.4L11.8 39.5H11.9L12 39.6L12.1 39.7H12.2L12.3 39.8H12.4L12.5 39.9H12.6L12.7 40.1L12.9 40.2V40.3L13.2 40.6L13.3 40.7V40.8L13.4 40.9H13.5L12.2 42.6L12.1 42.7H12V42.8L11.8 43.1L11.6 43.3L11.7 43.4L11.4 43.9L11.2 44.2V44.3H11.1V44.5V44.6L11.2 44.7V44.8L11.3 45V45.1H11.2V45.2V45.3L11.1 45.4V45.5V45.6V45.9V46V46.3L11.2 46.7V46.8V46.9L11.3 47V47.1L11.6 47.4V47.5L11.2 47.3L10.9 47.2L10.8 47.1H10.7L10.3 46.9L10.1 46.8L10 46.7H9.89999L9.60001 46.8H9.20001L9.10001 46.9H9L8.5 47V47.3V47.7V48.3V48.5L8.39999 49.9L8.89999 50L9.39999 50.2H9.5L9.60001 50.1V50.2L9.79999 50.4L9.89999 50.5L10 50.6L10.2 50.8L10.4 50.9L10.7 51.3L10.9 51.5L11 51.6L11.2 51.8L11.3 51.9L11.4 52.2V52.3H11.5V52.4L11.6 52.6L11.4 53.5H11.5V53.6L11.7 53.9H11.8L11.9 54V54.1L12.1 54.4L12.2 54.5L12.3 54.6L12.9 54.8L13 54.9L13.1 55L13.2 55.2L13.4 55.3V55.4H13.5V55.5L13.7 55.7L13.8 55.9L13.9 56.3V56.5L13.8 56.6L13.6 57L13.4 57.5L13.3 57.6L13.2 57.9L13 58.2V58.3L12.9 58.4L12.8 58.7L12.7 58.8L13.1 59.1L13.9 59.6L14.3 59.9L14.4 59.8L14.6 59.4L15 59.5L15.1 60.1L15.2 60.4L15.3 60.7V60.8H14.8L14.6 60.7L14.4 60.6L14 60.5L13.7 60.4L13.2 60.3H13.1H13H12.9L12.3 60.8L12.4 60.9L12.6 61L12.4 61.2L12.7 61.6L12.8 61.7H12.9V61.8H13L13.2 62L13.3 62.1L13.4 62.2L13.6 62.3H13.7L13.8 62.2L13.9 62.4H14V62.5H13.9V62.6H13.8V62.7H13.7V62.8H13.6H13.5V62.9H13.4H13.3H13.2V63V63.1V63.2H13.3H13.4V63.3V63.4V63.5V63.6V63.7L13.3 63.8H13.2H13.1H13H12.9L12.8 63.7L12.7 63.8H12.5L12.3 63.9H12.1L11.7 63.8H11.6V64H11.8H11.9H12H12.1L12.2 64.1H12.3H12.4V64.2H12.3L12.4 64.3H12.5V64.2H12.6V64.3H12.7H12.8L12.9 64.4H13V64.5H13.1L13.2 64.4H13.3V64.3L13.4 64.2H13.5V64.1H13.6V64H13.7H13.8H13.9H14H14.1H14.2H14.3V63.9H14.4L14.5 63.8V63.7H14.6H14.7H14.8H14.9H15H15.1V63.8H15L15.1 63.9H15.2L15.3 64H15.4H15.5H15.6H15.7H15.8H15.9V64.1H16V64.2H16.1H16.2V64.1H16.3M77.1 58.3H77.2M77.1 58.3V58.4V58.5V58.6V58.7V58.8L77.2 58.9V59V59.1H77.3V59.2V59.3V59.4H77.2V59.5L77.1 59.6H77H76.9H76.8L76.7 59.7V59.8V59.9H76.8H76.9V60V60.1V60.2V60.3H77V60.4V60.5H76.9V60.6H76.8V60.7V60.8L76.6 60.9H76.5H76.4H76.3H76.2H76.1V60.8H76V60.7L75.9 60.6L75.8 60.5L75.6 60.2L75.3 60.4H75L75.1 60.8L75.2 61.1H75.3H75.4H75.5V61.2H75.6V61.3L75.7 61.4V61.5L75.6 61.6V61.7V61.8H75.7V61.9V62L75.6 62.1L75.5 62.2H75.6V62.3H75.7V62.4H75.8L75.9 62.5H75.8V62.6L75.7 62.7V62.8V62.9H75.6H75.5L75.4 63H75.3V63.1M75.3 63.1H75.4L75.3 63.2M75.3 63.1V63.2M75.3 63.1H75.2V63.2H75.3M75.3 63.2V63.3H75.4V63.4H75.3V63.5V63.6V63.7H75.4V63.8H75.3V63.9M75.3 63.9H75.4M75.3 63.9V64H75.4M75.4 64V64.1M75.4 64H75.5H75.6V63.9H75.7H75.8H75.9V63.8H76L76.1 63.7H76.2V63.8H76.3V63.9V64H76.4H76.5H76.6H76.7V64.1H76.8V64V63.9L76.9 63.8V63.7V63.5L77.2 63.6H77.3V63.7H77.4V63.8L77.6 63.9H77.8L78 64L78.1 64.1H78.2H78.3L78.4 64.2H78.5H78.6H78.7H78.8H78.9L79 64.3H79.1H79.2V64.4H79.3L79.4 64.5L79.5 64.6H79.6H79.7V64.7H79.8H79.9L80.1 64.8H80.3V64.7L80.4 64.6V64.5V64.4H80.5H80.6L80.7 64.3V64.2V64.1L80.6 64H80.7V63.9H80.8H80.9H81V63.8L81.1 63.7H81.3L81.5 63.5L81.7 63.4L82 63.3L82.2 63.6H82.1L81.4 64.1L81.2 64V64.1L81.1 64.2H81L80.9 64.4H80.8V64.5L80.7 64.6L80.6 64.7H80.5V64.8V64.9L80.4 65V65.1V65.2L80.6 65.3L80.5 65.4L79.8 65.2V65.8L80.1 65.9L80.2 66.2H80.4L81.7 66.1L82.2 66V65.9V65.5V65.4V65.3L82.3 65V64.7V64.4V64.3L82.5 64.2L83 63.9L83.1 64V64.1V64.2V64.3V64.4V64.5H83.2H83.3H83.4L83.7 64.6H83.8H84.2H84.3H84.4H84.5L84.7 64.7H85.2V64.8V64.9V65V65.1H85.3H85.4H85.6H85.7H85.8L85.9 65.2H86L86.1 65L86.2 64.7L86.7 64.8H87.1L87.3 64.9V64.8H87.7H87.8H87.9L88 64.7H88.1L89.2 64.5V64.6L89.3 64.7H89.4H89.7H89.8H89.9L90 64.8H90.1H90.2H90.3L90.5 64.7H90.6H90.8H91L91.3 64.6H91.4H91.7H92L92.1 64.4V64.1L92.3 63.3H92.4H92.5H92.8L93.1 63.4H93.4H93.5L93.7 63.5H94L94.5 63.7L94.9 63.8V64L94.8 64.3L94.7 64.7V64.8V65.2V65.8L94.9 65.9H95L95.1 66H95.2H95.4H95.7L95.9 66.3V66.4L96 66.5L96.1 66.7H96.4L96.7 67L96.9 67.1V67.3L96.8 67.6V67.7V67.8H98.1L98.2 68.9L98.1 69.5H98.2L98.7 69.3L98.9 69.2V69.6V69.7V69.8V70H99.3H99.4H99.5L99.6 70.1L99.5 70.4V70.5V70.7L99.6 71L99.7 71.7V72V72.1V72.2L99.8 72.3L99.3 72.7L98.8 73.2L98.7 73.4L98.6 74.1L98.8 74.7L99.1 74.9L99.5 75.2L99.9 75.5L100 75.6L99.5 76.1L99.8 76.5L100 76.6V76.7L99.7 77.2H98.9L98.5 77.1H98H97.6H96.9V77.9V78.1V78.5L97.4 78.6H98V79.8H98.8H98.9H99.1H99.3V79.9V80.1H100L100.5 80.2V80.3H100.6H100.7H100.8H100.9H101V80.6V80.7V80.8L101.2 81.2L101.5 81.1H101.6V81.2V81.3V81.5V81.6V81.7V81.8L101.5 81.9V82H101.4V82.1V82.2V82.3H101.5V82.4H101.6L101.7 82.5L101.8 82.6H101.9H102L102.2 82.7H102.3H102.4M102.4 82.7V82.8M102.4 82.7H102.5V82.8H102.6H102.7H102.8V82.9H102.9H103V83H103.1L103.2 82.9L103.3 83H103.4L103.5 83.1H103.6L104.1 83.2L104 83.3H104.1L104.4 83.4H104.5L104.7 83.5V83.7V84L104.8 84.6L105 85.1V85.2V85.3L105.1 85.5L105.2 85.6L105.6 84.9L105.7 84.8L105.8 84.7L106 84.4L106.1 84.3L106.2 84.1L106.5 83.5L106.6 83.3L106.9 83.2L107.2 83L107.3 83.2V83.3L107.4 83.4H107.5V83.5H107.6H107.7H107.9V83.6L108.1 83.7H108.3L108.5 83.8H108.6H108.7L108.8 83.9L109.1 84.2L109.4 84.3V84.4L109.7 84.9L109.8 85H109.7V85.1V85.2V85.4L110.3 85.5L111 85.6V85.4V85.2H111.3L111.4 85.1L111.5 84.8L112.1 84.6L112.7 84.4L113.4 84V83.8L113.7 83.9H113.8H113.9H114L114.3 83.8V84H114.5L114.6 83.9H114.7V83.3H115.1L115.2 83.5L115.5 83.4L115.9 83.9H116V84H116.1H116.2H116.3H116.4V84.1H116.5L116.6 84H116.7V84.1L117 84.2L117.2 83.9L117.3 83.8V83.5H117.8L118.1 83.6L118.5 83.7H118.7L119 83.8H119.2L119.6 83.9H119.7H119.8H119.9L120.1 84H120.3L120.8 83.7L120.9 83.6V83.4L121.1 83.2V83.1V83V81.5H121.4L121.8 81.4H121.9L122 81.6L122.3 81.8L122.4 81.7L122.5 81.6L122.7 81.2L122.8 81L123.1 80.7H123.9L124.6 80.8L125.2 80.9H125.8H125.9H126.8H127.5H127.7H127.8H128L127.9 80.3L127.8 79.9L127.7 79.5H127.8H127.9L128 79.4H128.1H128.2H128.3V78.8L128.2 78.5V78L128.1 77.9L128 77.3V77.2H128.1H128.2H128.3H128.4H128.5H128.6H128.7H128.8H128.9H129H129.1H129.2V77.3L129.3 77.2H129.4H129.5V76.6L129.4 76V75.9V75.8L131.2 75.5V75.4L131.9 75.2L132.3 76.2H132.5L133.1 77.1L133.3 77L133.8 77.4L134.2 77.6L134.6 77.8L134.8 77.9L134.9 78.1L135 78.2L135.1 78.4V78.6V78.8L135.2 79V79.1L135.3 79.2V79.3H135.4L135.5 79.4V79.5L135.7 79.6V79.7H135.8V79.8H135.9V79.9L136 80V80.1V80.2V80.3H136.1V80.4V80.5H136.2V80.6V80.7V80.8V80.9L136.3 81.1V81.2L136.5 81.5L136.6 81.7L136.7 82.1V82.2L137.7 82.5H137.8L138.6 82.4H139.5L141.3 82.3L142.1 82.4H142.2L142.1 82.7V83V83.2V83.3L141.6 83.8L142.2 84.7L141.3 86L139.6 86.6L139.3 86.7V86.6L139.2 86.5V86.1L139.1 86V85.9L139 86L138.9 85.9H138.8L138.7 86H138.6V86.1L138.3 86V85.9L138.2 86V86.1V86.2V86.3V86.5L138.3 86.6V86.7H138.2V86.8V86.9L138.1 87L137.9 86.9V86.8H137.8V86.6V86.5H137.7L137.6 86.6H137.5H137.4H137.3H137.2V86.7L137.1 86.8H137.2V86.9H137.3V87L137.4 87.1L137.5 87V86.9L137.6 87V87.1V87.2H137.7L137.8 87.1H137.9V87.2V87.3H137.8L137.7 87.4L137.6 87.5V87.6L137.5 87.7L137.6 88.2V88.3L137.9 88.4L138.7 88.6L139.6 88.8L140.1 88.9L140.2 89V89.1V89.3L140.3 89.7V89.9V90.3L140.4 90.7V90.8L140.9 91.2V91.3H141V91.9L141.1 92.4V92.5L141.2 92.7V92.8V92.9H141.3V93.4L141.4 93.5L141.8 93.8L142.4 93.4L142.5 93.3L142.8 93H142.9L143.1 92.8L143.2 92.7L143.8 92.2V92.3L144.1 92.6L143.2 93.8L142.8 94.2L143.2 94.7L143.1 94.9L143.2 95.2L142.8 95.6L143.3 95.8L143.6 96L143.8 95.8H143.9L144.2 95.6L144.3 95.3L144.9 95.1H145L145.4 95.2L145.6 95.3L145.9 95.4H146H146.1H146.6H146.7H146.8L147.1 96.1L146.5 96.8L146.1 97.2V97.3L146.2 97.6V97.7L146.3 97.9L146.5 98.2L146.6 98.5L146.4 99.2L146.2 99.7V99.8H146.1L145.7 100.1L145.5 100.2L145.7 100.5L146 101.1L145.8 101.2L145.6 101.4H145.5L145.4 101.5L145.1 101.7L144.9 101.9L144.6 102.1L143.9 102.5H143.8H143.7H143.6V102.6H143.5V102.7L143.3 102.8L143.5 102.9L144 103.2M144 103.2H144.1M144 103.2L143.8 103.3L144 103.4V103.6L143.8 104.3V104.5L143.5 105.5V105.7L143.7 105.8L143.8 105.9L144 106.1L143.8 106.3L144.2 106.6L144.9 107.1L144.4 107.8L143.8 107.7H143.5H143.3L143.1 108.1L142.9 108.4V108.5H142.8L142.5 109.1V109.2H142.4L142.3 109.5L142.2 109.6V109.7L142.1 109.8L142 110L141.9 110.2L141.8 110.3H141.5H141.3H141.2H141L140.8 110.1L140.7 110L140.5 109.9L140.4 109.7L140.3 109.6L140.1 109.4L139.9 109.1L139.7 108.9L139.3 109L139 109.1L138.6 109.3L138.5 109.6L138.6 109.7H138.7L139 109.8L138.9 109.9L138.8 110.1L138.7 110.2V110.3L138.5 110.4V110.5L138.4 110.6L138.3 110.9L138.2 111L138.1 111.1L138 111.4V111.5L137.9 111.7L137.8 111.8L137.7 111.9V112V112.1L137.6 112.2V112.4H137.5L137.2 113.2L136.6 113L136.4 112.9H136.3L136.2 112.8H136L135.8 112.7H135.7L135.6 112.6L135.7 112.8L135.8 113V113.2L135.9 113.4L136 113.6L136.2 114.1L136.3 114.4L136.5 114.2L136.8 114H136.9V114.1L137 114.2V114.3L137.1 114.4L137.2 114.5V114.6H137.3L137.4 114.8L137.5 114.9V115L137.7 115.3H137.6L137.5 115.4H137.4V115.5H137.3L137.2 115.6H137.1L137 115.7H136.9V115.8H136.8L136.4 116V116.1L136.2 116.2H136.1L135.9 116.3L135.8 116.4L135.7 116.5L135.4 116.6L135.3 116.7L134.8 117L134.7 117.1L134.5 117.2V117.4L134.4 118V118.1V118.2V118.3V118.4V118.6V118.8V119V119.2V119.3V119.4L134.3 119.7V120.2V120.3V120.4L134.2 120.6L134.4 120.7L134.7 120.5L135 120.4H135.2H135.3H135.5L135.9 120.5H136.1V120.6H136.3H136.5H136.6L137 120.7L137.3 120.8L137.6 120.9H137.8H137.9H138.1L138.3 121L138.2 121.1L138.1 121.4L138 121.8L137.9 122L137.6 121.8H137.5V121.7H137.4V121.6L137.2 121.7L137 121.8L136.6 122L136.3 122.2H136.2L135.9 122.4L135.7 122.5L135.5 122.6H135.4L135.3 122.7L135.1 122.8H134.8V122.9H134.7H134.6V123H134.5L134.4 123.1L134.3 123.2H134.2L134.3 123.5L134 123.6H133.9L134 123.7L134.1 123.8V123.9H134.2L134.3 124V124.1H134.4V124.4V124.6L134.5 124.9V125.6L134.6 125.9V126L134.7 126.1V126.2V126.3V126.4V126.5V126.6V126.7V126.8L134.8 126.9V127V127.1V127.2V127.3V127.4V127.5V127.6V127.7V127.8V128V128.1V128.2L134.7 128.3V128.4L134.6 128.5V128.6H134.5V128.7L134.4 128.8L134.2 129.1L134.1 129.3L134 129.5L133.9 129.2L133.8 129L133.6 128.9H133.5H133.4V128.8V128.6V128.3V128H133H132.4L132 127.9H131.5L130.8 127.8H130L129.6 127.7V128.1V128.2V128.3L129.5 128.5L129.3 128.8L129.1 129.2L129 129.4L128.7 130.1L128.6 130.3L128.5 130.4L128.4 130.5L128.2 130.7L128.1 130.8L127.9 130.9L127.8 131L127.6 131.2H127.5L127.4 131.4V131.6V131.9V132V132.1L127.5 132.4V132.9V133L127.6 133.4H127.5H127.2H127.1H126.5L126.4 133.5L126.2 133.9L125.9 134.4L125.3 135.5V135.6L125.2 135.7L125.1 135.9L124.9 136.3L124.7 136.5L124.6 136.6H124.7V136.7H124.5L124.4 136.8H124.3L124.1 136.7L123.7 136.6H123.5L122.9 136.4L122.5 136.3H122.4H122.3L122.2 136.2L122.1 136.3H122H121.9H121.8H121.6H121.5H121.2H121V136.2H120.9L120.1 136.3H120L119.5 136.4L119.6 135.4L119.7 134.9V134.7V134.5L119.6 134.3L119.5 134.1L119.4 133.9L119.3 133.8L119.2 133.7H119.3L119.4 133.6H119.5L119.4 133.1V132.9V132.4H119.2H118.7H118.4H117.9V132.6V132.7V132.8V133H117.8H117.7V133.3H117.4H117.3H117.2V133.5V133.7L117.1 133.9H117V134.2H116.9L116.8 134.4H116.7V134.6L116.6 134.9H116.4L116.3 135L116.2 134.9L116.1 135L116 134.8L115.9 134.6L115.8 134.7V134.8L115.6 134.9L115.5 134.8L115.4 134.9V135L115.1 135.1L115 135.2L114.8 135L114.6 135.2L114.5 135.3V135.4V135.5H114.6L114.7 135.6V135.7V135.9L114.6 136L114.4 136.1L114.3 136.2V136.3V136.4L114.2 136.5L114.5 136.9V137L114.4 137.1L114.3 137.2L114.2 137.3H114.1H113.9H113.8L113.7 137.1V137L113.6 136.8L113.5 136.3V136H113.3L113 136.2H112.8L112.6 136H112.5L112.4 135.8L112.3 135H111.9L111.8 134.7H110.7L110.5 134L110.3 133H110L109.8 132.1V131.8V131.6L109.9 131.2V130.8V130.7V130.5V130.3V130.2L110 130.1L110.3 129.6L110.4 129.5V129.3L110.3 129.2V129V128.9V128.6L110.4 128.2V128L110.7 127.4L110.9 127.3L111 127.2V127.1V127L110.9 126.8L110.8 126.7L110.5 126.3L110.2 126L109.8 125.8L109.6 125.7L109.4 125.9L108.8 125.7L108.1 125.5H107.9L107.1 125.7H106.9H106.8H106.6L106.5 125.8H106.4H105.9L105.4 125.7L105 125.6H104.7L104.2 125.7H104.1L103.8 126L103.6 126.2V126.4L103.4 126.9L103.6 127L104 126.6L104.4 127L104 127.4L103.5 128L103.4 128.1H103.3V128.2L103 128.6L103.4 128.4H103.6L103.7 128.2L104.2 127.8L105.3 128.4L106 128.9L106.2 129L105.9 129.2L105.5 129.4L105.4 129.9L106 130L106.6 130.7L107.5 132L107.7 132.3V132.4L107.5 132.7L107.4 133H107.2L107 133.2H106.9H106.7H106.5H106.4H106.3H106L105.6 133.3H105.5H105.4L105.3 133.4H105.2L104.6 133.5H104.5V133.7H104.4H104.3V133.8L103.6 134.1L103.2 134.3V134.4H103.1L102.7 134.9L102.5 135.2L102.4 135.3L102 135.9H101.9V136L101.7 136.1V136.2H101.6L101.5 136.1V136L101.4 135.9V135.8H101.3V135.7L101.2 135.6L101 135.5L99.4 136.4L99.1 136.6H99V136.7V136.8V136.9V137H99.1V137.1L99.2 137.2V137.3H99.3V137.4L99.4 137.5L99.5 137.8L99.7 138.2L99.6 138.4L99.4 138.7L99.1 139.3V139.4L98.9 139.7H98.8V139.8V139.9H98.9L98.8 140L98.7 140.2L98.6 140.4V140.5L98.3 141.1L98.2 141.4L98.1 141.5L98.4 141.8L99.1 142.3L99.4 142.6L99.2 143.2L99.1 143.6L99 143.8V143.9H99.1L99.2 144.1L99.1 144.2H99L99.1 144.5V144.6L99.2 144.7L99.3 144.9V145H99.4V145.1V145.2V145.3L99.5 145.5V145.7L99.6 145.8L99.7 146L99.5 146.1L99.4 146.2H99.3H99.2L98.9 147L98.8 147.4L98.7 147.8L98.6 147.9L98.4 148.4L98.8 148.6H98.9H99L99.1 148.7H99.2L99.3 148.9H99.4L99.5 149L99.4 149.1V149.2L99.3 149.4L99.2 149.6H99.1L98.9 149.5L99 149.3L98.8 149.2L98.6 149.4L98.7 149.5L98.5 149.7L98.4 149.8V149.9L98.5 150V150.1H98.6L98.7 150.4V150.5L98.5 150.9L98.2 151.3L98 151.6L97.7 152L97.4 152.5L97.1 153L97 153.1L96.9 153.3L96.8 153.4V153.5L96.6 153.7L96.5 153.9L96.4 154L96.3 154.1V154.2L96.2 154.4L96.1 154.5L96 154.7L95.7 155.3V155.4L95.6 155.5V155.6V155.7H95.5V155.8V155.9H95.4V156V156.1V156.2V156.3L95.3 156.4V156.5V156.6H95.2V156.7V156.8V156.9V157L95.1 157.1V157.2V157.3V157.4L95 157.6L95.4 157.7H95.5H95.6L95.8 157.8H95.9H96.1L96.2 157.9L96.1 158L96 158.1L95.9 158.2L95.8 158.3L95.7 158.4L95.5 158.6H95.6H95.7H95.8L95.9 158.7H96V158.8L96.1 158.9V159V159.1V159.2V159.3V159.4V159.5V159.6V159.7L96.2 159.8H96.1H96L95.9 159.7H95.8L95.7 159.6L95.6 159.9V160V160.1L95.5 160H95.4H95.3V159.9H95.2L95.1 159.8L94.9 159.6L94.8 159.5L94.6 159.4H94.5V159.5V159.6V159.7H94.4H94.3H94.2H94.1V159.6H94V159.7V159.8V159.9H93.9V160V160.1V160.2V160.3H93.8H93.7H93.6V160.4L93.5 160.5V160.6V160.7L93.4 160.8H93.5V160.9V161H93.6V161.1V161.2H93.5L93.6 161.3L93.7 161.4V161.5V161.6V161.7M93.7 161.7H93.8M93.7 161.7H93.6V161.8H93.5V161.9V162V162.1V162.2H93.6V162.3V162.4H93.5H93.4V162.5V162.6L93.3 162.7V162.8H93.2V162.9H93.3V163H93.4V163.1H93.3L93.2 163.2V163.3H93.1V163.4H93.2H93.3V163.5V163.6H93.2V163.7H93.3V163.8L93.4 163.7H93.5V163.8V163.9H93.4V164H93.3V163.9H93.2V164V164.1V164.2H93.3V164.3V164.4H93.2V164.5H93.1L93 164.4H92.9V164.5V164.6V164.7V164.8V164.9H92.8H92.7V165H92.6H92.5V165.1H92.4V165.2H92.3H92.2H92.1V165.3H92H91.9V165.4H91.8H91.7L91.6 165.5V165.6V165.7V165.9L91.4 165.8H91H90.9V165.9L90.8 166H90.7V166.1L90.5 166.2V166.5L90.6 166.6L90.8 167V167.1L90.7 167.2L90.8 167.4V167.5H90.7H90.6H90.5V167.4L90.4 167.3V167.2H90.3V167.1V167V166.9L90.2 166.7V166.6V166.5H90.1V166.4V166.3H90L89.9 166.4V166.5L89.5 167L89 167.6L88.9 167.7L88.8 167.9V168.2V168.3V168.4V168.7V169.1V169.5L88.7 169.6V169.7L88.5 169.8L88.4 169.9L88.3 170V170.1H88.2V170.2H88.1H88H87.9V170.1H87.8H87.7H87.5H87.3H87.2L86.7 170H86.3L86.2 170.1H86.1H86H85.9L85.6 170.2L85.3 170.3L85 170.4V170.5L84.5 170.7H84.6L84.9 171L85 171.2L85.3 171.3V171.4V171.6L85.2 171.7V171.9V172.2L85 172.3L84.9 172.4V172.6V172.8V172.9L85 173.1V173.2V173.3V173.4H84.9V173.5H84.8H84.7V173.4H84.6V173.3H84.5V173.4V173.5L84.4 173.6V173.7V173.8H84.3V173.9V174.1L84.2 174.2V174.3L84.1 174.5V174.6L84 174.7V174.9V175L83.9 175.1L83.3 174.8H83.2H83.1L82.8 174.7L82.4 174.9V175.1L82.2 175.3H82.1H82V175.4L81.9 175.5V175.6H81.6H81.5L81.4 175.5H81.3H81.1H80.9L80.5 175.6L80.4 175.5V175.6H80.3V175.7H80.2H80.1H80V175.6H79.9L79.8 175.5H79.7L79.6 175.4H79.4H79.2V175.5H79.1H78.7L78.5 175.4L78.4 175.5H78.3L78 175.8L77.7 176H77.6V176.1L77.3 176.2H77.2H77H76.9H76.7H76.6H76.5H76.4H76.3H76.2L75.9 176.1V176.2H75.8L75.7 176.4L75.6 176.5H75.5L75.4 176.6L75.3 176.8L74.9 177.1L74.8 177.2V177.1H74.7L74.5 176.9L74.4 176.8L74.2 176.6L73.8 176.8L73.6 176.6L73.4 176.5L73.1 176.2L72.8 175.8H72.7V175.7L72.5 175.6L72.4 175.5L72.3 175.4H72.2H72.1H71.9V175.3H71.8H71.7V175.4H71.6V175.5L71.5 175.4H71.4V175.3V175.2V175.1V175H71.2L71 175.1H70.9L70.6 175.2L70.3 175.3L70.2 175.2L70.1 175.1H70V175H69.9H69.8V174.9L69.6 174.8H69.5V174.7L69.4 174.6H69.2L69.1 174.5L69 174.4L68.9 174.3H68.8V174.2H68.7L68.2 174.9L67.8 175.4L67.6 175.7L67.5 175.8H67.4H67.3V175.7H67.2V175.6V175.5H67.1L67 175.4H66.9H66.8V175.5H66.7V175.6V175.7H66.6V175.8H66.5V175.9H66.4V176H66.3V176.1V176.2H66.2V176.3V176.4V176.5H66.1V176.6H66H65.9H65.8L65.7 176.7H65.6V176.8H65.5V176.9V177L65.6 177.1L65.5 177.2H65.4H65.3H65.2V177.5L64.7 177.3L64.4 177.4H64.3L64.1 177.5L63.9 177.2L63.5 176.8L63.2 176.4L63.1 176.2L62.9 176V175.9L62.5 175.4L62.2 174.9L62 174.6H61.9L61.8 174.7L61.7 174.8L61.6 174.9H61.5H61.4V175H61.3V175.1H61.2H61.1H61V175.2H60.9H60.8H60.7H60.6V175.3V175.4H60.5V175.5H60.4V175.6H60.3H60.2V176V176.1L60.3 176.2L60.4 176.8V176.9H60.3V177H60.2L60.1 177.1H60H59.9H59.8L59.6 177.2H59.5H59.3H59.2L59 177.3L59.2 178.7L59.3 179.1V179.3V179.4H59.2H59.1H59H58.8H58.7H58.5H58.4H58.3H58.2H58.1L58 180L57.9 180.4V180.7L57.8 181V181.3L57.7 181.8L57.6 181.9V182.2V182.5L57.5 182.8V182.9V183L57.4 183.1V183.3L57.3 183.7L57.2 184L57.1 184.4L57 184.6L56.8 184.5L56.9 184.4V184.3V184.2L57 184H56.8L56.5 183.9V183.8V183.7V183.6V183.5H56.6V183.4V183.3V183.2V183.1L56.3 183H56L55 182.8L54.8 182.7H54.6L54.3 182.6L53.7 182.5L53.4 182.4H53.3L53 182.3H52.9L52.5 182.2L52.4 182.1H52.3H52.2L51.8 182L51.3 181.9L51.1 181.8V182.1H51L50.9 182H50.8H50.7H50.6H50.5H50.4L50.3 181.9H50.2H50.1L50 182L49.7 181.8H49.3L48.7 181.7H48.5H48.1L47.7 181.6H47.6L47.7 181.1L47.8 180.8V180.7V180.6L47.9 180.3V180.1V179.8V179.4V179.3L48 178.6L48.1 178L48.2 177.4H47.9L47.1 177.5H47H46.9H46.6H46.3H46.1H46L45.6 177.6V177.3V177.2V177V176.9L45.5 177L45.3 177.1H45.2V177.2H45.1H45L44.9 177.6L44.8 178.2V178.4L44.7 178.6H44.6L44.5 178.7V178.8H44.4M44.4 178.8V178.9M44.4 178.8H44.3H44.2V178.9H44.1V179H43.9V178.9H43.8V179H43.7V179.1L43.6 179.2V179.3H43.5V179.4L43.6 179.5H43.7V179.6H43.8L43.9 179.7L44 179.8L44.1 179.9V180H44.2L44.1 180.1V180.2L44.2 180.3L44.3 180.5V180.6V180.7V180.8V180.9V181.1H44.2L44.1 181.2L44 181.3V181.4V181.5V181.6H43.9V181.7V181.8H43.8V181.9H43.7L43.6 181.8L43.5 181.7H43.4H43.3V181.6L43.1 181.5V181.4L43 181.3V181.2L42.9 181.1V181H42.8V180.9H42.7H42.6V180.8V180.7L42.5 180.6V180.5V180.4V180.3V180.2V180.1V180H42.4V179.9H42.3V179.8L42.2 179.7V179.6H42.3V179.5H42.4V179.4V179.3V179.2L42.3 179.1L42.4 179V178.9V178.8V178.7V178.5H42.3V178.4L42.2 178.3H42.1V178.2V178.1L42 177.9H41.9V177.8H41.8H41.7V177.7H41.6L40.4 177.4L39.8 177.2L39.7 177.1L39.4 177L39.1 177.4H39H38.9H38.8H38.7L38.6 177.5V177.6L38.5 177.9V178V178.1V178.2L38.4 178.5L38.3 178.4H38.2H38H37.9H37.7H37.6H37.4H37.3H37.2L37.1 178.5L36.8 178.7L36.6 178.8L36.5 178.9L36.4 179H36.3L36.1 179.1H36V179L35.9 178.9V178.8H35.8V178.7H35.7H35.6H35.5V178.8V178.9L35.4 179V179.1L35.3 179.2V179.3V179.4V179.5L35.4 179.7L35.5 179.9L35.6 180L35.7 180.1L35.8 180.4L35.9 180.5V180.6V180.7V180.8V181.1V181.4V181.6V182V182.4V182.5V182.7V182.8V182.9V183V183.1V183.2L35.8 183.3V183.4V183.5H35.7H35.6H35.5L35.2 183.6H35.1H35H34.9H34.8H34.7L34.6 183.7V183.8V183.9V184V184.1L34.5 184.2V184.3L34.3 184.6L34.1 184.9V185L34 185.1L33.6 185.4L33.3 185.7L33.4 185.9L33.5 186H33.4L33.5 186.1L33.2 186.3L32.7 186.7L32.9 187H32.7L32.4 187.2L32.1 187.3H32H31.9V187.4V187.5L32 187.6L32.1 187.7V187.8H32.2V187.9V188V188.1V188.2V188.4H32.1H31.8L31.6 188.3H31.5H31.2H31L30.9 188.2L30.7 188.3L30.5 188.4L30.2 188.5L29.9 188.6V188.7L29.6 188.8H29.5L29.4 188.9H29.3L29 189L28.9 188.8V188.7V188.6L28.8 188.5V188.4H28.7H28.6L28.4 188.5H28.3L27.4 188.6L27.1 188.7L26.7 188.8L26 188.9L25.9 188.8L25.7 188.5L25.5 188.2L25.3 188V187.9L25.2 187.8L25 187.5L24.9 187.4L24.8 187.3L24.5 187L24.3 186.7H24.4H24.5L24.6 186.6H24.8L24.9 186.5H25H25.1L25 186.2V186.1L25.1 186H25.2V185.9V185.8V185.7H25.3L25.2 185.6L25.3 185.5M25.3 185.5V185.6L25.4 185.5H25.5H25.6V185.4H25.7V185.3L25.3 185.5ZM25.3 185.5L25.2 185.4H25.1H25V185.3H24.9V185.2H24.8V185.1H24.7L24.6 185H24.5H24.4L24.3 184.9H24.2L24 184.8L23.8 184.6V184.5V184.4V184.3V184.2V184.1V184H23.9H24L24.1 183.9L23.9 183.5L23.5 182.5H23.4L23.1 182.6L23 182.7L22.9 182.8H22.8V182.9L22.7 183V183.1V183.2L22.6 183.3V183.4V183.5V183.6V183.7V183.9V184V184.1L22.5 184.2V184.4L22.4 184.5L22.2 184.3L21.3 183.7L21.2 183.6L21.1 183.5H21L20.9 183.6H20.8L20.7 183.7H20.5L20.4 183.8H20.3H20.2H20.1H20H19.9V183.7H19.8V183.6L19.7 183.5V183.4L19.6 183.3H19.5V183.2L19.4 183.1H19.3V183V182.9H19.2V182.8H19.1L19 182.7H18.9L18.8 182.6L18.7 182.5V182.4L18.6 182.3L18.7 182.1L18.8 181.9L18.9 181.7L19 181.6H18.9H18.8H18.7L18.6 181.5V181.4H18.7V181.3H18.8L18.9 181.2V181.1V181H18.8V180.9V180.8H18.7L18.8 180.7H18.7V180.6V180.5H18.6V180.4H18.5L18.4 180.3V180.2V180.1V180V179.9L18.3 179.8V179.7V179.6H18.4V179.5H18.5M18.5 179.5V179.6M18.5 179.5H18.6H18.7V179.4V179.3L18.9 179.2L18.5 178.9L18.1 178.6L17.6 178.2H17.4L17 177.9H16.9H16.8L16.7 177.8H16.6H16.5L16.4 177.9V178L16.3 178.1H16.2V178H16.1H16V177.9H15.9H15.8H15.7H15.6L15.5 178V177.9H15.4H15.2L14.9 177.8H14.6V177.7V177.6H14.5V177.5L14.4 177.4L14.3 177.3L14.2 177.2V177.1V177L14 176.8V176.7V176.6V176.5L14.1 176.4L14 176.3V176V175.9V175.8V175.7V175.6L13.9 175.5V175.4V175.3V175.2V175.1V175V174.9L13.8 174.8L13.7 174.7L13.6 174.6L13.5 174.5L13.3 174.3H13.2H13.1L13 174.2L12.9 173.8V173.6L13 173.3V173.2L13.1 173H13.2V172.9V172.7L13.1 172.2L13.7 172L14.1 171.9L14.6 171.8H14.7L14.8 171.7H14.9L15 171.8L15.1 171.6L15.2 171.4L15.5 171.2L15.9 170.9V170.8H16L15.8 170.5H15.9L16.1 170.2L16.4 170V169.9H16.5L16.7 169.7V169.6L16.6 169.5L16.5 169.3L16.7 169.2L16.8 169.1L16.9 169L17 168.9L17.6 168.5V168.4L17.5 168.1V168L17.4 167.9V167.8V167.7H17.3L16.8 167.5L16.6 167.4L16.4 167.3L16.3 167.2L16.1 167.1V167L16 166.9H15.9L15.7 166.6L15.5 166.2L15.3 165.8L15.1 165.5V165.4L15 165.3H15.1V165.2V165.1H15.2H15.3M15.3 165.1V165.2M15.3 165.1H15.4L15.5 165V164.9L15.6 164.8V164.7M15.6 164.7H15.5M15.6 164.7V164.6V164.5H15.7V164.4H15.8V164.3H15.9H16V164.4H16.1M16.1 164.4V164.3M16.1 164.4H16.2V164.3H16.3H16.4H16.5V164.4H16.6H16.7L16.8 164.5H16.9L17 164.6H17.1V164.5V164.4V164.1H17.2V163.8L17.1 163.6H16.9H16.7H16.6L16.5 163.7L16.4 163.9V163.8H16.3L16.2 163.6L15.6 162.8L15.5 162.7H15.4L15.3 162.6H15L14.9 162.5H14.8L14.9 162.3V162L15 161.9V161.6L15.1 161.7H15.2V161.6L15.1 161.4V161.3V161.2H14.9H14.8V161.1L14.7 160.9V160.8V160.7L14.6 160.6V160.5V160.4L14.5 160.2V160V159.8V159.7V159.5H14.4V159.3V159.2L14.3 159.1L14.2 159V158.9L14.1 158.8L14 158.7V158.6L13.9 158.4H13.8L13.7 158.2L13.6 158L13.5 157.9V157.8L13.4 157.7L13.3 157.6L13.2 157.4L13.1 157.2L12.8 156.8L13 156.7L13.1 156.6V156.5L13 156.4H12.9L12.7 156.3L12.8 156.2L12.9 156.1L13 155.9L13.2 155.7L13.3 155.5L13.4 155.4V155.2L13.3 155V154.9V154.8L13.6 154.6L13.8 154.5L13.9 154.4V154.3H14V154.2L14.2 153.8L14.3 153.9H14.5L14.6 153.7V153.5L14.4 153.4L14.3 153.3H14.1L14 153.2H13.9V153.1V152.9V152.8H13.8L13.7 152.7H13.5L13.1 152.5L13.2 152.2L13.3 152L13.4 151.8L13.5 151.4L12.3 151V150.2H12.4V150.1V150V149.9V149.8V149.6V149.5V148.4V148.1V148V147.9H12.5V147.8H12.6H12.7V147.7V147.6V147.5H12.6H12.5H12.4H12.3L12.2 147.6H12.1H12H11.8H11.7H11.5L10.1 147.5L10 147.2L9.60001 146.3L10.1 146.1L10.6 144.7L10.9 143.7L10.8 143.1L10.7 143V142.9V142.8V142.7L10.6 142.6V142.5V142.4L10.5 142.3V142.1L10.4 142V141.9L10.3 141.8V141.7L10.2 141.6L10.1 141.4V141.3V141.2L10 141.1V141L9.89999 140.9V140.8L9.79999 140.5V140.4V140.3H9.89999L10.3 140.6L10.9 140L11 139.9L11.1 139.8H11.2L11.3 139.6L11.5 139.9L11.6 140L11.7 140.2V140.3L11.9 140.5V140.6H12L12.3 140.4L12.2 140.3L12.4 140.1L12.8 139.9L12.7 139.7L12.6 139.6L12.7 139.5V139.4L12.6 139.2V139.1L12.4 138.8L12.6 138.6L12.8 138.5V138.4H12.9L13.1 138.2L13.2 138.1L13.3 138L13.4 138.1M13.4 138.1H13.3M13.4 138.1V138.2H13.5V138.3H13.6H13.7V138.4H13.8L13.9 138.5H14L14.1 138.6L14.2 138.7V138.8H14.3L14.4 138.9H14.5V139H14.6H14.7L14.8 139.1L14.9 139.2L15 139.3L15.1 139.1V139L15.2 138.8L15.4 138.6L15.3 138.5L15.2 138.2V138H15.3L15.5 137.9H15.6H15.7H15.8H15.9H16H16.2H16.3H16.4L16.6 137.8V137.7V137.6H16.7H16.8L16.9 137.5H17H17.1H17.2H17.3H17.4H17.5H17.6L17.8 137.3V137.2L17.9 137L17.8 136.8V136.7L18 136.6L18.1 136.4L18.6 136.6L18.9 136.7H19V136.6L19.1 136.5V136.4H19.2V136.3M19.2 136.3H19.3M19.2 136.3V136.2V136.1L19.3 136L19.4 135.8H19.5M19.5 135.8V135.7M19.5 135.8H19.6L19.7 135.7L19.8 135.6V135.5L20 135.3H20.1V135.4H20.2V135.5H20.3H20.4V135.6H20.5V135.7H20.6V135.6L20.7 135.5H20.8L21 135.2L21.2 135M21.2 135H21.3M21.2 135V134.9L20.9 134.8L20.4 134.7V134.6L20.3 134.7H20.2H20.1H20H19.9H19.8H19.7H19.6V134.6H19.5V134.5V134.4H19.4V134.3V134.2H19.3V134.1V134H19.4H19.5L19.6 134.1V133.9L19.7 133.8V133.7L19.8 133.6V133.5H19.9V133.4L20 133.2L20.1 133.1V133H20.2H20.3V132.9H20.4H20.5V132.8H20.6L20.7 132.7L21.2 132H21.3L21.8 131.7L22.6 131.3L23.3 130.9L24.3 130.4H24.4L24.2 129.7L24.7 129.4V129.2L24.6 129.1V129H24.5V128.9H24.4V128.8V128.7L24.3 128.6V128.5H24.2V128.4H24.1V128.3M24.1 128.3H24M24.1 128.3V128.2H24.2V128.1H24.3H24.4V128H24.5H24.6L24.5 127.8L24.4 127.4L23.7 127.6L23.6 127.4L23.5 127.3L23.7 127V126.9L23.8 126.7H23.7V126.6H23.6V126.5H23.5L23.4 126.4H23.3V126.3L23.2 126.2L23.1 126.1L23 126L22.9 125.9L22.8 125.8V125.7L22.7 125.6V125.5V125.4L22.6 125.3H22.5V125.2V125.1V125H22.6V124.9H22.7V124.8M22.7 124.8H22.8H22.9V124.7V124.6H22.8V124.7H22.7V124.8ZM22.7 124.8H22.6V124.7H22.5V124.6V124.5V124.4H22.4H22.3V124.3H22.2V124.2V124.1H22.1V124V123.9H22V123.8V123.7V123.6L21.9 123.5H22V123.4V123.3H21.9V123.2V123.1V123V122.9L21.8 122.8L21.5 122.6V122.5H21.6L21.9 122.3L22.1 122.2L22.3 122H22.4L22.5 121.8H22.6V121.7H22.7V121.6V121.3V121L22.8 120.7V120.6V120.5V120.4V120.3V120.2V120V119.9V119.8V119.7L22.4 119.2L22 118.7L21.9 118.6L21.3 117.9L21.1 117.6L20.9 117.5L20.8 117.3L20.7 117.2L20.6 117.1L20.5 117V116.9H20.4L20.3 116.8L20.2 116.7H20.3V116.6H20.4V116.5H20.5V116.4H20.6V116.5H20.7V116.4H20.8H20.9H21H21.1V116.3H21.2H21.3V116.2H21.4V116.1L21.5 116V115.9H21.4H21.2H21.1H21H20.9H20.8V115.8H20.7L20.8 115.6V115.5V115.4V115.2H20.9V115.1V115H21V114.9H21.1V114.8H21.2V114.7H21.3L22.3 113.8L22.4 113.5L22.5 113.4L22.6 113.1V113V112.9H22.5H22.4V112.8H22.3H22.2L22.1 112.7H22H21.9V112.6H21.8L21.7 112.5L21.6 112.4L21.5 112.3L21.4 112.2L21.3 112.1V112L21.2 111.9L21.1 111.8H21L20.9 111.7L20.8 111.6H20.7H20.6H20.5L20.4 111.5V111.4L20.3 111.3V111.2L20.2 111.1L20.1 111V110.9L20.2 110.8H20.3V110.7V110.6H20.4V110.5V110.4H20.5H20.6H20.7V110.3L20.9 110.1V109.9H21V109.8V109.7H21.1V109.6H21.2V109.5L21.4 109.3L21.5 109.2L21.6 109.1V109L21.7 108.9V108.8H21.8V108.7L21.9 108.6V108.5V108.4L22 108.2L22.1 108.1V108V107.9V107.6V107.5H22.2V107.4V107.3H22.3V107.2H22.4V107.1H22.5H22.6H22.7H22.8V107H22.9H23V106.9V106.8V106.7H22.9L22.8 106.6H22.7V106.5H22.6V106.4L22.5 106.3L22.4 106.2V106.1L22.3 106L22.2 105.9V105.8V105.7L22.1 105.6V105.5V105.4V105.3V105.2L22 105.1V105L21.8 105.1L21.7 104.7H21.8L21.5 104.5L21.4 104.4L21.2 104.2L21.5 104.1H21.6V104L21.4 103.7L21.2 103.5H21.3V103.4H21.4L21.6 103.2H21.7V103.3H21.8V103.4L21.9 103.5V103.6L22 103.5L22.1 103.4V103.3H22.2V103.2L22.4 103.1V103V102.9V102.7H22L21.8 102.6V102.5V102.4V102.1V102L21.7 101.8V101.7L21.8 101.5L21.9 101.1V100.9H22V100.7V100.6H22.3L22.4 100.7H22.5V100.3V100L22.6 99.9V99.8V99.7V99.6V99.5L22.4 99.6L22 99.8H21.8H21.7H21.6H21.5V99.7H21.4H21.3L21.1 99.6L20.9 99.5H20.8H20.7H20.6H20.5H20.4L20.3 99.6L20.2 99.5L19.9 99.4L19.6 99.3L19.3 99.2L19.2 99.1L19.1 98.9L19 98.8L18.9 98.5L18.8 98.4H18.7L18.6 98.3L18.5 98.2L18.6 98.1L18.7 98H18.8V97.9H18.9V97.8H19H19.1V97.7H19V97.6H19.1V97.5H19.2V97.4V97.3H19.3V97.2H19.4V97.1H19.5H19.6V97L19.7 96.9V96.8V96.7V96.5V96.4V96.3V96.2V96.1V96H19.6L19.7 95.9V95.8L19.5 95.7L19 96.3L18.9 96.2L18.8 96.3L18.7 96.1L18.6 96L18.5 95.9L18.4 95.8V95.7H18.3L18.1 95.6H18H17.9H17.8H17.7H17.3L17.4 95.4V95.1L17.3 94.9V94.7V94.6L17.2 94.5V94.4V94.3V94.2L17.3 94V93.9L17.4 93.5L17.1 93.2L17 93.1H16.9V93V92.9L16.6 92.5L16.2 92.1L15.9 91.8H15.7H15.6L15.3 91.9L14.8 92H14.7L14.3 92.1H14H13.9L13.1 92.3H12.9L12.8 92.4L11.9 92.5V92.6V92.9V93.1V93.2V93.3H11.7H11.4L10.9 93.4H10.6V93.5L10.3 93L10.1 92.6L10 92.3V92.2V92.1L10.1 92H10.3L10.4 91.9L10.5 92H10.6L10.8 92.1L11.1 92.3H11.2H11.3L11.4 92.2V92V91.9H11.6L11.7 92H11.9L12 91.8H12.1V91.7L12.2 91.6V91.5V91.4L12.3 91.3V91.2L12.4 91.1H12.5V91L12.6 90.9L12.7 90.8L12.8 90.5V90.4V90.3V90.2V90V89.8V89.7L12.7 89.6H12.6H12.5H12.4H12.3H12.2H12.1H12H11.9H11.8V89.7H11.7V89.6V89.5H11H10.9H10.7H10.6H10.5H10.4L10.2 89.4V89.2L10.3 89.1L10.4 88.7L10.6 88.2V88.1H10.7V88M10.7 88V87.9M10.7 88H10.8V88.1L11 88.3L11.2 88.4L11.3 88.5L11.5 88.6H11.6H11.7V88.7H11.8V88.8H11.9H12V88.9L12.1 88.8L12.2 88.7L12.4 88.6L12.6 88.5L12.8 88.3L12.9 88.2L13 88.3H13.1L13.2 88.2L13.3 88.1L13.4 88V87.9L13.3 87.7L13.2 87.3L13.1 87.1L13 86.9L13.3 86.6L13.2 86.3L13.1 86.1L13 86V85.7H13.2V85.6H13.1V85.5H13H12.9H12.8H12.7V85.4H12.6L12.5 85.3H12.4L12.3 85.2H12.2V85.1H12.1V85L12 84.9H11.9H11.8L11.7 84.8H11.6H11.5V84.7H11.4L11.3 84.6H11.2L11.1 84.5H11V84.4H10.9V84.3V84.2V84.1H11V84H11.1V83.9V83.8V83.7M11.1 83.7H11.2V83.6M11.1 83.7L11.2 83.6M11.1 83.7V83.6H11.2M11.2 83.6V83.5M11.2 83.5H11.1M11.2 83.5V83.4H11.1V83.3H11L10.9 83.2V83.1V83L10.8 82.9V82.8V82.7V82.6V82.5H10.9H11.1H11.2H11.3H11.7H11.8H11.9H12V82.6H12.1L12.2 82.7L12.3 82.6V82.5L12.4 82.3L12.5 82.2V82.1L12.6 82H12.7L12.8 81.9H12.9L13 81.8V81.7V81.6V81.5V81.4L12.9 81.2L12.8 81V80.9V80.8V80.6V80.5V80.4V80.3H12.9L13 80.1V80L13.1 79.9V79.8L13 79.7L12.9 79.6H12.8V79.5V79.4V79.2V78.9V78.7V78.6V78.5L12.7 78.4V78.3H12.6V78.2L12.5 78.1V78L12.2 77.9L12.1 77.8V77.7L12 77.6H11.9V77.5H11.8V77.4V77.2H11.7L11.6 77.1V77H11.5L11.3 76.9H11.2L11.1 76.8H11H10.9V76.7H10.8L10.7 76.6V76.5L10.6 76.4L10.3 76.2L10.2 76.1H10.1V76L10.9 75.7L11.5 75.5L11.4 75.4L11 75.1L11.5 74.6L11.6 74.5L11.7 74.4H11.8L11.9 74.2L12 74.1L12.1 74L12 73.9L11.9 73.8L11.7 73.5V73.4M11.7 73.4H11.8M11.7 73.4V73.3H11.8V73.2M11.8 73.2H11.7M11.8 73.2H11.9M11.9 73.2V73.1M11.9 73.2H12V73.1V73H12.1M12.1 73V73.1M12.1 73H12.2V72.9H12.1V72.8H12.2V72.7M12.2 72.7H12.1M12.2 72.7H12.3V72.8H12.4M12.4 72.8V72.7M12.4 72.8H12.5M12.5 72.8V72.7H12.6V72.8M12.5 72.8H12.6M12.5 72.8V72.9M12.6 72.8V72.9M12.5 72.9V73H12.6V72.9M12.5 72.9H12.6M12.6 72.9H12.7H12.8V72.8H12.9V72.9L13 73V73.1H13.1H13.2H13.3V73H13.4H13.5V72.9H13.6H13.7H13.8L13.9 72.8H14H14.1V72.7H14.2H14.3V72.6H14.4V72.5V72.4M14.4 72.4H14.5L14.4 72.3V72.4ZM14.4 72.4H14.3M14.3 72.4V72.5H14.2V72.4H14.3ZM14.3 72.4V72.3V72.2H14.4V72.1V72H14.3V71.9H14.4V71.8H14.3V71.7V71.6H14.2L14.3 71.5L14.4 71.4H14.5H14.6V71.3H14.7V71.2H14.8L14.9 71.3V71.2V71.1V71M14.9 71H15V70.9M14.9 71V70.9M15 70.9H14.9M15 70.9V70.8V70.7V70.6M14.9 70.9V70.8M15 70.6V70.5M15 70.6H15.1V70.7H15.2V70.6V70.5H15.3V70.4V70.3H15.4H15.5V70.4H15.6V70.3H15.7H15.8H15.9H16H16.1M16.1 70.3V70.2M16.1 70.3H16.2V70.2H16.3V70.1V70V69.9H16.4M16.4 69.9V69.8M16.4 69.9H16.5H16.6V69.8H16.7V69.7H16.8V69.6V69.5L16.9 69.4H17V69.3L17.1 69.2V69.1L17.2 69V68.9L17.3 68.8V68.7V68.6V68.5L17.4 68.4V68.3V68.2V68.1H17.5V68V67.9H17.6V67.8V67.7H17.7V67.6V67.5H17.8V67.4L17.7 67.3V67.2H17.6L17.5 67.3V67.4H17.6V67.5H17.5H17.4V67.4V67.3V67.2V67.1H17.3V67L17.2 66.9V66.8V66.7H17.1H17V66.6H16.9H16.8V66.5V66.4V66.3V66.2H16.9V66.1V66H17V65.9L16.9 65.8H16.8M16.8 65.8V65.9M16.8 65.8L16.7 65.7V65.6V65.5H16.6V65.4H16.7L16.6 65.3V65.2V65.1V65H16.5M16.5 65V65.1M16.5 65V64.9V64.8H16.4H16.3H16.2V64.7H16.3V64.6L16.4 64.5H16.3V64.4H16.4H16.5V64.3V64.2H16.4V64.3H16.3V64.2V64.1M16.3 64.1H16.4V64H16.3V64.1ZM74.4 78.8H74.5M74.4 78.8V78.9V79H74.3V79.1V79.2L74.2 79.3L74.1 79.4L74 79.6L73.9 79.7V79.8L74 80.1V80.2V80.7V80.9L74.1 81.1H73.9H73.8H73.7L73.3 81.2V81.1V81V80.9V80.8H73.2L73.1 80.9M74.4 78.8V78.7L74.3 78.6V78.5V78.4H74.4L74.5 78.5H74.6H74.7H74.8L74.9 78.6H75.1V78.7H75.2H75.3L75.4 78.8L75.8 78.9L75.9 79H76H76.1H76.2H76.3H76.4H76.5H76.6H76.7H76.8V79.1V79.2V79.3H76.9V79.4V79.5L77 79.6H77.1H77.2H77.3V79.5H77.4H77.5H77.6L77.5 79.4H77.6V79.3L77.7 79.4V79.5H77.8H77.9V79.6L78 79.7V79.8H78.1V79.9L78.2 80H78.3V80.1H78.4L78.5 80.2H78.6L78.7 80.3H78.8H78.9V80.4H79H79.1V80.5H79.2V80.6V80.7L79.1 80.8H79.2V80.9V81V81.1H79.3V81.2L79.4 81.3V81.4V81.5V81.6V81.7V81.8V82H79.5V82.1V82.2V82.3V82.4V82.5V82.6L79.6 82.7L79.5 82.8H79.4L79.3 82.9H79.1L79 83H78.9H78.8L78.7 83.1L78.6 83.2H78.5H78.4V83.3H78.3H78.2L78.1 83.4H78H77.9H77.8L77.7 83.5H77.6L77.5 83.6H77.4H77.3V83.7H77.2L77.1 83.8H77V83.9H76.9H76.8V84H76.7L76.8 84.1V84.2V84.3V84.4V84.5H76.7V84.4L76.6 84.3V84.2H76.5V84.1H76.4H76.3H76.2V84.2H76.1V84.3L76.2 84.4V84.5H76.3V84.6H76.4L76.5 84.7V84.8V84.9V85H76.4V84.9H76.3V85L76.2 85.1H76.1L76 85.2H75.9V85.3V85.4V85.5H75.8H75.7H75.6V85.6H75.5L75.4 85.7H75.3V85.8L75.4 85.9V86.1L75.5 86.2V86.3V86.4H75.6L75.7 86.3H75.8V86.4V86.5L75.9 86.6V86.7H76V86.6L76.1 86.5V86.4L76.2 86.6L76.4 86.9V87H76.2H76.1H76L75.9 86.9V87L75.8 87.1V87.2V87.3H75.7V87.4L75.8 87.5L75.9 87.7L75.8 87.8L75.6 88L75.5 88.1H75.6H75.7L75.8 88H76V88.1H76.1L76 88.2L76.1 88.3L76 88.4L75.9 88.5H76V88.6H76.1V88.7L76 88.8H75.9L75.8 88.9H75.7H75.6H75.5L75.6 89H75.7V89.1L75.8 89.2L76.2 89.5V89.6L76.4 89.7V89.8H76.5L76.9 90L77.3 90.2V90.3L77.2 90.4V90.5H77.3L77.4 90.6L77.5 90.7L77.6 90.8L77.8 90.9H77.9H78L78.1 91L78.3 91.2V91.3L78.6 91.5V91.6V91.7L78.5 91.8L78.4 91.9H78.5L78.4 92L78.3 92.1L78.2 92.2H78.3V92.3H78.4V92.4L78.5 92.5L78.6 92.6L78.7 92.7L78.9 92.8V92.7L79.1 92.8L79.2 92.9H79.3H79.4H79.5L79.7 93.2H79.8V93.3L79.5 93.5H79.6L79.5 93.6V93.7V93.8V93.9L79.4 94M73.1 80.9V80.8M73.1 80.9H73L72.9 81H72.8L72.7 81.1H72.6L72.5 81.2H72.4V81.3H72.3H72.2L72.1 81.4H72H71.9H71.8L71.7 81.5H71.6V81.6L71.5 81.7V81.8V81.9V82H71.4V82.1V82.2L71.3 82.3L71.2 82.4V82.6H71.1V82.7V82.9H70.9H70.4L70.1 82.8H69.6H69.5V82.9H69.4L69 82.8H68.8H68.4L68 82.7H67.5H67.1L66.9 82.6L66.8 82.2H66.9L67 81.9V81.8H66.9V81.9V82L66.8 82.1H66.7H66.5H66.4L66.3 82L66.1 81.9L65.9 81.8H65.7L65.6 81.7H65.2L65.1 81.8H65L64.9 81.9V82L64.8 82.1V82.2V82.3H64.9V82.4V82.5L65.1 82.6L65.5 83.4V83.6L65.4 83.8L65.2 83.6H65.1V83.5V83.4V83.3L65 83.2V83.1V83L64.9 82.9V82.8H64.8V82.7H64.7L64.6 82.6H64.5V82.5L64.3 82.4H64.2L64.1 82.3L64 82.2H63.9H63.8V82.1H63.7H63.6V82H63.5L63.4 81.9L63.3 81.8L63.2 81.7V81.6H63.1V81.5V81.4H63V81.3V81.2V81.1H62.9V81V80.9V80.8L62.8 80.6V80.5V80.4V80.3V80.2H62.7H62.6L62.5 80.3V80.2V80.1L62.4 79.9H62.3H62.2H62.1H62H61.9H61.8H61.7L61.6 80H61.5V79.9V79.8V79.7V79.6V79.5V79.4L61.4 79.1V79M61.4 79V78.9M61.4 79H61.3L61.1 78.9H61H60.8L60.6 78.8H60.4H60.3H60.2H60.1H59.9H59.8H59.5H59.1H58.7H58.4H58.3H57.9H57.5H57.2H57.1H56.9H56.8V79.1V79.5V79.8H56.4H56H55.7H55.6H55.4H55.3H55.2H55L54.8 79.9H54.7H54.5H54.4L54.1 80H54H53.7H53.6V80.1H53.7V80.2L53.8 80.1V80.2H53.9H54V80.3H54.1H54.2L54.3 80.4L54.5 80.5H54.6V80.6H54.5V80.7H54.6L54.7 80.8V80.9H54.8L55 81H55.1H55.2L55.3 81.1V81.2H55.2H55.1H55V81.1H54.9H54.8V81.2V81.3H54.7V81.4L54.8 81.5L54.9 81.6H54.8V81.7H54.7H54.6H54.5V81.8V81.9M54.5 81.9V82H54.6L54.5 81.9ZM54.5 81.9H54.4V81.8H54.3L54.2 81.7V81.6H54.1L54 81.5L53.9 81.3H53.8H53.7H53.6H53.5L53.4 81.4H53.3H53.2V81.3H53.1V81.4V81.5V81.6H53.2V81.7L53.3 81.8H53.4V81.9H53.3V82H53.4V82.1V82.2V82.3V82.4V82.5V82.6V82.7V82.8L53.3 82.9V83H53.2H53.1H52.9L52.8 83.1L52.7 83.3V83.4L52.8 83.5L52.6 83.6H52.5V83.7L52.4 83.8L52.3 83.9H52.2H52.1L52 84L51.9 83.9V84H51.8V84.1H51.7V84.2H51.6V84.3H51.5V84.4H51.4V84.5L51.3 84.6V84.7H51.2V84.9H51.3V85L51.4 85.2H51.5V85.3L51.7 85.4V85.5V85.6V85.7V85.8V85.9H51.6V86H51.5L51.4 86.1L51.5 86.2V86.3L51.4 86.4V86.5V86.6H51.3L51.2 86.7V86.8H51.1V86.7H51H50.9H50.8V86.8V86.9V87V87.1V87.2V87.3L50.7 87.4V87.5V87.6V87.7H50.8V87.8H50.9L51 87.9L51.1 88V88.1H51V88.2L50.9 88.3L50.8 88.4L50.7 88.5V88.6H50.6V88.7L50.4 88.9V89V89.1H50.3L50.2 89.2V89.3V89.4V89.5L50.1 89.6L50.2 89.7V89.8H50.3V89.9L50.4 90.1H50.5V90.2V90.3V90.4V90.5H50.4H50.3V90.6V90.7L50.2 90.8V90.9L50.1 91V91.1H50V91.2H50.1H50.2V91.3V91.4H50.3V91.5V91.6V91.7H50.4M50.4 91.7V91.8M50.4 91.7H50.5L50.6 91.6L50.7 91.5L50.8 91.4L50.9 91.3V91.2L51 91.1H51.1H51.2L51.4 91.3H51.5L51.6 91.4L51.7 91.5V91.4H51.8L51.9 91.3V91.2H52V91.1H51.9L52 91V90.9V90.8H52.1V90.7V90.6H52.2V90.5V90.4L52.3 90.3V90.2V90.1V89.8L52.4 89.9H52.5H52.6H52.7L53 90H53.1L53.2 90.1H53.6V90.2H53.8H53.9H54H54.1H54.2H54.3H54.4L54.5 90.1H54.7H54.8L55 90H55.1H55.2H55.3H55.4V89.9V89.8M55.4 89.8H55.5M55.4 89.8L55.5 89.7H55.4V89.6V89.5H55.3L55.2 89.4H55.3V89.3L55.4 89.4H55.5M55.5 89.4V89.3M55.5 89.4H55.6V89.5H55.7V89.6V89.7M55.7 89.7H55.6M55.7 89.7H55.8V89.8V89.9V90H55.9H56H56.1V90.2L56.2 90.4V90.6V90.7V90.8V90.9V91H56.3V91.1L56.4 91.2V91.3V91.4L56.5 91.5V91.6L56.6 91.8L56.7 91.9L56.9 92.1L57.1 92.3L57.4 92.6L57.5 92.7L57.7 92.9H57.8V93H57.9V93.1H58L58.2 93.3H58.3L58.5 93.4L58.6 93.5H58.7H58.8L58.9 93.6L59.1 93.7H59.2L59.3 93.8L59.1 93.9H59.2H59.3H59.4V94V94.1H59.5L59.6 94.2M59.6 94.2V94.3M59.6 94.2H59.7L60 94.5L60.1 94.7L60.4 95L60.3 95.1L60.2 95.2L60.1 95.3L60 95.5V95.6L59.9 95.7L59.8 95.8L60.1 96.1V96.2V96.5V96.6V96.7H60.2V96.9V97L60.5 97.1H60.6H60.7L60.9 97.2V97.1L61 96.9V96.7H61.1H61.2H61.3H61.4H61.5H61.6H61.7V96.8H61.6V96.9H61.7H61.8V97V97.1L61.7 97.2V97.4L61.9 97.5L62 98V98.1V98.2V98.3H62.1L62.2 98.4L62.1 98.6H62V98.7V98.8L62.1 98.9V98.8H62.2H62.3H62.4H62.5H62.6V98.6L62.8 98.7H62.9V98.8H63H63.1L63.2 98.9H63.1V99L62.9 99.1L62.8 99.2H62.7V99.3L62.8 99.4L63 99.6L63.1 99.7H63.2L63.3 99.6H63.4H63.5V99.5L63.7 99.4H63.8V99.5H63.9L64 99.7H64.1V99.8H64.2L64.4 99.9L64.6 100H64.7H64.8H64.9L65 100.1H65.1V100.2L65 100.3V100.5V100.7V100.9V101V101.1V101.2H64.9V101.3H65V101.4H65.1H65.2L65.1 101.5V101.6L65 101.7L64.9 101.9H64.8V102V102.1H64.7V102.2H64.8H64.9H65H65.2H65.3H65.4H65.5H65.6V102.3H65.7V102.6V102.8V102.9L65.5 103.3V103.4V103.5H65.6L65.7 103.6L65.8 103.7V103.8H65.9H66V103.9V104V104.1V104.3V104.4L65.9 104.5V104.6L66 104.7L66.1 104.8H66.2H66.4L66.7 104.7H66.8H67.1V104.8H67.2V104.9V105H67.3V105.2H67.4V105.3L67.5 105.4L67.6 105.5V105.7L67.7 105.8L67.8 106.3V106.4V106.5V106.6L67.9 106.7V106.8V106.9V107.1V107.2V107.3V107.4V107.8L67.8 108V108.1H67.9H68V108.2V108.3H68.1L68.8 108H68.9L69.1 107.9L69.2 107.8L69.5 107.7H69.6L70.2 107.5L70.5 107.3L70.2 106.6H70.4L70.5 106.5H70.6H70.7L70.6 106.4V106.3H70.7V106.2H70.6V106.1L70.5 106M70.5 106V106.1M70.5 106H70.4L70.3 105.9H70.2V105.8H70.1V105.7V105.6H70V105.5V105.4V105.3H69.9V105.2V105.1H69.8V105L69.7 105.1V105V104.9H69.6V104.8V104.7V104.6V104.5H69.7V104.4H69.6H69.5V104.3H69.4H69.3L69.2 104.2V104.1V103.9V103.8V103.7H69.1V103.6H69V103.5H68.9V103.4L68.8 103.3H68.9V103.2H68.8L68.9 103.1V103H69H69.1H69.3H69.4H69.5H69.6H69.8H69.9H70H70.2H70.4H70.3V102.9H70.2M70.2 102.9H70.1M70.2 102.9L70.3 102.8M70.3 102.8V102.7M70.3 102.8H70.2M70.3 102.7H70.2M70.3 102.7V102.6H70.4V102.5H70.5V102.4V102.3V102.2H70.6V102.1H70.7H70.8L71.1 101.9H71V101.7L70.9 101.6V101.5L70.8 101.4V101.3H70.7V101.2V101.1L70.6 101V100.9H70.5V100.8H70.4V100.7H70.3V100.6V100.5H70.2V100.4H70.1V100.3V100.2H70V100.1L69.9 99.9H69.8V99.8V99.7V99.6V99.5H69.7V99.4V99.3V99.2H69.6V99.1L69.5 99V98.9H69.4V98.8V98.7H69.3V98.6V98.5H69.4H69.6L69.8 98.4L69.7 98.2H69.9V98.3H70V98.2V98V97.9L69.9 97.8L70 97.7H69.9H69.8H69.7M70.2 102.8H70.1M70.2 102.8V102.7M70.2 102.7H70.1M70.2 102.7V102.6M69.7 97.7H69.6M69.7 97.7V97.6H69.6L69.4 97.5V97.4H69.6V97.3V97.2L69.7 97.1V97V96.9V96.7H69.8L70 96.6H70.1L70.2 96.5H70.7V96.6V96.7V96.8V97H70.8H71H71.1L71.5 96.9H71.6H71.7H71.8L71.9 96.8V96.9H72L72.1 97V97.1H72.2V97.2L72.3 97.3H72.4H72.5H72.6H72.7V97.4H72.8H72.9V97.5H73H73.1H73.2V97.6V97.7H73.3L73.5 97.6H73.6L73.8 97.4L73.9 97.3V97.2H74.1V97L74 96.9V96.8V96.7H73.9V96.6V96.5L73.8 96.4V96.3H73.7L73.8 96.2H73.9V96.1H74H74.1V96V95.9V95.8H74V95.7M74 95.7H73.9M74 95.7V95.6V95.5V95.4V95.3L74.1 95.2V95.1L74.2 95H74.3M74.3 95V94.9M74.3 95H74.4H74.5V95.1H74.6L74.7 95.2L74.9 95.4L74.7 95.5L75.2 95.7L75.5 95.8L75.7 95.9L76 95.8H76.2V95.7L76.5 95.8H76.8L77.3 95.9V95.8H77.2V95.7V95.6V95.5V95.4V95.3L77.3 95.2H77.2L77.1 95.1V95H77.2H77.3V94.9L77.4 94.8V94.7V94.6H77.3V94.5H77.2V94.4V94.3V94.1V94L77.3 93.9H77.5L77.6 93.8H77.7L78 93.7L78.1 93.9L78.2 94H78.3V94.1H78.4H78.5H78.6H78.7H78.8V94.2H78.9H79H79.1H79.2V94.1H79.3V94H79.4M79.4 94V94.1M77.7 3.49998L77.6 3.39999V3.29999V3.19998V2.99998L77.7 2.89999V2.79999V2.69998V2.59998V2.39999V2.29999H77.6H77.5H77.4H77.3H77H76.8H76.5H76.3V2.19998H76.2H76H75.9H75.8H75.7H75.6H75.5H75.2V2.09998V1.89999V1.79999V1.69998V1.49998H75.1H75H74.9L74.8 1.39999H74.6L74.3 1.29999L74 1.19998H73.9H73.8V1.39999L73.9 1.99998V2.09998V2.29999V2.89999V2.99998H73.8H73.7H73.6H73.5V3.09998H73.4H73.3H73.2H73.1H73L72.9 2.99998H72.8H72.7H72.6H72.4H72.1H72H71.9V3.09998V3.19998H71.8L71.6 3.29999H71.5H71.4L71 3.59998M77.7 3.49998L77.8 3.39999V3.49998H77.9V3.59998H77.7V3.49998ZM71 3.59998L70.7 3.69998L70.5 3.89999H70.4L69.9 4.19998M71 3.59998H70.9L70.6 3.79999L70.2 3.99998L69.9 4.19998M69.9 4.19998V4.29999H69.8M69.9 4.19998H69.8V4.29999M69.8 4.29999H69.7H69.5M69.5 4.29999H69.4L69.1 4.19998H68.9M69.5 4.29999L68.9 4.19998M68.9 4.19998H68.8H68.7H68.6M68.6 4.19998V4.49998H68.5L68.4 4.59998L68.3 4.69998L68.2 4.39999L68.1 4.29999H68.2L68.3 4.19998L68.2 4.09998V3.89999L68.1 3.79999H68M68.6 4.19998V4.09998V3.99998L68.5 3.89999V3.79999L68.4 3.59998V3.49998H68V3.79999M68 3.79999V3.89999L68.1 4.09998V4.19998H68H67.9H67.6V3.69998L68 3.79999ZM71.6 4.69998L71.5 4.59998V4.49998L71.7 4.39999V4.49998V4.59998L71.6 4.69998ZM76.2 4.29999V4.39999H76.1L75.8 4.29999V4.19998L76 4.29999H76.2Z" stroke="white" stroke-width="0.5" stroke-linecap="round" stroke-linejoin="round"/>
</g>
</svg>
