<svg width="32" height="31" viewBox="0 0 32 31" fill="none" xmlns="http://www.w3.org/2000/svg">
<g id="UA32">
<path d="M25.4 0.800003V0.699997L25.3 0.600006V0.5V0.399994H25.4L25.5 0.5H25.6H25.7H25.8L25.9 0.600006H26.1V0.699997H26.2H26.3L26.4 0.800003L26.8 0.899994L26.9 1H27H27.1H27.2H27.3H27.4H27.5H27.6H27.7H27.8V1.10001V1.2V1.3H27.9V1.39999V1.5L28 1.60001H28.1H28.2H28.3V1.5H28.4H28.5H28.6L28.5 1.39999H28.6V1.3L28.7 1.39999V1.5H28.8H28.9V1.60001L29 1.7V1.8H29.1V1.89999L29.2 2H29.3V2.10001H29.4L29.5 2.2H29.6L29.7 2.3H29.8H29.9V2.39999H30H30.1V2.5H30.2V2.60001V2.7L30.1 2.8H30.2V2.89999V3V3.10001H30.3V3.2L30.4 3.3V3.39999V3.5V3.60001V3.7V3.8V4H30.5V4.10001V4.2V4.3V4.39999V4.5V4.60001L30.6 4.7L30.5 4.8H30.4L30.3 4.89999H30.1L30 5H29.9H29.8L29.7 5.10001L29.6 5.2H29.5H29.4V5.3H29.3H29.2L29.1 5.39999H29H28.9H28.8L28.7 5.5H28.6L28.5 5.60001H28.4H28.3V5.7H28.2L28.1 5.8H28V5.89999H27.9H27.8V6H27.7L27.8 6.10001V6.2V6.3V6.39999V6.5H27.7V6.39999L27.6 6.3V6.2H27.5V6.10001H27.4H27.3H27.2V6.2H27.1V6.3L27.2 6.39999V6.5H27.3V6.60001H27.4L27.5 6.7V6.8V6.89999V7H27.4V6.89999H27.3V7L27.2 7.10001H27.1L27 7.2H26.9V7.3V7.39999V7.5H26.8H26.7H26.6V7.60001H26.5L26.4 7.7H26.3V7.8L26.4 7.89999V8.10001L26.5 8.2V8.3V8.39999H26.6L26.7 8.3H26.8V8.39999V8.5L26.9 8.60001V8.7H27V8.60001L27.1 8.5V8.39999L27.2 8.60001L27.4 8.89999V9H27.2H27.1H27L26.9 8.89999V9L26.8 9.10001V9.2V9.3H26.7V9.39999L26.8 9.5L26.9 9.7L26.8 9.8L26.6 10L26.5 10.1H26.6H26.7L26.8 10H27V10.1H27.1L27 10.2L27.1 10.3L27 10.4L26.9 10.5H27V10.6H27.1V10.7L27 10.8H26.9L26.8 10.9H26.7H26.6H26.5L26.6 11H26.7V11.1L26.8 11.2L27.2 11.5V11.6L27.4 11.7V11.8H27.5L27.9 12L28.3 12.2V12.3L28.2 12.4V12.5H28.3L28.4 12.6L28.5 12.7L28.6 12.8L28.8 12.9H28.9H29L29.1 13L29.3 13.2V13.3L29.6 13.5V13.6V13.7L29.5 13.8L29.4 13.9H29.5L29.4 14L29.3 14.1L29.2 14.2H29.3V14.3H29.4V14.4L29.5 14.5L29.6 14.6L29.7 14.7L29.9 14.8V14.7L30.1 14.8L30.2 14.9H30.3H30.4H30.5L30.7 15.2H30.8V15.3L30.5 15.5H30.6L30.5 15.6V15.7V15.8V15.9L30.4 16H30.3V16.1H30.2V16.2H30.1H30H29.9H29.8V16.1H29.7H29.6H29.5H29.4H29.3V16H29.2L29.1 15.9L29 15.7L28.7 15.8H28.6L28.5 15.9H28.3L28.2 16V16.1V16.3V16.4V16.5H28.3V16.6H28.4V16.7V16.8L28.3 16.9V17H28.2H28.1V17.1L28.2 17.2H28.3L28.2 17.3V17.4V17.5V17.6V17.7V17.8H28.3V17.9L27.8 17.8H27.5L27.2 17.7V17.8H27L26.7 17.9L26.5 17.8L26.2 17.7L25.7 17.5L25.9 17.4L25.7 17.2L25.6 17.1H25.5V17H25.4H25.3H25.2L25.1 17.1V17.2L25 17.3V17.4V17.5V17.6V17.7V17.8H25.1V17.9V18V18.1H25H24.9V18.2H24.8L24.7 18.3H24.8V18.4L24.9 18.5V18.6V18.7H25V18.8V18.9L25.1 19V19.2H24.9V19.3L24.8 19.4L24.6 19.6H24.5L24.3 19.7H24.2V19.6V19.5H24.1H24H23.9V19.4H23.8H23.7V19.3H23.6H23.5H23.4H23.3L23.2 19.2V19.1H23.1V19L23 18.9H22.9V18.8L22.8 18.9H22.7H22.6H22.5L22.1 19H22H21.8H21.7V18.8V18.7V18.6V18.5H21.2L21.1 18.6H21L20.8 18.7H20.7V18.9V19V19.1L20.6 19.2V19.3V19.4H20.4V19.5L20.6 19.6H20.7V19.7H20.8H20.9H21L20.9 19.8L21 19.9V20V20.2V20.3H20.9V20.2H20.7L20.8 20.4L20.6 20.5H20.4H20.3V20.6V20.7H20.4V20.8V20.9H20.5V21L20.6 21.1V21.2H20.7V21.3V21.4V21.5H20.8V21.6V21.7V21.8V21.9H20.9L21 22.1V22.2H21.1V22.3V22.4H21.2V22.5H21.3V22.6V22.7H21.4V22.8H21.5V22.9H21.6V23L21.7 23.1V23.2V23.3H21.8V23.4L21.9 23.5V23.6L22 23.7V23.9H22.1L21.8 24.1H21.7H21.6V24.2H21.5V24.3V24.4V24.5H21.4V24.6H21.3V24.7H21.2V24.8H21.3L21.2 24.9H21.3V25H21.4H21.2H21H20.9H20.8H20.6H20.5H20.4H20.3H20.1H20H19.9V25.1L19.8 25.2H19.9V25.3H19.8L19.9 25.4V25.5H20V25.6H20.1V25.7H20.2V25.8V25.9V26.1V26.2L20.3 26.3H20.4H20.5V26.4H20.6H20.7V26.5H20.6V26.6V26.7V26.8V26.9H20.7V27V27.1L20.8 27V27.1H20.9V27.2V27.3H21V27.4V27.5V27.6H21.1V27.7V27.8H21.2V27.9H21.3L21.4 28H21.5L21.6 28.1V28.2H21.7V28.3H21.6V28.4L21.7 28.5H21.6H21.5L21.4 28.6H21.2L21.5 29.3L21.2 29.5L20.6 29.7H20.5L20.2 29.8L20.1 29.9L19.9 30H19.8L19.1 30.3H19V30.2V30.1H18.9H18.8V30L18.9 29.8V29.4V29.3V29.2V29.1V28.9V28.8V28.7L18.8 28.6V28.5V28.4V28.3L18.7 27.8L18.6 27.7V27.5L18.5 27.4L18.4 27.3V27.2H18.3V27H18.2V26.9V26.8H18.1V26.7H17.8H17.7L17.4 26.8H17.2H17.1L17 26.7L16.9 26.6V26.5L17 26.4V26.3V26.1V26V25.9V25.8H16.9H16.8V25.7L16.7 25.6L16.6 25.5H16.5V25.4V25.3L16.7 24.9V24.8V24.6V24.3H16.6V24.2H16.5H16.4H16.3H16.2H16H15.9H15.8H15.7V24.1H15.8V24V23.9H15.9L16 23.7L16.1 23.6V23.5L16.2 23.4H16.1H16V23.3H15.9V23.2H16V23.1V23V22.9V22.7V22.5V22.3L16.1 22.2V22.1H16L15.9 22H15.8H15.7H15.6L15.4 21.9L15.2 21.8H15.1V21.7H15L14.9 21.5H14.8V21.4H14.7L14.5 21.5V21.6H14.4H14.3L14.2 21.7H14.1L14 21.6L13.8 21.4L13.7 21.3V21.2H13.8L13.9 21.1L14.1 21V20.9H14.2L14.1 20.8H14H13.9V20.7H13.8L13.6 20.6V20.8H13.5H13.4H13.3H13.2H13.1V20.9L13 20.8V20.7V20.6H13.1L13.2 20.4L13.1 20.3H13V20.2V20.1V20L12.9 19.5L12.7 19.4V19.2L12.8 19.1V19V18.9H12.7H12.6V18.8H12.7V18.7H12.6H12.5H12.4H12.3H12.2H12.1H12V18.9L11.9 19.1V19.2L11.7 19.1H11.6H11.5L11.2 19V18.9V18.7H11.1V18.6V18.5V18.2V18.1L10.8 17.8L10.9 17.7L11 17.6V17.5L11.1 17.3L11.2 17.2L11.3 17.1L11.4 17L11.1 16.7L11 16.5L10.7 16.2H10.6L10.5 16.1H10.4V16V15.9H10.3H10.2H10.1L10.3 15.8L10.2 15.7H10.1L9.89999 15.6L9.79999 15.5H9.70001H9.60001L9.5 15.4L9.29999 15.3H9.20001L9 15.1H8.89999V15H8.79999V14.9H8.70001L8.5 14.7L8.39999 14.6L8.10001 14.3L7.89999 14.1L7.70001 13.9L7.60001 13.8L7.5 13.6V13.5L7.39999 13.4V13.3V13.2L7.29999 13.1V13H7.20001V12.9V12.8V12.7V12.6V12.4L7.10001 12.2V12H7H6.89999H6.79999V11.9V11.8V11.7H6.70001V11.6V11.5H6.60001V11.4H6.5H6.39999L6.29999 11.3V11.4H6.20001L6.29999 11.5H6.39999V11.6V11.7H6.5L6.39999 11.8V11.9V12H6.29999H6.20001H6.10001H6L5.79999 12.1H5.70001H5.5L5.39999 12.2H5.29999H5.20001H5.10001H5H4.89999H4.79999H4.60001V12.1H4.20001L4.10001 12H4L3.70001 11.9H3.60001H3.5H3.39999L3.29999 11.8V12.1V12.2V12.3L3.20001 12.4V12.5V12.6H3.10001V12.7V12.8H3V12.9V13L2.89999 13.1H3V13.2H2.89999V13.3L2.79999 13.4H2.70001V13.5L2.60001 13.4L2.5 13.3H2.39999L2.20001 13.1H2.10001H2L1.89999 13.2V13.3L1.79999 13.4L1.70001 13.5L1.60001 13.6L1.5 13.7H1.39999H1.29999V13.6V13.5V13.4H1.20001V13.3V13.2H1.10001H1V13.1H1.10001V13L1.20001 12.9V12.8L1.29999 12.7V12.6V12.5H1.39999H1.5V12.4V12.3V12.2V12.1H1.39999L1.29999 11.9V11.8H1.20001V11.7L1.10001 11.6L1.20001 11.5V11.4V11.3V11.2L1.29999 11.1H1.39999V11V10.9L1.60001 10.7V10.6H1.70001V10.5L1.79999 10.4L1.89999 10.3L2 10.2V10.1H2.10001V10L2 9.89999L1.89999 9.8H1.79999V9.7H1.70001V9.60001V9.5V9.39999L1.79999 9.3V9.2V9.10001V9V8.89999V8.8V8.7H1.89999H2H2.10001V8.8H2.20001V8.7L2.29999 8.60001H2.39999V8.5V8.39999L2.5 8.3V8.2L2.39999 8.10001L2.5 8H2.60001V7.89999H2.70001V7.8V7.7V7.60001V7.5V7.39999L2.5 7.3V7.2H2.39999L2.29999 7V6.89999H2.20001V6.7H2.29999V6.60001L2.39999 6.5V6.39999H2.5V6.3H2.60001V6.2H2.70001V6.10001H2.79999V6H2.89999V5.89999L3 6L3.10001 5.89999H3.20001H3.29999L3.39999 5.8L3.5 5.7V5.60001H3.60001L3.79999 5.5L3.70001 5.39999V5.3L3.79999 5.10001L3.89999 5H4.10001H4.20001H4.29999V4.89999L4.39999 4.8V4.7V4.60001V4.5V4.39999V4.3V4.2V4.10001V4H4.29999V3.89999H4.39999V3.8H4.29999L4.20001 3.7V3.60001H4.10001V3.5V3.39999V3.3H4.20001V3.39999H4.29999H4.39999L4.5 3.3H4.60001H4.70001H4.79999H4.89999L5 3.5L5.10001 3.60001H5.20001V3.7L5.29999 3.8H5.39999V3.89999H5.5L5.60001 4H5.5V3.89999V3.8V3.7H5.60001H5.70001H5.79999V3.60001H5.89999L5.79999 3.5L5.70001 3.39999V3.3H5.79999V3.2V3.10001H5.89999H6V3.2H6.10001H6.20001H6.29999V3.10001L6.20001 3H6.10001H6L5.79999 2.89999H5.70001V2.8L5.60001 2.7H5.5V2.60001H5.60001V2.5H5.5L5.29999 2.39999L5.20001 2.3H5.10001H5V2.2H4.89999H4.79999V2.10001L4.70001 2.2V2.10001H4.60001V2H4.70001H5H5.10001L5.39999 1.89999H5.5H5.70001H5.79999L6 1.8H6.20001H6.29999H6.39999H6.60001H6.70001H7H7.39999H7.79999V1.5V1.10001V0.800003H7.89999H8.10001H8.20001H8.5H8.89999H9.29999H9.39999H9.70001H10.1H10.5H10.8H10.9H11.1H11.2H11.3H11.4H11.6L11.8 0.899994H12H12.1L12.3 1H12.4V1.10001L12.5 1.39999V1.5V1.60001V1.7V1.8V1.89999V2H12.6L12.7 1.89999H12.8H12.9H13H13.1H13.2H13.3H13.4L13.5 2.10001V2.2V2.3L13.6 2.2H13.7H13.8V2.3V2.39999V2.5V2.60001L13.9 2.8V2.89999V3V3.10001H14V3.2V3.3V3.39999H14.1V3.5V3.60001H14.2V3.7L14.3 3.8L14.4 3.89999L14.5 4H14.6V4.10001H14.7H14.8V4.2H14.9H15L15.1 4.3L15.2 4.39999H15.3L15.5 4.5V4.60001H15.6L15.7 4.7H15.8V4.8H15.9V4.89999L16 5V5.10001V5.2L16.1 5.3V5.39999V5.5V5.60001H16.2L16.4 5.8L16.5 5.60001V5.39999L16.1 4.60001L15.9 4.5V4.39999V4.3H15.8V4.2V4.10001L15.9 4V3.89999L16 3.8H16.1L16.2 3.7H16.6L16.7 3.8H16.9L17.1 3.89999L17.3 4L17.4 4.10001H17.5H17.7H17.8L17.9 4V3.89999V3.8H18V3.89999L17.9 4.2H17.8L17.9 4.60001L18.1 4.7H18.5H19L19.4 4.8H19.8H20L20.4 4.89999H20.5V4.8H20.6H21.1L21.4 4.89999H21.9H22.1V4.7V4.60001H22.2V4.39999L22.3 4.3L22.4 4.2V4.10001V4H22.5V3.89999V3.8V3.7L22.6 3.60001V3.5H22.7L22.8 3.39999H22.9H23H23.1L23.2 3.3H23.3H23.4V3.2H23.5L23.6 3.10001H23.7L23.8 3H23.9L24 2.89999H24.1L24.2 2.8H24.3V2.89999V3V3.10001V3.2L24.7 3.10001H24.8H24.9H25.1L25 2.89999V2.7V2.2V2.10001L24.9 1.8V1.7L25 1.60001L25.1 1.39999L25.2 1.3L25.3 1.2V1.10001V1H25.4V0.899994V0.800003ZM6.39999 7.89999L6.29999 7.8H6.20001V7.89999H6.10001V8.10001H6V8.2H5.89999H5.79999H5.70001H5.60001H5.5H5.39999L5.20001 8.10001V8H5.10001V8.10001V8.3V8.39999H5.20001V8.5V8.60001H5.29999V8.7L5.20001 8.60001V8.7H5.29999L5.5 8.8V8.89999H5.60001H5.70001H5.79999H5.89999V9H6H6.10001L6 8.89999H6.10001H6.20001H6.29999V9H6.39999H6.5L6.70001 8.89999H6.79999V8.8V8.7V8.60001V8.5V8.39999L6.5 8.3V8.10001V8V7.89999L6.39999 8V7.89999Z" fill="#6F9C76"/>
<path d="M25.4 0.800003V0.699997L25.3 0.600006V0.5V0.399994H25.4L25.5 0.5H25.6H25.7H25.8L25.9 0.600006H26.1V0.699997H26.2H26.3L26.4 0.800003L26.8 0.899994L26.9 1H27H27.1H27.2H27.3H27.4H27.5H27.6H27.7H27.8V1.10001V1.2V1.3H27.9V1.39999V1.5L28 1.60001H28.1H28.2H28.3V1.5H28.4H28.5H28.6L28.5 1.39999H28.6V1.3L28.7 1.39999V1.5H28.8H28.9V1.60001L29 1.7V1.8H29.1V1.89999L29.2 2H29.3V2.10001H29.4L29.5 2.2H29.6L29.7 2.3H29.8H29.9V2.39999H30H30.1V2.5H30.2V2.60001V2.7L30.1 2.8H30.2V2.89999V3V3.10001H30.3V3.2L30.4 3.3V3.39999V3.5V3.60001V3.7V3.8V4H30.5V4.10001V4.2V4.3V4.39999V4.5V4.60001L30.6 4.7L30.5 4.8H30.4L30.3 4.89999H30.1L30 5H29.9H29.8L29.7 5.10001L29.6 5.2H29.5H29.4V5.3H29.3H29.2L29.1 5.39999H29H28.9H28.8L28.7 5.5H28.6L28.5 5.60001H28.4H28.3V5.7H28.2L28.1 5.8H28V5.89999H27.9H27.8V6H27.7L27.8 6.10001V6.2V6.3V6.39999V6.5H27.7V6.39999L27.6 6.3V6.2H27.5V6.10001H27.4H27.3H27.2V6.2H27.1V6.3L27.2 6.39999V6.5H27.3V6.60001H27.4L27.5 6.7V6.8V6.89999V7H27.4V6.89999H27.3V7L27.2 7.10001H27.1L27 7.2H26.9V7.3V7.39999V7.5H26.8H26.7H26.6V7.60001H26.5L26.4 7.7H26.3V7.8L26.4 7.89999V8.10001L26.5 8.2V8.3V8.39999H26.6L26.7 8.3H26.8V8.39999V8.5L26.9 8.60001V8.7H27V8.60001L27.1 8.5V8.39999L27.2 8.60001L27.4 8.89999V9H27.2H27.1H27L26.9 8.89999V9L26.8 9.10001V9.2V9.3H26.7V9.39999L26.8 9.5L26.9 9.7L26.8 9.8L26.6 10L26.5 10.1H26.6H26.7L26.8 10H27V10.1H27.1L27 10.2L27.1 10.3L27 10.4L26.9 10.5H27V10.6H27.1V10.7L27 10.8H26.9L26.8 10.9H26.7H26.6H26.5L26.6 11H26.7V11.1L26.8 11.2L27.2 11.5V11.6L27.4 11.7V11.8H27.5L27.9 12L28.3 12.2V12.3L28.2 12.4V12.5H28.3L28.4 12.6L28.5 12.7L28.6 12.8L28.8 12.9H28.9H29L29.1 13L29.3 13.2V13.3L29.6 13.5V13.6V13.7L29.5 13.8L29.4 13.9H29.5L29.4 14L29.3 14.1L29.2 14.2H29.3V14.3H29.4V14.4L29.5 14.5L29.6 14.6L29.7 14.7L29.9 14.8V14.7L30.1 14.8L30.2 14.9H30.3H30.4H30.5L30.7 15.2H30.8V15.3L30.5 15.5H30.6L30.5 15.6V15.7V15.8V15.9L30.4 16M25.4 0.800003V0.899994V1H25.3V1.10001V1.2L25.2 1.3L25.1 1.39999L25 1.60001L24.9 1.7V1.8L25 2.10001V2.2V2.7V2.89999L25.1 3.10001H24.9H24.8H24.7L24.3 3.2V3.10001V3V2.89999V2.8H24.2L24.1 2.89999M25.4 0.800003H25.5M30.4 16V16.1M30.4 16H30.3V16.1H30.2V16.2H30.1H30H29.9H29.8V16.1H29.7H29.6H29.5H29.4H29.3V16H29.2L29.1 15.9L29 15.7L28.7 15.8H28.6L28.5 15.9H28.3L28.2 16V16.1V16.3V16.4V16.5H28.3V16.6H28.4V16.7V16.8L28.3 16.9V17H28.2H28.1V17.1L28.2 17.2H28.3L28.2 17.3V17.4V17.5V17.6V17.7V17.8H28.3V17.9L27.8 17.8H27.5L27.2 17.7V17.8H27L26.7 17.9L26.5 17.8L26.2 17.7L25.7 17.5L25.9 17.4L25.7 17.2L25.6 17.1H25.5V17H25.4H25.3M25.3 17V16.9M25.3 17H25.2L25.1 17.1V17.2L25 17.3V17.4V17.5V17.6V17.7M25 17.7H24.9M25 17.7V17.8H25.1V17.9V18V18.1H25H24.9V18.2H24.8L24.7 18.3H24.8V18.4L24.9 18.5V18.6V18.7H25V18.8V18.9L25.1 19V19.2H24.9V19.3L24.8 19.4L24.6 19.6H24.5L24.3 19.7H24.2V19.6V19.5H24.1H24H23.9V19.4H23.8H23.7V19.3H23.6H23.5H23.4H23.3L23.2 19.2V19.1H23.1V19L23 18.9H22.9V18.8L22.8 18.9H22.7H22.6H22.5L22.1 19H22H21.8H21.7V18.8V18.7V18.6V18.5H21.2L21.1 18.6H21L20.8 18.7H20.7V18.9V19V19.1L20.6 19.2V19.3V19.4H20.4V19.5L20.6 19.6H20.7V19.7M20.7 19.7H20.6M20.7 19.7H20.8H20.9H21L20.9 19.8L21 19.9V20V20.2V20.3H20.9V20.2H20.7L20.8 20.4L20.6 20.5H20.4H20.3V20.6V20.7H20.4V20.8V20.9H20.5V21L20.6 21.1V21.2H20.7V21.3V21.4V21.5H20.8V21.6V21.7V21.8V21.9H20.9L21 22.1V22.2H21.1V22.3V22.4H21.2V22.5H21.3V22.6V22.7H21.4V22.8H21.5V22.9H21.6V23L21.7 23.1V23.2V23.3H21.8V23.4L21.9 23.5V23.6L22 23.7V23.9H22.1L21.8 24.1H21.7H21.6V24.2H21.5V24.3V24.4V24.5H21.4V24.6H21.3V24.7M21.3 24.7H21.2M21.3 24.7V24.8M21.2 24.7V24.6M21.2 24.7H21.1M21.2 24.7V24.8M21.2 24.8H21.1M21.2 24.8H21.3M21.3 24.8L21.2 24.9M21.2 24.9H21.1M21.2 24.9H21.3V25H21.4H21.2H21H20.9H20.8H20.6H20.5H20.4H20.3H20.1H20H19.9V25.1L19.8 25.2H19.9V25.3H19.8L19.9 25.4V25.5H20V25.6H20.1V25.7H20.2V25.8V25.9V26.1V26.2L20.3 26.3H20.4H20.5V26.4H20.6H20.7V26.5H20.6V26.6V26.7V26.8V26.9H20.7V27V27.1L20.8 27V27.1H20.9V27.2V27.3H21V27.4V27.5V27.6H21.1V27.7V27.8H21.2V27.9H21.3L21.4 28H21.5M21.5 28V28.1M21.5 28L21.6 28.1V28.2H21.7V28.3H21.6V28.4L21.7 28.5H21.6H21.5L21.4 28.6H21.2L21.5 29.3L21.2 29.5L20.6 29.7H20.5L20.2 29.8L20.1 29.9L19.9 30H19.8L19.1 30.3H19V30.2V30.1H18.9H18.8V30L18.9 29.8V29.4V29.3V29.2V29.1V28.9V28.8V28.7L18.8 28.6V28.5V28.4V28.3L18.7 27.8L18.6 27.7V27.5L18.5 27.4L18.4 27.3V27.2H18.3V27H18.2V26.9V26.8H18.1V26.7H17.8H17.7L17.4 26.8H17.2H17.1L17 26.7L16.9 26.6V26.5L17 26.4V26.3V26.1V26V25.9V25.8H16.9H16.8V25.7L16.7 25.6L16.6 25.5H16.5V25.4V25.3L16.7 24.9V24.8V24.6V24.3H16.6V24.2H16.5H16.4H16.3H16.2H16H15.9H15.8H15.7V24.1H15.8V24V23.9H15.9L16 23.7L16.1 23.6V23.5L16.2 23.4H16.1H16V23.3H15.9V23.2H16V23.1V23V22.9V22.7V22.5V22.3L16.1 22.2V22.1H16L15.9 22H15.8H15.7H15.6L15.4 21.9L15.2 21.8H15.1V21.7H15L14.9 21.5H14.8V21.4H14.7L14.5 21.5V21.6H14.4H14.3L14.2 21.7H14.1L14 21.6L13.8 21.4L13.7 21.3V21.2H13.8L13.9 21.1L14.1 21V20.9H14.2L14.1 20.8H14H13.9V20.7H13.8L13.6 20.6V20.8H13.5H13.4H13.3H13.2H13.1V20.9L13 20.8V20.7V20.6H13.1L13.2 20.4L13.1 20.3H13V20.2V20.1V20L12.9 19.5L12.7 19.4V19.2L12.8 19.1V19V18.9H12.7H12.6V18.8H12.7V18.7H12.6H12.5H12.4H12.3H12.2H12.1H12V18.9L11.9 19.1V19.2L11.7 19.1H11.6H11.5L11.2 19V18.9V18.7H11.1V18.6V18.5V18.2V18.1L10.8 17.8L10.9 17.7L11 17.6V17.5L11.1 17.3L11.2 17.2L11.3 17.1L11.4 17L11.1 16.7L11 16.5L10.7 16.2H10.6M10.6 16.2V16.3M10.6 16.2L10.5 16.1H10.4V16V15.9H10.3H10.2H10.1L10.3 15.8L10.2 15.7H10.1L9.89999 15.6L9.79999 15.5H9.70001H9.60001L9.5 15.4L9.29999 15.3H9.20001L9 15.1H8.89999V15H8.79999V14.9H8.70001L8.5 14.7L8.39999 14.6L8.10001 14.3L7.89999 14.1L7.70001 13.9L7.60001 13.8L7.5 13.6V13.5L7.39999 13.4V13.3V13.2L7.29999 13.1V13H7.20001V12.9V12.8V12.7V12.6V12.4L7.10001 12.2V12H7H6.89999H6.79999V11.9V11.8V11.7H6.70001M6.70001 11.7H6.60001M6.70001 11.7V11.6V11.5H6.60001V11.4H6.5M6.5 11.4V11.3M6.5 11.4H6.39999L6.29999 11.3V11.4H6.20001L6.29999 11.5H6.39999V11.6V11.7H6.5L6.39999 11.8M6.39999 11.8H6.5M6.39999 11.8V11.9V12H6.29999H6.20001H6.10001H6L5.79999 12.1H5.70001H5.5L5.39999 12.2H5.29999H5.20001H5.10001H5H4.89999H4.79999H4.60001V12.1H4.20001L4.10001 12H4L3.70001 11.9H3.60001H3.5H3.39999L3.29999 11.8V12.1V12.2V12.3L3.20001 12.4V12.5V12.6H3.10001V12.7V12.8H3V12.9V13L2.89999 13.1H3V13.2H2.89999V13.3L2.79999 13.4H2.70001V13.5L2.60001 13.4L2.5 13.3H2.39999L2.20001 13.1H2.10001H2L1.89999 13.2V13.3L1.79999 13.4L1.70001 13.5L1.60001 13.6L1.5 13.7H1.39999M1.39999 13.7V13.8M1.39999 13.7H1.29999V13.6V13.5V13.4H1.20001V13.3V13.2H1.10001H1V13.1H1.10001V13L1.20001 12.9V12.8L1.29999 12.7V12.6V12.5H1.39999H1.5V12.4V12.3V12.2V12.1H1.39999L1.29999 11.9V11.8H1.20001V11.7L1.10001 11.6L1.20001 11.5V11.4V11.3V11.2L1.29999 11.1H1.39999V11V10.9L1.60001 10.7V10.6H1.70001V10.5L1.79999 10.4L1.89999 10.3L2 10.2V10.1H2.10001V10L2 9.89999L1.89999 9.8H1.79999V9.7H1.70001V9.60001V9.5V9.39999L1.79999 9.3V9.2V9.10001V9V8.89999V8.8V8.7H1.89999H2H2.10001V8.8H2.20001V8.7L2.29999 8.60001H2.39999V8.5V8.39999L2.5 8.3V8.2L2.39999 8.10001L2.5 8H2.60001V7.89999H2.70001V7.8V7.7V7.60001V7.5V7.39999L2.5 7.3V7.2H2.39999L2.29999 7V6.89999H2.20001V6.7H2.29999V6.60001L2.39999 6.5V6.39999H2.5V6.3H2.60001V6.2H2.70001V6.10001H2.79999V6H2.89999V5.89999L3 6L3.10001 5.89999H3.20001H3.29999L3.39999 5.8L3.5 5.7V5.60001H3.60001L3.79999 5.5L3.70001 5.39999V5.3L3.79999 5.10001L3.89999 5H4.10001H4.20001H4.29999V4.89999L4.39999 4.8V4.7V4.60001V4.5V4.39999V4.3V4.2V4.10001V4H4.29999V3.89999H4.39999V3.8H4.29999L4.20001 3.7V3.60001H4.10001V3.5V3.39999V3.3H4.20001V3.39999H4.29999H4.39999L4.5 3.3H4.60001H4.70001H4.79999H4.89999L5 3.5L5.10001 3.60001H5.20001V3.7L5.29999 3.8H5.39999V3.89999H5.5M5.5 3.89999L5.60001 4H5.5V3.89999ZM5.5 3.89999V3.8V3.7H5.60001H5.70001H5.79999V3.60001H5.89999L5.79999 3.5L5.70001 3.39999V3.3H5.79999V3.2V3.10001H5.89999H6V3.2H6.10001H6.20001H6.29999V3.10001L6.20001 3H6.10001H6L5.79999 2.89999H5.70001V2.8L5.60001 2.7H5.5V2.60001H5.60001V2.5H5.5L5.29999 2.39999L5.20001 2.3H5.10001H5V2.2H4.89999H4.79999V2.10001L4.70001 2.2V2.10001H4.60001V2H4.70001H5H5.10001L5.39999 1.89999H5.5H5.70001H5.79999L6 1.8H6.20001H6.29999H6.39999H6.60001H6.70001H7H7.39999H7.79999V1.5V1.10001V0.800003H7.89999H8.10001H8.20001H8.5H8.89999H9.29999H9.39999H9.70001H10.1H10.5H10.8H10.9H11.1H11.2H11.3H11.4H11.6L11.8 0.899994H12H12.1L12.3 1H12.4M12.4 1V0.899994M12.4 1V1.10001L12.5 1.39999V1.5V1.60001V1.7V1.8V1.89999V2H12.6L12.7 1.89999H12.8H12.9H13H13.1H13.2H13.3H13.4L13.5 2.10001V2.2V2.3L13.6 2.2H13.7H13.8V2.3V2.39999V2.5V2.60001L13.9 2.8V2.89999V3V3.10001H14V3.2V3.3V3.39999H14.1V3.5V3.60001H14.2V3.7L14.3 3.8L14.4 3.89999L14.5 4H14.6V4.10001H14.7H14.8V4.2H14.9H15L15.1 4.3L15.2 4.39999H15.3L15.5 4.5V4.60001H15.6L15.7 4.7H15.8V4.8H15.9V4.89999L16 5V5.10001V5.2L16.1 5.3V5.39999V5.5V5.60001H16.2L16.4 5.8L16.5 5.60001V5.39999L16.1 4.60001L15.9 4.5V4.39999V4.3H15.8V4.2V4.10001L15.9 4V3.89999L16 3.8H16.1L16.2 3.7H16.6L16.7 3.8H16.9L17.1 3.89999L17.3 4L17.4 4.10001H17.5H17.7H17.8L17.9 4V3.89999V3.8H18V3.89999L17.9 4.2H17.8L17.9 4.60001L18.1 4.7H18.5H19L19.4 4.8H19.8H20L20.4 4.89999H20.5V4.8H20.6H21.1L21.4 4.89999H21.9H22.1V4.7V4.60001H22.2V4.39999L22.3 4.3L22.4 4.2V4.10001V4H22.5V3.89999V3.8V3.7L22.6 3.60001V3.5H22.7L22.8 3.39999H22.9H23H23.1L23.2 3.3H23.3H23.4V3.2H23.5L23.6 3.10001H23.7L23.8 3H23.9L24 2.89999H24.1M24.1 2.89999V2.8M5.20001 8.60001V8.5V8.39999H5.10001V8.3V8.10001V8H5.20001V8.10001L5.39999 8.2H5.5H5.60001H5.70001H5.79999H5.89999H6V8.10001H6.10001V7.89999H6.20001V7.8H6.29999L6.39999 7.89999V8L6.5 7.89999V8V8.10001V8.3L6.79999 8.39999V8.5V8.60001V8.7V8.8V8.89999H6.70001L6.5 9H6.39999H6.29999V8.89999H6.20001H6.10001M5.20001 8.60001H5.29999V8.7M5.20001 8.60001L5.29999 8.7M5.20001 8.60001V8.7H5.29999M5.29999 8.7L5.5 8.8M5.5 8.8H5.39999M5.5 8.8V8.89999H5.60001H5.70001H5.79999H5.89999V9H6H6.10001L6 8.89999H6.10001M6.10001 8.89999V8.8" stroke="white" stroke-width="0.5" stroke-linecap="round" stroke-linejoin="round"/>
</g>
</svg>
