<svg width="210" height="116" viewBox="0 0 210 116" fill="none" xmlns="http://www.w3.org/2000/svg">
<g id="UA35">
<path d="M2 80.1V80L1.89999 79.8L1.79999 79.7L1.70001 79.5H1.60001L1.70001 79.4H1.60001V79.3H1.70001V79.2H1.60001V79.1V79L1.5 78.8H1.60001V78.7L1.70001 78.6V78.5H1.79999V78.3L1.89999 78.2V78.1L2 77.9L2.10001 77.6V77.5L2 77.3L1.89999 77.1V77L1.70001 76.8L1.5 76.5L1.70001 76.3H1.79999L1.60001 75.9L1.5 75.6V75.5L1.60001 75.3L1.39999 75.2L1.29999 75.1L1.20001 75H1.10001L1 74.9H0.899994L1 74.8H0.899994V74.7V74.6V74.5H0.700012V74.4V74.2V74.1L0.399994 74L0.5 73.9V73.7V73.5V73.3H0.600006H0.700012H0.799988H0.899994L1 73.4V73.5H1.10001V73.4L1.20001 73.3V73.2H1.29999L1.5 73.1V73L1.60001 72.9L1.39999 72.6V72.5H1.5H1.60001V72.4V72.3H1.70001V72.2H1.60001L1.70001 72.1H1.79999H1.89999H2.10001V72V71.8L2.20001 71.2V70.9L2.39999 71H2.70001H2.89999L3 70.8H3.20001V70.7V70.2V69.9V69.6V69.5L3.60001 69.7L3.70001 69.6V69.5H3.60001V69.4H3.5V69.3H3.39999L3.29999 69.2V69.1V69V68.9V68.8V68.7V68.6H3.20001L3.10001 68.5V68.4L3 68.3H2.89999H2.79999H2.70001L2.60001 68.2L2.5 68.1L2.39999 68L2.29999 67.9L2.70001 67.6L4.10001 66.5L4.89999 65.8L5.89999 64.9L6.5 64.5V64.4H6.60001V64.3L6.5 64.2V64.1H6.39999V64H6.29999V63.9V63.8L6.20001 63.7L6.29999 63.6L7.20001 63.3L7.29999 63.5L7.60001 63.3L8.39999 62.8V62.7L8.70001 62.5L9.29999 62.4L9.39999 62.3V62.4V62.5V62.6L9.60001 62.5L9.79999 62.4V62.3L10 62.2L10.1 62.1L10.2 62L10.6 61.8L10.5 61.6L10.8 61.5V61.4V61.3L10.7 61.2V61.1V61V60.9H10.8H10.9L11.1 61H11.3L11.4 60.6V60.4L11.5 60.2V60.1H12.1H12.7H13H13.2L13.1 59.7L13.9 59.6L14.6 59.5L15.5 59.3H15.6V59.4L15.8 59.5L16 59.6L16.2 59.7V59.8L16.3 59.9L16.5 60.1V60.2L16.7 60.4H16.8L16.9 60.5H17H17.1V60.6H17.2H17.3V60.8V60.9L17.4 61.1L17.5 61.3H17.6L17.7 61.4H17.8H17.9L18.2 61.5L18.5 61.6L18.6 61.7H18.7H18.8L18.9 61.6H19L19.2 61.5V61.4H19.1V61.3V61.2V61.1V61H19.2L19.3 60.8L19.5 60.9V60.8H19.6L19.7 60.7V60.6V60.4V60.3H19.8H19.9H20L20.4 60.1V60V59.9L20.5 59.8V59.7H20.6V59.6V59.5H20.7V59.4V59.3H20.8L21 59.1L20.9 59H20.8V58.8L20.7 58.7V58.6V58.5V58.3V58.2L21 58L21.1 57.9L21.3 57.7L22.1 58.2L22.9 58.7L23.7 59.2H23.8L24.2 59.5L24.7 59.3H24.9L25.5 59.1L26 58.8V58.2V58L25.9 57.7V57.6L26.5 57.5L28 57.2L28.4 57.1H28.6L28.7 56.9L29.1 56.6L29.5 56.4L30.5 56.2L30.6 56.1H30.8H30.9L31.3 56H31.4H31.6H31.9H32.4H32.6V55.6V55.4V55V54.9V54.8V54.7L32.8 54.3L32.9 54L33 53.7L33.1 53.4L33.2 53.1L33.3 52.7L33.4 52.4L34.3 52.1H34.4L35.2 51.8L35.8 51.7H35.9H36L36.2 52L36.6 52.4L36.9 52.8L37 52.9L37.1 53H37.2H37.3H37.4L37.5 53.1H37.6V53L37.7 52.9L37.6 52.7L37.9 52.8H38H38.3H38.4V53V53.1H38.6V53L38.7 52.8H38.9L39 52.9H39.1H39.5V53H39.6V52.9L39.7 53H39.8V52.9H39.9H40H40.2V52.8H40.3V52.7V52.6L40.6 52.7L41.7 52.9V52.8L41.8 52.1L41.7 52H41.5L41.6 51.7L41.7 51.2L41.8 51H41.7L41.6 50.9H41.5L41.4 50.8H41.3L41.2 50.7L41.5 50.4L41.7 50.1L41.9 50L41.5 49.6L41.1 49.3L40.6 48.9L40.5 48.8V48.9L40.1 48.6L39.8 48.3L39.9 48.1L40.3 47.4L40.8 46.4L40.9 46.3H41L41.5 46.1L42 46L43.2 45.6H43.3V45.5V45.4V45.3V45.2V45.1V45V44.9L43.4 44.8V44.7V44.6V44.5V44.4V44.3V44.2H43.5V44.1H43.6V44V43.9V43.8H43.7H43.8V43.7L43.9 42.9L43.4 42.8L43.2 42.5L43.1 42.3L43 42.1L42.6 41.6L42.3 41.4L42.1 41.2L42.2 41.1H42.3H42.4H42.5H42.6H42.7V41L42.9 41.2H43H43.1H43.2H43.4L43.8 41.3L44.1 40.7L44.3 40L44.5 39.7L44.8 39.8H45H45.1L45.2 38.8H45.3L45.6 38.7L47.6 37.9L48.3 37.6H48.4L48.9 37.9L49.4 38.1H50.2H50.5H50.8H50.9H51V38L51.1 37.4L51.3 37.5L51.7 37.7L52.4 37.9L53.6 38.4L53.8 38.1L54 37.5H54.1L54.2 37.6H54.3H54.4V37.7V37.8H54.5V37.9L54.6 38V38.1H54.7V38.2L54.8 38.3V38.4H54.9V38.5V38.6L55 38.7V38.8V38.9H55.1V39H55.3V38.9L55.4 39L55.5 38.9L55.6 38.8H55.7H55.8H55.9H56H56.1H56.2H56.3H56.6L57 38.9H57.1H57.2L57.3 39L57.4 39.1V39.2V39.3H57.5L57.6 39.4L57.7 39.3H57.8H57.9L58 39.2V39.3H58.1L58.2 39.2H58.3V39.1H58.4V39L58.3 38.9V38.8V38.7H58.2V38.6V38.5V38.4L58.3 38.3V38.2H58.4V38.1H58.5V38H58.6H58.7H58.8H58.9H59V38.1H59.1H59.2H59.3H59.4H59.5H59.6H59.7H59.8H59.9H60V38H60.1H60.2V38.1H60.3H60.4H60.5L60.6 38.2H60.7V38.3H60.8V38.2V38.1V38V37.9V37.8H60.7V37.7L60.6 37.6V37.5V37.4V37.3V37.2H60.7V37.3H60.8H60.9H61H61.1V37.4H61.2H61.3H61.4V37.5H61.3V37.6H61.4V37.7H61.5V37.8V37.9H61.6L61.7 38H61.8V38.1H61.9V38H62V38.1H62.1H62.2H62.3V38H62.4H62.5H62.6V37.9H62.7H62.8H62.9V37.8H63H63.1H63.2H63.3V37.9V38V38.1H63.4V38.2H63.5V38.3H63.6V38.4H63.7H63.8L63.9 38.3V38.2H64H64.1H64.2H64.3V38.1H64.4H64.5V38H64.6H64.7L64.8 38.1H64.9H65H65.1V38.2H65.2L65.3 38.1H65.4H65.5V38.2H65.6V38.3V38.4V38.5H65.7V38.6V38.7H65.8L65.9 38.8H66V38.7H66.1V38.6L66.2 38.5H66.3H66.4V38.6H66.5V38.7V38.8H66.6V38.9V39V39.1H66.7V39.2H66.8H66.9H67V39.3H67.1V39.4V39.5H67V39.6V39.7H66.9V39.8V39.9H67V40H67.1H67.2H67.3H67.4V40.1H67.5H67.6H67.7V40.2L67.8 40.3H67.9H68V40.2V40.1L67.9 40V39.9L68 39.8H68.1V39.7H68.2V39.6H68.3V39.7H68.4H68.5H68.6V39.8H68.7V39.9V40V40.1H68.8V40.2V40.3V40.4V40.5H68.9H69H69.1V40.6H69.2H69.3H69.4V40.5H69.5V40.4V40.3V40.2V40V39.9L69.6 39.8V39.7H69.7V39.6H69.8H69.9V39.7V39.8H70V39.9H70.1V39.8H70.2V39.7H70.3V39.6V39.5H70.4V39.4V39.3H70.5H70.6V39.2H70.7H70.8V39.3H70.9V39.4H71H71.1V39.5V39.6V39.7H71.2V39.6L71.3 39.5V39.4H71.4V39.3V39.2H71.5V39.1V39H71.6V38.9H71.7V38.8V38.7H71.8V38.6L71.9 38.5V38.4H72V38.3V38.2H72.1V38.1H72.2V38H72.3H72.4H72.5H72.6V38.1H72.7H72.8H72.9H73H73.1H73.2H73.3H73.4H73.5V38.2H73.6L73.7 38.3H73.8V38.4H73.9H74V38.3H74.1L74.2 38.2V38.1V38V37.9V37.8V37.7V37.6H74.3L74.4 37.5H74.5H74.6H74.7V37.6H74.8H74.9H75L75.1 37.7H75.2H75.3H75.4V37.6H75.5H75.6H75.7L75.8 37.5H75.9V37.6H76H76.1H76.2V37.7H76.3V37.8V37.9V38L76.2 38.1V38.2L76.3 38.3V38.4H76.4V38.5V38.6V38.7V38.8H76.5V38.9H76.6V39H76.7H76.8L76.9 38.9V38.8H77V38.7H77.1H77.2V38.6H77.3H77.4H77.5H77.6H77.7V38.5H77.8V38.4V38.3H77.9H78V38.4H78.1H78.2H78.3H78.4V38.3H78.5H78.6H78.7V38.2H78.8V38.3H78.9H79V38.2H79.1L79.2 38.3V38.4L79.3 38.5V38.6V38.7V38.8V38.9H79.2V39H79.3V39.1V39.2H79.4V39.3V39.4H79.5H79.6V39.5V39.6H79.7V39.7H79.8L79.9 40V40.1L79.6 40.4H79.7H79.8H79.9H80V40.5V40.6H79.9L80 40.7H80.1V40.8H80.2H80.3H80.4V40.7H80.5H80.6V40.6H80.7H80.8H80.9H81H81.1H81.2V40.7H81.3H81.4V40.6V40.5V40.4V40.3V40.2H81.3V40.1V40V39.9V39.8V39.7V39.6H81.4H81.6H81.7V39.7H81.8H81.9V39.8V39.9H82V40H82.1H82.2V40.1V40.2V40.3V40.4V40.5H82.3H82.4H82.5L82.6 40.6H82.7H82.8H82.9V40.5H83V40.4H82.9V40.3V40.2V40.1V40L83 39.9H82.9V39.8H83V39.7V39.6V39.5H83.1V39.4H83.2H83.3V39.3V39.2V39.1H83.4V39H83.5L83.6 39.1H83.7V39.2H83.6V39.3V39.4V39.5L83.5 39.6V39.7H83.4V39.8L83.3 39.9V40V40.1H83.4V40H83.5L83.6 39.9L83.7 39.8H83.8L83.9 39.7H84V39.6L84.1 39.5H84.2V39.4V39.3L84.3 39.2V39.1H84.4V39V38.9V38.8H84.3V38.7V38.6H84.2V38.5H84.3V38.4H84.4V38.5H84.5H84.6H84.7V38.6V38.7V38.8L84.8 38.9L84.9 39V39.1V39.2V39.3L84.8 39.4L84.9 39.5V39.4H85L85.3 39V38.9L85.5 38.6H85.4L85 38H84.9L84.8 37.9L85 37.8L86.1 36.8L86.2 36.7L87 36.1L87.1 36L87.9 35.6H88L88.2 35.5L88.7 35.3L89.4 35L90.2 34.8V34.5L90.1 33.9L91 33.3L91.3 33.1L91.7 32.9L91.8 32.6L91.9 32.4H91.7L91.5 32.3L91.8 31.5L91.9 31.4V31.3V31.2L92.1 30.7L91.8 30.4L91.7 30.3L91.9 30.1L92.3 29.7H92.4L92.5 29.6L92.6 29.5V29.6H92.7H92.8V29.5L92.9 29.4V29.3H92.8V29.2V29.1H92.7L92.6 29H92.5V28.9H92.6V28.8H92.7V28.7L92.8 28.6L92.6 28.5L92.4 28.4V28.3H92.3L92.2 28.1L92.6 27.8H92.7L92.6 27.7V27.6H92.5V27.5H92.4V27.4L92.1 27.5L92.3 27.2L92.9 26.5L93.5 27L93.2 27.3L92.9 27.8L92.7 28L92.8 28.1V28.2V28.3V28.4L92.9 28.3H93V28.2H93.1H93.2H93.3L93.4 28.1H93.5H93.6L93.7 28H93.8V27.9V27.8L93.6 27.6L93.7 27.5L93.8 27.4L93.9 27.3L94 27.4L94.2 27.5L94.4 27.4L94.6 27.3L94.7 27.2L94.8 27.1V27H94.9H95.3L95.4 26.9H95.5L95.8 26.8V26.9V27L95.7 27.1V27.2H95.8V27.3V27.4H95.9H96H96.1H96.2V27.3H96.3H96.4H96.5H96.6H96.7H96.8V27.4H96.9H97H97.1H97.2H97.3H97.4H97.5H97.6H97.7H97.8V27.3L98 27.6L98.3 27.7L98.5 27.1L98.6 26.9V26.8V26.7L98.8 26H98.7L98.8 25.8V25.6L98.7 25.5V25.4L98.6 25.3L98.7 25.2L98.8 25.1L99.1 25L99.7 24.9H99.8L100.1 24.8L101.4 25.4L101.5 25.3L101.7 25.2L101.8 25.1V25L102 24.9H102.1H102.2V24.8H102.3V24.7H102.4H102.5H102.8L103 24.6H103.1L103.6 24.4H103.7L103.8 24.3V24.2L104 23.9L104.1 23.7V23.6L104.3 23.7L104.4 23.8L104.3 24L104.5 24.1V24.2L104.6 24.3V24.4H104.7H104.8L104.9 24.5L105 24.6H105.1V24.7H105.2H105.3H105.4L105.5 24.8L105.6 24.7V24.6L105.9 24.7L106.1 24.9L106.4 25L106.5 25.2H106.6L106.7 25.3H106.8L107 25.5L107.3 25.7L107.8 26V26.1L108.5 26.4L108.7 26.5H108.8H108.9L109 26.6H109.1L109.8 26.9V27L109.9 27.7L109.6 28.2L109.5 28.5H109.6L110 29L110.2 28.6L110.3 28.5V28.4H110.4V28.3V28.2H110.5V28.1V28V27.9H110.6V27.8H110.7H110.8V27.7H110.9V27.6H111V27.5H111.1V27.4L111.2 27.3V27.2V27.1L111.3 27H111.4H111.5H111.6V26.9L111.7 26.8L111.6 26.7H111.7L111.8 26.9L111.9 26.8L112 27L112.2 26.9L112.8 26.7L113.4 26.5L113.6 26.4L113.7 26.3L113.9 26.2L114 26.3H114.1V26.4H114.2H114.3V26.3V26.2H114.4V26.1H114.5H114.6V26L114.7 25.9V25.8V25.7L114.8 25.6L114.9 25.4H115L115.3 25.1H115.4L116 25.7H116.1H116.2L116.4 26.2H116.5L116.7 26.1L117.2 26L117.3 26.1V26H117.4L117.5 25.9H117.6H117.7L117.9 25.8H118L118.1 26L118.2 26.1L118.7 26V26.5L118.6 26.7V26.8H118.5H118.4L118.5 26.9H118.4V27H118.3V27.1L118.5 27H118.6L118.7 26.9L118.8 27H118.9L118.8 26.9H118.9V27.2L119.3 27.3V26.6L119.7 26.5H119.9H120.4H121.3L121.5 26.3L121.6 26.2V25.7V25.5V25.3V25.1V24.4L121.7 24.2V24.1V24L121.6 23.8V23.9L121.5 23.8H121.4V23.7V23.6H121.3L121.2 23.5H120.6L120.8 23.3L120.7 22.6L120.8 22.5V22.4L121.2 22.2H121.6L121.9 22.1H122L122.1 22V21.9H122.2H122.3H122.4H122.5H122.6H122.7H122.8H122.9L123 21.8V21.7V21.6V21.5V21.4V21.3L123.1 21.2V21.1V21V20.9H123.2V20.8V20.7V20.6L123 20.5V20.4L123.1 20.3L123.2 20.2V20.1V20H123.3V20.1H123.4H123.5H123.6H123.7H123.8V20.2V20.3V20.4L123.9 20.5H124V20.4H124.1H124.2H124.3H124.4H124.5V20.5H124.7L124.8 20.6L124.9 20.7L125 20.6L125.1 20.2V19.8L125.2 19.3L125.3 19.1L125.5 17.6L125.8 16.1L125.9 15.8L125.8 15.7V15.5V15.3V15.2L126 15H126.1H126.2H126.3V15.1V15.2H126.4H126.5H126.6V15.3H126.7H126.8L127 15.2V15.3L127.2 15.2V15.1V15L127.3 14.8V14.6V14.5H127.2L127.1 14.6H126.9V14.5V14.4V14.3L127 14.2L126.9 14.1H127V14V13.9V13.8H127.1V13.7L127.3 13.6V13.5H127.4H127.5H127.6L127.8 13.6H127.9H128L128.1 13.7H128.2H128.3L128.2 13.5V13.2L128.4 13.4V13.5L128.5 13.6L128.6 13.7H128.7H128.8H128.9V13.6H129V13.8V14.1H129.1L129.3 14H129.4L129.5 14.1H129.6L129.7 14L129.8 13.5L130.7 13.6H130.9L131.5 13.7V14.1L131.6 14L131.8 14.4L132.2 14.3L132.4 14.2L132.5 14.4L132.6 15.1L132.8 15.7L132.9 15.8V15.9V16L132.8 16.1V16.2H132.7H132.6V16.3V16.4H132.7V16.5H132.6V16.6V16.7L132.7 16.8V16.9H132.8V17H132.9H133V16.9H133.1V17V17.1L133.2 17.2V17.3H133.3H133.4H133.5V17.4H133.6H133.7H133.8V17.5H133.9V17.6H134L134.2 17.7H134.3H134.5H134.8H134.9H135V17.6L135.1 17.5L135.2 17.4V17.3L135.3 17.2V17V16.9H135.4V16.8L135.5 16.6H135.6L135.9 16.7L136.1 16.1L136.2 15.8L136.3 15.7V15.8L136.4 16V16.1H136.5V16.2V16.3H136.6V16.4H136.7V16.5V16.6V16.7L136.8 16.8H136.9H137V16.7H137.1V16.6H137.2V16.7H137.3L137.2 16.8V16.9H137.3H137.4V17H137.5H137.6H137.7V17.1L137.8 17.2L137.7 17.3H137.6H137.4L137.5 17.7L137.8 18.4V18.5V18.6H137.9V18.7L137.8 18.8V18.9V19V19.1V19.2L137.9 19.3H138L138.1 19.2L138.3 19.1L138.4 19L138.6 18.9V18.8H138.7V18.7H138.8H138.9L139 18.6V18.7H139.1H139.2V18.8H139.1V18.9V19H139L139.1 19.1V19.3V19.4V19.5V19.6L139 19.7V19.8H139.1V19.9H139.2V20V20.1H139.3V20.2L139.4 20.3V20.4H139.3V20.6V20.7L139.4 20.8V20.9H139.5H139.6L139.8 21V21.1V21.2L139.9 21.3V21.4V21.5L140 21.6V21.7V21.8H139.9L139.7 22L139.9 22.2L139.8 22.4H139.9V22.5V22.6H139.8L139.7 22.8V22.9H139.8V23V23.1H139.9V23.2V23.3H140H140.1V23.4V23.5L140.2 23.6H140.3V23.7L140.2 23.8L140.3 23.9V24L140.4 24.1L140.3 24.2H140.2L140.1 24.3L140.2 24.4H140.3V24.5L140.7 24.4H141.2H141.3H141.4L141.7 24.5L141.8 24.2V24.1H141.7V24H141.6V23.9H141.5V23.8H141.4V23.7V23.6V23.5H141.3L141.2 23.4L141.3 23.2L141.4 23.1L141.5 23V22.9H141.6L141.5 22.8H141.4L141.2 22.7V22.5L141.1 22.4V22.3H141.6V22.4H141.8H142V22.5L141.9 22.6H142L142.3 22.8L142.4 22.9L142.6 23H142.8L143.1 22.9V23.4V23.5H143.2H143.3V23.6L143.4 23.5H143.5V23.4L143.6 23.5V23.4H143.7V23.3L143.8 23.2H143.9V23.1L143.8 23V22.8H144.1L144.3 22.7H144.4L144.6 22.5L144.7 22.6V22.7V22.9L144.6 23.1V23.2H144.7L144.8 23.3H145.1L145.2 23.2H145.5H146.1H146.2V23.1V23H146.3V23.3L146.4 23.4L146.9 23.2V23.3L147.4 23.2L147.5 23.1V23H147.6V22.9H147.7H147.8H147.9V22.8H148V22.9H148.1V23V23.1L148.3 23H148.2V22.9L147.9 22.2L147.8 22.1L147.7 21.8L147.6 21.6L147.7 21.5L147.8 21.4V21.3V21.2V21.1L147.9 21H148V20.9H148.1L148.3 21.2L149.1 21.1V21.6L149.2 21.7L150.8 21.5L151 22.5L151.6 22.4L152.3 22.3L153.4 22.1L154.1 22V21.6L155 21.5L156.4 21.3H156.6L156.5 20.5L157.2 20.4H158V19.8H157.9H157.7L157.5 19.9H157.3H157.2L157 19.8L156.9 19.7L156.8 19.6V19.5H156.7V19.4L156.6 19.3V19V18.9V18.8L156.5 18.9L156.4 19L156.3 19.1H156.2H156.1H156H155.9H155.8L155.7 18.9L155.6 18.7V18.6L155.7 18.5H155.8L155.9 18.6H156L156.1 18.7V18.6V18.5H156.2H156.3V18.3H156.2V18.2H156.3V18.1H156.2V18H156.3V17.9H156.4L156.5 17.8V17.6H156.2L156.1 17L156 16.5V15.9L155.9 15.4L155.8 14.6L155.5 14.4L155.1 14.2L155 14.1V14H155.1L155.2 13.9L155.4 13.8L156.8 13L157.4 12.8V12.7L158 12.6L158.8 12.4H158.9V12.3L159 12.2V12V11.8V11.3L158.9 11.1L158.8 10.4L156.9 9.79999L155.4 9.39999L153.7 8.89999L153.2 8.70001L153.1 8.60001L152.9 8.5L152.6 8.29999L152.4 8L152.3 7.79999V7.70001L152.2 7.5V7.39999V7.29999V7.20001V7.10001V7V6.89999L152.4 6.79999L152.6 6.70001L152.7 6.60001L152.8 6.5V6.29999V6.10001L152.9 5.79999L153.1 5.39999L153.5 5L153.8 4.60001L154.3 4.10001L154.6 3.70001L154.7 3.60001L154.8 3.39999L155.1 3.10001L155.5 2.89999L155.8 2.70001L156.1 2.5L156.3 2.29999L156.7 2L156.8 1.89999L156.9 1.70001L157.1 1V0.799988H157.2L157.7 1.10001L158.8 1.60001L160 1.70001H160.4H160.5L160.7 1.79999H160.8L161 1.70001H161.1L161.2 1.60001H161.3H161.4L161.6 1.5L162 1.20001L162.2 1.10001H162.3L162.5 1L162.8 0.899994H162.9H163L163.3 1L163.4 1.10001L163.5 1.20001H163.6V1.29999L163.7 1.39999V1.60001L163.8 1.70001V1.89999V2.10001V2.29999V2.39999L163.7 2.60001L163.6 2.79999V2.89999L163.5 3.10001V3.20001V3.39999L163.6 3.5V3.70001L163.7 3.79999L163.9 3.89999L164 4.10001H164.1L164.5 4.20001L164.9 4.39999L165.3 4.60001L165.4 4.70001L165.6 5.20001L165.8 5.39999L165.9 5.5L166 5.60001H166.1H166.4L166.6 5.5H166.9L167.1 5.60001H167.3L167.9 5.39999H168.3H168.4L168.5 5.5H168.7L168.9 5.60001L169.1 5.70001H169.4H169.6H169.7L169.8 5.79999L170 5.89999L170.2 6.20001L170.3 6.39999L170.4 6.5V6.60001V6.79999V6.89999L170.5 7V7.10001L170.6 7.20001L170.9 7.39999L171 7.5V7.60001L171.2 7.89999L171.5 8.5L171.8 8.89999L171.9 9.10001L172.2 9.39999L172.3 9.60001L172.4 9.70001V9.79999V9.89999L172.3 10L172 10.3V10.4V10.5L172.3 10.8V11L172.4 11.2V11.4L172.3 11.8L172.2 12V12.1L172.3 12.2V12.3L172.4 12.4H172.6L172.7 12.5L172.8 12.4H172.9L173.4 12.3H173.5H173.7H173.8L173.9 12.4L174.3 12.9L174.4 13L174 13.4V13.5L174.2 13.6H174.3V13.7L174.4 14L174.5 14.1H174.6H174.7H174.9H175L175.1 14L175.2 13.9L175.6 13.8H175.7V13.7V13.3L175.8 13.2H175.9L176 13.3L176.2 13.4L176.6 13.7H176.7H176.8V13.6L176.9 13.2V13.1V12.8V12.7V12.5V11.8V11.7V11V10.8V10.2V10.1V9.70001V9.5V9.39999V9.10001V9V8.79999V8.70001V8.60001V8.5V8.39999L176.8 8.20001V8L176.7 7.89999V7.70001L176.6 7.5L176.5 7.20001V7.10001V7L176.4 6.89999H176.5L176.7 7.10001L176.8 7.20001L177.1 7.5L177.2 7.60001L177.5 7.89999L177.6 8L177.7 8.10001L177.8 8.39999V8.5V8.60001V8.70001L177.9 8.89999V9.5L178.2 9.39999L178.3 9.5L178.4 9.70001L178.7 10V10.1L178.8 10.2L178.9 10.3L179.1 10.4L179.4 10.5L179.8 10.6L179.5 11.1L179.4 11.4L179 12.3H178.9H178.8H178.7H178.6H178.5H178.4L178.3 12.2V12.3H178.2L178 12.4H177.9L177.8 12.5H177.7L177.6 12.7H177.7H177.8H177.9H178H178.1L178 12.8V12.9L178.1 13H178.2H178.3H178.4H178.5V13.1V13.2L178.4 13.3V13.4L178.9 13.3H179.2H179.3L179.5 13.5L179.9 13.7L179.6 14.3V14.4L179.5 14.5V14.6V14.7L179.6 14.8L179.7 15L179.8 15.1L180.2 15.6L180.4 16.1V16.2V16.3V16.5H180.5L180.6 16.4L180.7 16.5V16.6V16.7L180.8 16.8L180.9 17.1L181 17.2L181.2 17.6L181.3 17.7L181.2 17.8H181.1H181L180.9 17.9L180.8 18L180.7 18.1L180.6 18.2H180.5L180.4 18.3H180.3L180.2 18.4H180.1V18.5L180 18.6V18.7H179.9V18.8H179.8L179.7 18.9H179.6H179.5V19.2V19.1H179.4V19.2V19.4L179.6 19.8L179.7 20L179.8 20.2L180 20.6L180.1 21H180.2V21.1V21.2H180.1L180.4 21.8L180.6 22.2L180.8 22.7L180.2 23L180.4 23.3L180.5 23.7L181.1 23.5L181.2 23.7L181.7 23.4L182 23.3H182.1H182.2V23.5V23.7L182.3 23.8L183.3 24.5L184.5 25.3L184.7 25.4V25.3L184.6 25V24L184.5 23.5V23.4L184.6 23.3L184.8 23.1L184.7 22.9L184.9 22.7L185.1 23H185.2H185.3H185.4H185.6L185.8 23.2V23.3L185.7 23.6L185.6 23.5L185.4 23.4V23.5L185.6 23.6L185.7 23.7L185.9 23.5H186L186.1 23.4L186.2 23.1L187 23.2H187.1L187.3 23.3L188.3 23.4L188.4 23.5L188.2 24.5L188.5 24.8L188.3 26.4H188.4V26.3H188.5V26.2H188.6V26.3H188.7H188.8H188.9V26.2V26.1L189.1 25.9V25.8H189.2L189.3 25.7H189.4H189.5V25.4L190.4 25.2L191.5 25L191.7 26H191.8H191.9H192V26.5H192.2H192.3L192.4 26.4H192.5L192.7 26.5L193.4 26.6V26.5V26.4V26.3H193.1L193 26L193.7 25.9L193.8 26.2L194.1 26.1L194.5 25.5L195 24.7L195.2 24.5L195 24.4L194.7 24.2V24.1H194.8L194.9 23.9L195 23.6L195.3 23.8L195.7 23.2V23.1L196.5 22.7V22.6V22.5V22.4V22.3L196.6 22.1V21.9V21.8L196.9 21.6L197.1 21.5H197.4H197.7L197.8 21.4H197.9H198L198.1 21.9L198.3 22.2L198.5 22.7L198.6 22.8L198.7 23L198.8 23.1V23.2H198.9H199V23.3H199.1L199.2 23.4L199.3 23.5V23.7L199.4 23.8L199.6 23.9H199.7L199.8 24L200.2 24.3L200.3 24.4H200.5H200.6H200.7L201 24.3H201.1H201.2H201.4H201.6L202.1 24.1H202.2L202.6 24H202.7H202.8L203.1 24.1L203.3 24.2L203.5 24.3H203.7L204 24.4H204.2H204.3H204.4H204.5H204.6H204.8H205H205.1L205.3 24.5L205.7 24.6L205.9 24.7H206L206.4 24.9L206.6 25.1L206.7 25.2L206.8 25.3L207 25.5L207.4 26L207.8 26.3L207.9 26.4L208.1 26.5L208.3 26.7L208.5 26.8L208.7 26.9H208.9L209.1 27L209.2 27.1H209.3L209.5 27.3V27.4L209.4 27.7L209.3 28.2V28.3V28.4V28.6L209.2 28.9V29L209.1 29.4L209 29.8L208.9 30L208.8 30.7L208.6 31.4L208.5 32H208.4L208.3 32.1H208.2H208.1H208V32.2H207.9L207.8 32.9L207.5 33.9L207.4 34.6L207.3 34.9H207.2L207.3 35.7V35.8L207.4 36.3V36.4V36.6V36.7V36.9V37.1L207.3 37.2V37.3L207.2 37.4H207.1H207H206.8H206.7H206.6L206.4 37.5H206.3V37.4V37.3H206.2V37.2V37.1H206.1L206 37H205.9H205.8L205.7 36.9V36.6H205.6V36.5V36.4V36.3V36.2L205.5 35.9V35.8V35.7V35.6V35.5L205.4 35.4V35.2V35.1L205.3 34.9H205.2L204.9 35H204.8H204.7H204.6H204.5L204.4 35.1V35.2V35.3V35.4V35.5V35.6H204.3H204.1H203.9L203.7 35.7H203.5H203.4L203.3 35.6V35.5V35.4V35.3V35.2L202.8 35.3V35.4H202.5L202.2 35.5H202.1V35.6L202 35.8H201.9V35.9V36H201.6L201.2 36.1H201.1H201L200.9 35.6V35.2L200.8 35V34.9V34.8L200.7 34.4L200.4 34.3V34.2V34.1H200.1H200H199.9L199.4 34.4L199.2 34.5L199.1 34.3L199 34.1L198.9 34H198.7H198.6L198.5 33.9L198.4 34V34.1H198.3V34.2H198.2V34.3V34.4L198.1 34.5V34.6H198V34.7L197.9 34.9L197.8 35V35.1L197.7 35.2V35.3V35.4H197.6V35.5V35.6L197.5 35.7H197.4H197.2L197.1 35.8L196.6 35.9H196.4H196.1V36H195.9L195.6 36.1L195.5 35.6L194.9 35.7L194.8 35.2L194.5 35.3L193.8 35.4L193.9 35.9V36.1L194 36.5V36.7H193.9H193.8H193.6V36.9L193.7 37.7L193.8 37.8V37.9L193.9 38.2L194 38.4H193.9V38.5V38.6L194 38.7H194.2V38.9L194.3 39.1L195.1 38.8L195.3 39.6L195.4 40L195.5 40.1V40.4L195.6 40.6L195.7 40.7H195.9H196V40.8H196.1H196.2L196.4 40.9H196.5H196.7L197.2 40.8V41.2L197.5 41.1H197.8L198.2 41H198.8L198.9 41.1L199.3 41.4L199.4 41.6H199.5L199.7 41.8L200 42.1L200.2 42.4L200.3 42.5L200.4 42.6L200.5 42.7L200.7 42.8V42.9L201 43.1L201.2 43.3L201.3 43.4L202 43.3H202.1V43.6L202.2 44.1L202.3 44.2H202.6L203.1 44.1L203.4 44H203.5H203.6L204.2 43.9L204.4 43.8L204.9 43.7H205V43.8V44.3V44.7L204.9 45.6L203.4 45.9L202.7 46H202.5L202.6 46.3V46.4L202.7 46.6V46.8H202.8H202.9V47.1H202.7L202.8 47.8L202.9 48.1V48.3V48.4L202.8 48.5H202.7H202.6V48.6H202.5H202.4V48.7L202.3 48.8H202.2H202.1L202 48.9H201.9V49V49.1H202V49.2H201.9V49.3L201.8 49.2H201.7L201.6 49.1H201.5L201.4 49.2V49.3H201.3V49.2L200.8 49.3V49.4L200.7 49.5H200.6H200.5L200.1 49.7L200 49.8L199.7 49.9L199.4 50.2L199 50.5L198.8 50.7L198.2 51.2L197.7 51.5V51.4L197.6 51.5L197.5 51H197.3L197.2 50.4H197L196.8 50.5L196 50.6V50.2L195.8 50.3L195.2 50.4H195.1V50.5L195.2 50.6V50.7L195.3 51V51.1L195.6 52V52.2L195.8 52.9V53L195.5 53.1L194.2 53.5L194 52.4L193.9 52.2L193.3 52.3L192.4 52.4L191.4 52.6L190.7 52.7H190.5L190.1 52.8L190.2 53.3V53.5L189.8 53.6V53.4L189.4 53.5L188.7 53.6L188.8 54V54.3V54.4L188.2 54.6L188.4 54.8L188.5 55.1L188.6 55.2V55.3H188.4L188.2 55.4L188.1 55.5L188.2 56.1L188.3 56.8V57.2L188.5 58.2V58.8L188.6 59.2L188.7 59.7V60.3L188.8 60.5V60.9L188.9 61.5L189 62.1V62.5L189.1 62.6V62.7V62.8L189 63.5V63.6V63.8V64V64.4V64.7V64.9L188.9 65.1V65.3H189.4L189.5 66.1H189.1H189H188.9V66.3L188.8 66.6H188.4H188.3V66.7H188.2V66.8V66.9L188.1 67.5V67.8H188.3L188.4 67.9L188.1 68.3L187.6 68.8V69L187.7 69.5H188.4H188.6L188.5 69.7L188.4 70.6L188.3 71.2L188.5 71.3V71H188.6H188.8H188.9H189L189.1 70.9H189.3H189.4H189.5H189.6L189.7 70.8H189.8H189.9H190L190.1 70.9H190.2L190.3 71H190.4L190.5 71.1V71.2V71.3L190.4 71.5V72L190.3 72.1L190.2 73.1L190.1 73.7L190.4 73.8V73.9L190.5 74.2V74.3V74.4H190.6V74.5H190.5V74.6H190.4V74.7V74.8H190.3V74.9L191.1 75L191.2 75.4L191.3 76L191.4 76.6V76.8H191.6L191.7 77V77.1L191.9 78L192 78.1V78.2L191.7 78.3L191.6 78.4V78.5V78.6V78.7L191.4 78.9L191 79.1L190.9 79L190.7 79.1V79.2L190.3 78.5H190.2L189.7 78.4L189.6 78.7V78.8V78.9L189.5 79.5L189.1 79.7H189H188.9H188.8L189.2 80.2L189.5 80V80.2V80.4L189.4 80.5V80.6L188.5 80.8L188.6 81.2L187.8 81.3L186.8 81.5L186.1 81.6V81.7L186 81.8V81.9V82V82.2L186.2 83H186.1L185.7 83.1L185.5 83.2H184.9L184.4 83.3L184 83.4H183.6L183.5 83.5V83.6H183.4H183.3H183.2H183.1H183H182.9H182.8H182.7L182.6 83.5V83.6H182.5V83.7L182.4 83.8V83.9H182.3H181.4L180.4 84H180.3L180.4 84.3V84.4H180L179.5 84.5L179.1 84.6L179.2 84.8L179.3 84.9L179.4 85.2L179.7 85.8L179.9 86.2H180.3V86.3L180.4 86.4V86.5V86.6V86.7L180.3 86.8V87H180.2H180L179.9 86.9H179.8H179.7H179.6V87V87.1V87.2V87.3V87.4V87.5H179.4V87.7L179.3 87.9V88H179.2V88.1V88.2H179.1H178.8L178.4 88.1L178.2 86V85.9L178.1 85.5L178.3 85.4V85.2L178.1 84.3L176.9 84.5L176.8 84L176.7 82.9H176.3L175.9 83L175.1 83.1L175.2 83.7L175.3 84L175.4 84.7H175.5L175.9 84.6V84.9V85.2L176 85.5V85.7V85.8L176.1 86.1V86.3V86.4H176H175.9L175.4 86.5V86.7H175.2L174.5 86.8L173.8 86.9L173.6 87V87.2V87.4L173.7 87.6V87.9V88H173.8H173.9L174.7 87.9L175.4 87.8H175.6L175.5 87.2H175.7V87.4L176.3 87.3L176.4 87.8L175.6 87.9L175.7 88.9L174.9 89.1H174.8L173.9 89.2L173.5 89.3L173.1 89.4H173V89.5H172.6L172.1 89.6L172.2 89.9V90H172.1L171.9 90.1H171.6L171.7 90.8H171.9V91.1L172 91.3V91.6V91.9L172.2 92.7L171.9 92.8L171.8 92L171.7 91.3V91.2L171.6 91.1H171.2L170.8 91.2H170.6L170.4 91.3H170.2V91L169.7 91.1L169.8 91.2V91.3V91.4V91.5H169.7V91.6L169.6 91.7L169.7 91.8V91.9V92V92.1V92.2V92.3V92.4H169.8V92.5L169.9 92.6L170 92.7H169.9H169.8L169.6 92.8H169.2H169.1L168.1 93L167.8 93.1H167.5L167.2 93.2H166.9L166.5 93.3H166.4H166.2L166.3 93.4V93.5H166.2H166.1V93.6H166L166.1 93.9V94V94.1V94.3H166.2V94.7V94.8V94.9V95H166.1H166V95.1H165.9L165.6 95.2V95.3V95.4H165.7V95.5V95.6V95.7L165.6 95.8V96.3L165.5 96.4V96.5V96.8L165.6 96.9V97H165.7V97.1H165.6H165.5L165.3 97H165.2L165.1 96.9H165L164.9 96.8H164.8V96.7H164.7H164.6V96.6L164.5 95.8L164.3 94.8L164.2 94.1L164 93L163.9 92.3L163.5 92.4L163.1 92.7L162.8 92.8L162.6 92.9L162.3 93.1L162.1 93.2H162L161.8 93V92.9L161.7 92.8V92.7H161.6V92.8H161.5L161.1 92.9H161L160 93.1L160.2 93.5L159.1 93.7L158.5 93.8L158.4 93.4V93.3L157.9 93.5L158 94.1H158.1V94.2H158.2H158.3V94.3H158.4H158.5L158.6 94.4L158.7 94.7V94.9L158.8 95.6L159.1 97H158.7L158 97.2H157.7V97.1L157.6 97H157.5L156.9 97.1L156 97.3H155.9L155.6 97.4L155 97.5H154.9L154.8 97.8L154.7 97.7H154.6L154.4 97.8V97.4V97.3H154.2L154.1 97.2V97V96.8L154 96.4H153.8L153.5 96.5H153.3H153.2H153.1L153 96.6H152.6H152.5L149.8 97.1L148.7 97.3L148.8 97.4V97.9L148.9 98.5L149 98.9L149.1 99.7V99.9L151.1 99.5L151.2 99.6V99.7V99.8V99.9V100L151.1 100.1L151.2 100.2L151.3 100.3V100.4L151.4 100.5L151.5 100.6V100.7V100.8V100.9H151.6V101L150.8 101.1L150.2 101.2L149.5 101.3L149.1 101.4H149L148.7 101.5H148.6L147.9 101.6L146.9 101.8H146.8L146.9 102.4L147 102.8L147.1 103.1L147.4 103H147.7L148.1 102.9L148.2 103.5V103.7V103.8L148.3 103.9V104V104.1L148.4 104.3L148.5 105.5L147.5 105.6L147.6 106.2L147.7 106.7V106.8V107L147.9 106.8L148 106.6V106.7L148.1 106.8V106.9L148.2 107L148.1 107.1L148 107.5L147.9 107.7L147.8 107.8L147.5 108L147.2 108.7L147.1 108.8V109V109.4L146.7 109.5L145.9 109.7H145.5H145.4V109.8L145.5 109.9L145.3 110L144.8 110.1H144.3V110.2H144.2H143.9L143.4 110.3L142.9 110.4H142.8L142.6 110.5L141.6 110.6L141.1 110.7L139.8 111L139.2 111.1H139L138.3 111.2H138.1L137.9 111.3H137.7L137.6 111.4H137.4H137.3H137L136.8 111.5L136.4 111.6H136.2H136L135.9 111.7H135.8H135.7H135.6H135.5L135.4 111.4V111.2V111V110.9H135.3V110.8H135.2H135.1V110.9V111H135V111.1H134.9H134.8V111.2H134.7H134.6H134.5V111.3H134.4H134.3H134.2H134.1L134 111.2V111.1V111H134.1H134.2V111.1H134.3V111V110.9H134.2H134.1H134H133.9V111H133.8H133.7V111.1H133.6H133.5V111L133.4 111.1H133.3H133.2H133.1L133 111.2L132.9 111.3V111.4L132.7 111.3H132.6V111.4V111.5H132.5V111.6V111.7L132.4 111.8H132.3H132.2V111.7H132.1L132 111.6H131.9V111.5H131.8V111.4H131.7V111.3H131.6L131.5 111.2L131.4 111.1V111H131.3H131.2H131.1V110.9H131V110.8H130.9L130.8 110.7V110.6H130.7L130.6 110.4V110.3H130.5V110.2V110.1V110V109.9H130.4H130.3V109.8H130.2V109.9L130.1 109.5V109.6H130H129.9L129.8 109.5H129.7V109.6H129.6V109.5H129.5H129.4L129.5 109.4H129.4V109.3H129.3V109.2H129.2H129.1L128.8 109.3H128.7H128.5L127.8 109.5H127.4L126.6 109.7L126.3 109.8H126H125.9V110.1L126 110.5V110.9L126.1 111.4H125.8L125.2 111.6L125.3 111.9L125.4 112.5L125.5 113.1L125.6 113.9L125.1 114L124.5 114.1L123.9 114.3L123.3 114.4L122.8 114.5L122.3 114.6H122.1H122V114.5V114.4L121.9 114.1V113.9H121.8H121.7V114H121.8V114.1H121.7V114.2V114.3H121.6H121.5V114.4H121.4H121.3V114.5H121.4L121.3 114.6V114.7H121.2H121.1V114.8H121V114.7V114.6L120.9 114.5V114.4H120.8V114.3H120.7V114.2H120.8V114.1H120.5L120.4 114.2H120H119.9L119.8 114.1L119.7 113.5V113.1L119.6 112.7L119.5 112.1L119.1 112.2L118.5 112.3V112.2L118.4 112V111.7L118.3 111.3V111.2H118L117.8 110.4L117.7 110.5H117.3L117 110.6L116.9 110.4V110.2L116.8 110L116.7 109.6L116.2 109.7L116 109.8H115.6L115.3 109.9L114.9 110H114.7V109.9V109.8V109.7H114.6L114.5 109.8H114.4H114.3H114.2L114 109.9H113.9L113.4 110H112.9L112.7 110.1H112.5L111.9 110.2L112.1 111L112 111.1L111.2 111.2L110.6 111.3L109.8 111.5H109.4L108.5 111.7L107.6 111.9V112L107.1 112.1L106.5 112.2L105.8 112.3V112.2L105.7 112L105.6 111.5V111.4V111.2L105.5 110.8L105.4 110.5L105.3 110.2V109.7L105.5 109.6L106 109.5L106.6 109.4L107.2 109.3L107.3 109.2H107.4V109.1V109H107.5V108.9H107.4V108.8H107.3V108.7H107.2V108.6H107.1V108.5H107V108.4V108.3L106.9 108.2V108.1V108H106.7L106.6 107.6V107.5V107.3L106.9 107.2L106.8 107L106.7 106.5V106.3V106.2L106.8 106.1L108 106H108.3H108.4V105.9H108.5V105.8H108.4V105.7V105.6V105.5H108.3V105.4V105.3V105.2L108.2 105.1V105V104.9V104.8H108V104.7H107.9V104.4V104.2V104.1V103.9H108H108.1V103.8V103.7V103.6V103.5H108V103.4V103.3L107.9 103.2V103.1L107.8 103V102.9V102.8V102.7V102.6V102.4V102.3V102.2V102H107.7H107.6H107.5L107.2 102.1H107H106.9L106.8 102.2H106.7L106.5 101.1L106.3 100.2L106.2 99L106.1 98.6L105.9 98.7H105.7L105.4 98.8H105.3H105.2H105.1H105H104.9H104.8H104.7H104.6L104.5 98.9H104.4H104.3H104.2H104.1H104H103.9V99.1H103.8L103.6 99.2H103.3L103.2 99.3H103.1H103V99L102.9 98.9H102.8V99H102.7V99.1H102.8V99.2H102.7V99.3H102.6H102.5V99.4H102.6V99.5H102.5H102.4V99.6V99.7V99.8H102.3V99.9H102.2V100V100.1H102.1V100H102H101.9V100.1H101.8H101.7H101.6V100.2H101.5V100.1H101.4V100V99.4L101.3 99L101.2 98.6L101.1 98.2V97.9V97.7L101 97.4L100.9 96.9L100.8 96.4L100.7 95.4L100.6 94.9L100.5 94.2V94.1L100.4 93.8L100.3 93.5V93.2L100.9 93.1L102 92.9L102.2 92.8H102.3L103 92.7V92.6V92.5L102.9 92.2V92.1L102.8 91.7L102.7 91.1L102.6 90.5L102.5 90.1L102.4 89.3L102.3 88.7L102.2 88.2L101.2 88.4L100.7 88.5L99.9 88.6H99.6L99.5 88.7H99.4H99.3H99.2L99 88.8H98.9H98.7H98.6H98.5L98.4 88.3L98.2 87.3V87.1L98.1 87.2H98V87.1L97.9 87H98V86.9H98.1V86.8H97.8L97.2 86.9L96.8 87L96.2 87.1L95.9 87.2L95.8 86.8V86.5H95.7L95.6 86.3V86.2L95.5 85.7L95.2 85.8V85.7H95L94.9 85.8H94.6L94.1 86H94H93.9L93.7 86.1H93.4L92.9 86.2L93 86.6L92.9 86.7V86.8V86.9V87V87.1V87.2V87.4L93 87.9H92.9L92.7 88H92.6V88.1H92.5H92.4H92.3H92.2V88.2V88.3V88.4L92.1 88.3L92 88.2L91.9 87.8L91.7 87.6H91.6H91.5L91.2 87.7L90.8 87.8L90.9 88.1L91 88.9L91.2 90L91.3 90.5V90.6L90.9 90.7H90.6H90.2H89.3V90.9V91V91.1V91.2H89.4V91.3H89.3V91.4L89.2 91.5L89.1 91.7L89 91.8L88.9 91.9V92H88.8H88.7H88.6L88.4 92.1L88.3 91.7L88.2 91.2L88.1 91H87.7L87.3 91.1H87.2L87.3 90.3V90.2V90.1V90H87.4V89.9V89.8L87.5 89.7V89.6L88.1 89.5L88.7 89.3L88.6 89L88.5 88.6V88.5L88.3 87.4L88.1 86.4V86.1L87.7 86.2H87.3L87.2 86.3H87L86.2 86.5L85.2 86.7L84.6 86.8V86.9L84.7 87.5H84.6L84.2 87.6H83.9L83.7 87.7H83.5L83.4 87.3V87.2L83.3 87L83.2 86.4V86.3L83.1 86.1V86H83H82.9H82.8H82.7V86.1V86.2H82.6V86.3V86.4H82.5V86.5H82.4V86.6H82.3V86.7H82.2V86.8H82.1V86.9H82H81.9H81.8H81.7H81.6H81.5H81.4H81.3H81.2H81.1V87H81H80.9H80.8V87.1H80.7H80.6V87.2H80.5H80.4V87.3H80.3H80.2H80.1H80L79.9 87.2L79.8 86.3L79.7 85.5L78.8 85.9L78.4 86H78.3L77.5 86.3L77.1 86.5L76.4 86.7L75.8 86.9L75.4 87.1L75.3 86.4L75.2 85.8L75.1 85.2L74.9 84.2L74.8 83.7V83.6L74.6 83L73.7 83.2L73.5 83.1L73.4 82.9H73.3L73.2 82.8V82.7H73.1L73 82.6H72.9V82.5H72.8V82.4H72.7V82.3H72.6V82.2V82.1V82V81.9V81.8H72.7V81.7H72.8H72.9H73L73.1 81.6V81.5V81.4H73.2V81.3V81.2H73.1L73 81.1H72.9V81V80.9V80.8V80.7H72.8V80.6V80.5H72.7V80.4H72.6V80.3H72.5V80.2H72.4V80.1H72.3V80H72.2V79.9V79.8V79.7H72.1H72V79.6V79.5L72.1 79.4H72L71.9 79.3H71.8V79.2V79.1H71.7V79L71.5 79.1H71.1L70.6 79.2L70.5 78.8V78.6H70.3L69.9 78.7L69.1 78.8L68.2 79H68.1L67.5 79.1L66.6 79.2L66.4 79.3L66.3 78.8L66.2 78.3L65.6 78.5H65.4H65.2L65 78.6H64.8L64.4 78.7H64.3H64.2H64.1L64 78.8H63.9L63.3 79H63L62.6 79.1V79.3L62.7 79.8L62.8 80.3L62.9 80.9L63 81.2H62.9V81.3V81.5L63 81.7V82H62.9H62.8H62.7H62.6H62.5H62.4H62.3V81.9H62.2H62.1H62H61.9H61.8H61.7V82H61.6V82.1H61.5L61.4 82.2H61.3H61.2H61.1V82.1H61L60.9 82H60.8H60.7H60.6H60.5H60.4H60.3H60.2H60.1H60V82.1V82.2V82.3V82.4V82.5V82.6V82.7V82.8V82.9V83V83.1V83.2V83.3H59.9H59.8V83.2H59.7V83.1H59.6H59.5H59.4V83.2V83.3V83.4H59.3H59.2L59.1 83.5H59H58.9H58.8H58.7V83.6V83.7H58.6V83.8H58.5V83.9H58.4V83.8V83.7L58.3 83.6V83.5L58.2 83.4H58.1H58H57.9H57.8H57.7H57.6L57.5 83.5H57.4H57.3V83.6H57.2V83.7H57.1H57V83.6L56.7 83.7H56.4H56.2L56.1 83.3L56 82.7V82.4L55.9 82H55.6L55.4 82.1H55.2H55.1L54.8 82.2V82L54.7 81.7V81.6H54.6V81.5H54.5V81.6H54.4V81.7V81.8V81.9L54.5 82V82.1H54.4V82.2V82.3H54.3L54.2 82.4V82.5L54.1 82.6V82.7V82.8V82.9H54.2V83V83.1H54L53.4 83.2H53.1L53 82.7V82.5L52.9 82.4V82.3V82.2V82.1L52.8 81.7L52.7 81.4L52 81.5H51.8L51.5 81.6H51.1H50.9L50.4 81.7H50.3H50L49.4 81.8L49.3 81.6V81.4V81.3V81.2L49.2 81.1L49 81.2L48.6 81.3L48.3 81.4L47.9 81.6H47.8L47.6 81.7H47.4H47.3H47L46.7 81.8H46.6H46.4H46.1L46 81.9H45.8H45.7L45.8 82.1V82.3V82.4L45.9 82.5L46 82.7L46.1 82.8L46.2 82.9L46.1 83L45.7 83.1L45.5 83.2H45.4L45.2 83.3H44.9H44.6H44.5H44.4L44.3 83.4V83.5V83.6H44.4V83.7V83.8V84H44.3V84.1H44.2H44H43.9L43.8 84H43.5H43.2H43H42.9H42.8H42.7H42.6V84.1H42.4V84.2L41.7 84.1H41.1L41 83.7V83.6L40.9 83.5L40.8 83.4L40.4 83L39.8 82.5L39.7 82.3L39.6 82.4L39.4 82.7L39 83.3L38.6 83.8L38.5 84V83.9L38.4 83.8V83.7L38.3 83.6V83.5V83.4V83.3V83.2L38.2 83.1H38.1H38H37.9H37.8L37.7 83.2H37.6H37.5L37.4 83.3H37.3H37.2H37.1H37L36.9 83.4V83.5V83.6H36.8H36.7H36.6V83.5H36.5V83.4H36.4H36.3L36.2 83.3H36.1L36 83.2H35.9L35.8 83.1H35.7H35.6H35.5H35.4V83H35.3L35.2 82.9H35.1H35V83H34.9V83.1L34.8 83.2V83.3H34.7V83.4H34.6V83.5H34.5H34.4H34.3L34.2 83.6H34.1H34H33.9H33.8H33.7V83.5H33.6H33.5H33.4H33.2H33.1H33L32.9 83.4H32.8L32.7 83.3V83.2H32.6V83.1V83V82.9V82.8H32.5V82.7H32.4H32.3H32.2L32.1 82.8L31.9 82.7H31.8H31.7H31.6H31.5V82.8H31.4V82.9V83H31.3V83.1H31.2H31.1V83.2H31H30.9H30.8H30.7L30.6 83.3L30.5 83.4V83.5H30.4V83.6H30.3L30.2 83.7H30.1H30H29.9H29.8L29.7 83.8H29.6V83.9V84V84.1V84.2V84.3V84.4V84.5L29.7 84.6V84.7L29.6 84.8L29.4 85L29.3 85.1L29.2 85.2H29.1V85.3H29H28.9V85.2H28.8H28.7H28.6H28.5V85.1H28.4H28.3H28.2V85.2H28.1H28H27.9L27.8 85.3H27.7H27.6H27.5H27.4H27.3V85.2H27.2L27.1 85.1L27 85H26.9L26.7 84.9L26.6 84.8H26.5H26.4H26.3H26.2L26.1 84.9L26 85H25.9V85.1H25.8H25.7H25.6V85.2H25.5H25.4V85.3H25.3H25.2V85.2L25 85.1H24.8V85H24.7H24.6H24.5H24.4H24.3H24.2V84.9H24.1L24 84.8H23.9H23.8V84.7H23.7H23.6H23.5H23.4H23.3H23.2H23.1V84.6H23H22.9L22.8 84.5V84.4H22.7V84.3H22.6V84.2H22.5L22.4 84.3L22.3 84.4V84.5H22.2H22.1L22 84.6H21.9H21.8L21.7 84.7L21.6 84.8H21.5V84.9H21.4H21.3H21.2H21.1L21 85H20.9L20.8 85.1H20.7H20.6V85H20.5V84.9H20.4H20.3H20.2H20.1V84.8H20H19.9H19.8H19.7H19.6H19.5H19.4H19.3L19.2 84.9L19.1 85H19H18.9H18.8H18.7L18.6 85.1L18.5 85.2V85.3H18.4H18.3L18.2 85.2H18.1H18H17.9H17.8V85.1H17.7L17.6 85H17.5H17.4H17.3L17.2 84.9H17.1L17 84.8H16.9H16.8L16.7 84.9H16.6V85H16.5L16.4 84.9V84.8H16.3V84.7L16.2 84.6V84.5V84.4H16.1H16L15.9 84.5H15.8V84.6H15.7H15.6V84.5H15.5L15.4 84.4L15.3 84.2V84.1H15.2V84V83.9V83.8V83.7V83.6L15.1 83.5V83.4L15 83.3H14.9V83.2L14.8 83.1V83L14.7 82.9V82.8V82.7V82.6L14.8 82.5H14.7V82.4L14.6 82.3H14.5V82.2H14.4V82.1L14.3 82L14.2 81.9H14.1V81.8H14H13.9V81.9H13.8L13.7 82L13.6 82.1H13.5H13.4H13.3L13.2 82V81.9H13.1V81.8L13.2 81.7V81.6V81.5L13.1 81.3V81.2V81.1V81L13.2 80.9L13.3 80.8L13.4 80.7V80.6L13.5 80.5V80.4V80.3V80.2V80.1V80L13.4 79.9L13.3 79.8L13.2 79.6H13.1L13 79.5V79.4H12.9H12.8V79.3H12.7V79.2H12.6V79.1V78.9V78.5L12.5 78.6L12.2 78.9L12.1 79L12 79.1L11.8 79.5L11.7 79.4H11.6V79.3L11.2 79.1L10.6 78.8L10.1 78.5L9.60001 78.3H9.5L9.39999 78.6L9.29999 78.8L9 79.2L8.89999 79.5L8.70001 79.8L8.60001 80L8.39999 80.4L8.20001 80.7L8.10001 80.9V81L8 81.2L7.79999 81.4L7.70001 81.7L7.60001 81.8V81.9V82H7.5H7.39999L7.29999 81.9H7.20001H7.10001L7 81.8L6.79999 81.7V81.6V81.5L6.70001 81.4V81.3V81.2H6.60001L6.5 81.1L6.29999 81V80.9V80.8H6.20001V80.7L6.10001 80.6V80.5L6 80.4L5.79999 80.3L5.70001 80.2L5.60001 80.1L5.5 80H5.39999L5.29999 79.9H5.20001L5 79.8H4.89999L4.70001 79.9H4.60001H4.5V80H4.29999L4.10001 80.1L3.89999 80.2H3.79999H3.70001H3.60001H3.5L3.29999 80.3L3.20001 80.4H3.10001L3 80.5H2.89999L2.79999 80.6L2.70001 80.7H2.60001V80.6H2.5L2.39999 80.5L2.29999 80.4H2.20001V80.3L2.29999 80.2H2.20001H2.10001L2 80.1Z" fill="#6F9C76"/>
<path d="M64.7 38H64.6H64.5V38.1H64.4H64.3V38.2H64.2H64.1H64H63.9V38.3L63.8 38.4H63.7H63.6V38.3H63.5V38.2H63.4V38.1H63.3V38V37.9V37.8H63.2H63.1H63H62.9V37.9H62.8H62.7H62.6V38H62.5H62.4H62.3V38.1H62.2H62.1H62V38H61.9V38.1H61.8V38H61.7L61.6 37.9H61.5V37.8V37.7H61.4V37.6H61.3V37.5H61.4V37.4H61.3H61.2H61.1V37.3H61H60.9H60.8H60.7V37.2H60.6V37.3V37.4V37.5V37.6L60.7 37.7V37.8H60.8V37.9V38V38.1V38.2V38.3H60.7V38.2H60.6L60.5 38.1H60.4H60.3H60.2V38H60.1H60V38.1H59.9H59.8H59.7H59.6H59.5H59.4H59.3H59.2H59.1H59V38H58.9H58.8H58.7H58.6H58.5V38.1H58.4V38.2H58.3V38.3L58.2 38.4V38.5V38.6V38.7H58.3V38.8V38.9L58.4 39V39.1H58.3V39.2H58.2L58.1 39.3H58V39.2L57.9 39.3H57.8H57.7L57.6 39.4L57.5 39.3H57.4V39.2V39.1L57.3 39L57.2 38.9H57.1H57L56.6 38.8H56.3H56.2H56.1H56H55.9H55.8H55.7H55.6L55.5 38.9L55.4 39L55.3 38.9V39H55.1V38.9H55V38.8V38.7L54.9 38.6V38.5V38.4H54.8V38.3L54.7 38.2V38.1H54.6V38L54.5 37.9V37.8H54.4V37.7V37.6H54.3H54.2L54.1 37.5H54L53.8 38.1L53.6 38.4L52.4 37.9L51.7 37.7L51.3 37.5L51.1 37.4L51 38V38.1H50.9H50.8H50.5H50.2H49.4L48.9 37.9L48.4 37.6H48.3L47.6 37.9L45.6 38.7L45.3 38.8H45.2L45.1 39.8H45H44.8L44.5 39.7L44.3 40L44.1 40.7L43.8 41.3L43.4 41.2H43.2H43.1H43H42.9L42.7 41V41.1H42.6H42.5H42.4H42.3H42.2L42.1 41.2L42.3 41.4L42.6 41.6L43 42.1L43.1 42.3L43.2 42.5L43.4 42.8L43.9 42.9L43.8 43.7V43.8H43.7H43.6V43.9V44V44.1H43.5V44.2H43.4V44.3V44.4V44.5V44.6V44.7V44.8L43.3 44.9V45V45.1V45.2V45.3V45.4V45.5V45.6H43.2L42 46L41.5 46.1L41 46.3H40.9L40.8 46.4L40.3 47.4L39.9 48.1L39.8 48.3L40.1 48.6L40.5 48.9V48.8L40.6 48.9L41.1 49.3L41.5 49.6L41.9 50L41.7 50.1L41.5 50.4L41.2 50.7L41.3 50.8H41.4L41.5 50.9H41.6L41.7 51H41.8L41.7 51.2L41.6 51.7L41.5 52H41.7L41.8 52.1L41.7 52.8V52.9L40.6 52.7L40.3 52.6V52.7V52.8H40.2V52.9H40H39.9H39.8V53H39.7L39.6 52.9V53H39.5V52.9H39.1H39L38.9 52.8H38.7L38.6 53V53.1H38.4V53V52.8H38.3H38H37.9L37.6 52.7L37.7 52.9L37.6 53V53.1H37.5L37.4 53H37.3H37.2H37.1L37 52.9L36.9 52.8L36.6 52.4L36.2 52L36 51.7H35.9H35.8L35.2 51.8L34.4 52.1H34.3L33.4 52.4L33.3 52.7L33.2 53.1L33.1 53.4L33 53.7L32.9 54L32.8 54.3L32.6 54.7V54.8V54.9V55V55.4V55.6V56H32.4H31.9H31.6H31.4H31.3L30.9 56.1H30.8H30.6L30.5 56.2L29.5 56.4L29.1 56.6L28.7 56.9L28.6 57.1H28.4L28 57.2L26.5 57.5L25.9 57.6V57.7L26 58V58.2V58.8L25.5 59.1L24.9 59.3H24.7L24.2 59.5L23.8 59.2H23.7L22.9 58.7L22.1 58.2L21.3 57.7L21.1 57.9L21 58L20.7 58.2V58.3V58.5V58.6V58.7L20.8 58.8V59H20.9L21 59.1L20.8 59.3H20.7V59.4V59.5H20.6V59.6V59.7H20.5V59.8L20.4 59.9V60V60.1L20 60.3H19.9H19.8H19.7V60.4V60.6V60.7L19.6 60.8H19.5V60.9L19.3 60.8L19.2 61H19.1V61.1V61.2V61.3V61.4H19.2V61.5L19 61.6H18.9L18.8 61.7H18.7H18.6L18.5 61.6L18.2 61.5L17.9 61.4H17.8H17.7L17.6 61.3H17.5L17.4 61.1L17.3 60.9V60.8V60.6H17.2H17.1V60.5H17H16.9L16.8 60.4H16.7L16.5 60.2V60.1L16.3 59.9L16.2 59.8V59.7L16 59.6L15.8 59.5L15.6 59.4V59.3H15.5L14.6 59.5L13.9 59.6L13.1 59.7L13.2 60.1H13H12.7H12.1H11.5V60.2L11.4 60.4V60.6L11.3 61H11.1L10.9 60.9H10.8H10.7V61V61.1V61.2L10.8 61.3V61.4V61.5L10.5 61.6L10.6 61.8L10.2 62L10.1 62.1L10 62.2L9.79999 62.3V62.4L9.60001 62.5L9.39999 62.6V62.5V62.4V62.3L9.29999 62.4L8.70001 62.5L8.39999 62.7V62.8L7.60001 63.3L7.29999 63.5L7.20001 63.3L6.29999 63.6L6.20001 63.7L6.29999 63.8V63.9V64H6.39999V64.1H6.5V64.2L6.60001 64.3V64.4H6.5V64.5L5.89999 64.9L4.89999 65.8L4.10001 66.5L2.70001 67.6L2.29999 67.9L2.39999 68L2.5 68.1L2.60001 68.2L2.70001 68.3H2.79999H2.89999H3L3.10001 68.4V68.5L3.20001 68.6H3.29999V68.7V68.8V68.9V69V69.1V69.2L3.39999 69.3H3.5V69.4H3.60001V69.5H3.70001V69.6L3.60001 69.7L3.20001 69.5V69.6V69.9V70.2V70.7V70.8H3L2.89999 71H2.70001H2.39999L2.20001 70.9V71.2L2.10001 71.8V72V72.1H1.89999H1.79999H1.70001L1.60001 72.2H1.70001V72.3H1.60001V72.4V72.5H1.5H1.39999V72.6L1.60001 72.9L1.5 73V73.1L1.29999 73.2H1.20001V73.3L1.10001 73.4V73.5H1V73.4L0.899994 73.3H0.799988H0.700012H0.600006H0.5V73.5V73.7V73.9L0.399994 74L0.700012 74.1V74.2V74.4V74.5H0.899994V74.6V74.7V74.8H1L0.899994 74.9H1L1.10001 75H1.20001L1.29999 75.1L1.39999 75.2L1.60001 75.3L1.5 75.5V75.6L1.60001 75.9L1.79999 76.3H1.70001L1.5 76.5L1.70001 76.8L1.89999 77V77.1L2 77.3L2.10001 77.5V77.6L2 77.9L1.89999 78.1V78.2L1.79999 78.3V78.5H1.70001V78.6L1.60001 78.7V78.8H1.5L1.60001 79V79.1V79.2H1.70001V79.3H1.60001V79.4H1.70001L1.60001 79.5H1.70001L1.79999 79.7L1.89999 79.8L2 80V80.1L2.10001 80.2H2.20001H2.29999L2.20001 80.3V80.4H2.29999L2.39999 80.5L2.5 80.6H2.60001V80.7H2.70001L2.79999 80.6L2.89999 80.5H3L3.10001 80.4H3.20001L3.29999 80.3L3.5 80.2H3.60001H3.70001H3.79999H3.89999L4.10001 80.1L4.29999 80H4.5V79.9H4.60001H4.70001L4.89999 79.8H5L5.20001 79.9H5.29999L5.39999 80H5.5L5.60001 80.1L5.70001 80.2L5.79999 80.3L6 80.4L6.10001 80.5V80.6L6.20001 80.7V80.8H6.29999V80.9V81L6.5 81.1L6.60001 81.2H6.70001V81.3V81.4L6.79999 81.5V81.6V81.7L7 81.8L7.10001 81.9H7.20001H7.29999L7.39999 82H7.5H7.60001V81.9V81.8L7.70001 81.7L7.79999 81.4L8 81.2L8.10001 81V80.9L8.20001 80.7L8.39999 80.4L8.60001 80L8.70001 79.8L8.89999 79.5L9 79.2L9.29999 78.8L9.39999 78.6L9.5 78.3H9.60001L10.1 78.5L10.6 78.8L11.2 79.1L11.6 79.3V79.4H11.7L11.8 79.5L12 79.1L12.1 79L12.2 78.9L12.5 78.6L12.6 78.5V78.9V79.1V79.2H12.7V79.3H12.8V79.4H12.9H13V79.5L13.1 79.6H13.2L13.3 79.8L13.4 79.9L13.5 80V80.1V80.2V80.3V80.4V80.5L13.4 80.6V80.7L13.3 80.8L13.2 80.9L13.1 81V81.1V81.2V81.3L13.2 81.5V81.6V81.7L13.1 81.8V81.9H13.2V82L13.3 82.1H13.4H13.5H13.6L13.7 82L13.8 81.9H13.9V81.8H14H14.1V81.9H14.2L14.3 82L14.4 82.1V82.2H14.5V82.3H14.6L14.7 82.4V82.5H14.8L14.7 82.6V82.7V82.8V82.9L14.8 83V83.1L14.9 83.2V83.3H15L15.1 83.4V83.5L15.2 83.6V83.7V83.8V83.9V84V84.1H15.3V84.2L15.4 84.4L15.5 84.5H15.6V84.6H15.7H15.8V84.5H15.9L16 84.4H16.1H16.2V84.5V84.6L16.3 84.7V84.8H16.4V84.9L16.5 85H16.6V84.9H16.7L16.8 84.8H16.9H17L17.1 84.9H17.2L17.3 85H17.4H17.5H17.6L17.7 85.1H17.8V85.2H17.9H18H18.1H18.2L18.3 85.3H18.4H18.5V85.2L18.6 85.1L18.7 85H18.8H18.9H19H19.1L19.2 84.9L19.3 84.8H19.4H19.5H19.6H19.7H19.8H19.9H20H20.1V84.9H20.2H20.3H20.4H20.5V85H20.6V85.1H20.7H20.8L20.9 85H21L21.1 84.9H21.2H21.3H21.4H21.5V84.8H21.6L21.7 84.7L21.8 84.6H21.9H22L22.1 84.5H22.2H22.3V84.4L22.4 84.3L22.5 84.2H22.6V84.3H22.7V84.4H22.8V84.5L22.9 84.6H23H23.1V84.7H23.2H23.3H23.4H23.5H23.6H23.7H23.8V84.8H23.9H24L24.1 84.9H24.2V85H24.3H24.4H24.5H24.6H24.7H24.8V85.1H25L25.2 85.2V85.3H25.3H25.4V85.2H25.5H25.6V85.1H25.7H25.8H25.9V85H26L26.1 84.9L26.2 84.8H26.3M64.7 38V38.1M64.7 38L64.8 38.1H64.9H65H65.1V38.2H65.2L65.3 38.1H65.4H65.5V38.2H65.6V38.3V38.4V38.5H65.7V38.6V38.7H65.8L65.9 38.8H66V38.7H66.1V38.6L66.2 38.5H66.3H66.4V38.6H66.5V38.7V38.8H66.6V38.9V39V39.1H66.7V39.2H66.8H66.9H67V39.3H67.1V39.4V39.5H67V39.6V39.7H66.9M66.9 39.7V39.6M66.9 39.7V39.8V39.9H67V40H67.1H67.2H67.3H67.4V40.1H67.5H67.6H67.7V40.2L67.8 40.3H67.9H68V40.2V40.1L67.9 40V39.9L68 39.8H68.1V39.7H68.2V39.6H68.3V39.7H68.4H68.5M68.5 39.7V39.8M68.5 39.7H68.6V39.8H68.7V39.9V40V40.1H68.8V40.2V40.3V40.4V40.5H68.9H69H69.1V40.6H69.2H69.3H69.4V40.5H69.5V40.4V40.3V40.2V40V39.9L69.6 39.8V39.7H69.7V39.6H69.8H69.9V39.7V39.8H70V39.9H70.1V39.8H70.2V39.7H70.3V39.6V39.5H70.4V39.4V39.3H70.5H70.6V39.2H70.7H70.8V39.3H70.9V39.4H71H71.1V39.5V39.6V39.7H71.2V39.6L71.3 39.5V39.4H71.4V39.3V39.2H71.5V39.1V39H71.6V38.9H71.7V38.8V38.7H71.8V38.6L71.9 38.5V38.4H72V38.3V38.2H72.1V38.1H72.2V38H72.3H72.4H72.5H72.6V38.1H72.7H72.8H72.9H73H73.1H73.2H73.3H73.4H73.5V38.2H73.6L73.7 38.3H73.8V38.4H73.9H74V38.3H74.1L74.2 38.2V38.1V38V37.9V37.8V37.7V37.6H74.3L74.4 37.5H74.5H74.6H74.7V37.6H74.8H74.9H75L75.1 37.7H75.2H75.3H75.4V37.6H75.5H75.6H75.7L75.8 37.5H75.9V37.6H76H76.1H76.2V37.7H76.3V37.8V37.9V38L76.2 38.1V38.2L76.3 38.3V38.4H76.4V38.5V38.6V38.7V38.8H76.5V38.9H76.6V39H76.7H76.8L76.9 38.9V38.8H77V38.7H77.1H77.2V38.6H77.3H77.4H77.5M77.5 38.6V38.7M77.5 38.6H77.6H77.7V38.5H77.8V38.4V38.3H77.9H78V38.4H78.1H78.2H78.3H78.4V38.3H78.5H78.6H78.7V38.2H78.8V38.3H78.9H79V38.2H79.1L79.2 38.3V38.4L79.3 38.5V38.6V38.7V38.8V38.9H79.2V39H79.3V39.1V39.2H79.4V39.3V39.4H79.5H79.6V39.5V39.6H79.7V39.7H79.8L79.9 40V40.1L79.6 40.4H79.7H79.8M79.8 40.4V40.5M79.8 40.4H79.9H80V40.5V40.6H79.9L80 40.7H80.1V40.8H80.2H80.3H80.4V40.7H80.5H80.6V40.6H80.7H80.8H80.9H81H81.1H81.2V40.7H81.3H81.4V40.6V40.5V40.4V40.3V40.2H81.3V40.1V40V39.9V39.8V39.7V39.6H81.4H81.6H81.7V39.7H81.8H81.9V39.8V39.9H82V40H82.1H82.2V40.1V40.2V40.3V40.4V40.5H82.3H82.4H82.5L82.6 40.6H82.7H82.8H82.9V40.5H83V40.4H82.9V40.3V40.2V40.1V40M82.9 40H83M82.9 40L83 39.9H82.9V39.8H83V39.7V39.6V39.5H83.1V39.4H83.2H83.3V39.3V39.2V39.1H83.4V39H83.5L83.6 39.1H83.7V39.2H83.6V39.3V39.4V39.5L83.5 39.6V39.7H83.4V39.8L83.3 39.9V40V40.1H83.4V40H83.5L83.6 39.9L83.7 39.8H83.8L83.9 39.7H84V39.6L84.1 39.5H84.2V39.4V39.3L84.3 39.2V39.1H84.4V39V38.9V38.8H84.3V38.7V38.6H84.2V38.5H84.3V38.4H84.4V38.5H84.5H84.6H84.7V38.6V38.7V38.8L84.8 38.9L84.9 39V39.1V39.2V39.3L84.8 39.4L84.9 39.5V39.4H85L85.3 39V38.9L85.5 38.6H85.4L85 38H84.9L84.8 37.9L85 37.8L86.1 36.8L86.2 36.7L87 36.1L87.1 36L87.9 35.6H88L88.2 35.5L88.7 35.3L89.4 35L90.2 34.8V34.5L90.1 33.9L91 33.3L91.3 33.1L91.7 32.9L91.8 32.6L91.9 32.4H91.7L91.5 32.3L91.8 31.5L91.9 31.4V31.3V31.2L92.1 30.7L91.8 30.4L91.7 30.3L91.9 30.1L92.3 29.7H92.4L92.5 29.6L92.6 29.5V29.6H92.7H92.8V29.5L92.9 29.4V29.3H92.8V29.2V29.1H92.7L92.6 29H92.5V28.9H92.6V28.8H92.7V28.7L92.8 28.6L92.6 28.5L92.4 28.4V28.3H92.3L92.2 28.1L92.6 27.8H92.7L92.6 27.7V27.6H92.5V27.5H92.4V27.4L92.1 27.5L92.3 27.2L92.9 26.5L93.5 27L93.2 27.3L92.9 27.8L92.7 28L92.8 28.1V28.2V28.3V28.4L92.9 28.3H93V28.2H93.1H93.2H93.3L93.4 28.1H93.5H93.6L93.7 28H93.8V27.9V27.8L93.6 27.6L93.7 27.5L93.8 27.4L93.9 27.3L94 27.4L94.2 27.5L94.4 27.4L94.6 27.3L94.7 27.2L94.8 27.1V27H94.9H95.3L95.4 26.9H95.5L95.8 26.8V26.9V27L95.7 27.1V27.2H95.8V27.3V27.4H95.9H96H96.1H96.2V27.3H96.3H96.4H96.5H96.6H96.7H96.8V27.4H96.9H97H97.1H97.2H97.3H97.4H97.5H97.6H97.7H97.8V27.3L98 27.6L98.3 27.7L98.5 27.1L98.6 26.9V26.8V26.7L98.8 26H98.7L98.8 25.8V25.6L98.7 25.5V25.4L98.6 25.3L98.7 25.2L98.8 25.1L99.1 25L99.7 24.9H99.8L100.1 24.8L101.4 25.4L101.5 25.3L101.7 25.2L101.8 25.1V25L102 24.9H102.1H102.2V24.8H102.3V24.7H102.4H102.5H102.8L103 24.6H103.1L103.6 24.4H103.7L103.8 24.3V24.2L104 23.9L104.1 23.7V23.6L104.3 23.7L104.4 23.8L104.3 24L104.5 24.1V24.2L104.6 24.3M104.6 24.3H104.5M104.6 24.3V24.4H104.7H104.8L104.9 24.5L105 24.6H105.1V24.7H105.2H105.3H105.4L105.5 24.8L105.6 24.7V24.6L105.9 24.7L106.1 24.9L106.4 25L106.5 25.2H106.6L106.7 25.3H106.8L107 25.5L107.3 25.7L107.8 26V26.1L108.5 26.4L108.7 26.5H108.8H108.9L109 26.6H109.1L109.8 26.9V27L109.9 27.7L109.6 28.2L109.5 28.5H109.6L110 29L110.2 28.6L110.3 28.5V28.4H110.4V28.3V28.2H110.5V28.1V28V27.9H110.6V27.8H110.7H110.8V27.7H110.9V27.6H111V27.5H111.1V27.4L111.2 27.3V27.2V27.1L111.3 27H111.4H111.5H111.6V26.9L111.7 26.8L111.6 26.7H111.7L111.8 26.9L111.9 26.8L112 27L112.2 26.9L112.8 26.7L113.4 26.5L113.6 26.4L113.7 26.3L113.9 26.2L114 26.3H114.1V26.4H114.2H114.3V26.3V26.2H114.4V26.1H114.5H114.6V26L114.7 25.9V25.8V25.7L114.8 25.6L114.9 25.4H115L115.3 25.1H115.4L116 25.7H116.1H116.2L116.4 26.2H116.5L116.7 26.1L117.2 26L117.3 26.1V26H117.4L117.5 25.9H117.6H117.7L117.9 25.8H118L118.1 26L118.2 26.1L118.7 26V26.5L118.6 26.7V26.8H118.5H118.4L118.5 26.9H118.4V27H118.3V27.1L118.5 27H118.6L118.7 26.9L118.8 27H118.9L118.8 26.9H118.9V27.2L119.3 27.3V26.6L119.7 26.5H119.9H120.4H121.3L121.5 26.3L121.6 26.2V25.7V25.5V25.3V25.1V24.4L121.7 24.2V24.1V24L121.6 23.8V23.9L121.5 23.8H121.4V23.7V23.6H121.3L121.2 23.5H120.6L120.8 23.3L120.7 22.6L120.8 22.5V22.4L121.2 22.2H121.6L121.9 22.1H122L122.1 22V21.9H122.2H122.3H122.4H122.5H122.6H122.7H122.8H122.9L123 21.8V21.7V21.6V21.5V21.4V21.3L123.1 21.2V21.1V21V20.9H123.2V20.8V20.7V20.6L123 20.5V20.4L123.1 20.3L123.2 20.2V20.1V20H123.3V20.1H123.4H123.5H123.6H123.7H123.8V20.2V20.3V20.4L123.9 20.5H124V20.4H124.1H124.2H124.3H124.4H124.5V20.5H124.7L124.8 20.6L124.9 20.7L125 20.6L125.1 20.2V19.8L125.2 19.3L125.3 19.1L125.5 17.6L125.8 16.1L125.9 15.8L125.8 15.7V15.5V15.3V15.2L126 15H126.1H126.2H126.3V15.1V15.2H126.4H126.5H126.6V15.3H126.7H126.8L127 15.2V15.3L127.2 15.2V15.1V15L127.3 14.8V14.6V14.5H127.2L127.1 14.6H126.9V14.5V14.4V14.3L127 14.2L126.9 14.1H127V14V13.9V13.8H127.1V13.7L127.3 13.6V13.5H127.4H127.5H127.6L127.8 13.6H127.9H128L128.1 13.7H128.2H128.3L128.2 13.5V13.2L128.4 13.4V13.5L128.5 13.6L128.6 13.7H128.7H128.8H128.9V13.6H129V13.8V14.1H129.1L129.3 14H129.4L129.5 14.1H129.6L129.7 14L129.8 13.5L130.7 13.6H130.9L131.5 13.7V14.1L131.6 14L131.8 14.4L132.2 14.3L132.4 14.2L132.5 14.4L132.6 15.1L132.8 15.7L132.9 15.8V15.9V16L132.8 16.1V16.2H132.7H132.6V16.3V16.4H132.7V16.5H132.6V16.6V16.7L132.7 16.8V16.9H132.8V17H132.9H133V16.9H133.1V17V17.1L133.2 17.2V17.3H133.3H133.4H133.5V17.4H133.6H133.7H133.8V17.5H133.9V17.6H134L134.2 17.7H134.3H134.5H134.8H134.9H135V17.6L135.1 17.5L135.2 17.4V17.3L135.3 17.2V17V16.9H135.4V16.8L135.5 16.6H135.6L135.9 16.7L136.1 16.1L136.2 15.8L136.3 15.7V15.8L136.4 16V16.1H136.5V16.2V16.3H136.6V16.4H136.7V16.5V16.6M136.7 16.6H136.8M136.7 16.6V16.7L136.8 16.8H136.9H137V16.7H137.1V16.6H137.2V16.7H137.3L137.2 16.8V16.9H137.3H137.4V17H137.5H137.6H137.7V17.1L137.8 17.2M137.8 17.2H137.9M137.8 17.2L137.7 17.3H137.6H137.4L137.5 17.7L137.8 18.4V18.5V18.6H137.9V18.7L137.8 18.8V18.9V19V19.1V19.2L137.9 19.3H138L138.1 19.2L138.3 19.1L138.4 19L138.6 18.9V18.8H138.7V18.7H138.8H138.9L139 18.6V18.7H139.1H139.2V18.8H139.1V18.9V19H139L139.1 19.1V19.3V19.4V19.5V19.6L139 19.7V19.8H139.1V19.9H139.2V20V20.1H139.3V20.2L139.4 20.3V20.4H139.3V20.6V20.7L139.4 20.8V20.9H139.5H139.6L139.8 21V21.1V21.2L139.9 21.3V21.4V21.5L140 21.6V21.7V21.8H139.9L139.7 22L139.9 22.2L139.8 22.4H139.9V22.5V22.6H139.8L139.7 22.8V22.9H139.8V23V23.1H139.9V23.2V23.3H140H140.1V23.4V23.5L140.2 23.6H140.3V23.7L140.2 23.8L140.3 23.9V24L140.4 24.1L140.3 24.2H140.2L140.1 24.3L140.2 24.4H140.3V24.5L140.7 24.4H141.2H141.3H141.4L141.7 24.5L141.8 24.2V24.1H141.7V24H141.6V23.9H141.5V23.8H141.4V23.7V23.6V23.5H141.3L141.2 23.4L141.3 23.2L141.4 23.1L141.5 23V22.9H141.6L141.5 22.8H141.4L141.2 22.7V22.5L141.1 22.4V22.3H141.6V22.4H141.8H142V22.5L141.9 22.6H142L142.3 22.8L142.4 22.9L142.6 23H142.8L143.1 22.9V23.4V23.5H143.2H143.3V23.6L143.4 23.5H143.5V23.4L143.6 23.5V23.4H143.7V23.3L143.8 23.2H143.9V23.1L143.8 23V22.8H144.1L144.3 22.7H144.4L144.6 22.5L144.7 22.6V22.7V22.9L144.6 23.1V23.2H144.7L144.8 23.3H145.1L145.2 23.2H145.5H146.1H146.2V23.1V23H146.3V23.3L146.4 23.4L146.9 23.2V23.3L147.4 23.2L147.5 23.1V23H147.6V22.9H147.7H147.8H147.9V22.8H148V22.9H148.1V23V23.1L148.3 23H148.2V22.9L147.9 22.2L147.8 22.1L147.7 21.8L147.6 21.6L147.7 21.5L147.8 21.4V21.3V21.2V21.1L147.9 21H148V20.9H148.1L148.3 21.2L149.1 21.1V21.6L149.2 21.7L150.8 21.5L151 22.5L151.6 22.4L152.3 22.3L153.4 22.1L154.1 22V21.6L155 21.5L156.4 21.3H156.6L156.5 20.5L157.2 20.4H158V19.8H157.9H157.7L157.5 19.9H157.3H157.2L157 19.8L156.9 19.7L156.8 19.6V19.5H156.7V19.4L156.6 19.3V19V18.9V18.8L156.5 18.9L156.4 19L156.3 19.1H156.2H156.1H156H155.9H155.8L155.7 18.9L155.6 18.7V18.6L155.7 18.5H155.8L155.9 18.6H156L156.1 18.7V18.6V18.5H156.2H156.3V18.3H156.2V18.2H156.3V18.1H156.2V18H156.3V17.9H156.4L156.5 17.8V17.6H156.2L156.1 17L156 16.5V15.9L155.9 15.4L155.8 14.6L155.5 14.4L155.1 14.2L155 14.1V14H155.1L155.2 13.9L155.4 13.8L156.8 13L157.4 12.8V12.7L158 12.6L158.8 12.4H158.9V12.3L159 12.2V12V11.8V11.3L158.9 11.1L158.8 10.4L156.9 9.79999L155.4 9.39999L153.7 8.89999L153.2 8.70001L153.1 8.60001L152.9 8.5L152.6 8.29999L152.4 8L152.3 7.79999V7.70001L152.2 7.5V7.39999V7.29999V7.20001V7.10001V7V6.89999L152.4 6.79999L152.6 6.70001L152.7 6.60001L152.8 6.5V6.29999V6.10001L152.9 5.79999L153.1 5.39999L153.5 5L153.8 4.60001L154.3 4.10001L154.6 3.70001L154.7 3.60001L154.8 3.39999L155.1 3.10001L155.5 2.89999L155.8 2.70001L156.1 2.5L156.3 2.29999L156.7 2L156.8 1.89999L156.9 1.70001L157.1 1V0.799988H157.2L157.7 1.10001L158.8 1.60001L160 1.70001H160.4H160.5L160.7 1.79999H160.8L161 1.70001H161.1L161.2 1.60001H161.3H161.4L161.6 1.5L162 1.20001L162.2 1.10001H162.3L162.5 1L162.8 0.899994H162.9H163L163.3 1L163.4 1.10001L163.5 1.20001H163.6V1.29999L163.7 1.39999V1.60001L163.8 1.70001V1.89999V2.10001V2.29999V2.39999L163.7 2.60001L163.6 2.79999V2.89999L163.5 3.10001V3.20001V3.39999L163.6 3.5V3.70001L163.7 3.79999L163.9 3.89999L164 4.10001H164.1L164.5 4.20001L164.9 4.39999L165.3 4.60001L165.4 4.70001L165.6 5.20001L165.8 5.39999L165.9 5.5L166 5.60001H166.1H166.4L166.6 5.5H166.9L167.1 5.60001H167.3L167.9 5.39999H168.3H168.4L168.5 5.5H168.7L168.9 5.60001L169.1 5.70001H169.4H169.6H169.7L169.8 5.79999L170 5.89999L170.2 6.20001L170.3 6.39999L170.4 6.5V6.60001V6.79999V6.89999L170.5 7V7.10001L170.6 7.20001L170.9 7.39999L171 7.5V7.60001L171.2 7.89999L171.5 8.5L171.8 8.89999L171.9 9.10001L172.2 9.39999L172.3 9.60001L172.4 9.70001V9.79999V9.89999L172.3 10L172 10.3V10.4V10.5L172.3 10.8V11L172.4 11.2V11.4L172.3 11.8L172.2 12V12.1L172.3 12.2V12.3L172.4 12.4H172.6L172.7 12.5L172.8 12.4H172.9L173.4 12.3H173.5H173.7H173.8L173.9 12.4L174.3 12.9L174.4 13L174 13.4V13.5L174.2 13.6H174.3V13.7L174.4 14L174.5 14.1H174.6H174.7H174.9H175L175.1 14L175.2 13.9L175.6 13.8H175.7V13.7V13.3L175.8 13.2H175.9L176 13.3L176.2 13.4L176.6 13.7H176.7H176.8V13.6L176.9 13.2V13.1V12.8V12.7V12.5V11.8V11.7V11V10.8V10.2V10.1V9.70001V9.5V9.39999V9.10001V9V8.79999V8.70001V8.60001V8.5V8.39999L176.8 8.20001V8L176.7 7.89999V7.70001L176.6 7.5L176.5 7.20001V7.10001V7L176.4 6.89999H176.5L176.7 7.10001L176.8 7.20001L177.1 7.5L177.2 7.60001L177.5 7.89999L177.6 8L177.7 8.10001L177.8 8.39999V8.5V8.60001V8.70001L177.9 8.89999V9.5L178.2 9.39999L178.3 9.5L178.4 9.70001L178.7 10V10.1L178.8 10.2L178.9 10.3L179.1 10.4L179.4 10.5L179.8 10.6L179.5 11.1L179.4 11.4L179 12.3H178.9H178.8H178.7H178.6H178.5H178.4L178.3 12.2V12.3H178.2L178 12.4H177.9L177.8 12.5H177.7L177.6 12.7H177.7H177.8H177.9M177.9 12.7V12.8M177.9 12.7H178H178.1L178 12.8V12.9L178.1 13H178.2H178.3H178.4H178.5V13.1V13.2L178.4 13.3V13.4L178.9 13.3H179.2H179.3L179.5 13.5L179.9 13.7L179.6 14.3V14.4L179.5 14.5V14.6V14.7L179.6 14.8L179.7 15L179.8 15.1L180.2 15.6L180.4 16.1V16.2V16.3V16.5H180.5L180.6 16.4L180.7 16.5V16.6V16.7L180.8 16.8L180.9 17.1L181 17.2L181.2 17.6L181.3 17.7L181.2 17.8H181.1H181L180.9 17.9L180.8 18L180.7 18.1L180.6 18.2H180.5L180.4 18.3H180.3L180.2 18.4H180.1V18.5L180 18.6V18.7H179.9V18.8H179.8L179.7 18.9H179.6H179.5V19.2V19.1H179.4V19.2V19.4L179.6 19.8L179.7 20L179.8 20.2L180 20.6L180.1 21H180.2V21.1V21.2H180.1L180.4 21.8L180.6 22.2L180.8 22.7L180.2 23L180.4 23.3L180.5 23.7L181.1 23.5L181.2 23.7L181.7 23.4L182 23.3H182.1H182.2V23.5V23.7L182.3 23.8L183.3 24.5L184.5 25.3L184.7 25.4V25.3L184.6 25V24L184.5 23.5V23.4L184.6 23.3L184.8 23.1L184.7 22.9L184.9 22.7L185.1 23H185.2H185.3H185.4H185.6L185.8 23.2V23.3L185.7 23.6L185.6 23.5L185.4 23.4V23.5L185.6 23.6L185.7 23.7L185.9 23.5H186L186.1 23.4L186.2 23.1L187 23.2H187.1L187.3 23.3L188.3 23.4L188.4 23.5L188.2 24.5L188.5 24.8L188.3 26.4H188.4V26.3H188.5V26.2H188.6V26.3H188.7H188.8H188.9V26.2V26.1L189.1 25.9V25.8H189.2L189.3 25.7H189.4H189.5V25.4L190.4 25.2L191.5 25L191.7 26H191.8H191.9H192V26.5H192.2H192.3L192.4 26.4H192.5L192.7 26.5L193.4 26.6V26.5V26.4V26.3H193.1L193 26L193.7 25.9L193.8 26.2L194.1 26.1L194.5 25.5L195 24.7L195.2 24.5L195 24.4L194.7 24.2V24.1H194.8L194.9 23.9L195 23.6L195.3 23.8L195.7 23.2V23.1L196.5 22.7V22.6V22.5V22.4V22.3L196.6 22.1V21.9V21.8L196.9 21.6L197.1 21.5H197.4H197.7L197.8 21.4H197.9H198L198.1 21.9L198.3 22.2L198.5 22.7L198.6 22.8L198.7 23L198.8 23.1V23.2H198.9H199V23.3H199.1L199.2 23.4L199.3 23.5V23.7L199.4 23.8L199.6 23.9H199.7L199.8 24L200.2 24.3L200.3 24.4H200.5H200.6H200.7L201 24.3H201.1H201.2H201.4H201.6L202.1 24.1H202.2L202.6 24H202.7H202.8L203.1 24.1L203.3 24.2L203.5 24.3H203.7L204 24.4H204.2H204.3H204.4H204.5H204.6H204.8H205H205.1L205.3 24.5L205.7 24.6L205.9 24.7H206L206.4 24.9L206.6 25.1L206.7 25.2L206.8 25.3L207 25.5L207.4 26L207.8 26.3L207.9 26.4L208.1 26.5L208.3 26.7L208.5 26.8L208.7 26.9H208.9L209.1 27L209.2 27.1H209.3L209.5 27.3V27.4L209.4 27.7L209.3 28.2V28.3V28.4V28.6L209.2 28.9V29L209.1 29.4L209 29.8L208.9 30L208.8 30.7L208.6 31.4L208.5 32H208.4L208.3 32.1H208.2H208.1H208V32.2H207.9L207.8 32.9L207.5 33.9L207.4 34.6L207.3 34.9H207.2L207.3 35.7V35.8L207.4 36.3V36.4V36.6V36.7V36.9V37.1L207.3 37.2V37.3L207.2 37.4H207.1H207H206.8H206.7H206.6L206.4 37.5H206.3V37.4V37.3H206.2V37.2V37.1H206.1L206 37H205.9H205.8L205.7 36.9V36.6H205.6V36.5V36.4V36.3V36.2L205.5 35.9V35.8V35.7V35.6V35.5L205.4 35.4V35.2V35.1L205.3 34.9H205.2L204.9 35H204.8H204.7H204.6H204.5L204.4 35.1V35.2V35.3V35.4V35.5V35.6H204.3H204.1H203.9L203.7 35.7H203.5H203.4L203.3 35.6V35.5V35.4V35.3V35.2L202.8 35.3V35.4H202.5L202.2 35.5H202.1V35.6L202 35.8H201.9V35.9V36H201.6L201.2 36.1H201.1H201L200.9 35.6V35.2L200.8 35V34.9V34.8L200.7 34.4L200.4 34.3V34.2V34.1H200.1H200H199.9L199.4 34.4L199.2 34.5L199.1 34.3L199 34.1L198.9 34H198.7H198.6L198.5 33.9L198.4 34V34.1H198.3V34.2H198.2V34.3V34.4L198.1 34.5V34.6H198V34.7L197.9 34.9L197.8 35V35.1L197.7 35.2V35.3V35.4H197.6V35.5V35.6L197.5 35.7H197.4H197.2L197.1 35.8L196.6 35.9H196.4H196.1V36H195.9L195.6 36.1L195.5 35.6L194.9 35.7L194.8 35.2L194.5 35.3L193.8 35.4L193.9 35.9V36.1L194 36.5V36.7H193.9H193.8H193.6V36.9L193.7 37.7L193.8 37.8V37.9L193.9 38.2L194 38.4H193.9V38.5V38.6L194 38.7H194.2V38.9L194.3 39.1L195.1 38.8L195.3 39.6L195.4 40L195.5 40.1V40.4L195.6 40.6L195.7 40.7H195.9H196V40.8H196.1H196.2L196.4 40.9H196.5H196.7L197.2 40.8V41.2L197.5 41.1H197.8L198.2 41H198.8L198.9 41.1L199.3 41.4L199.4 41.6H199.5L199.7 41.8L200 42.1L200.2 42.4L200.3 42.5L200.4 42.6L200.5 42.7L200.7 42.8V42.9L201 43.1L201.2 43.3L201.3 43.4L202 43.3H202.1V43.6L202.2 44.1L202.3 44.2H202.6L203.1 44.1L203.4 44H203.5H203.6L204.2 43.9L204.4 43.8L204.9 43.7H205V43.8V44.3V44.7L204.9 45.6L203.4 45.9L202.7 46H202.5L202.6 46.3V46.4L202.7 46.6V46.8H202.8H202.9V47.1H202.7L202.8 47.8L202.9 48.1V48.3V48.4L202.8 48.5H202.7H202.6V48.6H202.5H202.4V48.7L202.3 48.8H202.2H202.1L202 48.9H201.9V49V49.1H202V49.2H201.9V49.3L201.8 49.2H201.7L201.6 49.1H201.5L201.4 49.2V49.3H201.3V49.2L200.8 49.3V49.4L200.7 49.5H200.6H200.5L200.1 49.7L200 49.8L199.7 49.9L199.4 50.2L199 50.5L198.8 50.7L198.2 51.2L197.7 51.5V51.4L197.6 51.5L197.5 51H197.3L197.2 50.4H197L196.8 50.5L196 50.6V50.2L195.8 50.3L195.2 50.4H195.1V50.5L195.2 50.6V50.7L195.3 51V51.1L195.6 52V52.2L195.8 52.9V53L195.5 53.1L194.2 53.5L194 52.4L193.9 52.2L193.3 52.3L192.4 52.4L191.4 52.6L190.7 52.7H190.5L190.1 52.8L190.2 53.3V53.5L189.8 53.6V53.4L189.4 53.5L188.7 53.6L188.8 54V54.3V54.4L188.2 54.6L188.4 54.8L188.5 55.1L188.6 55.2V55.3H188.4L188.2 55.4L188.1 55.5L188.2 56.1L188.3 56.8V57.2L188.5 58.2V58.8L188.6 59.2L188.7 59.7V60.3L188.8 60.5V60.9L188.9 61.5L189 62.1V62.5L189.1 62.6V62.7V62.8L189 63.5V63.6V63.8V64V64.4V64.7V64.9L188.9 65.1V65.3H189.4L189.5 66.1H189.1H189H188.9V66.3L188.8 66.6H188.4H188.3V66.7H188.2V66.8V66.9L188.1 67.5V67.8H188.3L188.4 67.9L188.1 68.3L187.6 68.8V69L187.7 69.5H188.4H188.6L188.5 69.7L188.4 70.6L188.3 71.2L188.5 71.3V71H188.6H188.8H188.9H189L189.1 70.9H189.3H189.4H189.5H189.6L189.7 70.8H189.8H189.9M189.9 70.8V70.7M189.9 70.8H190L190.1 70.9H190.2L190.3 71H190.4L190.5 71.1V71.2V71.3L190.4 71.5V72L190.3 72.1L190.2 73.1L190.1 73.7L190.4 73.8V73.9L190.5 74.2V74.3V74.4H190.6V74.5H190.5V74.6H190.4V74.7V74.8H190.3V74.9L191.1 75L191.2 75.4L191.3 76L191.4 76.6V76.8H191.6L191.7 77V77.1L191.9 78L192 78.1V78.2L191.7 78.3L191.6 78.4V78.5V78.6V78.7L191.4 78.9L191 79.1L190.9 79L190.7 79.1V79.2L190.3 78.5H190.2L189.7 78.4L189.6 78.7V78.8V78.9L189.5 79.5L189.1 79.7H189H188.9H188.8L189.2 80.2L189.5 80V80.2V80.4L189.4 80.5V80.6L188.5 80.8L188.6 81.2L187.8 81.3L186.8 81.5L186.1 81.6V81.7L186 81.8V81.9V82V82.2L186.2 83H186.1L185.7 83.1L185.5 83.2H184.9L184.4 83.3L184 83.4H183.6L183.5 83.5V83.6H183.4H183.3H183.2H183.1H183H182.9H182.8H182.7L182.6 83.5V83.6H182.5V83.7L182.4 83.8V83.9H182.3H181.4L180.4 84H180.3L180.4 84.3V84.4H180L179.5 84.5L179.1 84.6L179.2 84.8L179.3 84.9L179.4 85.2L179.7 85.8L179.9 86.2H180.3V86.3L180.4 86.4V86.5V86.6V86.7L180.3 86.8V87H180.2H180L179.9 86.9H179.8H179.7H179.6V87V87.1V87.2V87.3V87.4V87.5H179.4V87.7L179.3 87.9V88H179.2V88.1V88.2H179.1H178.8L178.4 88.1L178.2 86V85.9L178.1 85.5L178.3 85.4V85.2L178.1 84.3L176.9 84.5L176.8 84L176.7 82.9H176.3L175.9 83L175.1 83.1L175.2 83.7L175.3 84L175.4 84.7H175.5L175.9 84.6V84.9V85.2L176 85.5V85.7V85.8L176.1 86.1V86.3V86.4H176H175.9L175.4 86.5V86.7H175.2L174.5 86.8L173.8 86.9L173.6 87V87.2V87.4L173.7 87.6V87.9V88H173.8H173.9L174.7 87.9L175.4 87.8H175.6L175.5 87.2H175.7V87.4L176.3 87.3L176.4 87.8L175.6 87.9L175.7 88.9L174.9 89.1H174.8L173.9 89.2L173.5 89.3L173.1 89.4H173V89.5H172.6L172.1 89.6L172.2 89.9V90H172.1L171.9 90.1H171.6L171.7 90.8H171.9V91.1L172 91.3V91.6V91.9L172.2 92.7L171.9 92.8L171.8 92L171.7 91.3V91.2L171.6 91.1H171.2L170.8 91.2H170.6L170.4 91.3H170.2V91L169.7 91.1L169.8 91.2V91.3V91.4V91.5H169.7V91.6L169.6 91.7L169.7 91.8V91.9V92V92.1V92.2V92.3V92.4H169.8V92.5L169.9 92.6L170 92.7H169.9H169.8L169.6 92.8H169.2H169.1L168.1 93L167.8 93.1H167.5L167.2 93.2H166.9L166.5 93.3H166.4H166.2L166.3 93.4V93.5H166.2H166.1V93.6H166L166.1 93.9V94V94.1V94.3H166.2V94.7V94.8V94.9V95H166.1H166V95.1H165.9L165.6 95.2V95.3V95.4H165.7V95.5V95.6V95.7L165.6 95.8V96.3L165.5 96.4V96.5V96.8L165.6 96.9V97H165.7V97.1H165.6H165.5L165.3 97H165.2L165.1 96.9H165L164.9 96.8H164.8V96.7H164.7H164.6V96.6L164.5 95.8L164.3 94.8L164.2 94.1L164 93L163.9 92.3L163.5 92.4L163.1 92.7L162.8 92.8L162.6 92.9L162.3 93.1L162.1 93.2H162L161.8 93V92.9L161.7 92.8V92.7H161.6V92.8H161.5L161.1 92.9H161L160 93.1L160.2 93.5L159.1 93.7L158.5 93.8L158.4 93.4V93.3L157.9 93.5L158 94.1H158.1V94.2H158.2H158.3V94.3H158.4H158.5L158.6 94.4L158.7 94.7V94.9L158.8 95.6L159.1 97H158.7L158 97.2H157.7V97.1L157.6 97H157.5L156.9 97.1L156 97.3H155.9L155.6 97.4L155 97.5H154.9L154.8 97.8L154.7 97.7H154.6L154.4 97.8V97.4V97.3H154.2L154.1 97.2V97V96.8L154 96.4H153.8L153.5 96.5H153.3H153.2H153.1L153 96.6H152.6H152.5L149.8 97.1L148.7 97.3L148.8 97.4V97.9L148.9 98.5L149 98.9L149.1 99.7V99.9L151.1 99.5L151.2 99.6V99.7V99.8V99.9V100L151.1 100.1L151.2 100.2L151.3 100.3V100.4L151.4 100.5L151.5 100.6V100.7V100.8V100.9H151.6V101L150.8 101.1L150.2 101.2L149.5 101.3L149.1 101.4H149L148.7 101.5H148.6L147.9 101.6L146.9 101.8H146.8L146.9 102.4L147 102.8L147.1 103.1L147.4 103H147.7L148.1 102.9L148.2 103.5V103.7V103.8L148.3 103.9V104V104.1L148.4 104.3L148.5 105.5L147.5 105.6L147.6 106.2L147.7 106.7V106.8V107L147.9 106.8L148 106.6V106.7L148.1 106.8V106.9L148.2 107L148.1 107.1L148 107.5L147.9 107.7L147.8 107.8L147.5 108L147.2 108.7L147.1 108.8V109V109.4L146.7 109.5L145.9 109.7H145.5H145.4V109.8L145.5 109.9L145.3 110L144.8 110.1H144.3V110.2H144.2H143.9L143.4 110.3L142.9 110.4H142.8L142.6 110.5L141.6 110.6L141.1 110.7L139.8 111L139.2 111.1H139L138.3 111.2H138.1L137.9 111.3H137.7L137.6 111.4H137.4H137.3H137L136.8 111.5L136.4 111.6H136.2H136L135.9 111.7H135.8H135.7H135.6H135.5L135.4 111.4V111.2V111V110.9H135.3V110.8H135.2H135.1V110.9V111H135V111.1H134.9H134.8V111.2H134.7H134.6H134.5V111.3H134.4H134.3H134.2H134.1L134 111.2V111.1M134 111.1H133.9M134 111.1V111M134 111H134.1H134.2V111.1H134.3V111V110.9H134.2H134.1H134M134 111V110.9M134 110.9H133.9V111H133.8H133.7V111.1H133.6H133.5V111L133.4 111.1H133.3H133.2H133.1L133 111.2L132.9 111.3V111.4L132.7 111.3H132.6V111.4V111.5H132.5V111.6V111.7L132.4 111.8H132.3H132.2V111.7H132.1L132 111.6H131.9V111.5H131.8V111.4H131.7V111.3H131.6L131.5 111.2L131.4 111.1M131.4 111.1H131.5M131.4 111.1V111H131.3H131.2H131.1V110.9H131V110.8H130.9L130.8 110.7V110.6H130.7L130.6 110.4V110.3H130.5V110.2V110.1V110V109.9H130.4H130.3V109.8H130.2V109.9L130.1 109.5V109.6H130H129.9L129.8 109.5H129.7V109.6H129.6V109.5H129.5H129.4L129.5 109.4H129.4V109.3H129.3V109.2H129.2H129.1L128.8 109.3H128.7H128.5L127.8 109.5H127.4L126.6 109.7L126.3 109.8H126H125.9V110.1L126 110.5V110.9L126.1 111.4H125.8L125.2 111.6L125.3 111.9L125.4 112.5L125.5 113.1L125.6 113.9L125.1 114L124.5 114.1L123.9 114.3L123.3 114.4L122.8 114.5L122.3 114.6H122.1H122V114.5V114.4L121.9 114.1V113.9H121.8H121.7V114H121.8V114.1H121.7V114.2V114.3H121.6H121.5V114.4H121.4H121.3V114.5H121.4L121.3 114.6V114.7H121.2H121.1V114.8H121V114.7V114.6L120.9 114.5V114.4H120.8V114.3H120.7V114.2H120.8V114.1H120.5L120.4 114.2H120H119.9L119.8 114.1L119.7 113.5V113.1L119.6 112.7L119.5 112.1L119.1 112.2L118.5 112.3V112.2L118.4 112V111.7L118.3 111.3V111.2H118L117.8 110.4L117.7 110.5H117.3L117 110.6L116.9 110.4V110.2L116.8 110L116.7 109.6L116.2 109.7L116 109.8H115.6L115.3 109.9L114.9 110H114.7V109.9V109.8V109.7H114.6L114.5 109.8H114.4H114.3H114.2L114 109.9H113.9L113.4 110H112.9L112.7 110.1H112.5L111.9 110.2L112.1 111L112 111.1L111.2 111.2L110.6 111.3L109.8 111.5H109.4L108.5 111.7L107.6 111.9V112L107.1 112.1L106.5 112.2L105.8 112.3V112.2L105.7 112L105.6 111.5V111.4V111.2L105.5 110.8L105.4 110.5L105.3 110.2V109.7L105.5 109.6L106 109.5L106.6 109.4L107.2 109.3L107.3 109.2H107.4V109.1V109H107.5V108.9H107.4V108.8H107.3V108.7H107.2V108.6H107.1V108.5H107V108.4V108.3L106.9 108.2V108.1V108H106.7L106.6 107.6V107.5V107.3L106.9 107.2L106.8 107L106.7 106.5V106.3V106.2L106.8 106.1L108 106H108.3H108.4V105.9H108.5V105.8H108.4V105.7V105.6V105.5H108.3V105.4V105.3V105.2L108.2 105.1V105V104.9V104.8H108V104.7H107.9V104.4V104.2V104.1V103.9H108H108.1V103.8V103.7V103.6V103.5H108V103.4V103.3L107.9 103.2V103.1L107.8 103V102.9V102.8V102.7V102.6V102.4V102.3V102.2V102H107.7H107.6H107.5L107.2 102.1H107H106.9L106.8 102.2H106.7L106.5 101.1L106.3 100.2L106.2 99L106.1 98.6L105.9 98.7H105.7L105.4 98.8H105.3H105.2H105.1H105H104.9H104.8H104.7H104.6L104.5 98.9H104.4H104.3H104.2H104.1H104H103.9V99.1H103.8L103.6 99.2H103.3L103.2 99.3H103.1H103V99L102.9 98.9H102.8V99H102.7V99.1H102.8V99.2H102.7V99.3H102.6H102.5V99.4H102.6V99.5H102.5H102.4V99.6V99.7V99.8H102.3V99.9H102.2V100V100.1H102.1V100H102H101.9V100.1H101.8H101.7H101.6V100.2H101.5V100.1H101.4V100V99.4L101.3 99L101.2 98.6L101.1 98.2V97.9V97.7L101 97.4L100.9 96.9L100.8 96.4L100.7 95.4L100.6 94.9L100.5 94.2V94.1L100.4 93.8L100.3 93.5V93.2L100.9 93.1L102 92.9L102.2 92.8H102.3L103 92.7V92.6V92.5L102.9 92.2V92.1L102.8 91.7L102.7 91.1L102.6 90.5L102.5 90.1L102.4 89.3L102.3 88.7L102.2 88.2L101.2 88.4L100.7 88.5L99.9 88.6H99.6L99.5 88.7H99.4H99.3H99.2L99 88.8H98.9H98.7H98.6H98.5L98.4 88.3L98.2 87.3V87.1L98.1 87.2H98M98 87.2V87.3M98 87.2V87.1L97.9 87H98V86.9H98.1V86.8H97.8L97.2 86.9L96.8 87L96.2 87.1L95.9 87.2L95.8 86.8V86.5H95.7L95.6 86.3V86.2L95.5 85.7L95.2 85.8V85.7H95L94.9 85.8H94.6L94.1 86H94H93.9L93.7 86.1H93.4L92.9 86.2L93 86.6L92.9 86.7V86.8V86.9V87V87.1V87.2V87.4L93 87.9H92.9L92.7 88H92.6V88.1H92.5H92.4H92.3H92.2V88.2V88.3V88.4M92.2 88.4V88.5M92.2 88.4L92.1 88.3L92 88.2L91.9 87.8L91.7 87.6H91.6H91.5L91.2 87.7L90.8 87.8L90.9 88.1L91 88.9L91.2 90L91.3 90.5V90.6L90.9 90.7H90.6H90.2H89.3V90.9V91V91.1V91.2H89.4V91.3H89.3V91.4L89.2 91.5L89.1 91.7L89 91.8L88.9 91.9V92H88.8H88.7H88.6L88.4 92.1L88.3 91.7L88.2 91.2L88.1 91H87.7L87.3 91.1H87.2L87.3 90.3V90.2V90.1V90H87.4V89.9V89.8L87.5 89.7V89.6L88.1 89.5L88.7 89.3L88.6 89L88.5 88.6V88.5L88.3 87.4L88.1 86.4V86.1L87.7 86.2H87.3L87.2 86.3H87L86.2 86.5L85.2 86.7L84.6 86.8V86.9L84.7 87.5H84.6L84.2 87.6H83.9L83.7 87.7H83.5L83.4 87.3V87.2L83.3 87L83.2 86.4V86.3L83.1 86.1V86H83H82.9H82.8H82.7V86.1V86.2H82.6V86.3V86.4H82.5V86.5H82.4V86.6H82.3V86.7H82.2V86.8H82.1V86.9H82H81.9H81.8H81.7H81.6H81.5H81.4H81.3H81.2H81.1V87H81H80.9H80.8V87.1H80.7H80.6V87.2H80.5H80.4V87.3H80.3H80.2H80.1H80L79.9 87.2L79.8 86.3L79.7 85.5L78.8 85.9L78.4 86H78.3L77.5 86.3L77.1 86.5L76.4 86.7L75.8 86.9L75.4 87.1L75.3 86.4L75.2 85.8L75.1 85.2L74.9 84.2L74.8 83.7V83.6L74.6 83L73.7 83.2L73.5 83.1L73.4 82.9H73.3L73.2 82.8V82.7H73.1L73 82.6H72.9V82.5H72.8V82.4H72.7V82.3H72.6V82.2V82.1V82V81.9V81.8H72.7V81.7H72.8H72.9H73L73.1 81.6V81.5V81.4H73.2V81.3V81.2H73.1L73 81.1H72.9V81V80.9V80.8V80.7H72.8V80.6V80.5H72.7V80.4H72.6V80.3H72.5V80.2H72.4V80.1H72.3V80H72.2V79.9V79.8V79.7H72.1H72V79.6V79.5L72.1 79.4H72L71.9 79.3H71.8V79.2V79.1H71.7V79L71.5 79.1H71.1L70.6 79.2L70.5 78.8V78.6H70.3L69.9 78.7L69.1 78.8L68.2 79H68.1L67.5 79.1L66.6 79.2L66.4 79.3L66.3 78.8L66.2 78.3L65.6 78.5H65.4H65.2L65 78.6H64.8L64.4 78.7H64.3H64.2H64.1L64 78.8H63.9L63.3 79H63L62.6 79.1V79.3L62.7 79.8L62.8 80.3L62.9 80.9L63 81.2H62.9V81.3V81.5L63 81.7V82H62.9H62.8H62.7H62.6H62.5H62.4H62.3V81.9H62.2H62.1H62H61.9H61.8H61.7V82H61.6V82.1H61.5L61.4 82.2H61.3H61.2H61.1V82.1H61L60.9 82H60.8H60.7H60.6H60.5H60.4H60.3H60.2H60.1H60V82.1V82.2V82.3V82.4V82.5V82.6V82.7V82.8V82.9V83V83.1V83.2V83.3H59.9M59.9 83.3V83.4M59.9 83.3H59.8V83.2H59.7V83.1H59.6H59.5H59.4V83.2V83.3V83.4H59.3H59.2L59.1 83.5H59H58.9H58.8H58.7M58.7 83.5V83.4M58.7 83.5H58.6M58.7 83.5V83.6V83.7H58.6V83.8H58.5V83.9H58.4V83.8V83.7L58.3 83.6V83.5L58.2 83.4H58.1H58H57.9H57.8H57.7H57.6L57.5 83.5H57.4H57.3V83.6H57.2V83.7H57.1H57V83.6L56.7 83.7H56.4H56.2L56.1 83.3L56 82.7V82.4L55.9 82H55.6L55.4 82.1H55.2H55.1L54.8 82.2V82L54.7 81.7V81.6H54.6V81.5H54.5V81.6H54.4V81.7V81.8V81.9L54.5 82V82.1H54.4V82.2V82.3H54.3L54.2 82.4V82.5L54.1 82.6V82.7V82.8V82.9H54.2V83V83.1H54L53.4 83.2H53.1L53 82.7V82.5L52.9 82.4V82.3V82.2V82.1L52.8 81.7L52.7 81.4L52 81.5H51.8L51.5 81.6H51.1H50.9L50.4 81.7H50.3H50L49.4 81.8L49.3 81.6V81.4V81.3V81.2L49.2 81.1L49 81.2L48.6 81.3L48.3 81.4L47.9 81.6H47.8L47.6 81.7H47.4H47.3H47L46.7 81.8H46.6H46.4H46.1L46 81.9H45.8H45.7L45.8 82.1V82.3V82.4L45.9 82.5L46 82.7L46.1 82.8L46.2 82.9L46.1 83L45.7 83.1L45.5 83.2H45.4L45.2 83.3H44.9H44.6H44.5H44.4L44.3 83.4V83.5V83.6H44.4V83.7V83.8V84H44.3V84.1H44.2H44H43.9L43.8 84H43.5H43.2H43H42.9H42.8H42.7H42.6V84.1H42.4V84.2L41.7 84.1H41.1L41 83.7V83.6L40.9 83.5L40.8 83.4L40.4 83L39.8 82.5L39.7 82.3L39.6 82.4L39.4 82.7L39 83.3L38.6 83.8L38.5 84V83.9L38.4 83.8V83.7L38.3 83.6V83.5V83.4V83.3V83.2L38.2 83.1H38.1H38H37.9H37.8L37.7 83.2H37.6H37.5L37.4 83.3H37.3H37.2M37.2 83.3V83.4M37.2 83.3H37.1H37L36.9 83.4V83.5V83.6H36.8H36.7H36.6V83.5H36.5V83.4H36.4H36.3L36.2 83.3H36.1L36 83.2H35.9L35.8 83.1H35.7H35.6H35.5H35.4V83H35.3L35.2 82.9H35.1H35V83H34.9V83.1L34.8 83.2V83.3H34.7V83.4H34.6V83.5H34.5H34.4H34.3L34.2 83.6H34.1H34H33.9H33.8H33.7V83.5H33.6H33.5H33.4H33.2H33.1H33L32.9 83.4H32.8L32.7 83.3V83.2H32.6V83.1V83V82.9V82.8H32.5V82.7H32.4H32.3H32.2L32.1 82.8L31.9 82.7H31.8H31.7H31.6H31.5V82.8H31.4V82.9V83H31.3V83.1H31.2H31.1V83.2H31H30.9H30.8H30.7L30.6 83.3L30.5 83.4V83.5H30.4V83.6H30.3L30.2 83.7H30.1H30H29.9H29.8L29.7 83.8H29.6V83.9V84V84.1V84.2V84.3V84.4V84.5L29.7 84.6V84.7L29.6 84.8L29.4 85L29.3 85.1L29.2 85.2H29.1V85.3H29H28.9V85.2H28.8H28.7H28.6H28.5V85.1H28.4H28.3H28.2V85.2H28.1H28H27.9L27.8 85.3H27.7H27.6H27.5H27.4H27.3V85.2H27.2L27.1 85.1L27 85H26.9L26.7 84.9L26.6 84.8H26.5H26.4H26.3M26.3 84.8V84.7" stroke="white" stroke-width="0.5" stroke-linecap="round" stroke-linejoin="round"/>
</g>
</svg>
