<svg width="12" height="12" viewBox="0 0 12 12" fill="none" xmlns="http://www.w3.org/2000/svg">
<g id="UA40">
<path d="M9.5 11.0999L9.40002 11V10.9L9.29999 10.8V10.7V10.5H9.20001H9.09998V10.5999H9L8.90002 10.7H8.79999V10.8H8.70001V10.7L8.59998 10.5999V10.5H8.70001V10.4V10.3L8.59998 10.2H8.70001H8.79999V10.3H8.90002V10.2L9.09998 10.0999H9.20001V9.99997H9.29999V9.89999H9.20001H9.09998V9.79996L9.20001 9.69998H9.40002H9.5V9.59995L9.70001 9.69998V9.89999V9.99997H9.79999L9.90002 10.0999L10 9.99997H10.1V10.0999H10.2H10.4H10.5H10.6L10.7 10.2H10.8V10.3H10.7H10.6V10.4H10.5V10.5H10.4L10.3 10.4V10.3H10.2V10.4V10.5L10.3 10.5999L10.2 10.7V10.8H10.1H10H9.90002H9.79999L9.70001 10.9H9.59998V11L9.70001 11.0999H9.79999V11.2V11.3V11.4V11.5H9.70001V11.5999H9.59998V11.5H9.70001V11.4V11.3H9.59998V11.2V11.0999H9.5ZM9.90002 5.09995H9.79999V4.89999H9.70001V4.79996H9.79999V4.59995V4.49997L9.70001 4.39999V4.29996H9.79999V4.39999L9.90002 4.59995L10 4.79996L10.2 5.09995H10.1H10L9.90002 5.19998V5.09995ZM8.20001 3.29996L8.09998 3.39999V3.49997L8 3.59995V3.69998H8.09998H8.20001H8.29999V3.79996L8.40002 3.89999H8.5L8.40002 3.99997H8.5L8.59998 4.09995L8.5 4.19998H8.40002L8.29999 4.29996L8.20001 4.39999V4.49997H8.29999V4.59995L8.20001 4.69998L8.09998 4.89999L8.20001 4.99997L8.29999 5.19998L8.40002 5.39999L8.5 5.59995L8.59998 5.79996L8.70001 5.99997L8.59998 6.09995V6.19998H8.5H8.29999H8.20001L8 5.99997L7.79999 5.69998L7.59998 5.49997L7.29999 5.09995V5.19998L7.20001 5.09995V5.19998H7.09998V5.09995L7 5.19998L6.90002 5.09995V4.99997L6.79999 4.89999V5.19998H6.70001H6.59998H6.40002V5.29996L6.29999 5.19998H6.20001V5.29996H6.29999V5.39999L6.20001 5.49997H6.09998V5.59995V5.69998H6.20001V5.79996V5.89999H6.09998V5.99997H6.20001H6.29999L6.40002 6.09995V6.19998V6.29996L6.29999 6.39999V6.49997H6.40002V6.59995L6.29999 6.69998V6.79996V6.99997V7.09995H6.40002V7.19998V7.29996V7.39999V7.49997V7.59995L6.5 7.69998L6.29999 7.79996H6.20001H6.09998H6H5.90002L5.79999 7.69998V7.59995L5.90002 7.49997L5.70001 7.19998V7.09995V6.99997V6.89999L5.59998 6.99997L5.5 6.89999H5.29999H5.20001H5.09998L5 6.79996V6.69998V6.59995V6.49997V6.39999V6.29996H4.90002V6.19998L4.79999 6.09995V5.99997V5.89999L4.70001 5.99997L4.59998 6.09995L4.5 6.19998L4.40002 6.29996L4.29999 6.19998H4.20001H4.09998V6.29996V6.39999H4H3.90002V6.29996L3.70001 6.19998V6.09995H3.59998H3.5L3.40002 5.99997V6.09995V6.19998L3.29999 6.29996V6.49997L3.09998 6.39999V6.29996H3L2.90002 6.39999H2.70001L2.79999 6.19998H2.70001V6.29996H2.40002V6.19998V6.09995V5.99997V5.89999V5.79996H2.5V5.69998V5.59995H2.40002V5.49997H2.29999V5.39999L2.20001 5.29996V5.19998H2.09998V5.39999L2 5.49997L1.90002 5.79996V5.99997V6.09995V6.19998V6.29996L1.70001 6.19998L1.59998 5.99997L1.5 5.89999L1.40002 5.79996V5.69998L1.29999 5.49997L1.20001 5.39999V5.29996L1.29999 5.19998L1.20001 5.09995L1.5 4.89999L1.40002 4.79996L1.5 4.69998V4.39999V4.29996H1.40002V4.39999L1.29999 4.49997V4.59995H1.20001V4.49997V4.39999V4.29996H1.29999V4.19998V4.09995V3.99997H1.40002V3.89999H1.5H1.59998V3.99997V4.09995V4.19998V4.29996H1.70001V4.39999H1.79999H1.90002V4.49997H2V4.39999V4.29996H2.09998V4.19998V4.09995V3.99997H2V3.89999V3.79996V3.69998H2.09998V3.59995H2.20001H2.29999H2.40002H2.5V3.49997H2.59998V3.59995H2.70001V3.49997H2.79999H2.90002H3V3.59995L3.09998 3.69998H3H2.90002V3.79996V3.89999V3.99997V4.09995V4.19998H3V4.29996V4.39999V4.49997V4.59995V4.69998H3.09998H3.20001V4.59995H3.09998V4.49997V4.39999V4.29996L3.20001 4.19998V4.09995H3.29999V3.99997H3.20001V3.89999H3.29999V3.79996V3.69998V3.59995V3.49997V3.39999H3.40002L3.5 3.49997H3.59998V3.59995L3.70001 3.69998H3.79999V3.59995H3.90002V3.49997V3.39999H4H4.09998L4.20001 3.29996H4.29999V3.19998H4.40002V3.29996H4.5V3.39999H4.40002V3.49997V3.59995H4.5V3.69998H4.59998V3.79996V3.89999H4.70001V3.79996H4.59998L4.70001 3.69998H4.59998V3.59995H4.5V3.49997H4.59998H4.70001V3.39999L4.79999 3.29996H4.70001V3.19998L4.79999 3.09995H4.90002V2.99997V2.89999L5 2.79996V2.89999L4.90002 2.99997V3.09995H5H5.09998V2.99997H5.20001V3.09995H5.29999H5.40002L5.5 2.99997V3.09995H5.59998V3.19998V3.29996L5.70001 3.19998V3.09995V2.99997H5.79999H5.90002V2.89999H6V2.99997V3.09995V3.19998V3.29996H6.09998V3.39999V3.49997V3.59995V3.69998V3.79996V3.89999V3.99997V4.09995H6V4.19998V4.29996V4.39999H6.09998V4.29996V4.19998H6.20001V4.09995H6.29999V3.99997V3.89999V3.79996V3.69998V3.59995V3.49997V3.29996H6.40002V3.39999L6.5 3.49997V3.39999V3.29996V3.19998H6.40002V3.09995H6.29999H6.20001V2.99997H6.29999V3.09995H6.40002H6.5H6.59998H6.70001H6.79999H6.90002H7H7.09998H7.20001V2.99997H7.29999H7.40002V3.09995V3.19998V3.29996L7.5 3.39999V3.29996V3.19998V3.09995H7.59998H7.70001H7.79999V3.19998H7.90002H8H8.09998V3.29996H8.20001ZM6.5 0.899994H6.59998L6.70001 1.19998L6.79999 1.39999L6.90002 1.29996H7V1.19998V1.09995H7.20001H7.29999L7.5 0.999969V1.29996V1.39999H7.70001V1.49997V1.59995L7.59998 1.79996L7.70001 1.69998V1.79996L7.79999 1.89999L7.70001 1.99997V2.09995V2.19998H7.79999L7.90002 2.29996H8V2.39999L8.09998 2.29996V2.19998L8.20001 2.09995H8.29999V2.19998V2.29996V2.39999V2.59995L8.20001 2.69998H8V2.79996H7.90002V2.69998V2.59995H7.79999V2.49997L7.70001 2.39999V2.49997H7.59998H7.5H7.40002V2.59995H7.29999L7.20001 2.39999H7.09998V2.49997H7H6.90002V2.59995H6.70001V2.49997L6.59998 2.59995H6.5H6.40002V2.49997H6.5V2.39999H6.40002V2.29996L6.29999 2.39999H6.20001V2.29996H6.09998H6H5.90002V2.19998H5.79999H5.70001H5.59998H5.5H5.40002H5.29999V2.29996V2.39999H5.20001V2.49997H5.09998L5.20001 2.39999V2.29996H5.29999V2.19998V2.09995H5.20001V1.99997V1.89999H5.29999V1.79996H5.40002V1.69998L5.5 1.59995H5.59998V1.49997H5.70001H5.79999H5.90002H6H6.09998V1.39999H6.20001V1.29996H6.29999V1.19998H6.40002V1.09995V0.999969H6.5V0.899994Z" fill="#6F9C76"/>
<path d="M9.70001 11.5H9.79999V11.4V11.3V11.2V11.0999H9.70001L9.59998 11V10.9H9.70001L9.79999 10.8H9.90002H10H10.1H10.2V10.7L10.3 10.5999L10.2 10.5V10.4V10.3H10.3V10.4L10.4 10.5H10.5V10.4H10.6V10.3H10.7H10.8V10.2H10.7L10.6 10.0999H10.5H10.4H10.2H10.1V9.99997H10L9.90002 10.0999L9.79999 9.99997H9.70001V9.89999V9.69998L9.5 9.59995V9.69998H9.40002H9.20001L9.09998 9.79996V9.89999H9.20001H9.29999V9.99997H9.20001V10.0999H9.09998L8.90002 10.2V10.3H8.79999V10.2H8.70001H8.59998L8.70001 10.3V10.4V10.5H8.59998V10.5999L8.70001 10.7V10.8H8.79999V10.7H8.90002L9 10.5999H9.09998V10.5H9.20001H9.29999V10.7V10.8L9.40002 10.9V11L9.5 11.0999H9.59998V11.2V11.3H9.70001V11.4V11.5ZM9.70001 11.5V11.5999H9.59998V11.5H9.70001ZM4.40002 6.29996L4.5 6.19998L4.59998 6.09995L4.70001 5.99997L4.79999 5.89999V5.99997V6.09995L4.90002 6.19998V6.29996H5V6.39999V6.49997V6.59995V6.69998V6.79996L5.09998 6.89999H5.20001H5.29999H5.5L5.59998 6.99997L5.70001 6.89999V6.99997V7.09995V7.19998L5.90002 7.49997L5.79999 7.59995V7.69998L5.90002 7.79996H6H6.09998H6.20001H6.29999L6.5 7.69998L6.40002 7.59995V7.49997V7.39999V7.29996V7.19998V7.09995H6.29999V6.99997V6.79996V6.69998L6.40002 6.59995V6.49997H6.29999V6.39999L6.40002 6.29996V6.19998V6.09995L6.29999 5.99997H6.20001H6.09998V5.89999H6.20001V5.79996V5.69998H6.09998V5.59995V5.49997H6.20001L6.29999 5.39999V5.29996H6.20001V5.19998H6.29999L6.40002 5.29996V5.19998H6.59998H6.70001H6.79999V4.89999L6.90002 4.99997V5.09995L7 5.19998L7.09998 5.09995V5.19998H7.20001V5.09995L7.29999 5.19998V5.09995L7.59998 5.49997L7.79999 5.69998L8 5.99997L8.20001 6.19998H8.29999H8.5H8.59998V6.09995L8.70001 5.99997L8.59998 5.79996L8.5 5.59995L8.40002 5.39999L8.29999 5.19998L8.20001 4.99997L8.09998 4.89999L8.20001 4.69998L8.29999 4.59995V4.49997H8.20001V4.39999L8.29999 4.29996L8.40002 4.19998H8.5L8.59998 4.09995L8.5 3.99997H8.40002L8.5 3.89999H8.40002L8.29999 3.79996V3.69998H8.20001H8.09998H8V3.59995L8.09998 3.49997V3.39999L8.20001 3.29996H8.09998V3.19998H8H7.90002H7.79999V3.09995H7.70001H7.59998H7.5V3.19998V3.29996V3.39999L7.40002 3.29996V3.19998V3.09995V2.99997H7.29999H7.20001V3.09995H7.09998H7H6.90002H6.79999H6.70001H6.59998H6.5H6.40002M4.40002 6.29996V6.19998M4.40002 6.29996L4.29999 6.19998H4.20001H4.09998V6.29996V6.39999H4H3.90002V6.29996L3.70001 6.19998V6.09995H3.59998H3.5L3.40002 5.99997V6.09995V6.19998L3.29999 6.29996V6.49997L3.09998 6.39999V6.29996H3L2.90002 6.39999H2.70001L2.79999 6.19998H2.70001V6.29996H2.40002V6.19998V6.09995V5.99997V5.89999V5.79996H2.5V5.69998V5.59995H2.40002V5.49997H2.29999V5.39999L2.20001 5.29996V5.19998H2.09998V5.39999L2 5.49997L1.90002 5.79996V5.99997V6.09995V6.19998V6.29996L1.70001 6.19998L1.59998 5.99997L1.5 5.89999L1.40002 5.79996V5.69998L1.29999 5.49997L1.20001 5.39999V5.29996L1.29999 5.19998L1.20001 5.09995L1.5 4.89999L1.40002 4.79996L1.5 4.69998V4.39999V4.29996H1.40002V4.39999L1.29999 4.49997V4.59995H1.20001V4.49997V4.39999V4.29996H1.29999V4.19998V4.09995V3.99997H1.40002V3.89999H1.5H1.59998V3.99997V4.09995V4.19998V4.29996H1.70001V4.39999H1.79999H1.90002V4.49997H2M2 4.49997V4.59995M2 4.49997V4.39999V4.29996H2.09998V4.19998V4.09995V3.99997H2V3.89999V3.79996V3.69998H2.09998V3.59995H2.20001H2.29999H2.40002H2.5V3.49997H2.59998V3.59995H2.70001V3.49997H2.79999M2.79999 3.49997V3.39999M2.79999 3.49997H2.90002H3M3 3.49997V3.39999M3 3.49997V3.59995L3.09998 3.69998H3H2.90002V3.79996V3.89999V3.99997V4.09995V4.19998H3V4.29996V4.39999V4.49997V4.59995V4.69998H3.09998H3.20001M3.20001 4.69998V4.79996M3.20001 4.69998V4.59995H3.09998V4.49997V4.39999V4.29996L3.20001 4.19998V4.09995H3.29999V3.99997H3.20001V3.89999H3.29999V3.79996V3.69998V3.59995V3.49997V3.39999H3.40002L3.5 3.49997H3.59998V3.59995M3.59998 3.59995H3.70001M3.59998 3.59995L3.70001 3.69998H3.79999V3.59995H3.90002V3.49997V3.39999H4M4 3.39999V3.29996M4 3.39999H4.09998L4.20001 3.29996H4.29999V3.19998H4.40002V3.29996H4.5V3.39999H4.40002V3.49997V3.59995H4.5M4.5 3.59995V3.69998H4.59998M4.5 3.59995H4.59998V3.69998M4.5 3.59995V3.49997H4.59998H4.70001V3.39999L4.79999 3.29996H4.70001V3.19998L4.79999 3.09995M4.59998 3.69998V3.79996M4.59998 3.69998H4.70001L4.59998 3.79996M4.59998 3.79996V3.89999M4.59998 3.79996H4.70001V3.89999H4.59998M4.59998 3.89999V3.99997M4.79999 3.09995V3.19998M4.79999 3.09995H4.90002M4.90002 3.09995V2.99997M4.90002 3.09995H5H5.09998V2.99997H5.20001V3.09995H5.29999H5.40002L5.5 2.99997V3.09995H5.59998V3.19998V3.29996L5.70001 3.19998V3.09995V2.99997H5.79999H5.90002V2.89999H6V2.99997V3.09995V3.19998V3.29996H6.09998V3.39999V3.49997V3.59995V3.69998V3.79996V3.89999V3.99997V4.09995H6V4.19998V4.29996V4.39999H6.09998V4.29996V4.19998H6.20001V4.09995H6.29999V3.99997V3.89999V3.79996V3.69998V3.59995V3.49997V3.29996H6.40002V3.39999L6.5 3.49997V3.39999V3.29996V3.19998H6.40002V3.09995M4.90002 2.99997V2.89999L5 2.79996M4.90002 2.99997L5 2.89999V2.79996M5 2.79996V2.69998M6.40002 3.09995H6.29999M6.29999 3.09995H6.20001V2.99997H6.29999V3.09995ZM7 2.49997H7.09998V2.39999H7.20001L7.29999 2.59995H7.40002V2.49997H7.5H7.59998H7.70001V2.39999L7.79999 2.49997V2.59995H7.90002V2.69998V2.79996H8V2.69998H8.20001L8.29999 2.59995V2.39999V2.29996V2.19998V2.09995H8.20001L8.09998 2.19998V2.29996L8 2.39999V2.29996H7.90002L7.79999 2.19998H7.70001V2.09995V1.99997L7.79999 1.89999L7.70001 1.79996V1.69998L7.59998 1.79996L7.70001 1.59995V1.49997V1.39999H7.5V1.29996V0.999969L7.29999 1.09995H7.20001H7V1.19998V1.29996H6.90002L6.79999 1.39999L6.70001 1.19998L6.59998 0.899994H6.5V0.999969H6.40002V1.09995V1.19998H6.29999V1.29996H6.20001V1.39999H6.09998V1.49997H6H5.90002H5.79999H5.70001H5.59998V1.59995H5.5L5.40002 1.69998V1.79996H5.29999V1.89999H5.20001V1.99997M7 2.49997V2.59995M7 2.49997H6.90002V2.59995H6.70001V2.49997L6.59998 2.59995H6.5H6.40002V2.49997H6.5V2.39999H6.40002V2.29996L6.29999 2.39999H6.20001V2.29996H6.09998H6H5.90002V2.19998H5.79999H5.70001H5.59998M5.59998 2.19998V2.29996M5.59998 2.19998H5.5H5.40002H5.29999M5.29999 2.19998V2.29996M5.29999 2.19998V2.09995H5.20001V1.99997M5.29999 2.29996H5.40002M5.29999 2.29996V2.39999H5.20001M5.29999 2.29996H5.20001V2.39999M5.20001 2.39999V2.49997H5.09998L5.20001 2.39999ZM5.20001 1.99997H5.09998M9.90002 5.09995H9.79999V4.89999H9.70001V4.79996H9.79999V4.59995V4.49997L9.70001 4.39999V4.29996H9.79999V4.39999L9.90002 4.59995L10 4.79996L10.2 5.09995H10.1H10L9.90002 5.19998V5.09995Z" stroke="white" stroke-width="0.5" stroke-linecap="round" stroke-linejoin="round"/>
</g>
</svg>
