<svg width="142" height="152" viewBox="0 0 142 152" fill="none" xmlns="http://www.w3.org/2000/svg">
<g id="UA46">
<path d="M74.7 1.99998H74.8V1.89998H74.9V1.79999H75V1.69998H75.1V1.59999L75.2 1.49998H75.3V1.39998H75.2L75.3 1.29999H75.4H75.5H75.6V1.19998H75.5V1.09999H75.4H75.3V0.999985V0.899979H75.4H75.5V0.999985H75.6L75.7 0.899979V0.799988H75.8H75.9V0.899979H76V0.999985V1.09999H76.1H76.2H76.3V1.19998V1.29999H76.4V1.19998V1.09999V0.999985H76.5V1.09999V1.19998H76.6V1.29999H76.7H76.8V1.19998V1.09999V0.999985H76.9L77 0.899979V0.999985V1.09999V1.19998V1.29999H77.1V1.19998V1.09999H77.2V0.999985H77.3V1.09999H77.2V1.19998H77.1V1.29999H77.2H77.3V1.39998V1.49998L77.4 1.59999V1.49998V1.39998V1.29999H77.5V1.39998V1.49998V1.59999H77.6V1.69998H77.7H77.8V1.79999H77.9V1.89998V1.99998H78V1.89998H78.1V1.99998V2.09999H78.2V2.19998L78.1 2.29999H78L77.9 2.19998H77.8H77.7V2.29999H77.8H77.9H78V2.39998H78.1V2.49998H78V2.59999H78.1L78.2 2.69998H78.1L78 2.79999V2.89998L78.2 2.79999H78.3V2.89998H78.2V2.99998H78.3V3.09999V3.19998H78.2V3.29999V3.39998H78.3V3.29999V3.19998H78.4H78.5V3.29999H78.6V3.39998H78.7V3.29999V3.19998H78.8V3.29999V3.39998V3.49998H78.9V3.59999L79 3.49998V3.39998V3.29999H79.1V3.39998H79.2V3.49998L79.3 3.59999V3.69998H79.4V3.59999H79.5H79.6V3.69998H79.7V3.79999V3.89998V3.99998H79.6H79.5V4.09999H79.6H79.7H79.8V4.19998H79.7V4.29999V4.39998H79.8H79.9V4.49998H79.8V4.59999H79.9V4.49998H80V4.59999V4.69998H80.1V4.79999H80V4.89998H80.1H80.2V4.99998V5.09999H80.1V5.19998V5.29999V5.39998H80.2H80.3H80.4V5.29999V5.19998H80.5H80.6V5.29999H80.7H80.8V5.39998H80.7H80.6V5.49998V5.59999H80.7L80.8 5.69998H80.9V5.79999H81V5.89998V5.99998H81.1H81.2V5.89998H81.3V5.99998H81.4V6.09999H81.5H81.6L81.7 6.19998H81.8H81.9H82H82.1H82.2H82.3V6.29999H82.4H82.5H82.6L82.7 6.19998H82.8L82.9 6.29999H83L83.1 6.39998H83.2H83.3V6.49998H83.4H83.5L83.6 6.59999H83.7H83.8H83.9L84 6.69998H84.1L84.2 6.79999H84.3L84.4 6.69998H84.5H84.6H84.7L84.9 6.79999H85H85.1V6.89998H85.2H85.3H85.4V6.79999H85.5V6.69998V6.59999V6.49998V6.39998V6.29999V6.19998V6.09999L85.6 5.99998L85.7 5.79999V5.69998L85.9 5.29999L85.8 4.89998V4.79999H85.7L85.8 4.69998H86L86.2 4.79999H86.3H86.4H86.5H86.8H86.9H87H87.1H87.2H87.3L87.4 4.89998H87.5H87.6V4.99998H87.7V4.89998V4.79999H87.8L88 4.59999H88.2V4.49998L88.3 4.39998L88.4 4.29999L88.5 4.19998L88.6 4.09999V3.99998L88.9 4.19998V4.29999L89 4.49998L89.2 4.69998L89.3 4.79999L89.4 4.89998V4.99998V5.09999L89.5 5.19998V5.29999L89.6 5.39998L89.7 5.49998H89.8L89.9 5.59999H90.1V5.69998H90.2L90.3 5.79999L90.2 5.89998V5.99998H90.1V6.09999V6.19998L89.9 6.39998L89.8 6.49998H89.7L89.5 6.69998V6.79999H89.6L89.7 6.89998L89.8 6.99998L89.7 7.09999V7.19998L89.8 7.39998V7.49998V7.59999L89.9 7.69998V7.79999V7.89998H90H90.1H90.2V7.99998H90.3H90.4V8.09999L90.5 8.19998V8.29999H90.6V8.39998H90.7L90.8 8.49998H90.9V8.59999H91V8.69998L91.1 8.79999H91.2V8.89998H91.3V8.99998H91.4L91.5 9.09999H91.6L91.7 9.19998L91.8 9.29999H91.9L92 9.39998H92.1V9.49998H92.2L92.3 9.39998H92.4H92.5L92.6 9.49998L92.7 9.39998H92.8H92.9H93V9.29999H93.1L93.3 9.19998L93.4 9.09999H93.5V8.99998L93.6 8.89998H93.7V8.79999H93.8L93.9 8.69998L94 8.59999H94.1L94.6 8.49998V8.39998L94.7 8.29999L94.9 8.19998H95H95.1H95.3H95.4H95.5L95.9 8.49998L96 8.59999H96.1L96.2 8.69998L96.3 8.79999L96.4 8.89998H96.5V8.99998V9.09999L96.6 9.19998V9.29999L96.7 9.39998V9.49998L96.8 9.59999L96.9 9.69998V9.79999H97V9.89998L97.1 9.99998V10.1V10.2V10.4V10.5V10.6V10.7V10.8L97.2 10.9V11V11.1H97.3V11.2H97.4V11.3V11.4L97.5 11.6V11.7H97.6V11.8V11.9V12H97.5V12.1L97.4 12.2V12.4V12.5V13.1V13.2H97.8V13.5H97.9H98H98.1H98.2H98.3V13.4H98.4H98.5H98.6H98.7H98.8V13.3H98.9L99 13.2H99.1V13.1V13V12.9L99 12.8V12.7V12.6L99.1 12.7H99.2H99.3V12.8H99.4H99.5V12.9V13H99.4L99.3 13.1H99.2L99.1 13.2L99.2 13.5V13.6H99.3L99.2 13.8V13.9H99.3V14V14.1V14.2H99.4L99.5 14.3H99.6V14.4V14.6V14.8V15.3L99.1 15.7V15.8H99.2V15.9V16H99.3V16.1H99.4H99.5H99.6H99.7L99.6 16.2V16.3V16.4V16.6V16.8V16.9V17.1V17.4V17.5V17.6V17.7V17.8V17.9V18V18.2V18.5L99.5 19V19.1V19.3V19.5H99.6L99.7 19.6H99.8H99.9H100L100.1 19.7H100.2L100.3 19.8H100.4H100.5H100.6H100.7H100.8V19.9H100.9H101H101.1H101.2H101.3H101.4H101.5H101.6H101.7H101.8L101.9 19.8H102L102.1 19.7H102.2H102.3V19.8H102.4V19.9V20L102.3 20.2V20.3H102.4V20.4L102.5 20.5H102.6H102.8V20.6L102.9 20.5H103V20.6H103.1H103.2H103.3V20.7H103.4H103.5L103.6 20.8L103.8 21L104 21.1L104.3 21.3V21.4H104.4L104.5 21.5L104.7 21.6L104.8 21.7L105.1 21.8V21.9L105.2 22L105.3 22.1L105.5 22.2L105.6 22.4L105.7 22.5L105.8 22.6V22.7V22.8V23V23.1L105.7 23.2V23.3L105.6 23.6L105.5 23.9L105.6 24L105.5 24.1V24.4V24.7V25L105.4 25.1H105.5L106 25.2H106.3L106.5 25.3H107.1L107.4 25.4H107.6H108L108.6 25.5L109 25.1H109.1V25V24.9L109.2 24.8H109.3L109.4 24.9H109.5H109.6V24.8H109.7H109.8H109.9H110.1H110.2V24.7H110.3H110.4H110.5L110.7 24.6H110.9H111.1H111.2H111.4L111.6 24.5H111.9H112L112.1 24.4H112.3H112.4H112.5H112.6L112.7 24.5H112.8V24.6V24.4V24.2H112.9V24.1L113 24L113.1 23.8H113.2H113.4H114.1H114.2V24.1V24.3L114.1 24.6V24.9H114.2L114.3 24.8H114.4H114.6L114.8 24.9H115H115.1H115.2H115.3H115.4V24.8H115.5H115.6H115.7H115.8V24.9H115.9H116V24.8H116.1H116.2H116.5L116.7 24.9V24.7V24.5L116.8 24.2V24.1V23.9V23.7V23.6V23.5V23.4V23.2L116.7 22.8L116.6 22.7L116.5 22.6L116.3 22.3L116.5 22.1L116.6 22H116.7V21.9L116.8 21.8V21.7L116.9 21.4H117L117.1 21.5H117.2V21.6H117.3V21.7L117.4 21.8V21.9H117.5V22H117.6L117.7 22.1L117.8 22.2L117.9 22.3L118 22.4L118.1 22.6L118.3 22.8L118.5 22.9V23H118.6V23.1H118.7V23.2H118.8V23.3L119 23.4L119.2 23.6L119.3 23.7V23.8L119.4 23.9H119.5L119.6 24L119.7 24.1L119.9 24.3L120.1 24.5L120.2 24.6L120.3 24.7L120.4 24.8L120.5 24.9L120.6 25.1L120.7 25.2L120.8 25.1H120.9L121 25H121.1V24.9H121.2H121.3H121.4H121.5H121.6H121.7H121.8L121.9 25H122V25.1H122.1H122.2H122.4H122.6H122.7H122.8V25.2H122.9V25.3H122.8H122.7V25.4V25.5V25.6H122.6V25.7L122.7 25.8H122.8V25.9H122.9V26V26.1V26.2V26.3V26.4H122.8L122.9 26.5V26.6H122.8V26.7H122.7V26.8H122.8V26.9H122.7V27V27.1H122.6V27.2V27.3V27.4H122.7V27.5V27.6H122.6V27.7V27.8V27.9V28H122.5V28.1H122.6V28.2H122.7V28.3V28.4L122.8 28.5H122.9H123L123.1 28.6H123.2L123.3 28.7L123.5 28.9L123.6 29H123.8L123.9 29.1H124.2L124.6 29.2H124.8H124.9L125.1 29.3L125.6 29.5V29.7L125.7 29.8H125.8H125.9L126.2 29.9H126.3H126.4L126.6 29.8L126.7 29.7L127 29.6L127.1 29.5H127.3L127.5 29.4L127.7 29.3H127.9V29.2H128H128.1H128.2L128.3 29.3H128.4H128.5H128.6H128.7L128.8 29.4H128.9L129 29.5L129.3 29.6L129.8 29.9L130 30L130.2 30.1V30.2V30.3V30.4V30.5V30.6V30.7V30.8V30.9V31.1L130.1 31.4V31.6V31.7V31.8V32V32.1V32.2H130.2V32.3V32.4L130.3 32.6H129.9L129.7 32.5H129.5L129.4 32.6V32.7V32.8L129.3 33.1L129.1 33.5H129L128.9 33.7L128.8 33.8L128.9 33.9V34.1H129.1L129 34.3L129.1 34.4V34.5H128.6H128.4V34.7L128.3 34.9V35V35.1V35.2V35.3V35.4V35.5H128.2V35.6V35.7H128.3V35.8V35.9L128.4 36V36.1V36.2H128.5L128.6 36.3L128.7 36.4L128.8 36.5H128.9V36.6H129L129.1 36.7H129.2L129.3 36.8L129.4 36.9H129.5L129.7 37L129.9 37.2L130 37.3L130.2 37.4L130.3 37.5L130.4 37.6L130.7 37.9V38V38.1L130.6 38.2V38.3L130.5 38.4V38.6L130.2 38.7L130 39V39.1V39.2H130.1V39.3H130.2V39.4L130.3 39.5V39.6V39.7V39.9V40V40.1H130.2V40.3V40.4L130.1 40.6V40.7V40.8L130 41.2L129.9 41.4V41.5L129.8 41.7V41.8L129.9 41.9V42L130.1 42.2V42.3L130.3 42.7V42.8H130.4L130.5 42.9V43.1L130.7 43.3L130.8 43.4L131 43.7L131.2 44L131.6 44.5L131.8 44.8L132.1 45.2L132.2 45.4L132.4 45.7L132.5 45.8L132.6 46L132.8 46.2L132.9 46.4L133.1 46.7H133.2V46.8L133.3 47L133.4 47.1V47.2H133.5V47.3L133.6 47.4L133.7 47.5V47.6H133.8L133.9 47.7L134 47.9L134.1 48L134.2 48.1L134.4 48.4L134.6 48.7L134.7 48.8V48.9L134.8 49V49.1L135 49.3L135.1 49.4L135.2 49.6H135.3V49.7L135.4 49.8V49.9L135.5 50.1L135.6 50.2V50.3L135.7 50.4L135.8 50.5H135.9L136 50.6L136.1 50.7H136.2L136.3 50.8L136.6 51L136.9 51.3L137.5 51.9L137.8 52.1L137.9 52.2L138 52.3L138.1 52.4H138.2V52.5H138.4L138.5 52.6H138.6L138.7 52.7L138.8 52.8H138.9L139.1 52.9H139.3L139.5 53H139.7L139.9 53.1L140.1 53.2H140.2V53.4H140.3V53.5V53.6L140.4 53.7V53.8V53.9L140.5 54V54.1L140.6 54.2V54.4L140.7 54.5L140.6 54.6L140.5 54.9H140.4L140.3 55.1V55.3L140.2 55.5L140.1 55.6V55.7V55.8L140.2 55.9V56V56.1V56.2H140.3H140.4V56.3H140.5H140.6H140.7V56.4H140.8L140.9 56.3H141L141.2 56.5L141.3 56.6H141.4V56.8V56.9H141.3H141.2H141.1V57H141V57.1L140.9 57.2H140.8H140.7L140.6 57.1H140.5H140.4H140.3L140.2 57H140.1L140 57.1L139.9 57.2H139.8L139.7 57.3V57.2H139.6H139.5V57.3H139.4V57.4V57.5V57.6V57.7V57.8V57.9H139.3V58V58.1L139.2 58.2V58.3L139.1 58.4L139 58.5V58.6L138.9 58.8V58.9V59V59.1H139V59.2V59.3H139.1V59.4V59.5H139.2V59.6H139.3V59.7L139.4 59.8V59.9L139.5 60V60.1V60.2L139.4 60.3V60.5L139.3 60.6V60.7V60.8L139.2 60.9V61L139.1 61.1V61.2V61.3V61.4V61.5V61.6V61.7H139H138.9H138.8L138.7 61.8H138.6V61.9V62H138.7V62.1V62.2H138.8V62.3V62.4V62.5L138.6 62.6H138.5H138.3H138.2L138 62.7H137.9H137.8L137.7 62.8H137.6H137.5V62.9H137.4V62.8H137.3H137.2H137.1H137H136.9H136.8V63.1L136.4 63.3L136 63.4H135.9H135.8H135.7V63.5H135.6L135.5 63.6H135.4H135.3H135.2H135.1H135L134.9 63.7V63.8L134.8 63.9H134.9H135V64V64.1V64.2H134.9L134.8 64.3H134.7L134.6 64.4V64.6H134.5V64.7H134.6V64.8H134.7V64.9V65V65.1L134.6 65.2L134.5 65.3V65.4H134.4V65.5H134.3V65.6H134.2V65.5H134.1H134H133.9H133.8V65.4H133.7H133.6H133.5V65.3V65.2H133.4L133.3 65.3L133.2 65.2H133.1V65.1V64.9H132.8V65.1H132.4V65.4V65.5V65.6L132.3 65.7L132.2 65.8H132L131.9 65.9H131.8L131.6 65.8H131.4H131.3H131.2H131.1L131 65.7H130.9H130.8H130.7H130.6H130.5V65.6V65.5V65.4H130.4L130.3 65.3H130.2L130.1 65.2H130H129.9L129.8 65.1H129.7L129.6 65H129.5H129.4L129.2 64.9H129.1V64.8H129L128.6 65.2H128.5H128.4H128.3H128.2L128.1 65.1H128H127.9H127.8H127.7H127.6H127.5V65.2L127.6 65.3V65.4L127.5 65.5V65.6H127.4H127.3H127.2V65.7V65.8V65.9L127.1 66V66.1V66.2V66.3V66.4L127 66.5H126.9L126.8 66.6V66.5H126.7V66.4H126.6H126.5H126.4V66.3L126.3 66.4V66.3H126.2H126.1H126H125.9H125.8H125.7H125.6H125.5H125.4H125.3V66.2H125.2L125.1 66.1H125H124.8L124.7 66L124.5 65.7H124.4V65.6H124.2H124.1V65.7L124 66V66.2V66.4L124.1 66.6V66.7V66.8V67V67.3V67.4V67.5V67.7V67.8V68H124.2V68.1V68.2V68.3L124.3 68.4V68.5V68.6H124.4V68.7V68.8V68.9V69V69.1V69.2L124.3 69.3V69.4L124.2 69.5L123.7 69.4V69.7V69.9L123.6 70L123.5 70.1L123.7 70.2L123.8 70.3H123.9L124 70.4L124.2 70.6H124.3V70.7V70.8H124.4L124.5 70.9L124.6 71H124.8L125.1 71.1V71.2L125.2 71.3L125.4 71.6H125.5V71.7L125.6 71.8V71.9H125.7V72L125.6 72.1V72.2L125.5 72.3L125.4 72.4L125.2 72.7L124.9 73L124.8 73.1L124.7 73.3L124.6 73.2L124.2 73.5L124 73.7L123.9 73.9L123.8 74L123.5 74.2L123.6 74.4L123.3 74.6H123.2L123.1 74.5H123V74.4H122.9V74.3V74.2L122.7 74L122.5 73.7L122.2 73.4V73.3H122.1V73.2H122L121.8 73.1H121.7L121.6 73H121.5V72.9H121.4L121.3 72.8H121.1L121 72.7V72.8L120.9 73V73.1L120.8 73.3L120.7 73.5L120.6 73.8L120.5 74.1L120.3 74.4V74.5L120.1 75L120 75.2L119.9 75.4V75.5L119.8 75.6L119.9 75.9L119.8 76V76.1V76.2V76.4V76.7L119.7 76.9V77.1L119.6 77.6V77.8V78V78.2V78.3V78.4L119.7 78.5H119.6H119.5H119.4L119.3 78.6V78.8V79L119.2 79.3V79.4V79.5L119.3 79.6V79.7L119.4 79.8L119.3 80H119.2V80.1L119.1 80.2V80.3L119 80.4V80.5L118.6 80.3L118.3 80.2H118.2L118.1 80.4V80.5V80.6V80.7V80.8V80.9H118V81V81.1V81.2V81.3H117.8V81.4V81.5V81.6L117.7 81.7V81.8V81.9H117.6V82V82.1L117.5 82.2H117.4H117.2L117.3 82.1V82H117.2H117.1H117H116.9H116.6H116.3L116.4 82.1H116.5H116.6L116.8 82.2V82.3L116.9 82.4V82.6V82.7H116.8H116.5L116.3 82.6H116.1L116 82.5L115.8 82.3H115.7L115.6 82.2H115.4H115.3H115.2H115.1V82.3H115L114.9 82.4L114.8 82.5H114.7V82.6H114.8H114.9V82.7H115V82.8H114.9V82.9V83H115V83.1V83.2H115.1L115 83.4H114.9H114.8L114.7 83.3H114.6H114.4H114.3L114.2 83.2H114.1V83.1L114 83V82.9V82.8V82.7H113.9H113.8L113.6 82.6H113.5H113.4V82.7H113.3V82.8V82.9H113.4V83H113.3H113.2L113.1 82.9V83V83.4H113H112.7H112.6L112.4 83.3H112.2H112.1H112V83.4H111.5V83.6L111.6 83.7L111.7 84L111.6 84.1L111.7 84.2L111.8 84.3V84.4V84.5V84.6V84.7V84.8L111.7 84.9H111.6H111.5L111.4 84.7V84.6V84.5V84.4V84.3V84.2V84.1L111.3 84V83.9H111.2H111.1L111 84H110.9V84.1H110.8V84.2H110.7V84.3H110.6V84.4H110.5H110.3L109.9 84.3H109.8V84.4H109.7V84.5L109.6 84.6V84.7L109.5 84.9V85.1L109.4 85.3V85.5H109.3H109H108.8H108.6H108.3H108.1H108V85.4H107.9H107.8V85.5V85.6L107.7 85.5H107.6H107.4L107.2 85.6H107H106.8H106.6H106.4L106.2 85.7V85.6V85.5H106.1H106H105.9L105.8 85.6H105.7L105.6 85.7H105.7L105.8 85.8V85.9V86H105.9V86.1V86.2V86.3V86.4V86.5H106V86.6V86.7V86.8V86.9L106.1 87V87.1V87.3L106.2 87.4V87.5H106.1V87.6V87.7H106V87.8V87.9H105.9V88V88.1V88.2V88.3V88.4V88.5V88.6H105.8H105.7V88.7H105.6L105.7 88.8V88.9V89V89.1V89.3V89.4V89.5V89.6L105.8 89.8V89.9V90V90.3V90.4H105.9V90.5V90.6L105.8 90.7V90.8V91V91.1V91.2V91.3V91.4H105.7H105.6H105.5L105.4 91.5H105.2H105.1H105L104.9 91.6H104.7H104.5L104.4 91.5H104.3L104.1 91.4L104 91.3H103.9H103.8H103.7V91.4H103.6L103.5 91.3L103.4 91.2H103.3H103.2V91.1H103.1H103V91H102.9H102.8L102.7 90.9V90.8H102.6L102.5 90.7V90.8L102.4 91L102.3 91.1H102L101.9 91H101.7L101.6 91.3L101.3 91.1V91V90.9H101.2L101.1 90.8V90.7H101V90.6L100.9 90.5V90.4L100.7 90.3H100.6L100.5 90.4L100 90.2L99.9 90.1L99.8 90L99.7 89.9H99.6L99.5 89.8H99.4L99.3 89.7L99.2 89.6H99.1L99 89.5V89.4L98.9 89.3L98.8 89.2L98.7 89.1H98.6L98.5 89V89.1L98.4 89H98.5V88.9H98.4V88.8V88.7V88.6V88.5H98.3V88.4H98.2V88.5L97.9 88.6L97.6 88.8L97.3 88.9L97.2 89H97.1L97 89.1H96.9V89.2H96.8V89.4H96.7H96.6H96.5V89.3H96.4H96.3V89.2H96.2H96.1V89.3V89.4H96H95.9H95.8H95.7L95.6 89.5V89.4L95.7 89.3L95.3 89V88.9V88.8V88.7H95.4L95.3 88.6L95 88.4L95.1 88.3V88.2L95.2 88.1H95.3H95.4V88.2H95.5H95.6L95.7 88.1H95.8V88V87.9V87.8H95.7L95.6 87.7H95.5H95.4H95.3V87.6H95.2L95.1 87.5H95V87.4V87.1V87L94.9 86.9L94.8 86.8H94.7L94.6 86.7H94.4V86.8L93.6 86.5H93.4H93.3L93.2 86.6L93.3 86.7L93.4 86.8L93.6 86.9H93.7V87L93.4 86.9H93.3H93.2V86.8H93.1H93V86.9V87.2L93.1 87.4L92.7 87.1H92.6H92.5H92.4V87.2H92.3V87.3V87.4H92.2V87.5V87.6H92.1L92 87.7V87.8L91.5 88.1L91.4 88.2L91.3 88.3L91.4 88.5V88.6H91.5V88.7V88.8V89L91.6 89.1V89.2V89.3V89.4L91.7 89.5V89.8V89.9L91.8 90V90.1L91.9 90.2V90.3V90.6H91.8L91.7 90.7V90.8H91.6H91.5H91.4H91.3H91.2H91.1H91H90.9H90.8H90.7H90.6H90.5H90.4V90.7L90.3 90.8H90.2V90.9H90.1V91L90 91.1L89.9 91.3L89.8 91.4L89.7 91.5V91.7L89.8 91.8L89.9 92.1L90 92.5V92.6L90.3 93.1V93.3L90.5 93.2L90.4 93.6V94L90.3 94.3V94.5L90.2 94.7L90.1 95.3V95.4H89.8L89.3 95.5L88.8 95.6L88.6 95.7L88.3 96L88.2 96.1L88.1 96.6H88.2H88.3V96.7V96.9V97V97.1V97.2L88.4 97.6V97.8V97.9L88.6 98L88.7 98.1L88.9 98.2L89 98.3V98.4V98.5L89.1 98.6V98.7V98.8L89 98.9V99.3L89.5 99.4H89.6H89.7H89.8H89.9L90.6 99.8V99.9H90.8V100.1L91.2 100.2L91.5 100.4L91.2 100.6H91.1V100.7V100.8V100.9L91 101L90.9 101.1H90.8H90.7L90.6 101.2L90.5 101.3H90.4V101.4H90.3H90.2H90.1L90 101.5L90.1 101.8H90L89.9 101.9L89.8 102V102.1V102.2V102.3H89.7H89.6V102.2L89.5 102.1L89.3 102.2L89.2 102.4L89.1 102.5H89.2H89.4V102.6V102.8V102.9L89.3 103.2V103.4V103.5H89.5L89.7 103.6V103.7L89.6 103.8V103.9H89.5V104H89.4L89.3 104.1V104.3L89.2 104.6L89.1 104.8L89 104.9L88.9 105V105.1L88.7 105.5V105.7V105.8H88.6V105.9V106L88.5 105.8L88 105.4L87.7 105.1L87.5 104.9L87.4 105.1L87 105.5L86.9 105.7H86.7V105.8L86.1 105.7L85.9 105.6L84.7 105.4L84.6 105.7V105.8V106.2L84.5 106.6V106.7V106.8V106.9V107V107.2V107.3V107.4V107.6H84.6V107.7V107.8L84.7 108L84.8 108.4H84.9H85L85.2 108.3V108.2L85.4 108.1L85.5 108L85.6 107.9L85.8 107.7H85.9L86.1 107.6H86.2L86.3 107.5V107.4L86.4 107.3L86.5 107.2L86.6 107.3L86.7 107.4H86.8H86.9L87.5 107.7V107.9V108.1H87.7H87.8V108.3L87.7 108.5V108.6L87.6 108.8H87.3L87.2 109.1V109.2L87.3 109.4L87.2 109.5V109.9V110V110.1V110.2H87.1H87L86.9 110.4L86.8 111H86.7L86.6 111.1L86.7 111.2L86.8 111.4V111.5V111.7H86.9V111.8H87H87.1H87.2V111.7H87.3H87.4V111.8H87.5H87.6L87.7 111.9H87.8H87.9H88H88.1H88.2H88.4L88.5 112H88.6H88.7L88.8 112.1L88.9 112.2H89H89.1H89.3H89.5H89.7L89.9 112.1H90.1L90.3 112H90.6L90.8 111.9L91 111.8H91.1H91.2H91.3H91.4L91.5 111.9L91.6 112H91.7H91.8H91.9L92.1 111.9V112L92 112.2L91.9 112.3L91.8 112.6V112.7V112.8L91.9 113.1H91.8H91.6V113.2V113.3H91.7V113.4H91.8L91.6 113.6L91.5 113.8H91.4V113.9L91.5 114.1V114.2L91.6 114.3V114.4H91.5V114.6L91.4 114.7L91.3 114.8V114.9L91.2 115V115.1V115.2L91.3 115.3V115.4V115.5H91.4V115.6V115.7V115.8L91.3 116V116.1H91.5V116.2L91.4 116.3V116.4H91.3L91.2 116.5H91V116.6H90.9H90.8V116.7H90.6H90.5V116.8H90.4L90.3 116.7V116.6L90.1 116.5L89.9 116.4L89.7 116.3L89.6 116.2L89.5 116.1V116L89.3 115.9L89.2 115.8L89.1 115.7L89 115.5H88.9L88.8 115.2H88.4L88.2 115.3H88.1H87.8V115.4H87.7H87.4L87.3 115.7V115.8H87.2H87.1V115.9H87L86.9 115.8H86.8H86.7L86.6 115.9H86.5H86.4H86.3H86.2V116H86.1H86V116.1L85.8 116.2H85.7L85.5 116.3V116.4H85.4H85.3H85.2V116.5H85.1L85 116.6H84.9L84.7 116.7H84.6H84.5H84.4L84.3 116.8H83.8H83.7H83.6L83.4 117L82.9 117.3L82.7 117.5L82.6 117.6V117.7H82.4L82.3 117.9L82.1 118V118.1H82V118.2L81.9 118.3L81.8 118.1L81.7 118.2V118.3L81.3 118.6H81.2L81 118.7L80.7 118.6H80.6H80.5L80.2 118.4H80.1L80 118.3H79.9L79.8 118.4L79.9 118.5L79.6 118.8L79.4 119L79.3 119.1V119.2L79.2 119.1H79.1L79 119V118.9H78.9H78.8L78.7 118.8H78.6V118.7H78.4H78.2H78.1L78 118.9H77.9V119L77.8 119.1V119.2L77.7 119.3L77.8 119.7V119.9L77.6 120H77.5H77.4H77.3V119.9H77.2H77.1L77 119.8L76.9 119.7V119.6V119.5L76.8 119.4L76.7 119.3V119.2H76.6V119.1V119H76.5L76.4 118.9L76.3 119H76.1H76L75.8 119.1H75.7H75.6H75.5H75.4L75.3 119H75.1L74.9 118.9H74.8L74.7 118.8L74.5 118.7V118.6H74.4L74.1 118.5H74L73.9 118.4L73.7 118.3V118.4H73.6V118.5L73.5 118.6H73.4V118.5H73.3H73.2H73.1H73H72.9H72.8H72.7H72.6L72.4 118.4L72.2 118.6L72.1 118.9L72 119L71.9 119.2L71.8 119.4L71.7 119.5V119.6H71.6V119.7L71.5 119.8L71.4 119.9V120L71.2 120.1H71.1L70.9 120.3L70.8 120.4L70.7 120.6L70.6 120.7L70.5 120.8H70.4L70.2 120.7H70.1V120.6L70 120.5V120.4H70.1V120.3V120.2V120.1H70V120V119.9H69.9V119.8H69.8L69.7 119.7V119.8L69.6 119.7H69.4L69.3 119.6H69.1L68.9 119.5H68.8L68.7 119.4H68.6V119.3L68.5 119.2L68.4 119.1H68.3H68.2L68.1 119H68H67.9L67.8 119.1V119.2H67.7V119.3L67.6 119.4H67.5V119.5L67.4 119.6L67.3 119.7V119.8H67.2L66.7 120H66.6L66.5 120.2L66.3 120.3L66.1 120.4H66V120.5L65.9 120.6V120.7H65.8V120.8H65.7L65.6 120.9L65.5 121L65.2 121.2V121.3H65.1L65 121.4L64.9 121.7V121.8L64.8 121.9L64.7 122.1L64.4 122L64.3 121.9L63.8 121.6H63.7L63.6 121.5H63.5L63.3 121.4L62.9 121.3H62.8L62.1 121.2L61.8 121.1H61.4H61.1L60.9 121H60.8H60.7V121.1H60.6V121.2H60.5V121.3H60.4H60.3H60.1H60H59.8L59.7 121.4L59.6 121.5H59.5H59.4V121.6L59.3 121.5H59.2V121.4L59.1 121.3V121.2L59 121L58.9 120.9L58.8 120.8L58.7 120.7L58.6 120.6H58.5V120.5H58.4V120.6H58.3L58.2 120.7L58 120.8L57.9 120.7L57.7 120.5L57.4 120.2H57.2H57V120.4V120.5V120.6V120.7V120.8L56.9 120.9H56.8L56.7 121H56.6V121.1L56.4 121.2L56.2 121.3V121.4V121.8L56 122L55.8 122.2L55.6 122.3V122.4H55.5H55.4L55.3 122.5L54.8 121.9V122H54.7V122.1L54.6 122.2L54.3 122H54.2V122.1L54.1 122.2V122.3H54H53.9L53.8 122.4V122.5V122.6L53.7 122.7L53.6 122.8V122.9L53.5 123V123.1V123.2H53.6V123.3L53.5 123.4V123.5H53.4V123.6V123.7L53.2 123.9V124H53.1L53.2 124.1V124.2H53.3L53.4 124.3H53.5V124.4H53.6V124.5H53.7V124.6V124.7H53.6L53.5 124.8L53.4 124.9V125L53.3 125.1L53.2 125.4V125.5V125.6V125.7V125.8H53.1V125.9H53.2V126V126.1V126.2V126.3V126.4L53.1 126.5V126.6H53H52.9V126.7V126.8V126.9V127V127.1H52.8L52.7 127.2L52.6 127.4V127.5H52.5V127.6L52.4 127.7L52.3 127.8H52.2L52.1 127.7H52V127.8L51.9 127.9V128H51.8H51.7H51.6L51.5 127.9L51.4 127.8V127.7H51.3V127.6V127.5V127.4L51.1 127.3H51V127.4L50.9 127.5V127.6H50.8L50.7 127.7H50.6L50.5 127.8H50.4H50.3V127.9V128V128.1V128.2H50.4V128.3V128.4V128.5V128.6V128.7H50.5L50.4 128.8L50.3 128.9L50.1 129.1L50 129.2L49.9 129.3V129.4H49.8L49.6 129.6H49.5V129.7H49.4H49.3H49.2V129.8L49.1 129.9L49 130L48.9 130.1V130.2L48.8 130.4L48.7 130.5V130.6H48.6V130.7L48.5 130.8H48.4V130.9H48.3V131L48.2 131.1L48.1 131.2V131.3H48L47.9 131.4L47.8 131.5L47.7 131.6H47.6V131.7H47.5V131.8V131.9L47.6 132V132.1V132.2H47.7L47.8 132.3L48 132.4H48.1V132.5H48.2V132.6V132.7V132.8V132.9L48.3 133H48.4L48.5 133.1V133.2V133.4V133.6L48.4 133.8V133.9V134L48.3 134.1L48.2 134.3V134.4L48.1 134.6L48 134.8L47.9 135V135.1L47.7 135.4L47.6 135.9V136L47.5 136.1V136.2L47.4 136.3V136.4V136.6V136.7V136.8H47.5V136.9L47.6 137.1L47.7 137.3L47.8 137.4V137.5L47.9 137.6V137.7V137.8L47.8 137.9H47.9V138V138.1L48 138.3L48.1 138.4V138.5H48.2H48.3V138.6L48.6 138.7V138.8H48.7H48.8H48.9L49 138.7H49.1H49.3L49.5 138.8H49.6V138.9V139V139.1V139.2V139.4V139.5H49.2L49.1 139.6H49L48.9 139.7H48.8L48.6 139.6H48.5H48.4H48.3V139.7V139.8H48.2L48.1 139.9V140H48V140.1V140.2L47.9 140.4L47.8 140.6V140.8V140.9H47.7V141L47.8 141.2L47.9 141.5H48V141.6H47.9L47.8 141.7H47.7V141.8H47.6V141.9L47.7 142V142.1V142.2L47.6 142.5H47.5V142.6V142.8V142.9H47.4L47.2 143.1L47 143.2L46.8 143.4L47 143.5V143.6L47.1 143.7V143.8V144L47.2 144.1L47.3 144.2V144.3H47.4V144.4V144.5H47.5L47.6 144.6L47.7 144.7V144.8H47.8L47.7 144.9V145V145.1V145.2V145.3V145.4L47.8 145.6V145.7H47.9V145.8V145.9V146H48V146.1H48.1L48.2 146.2V146.3L48.1 146.4V146.5L48 146.6H48.1V146.7V146.8H48V146.9H47.9V147H47.8V147.1H47.7V147.2V147.3H47.6V147.4V147.5L47.5 147.6V147.7H47.4V147.8H47.3V147.9V148V148.1V148.2L47.2 148.3V148.4H47.1V148.5V148.6V148.7H47V148.8V148.9V149V149.1V149.2V149.3L46.9 149.4V149.5L46.8 149.6V149.7H46.7H46.6V149.6H46.5V149.7V149.8H46.6H46.7V149.9V150V150.1V150.2V150.3V150.4V150.5H46.6V150.6V150.7V150.8H46.5V150.9H46.4H46.3V151H46.2V150.9H46.1L46 150.8H45.9H45.8H45.7V150.7H45.6H45.5V150.6H45.4V150.5H45.3H45.2V150.4H45.1L45 150.3V150.2H44.9V150.1H44.8H44.7V150.2H44.6V150.3H44.5L44.4 150.4H44.3V150.5V150.6H44.2V150.7H44.1H44V150.8L43.9 150.9L43.8 151H43.7L43.6 151.1H43.5H43.4H43.3H43.2H43.1L43 151.2H42.9V151.3H42.8V151.4L42.7 151.3H42.6V151.2V151.1V151L42.5 150.9H42.4H42.3H42.2H42.1H42V150.8H41.9H41.8H41.7H41.6H41.5H41.4H41.3H41.2H41.1H41H40.9V150.7H40.8H40.7H40.6V150.6H40.5V150.5H40.4H40.3L40.2 150.4H40.1V150.3H40H39.9V150.2H39.8V150.1H39.7V150H39.6V150.1H39.5L39.4 150.2H39.3H39.2H39.1H39H38.9V150.1V150H38.8V149.9V149.8H38.7V149.7H38.6L38.5 149.6H38.4H38.3H38.2V149.5H38.1V149.4H38V149.3V149.2L37.9 149.1V149V148.9L38 148.8V148.7H37.9V148.6V148.5V148.4V148.2H37.8V148.1V148H37.7V147.9L37.6 147.8V147.7L37.5 147.6H37.4V147.5L37.3 147.4L37.2 147.3V147.2H37.1V147.3V147.4V147.5H37V147.6H36.9V147.7V147.8V147.9H36.8L36.7 148H36.6L36.5 148.1H36.4V148.2H36.3V148.3H36.2V148.4H36.1L36 148.5H35.9H35.8V148.6H35.7H35.6H35.5L35.4 148.7H35.3H35.2H35.1H35V148.6V148.5V148.4H34.9V148.3L34.8 148.2L34.7 148.1H34.6H34.5V148L34.3 147.9V147.8L34.2 147.7H34.1H34H33.9V147.6L33.8 147.4V147.3H33.7V147.2L33.6 147.1H33.5L33.4 147H33.3H33.2L33.1 147.1V147.3V147.4V147.5V147.6L33 147.7H32.9H32.8H32.7V147.8H32.6V147.9V148H32.5H32.4L32.3 148.1H32.2H32.1H32H31.9V148H31.8H31.7H31.6V148.1H31.5V148.2H31.4H31.3H31.2V148.3H31.1L31 148.2H30.9H30.8V148.1H30.7H30.6L30.5 148L30.4 147.9H30.3H30.2V148H30.1L29.9 148.1H29.8H29.6H29.5H29.4H29.3L29.2 148.2V148.1H29.1V148H29V147.9V147.8V147.7L28.9 147.6V147.5H28.8V147.4V147.3L28.7 147.2V147.1V147V146.9V146.8L28.6 146.7V146.6V146.5H28.5V146.4L28.4 146.3L28.3 146.2L28.2 146.1V146L28.1 145.9V145.8H28V145.7V145.6V145.5V145.4V145.3V145.2V145.1V145V144.9L27.9 144.8V144.7H28V144.6H27.9L27.8 144.5H27.7H27.6V144.4V144.3V144.2V144.1L27.5 144V143.9V143.8H27.4L27.3 143.7V143.6L27.2 143.5V143.4H27.1V143.3V143.2H27V143.1L26.9 143L26.8 142.9H26.7V142.8V142.7L26.6 142.6H26.5L26.4 142.5H26.3H26.2H26.1H25.7L25.6 142.1V142L25.7 141.9V141.8L25.8 141.7H25.9L25.8 141.6V141.5L25.7 141.3L25.6 141.1H25.5L25.4 141.2H25.3H25.2V141.1V141L25.1 140.9H25H24.9H24.8V140.8H24.7V140.7H24.6H24.4H24.3V140.6H24.2L24.1 140.4L24 140.3H23.9H23.8H23.7V140.4H23.6H23.5H23.4V140.5H23.3V140.6V140.7V140.8V140.9H23.2H23.1H23L22.9 141H22.8H22.7V140.9H22.6H22.5L22.4 141H22.3V141.1H22.2V141.2H22.1V141.3H22V141.4L21.9 141.5H21.8V141.4H21.7V141.3H21.6V141.2H21.5H21.4H21.3H21.2H21.1H21V141.3H20.9L20.8 141.4H20.7L20.6 141.5H20.5L20.4 141.6L20.3 141.5H20.2H20.1H20L19.9 141.6L19.8 141.7L19.7 141.8L19.6 141.9V142V142.2L19.5 142.3L19.3 142.5V142.6H19.2L19.1 142.7V142.8H19V142.7H18.9L18.8 142.6L18.7 142.5L18.6 142.4H18.5H18.4L18.3 142.3L18.2 142.2L18.1 142.1H18V142L17.9 141.9V141.8H17.8V141.7H17.7V141.6V141.5H17.6V141.4V141.3V141.2V141.1V141V140.9V140.8V140.7V140.6V140.5H17.5V140.4V140.3V140.2V140.1V140V139.9V139.8V139.7H17.4V139.6H17.5V139.5V139.4H17.4V139.3H17.3L17.2 139.2H17.1V139.1L16.9 139.2V139.1H16.8H16.7L16.6 139H16.5V138.9H16.4L16.3 138.8H16.2H16.1L16 138.7H15.9V138.6H15.8V138.5H15.7H15.6V138.4H15.5H15.4V138.3V138.2H15.3V138.1H15.2L15.1 138H15V137.9H14.9V137.8H14.8H14.7V137.7H14.6V137.6H14.5V137.5H14.4V137.4H14.3H14.2V137.3H14.1L14 137.2H13.9V137.1H13.8V137H13.7V136.9L13.6 136.8V136.7L13.5 136.6V136.5V136.4V136.3V136.2H13.4V136V135.9L13.3 135.8V135.7V135.6L13.2 135.5V135.4H13.1V135.3H13V135.2V135.1H12.9V135H12.8V134.9V134.8V134.7V134.6H12.7V134.5V134.4H12.6V134.3V134.2L12.5 134.1V134V133.9H12.6V133.8V133.7V133.6V133.5V133.4V133.3V133.2V133.1V133H12.7L12.8 132.9L12.9 132.8H13H13.1V132.7H13.2V132.6H13.3H13.4V132.5H13.5H13.6V132.4H13.7L13.8 132.3V132.2H13.9V132.1H14L14.1 132.3H14.2V132.4H14.3H14.4H14.5H14.6V132.3H14.7H14.8V132.2L14.9 132.1V132V131.9H14.8V131.8V131.7L14.7 131.6V131.5H14.8V131.4V131.3L14.9 131.2V131.1H14.8V131L14.7 130.9V130.8V130.7V130.6H14.6V130.5L14.5 130.4V130.3H14.4V130.2H14.3V130.1L14.2 130V129.9H14.1L14 129.7V129.6H13.9V129.5V129.4H13.8H13.7L13.6 129.5H13.5H13.4H13.3V129.6H13.2L13.1 129.7H13V129.8H12.9H12.8V129.7H12.7H12.6L12.5 129.6L12.4 129.5V129.4L12.5 129.5H12.6H12.7V129.4H12.8L12.9 129.3H13V129.2H13.1H13.2H13.3H13.4H13.5V129.1V129V128.9H13.4V128.8V128.7V128.6H13.5V128.5H13.6V128.4V128.3H13.5H13.4V128.2H13.3V128.3H13.2V128.2H13.3L13.2 128.1H13.1V128H13V127.9H12.9V127.8V127.7H12.8V127.6V127.5H12.7V127.4H12.6V127.3V127.2L12.7 127.1H12.8V127L12.9 126.9H13V126.8H12.9V126.7H12.8H12.7V126.8V126.9H12.6V126.8H12.5H12.4V126.7H12.3V126.6V126.5H12.4V126.4V126.3H12.5V126.2H12.4V126.1H12.5H12.6V126V125.9H12.7V125.8H12.6V125.7H12.7L12.6 125.6H12.7V125.5H12.6H12.5V125.4V125.3L12.4 125.4V125.3H12.5V125.2H12.4H12.3V125.3H12.4V125.4H12.3V125.3V125.2H12.2V125.1H12.3V125V124.9V124.8V124.7H12.2V124.6V124.5V124.4H12.3V124.3H12.4H12.5V124.2V124.1H12.4H12.3V124V123.9V123.8H12.4V123.7H12.5H12.6H12.7V123.6H12.8H12.9H13L13.1 123.5V123.4V123.3H13V123.2H13.1H13.2V123.1V123H13.3V122.9V122.8H13.4V122.7L13.5 122.6V122.5V122.4V122.3H13.4H13.3H13.2V122.2H13.1H13V122.3H12.9V122.2H12.8V122.3H12.7H12.6V122.2H12.5V122.1H12.4V122.2H12.3V122.1V122H12.2H12.1H12V121.9H11.9V121.8H11.8H11.7V121.7V121.6V121.5L11.8 121.4V121.3L11.9 121.2V121.1H11.8V121.2H11.7H11.6V121.1H11.5V121V120.9H11.4V121H11.3V121.1H11.2V121.2H11.1V121.3H11H10.9H10.8V121.2H10.7L10.8 121.1H10.7V121.2H10.6H10.5H10.4V121.1V121V120.9V120.8V120.7V120.6H10.3V120.5H10.2H10.1V120.4L10 120.3H9.90002V120.2V120.1H9.80003L9.70002 120.2V120.3H9.60002V120.2H9.50002V120.1V120H9.60002H9.70002V119.9V119.8V119.7H9.60002H9.50002V119.8H9.40002H9.30003V119.7H9.20002V119.6H9.30003V119.5H9.20002H9.10002H9.00002H8.90002V119.4V119.3H8.80003V119.2H8.70002H8.60002V119.1H8.50002V119V118.9V118.8H8.60002V118.7H8.50002V118.6V118.5V118.4H8.40002V118.3H8.30003V118.2H8.40002V118.1V118H8.50002V117.9V117.8V117.7H8.40002V117.6H8.30003H8.20002H8.10002V117.7H8.00002V117.8H7.90002H7.80003L7.70002 117.9V118H7.60002H7.50002V117.9H7.60002V117.8H7.50002H7.40002V117.9H7.30003H7.20002H7.10002H7.00002V118H6.90002H6.80003H6.70002V117.9H6.60002L6.50002 118H6.40002V117.9H6.30003V117.8V117.7H6.20002H6.10002V117.6H6.00002H5.90002H5.80003V117.5V117.4V117.3H5.90002V117.2V117.1L6.00002 117V116.9V116.8V116.7H6.10002V116.6H6.20002V116.5H6.30003V116.4V116.3V116.2H6.40002V116.1V116H6.50002H6.60002V115.9H6.70002V115.8V115.7H6.60002V115.8H6.50002H6.40002V115.7V115.6H6.30003H6.20002H6.10002V115.7H6.00002L5.90002 115.6H5.80003V115.7H5.70002H5.60002H5.50002V115.8V115.9V116V116.1H5.40002V116.2V116.3H5.30003H5.20002H5.10002V116.4V116.5V116.6V116.7V116.8L5.00002 116.9L4.90002 117L4.80003 117.1H4.70002V117H4.60002V116.9V116.8V116.7V116.6H4.50002L4.40002 116.5H4.30003V116.4H4.20002V116.3V116.2V116.1L4.30003 116V115.9V115.8H4.40002H4.50002V115.7H4.60002L4.70002 115.6V115.5V115.4H4.80003V115.3H4.90002V115.2H4.80003V115.1V115H4.90002V114.9H5.00002V114.8V114.7V114.6H5.10002H5.20002H5.30003L5.40002 114.5V114.4H5.30003V114.3V114.2V114.1V114H5.40002V113.9H5.50002H5.60002V113.8V113.7H5.50002V113.6V113.5H5.60002V113.4H5.70002V113.5H5.80003H5.90002V113.4H6.00002V113.3H6.10002V113.2H6.20002H6.30003V113.1H6.20002V113H6.10002H6.00002V112.9H5.90002H5.80003H5.70002H5.60002L5.50002 112.8H5.40002V112.7H5.30003H5.20002V112.8H5.10002L5.00002 112.7H4.90002H4.80003V112.6L4.70002 112.4L4.60002 112.3V112L4.70002 111.8V111.6L4.80003 111.3L4.90002 111.2L5.00002 111.1L5.30003 111L5.50002 110.9L5.70002 110.8L5.80003 110.7L5.90002 110.6V110.4V110.2V110.1V110V109.9V109.7V109.6V109.5V109.3V109.1V108.9V108.7V108.5L6.00002 108.3V108V107.9V107.6V107.4V107.1L6.10002 106.9V106.7V106.5L6.20002 106.2L6.30003 106V105.8L6.40002 105.4V105.3V105.1L6.30003 104.8L6.20002 104.6V104.5L6.10002 104.2V104.1L6.00002 103.9V103.8V103.7L6.10002 103.4V103.1V102.8L6.20002 102.6V102.2V102L6.10002 101.4V101.2L6.00002 101.1V100.8L5.90002 100.5L5.80003 100.2L5.70002 100V99.7L5.60002 99.3L5.50002 99.1V98.9L5.40002 98.8L5.30003 98.5L5.20002 98.3L5.10002 98.1V98L5.00002 97.8V97.5L4.90002 97.4L4.80003 97.1V97L4.70002 96.7V96.5L4.60002 96.4V96.2L4.50002 96V95.9L4.40002 95.7V95.4L4.30003 95.1V94.8L4.20002 94.5V94.2L4.10002 93.9V93.7V93.5L4.00002 93.1V92.9L3.90002 92.8V92.7V92.5V92.3V92.1V92L3.70002 91.7V91.5H3.50002L3.00002 91.4H2.70002L2.40002 91.3H2.30003L2.20002 91.2L2.10002 91.1L2.00002 91L1.90002 90.9L1.80003 90.8L1.50002 90.6V90.5H1.40002L1.30003 90.2V90L1.20002 89.9L1.10002 89.5V89.4V89.3L1.00002 89.1L0.900024 89V88.9V88.8L1.00002 88.7H1.10002L1.20002 88.6L1.40002 88.5L1.60002 88.4L1.80003 88.2H1.90002L2.00002 88.1L2.10002 88L2.20002 87.8L2.30003 87.6L2.40002 87.5L2.60002 87.3V87.2V87.1L2.70002 87V86.9V86.7L2.80003 86.4V86.3L2.90002 86.1L3.00002 85.9L3.10002 85.7V85.6L3.20002 85.4L3.40002 85L3.60002 84.7L3.70002 84.6L3.80003 84.5L3.90002 84.4L4.20002 83.9L4.60002 83.4L4.70002 83.3L4.80003 83.2L5.00002 82.8V82.7H5.10002L5.30003 82.4L5.70002 81.9L5.80003 81.7L6.30003 81L6.40002 80.9L6.60002 80.7L6.70002 80.6L6.80003 80.5L6.90002 80.3L7.00002 80.2L7.10002 80L7.30003 79.8L8.00002 79L8.10002 78.9V78.7V78.5V78.3V78.2V78.1L8.20002 78V77.8V77.5L8.30003 77.4L8.60002 76.9L8.70002 76.8L9.10002 76.1H9.20002H9.30003L9.70002 76H10L10.1 75.9L10.2 75.8L10.5 75.5L10.8 75.2L11 75.1L11.2 74.9L11.3 74.8V74.7L11.4 74.4L11.5 74.2V74L11.7 73.7L11.8 73.6L11.9 73.4V73.3L12.1 73.1L12.2 72.9L12.5 72.5L12.6 72.4L12.7 72.3H12.8L12.9 72.2H13L13.2 72.1L13.3 71.9L13.4 71.8L13.6 71.7L13.7 71.5H13.8V71.4V71.3V70.9V70.6L13.9 70.5V70.4H14V70.3V70.2H14.1L14.2 70H14.3L14.4 69.9V69.8H14.5V69.7L14.6 69.6V69.5H14.7L14.8 69.3L15 69L15.1 68.9L15.2 68.8L15.4 68.6L15.6 68.3L15.7 68.2L15.9 68.1H16L16.1 68L16.2 67.9L16.3 67.8H16.4L16.5 67.6L16.7 67.5H16.8L17 67.4H17.1L17 67.3V67.2L16.8 66.9L16.9 66.6L17 66.3L17.1 66L17.2 65.8V65.6L17.3 65.4L17.4 65.2V65.1L17.5 64.9V64.8V64.7H17.9L18.2 64.6L18.5 64.5H18.6H18.7H18.8L18.9 64.2L19.1 64V63.8L19.3 63.6L19.4 63.4L19.5 63.2L19.6 63.1L19.7 62.8L19.9 62.6L20 62.5L20.1 62.3L20.2 62.1L20.3 61.9L20.4 61.8L20.6 61.5L20.7 61.4V61.3L20.8 61.2L21 61L21.2 60.8L21.3 60.6L21.4 60.4L21.6 60.2L21.7 60.1L21.8 60L21.9 59.8L22 59.6L22.1 59.5L22.2 59.4V59.3L22.3 59.2L22.5 59.1L22.7 58.8L22.9 58.6L23 58.5L23.2 58.2H23.3L23.5 58L23.6 57.9L23.7 57.7L23.8 57.6V57.5L24 57.3L24.1 57.1L24.2 56.9L24.3 56.8L24.4 56.7V56.6L24.5 56.4L24.6 56.2L24.7 55.9V55.8V55.7L24.8 55.5L25.3 55.1L25.6 54.8L25.7 54.7L25.9 54.6L26.1 54.5L26.2 54.4L26.4 54.1L26.8 53.6L27 53.2L27.3 52.9L27.6 52.5L27.8 52.2L27.9 52L28.3 51.6L28.4 51.5L28.6 51.3L28.7 51.1L28.8 50.9L28.9 50.8L29 50.6L29.2 50.4L29.3 50.2L29.6 49.8L29.7 49.7V49.6L29.8 49.1V48.8L29.9 48.4L30 48.3L30.4 48.1L30.7 48L30.9 47.9L31.3 47.4L31.4 47.3L31.6 47L31.7 46.8L31.9 46.6L32.1 46.3L32.2 46.1L32.3 45.9L32.4 45.8L32.6 45.7L32.8 45.5L33 45.4L33.1 45.3V45.2V45V44.8V44.6V44.4V44.3V44.2L33.2 44.3H33.3H33.4L33.5 44.2L33.9 44.1L34 44V43.8V43.7L34.3 43.5L34.5 43.4H34.6L34.8 43.3L34.9 43.2L35 43.1L35.2 42.9L35.3 42.8L35.5 42.5L35.6 42.3L35.8 42.1L36.1 41.8L36.2 41.6L36.5 41.4V41.3L36.6 41.2L36.8 41.1L37.1 40.7L37.2 40.6L37.3 40.4L37.4 40.3L37.5 40.2L37.6 40.1L38 39.8L38.1 39.6H38.2L38.3 39.5L38.6 39.3L38.9 39L39 38.9L39.3 38.7L39.4 38.6L41 36.9L41.6 36.4L41.7 36.3L41.8 36.1L41.9 36L42.4 35.3L42.7 35L42.8 34.9L43.1 34.8L43.4 34.6L43.6 34.5L43.7 34.4H43.8L44.1 34.2L44.2 34.1L44.5 34H44.6V33.9L44.7 33.8L44.9 33.7L45 33.6V33.5L45.3 33.3H45.4V33.2L45.6 33.1L45.7 33L45.8 32.9L46.1 32.7L46.5 32.3H46.7L46.9 32.1L47 32L47.1 31.9H47.2L47.7 31.5H47.8L48.6 30.6L48.7 30.5L49 29.9H49.1V29.7L49.4 29.3L49.5 29.2V29.1V29L49.6 28.9L49.7 28.7L49.8 28.5H49.9L50 28.4H50.2L50.4 28.3L50.8 28.1L50.9 27.9V27.8L51 27.4L51.1 27.1L51.2 26.9L51.3 26.8L51.7 26.7L52.1 26.5L52.5 26.4L52.7 26.3L53 26.2H53.1L53.2 26.1L53.5 26H53.6V25.9V25.8L53.7 25.5V25.2L53.8 25.1V24.9V24.8V24.5V24.3V24.2L53.9 24.1V23.9L54 23.8V23.6V23.5L54.1 23.3V23.2H54.2L54.3 22.9V22.8L54.4 22.7L54.5 22.5L54.6 22.4L54.7 22.3V22.2L55 22H55.1L55.2 21.9L56.7 21.4L65.8 21.3L68.5 20.2L68.7 19.6H68.9H69.2H69.3V19.5L69.4 19.3V19.1L69.5 18.8V18.6L69.6 18.4V18.2L69.7 18.1V17.8L69.8 17.7L70 17.6H70.1L70.2 17.5L70.4 17.4H70.5L70.7 17.3L70.9 17.2L71 17.1L71.2 17V16.8L71.3 16.5V16.2L71.4 16.1L71.5 15.9L71.6 15.8V15.7L71.7 15.5V15.4V15.3H71.8V15.2V15.1L72 14.8V14.6L72.2 14.3V14.1L72.3 14L72.4 13.8L72.5 13.5V13.4L72.6 13.2L72.7 13.1V13L72.8 12.9V12.7L72.9 12.6V12.5V12.4H73V12.3V12.1V11.9L73.1 11.8V11.7V11.6L73.2 11.5L74.2 10.5L74.8 9.59999L74.9 9.39998L74.6 9.19998L74.2 8.09999L74 6.39998V6.29999L74.1 6.09999L74.2 5.69998V5.59999V5.39998L74.3 5.29999V5.09999V4.99998L74.4 4.79999V4.69998V4.59999V4.49998V4.39998V4.29999V4.19998V4.09999V3.99998L74.3 3.89998V3.79999L74.2 3.59999L74.9 2.29999L74.7 1.99998Z" fill="#6F9C76"/>
<path d="M77.1 1.29999H77V1.19998V1.09999V0.999985V0.899979L76.9 0.999985H76.8V1.09999V1.19998V1.29999H76.7H76.6V1.19998H76.5V1.09999V0.999985H76.4V1.09999V1.19998V1.29999H76.3V1.19998V1.09999H76.2H76.1H76V0.999985V0.899979H75.9V0.799988H75.8H75.7V0.899979L75.6 0.999985H75.5V0.899979H75.4H75.3V0.999985V1.09999H75.4H75.5V1.19998H75.6V1.29999H75.5H75.4H75.3L75.2 1.39998H75.3V1.49998H75.2L75.1 1.59999V1.69998H75V1.79999H74.9V1.89998H74.8V1.99998H74.7L74.9 2.29999L74.2 3.59999L74.3 3.79999V3.89998L74.4 3.99998V4.09999V4.19998V4.29999V4.39998V4.49998V4.59999V4.69998V4.79999L74.3 4.99998V5.09999V5.29999L74.2 5.39998V5.59999V5.69998L74.1 6.09999L74 6.29999V6.39998L74.2 8.09999L74.6 9.19998L74.9 9.39998L74.8 9.59999L74.2 10.5L73.2 11.5L73.1 11.6V11.7V11.8L73 11.9V12.1V12.3V12.4H72.9V12.5V12.6L72.8 12.7V12.9L72.7 13V13.1L72.6 13.2L72.5 13.4V13.5L72.4 13.8L72.3 14L72.2 14.1V14.3L72 14.6V14.8L71.8 15.1V15.2V15.3H71.7V15.4V15.5L71.6 15.7V15.8L71.5 15.9L71.4 16.1L71.3 16.2V16.5L71.2 16.8V17L71 17.1L70.9 17.2L70.7 17.3L70.5 17.4H70.4L70.2 17.5L70.1 17.6H70L69.8 17.7L69.7 17.8V18.1L69.6 18.2V18.4L69.5 18.6V18.8L69.4 19.1V19.3L69.3 19.5V19.6H69.2H68.9H68.7L68.5 20.2L65.8 21.3L56.7 21.4L55.2 21.9L55.1 22H55L54.7 22.2V22.3L54.6 22.4L54.5 22.5L54.4 22.7L54.3 22.8V22.9L54.2 23.2H54.1V23.3L54 23.5V23.6V23.8L53.9 23.9V24.1L53.8 24.2V24.3V24.5V24.8V24.9V25.1L53.7 25.2V25.5L53.6 25.8V25.9V26H53.5L53.2 26.1L53.1 26.2H53L52.7 26.3L52.5 26.4L52.1 26.5L51.7 26.7L51.3 26.8L51.2 26.9L51.1 27.1L51 27.4L50.9 27.8V27.9L50.8 28.1L50.4 28.3L50.2 28.4H50L49.9 28.5H49.8L49.7 28.7L49.6 28.9L49.5 29V29.1V29.2L49.4 29.3L49.1 29.7V29.9H49L48.7 30.5L48.6 30.6L47.8 31.5H47.7L47.2 31.9H47.1L47 32L46.9 32.1L46.7 32.3H46.5L46.1 32.7L45.8 32.9L45.7 33L45.6 33.1L45.4 33.2V33.3H45.3L45 33.5V33.6L44.9 33.7L44.7 33.8L44.6 33.9V34H44.5L44.2 34.1L44.1 34.2L43.8 34.4H43.7L43.6 34.5L43.4 34.6L43.1 34.8L42.8 34.9L42.7 35L42.4 35.3L41.9 36L41.8 36.1L41.7 36.3L41.6 36.4L41 36.9L39.4 38.6L39.3 38.7L39 38.9L38.9 39L38.6 39.3L38.3 39.5L38.2 39.6H38.1L38 39.8L37.6 40.1L37.5 40.2L37.4 40.3L37.3 40.4L37.2 40.6L37.1 40.7L36.8 41.1L36.6 41.2L36.5 41.3V41.4L36.2 41.6L36.1 41.8L35.8 42.1L35.6 42.3L35.5 42.5L35.3 42.8L35.2 42.9L35 43.1L34.9 43.2L34.8 43.3L34.6 43.4H34.5L34.3 43.5L34 43.7V43.8V44L33.9 44.1L33.5 44.2L33.4 44.3H33.3H33.2L33.1 44.2V44.3V44.4V44.6V44.8V45V45.2V45.3L33 45.4L32.8 45.5L32.6 45.7L32.4 45.8L32.3 45.9L32.2 46.1L32.1 46.3L31.9 46.6L31.7 46.8L31.6 47L31.4 47.3L31.3 47.4L30.9 47.9L30.7 48L30.4 48.1L30 48.3L29.9 48.4L29.8 48.8V49.1L29.7 49.6V49.7L29.6 49.8L29.3 50.2L29.2 50.4L29 50.6L28.9 50.8L28.8 50.9L28.7 51.1L28.6 51.3L28.4 51.5L28.3 51.6L27.9 52L27.8 52.2L27.6 52.5L27.3 52.9L27 53.2L26.8 53.6L26.4 54.1L26.2 54.4L26.1 54.5L25.9 54.6L25.7 54.7L25.6 54.8L25.3 55.1L24.8 55.5L24.7 55.7V55.8V55.9L24.6 56.2L24.5 56.4L24.4 56.6V56.7L24.3 56.8L24.2 56.9L24.1 57.1L24 57.3L23.8 57.5V57.6L23.7 57.7L23.6 57.9L23.5 58L23.3 58.2H23.2L23 58.5L22.9 58.6L22.7 58.8L22.5 59.1L22.3 59.2L22.2 59.3V59.4L22.1 59.5L22 59.6L21.9 59.8L21.8 60L21.7 60.1L21.6 60.2L21.4 60.4L21.3 60.6L21.2 60.8L21 61L20.8 61.2L20.7 61.3V61.4L20.6 61.5L20.4 61.8L20.3 61.9L20.2 62.1L20.1 62.3L20 62.5L19.9 62.6L19.7 62.8L19.6 63.1L19.5 63.2L19.4 63.4L19.3 63.6L19.1 63.8V64L18.9 64.2L18.8 64.5H18.7H18.6H18.5L18.2 64.6L17.9 64.7H17.5V64.8V64.9L17.4 65.1V65.2L17.3 65.4L17.2 65.6V65.8L17.1 66L17 66.3L16.9 66.6L16.8 66.9L17 67.2V67.3L17.1 67.4H17L16.8 67.5H16.7L16.5 67.6L16.4 67.8H16.3L16.2 67.9L16.1 68L16 68.1H15.9L15.7 68.2L15.6 68.3L15.4 68.6L15.2 68.8L15.1 68.9L15 69L14.8 69.3L14.7 69.5H14.6V69.6L14.5 69.7V69.8H14.4V69.9L14.3 70H14.2L14.1 70.2H14V70.3V70.4H13.9V70.5L13.8 70.6V70.9V71.3V71.4V71.5H13.7L13.6 71.7L13.4 71.8L13.3 71.9L13.2 72.1L13 72.2H12.9L12.8 72.3H12.7L12.6 72.4L12.5 72.5L12.2 72.9L12.1 73.1L11.9 73.3V73.4L11.8 73.6L11.7 73.7L11.5 74V74.2L11.4 74.4L11.3 74.7V74.8L11.2 74.9L11 75.1L10.8 75.2L10.5 75.5L10.2 75.8L10.1 75.9L10 76H9.70002L9.30003 76.1H9.20002H9.10002L8.70002 76.8L8.60002 76.9L8.30003 77.4L8.20002 77.5V77.8V78L8.10002 78.1V78.2V78.3V78.5V78.7V78.9L8.00002 79L7.30003 79.8L7.10002 80L7.00002 80.2L6.90002 80.3L6.80003 80.5L6.70002 80.6L6.60002 80.7L6.40002 80.9L6.30003 81L5.80003 81.7L5.70002 81.9L5.30003 82.4L5.10002 82.7H5.00002V82.8L4.80003 83.2L4.70002 83.3L4.60002 83.4L4.20002 83.9L3.90002 84.4L3.80003 84.5L3.70002 84.6L3.60002 84.7L3.40002 85L3.20002 85.4L3.10002 85.6V85.7L3.00002 85.9L2.90002 86.1L2.80003 86.3V86.4L2.70002 86.7V86.9V87L2.60002 87.1V87.2V87.3L2.40002 87.5L2.30003 87.6L2.20002 87.8L2.10002 88L2.00002 88.1L1.90002 88.2H1.80003L1.60002 88.4L1.40002 88.5L1.20002 88.6L1.10002 88.7H1.00002L0.900024 88.8V88.9V89L1.00002 89.1L1.10002 89.3V89.4V89.5L1.20002 89.9L1.30003 90V90.2L1.40002 90.5H1.50002V90.6L1.80003 90.8L1.90002 90.9L2.00002 91L2.10002 91.1L2.20002 91.2L2.30003 91.3H2.40002L2.70002 91.4H3.00002L3.50002 91.5H3.70002V91.7L3.90002 92V92.1V92.3V92.5V92.7V92.8L4.00002 92.9V93.1L4.10002 93.5V93.7V93.9L4.20002 94.2V94.5L4.30003 94.8V95.1L4.40002 95.4V95.7L4.50002 95.9V96L4.60002 96.2V96.4L4.70002 96.5V96.7L4.80003 97V97.1L4.90002 97.4L5.00002 97.5V97.8L5.10002 98V98.1L5.20002 98.3L5.30003 98.5L5.40002 98.8L5.50002 98.9V99.1L5.60002 99.3L5.70002 99.7V100L5.80003 100.2L5.90002 100.5L6.00002 100.8V101.1L6.10002 101.2V101.4L6.20002 102V102.2V102.6L6.10002 102.8V103.1V103.4L6.00002 103.7V103.8V103.9L6.10002 104.1V104.2L6.20002 104.5V104.6L6.30003 104.8L6.40002 105.1V105.3V105.4L6.30003 105.8V106L6.20002 106.2L6.10002 106.5V106.7V106.9L6.00002 107.1V107.4V107.6V107.9V108V108.3L5.90002 108.5V108.7V108.9V109.1V109.3V109.5V109.6V109.7V109.9V110V110.1V110.2V110.4V110.6L5.80003 110.7L5.70002 110.8L5.50002 110.9L5.30003 111L5.00002 111.1L4.90002 111.2L4.80003 111.3L4.70002 111.6V111.8L4.60002 112V112.3L4.70002 112.4L4.80003 112.6V112.7H4.90002H5.00002L5.10002 112.8H5.20002V112.7H5.30003H5.40002V112.8H5.50002L5.60002 112.9H5.70002H5.80003H5.90002H6.00002V113H6.10002M77.1 1.29999V1.19998M77.1 1.29999H77.2H77.3V1.39998V1.49998L77.4 1.59999V1.49998V1.39998V1.29999H77.5V1.39998V1.49998V1.59999H77.6V1.69998H77.7H77.8V1.79999H77.9V1.89998V1.99998H78V1.89998H78.1V1.99998V2.09999H78.2V2.19998L78.1 2.29999H78M77.1 1.19998V1.09999H77.2M77.1 1.19998H77.2V1.09999M77.2 1.09999V0.999985H77.3V1.09999H77.2ZM78 2.29999L77.9 2.19998H77.8H77.7V2.29999H77.8H77.9H78ZM78 2.29999V2.39998H78.1V2.49998H78V2.59999H78.1L78.2 2.69998M78.2 2.69998V2.79999M78.2 2.69998H78.1L78 2.79999V2.89998L78.2 2.79999M78.2 2.79999H78.3V2.89998H78.2V2.99998H78.3V3.09999V3.19998M78.3 3.19998H78.2M78.3 3.19998V3.29999V3.39998H78.2V3.29999V3.19998M78.3 3.19998H78.4H78.5V3.29999H78.6V3.39998H78.7V3.29999V3.19998H78.8V3.29999V3.39998V3.49998H78.9V3.59999L79 3.49998V3.39998V3.29999H79.1V3.39998H79.2V3.49998L79.3 3.59999V3.69998H79.4V3.59999H79.5H79.6V3.69998H79.7V3.79999V3.89998V3.99998H79.6H79.5V4.09999H79.6H79.7H79.8V4.19998H79.7V4.29999V4.39998H79.8H79.9V4.49998M78.2 3.19998V3.09999M79.9 4.49998H79.8V4.59999H79.9V4.49998ZM79.9 4.49998H80V4.59999V4.69998H80.1V4.79999H80V4.89998H80.1H80.2V4.99998V5.09999H80.1V5.19998V5.29999V5.39998H80.2H80.3H80.4V5.29999V5.19998H80.5H80.6V5.29999H80.7H80.8V5.39998H80.7H80.6V5.49998V5.59999H80.7L80.8 5.69998H80.9V5.79999H81V5.89998V5.99998H81.1H81.2V5.89998H81.3V5.99998H81.4V6.09999H81.5H81.6L81.7 6.19998H81.8H81.9H82H82.1H82.2H82.3V6.29999H82.4H82.5H82.6L82.7 6.19998H82.8L82.9 6.29999H83L83.1 6.39998H83.2H83.3V6.49998H83.4H83.5L83.6 6.59999H83.7H83.8H83.9L84 6.69998H84.1L84.2 6.79999H84.3L84.4 6.69998H84.5H84.6H84.7L84.9 6.79999H85H85.1V6.89998H85.2M85.2 6.89998V6.99998M85.2 6.89998H85.3H85.4V6.79999H85.5V6.69998V6.59999V6.49998V6.39998V6.29999V6.19998V6.09999L85.6 5.99998L85.7 5.79999V5.69998L85.9 5.29999L85.8 4.89998V4.79999H85.7L85.8 4.69998H86L86.2 4.79999H86.3H86.4H86.5H86.8H86.9H87H87.1H87.2H87.3L87.4 4.89998H87.5H87.6V4.99998H87.7V4.89998V4.79999H87.8L88 4.59999H88.2V4.49998L88.3 4.39998L88.4 4.29999L88.5 4.19998L88.6 4.09999V3.99998L88.9 4.19998V4.29999L89 4.49998L89.2 4.69998L89.3 4.79999L89.4 4.89998V4.99998V5.09999L89.5 5.19998V5.29999L89.6 5.39998L89.7 5.49998H89.8L89.9 5.59999H90.1V5.69998H90.2L90.3 5.79999L90.2 5.89998V5.99998H90.1V6.09999V6.19998L89.9 6.39998L89.8 6.49998H89.7L89.5 6.69998V6.79999H89.6L89.7 6.89998L89.8 6.99998L89.7 7.09999V7.19998L89.8 7.39998V7.49998V7.59999L89.9 7.69998V7.79999V7.89998H90H90.1H90.2V7.99998H90.3H90.4V8.09999L90.5 8.19998V8.29999H90.6V8.39998H90.7L90.8 8.49998H90.9V8.59999H91V8.69998L91.1 8.79999H91.2V8.89998H91.3V8.99998H91.4L91.5 9.09999H91.6L91.7 9.19998L91.8 9.29999H91.9L92 9.39998H92.1V9.49998H92.2L92.3 9.39998H92.4H92.5L92.6 9.49998L92.7 9.39998H92.8H92.9H93V9.29999H93.1L93.3 9.19998L93.4 9.09999H93.5V8.99998L93.6 8.89998H93.7V8.79999H93.8L93.9 8.69998L94 8.59999H94.1L94.6 8.49998V8.39998L94.7 8.29999L94.9 8.19998H95H95.1H95.3H95.4H95.5L95.9 8.49998L96 8.59999H96.1L96.2 8.69998L96.3 8.79999L96.4 8.89998H96.5V8.99998V9.09999L96.6 9.19998V9.29999L96.7 9.39998V9.49998L96.8 9.59999L96.9 9.69998V9.79999H97V9.89998L97.1 9.99998V10.1V10.2V10.4V10.5V10.6V10.7V10.8L97.2 10.9V11V11.1H97.3V11.2H97.4V11.3V11.4L97.5 11.6V11.7H97.6V11.8V11.9V12H97.5V12.1L97.4 12.2V12.4V12.5V13.1V13.2H97.8V13.5H97.9H98H98.1H98.2H98.3V13.4H98.4H98.5H98.6H98.7H98.8V13.3H98.9L99 13.2H99.1M99.1 13.2V13.1V13V12.9L99 12.8V12.7V12.6L99.1 12.7H99.2H99.3V12.8H99.4H99.5V12.9V13H99.4L99.3 13.1H99.2L99.1 13.2ZM99.1 13.2L99.2 13.5V13.6H99.3L99.2 13.8V13.9H99.3V14V14.1V14.2H99.4L99.5 14.3H99.6V14.4V14.6V14.8V15.3L99.1 15.7V15.8H99.2V15.9V16H99.3V16.1H99.4H99.5H99.6H99.7L99.6 16.2V16.3V16.4V16.6V16.8V16.9V17.1V17.4V17.5V17.6V17.7V17.8V17.9V18V18.2V18.5L99.5 19V19.1V19.3V19.5H99.6L99.7 19.6H99.8H99.9H100L100.1 19.7H100.2L100.3 19.8H100.4H100.5H100.6H100.7H100.8V19.9H100.9H101H101.1H101.2H101.3H101.4H101.5H101.6H101.7H101.8L101.9 19.8H102L102.1 19.7H102.2H102.3V19.8H102.4V19.9V20L102.3 20.2V20.3H102.4V20.4L102.5 20.5H102.6H102.8V20.6L102.9 20.5H103V20.6H103.1H103.2H103.3V20.7H103.4H103.5L103.6 20.8L103.8 21L104 21.1L104.3 21.3V21.4H104.4L104.5 21.5L104.7 21.6L104.8 21.7L105.1 21.8V21.9L105.2 22L105.3 22.1L105.5 22.2L105.6 22.4L105.7 22.5L105.8 22.6V22.7V22.8V23V23.1L105.7 23.2V23.3L105.6 23.6L105.5 23.9L105.6 24L105.5 24.1V24.4V24.7V25L105.4 25.1H105.5L106 25.2H106.3L106.5 25.3H107.1L107.4 25.4H107.6H108L108.6 25.5L109 25.1H109.1V25V24.9L109.2 24.8H109.3L109.4 24.9H109.5H109.6V24.8H109.7H109.8H109.9H110.1H110.2V24.7H110.3H110.4H110.5L110.7 24.6H110.9H111.1H111.2H111.4L111.6 24.5H111.9H112L112.1 24.4H112.3H112.4H112.5H112.6L112.7 24.5H112.8V24.6V24.4V24.2H112.9V24.1L113 24L113.1 23.8H113.2H113.4H114.1H114.2V24.1V24.3L114.1 24.6V24.9H114.2L114.3 24.8H114.4H114.6L114.8 24.9H115H115.1H115.2H115.3H115.4V24.8H115.5H115.6H115.7H115.8V24.9H115.9H116V24.8H116.1H116.2H116.5L116.7 24.9V24.7V24.5L116.8 24.2V24.1V23.9V23.7V23.6V23.5V23.4V23.2L116.7 22.8L116.6 22.7L116.5 22.6L116.3 22.3L116.5 22.1L116.6 22H116.7V21.9L116.8 21.8V21.7L116.9 21.4H117L117.1 21.5H117.2V21.6H117.3V21.7L117.4 21.8V21.9H117.5V22H117.6L117.7 22.1L117.8 22.2L117.9 22.3L118 22.4L118.1 22.6L118.3 22.8L118.5 22.9V23H118.6V23.1H118.7V23.2H118.8V23.3L119 23.4L119.2 23.6L119.3 23.7V23.8L119.4 23.9H119.5L119.6 24L119.7 24.1L119.9 24.3L120.1 24.5L120.2 24.6L120.3 24.7L120.4 24.8L120.5 24.9L120.6 25.1L120.7 25.2L120.8 25.1H120.9L121 25H121.1V24.9H121.2H121.3H121.4H121.5H121.6H121.7H121.8L121.9 25H122V25.1H122.1H122.2H122.4H122.6H122.7H122.8V25.2H122.9V25.3H122.8H122.7V25.4V25.5V25.6H122.6V25.7L122.7 25.8H122.8V25.9H122.9V26M122.9 26H122.8M122.9 26V26.1V26.2V26.3V26.4H122.8L122.9 26.5V26.6H122.8M122.8 26.6H122.7M122.8 26.6V26.7H122.7V26.8H122.8V26.9H122.7V27V27.1H122.6V27.2V27.3V27.4M122.6 27.4H122.5M122.6 27.4H122.7V27.5M122.7 27.5H122.6M122.7 27.5V27.6H122.6V27.7M122.6 27.7H122.7M122.6 27.7V27.8V27.9V28H122.5V28.1H122.6V28.2H122.7V28.3M122.7 28.3H122.6M122.7 28.3V28.4M122.7 28.4H122.6M122.7 28.4L122.8 28.5H122.9H123L123.1 28.6H123.2L123.3 28.7L123.5 28.9L123.6 29H123.8L123.9 29.1H124.2L124.6 29.2H124.8H124.9L125.1 29.3L125.6 29.5V29.7L125.7 29.8H125.8H125.9L126.2 29.9H126.3H126.4L126.6 29.8L126.7 29.7L127 29.6L127.1 29.5H127.3L127.5 29.4L127.7 29.3H127.9V29.2H128H128.1H128.2L128.3 29.3H128.4H128.5H128.6H128.7L128.8 29.4H128.9L129 29.5L129.3 29.6L129.8 29.9L130 30L130.2 30.1V30.2V30.3V30.4V30.5V30.6V30.7V30.8V30.9V31.1L130.1 31.4V31.6V31.7V31.8V32V32.1V32.2H130.2V32.3V32.4L130.3 32.6H129.9L129.7 32.5H129.5L129.4 32.6V32.7V32.8L129.3 33.1L129.1 33.5H129L128.9 33.7L128.8 33.8L128.9 33.9V34.1H129.1L129 34.3L129.1 34.4V34.5H128.6H128.4V34.7L128.3 34.9V35V35.1V35.2V35.3V35.4V35.5H128.2V35.6V35.7H128.3V35.8V35.9L128.4 36V36.1V36.2H128.5L128.6 36.3L128.7 36.4L128.8 36.5H128.9V36.6H129L129.1 36.7H129.2L129.3 36.8L129.4 36.9H129.5L129.7 37L129.9 37.2L130 37.3L130.2 37.4L130.3 37.5L130.4 37.6L130.7 37.9V38V38.1L130.6 38.2V38.3L130.5 38.4V38.6L130.2 38.7L130 39V39.1V39.2H130.1V39.3H130.2V39.4L130.3 39.5V39.6V39.7V39.9V40V40.1H130.2V40.3V40.4L130.1 40.6V40.7V40.8L130 41.2L129.9 41.4V41.5L129.8 41.7V41.8L129.9 41.9V42L130.1 42.2V42.3L130.3 42.7V42.8H130.4L130.5 42.9V43.1L130.7 43.3L130.8 43.4L131 43.7L131.2 44L131.6 44.5L131.8 44.8L132.1 45.2L132.2 45.4L132.4 45.7L132.5 45.8L132.6 46L132.8 46.2L132.9 46.4L133.1 46.7H133.2V46.8L133.3 47L133.4 47.1V47.2H133.5V47.3L133.6 47.4L133.7 47.5V47.6H133.8L133.9 47.7L134 47.9L134.1 48L134.2 48.1L134.4 48.4L134.6 48.7L134.7 48.8V48.9L134.8 49V49.1L135 49.3L135.1 49.4L135.2 49.6H135.3V49.7L135.4 49.8V49.9L135.5 50.1L135.6 50.2V50.3L135.7 50.4L135.8 50.5H135.9L136 50.6L136.1 50.7H136.2L136.3 50.8L136.6 51L136.9 51.3L137.5 51.9L137.8 52.1L137.9 52.2L138 52.3L138.1 52.4H138.2V52.5H138.4L138.5 52.6H138.6L138.7 52.7L138.8 52.8H138.9L139.1 52.9H139.3L139.5 53H139.7L139.9 53.1L140.1 53.2H140.2V53.4H140.3V53.5V53.6L140.4 53.7V53.8V53.9L140.5 54V54.1L140.6 54.2V54.4L140.7 54.5L140.6 54.6L140.5 54.9H140.4L140.3 55.1V55.3L140.2 55.5L140.1 55.6V55.7V55.8L140.2 55.9V56V56.1V56.2H140.3H140.4V56.3H140.5H140.6H140.7V56.4H140.8L140.9 56.3H141L141.2 56.5L141.3 56.6H141.4V56.8V56.9H141.3H141.2H141.1V57H141V57.1L140.9 57.2H140.8H140.7L140.6 57.1H140.5H140.4H140.3L140.2 57H140.1L140 57.1L139.9 57.2H139.8L139.7 57.3V57.2H139.6H139.5V57.3H139.4V57.4V57.5V57.6V57.7V57.8V57.9H139.3V58V58.1L139.2 58.2V58.3L139.1 58.4L139 58.5V58.6L138.9 58.8V58.9V59V59.1H139V59.2V59.3H139.1V59.4V59.5H139.2V59.6H139.3V59.7L139.4 59.8V59.9L139.5 60V60.1V60.2L139.4 60.3V60.5L139.3 60.6V60.7V60.8L139.2 60.9V61L139.1 61.1V61.2V61.3V61.4V61.5V61.6V61.7H139H138.9H138.8L138.7 61.8H138.6V61.9V62H138.7V62.1V62.2H138.8V62.3V62.4V62.5L138.6 62.6H138.5H138.3H138.2L138 62.7H137.9H137.8L137.7 62.8H137.6H137.5V62.9H137.4V62.8H137.3H137.2H137.1H137H136.9H136.8V63.1L136.4 63.3L136 63.4H135.9H135.8H135.7V63.5H135.6L135.5 63.6H135.4H135.3H135.2H135.1H135L134.9 63.7V63.8L134.8 63.9H134.9H135V64V64.1V64.2H134.9L134.8 64.3H134.7L134.6 64.4V64.6H134.5V64.7H134.6V64.8H134.7V64.9V65V65.1L134.6 65.2L134.5 65.3V65.4H134.4V65.5H134.3V65.6H134.2V65.5H134.1H134H133.9H133.8V65.4H133.7H133.6H133.5V65.3V65.2H133.4L133.3 65.3L133.2 65.2H133.1V65.1V64.9H132.8V65.1H132.4V65.4V65.5V65.6L132.3 65.7L132.2 65.8H132L131.9 65.9H131.8L131.6 65.8H131.4H131.3H131.2H131.1L131 65.7H130.9H130.8H130.7H130.6H130.5V65.6V65.5V65.4H130.4L130.3 65.3H130.2L130.1 65.2H130H129.9L129.8 65.1H129.7L129.6 65H129.5H129.4L129.2 64.9H129.1V64.8H129L128.6 65.2H128.5H128.4H128.3H128.2L128.1 65.1H128H127.9H127.8H127.7H127.6H127.5V65.2L127.6 65.3V65.4L127.5 65.5V65.6H127.4H127.3H127.2M127.2 65.6H127.1M127.2 65.6V65.7V65.8V65.9L127.1 66V66.1V66.2V66.3V66.4L127 66.5H126.9L126.8 66.6V66.5H126.7V66.4H126.6H126.5H126.4V66.3L126.3 66.4V66.3H126.2H126.1H126H125.9H125.8H125.7H125.6H125.5H125.4H125.3V66.2H125.2L125.1 66.1H125H124.8L124.7 66L124.5 65.7H124.4V65.6H124.2H124.1V65.7L124 66V66.2V66.4L124.1 66.6V66.7V66.8V67V67.3V67.4V67.5V67.7V67.8V68H124.2V68.1V68.2V68.3L124.3 68.4V68.5V68.6H124.4V68.7V68.8V68.9V69V69.1V69.2L124.3 69.3V69.4L124.2 69.5L123.7 69.4V69.7V69.9L123.6 70L123.5 70.1L123.7 70.2L123.8 70.3H123.9L124 70.4L124.2 70.6H124.3V70.7V70.8H124.4L124.5 70.9L124.6 71H124.8L125.1 71.1V71.2L125.2 71.3L125.4 71.6H125.5V71.7L125.6 71.8V71.9H125.7V72L125.6 72.1V72.2L125.5 72.3L125.4 72.4L125.2 72.7L124.9 73L124.8 73.1L124.7 73.3L124.6 73.2L124.2 73.5L124 73.7L123.9 73.9L123.8 74L123.5 74.2L123.6 74.4L123.3 74.6M123.3 74.6V74.7M123.3 74.6H123.2L123.1 74.5H123V74.4H122.9V74.3V74.2L122.7 74L122.5 73.7L122.2 73.4V73.3H122.1V73.2H122L121.8 73.1H121.7L121.6 73H121.5V72.9H121.4L121.3 72.8H121.1L121 72.7V72.8L120.9 73V73.1L120.8 73.3L120.7 73.5L120.6 73.8L120.5 74.1L120.3 74.4V74.5L120.1 75L120 75.2L119.9 75.4V75.5L119.8 75.6L119.9 75.9L119.8 76V76.1V76.2V76.4V76.7L119.7 76.9V77.1L119.6 77.6V77.8V78V78.2V78.3V78.4L119.7 78.5H119.6H119.5H119.4L119.3 78.6V78.8V79L119.2 79.3V79.4V79.5L119.3 79.6V79.7L119.4 79.8L119.3 80H119.2V80.1L119.1 80.2V80.3L119 80.4V80.5L118.6 80.3L118.3 80.2H118.2L118.1 80.4V80.5V80.6V80.7V80.8V80.9H118V81V81.1V81.2V81.3H117.8V81.4V81.5V81.6L117.7 81.7V81.8V81.9H117.6V82V82.1L117.5 82.2H117.4H117.2L117.3 82.1V82H117.2H117.1H117H116.9H116.6H116.3L116.4 82.1H116.5H116.6L116.8 82.2V82.3L116.9 82.4V82.6V82.7H116.8H116.5L116.3 82.6H116.1L116 82.5L115.8 82.3H115.7L115.6 82.2H115.4H115.3H115.2H115.1V82.3H115L114.9 82.4L114.8 82.5H114.7V82.6H114.8H114.9V82.7H115V82.8H114.9V82.9V83H115V83.1V83.2H115.1L115 83.4H114.9H114.8L114.7 83.3H114.6H114.4H114.3L114.2 83.2H114.1V83.1L114 83V82.9V82.8V82.7H113.9H113.8L113.6 82.6H113.5H113.4V82.7H113.3V82.8V82.9H113.4V83H113.3H113.2L113.1 82.9V83V83.4H113H112.7H112.6L112.4 83.3H112.2H112.1H112V83.4H111.5V83.6L111.6 83.7L111.7 84L111.6 84.1L111.7 84.2L111.8 84.3V84.4V84.5V84.6V84.7V84.8L111.7 84.9H111.6H111.5L111.4 84.7V84.6V84.5V84.4V84.3V84.2V84.1L111.3 84V83.9H111.2H111.1L111 84H110.9V84.1H110.8V84.2H110.7V84.3H110.6V84.4H110.5H110.3L109.9 84.3H109.8V84.4H109.7V84.5L109.6 84.6V84.7L109.5 84.9V85.1L109.4 85.3V85.5H109.3H109H108.8H108.6H108.3H108.1H108V85.4H107.9H107.8V85.5V85.6L107.7 85.5H107.6H107.4L107.2 85.6H107H106.8H106.6H106.4L106.2 85.7V85.6V85.5H106.1H106H105.9L105.8 85.6H105.7L105.6 85.7H105.7L105.8 85.8V85.9V86H105.9V86.1V86.2V86.3V86.4V86.5H106V86.6V86.7V86.8V86.9L106.1 87V87.1V87.3L106.2 87.4V87.5H106.1V87.6V87.7H106V87.8V87.9H105.9V88V88.1V88.2V88.3V88.4V88.5V88.6H105.8H105.7V88.7H105.6L105.7 88.8V88.9V89V89.1V89.3V89.4V89.5V89.6L105.8 89.8V89.9V90V90.3V90.4H105.9V90.5V90.6L105.8 90.7V90.8V91V91.1V91.2V91.3V91.4H105.7H105.6H105.5L105.4 91.5H105.2H105.1H105L104.9 91.6H104.7H104.5L104.4 91.5H104.3L104.1 91.4L104 91.3H103.9H103.8H103.7V91.4H103.6L103.5 91.3L103.4 91.2H103.3H103.2V91.1H103.1H103V91H102.9H102.8L102.7 90.9V90.8H102.6L102.5 90.7V90.8L102.4 91L102.3 91.1H102L101.9 91H101.7L101.6 91.3L101.3 91.1V91V90.9H101.2L101.1 90.8V90.7H101V90.6L100.9 90.5V90.4L100.7 90.3H100.6L100.5 90.4L100 90.2L99.9 90.1L99.8 90L99.7 89.9H99.6L99.5 89.8H99.4L99.3 89.7L99.2 89.6H99.1L99 89.5V89.4L98.9 89.3L98.8 89.2L98.7 89.1H98.6L98.5 89M98.5 89V89.1L98.4 89H98.5ZM98.5 89V88.9H98.4V88.8V88.7V88.6V88.5H98.3V88.4H98.2V88.5L97.9 88.6L97.6 88.8L97.3 88.9L97.2 89H97.1L97 89.1H96.9V89.2H96.8V89.4H96.7H96.6H96.5V89.3H96.4H96.3V89.2H96.2H96.1V89.3V89.4H96H95.9H95.8H95.7L95.6 89.5V89.4L95.7 89.3L95.3 89V88.9V88.8V88.7H95.4L95.3 88.6L95 88.4L95.1 88.3V88.2L95.2 88.1H95.3H95.4V88.2H95.5H95.6L95.7 88.1H95.8V88M95.8 88H95.9M95.8 88V87.9V87.8H95.7L95.6 87.7H95.5H95.4H95.3V87.6H95.2L95.1 87.5H95V87.4V87.1V87L94.9 86.9L94.8 86.8H94.7L94.6 86.7H94.4V86.8L93.6 86.5H93.4H93.3L93.2 86.6L93.3 86.7L93.4 86.8L93.6 86.9H93.7V87L93.4 86.9H93.3H93.2V86.8H93.1H93V86.9V87.2L93.1 87.4L92.7 87.1H92.6H92.5H92.4V87.2H92.3V87.3V87.4H92.2V87.5V87.6H92.1L92 87.7V87.8L91.5 88.1L91.4 88.2L91.3 88.3L91.4 88.5V88.6H91.5V88.7V88.8V89L91.6 89.1V89.2V89.3V89.4L91.7 89.5V89.8V89.9L91.8 90V90.1L91.9 90.2V90.3V90.6H91.8L91.7 90.7V90.8H91.6H91.5H91.4H91.3H91.2H91.1H91H90.9H90.8H90.7H90.6H90.5H90.4V90.7L90.3 90.8H90.2V90.9H90.1V91L90 91.1L89.9 91.3L89.8 91.4L89.7 91.5V91.7L89.8 91.8L89.9 92.1L90 92.5V92.6L90.3 93.1V93.3L90.5 93.2L90.4 93.6V94L90.3 94.3V94.5L90.2 94.7L90.1 95.3V95.4H89.8L89.3 95.5L88.8 95.6L88.6 95.7L88.3 96L88.2 96.1L88.1 96.6H88.2H88.3V96.7V96.9V97V97.1V97.2L88.4 97.6V97.8V97.9L88.6 98L88.7 98.1L88.9 98.2L89 98.3V98.4V98.5L89.1 98.6V98.7V98.8L89 98.9V99.3L89.5 99.4H89.6H89.7H89.8H89.9L90.6 99.8V99.9H90.8V100.1L91.2 100.2L91.5 100.4L91.2 100.6H91.1V100.7V100.8V100.9L91 101L90.9 101.1H90.8H90.7L90.6 101.2L90.5 101.3H90.4V101.4H90.3H90.2H90.1L90 101.5L90.1 101.8H90L89.9 101.9L89.8 102V102.1V102.2V102.3H89.7H89.6V102.2L89.5 102.1L89.3 102.2L89.2 102.4L89.1 102.5H89.2H89.4V102.6V102.8V102.9L89.3 103.2V103.4V103.5H89.5L89.7 103.6V103.7L89.6 103.8V103.9H89.5V104H89.4L89.3 104.1V104.3L89.2 104.6L89.1 104.8L89 104.9L88.9 105V105.1L88.7 105.5V105.7V105.8H88.6V105.9V106L88.5 105.8L88 105.4L87.7 105.1L87.5 104.9L87.4 105.1L87 105.5L86.9 105.7H86.7V105.8L86.1 105.7L85.9 105.6L84.7 105.4L84.6 105.7V105.8V106.2L84.5 106.6V106.7V106.8V106.9V107V107.2V107.3V107.4V107.6H84.6V107.7V107.8L84.7 108L84.8 108.4H84.9H85L85.2 108.3V108.2L85.4 108.1L85.5 108L85.6 107.9L85.8 107.7H85.9L86.1 107.6H86.2L86.3 107.5V107.4L86.4 107.3L86.5 107.2L86.6 107.3L86.7 107.4H86.8H86.9L87.5 107.7V107.9V108.1H87.7H87.8V108.3L87.7 108.5V108.6L87.6 108.8H87.3L87.2 109.1V109.2L87.3 109.4L87.2 109.5V109.9V110V110.1V110.2H87.1H87L86.9 110.4L86.8 111H86.7L86.6 111.1L86.7 111.2L86.8 111.4V111.5V111.7H86.9V111.8H87H87.1H87.2V111.7H87.3H87.4V111.8H87.5H87.6L87.7 111.9H87.8H87.9H88H88.1H88.2H88.4L88.5 112H88.6H88.7L88.8 112.1L88.9 112.2H89H89.1H89.3H89.5H89.7L89.9 112.1H90.1L90.3 112H90.6L90.8 111.9L91 111.8H91.1H91.2H91.3H91.4L91.5 111.9L91.6 112H91.7H91.8H91.9L92.1 111.9V112L92 112.2L91.9 112.3L91.8 112.6V112.7V112.8L91.9 113.1H91.8H91.6V113.2V113.3H91.7V113.4H91.8L91.6 113.6L91.5 113.8H91.4V113.9L91.5 114.1V114.2L91.6 114.3V114.4H91.5V114.6L91.4 114.7L91.3 114.8V114.9L91.2 115V115.1V115.2L91.3 115.3V115.4V115.5H91.4V115.6V115.7V115.8L91.3 116V116.1H91.5V116.2L91.4 116.3V116.4H91.3L91.2 116.5H91V116.6H90.9H90.8V116.7H90.6H90.5V116.8H90.4L90.3 116.7V116.6L90.1 116.5L89.9 116.4L89.7 116.3L89.6 116.2L89.5 116.1V116L89.3 115.9L89.2 115.8L89.1 115.7L89 115.5H88.9L88.8 115.2H88.4L88.2 115.3H88.1H87.8V115.4H87.7H87.4L87.3 115.7V115.8H87.2H87.1V115.9H87L86.9 115.8H86.8H86.7L86.6 115.9H86.5H86.4H86.3H86.2V116H86.1H86V116.1L85.8 116.2H85.7L85.5 116.3V116.4H85.4H85.3H85.2V116.5H85.1L85 116.6H84.9L84.7 116.7H84.6H84.5H84.4L84.3 116.8H83.8H83.7H83.6L83.4 117L82.9 117.3L82.7 117.5L82.6 117.6V117.7H82.4L82.3 117.9L82.1 118V118.1H82V118.2L81.9 118.3L81.8 118.1L81.7 118.2V118.3L81.3 118.6H81.2L81 118.7L80.7 118.6H80.6H80.5L80.2 118.4H80.1L80 118.3H79.9L79.8 118.4L79.9 118.5L79.6 118.8L79.4 119L79.3 119.1V119.2L79.2 119.1H79.1L79 119V118.9H78.9H78.8L78.7 118.8H78.6V118.7H78.4H78.2H78.1L78 118.9H77.9V119L77.8 119.1V119.2L77.7 119.3L77.8 119.7V119.9L77.6 120H77.5H77.4H77.3V119.9H77.2H77.1L77 119.8L76.9 119.7V119.6V119.5L76.8 119.4L76.7 119.3V119.2H76.6V119.1V119H76.5L76.4 118.9L76.3 119H76.1H76L75.8 119.1H75.7H75.6H75.5H75.4L75.3 119H75.1L74.9 118.9H74.8L74.7 118.8L74.5 118.7V118.6H74.4L74.1 118.5H74L73.9 118.4L73.7 118.3V118.4H73.6V118.5L73.5 118.6H73.4V118.5H73.3H73.2H73.1H73H72.9H72.8H72.7H72.6L72.4 118.4L72.2 118.6L72.1 118.9L72 119L71.9 119.2L71.8 119.4L71.7 119.5V119.6H71.6V119.7L71.5 119.8L71.4 119.9V120L71.2 120.1H71.1L70.9 120.3L70.8 120.4L70.7 120.6L70.6 120.7L70.5 120.8H70.4L70.2 120.7H70.1V120.6L70 120.5V120.4H70.1V120.3V120.2V120.1H70V120V119.9H69.9V119.8H69.8L69.7 119.7V119.8L69.6 119.7H69.4L69.3 119.6H69.1L68.9 119.5H68.8L68.7 119.4H68.6V119.3L68.5 119.2L68.4 119.1H68.3H68.2L68.1 119H68H67.9L67.8 119.1V119.2H67.7V119.3L67.6 119.4H67.5V119.5L67.4 119.6L67.3 119.7V119.8H67.2L66.7 120H66.6L66.5 120.2L66.3 120.3L66.1 120.4H66V120.5L65.9 120.6V120.7H65.8V120.8H65.7L65.6 120.9L65.5 121L65.2 121.2V121.3H65.1L65 121.4L64.9 121.7V121.8L64.8 121.9L64.7 122.1L64.4 122L64.3 121.9L63.8 121.6H63.7L63.6 121.5H63.5L63.3 121.4L62.9 121.3H62.8L62.1 121.2L61.8 121.1H61.4H61.1L60.9 121H60.8H60.7V121.1H60.6V121.2H60.5V121.3H60.4H60.3H60.1H60H59.8L59.7 121.4L59.6 121.5H59.5H59.4V121.6L59.3 121.5H59.2V121.4L59.1 121.3V121.2L59 121L58.9 120.9L58.8 120.8L58.7 120.7L58.6 120.6H58.5V120.5H58.4V120.6H58.3L58.2 120.7L58 120.8L57.9 120.7L57.7 120.5L57.4 120.2H57.2H57V120.4V120.5V120.6V120.7V120.8L56.9 120.9H56.8L56.7 121H56.6V121.1L56.4 121.2L56.2 121.3V121.4V121.8L56 122L55.8 122.2L55.6 122.3V122.4H55.5H55.4L55.3 122.5L54.8 121.9V122H54.7V122.1L54.6 122.2L54.3 122H54.2V122.1L54.1 122.2V122.3H54H53.9L53.8 122.4V122.5V122.6L53.7 122.7L53.6 122.8V122.9L53.5 123V123.1V123.2H53.6V123.3L53.5 123.4V123.5H53.4V123.6V123.7L53.2 123.9V124H53.1L53.2 124.1V124.2H53.3L53.4 124.3H53.5V124.4H53.6V124.5H53.7V124.6V124.7H53.6L53.5 124.8L53.4 124.9V125L53.3 125.1L53.2 125.4V125.5V125.6V125.7V125.8H53.1V125.9H53.2V126V126.1V126.2V126.3V126.4L53.1 126.5V126.6H53H52.9V126.7V126.8V126.9V127V127.1H52.8L52.7 127.2L52.6 127.4V127.5H52.5V127.6L52.4 127.7L52.3 127.8H52.2L52.1 127.7H52V127.8L51.9 127.9V128H51.8H51.7H51.6L51.5 127.9L51.4 127.8V127.7H51.3V127.6V127.5V127.4L51.1 127.3H51V127.4L50.9 127.5V127.6H50.8L50.7 127.7H50.6L50.5 127.8H50.4H50.3V127.9V128V128.1V128.2H50.4V128.3V128.4V128.5V128.6V128.7H50.5L50.4 128.8L50.3 128.9L50.1 129.1L50 129.2L49.9 129.3V129.4H49.8L49.6 129.6H49.5V129.7H49.4H49.3H49.2V129.8L49.1 129.9L49 130L48.9 130.1V130.2L48.8 130.4L48.7 130.5V130.6H48.6V130.7L48.5 130.8H48.4V130.9H48.3V131L48.2 131.1L48.1 131.2V131.3H48L47.9 131.4L47.8 131.5L47.7 131.6H47.6V131.7H47.5V131.8V131.9L47.6 132V132.1V132.2H47.7L47.8 132.3L48 132.4H48.1V132.5H48.2V132.6V132.7V132.8V132.9L48.3 133H48.4L48.5 133.1V133.2V133.4V133.6L48.4 133.8V133.9V134L48.3 134.1L48.2 134.3V134.4L48.1 134.6L48 134.8L47.9 135V135.1L47.7 135.4L47.6 135.9V136L47.5 136.1V136.2L47.4 136.3V136.4V136.6V136.7V136.8H47.5V136.9L47.6 137.1L47.7 137.3L47.8 137.4V137.5L47.9 137.6V137.7V137.8L47.8 137.9H47.9V138V138.1L48 138.3L48.1 138.4V138.5H48.2H48.3V138.6L48.6 138.7V138.8H48.7H48.8H48.9L49 138.7H49.1H49.3L49.5 138.8H49.6V138.9V139V139.1V139.2V139.4V139.5H49.2L49.1 139.6H49L48.9 139.7H48.8L48.6 139.6H48.5H48.4H48.3V139.7V139.8H48.2L48.1 139.9V140H48V140.1V140.2L47.9 140.4L47.8 140.6V140.8V140.9H47.7V141L47.8 141.2L47.9 141.5H48V141.6H47.9L47.8 141.7H47.7V141.8H47.6V141.9L47.7 142V142.1V142.2L47.6 142.5H47.5V142.6V142.8V142.9H47.4L47.2 143.1L47 143.2L46.8 143.4L47 143.5V143.6L47.1 143.7V143.8V144L47.2 144.1L47.3 144.2V144.3H47.4V144.4V144.5H47.5L47.6 144.6L47.7 144.7V144.8H47.8L47.7 144.9V145V145.1V145.2V145.3V145.4L47.8 145.6V145.7H47.9V145.8V145.9V146H48V146.1H48.1L48.2 146.2V146.3L48.1 146.4V146.5L48 146.6H48.1V146.7V146.8H48V146.9H47.9V147H47.8V147.1H47.7V147.2M47.7 147.2H47.6M47.7 147.2V147.3H47.6V147.4V147.5L47.5 147.6V147.7H47.4V147.8H47.3V147.9V148V148.1V148.2L47.2 148.3V148.4H47.1V148.5V148.6V148.7H47V148.8V148.9V149V149.1V149.2V149.3L46.9 149.4V149.5L46.8 149.6V149.7H46.7H46.6V149.6H46.5V149.7V149.8H46.6H46.7V149.9V150V150.1V150.2V150.3V150.4V150.5H46.6V150.6V150.7V150.8H46.5V150.9H46.4H46.3V151H46.2V150.9H46.1L46 150.8H45.9H45.8H45.7V150.7H45.6H45.5V150.6H45.4V150.5H45.3H45.2V150.4H45.1L45 150.3V150.2H44.9V150.1H44.8H44.7V150.2H44.6V150.3H44.5L44.4 150.4H44.3V150.5V150.6H44.2V150.7H44.1H44V150.8L43.9 150.9L43.8 151H43.7L43.6 151.1H43.5H43.4H43.3H43.2H43.1L43 151.2H42.9V151.3H42.8V151.4L42.7 151.3H42.6V151.2V151.1V151L42.5 150.9H42.4H42.3H42.2H42.1H42V150.8H41.9H41.8H41.7H41.6H41.5H41.4H41.3H41.2H41.1H41H40.9V150.7H40.8H40.7H40.6V150.6H40.5V150.5H40.4H40.3L40.2 150.4H40.1V150.3H40H39.9V150.2H39.8V150.1H39.7V150H39.6V150.1H39.5L39.4 150.2H39.3H39.2H39.1H39H38.9V150.1V150H38.8V149.9V149.8H38.7V149.7H38.6L38.5 149.6H38.4H38.3H38.2V149.5H38.1V149.4H38V149.3V149.2L37.9 149.1V149V148.9L38 148.8V148.7H37.9V148.6V148.5V148.4V148.2H37.8V148.1V148H37.7V147.9L37.6 147.8V147.7L37.5 147.6H37.4V147.5L37.3 147.4L37.2 147.3V147.2H37.1V147.3V147.4V147.5H37V147.6H36.9V147.7V147.8V147.9H36.8L36.7 148H36.6L36.5 148.1H36.4V148.2H36.3V148.3H36.2V148.4H36.1L36 148.5H35.9H35.8V148.6H35.7H35.6H35.5L35.4 148.7H35.3H35.2H35.1H35V148.6V148.5V148.4H34.9V148.3L34.8 148.2L34.7 148.1H34.6H34.5V148L34.3 147.9V147.8L34.2 147.7H34.1H34H33.9V147.6L33.8 147.4V147.3H33.7V147.2L33.6 147.1H33.5L33.4 147H33.3H33.2L33.1 147.1V147.3V147.4V147.5V147.6L33 147.7H32.9H32.8H32.7V147.8H32.6V147.9V148H32.5H32.4L32.3 148.1H32.2H32.1H32H31.9V148H31.8H31.7H31.6V148.1H31.5V148.2H31.4H31.3H31.2V148.3H31.1L31 148.2H30.9H30.8V148.1H30.7H30.6L30.5 148L30.4 147.9H30.3H30.2V148H30.1L29.9 148.1H29.8H29.6H29.5H29.4H29.3L29.2 148.2V148.1H29.1V148H29V147.9V147.8V147.7L28.9 147.6V147.5H28.8V147.4V147.3L28.7 147.2V147.1V147V146.9V146.8L28.6 146.7V146.6V146.5H28.5V146.4L28.4 146.3L28.3 146.2L28.2 146.1V146L28.1 145.9V145.8H28V145.7V145.6V145.5V145.4V145.3V145.2V145.1V145V144.9L27.9 144.8V144.7H28V144.6H27.9L27.8 144.5H27.7H27.6V144.4V144.3V144.2V144.1L27.5 144V143.9V143.8H27.4L27.3 143.7V143.6L27.2 143.5V143.4H27.1V143.3V143.2H27V143.1L26.9 143L26.8 142.9H26.7V142.8V142.7L26.6 142.6H26.5L26.4 142.5H26.3H26.2H26.1H25.7L25.6 142.1V142L25.7 141.9V141.8L25.8 141.7H25.9L25.8 141.6V141.5L25.7 141.3L25.6 141.1H25.5L25.4 141.2H25.3H25.2V141.1V141L25.1 140.9H25H24.9H24.8V140.8H24.7V140.7H24.6H24.4H24.3V140.6H24.2L24.1 140.4L24 140.3H23.9H23.8H23.7V140.4H23.6H23.5H23.4V140.5H23.3V140.6V140.7V140.8V140.9H23.2H23.1H23L22.9 141H22.8H22.7V140.9H22.6H22.5L22.4 141H22.3V141.1H22.2V141.2H22.1V141.3H22V141.4L21.9 141.5H21.8V141.4H21.7V141.3H21.6V141.2H21.5H21.4H21.3H21.2H21.1H21V141.3H20.9L20.8 141.4H20.7L20.6 141.5H20.5L20.4 141.6L20.3 141.5H20.2H20.1H20L19.9 141.6L19.8 141.7L19.7 141.8L19.6 141.9V142V142.2L19.5 142.3L19.3 142.5V142.6H19.2L19.1 142.7V142.8H19V142.7H18.9L18.8 142.6L18.7 142.5L18.6 142.4H18.5H18.4L18.3 142.3L18.2 142.2L18.1 142.1H18V142L17.9 141.9V141.8H17.8V141.7H17.7V141.6V141.5H17.6V141.4V141.3V141.2V141.1V141V140.9V140.8V140.7V140.6V140.5H17.5V140.4V140.3V140.2V140.1V140V139.9V139.8V139.7H17.4V139.6H17.5V139.5V139.4H17.4V139.3H17.3L17.2 139.2H17.1V139.1L16.9 139.2V139.1H16.8H16.7L16.6 139H16.5V138.9H16.4L16.3 138.8H16.2H16.1L16 138.7H15.9V138.6H15.8V138.5H15.7H15.6V138.4H15.5H15.4V138.3V138.2H15.3V138.1H15.2L15.1 138H15V137.9H14.9V137.8H14.8H14.7V137.7H14.6V137.6H14.5V137.5H14.4V137.4H14.3H14.2V137.3H14.1L14 137.2H13.9V137.1H13.8V137H13.7V136.9L13.6 136.8V136.7L13.5 136.6V136.5V136.4V136.3V136.2H13.4V136V135.9L13.3 135.8V135.7V135.6L13.2 135.5V135.4H13.1V135.3H13V135.2V135.1H12.9V135H12.8V134.9V134.8V134.7V134.6H12.7V134.5V134.4H12.6V134.3V134.2L12.5 134.1V134V133.9H12.6V133.8V133.7V133.6V133.5V133.4V133.3V133.2V133.1V133H12.7L12.8 132.9L12.9 132.8H13H13.1V132.7H13.2V132.6H13.3H13.4V132.5H13.5H13.6V132.4H13.7L13.8 132.3V132.2H13.9V132.1H14L14.1 132.3H14.2V132.4H14.3H14.4H14.5H14.6V132.3H14.7H14.8V132.2L14.9 132.1V132V131.9H14.8V131.8V131.7L14.7 131.6V131.5H14.8V131.4V131.3L14.9 131.2V131.1H14.8V131L14.7 130.9V130.8V130.7V130.6H14.6V130.5L14.5 130.4V130.3H14.4V130.2H14.3V130.1L14.2 130V129.9H14.1L14 129.7V129.6H13.9V129.5V129.4H13.8H13.7L13.6 129.5H13.5H13.4H13.3V129.6H13.2L13.1 129.7H13V129.8H12.9H12.8V129.7H12.7H12.6L12.5 129.6L12.4 129.5V129.4L12.5 129.5H12.6H12.7V129.4H12.8L12.9 129.3H13V129.2H13.1H13.2H13.3H13.4H13.5V129.1V129V128.9H13.4V128.8V128.7V128.6H13.5V128.5H13.6V128.4V128.3H13.5H13.4V128.2H13.3M13.3 128.2V128.3H13.2V128.2H13.3ZM13.3 128.2L13.2 128.1H13.1V128H13V127.9H12.9V127.8V127.7H12.8V127.6V127.5H12.7V127.4H12.6V127.3M12.6 127.3H12.7M12.6 127.3V127.2M12.6 127.2H12.7M12.6 127.2L12.7 127.1H12.8V127L12.9 126.9H13V126.8H12.9V126.7H12.8H12.7V126.8V126.9H12.6V126.8H12.5H12.4V126.7H12.3V126.6V126.5H12.4V126.4V126.3H12.5V126.2H12.4V126.1H12.5H12.6V126V125.9H12.7V125.8H12.6V125.7H12.7L12.6 125.6H12.7V125.5H12.6H12.5V125.4V125.3M12.5 125.3L12.4 125.4M12.5 125.3H12.4M12.5 125.3V125.2H12.4H12.3M12.4 125.4V125.3M12.4 125.4H12.3V125.3M12.4 125.3H12.3M12.3 125.2V125.3M12.3 125.2H12.2V125.1H12.3V125M12.3 125H12.4M12.3 125V124.9V124.8V124.7H12.2M12.2 124.7V124.8M12.2 124.7V124.6V124.5M12.2 124.5H12.3M12.2 124.5V124.4H12.3M12.3 124.4H12.4V124.3M12.3 124.4V124.3H12.4M12.4 124.3H12.5V124.2V124.1H12.4M12.4 124.1V124.2M12.4 124.1H12.3V124V123.9V123.8H12.4V123.7H12.5H12.6H12.7V123.6H12.8H12.9H13L13.1 123.5V123.4V123.3H13M13 123.3V123.4M13 123.3H12.9M13 123.3V123.2H13.1H13.2V123.1V123H13.3V122.9V122.8H13.4V122.7L13.5 122.6V122.5M13.5 122.5H13.6M13.5 122.5V122.4V122.3H13.4H13.3H13.2V122.2H13.1H13V122.3M13 122.3H13.1M13 122.3H12.9V122.2H12.8V122.3H12.7H12.6V122.2H12.5V122.1H12.4V122.2H12.3V122.1V122H12.2H12.1M12.1 122V122.1M12.1 122H12V121.9H11.9V121.8H11.8H11.7V121.7V121.6V121.5L11.8 121.4V121.3L11.9 121.2V121.1H11.8V121.2H11.7H11.6V121.1H11.5V121V120.9H11.4V121H11.3V121.1H11.2V121.2H11.1V121.3H11H10.9H10.8V121.2M10.8 121.2H10.7M10.8 121.2V121.1M10.7 121.2V121.3M10.7 121.2L10.8 121.1M10.7 121.2V121.1H10.8M10.7 121.2H10.6H10.5H10.4V121.1V121V120.9V120.8V120.7V120.6H10.3V120.5H10.2H10.1V120.4L10 120.3H9.90002V120.2V120.1H9.80003L9.70002 120.2V120.3H9.60002V120.2H9.50002V120.1V120H9.60002H9.70002V119.9V119.8V119.7H9.60002H9.50002V119.8H9.40002H9.30003M9.30003 119.8V119.9M9.30003 119.8H9.20002M9.30003 119.8V119.7H9.20002V119.6H9.30003V119.5H9.20002H9.10002M9.10002 119.5V119.4M9.10002 119.5H9.00002H8.90002V119.4V119.3H8.80003V119.2H8.70002H8.60002V119.1H8.50002V119V118.9V118.8H8.60002V118.7H8.50002V118.6V118.5V118.4H8.40002V118.3H8.30003V118.2H8.40002V118.1V118H8.50002V117.9V117.8V117.7H8.40002V117.6H8.30003H8.20002H8.10002V117.7H8.00002V117.8H7.90002H7.80003L7.70002 117.9V118H7.60002H7.50002V117.9H7.60002V117.8H7.50002H7.40002V117.9H7.30003H7.20002H7.10002H7.00002V118H6.90002H6.80003H6.70002V117.9H6.60002L6.50002 118H6.40002V117.9H6.30003V117.8V117.7H6.20002M6.20002 117.7V117.8M6.20002 117.7H6.10002V117.6H6.00002H5.90002H5.80003V117.5V117.4V117.3H5.90002V117.2V117.1L6.00002 117V116.9V116.8V116.7H6.10002V116.6H6.20002V116.5H6.30003V116.4V116.3V116.2H6.40002V116.1V116H6.50002H6.60002V115.9H6.70002V115.8V115.7H6.60002V115.8H6.50002H6.40002V115.7V115.6H6.30003H6.20002H6.10002V115.7H6.00002L5.90002 115.6H5.80003V115.7H5.70002H5.60002H5.50002V115.8V115.9V116V116.1H5.40002V116.2V116.3H5.30003H5.20002H5.10002V116.4V116.5V116.6V116.7V116.8L5.00002 116.9L4.90002 117L4.80003 117.1H4.70002V117H4.60002V116.9V116.8V116.7V116.6H4.50002L4.40002 116.5H4.30003V116.4H4.20002V116.3V116.2V116.1L4.30003 116V115.9V115.8H4.40002H4.50002V115.7H4.60002L4.70002 115.6V115.5V115.4H4.80003V115.3H4.90002V115.2H4.80003V115.1V115H4.90002V114.9H5.00002V114.8V114.7V114.6H5.10002H5.20002H5.30003L5.40002 114.5V114.4H5.30003V114.3V114.2V114.1V114H5.40002V113.9H5.50002H5.60002V113.8V113.7H5.50002V113.6V113.5H5.60002V113.4H5.70002V113.5H5.80003H5.90002V113.4H6.00002V113.3H6.10002V113.2H6.20002H6.30003V113.1H6.20002V113H6.10002M6.10002 113V113.1" stroke="white" stroke-width="0.5" stroke-linecap="round" stroke-linejoin="round"/>
</g>
</svg>
