<svg width="151" height="139" viewBox="0 0 151 139" fill="none" xmlns="http://www.w3.org/2000/svg">
<g id="UA48">
<path d="M79.3 137.8V137.9H79.2V137.8H79.1H79H78.9V137.9V138H79V138.1H79.1V138.2H79.2V138.3H79.3H79.4V138.2H79.3V138.1H79.4V138.2H79.5V138.3V138.4L79.6 138.5V138.6H79.7V138.7H79.6H79.5L79.4 138.6H79.3V138.5H79.2L79.1 138.4H79V138.5H79.1V138.6H79.2V138.7L79.1 138.6L79 138.5L78.9 138.4L78.7 138.2L78.6 138V137.9L78.5 137.8L78.4 137.7V137.6L78.3 137.5V137.4V137.3H78.2V137.2H78.1V137.1V137L78 136.9V136.8V136.7V136.6H77.9V136.5V136.4L77.8 136.3V136.2L77.7 136.1V136L77.6 135.9V135.8V135.7L77.5 135.6V135.5L77.4 135.4V135.3H77.3V135.2V135.1V135V134.9H77.4V135H77.5V135.1V135.2V135.3V135.4L77.6 135.5V135.6V135.7H77.7V135.8H77.8V135.9H77.9V136H78L78.1 136.1V136.2L78.2 136.3H78.3L78.4 136.5L78.5 136.6V136.7H78.6L78.7 136.8L78.8 136.9V137L78.9 137.1V137.2L79 137.3V137.4L79.1 137.5L79.2 137.6V137.7L79.3 137.8ZM77.2 134.8H77.1H77V134.7L76.9 134.6V134.5L77 134.6V134.7H77.1L77.2 134.8ZM68.8 124.2H68.9V124.3H68.8L68.7 124.1V123.9H68.8V124.1V124.2ZM83.8 128.1L83.3 129.4L83.2 129.5H83L82.7 129.4H82.6H82.5H82.4L82.1 129.5V129.6H81.9V129.7L81.6 129.9L81.5 130.1V130.2L81.4 130.5L81.3 130.8L81.2 130.9L80.9 130.8L80.7 130.7H80.5L80.4 130.6H80.3H80.2H80.1V130.5H79.9H79.8L79.7 130.4H79.6H79.5L79.4 130.3H79.3H79.1H79V130.2H78.9H78.8H78.7H78.5H78.4H78.3H78.2H78.1H78V130.3H77.9H77.8H77.7L77.6 130.4H77.5H77.4H77.3L77.2 130.5L77.1 130.6H77L76.9 130.7H76.8H76.7V130.8H76.6H76.5L76.4 130.9V131H76.3V131.1H76.2V131.2H76.1V131.3H76V131.4V131.5H75.9V131.6L75.8 131.7V131.8H75.7V131.9V132V132.1V132.2V132.3L75.6 132.4V132.5V132.6V132.7V132.8V132.9V133V133.1V133.2V133.3H75.7V133.4H75.8V133.5H75.9H76V133.6L76.1 133.7V133.8V133.9H76.2H76.3V134V134.1H76.2V134H76.1H76V133.9H75.9V133.8H75.8V133.7H75.7H75.6V133.6H75.5L75.6 133.7H75.7V133.8H75.8V133.9V134H75.9H76V134.1H76.1V134.2V134.3H76.2V134.4H76.3V134.5H76.2V134.4H76.1L76 134.2L75.8 134L75.7 133.8H75.6V133.7L75.5 133.6L75.4 133.5H75.3V133.4L75.2 133.3L75.1 133.2V133.1H75V133H74.9V132.9H74.8V132.8H74.7V132.7L74.6 132.6H74.5V132.5V132.4H74.4V132.3L74.3 132.2L74.2 132.1L74.1 132L74 131.9V131.8H73.9V131.7H73.8V131.6L73.7 131.5L73.6 131.4L73.5 131.3V131.2H73.4V131.1H73.3V131H73.2V130.9H73.1V130.8H73V130.7H72.9V130.6H72.8V130.5V130.4H72.7V130.3H72.6V130.2H72.5V130.1L72.4 130H72.3L72.2 129.9V129.8H72.1V129.7H72V129.6H71.9V129.5H71.8H71.7V129.4H71.6V129.3H71.5V129.2H71.4V129.1H71.3V129H71.2V128.9H71.1V128.8H71V128.7H70.9V128.6H70.8H70.7V128.5H70.6V128.4H70.5V128.3H70.4V128.2H70.3H70.2V128.1H70.1V128H70V127.9H69.9L69.8 127.8H69.7V127.7H69.6V127.6H69.5L69.4 127.5H69.3V127.4H69.2V127.3H69.1V127.2H69V127.1H68.9L68.8 127L68.7 126.9L68.6 126.8L68.5 126.7H68.4V126.6H68.3V126.5H68.2V126.4L68.1 126.3H68V126.2L67.9 126.1V126H67.8L67.7 125.9L67.6 125.8V125.7H67.5V125.6L67.4 125.5L67.3 125.4L67.2 125.3V125.2L67.1 125.1L67 125V124.9H66.9V124.8H66.8V124.7V124.6L66.7 124.5V124.4V124.3H66.6V124.2V124.1V124H66.5V123.9H66.4V123.8L66.5 123.9L66.6 124V124.1L66.7 124.2V124.3V124.4H66.8V124.5V124.6L66.9 124.7V124.8H67V124.9L67.1 125L67.3 125.2L67.4 125.3L67.6 125.5H67.7L67.8 125.6L68 125.8L68.1 125.9L68.4 126L68.6 126.2H68.8L68.9 126.3L69 126.4H69.1L69.2 126.5H69.3L69.4 126.6H69.5H69.6H69.7V126.7H69.8H69.9H70H70.1H70.2L70.3 126.6H70.4H70.5H70.6H70.7H70.8H70.9H71L71.1 126.5H71.2H71.3H71.4H71.5H71.6H71.7H71.8H71.9H72H72.4H72.5H72.6H72.7H72.8H72.9L73 126.6H73.1H73.2H73.3H73.4L73.6 126.7H73.7H73.8H73.9H74H74.1V126.6H74.2H74.3V126.7H74.4V126.6H74.5V126.7V126.8H74.6V126.7V126.6V126.5H74.7H74.8V126.4H74.9H75H75.1H75.2H75.3V126.3H75.4H75.5H75.6V126.2H75.7H75.8H75.9H76V126.1H76.1H76.2H76.3H76.4H76.5H76.6V126.2L76.7 126.1H76.8H76.9H77H77.1H77.2H77.3H77.4V126H77.5H77.6H77.7H77.8H77.9H78H78.1H78.2H78.3H78.4H78.5H78.6H78.7H78.8V126.1H78.9H79V126.2H79.1H79.2V126.3H79.3H79.4L79.5 126.4H79.6V126.5H79.5V126.6H79.6V126.7H79.7V126.8H79.8H79.9V126.9H80H80.1H80.2V127H80.3H80.4H80.5V127.1L80.6 127.2H80.7V127.3H80.8H80.9V127.4H81H81.1H81.2V127.5H81.3H81.4H81.5V127.4H81.6H81.7V127.5H81.8H81.9V127.6H82V127.7H82.1H82.2H82.3H82.4V127.8V127.9H82.5H82.6V127.8V127.7H82.7V127.8H82.8H82.9V127.9H83H83.1H83.2H83.3V128H83.4V128.1H83.5H83.6H83.7H83.8ZM61.3 121.9V122H61.4V122.1V122.2V122.3V122.4V122.5H61.3V122.4V122.3H61.2V122.2V122.1H61.1V122V121.9H61.2H61.3ZM141.6 18.7V18.8H141.5L141.4 18.9H141.3H141.2V19L141.1 19.4V19.5L141.2 20.3H141.4H141.5V20.4V20.6L141.6 21.3V21.7L141.7 21.8V22.1L141.8 22.7H141.7H141.6L141.2 22.8H141.1V22.9V23H141.2V23.1V23.2H141.3V23.3V23.4V23.5V23.6V23.7H141.4V23.8V23.9H141.5V24V24.1V24.2H141.6V24.3H141.7V24.4H141.8V24.5H141.9V24.6H142H142.1H142.4L142.9 24.4L143.7 24.3L143.8 24.2H144.1L144.4 24.1L144.7 24H144.8H145L145.1 23.9H145.4V24V24.2V24.4L145.5 24.7L145.7 26L145.8 26.5L145 26.7H144.9L145 27.1V27.4L145.2 28.6L145.4 29.5L145.5 30.2V30.3L145 30.4L144.3 30.5L144.4 31.2L144.5 32.2L144.6 32.6L144.7 33.4L144.8 33.8V34.2H144.5L143.9 34.3L144 34.6V35.1L144.1 35.6L144.2 35.8L144.8 35.7V36.1L144.9 36.5L145 37.5L144.9 37.6H144.5L144 37.7L143.5 37.8H143.1L141.8 38V38.3V38.5L141.1 38.6H140.7L140.1 38.7H140V38.8L140.1 39.3L140.3 41L140.4 41.6L140.5 42.3L140.6 42.4L140.7 43.2L140.8 43.9L140.9 44.4V44.8L141 44.9L141.1 45.5V45.9V46V46.1V46.2H141.2V46.3V46.5V46.6L141.3 46.7H141.1H141H140.9L140.8 46.8V46.9H140.7V47H140.8V47.1V47.2V47.3H140.9V47.4V47.5H140.8L140.7 47.6H140.6V47.7H140.5V47.6H140.4V47.5V47.4H140.3V47.5L140.2 47.6V47.7H140.1V47.6H140V47.5H139.9V47.6V47.7V47.8H139.8L139.7 47.9H139.6V48H139.5L139.4 48.1V48.2V48.3V48.4V48.5V48.6L139.5 48.7L139.9 48.6H140.7L141.3 48.5L142.4 48.4H143.1H143.2L143.5 48.3H144.6L145.5 48.2L146.2 48.1V48.5L146.1 49V49.5V49.6L146 50.4V50.9L145.9 51.1V51.5L146 51.9L146.1 52.5L146.2 53.2V53.3V53.4L147.2 52.8L148.5 52.2V52.4L148.6 53L148.7 53.5L148.8 54.3L148.1 54.6L147.7 54.8H147.6L147.8 55.9L147.9 56.5L148 56.9H147.8L147.9 57.2H147.8L147.9 57.7L148 58.7V59.5L148.1 60L148.4 61.4L147.9 61.5L147.2 61.6L146.4 61.8L145.6 61.9L145 62V61.4V60.7V60V59.6V58.8V58.7V58.1V57.7L144.9 57.3L144.7 57.4L143.8 57.8L144 58.7L144.1 59.3V59.4V59.6L143.1 59.8L143.2 60.2L143.3 61L142.9 61.1V61.4L143 61.8V62.2L143.1 62.4V62.7L143.2 63H143.1L143.2 63.4L143.3 63.7V63.9L143.4 64.3V64.4L145.4 64H145.7L146.5 63.8L147.5 63.6L147.6 64L147.7 64.5L147.8 64.9L147.9 65.7L148 66.4L148.1 66.8V66.9V67V67.1H148.2V67.2V67.4V67.5V67.6H148.3L148.4 67.9H148.1V68V68.1V68.2L148 68.3H147.8L147.7 68.4L147.4 68.5L146.6 68.7L146.7 69.3L146.9 70.1H147V70.2L146.9 70.7V70.8L146.7 70.9L146.5 71L146.6 71.1L146.7 71.6V71.8L147.4 71.7L147.5 71.9V72L148.1 72.2L148.2 72.3L148.5 72.4L148.3 72.7L148.8 73.2L149.2 73.6L150 74.3L150.2 74.5L150.7 74.9H150.6V75H150.5H150.4V74.9H150.3V75H150.2V75.1V75.2H150.1H150H149.9H149.8L149.7 75.3V75.4H149.6H149.5V75.3V75.2H149.6V75.1V75H149.5V75.1H149.4H149.3H149.2H149.1V75.2H149V75.3L148.9 75.4V75.5H148.8H148.7H148.6L148.5 75.4H148.4L148.3 75.3H148.2H148.1H148V75.4H147.9H147.8V75.5V75.6V75.7V75.8V75.9V76V76.1L147.9 76.2V76.3V76.4H148V76.5L148.1 76.7L148.2 76.8L148.3 76.9H148.5H148.6V77V77.1H148.5L148.4 77.2V77.3H148.3H148.2L148.1 77.4V77.5H148H147.9H147.8H147.7H147.6V77.4H147.5H147.4V77.5H147.3V77.4H147.2V77.3H147.1L147 77.2V77.1H146.9L146.8 77L146.7 76.9V76.8V76.7V76.6H146.8V76.5H146.7V76.4L146.6 76.2H146.5V76.1L146.4 76H146.3H146.2H146.1H146H145.9H145.8H145.7V76.1L145.6 76.2H145.5H145.4H145.3V76.1H145.2V76H145.1H145V76.1V76.2H145.1V76.3H145.2V76.4H145.1H145H144.9V76.3L144.8 76.2H144.7V76.3V76.4V76.5V76.6H144.6V76.7H144.7V76.8V76.9V77V77.1H144.8V77.2V77.3L144.7 77.4V77.5H144.8V77.6V77.7H144.7V77.8H144.6V77.9H144.5V78H144.4V78.1H144.3V78.2H144.2V78.3H144.1V78.4H144H143.9H143.8H143.7V78.5H143.6H143.5H143.4L143.3 78.6H143.2V78.7V78.8V78.9V79V79.1L143.3 79.2V79.3V79.4H143.2H143.1H143H142.9L142.8 79.5H142.7V79.4H142.6L142.5 79.3H142.4L142.3 79.2H142.2L142.1 79.1V79H142V78.9V78.8H142.1V78.7V78.6V78.5L142 78.4V78.3L141.9 78.2L141.8 78.1V78H141.7H141.6H141.5H141.4V78.1V78.2V78.3H141.5V78.4H141.6V78.5H141.5H141.4V78.4H141.3H141.2H141.1H141V78.5H140.9H140.8V78.4H140.9V78.3H141L140.9 78.2H140.8H140.7V78.3H140.6H140.5V78.4H140.4H140.3L139.4 78.5V78.8V78.9L139.3 79V79.2L139.2 79.5L139.1 79.7L139 80.1L138.9 80.2V80.3L138.8 80.4V80.5L138.7 80.6L138.6 80.7L138.5 80.9L138.3 81L138.2 81.2L138 81.4V81.5H137.9H137.8V81.6H137.7H137.6H137.5V81.7H137.4L137.3 81.8V81.9L137.2 82V82.1L137.3 82.2V82.3V82.4V82.5H137.4V82.6V82.7H137.3V82.8V82.9H137.2L137.1 83L137 83.1V83.2H136.9V83.3V83.4V83.5H136.8V83.6L136.7 83.7L136.8 83.9L136.9 84V84.1V84.2L137 84.3V84.4V84.6L137.1 84.7V84.8V84.9L137 85V85.1H136.9V85.2V85.3L136.8 85.4V85.5V85.6H136.9V85.7V85.8L137 85.9V86H137.1V86.1L137.2 86.2H137.3V86.3H137.4H137.5H137.6V86.4L137.7 86.5H137.8L138.9 87.2L139.1 87.4L139.5 87.6L139.6 87.7L141.4 88.8L142 89.1V89.2L142.3 89.4L142.8 89.6L143 89.2L143.3 88.7L143.6 88L144 87.3L145.1 87.9L145.4 87.4L145.5 87.1L145.9 86.5L146.2 85.9L146.4 85.5L146.5 85.4L146.6 85.2L146.5 85.1L146.2 84.9L145.9 84.8L145.6 84.6H145.5L145.6 84.5L145.7 84.2L145.9 83.9L146.1 83.5L146.7 82.4L146.9 82.5L147 82.6L147.1 82.7L147.6 82.9L147.9 83.1L148.1 83.2L148.7 83.5L149.3 83.8V83.9H149.4L149 84.6L147.8 86.7L146.7 88.6L146.1 89.7L145.9 89.5L145 91.1L144.9 91L144.8 90.9L144 92.3L143.5 93.1L142.7 94.4L142.5 94.6L140.9 93.6L139.7 92.8L138.9 92.3L138.3 93.3L138.1 93.5V93.6V93.8L138.5 94.7L138.7 95.8L138.8 96.1V96.6L139.6 96.5L140 96.4L140.2 96.3L140.3 96.8L140.4 97.5H140.3H139.9L138.9 97.7L137.9 97.9L137.5 98V98.3L137.6 98.8L137.7 99V99.2H137.6L136.5 99.4L135.4 99.6L134.2 99.9L133.6 100H133.5L133.4 100.2L133.3 100.3H133.4V100.4V100.5V100.6V100.7V100.8H133.3V100.9L133.2 101L133.1 101.1L133.7 101.5H133.8H133.9H134V101.6H134.1V101.7H134.2H134.3L134.6 101.6H135L135.4 101.5L136 101.4L136.3 101.3H136.7L137.2 101.2V101.3V101.6L137.3 102L137.4 102.5L137.7 102.4L138.7 102.3V102.4L138.8 103.1H138.7L137.8 103.3L137.3 103.4L136.6 103.5L136 103.6L135.9 103.7H135.8L135 103.9L134.1 104L133.1 104.2L132.7 104.3L132 104.4L132.1 104.8H131.9L130.4 105L130.1 105.1V105.2L130.2 105.3L130.3 105.5H130.2L130.1 105.6H130V105.7V105.8H129.9H129.8V105.9H129.7L129.6 105.6V105.5H129.5V105.3L129.1 105.4L128.6 105.5V105.4V105.3H128.5L127.9 105.4L127 105.6H126.7L126.6 105.8H126.4H126.3H126.2V105.7L126.1 105.2L126 104.8L125.7 102.9V102.7L123.7 103.1H123.3L122.8 103.2L122.1 103.3H122H121.9L121.8 103L120.8 103.2L120.5 103.3L120.4 102.9L120.1 103V102.7H119.8V102.4V102.3V102L119.2 102.1L118.6 102.2L118.5 101.6L118.4 101.2L117.9 101.3V101.4L118 101.5V101.8L118.1 102.3V102.4L118.3 103.6L117.4 103.8H117.5V103.9V104.2L117.6 104.6L117.7 105.1L117.8 105.6H117.7L117.4 105.7H117.3H117.2H117.1L116.7 105.8L116.2 105.9H116.1H115.9L115.8 106H115.5H115.2L114.6 106.1L114.5 105.6L114.4 104.7L114.3 104.4V104.3L113.7 104.4L112.9 104.5L112.8 104.6H112.4L112.2 104.7H112.1H111.9L111.5 104.8L110.8 104.9L109.4 105.1V105.2L109.5 105.8L109.6 106.3L109.7 106.7V107.1L109.8 107.4H109.6L109.2 107.5L108.7 107.6H108.5L108.2 107.7L108.1 107.6L108 107.5H107.9L107.6 107.3H107.5H107.4V107.2L107.1 107L106.9 106.9L106.4 106.6L106.2 106.4H106.1L105.9 106.3L105.6 106.1L105.4 105.9L104.8 105.5L104.2 105.1L103.4 104.6L103.2 104.5L102.9 104.3L102.8 104.2L102.5 104V104.1H102.6V104.2V104.3V104.4V104.5L102.7 104.6L102.8 104.8L103.1 105.1L103.2 105.2V105.3L103.4 105.5L103.7 105.8V105.9L103.5 106.1L103 106.4L102.9 106.5L102.6 106.7H102.5H102.4L102.2 106.8L101.7 106.9H101.5L101.6 107.4L101.7 108L101.9 108.8V109.1L102 109.4L101.5 109.6L100.7 109.7L99.5 110L99.6 110.8L99.4 110.9L98.1 111.1L97.6 111.2L96.7 111.3V111.1H96.5V111V110.8H96.4L95.9 110.9L95.3 111.1L93.8 111.4L94 112.6L94.8 112.5V112.8L94.9 113L95 113.7L95.1 114.1V114.5L95.3 115.7V115.9L94.6 116V115.9L94.1 116H93.9L93.4 116.1L92.9 116.2L92.3 116.3H92.2H92L92.5 117L92.6 117.1L92.2 117.2H91.8L91.4 117.1L90.9 117.2L90.3 117.3L90.4 117.7H90.1L90 117.8L88 118.3V118.2H87.1L86.1 118.3L86 118.4V118.5L85.9 118.6L85.8 118.8L85.7 118.9L85.6 119.1L85.4 119.2L85.3 119.3L85.2 119.4L85.1 119.5L84.9 119.6H84.8L84.6 119.7H84.5H84.4L84.2 119.8L84 119.9H83.8L83.6 120L83.3 120.1H83.2L83.1 120.2H83H82.8H82.7L82.6 120.3H82.4V120.4H82.3L82.1 120.5L81.8 120.6L81.6 120.8L81.4 120.9H81.3L81.2 121H81.1L80.8 121.3H80.7V121.4L80.6 121.3V121.2H80.5V121.1V121H80.4V120.9H80.3V120.8H80.2V120.7H80.1V120.6H80V120.5H79.9H79.8V120.4H79.7V120.3H79.6H79.5V120.2H79.4H79.3H79.2H79.1V120.1H79H78.9H78.8H78.7H78.6H78.5H78.4V120H78.3H78.2V120.1H78.1H78H77.9H77.8H77.7L77.6 120H77.5H77.4H77.3V119.9H77.2H77.1V119.8H77H76.9V119.7H76.8L76.7 119.6H76.6V119.5H76.5H76.4V119.4H76.3L76.2 119.3H76.1V119.2H76L75.9 119.1H75.8H75.7L75.6 119H75.5H75.4L75.3 118.9H75.2H75.1H75V118.8H74.9H74.8H74.7V118.7H74.6H74.5H74.4L74.3 118.6H74.2H74.1H74V118.5H73.9H73.8H73.7V118.4H73.6H73.5H73.4H73.3H73.2H73.1H73H72.9H72.8H72.7H72.6H72.5H72.4H72.3H72.2H72.1V118.5H72H71.9H71.8H71.7H71.6L71.4 118.6H71.3H71.2L71.1 118.7H71H70.9V118.8H70.8H70.7V118.9H70.6L70.5 119H70.4V119.1H70.3V119.2V119.3V119.4H70.2V119.5H70.1V119.6H70L69.9 119.7H69.8V119.8H69.7H69.6L69.5 119.9V120H69.4V120.1H69.3V120.2H69.2V120.3H69.1V120.4L69 120.5V120.6V120.7H69.1L69.2 121L69.1 120.8V120.7H69H68.9V120.8H68.8V120.9V121H68.7V121.1V121.2V121.3V121.4H68.6V121.5V121.6V121.7V121.8H68.5H68.4H68.3H68.2L68.3 121.9V122H68.2V121.9H68.1V121.8H68V121.7L67.9 121.6L67.8 121.5H67.7V121.4H67.6V121.3H67.5H67.4L67.3 121.2V121.1H67.2V121H67.1V120.9H67H66.9L66.8 120.8V120.7H66.7L66.6 120.6H66.5L66.4 120.5H66.3H66.2V120.4H66.1H66H65.9V120.3H65.8H65.7H65.6L65.5 120.2H65.4H65.3H65.2L65.1 120.1H65H64.9H64.8H64.7H64.6H64.5H64.4H64.3H64.2H64.1L64 120H63.9H63.8H63.7H63.6H63.5H63.4H63.3H63.2V120.1H63.1H63H62.9H62.8H62.7H62.6H62.5V120.2H62.4H62.3H62.2H62.1H62H61.9V120.1V120H61.8H61.7H61.6V120.1L61.5 120.2V120.3L61.4 120.4V120.5H61.3V120.6H61.2V120.7H61.1L61 120.6H60.9V120.5H60.8H60.7L60.6 120.4H60.5H60.4H60.3V120.3H60.2H60.1H60H59.9H59.8H59.7H59.6H59.5H59.4H59.3H59.2H59.1V120.4H59H58.9L58.8 120.5H58.7V120.6H58.6V120.7H58.5V120.8H58.4V120.9V121V121.1V121.2V121.3V121.4H58.3V121.5V121.6V121.7V121.8V121.9V122H58.2H58.1V121.9H58H57.9V121.8H57.8H57.7H57.6H57.5V121.7H57.4V121.6H57.3H57.2H57.1H57H56.9H56.8H56.7H56.6V121.5H56.5H56.4H56.3H56.2V121.4H56.1H56H55.9V121.3H55.8H55.6L55.4 121.2H55.3H55.2H55.1L55 121.1H54.9H54.8H54.7H54.6H54.5H54.4H54.3H54.2V121.2H54.1H54H53.9H53.8L53.7 121.3H53.6H53.5H53.3H53.2H53.1H53H52.8H52.6H52.5V121.2H52.4H52.3L52.2 121.1L52.1 121L51.9 120.9L51.8 120.8H51.7L51.6 120.7L51.4 120.6H51.3L51.2 120.5H51.1L51 120.4L50.8 120.3H50.7H50.5L50.4 120.2H50.3L49.8 120.1L49.4 120V119.9V119.8V119.7V119.6H49.5V119.5H49.6V119.4H49.7L49.8 119.3L49.9 119.2H50V119.1H50.1V119V118.9H50V118.8V118.7H50.1V118.6V118.5H50H49.9H49.8H49.6H49.5H49.4V118.4V118.3V118.2L49.6 118.1L49.8 118H49.9L50.2 117.9H50.3V117.8L50.4 117.7H50.5V117.6H50.4L50 117.4H49.9L49.8 117.2V117.1V117L49.7 116.8V116.5L49.6 116.3V116.1L49.5 115.8V115.5V115.2V114.9L49.6 114.4L49.5 114L48.9 113.6L48.7 113.5L48.6 113.4L48.5 113.2L48.4 112.9V112.7L48.3 112.4V112.1L48.2 111.7V111.5L48.3 111.4V111.3L48.5 111.1L48.8 110.8L49.1 110.5V110.4L49.2 110.2L49.4 109.9L49.5 109.8V109.7V109.6L49.4 109.5L49.3 109.4L49.1 109.2L49 108.9L48.8 108.6L48.5 108.2L48.3 108V107.9L48.2 107.7V107.5V107.4V107.2V107.1V106.8V106.7L48.3 106.4L48.4 105.9L48.5 105.4V105.2V105.1L48.4 104.8V104.7L48.3 104.6L48.2 104.4L48 104.2H47.9L47.7 104.1L47.5 104H47.2H46.9H46.7H46.5L46.3 104.1H46.2V104V103.9L46.1 103.8V103.6V103.5L46 103.4L45.9 103.3V103.1V102.9V102.7V102.6V102.5L45.8 102.3V102.1L45.7 101.9H45.6V101.8L45.5 101.7L45.4 101.5L45.3 101.3L45.2 101.2L45 101.1L44.9 101L44.6 100.8L44.2 100.5L44 100.3L43.9 100.2H43.8L43.7 100.1H43.5H43.3L43.1 100H43L42.8 100.1H42.7L42.6 100V99.9V99.7V99.6V99.2V99V98.7V98.6V98.5V98.4L42.5 98.3V98.1L42.4 97.9L42.3 97.7L42.2 97.6L42.1 97.5L41.9 97.4L41.8 97.3L41.7 97.2L41.6 97L41.4 96.7L41.3 96.5L41.2 96.4V96.3V96.2V96L41.3 95.8V95.6V95.5L41.4 95.4V95.3V95.2H41.5H41.6H41.7H41.8H41.9L42.2 95L42.5 94.9L43 94.8L44.7 94.6L45.1 94.5L44.9 93.9L45.9 93.7L46 93.6L46.8 93.5L47.4 93.4L47.6 94.2L48.1 94.1L48.3 94L50.3 93.7H50.5L50.6 93.6L51.1 93.5H51.4L51.8 93.4L52.6 93.2H52.7H52.8V93.1L52.7 93L52.6 92.8L52.5 92.6V92.4L52.4 92L52.2 91.2L52.1 91.1V91L52.4 90.9V90.8L53.9 90.5L54 91L54.3 90.9H54.5L55.2 90.7L55.1 90.3L55.6 90.2L55.5 89.7L55.4 89.3V89.2L55.9 89.1V89V88.8L55.8 88.4L55.7 88.3V88.2L55.6 87.8V87.7L55.5 87.4V87L55.4 86.7L55.3 86.5L55.8 86.4L55.6 86.2L55.4 85.8L55.3 85.7V85.5L55.2 85.2V85.1V85L55 84.2L54.9 83.7L54.7 82.6L54.3 80.8V80.7L54.2 80.3L54.1 79.9L53.6 80L53.1 80.1L53 79.4L51.7 79.7L50.7 79.9L50.6 80.8L50.5 81.1H50.4H50.2L49.9 81H49.4H49.2H48.9L48.8 80.9H48.7L48.5 81L47.9 81.1L47.1 81.3L47 80.9L46.3 81.1H46V80.9L45.9 80.3H46.4L46.2 79.7L46 78.7L46.5 78.6L46.7 79.5L47.4 79.4L48.4 79.1L48.3 78.7L48.2 78L48 77.2L47.9 76.4L49.1 76.2L49.5 76.1V75.9L49.3 74.9V74.8V74.7H49.2V74.6L49.1 74.2L49 73.6L49.4 73.5L49.1 72.8L49 72.9L48.5 73L47.7 73.1L46.6 73.4H46.5L46.1 73.5L45.6 73.6L45 73.7L44.5 73.8L44.6 74.2L44 74.3L43.7 74.4L42.9 74.5V74.6H42.8L41.5 74.8L41.4 74.5L41.2 73.8L41 73.1L40.9 72.5L40.5 72.6L40.2 72.7L40.1 72.6H40L40.3 71.8L40.5 71.1H40.1L39.2 71.3L38.2 71.5L37.1 71.8L36.4 71.9H36.3L35.9 72H35.8V71.9V71.8L35.7 71.4L35.6 71.1V70.7L35.5 70.2L35.1 68.8H35L34.5 68.9L34.1 69L34 68.7L33.9 68.3L33.8 67.8L34.2 67.7L35 67.5L34.9 67.2L35.6 67.1L35.9 67L35.5 65.9H35.4H34.8L34.7 65.4L34.6 65.3V65.1L34.5 64.8V64.6V64.4L34.4 64.2V64.1V64V63.8L34.3 63.3L34.2 62.8L35.1 62.6V62.3L35 61.8L34.9 61.5V61.4V61.2L34.8 60.9L34.3 61.1H34.1L33 61.3V61.1V60.9L32.9 60.3V59.9V59.6H33.3H33.4H33.7H33.8L33.6 58.7L33.2 56.7H33.4L33.3 56.1L33.2 55.6L33.1 55.2L33.9 55L34.6 54.9V54.7L34.5 54.5L34.4 54L34.3 53.1V53L34.2 52.9H34.4V52.8L34.3 52.1L34 52.2L33.2 52.4H33.1L32.6 52.5L32.4 52.6L32.2 52.7L32.1 52.5L31.9 51.9V51.7L31.6 51.8H31.2H31.1L30.7 51.9L30.6 51.4H30.4L29.9 51.7L29.7 51.8L29.6 51.9L29.1 52L29 51.8V51.7V51.5V51.4H28.9H28.8L28.7 51.5H28.6V51.4H28.5V51.3H28.4H28.3V51.2L28.2 51V50.9H28.1V51H28V50.9L27.9 50.3L27.7 49.8V49.5H27.9L28.1 49.4H28.3L28.6 49.3H28.7H28.8L29 49.2H29.2L29.4 49.1L29.3 48.8L29.2 48.5L29.1 48.1H29.4L29.3 47.9V47.7V47.5L29.1 46.9V46.7L29.2 46.6V46.5V46.2L29.5 46.1L29.4 45.7V45.6V45.5L29.5 45.4V45.3H29.9L30.1 45.2H30V44.9V44.8L29.9 44.6L29.8 44.3H29.6L29.3 44.4L28.5 44.5L28.3 44.6H28.2L27.5 44.8L26.7 44.9H26.3L25.9 45V45.1L26.1 45.9L26.3 46.7L26.4 47.3H26.3L26.2 47.4L26 47.5L25.7 47.6L25.5 47.7V47.8H25L23.8 47.9H23.4V47.6L23.3 47.5V47V46.7L23.7 46.6V46.4V46.2V45.9L23.6 45.4H23.4L22.8 45.6L22.2 45.8L21.9 45.9L21.3 46.1L21.1 45.8V45.6L21 45.3L20.3 45.5H20.2L19.7 45.7L19.2 45.9H19.1H18.7L18.3 46V45.6L18 45.7L16.8 45.9L15.3 46.3L13.8 46.6L13.7 46L13.6 45.3L13.5 45.1V44.9L12.6 45.1L12.1 45.2L11.5 45.3L11.3 45.4L11.2 44.9L11.1 44.3L11 43.8L10.9 43.2L10.8 42.7L11 42.6V42.5L10.9 42.3L10.8 41.8L10.7 41.2L10.4 40V39.9L10.3 39.4L10.2 38.9L10.1 38.4H10V38.2L9.89999 37.7L9.79999 37.1V37L9.70001 36.7V36.5H9.79999L10 36.4H10.1L10.2 36.1H10.5L10.6 36H10.9L11.2 35.9H11.5L11.4 35.6L11.3 35L11.1 34.2V33.9H11.3H11.6H11.7H11.8L11.9 33.8H12.1H12.3V33.7L12.2 33.6L12.1 33V32.9L11.7 33L11.6 32.8V32.3L11.4 31.4V31.3L11.2 31.4L10.7 31.5L9.79999 31.7L9.29999 31.8H9.20001L8.20001 32L7.60001 32.1L7.39999 32.2H7.10001H6.89999V32.3L6.79999 32.2L6.60001 31.6L6.5 31.2L6.39999 31V30.9V30.7L6.29999 30.6V30.4V30.3V30.2L6.20001 30V29.8L6.10001 29.5V29L6 28.9V28.8V28.7V28.6L5.89999 28.4V28.2L5.79999 28V27.9V27.6L5.70001 27.1L5.60001 26.5V26.4L5.5 26V25.9L5.29999 24.6L5.20001 24.4V24.3V24.2V24L5.10001 23.8V23.7V23.6H5.20001V23.5H5.29999V23.4H5.39999V23.3H5.5V23.2H5.60001L5.39999 23L5.29999 22.8L4.89999 22.3L4.29999 21.6L4 21.4L3.70001 21.2L3.10001 20.7L2.79999 20.6L2.70001 20.5L2.5 20.4V20.1V19.8V19.7V19.6H2.60001L2.5 19.5V19.4V19.3H2.60001L2.5 19.1L2.29999 18.6L2.10001 18.2H2V18.1L1.89999 17.9L1.70001 17.5V17.4L1.60001 17.2L1.5 17.1V17L1.60001 16.9L2.20001 16.7L2.5 16.6L2.89999 16.4L3.10001 16.3V16.2L3 16.1L2.89999 15.8H3V15.7L2.79999 15.3L2.5 14.6H2.39999L2.29999 14.2L1.89999 13.4H1.79999V13.5L1.70001 13.6L1.5 13.7L0.899994 13.2L0.5 12.8L0.600006 12.7L0.700012 12.6H0.799988L0.899994 12.5L1 12.4V12.5V12.6H1.10001H1.20001V12.7H1.29999L1.5 12.6H1.70001H1.79999H1.89999V12.5V12.4L2 12.3H2.10001H2.20001L2.29999 12.1L2.39999 12V11.9L2.60001 11.5L2.70001 11.4V11.3V11.2H2.60001V11.1L3.10001 11.2H3.5L3.60001 11.3L3.89999 11.4L4.29999 11.5L4.39999 11V10.9L4.70001 10.6H4.79999H4.89999H5.10001H5.20001H5.29999H5.39999H5.5L5.79999 10.7H6L6.39999 10.8L6.5 10.6L6.39999 10.5H6.29999H6.20001V10.4H6.10001H6L5.89999 10.3V10.2V10V9.89999H6L6.10001 10H6.20001H6.29999V10.1H6.39999H6.5V10.2H6.60001V10.3H6.70001V10.4H6.60001V10.6L7.89999 10.3L8 10.2H8.10001V10.1V9.39999L7 9.20001L6 9.10001L5.79999 8.39999L5.70001 7.79999V7.60001V7.5L5.60001 7.39999V7.29999V7.20001H5.70001H5.79999H5.89999V7.29999H6H6.10001V7.20001H6.20001L6.29999 7.10001L6.39999 7L6.60001 6.79999L6.70001 6.70001V6.60001L6.60001 6.5V6.39999V6.29999V6.20001V6.10001V6V5.89999V5.79999H6.70001L6.79999 5.70001H6.89999H7H7.10001H7.20001L7.29999 5.60001H7.39999V5.5H7.5V5.39999L7.60001 5.29999L7.70001 5.20001H7.79999H7.89999H8H8.10001V5.10001H8.20001H8.29999V5H8.39999V4.89999V4.79999H8.5V4.70001H8.60001H8.70001H8.79999H8.89999L9.10001 4.79999L9.20001 4.70001H9.29999H9.39999H9.5V4.79999H9.60001V4.89999V5V5.10001V5.20001H9.70001V5.29999L9.79999 5.39999H9.89999L10 5.5H10.1H10.2H10.4H10.5H10.6H10.7V5.60001H10.8H10.9H11H11.1H11.2L11.3 5.5H11.4H11.5H11.6V5.39999H11.7V5.29999H11.8V5.20001L11.9 5.10001V5H12V4.89999H12.1H12.2L12.3 5H12.4V5.10001H12.5H12.6H12.7H12.8L12.9 5.20001H13L13.1 5.29999H13.2L13.3 5.39999H13.4H13.5V5.5H13.6V5.60001H13.7H13.8H13.9V5.5V5.39999L14 5.29999H14.1H14.2H14.3H14.4L14.5 5.20001H14.6H14.7L14.8 5.10001H14.9H15H15.1H15.2L15.3 5.20001V5.29999V5.39999V5.5V5.60001L15.4 5.70001V5.79999L15.5 5.89999V6L15.6 5.79999L16 5.29999L16.4 4.70001L16.6 4.39999L16.7 4.29999L16.8 4.5L17.4 5L17.8 5.39999L17.9 5.5L18 5.60001V5.70001L18.1 6.10001H18.7L19.4 6.20001V6.10001H19.6V6H19.7H19.8H19.9H20H20.2H20.5H20.8L20.9 6.10001H21H21.2H21.3V6H21.4V5.79999V5.70001V5.60001H21.3V5.5V5.39999L21.4 5.29999H21.5H21.6H21.9H22.2L22.4 5.20001H22.5L22.7 5.10001L23.1 5L23.2 4.89999L23.1 4.79999L23 4.70001L22.9 4.5L22.8 4.39999V4.29999V4.10001L22.7 3.89999H22.8H23L23.1 3.79999H23.4H23.6H23.7L24 3.70001H24.3H24.4H24.6L24.8 3.60001H24.9L25.3 3.39999L25.6 3.29999L26 3.20001L26.2 3.10001L26.3 3.20001V3.29999V3.39999V3.60001L26.4 3.79999L27 3.70001H27.3H27.4L27.9 3.60001H28.1H28.5L28.8 3.5H29L29.7 3.39999L29.8 3.70001L29.9 4.10001V4.20001V4.29999V4.39999L30 4.5V4.70001L30.1 5.20001H30.4L31 5.10001H31.2V5V4.89999H31.1V4.79999V4.70001V4.60001L31.2 4.5V4.39999L31.3 4.29999H31.4V4.20001V4.10001H31.5V4L31.4 3.89999V3.79999V3.70001V3.60001H31.5V3.5H31.6V3.60001H31.7V3.70001L31.8 4V4.20001L32.1 4.10001H32.2H32.4L32.6 4H32.9L33 4.39999V4.70001L33.1 5.29999L33.2 5.70001H33.4H33.7L34 5.60001V5.70001H34.1H34.2V5.60001H34.3V5.5H34.4H34.5L34.6 5.39999H34.7H34.8H34.9H35H35.1H35.2L35.3 5.5V5.60001L35.4 5.70001V5.79999V5.89999H35.5V5.79999H35.6V5.70001H35.7V5.60001V5.5H35.8H35.9H36H36.1L36.2 5.39999H36.3H36.4V5.29999V5.20001V5.10001H36.5H36.6H36.7V5.20001H36.8V5.29999H36.9H37V5.20001V5.10001V5V4.89999V4.79999V4.70001V4.60001V4.5V4.39999V4.29999V4.20001V4.10001V4H37.1H37.2H37.3H37.4H37.5H37.6H37.7H37.8H37.9L38 4.10001H38.1V4.20001H38.2H38.3H38.4L38.5 4.10001H38.6V4H38.7V3.89999H38.8H38.9H39H39.1H39.2H39.3V4H39.4H39.5H39.6H39.7H39.8H39.9H40V3.70001L39.9 3.5V3.29999V3.20001H40L39.9 2.89999L39.8 2.29999L39.7 1.79999L39.6 1.29999V1.10001L40 1H40.3L40.9 0.799988H41L41.1 0.700012H41.2H41.3H41.4L41.8 0.600006H42L42.2 0.5H42.4H42.6L43.2 0.299988L43.3 0.799988L43.4 1.29999L43.6 1.20001L44.5 1.10001L45.1 1H45.2L46.1 0.799988L46.9 0.700012L47.3 0.600006H47.5V0.799988L47.6 1.20001L48.1 1.10001H48.5L48.7 1V1.10001H48.8V1.20001V1.29999H48.9L49 1.39999H49.1L49 1.5V1.60001V1.70001H49.1H49.2V1.79999V1.89999V2H49.3V2.10001H49.4V2.20001H49.5V2.29999H49.6V2.39999H49.7V2.5H49.8V2.60001V2.70001H49.9V2.79999V2.89999V3V3.10001H50L50.1 3.20001H50.2V3.29999V3.39999H50.1V3.5V3.60001L50 3.70001H49.9H49.8H49.7V3.79999H49.6V3.89999V4V4.10001V4.20001V4.29999H49.7V4.39999H49.8V4.5H49.9V4.60001H50L50.1 4.70001H50.2V4.79999L50.3 4.89999H50.4L50.5 5.10001L50.7 5.20001L51.6 5L51.8 5.60001V5.70001L51.9 6.20001L52.1 7.20001L52.2 7.79999L52.3 8.39999L52.4 9.10001L52.8 8.89999L53.4 8.70001L54.1 8.5L54.5 8.29999L55.3 8H55.4L55.8 7.89999L56.7 7.5L56.8 8.29999L56.9 9.20001L57 9.29999H57.1H57.2H57.3H57.4V9.20001H57.5H57.6V9.10001H57.7H57.8V9H57.9H58H58.1V8.89999H58.2H58.3H58.4H58.5H58.6H58.7H58.8H58.9H59H59.1V8.79999H59.2V8.70001H59.3V8.60001H59.4V8.5H59.5V8.39999H59.6V8.29999V8.20001H59.7V8.10001V8H59.8H59.9H60H60.1V8.10001L60.2 8.29999V8.39999L60.3 9L60.4 9.20001V9.29999L60.5 9.70001H60.7L60.9 9.60001H61.2L61.6 9.5H61.7L61.6 8.89999V8.79999L62.2 8.70001L63.2 8.5L64 8.29999H64.2L64.3 8.20001H64.7L65.1 8.10001V8.39999L65.3 9.39999L65.5 10.5V10.6L65.6 11L65.7 11.3L65.1 11.5L64.5 11.6V11.7L64.4 11.8V11.9V12H64.3V12.1V12.2V12.3L64.2 13.1H64.3L64.7 13H65.1L65.2 13.2L65.3 13.7L65.4 14.1L65.6 14H65.7H65.8H65.9V13.9L66 13.8L66.1 13.7L66.2 13.5L66.3 13.4V13.3H66.4V13.2H66.3V13.1V13V12.9V12.7H67.2H67.6H67.9L68.3 12.6V12.5L68.2 12L68 10.9L67.9 10.1L67.8 9.79999L68.2 9.70001L68.5 9.60001H68.6H68.7L68.9 9.79999L69 10.2L69.1 10.3L69.2 10.4V10.3V10.2V10.1H69.3H69.4H69.5H69.6V10H69.7L69.9 9.89999H70L69.9 9.39999V9.20001V9.10001V9V8.89999V8.79999V8.70001L70 8.60001L69.9 8.20001L70.4 8.10001H70.7L70.9 8H71H71.1L71.6 7.79999H71.9L72 7.70001H72.2V7.79999L72.5 7.70001L72.6 8.20001V8.29999L72.7 8.5H72.8V8.79999L72.9 9.20001L73.2 9.10001L73.8 9L74.2 8.89999L74.8 8.79999H75.1V8.89999H75V9H74.9L75 9.10001V9.20001H75.1L75.2 9.10001V9.29999L75.4 10.3L75.5 10.8H75.6H75.7H75.9H76L76.2 10.7H76.3H76.4H76.5L76.6 10.6H76.9L77.7 10.5L78.2 10.4L79.2 10.2L79.3 10.7L79.4 11.3L79.5 12.1L79.6 12.5L79.7 13.1L79.8 13.7L79.9 14.1V14.2L80 14.5V14.6V14.7L79.3 14.8H79.2L79 14.9L77.9 15.1L77.3 15.2V15.5L77.4 15.8L77.5 16.1V16.2L77.6 16.9L77.7 17.4L77.8 18.4L77.9 18.9L78 19.4L78.1 19.7V19.9V20.2L78.2 20.6L78.3 21L78.4 21.4V22V22.1H78.5V22.2H78.6V22.1H78.7H78.8H78.9V22H79H79.1V22.1H79.2V22V21.9H79.3V21.8H79.4V21.7V21.6V21.5H79.5H79.6V21.4H79.5V21.3H79.6H79.7V21.2H79.8V21.1H79.7V21H79.8V20.9H79.9L80 21V21.3H80.1H80.2L80.3 21.2H80.6L80.8 21.1H80.9V20.9H81H81.1H81.2H81.3H81.4H81.5L81.6 20.8H81.7H81.8H81.9H82H82.1H82.2H82.3H82.4L82.7 20.7H82.9L83.1 20.6L83.2 21L83.3 22.2L83.5 23.1L83.7 24.2H83.8L83.9 24.1H84H84.2L84.5 24H84.6H84.7H84.8V24.2V24.3V24.4V24.6V24.7V24.8V24.9V25L84.9 25.1V25.2L85 25.3V25.4V25.5H85.1V25.6V25.7V25.8V25.9H85H84.9V26.1V26.2V26.4V26.7H85V26.8H85.2V26.9V27V27.1L85.3 27.2V27.3V27.4V27.5H85.4V27.6V27.7V27.8H85.5V27.9H85.4V28H85.3H85L83.8 28.1L83.7 28.2V28.3V28.5L83.8 29L83.9 29.2L83.6 29.3V29.5V29.6L83.7 30H83.9V30.1V30.2L84 30.3V30.4V30.5H84.1V30.6H84.2V30.7H84.3V30.8H84.4V30.9H84.5V31H84.4V31.1V31.2H84.3L84.2 31.3L83.6 31.4L83 31.5L82.5 31.6L82.3 31.7V32.2L82.4 32.5L82.5 32.8L82.6 33.2V33.4V33.5L82.7 34L82.8 34.2V34.3L83.5 34.2L84.1 34.1L84.6 34V33.9L85.5 33.7L86.4 33.5H86.8L87.6 33.3L88.2 33.2L89 33.1L89.1 33L88.9 32.2L89.5 32.1H89.7L89.9 32H90.4L90.9 31.9H91L91.2 31.8H91.3H91.4H91.5L91.6 31.7H91.7V31.8V31.9V32H91.9L92.3 31.9L92.6 31.8H93L93.2 31.7L93.7 31.6L93.8 32L93.9 32.2V32.4L94 32.6L94.3 32.5H94.7L94.8 32.4L95 33.2H95.3V33.3L95.4 33.7V34L95.5 34.2V34.3L96.1 34.2L96.5 34.1L96.6 34.7L96.7 35.1V35.5L96.8 36.1L96.9 36.2H97H97.4L97.5 36.1H97.8V36.2H97.7V36.3H97.8V36.4H97.9V36.5L98 36.6V36.7V36.8H98.1V36.7H98.2H98.3V36.6L98.4 36.5H98.3V36.4H98.4H98.5V36.3H98.6H98.7V36.2V36.1H98.8V36H98.7V35.9H98.8H98.9V36.1L99 36.4V36.5V36.6H99.1H99.3L99.8 36.5L100.3 36.4L100.9 36.3L101.5 36.1L102.1 36L102.6 35.9L102.5 35.1L102.4 34.5L102.3 33.9L102.2 33.6L102.8 33.4H103.1L103 32.9V32.5L102.9 32.1V31.8H103H103.3L103.6 31.7L104.4 31.5H104.8L105.5 31.3H105.7H105.8L106.1 31.2H106.2H106.3V31.3H106.4V31.4H106.5L106.4 31.5H106.5H106.6V31.6H106.7V31.5H106.8L106.9 31.6H107H107.1V31.5L107.2 31.9V31.8H107.3V31.9H107.4H107.5V32V32.1V32.2V32.3H107.6V32.4L107.7 32.6H107.8V32.7L107.9 32.8H108V32.9H108.1V33H108.2H108.3H108.4V33.1L108.5 33.2L108.6 33.3H108.7V33.4H108.8V33.5H108.9V33.6H109L109.1 33.7H109.2V33.8H109.3H109.4L109.5 33.7V33.6V33.5H109.6V33.4V33.3H109.7L109.9 33.4V33.3L110 33.2L110.1 33.1H110.2H110.3H110.4L110.5 33V33.1H110.6H110.7V33H110.8H110.9V32.9H111H111.1H111.2H111.3V33V33.1H111.2V33H111.1H111V33.1V33.2L111.1 33.3H111.2H111.3H111.4H111.5V33.2H111.6H111.7H111.8V33.1H111.9H112V33H112.1V32.9V32.8H112.2H112.3V32.9H112.4V33V33.2V33.4L112.5 33.7H112.6H112.7H112.8H112.9L113 33.6H113.2H113.4L113.8 33.5L114 33.4H114.3H114.4H114.6L114.7 33.3H114.9L115.1 33.2H115.3L116 33.1H116.2L116.8 33L118.1 32.7L118.6 32.6L119.6 32.5L119.8 32.4H119.9L120.4 32.3L120.9 32.2H121.2H121.3V32.1H121.8L122.3 32L122.5 31.9L122.4 31.8V31.7H122.5H122.9L123.7 31.5L124.1 31.4V31V30.8L124.2 30.7L124.5 30L124.8 29.8L124.9 29.7L125 29.5L125.1 29.1L125.2 29L125.1 28.9V28.8L125 28.7V28.6L124.9 28.8L124.7 29V28.8V28.7L124.6 28.2L124.5 27.6L125.5 27.5L125.4 26.3L125.3 26.1V26V25.9L125.2 25.8V25.7V25.5L125.1 24.9L124.7 25H124.4L124.1 25.1L124 24.8L123.9 24.4L123.8 23.8H123.9L124.9 23.6L125.6 23.5H125.7L126 23.4H126.1L126.5 23.3L127.2 23.2L127.8 23.1L128.6 23V22.9H128.5V22.8V22.7V22.6L128.4 22.5L128.3 22.4V22.3L128.2 22.2L128.1 22.1L128.2 22V21.9V21.8V21.7V21.6L128.1 21.5L126.1 21.9V21.7L126 20.9L125.9 20.5L125.8 19.9V19.4L125.7 19.3L126.8 19.1L129.5 18.6H129.6H130L130.1 18.5H130.2H130.3H130.5L130.8 18.4H131L131.1 18.8V19V19.2L131.2 19.3H131.4V19.4V19.8L131.6 19.7H131.7L131.8 19.8L131.9 19.5H132L132.6 19.4L132.9 19.3H133L133.9 19.1L134.5 19H134.6L134.7 19.1V19.2H135L135.7 19H136.1L135.8 17.6L135.7 16.9V16.7L135.6 16.4L135.5 16.3H135.4H135.3V16.2H135.2H135.1V16.1H135L134.9 15.5L135.4 15.3V15.4L135.5 15.8L136.1 15.7L137.2 15.5L137 15.1L138 14.9H138.1L138.5 14.8H138.6V14.7H138.7V14.8L138.8 14.9V15L139 15.2H139.1L139.3 15.1L139.6 14.9L139.8 14.8L140.1 14.7L140.5 14.4L140.9 14.3L141 15L141.2 16.1L141.3 16.8L141.5 17.8L141.6 18.6V18.7Z" fill="#6F9C76"/>
<path d="M79.3 137.9V137.8L79.2 137.7V137.6L79.1 137.5L79 137.4V137.3L78.9 137.2V137.1L78.8 137V136.9L78.7 136.8L78.6 136.7H78.5V136.6L78.4 136.5L78.3 136.3H78.2L78.1 136.2V136.1L78 136H77.9V135.9H77.8V135.8H77.7V135.7H77.6M79.3 137.9V138M79.3 137.9H79.2V137.8H79.1H79H78.9V137.9V138H79V138.1H79.1V138.2H79.2V138.3H79.3M79.3 138.3V138.2M79.3 138.3H79.4V138.2M79.3 138.2H79.4M79.3 138.2V138.1H79.4V138.2M79.4 138.2H79.5V138.3V138.4L79.6 138.5V138.6H79.7V138.7H79.6H79.5L79.4 138.6H79.3V138.5H79.2L79.1 138.4H79M79 138.4V138.3M79 138.4V138.5M79 138.5H79.1V138.6M79 138.5L79.1 138.6M79 138.5L78.9 138.4L78.7 138.2L78.6 138V137.9L78.5 137.8L78.4 137.7V137.6L78.3 137.5V137.4V137.3H78.2V137.2H78.1V137.1V137L78 136.9V136.8V136.7V136.6H77.9V136.5V136.4L77.8 136.3V136.2L77.7 136.1V136L77.6 135.9V135.8V135.7M79.1 138.6H79.2V138.7M79.1 138.6L79.2 138.7M79.2 138.7H79.3M77.6 135.7L77.5 135.6V135.5L77.4 135.4V135.3H77.3V135.2V135.1V135V134.9H77.4V135H77.5V135.1V135.2V135.3V135.4L77.6 135.5V135.6V135.7ZM77 134.7V134.8H77.1H77.2L77.1 134.7H77ZM77 134.7L76.9 134.6V134.5L77 134.6V134.7ZM76 134H76.1H76.2V134.1H76.3V134V133.9H76.2H76.1V133.8V133.7L76 133.6V133.5H75.9H75.8V133.4H75.7V133.3H75.6V133.2V133.1V133V132.9V132.8V132.7V132.6V132.5V132.4L75.7 132.3V132.2V132.1V132V131.9V131.8H75.8V131.7L75.9 131.6V131.5H76V131.4V131.3H76.1V131.2H76.2V131.1H76.3V131H76.4V130.9L76.5 130.8H76.6H76.7V130.7H76.8H76.9L77 130.6H77.1L77.2 130.5L77.3 130.4H77.4H77.5H77.6L77.7 130.3H77.8H77.9H78V130.2H78.1H78.2H78.3H78.4H78.5H78.7H78.8H78.9H79V130.3H79.1H79.3H79.4L79.5 130.4H79.6H79.7L79.8 130.5H79.9H80.1V130.6H80.2H80.3H80.4L80.5 130.7H80.7L80.9 130.8L81.2 130.9L81.3 130.8L81.4 130.5L81.5 130.2V130.1L81.6 129.9L81.9 129.7V129.6H82.1V129.5L82.4 129.4H82.5H82.6H82.7L83 129.5H83.2L83.3 129.4L83.8 128.1H83.7H83.6H83.5M76 134V133.9H75.9V133.8H75.8M76 134H75.9H75.8M76 134V134.1H76.1V134.2V134.3H76.2V134.4M75.8 133.8V133.7H75.7M75.8 133.8H75.7M75.8 133.8V133.9V134M75.7 133.7H75.6M75.7 133.7V133.8M75.6 133.7V133.6H75.5M75.6 133.7L75.5 133.6M75.6 133.7V133.8H75.7M75.5 133.6V133.5H75.4M75.5 133.6L75.4 133.5M75.4 133.5H75.3V133.4L75.2 133.3L75.1 133.2V133.1H75V133H74.9V132.9H74.8V132.8H74.7V132.7L74.6 132.6H74.5V132.5V132.4H74.4V132.3L74.3 132.2L74.2 132.1L74.1 132L74 131.9V131.8H73.9V131.7H73.8V131.6L73.7 131.5L73.6 131.4L73.5 131.3V131.2H73.4V131.1H73.3V131H73.2V130.9H73.1V130.8H73V130.7H72.9V130.6H72.8V130.5V130.4H72.7V130.3H72.6V130.2H72.5V130.1L72.4 130H72.3L72.2 129.9V129.8H72.1V129.7H72V129.6H71.9V129.5H71.8H71.7V129.4H71.6V129.3H71.5V129.2H71.4V129.1H71.3V129H71.2V128.9H71.1V128.8H71V128.7H70.9V128.6H70.8H70.7V128.5H70.6V128.4H70.5V128.3H70.4V128.2H70.3H70.2V128.1H70.1V128H70V127.9H69.9L69.8 127.8H69.7V127.7H69.6V127.6H69.5L69.4 127.5H69.3V127.4H69.2V127.3H69.1V127.2H69V127.1H68.9L68.8 127L68.7 126.9L68.6 126.8L68.5 126.7H68.4V126.6H68.3V126.5H68.2V126.4L68.1 126.3H68V126.2L67.9 126.1V126H67.8L67.7 125.9L67.6 125.8V125.7H67.5V125.6L67.4 125.5L67.3 125.4L67.2 125.3V125.2L67.1 125.1L67 125V124.9M75.7 133.8L75.8 134M75.8 134L76 134.2L76.1 134.4H76.2M76.2 134.4H76.3V134.5M76.2 134.4V134.5H76.3M76.3 134.5H76.4M76.3 134.5V134.6M67 124.9H66.9V124.8M67 124.9V124.8H66.9M67 124.9L67.1 125L67.3 125.2L67.4 125.3L67.6 125.5H67.7L67.8 125.6L68 125.8L68.1 125.9L68.4 126L68.6 126.2H68.8L68.9 126.3L69 126.4H69.1L69.2 126.5H69.3L69.4 126.6H69.5H69.6H69.7V126.7H69.8H69.9H70H70.1H70.2L70.3 126.6H70.4H70.5H70.6H70.7H70.8H70.9H71L71.1 126.5H71.2H71.3H71.4H71.5H71.6H71.7H71.8H71.9H72H72.4H72.5H72.6H72.7H72.8H72.9L73 126.6H73.1H73.2H73.3H73.4L73.6 126.7H73.7H73.8H73.9H74H74.1V126.6H74.2H74.3M66.9 124.8H66.8V124.7V124.6M66.9 124.8V124.7L66.8 124.6M66.8 124.6L66.7 124.5V124.4M66.8 124.6V124.5V124.4H66.7M66.7 124.4V124.3M66.7 124.3H66.6V124.2V124.1M66.7 124.3V124.2L66.6 124.1M66.6 124.1V124M66.6 124H66.5V123.9M66.6 124L66.5 123.9M66.5 123.9H66.4V123.8M66.5 123.9L66.4 123.8M66.4 123.8V123.7H66.3M74.3 126.6V126.7H74.4V126.6M74.3 126.6H74.4M74.4 126.6H74.5M74.5 126.6V126.7V126.8H74.6V126.7V126.6M74.5 126.6H74.6M74.6 126.6H74.7M74.6 126.6V126.5H74.7H74.8V126.4H74.9H75H75.1H75.2H75.3M75.3 126.4V126.5M75.3 126.4V126.3H75.4H75.5H75.6V126.2H75.7H75.8H75.9H76V126.1H76.1H76.2H76.3H76.4H76.5H76.6V126.2L76.7 126.1H76.8H76.9H77H77.1H77.2H77.3H77.4V126H77.5H77.6H77.7H77.8H77.9H78H78.1H78.2H78.3H78.4H78.5H78.6H78.7H78.8V126.1H78.9H79V126.2H79.1H79.2V126.3H79.3H79.4L79.5 126.4M79.5 126.4H79.4M79.5 126.4H79.6V126.5H79.5V126.6H79.6V126.7H79.7V126.8H79.8H79.9V126.9H80H80.1H80.2V127H80.3H80.4M80.4 127V126.9M80.4 127H80.5V127.1L80.6 127.2H80.7V127.3H80.8H80.9V127.4H81H81.1H81.2V127.5H81.3H81.4H81.5V127.4H81.6H81.7V127.5H81.8H81.9V127.6H82V127.7H82.1H82.2H82.3H82.4V127.8V127.9H82.5H82.6V127.8V127.7H82.7V127.8H82.8H82.9V127.9H83H83.1H83.2M83.2 127.9V127.8M83.2 127.9H83.3V128H83.4V128.1H83.5M83.5 128.1V128M61.2 122.2V122.3H61.3V122.4V122.5H61.4V122.4V122.3V122.2V122.1V122H61.3V121.9H61.2H61.1V122M61.2 122.2H61.3M61.2 122.2V122.1H61.1V122M61.1 122H61M149.5 75.3V75.4H149.6H149.7V75.3L149.8 75.2H149.9H150H150.1H150.2V75.1V75H150.3V74.9H150.4V75H150.5H150.6V74.9H150.7L150.2 74.5L150 74.3L149.2 73.6L148.8 73.2L148.3 72.7L148.5 72.4L148.2 72.3L148.1 72.2L147.5 72V71.9L147.4 71.7L146.7 71.8V71.6L146.6 71.1L146.5 71L146.7 70.9L146.9 70.8V70.7L147 70.2V70.1H146.9L146.7 69.3L146.6 68.7L147.4 68.5L147.7 68.4L147.8 68.3H148L148.1 68.2V68.1V68V67.9H148.4L148.3 67.6H148.2V67.5V67.4V67.2V67.1H148.1V67V66.9V66.8L148 66.4L147.9 65.7L147.8 64.9L147.7 64.5L147.6 64L147.5 63.6L146.5 63.8L145.7 64H145.4L143.4 64.4V64.3L143.3 63.9V63.7L143.2 63.4L143.1 63H143.2L143.1 62.7V62.4L143 62.2V61.8L142.9 61.4V61.1L143.3 61L143.2 60.2L143.1 59.8L144.1 59.6V59.4V59.3L144 58.7L143.8 57.8L144.7 57.4L144.9 57.3L145 57.7V58.1V58.7V58.8V59.6V60V60.7V61.4V62L145.6 61.9L146.4 61.8L147.2 61.6L147.9 61.5L148.4 61.4L148.1 60L148 59.5V58.7L147.9 57.7L147.8 57.2H147.9L147.8 56.9H148L147.9 56.5L147.8 55.9L147.6 54.8H147.7L148.1 54.6L148.8 54.3L148.7 53.5L148.6 53L148.5 52.4V52.2L147.2 52.8L146.2 53.4V53.3V53.2L146.1 52.5L146 51.9L145.9 51.5V51.1L146 50.9V50.4L146.1 49.6V49.5V49L146.2 48.5V48.1L145.5 48.2L144.6 48.3H143.5L143.2 48.4H143.1H142.4L141.3 48.5L140.7 48.6H139.9L139.5 48.7L139.4 48.6V48.5V48.4V48.3V48.2V48.1L139.5 48H139.6V47.9H139.7L139.8 47.8H139.9V47.7V47.6V47.5H140V47.6H140.1V47.7H140.2V47.6L140.3 47.5V47.4H140.4V47.5V47.6H140.5V47.7H140.6V47.6H140.7L140.8 47.5H140.9V47.4V47.3H140.8V47.2V47.1V47H140.7V46.9H140.8V46.8L140.9 46.7H141H141.1H141.3L141.2 46.6V46.5V46.3V46.2H141.1V46.1V46V45.9V45.5L141 44.9L140.9 44.8V44.4L140.8 43.9L140.7 43.2L140.6 42.4L140.5 42.3L140.4 41.6L140.3 41L140.1 39.3L140 38.8V38.7H140.1L140.7 38.6H141.1L141.8 38.5V38.3V38L143.1 37.8H143.5L144 37.7L144.5 37.6H144.9L145 37.5L144.9 36.5L144.8 36.1V35.7L144.2 35.8L144.1 35.6L144 35.1V34.6L143.9 34.3L144.5 34.2H144.8V33.8L144.7 33.4L144.6 32.6L144.5 32.2L144.4 31.2L144.3 30.5L145 30.4L145.5 30.3V30.2L145.4 29.5L145.2 28.6L145 27.4V27.1L144.9 26.7H145L145.8 26.5L145.7 26L145.5 24.7L145.4 24.4V24.2V24V23.9H145.1L145 24H144.8H144.7L144.4 24.1L144.1 24.2H143.8L143.7 24.3L142.9 24.4L142.4 24.6H142.1H142H141.9V24.5H141.8V24.4H141.7V24.3H141.6V24.2H141.5V24.1V24V23.9H141.4V23.8V23.7H141.3V23.6V23.5V23.4V23.3V23.2H141.2V23.1V23H141.1V22.9V22.8H141.2L141.6 22.7H141.7H141.8L141.7 22.1V21.8L141.6 21.7V21.3L141.5 20.6V20.4V20.3H141.4H141.2L141.1 19.5V19.4L141.2 19V18.9H141.3H141.4L141.5 18.8H141.6V18.7V18.6L141.5 17.8L141.3 16.8L141.2 16.1L141 15L140.9 14.3L140.5 14.4L140.1 14.7L139.8 14.8L139.6 14.9L139.3 15.1L139.1 15.2H139L138.8 15V14.9L138.7 14.8V14.7H138.6V14.8H138.5L138.1 14.9H138L137 15.1L137.2 15.5L136.1 15.7L135.5 15.8L135.4 15.4V15.3L134.9 15.5L135 16.1H135.1V16.2H135.2H135.3V16.3H135.4H135.5L135.6 16.4L135.7 16.7V16.9L135.8 17.6L136.1 19H135.7L135 19.2H134.7V19.1L134.6 19H134.5L133.9 19.1L133 19.3H132.9L132.6 19.4L132 19.5H131.9L131.8 19.8L131.7 19.7H131.6L131.4 19.8V19.4V19.3H131.2L131.1 19.2V19V18.8L131 18.4H130.8L130.5 18.5H130.3H130.2H130.1L130 18.6H129.6H129.5L126.8 19.1L125.7 19.3L125.8 19.4V19.9L125.9 20.5L126 20.9L126.1 21.7V21.9L128.1 21.5L128.2 21.6V21.7V21.8V21.9V22L128.1 22.1L128.2 22.2L128.3 22.3V22.4L128.4 22.5L128.5 22.6V22.7V22.8V22.9H128.6V23L127.8 23.1L127.2 23.2L126.5 23.3L126.1 23.4H126L125.7 23.5H125.6L124.9 23.6L123.9 23.8H123.8L123.9 24.4L124 24.8L124.1 25.1L124.4 25H124.7L125.1 24.9L125.2 25.5V25.7V25.8L125.3 25.9V26V26.1L125.4 26.3L125.5 27.5L124.5 27.6L124.6 28.2L124.7 28.7V28.8V29L124.9 28.8L125 28.6V28.7L125.1 28.8V28.9L125.2 29L125.1 29.1L125 29.5L124.9 29.7L124.8 29.8L124.5 30L124.2 30.7L124.1 30.8V31V31.4L123.7 31.5L122.9 31.7H122.5H122.4V31.8L122.5 31.9L122.3 32L121.8 32.1H121.3V32.2H121.2H120.9L120.4 32.3L119.9 32.4H119.8L119.6 32.5L118.6 32.6L118.1 32.7L116.8 33L116.2 33.1H116L115.3 33.2H115.1L114.9 33.3H114.7L114.6 33.4H114.4H114.3H114L113.8 33.5L113.4 33.6H113.2H113L112.9 33.7H112.8H112.7H112.6H112.5L112.4 33.4V33.2V33V32.9H112.3V32.8H112.2H112.1V32.9V33H112V33.1H111.9H111.8V33.2H111.7H111.6H111.5V33.3H111.4H111.3H111.2H111.1L111 33.2V33.1M149.5 75.3H149.4M149.5 75.3V75.2H149.6V75.1M149.6 75.1H149.7M149.6 75.1V75H149.5V75.1H149.4H149.3H149.2H149.1V75.2H149V75.3L148.9 75.4V75.5H148.8H148.7H148.6L148.5 75.4H148.4L148.3 75.3H148.2H148.1H148V75.4H147.9H147.8V75.5V75.6V75.7V75.8V75.9V76V76.1L147.9 76.2V76.3V76.4H148V76.5L148.1 76.7L148.2 76.8L148.3 76.9H148.5H148.6V77V77.1H148.5L148.4 77.2V77.3H148.3H148.2L148.1 77.4V77.5H148H147.9H147.8H147.7H147.6V77.4H147.5H147.4V77.5H147.3V77.4H147.2V77.3H147.1L147 77.2V77.1H146.9L146.8 77L146.7 76.9V76.8V76.7V76.6H146.8V76.5H146.7V76.4L146.6 76.2H146.5V76.1L146.4 76H146.3H146.2H146.1H146H145.9H145.8H145.7V76.1L145.6 76.2H145.5H145.4H145.3V76.1H145.2V76H145.1H145V76.1V76.2H145.1V76.3H145.2V76.4H145.1H145H144.9V76.3L144.8 76.2H144.7V76.3V76.4V76.5V76.6H144.6V76.7H144.7V76.8V76.9V77V77.1H144.8V77.2V77.3L144.7 77.4V77.5H144.8V77.6V77.7H144.7V77.8H144.6V77.9H144.5V78H144.4V78.1H144.3V78.2H144.2V78.3H144.1V78.4H144H143.9H143.8H143.7V78.5H143.6H143.5H143.4L143.3 78.6H143.2V78.7V78.8V78.9V79V79.1L143.3 79.2V79.3V79.4H143.2H143.1H143H142.9L142.8 79.5H142.7V79.4H142.6L142.5 79.3H142.4L142.3 79.2H142.2L142.1 79.1V79H142V78.9V78.8H142.1V78.7V78.6V78.5L142 78.4V78.3L141.9 78.2L141.8 78.1V78H141.7H141.6H141.5H141.4V78.1V78.2V78.3H141.5V78.4H141.6V78.5H141.5H141.4V78.4H141.3H141.2H141.1H141V78.5H140.9H140.8V78.4H140.9V78.3H141L140.9 78.2H140.8H140.7V78.3H140.6H140.5V78.4H140.4H140.3L139.4 78.5V78.8V78.9L139.3 79V79.2L139.2 79.5L139.1 79.7L139 80.1L138.9 80.2V80.3L138.8 80.4V80.5L138.7 80.6L138.6 80.7L138.5 80.9L138.3 81L138.2 81.2L138 81.4V81.5H137.9H137.8V81.6H137.7H137.6H137.5V81.7H137.4L137.3 81.8V81.9L137.2 82V82.1L137.3 82.2V82.3V82.4V82.5H137.4V82.6V82.7H137.3V82.8V82.9H137.2L137.1 83L137 83.1V83.2H136.9V83.3V83.4V83.5H136.8V83.6L136.7 83.7L136.8 83.9L136.9 84V84.1V84.2L137 84.3V84.4V84.6L137.1 84.7V84.8V84.9L137 85V85.1H136.9V85.2V85.3L136.8 85.4V85.5V85.6H136.9V85.7V85.8L137 85.9V86H137.1V86.1L137.2 86.2H137.3V86.3H137.4H137.5H137.6V86.4L137.7 86.5H137.8L138.9 87.2L139.1 87.4L139.5 87.6L139.6 87.7L141.4 88.8L142 89.1V89.2L142.3 89.4L142.8 89.6L143 89.2L143.3 88.7L143.6 88L144 87.3L145.1 87.9L145.4 87.4L145.5 87.1L145.9 86.5L146.2 85.9L146.4 85.5L146.5 85.4L146.6 85.2L146.5 85.1L146.2 84.9L145.9 84.8L145.6 84.6H145.5L145.6 84.5L145.7 84.2L145.9 83.9L146.1 83.5L146.7 82.4L146.9 82.5L147 82.6L147.1 82.7L147.6 82.9L147.9 83.1L148.1 83.2L148.7 83.5L149.3 83.8V83.9H149.4L149 84.6L147.8 86.7L146.7 88.6L146.1 89.7L145.9 89.5L145 91.1L144.9 91L144.8 90.9L144 92.3L143.5 93.1L142.7 94.4L142.5 94.6L140.9 93.6L139.7 92.8L138.9 92.3L138.3 93.3L138.1 93.5V93.6V93.8L138.5 94.7L138.7 95.8L138.8 96.1V96.6L139.6 96.5L140 96.4L140.2 96.3L140.3 96.8L140.4 97.5H140.3H139.9L138.9 97.7L137.9 97.9L137.5 98V98.3L137.6 98.8L137.7 99V99.2H137.6L136.5 99.4L135.4 99.6L134.2 99.9L133.6 100H133.5L133.4 100.2L133.3 100.3H133.4V100.4V100.5V100.6V100.7V100.8H133.3V100.9L133.2 101L133.1 101.1L133.7 101.5H133.8H133.9H134V101.6H134.1V101.7H134.2H134.3L134.6 101.6H135L135.4 101.5L136 101.4L136.3 101.3H136.7L137.2 101.2V101.3V101.6L137.3 102L137.4 102.5L137.7 102.4L138.7 102.3V102.4L138.8 103.1H138.7L137.8 103.3L137.3 103.4L136.6 103.5L136 103.6L135.9 103.7H135.8L135 103.9L134.1 104L133.1 104.2L132.7 104.3L132 104.4L132.1 104.8H131.9L130.4 105L130.1 105.1V105.2L130.2 105.3L130.3 105.5H130.2L130.1 105.6H130V105.7V105.8H129.9H129.8V105.9H129.7L129.6 105.6V105.5H129.5V105.3L129.1 105.4L128.6 105.5V105.4V105.3H128.5L127.9 105.4L127 105.6H126.7L126.6 105.8H126.4H126.3H126.2V105.7L126.1 105.2L126 104.8L125.7 102.9V102.7L123.7 103.1H123.3L122.8 103.2L122.1 103.3H122H121.9L121.8 103L120.8 103.2L120.5 103.3L120.4 102.9L120.1 103V102.7H119.8V102.4V102.3V102L119.2 102.1L118.6 102.2L118.5 101.6L118.4 101.2L117.9 101.3V101.4L118 101.5V101.8L118.1 102.3V102.4L118.3 103.6L117.4 103.8H117.5V103.9V104.2L117.6 104.6L117.7 105.1L117.8 105.6H117.7L117.4 105.7H117.3H117.2H117.1L116.7 105.8L116.2 105.9H116.1H115.9L115.8 106H115.5H115.2L114.6 106.1L114.5 105.6L114.4 104.7L114.3 104.4V104.3L113.7 104.4L112.9 104.5L112.8 104.6H112.4L112.2 104.7H112.1H111.9L111.5 104.8L110.8 104.9L109.4 105.1V105.2L109.5 105.8L109.6 106.3L109.7 106.7V107.1L109.8 107.4H109.6L109.2 107.5L108.7 107.6H108.5L108.2 107.7L108.1 107.6L108 107.5H107.9L107.6 107.3H107.5H107.4V107.2L107.1 107L106.9 106.9L106.4 106.6L106.2 106.4H106.1L105.9 106.3L105.6 106.1L105.4 105.9L104.8 105.5L104.2 105.1L103.4 104.6L103.2 104.5L102.9 104.3L102.8 104.2L102.5 104V104.1H102.6V104.2V104.3V104.4V104.5L102.7 104.6L102.8 104.8L103.1 105.1L103.2 105.2V105.3L103.4 105.5L103.7 105.8V105.9L103.5 106.1L103 106.4L102.9 106.5L102.6 106.7H102.5H102.4L102.2 106.8L101.7 106.9H101.5L101.6 107.4L101.7 108L101.9 108.8V109.1L102 109.4L101.5 109.6L100.7 109.7L99.5 110L99.6 110.8L99.4 110.9L98.1 111.1L97.6 111.2L96.7 111.3V111.1H96.5V111V110.8H96.4L95.9 110.9L95.3 111.1L93.8 111.4L94 112.6L94.8 112.5V112.8L94.9 113L95 113.7L95.1 114.1V114.5L95.3 115.7V115.9L94.6 116V115.9L94.1 116H93.9L93.4 116.1L92.9 116.2L92.3 116.3H92.2H92L92.5 117L92.6 117.1L92.2 117.2H91.8L91.4 117.1L90.9 117.2L90.3 117.3L90.4 117.7H90.1L90 117.8L88 118.3V118.2H87.1L86.1 118.3L86 118.4V118.5L85.9 118.6L85.8 118.8L85.7 118.9L85.6 119.1L85.4 119.2L85.3 119.3L85.2 119.4L85.1 119.5L84.9 119.6H84.8L84.6 119.7H84.5H84.4L84.2 119.8L84 119.9H83.8L83.6 120L83.3 120.1H83.2L83.1 120.2H83H82.8H82.7L82.6 120.3H82.4V120.4H82.3L82.1 120.5L81.8 120.6L81.6 120.8L81.4 120.9H81.3L81.2 121H81.1L80.8 121.3H80.7V121.4L80.6 121.3V121.2H80.5V121.1V121H80.4V120.9H80.3V120.8H80.2V120.7H80.1V120.6H80V120.5H79.9H79.8V120.4H79.7V120.3H79.6H79.5V120.2H79.4H79.3H79.2H79.1V120.1H79H78.9H78.8H78.7H78.6H78.5H78.4V120H78.3H78.2V120.1H78.1H78H77.9H77.8H77.7L77.6 120H77.5H77.4H77.3V119.9H77.2H77.1V119.8H77H76.9V119.7H76.8L76.7 119.6H76.6V119.5H76.5H76.4V119.4H76.3L76.2 119.3H76.1V119.2H76L75.9 119.1H75.8H75.7L75.6 119H75.5H75.4L75.3 118.9H75.2H75.1H75V118.8H74.9H74.8H74.7V118.7H74.6H74.5H74.4L74.3 118.6H74.2H74.1H74V118.5H73.9H73.8H73.7V118.4H73.6H73.5H73.4H73.3H73.2H73.1H73H72.9H72.8H72.7H72.6H72.5H72.4H72.3H72.2H72.1V118.5H72H71.9H71.8H71.7H71.6L71.4 118.6H71.3H71.2L71.1 118.7H71H70.9V118.8H70.8H70.7V118.9H70.6L70.5 119H70.4V119.1H70.3V119.2V119.3V119.4H70.2V119.5H70.1V119.6H70L69.9 119.7H69.8V119.8H69.7H69.6L69.5 119.9V120H69.4V120.1H69.3V120.2H69.2V120.3H69.1V120.4L69 120.5V120.6V120.7M69 120.7H69.1M69 120.7H68.9V120.8H68.8V120.9M69.1 120.7L69.2 121L69.1 120.8V120.7ZM68.8 120.9H68.9M68.8 120.9V121H68.7V121.1V121.2V121.3V121.4H68.6V121.5V121.6V121.7V121.8H68.5H68.4H68.3H68.2L68.3 121.9M68.3 121.9H68.4M68.3 121.9V122H68.2V121.9H68.1V121.8H68V121.7L67.9 121.6L67.8 121.5H67.7V121.4H67.6V121.3H67.5H67.4L67.3 121.2V121.1H67.2V121H67.1V120.9H67H66.9L66.8 120.8V120.7H66.7L66.6 120.6H66.5L66.4 120.5H66.3H66.2V120.4H66.1H66H65.9V120.3H65.8H65.7H65.6L65.5 120.2H65.4H65.3H65.2L65.1 120.1H65H64.9H64.8H64.7H64.6H64.5H64.4H64.3H64.2H64.1L64 120H63.9H63.8H63.7H63.6H63.5H63.4H63.3H63.2V120.1H63.1H63H62.9H62.8H62.7H62.6H62.5V120.2H62.4H62.3H62.2H62.1H62H61.9V120.1M61.9 120.1H61.8M61.9 120.1V120H61.8H61.7H61.6V120.1L61.5 120.2V120.3L61.4 120.4V120.5H61.3V120.6H61.2V120.7H61.1L61 120.6H60.9V120.5H60.8H60.7L60.6 120.4H60.5H60.4H60.3V120.3H60.2H60.1H60H59.9H59.8H59.7H59.6H59.5H59.4H59.3H59.2H59.1V120.4H59H58.9L58.8 120.5H58.7V120.6H58.6V120.7H58.5V120.8H58.4V120.9V121V121.1V121.2V121.3V121.4H58.3V121.5V121.6M58.3 121.6H58.4M58.3 121.6V121.7V121.8V121.9V122H58.2H58.1V121.9H58H57.9V121.8H57.8H57.7H57.6H57.5V121.7H57.4V121.6H57.3H57.2H57.1H57H56.9H56.8H56.7H56.6V121.5H56.5H56.4H56.3H56.2V121.4H56.1H56H55.9V121.3H55.8H55.6L55.4 121.2H55.3H55.2H55.1L55 121.1H54.9H54.8H54.7H54.6H54.5H54.4H54.3H54.2V121.2H54.1H54H53.9H53.8L53.7 121.3H53.6H53.5H53.3H53.2H53.1H53H52.8H52.6H52.5V121.2H52.4H52.3L52.2 121.1L52.1 121L51.9 120.9L51.8 120.8H51.7L51.6 120.7L51.4 120.6H51.3L51.2 120.5H51.1L51 120.4L50.8 120.3H50.7H50.5L50.4 120.2H50.3L49.8 120.1L49.4 120V119.9V119.8V119.7V119.6H49.5V119.5H49.6V119.4H49.7L49.8 119.3L49.9 119.2H50V119.1H50.1V119V118.9H50V118.8V118.7H50.1V118.6V118.5H50H49.9H49.8H49.6H49.5H49.4V118.4V118.3V118.2L49.6 118.1L49.8 118H49.9L50.2 117.9H50.3V117.8L50.4 117.7H50.5V117.6H50.4L50 117.4H49.9L49.8 117.2V117.1V117L49.7 116.8V116.5L49.6 116.3V116.1L49.5 115.8V115.5V115.2V114.9L49.6 114.4L49.5 114L48.9 113.6L48.7 113.5L48.6 113.4L48.5 113.2L48.4 112.9V112.7L48.3 112.4V112.1L48.2 111.7V111.5L48.3 111.4V111.3L48.5 111.1L48.8 110.8L49.1 110.5V110.4L49.2 110.2L49.4 109.9L49.5 109.8V109.7V109.6L49.4 109.5L49.3 109.4L49.1 109.2L49 108.9L48.8 108.6L48.5 108.2L48.3 108V107.9L48.2 107.7V107.5V107.4V107.2V107.1V106.8V106.7L48.3 106.4L48.4 105.9L48.5 105.4V105.2V105.1L48.4 104.8V104.7L48.3 104.6L48.2 104.4L48 104.2H47.9L47.7 104.1L47.5 104H47.2H46.9H46.7H46.5L46.3 104.1H46.2V104V103.9L46.1 103.8V103.6V103.5L46 103.4L45.9 103.3V103.1V102.9V102.7V102.6V102.5L45.8 102.3V102.1L45.7 101.9H45.6V101.8L45.5 101.7L45.4 101.5L45.3 101.3L45.2 101.2L45 101.1L44.9 101L44.6 100.8L44.2 100.5L44 100.3L43.9 100.2H43.8L43.7 100.1H43.5H43.3L43.1 100H43L42.8 100.1H42.7L42.6 100V99.9V99.7V99.6V99.2V99V98.7V98.6V98.5V98.4L42.5 98.3V98.1L42.4 97.9L42.3 97.7L42.2 97.6L42.1 97.5L41.9 97.4L41.8 97.3L41.7 97.2L41.6 97L41.4 96.7L41.3 96.5L41.2 96.4V96.3V96.2V96L41.3 95.8V95.6V95.5L41.4 95.4V95.3V95.2H41.5H41.6H41.7H41.8H41.9L42.2 95L42.5 94.9L43 94.8L44.7 94.6L45.1 94.5L44.9 93.9L45.9 93.7L46 93.6L46.8 93.5L47.4 93.4L47.6 94.2L48.1 94.1L48.3 94L50.3 93.7H50.5L50.6 93.6L51.1 93.5H51.4L51.8 93.4L52.6 93.2H52.7H52.8V93.1L52.7 93L52.6 92.8L52.5 92.6V92.4L52.4 92L52.2 91.2L52.1 91.1V91L52.4 90.9V90.8L53.9 90.5L54 91L54.3 90.9H54.5L55.2 90.7L55.1 90.3L55.6 90.2L55.5 89.7L55.4 89.3V89.2L55.9 89.1V89V88.8L55.8 88.4L55.7 88.3V88.2L55.6 87.8V87.7L55.5 87.4V87L55.4 86.7L55.3 86.5L55.8 86.4L55.6 86.2L55.4 85.8L55.3 85.7V85.5L55.2 85.2V85.1V85L55 84.2L54.9 83.7L54.7 82.6L54.3 80.8V80.7L54.2 80.3L54.1 79.9L53.6 80L53.1 80.1L53 79.4L51.7 79.7L50.7 79.9L50.6 80.8L50.5 81.1H50.4H50.2L49.9 81H49.4H49.2H48.9L48.8 80.9H48.7L48.5 81L47.9 81.1L47.1 81.3L47 80.9L46.3 81.1H46V80.9L45.9 80.3H46.4L46.2 79.7L46 78.7L46.5 78.6L46.7 79.5L47.4 79.4L48.4 79.1L48.3 78.7L48.2 78L48 77.2L47.9 76.4L49.1 76.2L49.5 76.1V75.9L49.3 74.9V74.8V74.7H49.2V74.6L49.1 74.2L49 73.6L49.4 73.5L49.1 72.8L49 72.9L48.5 73L47.7 73.1L46.6 73.4H46.5L46.1 73.5L45.6 73.6L45 73.7L44.5 73.8L44.6 74.2L44 74.3L43.7 74.4L42.9 74.5V74.6H42.8L41.5 74.8L41.4 74.5L41.2 73.8L41 73.1L40.9 72.5L40.5 72.6L40.2 72.7L40.1 72.6H40L40.3 71.8L40.5 71.1H40.1L39.2 71.3L38.2 71.5L37.1 71.8L36.4 71.9H36.3L35.9 72H35.8V71.9V71.8L35.7 71.4L35.6 71.1V70.7L35.5 70.2L35.1 68.8H35L34.5 68.9L34.1 69L34 68.7L33.9 68.3L33.8 67.8L34.2 67.7L35 67.5L34.9 67.2L35.6 67.1L35.9 67L35.5 65.9H35.4H34.8L34.7 65.4L34.6 65.3V65.1L34.5 64.8V64.6V64.4L34.4 64.2V64.1V64V63.8L34.3 63.3L34.2 62.8L35.1 62.6V62.3L35 61.8L34.9 61.5V61.4V61.2L34.8 60.9L34.3 61.1H34.1L33 61.3V61.1V60.9L32.9 60.3V59.9V59.6H33.3H33.4H33.7H33.8L33.6 58.7L33.2 56.7H33.4L33.3 56.1L33.2 55.6L33.1 55.2L33.9 55L34.6 54.9V54.7L34.5 54.5L34.4 54L34.3 53.1V53L34.2 52.9H34.4V52.8L34.3 52.1L34 52.2L33.2 52.4H33.1L32.6 52.5L32.4 52.6L32.2 52.7L32.1 52.5L31.9 51.9V51.7L31.6 51.8H31.2H31.1L30.7 51.9L30.6 51.4H30.4L29.9 51.7L29.7 51.8L29.6 51.9L29.1 52L29 51.8V51.7V51.5V51.4H28.9H28.8L28.7 51.5H28.6V51.4H28.5V51.3H28.4H28.3V51.2L28.2 51V50.9H28.1V51H28V50.9L27.9 50.3L27.7 49.8V49.5H27.9L28.1 49.4H28.3L28.6 49.3H28.7H28.8L29 49.2H29.2L29.4 49.1L29.3 48.8L29.2 48.5L29.1 48.1H29.4L29.3 47.9V47.7V47.5L29.1 46.9V46.7L29.2 46.6V46.5V46.2L29.5 46.1L29.4 45.7V45.6V45.5L29.5 45.4V45.3H29.9L30.1 45.2H30V44.9V44.8L29.9 44.6L29.8 44.3H29.6L29.3 44.4L28.5 44.5L28.3 44.6H28.2L27.5 44.8L26.7 44.9H26.3L25.9 45V45.1L26.1 45.9L26.3 46.7L26.4 47.3H26.3L26.2 47.4L26 47.5L25.7 47.6L25.5 47.7V47.8H25L23.8 47.9H23.4V47.6L23.3 47.5V47V46.7L23.7 46.6V46.4V46.2V45.9L23.6 45.4H23.4L22.8 45.6L22.2 45.8L21.9 45.9L21.3 46.1L21.1 45.8V45.6L21 45.3L20.3 45.5H20.2L19.7 45.7L19.2 45.9H19.1H18.7L18.3 46V45.6L18 45.7L16.8 45.9L15.3 46.3L13.8 46.6L13.7 46L13.6 45.3L13.5 45.1V44.9L12.6 45.1L12.1 45.2L11.5 45.3L11.3 45.4L11.2 44.9L11.1 44.3L11 43.8L10.9 43.2L10.8 42.7L11 42.6V42.5L10.9 42.3L10.8 41.8L10.7 41.2L10.4 40V39.9L10.3 39.4L10.2 38.9L10.1 38.4H10V38.2L9.89999 37.7L9.79999 37.1V37L9.70001 36.7V36.5H9.79999L10 36.4H10.1L10.2 36.1H10.5L10.6 36H10.9L11.2 35.9H11.5L11.4 35.6L11.3 35L11.1 34.2V33.9H11.3H11.6H11.7H11.8L11.9 33.8H12.1H12.3V33.7L12.2 33.6L12.1 33V32.9L11.7 33L11.6 32.8V32.3L11.4 31.4V31.3L11.2 31.4L10.7 31.5L9.79999 31.7L9.29999 31.8H9.20001L8.20001 32L7.60001 32.1L7.39999 32.2H7.10001H6.89999V32.3L6.79999 32.2L6.60001 31.6L6.5 31.2L6.39999 31V30.9V30.7L6.29999 30.6V30.4V30.3V30.2L6.20001 30V29.8L6.10001 29.5V29L6 28.9V28.8V28.7V28.6L5.89999 28.4V28.2L5.79999 28V27.9V27.6L5.70001 27.1L5.60001 26.5V26.4L5.5 26V25.9L5.29999 24.6L5.20001 24.4V24.3V24.2V24L5.10001 23.8V23.7V23.6H5.20001V23.5H5.29999V23.4H5.39999V23.3H5.5V23.2H5.60001L5.39999 23L5.29999 22.8L4.89999 22.3L4.29999 21.6L4 21.4L3.70001 21.2L3.10001 20.7L2.79999 20.6L2.70001 20.5L2.5 20.4V20.1V19.8V19.7V19.6H2.60001L2.5 19.5V19.4V19.3H2.60001L2.5 19.1L2.29999 18.6L2.10001 18.2H2V18.1L1.89999 17.9L1.70001 17.5V17.4L1.60001 17.2L1.5 17.1V17L1.60001 16.9L2.20001 16.7L2.5 16.6L2.89999 16.4L3.10001 16.3V16.2L3 16.1L2.89999 15.8H3V15.7L2.79999 15.3L2.5 14.6H2.39999L2.29999 14.2L1.89999 13.4H1.79999V13.5L1.70001 13.6L1.5 13.7L0.899994 13.2L0.5 12.8L0.600006 12.7L0.700012 12.6H0.799988L0.899994 12.5L1 12.4V12.5V12.6H1.10001H1.20001V12.7H1.29999L1.5 12.6H1.70001H1.79999H1.89999V12.5V12.4L2 12.3H2.10001H2.20001L2.29999 12.1L2.39999 12V11.9L2.60001 11.5L2.70001 11.4V11.3V11.2H2.60001V11.1L3.10001 11.2H3.5L3.60001 11.3L3.89999 11.4L4.29999 11.5L4.39999 11V10.9L4.70001 10.6H4.79999H4.89999H5.10001H5.20001H5.29999H5.39999H5.5L5.79999 10.7H6L6.39999 10.8L6.5 10.6L6.39999 10.5H6.29999H6.20001V10.4H6.10001H6L5.89999 10.3V10.2V10V9.89999H6L6.10001 10H6.20001H6.29999V10.1H6.39999H6.5V10.2H6.60001V10.3H6.70001V10.4H6.60001V10.6L7.89999 10.3L8 10.2H8.10001V10.1V9.39999L7 9.20001L6 9.10001L5.79999 8.39999L5.70001 7.79999V7.60001V7.5L5.60001 7.39999V7.29999V7.20001H5.70001H5.79999H5.89999V7.29999H6H6.10001V7.20001H6.20001L6.29999 7.10001L6.39999 7L6.60001 6.79999L6.70001 6.70001V6.60001L6.60001 6.5V6.39999V6.29999V6.20001V6.10001V6V5.89999V5.79999H6.70001L6.79999 5.70001H6.89999H7H7.10001H7.20001L7.29999 5.60001H7.39999V5.5H7.5V5.39999L7.60001 5.29999L7.70001 5.20001H7.79999H7.89999H8H8.10001V5.10001H8.20001H8.29999V5H8.39999V4.89999V4.79999H8.5V4.70001H8.60001H8.70001H8.79999H8.89999L9.10001 4.79999L9.20001 4.70001H9.29999H9.39999H9.5V4.79999H9.60001V4.89999V5V5.10001V5.20001H9.70001V5.29999L9.79999 5.39999H9.89999L10 5.5H10.1H10.2H10.4H10.5H10.6H10.7V5.60001H10.8H10.9H11H11.1H11.2L11.3 5.5H11.4H11.5H11.6V5.39999H11.7V5.29999H11.8V5.20001L11.9 5.10001V5H12V4.89999H12.1H12.2L12.3 5H12.4V5.10001H12.5H12.6H12.7H12.8L12.9 5.20001H13L13.1 5.29999H13.2L13.3 5.39999H13.4H13.5V5.5H13.6V5.60001H13.7H13.8H13.9V5.5V5.39999L14 5.29999H14.1H14.2M14.2 5.29999V5.39999M14.2 5.29999H14.3H14.4L14.5 5.20001H14.6H14.7L14.8 5.10001H14.9H15H15.1H15.2L15.3 5.20001V5.29999V5.39999V5.5V5.60001L15.4 5.70001V5.79999L15.5 5.89999V6L15.6 5.79999L16 5.29999L16.4 4.70001L16.6 4.39999L16.7 4.29999L16.8 4.5L17.4 5L17.8 5.39999L17.9 5.5L18 5.60001V5.70001L18.1 6.10001H18.7L19.4 6.20001V6.10001H19.6V6H19.7H19.8H19.9H20H20.2H20.5H20.8L20.9 6.10001H21H21.2H21.3V6H21.4V5.79999V5.70001V5.60001H21.3V5.5V5.39999L21.4 5.29999H21.5H21.6H21.9H22.2L22.4 5.20001H22.5L22.7 5.10001L23.1 5L23.2 4.89999L23.1 4.79999L23 4.70001L22.9 4.5L22.8 4.39999V4.29999V4.10001L22.7 3.89999H22.8H23L23.1 3.79999H23.4H23.6H23.7L24 3.70001H24.3H24.4H24.6L24.8 3.60001H24.9L25.3 3.39999L25.6 3.29999L26 3.20001L26.2 3.10001L26.3 3.20001V3.29999V3.39999V3.60001L26.4 3.79999L27 3.70001H27.3H27.4L27.9 3.60001H28.1H28.5L28.8 3.5H29L29.7 3.39999L29.8 3.70001L29.9 4.10001V4.20001V4.29999V4.39999L30 4.5V4.70001L30.1 5.20001H30.4L31 5.10001H31.2V5V4.89999H31.1V4.79999V4.70001V4.60001L31.2 4.5V4.39999L31.3 4.29999H31.4V4.20001V4.10001H31.5V4L31.4 3.89999V3.79999V3.70001V3.60001H31.5V3.5H31.6V3.60001H31.7V3.70001L31.8 4V4.20001L32.1 4.10001H32.2H32.4L32.6 4H32.9L33 4.39999V4.70001L33.1 5.29999L33.2 5.70001H33.4H33.7L34 5.60001V5.70001H34.1H34.2V5.60001H34.3V5.5H34.4H34.5L34.6 5.39999H34.7H34.8H34.9H35H35.1H35.2L35.3 5.5V5.60001L35.4 5.70001V5.79999V5.89999H35.5V5.79999H35.6V5.70001H35.7V5.60001V5.5M35.7 5.5H35.6M35.7 5.5V5.39999M35.7 5.5H35.8H35.9H36H36.1L36.2 5.39999H36.3H36.4V5.29999V5.20001V5.10001H36.5H36.6H36.7V5.20001H36.8V5.29999H36.9M36.9 5.29999V5.39999M36.9 5.29999H37V5.20001V5.10001V5V4.89999V4.79999V4.70001V4.60001V4.5V4.39999V4.29999V4.20001V4.10001V4H37.1H37.2H37.3H37.4H37.5H37.6H37.7H37.8H37.9L38 4.10001H38.1V4.20001H38.2H38.3H38.4L38.5 4.10001H38.6V4H38.7V3.89999H38.8H38.9H39H39.1H39.2H39.3V4H39.4H39.5H39.6H39.7H39.8H39.9H40V3.70001L39.9 3.5V3.29999V3.20001H40L39.9 2.89999L39.8 2.29999L39.7 1.79999L39.6 1.29999V1.10001L40 1H40.3L40.9 0.799988H41L41.1 0.700012H41.2H41.3H41.4L41.8 0.600006H42L42.2 0.5H42.4H42.6L43.2 0.299988L43.3 0.799988L43.4 1.29999L43.6 1.20001L44.5 1.10001L45.1 1H45.2L46.1 0.799988L46.9 0.700012L47.3 0.600006H47.5V0.799988L47.6 1.20001L48.1 1.10001H48.5L48.7 1V1.10001H48.8V1.20001V1.29999H48.9L49 1.39999H49.1L49 1.5V1.60001V1.70001H49.1H49.2V1.79999V1.89999V2H49.3V2.10001H49.4V2.20001H49.5V2.29999H49.6V2.39999H49.7V2.5H49.8V2.60001V2.70001H49.9V2.79999V2.89999V3V3.10001H50L50.1 3.20001H50.2V3.29999V3.39999H50.1V3.5V3.60001L50 3.70001H49.9H49.8H49.7V3.79999H49.6V3.89999V4V4.10001V4.20001V4.29999H49.7V4.39999H49.8V4.5H49.9V4.60001H50L50.1 4.70001H50.2V4.79999L50.3 4.89999H50.4L50.5 5.10001L50.7 5.20001L51.6 5L51.8 5.60001V5.70001L51.9 6.20001L52.1 7.20001L52.2 7.79999L52.3 8.39999L52.4 9.10001L52.8 8.89999L53.4 8.70001L54.1 8.5L54.5 8.29999L55.3 8H55.4L55.8 7.89999L56.7 7.5L56.8 8.29999L56.9 9.20001L57 9.29999H57.1H57.2H57.3H57.4V9.20001H57.5H57.6V9.10001H57.7H57.8V9H57.9H58H58.1V8.89999H58.2H58.3H58.4H58.5H58.6H58.7H58.8H58.9H59H59.1V8.79999H59.2V8.70001H59.3V8.60001H59.4V8.5H59.5V8.39999H59.6V8.29999V8.20001H59.7V8.10001V8H59.8H59.9H60H60.1V8.10001L60.2 8.29999V8.39999L60.3 9L60.4 9.20001V9.29999L60.5 9.70001H60.7L60.9 9.60001H61.2L61.6 9.5H61.7L61.6 8.89999V8.79999L62.2 8.70001L63.2 8.5L64 8.29999H64.2L64.3 8.20001H64.7L65.1 8.10001V8.39999L65.3 9.39999L65.5 10.5V10.6L65.6 11L65.7 11.3L65.1 11.5L64.5 11.6V11.7L64.4 11.8V11.9V12H64.3V12.1V12.2V12.3L64.2 13.1H64.3L64.7 13H65.1L65.2 13.2L65.3 13.7L65.4 14.1L65.6 14H65.7H65.8H65.9V13.9L66 13.8L66.1 13.7L66.2 13.5L66.3 13.4V13.3H66.4V13.2H66.3V13.1V13V12.9V12.7H67.2H67.6H67.9L68.3 12.6V12.5L68.2 12L68 10.9L67.9 10.1L67.8 9.79999L68.2 9.70001L68.5 9.60001H68.6H68.7L68.9 9.79999L69 10.2L69.1 10.3L69.2 10.4M69.2 10.4V10.5M69.2 10.4V10.3V10.2V10.1H69.3H69.4H69.5H69.6V10H69.7L69.9 9.89999H70L69.9 9.39999V9.20001V9.10001V9V8.89999V8.79999V8.70001L70 8.60001L69.9 8.20001L70.4 8.10001H70.7L70.9 8H71H71.1L71.6 7.79999H71.9L72 7.70001H72.2V7.79999L72.5 7.70001L72.6 8.20001V8.29999L72.7 8.5H72.8V8.79999L72.9 9.20001L73.2 9.10001L73.8 9L74.2 8.89999L74.8 8.79999H75.1V8.89999H75V9H74.9L75 9.10001V9.20001M75 9.20001V9.29999M75 9.20001H75.1L75.2 9.10001V9.29999L75.4 10.3L75.5 10.8H75.6H75.7H75.9H76L76.2 10.7H76.3H76.4H76.5L76.6 10.6H76.9L77.7 10.5L78.2 10.4L79.2 10.2L79.3 10.7L79.4 11.3L79.5 12.1L79.6 12.5L79.7 13.1L79.8 13.7L79.9 14.1V14.2L80 14.5V14.6V14.7L79.3 14.8H79.2L79 14.9L77.9 15.1L77.3 15.2V15.5L77.4 15.8L77.5 16.1V16.2L77.6 16.9L77.7 17.4L77.8 18.4L77.9 18.9L78 19.4L78.1 19.7V19.9V20.2L78.2 20.6L78.3 21L78.4 21.4V22V22.1H78.5V22.2H78.6V22.1H78.7H78.8H78.9V22H79H79.1V22.1H79.2V22V21.9H79.3V21.8H79.4V21.7V21.6V21.5H79.5H79.6V21.4H79.5V21.3H79.6H79.7V21.2H79.8V21.1H79.7V21H79.8V20.9H79.9L80 21V21.3H80.1H80.2L80.3 21.2H80.6L80.8 21.1H80.9V20.9H81H81.1H81.2H81.3H81.4H81.5L81.6 20.8H81.7H81.8H81.9H82H82.1H82.2H82.3H82.4L82.7 20.7H82.9L83.1 20.6L83.2 21L83.3 22.2L83.5 23.1L83.7 24.2H83.8L83.9 24.1H84H84.2L84.5 24H84.6H84.7H84.8V24.2V24.3V24.4V24.6V24.7V24.8V24.9V25L84.9 25.1V25.2L85 25.3V25.4V25.5H85.1V25.6V25.7V25.8V25.9H85H84.9V26.1V26.2V26.4V26.7H85V26.8H85.2V26.9V27V27.1L85.3 27.2V27.3V27.4V27.5H85.4V27.6V27.7V27.8H85.5V27.9H85.4V28H85.3H85L83.8 28.1L83.7 28.2V28.3V28.5L83.8 29L83.9 29.2L83.6 29.3V29.5V29.6L83.7 30H83.9V30.1V30.2L84 30.3V30.4V30.5H84.1V30.6H84.2V30.7H84.3V30.8H84.4V30.9H84.5V31H84.4V31.1V31.2H84.3L84.2 31.3L83.6 31.4L83 31.5L82.5 31.6L82.3 31.7V32.2L82.4 32.5L82.5 32.8L82.6 33.2V33.4V33.5L82.7 34L82.8 34.2V34.3L83.5 34.2L84.1 34.1L84.6 34V33.9L85.5 33.7L86.4 33.5H86.8L87.6 33.3L88.2 33.2L89 33.1L89.1 33L88.9 32.2L89.5 32.1H89.7L89.9 32H90.4L90.9 31.9H91L91.2 31.8H91.3H91.4H91.5L91.6 31.7H91.7V31.8V31.9V32H91.9L92.3 31.9L92.6 31.8H93L93.2 31.7L93.7 31.6L93.8 32L93.9 32.2V32.4L94 32.6L94.3 32.5H94.7L94.8 32.4L95 33.2H95.3V33.3L95.4 33.7V34L95.5 34.2V34.3L96.1 34.2L96.5 34.1L96.6 34.7L96.7 35.1V35.5L96.8 36.1L96.9 36.2H97H97.4L97.5 36.1H97.8V36.2H97.7V36.3H97.8V36.4H97.9V36.5L98 36.6V36.7V36.8H98.1V36.7H98.2H98.3V36.6L98.4 36.5H98.3V36.4H98.4H98.5V36.3H98.6H98.7V36.2V36.1H98.8V36H98.7V35.9H98.8H98.9V36.1L99 36.4V36.5V36.6H99.1H99.3L99.8 36.5L100.3 36.4L100.9 36.3L101.5 36.1L102.1 36L102.6 35.9L102.5 35.1L102.4 34.5L102.3 33.9L102.2 33.6L102.8 33.4H103.1L103 32.9V32.5L102.9 32.1V31.8H103H103.3L103.6 31.7L104.4 31.5H104.8L105.5 31.3H105.7H105.8L106.1 31.2H106.2H106.3V31.3H106.4V31.4H106.5L106.4 31.5H106.5H106.6V31.6H106.7V31.5H106.8L106.9 31.6H107H107.1V31.5L107.2 31.9V31.8H107.3V31.9H107.4H107.5V32V32.1V32.2V32.3H107.6V32.4L107.7 32.6H107.8V32.7L107.9 32.8H108V32.9H108.1V33H108.2H108.3H108.4V33.1M108.4 33.1H108.5M108.4 33.1L108.5 33.2L108.6 33.3H108.7V33.4H108.8V33.5H108.9V33.6H109L109.1 33.7H109.2V33.8H109.3H109.4L109.5 33.7V33.6V33.5H109.6V33.4V33.3H109.7L109.9 33.4V33.3L110 33.2L110.1 33.1H110.2H110.3H110.4L110.5 33V33.1H110.6H110.7V33H110.8H110.9V32.9H111M111 32.9V33M111 32.9H111.1H111.2H111.3V33V33.1H111.2V33H111.1H111M111 33V33.1M111 33.1H110.9M68.8 124.2H68.9V124.3H68.8L68.7 124.1V123.9H68.8V124.1V124.2Z" stroke="white" stroke-width="0.5" stroke-linecap="round" stroke-linejoin="round"/>
</g>
</svg>
