<svg width="158" height="224" viewBox="0 0 158 224" fill="none" xmlns="http://www.w3.org/2000/svg">
<g id="UA51">
<path d="M101.5 219.5V219.6V219.7V219.8H101.4V219.7H101.3H101.2V219.6V219.5V219.4L101.3 219.5H101.4L101.5 219.4V219.5ZM72.8 203.6H72.9L73 203.7H73.1L73.2 203.8H73.3V203.9H73.4V204L73.3 204.1V204L73.2 203.9H73.1L73 203.8H72.9H72.8L72.6 203.7H72.5V203.6H72.4H72.3H72.2V203.5L72.3 203.4H72.4H72.5L72.6 203.5H72.7H72.8V203.6ZM32.9 11.9H33L33.2 12H33.3H33.4V12.1V12.3L33.6 12.4L33.8 12.5V12.6L34 12.7V12.6L34.1 12.5H34.2V12.4L34.3 12.3V12.2V12.1H34.2L34.1 12H34L34.1 11.8L34.2 11.7L35 11.4L35.1 11.3L36.2 11L36.6 10.9L36.9 10.8H37V10.7H36.9V10.6L36.8 10.5H36.9H37V10.4V10.3L37.1 9.89999V9.60001L37.2 9L37.3 8.29999L37.5 7.5L37.6 7.10001L37.7 6.79999L37.8 6.5V6.29999L37.9 6.10001H38.2L38.5 6.20001H38.6H38.7H38.9H39H39.1V6.29999L39.2 6.39999H39.5V6.5L39.6 6.60001L39.7 6.79999L39.9 6.89999L40 6.79999L40.1 6.70001V6.60001L40.2 6.5L40.3 6.39999L40.5 6.5L40.6 6.60001L40.7 6.70001H40.8V6.60001V6.5H40.9V6.60001V6.70001H41H41.1L41.2 6.89999L41.3 7V7.10001L41.4 7.29999L41.5 7.5V7.60001L41.6 7.70001V7.79999V7.89999V8L41.7 8.10001L41.9 8.20001V8.29999H42L42.2 8.39999H42.3V8.29999L42.5 8.10001V8H42.4L42.3 7.89999L42.6 7.60001V7.5H42.7V7.39999H42.8V7.29999V7.20001L42.9 7.10001L43 6.79999H43.1L43.2 6.60001L43.1 6.5V6.39999V6.29999L42.9 6.10001L42.8 6L42.9 5.79999V5.70001V5.60001V5.5V5.29999V5.20001V5.10001L43 4.79999V4.70001L43.2 4.39999L43.4 4.20001L43.6 4.29999L43.7 4L43.6 3.89999H43.7L43.8 3.79999L43.6 3.60001V3.29999L43.8 3.39999L43.9 3.20001H44L44.2 3.29999H44.3H44.4V3.20001H44.5V3.29999H44.6V3.39999L44.7 3.70001L44.9 3.60001L45.2 4H45.3V4.10001L45.4 4.20001V4.29999H45.5V4.39999H45.6L45.7 4.5L45.8 4.70001L46.2 5.10001L46.3 5.20001L46.4 5.29999L46.6 5.60001L46.7 5.70001L46.8 5.79999L47 6L47.2 6.20001L47.3 6.29999H47.4V6.39999L47.7 6.20001L48 6.10001L48.1 6.39999H48.2L48.3 6.5L48.4 6.60001L48.6 6.70001L48.5 6.79999L48.4 6.89999V7H48.3H48.2V7.10001L48 7.20001H47.9H47.8V7.29999H47.9H48.1H48.4H48.6H48.8H49.1L49.2 7.20001H49.3H49.5H49.8L50 7.29999V7.39999L50.2 7.5V7.60001L50.3 7.70001H50.4L50.8 7.79999H51.2V7.39999H51.3V7.29999V7.20001V7.10001H51.4H51.6L51.9 7.20001V7.10001H52L52.2 7.20001L52.3 7.29999V7.20001H52.5L52.7 7.29999L52.8 7.20001L53.1 6.79999H53.2V6.70001L53.3 6.60001L53.4 6.89999V7.20001V7.29999V7.39999V7.5V7.60001H53.5V7.70001V7.79999L53.6 7.89999H53.7V7.79999H53.8V8L53.6 8.10001L53.5 8.20001H53.4H53.3H53.2V8.10001H53L52.8 8.20001V8.29999L52.6 8.70001L52.5 8.79999L52.1 8.70001H52V8.60001L51.9 8.5H51.8V8.39999L51.6 8.5H51.5H51.4L51.1 8.60001L51 8.70001L50.9 8.89999V9L51 9.10001L51.2 9.20001H51.3V9.29999L51.5 9.60001L51.7 9.70001L51.6 10H51.8V9.89999L51.9 10H52L52.1 10.1H52.2H52.3H52.4L52.5 9.89999V9.79999V9.70001H52.6L52.8 9.79999V9.70001H53V9.60001L53.1 9.5V9.60001L53.4 9.70001L53.5 9.5H53.6V9.39999L53.7 9.5V9.60001L53.6 9.79999H54.1V10.1L54 10.6V10.7V10.8L54.2 10.9L54.5 11H54.6H54.7H54.8L54.9 10.9H55V10.8L55.1 10.9H55.2V11L55.3 11.1H55.4H55.7L55.9 11L56 11.1H56.1L56.2 11.2L56.3 11.3L56.4 11.4L56.5 11.3L57.2 10.9L57.5 10.8H57.6H57.7H57.8L57.9 10.9L58.1 10.8L58.4 10.6V10.7V10.8L58.3 10.9V11V11.1H58.4L58.7 11L58.9 10.9H59L59.2 10.8L59.4 11.1L60.2 10.7L59.9 10.1H60L60.3 9.5L60.4 9.39999H60.5V9.29999H60.6L61.2 9.10001H61.5L61.9 9L62.1 8.89999H62.3L62.7 8.79999L63 8.70001L63.8 8.60001H64.2L64.5 8.70001V8.89999L64.6 9V9.10001L64.7 9.29999V9.5V9.60001V9.70001V9.79999H64.8L65.1 9.89999H65.2H65.3L65.4 10H65.5L65.6 10.1V10.2H65.8H65.9H66.1L66.2 10.3H66.3H66.4H66.5L66.6 10.4H66.7H66.8H66.9H67H67.1L67.2 10.5H67.3H67.4H67.5V10.4L67.6 10.3H67.7H67.8L67.9 10.2H68L68.1 10.3H68.2H68.3L68.4 10.4H68.5H68.6L68.7 10.5L68.9 10.4V10.3H69.1H69.2V10.4H69.3H69.4L69.5 10.2V10.1L69.6 10L69.7 10.1H69.8L70 10.2H70.1H70.2H70.3L70.2 10.1V10V9.79999L70.1 9.60001L70 9.5L70.1 9.39999L70.2 9.29999V9.20001L70.3 9.10001H70.4H70.5H70.6V9H70.7L70.8 8.89999V8.79999V8.70001V8.60001V8.5L70.9 8.29999L71 8V7.89999L72.2 8.29999L72.5 8.39999L72.6 8.5L72.8 8.60001H72.9V8.89999L72.8 9.10001V9.20001V9.39999V9.5H72.9H73L73.2 9.39999H73.3H73.4V9.5H73.5H73.7H73.8L73.9 9.60001L74 9.70001L74.1 9.79999L74.2 9.70001V9.60001V9.5L74.3 9.29999V9.10001H74.2L74 9L73.8 8.89999V8.79999L74.1 8.89999V8.70001L74.3 8.79999L74.4 8.70001L74.5 8.5V8.29999H74.6V8.20001L74.5 8.10001V7.89999V7.79999V7.70001V7.5V7.39999L74.6 7.20001V6.60001L74.7 6.20001V5.79999V5.70001V5.60001V5.5V5.29999L74.6 5.20001V5.10001L74.5 4.89999L74.4 4.70001L74.1 4.20001L74 4L73.8 3.60001L73.7 3.20001V3.10001H73.9H74H74.2H74.3L74.4 3.20001L74.5 3.29999L74.7 3.39999L75.1 3.70001L75.2 3.60001L75.3 3.5L75.5 3.29999L75.7 3.20001L75.9 3.10001H76H76.1V3H76.2L76.3 2.89999H76.4L76.5 2.79999L76.7 2.70001H76.8H76.9L77.1 2.60001H77.2H77.3H77.4H77.5H77.6H77.7H77.8H77.9H78H78.1H78.2H78.3L78.4 2.70001H78.6H78.8H78.9H79H79.1V2.79999L79.4 2.60001H79.5H79.6H79.7L79.9 2.39999H80V2.10001L80.1 2.20001H80.2H80.3L80.2 2.29999V2.39999H80.3L80.4 2.5L80.5 2.60001H80.6V2.70001H80.7L80.8 2.60001L80.9 2.5H81L81.1 2.39999H81.2L81.3 2.29999L81.5 2.20001H81.6H81.7H81.8H81.9L82.1 2.10001L82.3 2H82.5V1.89999H82.6H82.7L82.9 1.79999H83L83.2 1.89999H83.3L83.4 2H83.5L83.6 2.10001L83.7 2.20001L83.8 2.29999L84 2.39999L84.1 2.5V2.60001L84.2 2.70001V2.79999H84.3V2.89999V3L84.5 3.10001L84.6 3.20001H84.7V3.29999V3.39999L84.8 3.5V3.60001V3.70001L85 3.79999L85.1 3.89999H85.2H85.3L85.4 4H85.5H85.6V3.89999V3.79999L85.7 3.70001L85.8 3.39999L86 3.20001L86.1 3V2.89999L86.2 2.70001L86.4 2.39999L86.6 2L86.7 1.79999L86.9 1.5L87 1.20001L87.3 0.799988L87.4 0.600006L87.5 0.299988H87.6L88.1 0.5L88.6 0.799988L89.2 1.10001L89.6 1.29999V1.39999H89.7L89.8 1.5L90 1.10001L90.1 1L90.2 0.899994L90.5 0.600006L90.6 0.5V0.899994V1.10001V1.20001H90.7V1.29999H90.8V1.39999H90.9H91V1.5L91.1 1.60001H91.2L91.3 1.79999L91.4 1.89999L91.5 2V2.10001V2.20001V2.29999V2.39999V2.5L91.4 2.60001V2.70001L91.3 2.79999L91.2 2.89999L91.1 3V3.10001V3.20001V3.29999L91.2 3.5V3.60001V3.70001L91.1 3.79999V3.89999H91.2V4L91.3 4.10001H91.4H91.5H91.6L91.7 4L91.8 3.89999H91.9V3.79999H92H92.1V3.89999H92.2L92.3 4L92.4 4.10001V4.20001H92.5V4.29999H92.6L92.7 4.39999V4.5H92.8L92.7 4.60001V4.70001V4.79999V4.89999L92.8 5V5.10001L92.9 5.20001V5.29999H93L93.1 5.39999V5.5L93.2 5.60001V5.70001V5.79999V5.89999V6V6.10001H93.3V6.20001L93.4 6.39999L93.5 6.5H93.6V6.60001H93.7H93.8V6.5H93.9L94 6.39999H94.1H94.2V6.5V6.60001L94.3 6.70001V6.79999H94.4V6.89999L94.5 7H94.6V6.89999H94.7L94.8 6.79999H94.9H95L95.1 6.89999H95.2L95.3 7H95.4H95.5H95.6L95.7 7.10001H95.8V7.20001H95.9H96H96.1H96.2L96.3 7.29999H96.4H96.5V7.20001L96.6 7.10001L96.7 7H96.8H96.9H97H97.1L97.2 6.89999L97.3 6.79999H97.4H97.5H97.6H97.7H97.8H97.9H98H98.1V6.89999H98.2H98.3H98.4H98.5V7H98.6V7.10001H98.7H98.8L98.9 7H99L99.1 6.89999H99.2H99.3H99.4H99.5V6.79999H99.6L99.7 6.70001L99.8 6.60001H99.9H100L100.1 6.5H100.2H100.3V6.39999L100.4 6.29999L100.5 6.20001H100.6V6.29999H100.7V6.39999H100.8V6.5L100.9 6.60001H101H101.1V6.70001H101.2H101.3H101.4H101.5H101.6H101.7H101.8V6.79999H101.9H102L102.1 6.89999H102.2V7H102.3H102.4H102.5H102.6H102.7H102.8V7.10001H103L103.2 7.20001V7.29999H103.3H103.4V7.20001H103.5H103.6V7.10001H103.7H103.8H103.9V7H104L104.1 6.89999L104.2 6.79999H104.3H104.4H104.5H104.6L104.7 6.89999L104.9 7H105L105.1 7.10001L105.2 7.20001H105.3V7.29999H105.4H105.5H105.6H105.7H105.8L105.9 7.20001H106H106.1H106.2V7.10001H106.3H106.4H106.5V7.20001H106.6V7.29999V7.39999L106.7 7.5V7.60001V7.79999L106.8 8.39999L107 9.10001L108 9.20001L109.1 9.39999V10.1V10.2H109L108.9 10.3L107.6 10.6V10.4H107.7V10.3H107.6V10.2H107.5V10.1H107.4H107.3V10H107.2H107.1L107 9.89999H106.9V10V10.2V10.3L107 10.4H107.1H107.2V10.5H107.3H107.4L107.5 10.6L107.4 10.8L107 10.7H106.8L106.5 10.6H106.4H106.3H106.2H106.1H105.9H105.8H105.7L105.4 10.9V11L105.3 11.5L104.9 11.4L104.6 11.3L104.5 11.2H104.1L103.6 11.1V11.2H103.7V11.3V11.4L103.6 11.5L103.4 11.9V12L103.3 12.1L103.2 12.3H103.1H103L102.9 12.4V12.5V12.6H102.8H102.7H102.5L102.3 12.7H102.2V12.6H102.1H102V12.5V12.4L101.9 12.5L101.8 12.6H101.7L101.6 12.7L101.5 12.8L101.9 13.2L102.5 13.7L102.7 13.6L102.8 13.5V13.4H102.9L103.3 14.2L103.4 14.6H103.5L103.8 15.3L104 15.7V15.8H103.9L104 16.1L104.1 16.2V16.3L103.9 16.4L103.5 16.6L103.2 16.7L102.6 16.9L102.5 17V17.1L102.6 17.2L102.7 17.4V17.5L102.9 17.9L103 18.1V18.2H103.1L103.3 18.6L103.5 19.1L103.6 19.3H103.5V19.4V19.5L103.6 19.6H103.5V19.7V19.8V20.1V20.4L103.7 20.5L103.8 20.6L104.1 20.7L104.7 21.2L105 21.4L105.3 21.6L105.9 22.3L106.3 22.8L106.4 23L106.6 23.2H106.5V23.3H106.4V23.4H106.3V23.5H106.2V23.6H106.1V23.7V23.8L106.2 24V24.2V24.3V24.4L106.3 24.6L106.5 25.9V26L106.6 26.4V26.5L106.7 27.1L106.8 27.6V27.9V28L106.9 28.2V28.4L107 28.6V28.7V28.8V28.9L107.1 29V29.5L107.2 29.8V30L107.3 30.2V30.3V30.4V30.6L107.4 30.7V30.9V31L107.5 31.2L107.6 31.6L107.8 32.2L107.9 32.3V32.2H108.1H108.4L108.6 32.1L109.2 32L110.2 31.8H110.3L110.8 31.7L111.7 31.5L112.2 31.4L112.4 31.3V31.4L112.6 32.3V32.8L112.7 33L113.1 32.9V33L113.2 33.6L113.3 33.7V33.8H113.1H112.9L112.8 33.9H112.7H112.6H112.3H112.1V34.2L112.3 35L112.4 35.6L112.5 35.9H112.2L111.9 36H111.6L111.5 36.1H111.2L111.1 36.4H111L110.8 36.5H110.7V36.7L110.8 37V37.1L110.9 37.7L111 38.2V38.4H111.1L111.2 38.9L111.3 39.4L111.4 39.9V40L111.7 41.2L111.8 41.8L111.9 42.3L112 42.5V42.6L111.8 42.7L111.9 43.2L112 43.8L112.1 44.3L112.2 44.9L112.3 45.4L112.5 45.3L113.1 45.2L113.6 45.1L114.5 44.9V45.1L114.6 45.3L114.7 46L114.8 46.6L116.3 46.3L117.8 45.9L119 45.7L119.3 45.6V46L119.7 45.9H120.1H120.2L120.7 45.7L121.2 45.5H121.3L122 45.3L122.1 45.6V45.8L122.3 46.1L122.9 45.9L123.2 45.8L123.8 45.6L124.4 45.4H124.6L124.7 45.9V46.2V46.4V46.6L124.3 46.7V47V47.5L124.4 47.6V47.9H124.8L126 47.8H126.5V47.7L126.7 47.6L127 47.5L127.2 47.4L127.3 47.3H127.4L127.3 46.7L127.1 45.9L126.9 45.1V45L127.3 44.9H127.7L128.5 44.8L129.2 44.6H129.3L129.5 44.5L130.3 44.4L130.6 44.3H130.8L130.9 44.6L131 44.8V44.9V45.2H131.1L130.9 45.3H130.5V45.4L130.4 45.5V45.6V45.7L130.5 46.1L130.2 46.2V46.5V46.6L130.1 46.7V46.9L130.3 47.5V47.7V47.9L130.4 48.1H130.1L130.2 48.5L130.3 48.8L130.4 49.1L130.2 49.2H130L129.8 49.3H129.7H129.6L129.3 49.4H129.1L128.9 49.5H128.7V49.8L128.9 50.3L129 50.9V51H129.1V50.9H129.2V51L129.3 51.2V51.3H129.4H129.5V51.4H129.6V51.5H129.7L129.8 51.4H129.9H130V51.5V51.7V51.8L130.1 52L130.6 51.9L130.7 51.8L130.9 51.7L131.4 51.4H131.6L131.7 51.9L132.1 51.8H132.2H132.6L132.9 51.7V51.9L133.1 52.5L133.2 52.7L133.4 52.6L133.6 52.5L134.1 52.4H134.2L135 52.2L135.3 52.1L135.4 52.8V52.9H135.2L135.3 53V53.1L135.4 54L135.5 54.5L135.6 54.7V54.9L134.9 55L134.1 55.2L134.2 55.6L134.3 56.1L134.4 56.7H134.2L134.6 58.7L134.8 59.6H134.7H134.4H134.3H133.9V59.9V60.3L134 60.9V61.1V61.3L135.1 61.1H135.3L135.8 60.9L135.9 61.2V61.4V61.5L136 61.8L136.1 62.3V62.6L135.2 62.8L135.3 63.3L135.4 63.8V64V64.1V64.2L135.5 64.4V64.6V64.8L135.6 65.1V65.3L135.7 65.4L135.8 65.9H136.4H136.5L136.9 67L136.6 67.1L135.9 67.2L136 67.5L135.2 67.7L134.8 67.8L134.9 68.3L135 68.7L135.1 69L135.5 68.9L136 68.8H136.1L136.5 70.2L136.6 70.7V71.1L136.7 71.4L136.8 71.8V71.9V72H136.9L137.3 71.9H137.4L138.1 71.8L139.2 71.5L140.2 71.3L141.1 71.1H141.5L141.3 71.8L141 72.6H141.1L141.2 72.7L141.5 72.6L141.9 72.5L142 73.1L142.2 73.8L142.4 74.5L142.5 74.8L143.8 74.6H143.9V74.5L144.7 74.4L145 74.3L145.6 74.2L145.5 73.8L146 73.7L146.6 73.6L147.1 73.5L147.5 73.4H147.6L148.7 73.1L149.5 73L150 72.9L150.1 72.8L150.4 73.5L150 73.6L150.1 74.2L150.2 74.6V74.7H150.3V74.8V74.9L150.5 75.9V76.1L150.1 76.2L148.9 76.4L149 77.2L149.2 78L149.3 78.7L149.4 79.1L148.4 79.4L147.7 79.5L147.5 78.6L147 78.7L147.2 79.7L147.4 80.3H146.9L147 80.9V81.1H147.3L148 80.9L148.1 81.3L148.9 81.1L149.5 81L149.7 80.9H149.8L149.9 81H150.2H150.4H150.9L151.2 81.1H151.4H151.5L151.6 80.8L151.7 79.9L152.7 79.7L154 79.4L154.1 80.1L154.6 80L155.1 79.9L155.2 80.3L155.3 80.7V80.8L155.7 82.6L155.9 83.7L156 84.2L156.2 85V85.1V85.2L156.3 85.5V85.7L156.4 85.8L156.6 86.2L156.8 86.4L156.3 86.5L156.4 86.7L156.5 87V87.4L156.6 87.7V87.8L156.7 88.2V88.3L156.8 88.4L156.9 88.8V89V89.1L156.4 89.2V89.3L156.5 89.7L156.6 90.2L156.1 90.3L156.2 90.7L155.5 90.9H155.3L155 91L154.9 90.5L153.4 90.8V90.9L153.1 91V91.1L153.2 91.2L153.4 92L153.5 92.4V92.6L153.6 92.8L153.7 93L153.8 93.1V93.2H153.7H153.6L152.8 93.4L152.4 93.5H152.1L151.6 93.6L151.5 93.7H151.3L149.3 94L149.1 94.1L148.6 94.2L148.4 93.4L147.8 93.5L147 93.6L146.9 93.7L145.9 93.9L146.1 94.5L145.7 94.6L144 94.8L143.5 94.9L143.2 95L142.9 95.2H142.8H142.7H142.6H142.5H142.4V95.3V95.4L142.3 95.5V95.6V95.8L142.2 96V96.2V96.3V96.4L142.3 96.5L142.4 96.7L142.6 97L142.7 97.2L142.8 97.3L142.9 97.4L143.1 97.5L143.2 97.6L143.3 97.7L143.4 97.9L143.5 98.1V98.3L143.6 98.4V98.5V98.6V98.7V99V99.2V99.6V99.7V99.9V100L143.7 100.1H143.8L144 100H144.1L144.3 100.1H144.5H144.7L144.8 100.2H144.9L145 100.3L145.2 100.5L145.6 100.8L145.9 101L146 101.1L146.2 101.2L146.3 101.3L146.4 101.5L146.5 101.7L146.6 101.8V101.9H146.7L146.8 102.1V102.3L146.9 102.5V102.6V102.7V102.9V103.1V103.3L147 103.4L147.1 103.5V103.6V103.8L147.2 103.9V104V104.1H147.3L147.5 104H147.7H147.9H148.2H148.5L148.7 104.1L148.9 104.2H149L149.2 104.4L149.3 104.6L149.4 104.7V104.8L149.5 105.1V105.2V105.4L149.4 105.9L149.3 106.4L149.2 106.7V106.8V107.1V107.2V107.4V107.5V107.7L149.3 107.9V108L149.5 108.2L149.8 108.6L150 108.9L150.1 109.2L150.3 109.4L150.4 109.5L150.5 109.6V109.7V109.8L150.4 109.9L150.2 110.2L150.1 110.4V110.5L149.8 110.8L149.5 111.1L149.3 111.3V111.4L149.2 111.5V111.7L149.3 112.1V112.4L149.4 112.7V112.9L149.5 113.2L149.6 113.4L149.7 113.5L149.9 113.6L150.5 114L150.6 114.4L150.5 114.9V115.2V115.5V115.8L150.6 116.1V116.3L150.7 116.5V116.8L150.8 117V117.1V117.2L150.9 117.4H151L151.4 117.6H151.5V117.7H151.4L151.3 117.8V117.9H151.2L150.9 118H150.8L150.6 118.1L150.4 118.2V118.3V118.4V118.5H150.5H150.6H150.8H150.9H151H151.1V118.6V118.7H151V118.8V118.9H151.1V119V119.1H151V119.2H150.9L150.8 119.3L150.7 119.4H150.6V119.5H150.5V119.6H150.4V119.7V119.8V119.9V120H150.3H150.2H150.1H150H149.9V120.1H149.8H149.7H149.6H149.4L149.3 120.2H149.2H149.1H149L148.9 120.3H148.8H148.7L148.6 120.4H148.5V120.5H148.4V120.6H148.3V120.7H148.2V120.8H148.1H148H147.9H147.8H147.7H147.6H147.5H147.4H147.3L147.2 120.9H147.1H147H146.9H146.8H146.7H146.6L146.5 121H146.4H146.3L146.2 121.1H146.1H146H145.8L145.7 121.2H145.6H145.5V121.3H145.4H145.3H145.2H145.1H145V121.4H144.9H144.8H144.7V121.5H144.6H144.5L144.4 121.6H144.3H144.2L144.1 121.7H144H143.9H143.8H143.7V121.8H143.5H143.4L143.3 121.9H143.2H143.1H143H142.9L142.8 122H142.7H142.6H142.5V122.1H142.3H142.2H142.1V122.2H142V122.3H141.9V122.4H141.8V122.5H141.7H141.6H141.5L141.4 122.6H141.3L141.2 122.7H141.1L141 122.8H140.9H140.8H140.7V122.9H140.6H140.5L140.4 123H140.3H140.2H140.1V123.1H140H139.9H139.8H139.7L139.6 123.2H139.5H139.4H139.3V123.3H139.2H139.1L139 123.4H138.9H138.7L138.5 123.5H138.2H138.1H138V123.6H137.9H137.8H137.7V123.7H137.6L137.5 123.8H137.4V123.9H137.3H137.2H137.1L137 124H136.9H136.8H136.7H136.6L136.5 124.1H136.4H136.3H136.2V124.2H136.1V124.3H136V124.4H135.9H135.8V124.5H135.7H135.6H135.5V124.6H135.4H135.3V124.7H135.2H135.1V124.8H135V124.9H134.9V125H134.8H134.7V125.1H134.6H134.5V125.2H134.4H134.3V125.3H134.2H134.1H134H133.9H133.8V125.4H133.7H133.6V125.5H133.5H133.4V125.6H133.3H133.2V125.7H133.1H133H132.9H132.8V125.8L132.7 125.7V125.8H132.6H132.5V125.7H132.4V125.6V125.5L132.3 125.4H132.2V125.3H132.1V125.2H132H131.9V125.1H131.8H131.7H131.6H131.5H131.4H131.3H131.2H131.1H131H130.9V125.2H130.8H130.7H130.6L130.5 125.3H130.4H130.2V125.4H130L129.9 125.5H129.8H129.7V125.6H129.6L129.5 125.7L129.4 125.8H129.3L129.2 125.9L129.1 126L129 126.1H128.9L128.8 126.3V126.4L128.7 126.5H128.6L128.5 126.7V126.8H128.4L128.5 126.9L128.4 127V126.9L128.3 127.1V127.2L128.2 127.3V127.4H128.3V127.5L128.2 127.7V127.9L128.1 128.1V128.2V128.3L128.3 128.4V128.5V128.6H128.2V128.7H128.1L128 128.8V128.9V129.1H128.1V129.2V129.3V129.4V129.5H128.2V129.6H128.3H128.4V129.7H128.5L128.6 129.8L128.8 129.9L128.9 130L129 130.1H129.1V130.2H129.2L129.3 130.1L129.4 130L129.6 130.8V130.9H129.7V131V131.1V131.2V131.3V131.4V131.5L129.6 131.6V131.7V131.8V131.9V132V132.1L129.7 132.3L129.8 132.4V132.5V132.6V132.7V132.8V132.9H129.9V133H130V133.1V133.2V133.3V133.4V133.5V133.6V133.7V133.8V133.9V134V134.1V134.2H129.9V134.3V134.4V134.5H129.8V134.6V134.7V134.8V134.9H129.9L129.8 135V135.1V135.2V135.3L129.7 135.4L129.6 135.5H129.5V135.6V135.7V135.8H129.4V135.9V136V136.1V136.2V136.3H129.3V136.4V136.5H129.2V136.6V136.7L129.1 136.8V136.9H129.2L129.1 137V137.1V137.2V137.3V137.4H129V137.5V137.6V137.7L128.9 137.8V137.9V138V138.1V138.2V138.3H129V138.4V138.5H128.9H128.8L128.6 138.7L128.5 138.6H128.4L128.3 138.7V138.8H128.2V138.9H128.1H128V139H127.9V139.1H127.8L127.7 139.2V139.3H127.6L127.5 139.4L127.4 139.5L127.3 139.6H127.2L127.1 139.7V139.8H127V139.9H126.9V140V140.1H126.8V140.2L126.7 140.3V140.4H126.6V140.5H126.5V140.6H126.4V140.7L126.3 140.8V140.9L126.2 141V141.1H126.1V141.2V141.3H126V141.4L125.9 141.5V141.6H125.8V141.7L125.7 141.8L125.6 141.9L125.5 142.1L125.4 142.2V142.3L125.3 142.4V142.5V142.6L125.2 142.8L125.4 142.9L125.2 143.3V143.4H125V143.5H124.9V143.6L124.8 143.8L124.7 144L124.6 144.1L124.5 144.3V144.4V144.5V144.6V144.7V144.8V144.9H124.4H124.3L124.2 145L124.1 145.1V145.2H124V145.3L123.9 145.4V145.5L123.8 145.6V145.7L123.7 145.8L123.5 146.3V146.4L123.4 146.5V146.6V146.7H123.3V146.8V146.9H123.2V147V147.1L123.1 147.2V147.3L123 147.4V147.5V147.6H122.9V147.7V147.8H122.8V147.9V148H122.7V148.1V148.2H122.6V148.3V148.4H122.5V148.5L122.4 148.6V148.7L122.3 148.8V148.9H122.2V149V149.1H122.1V149.2L122 149.3V149.4H121.9V149.5L121.8 149.6L121.7 149.7L121.6 149.8V149.9L121.5 150L121.4 150.2L121 150.7L120.9 150.9L120.8 151L120.7 151.1V151.2H120.6V151.3V151.4L120.5 151.5V151.6H120.4V151.7V151.8H120.3V151.9V152H120.2V152.1V152.2H120.1V152.3V152.4V152.5H120V152.6V152.7V152.8H119.9V152.9V153V153.1H119.8V153.2V153.3V153.4H119.7V153.5V153.6H119.6V153.7V153.8L119.5 153.9V154V154.1H119.4V154.2L119.3 154.3V154.4V154.5H119.2V154.6H119.1V154.7H119V154.8V154.9H118.9V155H118.8V155.1H118.7V155.2H118.6V155.3H118.5V155.4L118.4 155.5L118.3 155.6L118.2 155.7H118.1V155.8L118 155.9H117.9V156H117.8V156.1H117.7V156.2H117.6L117.5 156.3H117.4V156.4H117.3V156.5H117.2V156.6H117.1V156.7H117V156.8L116.9 156.9V157H116.8V157.1L116.7 157.2V157.3L116.6 157.4V157.5V157.6H116.5V157.7V157.8V157.9H116.4V158V158.1H116.3V158.2V158.3H116.2V158.4H116.1V158.5V158.6H116V158.7H115.9V158.8H115.8V158.9V159H115.7V159.1L115.6 159.2V159.3L115.5 159.5V159.6L115.4 159.7V159.8V159.9L115.3 160L115.2 160.1L115.1 160.2H115H114.9H114.8V160.3L114.7 160.4H114.8H114.9V160.5L114.8 160.6V160.7H114.7H114.6V160.8H114.5V160.9H114.4L114.3 161H114.2V161.1H114.1V161.2H114V161.3L113.9 161.4H113.8V161.5H113.7V161.6H113.6V161.7H113.5V161.8L113.4 161.9L113.3 162H113.2V162.1L113.1 162.2H113V162.3L112.9 162.4L112.8 162.5H112.7V162.6L112.6 162.7L112.4 162.9L112.3 163.1L112.1 163.3L112 163.5L111.8 163.7L111.7 163.8L111.6 163.9V164L111.4 164.1L111.3 164.2L111.2 164.4L110.8 164.9L110.2 165.5L109.7 166.1L109.4 166.4L109.3 166.5L109.2 166.6L109.1 166.7L109 166.8V166.9L108.9 167L108.8 167.2L108.6 167.4L108.5 167.5V167.6L108.3 167.7V167.8L108.1 168L108 168.2L107.9 168.3L107.7 168.5L107.6 168.7H107.5V168.8L107.4 169L107.3 169.1H107.2V169.2L107.1 169.4H107V169.5V169.6H106.9L106.8 169.7V169.8L106.5 170.2L106.3 170.5L106.2 170.6L106 170.9V171L105.9 171.1L105.8 171.3L105.7 171.4L105.6 171.5L105.5 171.6L105.4 171.8L105.3 171.9V172L105.2 172.1H105.1L105 172.3L104.8 172.5L104.7 172.7L104.6 172.9L104.4 173.1L104.2 173.3L104 173.6L103.7 174L103.4 174.3L103.2 174.6L103 174.8L102.8 175L102.5 175.3V175.4L102.3 175.6L102.1 175.8L101.9 176L101.7 176.1L101.3 176.4L101.1 176.6L100.9 176.8L100.5 177.1L100.2 177.3L99.9 177.6L99.4 177.9L99.1 178.2L98.8 178.3L98.5 178.5L98.4 178.6H98.3V178.7H98.2V178.8H98.1H98L97.9 178.9L97.8 179L97.7 179.1L97.6 179.2L97.4 179.3L97.2 179.4L97.1 179.5L96.8 179.7L96.6 179.9H96.5L96.4 180L96.2 180.2L96 180.4H95.9L95.7 180.6L95.6 180.7L95.4 180.9L95.1 181.1L94.8 181.4L94.6 181.5L94.3 181.9L94.1 182L93.8 182.3L93.5 182.6L93.2 182.9L92.8 183.3L92.4 183.6L92.3 183.8L91.8 184.2L91.5 184.4L91.2 184.8H91.1L90.6 185.1L90.3 185.5L90 185.7L89.8 185.9L89.4 186.2L89.3 186.3L89.1 186.5H89L88.9 186.6L88.8 186.7L88.5 186.9L87.8 187.5L87.5 187.7L87.1 187.9L86.7 188.3L86.6 188.4L86.2 188.7L86.1 188.8L85.2 189.6L84.6 190.2L84.1 190.7H84H83.9V190.8L83.7 190.9L83.2 191.3L82.9 191.6L82.6 191.8H82.5L82 192.1L81.4 192.6L80.9 193L80.4 193.3L80.1 193.6H80L79.8 193.8H79.7H79.6V193.9H79.5L79.2 194.1L79.1 194.3H79L78.9 194.4L78.8 194.5L78.7 194.6H78.6L78.5 194.7H78.4L78.3 194.9L78 195.1L77.8 195.3L77.4 195.6L77.3 195.7L77.2 195.8L77 196L76.8 196.2L76.6 196.3L76.5 196.4L76.3 196.6L76.2 196.7L76.1 196.8L75.9 196.9L75.8 197.1L75.6 197.3L75.3 197.6L75.2 197.8L75 198.1L74.8 198.3L74.7 198.4L74.6 198.5L74.5 198.7L74.4 198.8L74.3 198.9L74.2 199L74.1 199.1H74V199.2L73.8 199.4L73.7 199.5L73.6 199.6V199.7L73.5 199.8L73.4 199.9V200L73.3 200.1V200.2L73.2 200.3L73.1 200.5L73 200.6V200.7H72.9L72.8 200.8L72.7 200.9V201H72.6V201.1H72.5V201.2H72.4V201.3L72.3 201.4V201.5L72.2 201.6V201.7L72.1 201.8V201.9V202V202.1V202.2V202.3H72L72.1 202.4V202.5V202.6L72.2 202.8V202.9L72.3 203V203.1H72.4V203.2H72.3V203.1H72.2L72.1 203V202.9H72V203H72.1V203.1V203.2H72V203.3H71.9V203.2V203.1H71.8V203V202.9H71.7V203L71.6 203.1V203.2V203.3V203.4V203.5H71.7V203.6V203.7H71.8V203.8H71.7V203.7H71.6V203.6L71.5 203.5H71.4V203.4H71.5V203.3H71.4V203.2H71.5V203.1H71.4L71.5 203H71.4V202.9H71.5V202.8H71.4V202.9H71.3L71.2 203V203.1L71.1 203.2V203.3V203.4V203.5H71.2V203.6L71.3 203.7L71.4 203.8L71.5 203.9V204H71.6V204.1H71.7H71.8V204.2H71.9V204.1H72H72.1V204V203.9H72.2V203.8V203.7H72.3V203.8H72.4H72.5V203.9H72.6V204H72.5V204.1H72.4V204.2H72.5V204.3V204.4V204.5H72.6V204.6V204.7V204.8H72.7V204.9H72.8H72.9V205V205.1H73V205.2V205.3H73.1H73.2V205.4H73.3V205.5H73.4H73.5V205.4H73.6V205.3V205.2H73.7V205.1V205H73.8V204.9H73.9V204.8V204.7V204.6V204.5V204.4V204.3H73.8V204.4H73.7L73.6 204.5V204.4H73.5V204.3V204.2V204.1V204V203.9H73.6V203.8H73.7L73.8 203.7H73.9H74H74.1H74.2V203.8H74.3H74.4H74.5V203.9H74.6V204H74.7V204.1H74.8V204.2V204.3H74.7V204.4H74.6H74.5L74.4 204.5H74.5L74.4 204.6H74.5V204.5H74.6V204.6H74.5V204.7H74.6H74.7H74.8V204.8V204.9H74.9H75V205H75.1V204.9H75V204.8V204.7V204.6H75.1V204.5H75.2H75.3V204.4H75.4H75.5L75.6 204.3V204.4H75.7H75.8H75.9V204.5V204.6V204.7H76V204.8V204.9H76.1V205H76.2V204.9H76.3V205H76.4V204.9H76.3V204.8H76.4V204.7V204.6V204.5H76.5V204.6H76.6V204.5H76.5V204.4V204.3H76.4V204.2H76.3V204.1H76.4H76.5V204H76.6L76.7 203.9V203.8H76.8L76.9 203.7L77 203.6L77.2 203.5L77.3 203.4V203.3H77.4V203.2V203.1H77.5H77.6V203H77.7L77.8 202.9H77.9L78 202.8H78.1H78.2H78.3H78.4H78.5V202.7H78.6H78.7V202.8H78.6V202.9L78.5 203V203.1H78.4V203.2H78.3V203.3V203.4V203.5V203.6H78.2V203.7H78.3V203.8L78.2 203.9H78.3V204V204.1H78.4V204.2V204.3V204.4H78.5H78.6V204.3H78.7H78.8H78.9H79V204.2L79.1 204.3V204.2V204.1H79.2H79.3H79.4H79.5V204.2H79.6V204.3H79.7H79.8V204.2V204.1H79.9L80 204.2V204.3H80.1V204.4H80V204.5V204.6H79.9L80 204.7V204.8V204.9V205H80.1V205.1V205.2V205.3V205.4V205.5H80V205.6V205.7V205.8H79.9V205.9V206V206.1V206.2V206.3H79.8V206.4V206.5H79.7V206.6H79.6V206.7H79.5L79.6 206.6V206.5V206.4V206.3H79.7V206.2V206.1V206V205.9H79.8V205.8L79.7 205.7H79.8V205.6H79.7V205.5V205.4H79.6V205.5H79.5H79.4V205.6H79.3H79.2V205.7H79.1V205.8V205.9H79V206H78.9H78.8H78.7V206.1L78.8 206.2H78.7L78.8 206.3V206.4H78.9H79V206.5V206.6V206.7V206.8V206.9H79.1V207V207.1H79.2V207.2V207.3H79.3V207.4V207.5H79.2V207.6V207.7V207.8H79.3V207.9V208L79.2 208.1L79.1 208.2H79V208.1H78.9V208.2V208.3V208.4H78.8V208.5H78.9H79V208.6H79.1V208.7H79V208.8V208.9V209.1V209.2V209.3V209.4H78.9V209.5V209.6V209.7L78.8 209.9V210.1V210.3L78.7 210.4V210.5V210.6V210.8V210.9V211V211.1V211.2V211.3V211.4V211.5V211.6L78.8 211.7V211.8V211.9V212V212.1V212.2V212.3H78.9V212.4V212.5V212.6L79 212.7V212.8H79.1V212.9V213H79.2V213.1V213.2H79.3V213.3V213.4H79.2V213.5H79.1V213.4H79L78.9 213.6V213.7H79V213.8V213.9V214V214.1L79.1 214.2V214.3V214.4H79.2V214.5V214.6V214.7H79.3V214.8V214.9H79.2V215V215.1V215.2L79.1 215.3V215.4V215.5H79V215.6V215.7H78.9V215.8H78.8V215.9H78.7L78.6 216V216.1V216.2H78.7V216.3H78.6V216.4H78.5V216.5V216.6H78.4V216.7V216.8V216.9V217H78.3V217.1V217.2L78.2 217.3V217.4V217.5V217.6H78.1V217.7V217.8V217.9V218V218.1V218.2L78 218.3V218.4V218.5V218.6V218.7V218.8V218.9V219V219.1V219.2V219.3V219.4V219.5V219.6H78.1V219.7V219.8V219.9V220V220.1V220.2H78V220.3H78.1V220.4L78.2 220.5L78.3 220.6V220.7H78.4V220.8V220.9L78.5 221V221.1V221.2H78.6V221.3V221.4V221.5H78.7V221.6V221.7H78.8V221.8V221.9H78.7H78.6H78.5H78.4H78.3L78.2 221.8H78.1L78 221.7H77.9L77.8 221.6H77.7L77.4 221.8V221.9V222V222.1H77.3V222.2H77.4V222.3V222.4H77.3L77.2 222.5V222.6V222.7H77.1V222.8H77V222.9H76.9H76.8V222.8V222.7V222.6V222.5V222.4H76.7L76.8 222.3H76.7H76.6H76.5V222.2H76.4H76.3V222.1L76.2 222.2H76.1V222.3H76.2V222.4H76.1V222.5V222.6V222.7H76H75.9H75.8H75.7V222.8V222.9V223H75.8V223.1H75.7L75.6 223.2V223.1H75.5V223H75.4V222.9H75.3L75.4 223V223.1H75.5V223.2L75.4 223.3H75.3H75.2V223.2V223L75.1 222.9L75 222.8L74.9 222.7L74.8 222.6L74.7 222.4L74.6 222.3L74.5 222.1V222L74.4 221.9V221.8V221.7V221.6L74.3 221.5V221.4V221.3L74.2 221.2V221L74.1 220.8L74 220.7V220.6V220.5V220.4V220.3L73.9 220.2V220.1V220V219.9V219.8L74 219.7V219.6L74.1 219.4V219.3L74.2 219.2L74.3 219L74.6 218.3L74.3 215.5L74.1 215.2L74 215V214.7L73.9 214.5V214.4L73.8 214.2V214.1L73.7 213.9V213.8L73.6 213.7L73.5 213.6V213.5L73.4 213.4L73.2 213.2L73 213L72.9 212.9L72.7 212.7L72.6 212.6L72.4 212.4V212.3L72.3 212.2L72 211.8H71.9L71.7 211.5L71.5 211.2L71.3 211L71.2 210.7L71.1 210.6L70.9 210.5L70.8 210.4V210.3L70.7 210.2V210.1L70.6 210L70.4 209.9L70.2 209.8L69.6 209.4L69.5 209.3L69.4 209.2L69.2 209.1L69.1 209L68.9 208.9L68.8 208.8L68.5 208.6L68.4 208.5H68.3H68.2H68.1L68 208.4H67.8L67.6 208.3H67.5L67.4 208.2L67 208.1L66.1 207.9L65.7 207.8L65.6 207.7H65.5H65.3H65.2H65.1L64.9 207.6H64.8L64.6 207.5L64.4 207.4L64.3 207.3L64.1 207.2H64L63.9 207.1L63.8 207H63.6L63.5 206.9H63.3H63.1L62.9 206.8L62.8 206.7L62.7 206.6L62.6 206.5V206.4L62.5 206.3L62.4 206.2L62.3 206.1H62.2H62.1H62H61.8H61.7L61.6 206.2H61.5L61.3 206.3H61.2L61.1 206.4H61H60.9L60.8 206.3V206.4V206.5H60.7H60.6V206.6H60.5H60.4L60.3 206.5H60.2H60.1V206.4L60 206.3H59.9H59.8L59.7 206.4H59.6H59.4L59.3 206.5H59.2H59H58.9H58.7H58.5H58.4L58.3 206.4H58.2L58.1 206.3V206.2L57.9 206.1L57.7 205.9H57.6L57.5 205.8H57.4L57.3 205.7H57.2H57L56.9 205.8H56.8L56.6 206L56.3 206.3L56.1 206.6L56 206.8L55.8 207L55.6 207.1L55.4 207.2H55.2H55.1H54.9H54.8H54.7L54.3 207.1L54.1 207L53.9 206.9L53.8 206.8H53.7L53.6 206.7H53.5H53.4H53.3L53.2 206.6H53.1L53 206.7H52.9L52.8 206.8H52.6L52.5 206.9L52.3 207.1L52.2 207.3L52 207.5L51.9 207.6H51.8L51.7 207.7L51.5 207.8L51.4 207.9H51.3H51.2H51H50.9H50.8L50.6 208L50.4 208.1L50.2 208.2L50.1 208.3L50 208.4L49.9 208.5V208.6L49.8 208.8V209V209.1H49.7V209.2L49.6 209.3L49.4 209.4L49.2 209.5L48.9 209.6L48.7 209.8L48.5 209.9L48.3 210L48 210.1L47.7 210.2L47.5 210.3L47.2 210.4H47H46.9L46.8 210.5L46.5 210.6L46.4 210.7L46.3 210.8L46.2 210.9L46 211H45.8H45.4H45.2H45.1H45H44.9L44.8 211.1L44.6 211.3L44.5 211.5L44.3 211.6L44.1 211.7L44 211.8L43.8 211.9L43.6 212L43.5 212.1H43.3H43.2L43 212H42.9H42.8L42.7 212.1L42.5 212.2L42.4 212.3L42.3 212.5L42.2 212.6H42.1L42 212.7L41.8 212.8L41.7 212.9L41.5 213H41.3L41.2 213.1L41 213.2L40.8 213.4L40.7 213.5L40.6 213.6L40.5 213.7L40.4 213.8H40.3L40.2 213.9L40 214L39.9 214.1H39.8H39.6H39.4L39.2 214L39 214.1H38.9L38.8 214.2L38.7 214.4H38.6L38.5 214.5V214.6L38.4 214.7V214.9L38.3 215V215.1L38.2 215.2L38.1 215.3V215.5V215.6V215.8V215.9V216.1L38.3 216.3V216.5V216.6V216.8V216.9V217.1V217.3L38.2 217.4L38.1 217.5L38 217.6L37.9 217.7L37.8 217.8H37.6H37.5H37.4H37.2H37.1L36.9 217.7L36.7 217.6L36.6 217.5L36.3 217.3L36.1 217.1L36 217L35.8 216.8L35.6 216.7L35.4 216.5V216.4L35.2 216.2L35 216L34.8 215.8L34.5 215.5L34.4 215.3L34.2 215.2L34.1 215.1H34H33.8L33.6 215.2H33.3H33L32.9 215.1L32.6 215L32.4 214.8L32.2 214.6L32 214.3L31.8 214.1L31.7 214L31.6 213.8H31.4L31.2 213.7H31H30.9H30.7L30.6 213.8H30.4L30.1 214L29.9 214.2L29.7 214.3L29.6 214.4V214.5V214.6V214.7V214.8L29.7 214.9L29.8 215H29.9H30L30.1 215.1H30.2L30.4 215.2L30.5 215.3L30.6 215.4H30.7L30.8 215.5V215.6V215.7V215.8V216L30.7 216.1V216.2L30.6 216.3L30.5 216.4L30.4 216.5L30.3 216.7L30.2 216.8L30.1 216.9L30 217H29.9H29.8H29.7H29.6H29.5H29.3H29.2H29.1H29H28.8H28.7H28.6L28.5 217.1H28.4L28.3 217.2L28.2 217.4L28.1 217.5V217.7L28.2 217.8L28.3 218.2L28.4 218.4L28.5 218.6L28.6 218.7L28.7 218.8L28.8 218.9L28.9 219L29 219.2L29.3 219.3L29.6 219.5L29.8 219.7L30 219.9L30.1 220V220.1L30.2 220.3V220.4L30.1 220.5L30 220.6L29.9 220.7L29.8 220.8L29.6 220.9H29.4H29.2H29.1L28.9 221H28.6H28.4L28.1 221.1H27.9H27.8L27.7 221.2L27.5 221.3L27.2 221.4H27.1L26.9 221.5L26.7 221.7L26.5 221.8H26.2H26L25.7 221.7H25.4L25.1 221.5H25L24.8 221.4L24.6 221.3L19.9 220.2L19.2 220.1H18.9H18.6L18.4 220L18.2 219.9L18 219.7L17.9 219.6L17.7 219.5L17.4 219.3L17.1 219L16.8 218.9L16.5 218.8L16.1 218.7L15.3 218.3L14.9 218.1L14.4 217.9L14.1 217.7L13.9 217.6L13.7 217.5L13.6 217.4L13.1 217.2L12.8 217.1L12.3 216.9L12 216.8L11.8 216.7L11.4 216.6L11.2 216.5L10.8 216.3L10.6 216.2L10.2 216L10 215.9L9.60001 215.8L9.29999 215.6L8.89999 215.4L8.39999 215.2L8 215L7.70001 214.9L7.5 214.7L7.29999 214.5L7.10001 214.2L6.89999 213.8L6.70001 213.3L6.60001 213L6.20001 212.2L5.60001 211.1L5.5 210.8L5.39999 210.5L5.20001 210.3L5.10001 210.2L4.89999 209.9L4.60001 209.7L4.5 209.5L4.39999 209.3V209.2V209.1V209L4.5 208.9V208.6V208.4V208.3V208.1V208V207.9L4.60001 207.6V207.5V207.4V207.1V206.9V206.6L4.5 206.4L4.39999 206.1L4.20001 205.9L4.10001 205.6L3.89999 205.4L3.70001 205.3L3.39999 205.2L2.89999 205L2.60001 204.8L2 204.6L1.60001 204.5L1.39999 204.4H1.29999H1.20001H1.10001H1H0.899994V204.3L1 204.2V204.1L1.39999 203.4H1.5L1.60001 203.2L1.79999 202.9L2 202.6L2.29999 202.1L2.39999 201.9L2.60001 201.5L2.70001 201.4L2.79999 201.3L3.20001 200.7L3.29999 200.6L3.39999 200.5L3.70001 200.2L4 200L4.20001 199.8L4.29999 199.6L4.89999 199.2L5.10001 199L5.39999 198.7L5.60001 198.6H5.70001L6 198.7L6.39999 198.9L7.10001 199.2L7.5 199.4L7.70001 199.5L8.10001 199.6L8.29999 199.7L8.39999 199.8L8.79999 199.9L8.89999 200L9.29999 200.2L9.70001 200.3L9.89999 200.4H10L10.3 200.6H10.4L10.6 200.7L10.7 200.8H10.9L11 200.9H11.1L11.2 201L11.3 200.9V200.8H11.4V200.7V200.5H11.5V200.2V200.1L11.6 200V199.9L11.7 199.8V199.9V200.2L11.6 200.3V200.4H11.7V200.5H11.6V200.6V200.7V200.8L11.7 200.9V201V201.1V201.2V201.3V201.4V201.5V201.6V201.7V201.8V201.9V202V202.1V202.2V202.3V202.4H11.6V202.5H11.7V202.6L11.8 202.7V202.8V202.9V203H11.9L12 202.9H12.1H12.4L12.7 202.8L13.1 202.7L13.4 202.6L13.8 202.5H14.2L14.7 202.3L15.3 202.2L16.2 202L16.1 201.9V201.7L15.9 200.8L15.3 198.2L15 196.9V196.8L15.5 196.7L16.3 196.5L17.1 196.3L17.6 196.2L17.4 195.1L17 193.7L16.2 190.1H16.1L15.7 190.2L15 190.4H14.8H14.7L14.6 190.5L14.5 190.1V190V189.9V189.8V189.7V189.6V189.3L14.4 189.2V189.1H14.5V189V188.9V188.8V188.7H14.6V188.6L14.7 188.5L14.8 188.4H14.9H15V188.3L15.1 188.2L15.2 188.1L15.3 188L15.4 187.9V187.8L15.6 187.6V187.5L15.7 187.2L15.8 187.1V187L15.9 186.8V186.7V186.6L16 186.4V186.3V186.2V186V185.9L16.1 185.8V185.7V185.6L16.2 185.5V185.3L16.3 185.2V185.1V185V184.9H16.4V184.8H16.5H16.6H16.7V184.9L16.9 185L17 185.1H17.1H17.2H17.3L17.5 185H17.9L18.1 184.9H18.2H18.3L18.4 185.1L18.5 185.3L18.6 185.5V185.6H19L19.4 185.5L19.6 185.4H19.8V185.5L19.9 185.4L20.1 185.2L20.2 185.1V185V184.9V184.7L20.1 184.3V184L20 183.7V183.6L19.9 183.4L19.8 183.1V183L19.7 182.9L19.6 182.8V182.7L19.4 182.5L19.8 182.3H20L20.1 182.4H20.2L20.5 182.5H20.7H20.8L21.2 182.7H21.4H21.5L21.6 182.8H21.7L22.5 182.6L24.3 182.2L24.9 182L26 181.8L25.8 181.2L25.7 180.7L25.6 180.1L25.3 179.1V179H25.7L26 178.9L26.5 178.8L27.3 178.6L28.1 178.4H28.2L28.9 178.2H29L29.6 178H29.8L29.6 176.9L29.3 175.9L29.2 175.1L29.1 174.7L29 174.2L28.8 173.5L28.7 173L28.3 171.1V171H28.4H28.5L28.6 170.9V170.8L28.7 170.7V170.6V170.5L28.6 169.8L28.4 168.9L29.5 168.7L29.4 168L29.9 167.8L30.7 167.6L31.3 167.5L32.6 167.2H32.8L33.1 167.1L33.5 167L34.1 166.9L34.7 166.7H34.9H35.1L35.6 166.5L36 166.4L37 166.2H37.1L37.9 166L38.1 165.9H38.2L38.8 165.8L39.1 165.7L39.4 165.6H39.6L39.7 165.2L39.8 165.1V165L40.1 164.3L40.3 163.8L40.6 163.1L40.7 162.8L40.8 162.5L40.9 162.2L40.8 162.1L40.1 161.3L39.5 160.6L39 160L38.1 159L39 158L39.6 157.2L39.9 156.8L40.1 156.5L40.5 156L41 155.4L41.2 155.2L41.7 154.6L41.8 154.4L41.9 154.3L42.3 153.8L42.4 153.7L42.5 153.5L42.9 153.1L43 153L44 151.6L43.7 151.3H43.6L43.5 151.2L43.4 151.1L42.3 150.3L41.6 149.7V149.6L41.4 149.5L41 149.2L40.8 149L40.6 148.9L40.1 148.5L39.7 148.1L38.6 147.3H38.5V147.2L38.3 147.1L38.1 146.9V146.8L38.2 146.4H38.3V146.3L38.4 146.2L38.5 145.8L38.7 145.5L38.8 145.2L39 144.8L39.2 144.3L39.3 143.9H39.4V143.8L39.5 143.6L39.6 143.4L39.8 142.8L39.9 142.7V142.6L40.3 141.7V141.6L40.2 141.3L40 141V140.9L39.9 140.8L39.7 140.2L39.6 139.9L39.4 139.5L39.3 139.2L39.2 138.9L39 138.6L38.9 138.4V138.2L38.8 137.9L38.7 137.6L38.4 136.8V136.5L38.2 136.2L38 135.6L37.9 135.2L37.8 134.7L37.7 134.5V134.4L37.6 134.1V133.8L37.5 133.3V132.9H37.4L37.3 132.7L37.1 132.5H37.2H37.4L37.9 132.4H39L39.8 132.3H40.6H40.9L41.4 132.2L41.9 132.1V131.8V131.3V131.2L41.8 131.1V130.8L41 130.9H40.7H40.1V131H39.9L39.7 130.9L39.5 130.7L39.6 130.5V130.4L39.7 130.2H40.1L40.3 130.1H40.8H40.9H41.3H41.4H41.8L42 130H42.3V129.8H42.6V129.2V128.9H42.7H42.8H43.3H43.5H43.8V128.8V128.6V128.5L44.1 128.4H44.5H44.6H44.7H44.8H45.2H45.6L48.2 128.3H48.4L48.9 128.2V127.5L48.8 127.4V127.3V126.9V126.8V126.1L50.1 125.8L50.6 125.6H50.7L52.2 125.2H52.3L52.4 125.1H52.5V125.3V125.4L52.6 125.5V125.7V126.1V126.6L52.7 127.5V127.9V128.4V128.7L52.8 128.9L52.7 129L52.8 129.2V129.3V129.4H53.1L53.2 129.3V129.4L53.3 129.6L53.4 129.9L53.5 130.4L53.3 130.6L53.1 130.8L52.9 131L52.6 131.3L51.7 132L51.9 132.2L52.2 132.4V132.5V133.1L52.3 133.6V134V134.1V134.2L52.4 134.4V134.5L52.6 134.7L52.7 134.8L52.9 135L53 135.1L53.1 135.2V135.3V135.4H53V135.5V135.6H52.9L52.8 135.8L52.7 135.9H52.6L52.2 136.4L52 136.6L51.8 136.8L51.6 137.1L51.1 137.7V137.8L51.4 137.9L52.8 138.4L53.5 137.8L53.6 137.7L53.9 137.3L54.1 137.2V137.1V137L54 136.9V136.8L54.1 136.7L54 136.6V136.5H53.9V136.4H54L53.9 136.3L54 136.2L54.4 136.1L54.8 135.8L55.6 135.4L55.7 135.6L55.9 136.1L57 135.6L56.8 135.1L56.7 134.9L56.5 134.4L56.4 134.2L56.2 133.7L56.1 133.4L56.7 133.2L56.6 132.8L56.5 132.7L56.4 132.6V132.5V132.4L56.3 132.3V132.1L56.2 131.9L56.5 131.8L57.1 131.5H57.2L57.6 131.3L57.4 130.9L57.6 130.8L57.7 130.7L57.5 130.2L57.4 129.9V129.7L57.5 129.5H57.6L58 129.2L58.3 129.1H58.4L58.5 129.3V129.4L58.6 129.5V129.7L58.7 129.9L59.2 130.9L59.5 131.7L59.6 131.9L59.7 132.3L59.8 132.4H59.6L60.5 134.6L60.6 134.8H60.8L60.5 134.1L60.1 133.3H60.2L60.4 133L60.6 132.7L60.9 132.3H61L61.2 132.1L61.4 131.8L62.4 130.5L62.5 130.4L62.9 129.8L63 129.7L63.2 129.5L63.5 129.7L63.7 130L63.9 130.1L64 130.2L64.1 130.3L64.2 130.4L64.3 130.5L64.5 130.7L64.6 130.8L64.7 130.9L64.8 131L65.1 131.4L65.8 132L66 132.2V132.3L65.6 132.8L65.1 133.3V133.4L65.3 133.9V134L65.4 134.2V134.3L65.5 134.4L65.7 134.6L65.9 134.8L66.1 134.9L66.2 135H66.3L66.6 135.1H66.7H66.8L69.2 135.5L69.9 139.5L70.9 139.4L71.1 140.1L71.4 140H71.5L72.1 139.9L72.8 139.8L73.8 139.7L74.2 139.6L74.7 139.5H74.8V139.4V139.3V139.2V138.9L74.7 138.7V138.6L74.6 138V137.9L74.4 137V136.7V136.4L74.3 136.1V136L74.1 134.8L73.9 134.1L74 134H74.1L74.8 133.6L74.9 133.9L75 134.4H75.1L75.2 134.3V134.5V134.8L75.3 134.7H75.6L76 134.5H76.1H76.3L76.7 134.4L76.8 134.3L77.7 134.1L77.5 133.8L78.1 133.5L78 133.4L77.6 132.6L77.4 132.1L77.3 131.8L77.8 131.5V131.4H77.9H78H78.2L78.4 131.5L78.5 131.6L79.4 132.8L79.8 132.7L80.5 135.1L80.3 135.2L80.7 135.6H80.8L80.9 135.5L81.4 136.1L82.1 137L82 137.1L81.6 137.5L81.3 137.7L83.2 138.9L83.5 139L83.8 139.2H83.9L84.3 139.4L84.5 139.6L85.6 140.1L85.5 139.7L85.3 138.8L86.1 138.1L87.2 137.3L87.5 137L88 136.7L88.1 136.8L88.3 136.9L88.6 137L89.5 137.4L90.3 137.8L90.5 137.9L90.8 137.6L90.9 137.5V137.4L91 137.5L91.3 137.6L92.2 137.9L92.5 137.8L94 136.8L94.7 136.9L95.2 137.4L95.3 137.5L95.5 137.7V137.8L95.6 137.9L95.8 137.8L96.1 137.6L96.4 137.4H96.5L96.7 137.2L97.2 137L98.4 136.3L98.8 136.1L99.3 135.7L99.2 135.6V135.5V135.3V135.1V135V134.9V134.8V134.7L99.1 134.6H99H98.9H98.8H98.7L98.6 134.7V134.8V134.9V135.1V135.2V135.3V135.4V135.5H98.5V135.6L98.4 135.7L98.3 135.8L98.2 135.9H98.1H98H97.9H97.8H97.7V135.8H97.6V135.7H97.7L97.8 135.6H97.9V135.5V135.4L97.8 135.3H97.7L97.6 135.1H97.5L97.4 134.9L97.3 134.8L97.2 134.7L97.1 134.6L97 134.5H96.9L96.8 134.4H96.7H96.6V134.5V134.6L96.5 134.7H96.4V134.6H96.3V134.4L96.2 134.2V134.1L96.1 134V133.9H96V133.8H95.9H95.8H95.7L95.6 133.9H95.7V134L95.8 134.1L95.9 134.2L96 134.3V134.4V134.5H96.1V134.6V134.7H96V134.8H95.9V134.9H95.8V134.8H95.7V134.7L95.6 134.6V134.5V134.4V134.3H95.5V134.2H95.4H95.3H95.2H95.1V134.3V134.4V134.5V134.6V134.8V134.9V135H95L94.9 134.9H94.7V134.8H94.6H94.5H94.3H94.2H94.1H94V134.7H93.9V134.6V134.4V134.2V134.1L94 134L94.2 133.9L94.3 133.8V133.7H94.4L94.3 133.6H94.2L93.9 133.5H93.6H93.5H93.4H93.3L93.2 133.6H93.1H92.9H92.8L92.7 133.7H92.6H92.5L92.4 133.6H92.3H92.2V133.5V133.4V133.3L92.3 133.2V133.1L92.4 133V132.9V132.8H92.3V132.7H92.2H92H91.9H91.8H91.7L91.6 132.8H91.5L91.4 132.7H91.3L91.2 132.6L91.1 132.5L91 132.4H90.9V132.3L90.8 132.2L90.7 132.1L90.8 132L91 131.9H91.2H91.3H91.6H91.7H92H92.1H92.2V131.8V131.7V131.6V131.5H92.1H92V131.4H91.9H91.8L91.7 131.5H91.5H91.4H91.3H91.2H91.1H91V131.4H90.9L90.8 131.3V131.2V131.1H90.9V131.2H91H91.1L91.2 131.3L91.3 131.2H91.4L91.5 131.1L91.7 131L91.8 130.9H91.9V130.8V130.7V130.6H91.8L91.7 130.5H91.6H91.5H91.4H91.3V130.6H91.2L91.1 130.7H91V130.8L90.7 131.1V131H90.6V130.9V130.8V130.7L90.5 130.6V130.5V130.4L90.6 130.3V130.2L90.7 130.1L90.8 130L90.9 129.9H91V129.8H91.1V129.7V129.6H91L90.9 129.7H90.8V129.8H90.7H90.6V129.9H90.5V129.8H90.4V129.7L90.5 129.6V129.5H90.6L90.7 129.4V129.3V129.2L90.6 129.1V129L90.5 128.8V128.7H90.4V128.6H90.3V128.7L90.2 128.8V128.9V129V129.1V129.2V129.3V129.4V129.5H90.1V129.4H90L89.9 129.3H89.8V129.2H89.7L89.6 129.3L89.5 129.4V129.6L89.4 129.7V129.8L89.3 129.9L89.2 130L89.1 130.1H89H88.9H88.8H88.7V130V129.9H88.8V129.8V129.7H88.9V129.6V129.5L89 129.4L89.1 129.3L89.2 129.2V129.1L89.3 129V128.9V128.8L89.2 128.7H89.1V128.6H89V128.7H88.9V128.8V129V129.1V129.2L88.8 129.3V129.4H88.7L88.6 129.5L88.5 129.6L88.4 129.7H88.3L88.2 129.8H88.1H88H87.9H87.8V129.7V129.6L87.9 129.5L88.1 129.4H88.2V129.3V129.2H88.1L87.9 129.3H87.8H87.7H87.6H87.5V129.2H87.4H87.3L87.2 129.1V129V128.9H87.3V128.7H87.4V128.6V128.5H87.5L87.4 128.4H87.3H87.2H86.9H86.7H86.6H86.5H86.4L86.3 128.3V128.2V128.1H86.4L86.5 128H86.6L86.7 127.9V127.8V127.7H86.6H86.5L86.4 127.6H86.3L86.2 127.5H86H85.9V127.4H85.8V127.3V127.2V127.1H85.9H86H86.1V127V126.9L86 126.8L85.8 126.6L85.7 126.5V126.4L85.6 126.3V126.1H85.5V126L85.4 125.9H85.3L85.2 126L85.1 126.1V126.2V126.3H85H84.9V126.2L84.8 126V125.9H85.1H85.2L86 125.7L86.8 125.6L87.5 125.4H87.7L88.3 125.3V125.2V125.1H88.4V125H88.5V124.9H88.4H88.3V125H88.2H88.1V124.9H88.2V124.8V124.7V124.6V124.5H88.3H88.4V124.4H88.5V124.3H88.4H88.3V124.4H88.2H88.1H88V124.3V124.2V124.1H87.9V124V123.9L87.8 123.6V123.5V123.4V123.3L87.9 123.1V123L88 122.8H88.2L88.4 122.7H88.5L88.6 122.6V122.4L88.8 122.1L89 121.5V121.3L89.1 121.2L89 121V120.7L88.9 120.5V120.4V120.3V120.2V120V119.8V119.6L88.8 119.5L88.5 119.1L88.4 118.9L88.3 118.8V118.7V118.6V118.5L88.4 118.4V118.3V118.2L88.6 117.9L88.8 117.7V117.5L88.9 117.1V117H89V116.9L88.9 116.5L89 116.3L89.1 116.2L89.3 116L89.5 115.9L89.6 115.8V115.7V115.5V115.3V115L89.5 114.7V114.6V114.5L89.4 114.1V114V113.9V113.7V113.5L89.5 113.4V113.2V113V112.5L89.6 111.9V111.7L89.7 111.6V111.4V111.3V111.2L89.8 111.1V110.8V110.7H89.7L89.6 110.6H89.5V110.5L89.4 110.4V110.3V110.2V109.9L89.3 109.4V109.3L89.2 109.2L89.1 109V108.9L89 108.7L88.8 108.6L88.6 108.3L88.4 108L88.3 107.8L88.2 107.7V107.6V107.5L87.9 107.1L87.8 106.9L88.9 106.2L89.2 106H89.3L89.8 106.1H89.9H90V105.9L89.9 105.7H89.8L89.7 105.6V105.5H89.6V105.2L89.5 105L89.1 104.8L89 104.6L88.9 104.5H88.8V104.4L88.7 104.5L88.6 104.3L88.5 104.2L88.3 104.4L87.8 104.6L87.6 104.7L87.3 104.8L87.5 105.2H87.6L87.5 105.3L87.3 105.4L87.1 105.5L86.3 105.9L86 105.3L85.9 105L85.8 104.7L85.7 104.6L85.6 104.4L85.5 104.3L85.4 103.9L85.2 103.6L85.6 103.4V103L85.5 102.8L85.3 101.9V101.4V101.3V101.2V101.1L85.2 101L84.4 101.1L83.4 101.3L83.5 101.8L82.3 102L81.5 102.2L80.3 102.5L78.4 102.8L78.2 101.7L78 100.7L77.8 100.1L77.7 99.7V99.3H77.6V99L77.5 98.5L77 98.6V98.5L76.9 97.6L76.5 97.9V98.2H76V98.1H75.7L75.1 98.2L74 98.4L73.3 98.5V98.1L73.2 97.6L73.1 97.2L73 96.3L72.9 95.9L71.8 96.2L69.5 97L68.7 95.7L69.3 95.5L70.7 95.2V95L70.8 93L70.9 91.8V91.5V91.4V91.3V91.2V90.9V90.7L71 90.2V89.8V89.5H71.1L71.2 89.4H71.4L71.9 89.3H72L72.3 89.2L72.1 88.3L71.8 86.3L71.5 85.2H71.1L69.8 85.4L68.5 85.6H68.3L68.4 86.7V86.8V86.9V87H67.7H67.4L67.3 86.6V86.3L66.9 85.2V85.1V84.9L66.6 84.2L65.9 84.5H65.8V84.3V84.2L65.6 83.2V82.9L65.9 83.1L66.6 83L67.8 82.8L68.5 82.7L69.9 82.5L69.6 80.7L69.5 79.9L69.3 79V78.7L69.2 78.6V78L69.1 77.5L69 77.4L68.9 77V76.9H69L68.9 76.6L68.7 75.6L68.6 74.9V74.5L68.5 74.3L68.4 73.9L69.6 73.7H69.7L70.5 73.5H70.8L70.6 71.7L70.5 71.1L70.4 70.8L70.3 70.1V69.4L70.2 69.3V69.1V69L70.1 68.5V68L70 67.7L69.9 67.1L69.8 66.7V66.5V66.1L69.6 65.1H69.5H69.3L68.7 65.2H68.6L68.4 65.3H67.9L67.5 65.4H67.1L66.8 65.5H66.7L66.6 65.6L66.3 65.7L65.9 65.9H65.8L65.6 66V66.1H65.5V66.2L65.2 66.1V66.6H65.3H65.4V66.7V66.8V66.9L65.3 67L65.2 67.4L65.6 67.5L65.5 67.8L65.4 67.9H65.3H65V68.5H65.1V68.7V68.8V69.3V69.5V69.6L65.2 69.8H65.1V69.9L63.7 70.2L63.1 70.3V70.4L63.2 70.7L62.2 70.9L62 70L61.2 70.2L60.7 70.3L60.5 69.5L60.4 68.9L60.2 67.9L60.1 67.6L60 67.1L59.9 67H60L60.2 66.8L60.4 66.6L60.7 66.3L60.6 65.9L60.5 65.5L60.4 64.8V64.6L60.3 64.4L59.8 64.5L59.5 64.6L59 64.7H58.9V64.8V64.9H58.8H58.6L58.2 65L57.7 65.1L57.6 64.6L57.5 64.3V63.9L57.4 63.6L57.3 62.9L57.2 62.6V62.5V62.2L57.1 61.7L57 61.3V61L56.9 60.5V60.4V60.3L56.8 60.1L56.7 59.5V59.4V59.3H56.6L56.4 59.5L56.2 59.6V59.7V59.8H56.1H56H55.9V59.9H55.8L55.7 59.8H55.6L55.5 59.9H55.4V60H55.3V60.1L55.2 60.2H55.1H55L54.9 60.1L54.6 60.2H54.5L54.4 60.3L54.3 60.4H54.2V60.5L54.1 60.6L53.9 60.7V60.8H53.8V60.9L53.7 61L53.6 61.1H53.5V61.2L53.4 61.3V61.4V61.5V61.6H53.3V61.7H53.2V61.8H53.1H53H52.9V60.8V60V58.9V58.3L51.2 60L51 60.2L50.9 60.3L50.7 60.5L50.5 60.7V60.8L50.4 60.9L50.3 61H50.2L50.1 60.8L50 60.6L49.9 60.3V60.2V60.1H50L50.1 60V59.9L49.8 59.2V59.1L50.1 58.7L50.3 58.5L50.4 58.4H50.3V58.3L50.2 58.2V58.1V58V57.9H50.1L50 58L49.9 58.1L49.5 58.4L49.4 58.5L49 58.8H48.9L48.8 58.9V58.8L48.7 58.7L48.6 58.5V58.4L48.7 58.3L48.8 58.2H48.9L49.1 58L49.7 57.5L50.1 57.2L50 57.1H49.9V57V56.9V56.8L50 56.7H50.1V56.6H50.2L50.3 56.5V56.4V56.3V56.2H50.2V56.1H50.1L50 56L49.9 55.9V55.8H49.8V55.7L49.9 55.6V55.5V55.4V55.3V55.2V55.1V55V54.9L50 54.8H49.9V54.7V54.6V54.5H50H50.1L50.2 54.4L50.1 54.2L50 54.1L49.9 54L49.8 54.1L49.5 54.2L49.3 54.3L49.2 54.4L49.1 54.5H49V54.6H48.9L48.3 55L48.1 54.6L47.8 54L47.7 53.8L47.5 53.4L47.3 53L47.1 52.6L46.9 52.3L46.7 51.9L46.6 51.6L46.5 51.4V51.3L46.7 51.2L47.2 51L47.7 50.8L48 50.6L48.5 50.3L49 50.1H49.1V50.2H49.2V50.3H49.3L49.5 50.2L49.8 50.1L49.9 50V49.9H50V49.8L49.9 49.7V49.6L50 49.5V49.4V49.3V49.2V49.1V49L50.1 48.9L50.2 48.7H50.3V48.6L50.5 48.5H50.6V48.4H50.7V48.3L50.8 48.2L50.9 48.1V48V47.9V47.7V47.6L51.1 47.4H51.2L51.4 47.2V47.1L51.6 47L51.4 46.6V46.4L51.3 46.3V46.2V46.1H51.2V46V45.9V45.8L51.3 45.9L51.4 46L51.7 45.9V45.8V45.7H51.8V45.6V45.5L51.9 45.4V45.3L52 45.2L52.3 44.9L52.4 44.8H51.6H51.5H51.2V44.7V44.2V43.9V43.6H51.3H51.6H51.7V43.4V43.2V43.1V42.3V41.7H52.2H52.3V41.6L51.8 40.9L51.7 40.7H51.8V40.6H51.9L51.7 40.3L51.5 40L51.3 39.7V39.6L51 39.1L50.9 39L51.3 38L51.4 37.7V37.6L51.7 37.4L52.3 37.1L52.5 37L53.2 36.6V36.5L53.4 36.1V36L53.5 35.8L54.4 33.4V33.3V33.2L54.5 33.1V33V32.9V32.8V32.7V32.6L53.4 32.2H53.2V32.1H53.1V32.2L52.9 32.4L52.8 32.5V32.6L52.7 32.7L52.4 33.1H51.9H51.7L51.5 32.8L51.3 32.6L51.2 32.5L51 32.1L50.8 31.8L50.7 31.6V31.5V31.4L50.8 31.2V31V30.9V30.8V30.7L50.9 30.6V30.5L51 30.4V30.3H51.1V30.2L51.2 30.1L51.3 30L51.4 29.9H51.5V29.8V29.7H51.6V29.6V29.5H51.7V29.4L51.8 29.3V29.2H51.9V29.1V29V28.9V28.8H52V28.7H52.1V28.6H52.2H52.3H52.4L52.5 28.5V28.4V28.3L52.6 28.2L52.7 28.1L52.8 28L52.9 27.9L53.2 27.8L53.4 27.6L53.6 27.5L53.8 27.4L54.1 27.3V27.2V27.1L54.2 27H54.3H54.4V26.9H54.5V26.8L54.6 26.7V26.6V26.5V26.4H54.7H54.8V26.3V26.2H54.6L54.4 26.1L54.3 26.2H54H53.8L53.2 26.3H52.9H52.8H52.7H52.4L52.2 26.4H52H51.7H51.6V26.3H51.7L51.8 26.2H51.9V26.1L51.8 26V25.9L51.7 25.8L51.6 25.7H51.5V25.9V26.1V26.2L51.4 26.3V26.4V26.5L50.8 26.6V26.5H50.7V26.3V26.2V26L50.6 25.7V25.4L50.5 25.2V25V24.8L50.4 24.7V24.4V24.3V24.1L50.3 24V23.9V23.7V23.6V23.4V23.2L50.2 23.1V22.8V22.7V22.3V22.2L50.1 21.7L50 21.1V20.6H49.9H49.8H49.7V20.2L49.6 19.8V19.4L49.5 19.2V18.5L49.4 18.4H49.1H48.8H48.6H48H47.8H47.4H47.1H46.9V18.7L47 18.8H47.1V18.9H47.2V19L47.3 19.1V19.2H47.2H47.1H47L46.6 19.1H46.5L46.4 19.2V19.1H46.3H46.1L46 19.2L45.8 19.3V19.2H45.7H45.6H45.5H45.4H45.3V19.4H45.2V19.3L44.9 19.6V19.7H45H45.1L45.2 19.8L45.3 19.9H45.4H45.5V20.1V20.5L45.6 20.7V20.9H45.5H45.4V20.8V20.7V20.6H45.3V20.4L45.2 20.3H45.1H45L44.9 20.2V20.1H44.8V20H44.7H44.6V20.1V20.2V20.3V20.4L44.7 20.5V20.6L44.8 20.7V20.8L44.9 20.9V21V21.1L45 21.7V21.9H44.8H44.7L44.6 22H44.5L44.4 22.1H44.3H44.2H44.1H44L43.9 22.2H43.8H43.7H43.6H43.5H43.4H43.3H43.2L43 22.1L42.9 22L42.7 21.9H42.6L42.5 22L42.4 22.1L42.3 22.2L42.1 22.1L42 22H41.9V21.9L41.8 21.8L41.7 21.7L41.6 21.5H41.5V21.4L41.4 21.3L41.3 21.2H41.2L41.1 21.1H41H40.9H40.8L40.7 21L40.6 20.9L40.5 20.7H40.4H40.3H40.2H40.1V20.6H40L39.8 20.2H39.7L39.6 20.1L39.5 20L39.2 19.8L39.1 19.7L39 19.6L38.7 19.5H38.6L38.5 19.6L38.4 19.7L38.3 19.8L38.1 20L38 20.1L37.9 20.2L36.8 20.8L36.6 20.5L36.2 20L36.1 19.9L35.8 19.5L35.5 19.2L35.2 18.9L34.9 18.4L34.8 18.3L34.7 18.2L34.6 18.1V18L34.5 17.9V17.8V17.7L34.6 17.4V17.2L34.7 17.1L34.6 17L34.3 16.8L34.2 16.7H34.1L34 16.5V16.4L33.8 16.3H33.6L33.5 16.4H33.4V16.3V16.1V16L33.3 15.9V15.8H33.2L33 15.6L32.6 15.3H32.5L32.6 15.2L32.7 14.9V14.8L32.9 14.5V14.3L33 14.2L33.1 13.9V13.7V13.6V13.4L33.2 13.3L32.7 12.9L33 12.6L32.8 12.4L32.7 12.2L32.5 12.4L32.4 12.5H32.3L32.2 12.4L32.4 12.2V12.1H32.5L32.6 12L32.9 11.9Z" fill="#6F9C76"/>
<path d="M104.3 6.79999H104.2L104.1 6.89999L104 7H103.9V7.10001H103.8H103.7H103.6V7.20001H103.5H103.4V7.29999H103.3H103.2V7.20001L103 7.10001H102.8V7H102.7H102.6H102.5H102.4H102.3H102.2V6.89999H102.1L102 6.79999H101.9H101.8V6.70001H101.7H101.6H101.5H101.4H101.3H101.2H101.1V6.60001H101H100.9L100.8 6.5V6.39999H100.7V6.29999H100.6V6.20001H100.5L100.4 6.29999L100.3 6.39999V6.5H100.2H100.1L100 6.60001H99.9H99.8L99.7 6.70001L99.6 6.79999H99.5V6.89999H99.4H99.3H99.2H99.1L99 7H98.9L98.8 7.10001H98.7H98.6V7H98.5V6.89999H98.4H98.3H98.2H98.1V6.79999H98H97.9H97.8H97.7H97.6H97.5H97.4H97.3L97.2 6.89999L97.1 7H97H96.9H96.8H96.7L96.6 7.10001L96.5 7.20001V7.29999H96.4H96.3L96.2 7.20001H96.1H96H95.9H95.8V7.10001H95.7L95.6 7H95.5H95.4H95.3L95.2 6.89999H95.1L95 6.79999H94.9H94.8L94.7 6.89999H94.6V7H94.5L94.4 6.89999V6.79999H94.3V6.70001L94.2 6.60001V6.5V6.39999H94.1H94L93.9 6.5H93.8V6.60001H93.7H93.6V6.5H93.5L93.4 6.39999L93.3 6.20001V6.10001H93.2V6V5.89999V5.79999V5.70001V5.60001L93.1 5.5V5.39999L93 5.29999H92.9V5.20001L92.8 5.10001V5L92.7 4.89999V4.79999V4.70001V4.60001L92.8 4.5H92.7V4.39999L92.6 4.29999H92.5V4.20001H92.4V4.10001L92.3 4L92.2 3.89999H92.1V3.79999H92H91.9V3.89999H91.8L91.7 4L91.6 4.10001H91.5H91.4H91.3L91.2 4V3.89999H91.1V3.79999L91.2 3.70001V3.60001V3.5L91.1 3.29999V3.20001V3.10001V3L91.2 2.89999L91.3 2.79999L91.4 2.70001V2.60001L91.5 2.5V2.39999V2.29999V2.20001V2.10001V2L91.4 1.89999L91.3 1.79999L91.2 1.60001H91.1L91 1.5V1.39999H90.9H90.8V1.29999H90.7V1.20001H90.6V1.10001V0.899994V0.5L90.5 0.600006L90.2 0.899994L90.1 1L90 1.10001L89.8 1.5L89.7 1.39999H89.6V1.29999L89.2 1.10001L88.6 0.799988L88.1 0.5L87.6 0.299988H87.5L87.4 0.600006L87.3 0.799988L87 1.20001L86.9 1.5L86.7 1.79999L86.6 2L86.4 2.39999L86.2 2.70001L86.1 2.89999V3L86 3.20001L85.8 3.39999L85.7 3.70001L85.6 3.79999V3.89999V4H85.5H85.4L85.3 3.89999H85.2H85.1L85 3.79999L84.8 3.70001V3.60001V3.5L84.7 3.39999V3.29999V3.20001H84.6L84.5 3.10001L84.3 3V2.89999V2.79999H84.2V2.70001L84.1 2.60001V2.5L84 2.39999L83.8 2.29999L83.7 2.20001L83.6 2.10001L83.5 2H83.4L83.3 1.89999H83.2L83 1.79999H82.9L82.7 1.89999H82.6H82.5V2H82.3L82.1 2.10001L81.9 2.20001H81.8H81.7H81.6H81.5L81.3 2.29999L81.2 2.39999H81.1L81 2.5H80.9L80.8 2.60001L80.7 2.70001H80.6V2.60001H80.5L80.4 2.5L80.3 2.39999H80.2V2.29999L80.3 2.20001H80.2H80.1L80 2.10001V2.39999H79.9L79.7 2.60001H79.6H79.5H79.4L79.1 2.79999V2.70001H79H78.9H78.8H78.6H78.4L78.3 2.60001H78.2H78.1H78H77.9H77.8H77.7H77.6H77.5H77.4H77.3H77.2H77.1L76.9 2.70001H76.8H76.7L76.5 2.79999L76.4 2.89999H76.3L76.2 3H76.1V3.10001H76H75.9L75.7 3.20001L75.5 3.29999L75.3 3.5L75.2 3.60001L75.1 3.70001L74.7 3.39999L74.5 3.29999L74.4 3.20001L74.3 3.10001H74.2H74H73.9H73.7V3.20001L73.8 3.60001L74 4L74.1 4.20001L74.4 4.70001L74.5 4.89999L74.6 5.10001V5.20001L74.7 5.29999V5.5V5.60001V5.70001V5.79999V6.20001L74.6 6.60001V7.20001L74.5 7.39999V7.5V7.70001V7.79999V7.89999V8.10001L74.6 8.20001V8.29999H74.5V8.5L74.4 8.70001L74.3 8.79999L74.1 8.70001V8.89999L73.8 8.79999V8.89999L74 9L74.2 9.10001H74.3V9.29999L74.2 9.5V9.60001V9.70001L74.1 9.79999L74 9.70001L73.9 9.60001L73.8 9.5H73.7H73.5H73.4V9.39999H73.3H73.2L73 9.5H72.9H72.8V9.39999V9.20001V9.10001L72.9 8.89999V8.60001H72.8L72.6 8.5L72.5 8.39999L72.2 8.29999L71 7.89999V8L70.9 8.29999L70.8 8.5V8.60001V8.70001V8.79999V8.89999L70.7 9H70.6V9.10001H70.5H70.4H70.3L70.2 9.20001V9.29999L70.1 9.39999L70 9.5L70.1 9.60001L70.2 9.79999V10V10.1L70.3 10.2H70.2H70.1H70L69.8 10.1H69.7L69.6 10L69.5 10.1V10.2L69.4 10.4H69.3H69.2V10.3H69.1H68.9V10.4L68.7 10.5L68.6 10.4H68.5H68.4L68.3 10.3H68.2H68.1L68 10.2H67.9L67.8 10.3H67.7H67.6L67.5 10.4V10.5H67.4H67.3H67.2L67.1 10.4H67H66.9H66.8H66.7H66.6L66.5 10.3H66.4H66.3H66.2L66.1 10.2H65.9H65.8H65.6V10.1L65.5 10H65.4L65.3 9.89999H65.2H65.1L64.8 9.79999H64.7V9.70001V9.60001V9.5V9.29999L64.6 9.10001V9L64.5 8.89999V8.70001L64.2 8.60001H63.8L63 8.70001L62.7 8.79999L62.3 8.89999H62.1L61.9 9L61.5 9.10001H61.2L60.6 9.29999H60.5V9.39999H60.4L60.3 9.5L60 10.1H59.9L60.2 10.7L59.4 11.1L59.2 10.8L59 10.9H58.9L58.7 11L58.4 11.1H58.3V11V10.9L58.4 10.8V10.7V10.6L58.1 10.8L57.9 10.9L57.8 10.8H57.7H57.6H57.5L57.2 10.9L56.5 11.3L56.4 11.4L56.3 11.3L56.2 11.2L56.1 11.1H56L55.9 11L55.7 11.1H55.4H55.3L55.2 11V10.9H55.1L55 10.8V10.9H54.9L54.8 11H54.7H54.6H54.5L54.2 10.9L54 10.8V10.7V10.6L54.1 10.1V9.79999H53.6L53.7 9.60001V9.5L53.6 9.39999V9.5H53.5L53.4 9.70001L53.1 9.60001V9.5L53 9.60001V9.70001H52.8V9.79999L52.6 9.70001H52.5V9.79999V9.89999L52.4 10.1H52.3H52.2H52.1L52 10H51.9L51.8 9.89999V10H51.6L51.7 9.70001L51.5 9.60001L51.3 9.29999V9.20001H51.2L51 9.10001L50.9 9V8.89999L51 8.70001L51.1 8.60001L51.4 8.5H51.5H51.6L51.8 8.39999V8.5H51.9L52 8.60001V8.70001H52.1L52.5 8.79999L52.6 8.70001L52.8 8.29999V8.20001L53 8.10001H53.2V8.20001H53.3H53.4H53.5L53.6 8.10001L53.8 8V7.79999H53.7V7.89999H53.6L53.5 7.79999V7.70001V7.60001H53.4V7.5V7.39999V7.29999V7.20001V6.89999L53.3 6.60001L53.2 6.70001V6.79999H53.1L52.8 7.20001L52.7 7.29999L52.5 7.20001H52.3V7.29999L52.2 7.20001L52 7.10001H51.9V7.20001L51.6 7.10001H51.4H51.3V7.20001V7.29999V7.39999H51.2V7.79999H50.8L50.4 7.70001H50.3L50.2 7.60001V7.5L50 7.39999V7.29999L49.8 7.20001H49.5H49.3H49.2L49.1 7.29999H48.8H48.6H48.4H48.1H47.9H47.8V7.20001H47.9H48L48.2 7.10001V7H48.3H48.4V6.89999L48.5 6.79999L48.6 6.70001L48.4 6.60001L48.3 6.5L48.2 6.39999H48.1L48 6.10001L47.7 6.20001L47.4 6.39999V6.29999H47.3L47.2 6.20001L47 6L46.8 5.79999L46.7 5.70001L46.6 5.60001L46.4 5.29999L46.3 5.20001L46.2 5.10001L45.8 4.70001L45.7 4.5L45.6 4.39999H45.5V4.29999H45.4V4.20001L45.3 4.10001V4H45.2L44.9 3.60001L44.7 3.70001L44.6 3.39999V3.29999H44.5V3.20001H44.4V3.29999H44.3H44.2L44 3.20001H43.9L43.8 3.39999L43.6 3.29999V3.60001L43.8 3.79999L43.7 3.89999H43.6L43.7 4L43.6 4.29999L43.4 4.20001L43.2 4.39999L43 4.70001V4.79999L42.9 5.10001V5.20001V5.29999V5.5V5.60001V5.70001V5.79999L42.8 6L42.9 6.10001L43.1 6.29999V6.39999V6.5L43.2 6.60001L43.1 6.79999H43L42.9 7.10001L42.8 7.20001V7.29999V7.39999H42.7V7.5H42.6V7.60001L42.3 7.89999L42.4 8H42.5V8.10001L42.3 8.29999V8.39999H42.2L42 8.29999H41.9V8.20001L41.7 8.10001L41.6 8V7.89999V7.79999V7.70001L41.5 7.60001V7.5L41.4 7.29999L41.3 7.10001V7L41.2 6.89999L41.1 6.70001H41H40.9V6.60001V6.5H40.8V6.60001V6.70001H40.7L40.6 6.60001L40.5 6.5L40.3 6.39999L40.2 6.5L40.1 6.60001V6.70001L40 6.79999L39.9 6.89999L39.7 6.79999L39.6 6.60001L39.5 6.5V6.39999H39.2L39.1 6.29999V6.20001H39H38.9H38.7H38.6H38.5L38.2 6.10001H37.9L37.8 6.29999V6.5L37.7 6.79999L37.6 7.10001L37.5 7.5L37.3 8.29999L37.2 9L37.1 9.60001V9.89999L37 10.3V10.4V10.5H36.9H36.8L36.9 10.6V10.7H37V10.8H36.9L36.6 10.9L36.2 11L35.1 11.3L35 11.4L34.2 11.7L34.1 11.8L34 12H34.1L34.2 12.1H34.3V12.2V12.3L34.2 12.4V12.5H34.1L34 12.6V12.7L33.8 12.6V12.5L33.6 12.4L33.4 12.3V12.1V12H33.3H33.2L33 11.9H32.9L32.6 12L32.5 12.1H32.4V12.2L32.2 12.4L32.3 12.5H32.4L32.5 12.4L32.7 12.2L32.8 12.4L33 12.6L32.7 12.9L33.2 13.3L33.1 13.4V13.6V13.7V13.9L33 14.2L32.9 14.3V14.5L32.7 14.8V14.9L32.6 15.2L32.5 15.3H32.6L33 15.6L33.2 15.8H33.3V15.9L33.4 16V16.1V16.3V16.4H33.5L33.6 16.3H33.8L34 16.4V16.5L34.1 16.7H34.2L34.3 16.8L34.6 17L34.7 17.1L34.6 17.2V17.4L34.5 17.7V17.8V17.9L34.6 18V18.1L34.7 18.2L34.8 18.3L34.9 18.4L35.2 18.9L35.5 19.2L35.8 19.5L36.1 19.9L36.2 20L36.6 20.5L36.8 20.8L37.9 20.2L38 20.1L38.1 20L38.3 19.8L38.4 19.7L38.5 19.6L38.6 19.5H38.7L39 19.6L39.1 19.7L39.2 19.8L39.5 20L39.6 20.1L39.7 20.2H39.8L40 20.6H40.1V20.7H40.2H40.3H40.4H40.5L40.6 20.9L40.7 21L40.8 21.1H40.9H41H41.1L41.2 21.2H41.3L41.4 21.3L41.5 21.4V21.5H41.6L41.7 21.7L41.8 21.8L41.9 21.9V22H42L42.1 22.1L42.3 22.2L42.4 22.1L42.5 22L42.6 21.9H42.7L42.9 22L43 22.1L43.2 22.2H43.3H43.4H43.5H43.6H43.7H43.8H43.9L44 22.1H44.1H44.2H44.3H44.4L44.5 22H44.6L44.7 21.9H44.8H45V21.7L44.9 21.1V21V20.9L44.8 20.8V20.7L44.7 20.6V20.5L44.6 20.4V20.3V20.2V20.1V20H44.7H44.8V20.1H44.9V20.2L45 20.3H45.1H45.2L45.3 20.4V20.6H45.4V20.7V20.8V20.9H45.5H45.6V20.7L45.5 20.5V20.1V19.9H45.4H45.3L45.2 19.8L45.1 19.7H45H44.9V19.6L45.2 19.3V19.4H45.3V19.2H45.4H45.5H45.6H45.7H45.8V19.3L46 19.2L46.1 19.1H46.3H46.4V19.2L46.5 19.1H46.6L47 19.2H47.1H47.2H47.3V19.1L47.2 19V18.9H47.1V18.8H47L46.9 18.7V18.4H47.1H47.4H47.8H48H48.6H48.8H49.1H49.4L49.5 18.5V19.2L49.6 19.4V19.8L49.7 20.2V20.6H49.8H49.9H50V21.1L50.1 21.7L50.2 22.2V22.3V22.7V22.8V23.1L50.3 23.2V23.4V23.6V23.7V23.9V24L50.4 24.1V24.3V24.4V24.7L50.5 24.8V25V25.2L50.6 25.4V25.7L50.7 26V26.2V26.3V26.5H50.8V26.6L51.4 26.5V26.4V26.3L51.5 26.2V26.1V25.9V25.7H51.6L51.7 25.8L51.8 25.9V26L51.9 26.1V26.2H51.8L51.7 26.3H51.6V26.4H51.7H52H52.2L52.4 26.3H52.7H52.8H52.9H53.2L53.8 26.2H54H54.3L54.4 26.1L54.6 26.2H54.8V26.3V26.4H54.7H54.6V26.5V26.6V26.7L54.5 26.8V26.9H54.4V27H54.3H54.2L54.1 27.1V27.2V27.3L53.8 27.4L53.6 27.5L53.4 27.6L53.2 27.8L52.9 27.9L52.8 28L52.7 28.1L52.6 28.2L52.5 28.3V28.4V28.5L52.4 28.6H52.3H52.2H52.1V28.7H52V28.8H51.9V28.9V29V29.1V29.2H51.8V29.3L51.7 29.4V29.5H51.6V29.6V29.7H51.5V29.8V29.9H51.4L51.3 30L51.2 30.1L51.1 30.2V30.3H51V30.4L50.9 30.5V30.6L50.8 30.7V30.8V30.9V31V31.2L50.7 31.4V31.5V31.6L50.8 31.8L51 32.1L51.2 32.5L51.3 32.6L51.5 32.8L51.7 33.1H51.9H52.4L52.7 32.7L52.8 32.6V32.5L52.9 32.4L53.1 32.2V32.1H53.2V32.2H53.4L54.5 32.6V32.7V32.8V32.9M104.3 6.79999V6.70001M104.3 6.79999H104.4H104.5H104.6L104.7 6.89999L104.9 7H105L105.1 7.10001L105.2 7.20001H105.3V7.29999H105.4H105.5H105.6H105.7H105.8L105.9 7.20001H106H106.1H106.2V7.10001H106.3H106.4H106.5V7.20001H106.6V7.29999V7.39999L106.7 7.5V7.60001V7.79999L106.8 8.39999L107 9.10001L108 9.20001L109.1 9.39999V10.1V10.2H109L108.9 10.3L107.6 10.6V10.4H107.7V10.3H107.6V10.2H107.5V10.1H107.4H107.3V10H107.2H107.1L107 9.89999H106.9V10V10.2V10.3L107 10.4H107.1H107.2V10.5H107.3H107.4L107.5 10.6L107.4 10.8L107 10.7H106.8L106.5 10.6H106.4H106.3H106.2H106.1H105.9H105.8H105.7L105.4 10.9V11L105.3 11.5L104.9 11.4L104.6 11.3L104.5 11.2H104.1L103.6 11.1V11.2H103.7V11.3V11.4L103.6 11.5L103.4 11.9V12L103.3 12.1L103.2 12.3H103.1H103L102.9 12.4V12.5V12.6H102.8H102.7H102.5L102.3 12.7H102.2V12.6H102.1H102V12.5V12.4L101.9 12.5L101.8 12.6H101.7L101.6 12.7L101.5 12.8L101.9 13.2L102.5 13.7L102.7 13.6L102.8 13.5V13.4H102.9L103.3 14.2L103.4 14.6H103.5L103.8 15.3L104 15.7V15.8H103.9L104 16.1L104.1 16.2V16.3L103.9 16.4L103.5 16.6L103.2 16.7L102.6 16.9L102.5 17V17.1L102.6 17.2L102.7 17.4V17.5L102.9 17.9L103 18.1V18.2H103.1L103.3 18.6L103.5 19.1L103.6 19.3H103.5V19.4V19.5L103.6 19.6H103.5V19.7V19.8V20.1V20.4L103.7 20.5L103.8 20.6L104.1 20.7L104.7 21.2L105 21.4L105.3 21.6L105.9 22.3L106.3 22.8L106.4 23L106.6 23.2H106.5V23.3H106.4V23.4H106.3V23.5H106.2V23.6H106.1V23.7V23.8L106.2 24V24.2V24.3V24.4L106.3 24.6L106.5 25.9V26L106.6 26.4V26.5L106.7 27.1L106.8 27.6V27.9V28L106.9 28.2V28.4L107 28.6V28.7V28.8V28.9L107.1 29V29.5L107.2 29.8V30L107.3 30.2V30.3V30.4V30.6L107.4 30.7V30.9V31L107.5 31.2L107.6 31.6L107.8 32.2L107.9 32.3V32.2H108.1H108.4L108.6 32.1L109.2 32L110.2 31.8H110.3L110.8 31.7L111.7 31.5L112.2 31.4L112.4 31.3V31.4L112.6 32.3V32.8L112.7 33L113.1 32.9V33L113.2 33.6L113.3 33.7V33.8H113.1H112.9L112.8 33.9H112.7H112.6H112.3H112.1V34.2L112.3 35L112.4 35.6L112.5 35.9H112.2L111.9 36H111.6L111.5 36.1H111.2L111.1 36.4H111L110.8 36.5H110.7V36.7L110.8 37V37.1L110.9 37.7L111 38.2V38.4H111.1L111.2 38.9L111.3 39.4L111.4 39.9V40L111.7 41.2L111.8 41.8L111.9 42.3L112 42.5V42.6L111.8 42.7L111.9 43.2L112 43.8L112.1 44.3L112.2 44.9L112.3 45.4L112.5 45.3L113.1 45.2L113.6 45.1L114.5 44.9V45.1L114.6 45.3L114.7 46L114.8 46.6L116.3 46.3L117.8 45.9L119 45.7L119.3 45.6V46L119.7 45.9H120.1H120.2L120.7 45.7L121.2 45.5H121.3L122 45.3L122.1 45.6V45.8L122.3 46.1L122.9 45.9L123.2 45.8L123.8 45.6L124.4 45.4H124.6L124.7 45.9V46.2V46.4V46.6L124.3 46.7V47V47.5L124.4 47.6V47.9H124.8L126 47.8H126.5V47.7L126.7 47.6L127 47.5L127.2 47.4L127.3 47.3H127.4L127.3 46.7L127.1 45.9L126.9 45.1V45L127.3 44.9H127.7L128.5 44.8L129.2 44.6H129.3L129.5 44.5L130.3 44.4L130.6 44.3H130.8L130.9 44.6L131 44.8V44.9V45.2H131.1L130.9 45.3H130.5V45.4L130.4 45.5V45.6V45.7L130.5 46.1L130.2 46.2V46.5V46.6L130.1 46.7V46.9L130.3 47.5V47.7V47.9L130.4 48.1H130.1L130.2 48.5L130.3 48.8L130.4 49.1L130.2 49.2H130L129.8 49.3H129.7H129.6L129.3 49.4H129.1L128.9 49.5H128.7V49.8L128.9 50.3L129 50.9V51H129.1V50.9H129.2V51L129.3 51.2V51.3H129.4H129.5V51.4H129.6V51.5H129.7L129.8 51.4H129.9H130V51.5V51.7V51.8L130.1 52L130.6 51.9L130.7 51.8L130.9 51.7L131.4 51.4H131.6L131.7 51.9L132.1 51.8H132.2H132.6L132.9 51.7V51.9L133.1 52.5L133.2 52.7L133.4 52.6L133.6 52.5L134.1 52.4H134.2L135 52.2L135.3 52.1L135.4 52.8V52.9H135.2L135.3 53V53.1L135.4 54L135.5 54.5L135.6 54.7V54.9L134.9 55L134.1 55.2L134.2 55.6L134.3 56.1L134.4 56.7H134.2L134.6 58.7L134.8 59.6H134.7H134.4H134.3H133.9V59.9V60.3L134 60.9V61.1V61.3L135.1 61.1H135.3L135.8 60.9L135.9 61.2V61.4V61.5L136 61.8L136.1 62.3V62.6L135.2 62.8L135.3 63.3L135.4 63.8V64V64.1V64.2L135.5 64.4V64.6V64.8L135.6 65.1V65.3L135.7 65.4L135.8 65.9H136.4H136.5L136.9 67L136.6 67.1L135.9 67.2L136 67.5L135.2 67.7L134.8 67.8L134.9 68.3L135 68.7L135.1 69L135.5 68.9L136 68.8H136.1L136.5 70.2L136.6 70.7V71.1L136.7 71.4L136.8 71.8V71.9V72H136.9L137.3 71.9H137.4L138.1 71.8L139.2 71.5L140.2 71.3L141.1 71.1H141.5L141.3 71.8L141 72.6H141.1L141.2 72.7L141.5 72.6L141.9 72.5L142 73.1L142.2 73.8L142.4 74.5L142.5 74.8L143.8 74.6H143.9V74.5L144.7 74.4L145 74.3L145.6 74.2L145.5 73.8L146 73.7L146.6 73.6L147.1 73.5L147.5 73.4H147.6L148.7 73.1L149.5 73L150 72.9L150.1 72.8L150.4 73.5L150 73.6L150.1 74.2L150.2 74.6V74.7H150.3V74.8V74.9L150.5 75.9V76.1L150.1 76.2L148.9 76.4L149 77.2L149.2 78L149.3 78.7L149.4 79.1L148.4 79.4L147.7 79.5L147.5 78.6L147 78.7L147.2 79.7L147.4 80.3H146.9L147 80.9V81.1H147.3L148 80.9L148.1 81.3L148.9 81.1L149.5 81L149.7 80.9H149.8L149.9 81H150.2H150.4H150.9L151.2 81.1H151.4H151.5L151.6 80.8L151.7 79.9L152.7 79.7L154 79.4L154.1 80.1L154.6 80L155.1 79.9L155.2 80.3L155.3 80.7V80.8L155.7 82.6L155.9 83.7L156 84.2L156.2 85V85.1V85.2L156.3 85.5V85.7L156.4 85.8L156.6 86.2L156.8 86.4L156.3 86.5L156.4 86.7L156.5 87V87.4L156.6 87.7V87.8L156.7 88.2V88.3L156.8 88.4L156.9 88.8V89V89.1L156.4 89.2V89.3L156.5 89.7L156.6 90.2L156.1 90.3L156.2 90.7L155.5 90.9H155.3L155 91L154.9 90.5L153.4 90.8V90.9L153.1 91V91.1L153.2 91.2L153.4 92L153.5 92.4V92.6L153.6 92.8L153.7 93L153.8 93.1V93.2H153.7H153.6L152.8 93.4L152.4 93.5H152.1L151.6 93.6L151.5 93.7H151.3L149.3 94L149.1 94.1L148.6 94.2L148.4 93.4L147.8 93.5L147 93.6L146.9 93.7L145.9 93.9L146.1 94.5L145.7 94.6L144 94.8L143.5 94.9L143.2 95L142.9 95.2H142.8H142.7H142.6H142.5H142.4V95.3V95.4L142.3 95.5V95.6V95.8L142.2 96V96.2V96.3V96.4L142.3 96.5L142.4 96.7L142.6 97L142.7 97.2L142.8 97.3L142.9 97.4L143.1 97.5L143.2 97.6L143.3 97.7L143.4 97.9L143.5 98.1V98.3L143.6 98.4V98.5V98.6V98.7V99V99.2V99.6V99.7V99.9V100L143.7 100.1H143.8L144 100H144.1L144.3 100.1H144.5H144.7L144.8 100.2H144.9L145 100.3L145.2 100.5L145.6 100.8L145.9 101L146 101.1L146.2 101.2L146.3 101.3L146.4 101.5L146.5 101.7L146.6 101.8V101.9H146.7L146.8 102.1V102.3L146.9 102.5V102.6V102.7V102.9V103.1V103.3L147 103.4L147.1 103.5V103.6V103.8L147.2 103.9V104V104.1H147.3L147.5 104H147.7H147.9H148.2H148.5L148.7 104.1L148.9 104.2H149L149.2 104.4L149.3 104.6L149.4 104.7V104.8L149.5 105.1V105.2V105.4L149.4 105.9L149.3 106.4L149.2 106.7V106.8V107.1V107.2V107.4V107.5V107.7L149.3 107.9V108L149.5 108.2L149.8 108.6L150 108.9L150.1 109.2L150.3 109.4L150.4 109.5L150.5 109.6V109.7V109.8L150.4 109.9L150.2 110.2L150.1 110.4V110.5L149.8 110.8L149.5 111.1L149.3 111.3V111.4L149.2 111.5V111.7L149.3 112.1V112.4L149.4 112.7V112.9L149.5 113.2L149.6 113.4L149.7 113.5L149.9 113.6L150.5 114L150.6 114.4L150.5 114.9V115.2V115.5V115.8L150.6 116.1V116.3L150.7 116.5V116.8L150.8 117V117.1V117.2L150.9 117.4H151L151.4 117.6H151.5V117.7H151.4L151.3 117.8V117.9H151.2L150.9 118H150.8L150.6 118.1L150.4 118.2V118.3V118.4V118.5H150.5H150.6H150.8H150.9H151H151.1V118.6V118.7H151V118.8V118.9H151.1V119V119.1H151V119.2H150.9L150.8 119.3L150.7 119.4H150.6V119.5H150.5V119.6H150.4V119.7V119.8V119.9V120H150.3H150.2H150.1H150H149.9V120.1H149.8H149.7H149.6H149.4L149.3 120.2H149.2H149.1H149L148.9 120.3H148.8H148.7L148.6 120.4H148.5V120.5H148.4V120.6H148.3V120.7H148.2V120.8H148.1H148H147.9H147.8H147.7H147.6H147.5H147.4H147.3L147.2 120.9H147.1H147H146.9H146.8H146.7H146.6L146.5 121H146.4H146.3L146.2 121.1H146.1H146H145.8L145.7 121.2H145.6H145.5V121.3H145.4H145.3H145.2H145.1H145V121.4H144.9H144.8H144.7V121.5H144.6H144.5L144.4 121.6H144.3H144.2L144.1 121.7H144H143.9H143.8H143.7V121.8H143.5H143.4L143.3 121.9H143.2H143.1M143.1 121.9V122M143.1 121.9H143H142.9L142.8 122H142.7M142.7 122V122.1M142.7 122H142.6H142.5V122.1H142.3H142.2H142.1V122.2H142V122.3H141.9V122.4H141.8V122.5H141.7H141.6H141.5L141.4 122.6H141.3L141.2 122.7H141.1L141 122.8H140.9H140.8H140.7V122.9H140.6H140.5L140.4 123H140.3H140.2H140.1V123.1H140H139.9H139.8H139.7L139.6 123.2H139.5H139.4H139.3V123.3H139.2M139.2 123.3V123.4M139.2 123.3H139.1L139 123.4H138.9H138.7L138.5 123.5H138.2H138.1H138V123.6H137.9H137.8H137.7V123.7H137.6L137.5 123.8H137.4V123.9H137.3H137.2H137.1L137 124H136.9H136.8H136.7H136.6L136.5 124.1H136.4H136.3H136.2V124.2H136.1V124.3H136V124.4H135.9H135.8V124.5H135.7H135.6H135.5V124.6H135.4H135.3V124.7H135.2H135.1V124.8H135V124.9H134.9V125H134.8H134.7V125.1H134.6H134.5V125.2H134.4H134.3V125.3H134.2H134.1H134H133.9H133.8V125.4H133.7H133.6V125.5H133.5H133.4V125.6H133.3H133.2V125.7H133.1H133H132.9H132.8V125.8L132.7 125.7V125.8H132.6H132.5V125.7H132.4V125.6V125.5L132.3 125.4H132.2V125.3H132.1V125.2H132M132 125.2V125.3M132 125.2H131.9V125.1H131.8H131.7H131.6H131.5H131.4H131.3H131.2H131.1H131H130.9V125.2H130.8H130.7H130.6L130.5 125.3H130.4H130.2V125.4H130L129.9 125.5H129.8H129.7V125.6H129.6L129.5 125.7L129.4 125.8H129.3L129.2 125.9L129.1 126L129 126.1H128.9L128.8 126.3V126.4L128.7 126.5H128.6L128.5 126.7V126.8H128.4L128.5 126.9L128.4 127V126.9L128.3 127.1V127.2L128.2 127.3V127.4H128.3V127.5L128.2 127.7V127.9L128.1 128.1V128.2V128.3L128.3 128.4V128.5V128.6H128.2V128.7H128.1L128 128.8V128.9V129.1H128.1V129.2V129.3V129.4V129.5H128.2V129.6H128.3H128.4V129.7H128.5L128.6 129.8L128.8 129.9L128.9 130L129 130.1H129.1V130.2H129.2L129.3 130.1L129.4 130L129.6 130.8V130.9H129.7V131V131.1V131.2V131.3V131.4V131.5L129.6 131.6V131.7V131.8V131.9V132V132.1L129.7 132.3L129.8 132.4V132.5V132.6V132.7M129.8 132.7H129.9M129.8 132.7V132.8V132.9H129.9V133H130V133.1V133.2V133.3V133.4V133.5V133.6V133.7M130 133.7H130.1M130 133.7V133.8V133.9V134V134.1V134.2H129.9V134.3V134.4V134.5H129.8V134.6V134.7M129.8 134.7H129.7M129.8 134.7V134.8V134.9H129.9L129.8 135V135.1V135.2M129.8 135.2H129.7M129.8 135.2V135.3L129.7 135.4L129.6 135.5H129.5V135.6V135.7V135.8H129.4V135.9V136V136.1V136.2V136.3H129.3V136.4V136.5H129.2V136.6V136.7L129.1 136.8V136.9H129.2L129.1 137V137.1V137.2V137.3V137.4H129V137.5V137.6V137.7L128.9 137.8V137.9V138V138.1V138.2V138.3H129V138.4V138.5H128.9H128.8L128.6 138.7L128.5 138.6H128.4L128.3 138.7V138.8H128.2V138.9H128.1H128V139H127.9V139.1H127.8M127.8 139.1V139.2M127.8 139.1L127.7 139.2V139.3H127.6L127.5 139.4L127.4 139.5L127.3 139.6H127.2L127.1 139.7V139.8H127V139.9H126.9V140V140.1H126.8V140.2L126.7 140.3V140.4H126.6V140.5H126.5V140.6H126.4V140.7L126.3 140.8M126.3 140.8L126.4 140.9M126.3 140.8V140.9L126.2 141M126.2 141H126.3M126.2 141V141.1H126.1V141.2V141.3H126V141.4L125.9 141.5V141.6H125.8V141.7L125.7 141.8L125.6 141.9L125.5 142.1L125.4 142.2V142.3L125.3 142.4V142.5V142.6L125.2 142.8L125.4 142.9L125.2 143.3V143.4H125V143.5H124.9V143.6L124.8 143.8L124.7 144L124.6 144.1L124.5 144.3V144.4V144.5V144.6V144.7V144.8M124.5 144.8H124.6M124.5 144.8V144.9H124.4H124.3L124.2 145L124.1 145.1V145.2H124V145.3L123.9 145.4V145.5L123.8 145.6V145.7L123.7 145.8L123.5 146.3V146.4L123.4 146.5V146.6V146.7H123.3V146.8V146.9H123.2V147V147.1L123.1 147.2V147.3L123 147.4V147.5V147.6H122.9V147.7V147.8H122.8V147.9V148H122.7V148.1V148.2H122.6V148.3V148.4H122.5V148.5L122.4 148.6V148.7L122.3 148.8V148.9H122.2V149V149.1H122.1V149.2L122 149.3V149.4H121.9V149.5L121.8 149.6L121.7 149.7L121.6 149.8V149.9L121.5 150L121.4 150.2L121 150.7L120.9 150.9L120.8 151L120.7 151.1V151.2H120.6V151.3V151.4L120.5 151.5V151.6H120.4V151.7V151.8H120.3V151.9V152H120.2V152.1V152.2H120.1V152.3V152.4V152.5H120V152.6V152.7V152.8H119.9V152.9V153V153.1H119.8V153.2V153.3V153.4H119.7V153.5V153.6H119.6V153.7V153.8L119.5 153.9V154V154.1H119.4V154.2L119.3 154.3V154.4V154.5H119.2V154.6H119.1V154.7H119V154.8V154.9H118.9V155H118.8V155.1H118.7V155.2H118.6V155.3H118.5V155.4L118.4 155.5L118.3 155.6L118.2 155.7H118.1V155.8L118 155.9H117.9V156H117.8V156.1H117.7V156.2H117.6L117.5 156.3H117.4V156.4H117.3V156.5H117.2V156.6H117.1V156.7H117V156.8L116.9 156.9V157H116.8V157.1L116.7 157.2V157.3L116.6 157.4V157.5V157.6H116.5V157.7V157.8V157.9H116.4V158V158.1H116.3V158.2V158.3H116.2V158.4H116.1V158.5V158.6H116V158.7H115.9V158.8H115.8V158.9V159H115.7V159.1L115.6 159.2V159.3L115.5 159.5V159.6L115.4 159.7V159.8V159.9L115.3 160L115.2 160.1L115.1 160.2M115.1 160.2V160.1M115.1 160.2H115H114.9H114.8V160.3L114.7 160.4H114.8H114.9V160.5L114.8 160.6V160.7H114.7H114.6V160.8H114.5V160.9H114.4L114.3 161H114.2V161.1H114.1V161.2H114V161.3L113.9 161.4H113.8V161.5H113.7V161.6H113.6V161.7H113.5V161.8L113.4 161.9L113.3 162H113.2V162.1L113.1 162.2H113V162.3L112.9 162.4L112.8 162.5H112.7V162.6L112.6 162.7L112.4 162.9L112.3 163.1L112.1 163.3L112 163.5L111.8 163.7L111.7 163.8L111.6 163.9V164L111.4 164.1L111.3 164.2L111.2 164.4L110.8 164.9L110.2 165.5L109.7 166.1L109.4 166.4L109.3 166.5L109.2 166.6L109.1 166.7L109 166.8V166.9L108.9 167L108.8 167.2L108.6 167.4L108.5 167.5V167.6L108.3 167.7V167.8L108.1 168L108 168.2L107.9 168.3L107.7 168.5L107.6 168.7H107.5V168.8L107.4 169L107.3 169.1H107.2V169.2L107.1 169.4H107V169.5V169.6H106.9L106.8 169.7V169.8L106.5 170.2L106.3 170.5L106.2 170.6L106 170.9V171L105.9 171.1L105.8 171.3L105.7 171.4L105.6 171.5L105.5 171.6L105.4 171.8L105.3 171.9V172L105.2 172.1H105.1L105 172.3L104.8 172.5L104.7 172.7L104.6 172.9L104.4 173.1L104.2 173.3L104 173.6L103.7 174L103.4 174.3L103.2 174.6L103 174.8L102.8 175L102.5 175.3V175.4L102.3 175.6L102.1 175.8L101.9 176L101.7 176.1L101.3 176.4L101.1 176.6L100.9 176.8L100.5 177.1L100.2 177.3L99.9 177.6L99.4 177.9L99.1 178.2L98.8 178.3L98.5 178.5L98.4 178.6H98.3V178.7H98.2V178.8H98.1H98L97.9 178.9L97.8 179L97.7 179.1L97.6 179.2L97.4 179.3L97.2 179.4L97.1 179.5L96.8 179.7L96.6 179.9H96.5L96.4 180L96.2 180.2L96 180.4H95.9L95.7 180.6L95.6 180.7L95.4 180.9L95.1 181.1L94.8 181.4L94.6 181.5L94.3 181.9L94.1 182L93.8 182.3L93.5 182.6L93.2 182.9L92.8 183.3L92.4 183.6L92.3 183.8L91.8 184.2L91.5 184.4L91.2 184.8H91.1L90.6 185.1L90.3 185.5L90 185.7L89.8 185.9L89.4 186.2L89.3 186.3L89.1 186.5H89L88.9 186.6L88.8 186.7L88.5 186.9L87.8 187.5L87.5 187.7L87.1 187.9L86.7 188.3L86.6 188.4L86.2 188.7L86.1 188.8L85.2 189.6L84.6 190.2L84.1 190.7H84H83.9V190.8L83.7 190.9L83.2 191.3L82.9 191.6L82.6 191.8H82.5L82 192.1L81.4 192.6L80.9 193L80.4 193.3L80.1 193.6H80L79.8 193.8H79.7H79.6V193.9H79.5L79.2 194.1L79.1 194.3H79L78.9 194.4L78.8 194.5L78.7 194.6H78.6L78.5 194.7H78.4L78.3 194.9L78 195.1L77.8 195.3L77.4 195.6L77.3 195.7L77.2 195.8L77 196L76.8 196.2L76.6 196.3L76.5 196.4L76.3 196.6L76.2 196.7L76.1 196.8L75.9 196.9L75.8 197.1L75.6 197.3L75.3 197.6L75.2 197.8L75 198.1L74.8 198.3L74.7 198.4L74.6 198.5L74.5 198.7L74.4 198.8L74.3 198.9L74.2 199L74.1 199.1H74V199.2L73.8 199.4L73.7 199.5L73.6 199.6V199.7L73.5 199.8L73.4 199.9V200L73.3 200.1V200.2L73.2 200.3L73.1 200.5L73 200.6V200.7H72.9L72.8 200.8L72.7 200.9V201H72.6V201.1H72.5V201.2H72.4V201.3L72.3 201.4V201.5L72.2 201.6V201.7L72.1 201.8V201.9V202V202.1V202.2V202.3H72L72.1 202.4V202.5V202.6L72.2 202.8V202.9L72.3 203V203.1M72.3 203.1H72.4V203.2H72.3V203.1ZM72.3 203.1H72.2M72.2 203.1V203M72.2 203.1L72.1 203M72.1 203V202.9M72.1 203H72V202.9H72.1M72.1 203V203.1V203.2H72V203.3H71.9V203.2V203.1H71.8V203M72.1 202.9V202.8M71.8 203H71.7M71.8 203V202.9H71.7V203M71.7 203L71.6 203.1V203.2V203.3V203.4V203.5H71.7V203.6V203.7M71.7 203.7H71.8V203.8H71.7V203.7ZM71.7 203.7H71.6V203.6L71.5 203.5H71.4V203.4H71.5V203.3H71.4V203.2H71.5V203.1H71.4L71.5 203H71.4V202.9M71.4 202.9H71.5V202.8H71.4V202.9ZM71.4 202.9H71.3L71.2 203V203.1L71.1 203.2V203.3V203.4V203.5H71.2V203.6L71.3 203.7L71.4 203.8L71.5 203.9V204H71.6V204.1H71.7M71.7 204.1V204.2M71.7 204.1H71.8V204.2H71.9V204.1H72H72.1V204V203.9H72.2V203.8V203.7H72.3V203.8H72.4H72.5V203.9H72.6V204H72.5V204.1H72.4V204.2H72.5V204.3V204.4V204.5H72.6V204.6V204.7M72.6 204.7H72.5M72.6 204.7V204.8H72.7V204.9H72.8M72.8 204.9V205M72.8 204.9H72.9V205V205.1H73V205.2M73 205.2H73.1M73 205.2V205.3H73.1H73.2V205.4H73.3V205.5H73.4H73.5V205.4H73.6V205.3V205.2H73.7V205.1V205H73.8V204.9H73.9V204.8V204.7M73.9 204.7H74M73.9 204.7V204.6V204.5V204.4V204.3H73.8V204.4H73.7L73.6 204.5V204.4H73.5V204.3V204.2V204.1V204V203.9H73.6V203.8H73.7L73.8 203.7H73.9H74H74.1H74.2V203.8H74.3H74.4H74.5V203.9H74.6V204H74.7V204.1H74.8V204.2V204.3H74.7V204.4H74.6M74.6 204.4V204.5M74.6 204.4H74.5M74.6 204.5H74.5M74.6 204.5V204.6H74.5M74.5 204.4L74.4 204.5H74.5M74.5 204.4V204.5M74.5 204.5L74.4 204.6H74.5M74.5 204.5V204.6M74.5 204.6V204.7H74.6H74.7M74.7 204.7V204.8M74.7 204.7H74.8V204.8V204.9H74.9M74.9 204.9V205M74.9 204.9H75M75 204.9V205H75.1V204.9H75ZM75 204.9V204.8V204.7V204.6H75.1V204.5H75.2H75.3V204.4H75.4M75.4 204.4V204.3M75.4 204.4H75.5L75.6 204.3V204.4H75.7H75.8M75.8 204.4V204.5M75.8 204.4H75.9V204.5V204.6V204.7H76V204.8V204.9H76.1V205H76.2V204.9H76.3M76.3 204.9V205H76.4V204.9H76.3ZM76.3 204.9V204.8H76.4V204.7V204.6V204.5H76.5M76.5 204.5V204.6H76.6V204.5H76.5ZM76.5 204.5V204.4V204.3H76.4M76.4 204.3V204.4M76.4 204.3V204.2H76.3M76.3 204.2H76.2M76.3 204.2V204.1H76.4H76.5V204H76.6L76.7 203.9V203.8H76.8L76.9 203.7L77 203.6L77.2 203.5L77.3 203.4V203.3H77.4V203.2V203.1H77.5H77.6V203H77.7L77.8 202.9H77.9L78 202.8H78.1H78.2M78.2 202.8V202.7M78.2 202.8H78.3H78.4H78.5V202.7H78.6H78.7V202.8H78.6V202.9L78.5 203V203.1H78.4V203.2H78.3V203.3V203.4V203.5V203.6H78.2V203.7H78.3V203.8L78.2 203.9H78.3V204V204.1H78.4V204.2V204.3V204.4H78.5H78.6V204.3H78.7H78.8H78.9H79V204.2L79.1 204.3V204.2V204.1H79.2H79.3H79.4H79.5V204.2H79.6V204.3H79.7H79.8V204.2V204.1H79.9L80 204.2V204.3H80.1V204.4H80V204.5V204.6H79.9L80 204.7V204.8M80 204.8H80.1M80 204.8V204.9V205H80.1V205.1V205.2V205.3V205.4M80.1 205.4H80M80.1 205.4V205.5H80V205.6V205.7V205.8H79.9V205.9V206V206.1V206.2V206.3H79.8V206.4V206.5H79.7V206.6H79.6M79.6 206.6V206.7H79.5L79.6 206.6ZM79.6 206.6V206.5V206.4V206.3H79.7V206.2V206.1V206V205.9H79.8V205.8L79.7 205.7H79.8V205.6H79.7V205.5V205.4H79.6V205.5H79.5H79.4V205.6H79.3H79.2V205.7H79.1V205.8V205.9H79V206H78.9H78.8M78.8 206V205.9M78.8 206H78.7V206.1L78.8 206.2H78.7L78.8 206.3V206.4H78.9H79V206.5V206.6V206.7V206.8V206.9H79.1V207V207.1H79.2V207.2V207.3H79.3V207.4V207.5H79.2V207.6V207.7V207.8H79.3V207.9V208L79.2 208.1L79.1 208.2H79V208.1H78.9V208.2M78.9 208.2H78.8M78.9 208.2V208.3V208.4H78.8V208.5H78.9H79V208.6H79.1V208.7H79V208.8V208.9V209.1V209.2V209.3V209.4H78.9V209.5V209.6V209.7L78.8 209.9V210.1V210.3L78.7 210.4V210.5V210.6V210.8V210.9V211V211.1V211.2V211.3V211.4V211.5V211.6L78.8 211.7V211.8V211.9V212V212.1V212.2V212.3H78.9V212.4V212.5V212.6L79 212.7V212.8H79.1V212.9V213H79.2V213.1V213.2H79.3V213.3V213.4H79.2V213.5H79.1V213.4H79L78.9 213.6V213.7H79V213.8V213.9V214V214.1L79.1 214.2V214.3V214.4H79.2V214.5V214.6V214.7H79.3V214.8V214.9H79.2V215V215.1V215.2L79.1 215.3V215.4V215.5H79V215.6V215.7H78.9V215.8H78.8V215.9H78.7L78.6 216V216.1M78.6 216.1H78.5M78.6 216.1V216.2H78.7V216.3H78.6V216.4H78.5V216.5V216.6H78.4V216.7V216.8V216.9V217H78.3V217.1V217.2L78.2 217.3V217.4V217.5V217.6H78.1V217.7V217.8V217.9V218V218.1V218.2L78 218.3V218.4V218.5V218.6V218.7V218.8V218.9V219V219.1V219.2V219.3V219.4V219.5V219.6H78.1V219.7V219.8V219.9V220V220.1V220.2H78V220.3H78.1V220.4L78.2 220.5L78.3 220.6V220.7H78.4V220.8V220.9L78.5 221V221.1V221.2H78.6V221.3V221.4V221.5H78.7V221.6V221.7H78.8V221.8M78.8 221.8H78.9M78.8 221.8V221.9H78.7H78.6H78.5H78.4H78.3L78.2 221.8H78.1L78 221.7H77.9L77.8 221.6H77.7L77.4 221.8V221.9V222V222.1H77.3V222.2H77.4V222.3V222.4H77.3L77.2 222.5V222.6V222.7H77.1V222.8M77.1 222.8V222.9M77.1 222.8H77V222.9H76.9H76.8V222.8V222.7V222.6V222.5M76.8 222.5H76.7M76.8 222.5V222.4H76.7L76.8 222.3H76.7H76.6H76.5V222.2H76.4H76.3V222.1L76.2 222.2H76.1V222.3H76.2V222.4H76.1V222.5V222.6V222.7H76H75.9H75.8H75.7V222.8V222.9V223H75.8V223.1H75.7L75.6 223.2V223.1H75.5M75.5 223.1V223H75.4M75.5 223.1H75.4V223M75.5 223.1V223.2M75.4 223V222.9H75.3L75.4 223ZM75.5 223.2H75.4M75.5 223.2L75.4 223.3H75.3H75.2V223.2V223L75.1 222.9L75 222.8L74.9 222.7L74.8 222.6L74.7 222.4L74.6 222.3L74.5 222.1V222L74.4 221.9V221.8V221.7V221.6L74.3 221.5V221.4V221.3L74.2 221.2V221L74.1 220.8L74 220.7V220.6V220.5V220.4V220.3L73.9 220.2V220.1V220V219.9V219.8L74 219.7V219.6L74.1 219.4V219.3L74.2 219.2L74.3 219L74.6 218.3L74.3 215.5L74.1 215.2L74 215V214.7L73.9 214.5V214.4L73.8 214.2V214.1L73.7 213.9V213.8L73.6 213.7L73.5 213.6V213.5L73.4 213.4L73.2 213.2L73 213L72.9 212.9L72.7 212.7L72.6 212.6L72.4 212.4V212.3L72.3 212.2L72 211.8H71.9L71.7 211.5L71.5 211.2L71.3 211L71.2 210.7L71.1 210.6L70.9 210.5L70.8 210.4V210.3L70.7 210.2V210.1L70.6 210L70.4 209.9L70.2 209.8L69.6 209.4L69.5 209.3L69.4 209.2L69.2 209.1L69.1 209L68.9 208.9L68.8 208.8L68.5 208.6L68.4 208.5H68.3H68.2H68.1L68 208.4H67.8L67.6 208.3H67.5L67.4 208.2L67 208.1L66.1 207.9L65.7 207.8L65.6 207.7H65.5H65.3H65.2H65.1L64.9 207.6H64.8L64.6 207.5L64.4 207.4L64.3 207.3L64.1 207.2H64L63.9 207.1L63.8 207H63.6L63.5 206.9H63.3H63.1L62.9 206.8L62.8 206.7L62.7 206.6L62.6 206.5V206.4L62.5 206.3L62.4 206.2L62.3 206.1H62.2H62.1H62H61.8H61.7L61.6 206.2H61.5L61.3 206.3H61.2L61.1 206.4H61H60.9L60.8 206.3V206.4V206.5H60.7H60.6V206.6H60.5H60.4L60.3 206.5H60.2H60.1V206.4L60 206.3H59.9H59.8L59.7 206.4H59.6H59.4L59.3 206.5H59.2H59H58.9H58.7H58.5H58.4L58.3 206.4H58.2L58.1 206.3V206.2L57.9 206.1L57.7 205.9H57.6L57.5 205.8H57.4L57.3 205.7H57.2H57L56.9 205.8H56.8L56.6 206L56.3 206.3L56.1 206.6L56 206.8L55.8 207L55.6 207.1L55.4 207.2H55.2H55.1H54.9H54.8H54.7L54.3 207.1L54.1 207L53.9 206.9L53.8 206.8H53.7L53.6 206.7H53.5H53.4H53.3L53.2 206.6H53.1L53 206.7H52.9L52.8 206.8H52.6L52.5 206.9L52.3 207.1L52.2 207.3L52 207.5L51.9 207.6H51.8L51.7 207.7L51.5 207.8L51.4 207.9H51.3H51.2H51H50.9H50.8L50.6 208L50.4 208.1L50.2 208.2L50.1 208.3L50 208.4L49.9 208.5V208.6L49.8 208.8V209V209.1H49.7V209.2L49.6 209.3L49.4 209.4L49.2 209.5L48.9 209.6L48.7 209.8L48.5 209.9L48.3 210L48 210.1L47.7 210.2L47.5 210.3L47.2 210.4H47H46.9L46.8 210.5L46.5 210.6L46.4 210.7L46.3 210.8L46.2 210.9L46 211H45.8H45.4H45.2H45.1H45H44.9L44.8 211.1L44.6 211.3L44.5 211.5L44.3 211.6L44.1 211.7L44 211.8L43.8 211.9L43.6 212L43.5 212.1H43.3H43.2L43 212H42.9H42.8L42.7 212.1L42.5 212.2L42.4 212.3L42.3 212.5L42.2 212.6H42.1L42 212.7L41.8 212.8L41.7 212.9L41.5 213H41.3L41.2 213.1L41 213.2L40.8 213.4L40.7 213.5L40.6 213.6L40.5 213.7L40.4 213.8H40.3L40.2 213.9L40 214L39.9 214.1H39.8H39.6H39.4L39.2 214L39 214.1H38.9L38.8 214.2L38.7 214.4H38.6L38.5 214.5V214.6L38.4 214.7V214.9L38.3 215V215.1L38.2 215.2L38.1 215.3V215.5V215.6V215.8V215.9V216.1L38.3 216.3V216.5V216.6V216.8V216.9V217.1V217.3L38.2 217.4L38.1 217.5L38 217.6L37.9 217.7L37.8 217.8H37.6H37.5H37.4H37.2H37.1L36.9 217.7L36.7 217.6L36.6 217.5L36.3 217.3L36.1 217.1L36 217L35.8 216.8L35.6 216.7L35.4 216.5V216.4L35.2 216.2L35 216L34.8 215.8L34.5 215.5L34.4 215.3L34.2 215.2L34.1 215.1H34H33.8L33.6 215.2H33.3H33L32.9 215.1L32.6 215L32.4 214.8L32.2 214.6L32 214.3L31.8 214.1L31.7 214L31.6 213.8H31.4L31.2 213.7H31H30.9H30.7L30.6 213.8H30.4L30.1 214L29.9 214.2L29.7 214.3L29.6 214.4V214.5V214.6V214.7V214.8L29.7 214.9L29.8 215H29.9H30L30.1 215.1H30.2L30.4 215.2L30.5 215.3L30.6 215.4H30.7L30.8 215.5V215.6V215.7V215.8V216L30.7 216.1V216.2L30.6 216.3L30.5 216.4L30.4 216.5L30.3 216.7L30.2 216.8L30.1 216.9L30 217H29.9H29.8H29.7H29.6H29.5H29.3H29.2H29.1H29H28.8H28.7H28.6L28.5 217.1H28.4L28.3 217.2L28.2 217.4L28.1 217.5V217.7L28.2 217.8L28.3 218.2L28.4 218.4L28.5 218.6L28.6 218.7L28.7 218.8L28.8 218.9L28.9 219L29 219.2L29.3 219.3L29.6 219.5L29.8 219.7L30 219.9L30.1 220V220.1L30.2 220.3V220.4L30.1 220.5L30 220.6L29.9 220.7L29.8 220.8L29.6 220.9H29.4H29.2H29.1L28.9 221H28.6H28.4L28.1 221.1H27.9H27.8L27.7 221.2L27.5 221.3L27.2 221.4H27.1L26.9 221.5L26.7 221.7L26.5 221.8H26.2H26L25.7 221.7H25.4L25.1 221.5H25L24.8 221.4L24.6 221.3L19.9 220.2L19.2 220.1H18.9H18.6L18.4 220L18.2 219.9L18 219.7L17.9 219.6L17.7 219.5L17.4 219.3L17.1 219L16.8 218.9L16.5 218.8L16.1 218.7L15.3 218.3L14.9 218.1L14.4 217.9L14.1 217.7L13.9 217.6L13.7 217.5L13.6 217.4L13.1 217.2L12.8 217.1L12.3 216.9L12 216.8L11.8 216.7L11.4 216.6L11.2 216.5L10.8 216.3L10.6 216.2L10.2 216L10 215.9L9.60001 215.8L9.29999 215.6L8.89999 215.4L8.39999 215.2L8 215L7.70001 214.9L7.5 214.7L7.29999 214.5L7.10001 214.2L6.89999 213.8L6.70001 213.3L6.60001 213L6.20001 212.2L5.60001 211.1L5.5 210.8L5.39999 210.5L5.20001 210.3L5.10001 210.2L4.89999 209.9L4.60001 209.7L4.5 209.5L4.39999 209.3V209.2V209.1V209L4.5 208.9V208.6V208.4V208.3V208.1V208V207.9L4.60001 207.6V207.5V207.4V207.1V206.9V206.6L4.5 206.4L4.39999 206.1L4.20001 205.9L4.10001 205.6L3.89999 205.4L3.70001 205.3L3.39999 205.2L2.89999 205L2.60001 204.8L2 204.6L1.60001 204.5L1.39999 204.4H1.29999H1.20001H1.10001H1H0.899994V204.3L1 204.2V204.1L1.39999 203.4H1.5L1.60001 203.2L1.79999 202.9L2 202.6L2.29999 202.1L2.39999 201.9L2.60001 201.5L2.70001 201.4L2.79999 201.3L3.20001 200.7L3.29999 200.6L3.39999 200.5L3.70001 200.2L4 200L4.20001 199.8L4.29999 199.6L4.89999 199.2L5.10001 199L5.39999 198.7L5.60001 198.6H5.70001L6 198.7L6.39999 198.9L7.10001 199.2L7.5 199.4L7.70001 199.5L8.10001 199.6L8.29999 199.7L8.39999 199.8L8.79999 199.9L8.89999 200L9.29999 200.2L9.70001 200.3L9.89999 200.4H10L10.3 200.6H10.4L10.6 200.7L10.7 200.8H10.9L11 200.9H11.1L11.2 201L11.3 200.9V200.8H11.4V200.7V200.5H11.5V200.2V200.1L11.6 200V199.9L11.7 199.8V199.9V200.2L11.6 200.3V200.4H11.7V200.5H11.6V200.6V200.7V200.8L11.7 200.9V201V201.1V201.2V201.3V201.4V201.5V201.6V201.7V201.8V201.9V202V202.1V202.2V202.3V202.4H11.6V202.5H11.7V202.6L11.8 202.7V202.8V202.9V203H11.9L12 202.9H12.1H12.4L12.7 202.8L13.1 202.7L13.4 202.6L13.8 202.5H14.2L14.7 202.3L15.3 202.2L16.2 202L16.1 201.9V201.7L15.9 200.8L15.3 198.2L15 196.9V196.8L15.5 196.7L16.3 196.5L17.1 196.3L17.6 196.2L17.4 195.1L17 193.7L16.2 190.1H16.1L15.7 190.2L15 190.4H14.8H14.7L14.6 190.5L14.5 190.1V190V189.9V189.8V189.7V189.6V189.3L14.4 189.2V189.1H14.5V189V188.9V188.8V188.7H14.6V188.6L14.7 188.5L14.8 188.4H14.9H15V188.3L15.1 188.2L15.2 188.1L15.3 188L15.4 187.9V187.8L15.6 187.6V187.5L15.7 187.2L15.8 187.1V187L15.9 186.8V186.7V186.6L16 186.4V186.3V186.2V186V185.9L16.1 185.8V185.7V185.6L16.2 185.5V185.3L16.3 185.2V185.1V185V184.9H16.4V184.8H16.5H16.6H16.7V184.9L16.9 185L17 185.1H17.1H17.2H17.3L17.5 185H17.9L18.1 184.9H18.2H18.3L18.4 185.1L18.5 185.3L18.6 185.5V185.6H19L19.4 185.5L19.6 185.4H19.8V185.5L19.9 185.4L20.1 185.2L20.2 185.1V185V184.9V184.7L20.1 184.3V184L20 183.7V183.6L19.9 183.4L19.8 183.1V183L19.7 182.9L19.6 182.8V182.7L19.4 182.5L19.8 182.3H20L20.1 182.4H20.2L20.5 182.5H20.7H20.8L21.2 182.7H21.4H21.5L21.6 182.8H21.7L22.5 182.6L24.3 182.2L24.9 182L26 181.8L25.8 181.2L25.7 180.7L25.6 180.1L25.3 179.1V179H25.7L26 178.9L26.5 178.8L27.3 178.6L28.1 178.4H28.2L28.9 178.2H29L29.6 178H29.8L29.6 176.9L29.3 175.9L29.2 175.1L29.1 174.7L29 174.2L28.8 173.5L28.7 173L28.3 171.1V171H28.4H28.5L28.6 170.9V170.8L28.7 170.7V170.6V170.5L28.6 169.8L28.4 168.9L29.5 168.7L29.4 168L29.9 167.8L30.7 167.6L31.3 167.5L32.6 167.2H32.8L33.1 167.1L33.5 167L34.1 166.9L34.7 166.7H34.9H35.1L35.6 166.5L36 166.4L37 166.2H37.1L37.9 166L38.1 165.9H38.2L38.8 165.8L39.1 165.7L39.4 165.6H39.6L39.7 165.2L39.8 165.1V165L40.1 164.3L40.3 163.8L40.6 163.1L40.7 162.8L40.8 162.5L40.9 162.2L40.8 162.1L40.1 161.3L39.5 160.6L39 160L38.1 159L39 158L39.6 157.2L39.9 156.8L40.1 156.5L40.5 156L41 155.4L41.2 155.2L41.7 154.6L41.8 154.4L41.9 154.3L42.3 153.8L42.4 153.7L42.5 153.5L42.9 153.1L43 153L44 151.6L43.7 151.3H43.6L43.5 151.2L43.4 151.1L42.3 150.3L41.6 149.7V149.6L41.4 149.5L41 149.2L40.8 149L40.6 148.9L40.1 148.5L39.7 148.1L38.6 147.3H38.5V147.2L38.3 147.1L38.1 146.9V146.8L38.2 146.4H38.3V146.3L38.4 146.2L38.5 145.8L38.7 145.5L38.8 145.2L39 144.8L39.2 144.3L39.3 143.9H39.4V143.8L39.5 143.6L39.6 143.4L39.8 142.8L39.9 142.7V142.6L40.3 141.7V141.6L40.2 141.3L40 141V140.9L39.9 140.8L39.7 140.2L39.6 139.9L39.4 139.5L39.3 139.2L39.2 138.9L39 138.6L38.9 138.4V138.2L38.8 137.9L38.7 137.6L38.4 136.8V136.5L38.2 136.2L38 135.6L37.9 135.2L37.8 134.7L37.7 134.5V134.4L37.6 134.1V133.8L37.5 133.3V132.9H37.4L37.3 132.7L37.1 132.5H37.2H37.4L37.9 132.4H39L39.8 132.3H40.6H40.9L41.4 132.2L41.9 132.1V131.8V131.3V131.2L41.8 131.1V130.8L41 130.9H40.7H40.1V131H39.9L39.7 130.9L39.5 130.7L39.6 130.5V130.4L39.7 130.2H40.1L40.3 130.1H40.8H40.9H41.3H41.4H41.8L42 130H42.3V129.8H42.6V129.2V128.9H42.7H42.8H43.3H43.5H43.8V128.8V128.6V128.5L44.1 128.4H44.5H44.6H44.7H44.8H45.2H45.6L48.2 128.3H48.4L48.9 128.2V127.5L48.8 127.4V127.3V126.9V126.8V126.1L50.1 125.8L50.6 125.6H50.7L52.2 125.2H52.3L52.4 125.1H52.5V125.3V125.4L52.6 125.5V125.7V126.1V126.6L52.7 127.5V127.9V128.4V128.7L52.8 128.9L52.7 129L52.8 129.2V129.3V129.4H53.1L53.2 129.3V129.4L53.3 129.6L53.4 129.9L53.5 130.4L53.3 130.6L53.1 130.8L52.9 131L52.6 131.3L51.7 132L51.9 132.2L52.2 132.4V132.5V133.1L52.3 133.6V134V134.1V134.2L52.4 134.4V134.5L52.6 134.7L52.7 134.8L52.9 135L53 135.1L53.1 135.2V135.3V135.4H53V135.5V135.6H52.9L52.8 135.8L52.7 135.9H52.6L52.2 136.4L52 136.6L51.8 136.8L51.6 137.1L51.1 137.7V137.8L51.4 137.9L52.8 138.4L53.5 137.8L53.6 137.7L53.9 137.3L54.1 137.2V137.1V137L54 136.9V136.8L54.1 136.7L54 136.6V136.5H53.9V136.4H54L53.9 136.3L54 136.2L54.4 136.1L54.8 135.8L55.6 135.4L55.7 135.6L55.9 136.1L57 135.6L56.8 135.1L56.7 134.9L56.5 134.4L56.4 134.2L56.2 133.7L56.1 133.4L56.7 133.2L56.6 132.8L56.5 132.7L56.4 132.6V132.5V132.4L56.3 132.3V132.1L56.2 131.9L56.5 131.8L57.1 131.5H57.2L57.6 131.3L57.4 130.9L57.6 130.8L57.7 130.7L57.5 130.2L57.4 129.9V129.7L57.5 129.5H57.6L58 129.2L58.3 129.1H58.4L58.5 129.3V129.4L58.6 129.5V129.7L58.7 129.9L59.2 130.9L59.5 131.7L59.6 131.9L59.7 132.3L59.8 132.4H59.6L60.5 134.6L60.6 134.8H60.8L60.5 134.1L60.1 133.3H60.2L60.4 133L60.6 132.7L60.9 132.3H61L61.2 132.1L61.4 131.8L62.4 130.5L62.5 130.4L62.9 129.8L63 129.7L63.2 129.5L63.5 129.7L63.7 130L63.9 130.1L64 130.2L64.1 130.3L64.2 130.4L64.3 130.5L64.5 130.7L64.6 130.8L64.7 130.9L64.8 131L65.1 131.4L65.8 132L66 132.2V132.3L65.6 132.8L65.1 133.3V133.4L65.3 133.9V134L65.4 134.2V134.3L65.5 134.4L65.7 134.6L65.9 134.8L66.1 134.9L66.2 135H66.3L66.6 135.1H66.7H66.8L69.2 135.5L69.9 139.5L70.9 139.4L71.1 140.1L71.4 140H71.5L72.1 139.9L72.8 139.8L73.8 139.7L74.2 139.6L74.7 139.5H74.8V139.4V139.3V139.2V138.9L74.7 138.7V138.6L74.6 138V137.9L74.4 137V136.7V136.4L74.3 136.1V136L74.1 134.8L73.9 134.1L74 134H74.1L74.8 133.6L74.9 133.9L75 134.4H75.1L75.2 134.3V134.5V134.8L75.3 134.7H75.6L76 134.5H76.1H76.3L76.7 134.4L76.8 134.3L77.7 134.1L77.5 133.8L78.1 133.5L78 133.4L77.6 132.6L77.4 132.1L77.3 131.8L77.8 131.5V131.4H77.9H78H78.2L78.4 131.5L78.5 131.6L79.4 132.8L79.8 132.7L80.5 135.1L80.3 135.2L80.7 135.6H80.8L80.9 135.5L81.4 136.1L82.1 137L82 137.1L81.6 137.5L81.3 137.7L83.2 138.9L83.5 139L83.8 139.2H83.9L84.3 139.4L84.5 139.6L85.6 140.1L85.5 139.7L85.3 138.8L86.1 138.1L87.2 137.3L87.5 137L88 136.7L88.1 136.8L88.3 136.9L88.6 137L89.5 137.4L90.3 137.8L90.5 137.9L90.8 137.6L90.9 137.5V137.4L91 137.5L91.3 137.6L92.2 137.9L92.5 137.8L94 136.8L94.7 136.9L95.2 137.4L95.3 137.5L95.5 137.7V137.8L95.6 137.9L95.8 137.8L96.1 137.6L96.4 137.4H96.5L96.7 137.2L97.2 137L98.4 136.3L98.8 136.1L99.3 135.7L99.2 135.6V135.5V135.3V135.1V135V134.9V134.8V134.7L99.1 134.6H99H98.9H98.8H98.7L98.6 134.7V134.8V134.9V135.1V135.2V135.3V135.4V135.5H98.5V135.6L98.4 135.7L98.3 135.8L98.2 135.9H98.1H98H97.9H97.8H97.7V135.8H97.6V135.7H97.7L97.8 135.6H97.9V135.5V135.4L97.8 135.3H97.7L97.6 135.1H97.5L97.4 134.9L97.3 134.8L97.2 134.7L97.1 134.6L97 134.5H96.9L96.8 134.4H96.7H96.6V134.5V134.6L96.5 134.7H96.4V134.6H96.3V134.4L96.2 134.2V134.1L96.1 134V133.9H96V133.8H95.9H95.8H95.7L95.6 133.9H95.7V134L95.8 134.1L95.9 134.2L96 134.3V134.4V134.5H96.1V134.6V134.7H96V134.8H95.9V134.9H95.8V134.8H95.7V134.7L95.6 134.6V134.5V134.4V134.3H95.5V134.2H95.4H95.3H95.2H95.1V134.3V134.4V134.5V134.6V134.8V134.9V135H95L94.9 134.9H94.7V134.8H94.6H94.5H94.3H94.2H94.1H94V134.7H93.9V134.6V134.4V134.2V134.1L94 134L94.2 133.9L94.3 133.8V133.7H94.4L94.3 133.6H94.2L93.9 133.5H93.6H93.5H93.4H93.3L93.2 133.6H93.1H92.9H92.8L92.7 133.7H92.6H92.5L92.4 133.6H92.3H92.2V133.5V133.4V133.3L92.3 133.2V133.1L92.4 133V132.9V132.8H92.3V132.7H92.2H92H91.9H91.8H91.7L91.6 132.8H91.5L91.4 132.7H91.3L91.2 132.6L91.1 132.5L91 132.4H90.9V132.3L90.8 132.2L90.7 132.1L90.8 132L91 131.9H91.2H91.3H91.6H91.7H92H92.1H92.2V131.8V131.7V131.6V131.5H92.1H92V131.4H91.9H91.8L91.7 131.5H91.5H91.4H91.3H91.2H91.1H91V131.4H90.9L90.8 131.3V131.2V131.1H90.9V131.2H91H91.1L91.2 131.3L91.3 131.2H91.4L91.5 131.1L91.7 131L91.8 130.9H91.9V130.8V130.7V130.6H91.8L91.7 130.5H91.6H91.5H91.4H91.3V130.6H91.2L91.1 130.7H91V130.8L90.7 131.1V131H90.6V130.9V130.8V130.7L90.5 130.6V130.5V130.4L90.6 130.3V130.2L90.7 130.1L90.8 130L90.9 129.9H91V129.8H91.1V129.7V129.6H91L90.9 129.7H90.8V129.8H90.7H90.6V129.9H90.5V129.8H90.4V129.7L90.5 129.6V129.5H90.6L90.7 129.4V129.3V129.2L90.6 129.1V129L90.5 128.8V128.7H90.4V128.6H90.3V128.7L90.2 128.8V128.9V129V129.1V129.2V129.3V129.4V129.5H90.1V129.4H90L89.9 129.3H89.8V129.2H89.7L89.6 129.3L89.5 129.4V129.6L89.4 129.7V129.8L89.3 129.9L89.2 130L89.1 130.1H89H88.9H88.8H88.7V130V129.9H88.8V129.8V129.7H88.9V129.6V129.5L89 129.4L89.1 129.3L89.2 129.2V129.1L89.3 129V128.9V128.8L89.2 128.7H89.1V128.6H89V128.7H88.9V128.8V129V129.1V129.2L88.8 129.3V129.4H88.7L88.6 129.5L88.5 129.6L88.4 129.7H88.3L88.2 129.8H88.1H88H87.9H87.8V129.7V129.6L87.9 129.5L88.1 129.4H88.2V129.3V129.2H88.1L87.9 129.3H87.8H87.7H87.6H87.5V129.2H87.4H87.3L87.2 129.1V129V128.9H87.3V128.7H87.4V128.6V128.5H87.5L87.4 128.4H87.3H87.2H86.9H86.7H86.6H86.5H86.4L86.3 128.3V128.2V128.1H86.4L86.5 128H86.6L86.7 127.9V127.8V127.7H86.6H86.5L86.4 127.6H86.3L86.2 127.5H86H85.9V127.4H85.8V127.3V127.2V127.1H85.9H86H86.1V127V126.9L86 126.8L85.8 126.6L85.7 126.5V126.4L85.6 126.3V126.1H85.5V126L85.4 125.9H85.3L85.2 126L85.1 126.1V126.2V126.3H85H84.9V126.2L84.8 126V125.9H85.1H85.2L86 125.7L86.8 125.6L87.5 125.4H87.7L88.3 125.3V125.2V125.1H88.4V125H88.5V124.9H88.4H88.3V125H88.2H88.1V124.9H88.2V124.8V124.7V124.6V124.5H88.3H88.4V124.4H88.5V124.3H88.4H88.3V124.4H88.2H88.1H88V124.3V124.2V124.1H87.9V124V123.9L87.8 123.6V123.5V123.4V123.3L87.9 123.1V123L88 122.8H88.2L88.4 122.7H88.5L88.6 122.6V122.4L88.8 122.1L89 121.5V121.3L89.1 121.2L89 121V120.7L88.9 120.5V120.4V120.3V120.2V120V119.8V119.6L88.8 119.5L88.5 119.1L88.4 118.9L88.3 118.8V118.7V118.6V118.5L88.4 118.4V118.3V118.2L88.6 117.9L88.8 117.7V117.5L88.9 117.1V117H89V116.9L88.9 116.5L89 116.3L89.1 116.2L89.3 116L89.5 115.9L89.6 115.8V115.7V115.5V115.3V115L89.5 114.7V114.6V114.5L89.4 114.1V114V113.9V113.7V113.5L89.5 113.4V113.2V113V112.5L89.6 111.9V111.7L89.7 111.6V111.4V111.3V111.2L89.8 111.1V110.8V110.7H89.7L89.6 110.6H89.5V110.5L89.4 110.4V110.3V110.2V109.9L89.3 109.4V109.3L89.2 109.2L89.1 109V108.9L89 108.7L88.8 108.6L88.6 108.3L88.4 108L88.3 107.8L88.2 107.7V107.6V107.5L87.9 107.1L87.8 106.9L88.9 106.2L89.2 106H89.3L89.8 106.1H89.9H90V105.9L89.9 105.7H89.8L89.7 105.6V105.5H89.6V105.2L89.5 105L89.1 104.8L89 104.6L88.9 104.5H88.8V104.4L88.7 104.5L88.6 104.3L88.5 104.2L88.3 104.4L87.8 104.6L87.6 104.7L87.3 104.8L87.5 105.2H87.6L87.5 105.3L87.3 105.4L87.1 105.5L86.3 105.9L86 105.3L85.9 105L85.8 104.7L85.7 104.6L85.6 104.4L85.5 104.3L85.4 103.9L85.2 103.6L85.6 103.4V103L85.5 102.8L85.3 101.9V101.4V101.3V101.2V101.1L85.2 101L84.4 101.1L83.4 101.3L83.5 101.8L82.3 102L81.5 102.2L80.3 102.5L78.4 102.8L78.2 101.7L78 100.7L77.8 100.1L77.7 99.7V99.3H77.6V99L77.5 98.5L77 98.6V98.5L76.9 97.6L76.5 97.9V98.2H76V98.1H75.7L75.1 98.2L74 98.4L73.3 98.5V98.1L73.2 97.6L73.1 97.2L73 96.3L72.9 95.9L71.8 96.2L69.5 97L68.7 95.7L69.3 95.5L70.7 95.2V95L70.8 93L70.9 91.8V91.5V91.4V91.3V91.2V90.9V90.7L71 90.2V89.8V89.5H71.1L71.2 89.4H71.4L71.9 89.3H72L72.3 89.2L72.1 88.3L71.8 86.3L71.5 85.2H71.1L69.8 85.4L68.5 85.6H68.3L68.4 86.7V86.8V86.9V87H67.7H67.4L67.3 86.6V86.3L66.9 85.2V85.1V84.9L66.6 84.2L65.9 84.5H65.8V84.3V84.2L65.6 83.2V82.9L65.9 83.1L66.6 83L67.8 82.8L68.5 82.7L69.9 82.5L69.6 80.7L69.5 79.9L69.3 79V78.7L69.2 78.6V78L69.1 77.5L69 77.4L68.9 77V76.9H69L68.9 76.6L68.7 75.6L68.6 74.9V74.5L68.5 74.3L68.4 73.9L69.6 73.7H69.7L70.5 73.5H70.8L70.6 71.7L70.5 71.1L70.4 70.8L70.3 70.1V69.4L70.2 69.3V69.1V69L70.1 68.5V68L70 67.7L69.9 67.1L69.8 66.7V66.5V66.1L69.6 65.1H69.5H69.3L68.7 65.2H68.6L68.4 65.3H67.9L67.5 65.4H67.1L66.8 65.5H66.7L66.6 65.6L66.3 65.7L65.9 65.9H65.8L65.6 66V66.1H65.5V66.2L65.2 66.1V66.6H65.3H65.4V66.7V66.8V66.9L65.3 67L65.2 67.4L65.6 67.5L65.5 67.8L65.4 67.9H65.3H65V68.5H65.1V68.7V68.8V69.3V69.5V69.6L65.2 69.8H65.1V69.9L63.7 70.2L63.1 70.3V70.4L63.2 70.7L62.2 70.9L62 70L61.2 70.2L60.7 70.3L60.5 69.5L60.4 68.9L60.2 67.9L60.1 67.6L60 67.1L59.9 67H60L60.2 66.8L60.4 66.6L60.7 66.3L60.6 65.9L60.5 65.5L60.4 64.8V64.6L60.3 64.4L59.8 64.5L59.5 64.6L59 64.7H58.9V64.8V64.9H58.8H58.6L58.2 65L57.7 65.1L57.6 64.6L57.5 64.3V63.9L57.4 63.6L57.3 62.9L57.2 62.6V62.5V62.2L57.1 61.7L57 61.3V61L56.9 60.5V60.4V60.3L56.8 60.1L56.7 59.5V59.4V59.3H56.6L56.4 59.5L56.2 59.6V59.7V59.8H56.1H56H55.9V59.9H55.8L55.7 59.8H55.6L55.5 59.9H55.4V60H55.3V60.1L55.2 60.2H55.1H55L54.9 60.1L54.6 60.2H54.5L54.4 60.3L54.3 60.4H54.2V60.5L54.1 60.6L53.9 60.7V60.8H53.8V60.9L53.7 61L53.6 61.1H53.5V61.2L53.4 61.3V61.4V61.5V61.6H53.3V61.7H53.2V61.8H53.1H53H52.9V60.8V60V58.9V58.3L51.2 60L51 60.2L50.9 60.3L50.7 60.5L50.5 60.7V60.8L50.4 60.9L50.3 61H50.2L50.1 60.8L50 60.6L49.9 60.3V60.2V60.1H50L50.1 60V59.9L49.8 59.2V59.1L50.1 58.7L50.3 58.5L50.4 58.4H50.3V58.3L50.2 58.2V58.1V58V57.9H50.1L50 58L49.9 58.1L49.5 58.4L49.4 58.5L49 58.8H48.9L48.8 58.9V58.8L48.7 58.7L48.6 58.5V58.4L48.7 58.3L48.8 58.2H48.9L49.1 58L49.7 57.5L50.1 57.2L50 57.1H49.9V57V56.9V56.8L50 56.7H50.1V56.6H50.2L50.3 56.5V56.4V56.3V56.2H50.2V56.1H50.1L50 56L49.9 55.9V55.8H49.8V55.7L49.9 55.6V55.5V55.4V55.3V55.2V55.1V55V54.9L50 54.8H49.9V54.7V54.6V54.5H50H50.1L50.2 54.4L50.1 54.2L50 54.1L49.9 54L49.8 54.1L49.5 54.2L49.3 54.3L49.2 54.4L49.1 54.5H49V54.6H48.9L48.3 55L48.1 54.6L47.8 54L47.7 53.8L47.5 53.4L47.3 53L47.1 52.6L46.9 52.3L46.7 51.9L46.6 51.6L46.5 51.4V51.3L46.7 51.2L47.2 51L47.7 50.8L48 50.6L48.5 50.3L49 50.1H49.1V50.2H49.2V50.3H49.3L49.5 50.2L49.8 50.1L49.9 50V49.9H50V49.8L49.9 49.7V49.6L50 49.5V49.4V49.3V49.2V49.1V49L50.1 48.9L50.2 48.7H50.3V48.6L50.5 48.5H50.6V48.4H50.7V48.3L50.8 48.2L50.9 48.1V48V47.9V47.7V47.6L51.1 47.4H51.2L51.4 47.2V47.1L51.6 47L51.4 46.6V46.4L51.3 46.3V46.2V46.1H51.2V46V45.9V45.8L51.3 45.9L51.4 46L51.7 45.9V45.8V45.7H51.8V45.6V45.5L51.9 45.4V45.3L52 45.2L52.3 44.9L52.4 44.8H51.6H51.5H51.2V44.7V44.2V43.9V43.6H51.3H51.6H51.7V43.4V43.2V43.1V42.3V41.7H52.2H52.3V41.6L51.8 40.9L51.7 40.7H51.8V40.6H51.9L51.7 40.3L51.5 40L51.3 39.7V39.6L51 39.1L50.9 39L51.3 38L51.4 37.7V37.6L51.7 37.4L52.3 37.1L52.5 37L53.2 36.6V36.5L53.4 36.1V36L53.5 35.8L54.4 33.4V33.3V33.2L54.5 33.1V33V32.9M54.5 32.9H54.6M101.5 219.5V219.6V219.7V219.8H101.4V219.7H101.3H101.2V219.6V219.5V219.4L101.3 219.5H101.4L101.5 219.4V219.5ZM72.8 203.6H72.9L73 203.7H73.1L73.2 203.8H73.3V203.9H73.4V204L73.3 204.1V204L73.2 203.9H73.1L73 203.8H72.9H72.8L72.6 203.7H72.5V203.6H72.4H72.3H72.2V203.5L72.3 203.4H72.4H72.5L72.6 203.5H72.7H72.8V203.6Z" stroke="white" stroke-width="0.5" stroke-linecap="round" stroke-linejoin="round"/>
</g>
</svg>
