<svg width="173" height="144" viewBox="0 0 173 144" fill="none" xmlns="http://www.w3.org/2000/svg">
<g id="UA53">
<path d="M148.2 110.1V110.2H148.1L148 110.3H147.9V110.2V110.1H148V110V109.9V109.8H147.9H147.8V109.7H147.7H147.6L147.7 109.4H147.6L147.5 109.3H147.4L147.1 109.1H147V109V108.9L146.7 108.7L146.6 108.8L146.1 108.1L146.2 107.9V107.8H146.1H146L145.9 107.7H145.8H145.7H145.6H145.5V107.6H145.4V107.5V107.4V107.3L145.3 107.4V107.5H145.2V107.4H145.1V107.3H145.2V107.2V107.1H145.3V107H145.2L145.1 106.9H145H144.9H144.8V107H144.7V106.9H144.6L144.3 107.4L144.2 107.5L144 107.8L143.8 107.6L143.7 107.5H143.6V107.6H143.5V107.7V107.8L143.4 107.9V108V108.1L143.3 108.2V108.3V108.4V108.5V108.6V108.7V108.8V109L143.2 109.2V109.4V109.5L143.3 109.6H143.2V109.7V109.8H143.1H143L142.9 109.9H142.8V109.8H142.7V109.7H142.6V109.8V109.9H142.5H142.4V110L142.2 110.2L141.7 110V109.8L141.1 109.6L140.8 109.5L140.7 109.4V109.5H140.6H140.5V109.4V109.3V109H140.6V108.9H140.7V108.8H140.8H140.9H141L141.1 108.7H141.2H141.3L141.5 108.8H141.7V108.9H141.8V108.8H141.9H142V108.7H142.1V108.6L142.2 108.5V108.4H142.3V108.3V108.2V108.1H142.4L142.3 108H142.2H142.1H142V108.1H141.9V108H141.8H141.7H141.6V107.9H141.5H141.4H141.3H141.2H141.1L141 107.8H140.9H140.8H140.7H140.6H140.5H140.4V107.7H140.3H140.2V107.6H140.1V107.5H140V107.4H140.1L140 107.3V107.2H140.1V107.1H140H139.9H139.8H139.7V107H139.6H139.5V107.1H139.4H139.3H139.2L139.1 107.2H139H138.9H138.8H138.7V107.3H138.6H138.5H138.4L138.5 107.2H138.4H138.3V107.3H138.2V107.4H138.1V107.5H138.2V107.6H138.3V107.7V107.8H138.4H138.5V107.9H138.4V108H138.3V108.1V108.2H138.4L138.5 108.1H138.6V108.2V108.3H138.5H138.4V108.4H138.3H138.2H138.1L138 108.5V108.6V108.7V108.8H137.9V108.9H137.8H137.7L137.6 109V108.9H137.5V108.8V108.7V108.6V108.5V108.4H137.6V108.3H137.5V108.4H137.4H137.3V108.3V108.2H137.4H137.5V108.1H137.4V108H137.3H137.2H137.1V108.1H137H136.9V108.2H136.8H136.7H136.6H136.5V108.3H136.4V108.2L136.5 108.1H136.4L136.3 108.2H136.2H136.1H136H135.9L136 108.3H135.9V108.4V108.5H135.8V108.6H135.7H135.6V108.7H135.5V108.6H135.4V108.7V108.8H135.2H135.1V108.9H135V109H135.1V109.1V109.2H135.2V109.3V109.4V109.5V109.6H135.3V109.7H135.4V109.8H135.5V110L135.4 110.1V110.2L135.5 110.4V110.6L135.3 110.7H135.1L134.7 110.6V110.7V110.8V110.9H134.6H134.5L134.4 110.8V110.7H134.3V110.6H134.2H134.1V110.7V110.8H134V110.9L133.9 111L133.8 111.1L133.7 111.2L133.6 111.3H133.5H133.4H133.3V111.2H133.2V111.3H133.1L133 111.4V111.5H132.9L132.8 111.6H132.7V111.7H132.6H132.5V111.8H132.4H132.3H132.2H132.1V111.7H132V111.6H131.9V111.5H132L131.9 111.4L131.8 111.5H131.7H131.6H131.5V111.6H131.4H131.3V111.7H131.2V111.8V111.9V112V112.4L130.3 112.6L130.2 112.5L130.1 112.4V112.3H130V112.2H129.9H129.8V112.3H129.7V112.2V112.1V112V111.9V111.8H129.6V111.7V111.6H129.5V111.7H129.4H129.3V111.8H129.4V111.9H129.3H129.2H129.1V112H129H128.9V112.1H129V112.2H128.9H128.8V112.1H128.7H128.6V112.2H128.5H128.4V112.3H128.3L128.2 112.4V112.5H128.1L127.8 112.7L127.5 112.9V113.1L127.4 113.2H127.3H127.2V113.3L127.1 113.4H127V113.3V113.2L127.1 113.1H127V113.2H126.9V113.1H126.8H126.7H126.6V113.2L126.5 113.3V113.4V113.5H126.6L126.7 113.6L126.6 113.7V113.8V113.9V114V114.1V114.2H126.7V114.3V114.4H126.8V114.5V114.6H126.7H126.6L126.5 114.5H126.4H126.3H126.2L126.1 114.4L126 114.5L125.9 114.3L125.7 114.4L125.8 114.5V114.6V114.7V114.8H125.7L125.6 114.9V115V115.1H125.7V115.2V115.3H125.6H125.5V115.4H125.4V115.5L125.5 115.7L125.3 116.1L125.5 116.3L125.6 116.5H125.7L125.6 116.6L125.7 116.8L125.8 116.9L125.3 117.3V117.2L125.1 117.4L125 117.5L124.9 117.4H124.8H124.6L124.5 117.5H124.4H124.3L124 117.3L123.9 117.2H123.8V117.1L123.7 117L123.5 116.8H123.4V116.7L123.3 116.6H123.2V116.5H123.1L123 116.4L122.9 116.2L122.6 116.3L122.5 116.4L122.4 116.6L122.3 116.7L122.2 116.9L122 117L121.9 116.9L121.8 116.8L121.6 116.7L121.2 116.4L120.8 116.1L120.7 116.3L120.5 116.5L120.3 116.7L120.4 116.8H120.3L120.2 116.7L120 116.6L119.8 116.4L119.5 116.2L119 115.9L118.4 115.4L118 115.1L117.7 114.8H117.6V114.7H117.5L117.4 114.6H117.2L117.1 114.5V114.6H117.2V114.8L117.3 115.2V115.3V115.4V115.5V115.6L117.4 115.7L117.2 116L117.5 116.4V116.5L117.6 116.8L117.7 117.2L117.8 117.5L117.6 117.6L117.2 117.7L116.8 117.8L116.5 117.9L116.6 118.1L116.7 118.3L116.8 118.4L116.5 118.6L116.1 118.8L115.6 118.9L115.2 119.1L115 119.2L115.1 119.3L115.2 119.6L115 119.8L114.8 119.9L114.6 120.1V120.2L114.7 120.5H114.2L114.1 120.6L113.8 120.8L113.7 121L113.6 121.1V121.2L113.4 121.5V121.6L113.3 121.7V121.9H113.4L113.6 122L113.8 122.1H113.9H114L114.1 122.2H114.2V122.3H114.3L114.2 122.6L114.5 122.9L114.6 123L114.5 123.3L114.2 123.8L114 124V124.1L113.9 124.2V124.3L113.8 124.4L113.6 124.7L113.4 125L113.2 125.3L113 125.7L112.6 126.3L112.5 126.9L112.4 127.2V127.5L112.3 127.8V127.9V128V128.1L112.2 128.2V128.6V128.7L112.1 128.8V129.1V129.2L112 129.5V129.7V129.8L112.2 129.9V130H112.3L112.4 130.1V130.2L112.6 130.3L112.4 130.5L112.3 130.6L112.5 130.7L112.6 130.8L112.9 131L113.2 131.2L113.4 131.3L113.9 131.6L113.8 131.8V131.9V132.2V132.6L113.7 132.8H113.8H113.9H114H114.1H114.3H114.5V133V133.1V133.2V133.3V133.4V133.5V133.6H114.4V133.7H114.3V133.8L114.2 133.9H114.1H114V134H113.9V133.9V133.8V133.7H113.8V133.8H113.7V133.7H113.6H113.5H113.4H113.2V133.8V134.2V134.4V134.5V134.8L113.1 134.9H113.2H113.3H113.4H113.5V135H113.6H113.7H113.8L113.9 135.1H114V135.2H114.1H114.2H114V135.3L113.9 135.4L113.8 135.5H113.7H113.6V135.4H113.5H113.4L113.3 135.5H112.5H111.8V136.3L111.9 136.4V136.8V137.6V138V138.3H112.5H112.6H112.7V138.2H112.8L113 137.9L113.2 137.7L113.3 137.8L113.6 138L113.7 138.1H113.8V138.2L114 138.3H114.1V138.4V138.5H114H113.9V138.6H113.8V138.7H113.7V138.8H113.6V138.9H113.5L113.4 139H113.3L113.2 139.1V139.2H113.1V139.3V139.4V139.5H113V139.6H112.9H112.8H112.7L112.6 139.7H112.5H112.4V139.8V139.9V140H112.5V140.1V140.2V140.3H112.6H112.7H112.8V140.4V140.5V140.6V140.7L112.7 140.8V140.9V141V141.1V141.2H112.6H112.5L112.4 141.3V141.4H112.5V141.5V141.6L112.6 141.7V141.8H112.5H112.4H112.3V141.9H112.4V142H112.3H112.2L112.1 142.1V142.2V142.3L112.3 142.5V142.6V142.7H112.2L112.1 142.8H112L111.9 142.9V143H111.8L111.6 142.9V142.7L111.7 142.5L111.8 142.2L111.9 142V141.9L111.8 141.8V141.7L111.6 141.6L111.4 141.4H111.2L111 141.3H110.6H110.5L110.2 141.4L110 141.5H109.9L109.6 141.4L109.4 141.3L109.1 141L108.6 140.6L108.5 140.4H108.4L108.2 140.3L108 140.2H107.8L107.5 140.3L107.3 140.2L107.1 140.1L106.9 139.9L106.5 139.5L106.3 139.3L106.2 139.2L106 139.1L105.9 139L105.7 138.9H105.6H105.4L105.2 139L105 139.1L104.8 139.2H104.7H104.5L104 139.1H103.8L103.4 138.9L103.2 138.7L103.1 138.6L102.9 138.4L102.8 138.1V137.8L102.7 137.5L102.8 137.3V137.1L102.9 136.9V136.8L103.2 136.6V136.4L103.3 136.3V136.2L103.2 136L103.1 135.9L103 135.7L102.8 135.5L102.6 135.4L102.5 135.3H102.3L102 135.2H101.8L101.7 135.3H101.5L101.3 135.4H101H100.8H100.7L100.5 135.3L100.3 135.2L100.2 135L99.9 134.7L99.7 134.5L99.4 134.3L99.1 134.2L98.8 134L98.6 133.9L98.5 133.7L98.4 133.6V133.5V133.3V133.1V132.7V132.6L98.3 132.5L98.1 132.3H98L97.7 132.2L97 132.1H96.7H96.3H96.1H95.9L95.8 132L95.5 131.8L95 131.5H94.9L94.5 131.2L94.2 131.1H94.1L94 131H93.9H93.8H93.6H93.5H93.4L93.1 130.9L92.9 130.7L92.7 130.6L92.5 130.4V130.3L92.4 130.2L92.3 130.1L92 129.9V129.8L91.9 129.7L91.7 129.6V129.5L91.6 129.4L91.5 129.3L91.3 129.1H91.2L91.1 129L90.9 128.9H90.7L90.5 128.8L90.3 128.7L90.1 128.5L89.9 128.4L89.8 128.3L89.4 128L89 127.5L88.8 127.3L88.7 127.2L88.6 127.1L88.4 126.9L88 126.7H87.9L87.7 126.6L87.3 126.5L87.1 126.4H87H86.8H86.6H86.5H86.4H86.3H86.2H86L85.7 126.3H85.5L85.3 126.2L85.1 126.1L84.8 126H84.7H84.6L84.2 126.1H84.1L83.6 126.3H83.4H83.2H83.1H83L82.7 126.4H82.6H82.5H82.3L82.2 126.3L81.8 126L81.7 125.9H81.6L81.4 125.8L81.3 125.7V125.5L81.2 125.4L81.1 125.3H81V125.2H80.9H80.8V125.1L80.7 125L80.6 124.8L80.5 124.7L80.3 124.2L80.1 123.9L80 123.4H79.9H79.8L79.7 123.5H79.4H79.1L78.9 123.6L78.6 123.8V123.9V124.1L78.5 124.3V124.4V124.5V124.6V124.7L77.7 125.1V125.2L77.3 125.8L77 125.6L76.9 125.9L76.8 126.1H76.7V126.2L77 126.4L77.2 126.5L77 126.7L76.5 127.5L76.1 128.1L75.8 128.2L75.7 127.9L75 128L75.1 128.3H75.4V128.4V128.5V128.6L74.7 128.5L74.5 128.4H74.4L74.3 128.5H74.2H74V128H73.9H73.8H73.7L73.5 127L72.4 127.2L71.5 127.4V127.7H71.4H71.3L71.2 127.8H71.1V127.9L70.9 128.1V128.2V128.3H70.8H70.7H70.6V128.2H70.5V128.3H70.4V128.4H70.3L70.5 126.8L70.2 126.5L70.4 125.5L70.3 125.4L69.3 125.3L69.1 125.2H69L68.2 125.1L68.1 125.4L68 125.5H67.9L67.7 125.7L67.6 125.6L67.4 125.5V125.4L67.6 125.5L67.7 125.6L67.8 125.3V125.2L67.6 125H67.4H67.3H67.2H67.1L66.9 124.7L66.7 124.9L66.8 125.1L66.6 125.3L66.5 125.4V125.5L66.6 126V127L66.7 127.3V127.4L66.5 127.3L65.3 126.5L64.3 125.8L64.2 125.7V125.5V125.3H64.1H64L63.7 125.4L63.2 125.7L63.1 125.5L62.5 125.7L62.4 125.3L62.2 125L62.8 124.7L62.6 124.2L62.4 123.8L62.1 123.2H62.2V123.1V123H62.1L62 122.6L61.8 122.2L61.7 122L61.6 121.8L61.4 121.4V121.2V121.1H61.5V121.2V120.9H61.6H61.7L61.8 120.8H61.9V120.7H62V120.6L62.1 120.5V120.4H62.2L62.3 120.3H62.4L62.5 120.2H62.6L62.7 120.1L62.8 120L62.9 119.9L63 119.8H63.1H63.2L63.3 119.7L63.2 119.6L63 119.2L62.9 119.1L62.8 118.8L62.7 118.7V118.6V118.5L62.6 118.4L62.5 118.5H62.4V118.3V118.2V118.1L62.2 117.6L61.8 117.1L61.7 117L61.6 116.8L61.5 116.7V116.6V116.5L61.6 116.4V116.3L61.9 115.7L61.5 115.5L61.3 115.3H61.2H60.9L60.4 115.4V115.3L60.5 115.2V115.1V115H60.4H60.3H60.2H60.1L60 114.9V114.8L60.1 114.7H60H59.9H59.8H59.7H59.6L59.7 114.5H59.8L59.9 114.4H60L60.2 114.3H60.3V114.2L60.4 114.3H60.5H60.6H60.7H60.8H60.9H61L61.4 113.4L61.5 113.1L61.8 112.6L61.4 112.5L61.1 112.4L60.9 112.3L60.8 112.2L60.7 112.1V112L60.4 111.7L60.3 111.5L60.2 111.4L59.9 111.5V110.9L59.8 110.7V110.6V110.5V110.4L59.7 110.1L59.6 110L59.5 109.9L59.2 109.6L59.1 109.5L58.8 109.2L58.7 109.1L58.5 108.9H58.4L58.5 109V109.1V109.2L58.6 109.5L58.7 109.7V109.9L58.8 110V110.2L58.9 110.4V110.5V110.6V110.7V110.8V111V111.1V111.4V111.5V111.7V112.1V112.2V112.8V113V113.7V113.8V114.5V114.7V114.8V115.1V115.2L58.8 115.6V115.7H58.7H58.6L58.2 115.4L58 115.3L57.9 115.2H57.8L57.7 115.3V115.7V115.8H57.6L57.2 115.9L57.1 116L57 116.1H56.9H56.7H56.6H56.5L56.4 116L56.3 115.7V115.6H56.2L56 115.5V115.4L56.4 115L56.3 114.9L55.9 114.4L55.8 114.3H55.7H55.5H55.4L54.9 114.4H54.8L54.7 114.5L54.6 114.4H54.4L54.3 114.3V114.2L54.2 114.1V114L54.3 113.8L54.4 113.4V113.2L54.3 113V112.8L54 112.5V112.4V112.3L54.3 112L54.4 111.9V111.8V111.7L54.3 111.6L54.2 111.4L53.9 111.1L53.8 110.9L53.5 110.5L53.2 109.9L53 109.6V109.5L52.9 109.4L52.6 109.2L52.5 109.1V109L52.4 108.9V108.8V108.6V108.5L52.3 108.4L52.2 108.2L52 107.9L51.8 107.8L51.7 107.7H51.6H51.4H51.1L50.9 107.6L50.7 107.5H50.5L50.4 107.4H50.3H49.9L49.3 107.6H49.1L48.9 107.5H48.6L48.4 107.6H48.1H48L47.9 107.5L47.8 107.4L47.6 107.2L47.4 106.7L47.3 106.6L46.9 106.4L46.5 106.2L46.1 106.1H46L45.9 105.9L45.7 105.8L45.6 105.7V105.5L45.5 105.4V105.2V105.1L45.6 104.9V104.8L45.7 104.6L45.8 104.4V104.3V104.1V103.9V103.7L45.7 103.6V103.4L45.6 103.3V103.2H45.5L45.4 103.1L45.3 103L45 102.9H44.9H44.8L44.5 103L44.3 103.1H44.2L44 103.2L43.6 103.5L43.4 103.6H43.3H43.2L43.1 103.7H43L42.8 103.8H42.7L42.5 103.7H42.4H42L40.8 103.6L39.7 103.1L39.2 102.8H39.1L39 102.7L38.9 102.6H38.8L38.7 102.5H38.6H38.5L38.3 102.6L38.2 102.7H38.1H37.9H37.7H37.6L37.4 102.6H37.3H37.2H37.1H37H36.9L36.8 102.7V102.8L36.7 102.9L36.6 103L36.5 103.1L36.3 103.3L36.1 103.4H35.8H35.4H35.2L35.1 103.5H35L34.9 103.6L34.7 103.7L34.6 103.8H34.5H34.4L34.3 103.7H34.2V103.6V103.5H34.1V103.4H34.2V103.2V103.1L34.1 103H34H33.8H33.7V102.9H33.6L33.4 102.6L33.3 102.5L33.1 102.3L33 102.2H32.9H32.5H32.4H32.3V102.1L32.2 102L32.1 101.9H32H31.9H31.6L31.2 102H30.9L30.7 102.1H30.6H30.4L30.3 102H30.2V102.1H30.1H30L29.9 102.3V102.4H29.8L29.7 102.5L29.4 102.6L29.2 102.7H29L28.9 102.6L28.7 102.5L28.5 102.3L28.2 101.9L28.1 101.8L28 101.7H27.9H27.7H27.6H27.5H27.4L27.3 101.8L26.9 102.1L26.8 102.2H26.7H26.6L26.5 102.1V102L26.4 101.8V101.6L26.3 101.2L26.2 100.9V100.8L26.1 100.6V100.5H26L25.9 100.4L25.6 100.3L25.3 100.1H25L24.7 100H24.6L24.5 99.9L24.4 99.8L24.2 99.6L24.1 99.5L23.8 99.2H23.7L23.5 99L23 98.7L22.8 98.5L22.7 98.4H22.5V98.3H22.4H22.1L21.8 98.2L21.6 98.1L21.4 98L21.2 97.9L21.1 97.8L20.5 97.3L19.9 96.8L19.6 96.5H19.5V96.4V96.3L19.6 96.2L19.8 95.9L19.9 95.8L20 95.7H20.1V95.6V95.5V95.4H20L19.8 95.5H19.7H19.6H19.4H19.3V95.4L19.2 95.3V95.2V95.1V95L19.3 94.8H19.4V94.7L19.9 94.4L20 94.3L20.1 94.2V94.1V94V93.7V93.6V93.5L20.2 93.4L20.5 92.9L20.6 92.8V92.7L20.7 92.6V92.4V92.3L20.9 92V91.9L21 91.5V91.4L21.1 91.2V91.1L21.3 91H21.4L21.5 90.5L21.6 90.4V90.3H21.7H21.8V90.4H21.9L22 90.5H22.1L22.2 90.6H22.3V90.7L22.4 90.8V90.9V91H22.5V91.1H22.4V91.2H22.5V91.3V91.4V91.5H22.6V91.6V91.7H22.7L22.8 91.8L22.9 91.9V92H23H23.1L23.2 92.1V92.2H23.3L23.4 92.3H23.5H23.6L23.7 92.4H23.8H23.9H24V92.3H24.1H24.2V92.2H24.3H24.4L24.5 92.3H24.6H24.7V92.4H24.8V92.5H24.9H25H25.1H25.2H25.3V92.6H25.4H25.5H25.6H25.7H25.8H25.9H26L26.1 92.7H26.2H26.3V92.8H26.4H26.5V92.9H26.6V93H26.7H26.8V93.1H26.9V93.2H27H27.1L27.2 93.3H27.3V93.4H27.4H27.5L27.6 93.5L27.7 93.6H27.8H27.9L28 93.7H28.1V93.8H28.2V93.9H28.3V94H28.4L28.5 94.1H28.6L28.7 94.2H28.8H28.9H29V94.3H29.1H29.2H29.3H29.4H29.5H29.6H29.7V94.4H29.8V94.5H29.9H30H30.1V94.6H30.2H30.3H30.4H30.5H30.6H30.7L30.8 94.5H30.9H31H31.1H31.2H31.3L31.4 94.4H31.5H31.6H31.7H31.8H31.9H32V94.5H32.1H32.2H32.4H32.5L32.6 94.6H32.7H32.8H32.9H33.1V94.5H33.2V94.4V94.3V94.2L33.1 94.1V94V93.9V93.8V93.7L33 93.6H33.1V93.5V93.4V93.3V93.2V93.1V93H33H32.9L32.8 92.9H32.7L32.6 92.8L32.5 92.7L32.4 92.6H32.3V92.5L32.2 92.4L32.1 92.3L32 92.2V92.1H31.9H31.8H31.7H31.6V92.2H31.5H31.4H31.3H31.2V92.3L31.1 92.2H31H30.9V92.1H30.8V92H30.7V91.9V91.8H30.6V91.7V91.6H30.5V91.5L30.4 91.4V91.3H30.3V91.2V91.1H30.2V91V90.9L30.1 90.8V90.7H30.2V90.6V90.5V90.4L30.3 90.3V90.2V90V89.9V89.8V89.7V89.6V89.5V89.4V89.3V89.2V89.1V89H30.2V88.9H30.1H30H29.9H29.8H29.7L29.6 88.8H29.4V88.7H29.3H29.2V88.6V88.5V88.4H29.1L29 88.3H28.9L28.8 88.2V88.1V88V87.9L28.9 87.8V87.7H29L29.1 87.6H29.2L29.3 87.5H29.4H29.5H29.6V87.4H29.7L29.8 87.3L29.9 87.2V87.1V87L29.8 86.9V86.8V86.7V86.6H29.7V86.5L29.6 86.4V86.3H29.5V86.2H29.6V86.1V86V85.9V85.8V85.7V85.6V85.5V85.4V85.3L29.7 85.2H29.8L29.7 85.1H29.8V85V84.9L29.7 84.8H29.8V84.7V84.6V84.5L29.7 84.3V84.2V84.1H29.8V84V83.9V83.8H29.9V83.7V83.6H30V83.5L30.1 83.4V83.3V83.2L30.2 83.1H30.3H30.4H30.7H31L31.4 83.2L31.5 83.3H31.6H31.7L31.8 83.2L32 83L33 81.9H33.1L33.2 81.8L33.3 81.7L33.4 81.6L33.5 81.5H33.6V81.4V81.3H33.7H33.8V80.1V79.9V79.8H33.9V79.7H33.8H33.7V79.6V79.5V79.4H33.8V78.9V78.8H33.9V78.7V78.6H33.8V78.5V78.4H33.9V78.3V78.2H33.8L33.9 78.1H34V78H33.9V77.9H33.8V77.8H33.9V77.7H33.8V77.8L33.7 77.7L33.8 77.6V77.5H33.9V77.4H34L34.1 77.3H34.2V77.2H34.1H34H33.9H33.8V77.3V77.4H33.7V77.3L33.6 77.1L33.5 76.9L33.3 76.6L33.2 76.5L33.1 76.4L32.4 75.7H32.3H32.2H32.1L32 75.8H31.9L31.6 75.5L31.5 75.4L31.4 75.3L31.3 75.2H31.2H31.1V75.1L31.4 75L31.5 74.9H31.6L31.7 74.8V74.7L31.8 74.6V74.5H31.9V74.4H32V74.3V74.2H31.9H31.8H31.7L31.6 74.1H31.7V74H31.8V73.9H31.9H32H32.1V73.8H32V73.7V73.6H31.9H31.8V73.5V73.4H31.9V73.3V73.2V73.1V73H32V72.9H31.9H31.8V73H31.7V72.9V72.8V72.7L31.6 72.6H31.5V72.5L31.6 72.4V72.3V72.2V72.1L31.5 72H31.4V71.9V71.8V71.7H31.3V71.6H31.4H31.5H31.6H31.7V71.5V71.4H31.6H31.5V71.3H31.6H31.7V71.2V71.1H31.6V71H31.7V70.9H31.6V71H31.5H31.4H31.3V70.9V70.8H31.2V70.7H31.1V70.8H31H30.9H30.8V70.7H30.7V70.6H30.6V70.5H30.5L30.4 70.4V70.3H30.3V70.2V70.1V70H30.2H30.1L30 69.9L29.9 69.8L30.1 69.7L30 69.5L29.9 69.4H29.8H29.7H29.6H29.5H29.4H29.3L29.5 69.1L27.5 68.3L26.6 68L25.9 67.7L24.9 67.4V66.9V66.8L24.8 66.3V66L24.7 64.6L24.6 63.8H24.7V63.7H24.8V63.6V63.5V63.4V63.3L24.5 62.8L24.3 62.5L24 61.8H23.6H23.4H23H22.2H22H21.9L21.8 61.4L21.7 61L21.6 60.5L21.5 60L21.4 59.8V59.6V59.4L21.1 59.5L18.6 60L18.4 59.2L18.2 58.7V58.6L18 58.2V58.1L17.8 57.9V57.8L17.6 57.6V57.5L17.3 57.3L17.2 57.1L17.3 57L17.2 56.9L17.1 56.8H17V56.7L16.9 56.6L16.8 56.5V56.4L16.7 56.2L16.6 56V55.9L16.5 55.8L16.2 55.5L15.9 55.2V55.1H15.8V55L15.5 54.7L15.3 54.4L15.1 54.2L15 54.1L14.9 54L14.8 53.9L15.2 53.6L15.3 53.5L15.8 53.1L16.2 53.7L16.3 53.9L16.4 53.8L16.8 53.6L17.1 53.4L17.4 53.2L17.7 53L17.9 52.9V52.8L17.7 52.6L17.5 52.5L17.4 52.4L17.3 52.3L17.1 52.1L17 51.9L16.9 51.7V51.5V51.3L17 50.9V50.7L17.1 50.6V50.5V50.3V49.7L17.4 49.8H17.6L17.7 49.5L17.4 49.3L17.1 49.2V48.9L17.2 48.8V48.6L17.3 48.3L17.4 48.1V48V47.9V47.8L17.5 47.7V47.6V47.5L17.6 47.2H17.5L17.4 47.1L17.3 47L16.7 46.6L16.4 46.4L15.8 46.1L15.1 45.6V45.2L15 44H14.7L14.6 43.9L14.5 43.6V43V42.6L14.4 42.3V42L14.3 41.5L13.4 41.3L13.5 40.9V40.8V40.7V40.6L13.6 40.5L13.7 40.4H13.6V40.3H13.5L13.4 40.2V40.1H13.3V40L13.2 39.9H13.1V39.8L12.9 39.6L12.8 39.5L12.7 39.6L12.5 39.9L12.4 40V40.1L12.3 40.5L12.2 40.8V40.9V41L11.8 41.1V41L11.6 40.8H11.5L11.4 40.7V40.6L11.3 40.5L11.1 40.3L10.8 40L10.7 39.9L10.6 39.7L10.4 39.5L10.3 39.4L10.2 39.3L10.1 39.2L10 39.1V39H9.90002V38.9V38.8H9.79999L9.70001 38.6L9.59998 38.4L9.5 38.3V38.2V38.1L9.40002 38L9.29999 37.9L9.20001 37.6L9.29999 37.3V37.2H9.40002L9.70001 36.8L9.79999 36.5H9.90002V36.4H9.79999V36.3H9.70001L9.59998 36.2H9.5L9.40002 36.1V36H9.29999V35.9H9.20001H9.09998H9V35.8H8.90002V35.7V35.6L8.79999 35.5L8.70001 35.4L8.59998 35.3V35.2V35.1L8.70001 35H8.90002L10.4 34.6L11.3 34.7L11.2 34L11 32.9L10.7 32.8L10.1 32.6L9.40002 32.4L8.09998 32L7.09998 31.8L7 31.7L6.5 31.6L5.40002 31.3L5.29999 31.2L4.90002 31.1V31H4.79999V30.9L4.70001 30.8V30.7L4.59998 30.6L4.5 30.4V30.3H4.40002L4.29999 30.1L4.20001 29.9V29.8V29.7V29.6V29.4L4.09998 29.3H3.79999L3.29999 28.8H3.20001L3.09998 28.7L3 28.6L2.70001 28.3L1.59998 27.4L1.79999 27.2L2.29999 26.4L1.90002 26.1L1.20001 25.6L0.799988 25.3L1 25.1L0.799988 24.9L0.700012 24.8L0.5 24.7V24.5L0.799988 23.5V23.3L1 22.6V22.4L0.799988 22.3L1 22.2L0.5 21.9L0.299988 21.8L0.5 21.7V21.6H0.599976V21.5H0.700012H0.799988H0.900024L1.59998 21.1L1.90002 20.9L2.09998 20.7L2.40002 20.5L2.5 20.4H2.59998L2.79999 20.2L3 20.1L2.70001 19.5L2.5 19.2L2.70001 19.1L3.09998 18.8H3.20001V18.7L3.40002 18.2L3.59998 17.5L3.5 17.2L3.29999 16.9L3.20001 16.7L3.29999 16.6H3.40002L4.09998 16.4L4.40002 16.3L4.90002 16.2L5.40002 16.1L6.29999 16L6.79999 15.9H6.90002H7V16H7.09998V16.1H7.20001V16.2H7.29999V16.3V16.4H7.40002L7.5 16.5H7.59998L7.70001 16.4L7.79999 16.3L7.90002 16.2L8.09998 16.3V16.4H8V16.5L8.70001 16.7L8.79999 16.8L9.29999 16.5L9.5 16.4V16.3L9.40002 16.2H9.29999L8.79999 16.4V16.3L8.90002 15.9H9L9.09998 15.8L9.29999 15.7V15.5L9.09998 15.4V15.3V15.2L8.79999 15.1V14.9L8.70001 14.6H8.79999H10V14.1L10.6 14.2L10.7 13.9L10.8 13.1L10.9 12.7L11.2 12.8L11.4 12.4H11.5L12.4 12.3L12.3 12.2V12.1L12.1 11.6L11.9 11.3V11.2V11.1L12.1 10.8V10.7H12.2V10.6H12.3H12.4H12.5V10.5H12.6H12.7H12.8H12.9V10.4H13V10.3H13.1V10.4H13.3H13.8L14.4 10.5V10.6L14.5 11.1L14.6 11.2V11.3V11.4L16 12L16.2 11.6L17.2 12.1L17.9 12.4L18.5 12.7L19.3 12.8H19.6H20L20.4 12.5L20.6 12.8L20.9 12.6V12.7V12.8H20.8V12.9L20.9 13L20.8 13.2L20.7 13.1H20.6L20.7 13.2L20.8 13.4V13.5V14.4V14.5H20.5V14.6H20.4V14.7V14.8H20.5V15V15.1L20.9 15.2V15.4L21.2 15.5L21.4 15.6L21.7 15.8L22.2 16.6L22.4 16.8V16.9H22.5H22.6L22.9 16.7H23V16.6L23.3 16.4L23.4 16.3V16.2L23.6 16.3L23.7 16.2H23.8H24L24.1 16.1V16L24.2 15.9H24.3V15.8H24.4H24.6H24.7H24.8H24.9H25V15.9H25.1H25.2H25.3L25.4 16V16.1H25.5H25.6H25.7H26.1L26.9 16H27.3H27.4H27.8H27.9H28L27.9 15.6V15.2H28H28.3H28.4H28.5H28.6L28.7 15.1H28.9H29.4L29.6 15H29.7H29.8V14.9V15.1V15.9H30H30.1H30.7L31.2 16H31.3H31.4H31.5H32H32.6L32.8 16.1L32.9 16H33L33.3 15.9H33.4V16V16.1H33.3V16.2L33.4 16.4H33.5V16.2L33.6 15.9L33.7 15.8H33.8V15.9L33.9 16H34V16.1L34.1 16.3L34.2 16.5H34.3V16.6H34.4H34.5L34.6 16.4H34.7V16.3H34.8L36 16.8V16.7L36.1 16.5L36.2 16.3L36.3 16.1L36.4 16L36.1 15.9H36L35.8 15.7L35.6 15.6H35.7V15.5H35.8H35.9V15.4L35.8 15.3H35.7V15.2L35.6 15.1H35.7H35.8V15V14.9H36H36.1V14.8H36.2H36.3H36.4L36.5 14.7L36.8 14.6H36.9H37.6H38.2L38.8 14.1L39.5 13.5H39.6L40.1 13L40.8 12.5L41.2 12.2L41.3 12.1H42H42.1V12H42.2V11.9V11.8H42.1V11.7V11.6V11.5V11.3L42 11.1V10.8V10.7H42.1L42.4 10.6V10.3L42.9 10.2V10.3H43H43.1V10.2H43.2H43.3L43.4 10.3V10.2H43.3V10.1V10H43.2V9.89999V9.8H43.1H43V9.7V9.60001L43.3 9.39999L43.7 9.10001V9L43.8 8.89999L43.9 9H44L44.1 9.10001L44.3 9.2L44.6 9H44.7V8.89999L44.8 8.8V8.7H44.9V8.60001V8.5H44.8V8.39999L44.7 8.3V8.2H44.8V8.10001V8V7.89999H44.9L45.2 7.8L45.3 7.60001V7.5L45.1 7.2V7.10001L44.9 6.7L45 6.60001H45.2H45.3V6.7H45.4H45.7H45.8L45.9 6.39999L46.3 6.60001L46.5 6.7H46.6L46.9 6.8L47 6.89999L47.2 7L47.1 6.2L47.2 6L47.4 5.7L47.6 5.3L47.7 5.2V5.10001H47.6V5H47.5V4.89999V4.8H47.6V4.7V4.60001V4.5H47.7V4.39999H47.8H47.9H48V4.5H48.1H48.2H48.3L48.4 4.39999L48.6 4.5L48.7 4.3L48.9 4L49.1 3.7L49.3 3.39999V3.3L49.4 3.2H49.5H49.6L49.7 3.10001L49.9 3.3L50 3.2H50.1H50.2H50.3H50.5H50.8L51.5 3.3L51.8 3.60001L52.2 4.10001L52.3 4.2H52.4L52.5 4.10001L52.6 4H52.7L52.8 3.89999V3.8L52.9 3.7H53H53.1V3.8H53.2V3.89999L53.8 3.7L54.1 2.89999H54.2L54.3 3V2.89999L54.4 3L54.5 2.89999V3H54.6H54.7H54.8L54.9 2.89999H55V2.8H55.1V2.89999H55.2H55.3H55.4V3L55.5 3.10001V3.2V3.3H55.6V3.39999H55.7V3.5V3.60001H55.8L55.9 3.7V3.8L56.2 4H56.7H56.8L57 4.10001V4L57.1 4.10001H57.2L57.4 4.2L57.5 4.3L57.8 4L57.9 3.89999H58.1H58.3H58.4L58.2 3.60001V3.5V3.39999L58.4 3.3L58.5 3.2L58.6 2.7V2.60001V2.5L58.7 2.39999V2.10001V2V1.89999V1.8V1.7V1.60001V1.5H58.8V1.39999H58.9H59V1.3H59.1L59.3 1.2L59.4 1.10001L59.5 1V0.899994H59.6H59.7V1H59.8V0.899994H59.7V0.800003H59.8V0.699997L59.9 0.399994H60H60.3H60.4L60.8 0.699997L60.7 1H60.8L61.1 1.10001L61.2 1.3L61.4 1.60001L61.6 1.89999L62.2 2H62.4L62.5 2.60001V3H62.8H63.4H64.2H65.3V3.89999V4.8H65.8H66.1H66.3L66.9 4.7H67.1H67.2V5L67.3 5.2V5.3H67.6V5.89999L67.5 6L67.9 6.3H68L68.3 6.60001L68.5 6.5V6.39999L68.4 6.3V6.2V6.10001H68.3V6L68.2 5.89999L68.3 5.8L69 5.60001L69.5 5.39999L69.8 5.2L70.1 5.3L70.4 5.39999H70.5V5.5L70.6 5.60001L70.5 6L70.9 6.10001L71 6H71.1V5.89999V5.8H71.2L71.3 5.7V5.60001V5.5V5.39999V5.3H71.4V5.2H71.5V5.10001L71.6 5L71.7 4.89999H71.8V5.10001L72 5.3V5.39999V5.5H72.1V5.60001H72.2V5.7H72.3V5.8V5.89999L72.4 6H72.5L72.6 6.10001L72.7 6.2H72.8H72.9L73.1 6.10001V6.2H73.2H73.3L73.2 6.10001H73.3L73.4 6V5.89999H73.5L73.6 5.8V5.5H74.2L74.8 5.39999V5.3L75 5.2L75.2 5.10001H75.3L75.7 5.39999L75.9 5.3H76H76.1H76.2L76.3 5.39999H76.5L77.1 5.60001L77.3 5.7L77.4 5.89999V6H77.5L77.7 6.10001L78 6.2L78.9 6.39999L79.4 6.5L80.3 6.7L80.8 6.8L81.2 6.89999L81.7 7L82.4 7.2H82.6V7.3H82.7L83.5 7.89999H83.7L84.9 7.8L86.1 7.7H86V7.60001V7.5H86.1V7.39999H86.2V7.3V7.2V7.10001L86.1 7V6.8V6.39999H86.5H87H87.1L87.3 6.3L87.8 6.2L88.2 6.10001H88.3L88.2 5.8L88.1 5.60001H88L88.3 5.39999L88.7 5.2L88.8 5.3L89 5.39999L89.3 4.8V4.7V4.5H89.2L89.1 4.39999V4.3L88.8 4.2L88.3 4.10001L88 4H87.8H87.5L87.4 3.7V3.5L87.3 3.39999L87.7 3.2V3.3L87.8 3.39999L88.1 3.3L88.6 3.2L88.7 3.10001H88.9L88.7 2.89999V2.8L89 2.7L89.7 2.39999L90.1 2.2L90.5 2.10001L90.7 2V2.2L91 2.10001L91.4 2L91.6 2.5V2.60001V2.7H91.7V2.8H91.8L92 2.89999V3V3.10001H92.1V3.2L92.2 3.3L92.4 3.39999L92.5 3.5L92.7 3.39999L92.8 3.2L92.9 3.10001L93 2.89999L93.2 2.7L93.8 1.89999L94.6 0.899994L95.4 1.5L96.2 2.2L96.5 2.39999L97.3 3L97.2 3.10001L97.7 3.5V3.60001L97.9 3.8L98.1 3.7H98.3L98.4 3.8V3.89999H98.5L98.4 4.10001V4.2L98.2 4.7H98.3L98.5 4.3H98.6H98.7H98.8H98.9L99.4 3.89999L99.7 4.2L99.8 4L99.6 3.89999L99.7 3.8H99.6V3.7L99.7 3.60001V3.5H99.8V3.39999H99.9H100V3.3L100.1 3.39999H100.2H100.3H100.4V3.5H100.6L100.7 3.60001L101.2 3.7L101.3 3.89999H101.4H101.5V4H101.6V4.10001H101.7L102 4.3L102.2 4.39999L101.7 5L101.5 5.39999L101.3 5.3V5.39999H101.1L101 5.60001H101.1H101.2L101.3 5.7L101.8 6.2L102.1 6.10001L102.2 6.2H102.3V6.10001H102.4V6L102.5 5.8V5.7L102.6 5.39999L102.8 5.2V5.10001V4.89999V4.8V4.7L102.9 4.2V4V3.8L104 3.60001L104.4 3.2H104.5L104.6 3L104.7 3.10001L104.9 2.89999L105.7 2.60001L106.3 2.7H106.4L106.6 2.8H106.7L107.1 2.7H107.2L107.4 2.60001L107.9 2L108.4 2.60001L108.5 2.5L109 2.8H109.2L109.3 2.89999V3.10001H109.4V3.2V3.3L109.5 3.89999L109.6 4.8L109.7 5.39999L109.6 6L109.5 7.10001L109.4 7.8V7.89999V8.10001L109.5 8.3V8.60001V9L109.6 9.2L109.7 9.39999L109.8 9.60001L109.9 9.7V9.8L110 9.89999L110.2 10H110.3H110.4H110.5H110.6V10.2L110.8 10.4L111 11L111.1 11.1L111.3 11.5L111.6 11.7L112.6 12.4L113.3 12.9L113.8 13.2L113.9 13.3H114H114.1L114.2 13.4L114.7 13.9L115 14.2L115.3 14.4H115.4L115.5 14.3V14.4L115.6 14.5L115.7 14.6V14.7V14.8L116.3 15.1L116.5 15.2H116.6L115.9 15.8L116.2 16V16.5L116.6 16.9L117.5 17.5L117.6 17.7L117.5 18L117.2 18.5L117 19L117.7 19.6L119.1 20.9L119.7 21.3V21.4L120 21.6L120.3 21.4H120.6L122.4 21.7H122.5L123 22H123.1L122.9 22.2L122.7 22.4V22.5L122.8 22.6V22.7V22.8V22.9L123 23.1L123.1 23.3V23.4L123.2 23.5L123 23.7V23.8L123.1 23.9H123.2V24H123.1H123V24.2L122.9 24H122.7V24.2V24.4L122.8 24.6L123 24.8L123.1 24.9H123.2L123.4 25V25.2H123.5H123.6V25.1L123.8 25V24.9L123.7 24.7H123.6H123.5V24.6V24.5H123.6L123.7 24.4V24.5L123.8 24.6H124H124.1H124.3V24.7V24.8H124.4H124.5L124.6 24.7H124.7L124.8 24.8L124.7 24.9V25L124.8 25.1V25.3L124.9 25.7L125.1 26.1L125.2 26V25.8L125.1 25.7H125L125.1 25.6L125.2 25.5L125.6 26.2L125.7 26.3L125.6 26.4L125.2 27.6L125.1 27.9H124.8L124.2 28.7L123.8 29.3L123.4 29.9L123.3 30.1L123.2 30.2L123.4 30.6H123.8L123.5 31.6L123.4 32L124 31.9V33H124.4V33.5V33.7H124.6L125.3 34.2L125.6 34.3V34.4L125.7 34.5V34.6H125.8H125.9V34.5V34.4H126V34.3H126.1V34.2V34H126.2H126.3L126.4 34.1L126.5 34H126.6L126.8 34.1V34.2L127 34.3H126.9V34.4H127V34.5H127.1H127.2L127.4 34.6L127.5 34.5L127.6 34.6V34.7H127.7H127.8V34.8H127.9H128H128.1H128.2H128.3V34.9L128.4 35L128.5 35.1L128.6 35.2L128.7 35.3H128.8H128.9L129 35.2L129.1 35.1H129.2H129.3L129.4 35.2L129.6 35.3L129.7 35.2L129.8 35L129.9 35.1H130L129.9 35.3L130 35.4H130.1H130.2H130.4L130.5 35.3H130.3L130.2 35.2L130.3 35.1V35L130.5 34.9V34.8L130.6 34.7L130.5 34.6L130.6 34.5V34.4V34.3V34.2L130.7 34.1V34H130.8L130.9 33.9V33.8V33.7H130.8L131 33.6L131.2 33.8L131.1 33.9V34H131V34.1H130.9V34.2V34.4V34.5V34.6V34.8H131V34.9L131.1 35V35.1L131 35.2V35.4H131.3H131.4H131.5L131.6 35.5H131.7L131.8 35.4H131.9L132 35.3V35.4H132.1V35.3V35.2V35.1H132V35V34.9H132.1V34.8L132 34.7H132.1V34.6H132.2L132.1 34.5V34.4L132 34.3V33.7H132.3V33.5V33.4V33.3H132.2L132.1 32.6V32.5V32.4L132.2 32.3H132.3L132.4 32.2L132.5 32.1L132.8 32.2H133H133.2V32.1V32L133.3 31.9V31.8L133.4 31.7H133.5L133.9 31.5L134.4 31.6H134.5L134.7 31.7L134.6 31.9H134.7V32L134.6 32.1L134.5 32.2L134.4 32.4L134.2 32.7H134.5H134.6H134.7H134.8L135.3 32.6H135.4L135.5 32.5L135.8 32.3L136.3 32L137.2 31.9L137.1 31.5H137.5H138.3H138.4L138.5 31.6H138.6L138.8 31.8L139.3 31.6L139.6 31.1L139.9 31.3L140.4 31.4L142.3 31.6L143.4 31.9L143.8 32L144.3 32.1L144.1 33L143.9 33.6V33.9L144 34.3V34.6V35.1V35.6L144.1 36.3V36.6H144.5L144.7 36.5V36.6V36.7H144.8L145.1 36.8V37V37.4V37.6L145.4 37.7V38.2V38.3L145.2 38.5L144.6 38.9L144.1 39.3V39.6L144 39.8L143.1 40.8L142.7 41.2L142.4 41.6H142.3L142 42.2V42.3L141.8 42.6L141.3 43.6H141.2L140.9 44.2L140.5 44.7L140.4 44.8L140.3 44.9L140.2 45L140.1 45.1H140L140.1 45.4L140.2 45.9L140.3 46.2L140.4 46.7L140.5 46.9V47L140.6 47.3H140.7V47.4H140.8V47.5V47.6H140.7V47.7H140.6L140.5 47.8H140.4L140.3 47.9V48H140.2V48.1H140.3H140.4H140.5H140.6H140.7L140.9 48.3V48.4L141.1 48.5H141.2V48.6L141.3 48.7L141.7 49.2L141.8 49.3L141.9 49.4H142L142.5 49.3L142.9 49.2V49.3L143 49.5L143.1 49.7L143.3 50L143.4 50.2L143.7 50.7L144 51.3L144.1 51.5V51.6L144.4 51.9L144.5 52V52.1L144.6 52.2L144.7 52.3H144.8H144.9V52.4L145.1 52.6L145.3 52.8H145.4V52.9H145.5L145.8 53.1H145.9L146 52.9L146.3 52.8H146.4L146.5 52.9L146.7 53L146.8 53.1L146.9 53.2L147.2 53.3L148.1 53.8L148.3 53.6L148.4 53.5L148.5 53.4L148.6 53.2L148.7 53.1L149 52.8L149.5 52.9L150.2 53H150.5V53.4H150.1L150 53.5L150.1 53.9H150L149.9 54H149.8H149.7H149.6V54.1V54.2H149.7L149.8 54.3V54.4V54.5H149.9V54.4H150V54.5L150.1 54.6H150.2L150.3 54.7L150.4 54.8H150.5V54.9L150.6 55V55.1L150.7 55.2H150.8H150.9H151H151.2L151.5 55.1L151.6 55L151.8 55.1L152.2 55.2H152.5L152.6 55.3H152.7L152.9 55.5L153.3 55.7L153.5 55.6L153.7 55.5H153.8H153.9V55.4H154L154.3 55.2V55.1L154.5 55.2L154.9 55.3L155.5 55.6L155.8 56H155.9L156.8 56.4L157.2 56.5L157.3 56.6V56.8L157.2 57H157.4H157.5H157.7L157.8 57.1H157.9H158H158.1V57.3H158.2L158.3 57.4H158.4V57.5V57.6L158.3 57.7L158.2 58.1L158.1 58.2V58.3L158.2 58.6V58.8L158.3 58.9V59L158.5 59.2L158.4 59.4L158.2 59.5H158.1L158 59.4H157.9L157.8 59.3V59.4H157.7L157.6 59.6L157.4 59.7L157.6 60L157.5 60.1V60.2L157.6 60.3H157.7V60.4H157.8L157.9 60.5H158V60.6L157.7 61.1L157.8 61.5L157.9 61.8L158 62L157.9 62.2V62.3H157.8L157.9 62.4L157.7 62.6V62.9V63.1V63.2L157.9 63.3V63.4V63.5V63.6V63.7V63.8H158L157.8 63.9L157.9 64L158.2 64.3L158.5 64.6L158.6 64.7H158.9H159.1H159.3H159.4L159.6 64.8L160 64.9H160.2H160.4L160.5 65.5V65.6L160.6 65.9L160.7 66.4L160.6 66.5H160.5H160.4H160.3H160.2H160.1L160 66.6L159.9 66.5L159.8 66.4L159.7 66.5L159.5 66.6H159.6V66.7L159.7 66.8L159.9 66.7L160 66.6L160.1 66.7H160.2V66.9L159.9 67.4L159.6 67.9V68.1H159.7H159.8V68.2H159.9L160 68.3L160.3 68.5H160.4H160.5V68.6H160.6H160.7V68.7H160.8L160.9 68.6H161L161.1 68.7H161.2V68.6L161.3 68.7H161.4H161.6V68.6H161.7H161.8H161.9H162H162.1H162.2V68.7H162.3H162.4H162.5H162.6L162.9 68.8H163H163.1H163.2H163.3H163.4H163.6H163.7L163.8 68.9H163.9H164L164.1 69.2L164.3 69.6L164.7 70.3L165.8 70.2L167 70.1V69.9L167.8 69.8H168.5H168.7H168.8V69.7L169.2 69.6V70.1V70.2L168.7 70.4V70.9V71H168.8L169 71.3L169.2 71.5L169.3 71.6L169.4 71.8L169.5 72L169.6 72.1H169.7V72.2L169.8 72.5L169.9 72.6L170 72.8V72.9L170.2 73.3L170.3 73.7V73.9L170.4 74L170.5 74.4L170.6 74.8L170.7 75.2L170.9 75.4V75.6L171 75.7V75.9L171.1 76L171.2 76.3L171.3 76.4L171.4 76.6L171.5 76.8L171.6 77.1L171.7 77.4L171.8 77.5V77.6L171.5 77.7L171.4 77.8H171.3H171.2V77.9V78H171.1H171H170.9H170.8V78.1H170.7H170.6H170.5H170.4H170.2H169.9L169.8 78.2H169.7H169.6H169.5H169.1H169L168.9 78.3H168.6H168.3L167.8 78.4L167.7 78.6V78.7V78.8L167.8 79L167.9 79.1L168.8 79.3V79.8L168.7 80H169.1L169 80.6L168.9 81.1L169.5 81.2L170 81.3V81.4L170.4 81.5L171 81.7L171.7 81.8L171.8 81.9V82V82.1L171.9 82.2L172 82.4V82.5V82.9L171.9 83.3L171.6 84.4L171.3 84.3L170.9 84.2L170.6 84.1V84.4H170.5L170.4 84.3L169.9 84.2H169.7L169.6 84.1L169.2 84L168.8 83.9L168.4 83.8L167.1 83.5L166.6 83.4H166.5L166.1 83.3L165.8 83.2L165.5 83.1L165.1 83H164.7L164.4 82.9H164.3L164 82.8L163.8 83.4L164 83.5L163.9 83.9L163.8 84L163.7 84.4L163.5 85.3V85.4L163.4 85.7L163.3 86.3L163.2 86.6L163.5 86.7L164.3 86.8L164.8 87L165.2 87.4L165.3 87.3H165.4H165.5V87.2H165.6L165.5 87.7V87.8L165.1 89.4V89.5L165 90L164.9 90.4V90.5L166.2 91H166.3V91.1H166.2V91.2L166 91.4L165.7 91.9L165.3 92.4L165.1 92.7L164.7 93.2V93.3L164.4 93.5L164.3 93.7V93.8H164.2L164.1 93.9L163.3 94.9L163.2 95L163.1 95.2H163L162.7 95.6L162.5 95.9L162 96.4L161.5 97L161.4 97.2L161.9 99L161.6 99.2L161.5 99.3H161.4V99.4V99.5V99.6H161.3V99.7V99.8L161.1 100.2L161 100.4L160.7 100.2L160.3 100L160.5 99.7L160.6 99.5L160.1 99.2L159.7 99L159.5 98.9H159.4L159.1 98.8L158.2 98.7V98.8L158.1 98.9L157.9 99H157.1L156.7 98.9L156.1 99V98.9H156L155.9 99V98.9H155.8H155.5L155.1 98.8L154.7 98.7L154.5 98.6H154.4H154.3L154.1 98.5H154H153.9H153.8L153.6 98.4L153.1 98.5H153H152.9H152.8V98.6H152.7V98.5H152.6L152.5 98.6H152.4H152.3V98.5H152.2H152.1H152L151.9 98.6H151.8V98.5H151.7V98.4H151.6L151.5 98.3V98.2H151.4V98.1H151.3V98V97.9V97.8H151.2V97.7V97.6V97.5V97.4H151.3V97.3L150.8 97.1L150.2 96.8L149.9 96.6L149.1 96.2L149 96.3H148.9L148.6 96.6V96.7H148.5V96.8H148.4L148.3 97.1V97.2L148.5 97.3L148.4 97.5V97.6H148.3L148.2 97.8V97.9L148.1 98V98.1L148 98.2H148.1V98.3L147.9 98.6L147.6 98.5L147.5 98.9L147.4 99V99.1V99.3L147.3 99.4V99.5V99.6H147.2V99.7V99.8L146.9 100.8L146.7 101.1L146.6 101.6L146.5 101.8V101.9L146.4 102.1L146.3 102.5L146.5 103.2L146.6 103.7V103.8L146.7 104V104.1L146.8 104.3V104.6L147 105.2L147.1 105.7L147.3 106.3L147.4 107.1L147.6 107.7L147.7 108.3L147.9 109V109.1L148 109.4L148.1 109.8L148.2 110.1Z" fill="#6F9C76"/>
<path d="M147.7 109.7H147.8V109.8H147.9H148V109.9V110V110.1H147.9V110.2V110.3H148L148.1 110.2H148.2V110.1L148.1 109.8L148 109.4L147.9 109.1V109L147.7 108.3L147.6 107.7L147.4 107.1L147.3 106.3L147.1 105.7L147 105.2L146.8 104.6V104.3L146.7 104.1V104L146.6 103.8V103.7L146.5 103.2L146.3 102.5L146.4 102.1L146.5 101.9V101.8L146.6 101.6L146.7 101.1L146.9 100.8L147.2 99.8V99.7V99.6H147.3V99.5V99.4L147.4 99.3V99.1V99L147.5 98.9L147.6 98.5L147.9 98.6L148.1 98.3V98.2H148L148.1 98.1V98L148.2 97.9V97.8L148.3 97.6H148.4V97.5L148.5 97.3L148.3 97.2V97.1L148.4 96.8H148.5V96.7H148.6V96.6L148.9 96.3H149L149.1 96.2L149.9 96.6L150.2 96.8L150.8 97.1L151.3 97.3V97.4H151.2V97.5V97.6V97.7V97.8H151.3V97.9V98V98.1H151.4V98.2H151.5V98.3L151.6 98.4H151.7V98.5H151.8V98.6H151.9L152 98.5H152.1H152.2H152.3V98.6H152.4H152.5L152.6 98.5H152.7V98.6H152.8V98.5H152.9H153H153.1L153.6 98.4L153.8 98.5H153.9H154H154.1L154.3 98.6H154.4H154.5L154.7 98.7L155.1 98.8L155.5 98.9H155.8H155.9V99L156 98.9H156.1V99L156.7 98.9L157.1 99H157.9L158.1 98.9L158.2 98.8V98.7L159.1 98.8L159.4 98.9H159.5L159.7 99L160.1 99.2L160.6 99.5L160.5 99.7L160.3 100L160.7 100.2L161 100.4L161.1 100.2L161.3 99.8V99.7V99.6H161.4V99.5V99.4V99.3H161.5L161.6 99.2L161.9 99L161.4 97.2L161.5 97L162 96.4L162.5 95.9L162.7 95.6L163 95.2H163.1L163.2 95L163.3 94.9L164.1 93.9L164.2 93.8H164.3V93.7L164.4 93.5L164.7 93.3V93.2L165.1 92.7L165.3 92.4L165.7 91.9L166 91.4L166.2 91.2V91.1H166.3V91H166.2L164.9 90.5V90.4L165 90L165.1 89.5V89.4L165.5 87.8V87.7L165.6 87.2H165.5V87.3H165.4H165.3L165.2 87.4L164.8 87L164.3 86.8L163.5 86.7L163.2 86.6L163.3 86.3L163.4 85.7L163.5 85.4V85.3L163.7 84.4L163.8 84L163.9 83.9L164 83.5L163.8 83.4L164 82.8L164.3 82.9H164.4L164.7 83H165.1L165.5 83.1L165.8 83.2L166.1 83.3L166.5 83.4H166.6L167.1 83.5L168.4 83.8L168.8 83.9L169.2 84L169.6 84.1L169.7 84.2H169.9L170.4 84.3L170.5 84.4H170.6V84.1L170.9 84.2L171.3 84.3L171.6 84.4L171.9 83.3L172 82.9V82.5V82.4L171.9 82.2L171.8 82.1V82V81.9L171.7 81.8L171 81.7L170.4 81.5L170 81.4V81.3L169.5 81.2L168.9 81.1L169 80.6L169.1 80H168.7L168.8 79.8V79.3L167.9 79.1L167.8 79L167.7 78.8V78.7V78.6L167.8 78.4L168.3 78.3H168.6H168.9L169 78.2H169.1H169.5H169.6H169.7H169.8L169.9 78.1H170.2H170.4H170.5H170.6H170.7H170.8V78H170.9H171H171.1H171.2V77.9V77.8H171.3H171.4L171.5 77.7L171.8 77.6V77.5L171.7 77.4L171.6 77.1L171.5 76.8L171.4 76.6L171.3 76.4L171.2 76.3L171.1 76L171 75.9V75.7L170.9 75.6V75.4L170.7 75.2L170.6 74.8L170.5 74.4L170.4 74L170.3 73.9V73.7L170.2 73.3L170 72.9V72.8L169.9 72.6L169.8 72.5L169.7 72.2V72.1H169.6L169.5 72L169.4 71.8L169.3 71.6L169.2 71.5L169 71.3L168.8 71H168.7V70.9V70.4L169.2 70.2V70.1V69.6L168.8 69.7V69.8H168.7H168.5H167.8L167 69.9V70.1L165.8 70.2L164.7 70.3L164.3 69.6L164.1 69.2L164 68.9H163.9H163.8L163.7 68.8H163.6H163.4H163.3H163.2H163.1H163H162.9L162.6 68.7H162.5H162.4H162.3H162.2V68.6H162.1H162H161.9H161.8H161.7H161.6V68.7H161.4H161.3L161.2 68.6V68.7H161.1L161 68.6H160.9L160.8 68.7H160.7V68.6H160.6H160.5V68.5H160.4H160.3L160 68.3L159.9 68.2H159.8V68.1H159.7H159.6V67.9L159.9 67.4L160.2 66.9V66.7H160.1L160 66.6M147.7 109.7V109.8M147.7 109.7H147.6L147.7 109.4H147.6L147.5 109.3H147.4L147.1 109.1H147V109V108.9L146.7 108.7L146.6 108.8L146.1 108.1L146.2 107.9V107.8H146.1H146L145.9 107.7H145.8H145.7H145.6H145.5V107.6H145.4V107.5V107.4V107.3M145.4 107.3V107.2V107.1M145.4 107.3L145.3 107.4V107.5H145.2V107.4H145.1V107.3H145.2V107.2V107.1H145.3V107H145.2L145.1 106.9H145H144.9M144.9 106.9V107M144.9 106.9H144.8V107H144.7V106.9H144.6L144.3 107.4L144.2 107.5L144 107.8L143.8 107.6L143.7 107.5H143.6V107.6H143.5V107.7V107.8L143.4 107.9V108V108.1L143.3 108.2V108.3V108.4V108.5V108.6V108.7V108.8V109L143.2 109.2V109.4V109.5L143.3 109.6H143.2V109.7V109.8H143.1H143L142.9 109.9H142.8V109.8H142.7V109.7H142.6V109.8V109.9H142.5H142.4V110L142.2 110.2L141.7 110V109.8L141.1 109.6L140.8 109.5L140.7 109.4V109.5H140.6H140.5V109.4V109.3V109H140.6V108.9H140.7V108.8H140.8H140.9H141L141.1 108.7H141.2H141.3L141.5 108.8H141.7V108.9H141.8V108.8H141.9H142V108.7H142.1V108.6L142.2 108.5V108.4H142.3V108.3V108.2V108.1H142.4L142.3 108H142.2H142.1H142V108.1H141.9V108H141.8H141.7M141.7 108V108.1M141.7 108H141.6V107.9H141.5H141.4H141.3H141.2H141.1L141 107.8H140.9H140.8H140.7H140.6H140.5H140.4V107.7H140.3M140.3 107.7V107.6M140.3 107.7H140.2V107.6H140.1V107.5H140V107.4H140.1L140 107.3V107.2H140.1V107.1H140H139.9H139.8H139.7V107H139.6M139.6 107V107.1M139.6 107H139.5V107.1H139.4H139.3H139.2L139.1 107.2H139H138.9H138.8H138.7V107.3H138.6H138.5H138.4L138.5 107.2H138.4H138.3V107.3H138.2V107.4H138.1V107.5H138.2V107.6H138.3V107.7V107.8H138.4H138.5V107.9H138.4V108H138.3V108.1V108.2H138.4L138.5 108.1H138.6V108.2V108.3H138.5H138.4V108.4H138.3H138.2H138.1L138 108.5V108.6M138 108.6H137.9M138 108.6V108.7V108.8H137.9V108.9H137.8H137.7L137.6 109V108.9H137.5V108.8V108.7V108.6V108.5V108.4M137.5 108.4H137.6V108.3M137.5 108.4V108.3H137.6M137.5 108.4H137.4H137.3V108.3V108.2H137.4H137.5V108.1H137.4V108H137.3H137.2H137.1V108.1H137M137.6 108.3H137.7M137.6 108.3V108.2M137 108.1V108M137 108.1H136.9V108.2H136.8H136.7H136.6H136.5V108.3H136.4V108.2L136.5 108.1H136.4M136.4 108.1V108M136.4 108.1L136.3 108.2H136.2H136.1H136H135.9L136 108.3H135.9V108.4V108.5H135.8V108.6M135.8 108.6H135.9M135.8 108.6H135.7M135.7 108.6V108.7M135.7 108.6H135.6V108.7H135.5V108.6H135.4V108.7V108.8H135.2H135.1V108.9H135V109H135.1V109.1V109.2H135.2V109.3V109.4V109.5V109.6H135.3V109.7H135.4V109.8H135.5V110L135.4 110.1V110.2L135.5 110.4V110.6L135.3 110.7H135.1L134.7 110.6V110.7V110.8V110.9H134.6H134.5L134.4 110.8V110.7H134.3V110.6H134.2H134.1V110.7V110.8H134V110.9L133.9 111L133.8 111.1L133.7 111.2L133.6 111.3H133.5H133.4H133.3V111.2H133.2V111.3H133.1L133 111.4V111.5H132.9L132.8 111.6H132.7V111.7H132.6H132.5V111.8H132.4H132.3H132.2H132.1V111.7H132V111.6H131.9V111.5H132L131.9 111.4L131.8 111.5H131.7H131.6H131.5V111.6H131.4H131.3V111.7H131.2V111.8V111.9V112V112.4L130.3 112.6L130.2 112.5L130.1 112.4V112.3H130V112.2H129.9H129.8V112.3H129.7V112.2V112.1V112M129.7 112H129.6M129.7 112V111.9V111.8H129.6V111.7V111.6H129.5V111.7H129.4H129.3V111.8H129.4V111.9H129.3H129.2H129.1V112H129H128.9V112.1H129V112.2H128.9H128.8V112.1H128.7M128.7 112.1V112.2M128.7 112.1V112H128.8M128.7 112.1H128.6V112.2H128.5H128.4V112.3H128.3L128.2 112.4V112.5H128.1L127.8 112.7L127.5 112.9V113.1L127.4 113.2H127.3H127.2V113.3L127.1 113.4H127V113.3V113.2M127 113.2L127.1 113.1H127V113.2ZM127 113.2H126.9V113.1H126.8H126.7H126.6V113.2L126.5 113.3V113.4V113.5H126.6L126.7 113.6L126.6 113.7V113.8V113.9V114V114.1V114.2H126.7V114.3V114.4H126.8V114.5V114.6H126.7H126.6L126.5 114.5H126.4H126.3H126.2L126.1 114.4L126 114.5L125.9 114.3L125.7 114.4L125.8 114.5V114.6V114.7V114.8H125.7L125.6 114.9V115M125.6 115H125.5M125.6 115V115.1H125.7V115.2V115.3H125.6H125.5V115.4H125.4V115.5L125.5 115.7L125.3 116.1L125.5 116.3L125.6 116.5H125.7L125.6 116.6L125.7 116.8L125.8 116.9L125.3 117.3V117.2L125.1 117.4L125 117.5L124.9 117.4H124.8H124.6L124.5 117.5H124.4H124.3L124 117.3L123.9 117.2H123.8V117.1L123.7 117L123.5 116.8H123.4V116.7L123.3 116.6H123.2V116.5H123.1L123 116.4L122.9 116.2L122.6 116.3L122.5 116.4L122.4 116.6L122.3 116.7L122.2 116.9L122 117L121.9 116.9L121.8 116.8L121.6 116.7L121.2 116.4L120.8 116.1L120.7 116.3L120.5 116.5L120.3 116.7L120.4 116.8H120.3L120.2 116.7L120 116.6L119.8 116.4L119.5 116.2L119 115.9L118.4 115.4L118 115.1L117.7 114.8H117.6V114.7H117.5L117.4 114.6H117.2M117.2 114.6L117.1 114.5V114.6H117.2ZM117.2 114.6V114.8L117.3 115.2V115.3V115.4V115.5V115.6L117.4 115.7L117.2 116L117.5 116.4V116.5L117.6 116.8L117.7 117.2L117.8 117.5L117.6 117.6L117.2 117.7L116.8 117.8L116.5 117.9L116.6 118.1L116.7 118.3L116.8 118.4L116.5 118.6L116.1 118.8L115.6 118.9L115.2 119.1L115 119.2L115.1 119.3L115.2 119.6L115 119.8L114.8 119.9L114.6 120.1V120.2L114.7 120.5H114.2L114.1 120.6L113.8 120.8L113.7 121L113.6 121.1V121.2L113.4 121.5V121.6L113.3 121.7V121.9H113.4L113.6 122L113.8 122.1H113.9H114L114.1 122.2H114.2V122.3H114.3L114.2 122.6L114.5 122.9L114.6 123L114.5 123.3L114.2 123.8L114 124V124.1L113.9 124.2V124.3L113.8 124.4L113.6 124.7L113.4 125L113.2 125.3L113 125.7L112.6 126.3L112.5 126.9L112.4 127.2V127.5L112.3 127.8V127.9V128V128.1L112.2 128.2V128.6V128.7L112.1 128.8V129.1V129.2L112 129.5V129.7V129.8L112.2 129.9V130H112.3L112.4 130.1V130.2L112.6 130.3L112.4 130.5L112.3 130.6L112.5 130.7L112.6 130.8L112.9 131L113.2 131.2L113.4 131.3L113.9 131.6L113.8 131.8V131.9V132.2V132.6L113.7 132.8H113.8H113.9H114H114.1H114.3H114.5V133V133.1V133.2V133.3V133.4V133.5V133.6H114.4V133.7H114.3V133.8L114.2 133.9H114.1H114V134H113.9V133.9V133.8V133.7H113.8V133.8H113.7V133.7H113.6H113.5H113.4H113.2V133.8V134.2V134.4V134.5V134.8L113.1 134.9H113.2H113.3H113.4H113.5V135H113.6H113.7H113.8L113.9 135.1H114V135.2M114 135.2H114.1H114.2H114ZM114 135.2V135.3L113.9 135.4L113.8 135.5H113.7H113.6V135.4H113.5H113.4L113.3 135.5H112.5H111.8V136.3L111.9 136.4V136.8V137.6V138V138.3H112.5H112.6H112.7V138.2H112.8L113 137.9L113.2 137.7L113.3 137.8L113.6 138L113.7 138.1H113.8V138.2L114 138.3H114.1V138.4V138.5H114H113.9V138.6H113.8V138.7H113.7V138.8H113.6V138.9H113.5L113.4 139H113.3L113.2 139.1V139.2H113.1V139.3V139.4V139.5H113V139.6H112.9H112.8H112.7L112.6 139.7H112.5H112.4V139.8V139.9V140H112.5V140.1V140.2V140.3H112.6H112.7H112.8V140.4V140.5V140.6V140.7L112.7 140.8V140.9V141V141.1V141.2H112.6H112.5L112.4 141.3V141.4H112.5V141.5V141.6L112.6 141.7V141.8H112.5H112.4H112.3V141.9H112.4V142H112.3H112.2L112.1 142.1V142.2V142.3L112.3 142.5V142.6V142.7H112.2L112.1 142.8H112L111.9 142.9V143H111.8L111.6 142.9V142.7L111.7 142.5L111.8 142.2L111.9 142V141.9L111.8 141.8V141.7L111.6 141.6L111.4 141.4H111.2L111 141.3H110.6H110.5L110.2 141.4L110 141.5H109.9L109.6 141.4L109.4 141.3L109.1 141L108.6 140.6L108.5 140.4H108.4L108.2 140.3L108 140.2H107.8L107.5 140.3L107.3 140.2L107.1 140.1L106.9 139.9L106.5 139.5L106.3 139.3L106.2 139.2L106 139.1L105.9 139L105.7 138.9H105.6H105.4L105.2 139L105 139.1L104.8 139.2H104.7H104.5L104 139.1H103.8L103.4 138.9L103.2 138.7L103.1 138.6L102.9 138.4L102.8 138.1V137.8L102.7 137.5L102.8 137.3V137.1L102.9 136.9V136.8L103.2 136.6V136.4L103.3 136.3V136.2L103.2 136L103.1 135.9L103 135.7L102.8 135.5L102.6 135.4L102.5 135.3H102.3L102 135.2H101.8L101.7 135.3H101.5L101.3 135.4H101H100.8H100.7L100.5 135.3L100.3 135.2L100.2 135L99.9 134.7L99.7 134.5L99.4 134.3L99.1 134.2L98.8 134L98.6 133.9L98.5 133.7L98.4 133.6V133.5V133.3V133.1V132.7V132.6L98.3 132.5L98.1 132.3H98L97.7 132.2L97 132.1H96.7H96.3H96.1H95.9L95.8 132L95.5 131.8L95 131.5H94.9L94.5 131.2L94.2 131.1H94.1L94 131H93.9H93.8H93.6H93.5H93.4L93.1 130.9L92.9 130.7L92.7 130.6L92.5 130.4V130.3L92.4 130.2L92.3 130.1L92 129.9V129.8L91.9 129.7L91.7 129.6V129.5L91.6 129.4L91.5 129.3L91.3 129.1H91.2L91.1 129L90.9 128.9H90.7L90.5 128.8L90.3 128.7L90.1 128.5L89.9 128.4L89.8 128.3L89.4 128L89 127.5L88.8 127.3L88.7 127.2L88.6 127.1L88.4 126.9L88 126.7H87.9L87.7 126.6L87.3 126.5L87.1 126.4H87H86.8H86.6H86.5H86.4H86.3H86.2H86L85.7 126.3H85.5L85.3 126.2L85.1 126.1L84.8 126H84.7H84.6L84.2 126.1H84.1L83.6 126.3H83.4H83.2H83.1H83L82.7 126.4H82.6H82.5H82.3L82.2 126.3L81.8 126L81.7 125.9H81.6L81.4 125.8L81.3 125.7V125.5L81.2 125.4L81.1 125.3H81V125.2H80.9H80.8V125.1L80.7 125L80.6 124.8L80.5 124.7L80.3 124.2L80.1 123.9L80 123.4H79.9H79.8L79.7 123.5H79.4H79.1L78.9 123.6L78.6 123.8V123.9V124.1L78.5 124.3V124.4V124.5V124.6V124.7L77.7 125.1V125.2L77.3 125.8L77 125.6L76.9 125.9L76.8 126.1H76.7V126.2L77 126.4L77.2 126.5L77 126.7L76.5 127.5L76.1 128.1L75.8 128.2L75.7 127.9L75 128L75.1 128.3H75.4V128.4V128.5V128.6L74.7 128.5L74.5 128.4H74.4L74.3 128.5H74.2H74V128H73.9H73.8H73.7L73.5 127L72.4 127.2L71.5 127.4V127.7H71.4H71.3L71.2 127.8H71.1V127.9L70.9 128.1V128.2V128.3H70.8H70.7H70.6V128.2H70.5V128.3H70.4V128.4H70.3L70.5 126.8L70.2 126.5L70.4 125.5L70.3 125.4L69.3 125.3L69.1 125.2H69L68.2 125.1L68.1 125.4L68 125.5H67.9L67.7 125.7L67.6 125.6L67.4 125.5V125.4L67.6 125.5L67.7 125.6L67.8 125.3V125.2L67.6 125H67.4H67.3H67.2H67.1L66.9 124.7L66.7 124.9L66.8 125.1L66.6 125.3L66.5 125.4V125.5L66.6 126V127L66.7 127.3V127.4L66.5 127.3L65.3 126.5L64.3 125.8L64.2 125.7V125.5V125.3H64.1H64L63.7 125.4L63.2 125.7L63.1 125.5L62.5 125.7L62.4 125.3L62.2 125L62.8 124.7L62.6 124.2L62.4 123.8L62.1 123.2H62.2V123.1V123H62.1L62 122.6L61.8 122.2L61.7 122L61.6 121.8L61.4 121.4V121.2V121.1H61.5V121.2V120.9H61.6H61.7L61.8 120.8H61.9V120.7H62V120.6L62.1 120.5V120.4H62.2L62.3 120.3H62.4L62.5 120.2H62.6L62.7 120.1L62.8 120L62.9 119.9L63 119.8H63.1H63.2L63.3 119.7L63.2 119.6L63 119.2L62.9 119.1L62.8 118.8L62.7 118.7V118.6V118.5L62.6 118.4L62.5 118.5H62.4V118.3V118.2V118.1L62.2 117.6L61.8 117.1L61.7 117L61.6 116.8L61.5 116.7V116.6V116.5L61.6 116.4V116.3L61.9 115.7L61.5 115.5L61.3 115.3H61.2H60.9L60.4 115.4V115.3L60.5 115.2V115.1V115H60.4H60.3H60.2H60.1L60 114.9V114.8L60.1 114.7H60H59.9M59.9 114.7V114.8M59.9 114.7H59.8H59.7H59.6L59.7 114.5H59.8L59.9 114.4H60L60.2 114.3H60.3V114.2L60.4 114.3H60.5H60.6H60.7H60.8H60.9H61L61.4 113.4L61.5 113.1L61.8 112.6L61.4 112.5L61.1 112.4L60.9 112.3L60.8 112.2L60.7 112.1V112L60.4 111.7L60.3 111.5L60.2 111.4L59.9 111.5V110.9L59.8 110.7V110.6V110.5V110.4L59.7 110.1L59.6 110L59.5 109.9L59.2 109.6L59.1 109.5L58.8 109.2L58.7 109.1L58.5 108.9H58.4L58.5 109V109.1V109.2L58.6 109.5L58.7 109.7V109.9L58.8 110V110.2L58.9 110.4V110.5V110.6V110.7V110.8V111V111.1V111.4V111.5V111.7V112.1V112.2V112.8V113V113.7V113.8V114.5V114.7V114.8V115.1V115.2L58.8 115.6V115.7H58.7H58.6L58.2 115.4L58 115.3L57.9 115.2H57.8L57.7 115.3V115.7V115.8H57.6L57.2 115.9L57.1 116L57 116.1H56.9H56.7H56.6H56.5L56.4 116L56.3 115.7V115.6H56.2L56 115.5V115.4L56.4 115L56.3 114.9L55.9 114.4L55.8 114.3H55.7H55.5H55.4L54.9 114.4H54.8L54.7 114.5L54.6 114.4H54.4L54.3 114.3V114.2L54.2 114.1V114L54.3 113.8L54.4 113.4V113.2L54.3 113V112.8L54 112.5V112.4V112.3L54.3 112L54.4 111.9V111.8V111.7L54.3 111.6L54.2 111.4L53.9 111.1L53.8 110.9L53.5 110.5L53.2 109.9L53 109.6V109.5L52.9 109.4L52.6 109.2L52.5 109.1V109L52.4 108.9V108.8V108.6V108.5L52.3 108.4L52.2 108.2L52 107.9L51.8 107.8L51.7 107.7H51.6H51.4H51.1L50.9 107.6L50.7 107.5H50.5L50.4 107.4H50.3H49.9L49.3 107.6H49.1L48.9 107.5H48.6L48.4 107.6H48.1H48L47.9 107.5L47.8 107.4L47.6 107.2L47.4 106.7L47.3 106.6L46.9 106.4L46.5 106.2L46.1 106.1H46L45.9 105.9L45.7 105.8L45.6 105.7V105.5L45.5 105.4V105.2V105.1L45.6 104.9V104.8L45.7 104.6L45.8 104.4V104.3V104.1V103.9V103.7L45.7 103.6V103.4L45.6 103.3V103.2H45.5L45.4 103.1L45.3 103L45 102.9H44.9H44.8L44.5 103L44.3 103.1H44.2L44 103.2L43.6 103.5L43.4 103.6H43.3H43.2L43.1 103.7H43L42.8 103.8H42.7L42.5 103.7H42.4H42L40.8 103.6L39.7 103.1L39.2 102.8H39.1L39 102.7L38.9 102.6H38.8L38.7 102.5H38.6H38.5L38.3 102.6L38.2 102.7H38.1H37.9H37.7H37.6L37.4 102.6H37.3H37.2H37.1H37H36.9L36.8 102.7V102.8L36.7 102.9L36.6 103L36.5 103.1L36.3 103.3L36.1 103.4H35.8H35.4H35.2L35.1 103.5H35L34.9 103.6L34.7 103.7L34.6 103.8H34.5H34.4L34.3 103.7H34.2V103.6V103.5H34.1V103.4H34.2V103.2V103.1L34.1 103H34H33.8H33.7V102.9H33.6L33.4 102.6L33.3 102.5L33.1 102.3L33 102.2H32.9H32.5H32.4H32.3V102.1L32.2 102L32.1 101.9H32H31.9H31.6L31.2 102H30.9L30.7 102.1H30.6H30.4L30.3 102H30.2V102.1H30.1H30L29.9 102.3V102.4H29.8L29.7 102.5L29.4 102.6L29.2 102.7H29L28.9 102.6L28.7 102.5L28.5 102.3L28.2 101.9L28.1 101.8L28 101.7H27.9H27.7H27.6H27.5H27.4L27.3 101.8L26.9 102.1L26.8 102.2H26.7H26.6L26.5 102.1V102L26.4 101.8V101.6L26.3 101.2L26.2 100.9V100.8L26.1 100.6V100.5H26L25.9 100.4L25.6 100.3L25.3 100.1H25L24.7 100H24.6L24.5 99.9L24.4 99.8L24.2 99.6L24.1 99.5L23.8 99.2H23.7L23.5 99L23 98.7L22.8 98.5L22.7 98.4H22.5V98.3H22.4H22.1L21.8 98.2L21.6 98.1L21.4 98L21.2 97.9L21.1 97.8L20.5 97.3L19.9 96.8L19.6 96.5H19.5V96.4V96.3L19.6 96.2L19.8 95.9L19.9 95.8L20 95.7H20.1V95.6V95.5V95.4H20L19.8 95.5H19.7H19.6H19.4H19.3V95.4L19.2 95.3V95.2V95.1V95L19.3 94.8H19.4V94.7L19.9 94.4L20 94.3L20.1 94.2V94.1V94V93.7V93.6V93.5L20.2 93.4L20.5 92.9L20.6 92.8V92.7L20.7 92.6V92.4V92.3L20.9 92V91.9L21 91.5V91.4L21.1 91.2V91.1L21.3 91H21.4L21.5 90.5L21.6 90.4V90.3H21.7H21.8V90.4H21.9L22 90.5H22.1L22.2 90.6H22.3V90.7L22.4 90.8V90.9V91H22.5V91.1H22.4V91.2H22.5V91.3V91.4V91.5H22.6V91.6V91.7H22.7L22.8 91.8L22.9 91.9V92H23H23.1L23.2 92.1V92.2H23.3L23.4 92.3H23.5H23.6L23.7 92.4H23.8H23.9H24V92.3H24.1H24.2V92.2H24.3H24.4L24.5 92.3H24.6H24.7V92.4H24.8V92.5H24.9H25H25.1H25.2H25.3V92.6H25.4H25.5H25.6H25.7H25.8H25.9H26L26.1 92.7H26.2H26.3V92.8H26.4H26.5V92.9H26.6V93H26.7H26.8V93.1H26.9V93.2H27H27.1L27.2 93.3H27.3V93.4H27.4H27.5L27.6 93.5L27.7 93.6H27.8H27.9L28 93.7H28.1V93.8H28.2V93.9H28.3V94H28.4L28.5 94.1H28.6L28.7 94.2H28.8H28.9H29V94.3H29.1H29.2H29.3H29.4M29.4 94.3V94.2M29.4 94.3H29.5H29.6H29.7V94.4H29.8V94.5H29.9H30H30.1V94.6H30.2H30.3H30.4H30.5H30.6H30.7L30.8 94.5H30.9H31H31.1H31.2H31.3L31.4 94.4H31.5H31.6H31.7H31.8H31.9H32V94.5H32.1H32.2H32.4H32.5L32.6 94.6H32.7H32.8H32.9H33.1V94.5H33.2V94.4V94.3V94.2L33.1 94.1V94V93.9V93.8V93.7L33 93.6H33.1V93.5V93.4V93.3V93.2V93.1V93H33H32.9L32.8 92.9H32.7L32.6 92.8L32.5 92.7L32.4 92.6H32.3V92.5L32.2 92.4L32.1 92.3L32 92.2V92.1H31.9H31.8H31.7H31.6V92.2H31.5H31.4H31.3H31.2V92.3L31.1 92.2H31H30.9V92.1H30.8V92H30.7V91.9V91.8H30.6V91.7V91.6H30.5V91.5L30.4 91.4V91.3H30.3V91.2V91.1H30.2V91V90.9L30.1 90.8V90.7H30.2V90.6V90.5V90.4L30.3 90.3V90.2V90V89.9V89.8V89.7V89.6V89.5V89.4V89.3V89.2V89.1V89H30.2V88.9H30.1M30.1 88.9V88.8M30.1 88.9H30H29.9H29.8H29.7L29.6 88.8H29.4V88.7H29.3H29.2V88.6V88.5V88.4H29.1L29 88.3H28.9L28.8 88.2V88.1V88V87.9L28.9 87.8V87.7H29L29.1 87.6H29.2L29.3 87.5H29.4H29.5H29.6V87.4H29.7L29.8 87.3L29.9 87.2V87.1V87L29.8 86.9V86.8V86.7V86.6H29.7V86.5L29.6 86.4V86.3H29.5V86.2H29.6V86.1V86V85.9V85.8V85.7V85.6V85.5V85.4V85.3L29.7 85.2H29.8L29.7 85.1H29.8V85V84.9L29.7 84.8H29.8V84.7V84.6V84.5L29.7 84.3V84.2V84.1H29.8V84V83.9V83.8H29.9V83.7V83.6H30V83.5L30.1 83.4V83.3V83.2L30.2 83.1H30.3H30.4H30.7H31L31.4 83.2L31.5 83.3H31.6H31.7L31.8 83.2L32 83L33 81.9H33.1L33.2 81.8L33.3 81.7L33.4 81.6L33.5 81.5H33.6V81.4V81.3H33.7H33.8V80.1V79.9V79.8H33.9V79.7H33.8H33.7V79.6V79.5V79.4H33.8V78.9V78.8H33.9V78.7V78.6H33.8V78.5V78.4H33.9V78.3M33.9 78.3H34M33.9 78.3V78.2H33.8L33.9 78.1H34V78H33.9V77.9M33.9 77.9H34M33.9 77.9H33.8V77.8M33.8 77.8H33.9V77.7H33.8V77.8ZM33.8 77.8L33.7 77.7L33.8 77.6V77.5H33.9V77.4H34L34.1 77.3H34.2V77.2H34.1H34H33.9H33.8V77.3V77.4H33.7V77.3L33.6 77.1L33.5 76.9L33.3 76.6L33.2 76.5L33.1 76.4L32.4 75.7H32.3H32.2H32.1L32 75.8H31.9L31.6 75.5L31.5 75.4L31.4 75.3L31.3 75.2H31.2H31.1V75.1L31.4 75L31.5 74.9H31.6L31.7 74.8V74.7L31.8 74.6V74.5H31.9V74.4H32V74.3V74.2H31.9H31.8H31.7L31.6 74.1H31.7V74H31.8V73.9H31.9H32H32.1V73.8H32V73.7V73.6H31.9H31.8V73.5V73.4H31.9V73.3V73.2V73.1V73H32V72.9H31.9H31.8V73H31.7V72.9V72.8V72.7L31.6 72.6H31.5V72.5L31.6 72.4V72.3V72.2V72.1L31.5 72H31.4V71.9V71.8V71.7H31.3V71.6H31.4H31.5H31.6H31.7V71.5M31.7 71.5H31.8M31.7 71.5V71.4H31.6H31.5V71.3H31.6H31.7V71.2V71.1H31.6V71M31.6 71H31.7V70.9H31.6V71ZM31.6 71H31.5M31.5 71V71.1M31.5 71H31.4H31.3V70.9V70.8H31.2V70.7H31.1V70.8H31H30.9M30.9 70.8V70.9M30.9 70.8H30.8V70.7H30.7V70.6H30.6V70.5H30.5L30.4 70.4V70.3H30.3V70.2V70.1V70H30.2H30.1L30 69.9L29.9 69.8L30.1 69.7L30 69.5L29.9 69.4H29.8H29.7H29.6H29.5H29.4H29.3L29.5 69.1L27.5 68.3L26.6 68L25.9 67.7L24.9 67.4V66.9V66.8L24.8 66.3V66L24.7 64.6L24.6 63.8H24.7V63.7H24.8V63.6V63.5V63.4V63.3L24.5 62.8L24.3 62.5L24 61.8H23.6H23.4H23H22.2H22H21.9L21.8 61.4L21.7 61L21.6 60.5L21.5 60L21.4 59.8V59.6V59.4L21.1 59.5L18.6 60L18.4 59.2L18.2 58.7V58.6L18 58.2V58.1L17.8 57.9V57.8L17.6 57.6V57.5L17.3 57.3L17.2 57.1L17.3 57L17.2 56.9L17.1 56.8H17V56.7L16.9 56.6L16.8 56.5V56.4L16.7 56.2L16.6 56V55.9L16.5 55.8L16.2 55.5L15.9 55.2V55.1H15.8V55L15.5 54.7L15.3 54.4L15.1 54.2L15 54.1L14.9 54L14.8 53.9L15.2 53.6L15.3 53.5L15.8 53.1L16.2 53.7L16.3 53.9L16.4 53.8L16.8 53.6L17.1 53.4L17.4 53.2L17.7 53L17.9 52.9V52.8L17.7 52.6L17.5 52.5L17.4 52.4L17.3 52.3L17.1 52.1L17 51.9L16.9 51.7V51.5V51.3L17 50.9V50.7L17.1 50.6V50.5V50.3V49.7L17.4 49.8H17.6L17.7 49.5L17.4 49.3L17.1 49.2V48.9L17.2 48.8V48.6L17.3 48.3L17.4 48.1V48V47.9V47.8L17.5 47.7V47.6V47.5L17.6 47.2H17.5L17.4 47.1L17.3 47L16.7 46.6L16.4 46.4L15.8 46.1L15.1 45.6V45.2L15 44H14.7L14.6 43.9L14.5 43.6V43V42.6L14.4 42.3V42L14.3 41.5L13.4 41.3L13.5 40.9V40.8V40.7V40.6L13.6 40.5L13.7 40.4H13.6V40.3H13.5L13.4 40.2V40.1H13.3V40L13.2 39.9H13.1V39.8L12.9 39.6L12.8 39.5L12.7 39.6L12.5 39.9L12.4 40V40.1L12.3 40.5L12.2 40.8V40.9V41L11.8 41.1V41L11.6 40.8H11.5L11.4 40.7V40.6L11.3 40.5L11.1 40.3L10.8 40L10.7 39.9L10.6 39.7L10.4 39.5L10.3 39.4L10.2 39.3L10.1 39.2L10 39.1V39H9.90002V38.9V38.8H9.79999L9.70001 38.6L9.59998 38.4L9.5 38.3V38.2V38.1L9.40002 38L9.29999 37.9L9.20001 37.6L9.29999 37.3V37.2H9.40002L9.70001 36.8L9.79999 36.5H9.90002V36.4H9.79999V36.3H9.70001L9.59998 36.2H9.5L9.40002 36.1V36H9.29999V35.9H9.20001H9.09998H9V35.8H8.90002V35.7V35.6L8.79999 35.5L8.70001 35.4L8.59998 35.3V35.2V35.1L8.70001 35H8.90002L10.4 34.6L11.3 34.7L11.2 34L11 32.9L10.7 32.8L10.1 32.6L9.40002 32.4L8.09998 32L7.09998 31.8L7 31.7L6.5 31.6L5.40002 31.3L5.29999 31.2L4.90002 31.1V31H4.79999V30.9L4.70001 30.8V30.7L4.59998 30.6L4.5 30.4V30.3H4.40002L4.29999 30.1L4.20001 29.9V29.8V29.7V29.6V29.4L4.09998 29.3H3.79999L3.29999 28.8H3.20001L3.09998 28.7L3 28.6L2.70001 28.3L1.59998 27.4L1.79999 27.2L2.29999 26.4L1.90002 26.1L1.20001 25.6L0.799988 25.3L1 25.1L0.799988 24.9L0.700012 24.8L0.5 24.7V24.5L0.799988 23.5V23.3L1 22.6V22.4L0.799988 22.3L1 22.2M1 22.2H1.09998M1 22.2L0.5 21.9L0.299988 21.8L0.5 21.7V21.6H0.599976V21.5H0.700012H0.799988H0.900024L1.59998 21.1L1.90002 20.9L2.09998 20.7L2.40002 20.5L2.5 20.4H2.59998L2.79999 20.2L3 20.1L2.70001 19.5L2.5 19.2L2.70001 19.1L3.09998 18.8H3.20001V18.7L3.40002 18.2L3.59998 17.5L3.5 17.2L3.29999 16.9L3.20001 16.7L3.29999 16.6H3.40002L4.09998 16.4L4.40002 16.3L4.90002 16.2L5.40002 16.1L6.29999 16L6.79999 15.9H6.90002H7V16H7.09998V16.1H7.20001V16.2H7.29999V16.3V16.4H7.40002L7.5 16.5H7.59998L7.70001 16.4L7.79999 16.3L7.90002 16.2L8.09998 16.3V16.4H8V16.5L8.70001 16.7L8.79999 16.8L9.29999 16.5L9.5 16.4V16.3L9.40002 16.2H9.29999L8.79999 16.4V16.3L8.90002 15.9H9L9.09998 15.8L9.29999 15.7V15.5L9.09998 15.4V15.3V15.2L8.79999 15.1V14.9L8.70001 14.6H8.79999H10V14.1L10.6 14.2L10.7 13.9L10.8 13.1L10.9 12.7L11.2 12.8L11.4 12.4H11.5L12.4 12.3L12.3 12.2V12.1L12.1 11.6L11.9 11.3V11.2V11.1L12.1 10.8V10.7H12.2V10.6H12.3H12.4H12.5V10.5H12.6H12.7M12.7 10.5V10.4M12.7 10.5H12.8H12.9V10.4H13V10.3H13.1V10.4H13.3H13.8L14.4 10.5V10.6L14.5 11.1L14.6 11.2V11.3V11.4L16 12L16.2 11.6L17.2 12.1L17.9 12.4L18.5 12.7L19.3 12.8H19.6H20L20.4 12.5L20.6 12.8L20.9 12.6V12.7V12.8H20.8V12.9L20.9 13L20.8 13.2L20.7 13.1H20.6L20.7 13.2L20.8 13.4V13.5V14.4V14.5H20.5V14.6H20.4V14.7V14.8H20.5V15V15.1L20.9 15.2V15.4L21.2 15.5L21.4 15.6L21.7 15.8L22.2 16.6L22.4 16.8V16.9H22.5H22.6L22.9 16.7H23V16.6L23.3 16.4L23.4 16.3V16.2L23.6 16.3L23.7 16.2H23.8H24L24.1 16.1V16L24.2 15.9H24.3V15.8H24.4H24.6H24.7H24.8H24.9H25V15.9H25.1H25.2H25.3L25.4 16V16.1H25.5H25.6H25.7H26.1L26.9 16H27.3H27.4H27.8H27.9H28L27.9 15.6V15.2H28H28.3H28.4H28.5H28.6L28.7 15.1H28.9H29.4L29.6 15H29.7H29.8V14.9V15.1V15.9H30H30.1H30.7L31.2 16H31.3H31.4H31.5H32H32.6L32.8 16.1L32.9 16H33L33.3 15.9H33.4V16V16.1H33.3V16.2L33.4 16.4H33.5V16.2L33.6 15.9L33.7 15.8H33.8V15.9L33.9 16H34V16.1L34.1 16.3L34.2 16.5H34.3V16.6H34.4H34.5L34.6 16.4H34.7V16.3H34.8L36 16.8V16.7L36.1 16.5L36.2 16.3L36.3 16.1L36.4 16L36.1 15.9H36L35.8 15.7L35.6 15.6H35.7V15.5H35.8H35.9V15.4L35.8 15.3H35.7V15.2L35.6 15.1H35.7H35.8V15V14.9H36H36.1V14.8H36.2H36.3H36.4L36.5 14.7L36.8 14.6H36.9H37.6H38.2L38.8 14.1L39.5 13.5H39.6L40.1 13L40.8 12.5L41.2 12.2L41.3 12.1H42H42.1V12H42.2V11.9V11.8H42.1V11.7V11.6V11.5V11.3L42 11.1V10.8V10.7H42.1L42.4 10.6V10.3L42.9 10.2V10.3H43H43.1V10.2H43.2H43.3M43.3 10.2L43.4 10.3V10.2H43.3ZM43.3 10.2V10.1V10H43.2V9.89999V9.8H43.1H43V9.7V9.60001L43.3 9.39999L43.7 9.10001V9L43.8 8.89999L43.9 9H44L44.1 9.10001L44.3 9.2L44.6 9H44.7V8.89999L44.8 8.8V8.7H44.9V8.60001V8.5H44.8V8.39999L44.7 8.3V8.2H44.8V8.10001V8V7.89999H44.9L45.2 7.8L45.3 7.60001V7.5L45.1 7.2V7.10001L44.9 6.7L45 6.60001H45.2H45.3V6.7H45.4H45.7H45.8L45.9 6.39999L46.3 6.60001L46.5 6.7H46.6L46.9 6.8L47 6.89999L47.2 7L47.1 6.2L47.2 6L47.4 5.7L47.6 5.3L47.7 5.2V5.10001H47.6V5H47.5V4.89999V4.8H47.6V4.7V4.60001V4.5H47.7V4.39999H47.8H47.9H48V4.5H48.1H48.2H48.3L48.4 4.39999L48.6 4.5L48.7 4.3L48.9 4L49.1 3.7L49.3 3.39999V3.3L49.4 3.2H49.5H49.6L49.7 3.10001L49.9 3.3L50 3.2H50.1H50.2H50.3H50.5H50.8L51.5 3.3L51.8 3.60001L52.2 4.10001L52.3 4.2H52.4L52.5 4.10001L52.6 4H52.7L52.8 3.89999V3.8L52.9 3.7H53H53.1V3.8H53.2V3.89999L53.8 3.7L54.1 2.89999H54.2L54.3 3V2.89999L54.4 3L54.5 2.89999V3H54.6H54.7H54.8L54.9 2.89999H55V2.8H55.1V2.89999H55.2H55.3H55.4V3L55.5 3.10001V3.2V3.3H55.6V3.39999H55.7V3.5V3.60001H55.8L55.9 3.7V3.8L56.2 4H56.7H56.8L57 4.10001V4L57.1 4.10001H57.2L57.4 4.2L57.5 4.3L57.8 4L57.9 3.89999H58.1H58.3H58.4L58.2 3.60001V3.5V3.39999L58.4 3.3L58.5 3.2L58.6 2.7V2.60001V2.5L58.7 2.39999V2.10001V2V1.89999V1.8V1.7V1.60001V1.5H58.8V1.39999H58.9H59V1.3H59.1L59.3 1.2L59.4 1.10001L59.5 1V0.899994H59.6M59.6 0.899994V0.800003M59.6 0.899994H59.7M59.7 0.899994V1H59.8V0.899994H59.7ZM59.7 0.899994V0.800003H59.8V0.699997L59.9 0.399994H60H60.3H60.4L60.8 0.699997L60.7 1H60.8L61.1 1.10001L61.2 1.3L61.4 1.60001L61.6 1.89999L62.2 2H62.4L62.5 2.60001V3H62.8H63.4H64.2H65.3V3.89999V4.8H65.8H66.1H66.3L66.9 4.7H67.1H67.2V5L67.3 5.2V5.3H67.6V5.89999L67.5 6L67.9 6.3H68L68.3 6.60001L68.5 6.5V6.39999L68.4 6.3V6.2V6.10001H68.3V6L68.2 5.89999L68.3 5.8L69 5.60001L69.5 5.39999L69.8 5.2L70.1 5.3L70.4 5.39999H70.5V5.5L70.6 5.60001L70.5 6L70.9 6.10001L71 6H71.1V5.89999V5.8H71.2L71.3 5.7V5.60001V5.5V5.39999V5.3H71.4V5.2H71.5V5.10001L71.6 5L71.7 4.89999H71.8V5.10001L72 5.3V5.39999V5.5H72.1V5.60001H72.2V5.7H72.3V5.8V5.89999L72.4 6H72.5L72.6 6.10001L72.7 6.2H72.8H72.9L73.1 6.10001V6.2H73.2H73.3L73.2 6.10001H73.3L73.4 6V5.89999H73.5L73.6 5.8V5.5H74.2L74.8 5.39999V5.3L75 5.2L75.2 5.10001H75.3L75.7 5.39999L75.9 5.3H76H76.1H76.2L76.3 5.39999H76.5L77.1 5.60001L77.3 5.7L77.4 5.89999V6H77.5L77.7 6.10001L78 6.2L78.9 6.39999L79.4 6.5L80.3 6.7L80.8 6.8L81.2 6.89999L81.7 7L82.4 7.2H82.6V7.3H82.7L83.5 7.89999H83.7L84.9 7.8L86.1 7.7H86V7.60001V7.5H86.1V7.39999H86.2V7.3V7.2V7.10001L86.1 7V6.8V6.39999H86.5H87H87.1L87.3 6.3L87.8 6.2L88.2 6.10001H88.3L88.2 5.8L88.1 5.60001H88L88.3 5.39999L88.7 5.2L88.8 5.3L89 5.39999L89.3 4.8V4.7V4.5H89.2L89.1 4.39999V4.3L88.8 4.2L88.3 4.10001L88 4H87.8H87.5L87.4 3.7V3.5L87.3 3.39999L87.7 3.2V3.3L87.8 3.39999L88.1 3.3L88.6 3.2L88.7 3.10001H88.9L88.7 2.89999V2.8L89 2.7L89.7 2.39999L90.1 2.2L90.5 2.10001L90.7 2V2.2L91 2.10001L91.4 2L91.6 2.5V2.60001V2.7H91.7V2.8H91.8L92 2.89999V3V3.10001H92.1V3.2L92.2 3.3L92.4 3.39999L92.5 3.5L92.7 3.39999L92.8 3.2L92.9 3.10001L93 2.89999M93 2.89999V3M93 2.89999L93.2 2.7L93.8 1.89999L94.6 0.899994L95.4 1.5L96.2 2.2L96.5 2.39999L97.3 3L97.2 3.10001L97.7 3.5V3.60001L97.9 3.8L98.1 3.7H98.3L98.4 3.8V3.89999H98.5L98.4 4.10001V4.2L98.2 4.7H98.3L98.5 4.3H98.6H98.7H98.8H98.9L99.4 3.89999L99.7 4.2L99.8 4L99.6 3.89999L99.7 3.8H99.6V3.7L99.7 3.60001V3.5H99.8V3.39999H99.9H100V3.3L100.1 3.39999H100.2H100.3H100.4V3.5H100.6L100.7 3.60001L101.2 3.7L101.3 3.89999H101.4H101.5V4H101.6V4.10001H101.7L102 4.3L102.2 4.39999L101.7 5L101.5 5.39999L101.3 5.3V5.39999H101.1L101 5.60001H101.1H101.2L101.3 5.7L101.8 6.2L102.1 6.10001L102.2 6.2H102.3V6.10001H102.4V6L102.5 5.8V5.7L102.6 5.39999L102.8 5.2V5.10001V4.89999V4.8V4.7L102.9 4.2V4V3.8L104 3.60001L104.4 3.2H104.5L104.6 3L104.7 3.10001L104.9 2.89999L105.7 2.60001L106.3 2.7H106.4L106.6 2.8H106.7L107.1 2.7H107.2L107.4 2.60001L107.9 2L108.4 2.60001L108.5 2.5L109 2.8H109.2L109.3 2.89999V3.10001H109.4V3.2V3.3L109.5 3.89999L109.6 4.8L109.7 5.39999L109.6 6L109.5 7.10001L109.4 7.8V7.89999V8.10001L109.5 8.3V8.60001V9L109.6 9.2L109.7 9.39999L109.8 9.60001L109.9 9.7V9.8L110 9.89999L110.2 10H110.3H110.4H110.5H110.6V10.2L110.8 10.4L111 11L111.1 11.1L111.3 11.5L111.6 11.7L112.6 12.4L113.3 12.9L113.8 13.2L113.9 13.3H114H114.1L114.2 13.4L114.7 13.9L115 14.2L115.3 14.4H115.4L115.5 14.3V14.4L115.6 14.5L115.7 14.6V14.7V14.8L116.3 15.1L116.5 15.2H116.6L115.9 15.8L116.2 16V16.5L116.6 16.9L117.5 17.5L117.6 17.7L117.5 18L117.2 18.5L117 19L117.7 19.6L119.1 20.9L119.7 21.3V21.4L120 21.6L120.3 21.4H120.6L122.4 21.7H122.5L123 22H123.1L122.9 22.2L122.7 22.4V22.5L122.8 22.6V22.7V22.8V22.9L123 23.1L123.1 23.3V23.4L123.2 23.5L123 23.7V23.8L123.1 23.9H123.2V24H123.1H123V24.2L122.9 24H122.7V24.2V24.4L122.8 24.6L123 24.8L123.1 24.9H123.2L123.4 25V25.2H123.5H123.6V25.1L123.8 25V24.9L123.7 24.7H123.6H123.5V24.6V24.5H123.6L123.7 24.4V24.5L123.8 24.6H124H124.1H124.3V24.7V24.8H124.4H124.5M124.5 24.8V24.7M124.5 24.8L124.6 24.7H124.7L124.8 24.8L124.7 24.9V25L124.8 25.1V25.3L124.9 25.7L125.1 26.1L125.2 26V25.8L125.1 25.7H125L125.1 25.6L125.2 25.5L125.6 26.2L125.7 26.3L125.6 26.4L125.2 27.6L125.1 27.9H124.8L124.2 28.7L123.8 29.3L123.4 29.9L123.3 30.1L123.2 30.2L123.4 30.6H123.8L123.5 31.6L123.4 32L124 31.9V33H124.4V33.5V33.7H124.6L125.3 34.2L125.6 34.3V34.4L125.7 34.5V34.6H125.8H125.9V34.5V34.4H126V34.3H126.1V34.2V34H126.2H126.3L126.4 34.1L126.5 34H126.6L126.8 34.1V34.2L127 34.3H126.9V34.4H127V34.5H127.1H127.2L127.4 34.6L127.5 34.5L127.6 34.6V34.7H127.7H127.8V34.8H127.9H128H128.1H128.2H128.3V34.9L128.4 35L128.5 35.1L128.6 35.2L128.7 35.3H128.8H128.9L129 35.2L129.1 35.1H129.2H129.3L129.4 35.2L129.6 35.3L129.7 35.2L129.8 35L129.9 35.1H130L129.9 35.3L130 35.4H130.1H130.2H130.4L130.5 35.3H130.3L130.2 35.2L130.3 35.1V35L130.5 34.9V34.8L130.6 34.7L130.5 34.6L130.6 34.5V34.4V34.3V34.2L130.7 34.1V34H130.8L130.9 33.9V33.8V33.7H130.8L131 33.6L131.2 33.8L131.1 33.9V34H131V34.1H130.9V34.2V34.4V34.5V34.6V34.8H131V34.9L131.1 35V35.1L131 35.2V35.4H131.3H131.4H131.5L131.6 35.5H131.7L131.8 35.4H131.9L132 35.3V35.4H132.1V35.3V35.2V35.1H132V35V34.9H132.1V34.8L132 34.7H132.1V34.6H132.2L132.1 34.5V34.4L132 34.3V33.7H132.3V33.5V33.4V33.3H132.2L132.1 32.6V32.5V32.4L132.2 32.3H132.3L132.4 32.2L132.5 32.1L132.8 32.2H133H133.2V32.1V32L133.3 31.9V31.8L133.4 31.7H133.5L133.9 31.5L134.4 31.6H134.5L134.7 31.7L134.6 31.9H134.7V32L134.6 32.1L134.5 32.2L134.4 32.4L134.2 32.7H134.5H134.6H134.7H134.8L135.3 32.6H135.4L135.5 32.5L135.8 32.3L136.3 32L137.2 31.9L137.1 31.5H137.5H138.3H138.4L138.5 31.6H138.6L138.8 31.8L139.3 31.6L139.6 31.1L139.9 31.3L140.4 31.4L142.3 31.6L143.4 31.9L143.8 32L144.3 32.1L144.1 33L143.9 33.6V33.9L144 34.3V34.6V35.1V35.6L144.1 36.3V36.6H144.5L144.7 36.5V36.6V36.7H144.8L145.1 36.8V37V37.4V37.6L145.4 37.7V38.2V38.3L145.2 38.5L144.6 38.9L144.1 39.3V39.6L144 39.8L143.1 40.8L142.7 41.2L142.4 41.6H142.3L142 42.2V42.3L141.8 42.6L141.3 43.6H141.2L140.9 44.2L140.5 44.7L140.4 44.8L140.3 44.9L140.2 45L140.1 45.1H140L140.1 45.4L140.2 45.9L140.3 46.2L140.4 46.7L140.5 46.9V47L140.6 47.3H140.7V47.4H140.8V47.5M140.8 47.5H140.9M140.8 47.5V47.6H140.7V47.7H140.6L140.5 47.8H140.4L140.3 47.9V48H140.2V48.1H140.3H140.4H140.5H140.6H140.7L140.9 48.3V48.4L141.1 48.5H141.2V48.6L141.3 48.7L141.7 49.2L141.8 49.3L141.9 49.4H142L142.5 49.3L142.9 49.2V49.3L143 49.5L143.1 49.7L143.3 50L143.4 50.2L143.7 50.7L144 51.3L144.1 51.5V51.6L144.4 51.9L144.5 52V52.1L144.6 52.2L144.7 52.3H144.8H144.9V52.4L145.1 52.6L145.3 52.8H145.4V52.9H145.5L145.8 53.1H145.9L146 52.9L146.3 52.8H146.4L146.5 52.9L146.7 53L146.8 53.1L146.9 53.2L147.2 53.3L148.1 53.8L148.3 53.6L148.4 53.5L148.5 53.4L148.6 53.2L148.7 53.1L149 52.8L149.5 52.9L150.2 53H150.5V53.4H150.1L150 53.5L150.1 53.9H150L149.9 54H149.8H149.7H149.6V54.1V54.2H149.7L149.8 54.3V54.4V54.5H149.9V54.4H150V54.5L150.1 54.6H150.2L150.3 54.7L150.4 54.8H150.5V54.9L150.6 55V55.1L150.7 55.2H150.8H150.9H151H151.2L151.5 55.1L151.6 55L151.8 55.1L152.2 55.2H152.5L152.6 55.3H152.7L152.9 55.5L153.3 55.7L153.5 55.6L153.7 55.5H153.8H153.9V55.4H154L154.3 55.2V55.1L154.5 55.2L154.9 55.3L155.5 55.6L155.8 56H155.9L156.8 56.4L157.2 56.5L157.3 56.6V56.8L157.2 57H157.4H157.5H157.7L157.8 57.1H157.9H158H158.1V57.3H158.2L158.3 57.4H158.4V57.5V57.6L158.3 57.7L158.2 58.1L158.1 58.2V58.3L158.2 58.6V58.8L158.3 58.9V59L158.5 59.2L158.4 59.4L158.2 59.5H158.1L158 59.4H157.9L157.8 59.3V59.4H157.7L157.6 59.6L157.4 59.7L157.6 60L157.5 60.1M157.5 60.1H157.4M157.5 60.1V60.2L157.6 60.3H157.7V60.4H157.8L157.9 60.5H158V60.6L157.7 61.1L157.8 61.5L157.9 61.8L158 62L157.9 62.2V62.3H157.8L157.9 62.4L157.7 62.6V62.9V63.1V63.2L157.9 63.3V63.4V63.5V63.6V63.7V63.8H158L157.8 63.9L157.9 64L158.2 64.3L158.5 64.6L158.6 64.7H158.9H159.1H159.3H159.4L159.6 64.8L160 64.9H160.2H160.4L160.5 65.5V65.6L160.6 65.9L160.7 66.4L160.6 66.5H160.5H160.4H160.3H160.2H160.1L160 66.6M160 66.6L159.9 66.5L159.8 66.4L159.7 66.5L159.5 66.6H159.6V66.7L159.7 66.8L159.9 66.7L160 66.6Z" stroke="white" stroke-width="0.5" stroke-linecap="round" stroke-linejoin="round"/>
</g>
</svg>
