<svg width="134" height="156" viewBox="0 0 134 156" fill="none" xmlns="http://www.w3.org/2000/svg">
<g id="UA56">
<path d="M131.5 35.5L131.4 35.7L131.1 35.6L131 35.5H130.9H130.8L130.5 35.3L130.4 35.7L129.2 36.9L127.5 37.2H127V38.1V38.5V38.6V38.7V38.8V38.9L127.1 40.2V40.5V41V41.2L128 41.1V41.8L128.3 42L128.2 42.4L128.7 42.8V43.3L128.3 43.4H128L127.2 43.5V43.1V43L127.1 42.9L126.9 42.8L126.8 42.7H126.7V42.6H126.6L126.5 42.5L126.4 42.4V42.3L126.3 42.2L125.8 42H125.7L124.9 41.5L124.6 41.3V41.2V41.1V41V40.9V40.8V40.6H124.5V40.5V40.4L124.4 40.3L124.3 40.1L124.5 39.7L124.6 39.5L124.7 39.4V39.3H124.5H124.3H124.1H124H123.9H123.8L123.5 39.4H123.4H123.3H123.2V39.9V40.6V40.7L123 41.5L122.9 41.7V41.8V42.1L122.8 42.5L122.6 42.9L122.7 44.9V45V45.2V45.5V45.6V45.7H122.9L123.1 45.8H123.2L124.3 46.3L124.2 46.8L124.3 47L124.4 47.3L124.1 47.9V48V48.2V48.3L123.6 48.8H123.5L123.4 49.1L123.2 49.5L123 49.8V49.9H122.9L122.8 50.1L122.7 50.2L122.5 50.4H122.4H122.3H122.2V50.5H122.1H122L121.5 50.6H121L120.6 50.7H120.5L120.2 50.8H120.1H120L120.1 51.6L120.2 51.9L120.4 53.1L120.7 53.8L120.9 54.3V54.4L121 54.6L120.8 54.7H120.7H120.6L120.5 54.8L120.7 55H120.3L120.4 55.4L120.7 55.5V55.6V55.8V55.9H121H121.1L121.2 56V56.1L121.3 56.2H121.4L121.5 56.3L121.6 56.5V56.7L121.1 56.8V57V57.1L121 57.2V57.3V57.4L120.9 57.5V57.6V57.7V57.8L120.2 57.9H120.1L119.8 58.2L119.7 58.4L119.6 58.5L118.7 59.6L118 59.7V59.8V60.4L118.1 60.6L118.2 60.7L118.1 61.2L118 61.3L117.7 62L117.8 62.1V62.2L117.2 62.7L117 63L116.6 63.4L116.9 63.9V64L116.6 64.2H116.5V64.3H116.2H116.1V64.5L116.2 64.9V65.5L116.3 66.3L116.4 66.8L116.1 67L116.2 67.4L116.3 68L115.9 68.1H115.6L115.7 68.8H115.4L115.1 68.7H114.9H114.8H114.7L114.6 69V69.1L114.2 69.3L114.1 69.2L114 69.7L114.1 70V70.2V70.3V70.4L113.9 70.7V70.8V70.9L113.8 71.1V71.4V71.6V71.7L114.1 72.2L114.2 72.4L113.4 72.5H112.1L111.8 72.6L111.7 73.1V73.2H111.3H110.9L110.4 73.3H110.2H110H109.2L108.8 73.4H108.9V73.6L109 73.7L109.1 73.8V73.9L109.3 74V74.1V74.3L109.2 74.4V75.1V75.2L108.6 75.1L108.4 75.4L108.2 75.6L107.8 75.8L108 76.2V76.3V76.4V76.5V76.6V76.7H108.1V76.8L108.2 76.9L108.4 77.2V77.3L108.5 77.4L108.6 77.6V77.7L108.7 77.8V77.9H108.8L108.9 78.2L109.1 78.5V78.6H109V78.7L109.1 78.8V79V79.1V79.2V79.3H109V79.6L109.4 79.8L109.6 79.9H109.5V80L109.7 80.1L109.8 80.2L109.7 80.3V80.4L109.6 80.5V80.7V80.8H109.7H109.8L109.7 81L109.5 81.1L109.3 81.2L109.1 81.4L108.9 81.3L108.8 81.5L108.7 81.7H108.6V81.8L108.7 82V82.1V82.2V82.3V82.4H108.8L108.9 82.5V82.6V82.7V82.8H109V82.9H109.1V82.8H109.2V82.9L109.3 82.8H109.4H109.5V82.9L109.6 83V83.1V83.2V83.3L109.8 83.5L109.9 83.6H110L110.1 83.7H110.2L110.3 83.8L110.4 83.9H110.5V84L110.6 84.1H110.7V84.3H110.6L110.5 84.5V84.6L110.4 84.7L110.3 84.9L110.2 85.1L110.5 85.3L110.3 85.8L110.1 86.2L110.2 86.9L110.3 87.1V87.2V87.3H110.2V87.4H110.1V87.5H110V87.6V87.7H109.9V87.8H109.8V87.9V88H109.7V88.1V88.2H109.6V88.3V88.4V88.5V88.6H109.5V88.7V88.8V88.9H109.6H109.7V89V89.1H109.8V89.2V89.3V89.4H109.9V89.5H110L109.9 89.6V89.7L109.8 89.8V89.9V90V90.1V90.2V90.3V90.4V90.5V90.6V90.7L109.7 90.8H109.6V90.9V91V91.1H109.7V91.2V91.3V91.4H109.6V91.5V91.6V92V92.1L109.7 92.2L110 92.4L109.9 93.1V93.4V93.5V93.6V93.7V93.8V93.9H110V94V94.1H109.9L110 94.2H110.1H110.2H110.3V94.3H110.4H110.5H110.6V94.4H110.7H110.8V94.5V94.6V94.7H110.9V94.8H111V94.7H111.1H111.2H111.3H111.4V94.8V94.9V95V95.1V95.2V95.3V95.4V95.5H111.3V95.6V95.7H111.2V95.8H111.1V95.9V96V96.1H111V96.2H111.1V96.3V96.4V96.5H111.2V96.6V96.7H111.3V96.8H111.2V96.9H111.3H111.4V97H111.5V97.1V97.2H111.4V97.3V97.4V97.5H111.5V97.6H111.6V97.7V97.8V97.9H111.7V98L111.6 98.1V98.2H111.5V98.3V98.4V98.5V98.6V98.7V98.8H111.4H111.3V98.9H111.2V99H111.1L111 99.1V99.2V99.3H110.9V99.4H110.8V99.5V99.6V99.7H110.9V99.8V99.9H110.8V100H110.7H110.6V100.1V100.2H110.5H110.4V100.3H110.5V100.4V100.5H110.6L110.5 100.6V100.7H110.4V100.8V100.9L110.3 101V101.1V101.2V101.3L110.2 101.5V101.7L110.1 101.8V101.9L109.9 101.8L109.8 101.9H109.4L109.2 102.1L109 101.9L108.9 102.1H108.7V102.2H108.6V102.1H108.5V102.2H108.4H108.3V102.3H108.2V102.4H108.1H108V102.5V102.6V102.7H107.9V102.8H108V102.9V103H108.1H108.2H108.3L108.4 103.1H108.5V103.2V103.3V103.4V103.5H108.4V103.6H108.5V103.7V103.8V103.9V104H108.4V104.1H108.3V104.2H108.2V104.3H108.3V104.4V104.5H108.4H108.5V104.6H108.4V104.7H108.3H108.2V104.8L108.1 104.9V105H108H107.9V105.1V105.2V105.3H108H108.1V105.4V105.5H108H107.9V105.6H107.8H107.7H107.6H107.5V105.5H107.4H107.3V105.6H107.2V105.7L107.3 105.8V105.9V106V106.1H107.4H107.5H107.6H107.7V106.2L107.8 106.3L107.9 106.5L108 106.7H108.1H108.2H108.3V106.8L108.4 106.9H108.5V107H108.7L108.8 107.1L109 107.2H109.1V107.4H109V107.5V107.6V107.7V107.8L108.9 108L108.8 108.2H108.7V108.3V108.4V108.5H108.6V108.6V108.7L108.7 108.9L108.9 109.2L109 109.6L109.2 109.9L109.4 110.2V110.4H109.3H109.2H109.1H108.8L108.4 110.5V110.6H108.2H108H107.9L107.8 110.7H107.7H107.6H107.5L107.4 110.8H107.3H107.2H107H106.8H106.7H106.6H106.4H106.3H106.2V110.7H106.1H106H105.9H105.8H105.7L105.5 110.6H105.4L105.3 110.7H105.2H105H104.9L104.7 110.8H104.6H104.5H104.4H104.3V110.7V110.6V110.5L104.2 110.4V110.3V110.2L104.1 110L104 109.9V109.8H104.1V109.7H104.2L104.3 109.2H104.2L104.3 108.9V108.8V108.7V108.6H104.2H104.1H104V108.5H103.9H103.8V108.4H103.7V108.3V108.2V108.1L103.6 108.2H103.5H103.4V108.3H103.3L103.4 108.4H103.3H103.2V108.5V108.6V108.7L103.1 108.8V108.9H103V109H102.9V108.9H102.8L102.7 108.8H102.6H102.5V108.7H102.4H102.3V108.8V108.9V109L102.2 109.1V109.3H102.1L102 109.2L101.9 109.1L101.8 109L101.7 109.1V109.3L101.6 109.5L101.7 109.6H101.6H101.5H101.4V109.7V109.8L101.3 110V110.1V110.2V110.3H101.2V110.4V110.5H101.1V110.6L101 110.7L101.3 111V111.1H101.4L101.5 111.2L101.6 111.3L101.4 111.6H101.1H101H100.9H100.8H100.7H100.6H100.5L100.4 111.5H100.3H100.2H100.1L100 111.4H99.9L99.8 111.3H99.7H99.6L99.5 111.2H99.4H99.3L99.1 111.1H99H98.9L98.8 111H98.6V111.2L98.4 111.6V111.8L98.3 112.1L98.2 112.2V112.3V112.4L98.1 112.5L97.7 112.7L97.6 112.8H97.5L97.4 112.9L97.2 113L97.1 113.1V113.3L97 113.4V113.5V113.6L96.9 113.7V113.8L96.7 113.7H96.6V113.6H96.5V113.5H96.4H96.3V113.4H96.2H96.1V113.3H96H95.9H95.7H95.5H95.4H95.3H95.2H95.1V113.2H95H94.9L94.8 113.3V113.2H94.7H94.6L94.5 113.1H94.4V113H94.3L94.2 112.9L94.1 112.8H94L93.8 112.7H93.7H93.6H93.5V112.6L93.3 112.5L93.2 112.4H93.1V112.3L93 112.2L92.7 112L92.6 112.1L92.4 112.2L92.3 112.4H92.2V112.5H92.1V112.6H92L91.9 112.7V112.8H91.8V112.9H91.7V113V113.1L91.6 113.2L91.5 113.4V113.6L91.4 113.9L91.3 114L91 114.2H90.9V114.3L90.7 114.4V114.5L90.5 114.9H90.4L90.2 114.8L90 114.6H89.9L89.8 114.5L89.6 114.4L89.5 114.1L89.4 113.9V113.8H89.2H89.1H89V113.9V114L88.8 114.1L88.7 114.4L88.6 114.5V114.7L88.7 114.9V115L88.6 115.1V115.3V115.4H88.5H88.4H88.2H88.1V115.5H88H87.9H87.8H87.7H87.6L87.5 115.4H87.4H87.3H87.2H87.1H87L86.9 115.5H86.8H86.7H86.6V115.6L86.5 115.7H86.6L86.7 115.8V115.9V116V116.1L86.6 116.2L86.5 116.4H86.4H86.2V116.3H86V116.4L85.9 116.5L86.1 116.6L86 116.7L86.1 116.8L86 116.9L86.1 117.4H86L85.8 117.5H85.7V117.6V117.9V118H85.8L86.3 117.9H86.4V117.7H86.5H86.6H86.7L86.9 117.6H87.1V117.8H87V117.9V118V118.2H86.9V118.3H86.8H86.7H86.6H86.5L86.4 118.2V118.3L86.3 118.4V118.5H86.2V118.4L86.1 118.3V118.2H86V118.3V118.4L85.9 118.5V118.7L85.7 118.6H85.6V118.5L85.4 118.6H85.2L84.9 118.7H84.7V118.5H84.8V118.4V118.3L84.9 118.2V118.1V118L85 117.9V117.8V117.7V117.6L84.9 117.5V117.4V117.3H84.6V117.4H84.4V117.5V117.6V117.7V117.8L84.5 117.9H84.4V118V118.1V118.2V118.3V118.4V118.5V118.6L84.2 118.7H84.1V118.9L84 119H84.1V119.1H84.2L84.3 119.2H84.4L84.5 119.3V119.4H84.6V119.5L84.5 119.6V120.1H84.4H84.1H84H83.9H83.8L83.7 120H83.6H83.5L83.4 120.2V120.3V120.5V120.8V120.9V121.1V121.2V121.4V121.5V121.6V121.7L83.3 121.8V121.9V122V122.1V122.2H83.2H83L82.8 122.1H82.7H82.6H82.5V122H82.4H82.2V122.3H82.1V122.4V122.5V122.7V122.8L82 122.9V123V123.1V123.2L81.9 123.4V123.5V123.6V123.7L81.8 123.9V124.1V124.2V124.3L81.7 124.4H81.6H81.5V124.3H81.4H81.3H81.2H81.1H81H80.9H80.8V124.2H80.7H80.6V124.3L80.5 124.4V124.5V124.6V124.7L80.4 124.8V125V125.1L80.3 125.2V125.3V125.4L80.2 125.5V125.6V125.7V125.8L80.1 125.9V126V126.1V126.2H80V126.3V126.4L79.7 126.2L79.3 126.1H79.2V126H79.1H79V125.9H78.9H78.8H78.7V125.8L78.5 125.9H78.4H78.3L78 126H77.9H77.8L77.7 126.1L77.4 126.9L77.3 127V127.2L77.2 127.3V127.4H77.1V127.5V127.6H77V127.7V127.8V127.9V128V128.1L76.9 128.2V128.3H76.8L76.5 128.5L76.4 128.6L76.1 128.7L75.5 129H75.4L75.3 129.1H75.2L75.5 129.6L75.6 129.7H75.7V129.8V129.9L75.6 130.1H75.5H75.3H75.1H74.9L74.7 130L74.8 130.3L75 130.9H74.6H74.5L74.2 131L74 130.7L73.9 130.6L73.5 131.1L73.6 131.2L73.7 131.3V131.5V131.6L73.6 131.7H73.5H73.4L73.3 131.8V131.9V132.2V132.3L73.1 132.2L73 132.3V132.4V132.5L73.1 132.6H73.2L73.3 132.7V132.8V132.9L73.2 133L73 132.8L72.9 132.7H72.8L72.7 132.8V132.9H72.6V132.8H72.5H72.4L72.3 132.9L72.2 133V133.1V133.2L72.3 133.3H72.2V133.4L72.3 133.5L72.4 133.6L72.5 133.7L72.4 133.8L72.3 133.9L72.2 134L72.9 134.3L72.8 134.5H72.7L72.5 134.4H72.4H72.2V134.3L72 134.2H71.7H71.5L71.4 134.3L71.3 134.4L71.2 134.5L71.1 134.6H71H70.9H70.7H70.5H70.3H70.1V134.5H70.2V134.4H70.3L70.2 134.3H70.1H70V134.4H69.9V134.3H69.8V134.4H69.7H69.6V134.5V134.6H69.5H69.4H69.3V134.5H69.2V134.6H69.1H69H68.9V134.5V134.4H68.8V134.5H68.7H68.6H68.5V134.6H68.4V134.5H68.3V134.4H68.2V134.5H68.1V134.4H68H67.9H67.8H67.7L67.8 134.3H67.7V134.4H67.6V134.3H67.5H67.4V134.2H67.3V134.3H67.2V134.4H67.1H67H66.9V134.5V134.6H66.8H66.7H66.6V134.7H66.7V134.8H66.6V134.9H66.7V135H66.6V135.1V135.2H66.5H66.4V135.3H66.3V135.2H66.2V135.3H66.1V135.2H66H65.9H65.8H65.7V135.3H65.6H65.5V135.4V135.5V135.6V135.7L65.4 135.8H65.3V135.9H65.2V136H65.1V136.1H65V136.2V136.3H64.9H64.8H64.7H64.6V136.4V136.5H64.5H64.4V136.6H64.3H64.2H64.1V136.7H64V136.8H63.9V136.9H63.8H63.7V137H63.6V137.1L63.7 137.2V137.3V137.4H63.6V137.5H63.5V137.6H63.4V137.7V137.8H63.3H63.2V137.9V138V138.1H63.1V138.2H63H62.9V138.3H62.8H62.7V138.4V138.5V138.6V138.7H62.6V138.8V138.9H62.5V139H62.6V139.1H62.7V139.2V139.3V139.4V139.5L62.6 139.6H62.5V139.7V139.8L62.4 139.9H62.3V140H62.2V140.1V140.2L62.1 140.3H62V140.4H61.9V140.5V140.6V140.7V140.8H61.8H61.7H61.6H61.5V140.7H61.4L61.3 140.8H61.2V140.9H61.1V141H61V141.1H60.9H60.8H60.7H60.6V141H60.5V140.9H60.4H60.3V141H60.2H60.1H60V141.1H59.9V141.2H59.8H59.7V141.3V141.4H59.6H59.5L59.4 141.5H59.3H59.2H59.1H59H58.9V141.6L58.8 141.5V141.4H58.7V141.3V141.2H58.6V141.1H58.5V141H58.4L58.2 140.7H58.1V140.6H58L57.9 140.5H57.8H57.6H57.4V140.4H57.3L57.2 140.3L57.1 140.2L57 140L57.1 139.9L56.4 139.6L56.7 138.6L56.9 138L57 137.9L56.8 138H56.7V137.8V137.7V137.5V137.4V137.3V137.1V137H56.8L56.9 137.1L57 137.2H57.1H57.2V137.1H57.3L57.4 137H57.5H57.6V136.9L57.7 137H57.9H58H58.1H58.2H58.3V136.3V136.1V135.8H58.2V135.6H58.3V135.5V135.3V135.1V135V134.9H58.4L58.5 134.8V134.7V134.6V134.5V134.4V134.3V134.2V134.1H58.3H58.2L58.3 134.3L58.2 134.4H58.1H57.9H57.8H57.5H57.3H57L56.9 134.5L56.8 134.7H56.7L56.6 134.8V134.9L56.3 135.3L56.2 135.5L55.9 135.9V136H55.8V136.1H55.9V136.2L55.8 136.3V136.4L55.7 136.5V136.6V136.7L55.6 136.8H55.7V136.9H55.6H55.5L55.3 136.8H55.2L55 136.7H54.9H54.8L54.7 136.6H54.5H54.4V136.5H54.3H54.2H54.1V136.4H54L53.6 136.3L52.9 136L52.7 135.9L52.3 135.7L51.7 135.5L51.5 135.4H51.4H51.1V135.3H51L50.7 135.1H50.6L50.5 135H50.4H50.3V135.1H50.2L50.1 135.3H50L49.9 135.5L49.8 135.6L49.7 135.7L49.6 135.8L49.4 136L49 136.4L48.9 136.5L48.7 136.7L48.4 137L48.3 137.1H48.2H48.1H48H47.9H47.8H47.7V137V136.9V136.8V136.7V136.6L47.6 136.5L47.5 136.4V136.3L47.4 136.2H47.3L47.2 136.1L47 136H46.9V135.9V135.8V135.7H46.7V135.8H46.6H46.5H46.3H46.2H46.1H45.9L45.8 135.7V135.5H45.7V135.4V135.3L45.6 135.2V135.1H45.5V134.9H45.4H45.3L45.2 134.8H45.1L45 134.9H44.9L44.8 135L44.6 134.9H44.5L44.4 134.8L44.3 134.9H44.2H44.1H43.9L43.7 135H43.6L43.5 135.1H43.4V135.2V135.3V135.5V135.6L42.9 136L42.8 136.1L42.2 136.6L42.1 136.8L41.9 137.1L41.7 137.4L41.5 137.6V137.7H41.4L41.3 137.8H41.2H41.1V137.9L41 138.2V138.3H40.9L40.8 138.4V138.5V138.6H40.7V138.7H40.8V138.9V139L40.7 139.1L40.6 139.3L40.3 139.7L40.2 140H40.1V140.1H40V140.2H39.9H39.8H39.7V140.3H39.5H39.4V140.4H39.3H39.2H39.1L39 140.5H38.9V140.6H38.8H38.7L38.6 140.7H38.5H38.4H38.3V140.8H38.2H38.1V140.7H38V140.8L37.9 140.7H37.8H37.7L37.6 140.6H37.5H37.4H37.3H37.2H37.1V140.5H37L36.9 140.6L36.7 140.7H36.5L36.2 140.9H36H35.9H35.7H35.6L35.4 141H35.1H35L34.9 140.9L34.7 140.8L34.6 140.7H34.5L34.1 140.6V140.5L33.6 140.4L33.5 140.7L33.4 141.1V141.2H33.3L33.4 141.3H33.3V141.4V141.5H33.2H33.1H33H32.9H32.8L32.7 141.6H32.5H32.4H32.3L32.1 141.4L32 141.2L31.9 141.1H31.8V141L31.6 141.1H31.5L31.3 141.3L31.1 141.4L30.9 141.5L30.8 141.6H30.7L30.6 141.7H30.5V141.8H30.4V141.9L29.1 142.7L28.8 142.9L28.5 143.1H28.4L28.2 143L28.1 142.9V142.8L27.9 142.6L27.7 142.3H27.6L27.4 142.2L27.3 142.1L27.1 142L26.9 141.8L26.7 141.7L26.5 141.6L26.3 141.4H26.2V141.3H26.1L25.9 141.2V141.3L25.8 141.4V141.5H25.7V141.6V141.7L25.6 141.8V141.9H25.5V142.1L25.4 142.2L25.3 142.3V142.5L25.2 142.6L25.1 142.7V142.8L25 142.9L24.9 143.1V143.2H24.8H24.7H24.6L24.1 143.1L23.6 143H23.2L22.8 142.9H22.6L22.3 142.8H22.1V142.7V142.5L22.2 142.4H22.3V142.3L22.2 142.2H22.1L22 142.1H21.8H21.6H21.3L21 142H20.9L20.6 142.3L20.4 142.5L20 142.8L19.8 143L19.7 143.1L19.6 143.2L19.5 143.3V143.5V143.6V143.7V144.2V144.9V145.2V145.3V145.4L19.6 145.5L19.7 145.7L19.8 145.8V145.9H19.9H20H20.1L20.3 146H20.5H20.7L21 146.1H21.3V146.3L21.4 146.5V146.7L21.5 146.8V146.9V147V147.1L21.1 147.2L20.6 147.3L20.3 147.4L20.4 147.7H20.1H19.8V147.8V147.9L19.9 148.4V148.6L19.6 148.7V149V149.1V149.2L19.4 149.3H19.3H19.2V149.4H19V149.5V149.6H18.9V149.9L18.8 150.2V150.3L18.7 150.6V150.9H18.6L18.5 151H18.4L18.3 151.1H18.2H18.1H18V151.2H17.9H17.7H17.5H17.4H17.1H16.8H16.7V151.3H16.6V151.4H16.5H16.4H16.3V151.3V151.2L16.2 151.3H16L15.8 151.4H15.6H15.5L15.4 151.5H15.3L15.2 152.3L15.1 153.6V153.8H14.9H14.8L14.7 153.7L14.5 154.8V154.9L13.9 154.3L13.6 154L13.3 153.8L13.2 153.7H13.1L13 153.6L12.9 153.5H12.8L12.7 153.4L12.6 153.3V153.2L12.5 153.1L12.4 152.9V152.8L12.3 152.7V152.6H12.2L12.1 152.4L12 152.3L11.8 152.1V152L11.7 151.9V151.8L11.6 151.7L11.4 151.4L11.2 151.1L11.1 151L11 150.9L10.9 150.7L10.8 150.6H10.7V150.5L10.6 150.4L10.5 150.3V150.2H10.4V150.1L10.3 150L10.2 149.8V149.7H10.1L9.89996 149.4L9.79997 149.2L9.59998 149L9.49997 148.8L9.39996 148.7L9.19997 148.4L9.09998 148.2L8.79997 147.8L8.59998 147.5L8.19997 147L7.99997 146.7L7.79997 146.4L7.69997 146.3L7.49997 146.1V145.9L7.39996 145.8H7.29997V145.7L7.09998 145.3V145.2L6.89996 145V144.9L6.79997 144.8V144.7L6.89996 144.5V144.4L6.99997 144.2L7.09998 143.8V143.7V143.6L7.19997 143.4V143.3V143.1H7.29997V143V142.9V142.7V142.6V142.5L7.19997 142.4V142.3H7.09998V142.2H6.99997V142.1V142L7.19997 141.7L7.49997 141.6V141.4L7.59998 141.3V141.2L7.69997 141.1V141V140.9L7.39996 140.6L7.29997 140.5L7.19997 140.4L6.99997 140.3L6.89996 140.2L6.69997 140L6.49997 139.9H6.39996L6.29997 139.8L6.19997 139.7H6.09998L5.99997 139.6H5.89996V139.5H5.79997L5.69997 139.4L5.59998 139.3L5.49997 139.2H5.39996V139.1V139L5.29997 138.9V138.8V138.7H5.19997V138.6V138.5H5.29997V138.4V138.3V138.2V138.1V138V137.9L5.39996 137.7V137.5H5.59998H6.09998V137.4L5.99997 137.3L6.09998 137.1H5.89996V136.9L5.79997 136.8L5.89996 136.7L5.99997 136.5H6.09998L6.29997 136.1L6.39996 135.8V135.7V135.6L6.49997 135.5H6.69997L6.89996 135.6H7.29997L7.19997 135.4V135.3V135.2H7.09998V135.1V135V134.8V134.7V134.6V134.4L7.19997 134.1V133.9V133.8V133.7V133.6V133.5V133.4V133.3V133.2V133.1L6.99997 133L6.79997 132.9L6.29997 132.6L5.99997 132.5L5.89996 132.4H5.79997L5.69997 132.3H5.59998H5.49997H5.39996H5.29997L5.19997 132.2H5.09998H4.99997H4.89996V132.3H4.69997L4.49997 132.4L4.29997 132.5H4.09998L3.99997 132.6L3.69997 132.7L3.59998 132.8L3.39996 132.9H3.29997H3.19997L2.89996 132.8H2.79997H2.69997L2.59998 132.7V132.5L2.49997 131.9H2.29997H1.99997V131.6L1.89996 131.4L2.29997 131.5V131L2.39996 131.1V130.5H2.59998L2.79997 130.6H2.99997H3.29997H3.39996L3.49997 130.5V130.4V130.2L3.39996 130L3.99997 129.7L4.19997 129.6L4.29997 129.5L4.59998 129.4L4.89996 129.2L5.09998 129.1L5.19997 129H5.29997L5.19997 128.9L4.99997 128.6L4.79997 128.4L4.69997 128.3V128.2H4.59998L4.49997 128.1H4.39996L4.29997 128H4.19997V127.9L4.39996 127.6L4.49997 127.4V127.3L4.39996 127.1L4.29997 126.9V126.8L4.19997 126.7L4.09998 126.6L4.19997 126.5L4.29997 126.3L3.99997 126H4.09998V125.9H4.19997H4.29997V125.8L4.39996 125.9H4.49997H4.59998V125.8H4.69997H4.79997V125.7H4.89996H4.99997V125.6L4.89996 125.5H4.99997H5.09998V125.4V125.3L4.99997 125.2H5.09998H5.19997H5.29997H5.39996V125.3V125.4H5.49997H5.59998V125.5V125.6V125.7V125.8V125.9H5.69997V126H5.79997V126.1V126.2H5.89996V126.3H5.99997L5.89996 126.4V126.5V126.6H5.99997H6.09998V126.5V126.4H6.19997H6.29997V126.5H6.39996V126.4H6.49997H6.59998V126.5H6.69997V126.4H6.79997H6.89996V126.3H6.99997V126.2V126.1H7.09998V126.2H7.19997V126.1H7.09998V126L7.19997 125.9V125.8H7.29997V125.7H7.19997V125.6H7.29997V125.7H7.39996V125.6V125.5V125.4V125.3V125.2H7.29997L7.39996 125.1H7.49997V125H7.39996L7.29997 125.1H7.19997V125V124.9H7.29997V124.8H7.19997V124.7H7.29997V124.6H7.19997H7.09998V124.5V124.4V124.3L6.99997 124.2H6.89996V124.1H6.79997H6.69997V124H6.59998L6.49997 123.9H6.39996H6.29997H6.19997H6.09998H5.99997V124H5.89996V124.1L5.79997 124.2V124.1V124H5.69997V124.1H5.59998V124H5.49997V123.9H5.39996V123.8V123.7V123.6V123.5H5.49997H5.59998V123.4H5.49997V123.3V123.2V123.1V123V122.9V122.8H5.39996V122.7V122.6H5.29997V122.5H5.39996V122.4H5.29997V122.3L5.39996 122.2H5.29997V122.1H5.19997H5.09998L4.99997 122V121.9H4.89996V121.8H4.79997V121.7H4.89996V121.6H4.79997V121.5H4.89996V121.4H4.79997L4.89996 121.3H4.79997H4.69997H4.59998V121.4H4.49997H4.39996V121.3H4.29997V121.4H4.19997V121.3H4.09998H3.99997V121.4H3.89996V121.3V121.2V121.1V121H3.79997V120.9V120.8V120.7V120.6H3.89996H3.99997V120.5V120.4V120.3H4.09998L4.19997 120.4V120.3H4.29997V120.2L4.39996 120.1V120H4.49997V119.9V119.8L4.39996 119.4H3.99997H3.79997L3.89996 119.3V119.2V119.1V119V118.9V118.8V118.7L3.79997 118.8H3.69997H3.59998H3.49997H3.39996H3.29997H3.19997V118.7H3.09998H2.99997L2.89996 118.6L2.69997 118.5L2.59998 118.4H2.49997L2.19997 118.3L2.09998 118.2H1.99997H1.89996H1.79997V118.1H1.69997H1.59998V118H1.49997L1.39996 117.9L1.29997 117.8L1.19997 117.7L1.09998 117.6H1.19997H1.29997H1.39996H1.49997V117.7H1.59998L1.69997 117.8H1.79997L1.89996 117.9H1.99997V118H2.09998L2.19997 117.9H2.29997H2.49997H2.59998H2.69997H2.79997L2.99997 118H3.09998L3.29997 118.1H3.39996H3.49997L3.59998 118.2H3.69997H3.79997V118.1V118L3.89996 117.9L3.99997 118H4.09998H4.19997V118.1V118.2H4.29997L4.39996 118.3L4.49997 118.2V118.1V118V117.9L4.59998 117.8V117.6L4.69997 117.4V117.3V117.2L4.79997 117.1L4.89996 117V116.8V116.7V116.4V116.3V116L4.99997 115.8V115.7L5.09998 115.6L4.99997 115.5V115.4H4.89996V115.3V115.2V115.1V115H4.79997V114.9H4.69997L4.59998 114.8V114.6V114.5H4.49997V114.4L4.39996 114.3L4.29997 114.2L4.19997 114H4.09998V113.9H3.99997H3.89996L3.79997 113.8H3.69997L3.59998 113.7H3.49997L3.39996 113.6H3.29997L3.19997 113.5H3.09998V113.4H2.99997V113.3V113.2V113.1V113L2.79997 112.7L2.89996 112.6V112.5H2.99997V112.4V112.2L3.09998 112.1V112V111.8V111.4H3.19997V111.5L3.29997 111.6H3.39996V111.7H3.59998V111.8H3.69997H3.79997H3.89996H4.09998H4.19997L4.39996 111.9H4.49997H4.59998L4.79997 111.8H4.99997L5.19997 111.7H5.29997H5.39996H5.49997H5.69997H5.79997L5.89996 111.6H5.99997H6.19997H6.39996H6.49997V111.7L6.39996 111.8V111.9V112V112.1V112.2H6.49997L6.59998 112.3H6.69997H6.79997H6.89996H7.09998H7.19997L7.39996 112.4H7.69997H7.89996H8.19997H8.29997H8.39996H8.49997H8.69997V112.5H8.79997H8.89996L8.99997 112.6H9.09998L9.19997 112.7H9.29997L9.19997 113H9.29997H9.39996H9.49997H9.79997V113.1L9.89996 113H10.2H10.3H10.4H10.5H10.6V112.9H10.7V112.8H10.8H10.9L11 112.7H11.1H11.2H11.3L11.4 112.6H11.5H11.6H11.8H11.9H12L12.1 112.5V112.4V112.3H12.2V112.2H12.3V112.1H12.4V112H12.5H12.6V111.9V111.8V111.1H12.7H12.8L12.9 110.8L13 110.4L13.1 110.2V110L13 109.6V109.3V109.2V109L12.6 109.1L12.3 109.2L12 109.3V109.2L12.2 108.5V108.3V108.2V108L12.3 107.9V107.7L12.2 107.5V107.4H12.1H12V107.3V107.2V107.1V107L12.1 106.9H12L11.6 106.7V106.6V106.2V105.8V105.3H11.8H12H12.1H12.2H12.3H12.4H12.5L12.6 105.4L12.7 105.5V105.6L12.8 105.7V105.8L12.9 105.9L13 106L13.1 106.1L13.2 106.3L13.3 106.6L13.4 106.7H13.6H13.7H13.8H13.9L14 106.6H14.1H14.3H14.5V106.7V106.8V106.9H14.6H14.7H15H15.1L15.2 107L15.5 106.9H15.6V106.8H16.2V106.9V107H16.3H16.4H16.5H16.6V107.1H16.7H16.8H16.9H17V107H17.1V106.9H17.2L17.3 106.8V106.7L17.2 106.6H17.1V106.5H17V106.4H16.9H16.8H16.7V106.5H16.6H16.5V106.4V106.3H16.4L16.3 106.2L16.2 106.1V106V105.9H16.3V105.8H16.2V105.7V105.6V105.5V105.4H16.3V105.3L16.2 105.2H16.1H16H15.9L16 105.1V105H15.8H15.7H15.6L15.5 104.9L15.2 104.7V104.6H15.1V104.5V104.4L15.2 104.3H15.1H15V104.4H14.9V104.5V104.6H14.8V104.5H14.7H14.6V104.4V104.3V104.2H14.7V104.1H14.6V104V103.9V103.8H14.7H14.8V103.9V104H14.9V103.9V103.8H15V103.7H15.1V103.6H15.2V103.5H15.3H15.4H15.5V103.4H15.6H15.7V103.5H15.6V103.6H15.7H15.8H15.9H16V103.5H16.1V103.4L16.2 103.3H16.3V103.2L16.4 103.1V103V102.9V102.8V102.7H16.3V102.6V102.5H16.4V102.6L16.5 102.5V102.4H16.4V102.3H16.5V102.2L16.4 102.1V102V101.9V101.8V101.7V101.6H16.3V101.5L16.2 101.4L16.1 101.3V101.2H16H15.9H15.8V101.1H15.9L16 101V100.9L16.1 100.8L16.3 100.6V100.7V100.8H16.4V100.9H16.5V101V101.1H16.6V101.2V101.3H16.7L16.6 101.4H16.7V101.5H16.8V101.6V101.7H16.9V101.8V101.9H17V102H17.1H17.2V102.1H17.3V102.2H17.4V102.3L17.5 102.2H17.6V102.3H17.7H17.8V102.4H17.9H18H18.1H18.2H18.3H18.4H18.5H18.6H18.7V102.5H18.8V102.6L18.9 102.5H19H19.1L19.2 102.6H19.3L19.4 102.7H19.5H19.6H19.7H19.8H19.9L20 102.5L20.3 102.2L20 101.8L20.2 101.6L20.3 101.5L20.5 101.3H20.6V101.4L20.7 101.5V101.6H20.8V101.7V101.8V101.9H20.9H21L21.4 101.7H21.5L21.7 101.6L22.3 101.4L22.2 101.3L22.4 101.2L22.5 101.1L22.7 101H22.9H23.1H23.2H23.3V100.9H23.4H23.5H23.6H23.7L23.9 100.8L24.1 100.7L24.3 100.6L24.6 100.5L24.8 100.4L25.2 100.2L25.3 100.4L25.4 100.3H25.5H25.6V100.2H25.7V100.1H25.8V100H25.9V99.9H26V99.8H26.1V99.7H26.2H26.3H26.4H26.5H26.6H26.7L26.8 99.8L26.9 99.9V100H27V100.1H27.1H27.2V99.8L27.1 99.7V99.6V99.5V99.4V99.3V99.1V99V98.9L27 98.8V98.7V98.6H27.1V98.5H27.2H27.3V98.4H27.4H27.5H27.6H27.7L27.8 98.5H27.9H28H28.1H28.2L28.3 98.6H28.4H28.5H28.6L29 98.5H29.1H29.2L29.6 98.4L30 98.3L30.3 98.2L30.7 98.1H30.9L31.2 98L31.5 97.9L31.9 97.8V98.1L32 98.8L32.1 99.1V99.3V99.4H32H31.9L32 99.5V99.6L32.1 99.7H32.2H32.3L32.4 99.8V99.9L32.5 100V100.1V100.2V100.3H32.6V100.4H32.7V100.5L32.8 100.6L32.9 100.7L33 100.8V100.9H33.1H33.2V101L33.3 101.1H33.2V101.2H33.1H33V101.3H32.9L32.8 101.4H32.7H32.6V101.6V101.7V101.8V101.9V102H32.7H32.8H33H33.1H33.2H33.3H33.4H33.5H33.6L33.7 102.1H33.8H33.9H34L34.2 102.2H34.3L34.4 102.1L34.5 102H34.6H34.7H34.8L34.9 101.9H35H35.1H35.3V101.8H35.4H35.5V101.7L35.9 101.6L36.2 101.9L36.5 102.2H37L36.9 102.3V102.4V102.5L37 102.7L37.1 102.9L37.2 103.1V103.2L37.3 103.3L37.4 103.4V103.5L37.5 103.6L37.6 103.8V104L37.7 104.1L37.8 104.2V104.4L37.9 104.5V104.6H38V104.7V104.8L38.1 105L38.2 105.1V105.2L38.1 105.5H38.2V105.6V105.7H38.3V105.8H38.4V105.9L38.5 106V106.1H38.6H38.7L38.8 106L39 105.8L39.2 105.5L39.3 105.4L39.4 105.2L39.3 105.1L39.2 105L39.1 104.9L38.9 104.8V104.7H38.8V104.6L38.7 104.5L38.6 104.4H38.5V104.2L38.4 104L38.5 103.8L38.6 103.7L38.7 103.6L38.8 103.4L39 103.2L39.1 103.1L39.2 103L39.3 102.9L39.4 102.8L39.5 102.6L39.7 102.3L39.8 102.2V102.1V102V101.9L39.9 101.8V101.7V101.6H40L40.1 101.5L40.2 101.3L40.3 101.2H40.4V101.1L40.5 101L40.6 100.9V100.8H40.7V100.7H40.8V100.6V100.5V100.4V100.3V100.2V100.1V100V99.9H40.9V99.8V99.7H41V99.6V99.4H41.1V99.3V99.2H41.2V99.1V99H41.1V98.9V98.7L41.2 98.6L41.1 98.5V98.4H41V98.2L41.1 98.1V98V97.8L41 97.7V97.6V97.4L40.9 97.2V97.1V97V96.9V96.8L40.8 96.7H40.9V96.6V96.5V96.4V96.3V96.2L41.1 95.5L41.2 95.4H41.3V95.3L41.4 95.1V95H41.5V94.9V94.8L41.6 94.7V94.6V94.3V94V93.8V93.5V93.3V93.2V93.1V92.9V92.8H41.7L41.8 92.5V92.3V92.2V91.9V91.8V91.7L41.9 91.6V91.5L42.2 90.9L42.4 90.7L42.7 90.5V90.2L42.6 89.8V89.4V89.3H42.7V89.2H42.8H42.9V89.3V89.4H43H43.1H43.2H43.3V89.3H43.4V89.2H43.5V89.3H43.6H43.7V89.4H43.8H43.9V89.3H44V89.4H44.1H44.2H44.3H44.4L44.5 89.5H44.4V89.6H44.5H44.6L44.7 89.7V89.6H44.8V89.5H44.9V89.4H45L45.1 89.5V89.6V89.7V89.8H45.2V89.9H45.3V89.8H45.4V89.7H45.5H45.6H45.7H45.8H45.9V89.8H46V89.9V90H46.1V90.1H46.2H46.3V90H46.4H46.5V89.9H46.6H46.7H46.8H46.9L47 90H46.9L47 90.1L47.1 90.2H47.3L47.5 90.1H47.6V90H47.7V89.9H47.8L47.9 90V89.9H48L48.1 90H48.2H48.3L48.4 90.1L48.5 90L48.6 89.9V89.8V89.7V89.5V89.4V89.2L48.7 89.1V89L48.8 89.1V88.9H48.7V88.8L48.8 88.7V88.6V88.5L48.9 88.6V88.5H49.1H49.2H49.3V88.4H49.2V88.3V88.2V88.1V88V87.9V87.8V87.7L48.9 87.6L49 87.5L48.9 87.4H48.8L48.6 87.1L48.4 87L48.3 86.9L48.2 86.8L48.1 86.7V86.6L48 86.5H47.8H47.7L47.6 86.6V86.7L47.4 86.8H47.3L46.9 86.5V86.1L47 85.6V85L47.1 84.2L47.2 82.8L47.3 82.1L47.4 81L47.2 80.8L47.1 80.7L45.9 79.5L45.6 79.2H45.7L46.2 79H46.3L46.4 78.9H46.5H46.6H46.7H46.8H46.9L47 78.8V78.7H47.1H47.2L47.3 78.6H47.4H47.5L47.6 78.7H47.8H48H48.1H48.3H48.4V78.6H48.5L48.6 78.5H48.7H48.8V78.4H48.9H49V78.3H49.1H49.2V78.2H49.3H49.4L49.5 78.1H49.6H49.7V78H49.8H49.9H50V78.1H50.1H50.2H50.3L50.4 78.2H50.5L50.6 78.1H50.7L50.8 78H51L51.1 78.1H51.2H51.3H51.4L51.5 78V77.9V77.5L51.4 77.3V77.2L51.3 76.6V76.5L51.4 76.1L51.5 75.8H51.6V75.6L51.8 75.4H52.2H52.4H52.7V75.1L52.6 75V74.7L52.5 74.2L52.3 73.7L52.2 72.9L52.1 72.7V72.6V72.4L52 72.3V72.1L51.9 71.7L51.6 71.5L51 71.1L50.4 70.6L49.9 70.3L49.5 70L49 69.7L48.4 69.3L48.2 69.1L47.9 69.2L47.6 69.3L47.4 69.4L47.2 69.5H47.1H47H46.9H46.8H46.7H46.6H46.5L46.4 69.6H46.3L46.2 69.5H46.1H46L45.9 69.4H45.7H45.6L45.5 69.3H45.3L45 69.2L44.7 69.1H44.6H44.5L44.4 69V68.9L44.5 69L44.6 68.8V68.7V68.6V68.5V68.4H44.5V68.3V68.2H44.6H44.7V68.1L44.8 68V67.5V67.4L44.7 67.3L44.6 67.2L44.5 67.1L44.4 66.9L44.3 66.8H44.2V66.7V66.6L44.4 66.2H44.5L44.7 66.1V66L45.3 65.7H45.4H45.6H45.8H45.9L46.2 65.9H46.3H46.8H47V65.4V64.6H47.2H47.3L47.7 64.5L47.8 64.9V65V65.1L47.9 65.3L48.2 65.2L48.5 65.1L48.6 65H48.7L48.8 64.9L48.9 64.8H49H49.1L49.2 64.7H49.3L49.4 64.6H49.5L49.6 64.4H49.7H49.9L50.3 64.3L50.4 64.2L50.6 64L50.7 63.9V63.8L50.8 63.6V63.5V63.4L50.9 63.3V63.1L50.8 63L50.7 62.9H50.6V62.8V62.7L50.5 62.6L50.4 62.5V62.4V62.3H50.3V62.2V62.1V62H50.2V61.9H50.3H50.4V61.8V61.7H50.5H50.6L50.7 61.6V61.5L50.6 61.4L50.5 61.3V61.2H50.4L50.3 61.1V61V60.9H50.2L50 60.6L49.8 60.4L49.5 60.1L49.3 59.8L49.2 59.7L48.9 59.4L48.7 59.2L48.5 59L48.2 58.7L48 58.5L47.8 58.3L47.6 58L47.3 57.7L47.1 57.5H47L46.5 57.4L46 57.3H45.9L45.3 57.2H45H44.9L44.7 57.1H44.6V57V56.9V56.8H44.5V56.7V56.6H44.6V56.5V56.4H44.5L44.6 56.3L44.7 56.2H44.6V56.1V56V55.9H44.7V55.8V55.7V55.6H44.6H44.5H44.4V55.5L44.3 55.4V55.3L44.2 55.2V55.1V55L44.1 55.1V55.2H44V55.1V55H43.9V54.9V54.8V54.7L43.8 54.6H43.9V54.7H44H44.1V54.6H44.2V54.5H44.1H44V54.4H43.9V54.3H44H44.1V54.2V54.1H44V54H43.9V54.1H43.8V54L43.9 53.9H44L44.1 54V53.9V53.8H44L43.9 53.7H44V53.6H44.1L44.2 53.5V53.4H44.1V53.5H44V53.6H43.9V53.5H43.8V53.4H43.7H43.6V53.3H43.5H43.4V53.2V53.1H43.3V53H43.2V52.9V52.8H43.3V52.7H43.2V52.8H43.1V52.7V52.6H43H42.9H42.8H42.7H42.6V52.5L42.5 52.4L42.4 52.3V52.2H42.3L42.2 52.4L42.1 52.3H42L42.1 52.1V52L42.2 51.9V51.7V51.6H42.1H41.9L41.7 51.8H41.6V51.7L41.7 51.6H41.6H41.5V51.5H41.6H41.7V51.4H41.6V51.3H41.7V51.2H41.6L41.5 51.3H41.4H41V51.2L41.1 50.9L41.2 50.8V50.7V50.6H41.1V50.5H41V50.4L40.9 50.5V50.4H40.8H40.7V50.3V50.2H40.6V50.3V50.4H40.5H40.4V50.3H40.5V50.2H40.4H40.3V50.1H40.2V50.2H40.1V50.1H40.2V50H40.1H40V50.1L39.8 50.2L39.7 50.1L39.6 50L39.4 49.9V49.8V49.7L39.5 49.5V49.4V49.3V49.2H39.4V49.3H39.3L39.2 49.2V49.1H39.3V49H39.2V48.9H39.1V49H39V48.9H38.9H38.8L38.7 48.3L38.4 48.2V48.1H38.3V48V47.9H38.4V47.8V47.7V47.6H38.5V47.7H38.6V47.6L38.8 47.2L38.7 47.1L38.8 47L38.9 46.8V46.7H39V46.6V46.5H38.9H38.8H38.7V46.4H38.6V46.3H38.7V46.2V46.1V46V45.9H38.8L38.9 45.8L39 45.9V45.8H39.1V45.7H39.2V45.8H39.3V45.7V45.6H39.4V45.5L39.3 45.4L39.2 45.3L39.1 45.1L39 44.9L38.9 44.8V44.7L38.8 44.6L38.5 44.9L38 45.3L37.6 45.6L37.3 45.5H37.2L36.7 45.3L36.3 45.7L35.2 45.2L35 45.1V44.7V44.6L35.1 44.1L35.2 43.6H34.8H33.4L33.5 43.9L33.4 44.1L33.3 44.2L33.1 44.5L33.4 44.8V45.2H33.2H33.1V45.1H33H32.9H32.8V45L32.4 45.2V45.4L32.2 45.5L32 45L32.2 44.9H32.3H32.4L32.2 44.7H32.3L32.4 44.6V44.5V44.3L32.3 44.1L31.7 44.3V44.1L31.6 43.9V43.2L31.2 42.7L30.6 42.4L30.1 42.6L29.9 42.1L29.5 42.2L29.4 42.1L29.3 41.4L29.1 40.9L29 40.5L29.5 40L29.3 37.9L29.2 37.2V37.1H29.1L29 37.2H28.8L28.2 37.3H28L28.1 36.9L28.3 36H28.1H27.7H27.6H27.3L27.7 34.9L26.9 35.1L26.2 35.2L24.9 35.4L24.7 34.4L26.3 33.9L26.7 33.7H26.9V33.6L27 33.5V33.4V33.2L26.9 33.1H26.8L26.6 32.9L26.3 32.8L26.2 32.7L25.9 32.5L25.6 32.4L25.4 32.3L25.8 31.1L25.9 31L26.1 30.8L26.3 30.6H26.4V30.5H26.5H26.6H26.7H26.8L26.9 30.4L27 30.1L27.1 29.5L27.2 29L27.3 28.8H27.2L26.8 28.2L26.5 27.9H26.4L26.3 27.8V27.3L26.2 26.9L25.7 27L25.3 27.1L25.2 26.6L25 26L24.9 25.4L24.2 25.8L24.3 26L23.7 26.2L23.8 25.7V24.8L25.5 24.7V25.2L26 25.4L26.1 25L26.2 24.8L26.5 24L26.6 23.8L27 23.9L27.6 24L27.7 23.7V23.6L27.8 23.5L27.9 23.3V23.2H28V23.1L28.1 23V22.9V22.8V22.7V22.6H28.2V22.5H28.3V22.4L28.5 22.1V22V21.9V21.8V21.7H28.4V21.6V21.5H28.5H28.6V21.4H28.7H28.8H28.9V21.3V21.2H29V21.1V21L29.1 20.9V20.8H29.2V20.7H29.1V20.6V20.5V20.4H29V20.3V20.2V20.1H29.1H29.2V20H29.3H29.4V19.9H29.5V19.8H29.6V19.7V19.6V19.5H29.7V19.4V19.3V19.2V19.1V19V18.9V18.8V18.7L29.6 18.6L29.7 18.5V18.4L29.8 18.3L30.1 18L30.3 17.8L30.4 17.6H30.5V17.5V17.3L30.4 17.2V17L30.3 16.9V16.8V16.7H30.4V16.6L30.5 16.5L30.6 16.4V16.3V16.2H30.7V16.1L30.8 16H30.9V15.9V15.8V15.6L31 15.3L31.2 14.7H31.3L31.2 14.5L31.1 14.3L31 14.1L30.9 14L30.8 13.7L30.7 13.4H30.6V13.5L30.4 13.6L30.2 13.9V14H30.1H30H29.9V13.9H29.8V13.8H29.6H29.7V13.4L29.8 13.1L29.9 12.6L30.1 12.5V12.3L29.9 12H29.7H29.6L29.5 11.6V11.5L28.7 10.8V10.7H28.8V10.6H28.7V10.5H28.8H28.9H29V10.4V10.3H28.9V10.2V10.1V9.99998H29V9.89998H29.1H29.2H29.3V9.79998V9.69997H29.4H29.5V9.79998H29.6V9.69997V9.59998H29.7V9.49998H29.6V9.39998V9.29998L29.7 9.19997V9.09998H29.6V8.99998V8.89998V8.79998H29.5H29.4V8.69997V8.59998H29.3V8.49998V8.39998H29.2V8.29998V8.19997V8.09998H29.1V7.99998L29.2 7.89998V7.69997V7.59998H29.1V7.49998L29.2 7.39998V7.19997V7.09998L29.3 6.89998L29.4 6.79998L29.5 6.69997L29.6 6.49998L29.7 6.19997L29.9 5.99998H30V5.89998H30.1V5.79998V5.69997V5.39998L30.5 5.19997L30.7 5.09998L30.8 4.99998L31 4.79998L31.1 4.69997H31.2H31.3H31.4H31.5V4.59998H31.6L32.5 3.29998L32.1 3.19997L31.6 2.99998H31.5L31.4 2.89998H31.2V2.79998H31.1H31V2.69997L30.5 2.79998H30.2H30.1H29.5H29.2H28.8H28.7H28.6H28.5V2.69997L28.4 2.59998L28.3 2.49998L28.2 2.39998H28.1L27.8 2.09998L27.5 1.89998L27.1 1.69997H27L26.9 1.59998L27 1.39998H26.9L31 1.49998H31.3L35.6 0.599976L36.1 0.699974L46.4 2.69997L49.9 2.49998L51.4 2.89998L54.6 5.79998L56.2 6.49998L67.3 6.89998V6.99998V7.39998V7.69997V7.79998V8.09998V8.39998V8.59998L67.5 8.49998H67.7H67.9H68.1H68.3H68.4L68.3 8.59998L68.5 9.39998L69.1 10.3L69.8 10.6L71 10.7V10.9V11.1H71.1H71.2L72.8 11.2L74.9 11.4L75.3 10.8L80.9 11L85.4 13L85.8 13.2H85.9L88.4 14.3L90.4 15.2L93.8 15.8L94 15.7L94.3 15.8L94.5 16L95 16.2L95.1 16.3H95.2V16.2L95.6 15.9L95.9 15.4L96.1 15.2L96.4 14.9V14.8L98.8 14L103.3 14.2L105.4 14.6L106.7 15.4L107 16.7L106.9 18.4V20.6L107.3 22.2L108 22.9L109 23L110.3 22.9L111.5 23.2V23.5V23.6L111.4 23.7L111.3 23.9L110.7 24.7L110.3 25.3L110.1 25.7L110.2 26L110.3 26.4V26.5V26.6L110.1 26.8L110 27.1L109.9 27.2H110.3H110.7L110.6 27.8L111.2 28.4L112.3 28.3L114.4 27.6L117.3 28.1H118.4L119.5 27.5L120.7 26.2V26.5L121.1 26.7L121.4 26.9L121.5 26.8L121.7 26.6L121.8 26.5L122.1 26.2L122.3 26.4L122.4 26.5V26.6H122.3V26.7H122.2V26.8V26.9V27H122.1V27.1H122V27.2V27.3V27.4V27.5V27.6H122.1V27.7V27.8V27.9V28L122.4 28.1L122.5 28.2H122.7L122.9 28.3L123.1 28.4H123.2L123.3 28.3L123.6 28.1H123.7V28L123.9 27.7L124 27.5L124.1 27.2L124.4 26.8H124H123.6L123.5 26.3V25.9L123.4 25.6V25.5H123.6L129.1 27.7L131.9 27.8L132.7 28.3L133.3 29.9L133.1 31.3H133L132.9 31.4L132.8 31.5H132.7V31.6L132.5 31.8L132.4 31.9L132.3 32L132.2 32.1H132.1L132 32.2L131.9 32.3V32.4V32.6V32.8V33.3L132 33.6V33.9L131.6 34L131.2 34.1L131.3 34.6V34.7L131.4 34.9L131.5 35.5Z" fill="#6F9C76"/>
<path d="M109.5 88.7V88.6H109.6V88.5V88.4V88.3V88.2H109.7V88.1V88H109.8V87.9V87.8H109.9V87.7H110V87.6V87.5H110.1V87.4H110.2V87.3H110.3V87.2V87.1L110.2 86.9L110.1 86.2L110.3 85.8L110.5 85.3L110.2 85.1L110.3 84.9L110.4 84.7L110.5 84.6V84.5L110.6 84.3H110.7V84.1H110.6L110.5 84V83.9H110.4L110.3 83.8L110.2 83.7H110.1L110 83.6H109.9L109.8 83.5L109.6 83.3V83.2V83.1V83L109.5 82.9V82.8H109.4H109.3L109.2 82.9V82.8H109.1V82.9H109V82.8H108.9V82.7V82.6V82.5L108.8 82.4H108.7V82.3V82.2V82.1V82L108.6 81.8V81.7H108.7L108.8 81.5L108.9 81.3L109.1 81.4L109.3 81.2L109.5 81.1L109.7 81L109.8 80.8H109.7H109.6V80.7V80.5L109.7 80.4V80.3L109.8 80.2L109.7 80.1L109.5 80V79.9H109.6L109.4 79.8L109 79.6V79.3H109.1V79.2V79.1V79V78.8L109 78.7V78.6H109.1V78.5L108.9 78.2L108.8 77.9H108.7V77.8L108.6 77.7V77.6L108.5 77.4L108.4 77.3V77.2L108.2 76.9L108.1 76.8V76.7H108V76.6V76.5V76.4V76.3V76.2L107.8 75.8L108.2 75.6L108.4 75.4L108.6 75.1L109.2 75.2V75.1V74.4L109.3 74.3V74.1V74L109.1 73.9V73.8L109 73.7L108.9 73.6V73.4H108.8L109.2 73.3H110H110.2H110.4L110.9 73.2H111.3H111.7V73.1L111.8 72.6L112.1 72.5H113.4L114.2 72.4L114.1 72.2L113.8 71.7V71.6V71.4V71.1L113.9 70.9V70.8V70.7L114.1 70.4V70.3V70.2V70L114 69.7L114.1 69.2L114.2 69.3L114.6 69.1V69L114.7 68.7H114.8H114.9H115.1L115.4 68.8H115.7L115.6 68.1H115.9L116.3 68L116.2 67.4L116.1 67L116.4 66.8L116.3 66.3L116.2 65.5V64.9L116.1 64.5V64.3H116.2H116.5V64.2H116.6L116.9 64V63.9L116.6 63.4L117 63L117.2 62.7L117.8 62.2V62.1L117.7 62L118 61.3L118.1 61.2L118.2 60.7L118.1 60.6L118 60.4V59.8V59.7L118.7 59.6L119.6 58.5L119.7 58.4L119.8 58.2L120.1 57.9H120.2L120.9 57.8V57.7V57.6V57.5L121 57.4V57.3V57.2L121.1 57.1V57V56.8L121.6 56.7V56.5L121.5 56.3L121.4 56.2H121.3L121.2 56.1V56L121.1 55.9H121H120.7V55.8V55.6V55.5L120.4 55.4L120.3 55H120.7L120.5 54.8L120.6 54.7H120.7H120.8L121 54.6L120.9 54.4V54.3L120.7 53.8L120.4 53.1L120.2 51.9L120.1 51.6L120 50.8H120.1H120.2L120.5 50.7H120.6L121 50.6H121.5L122 50.5H122.1H122.2V50.4H122.3H122.4H122.5L122.7 50.2L122.8 50.1L122.9 49.9H123V49.8L123.2 49.5L123.4 49.1L123.5 48.8H123.6L124.1 48.3V48.2V48V47.9L124.4 47.3L124.3 47L124.2 46.8L124.3 46.3L123.2 45.8H123.1L122.9 45.7H122.7V45.6V45.5V45.2V45V44.9L122.6 42.9L122.8 42.5L122.9 42.1V41.8V41.7L123 41.5L123.2 40.7V40.6V39.9V39.4H123.3H123.4H123.5L123.8 39.3H123.9H124H124.1H124.3H124.5H124.7V39.4L124.6 39.5L124.5 39.7L124.3 40.1L124.4 40.3L124.5 40.4V40.5V40.6H124.6V40.8V40.9V41V41.1V41.2V41.3L124.9 41.5L125.7 42H125.8L126.3 42.2L126.4 42.3V42.4L126.5 42.5L126.6 42.6H126.7V42.7H126.8L126.9 42.8L127.1 42.9L127.2 43V43.1V43.5L128 43.4H128.3L128.7 43.3V42.8L128.2 42.4L128.3 42L128 41.8V41.1L127.1 41.2V41V40.5V40.2L127 38.9V38.8V38.7V38.6V38.5V38.1V37.2H127.5L129.2 36.9L130.4 35.7L130.5 35.3L130.8 35.5H130.9H131L131.1 35.6L131.4 35.7L131.5 35.5L131.4 34.9L131.3 34.7V34.6L131.2 34.1L131.6 34L132 33.9V33.6L131.9 33.3V32.8V32.6V32.4V32.3L132 32.2L132.1 32.1H132.2L132.3 32L132.4 31.9L132.5 31.8L132.7 31.6V31.5H132.8L132.9 31.4L133 31.3H133.1L133.3 29.9L132.7 28.3L131.9 27.8L129.1 27.7L123.6 25.5H123.4V25.6L123.5 25.9V26.3L123.6 26.8H124H124.4L124.1 27.2L124 27.5L123.9 27.7L123.7 28V28.1H123.6L123.3 28.3L123.2 28.4H123.1L122.9 28.3L122.7 28.2H122.5L122.4 28.1L122.1 28V27.9V27.8V27.7V27.6H122V27.5V27.4V27.3V27.2V27.1H122.1V27M109.5 88.7H109.4M109.5 88.7V88.8V88.9H109.6H109.7V89M109.7 89H109.6M109.7 89V89.1H109.8V89.2M109.8 89.2H109.7M109.8 89.2V89.3V89.4H109.9V89.5M109.9 89.5H110L109.9 89.6M109.9 89.5V89.6M109.9 89.6V89.7L109.8 89.8V89.9V90M109.8 90H109.7M109.8 90V90.1V90.2V90.3V90.4V90.5V90.6V90.7L109.7 90.8H109.6V90.9V91V91.1H109.7V91.2V91.3V91.4H109.6V91.5V91.6V92V92.1L109.7 92.2L110 92.4L109.9 93.1V93.4V93.5V93.6V93.7V93.8V93.9H110V94V94.1H109.9L110 94.2H110.1H110.2H110.3V94.3H110.4H110.5H110.6V94.4H110.7H110.8V94.5V94.6V94.7H110.9V94.8H111V94.7H111.1H111.2H111.3H111.4V94.8V94.9V95V95.1V95.2V95.3M111.4 95.3H111.3M111.4 95.3V95.4M111.4 95.4H111.3M111.4 95.4V95.5H111.3V95.6V95.7H111.2V95.8H111.1V95.9V96V96.1H111V96.2H111.1V96.3V96.4V96.5H111.2V96.6V96.7H111.3V96.8H111.2V96.9H111.3H111.4V97H111.5V97.1V97.2H111.4V97.3V97.4V97.5H111.5V97.6H111.6V97.7V97.8V97.9H111.7V98L111.6 98.1V98.2H111.5V98.3V98.4V98.5V98.6V98.7V98.8H111.4H111.3V98.9H111.2V99H111.1L111 99.1V99.2V99.3H110.9V99.4H110.8V99.5V99.6V99.7H110.9V99.8V99.9H110.8V100H110.7H110.6V100.1V100.2H110.5H110.4V100.3M110.4 100.3H110.5V100.4M110.4 100.3V100.4H110.5M110.5 100.4V100.5H110.6L110.5 100.6M110.5 100.6H110.6M110.5 100.6H110.4M110.5 100.6V100.7H110.4V100.8V100.9L110.3 101V101.1V101.2V101.3L110.2 101.5V101.7L110.1 101.8V101.9L109.9 101.8L109.8 101.9H109.4L109.2 102.1L109 101.9L108.9 102.1H108.7V102.2H108.6V102.1H108.5V102.2H108.4M108.4 102.2H108.3V102.3M108.4 102.2V102.3H108.3M108.3 102.3H108.2V102.4H108.1M108.1 102.4V102.3M108.1 102.4H108V102.5M108 102.5H108.1M108 102.5V102.6V102.7H107.9V102.8H108V102.9V103H108.1H108.2H108.3L108.4 103.1H108.5V103.2V103.3V103.4V103.5H108.4V103.6H108.5V103.7V103.8M108.5 103.8H108.4M108.5 103.8V103.9V104H108.4V104.1H108.3V104.2H108.2V104.3H108.3V104.4M108.3 104.4H108.4V104.5M108.3 104.4V104.5H108.4M108.4 104.5H108.5V104.6H108.4V104.7H108.3H108.2V104.8L108.1 104.9V105H108H107.9V105.1V105.2V105.3H108H108.1V105.4V105.5H108H107.9V105.6H107.8H107.7H107.6H107.5V105.5H107.4H107.3V105.6H107.2V105.7M107.2 105.7H107.3M107.2 105.7L107.3 105.8V105.9V106V106.1H107.4H107.5H107.6H107.7V106.2L107.8 106.3L107.9 106.5L108 106.7H108.1H108.2H108.3V106.8L108.4 106.9H108.5V107H108.7L108.8 107.1L109 107.2H109.1V107.4H109V107.5V107.6V107.7V107.8L108.9 108L108.8 108.2H108.7V108.3V108.4V108.5H108.6V108.6V108.7L108.7 108.9L108.9 109.2L109 109.6L109.2 109.9L109.4 110.2V110.4H109.3H109.2H109.1H108.8L108.4 110.5V110.6H108.2H108H107.9L107.8 110.7H107.7H107.6H107.5L107.4 110.8H107.3H107.2H107H106.8H106.7H106.6H106.4H106.3H106.2V110.7H106.1H106H105.9H105.8H105.7L105.5 110.6H105.4L105.3 110.7H105.2H105H104.9L104.7 110.8H104.6H104.5H104.4H104.3V110.7V110.6V110.5L104.2 110.4V110.3V110.2L104.1 110L104 109.9V109.8H104.1V109.7H104.2L104.3 109.2H104.2L104.3 108.9V108.8V108.7V108.6H104.2H104.1H104V108.5H103.9H103.8V108.4H103.7V108.3V108.2V108.1L103.6 108.2H103.5H103.4V108.3H103.3L103.4 108.4H103.3H103.2V108.5V108.6V108.7L103.1 108.8V108.9H103V109H102.9V108.9H102.8L102.7 108.8H102.6H102.5V108.7H102.4H102.3V108.8V108.9V109L102.2 109.1V109.3H102.1L102 109.2L101.9 109.1L101.8 109L101.7 109.1V109.3L101.6 109.5L101.7 109.6H101.6H101.5H101.4V109.7V109.8L101.3 110V110.1V110.2V110.3H101.2V110.4V110.5H101.1V110.6L101 110.7L101.3 111V111.1H101.4L101.5 111.2L101.6 111.3L101.4 111.6H101.1H101H100.9H100.8H100.7H100.6H100.5L100.4 111.5H100.3H100.2H100.1L100 111.4H99.9L99.8 111.3H99.7H99.6L99.5 111.2H99.4H99.3L99.1 111.1H99H98.9L98.8 111H98.6V111.2L98.4 111.6V111.8L98.3 112.1L98.2 112.2V112.3V112.4L98.1 112.5L97.7 112.7L97.6 112.8H97.5L97.4 112.9L97.2 113L97.1 113.1V113.3L97 113.4V113.5V113.6L96.9 113.7V113.8L96.7 113.7H96.6V113.6H96.5V113.5H96.4H96.3V113.4H96.2H96.1V113.3H96H95.9H95.7H95.5H95.4H95.3H95.2H95.1V113.2H95H94.9L94.8 113.3V113.2H94.7H94.6L94.5 113.1H94.4V113H94.3L94.2 112.9L94.1 112.8H94L93.8 112.7H93.7H93.6H93.5V112.6L93.3 112.5L93.2 112.4H93.1V112.3L93 112.2L92.7 112L92.6 112.1L92.4 112.2L92.3 112.4H92.2V112.5H92.1V112.6H92L91.9 112.7V112.8H91.8V112.9H91.7V113V113.1L91.6 113.2L91.5 113.4V113.6L91.4 113.9L91.3 114L91 114.2H90.9V114.3L90.7 114.4V114.5L90.5 114.9H90.4L90.2 114.8L90 114.6H89.9L89.8 114.5L89.6 114.4L89.5 114.1L89.4 113.9V113.8H89.2H89.1H89V113.9V114L88.8 114.1L88.7 114.4L88.6 114.5V114.7L88.7 114.9V115L88.6 115.1V115.3V115.4H88.5H88.4H88.2H88.1V115.5H88H87.9H87.8H87.7H87.6L87.5 115.4H87.4H87.3H87.2H87.1H87L86.9 115.5H86.8H86.7H86.6V115.6L86.5 115.7H86.6L86.7 115.8V115.9V116V116.1L86.6 116.2L86.5 116.4H86.4H86.2V116.3H86V116.4L85.9 116.5L86.1 116.6L86 116.7L86.1 116.8L86 116.9L86.1 117.4H86L85.8 117.5H85.7V117.6V117.9V118H85.8L86.3 117.9H86.4V117.7H86.5H86.6H86.7L86.9 117.6H87.1V117.8H87V117.9V118V118.2H86.9V118.3H86.8H86.7H86.6H86.5L86.4 118.2V118.3L86.3 118.4V118.5H86.2V118.4L86.1 118.3V118.2H86V118.3V118.4L85.9 118.5V118.7L85.7 118.6H85.6V118.5L85.4 118.6H85.2L84.9 118.7H84.7V118.5H84.8V118.4V118.3L84.9 118.2V118.1V118L85 117.9V117.8V117.7V117.6L84.9 117.5V117.4V117.3H84.6V117.4H84.4V117.5V117.6V117.7V117.8L84.5 117.9H84.4V118V118.1V118.2V118.3V118.4V118.5V118.6L84.2 118.7H84.1V118.9L84 119H84.1V119.1H84.2L84.3 119.2H84.4L84.5 119.3V119.4H84.6V119.5L84.5 119.6V120.1H84.4H84.1H84H83.9H83.8L83.7 120H83.6H83.5M83.5 120V119.9M83.5 120L83.4 120.2V120.3V120.5V120.8V120.9V121.1V121.2V121.4V121.5V121.6V121.7L83.3 121.8V121.9V122V122.1V122.2H83.2H83L82.8 122.1H82.7H82.6H82.5V122H82.4H82.2V122.3H82.1V122.4V122.5V122.7V122.8L82 122.9V123V123.1V123.2L81.9 123.4V123.5V123.6V123.7L81.8 123.9V124.1V124.2V124.3L81.7 124.4H81.6H81.5V124.3H81.4H81.3H81.2H81.1H81H80.9H80.8V124.2H80.7H80.6V124.3L80.5 124.4V124.5V124.6V124.7L80.4 124.8V125V125.1L80.3 125.2V125.3V125.4L80.2 125.5V125.6V125.7V125.8L80.1 125.9V126V126.1V126.2H80V126.3V126.4L79.7 126.2L79.3 126.1H79.2V126H79.1H79V125.9H78.9H78.8H78.7V125.8L78.5 125.9H78.4H78.3L78 126H77.9H77.8L77.7 126.1L77.4 126.9L77.3 127V127.2L77.2 127.3V127.4H77.1V127.5V127.6H77V127.7V127.8V127.9V128V128.1L76.9 128.2V128.3H76.8L76.5 128.5L76.4 128.6L76.1 128.7L75.5 129H75.4L75.3 129.1H75.2L75.5 129.6L75.6 129.7H75.7V129.8V129.9L75.6 130.1H75.5H75.3H75.1H74.9L74.7 130L74.8 130.3L75 130.9H74.6H74.5L74.2 131L74 130.7L73.9 130.6L73.5 131.1L73.6 131.2L73.7 131.3V131.5V131.6L73.6 131.7H73.5H73.4L73.3 131.8V131.9V132.2V132.3L73.1 132.2L73 132.3V132.4V132.5L73.1 132.6H73.2L73.3 132.7V132.8V132.9L73.2 133L73 132.8L72.9 132.7H72.8L72.7 132.8V132.9H72.6V132.8H72.5H72.4L72.3 132.9L72.2 133V133.1V133.2L72.3 133.3H72.2V133.4L72.3 133.5L72.4 133.6L72.5 133.7L72.4 133.8L72.3 133.9L72.2 134L72.9 134.3L72.8 134.5H72.7L72.5 134.4H72.4H72.2V134.3L72 134.2H71.7H71.5L71.4 134.3L71.3 134.4L71.2 134.5L71.1 134.6H71H70.9H70.7H70.5H70.3H70.1V134.5H70.2V134.4H70.3L70.2 134.3H70.1H70V134.4H69.9V134.3H69.8V134.4H69.7H69.6V134.5M69.6 134.5H69.5M69.6 134.5V134.6H69.5H69.4H69.3V134.5H69.2V134.6H69.1H69M69 134.6V134.5M69 134.6H68.9V134.5V134.4H68.8V134.5H68.7M68.7 134.5V134.6M68.7 134.5H68.6H68.5M68.5 134.5V134.6H68.4V134.5M68.5 134.5H68.4M68.4 134.5H68.3V134.4M68.3 134.4H68.4M68.3 134.4H68.2V134.5H68.1V134.4H68M68 134.4V134.5H67.9M68 134.4H67.9H67.8M67.8 134.4V134.3M67.8 134.4H67.7M67.8 134.3L67.7 134.4M67.8 134.3H67.7M67.7 134.4V134.3M67.7 134.4H67.6V134.3M67.7 134.3H67.6M67.6 134.3H67.5H67.4V134.2H67.3V134.3H67.2V134.4H67.1M67.1 134.4V134.3M67.1 134.4H67H66.9V134.5V134.6H66.8M66.8 134.6V134.5M66.8 134.6H66.7H66.6V134.7H66.7V134.8H66.6M66.6 134.8H66.5M66.6 134.8V134.9H66.7V135H66.6V135.1V135.2H66.5H66.4V135.3H66.3V135.2H66.2V135.3H66.1V135.2H66H65.9H65.8H65.7V135.3H65.6H65.5V135.4V135.5V135.6V135.7L65.4 135.8H65.3V135.9H65.2V136H65.1V136.1H65V136.2V136.3H64.9H64.8H64.7M64.7 136.3V136.4M64.7 136.3H64.6V136.4M64.6 136.4H64.5M64.6 136.4V136.5H64.5M64.5 136.5V136.6M64.5 136.5H64.4V136.6H64.3H64.2H64.1V136.7H64V136.8H63.9V136.9H63.8H63.7V137H63.6V137.1M63.6 137.1H63.7M63.6 137.1L63.7 137.2M63.7 137.2H63.6M63.7 137.2V137.3V137.4H63.6V137.5H63.5V137.6M63.5 137.6V137.7M63.5 137.6H63.4V137.7V137.8H63.3M63.3 137.8V137.9M63.3 137.8H63.2V137.9V138V138.1H63.1V138.2H63H62.9V138.3H62.8H62.7V138.4V138.5V138.6V138.7H62.6V138.8V138.9H62.5V139H62.6V139.1H62.7V139.2V139.3V139.4V139.5L62.6 139.6H62.5V139.7V139.8L62.4 139.9H62.3V140H62.2V140.1V140.2L62.1 140.3H62V140.4H61.9V140.5V140.6V140.7V140.8H61.8M61.8 140.8V140.9M61.8 140.8H61.7H61.6H61.5V140.7M61.5 140.7H61.6M61.5 140.7H61.4L61.3 140.8H61.2V140.9H61.1V141H61V141.1H60.9H60.8H60.7H60.6V141H60.5V140.9H60.4H60.3V141H60.2H60.1H60V141.1M60 141.1V141.2M60 141.1H59.9V141.2H59.8H59.7V141.3V141.4H59.6H59.5L59.4 141.5M59.4 141.5V141.4M59.4 141.5H59.3H59.2H59.1H59H58.9V141.6L58.8 141.5V141.4H58.7V141.3V141.2H58.6V141.1H58.5V141H58.4L58.2 140.7H58.1V140.6H58L57.9 140.5H57.8H57.6H57.4V140.4H57.3L57.2 140.3L57.1 140.2L57 140L57.1 139.9L56.4 139.6L56.7 138.6L56.9 138L57 137.9L56.8 138H56.7V137.8V137.7V137.5V137.4V137.3V137.1V137H56.8L56.9 137.1L57 137.2H57.1H57.2V137.1H57.3L57.4 137H57.5H57.6V136.9L57.7 137H57.9H58H58.1H58.2H58.3V136.3V136.1V135.8H58.2V135.6H58.3V135.5V135.3V135.1V135V134.9H58.4L58.5 134.8V134.7V134.6V134.5V134.4V134.3V134.2V134.1H58.3H58.2L58.3 134.3L58.2 134.4H58.1H57.9H57.8H57.5H57.3H57L56.9 134.5L56.8 134.7H56.7L56.6 134.8V134.9L56.3 135.3L56.2 135.5L55.9 135.9V136H55.8V136.1H55.9V136.2L55.8 136.3V136.4L55.7 136.5V136.6V136.7L55.6 136.8H55.7V136.9H55.6H55.5L55.3 136.8H55.2L55 136.7H54.9H54.8L54.7 136.6H54.5H54.4V136.5H54.3H54.2H54.1V136.4H54L53.6 136.3L52.9 136L52.7 135.9L52.3 135.7L51.7 135.5L51.5 135.4H51.4H51.1V135.3H51L50.7 135.1H50.6L50.5 135H50.4H50.3V135.1H50.2L50.1 135.3H50L49.9 135.5L49.8 135.6L49.7 135.7L49.6 135.8L49.4 136L49 136.4L48.9 136.5L48.7 136.7L48.4 137L48.3 137.1H48.2H48.1H48H47.9H47.8H47.7V137V136.9V136.8V136.7V136.6L47.6 136.5L47.5 136.4V136.3L47.4 136.2H47.3L47.2 136.1L47 136H46.9V135.9V135.8V135.7H46.7V135.8H46.6H46.5H46.3H46.2H46.1H45.9L45.8 135.7V135.5H45.7V135.4V135.3L45.6 135.2V135.1H45.5V134.9H45.4H45.3L45.2 134.8H45.1L45 134.9H44.9L44.8 135L44.6 134.9H44.5L44.4 134.8L44.3 134.9H44.2H44.1H43.9L43.7 135H43.6L43.5 135.1H43.4V135.2V135.3V135.5V135.6L42.9 136L42.8 136.1L42.2 136.6L42.1 136.8L41.9 137.1L41.7 137.4L41.5 137.6V137.7H41.4L41.3 137.8H41.2H41.1V137.9L41 138.2V138.3H40.9L40.8 138.4V138.5V138.6H40.7V138.7H40.8V138.9V139L40.7 139.1L40.6 139.3L40.3 139.7L40.2 140H40.1V140.1H40V140.2H39.9H39.8H39.7V140.3H39.5H39.4V140.4H39.3H39.2H39.1L39 140.5H38.9V140.6H38.8H38.7M38.7 140.6V140.7M38.7 140.6L38.6 140.7H38.5H38.4H38.3V140.8H38.2H38.1V140.7H38V140.8L37.9 140.7H37.8H37.7L37.6 140.6H37.5H37.4H37.3H37.2H37.1V140.5H37L36.9 140.6L36.7 140.7H36.5L36.2 140.9H36H35.9H35.7H35.6L35.4 141H35.1H35L34.9 140.9L34.7 140.8L34.6 140.7H34.5L34.1 140.6V140.5L33.6 140.4L33.5 140.7L33.4 141.1V141.2H33.3L33.4 141.3H33.3V141.4V141.5H33.2H33.1H33H32.9H32.8L32.7 141.6H32.5H32.4H32.3L32.1 141.4L32 141.2L31.9 141.1H31.8V141L31.6 141.1H31.5L31.3 141.3L31.1 141.4L30.9 141.5L30.8 141.6H30.7L30.6 141.7H30.5V141.8H30.4V141.9L29.1 142.7L28.8 142.9L28.5 143.1H28.4L28.2 143L28.1 142.9V142.8L27.9 142.6L27.7 142.3H27.6L27.4 142.2L27.3 142.1L27.1 142L26.9 141.8L26.7 141.7L26.5 141.6L26.3 141.4H26.2V141.3H26.1L25.9 141.2V141.3L25.8 141.4V141.5H25.7V141.6V141.7L25.6 141.8V141.9H25.5V142.1L25.4 142.2L25.3 142.3V142.5L25.2 142.6L25.1 142.7V142.8L25 142.9L24.9 143.1V143.2H24.8M24.8 143.2V143.3M24.8 143.2H24.7H24.6L24.1 143.1L23.6 143H23.2L22.8 142.9H22.6L22.3 142.8H22.1V142.7V142.5L22.2 142.4H22.3V142.3L22.2 142.2H22.1L22 142.1H21.8H21.6H21.3L21 142H20.9L20.6 142.3L20.4 142.5L20 142.8L19.8 143L19.7 143.1L19.6 143.2L19.5 143.3V143.5V143.6V143.7V144.2V144.9V145.2V145.3V145.4L19.6 145.5L19.7 145.7L19.8 145.8V145.9H19.9H20H20.1L20.3 146H20.5H20.7L21 146.1H21.3V146.3L21.4 146.5V146.7L21.5 146.8V146.9V147V147.1L21.1 147.2L20.6 147.3L20.3 147.4L20.4 147.7H20.1H19.8V147.8V147.9L19.9 148.4V148.6L19.6 148.7V149V149.1V149.2L19.4 149.3H19.3H19.2V149.4H19V149.5V149.6H18.9V149.9L18.8 150.2V150.3L18.7 150.6V150.9H18.6L18.5 151H18.4L18.3 151.1H18.2H18.1H18V151.2H17.9H17.7H17.5H17.4H17.1H16.8H16.7V151.3H16.6V151.4H16.5H16.4H16.3V151.3V151.2L16.2 151.3H16L15.8 151.4H15.6H15.5L15.4 151.5H15.3L15.2 152.3L15.1 153.6V153.8H14.9H14.8L14.7 153.7L14.5 154.8V154.9L13.9 154.3L13.6 154L13.3 153.8L13.2 153.7H13.1L13 153.6L12.9 153.5H12.8L12.7 153.4L12.6 153.3V153.2L12.5 153.1L12.4 152.9V152.8L12.3 152.7V152.6H12.2L12.1 152.4L12 152.3L11.8 152.1V152L11.7 151.9V151.8L11.6 151.7L11.4 151.4L11.2 151.1L11.1 151L11 150.9L10.9 150.7L10.8 150.6H10.7V150.5L10.6 150.4L10.5 150.3V150.2H10.4V150.1L10.3 150L10.2 149.8V149.7H10.1L9.89996 149.4L9.79997 149.2L9.59998 149L9.49997 148.8L9.39996 148.7L9.19997 148.4L9.09998 148.2L8.79997 147.8L8.59998 147.5L8.19997 147L7.99997 146.7L7.79997 146.4L7.69997 146.3L7.49997 146.1V145.9L7.39996 145.8H7.29997V145.7L7.09998 145.3V145.2L6.89996 145V144.9L6.79997 144.8V144.7L6.89996 144.5V144.4L6.99997 144.2L7.09998 143.8V143.7V143.6L7.19997 143.4V143.3V143.1H7.29997V143V142.9V142.7V142.6V142.5L7.19997 142.4V142.3H7.09998V142.2H6.99997V142.1V142L7.19997 141.7L7.49997 141.6V141.4L7.59998 141.3V141.2L7.69997 141.1V141V140.9L7.39996 140.6L7.29997 140.5L7.19997 140.4L6.99997 140.3L6.89996 140.2L6.69997 140L6.49997 139.9H6.39996L6.29997 139.8L6.19997 139.7H6.09998L5.99997 139.6H5.89996V139.5H5.79997L5.69997 139.4L5.59998 139.3L5.49997 139.2H5.39996V139.1V139L5.29997 138.9V138.8V138.7H5.19997V138.6V138.5H5.29997V138.4V138.3V138.2V138.1V138V137.9L5.39996 137.7V137.5H5.59998H6.09998V137.4L5.99997 137.3L6.09998 137.1H5.89996V136.9L5.79997 136.8L5.89996 136.7L5.99997 136.5H6.09998L6.29997 136.1L6.39996 135.8V135.7V135.6L6.49997 135.5H6.69997L6.89996 135.6H7.29997L7.19997 135.4V135.3V135.2H7.09998V135.1V135V134.8V134.7V134.6V134.4L7.19997 134.1V133.9V133.8V133.7V133.6V133.5V133.4V133.3V133.2V133.1L6.99997 133L6.79997 132.9L6.29997 132.6L5.99997 132.5L5.89996 132.4H5.79997L5.69997 132.3H5.59998H5.49997H5.39996H5.29997L5.19997 132.2H5.09998H4.99997H4.89996V132.3H4.69997L4.49997 132.4L4.29997 132.5H4.09998L3.99997 132.6L3.69997 132.7L3.59998 132.8L3.39996 132.9H3.29997H3.19997L2.89996 132.8H2.79997H2.69997L2.59998 132.7V132.5L2.49997 131.9H2.29997H1.99997V131.6L1.89996 131.4L2.29997 131.5V131L2.39996 131.1V130.5H2.59998L2.79997 130.6H2.99997H3.29997H3.39996L3.49997 130.5V130.4V130.2L3.39996 130L3.99997 129.7L4.19997 129.6L4.29997 129.5L4.59998 129.4L4.89996 129.2L5.09998 129.1L5.19997 129H5.29997L5.19997 128.9L4.99997 128.6L4.79997 128.4L4.69997 128.3V128.2H4.59998L4.49997 128.1H4.39996L4.29997 128H4.19997V127.9L4.39996 127.6L4.49997 127.4V127.3L4.39996 127.1L4.29997 126.9V126.8L4.19997 126.7L4.09998 126.6L4.19997 126.5L4.29997 126.3L3.99997 126H4.09998V125.9H4.19997H4.29997V125.8L4.39996 125.9H4.49997H4.59998V125.8H4.69997H4.79997V125.7H4.89996H4.99997V125.6L4.89996 125.5H4.99997H5.09998V125.4V125.3L4.99997 125.2H5.09998H5.19997H5.29997H5.39996V125.3V125.4H5.49997H5.59998V125.5V125.6V125.7V125.8V125.9H5.69997V126H5.79997V126.1V126.2H5.89996V126.3H5.99997L5.89996 126.4V126.5V126.6H5.99997H6.09998V126.5V126.4H6.19997M6.19997 126.4V126.5M6.19997 126.4H6.29997M6.29997 126.4V126.3M6.29997 126.4V126.5H6.39996V126.4H6.49997H6.59998V126.5H6.69997V126.4H6.79997H6.89996M6.89996 126.4V126.5M6.89996 126.4V126.3H6.99997V126.2V126.1H7.09998M7.09998 126.1V126.2H7.19997V126.1M7.09998 126.1H7.19997M7.09998 126.1V126L7.19997 125.9V125.8H7.29997V125.7M7.19997 126.1H7.29997M7.29997 125.7H7.19997V125.6H7.29997V125.7ZM7.29997 125.7H7.39996V125.6V125.5V125.4V125.3V125.2H7.29997L7.39996 125.1H7.49997V125H7.39996L7.29997 125.1H7.19997V125V124.9H7.29997V124.8H7.19997V124.7M7.19997 124.7H7.29997V124.6H7.19997M7.19997 124.7V124.6M7.19997 124.6H7.09998M7.09998 124.6V124.7M7.09998 124.6V124.5V124.4V124.3L6.99997 124.2H6.89996V124.1H6.79997H6.69997V124H6.59998L6.49997 123.9H6.39996H6.29997H6.19997H6.09998H5.99997V124H5.89996V124.1L5.79997 124.2V124.1V124H5.69997V124.1H5.59998V124H5.49997V123.9H5.39996V123.8V123.7V123.6V123.5H5.49997H5.59998V123.4H5.49997V123.3V123.2V123.1V123M5.49997 123H5.39996M5.49997 123V122.9V122.8H5.39996V122.7V122.6H5.29997V122.5H5.39996V122.4H5.29997V122.3L5.39996 122.2H5.29997V122.1H5.19997H5.09998L4.99997 122V121.9H4.89996V121.8H4.79997V121.7H4.89996V121.6H4.79997V121.5H4.89996V121.4H4.79997L4.89996 121.3H4.79997H4.69997H4.59998V121.4H4.49997H4.39996V121.3H4.29997V121.4H4.19997V121.3H4.09998M4.09998 121.3V121.4M4.09998 121.3H3.99997V121.4H3.89996V121.3V121.2V121.1V121H3.79997V120.9M3.79997 120.9H3.69997M3.79997 120.9V120.8V120.7V120.6H3.89996H3.99997V120.5V120.4V120.3H4.09998L4.19997 120.4M4.19997 120.4V120.5M4.19997 120.4V120.3H4.29997V120.2L4.39996 120.1V120H4.49997V119.9V119.8L4.39996 119.4H3.99997H3.79997L3.89996 119.3V119.2V119.1V119V118.9V118.8V118.7L3.79997 118.8H3.69997H3.59998H3.49997H3.39996H3.29997H3.19997V118.7H3.09998H2.99997L2.89996 118.6L2.69997 118.5L2.59998 118.4H2.49997L2.19997 118.3L2.09998 118.2H1.99997H1.89996H1.79997V118.1H1.69997H1.59998V118H1.49997L1.39996 117.9L1.29997 117.8L1.19997 117.7L1.09998 117.6H1.19997H1.29997H1.39996H1.49997V117.7H1.59998L1.69997 117.8H1.79997L1.89996 117.9H1.99997V118H2.09998L2.19997 117.9H2.29997H2.49997H2.59998H2.69997H2.79997L2.99997 118H3.09998L3.29997 118.1H3.39996H3.49997L3.59998 118.2H3.69997H3.79997V118.1V118L3.89996 117.9L3.99997 118H4.09998H4.19997V118.1V118.2H4.29997L4.39996 118.3L4.49997 118.2V118.1V118V117.9L4.59998 117.8V117.6L4.69997 117.4V117.3V117.2L4.79997 117.1L4.89996 117V116.8V116.7V116.4V116.3V116L4.99997 115.8V115.7L5.09998 115.6L4.99997 115.5V115.4H4.89996V115.3V115.2V115.1V115H4.79997V114.9H4.69997L4.59998 114.8V114.6V114.5H4.49997V114.4L4.39996 114.3L4.29997 114.2L4.19997 114H4.09998V113.9H3.99997H3.89996L3.79997 113.8H3.69997L3.59998 113.7H3.49997L3.39996 113.6H3.29997L3.19997 113.5H3.09998V113.4H2.99997V113.3V113.2V113.1V113L2.79997 112.7L2.89996 112.6V112.5H2.99997V112.4V112.2L3.09998 112.1V112V111.8V111.4H3.19997V111.5L3.29997 111.6H3.39996V111.7H3.59998V111.8H3.69997H3.79997H3.89996H4.09998H4.19997L4.39996 111.9H4.49997H4.59998L4.79997 111.8H4.99997L5.19997 111.7H5.29997H5.39996H5.49997H5.69997H5.79997L5.89996 111.6H5.99997H6.19997H6.39996H6.49997V111.7L6.39996 111.8V111.9V112V112.1V112.2H6.49997L6.59998 112.3H6.69997H6.79997H6.89996H7.09998H7.19997L7.39996 112.4H7.69997H7.89996H8.19997H8.29997H8.39996H8.49997H8.69997V112.5H8.79997H8.89996L8.99997 112.6H9.09998L9.19997 112.7H9.29997L9.19997 113H9.29997H9.39996H9.49997H9.79997V113.1L9.89996 113H10.2H10.3H10.4H10.5H10.6V112.9H10.7V112.8H10.8H10.9L11 112.7H11.1H11.2H11.3L11.4 112.6H11.5H11.6H11.8H11.9H12L12.1 112.5V112.4V112.3H12.2V112.2H12.3V112.1H12.4V112H12.5H12.6V111.9V111.8V111.1H12.7H12.8L12.9 110.8L13 110.4L13.1 110.2V110L13 109.6V109.3V109.2V109L12.6 109.1L12.3 109.2L12 109.3V109.2L12.2 108.5V108.3V108.2V108L12.3 107.9V107.7L12.2 107.5V107.4H12.1H12V107.3V107.2V107.1V107L12.1 106.9H12L11.6 106.7V106.6V106.2V105.8V105.3H11.8H12H12.1H12.2H12.3H12.4H12.5L12.6 105.4L12.7 105.5V105.6L12.8 105.7V105.8L12.9 105.9L13 106L13.1 106.1L13.2 106.3L13.3 106.6L13.4 106.7H13.6H13.7H13.8H13.9L14 106.6H14.1H14.3H14.5V106.7V106.8V106.9H14.6H14.7H15H15.1L15.2 107L15.5 106.9H15.6V106.8H16.2V106.9V107H16.3H16.4H16.5H16.6V107.1H16.7M16.7 107.1V107.2H16.6V107.3M16.7 107.1H16.8H16.9H17V107H17.1V106.9H17.2L17.3 106.8V106.7L17.2 106.6H17.1V106.5H17V106.4H16.9H16.8H16.7V106.5H16.6H16.5V106.4V106.3H16.4L16.3 106.2L16.2 106.1V106V105.9H16.3V105.8H16.2V105.7V105.6V105.5V105.4H16.3M16.3 105.4H16.4M16.3 105.4V105.3L16.2 105.2H16.1H16H15.9L16 105.1V105H15.8H15.7H15.6L15.5 104.9L15.2 104.7V104.6H15.1V104.5V104.4L15.2 104.3H15.1H15V104.4H14.9V104.5V104.6H14.8V104.5H14.7H14.6V104.4V104.3V104.2H14.7V104.1H14.6V104V103.9V103.8H14.7H14.8V103.9V104H14.9M14.9 104V104.1M14.9 104V103.9V103.8H15V103.7H15.1V103.6H15.2V103.5H15.3H15.4H15.5V103.4H15.6H15.7V103.5H15.6V103.6H15.7H15.8H15.9H16V103.5H16.1V103.4L16.2 103.3H16.3V103.2L16.4 103.1V103V102.9V102.8V102.7H16.3V102.6V102.5H16.4V102.6L16.5 102.5V102.4H16.4V102.3H16.5V102.2L16.4 102.1V102V101.9V101.8V101.7V101.6H16.3V101.5L16.2 101.4L16.1 101.3V101.2H16H15.9H15.8V101.1H15.9L16 101V100.9L16.1 100.8L16.3 100.6V100.7V100.8H16.4V100.9H16.5V101V101.1H16.6V101.2V101.3H16.7L16.6 101.4H16.7V101.5H16.8V101.6V101.7H16.9V101.8V101.9H17V102H17.1H17.2V102.1H17.3V102.2H17.4V102.3L17.5 102.2H17.6V102.3H17.7H17.8V102.4H17.9H18H18.1H18.2H18.3H18.4H18.5H18.6H18.7V102.5H18.8V102.6L18.9 102.5H19H19.1L19.2 102.6H19.3L19.4 102.7H19.5H19.6H19.7H19.8H19.9L20 102.5L20.3 102.2L20 101.8L20.2 101.6L20.3 101.5L20.5 101.3H20.6V101.4L20.7 101.5V101.6H20.8V101.7V101.8V101.9H20.9H21L21.4 101.7H21.5L21.7 101.6L22.3 101.4L22.2 101.3L22.4 101.2L22.5 101.1L22.7 101H22.9H23.1H23.2H23.3V100.9H23.4H23.5H23.6H23.7L23.9 100.8L24.1 100.7L24.3 100.6L24.6 100.5L24.8 100.4L25.2 100.2L25.3 100.4L25.4 100.3H25.5H25.6V100.2H25.7V100.1H25.8V100H25.9V99.9H26V99.8H26.1V99.7H26.2H26.3H26.4H26.5H26.6H26.7L26.8 99.8L26.9 99.9V100H27V100.1H27.1H27.2V99.8L27.1 99.7V99.6V99.5V99.4V99.3V99.1V99V98.9L27 98.8V98.7V98.6H27.1V98.5H27.2H27.3V98.4H27.4H27.5H27.6H27.7L27.8 98.5H27.9H28H28.1H28.2L28.3 98.6H28.4H28.5H28.6L29 98.5H29.1H29.2L29.6 98.4L30 98.3L30.3 98.2L30.7 98.1H30.9L31.2 98L31.5 97.9L31.9 97.8V98.1L32 98.8L32.1 99.1V99.3V99.4H32H31.9L32 99.5V99.6L32.1 99.7H32.2H32.3L32.4 99.8V99.9L32.5 100V100.1V100.2V100.3H32.6V100.4H32.7V100.5L32.8 100.6L32.9 100.7L33 100.8V100.9H33.1H33.2V101L33.3 101.1H33.2V101.2H33.1H33V101.3H32.9L32.8 101.4H32.7H32.6V101.6V101.7V101.8V101.9V102H32.7H32.8H33H33.1H33.2H33.3H33.4H33.5H33.6L33.7 102.1H33.8H33.9H34L34.2 102.2H34.3L34.4 102.1L34.5 102H34.6H34.7H34.8L34.9 101.9H35H35.1H35.3V101.8H35.4H35.5V101.7L35.9 101.6L36.2 101.9L36.5 102.2H37L36.9 102.3V102.4V102.5L37 102.7L37.1 102.9L37.2 103.1V103.2L37.3 103.3L37.4 103.4V103.5L37.5 103.6L37.6 103.8V104L37.7 104.1L37.8 104.2V104.4L37.9 104.5V104.6H38V104.7V104.8L38.1 105L38.2 105.1V105.2L38.1 105.5H38.2V105.6V105.7H38.3V105.8H38.4V105.9L38.5 106V106.1H38.6H38.7L38.8 106L39 105.8L39.2 105.5L39.3 105.4L39.4 105.2L39.3 105.1L39.2 105L39.1 104.9L38.9 104.8V104.7H38.8V104.6L38.7 104.5L38.6 104.4H38.5V104.2L38.4 104L38.5 103.8L38.6 103.7L38.7 103.6L38.8 103.4L39 103.2L39.1 103.1L39.2 103L39.3 102.9L39.4 102.8L39.5 102.6L39.7 102.3L39.8 102.2V102.1V102V101.9L39.9 101.8V101.7V101.6H40L40.1 101.5L40.2 101.3L40.3 101.2H40.4V101.1L40.5 101L40.6 100.9V100.8H40.7V100.7H40.8V100.6V100.5V100.4V100.3V100.2V100.1V100V99.9H40.9V99.8V99.7H41V99.6V99.4H41.1V99.3V99.2H41.2V99.1V99H41.1V98.9V98.7L41.2 98.6L41.1 98.5V98.4H41V98.2L41.1 98.1V98V97.8L41 97.7V97.6V97.4L40.9 97.2V97.1V97V96.9V96.8L40.8 96.7H40.9V96.6V96.5V96.4V96.3V96.2L41.1 95.5L41.2 95.4H41.3V95.3L41.4 95.1V95H41.5V94.9V94.8L41.6 94.7V94.6V94.3V94V93.8V93.5V93.3V93.2V93.1V92.9V92.8H41.7L41.8 92.5V92.3V92.2V91.9V91.8V91.7L41.9 91.6V91.5L42.2 90.9L42.4 90.7L42.7 90.5V90.2L42.6 89.8V89.4V89.3H42.7V89.2H42.8H42.9V89.3V89.4H43H43.1M43.1 89.4V89.5M43.1 89.4H43.2H43.3V89.3H43.4V89.2H43.5V89.3H43.6H43.7V89.4H43.8H43.9V89.3H44V89.4H44.1H44.2H44.3H44.4L44.5 89.5H44.4V89.6H44.5H44.6L44.7 89.7V89.6H44.8V89.5H44.9V89.4H45L45.1 89.5V89.6V89.7V89.8H45.2V89.9H45.3V89.8H45.4V89.7H45.5H45.6H45.7H45.8H45.9V89.8H46V89.9V90H46.1V90.1H46.2H46.3V90H46.4H46.5V89.9H46.6M46.6 89.9V90M46.6 89.9H46.7H46.8H46.9L47 90H46.9L47 90.1L47.1 90.2H47.3L47.5 90.1H47.6V90H47.7V89.9H47.8L47.9 90V89.9H48L48.1 90H48.2H48.3L48.4 90.1L48.5 90L48.6 89.9V89.8V89.7V89.5V89.4V89.2L48.7 89.1V89L48.8 89.1V88.9H48.7V88.8L48.8 88.7V88.6V88.5L48.9 88.6V88.5H49.1H49.2H49.3V88.4H49.2V88.3V88.2V88.1V88V87.9V87.8V87.7L48.9 87.6L49 87.5L48.9 87.4H48.8L48.6 87.1L48.4 87L48.3 86.9L48.2 86.8L48.1 86.7V86.6L48 86.5H47.8H47.7L47.6 86.6V86.7L47.4 86.8H47.3L46.9 86.5V86.1L47 85.6V85L47.1 84.2L47.2 82.8L47.3 82.1L47.4 81L47.2 80.8L47.1 80.7L45.9 79.5L45.6 79.2H45.7L46.2 79H46.3L46.4 78.9H46.5H46.6H46.7H46.8H46.9L47 78.8V78.7H47.1H47.2L47.3 78.6H47.4H47.5L47.6 78.7H47.8H48H48.1H48.3H48.4V78.6H48.5L48.6 78.5H48.7H48.8V78.4H48.9H49V78.3H49.1H49.2V78.2H49.3H49.4L49.5 78.1H49.6H49.7V78H49.8H49.9H50V78.1H50.1H50.2H50.3L50.4 78.2H50.5L50.6 78.1H50.7L50.8 78H51L51.1 78.1H51.2H51.3H51.4L51.5 78V77.9V77.5L51.4 77.3V77.2L51.3 76.6V76.5L51.4 76.1L51.5 75.8H51.6V75.6L51.8 75.4H52.2H52.4H52.7V75.1L52.6 75V74.7L52.5 74.2L52.3 73.7L52.2 72.9L52.1 72.7V72.6V72.4L52 72.3V72.1L51.9 71.7L51.6 71.5L51 71.1L50.4 70.6L49.9 70.3L49.5 70L49 69.7L48.4 69.3L48.2 69.1L47.9 69.2L47.6 69.3L47.4 69.4L47.2 69.5H47.1H47H46.9H46.8H46.7H46.6H46.5L46.4 69.6H46.3L46.2 69.5H46.1H46L45.9 69.4H45.7H45.6L45.5 69.3H45.3L45 69.2L44.7 69.1H44.6H44.5L44.4 69V68.9L44.5 69L44.6 68.8V68.7V68.6V68.5V68.4H44.5V68.3V68.2H44.6H44.7V68.1L44.8 68V67.5V67.4L44.7 67.3L44.6 67.2L44.5 67.1L44.4 66.9L44.3 66.8H44.2V66.7V66.6L44.4 66.2H44.5L44.7 66.1V66L45.3 65.7H45.4H45.6H45.8H45.9L46.2 65.9H46.3H46.8H47V65.4V64.6H47.2H47.3L47.7 64.5L47.8 64.9V65V65.1L47.9 65.3L48.2 65.2L48.5 65.1L48.6 65H48.7L48.8 64.9L48.9 64.8H49H49.1L49.2 64.7H49.3L49.4 64.6H49.5L49.6 64.4H49.7H49.9L50.3 64.3L50.4 64.2L50.6 64L50.7 63.9V63.8L50.8 63.6V63.5V63.4L50.9 63.3V63.1L50.8 63L50.7 62.9H50.6V62.8V62.7L50.5 62.6L50.4 62.5V62.4V62.3H50.3V62.2V62.1V62H50.2V61.9H50.3H50.4V61.8V61.7H50.5H50.6L50.7 61.6V61.5L50.6 61.4L50.5 61.3V61.2H50.4L50.3 61.1V61V60.9H50.2L50 60.6L49.8 60.4L49.5 60.1L49.3 59.8L49.2 59.7L48.9 59.4L48.7 59.2L48.5 59L48.2 58.7L48 58.5L47.8 58.3L47.6 58L47.3 57.7L47.1 57.5H47L46.5 57.4L46 57.3H45.9L45.3 57.2H45H44.9L44.7 57.1H44.6V57V56.9V56.8H44.5V56.7V56.6H44.6V56.5V56.4H44.5L44.6 56.3L44.7 56.2H44.6V56.1M44.6 56.1H44.5M44.6 56.1V56V55.9H44.7V55.8V55.7V55.6H44.6H44.5H44.4V55.5L44.3 55.4V55.3L44.2 55.2V55.1V55L44.1 55.1V55.2H44V55.1V55H43.9V54.9V54.8V54.7M43.9 54.7L43.8 54.6H43.9V54.7ZM43.9 54.7H44H44.1V54.6H44.2V54.5H44.1H44V54.4H43.9V54.3H44H44.1V54.2V54.1H44V54H43.9V54.1H43.8V54L43.9 53.9H44L44.1 54V53.9M44.1 53.9H44.2M44.1 53.9V53.8H44L43.9 53.7H44V53.6M44 53.6H44.1L44.2 53.5V53.4H44.1V53.5H44V53.6ZM44 53.6H43.9V53.5H43.8V53.4H43.7M43.7 53.4V53.3M43.7 53.4H43.6V53.3H43.5H43.4V53.2V53.1H43.3V53H43.2V52.9V52.8M43.2 52.8H43.3M43.2 52.8V52.7H43.3V52.8M43.2 52.8H43.1V52.7V52.6H43H42.9H42.8H42.7M43.3 52.8V52.9M42.7 52.6V52.5M42.7 52.6H42.6V52.5L42.5 52.4L42.4 52.3V52.2H42.3L42.2 52.4L42.1 52.3H42L42.1 52.1V52L42.2 51.9V51.7V51.6H42.1H41.9L41.7 51.8H41.6V51.7L41.7 51.6H41.6H41.5V51.5H41.6H41.7V51.4H41.6V51.3H41.7V51.2H41.6L41.5 51.3H41.4H41V51.2L41.1 50.9L41.2 50.8V50.7V50.6H41.1V50.5H41V50.4L40.9 50.5V50.4H40.8H40.7V50.3V50.2H40.6V50.3V50.4H40.5H40.4V50.3H40.5V50.2H40.4H40.3V50.1H40.2M40.2 50.1V50.2H40.1V50.1H40.2ZM40.2 50.1V50H40.1H40V50.1L39.8 50.2L39.7 50.1L39.6 50L39.4 49.9V49.8V49.7L39.5 49.5V49.4V49.3V49.2H39.4V49.3H39.3L39.2 49.2V49.1H39.3V49H39.2V48.9H39.1V49H39V48.9H38.9H38.8L38.7 48.3L38.4 48.2V48.1H38.3V48V47.9H38.4V47.8V47.7V47.6H38.5V47.7H38.6V47.6L38.8 47.2L38.7 47.1L38.8 47L38.9 46.8V46.7H39V46.6V46.5H38.9H38.8H38.7V46.4H38.6V46.3H38.7V46.2V46.1V46V45.9H38.8L38.9 45.8L39 45.9V45.8H39.1V45.7M39.1 45.7H39M39.1 45.7V45.6M39.1 45.7H39.2V45.8H39.3V45.7V45.6H39.4V45.5L39.3 45.4L39.2 45.3L39.1 45.1L39 44.9L38.9 44.8V44.7L38.8 44.6L38.5 44.9L38 45.3L37.6 45.6L37.3 45.5H37.2L36.7 45.3L36.3 45.7L35.2 45.2L35 45.1V44.7V44.6L35.1 44.1L35.2 43.6H34.8H33.4L33.5 43.9L33.4 44.1L33.3 44.2L33.1 44.5L33.4 44.8V45.2H33.2H33.1V45.1H33H32.9H32.8V45L32.4 45.2V45.4L32.2 45.5L32 45L32.2 44.9H32.3H32.4L32.2 44.7H32.3L32.4 44.6V44.5V44.3L32.3 44.1L31.7 44.3V44.1L31.6 43.9V43.2L31.2 42.7L30.6 42.4L30.1 42.6L29.9 42.1L29.5 42.2L29.4 42.1L29.3 41.4L29.1 40.9L29 40.5L29.5 40L29.3 37.9L29.2 37.2V37.1H29.1L29 37.2H28.8L28.2 37.3H28L28.1 36.9L28.3 36H28.1H27.7H27.6H27.3L27.7 34.9L26.9 35.1L26.2 35.2L24.9 35.4L24.7 34.4L26.3 33.9L26.7 33.7H26.9V33.6L27 33.5V33.4V33.2L26.9 33.1H26.8L26.6 32.9L26.3 32.8L26.2 32.7L25.9 32.5L25.6 32.4L25.4 32.3L25.8 31.1L25.9 31L26.1 30.8L26.3 30.6H26.4V30.5H26.5H26.6H26.7H26.8L26.9 30.4L27 30.1L27.1 29.5L27.2 29L27.3 28.8H27.2L26.8 28.2L26.5 27.9H26.4L26.3 27.8V27.3L26.2 26.9L25.7 27L25.3 27.1L25.2 26.6L25 26L24.9 25.4L24.2 25.8L24.3 26L23.7 26.2L23.8 25.7V24.8L25.5 24.7V25.2L26 25.4L26.1 25L26.2 24.8L26.5 24L26.6 23.8L27 23.9L27.6 24L27.7 23.7V23.6L27.8 23.5L27.9 23.3V23.2H28V23.1L28.1 23V22.9V22.8V22.7V22.6H28.2V22.5H28.3V22.4L28.5 22.1V22V21.9V21.8V21.7H28.4V21.6V21.5H28.5H28.6V21.4H28.7H28.8H28.9V21.3V21.2H29V21.1V21L29.1 20.9V20.8H29.2V20.7H29.1V20.6V20.5V20.4H29V20.3V20.2V20.1H29.1H29.2V20H29.3H29.4V19.9H29.5V19.8H29.6V19.7V19.6V19.5H29.7V19.4V19.3V19.2M29.7 19.2H29.6M29.7 19.2V19.1V19V18.9V18.8V18.7L29.6 18.6L29.7 18.5V18.4L29.8 18.3L30.1 18L30.3 17.8L30.4 17.6H30.5V17.5V17.3L30.4 17.2V17L30.3 16.9V16.8M30.3 16.8H30.2M30.3 16.8V16.7H30.4V16.6L30.5 16.5L30.6 16.4V16.3V16.2H30.7V16.1L30.8 16H30.9V15.9V15.8V15.6L31 15.3L31.2 14.7H31.3L31.2 14.5L31.1 14.3L31 14.1L30.9 14L30.8 13.7L30.7 13.4H30.6V13.5L30.4 13.6L30.2 13.9V14H30.1H30H29.9V13.9H29.8V13.8H29.6H29.7V13.4L29.8 13.1L29.9 12.6L30.1 12.5V12.3L29.9 12H29.7H29.6L29.5 11.6V11.5L28.7 10.8V10.7H28.8V10.6H28.7V10.5H28.8H28.9M28.9 10.5V10.6M28.9 10.5H29V10.4V10.3H28.9V10.2V10.1V9.99998H29V9.89998H29.1H29.2H29.3V9.79998V9.69997H29.4H29.5V9.79998H29.6V9.69997V9.59998H29.7V9.49998H29.6M29.6 9.49998H29.5M29.6 9.49998V9.39998V9.29998L29.7 9.19997V9.09998H29.6V8.99998V8.89998V8.79998M29.6 8.79998V8.69997M29.6 8.79998H29.5H29.4V8.69997V8.59998H29.3V8.49998V8.39998H29.2V8.29998V8.19997V8.09998H29.1V7.99998L29.2 7.89998V7.69997V7.59998H29.1V7.49998L29.2 7.39998V7.19997V7.09998L29.3 6.89998L29.4 6.79998L29.5 6.69997L29.6 6.49998L29.7 6.19997L29.9 5.99998H30V5.89998H30.1V5.79998V5.69997V5.39998L30.5 5.19997L30.7 5.09998L30.8 4.99998L31 4.79998L31.1 4.69997H31.2H31.3H31.4H31.5V4.59998H31.6L32.5 3.29998L32.1 3.19997L31.6 2.99998H31.5L31.4 2.89998H31.2V2.79998H31.1H31V2.69997L30.5 2.79998H30.2H30.1H29.5H29.2H28.8H28.7H28.6H28.5V2.69997L28.4 2.59998L28.3 2.49998L28.2 2.39998H28.1L27.8 2.09998L27.5 1.89998L27.1 1.69997H27L26.9 1.59998L27 1.39998H26.9L31 1.49998H31.3L35.6 0.599976L36.1 0.699974L46.4 2.69997L49.9 2.49998L51.4 2.89998L54.6 5.79998L56.2 6.49998L67.3 6.89998V6.99998V7.39998V7.69997V7.79998V8.09998V8.39998V8.59998L67.5 8.49998H67.7H67.9H68.1H68.3H68.4L68.3 8.59998L68.5 9.39998L69.1 10.3L69.8 10.6L71 10.7V10.9V11.1H71.1H71.2L72.8 11.2L74.9 11.4L75.3 10.8L80.9 11L85.4 13L85.8 13.2H85.9L88.4 14.3L90.4 15.2L93.8 15.8L94 15.7L94.3 15.8L94.5 16L95 16.2L95.1 16.3H95.2V16.2L95.6 15.9L95.9 15.4L96.1 15.2L96.4 14.9V14.8L98.8 14L103.3 14.2L105.4 14.6L106.7 15.4L107 16.7L106.9 18.4V20.6L107.3 22.2L108 22.9L109 23L110.3 22.9L111.5 23.2V23.5V23.6L111.4 23.7L111.3 23.9L110.7 24.7L110.3 25.3L110.1 25.7L110.2 26L110.3 26.4V26.5V26.6L110.1 26.8L110 27.1L109.9 27.2H110.3H110.7L110.6 27.8L111.2 28.4L112.3 28.3L114.4 27.6L117.3 28.1H118.4L119.5 27.5L120.7 26.2V26.5L121.1 26.7L121.4 26.9L121.5 26.8L121.7 26.6L121.8 26.5L122.1 26.2L122.3 26.4L122.4 26.5V26.6H122.3V26.7H122.2V26.8V26.9V27H122.1M122.1 27H122" stroke="white" stroke-width="0.5" stroke-linecap="round" stroke-linejoin="round"/>
</g>
</svg>
