<svg width="140" height="183" viewBox="0 0 140 183" fill="none" xmlns="http://www.w3.org/2000/svg">
<g id="UA59">
<path d="M139.2 164V164.1L139 164.7H138.7V164.8V165H138.5V165.1L138.3 165.3V165.4H137.8H137.6V165.6L137.5 166L137.4 166.5H137.3H137.1V166.7L136.4 166.4V166.3L136.1 166.1H136L135.9 166L135.8 165.9L135.9 165.7L136 165.6L136.1 165.5H136L135.6 165.4H135.4H135.2H135.1L135 165.3H134.9L134.6 165.2H134.5L134.4 165.1L134.2 165L134.1 165.2L133.9 165.4L133.6 165.6L133.2 165.9H132.9L132.7 165.8H132.6H132.5H132.4L131.7 165.9L131 166L130.6 166.1H130.5H130.3L130.7 166.6L131.2 167.2L131.3 167.3V167.4L131.2 167.6H131.1L131 167.8V167.9L131.1 168L131 168.1L130.9 167.9L130.8 168.1L130.7 168.3L130.4 168L129.7 167.5V167.6H129.6L129.5 167.8L129.4 167.9L129.3 168.1L128.9 167.8L128.5 167.5L128 167.1L127.5 166.8L127.4 166.7L127.5 166.3L126.5 166.2L126.4 166.1L126.3 165.8V165.7L125.7 164.8L125.6 164.7V164.8H125.5V164.9V165L125.4 165.1H125.3V165.2H125.2V165.3V165.4L125.1 165.5V165.6H125V165.7V165.8H124.8V165.9L124.3 166L123.4 165.9L123.5 166.6L123.6 166.9L123.7 167V167.3L123.6 167.9L122.9 167.4L122.7 167.3L122.1 166.9L122 166.8L121.9 166.7L121.8 166.6H121.7V166.5H121.6L121.5 166.4L120.9 166L120.4 166.4L120.5 166.6L120.4 166.7L120.3 166.8L119.9 167.4L119.2 168.3L119.5 168.5L120.7 169.2L121 169.3L120.9 169.5V169.6L120.4 169.7L120.2 169.8L119.7 170.2L119.4 170.4L118.4 170.3H118.3L117.7 170.2V170.3V170.4L117.6 170.5H117.5V170.6L117.4 170.7V170.9L117.5 171V171.1V171.2V171.3V171.4V171.5V171.6V171.7H117.4V171.8V171.9V172V172.2V172.3V172.4H117.5V172.5H117.4V172.6H116.7L116.3 172.5L116.1 173.1H116L115.6 173L114.9 172.7L114.3 172.6L114.4 172.5V172.4L114.3 172.3L114.2 172.5L114.1 172.8V172.9V173L114 173.1L113.5 172.9L112.3 172.3L111.8 172L111.4 172.5L111.1 172.9L110.8 173.2L110.7 173.3L110.5 173.5L110 173.9L109.7 174.1L109.6 174.2L109.5 174.3H109.1H109V174.4H108.9H108.8H108.7L108.1 174.7L108 174.8L107.8 174.9L107.9 175L108.2 175.3L107.8 175.6L107.9 175.7V175.8L107.8 175.9V176V176.1L107.6 176.3H107.5L107.4 176.5L107.5 176.6L107.4 176.7L107.2 176.5L107.1 176.8L106.6 177.6L106.4 178L106.3 178.1L105.8 178L105.9 177.5V177.1V177V176.9H105.8L105.4 176.8L104.7 176.6L104.6 177.1H104.4L104.5 177V176.9H104.4V176.8V176.7H104H103.8H103.5L103.1 176.8L102.5 176.6H102.4L102.5 176.9L102.8 177.8L102.9 178.3L103 178.6L102.7 178.7L102.5 178.9L101.3 179.1L100.8 179L100.4 178.9L99.3 178.6L97.4 178.4L96.9 178.3L96.6 178.1L96.3 178.6L95.8 178.8L95.6 178.6H95.5L95.4 178.5H95.3H94.5H94.1L94.2 178.9L93.3 179L92.8 179.3L92.5 179.5L92.4 179.6H92.3L91.8 179.7H91.7H91.6H91.5H91.2L91.4 179.4L91.5 179.2L91.6 179.1L91.7 179V178.9H91.6L91.7 178.7L91.5 178.6H91.4L90.9 178.5L90.5 178.7H90.4L90.3 178.8V178.9L90.2 179V179.1V179.2H90H89.8L89.5 179.1L89.4 179.2L89.3 179.3H89.2L89.1 179.4V179.5V179.6L89.2 180.3H89.3V180.4V180.5V180.7H89V181.3L89.1 181.4V181.5L89.2 181.6H89.1V181.7H89L89.1 181.8V181.9H89V182V182.1H89.1V182.2V182.3V182.4H89V182.3L88.9 182.4H88.8L88.7 182.5H88.6L88.5 182.4H88.4H88.3H88V182.2L88.1 182.1V182L88 181.9V181.8H87.9V181.6V181.5V181.4V181.2V181.1H88V181H88.1V180.9L88.2 180.8L88 180.6L87.8 180.7H87.9V180.8V180.9L87.8 181H87.7V181.1L87.6 181.2V181.3V181.4V181.5L87.5 181.6L87.6 181.7L87.5 181.8V181.9L87.3 182V182.1L87.2 182.2L87.3 182.3H87.5L87.4 182.4H87.2H87.1H87L86.9 182.3L87 182.1H86.9L86.8 182L86.7 182.2L86.6 182.3L86.4 182.2L86.3 182.1H86.2H86.1L86 182.2L85.9 182.3H85.8H85.7L85.6 182.2L85.5 182.1L85.4 182L85.3 181.9V181.8H85.2H85.1H85H84.9H84.8V181.7H84.7H84.6V181.6L84.5 181.5L84.4 181.6L84.2 181.5H84.1H84V181.4H83.9V181.3H84L83.8 181.2V181.1L83.6 181H83.5L83.4 181.1L83.3 181H83.2H83.1V181.2V181.3H83V181.4H82.9V181.5V181.6H82.8H82.7V181.5L82.6 181.4V181.3L82.3 181.2L81.6 180.7H81.4V180.5V180H81V178.9L80.4 179L80.5 178.6L80.8 177.6H80.4L80.2 177.2L80.3 177.1L80.4 176.9L80.8 176.3L81.2 175.7L81.8 174.9H82.1L82.2 174.6L82.6 173.4L82.7 173.3L82.6 173.2L82.2 172.5L82.1 172.6L82 172.7H82.1L82.2 172.8V173L82.1 173.1L81.9 172.7L81.8 172.3V172.1L81.7 172V171.9L81.8 171.8L81.7 171.7H81.6L81.5 171.8H81.4H81.3V171.7V171.6H81.1H81H80.8L80.7 171.5V171.4L80.6 171.5H80.5V171.6V171.7H80.6H80.7L80.8 171.9V172L80.6 172.1V172.2H80.5H80.4V172L80.2 171.9H80.1L80 171.8L79.8 171.6L79.7 171.4V171.2V171H79.9L80 171.2V171H80.1H80.2V170.9H80.1L80 170.8V170.7L80.2 170.5L80.1 170.4V170.3L80 170.1L79.8 169.9V169.8V169.7V169.6L79.7 169.5V169.4L79.9 169.2L80.1 169H80L79.5 168.7H79.4L77.6 168.4H77.3L77 168.6L76.7 168.4V168.3L76.1 167.9L74.7 166.6L74 166L74.2 165.5L74.5 165L74.6 164.7L74.5 164.5L73.6 163.9L73.2 163.5V163L72.9 162.8L73.6 162.2H73.5L73.3 162.1L72.7 161.8V161.7V161.6L72.6 161.5L72.5 161.4V161.3L72.4 161.4H72.3L72 161.2L71.7 160.9L71.2 160.4L71.1 160.3H71H70.9L70.8 160.2L70.3 159.9L69.6 159.4L68.6 158.7L68.3 158.5L68.1 158.1L68 158L67.8 157.4L67.6 157.2V157H67.5H67.4H67.3H67.2L67 156.9L66.9 156.8V156.7L66.8 156.6L66.7 156.4L66.6 156.2L66.5 156V155.6V155.3L66.4 155.1V154.9V154.8L66.5 154.1L66.6 153L66.7 152.4L66.6 151.8L66.5 150.9L66.4 150.3V150.2V150.1H66.3V149.9L66.2 149.8H66L65.5 149.5L65.4 149.6L64.9 149L64.4 149.6L64.2 149.7H64.1L63.7 149.8H63.6L63.4 149.7H63.3L62.7 149.6L61.9 149.9L61.7 150.1L61.6 150L61.5 150.2H61.4L61 150.6L59.9 150.8V151V151.2L59.8 151.7V151.8V151.9V152.1V152.2L59.6 152.4L59.5 152.7V152.8L59.4 153V153.1H59.3V153.2H59.2L59.1 153.1L58.8 153.2L58.3 152.7L58.2 152.6H58.1H58L58.1 152.4H58.3V152.3L58.5 152.4L58.7 152L59.2 151.4L59 151.3L58.7 151.1H58.6V151H58.5V150.9H58.4H58.3L58.2 150.7L57.7 150.6L57.6 150.5H57.4V150.4H57.3H57.2H57.1L57 150.3V150.4H56.9H56.8V150.5H56.7V150.6L56.6 150.7V150.8H56.7L56.6 150.9L56.8 151L56.7 151.2L56.4 150.9L55.9 151.3H55.8H55.7H55.6H55.5L55.3 151.7H55.2L55.4 151.2V151.1L55.5 150.9H55.4V150.8L55.3 150.7H55.1L54.9 150.8L54.7 150.6V150.5L54.2 150.1L54.3 150L53.5 149.4L53.2 149.2L52.4 148.5L51.6 147.9L50.8 148.9L50.2 149.7L50 149.9L49.9 150.1L49.8 150.2L49.7 150.4L49.5 150.5L49.4 150.4L49.2 150.3L49.1 150.2V150.1H49V150V149.9L48.8 149.8H48.7V149.7H48.6V149.6V149.5L48.4 149L48 149.1L47.7 149.2V149L47.5 149.1L47.1 149.2L46.7 149.4L46 149.7L45.7 149.8V149.9L45.9 150.1H45.7L45.6 150.2L45.1 150.3L44.8 150.4L44.7 150.3V150.2L44.3 150.4L44.4 150.5V150.7L44.5 151H44.8H45L45.3 151.1L45.8 151.2L46.1 151.3V151.4L46.2 151.5H46.3V151.7V151.8L46 152.4L45.8 152.3L45.7 152.2L45.3 152.4L45 152.6H45.1L45.2 152.8L45.3 153.1H45.2L44.8 153.2L44.3 153.3L44.1 153.4H44H43.5H43.1V153.8V154L43.2 154.1V154.2V154.3V154.4H43.1V154.5H43V154.6V154.7H43.1L41.9 154.8L40.7 154.9H40.5L39.7 154.3H39.6V154.2H39.4L38.7 154L38.2 153.9L37.8 153.8L37.3 153.7L36.4 153.5L35.9 153.4L35 153.2L34.7 153.1L34.5 153H34.4V152.9L34.3 152.7L34.1 152.6L33.5 152.4H33.3L33.2 152.3H33.1H33H32.9L32.7 152.4L32.3 152.1H32.2L32 152.2L31.8 152.3V152.4L31.2 152.5H30.6V152.8L30.5 152.9H30.4V153L30.3 153.1H30.2L30.3 153.2H30.2H30.1V153.1L29.9 153.2H29.8H29.7L29.6 153.1L29.5 153H29.4L29.3 152.9V152.8V152.7H29.2V152.6H29.1V152.5H29V152.4V152.3L28.8 152.1V151.9H28.7L28.6 152L28.5 152.1V152.2H28.4V152.3H28.3V152.4V152.5V152.6V152.7L28.2 152.8H28.1V152.9V153H28L27.9 153.1L27.5 153L27.6 152.6L27.5 152.5V152.4H27.4L27.1 152.3L26.8 152.2L26.5 152.4L26 152.6L25.3 152.8L25.2 152.9L25.3 153V153.1H25.4V153.2V153.3L25.5 153.4V153.5L25.3 153.6L25 153.3H24.9L24.5 153L24.6 152.9V152.3H24.3V152.2L24.2 152V151.7H24.1H23.9L23.3 151.8H23.1H22.8H22.3V150.9V150H21.2H20.4H19.8H19.5V149.6L19.4 149H19.2L18.6 148.9L18.4 148.6L18.2 148.3L18.1 148.1L17.8 148H17.7L17.8 147.7L17.4 147.4H17.3H17H16.9L16.8 147.7V147.8H16.7V147.9H16.8V148H16.7V147.9H16.6H16.5V148L16.4 148.1L16.3 148.2L16.1 148.3H16V148.4H15.9H15.8V148.5H15.7V148.6V148.7V148.8V148.9V149V149.1V149.4L15.6 149.5V149.6V149.7L15.5 150.2L15.4 150.3L15.2 150.4V150.5V150.6L15.4 150.9H15.3H15.1H14.9L14.8 151L14.5 151.3L14.4 151.2L14.2 151.1H14.1L14 151V151.1L13.8 151H13.7H13.2L12.9 150.8V150.7L12.8 150.6H12.7V150.5V150.4H12.6V150.3H12.5V150.2V150.1L12.4 150V149.9H12.3H12.2H12.1V149.8H12V149.9H11.9L11.8 150H11.7H11.6H11.5V149.9L11.4 150L11.3 149.9V150L11.2 149.9H11.1L10.8 150.7L10.2 150.9V150.8H10.1V150.7H10H9.90002L9.79999 150.8V150.9L9.70001 151H9.59998L9.5 151.1L9.40002 151.2H9.29999L9.20001 151.1L8.79999 150.6L8.5 150.3L7.79999 150.2H7.5H7.29999H7.20001H7.09998H7L6.90002 150.3L6.70001 150.1L6.5 149.9V149.6V149.5L6.09998 148.7L6 148.5L5.90002 148.4V148.3H6L6.20001 148.1V148H6.29999V147.9H6.40002V147.8L6.5 147.7L6.79999 147.5L7 147.3L7.09998 147.2V147.1H7.20001V146.9L7.29999 146.6V146.5L7.40002 146.4L7.5 146.2L7.70001 145.9L7.90002 145.7L8.09998 145.5L8.20001 145.4L8.29999 145.3L8.20001 145.1L8.09998 145V144.9L8.20001 144.7L8.40002 144.5L8.5 144.4L8.70001 144.2L9.29999 144.3L9.40002 144.4V144.3H9.5V144.2L9.59998 144.1V144V143.9V143.8L9.5 143.7H9.40002H9.29999L8.90002 143.6L8.59998 143.5L8.70001 143.3L8.79999 143.2V143.1L8.90002 142.9H9V142.8V142.6L9.09998 142.5L9.20001 141.8L9.29999 141.4L9.5 140.7V140.6V140.5H9.40002V140.4V140.3L9.29999 140.2V140.1V140V139.9H9.40002H9.5V139.8H9.59998L9.70001 139.7H9.79999H9.90002L10 139.8H10.1H10.2H10.3H10.4V139.7L10.7 139.5L10.8 139.4V139.3V138.9V138.6V138.3V138.2L10.9 137.6L11 137.2V136.9V136.7V136.3V136.2V136.1L10.9 136L10.8 135.9V135.8L10.7 135.7V135.6L10.5 135.3L10.4 135.1L10.3 134.9L10.4 134.8L10.5 134.9H10.6H10.7L10.8 135H10.9H11H11.1H11.2L11.3 134.9V134.8V134.7V134.6H11.4V134.5L11.5 134.6H11.6L11.7 134.5H11.8H11.9H12.1V134.4H12.2H12.3H12.4V134.3H12.5H12.6V134.2H12.7H12.8H12.9H13L13.1 134.1V134H13.2H13.3H13.4H13.5H13.6H13.7H13.8H13.9V134.1H14L14.2 134V133.6L14.5 133.5H14.6L14.8 133.4H14.9L15.2 133.3H15.3L15.5 133.2L15.3 132.9L15.1 133V132.9V132.8L15 132.7L14.3 132.9H14.1V132.7L14 132.3L13.9 132.1V132H13.8H13.3H13V131.9L12.9 131.7H12.8L12.6 131.3L12.4 130.8L12 130.1L11.7 129.7L11.4 128.9L11.1 128.3H11.2H11.3H11.4L11.7 128.4L11.9 127.8L11.8 127.7H11.7V127.6V127.5V127.4L11.8 127.2V126.9V126.6H11.7H11.6V126.5V126.4H11.5V126.3V126.2V126.1H11.4H11.3V126H11.2V125.9V125.8V125.7V125.6V125.5H11.3H11.4H11.5L11.6 125.4L11.8 125.3V125.2V125.1L11.9 124.9L12 124.7V124.6V124.5H12.1V124.4H12.2V124.3H12.3V124.2H12.4V124.3H12.5V124.2H12.6V124.1H12.7V124L12.8 123.9L12.7 123.8H12.2L11.9 123.7H12V123.5L12.1 123.4V123.3V123.2L12.2 122.5L12.4 122.4H12.3V122.3V122.2V122.1H12.2V122H12.3L12.2 121.9H12.1L12.2 121.8H12.1H12V121.7V121.6V121.5V121.4H11.9V121.3V121.2V121.1V121L12 120.9V120.8V120.7H12.1V120.6L12.2 120.5L12.3 120.4L12.4 120.3L12.5 120.2L12.7 120.4V120.3L12.8 120.2H12.9V120.3V120.4V120.5H13H13.1V120.4H13.2H13.3V120.5H13.4H13.5V120.4L13.4 120.3V120.2V120.1H13.5V120.2V120.3H13.6H13.7V120.4H13.8V120.3H13.9L13.6 119.9L13.8 119.8V119.7H13.9H14V119.6L13.9 119.4L13.8 119.2L13.6 118.7L13.3 118.2V117.9V117.3L13.5 117V116.5V115.9V115V114.9L13.4 114.8H13.3H13.2H13.1H13H12.9V114.9V115L12.8 115.1H12.7H12.6L12.1 115H11.9L11.5 114.9L10.9 114.8H10.7H10.5H10.4L10.3 114.9L10.4 114.5V114.4L10.3 114.1V113.9L10 113.2L9.79999 112.8L9.59998 112.3V112.2V112.1L9.5 112L9.59998 111.9H9.70001V111.8L9.79999 111.7L9.70001 111.6L9.59998 111.5L9.5 111.4L9.40002 111.3V111.2L9.09998 111.4H9L8.90002 111.5L8.5 111.7L8.29999 111.8L7.59998 112.3L7.29999 112.4L7.40002 112.7V112.8V113V113.2V113.3H7.29999V113.2H7.20001H7.09998H7V113.1H6.90002H6.79999L6.70001 113H6.59998H6.5V112.9H6.40002V112.8H6.29999H6.20001H6.09998H6V112.7H5.90002L5.79999 112.6V112.5H5.70001L5.5 112.4L5.29999 112.3L5.40002 112.2V112.1H5.5V112V111.9H5.59998V111.8V111.7V111.6H5.70001V111.5L5.79999 111.4L5.90002 111.2L6 110.9V110.8L6.20001 110.7L6.29999 110.6V110.5L6.40002 110.4H6.29999V110.3L6.40002 110.2V110.1V110L6.5 109.9L6.59998 110L6.90002 109.6L7.09998 109.2L7.29999 109.4V109.3L7.70001 108.7L7.59998 108.6L7 108.3L6.40002 107.8L6.79999 107.2L7 106.7L6.90002 106.3V106.2H6.5L6.09998 106.1H5.5L5.29999 106L5.5 105.2H5.09998L3.90002 105L3.20001 104.9L2.59998 104.8L1.79999 104.7H1.5L1.09998 105L0.799988 104.8V104.7L0.5 104.6L0.799988 104L0.900024 103.8L1.5 102.9L1.59998 102.8L1.79999 102.5L1.90002 102.2L2.20001 101.7L2.79999 100.7L3 100.3V100.2H2.90002L2.59998 99.9L2.5 99.8L2.09998 99.5L2 99.3L1.40002 98.7L1.59998 98.4H1.70001L2.20001 97.7L2.59998 97.2L2.70001 97L2.59998 96.9L2.29999 96.7L2.79999 96L2.90002 95.9H3.09998H3.29999H3.5L3.70001 95.8H4L4.59998 95.7H4.90002V95.3H5.5V95V94.8H5.40002V94.1L5.09998 93.9L4.90002 93.5L5.09998 93.2L5.5 92.8L5.79999 92.4L6.70001 91.5L6.90002 91.3L6.70001 91.2H6.59998L6.5 91.1L6.40002 90.9L6.29999 90.4L6.79999 90.2L6.70001 90V89.9V89.7H7.09998V89.6V89H7H6.90002L6.79999 89.1L6.70001 89H6.79999H6.90002V88.9H7.09998H7.20001L7.09998 88.8V88.7H7L7.29999 88.6V88.5H7.20001L7.09998 88.6H7V88.5V88.4H6.90002V88.5H6.79999V88.6V88.7H6.70001L6.59998 88.8L6.5 88.7H6.40002V88.6L6.5 88.7V88.6H6.59998V88.5V88.4L6.70001 88.3L6.5 88.4L6.20001 88.5H6.09998L6 88.6H5.90002H5.79999H5.70001H5.59998L5.5 88.5V88.4L5.59998 88L5.70001 88.1H5.79999L5.90002 88H6L6.09998 88.1V88H6.20001H6.29999H6.40002V87.9H6.5V87.8H6.40002L6.5 87.7H6.40002H6.29999H6.20001V87.8H6.09998V87.9H6V87.8V87.7L5.70001 87.5V87.4L5.79999 87.3H5.90002V87.4H6.20001L6.40002 87.2L6.59998 87V87.1V87.2H6.70001H6.79999L6.90002 87.1L7 87V86.9L6.90002 86.8V86.7L7.29999 86.6H7.20001L7.09998 86.5V86.2L7.40002 85.9V85.8H7.29999V85.7H7.20001V85.6V85.5H7.09998V85.4H7V85.3L6.90002 85.2V85.1V85V84.9L7.20001 84.4L6.59998 83.9L6.70001 83.8H6.40002V83.9H6.29999L6.20001 84H6.09998H6V84.1H5.90002L5.79999 83.9L5.59998 84.1L5.79999 84.2H5.70001V84.3H5.59998V84.2H5.5V84.1H5.40002L5.29999 84L5.20001 83.6V83.4V82.8L5.40002 82.4V82.3L5.5 82.2L5.40002 82.1L5.09998 82V81.8H5V81.7L4.70001 81.1L4.59998 80.9V80.8L4.40002 80.4L4.20001 79.9L4.59998 79.8L5.40002 79.5V79.3L5.59998 79.2V79.1V79V78.9V78.8L5.70001 78.7L5.79999 78.8L6.29999 79.3L6.20001 79.6L6 79.8L6.09998 79.9H6L5.70001 80L5.59998 79.9L5.40002 80V80.1H5.5V80.2L5.40002 80.3L5.59998 80.5L5.70001 80.7H5.90002L6 80.8L6.09998 80.9H6.20001H6.29999L6.40002 81L6.5 81.1L6.59998 81.2L6.5 81.5H6.40002V81.6V81.8V81.9V82H6.5H6.59998H6.70001H6.79999H7L7.09998 82.1H7.20001H7.5H7.59998V81.9V81.8H7.70001V81.9V82V82.1H7.79999V82.2H7.90002L8.09998 82L8.20001 82.2H8.40002L8.5 82.3H8.59998L8.79999 82.4L9 82L8.79999 81.8V81.7L8.90002 81.6L8.70001 81.4L8.79999 81.2L8.90002 81.3L9 81.2L8.90002 81.1V81H8.79999L8.70001 80.9H8.5V80.8H8.40002H8.29999H8.20001L8.09998 80.7L7.90002 80.6L8 80.4H8.09998H8.20001L8.29999 80.5V80.4H8.40002H8.5H8.59998H8.70001H8.79999H8.90002L9 80.5H9.09998L9.20001 80.7H9.29999V80.9L9.40002 81L9.5 81.1H9.59998H9.70001H9.79999H9.90002H10V81H10.1V80.9V80.6V80.1L10.3 80L10.2 79.6H10L9.70001 79.5H9.40002V79.3H9.59998L9.79999 79.1L10.1 78.4L10.2 78.3V78.2L10 78.1L9.09998 77.3V77.2L9.40002 76V75.8L9.59998 75.2L9.70001 74.7L10.2 74.2V74.1L10 73.4V73.3V73.2V73V72.9V72.6L10.1 72.4L10.2 72.1L10.3 71.9V71.8H10.4H10.5H10.6V71.7H10.7H10.9L11 71.8L10.9 71.9L10.8 72H10.9V72.1H11H11.1L11.2 72H11.3L11.5 71.9L11.8 71.7V71.6L12.2 71.5V71.4L12.4 70.9H12.5L13.1 71V70.8V70.5L13.2 70.2V69.8V69.7L13.1 69.6V69.5L13 69.4L12.9 69.3V69.2L12.8 69.1V68.9V68.5L12.7 68.4L12.6 68.3L12.2 68.1L11.8 67.9V67.5L11.7 67.4V67.3V67.2V67.1L11.3 67V66.7V66.3V66.2H11.4L11.5 66.1V66L11.4 65.7L11.8 65.8H11.9H12.1L12.8 65.6H12.9H13H13.2L13.9 65.8V65.7L14 65.6L14.2 65.2V65.1H14.3L14.6 65L14.3 64.9L13.8 64.8L13.1 64.7L12.9 64.4L12.7 64.2L12.5 63.9L12.4 63.7L12.3 63.6L11.6 63L11.3 62.8H11.2V61.7V61.1V60.9V60.3V60H11.1L10.5 60.1L10.1 59.8L9.90002 59.9H9.79999V59.8V59.7L9.70001 59.6V59.5V59.4V59.3L9.79999 59.2V59.1V58.9H9.90002V58.8L10 58.7L10.1 58.6V58.5L10.2 58.4H10.3H10.4L10.5 58.2L10.6 58.1L10.7 57.9L10.8 57.7V57.6H10.7V57.5H10.6V57.4H10.5H10.4L10.5 57.3V57.2H10.4V57.1L10.5 57V56.9H10.6H10.7L10.8 57H10.9H11.1H11.2H11.4H11.5H11.6L11.7 56.9V56.8V56.7H11.6H11.4H11.3L11.2 56.8L11.1 56.7H11H10.9L10.8 56.6V56.5L10.7 56.2V56.1V56V55.9H10.8V56H10.9V56.1H11H11.1L11.2 56.2L11.3 56.1H11.4L11.6 56L11.8 55.9L11.9 55.8V55.7L12 55.6V55.5L12.1 55.4V55.3L12 55.2L11.9 55.1H11.8L11.7 55.2H11.6H11.5H11.4L11.3 55.1L11.2 55V54.9L11.1 54.8V54.7V54.6L11 54.5L10.9 54.3V54.2L10.8 54.1L10.7 54L10.6 53.9H10.5L10.4 53.8L10.3 53.7L10.1 53.5L10.3 53.2L10.4 53.1H10.3L10.2 52.9H10.1V52.8H10L9.90002 52.7L9.79999 52.6H9.70001V52.5V52.4H9.59998L9.5 52.3L9.40002 52.2H9.29999V52.1H9.20001L9.09998 52L9 51.9H8.90002V51.8H8.79999V51.7L8.70001 51.6V51.5H8.59998V51.4L8.5 51.3V51.2H8.40002V51.1V51V50.9V50.8H8.29999V50.7L8.20001 50.6V50.5V50.4V50.3H8.29999V50.2V50.1H8.20001V50H8.09998V49.9V49.8V49.7V49.6V49.4L8 49.2H7.90002V49.3H7.79999V49.4V49.5L7.70001 49.6H7.59998V49.5V49.4L7.5 49.3V49.2H7.40002V49.1L7.29999 49H7.40002H7.5V48.9H7.59998L7.70001 48.7V48.6H7.79999H7.90002H8H8.09998V48.5H8V48.4H8.09998L8.20001 48.5H8.29999L8.40002 48.6H8.5H8.59998V48.5L8.5 48.4V48.3V48.2V48V47.9H8.59998V47.8L8.70001 47.7L8.79999 47.6V47.5H8.90002L9 47.4L9.09998 47.3V47.2L9.20001 47.1L9.29999 47L9.40002 46.8L9.5 46.6V46.5V46.4V46.3L9.59998 46.2H9.70001V46.1H9.79999L10 45.9L10.1 45.8H10.2H10.3L10.4 45.9V46H10.5H10.6L10.7 45.9H10.8V45.8V45.7V45.6V45.5V45.4V45.3L10.7 45.2L10.6 45L10.5 44.8V44.7L10.4 44.5H10.3V44.4H10.2L10 44.3H9.90002L9.79999 44.2L9.90002 43.7L9.79999 43.6H9.90002H10V43.5L9.90002 43.4V43.3H9.79999V43.4L9.70001 43.5H9.59998V43.4V43.3V43.2L9.70001 43V42.9V42.8V42.7V42.6H9.79999H9.90002H10H10.1V42.5L10 42.4L9.90002 42.3L9.70001 42.2L9.59998 42.1V42V41.9L9.70001 41.8H9.79999H9.90002V41.9H10V42V42.1H10.1H10.2V42V41.9V41.8V41.7V41.5V41.4V41.3L10.1 41.2H10.2L10.3 41.1L10.4 41.2H10.5L10.6 41.3V41.2H10.7L10.8 41.1V41H10.7V40.9V40.8L10.9 40.7H11H11.1L11.2 40.6H11.3L11.4 40.5H11.5H11.7H11.8H11.9H12L12.1 40.4L12.2 40.3H12.3L12.4 40.2L12.5 40.1V40V39.9V39.8V39.7V39.6V39.5V39.4L12.4 39.3V39.2V39.1H12.3V39H12.2H12.1H12V38.9V38.8H12.1V38.7H12.2V38.6V38.5H12.3H12.4H12.5V38.6L12.6 38.7H12.7V38.6V38.5H12.8V38.4V38.3V38.1V38V37.9H12.9H13L13.1 38H13.2V38.1H13.3L13.4 38.2H13.5V38.1H13.6H13.7L13.8 38H13.9V37.9H14H14.1H14.2H14.3V38V38.1V38.2V38.3V38.4V38.5H14.4H14.5H14.6H14.7V38.4V38.3H14.6V38.2H14.5V38.1V38V37.9V37.8H14.6V37.9H14.7L14.8 38V38.1L14.9 38.2H15H15.1H15.2L15.3 38.1H15.4V38V37.9V37.8V37.7H15.5H15.6V37.6H15.7H15.8H15.9L16 37.5H15.9V37.4H15.8V37.3V37.2H15.9H16H16.1V37.1H16.2V37V36.9H16.1V36.8H16.2L16.4 36.9V37L16.5 37.1L16.6 37.3H16.7V37.4L16.8 37.3L16.9 37.2V37.1H17L17.1 37H17.2H17.3L17.6 37.1H17.7H17.8H17.9H18V37H18.1V36.9H18.2V36.8V36.7V36.6L18.3 36.5V36.4L18.4 36.2V36.1L18.6 36.2H18.7L19 36.1H19.1L19.4 35.9V36V36.1V36.2H19.5H20V36.3L20.1 36.5H20.7H21H21.1H21.3V36.4H21.4V36.3V36.2L21.5 36.1V35.9L21.4 35.7L21.6 35.6V35.5V35.3V35.2V35.1H21.7L21.8 35.2H21.9H22H22.1V35.1V35L22 34.9V34.8V34.7H22.1V34.6L22.2 34.5H22.3L22.4 34.4H22.5V34.5H22.6H22.7V34.6H22.8H22.9H23H23.1H23.2V34.5H23.3L23.4 34.4V34.3V34.2V34.1V33.9V33.8H23.3V33.7V33.6L23.2 33.5L23.1 33.4L23 33.3V33.2H22.9V33.1L22.8 33H22.7H22.6H22.5L22.4 33.1H22.3H22.2V33V32.9V32.8L22.3 32.7V32.6L22.2 32.5L22.1 32.4L21.9 32.3V32.5H21.8L21.7 32.4H21.6V32.3H21.5H21.4V32.2H21.3H21.2H21.1V32.1V32H21V31.9V31.8V31.7V31.6H21.1L21 31.5V31.4V31.3H20.9V31.2H21V31.1V31V30.9L20.9 30.8H20.8L20.7 30.7V30.6L20.6 30.5L20.4 30.2H20.3H20.2H20V30.1H19.9H19.8L19.7 30H19.5V29.9H19.4L19.3 29.8L19.2 29.7H19.1H19H18.9H18.8V29.6H18.7V29.5H18.8V29.4V29.3H18.9V29.4V29.5H19H19.1H19.2H19.3L19.4 29.4V29.3V29.2V29.1L19.3 29V28.9L19.2 28.8V28.7V28.6V28.5V28.4V28.3L19.3 28.2L19.4 28.1L19.7 28.2H19.8H20.1H20.2H20.3V28.3H20.4H20.5H20.6H20.7H20.8H20.9L21 28.2H21.1H21.2H21.3H21.4V28.1L21.5 28V27.9L21.6 27.8V27.7H21.7V27.6L21.8 27.5L21.9 27.4L22.1 27.3L22.3 27.2L22.4 27.1L23.1 26.7H23.2L23.4 26.6H23.5H23.7L23.9 27.3L24.1 27.8L24.2 28L24.9 28.5L25.1 28.6H25.2L25.3 28.5V28.4V28.3H25.4L25.5 28.2V28.1H25.6L25.7 28H25.8H26L26.2 27.9L26.3 27.8H26.4H26.5V27.7H26.6H26.7V27.6H26.8H26.9H27H27.1H27.2H27.6H28.6H28.7V25.9L28.6 25.1V24V23.5V23.4H28.5V23.5L28.4 23.6H28.2V23.9L28.1 24L27.2 23.7L26.6 23.6V23.4H26.5H26.4H26.3H26.2H26.1H26H25.9H25.8L25.7 23.5H25.6L25.5 23.6V23.5V23.4L25.6 23.3L25.7 23.2V23.1H25.8V23V22.9L25.9 22.7H25.8L25.7 22.6V22.5L25.5 22.1L25.3 21.8L24.5 21.5L24.1 21.3L24.5 20.7L23.9 20.4L23.8 20.3L23.2 20L22.7 19.8L22.4 19.6L22.1 19.4L21.7 19.3L21 18.9L20.9 18.8H20.8H20.7H20.6L20.5 18.9L20.3 19L20 19.1V19.2V19.3H20.1V19.4H20.2H20.3H20.4H20.5H20.6H20.7V19.5V19.6H19.7V19.5V19.4V19.3V19.2V19L19.8 18.7V18.6V18.4L19.9 18H20.4V17.9V17.8V17.5V17.4H20.2L20.1 17.3V17.2L20.2 17.1L20 16.8H19.9H19.8V16.9H19.7L19.6 16.6H19.5V16.5V16.4H19.4V16.3H19.3L19.4 16.2V16.1V16H19.5V15.9H19.4V15.8H19.3V15.7V15.6H19.2V15.7H19.1V15.6H19V15.5H19.1H19.2V15.4V15.3H19.1V15.2V15.1V15H19.2H19.3H19.4V15.1H19.5V15.2H19.6V15.1V14.9V14.8V14.7H19.7V14.8H19.8V14.7H19.9V14.6V14.5H20V14.4V14.3H20.1V14.2V14.1V14H20V13.9L19.8 13.6V13.5V13.4V13.3H19.7H19.6H19.5H19.4L19.3 13.2V13.1L19.5 12.8L19.6 12.6H19.7V12.5H19.8V12.6H19.9V12.7V12.8V12.9V13H20V13.1H20.1H20.2L20.3 13H20.4V12.9L20.5 12.8V12.7H20.6V12.6H20.7H20.8H20.9H21V12.7H21.1L21.2 12.6V12.5H21.3V12.3V12.2V12.1H21.4V12V11.9H21.5L21.6 11.8L21.7 11.7H21.8H21.9V11.6V11.5H21.8L21.7 11.4V11.3H21.6V11.2H21.7L21.8 11L21.9 10.9V10.8V10.7V10.6H21.8H21.7H21.6V10.5V10.4V10.3V10.2V10.1H21.5V10V9.90001H21.4V9.8H21.5V9.70001V9.6V9.50001H21.6L21.7 9.8L22 9.50001H22.2L22.6 8.90001H22.7L22.9 8.50001V8.40001V8.3H22.8V8.40001H22.7V8.3H22.8V8.20001H22.7H22.6H22.5H22.4V8.1L22.5 8.00001H22.6V7.90001H22.7V8.00001L22.8 7.90001H22.9V7.8V7.70001L22.8 7.8H22.7V7.70001H22.8L22.9 7.6V7.50001H22.8V7.40001V7.3V7.20001H22.9V7.1H22.8V7.00001H22.9V6.90001L23 6.8L23.1 6.90001H23.2H23.3V6.8V6.70001H23.2V6.6L22.9 6.3L23.3 5.90001L23.6 6.20001V6.1H23.7V5.90001H23.6V5.8V5.70001V5.6V5.50001H23.5V5.40001L23 5.20001V5.1V5.00001V4.90001H22.9V4.8V4.70001H23H23.1L23.2 4.8L23.3 4.90001L23.4 5.00001H23.5H23.6V4.90001L23.7 4.8V4.70001L23.8 4.50001V4.40001V4.3H23.9H24L24.1 4.20001L24.2 4.1L24.3 4.00001V3.90001V3.8H24.4V3.70001V3.6H24.5V3.50001L24.8 2.90001H25.5L25.9 2.6V2.50001L26.2 2.40001L26.9 1.70001L27.6 1.3L28.6 2.70001L28.5 3.50001H28.3H28.2V3.6H28.1V3.70001V4.00001V4.1V4.20001L28 4.3L27.9 4.40001H27.8V4.50001L27.7 4.6V4.70001L27.8 5.00001L28.1 5.20001H28.3V5.8L29.1 7.1L30.2 7.00001L31.4 5.90001L31.9 5.3L32.3 4.90001L32.6 4.70001L32.9 4.3L33 4.20001H33.1V4.1L33.4 3.90001L33.7 3.50001L35.1 2.90001L37.6 1.70001L38.1 1.50001L39.7 1.20001L40.4 1.10001H41.2H42.7L44 1.60001L44.5 2.40001L44.9 3.50001L45.7 4.90001L46.7 5.90001L48.8 7.3L49.8 8.6L51 11.4L51.7 12.3L55 14.5L55.8 15.4L56.6 16.7L56.7 16.8V16.9L57.1 17.7L57.4 18.5L57.6 19.3V20.2L56.7 22.1V22.5L56.9 23.9L57 26.6L57.3 28.2L57.9 29.6L58.9 31.4L59.1 32.8L58.7 34V34.7H61.2L62.2 35.5L64.1 37.9L64.4 38.2L65.1 38.7L65.4 39L65.5 39.4L65.7 40.5V40.7L66.3 40.9L66.9 40.6L67.2 40.5H67.8L68.7 41.1L70.4 43L71.4 43.7L72.6 44.9L73.3 45.7L74.5 48.5V48.6L74.7 48.9V52.3L73.4 53.9H73.3H73.2V54H73.1H73H72.9V54.1H72.8H72.7H72.6H72.5V54.2H72.4H72.3H72.2V54.3H72.1V54.2H72V54.1H71.9L71.8 54.2H71.7V54.1H71.6H71.5V54H71.4H71.3V54.1H71.2H71.1L71 54.2V54.1H70.9H70.8H70.7H70.6V54H70.5H70.4H70.3H70.2L70.3 53.9H70.2V54H70.1V53.9H70V54H69.9V53.9H69.8H69.7V53.8V53.7H69.6V53.6L69.5 53.7V53.6H69.4L69.3 53.7V53.8L69.2 53.9L69.1 54V54.1V54.2H69V54.3H68.9V54.4V54.5V54.6H68.8V54.7H68.7H68.6V54.8H68.5L60.3 56.8L58.3 58L58.2 58.3L57.9 59.9L58.4 60.7L60.2 61.2L60.9 61.7L61.1 62.3L61.4 63.9L61.6 64.7L61.9 65.3L64.1 67.7L64.7 68.9L65.1 70.3L65.2 72.1L65.1 72.9L64.7 74.4L64.5 75.1L64.6 76L64.8 76.7L64.9 77.4L64.8 78.2L64.4 78.7L63.3 78.9L63 79.4L63.2 80.1L63.7 80.7L64.7 81.7L65.5 82.2L66.3 82.5L67.2 82.7H68L69 82.1L69.4 84.8L69.3 84.7H69.2V84.8H69.1V84.9H69H68.9L68.8 84.8L68.7 84.7H68.6V84.6L68.5 84.5H68.4H68.3L68.2 84.7L68.1 84.8L68 84.9L68.1 85.1H68.2V85.3L68.3 85.5L68.4 85.6V85.9H68.3L68.2 86L68.1 86.1V86.2H68V86.5V86.6V86.7H68.1V86.8L68 86.9H67.9V86.8H67.8V86.7V86.6H67.7V86.5H67.6L67.5 86.6V86.7V86.8V87.1V87.2L67.4 87.4L67.3 87.5V87.6V87.7V87.8H67.2V87.7H67.1L67 87.6V87.5H66.9H66.8V87.6H66.7V87.7H66.6H66.5V87.8L66.4 87.9L66.3 88H66.2V88.1L66.1 88.2H66V88.3L66.1 88.6V88.7H66.2V88.8V88.9H66.3L66.7 89.1L66.3 89.6L66.2 89.8L65.6 90.1L63.2 91.8L66.9 93.3L68.1 93.6L69 93.2L69.6 92.6L70.8 91.6L71.6 91.4L72.6 91.1L74.5 91.4L78.1 92.7L79.7 93.3L82.8 92.8H83H83.3L84.5 93L85.2 93.7L85.6 94.8L85.8 96.1L86.3 97.3L87 98L87.9 98.3L91.6 98.6L94.6 97.9H94.7V98H94.8H94.9H95V98.1H95.1V98.2H95.2H95.4H95.7H95.8H95.9H96V98.1V98V97.7V97.6V97.5H95.9V97.4L98.8 96.2L99.2 96L99.5 95.9L100.4 95.3L101.2 94.8L101.6 94.6L102.4 94.5L103.3 95L104.3 95.6L105.2 95.4L106.2 94.9L107.1 94.8L107.3 94.7L108.3 95.1L108.9 95.9L109.3 97.1L110.5 104.5L111.5 107.1L113 108.5L114.7 108.7L118.1 107.9L119.9 108L120.9 108.3L121.8 108.8L122.2 109.7L121.8 111.1L121.7 111.2L121.1 111.7V111.8L118.3 112.4L118.5 113.3V114.9V115.4L118.7 116.2L119.1 116.8L120.3 117.1L120.9 117.5L121.5 118.5L121.6 119.5L121.5 120.4V121.7L121.9 122.7L122.9 124.1L123.3 125.1L123.4 126.2L123.3 127.2L123.4 128L124.1 128.7L125.4 129.5L125.9 130L126.4 130.8L126.8 133L126.7 135L126.8 136.7L127.9 138.3L125.6 139.3L124.1 140H124L123.3 141V142L124.1 145.1L124.2 145.5L125.7 151.6L126.8 153.5L128.5 154.3L129.6 154.5L130.7 154.9L131.6 155.6L132.3 156.9L132.7 158.8V160.2L133 161.4L134.2 162.7L135.1 163.4L136.1 163.9L137.2 164.2L138.2 164.3L139.2 164Z" fill="#6F9C76"/>
<path d="M81.5 171.8L81.6 171.7H81.7L81.8 171.8L81.7 171.9V172L81.8 172.1V172.3L81.9 172.7L82.1 173.1L82.2 173V172.8L82.1 172.7H82L82.1 172.6L82.2 172.5L82.6 173.2L82.7 173.3L82.6 173.4L82.2 174.6L82.1 174.9H81.8L81.2 175.7L80.8 176.3L80.4 176.9L80.3 177.1L80.2 177.2L80.4 177.6H80.8L80.5 178.6L80.4 179L81 178.9V180H81.4V180.5V180.7H81.6L82.3 181.2L82.6 181.3V181.4L82.7 181.5V181.6H82.8H82.9V181.5V181.4H83V181.3H83.1V181.2V181H83.2H83.3L83.4 181.1L83.5 181H83.6L83.8 181.1V181.2L84 181.3H83.9V181.4H84V181.5H84.1H84.2L84.4 181.6L84.5 181.5L84.6 181.6V181.7H84.7H84.8V181.8H84.9H85H85.1H85.2H85.3V181.9L85.4 182L85.5 182.1L85.6 182.2L85.7 182.3H85.8H85.9L86 182.2L86.1 182.1H86.2H86.3L86.4 182.2L86.6 182.3L86.7 182.2L86.8 182L86.9 182.1H87L86.9 182.3L87 182.4H87.1H87.2H87.4L87.5 182.3H87.3L87.2 182.2L87.3 182.1V182L87.5 181.9V181.8L87.6 181.7L87.5 181.6L87.6 181.5V181.4V181.3V181.2L87.7 181.1V181H87.8L87.9 180.9V180.8V180.7H87.8L88 180.6L88.2 180.8L88.1 180.9V181H88V181.1H87.9V181.2V181.4V181.5V181.6V181.8H88V181.9L88.1 182V182.1L88 182.2V182.4H88.3H88.4H88.5L88.6 182.5H88.7L88.8 182.4H88.9L89 182.3V182.4H89.1V182.3V182.2V182.1H89V182V181.9H89.1V181.8L89 181.7H89.1V181.6H89.2L89.1 181.5V181.4L89 181.3V180.7H89.3V180.5V180.4V180.3H89.2L89.1 179.6V179.5V179.4L89.2 179.3H89.3L89.4 179.2L89.5 179.1L89.8 179.2H90H90.2V179.1V179L90.3 178.9V178.8L90.4 178.7H90.5L90.9 178.5L91.4 178.6H91.5L91.7 178.7L91.6 178.9H91.7V179L91.6 179.1L91.5 179.2L91.4 179.4L91.2 179.7H91.5H91.6H91.7H91.8L92.3 179.6H92.4L92.5 179.5L92.8 179.3L93.3 179L94.2 178.9L94.1 178.5H94.5H95.3H95.4L95.5 178.6H95.6L95.8 178.8L96.3 178.6L96.6 178.1L96.9 178.3L97.4 178.4L99.3 178.6L100.4 178.9L100.8 179L101.3 179.1L102.5 178.9L102.7 178.7L103 178.6L102.9 178.3L102.8 177.8L102.5 176.9L102.4 176.6H102.5L103.1 176.8L103.5 176.7H103.8H104H104.4V176.8V176.9H104.5V177L104.4 177.1H104.6L104.7 176.6L105.4 176.8L105.8 176.9H105.9V177V177.1V177.5L105.8 178L106.3 178.1L106.4 178L106.6 177.6L107.1 176.8L107.2 176.5L107.4 176.7L107.5 176.6L107.4 176.5L107.5 176.3H107.6L107.8 176.1V176V175.9L107.9 175.8V175.7L107.8 175.6L108.2 175.3L107.9 175L107.8 174.9L108 174.8L108.1 174.7L108.7 174.4H108.8H108.9H109V174.3H109.1H109.5L109.6 174.2L109.7 174.1L110 173.9L110.5 173.5L110.7 173.3L110.8 173.2L111.1 172.9L111.4 172.5L111.8 172L112.3 172.3L113.5 172.9L114 173.1L114.1 173V172.9V172.8L114.2 172.5L114.3 172.3L114.4 172.4V172.5L114.3 172.6L114.9 172.7L115.6 173L116 173.1H116.1L116.3 172.5L116.7 172.6H117.4V172.5H117.5V172.4H117.4V172.3V172.2V172V171.9V171.8V171.7H117.5V171.6V171.5V171.4V171.3V171.2V171.1V171L117.4 170.9V170.7L117.5 170.6V170.5H117.6L117.7 170.4V170.3V170.2L118.3 170.3H118.4L119.4 170.4L119.7 170.2L120.2 169.8L120.4 169.7L120.9 169.6V169.5L121 169.3L120.7 169.2L119.5 168.5L119.2 168.3L119.9 167.4L120.3 166.8L120.4 166.7L120.5 166.6L120.4 166.4L120.9 166L121.5 166.4L121.6 166.5H121.7V166.6H121.8L121.9 166.7L122 166.8L122.1 166.9L122.7 167.3L122.9 167.4L123.6 167.9L123.7 167.3V167L123.6 166.9L123.5 166.6L123.4 165.9L124.3 166L124.8 165.9V165.8H125V165.7V165.6H125.1V165.5L125.2 165.4V165.3V165.2H125.3V165.1H125.4L125.5 165V164.9V164.8H125.6V164.7L125.7 164.8L126.3 165.7V165.8L126.4 166.1L126.5 166.2L127.5 166.3L127.4 166.7L127.5 166.8L128 167.1L128.5 167.5L128.9 167.8L129.3 168.1L129.4 167.9L129.5 167.8L129.6 167.6H129.7V167.5L130.4 168L130.7 168.3L130.8 168.1L130.9 167.9L131 168.1L131.1 168L131 167.9V167.8L131.1 167.6H131.2L131.3 167.4V167.3L131.2 167.2L130.7 166.6L130.3 166.1H130.5H130.6L131 166L131.7 165.9L132.4 165.8H132.5H132.6H132.7L132.9 165.9H133.2L133.6 165.6L133.9 165.4L134.1 165.2L134.2 165L134.4 165.1L134.5 165.2H134.6L134.9 165.3H135L135.1 165.4H135.2H135.4H135.6L136 165.5H136.1L136 165.6L135.9 165.7L135.8 165.9L135.9 166L136 166.1H136.1L136.4 166.3V166.4L137.1 166.7V166.5H137.3H137.4L137.5 166L137.6 165.6V165.4H137.8H138.3V165.3L138.5 165.1V165H138.7V164.8V164.7H139L139.2 164.1V164L138.2 164.3L137.2 164.2L136.1 163.9L135.1 163.4L134.2 162.7L133 161.4L132.7 160.2V158.8L132.3 156.9L131.6 155.6L130.7 154.9L129.6 154.5L128.5 154.3L126.8 153.5L125.7 151.6L124.2 145.5L124.1 145.1L123.3 142V141L124 140H124.1L125.6 139.3L127.9 138.3L126.8 136.7L126.7 135L126.8 133L126.4 130.8L125.9 130L125.4 129.5L124.1 128.7L123.4 128L123.3 127.2L123.4 126.2L123.3 125.1L122.9 124.1L121.9 122.7L121.5 121.7V120.4L121.6 119.5L121.5 118.5L120.9 117.5L120.3 117.1L119.1 116.8L118.7 116.2L118.5 115.4V114.9V113.3L118.3 112.4L121.1 111.8V111.7L121.7 111.2L121.8 111.1L122.2 109.7L121.8 108.8L120.9 108.3L119.9 108L118.1 107.9L114.7 108.7L113 108.5L111.5 107.1L110.5 104.5L109.3 97.1L108.9 95.9L108.3 95.1L107.3 94.7L107.1 94.8L106.2 94.9L105.2 95.4L104.3 95.6L103.3 95L102.4 94.5L101.6 94.6L101.2 94.8L100.4 95.3L99.5 95.9L99.2 96L98.8 96.2L95.9 97.4V97.5H96V97.6V97.7V98V98.1V98.2H95.9H95.8H95.7H95.4H95.2H95.1V98.1H95V98H94.9H94.8H94.7V97.9H94.6L91.6 98.6L87.9 98.3L87 98L86.3 97.3L85.8 96.1L85.6 94.8L85.2 93.7L84.5 93L83.3 92.8H83H82.8L79.7 93.3L78.1 92.7L74.5 91.4L72.6 91.1L71.6 91.4L70.8 91.6L69.6 92.6L69 93.2L68.1 93.6L66.9 93.3L63.2 91.8L65.6 90.1L66.2 89.8L66.3 89.6L66.7 89.1L66.3 88.9H66.2V88.8V88.7H66.1V88.6L66 88.3V88.2H66.1L66.2 88.1V88H66.3L66.4 87.9M81.5 171.8V171.7M81.5 171.8H81.4H81.3V171.7V171.6H81.1H81H80.8L80.7 171.5V171.4L80.6 171.5H80.5V171.6V171.7H80.6H80.7L80.8 171.9V172L80.6 172.1V172.2H80.5H80.4V172L80.2 171.9H80.1L80 171.8L79.8 171.6L79.7 171.4V171.2V171H79.9L80 171.2V171H80.1H80.2V170.9H80.1L80 170.8V170.7L80.2 170.5L80.1 170.4V170.3L80 170.1L79.8 169.9V169.8V169.7V169.6L79.7 169.5V169.4L79.9 169.2L80.1 169H80L79.5 168.7H79.4L77.6 168.4H77.3L77 168.6L76.7 168.4V168.3L76.1 167.9L74.7 166.6L74 166L74.2 165.5L74.5 165L74.6 164.7L74.5 164.5L73.6 163.9L73.2 163.5V163L72.9 162.8L73.6 162.2H73.5L73.3 162.1L72.7 161.8V161.7V161.6L72.6 161.5L72.5 161.4V161.3L72.4 161.4H72.3L72 161.2L71.7 160.9L71.2 160.4L71.1 160.3H71H70.9L70.8 160.2L70.3 159.9L69.6 159.4L68.6 158.7L68.3 158.5L68.1 158.1L68 158L67.8 157.4L67.6 157.2V157H67.5H67.4H67.3H67.2L67 156.9L66.9 156.8V156.7L66.8 156.6L66.7 156.4L66.6 156.2L66.5 156V155.6V155.3L66.4 155.1V154.9V154.8L66.5 154.1L66.6 153L66.7 152.4L66.6 151.8L66.5 150.9L66.4 150.3V150.2V150.1H66.3V149.9L66.2 149.8H66L65.5 149.5L65.4 149.6L64.9 149L64.4 149.6L64.2 149.7H64.1L63.7 149.8H63.6L63.4 149.7H63.3L62.7 149.6L61.9 149.9L61.7 150.1L61.6 150L61.5 150.2H61.4L61 150.6L59.9 150.8V151V151.2L59.8 151.7V151.8V151.9V152.1V152.2L59.6 152.4L59.5 152.7V152.8L59.4 153V153.1H59.3V153.2H59.2L59.1 153.1L58.8 153.2L58.3 152.7L58.2 152.6H58.1H58L58.1 152.4H58.3V152.3L58.5 152.4L58.7 152L59.2 151.4L59 151.3L58.7 151.1H58.6V151H58.5V150.9H58.4H58.3L58.2 150.7L57.7 150.6L57.6 150.5H57.4V150.4H57.3H57.2H57.1L57 150.3V150.4H56.9H56.8V150.5H56.7V150.6L56.6 150.7V150.8H56.7L56.6 150.9L56.8 151L56.7 151.2L56.4 150.9L55.9 151.3H55.8H55.7H55.6H55.5L55.3 151.7H55.2L55.4 151.2V151.1L55.5 150.9H55.4V150.8L55.3 150.7H55.1L54.9 150.8L54.7 150.6V150.5L54.2 150.1L54.3 150L53.5 149.4L53.2 149.2L52.4 148.5L51.6 147.9L50.8 148.9L50.2 149.7L50 149.9M50 149.9V150M50 149.9L49.9 150.1L49.8 150.2L49.7 150.4L49.5 150.5L49.4 150.4L49.2 150.3L49.1 150.2V150.1H49V150V149.9L48.8 149.8H48.7V149.7H48.6V149.6V149.5L48.4 149L48 149.1L47.7 149.2V149L47.5 149.1L47.1 149.2L46.7 149.4L46 149.7L45.7 149.8V149.9L45.9 150.1H45.7L45.6 150.2L45.1 150.3L44.8 150.4L44.7 150.3V150.2L44.3 150.4L44.4 150.5V150.7L44.5 151H44.8H45L45.3 151.1L45.8 151.2L46.1 151.3V151.4L46.2 151.5H46.3V151.7V151.8L46 152.4L45.8 152.3L45.7 152.2L45.3 152.4L45 152.6H45.1L45.2 152.8L45.3 153.1H45.2L44.8 153.2L44.3 153.3L44.1 153.4H44H43.5H43.1V153.8V154L43.2 154.1V154.2V154.3V154.4H43.1V154.5H43V154.6V154.7H43.1L41.9 154.8L40.7 154.9H40.5L39.7 154.3H39.6V154.2H39.4L38.7 154L38.2 153.9L37.8 153.8L37.3 153.7L36.4 153.5L35.9 153.4L35 153.2L34.7 153.1L34.5 153H34.4V152.9L34.3 152.7L34.1 152.6L33.5 152.4H33.3L33.2 152.3H33.1H33H32.9L32.7 152.4L32.3 152.1H32.2L32 152.2L31.8 152.3V152.4L31.2 152.5H30.6V152.8L30.5 152.9H30.4V153L30.3 153.1H30.2L30.3 153.2H30.2H30.1V153.1L29.9 153.2H29.8H29.7L29.6 153.1L29.5 153H29.4L29.3 152.9V152.8V152.7H29.2V152.6H29.1V152.5H29V152.4V152.3L28.8 152.1V151.9H28.7L28.6 152L28.5 152.1V152.2H28.4V152.3H28.3V152.4V152.5V152.6V152.7L28.2 152.8H28.1V152.9V153H28L27.9 153.1L27.5 153L27.6 152.6L27.5 152.5V152.4H27.4L27.1 152.3L26.8 152.2L26.5 152.4L26 152.6L25.3 152.8L25.2 152.9L25.3 153V153.1H25.4V153.2V153.3L25.5 153.4V153.5L25.3 153.6L25 153.3H24.9L24.5 153L24.6 152.9V152.3H24.3V152.2L24.2 152V151.7H24.1H23.9L23.3 151.8H23.1H22.8H22.3V150.9V150H21.2H20.4H19.8H19.5V149.6L19.4 149H19.2L18.6 148.9L18.4 148.6L18.2 148.3L18.1 148.1L17.8 148H17.7L17.8 147.7L17.4 147.4H17.3H17H16.9L16.8 147.7V147.8H16.7V147.9M16.7 147.9H16.8V148H16.7V147.9ZM16.7 147.9H16.6M16.6 147.9V147.8M16.6 147.9H16.5V148L16.4 148.1L16.3 148.2L16.1 148.3H16V148.4H15.9H15.8V148.5H15.7V148.6V148.7V148.8V148.9V149V149.1V149.4L15.6 149.5V149.6V149.7L15.5 150.2L15.4 150.3L15.2 150.4V150.5V150.6L15.4 150.9H15.3H15.1H14.9L14.8 151L14.5 151.3L14.4 151.2L14.2 151.1H14.1L14 151V151.1L13.8 151H13.7H13.2L12.9 150.8V150.7L12.8 150.6H12.7V150.5V150.4H12.6V150.3H12.5V150.2V150.1L12.4 150V149.9H12.3H12.2H12.1V149.8H12V149.9H11.9L11.8 150H11.7H11.6H11.5V149.9L11.4 150L11.3 149.9V150L11.2 149.9H11.1L10.8 150.7L10.2 150.9V150.8H10.1V150.7H10H9.90002L9.79999 150.8V150.9L9.70001 151H9.59998L9.5 151.1L9.40002 151.2H9.29999L9.20001 151.1L8.79999 150.6L8.5 150.3L7.79999 150.2H7.5H7.29999H7.20001H7.09998H7L6.90002 150.3L6.70001 150.1L6.5 149.9V149.6V149.5L6.09998 148.7L6 148.5L5.90002 148.4V148.3H6L6.20001 148.1V148H6.29999V147.9H6.40002V147.8L6.5 147.7L6.79999 147.5L7 147.3L7.09998 147.2V147.1H7.20001V146.9L7.29999 146.6V146.5L7.40002 146.4L7.5 146.2L7.70001 145.9L7.90002 145.7L8.09998 145.5L8.20001 145.4L8.29999 145.3L8.20001 145.1L8.09998 145V144.9L8.20001 144.7L8.40002 144.5L8.5 144.4L8.70001 144.2L9.29999 144.3L9.40002 144.4V144.3H9.5V144.2L9.59998 144.1V144V143.9V143.8L9.5 143.7H9.40002H9.29999L8.90002 143.6L8.59998 143.5L8.70001 143.3L8.79999 143.2V143.1L8.90002 142.9H9V142.8V142.6L9.09998 142.5L9.20001 141.8L9.29999 141.4L9.5 140.7V140.6V140.5H9.40002V140.4V140.3L9.29999 140.2V140.1V140V139.9H9.40002H9.5V139.8H9.59998L9.70001 139.7H9.79999H9.90002L10 139.8H10.1H10.2H10.3H10.4V139.7L10.7 139.5L10.8 139.4V139.3V138.9V138.6V138.3V138.2L10.9 137.6L11 137.2V136.9V136.7V136.3V136.2V136.1L10.9 136L10.8 135.9V135.8L10.7 135.7V135.6L10.5 135.3L10.4 135.1L10.3 134.9L10.4 134.8L10.5 134.9H10.6H10.7L10.8 135H10.9H11H11.1H11.2L11.3 134.9V134.8V134.7V134.6H11.4V134.5L11.5 134.6H11.6L11.7 134.5H11.8H11.9H12.1V134.4H12.2H12.3H12.4V134.3H12.5H12.6V134.2H12.7H12.8H12.9H13L13.1 134.1V134H13.2H13.3H13.4H13.5H13.6H13.7H13.8H13.9V134.1H14L14.2 134V133.6L14.5 133.5H14.6L14.8 133.4H14.9L15.2 133.3H15.3L15.5 133.2L15.3 132.9L15.1 133V132.9V132.8L15 132.7L14.3 132.9H14.1V132.7L14 132.3L13.9 132.1V132H13.8H13.3H13V131.9L12.9 131.7H12.8L12.6 131.3L12.4 130.8L12 130.1L11.7 129.7L11.4 128.9L11.1 128.3H11.2H11.3H11.4L11.7 128.4L11.9 127.8L11.8 127.7H11.7V127.6V127.5V127.4L11.8 127.2V126.9V126.6H11.7H11.6V126.5V126.4H11.5V126.3V126.2V126.1H11.4H11.3V126H11.2V125.9V125.8V125.7V125.6V125.5H11.3H11.4H11.5L11.6 125.4L11.8 125.3V125.2V125.1L11.9 124.9L12 124.7V124.6V124.5H12.1V124.4H12.2V124.3H12.3V124.2H12.4V124.3H12.5V124.2H12.6V124.1H12.7V124L12.8 123.9L12.7 123.8H12.2L11.9 123.7H12V123.5L12.1 123.4V123.3V123.2L12.2 122.5L12.4 122.4M12.4 122.4H12.5M12.4 122.4H12.3V122.3V122.2V122.1H12.2M12.2 122.1V122.2M12.2 122.1V122H12.3L12.2 121.9H12.1L12.2 121.8H12.1H12V121.7V121.6V121.5V121.4H11.9V121.3V121.2V121.1V121L12 120.9V120.8V120.7H12.1V120.6L12.2 120.5L12.3 120.4L12.4 120.3L12.5 120.2L12.7 120.4V120.3L12.8 120.2H12.9V120.3M12.9 120.3H12.8M12.9 120.3V120.4V120.5H13H13.1V120.4H13.2H13.3V120.5H13.4H13.5V120.4L13.4 120.3V120.2V120.1H13.5V120.2V120.3H13.6H13.7V120.4H13.8V120.3H13.9L13.6 119.9L13.8 119.8V119.7H13.9H14V119.6L13.9 119.4L13.8 119.2L13.6 118.7L13.3 118.2V117.9V117.3L13.5 117V116.5V115.9V115V114.9L13.4 114.8H13.3H13.2H13.1H13H12.9V114.9V115L12.8 115.1H12.7H12.6L12.1 115H11.9L11.5 114.9L10.9 114.8H10.7H10.5H10.4L10.3 114.9L10.4 114.5V114.4L10.3 114.1V113.9L10 113.2L9.79999 112.8L9.59998 112.3V112.2V112.1L9.5 112L9.59998 111.9H9.70001V111.8L9.79999 111.7L9.70001 111.6L9.59998 111.5L9.5 111.4L9.40002 111.3V111.2L9.09998 111.4H9L8.90002 111.5L8.5 111.7L8.29999 111.8L7.59998 112.3L7.29999 112.4L7.40002 112.7V112.8V113V113.2V113.3M7.40002 113.3V113.4M7.40002 113.3H7.29999V113.2H7.20001H7.09998H7V113.1H6.90002H6.79999L6.70001 113H6.59998H6.5V112.9H6.40002V112.8H6.29999H6.20001H6.09998H6V112.7H5.90002L5.79999 112.6V112.5H5.70001L5.5 112.4L5.29999 112.3L5.40002 112.2V112.1H5.5V112V111.9H5.59998V111.8V111.7V111.6H5.70001V111.5L5.79999 111.4L5.90002 111.2L6 110.9V110.8L6.20001 110.7L6.29999 110.6V110.5L6.40002 110.4H6.29999V110.3L6.40002 110.2V110.1V110L6.5 109.9L6.59998 110L6.90002 109.6L7.09998 109.2L7.29999 109.4V109.3L7.70001 108.7L7.59998 108.6L7 108.3L6.40002 107.8L6.79999 107.2L7 106.7L6.90002 106.3V106.2H6.5L6.09998 106.1H5.5L5.29999 106L5.5 105.2H5.09998L3.90002 105L3.20001 104.9L2.59998 104.8L1.79999 104.7H1.5L1.09998 105L0.799988 104.8V104.7L0.5 104.6L0.799988 104L0.900024 103.8L1.5 102.9L1.59998 102.8L1.79999 102.5L1.90002 102.2L2.20001 101.7L2.79999 100.7L3 100.3V100.2H2.90002L2.59998 99.9L2.5 99.8L2.09998 99.5L2 99.3L1.40002 98.7L1.59998 98.4H1.70001L2.20001 97.7L2.59998 97.2L2.70001 97L2.59998 96.9L2.29999 96.7L2.79999 96L2.90002 95.9H3.09998H3.29999H3.5L3.70001 95.8H4L4.59998 95.7H4.90002V95.3H5.5V95V94.8H5.40002V94.1L5.09998 93.9L4.90002 93.5L5.09998 93.2L5.5 92.8L5.79999 92.4L6.70001 91.5L6.90002 91.3L6.70001 91.2H6.59998L6.5 91.1L6.40002 90.9L6.29999 90.4L6.79999 90.2L6.70001 90V89.9V89.7H7.09998V89.6V89H7H6.90002M6.90002 89L6.79999 89.1L6.70001 89H6.79999H6.90002ZM6.90002 89V88.9H7.09998H7.20001L7.09998 88.8V88.7H7L7.29999 88.6V88.5H7.20001L7.09998 88.6H7V88.5V88.4H6.90002V88.5H6.79999V88.6V88.7H6.70001L6.59998 88.8L6.5 88.7M6.5 88.7H6.40002V88.6L6.5 88.7ZM6.5 88.7V88.6H6.59998V88.5V88.4L6.70001 88.3L6.5 88.4L6.20001 88.5H6.09998L6 88.6H5.90002H5.79999H5.70001H5.59998L5.5 88.5V88.4L5.59998 88L5.70001 88.1H5.79999L5.90002 88H6L6.09998 88.1V88H6.20001H6.29999H6.40002V87.9H6.5V87.8H6.40002L6.5 87.7H6.40002H6.29999H6.20001V87.8H6.09998V87.9H6V87.8V87.7L5.70001 87.5V87.4L5.79999 87.3H5.90002V87.4H6.20001L6.40002 87.2L6.59998 87V87.1V87.2H6.70001H6.79999L6.90002 87.1L7 87V86.9L6.90002 86.8V86.7L7.29999 86.6H7.20001L7.09998 86.5V86.2L7.40002 85.9V85.8H7.29999V85.7H7.20001V85.6V85.5H7.09998V85.4H7V85.3L6.90002 85.2V85.1V85V84.9L7.20001 84.4L6.59998 83.9L6.70001 83.8H6.40002V83.9H6.29999L6.20001 84H6.09998H6V84.1H5.90002L5.79999 83.9L5.59998 84.1L5.79999 84.2H5.70001V84.3H5.59998V84.2H5.5V84.1H5.40002L5.29999 84L5.20001 83.6V83.4V82.8L5.40002 82.4V82.3L5.5 82.2L5.40002 82.1L5.09998 82V81.8H5V81.7L4.70001 81.1L4.59998 80.9V80.8L4.40002 80.4L4.20001 79.9L4.59998 79.8L5.40002 79.5V79.3L5.59998 79.2V79.1V79V78.9V78.8L5.70001 78.7L5.79999 78.8L6.29999 79.3L6.20001 79.6L6 79.8L6.09998 79.9H6L5.70001 80L5.59998 79.9L5.40002 80V80.1H5.5V80.2L5.40002 80.3L5.59998 80.5L5.70001 80.7H5.90002L6 80.8L6.09998 80.9H6.20001H6.29999L6.40002 81L6.5 81.1L6.59998 81.2L6.5 81.5H6.40002V81.6V81.8V81.9V82H6.5H6.59998H6.70001H6.79999H7L7.09998 82.1H7.20001H7.5H7.59998M7.59998 82.1V82.2M7.59998 82.1V81.9V81.8H7.70001V81.9V82V82.1H7.79999V82.2H7.90002L8.09998 82L8.20001 82.2H8.40002L8.5 82.3H8.59998L8.79999 82.4L9 82L8.79999 81.8V81.7L8.90002 81.6L8.70001 81.4L8.79999 81.2L8.90002 81.3L9 81.2L8.90002 81.1V81H8.79999L8.70001 80.9H8.5V80.8H8.40002H8.29999H8.20001L8.09998 80.7L7.90002 80.6L8 80.4H8.09998H8.20001L8.29999 80.5V80.4H8.40002H8.5H8.59998H8.70001H8.79999H8.90002L9 80.5H9.09998L9.20001 80.7H9.29999V80.9L9.40002 81L9.5 81.1H9.59998H9.70001H9.79999H9.90002H10V81H10.1V80.9V80.6V80.1L10.3 80L10.2 79.6H10L9.70001 79.5H9.40002V79.3H9.59998L9.79999 79.1L10.1 78.4L10.2 78.3V78.2L10 78.1L9.09998 77.3V77.2L9.40002 76V75.8L9.59998 75.2L9.70001 74.7L10.2 74.2V74.1L10 73.4V73.3V73.2V73V72.9V72.6L10.1 72.4L10.2 72.1L10.3 71.9V71.8H10.4H10.5H10.6V71.7H10.7H10.9L11 71.8L10.9 71.9L10.8 72H10.9V72.1H11H11.1L11.2 72H11.3L11.5 71.9L11.8 71.7V71.6L12.2 71.5V71.4L12.4 70.9H12.5L13.1 71V70.8V70.5L13.2 70.2V69.8V69.7L13.1 69.6V69.5L13 69.4L12.9 69.3V69.2L12.8 69.1V68.9V68.5L12.7 68.4L12.6 68.3L12.2 68.1L11.8 67.9V67.5L11.7 67.4V67.3V67.2V67.1L11.3 67V66.7V66.3V66.2H11.4L11.5 66.1V66L11.4 65.7L11.8 65.8H11.9H12.1L12.8 65.6H12.9H13H13.2L13.9 65.8V65.7L14 65.6L14.2 65.2V65.1H14.3L14.6 65L14.3 64.9L13.8 64.8L13.1 64.7L12.9 64.4L12.7 64.2L12.5 63.9L12.4 63.7L12.3 63.6L11.6 63L11.3 62.8H11.2V61.7V61.1V60.9V60.3V60H11.1L10.5 60.1L10.1 59.8L9.90002 59.9H9.79999V59.8V59.7L9.70001 59.6V59.5V59.4V59.3L9.79999 59.2V59.1V58.9H9.90002V58.8L10 58.7L10.1 58.6V58.5L10.2 58.4H10.3H10.4L10.5 58.2L10.6 58.1L10.7 57.9L10.8 57.7V57.6H10.7V57.5H10.6V57.4H10.5H10.4L10.5 57.3V57.2H10.4V57.1L10.5 57V56.9H10.6H10.7L10.8 57H10.9H11.1H11.2H11.4H11.5H11.6L11.7 56.9V56.8V56.7H11.6H11.4H11.3L11.2 56.8L11.1 56.7H11H10.9L10.8 56.6V56.5L10.7 56.2V56.1V56V55.9H10.8V56H10.9V56.1H11H11.1L11.2 56.2L11.3 56.1H11.4L11.6 56L11.8 55.9L11.9 55.8V55.7L12 55.6V55.5L12.1 55.4V55.3L12 55.2L11.9 55.1H11.8L11.7 55.2H11.6H11.5H11.4L11.3 55.1L11.2 55V54.9L11.1 54.8V54.7V54.6L11 54.5L10.9 54.3V54.2L10.8 54.1L10.7 54L10.6 53.9H10.5L10.4 53.8L10.3 53.7L10.1 53.5L10.3 53.2L10.4 53.1H10.3L10.2 52.9H10.1V52.8H10L9.90002 52.7L9.79999 52.6H9.70001V52.5V52.4H9.59998L9.5 52.3L9.40002 52.2H9.29999V52.1H9.20001L9.09998 52L9 51.9H8.90002V51.8H8.79999V51.7L8.70001 51.6V51.5H8.59998V51.4L8.5 51.3V51.2H8.40002V51.1V51V50.9V50.8H8.29999V50.7L8.20001 50.6V50.5V50.4V50.3H8.29999V50.2V50.1H8.20001V50H8.09998V49.9V49.8V49.7V49.6V49.4L8 49.2H7.90002V49.3H7.79999V49.4V49.5L7.70001 49.6H7.59998V49.5V49.4L7.5 49.3V49.2H7.40002V49.1L7.29999 49H7.40002H7.5V48.9H7.59998L7.70001 48.7V48.6H7.79999H7.90002H8H8.09998V48.5H8V48.4H8.09998L8.20001 48.5H8.29999L8.40002 48.6H8.5H8.59998V48.5L8.5 48.4V48.3V48.2V48V47.9H8.59998V47.8L8.70001 47.7L8.79999 47.6V47.5H8.90002L9 47.4L9.09998 47.3V47.2L9.20001 47.1L9.29999 47L9.40002 46.8L9.5 46.6V46.5V46.4V46.3L9.59998 46.2H9.70001V46.1H9.79999L10 45.9L10.1 45.8H10.2H10.3L10.4 45.9V46H10.5H10.6L10.7 45.9H10.8V45.8V45.7V45.6V45.5V45.4V45.3L10.7 45.2L10.6 45L10.5 44.8V44.7L10.4 44.5H10.3V44.4H10.2L10 44.3H9.90002L9.79999 44.2L9.90002 43.7L9.79999 43.6H9.90002H10V43.5L9.90002 43.4V43.3H9.79999V43.4L9.70001 43.5H9.59998V43.4V43.3V43.2L9.70001 43V42.9V42.8V42.7V42.6H9.79999H9.90002H10H10.1V42.5L10 42.4L9.90002 42.3L9.70001 42.2L9.59998 42.1V42V41.9L9.70001 41.8H9.79999H9.90002V41.9H10V42V42.1H10.1H10.2V42V41.9V41.8V41.7V41.5V41.4V41.3L10.1 41.2H10.2L10.3 41.1L10.4 41.2H10.5L10.6 41.3V41.2H10.7L10.8 41.1V41H10.7V40.9V40.8L10.9 40.7H11H11.1L11.2 40.6H11.3L11.4 40.5H11.5H11.7H11.8H11.9H12L12.1 40.4L12.2 40.3H12.3L12.4 40.2L12.5 40.1V40V39.9V39.8V39.7V39.6V39.5V39.4L12.4 39.3V39.2V39.1H12.3V39H12.2H12.1H12V38.9V38.8H12.1V38.7H12.2V38.6V38.5H12.3H12.4H12.5V38.6L12.6 38.7H12.7V38.6V38.5H12.8V38.4V38.3V38.1V38V37.9H12.9H13L13.1 38H13.2V38.1H13.3L13.4 38.2H13.5V38.1H13.6H13.7L13.8 38H13.9V37.9H14H14.1H14.2H14.3V38V38.1V38.2V38.3V38.4V38.5H14.4H14.5M14.5 38.5V38.6M14.5 38.5H14.6H14.7V38.4V38.3H14.6V38.2H14.5V38.1V38V37.9V37.8H14.6V37.9H14.7L14.8 38V38.1L14.9 38.2H15H15.1H15.2L15.3 38.1H15.4V38V37.9V37.8V37.7H15.5H15.6V37.6H15.7H15.8H15.9L16 37.5H15.9V37.4H15.8V37.3V37.2H15.9H16H16.1V37.1H16.2V37V36.9H16.1V36.8H16.2L16.4 36.9V37L16.5 37.1L16.6 37.3H16.7V37.4L16.8 37.3L16.9 37.2V37.1H17L17.1 37H17.2H17.3L17.6 37.1H17.7H17.8H17.9H18V37H18.1V36.9H18.2V36.8V36.7V36.6L18.3 36.5V36.4L18.4 36.2V36.1L18.6 36.2H18.7L19 36.1H19.1L19.4 35.9V36V36.1V36.2H19.5H20V36.3L20.1 36.5H20.7H21H21.1H21.3V36.4H21.4V36.3V36.2L21.5 36.1V35.9L21.4 35.7L21.6 35.6V35.5V35.3V35.2V35.1H21.7L21.8 35.2H21.9H22H22.1V35.1V35L22 34.9V34.8V34.7H22.1V34.6L22.2 34.5H22.3L22.4 34.4H22.5V34.5H22.6H22.7V34.6H22.8H22.9H23H23.1H23.2V34.5H23.3L23.4 34.4V34.3V34.2V34.1V33.9V33.8H23.3V33.7V33.6L23.2 33.5L23.1 33.4L23 33.3V33.2H22.9V33.1L22.8 33H22.7H22.6H22.5L22.4 33.1H22.3H22.2V33V32.9V32.8L22.3 32.7V32.6L22.2 32.5L22.1 32.4L21.9 32.3V32.5H21.8L21.7 32.4H21.6V32.3H21.5H21.4V32.2H21.3H21.2H21.1V32.1V32H21V31.9V31.8V31.7V31.6H21.1L21 31.5V31.4V31.3H20.9V31.2H21V31.1V31V30.9L20.9 30.8H20.8L20.7 30.7V30.6L20.6 30.5L20.4 30.2H20.3H20.2H20V30.1H19.9H19.8L19.7 30H19.5V29.9H19.4L19.3 29.8L19.2 29.7H19.1H19H18.9H18.8V29.6H18.7V29.5H18.8V29.4V29.3H18.9V29.4V29.5H19H19.1H19.2H19.3L19.4 29.4V29.3V29.2V29.1L19.3 29V28.9L19.2 28.8V28.7V28.6V28.5V28.4V28.3L19.3 28.2L19.4 28.1L19.7 28.2H19.8H20.1H20.2H20.3V28.3H20.4H20.5H20.6H20.7H20.8H20.9L21 28.2H21.1H21.2H21.3H21.4V28.1L21.5 28V27.9L21.6 27.8V27.7H21.7V27.6L21.8 27.5L21.9 27.4L22.1 27.3L22.3 27.2L22.4 27.1L23.1 26.7H23.2L23.4 26.6H23.5H23.7L23.9 27.3L24.1 27.8L24.2 28L24.9 28.5L25.1 28.6H25.2L25.3 28.5V28.4V28.3H25.4L25.5 28.2V28.1H25.6L25.7 28H25.8H26L26.2 27.9L26.3 27.8H26.4H26.5V27.7H26.6H26.7V27.6H26.8H26.9H27H27.1H27.2H27.6H28.6H28.7V25.9L28.6 25.1V24V23.5V23.4H28.5V23.5L28.4 23.6H28.2V23.9L28.1 24L27.2 23.7L26.6 23.6V23.4H26.5H26.4H26.3H26.2H26.1H26H25.9H25.8L25.7 23.5H25.6L25.5 23.6V23.5V23.4L25.6 23.3L25.7 23.2V23.1H25.8V23V22.9L25.9 22.7H25.8L25.7 22.6V22.5L25.5 22.1L25.3 21.8L24.5 21.5L24.1 21.3L24.5 20.7L23.9 20.4L23.8 20.3L23.2 20L22.7 19.8L22.4 19.6L22.1 19.4L21.7 19.3L21 18.9L20.9 18.8H20.8H20.7H20.6L20.5 18.9L20.3 19L20 19.1V19.2V19.3H20.1V19.4H20.2H20.3H20.4H20.5H20.6H20.7V19.5V19.6H19.7V19.5V19.4V19.3V19.2V19L19.8 18.7V18.6V18.4L19.9 18H20.4V17.9V17.8V17.5V17.4H20.2L20.1 17.3V17.2L20.2 17.1L20 16.8H19.9H19.8V16.9H19.7L19.6 16.6H19.5V16.5V16.4H19.4V16.3H19.3L19.4 16.2V16.1V16H19.5V15.9H19.4V15.8H19.3V15.7V15.6H19.2V15.7H19.1V15.6H19V15.5H19.1H19.2V15.4V15.3H19.1V15.2V15.1V15H19.2H19.3H19.4V15.1H19.5V15.2H19.6V15.1M19.6 15.1H19.7M19.6 15.1V14.9V14.8V14.7H19.7V14.8H19.8V14.7H19.9V14.6V14.5H20M20 14.5H20.1M20 14.5V14.4V14.3H20.1V14.2V14.1V14H20V13.9L19.8 13.6V13.5V13.4V13.3H19.7H19.6H19.5H19.4L19.3 13.2V13.1L19.5 12.8L19.6 12.6H19.7V12.5H19.8V12.6H19.9V12.7V12.8V12.9V13H20V13.1H20.1H20.2L20.3 13H20.4V12.9L20.5 12.8V12.7H20.6V12.6H20.7H20.8H20.9H21V12.7H21.1L21.2 12.6V12.5H21.3V12.3V12.2V12.1H21.4V12V11.9H21.5L21.6 11.8L21.7 11.7H21.8H21.9V11.6V11.5H21.8L21.7 11.4V11.3H21.6V11.2H21.7L21.8 11L21.9 10.9V10.8V10.7M21.9 10.7H22M21.9 10.7V10.6H21.8H21.7H21.6V10.5V10.4V10.3V10.2V10.1H21.5V10V9.90001H21.4V9.8H21.5V9.70001V9.6V9.50001H21.6L21.7 9.8L22 9.50001H22.2L22.6 8.90001H22.7L22.9 8.50001V8.40001V8.3H22.8M22.8 8.3V8.40001H22.7M22.8 8.3H22.7V8.40001M22.8 8.3V8.20001H22.7M22.7 8.40001H22.6M22.6 8.40001V8.50001M22.6 8.40001H22.5M22.6 8.40001V8.3M22.7 8.20001V8.1V8.00001M22.7 8.20001H22.6H22.5H22.4V8.1L22.5 8.00001H22.6V7.90001H22.7V8.00001M22.7 8.00001L22.8 7.90001H22.9V7.8V7.70001L22.8 7.8H22.7V7.70001H22.8L22.9 7.6V7.50001H22.8M22.8 7.50001V7.6M22.8 7.50001V7.40001V7.3V7.20001H22.9V7.1H22.8V7.00001H22.9V6.90001L23 6.8L23.1 6.90001H23.2H23.3V6.8V6.70001H23.2V6.6L22.9 6.3L23.3 5.90001L23.6 6.20001V6.1H23.7V5.90001H23.6M23.6 5.90001V6.00001M23.6 5.90001V5.8V5.70001V5.6V5.50001H23.5V5.40001L23 5.20001V5.1V5.00001V4.90001H22.9V4.8V4.70001H23H23.1L23.2 4.8L23.3 4.90001L23.4 5.00001H23.5H23.6V4.90001L23.7 4.8V4.70001L23.8 4.50001V4.40001V4.3H23.9H24L24.1 4.20001L24.2 4.1L24.3 4.00001V3.90001V3.8H24.4V3.70001V3.6H24.5V3.50001L24.8 2.90001H25.5L25.9 2.6V2.50001L26.2 2.40001L26.9 1.70001L27.6 1.3L28.6 2.70001L28.5 3.50001H28.3H28.2V3.6H28.1V3.70001V4.00001V4.1V4.20001L28 4.3L27.9 4.40001M27.9 4.40001V4.50001M27.9 4.40001H27.8V4.50001L27.7 4.6V4.70001L27.8 5.00001L28.1 5.20001H28.3V5.8L29.1 7.1L30.2 7.00001L31.4 5.90001L31.9 5.3L32.3 4.90001L32.6 4.70001L32.9 4.3L33 4.20001H33.1V4.1L33.4 3.90001L33.7 3.50001L35.1 2.90001L37.6 1.70001L38.1 1.50001L39.7 1.20001L40.4 1.10001H41.2H42.7L44 1.60001L44.5 2.40001L44.9 3.50001L45.7 4.90001L46.7 5.90001L48.8 7.3L49.8 8.6L51 11.4L51.7 12.3L55 14.5L55.8 15.4L56.6 16.7L56.7 16.8V16.9L57.1 17.7L57.4 18.5L57.6 19.3V20.2L56.7 22.1V22.5L56.9 23.9L57 26.6L57.3 28.2L57.9 29.6L58.9 31.4L59.1 32.8L58.7 34V34.7H61.2L62.2 35.5L64.1 37.9L64.4 38.2L65.1 38.7L65.4 39L65.5 39.4L65.7 40.5V40.7L66.3 40.9L66.9 40.6L67.2 40.5H67.8L68.7 41.1L70.4 43L71.4 43.7L72.6 44.9L73.3 45.7L74.5 48.5V48.6L74.7 48.9V52.3L73.4 53.9H73.3H73.2V54H73.1M73.1 54V53.9M73.1 54H73H72.9V54.1H72.8H72.7H72.6H72.5V54.2H72.4H72.3M72.3 54.2V54.3M72.3 54.2H72.2V54.3H72.1V54.2H72V54.1H71.9M71.9 54.1V54.2M71.9 54.1L71.8 54.2H71.7V54.1H71.6H71.5V54H71.4H71.3V54.1H71.2H71.1L71 54.2V54.1H70.9M70.9 54.1V54.2M70.9 54.1H70.8H70.7H70.6V54H70.5H70.4H70.3H70.2M70.2 54L70.3 53.9H70.2V54ZM70.2 54H70.1M70.1 54H70M70.1 54V53.9H70V54M70 54H69.9V53.9H69.8H69.7V53.8V53.7H69.6V53.6L69.5 53.7V53.6H69.4L69.3 53.7V53.8L69.2 53.9L69.1 54V54.1V54.2H69V54.3H68.9V54.4V54.5V54.6H68.8V54.7H68.7H68.6V54.8H68.5L60.3 56.8L58.3 58L58.2 58.3L57.9 59.9L58.4 60.7L60.2 61.2L60.9 61.7L61.1 62.3L61.4 63.9L61.6 64.7L61.9 65.3L64.1 67.7L64.7 68.9L65.1 70.3L65.2 72.1L65.1 72.9L64.7 74.4L64.5 75.1L64.6 76L64.8 76.7L64.9 77.4L64.8 78.2L64.4 78.7L63.3 78.9L63 79.4L63.2 80.1L63.7 80.7L64.7 81.7L65.5 82.2L66.3 82.5L67.2 82.7H68L69 82.1L69.4 84.8L69.3 84.7H69.2V84.8H69.1V84.9H69H68.9L68.8 84.8L68.7 84.7H68.6V84.6L68.5 84.5H68.4H68.3L68.2 84.7L68.1 84.8L68 84.9L68.1 85.1H68.2V85.3L68.3 85.5L68.4 85.6V85.9H68.3L68.2 86L68.1 86.1V86.2H68V86.5V86.6V86.7H68.1V86.8L68 86.9H67.9V86.8H67.8V86.7V86.6H67.7V86.5H67.6L67.5 86.6V86.7V86.8V87.1V87.2L67.4 87.4L67.3 87.5V87.6V87.7V87.8H67.2V87.7H67.1L67 87.6V87.5H66.9H66.8V87.6H66.7V87.7H66.6H66.5V87.8L66.4 87.9M66.4 87.9H66.5" stroke="white" stroke-width="0.5" stroke-linecap="round" stroke-linejoin="round"/>
</g>
</svg>
