<svg width="88" height="138" viewBox="0 0 88 138" fill="none" xmlns="http://www.w3.org/2000/svg">
<g id="UA61">
<path d="M46.6 124.8H46.5L46.4 124.7H46.3V124.6L46.2 124.5V124.4V124.3V124.2L46.3 124.1L46.4 124L46.5 123.9L46.6 123.8L46.8 123.7L47 123.6L47.2 123.4H47.3L47.4 123.3L47.5 123.2L47.6 123L47.7 122.9V122.8L47.8 122.7V122.6V122.5V122.4V122.3V122.2L47.7 122.1L47.6 122L47.5 121.9L47.3 121.8H47.1L46.9 121.7L46.7 121.6H46.4H46.2L46 121.5H45.9L45.8 121.4L45.7 121.3V121.2L45.6 121V120.9L45.7 120.8V120.7V120.6L45.9 120.5L46.3 120.1H46.5L46.7 120L46.8 119.9H46.9V119.8L47 119.7L47.1 119.6L47.2 119.5V119.4V119.3V119.2V119.1L47.1 119V118.9H47L46.9 118.7L46.7 118.6H46.6L46.3 118.4L46.2 118.3L46.1 118.2L45.9 118.1H45.8L45.6 118H45.5V117.9H45.4H45.3L45.2 117.8L45.1 117.7L45 117.6L44.8 117.4L44.7 117.3L44.5 117L44.3 116.8L44.2 116.7L44.1 116.5H44V116.4H43.9L43.8 116.2L43.7 116.1L43.6 115.9L43.5 115.8L43.3 115.6L43.2 115.5L43.1 115.4H43L42.8 115.2H42.7V115.1H42.6L42.5 115H42.4V114.9H42.3H42.2H42H41.9H41.7H41.5H41.4H41.3L41.2 114.8H41.1H41L40.9 114.7H40.8H40.7H40.6L40.4 114.6H40.3L40.2 114.5L40.1 114.4L40 114.3H39.9V114.2L39.8 114L39.7 113.9V113.8H39.6V113.7H39.5L39.4 113.6L39.3 113.5L39.2 113.4H39.1L39 113.3H38.9L38.7 113.2L38.6 113.1L38.5 113H38.4H38.3L38.2 112.9H38.1L37.9 112.8L37.8 112.7L37.7 112.6L37.6 112.5V112.3V112.2V112.1V112L37.7 111.9H37.8V111.8H37.9L38.1 111.6V111.5L38.2 111.4L38.3 111.3L38.4 111.2L38.5 111V110.9L38.6 110.8H38.5V110.7V110.6H38.4V110.5H38.3V110.4H38.2L38.1 110.3H38L37.9 110.2L37.8 110H37.7L37.6 109.9H37.4L37.3 109.8H37.2L37.1 109.7L37 109.6H36.9H36.8H36.7L36.6 109.7H36.5V109.8H36.4V109.9V110V110.1V110.2V110.3L36.5 110.4L36.6 110.6L36.7 110.7L36.9 110.9L37 111.2V111.3V111.4V111.5V111.6H36.9L36.8 111.7V111.8H36.6H36.5H36.4H36.3H36.1L36 111.7H35.9L35.7 111.6L35.4 111.5H35.2L35 111.4L34.9 111.3L34.8 111.2H34.7H34.6H34.5L34.4 111.1L34.3 111L34.1 110.9H34H33.9L33.8 110.8H33.6L33.5 110.7L33.4 110.6H33.3H33.2H33.1H33H32.9L32.8 110.5L32.7 110.6H32.5H32.4L32.3 110.7H32.2V110.8H32.1V110.9V111V111.1V111.2V111.3V111.4V111.5V111.6V111.7L32.2 111.8V111.9V112.1L32.3 112.2H31.9H31.5H31.4H31.3V112V111.9V111.8V111.7L31.2 111.6H31.1V111.5H31H30.9H30.8H30.7L30.6 111.6H30.5L30.3 111.7H30.2L30.1 111.8H30L29.9 111.7H29.8H29.7H29.6V111.6H29.5V111.5L29.4 111.4V111.3V111.2V111.1V111V110.9V110.8H29.3V110.7V110.6L29.2 110.5V110.4V110.3H29.1H29L28.9 110.2L28.7 110.1H28.6L28.4 110H28.2H28.1H28H27.9H27.7H27.6H27.5H27.4H27.2H27H26.9V110.1H26.8V110.2L26.7 110.3V110.4L26.6 110.5V110.6V110.8L26.5 111.1V111.3L26.4 111.4L26.3 111.5L26.2 111.6H26H25.8H25.7H25.6H25.5V111.5H25.4V111.4V111.3V111.2L25.5 111V110.8L25.6 110.7L25.7 110.5L25.8 110.4V110.3L25.9 110.1L26 110V109.8L26.1 109.6L26.2 109.5V109.4L26.3 109.2V109.1L26.4 108.9V108.8V108.6L26.5 108.5V108.4V108.3V108.2V108.1V107.9V107.8V107.7V107.6V107.5V107.3V107.2V107.1V107V106.9V106.8V106.7V106.6L26.6 106.5V106.4L26.7 106.3L26.8 106.2V106.1V106L26.9 105.8V105.7V105.6V105.5V105.4V105.3L26.8 105.2V105.1L26.7 105H26.6H26.5H26.4H26.3L26.2 105.1L26.1 105.2L26 105.3L25.9 105.4L25.8 105.5V105.6H25.7V105.7H25.6H25.5V105.8H25.4L25.3 105.7H25.2L25.1 105.6L25 105.5H24.9L24.8 105.4L24.7 105.3H24.6H24.5V105.4V105.5V105.6V105.7L24.6 105.8V105.9L24.7 106H24.8V106.1L24.9 106.2V106.3L24.8 106.4V106.5H24.7V106.6H24.6V106.7L24.3 106.9L24.1 107.1L23.9 107.4L23.8 107.5H23.7H23.6L23.5 107.6V107.7V107.8H23.4V107.9H23.3V108V108.1V108.2L23.4 108.3V108.4H23.5L23.6 108.5V108.6V108.7V108.9V109V109.1V109.2V109.3V109.4V109.5L23.5 109.6V109.8L23.4 109.9H23.3L23.2 110.1H23.1H23H22.9L22.7 110L22.6 109.9L22.5 109.8L22.4 109.7H22.3L22.2 109.6V109.5H22.1L22 109.4H21.8V109.3V109.2V109.1V109V108.9V108.8L21.7 108.7V108.6V108.5V108.4V108.3V108.2V108.1V108L21.6 107.9L21.5 107.6L21.4 107.5V107.3V107.2V107.1L21.3 106.9V106.8V106.7L21.2 106.6L21.1 106.4L21 106.3L20.9 106.1V105.9L20.8 105.8V105.7V105.6V105.5H20.9V105.4L21 105.3L21.1 105.2L21.4 105.1L21.5 105L21.7 104.9L21.8 104.8L21.9 104.7L22 104.6L22.1 104.5L22.2 104.4V104.3H22.3V104.2V104.1V104L22.2 103.9L22.1 103.8L21.9 103.7L21.8 103.6H21.7L21.6 103.5V103.4V103.3L21.5 103.2H21.4L21.3 103.1L21.2 103H21L20.9 102.9H20.8L20.6 102.8V102.7L20.5 102.6H20.4V102.5L20.3 102.4H20.4L20.5 102.3V102.2V102.1L20.4 102V101.9V101.8H20.3V101.7V101.6V101.5V101.4V101.3V101.2V101L20.4 100.9V100.8L20.5 100.7V100.6L20.7 100.4L20.8 100.3V100.2L20.7 100.1L20.6 100H20.5H20.4V100.1H20.3V100.2H20.2L20.1 100.3V100.4L20 100.5V100.6L20.1 100.7L20 100.8H19.9L19.8 100.9V101H19.7L19.8 101.1H19.7V101.2H19.6H19.5V101.3H19.4H19.3V101H19.2H18.9H18.8L18.7 100.9H18.8V100.8H18.7V100.7H18.6H18.5L18.4 100.6L18.2 100.5H18.1H18H17.9V100.4H17.8H17.7L17.6 100.3H17.5L17.4 100.2V100.1V100H17.3L17.2 99.9H17.1H17H16.9V99.8H16.8V99.7H16.7H16.6V99.6V99.5H16.5V99.4H16.4L16.3 99.3L16.2 99.2L16.1 99.1H16V99H15.9L15.8 98.9H15.7V99H15.6L15.5 99.1L15.4 99.2H15.3V99.3H15.2V99.4H15.1L15 99.5L14.8 99.6L14.5 99.8H14.4H14.3L14 100L13.7 100.1L13.5 100.2L13.2 100.3L13.1 100.4V100.2V100.1V100V99.9H13.2L13.3 99.8L13.4 99.7V99.6L13.5 99.5V99.4V99.3V99.2L13.4 99.1V99L13.3 98.9L13.2 98.8L13.1 98.7L13 98.6L12.9 98.5V98.4V98.3L12.8 98.2L12.7 98.1H12.6L12.5 98L12.4 97.9H12.3L12.2 97.8L12.1 97.7L12 97.6H11.9V97.5H11.8H11.7V97.4H11.6V97.3L11.5 97.2V97.1V97H11.4L11.3 96.9H11.2V96.8H11.1L11 96.6L10.8 96.5L10.7 96.4V96.3H10.6V96.2L10.5 96.1V96L10.4 95.9H10.3H10.2H10.1L9.99997 95.8V95.7V95.6V95.5V95.4H10.1V95.3V95.2V95.1V95V94.9V94.8V94.7H10.2V94.6H10.3H10.4H10.5V94.5V94.4V94.3V94.2H10.6V94.1V94L10.5 93.7H10.4L10.5 93.6L10.6 93.5L10.7 93.4L10.9 93.5V93.4H11L11.4 93.5L11.9 93.6L12 93.8L12.1 93.6L12.3 93.7H12.4L12.8 93.9H12.9V94L13 93.9L13.1 94V94.2H13.3H13.4H13.5L13.9 94.3H14L14.1 94.2L14.2 94.3H14.3H14.4V94.2L14.5 94V93.9V93.8V93.7H14.3V93.4H14.2V93.5V93.7H14L13.9 93.6L13.7 93.5L13.5 93.4L13.6 93.3V93.2V93.1H13.7L13.8 93V92.9H13.9L13.8 92.8V92.7V92.6V92.5L13.7 92.4L13.6 92.3V92.2L13.7 92.1V92V91.9V91.8V91.7H13.8V91.6V91.5H13.9V91.4V91.3L14 91.2V91.1V91V90.9V90.8V90.7H13.8V90.6L13.6 90.5H13.5L13.4 90.4H13.3V90.3L12.8 90H12.7V89.9L12.6 90L12.5 90.1H12.4H12.3H12.2L12 90H11.9H11.7H11.6H11.5H11.3H11.2V89.9H11.1H10.9H10.8H10.7H10.4H10.2H9.99997V89.8H9.89996H9.79997V89.7L9.69997 89.6V89.5V89.4H9.59998V89.3L9.49997 89.2V89.1V89H9.39996L9.19997 88.8L9.09998 88.7H8.99997V88.6H8.89996V88.5H8.79997V88.4L8.69997 88.2V88.1H8.59998L8.49997 87.8L8.39996 87.7L8.29997 87.6L8.19997 87.5V87.4V87.3H8.09998L7.99997 87.4L7.89996 87.5V87.4H7.79997V87.3V87.2H7.69997H7.59998V87.1L7.69997 87V86.9V86.8H7.59998V86.7V86.6L7.69997 86.5V86.4V86.3V86.2V86.1V86L7.79997 85.9L7.99997 85.7L8.09998 85.6L8.19997 85.5L8.29997 85.4L8.39996 85.3L8.49997 85.2L8.69997 84.9L8.99997 84.7L9.09998 84.6L9.19997 84.5V84.4L9.29997 84.2V84.1H9.39996V84L9.59998 83.5L9.79997 83.2L10.1 83L10.4 82.7L10.5 82.6H10.6V82.5H10.8L10.9 82.4L11 82.3L11.2 82.2L11.5 82.1V81.9V81.8V81.7V81.6L11.4 81.5H11.3L11.2 81.4H11H10.9H10.8H10.7H10.6L10.5 81.3H10.4H10.3L10.2 81.2H10.1L9.99997 81.1H9.89996V81H9.79997L9.69997 80.8H9.59998V80.7H9.49997V80.6H9.39996H9.29997V80.5L9.19997 80.4H9.09998V80.3H8.99997H8.89996L8.69997 80.2V80.1H8.59998L8.49997 80L8.39996 79.9H8.29997H8.19997H8.09998H7.99997H7.89996H7.79997L7.69997 79.8H7.59998L7.49997 79.7H7.39996L7.29997 79.6H7.19997H7.09998V79.5H6.99997V79.4V79.3V79.2V79V78.9V78.8V78.7L6.89996 78.4V78.2L6.79997 77.9H6.69997H6.59998L6.49997 77.8H6.39996H6.29997H6.19997V77.7V77.4V77.2L6.29997 77.1V77V76.8V76.6V76.4V76.3H6.39996V76.2V76.1H6.29997V76V75.9L6.19997 75.8V75.7V75.6V75.4V75.2V75L6.49997 75.1L6.59998 74.9V74.8L6.69997 74.7L6.79997 74.8V74.7V74.6L6.89996 74.5V74.4V74.3L6.99997 74.2V74.1V74V73.8L7.29997 73.9V73.7V73.4L7.39996 73.2V73.1H7.49997H7.59998H7.69997H7.79997V73L7.69997 72.9L7.59998 72.8L7.49997 72.7L7.39996 72.6H7.29997V72.5H7.09998L6.99997 72.4V72.3H6.89996L6.79997 72.2L6.69997 72.1L6.59998 72V71.9L6.49997 71.8V71.7L6.39996 71.6V71.5V71.3V71.2H6.29997V71.1L6.39996 71V70.9L6.29997 70.8V70.7V70.6L6.19997 70.4V70.3V70.2H6.29997V70.1V70H6.19997L6.09998 69.9H5.79997H5.59998L5.39996 69.6H5.29997L4.69997 70.2L4.59998 70.3H4.39996H4.09998H3.89996H3.69997V70.2H3.79997V70.1L3.69997 70H3.59998V69.9L3.49997 69.8V69.6V69.5V69.4H3.39996V69.3L3.49997 69.1V69V68.9V68.8V68.7V68.6V68.5L3.39996 68.4V68.3V68.2H3.49997V68.1V68V67.9V67.8H3.39996V67.7V67.6V67.5H3.29997V67.4V67.3V67.2H3.19997V67.1L3.09998 67V66.9H3.19997L3.29997 66.8V66.7V66.6V66.5V66.4L3.19997 66.3L3.09998 66.2V66.1V66H2.99997V65.9L2.89996 65.8V65.7L2.79997 65.6V65.5H2.69997L2.59998 65.4L2.49997 65.3L2.39996 65.2V65.1H2.29997V65V64.9V64.8L2.19997 64.7V64.6V64.5H2.09998V64.4V64.3H1.99997V64.2V64.1V64L2.09998 63.9L1.99997 63.8V63.7H1.89996V63.6H1.79997L1.69997 63.5V63.4L1.59998 63.3L1.49997 63.1H1.39996V63V62.9L1.29997 62.8V62.7H1.19997V62.6H1.09998H0.999969V62.5V62.4L1.19997 62.3V62.2V62V61.9H1.29997V61.8H1.19997V61.7H1.09998V61.6H0.999969L0.899963 61.5H0.799973V61.4V61.3V61.2V61.1V61V60.8V60.7L0.899963 60.6V60.5V60.4H0.799973V60.3V60V59.9V59.8L0.699966 59.6V59.5V59.4V59.3V59.1V59V58.9V58.8L0.599976 58.7H0.699966V58.6H0.799973H0.899963V58.5V58.4V58.3V58.2V58.1V58V57.9H0.999969V57.8V57.7H1.09998V57.6V57.5H1.19997V57.4L1.09998 57.3V57.1V57L0.999969 56.9V56.8V56.7V56.6V56.5H0.899963V56.4V56.3V56.2V56.1V56H0.799973V55.9V55.8L0.699966 55.7H0.599976L0.699966 55.6H0.799973L0.899963 55.5H0.999969H1.09998H1.19997V55.6V55.7L1.39996 55.6H1.59998H1.79997H1.99997H2.19997L2.39996 55.5H2.59998H2.69997L2.79997 55.6V55.5V55.4H2.89996H2.99997V55.5H3.09998H3.29997H3.59998H3.79997H3.99997H4.29997H4.39996V55.3L4.49997 55.1V54.9L4.59998 54.7V54.6L4.69997 54.5V54.4H4.79997V54.3H4.89996L5.29997 54.4H5.49997H5.59998V54.3H5.69997V54.2H5.79997V54.1H5.89996V54H5.99997L6.09998 53.9H6.19997H6.29997V54L6.39996 54.1V54.2V54.3V54.4V54.5V54.6V54.7L6.49997 54.9H6.59998H6.69997L6.79997 54.8V54.7V54.6V54.5V54.4V54.3L6.69997 54.2L6.59998 54.1L6.69997 54L6.59998 53.7L6.49997 53.6V53.4H6.99997V53.3H7.09998H7.19997H7.39996L7.59998 53.4H7.69997H7.99997H8.09998V53V52.9L8.19997 53H8.29997H8.39996V52.9H8.29997V52.8V52.7H8.39996V52.6H8.49997H8.59998L8.79997 52.7H8.89996H8.99997V52.8V52.9V53L9.09998 53.1V53.2H9.19997L9.29997 53.3H9.39996H9.59998H9.69997L9.79997 53.4H9.89996H9.99997L10.1 53.2H9.99997V53.1V53H9.89996V52.9V52.8H9.99997V52.7H9.89996V52.6H9.79997H9.69997V52.5H9.79997L9.89996 52.4L9.99997 52.3H10.1V52.2H10.2H10.3H10.4H10.6L10.7 52.3H10.8L11 52.5L11.1 52.6H11.3L11.5 52.7H11.8H11.9V52.6V52.4L11.8 52.3V52.2L11.6 52.1H11.5H11.4L11.3 52H11.6H11.9H12H12.1H12.2H12.3V52.1L12.2 52.2H12.4H12.5L12.6 52.1V52V51.9H12.7V51.8V51.7L12.8 51.6V51.5V51.4V51.3H13V51.2V51.1V51V50.9H13.1V50.8V50.7V50.6V50.5V50.4L13.2 50.2H13.3L13.6 50.3L14 50.5V50.4L14.1 50.3V50.2L14.2 50.1V50H14.3L14.4 49.8L14.3 49.7V49.6L14.2 49.5V49.4V49.3L14.3 49V48.8V48.6L14.4 48.5H14.5H14.6H14.7L14.6 48.4V48.3V48.2V48V47.8V47.6L14.7 47.1V46.9L14.8 46.7V46.4V46.2V46.1V46L14.9 45.9L14.8 45.6L14.9 45.5V45.4L15 45.2L15.1 45L15.3 44.5V44.4L15.5 44.1L15.6 43.8L15.7 43.5L15.8 43.3L15.9 43.1V43L16 42.8V42.7L16.1 42.8H16.3L16.4 42.9H16.5V43H16.6L16.7 43.1H16.8L17 43.2H17.1V43.3H17.2V43.4L17.5 43.7L17.7 44L17.9 44.2V44.3V44.4H18V44.5H18.1L18.2 44.6H18.3L18.6 44.4L18.5 44.2L18.8 44L18.9 43.9L19 43.7L19.2 43.5L19.6 43.2L19.7 43.3L19.8 43.1L19.9 43L20.2 42.7L20.4 42.4L20.5 42.3L20.6 42.2V42.1L20.7 42V41.9H20.6V41.8L20.5 41.7V41.6H20.4L20.2 41.3L20.1 41.2V41.1L19.8 41H19.6L19.5 40.9L19.4 40.8H19.3V40.7V40.6H19.2L19 40.4L18.9 40.3H18.8L18.7 40.2L18.5 40.1L18.6 40L18.7 39.9V39.7V39.4L19.2 39.5L19.3 39.4V39.3L19.4 39.2V39.1V39V38.9V38.8V38.7V38.6H19.3V38.5V38.4L19.2 38.3V38.2V38.1V38H19.1V37.8V37.7V37.5V37.4V37.3V37V36.8V36.7V36.6L19 36.4V36.2V36L19.1 35.7V35.6H19.2H19.4V35.7H19.5L19.7 36L19.8 36.1H20H20.1L20.2 36.2H20.3V36.3H20.4H20.5H20.6H20.7H20.8H20.9H21H21.1H21.2H21.3V36.4L21.4 36.3V36.4H21.5H21.6H21.7V36.5H21.8V36.6L21.9 36.5H22L22.1 36.4V36.3V36.2V36.1V36L22.2 35.9V35.8V35.7V35.6H22.3H22.4H22.5V35.5L22.6 35.4V35.3L22.5 35.2V35.1H22.6H22.7H22.8H22.9H23H23.1L23.2 35.2H23.3H23.4H23.5H23.6L24 34.8H24.1V34.9H24.2L24.4 35H24.5H24.6L24.7 35.1H24.8L24.9 35.2H25H25.1L25.2 35.3H25.3L25.4 35.4H25.5V35.5V35.6V35.7H25.6H25.7H25.8H25.9H26L26.1 35.8H26.2H26.3H26.4H26.6L26.8 35.9H26.9L27 35.8H27.2L27.3 35.7L27.4 35.6V35.5V35.4V35.1H27.8V34.9H28.1V35.1V35.2H28.2L28.3 35.3L28.4 35.2H28.5V35.3V35.4H28.6H28.7H28.8V35.5H28.9H29H29.1H29.2V35.6H29.3V35.5H29.4V35.4H29.5V35.3L29.6 35.2L29.7 35.1V35V34.9V34.8H29.6V34.7H29.5V34.6H29.6V34.4L29.7 34.3H29.8L29.9 34.2H30V34.1V34V33.9H29.9H29.8L29.9 33.8V33.7L30 33.6H30.1H30.2H30.3H30.4H30.5L30.6 33.5H30.7V33.4H30.8H30.9H31L31.4 33.3L31.8 33.1V32.8H31.9H32H32.1H32.2H32.3H32.4V32.9H32.5V32.8H32.6H32.7L32.8 32.7H32.9H33L33.2 32.6H33.3H33.5H33.6L33.8 32.5V32.4V32.3V32.2H33.7V32.1V32H33.6V31.9V31.8H33.7L33.8 31.7H33.9H34H34.1V31.6V31.5V31.4V31.3V31.2V31.1L34.2 31V30.9L34.3 30.8V30.7V30.6L34.4 30.5V30.3L34.5 30.2V30.1V30L34.4 29.9V29.8L34.3 29.7V29.6H34.2V29.5H34.1V29.4V29.3H34V29.2V29.1H33.9V29V28.9V28.8L34 28.6V28.5L34.1 28.4L34.2 28.3V28.2L34.3 28.1V28V27.9H34.4V27.8V27.7V27.6V27.5V27.4V27.3H34.5V27.2H34.6H34.7V27.3L34.8 27.2H34.9L35 27.1L35.1 27H35.2L35.3 27.1H35.4H35.5H35.6L35.7 27.2H35.8H35.9L36 27.1V27H36.1V26.9H36.2H36.3H36.4V26.8V26.6H36.3L36.2 26.5L36 26.3H35.9L35.8 26.4H35.7V26.3H35.6H35.5H35.4V26.2H35.3H35.2V26.1V26V25.9L35.1 25.8V25.7V25.6L35.2 25.5L35.3 25.3V25.1L35.4 24.9H35.5L35.6 24.6L35.7 24.5L35.6 24.4V24.2L35.5 24.1V24L35.4 23.9V23.8V23.7L35.3 23.6V23.5V23.4H35.2V23.2H35.1L34.9 23.1L34.7 23H34.5L34.3 22.9H34.1L33.9 22.8H33.8L33.7 22.7L33.6 22.6H33.5L33.4 22.5H33.2V22.4H33.1L33 22.3L32.9 22.2L32.8 22.1L32.5 21.9V21.8L32.7 20.7L32.8 20.8H32.9H33.1V20.6L33.2 19.3L33.3 18.5H33.4L33.5 18.4H33.6H33.8L34 18.3H34.2L34.3 18.2V18.3V18.4H34.4H34.5H34.6V18.3H34.7V18.2H34.8H35.1H35.4H35.5H35.7H35.9H36V18.1H36.1H36.2H36.3L36.4 18H36.5L36.6 17.9H36.7V17.6L36.8 17.3V17.2L36.9 16.9V16.6H37V16.5V16.4H37.2V16.3H37.3H37.4L37.6 16.2V16.1V16V15.7L37.9 15.6V15.4L37.8 14.9V14.8V14.7H38.1H38.4L38.3 14.4L38.6 14.3L39.1 14.2L39.5 14.1V14V13.9V13.8L39.4 13.7V13.5L39.3 13.3V13.1H39L38.7 13H38.5H38.3L38.1 12.9H38H37.9H37.8V12.8L37.7 12.7L37.6 12.5L37.5 12.4V12.3V12.2V11.9V11.2V10.7V10.6V10.5V10.3L37.6 10.2L37.7 10.1L37.8 10L38 9.8L38.4 9.5L38.6 9.3L38.9 9H39L39.3 9.10001H39.6H39.8H40L40.1 9.2H40.2L40.3 9.3V9.39999H40.2L40.1 9.5V9.7V9.8H40.3L40.6 9.89999H40.8L41.2 10H41.6L42.1 10.1L42.6 10.2H42.7H42.8H42.9V10.1L43 9.89999L43.1 9.8V9.7L43.2 9.60001L43.3 9.5V9.3L43.4 9.2L43.5 9.10001V8.89999H43.6V8.8L43.7 8.7V8.60001V8.5H43.8V8.39999L43.9 8.3V8.2L44.1 8.3H44.2V8.39999H44.3L44.5 8.60001L44.7 8.7L44.9 8.8L45.1 9L45.3 9.10001L45.4 9.2L45.6 9.3H45.7L45.9 9.60001L46.1 9.8V9.89999L46.2 10L46.4 10.1H46.5L46.8 9.89999L47.1 9.7L48.4 8.89999V8.8H48.5V8.7H48.6L48.7 8.60001H48.8L48.9 8.5L49.1 8.39999L49.3 8.3L49.5 8.10001H49.6L49.8 8V8.10001H49.9L50 8.2L50.1 8.39999L50.3 8.60001H50.4H50.5H50.7L50.8 8.5H50.9H51H51.1H51.2H51.3V8.39999V8.3H51.4L51.3 8.2H51.4V8.10001L51.5 7.7L51.6 7.39999L52.1 7.5V7.60001L52.5 7.7H52.6L52.7 7.8L52.9 7.89999L53 8H53.1H53.4L53.6 7.89999H53.7H53.9H54H54.2L54.5 7.7H54.7L54.9 7.60001L55 7.5H55.1V7.60001H55.2H55.3H55.4H55.5H55.6L55.7 7.7H55.8H55.9L56 7.8V7.7H56.1V7.8H56.2H56.3V7.7H56.4H56.5H56.6L56.7 7.60001H56.8H56.9V7.5H57L57.1 7.39999H57.2H57.3H57.4V7.3H57.5H57.7V7.2H57.8H57.9H58V7.10001H58.1V7H58.2L58.3 6.7L58.6 6.3L58.7 6.10001L58.8 6V5.89999V5.7H58.7V5.60001H58.8V5.5V5.39999L58.9 5.3H59V5.2L59.1 4.89999V4.8H59.2H59.3L59.4 4.7H59.5V4.60001L59.7 4.39999L59.9 4.10001L60.1 3.8L60.2 3.60001L60.8 3.10001L60.9 3L61.4 2.60001V2.5V2.3V2.2V2.10001H61.5L61.6 2H61.7L61.9 1.89999H62.1H62.2H62.3L62.4 1.8L62.5 1.89999H62.6L62.8 2L62.9 1.89999H63L63.1 1.8H63.2L63.3 1.89999H63.4H63.5V2.10001H63.6V2.2L63.7 2.3V2.39999V2.5H63.8V2.7L63.9 2.8H64.1H64.2H64.3H64.5H64.6H64.7V2.7H64.9V2.8V2.89999V3H65L65.2 3.10001L65.3 3.2H65.4L65.5 3.3V3.39999L65.6 3.5L65.7 3.60001V3.7V3.8V3.89999V4V4.10001H65.8H65.9H66H66.1H66.2H66.3L66.4 4L66.7 3.7L66.9 3.5L67 3.39999L67.4 3L67.6 2.8L67.7 2.7L67.8 2.60001L67.9 2.5L68 2.3H68.1L68.2 2.10001H68.3V2H68.4H68.5L68.6 2.10001H68.7L69 2.3H69.1V2.39999H69.4H69.5L69.7 2.5L70.3 2.7L70.7 2.89999L70.9 3L71.6 3.3L72 3.39999H72.1V3.5H72.2H72.3H72.4V3.60001H72.5H72.7L72.8 3.7H72.9H73L73.2 3.8H73.3L73.5 3.89999H73.6H73.7V3.8H73.6L73.7 3.7V3.60001V3.5L73.8 3.39999V3.3L73.9 3.2V3.10001H73.8V3H73.9V2.89999L74.2 2.5L74.3 2.3L74.6 1.89999V1.8L74.7 1.7H74.8L74.9 1.5L75 1.39999H75.3H75.5H75.8H75.9H76.1H76.2L76.3 1.3L76.2 1.10001H76.3H76.5V1.2V1.3V1.39999V1.5V1.60001V1.7V1.8L76.4 1.89999H76.3V2V2.10001V2.3V2.5V2.60001H76.2V2.8H76.3V3.10001V3.3V4H76.2H76.1H76H75.9H75.7L75.6 3.89999V4H75.5H75.4L75.3 4.10001H75.2V4.2H75.1H75L74.9 4.10001L74.8 4H74.7V4.10001V4.3V4.39999V4.5V4.7V4.8V5H74.8L75 4.89999L74.9 5L74.7 5.60001L74.4 6.60001L75.1 6.89999L75 7L75.1 7.2L75.2 7.3L75.3 7.39999H75.4V7.5H75.6H75.8H75.9L76 7.60001H76.1V7.7H76.2L76.4 8V8.10001H76.3L76.1 8.2L76 8.3V8.39999V8.5H76.1V8.60001L76.2 8.7L76.3 8.89999L76.4 9L76.5 9.10001L76.4 9.2H76.3V9.3H76.2V9.39999V9.5L76.3 9.60001V9.7L75.9 9.8H75.8V9.89999V10H75.9V10.1H76V10.2H76.1V10.3H76.2V10.4H76.3V10.5H76.4L76.5 10.6H76.6V10.7V10.8V10.9H76.7H76.8H76.9H77V10.8H77.1L77.2 10.7H77.3H77.4L77.5 10.8H77.6L77.3 11.5L77.2 11.6V11.7V11.8L77.4 11.9L77.5 12H77.6L77.7 12.1L77.8 12.2L78 12.3L78.1 12.4L78.2 12.5L78.3 12.6L78.6 12.8V12.9H78.7L78.8 13L78.9 13.1L79.1 13.2V13.4V13.5V13.6V13.7V13.8V14L78.6 14.1H78.5H78.4H78.1H78H77.9H77.8H77.6L77.4 14.2H77.3H77.2H77.1H76.8H76.7L76.5 14.3H76.4H76.3H75.9L75.7 14.4H75.5H75.4V14.5H75.5V14.6V14.7V14.8H75.6V14.9V15V15.1V15.2V15.3L75.5 15.4V15.5V15.6L75.4 15.8V15.9L75.7 16.1L75.5 16.6V16.8V16.9L75.7 17H76L76.1 17.1L76.2 17.2H76.3V17.3H76.4V17.4H76.5V17.5V17.7V17.8H76.6V17.9H76.7V18L76.6 18.1H76.7V18.2V18.3H76.8V18.4H76.7V18.5H76.6H76.4H76.3V18.6V18.7V18.9V19L76.2 19.2H76.1H76H75.9H75.8H75.7H75.6H75.5H75.4V19.3H75.3L75.2 19.4L75.1 19.5H75V19.6H74.9V19.7H74.8L74.7 19.8H74.6V19.9H74.5H74.4V20H74.3L74.2 20.1V20.2L74.3 20.3V20.2H74.4L74.5 20.3H74.6H74.7V20.4H74.8V20.5H74.9H75H75.1H75.2H75.3H75.4V20.6H75.5H75.6H75.7L75.6 20.8H75.7H75.8H75.9V20.9V21L75.8 21.1V21.2V21.3V21.4L75.7 21.5V21.7L75.6 21.8V21.9V22V22.2V22.3V22.4H75.5V22.5V22.6V22.7H75.4H75.3H75.2H75H74.9H74.8H74.7H74.6H74.5H74.4L74.3 22.6H74.2H74.1H74H73.9V22.7V22.8H73.8V22.9L73.9 23.1H73.8V23.2H73.7L73.6 23.3H73.5H73.4H73.3L73.2 23.4V23.5L73.1 23.6V23.7V23.8V23.9H73H72.9L72.8 24V24.1V24.5V24.6V24.7V24.8V24.9L72.7 25L72.6 25.1V25.2L72.7 25.5L72.9 25.9V26L73 26.5V26.6H73.1L73.2 27.1V27.3L73.3 27.4L73.4 27.7L73.6 28L73.7 28.2H73.6H73.5L73.4 28.3L73.3 28.4H73.2H73.1V28.5H73L72.9 28.6H72.8V28.7H72.6L72.5 28.8H72.4V28.9H72.3V29V29.1V29.2H72.2V29.3L72.1 29.4V29.5L72 29.6V29.8V30V30.1L72.1 30.2L72.3 30.3H72.5H72.6L72.9 30.4L73 30.5V30.6H73.1H73.2H73.3V30.7L73.5 30.8V30.9V31V31.1V31.2V31.3V31.4H73.6L73.7 31.5V31.6H73.8H73.9V31.7H74V31.8H74.1H74.2V31.9H74.3H74.4H74.5H74.6H74.7V32H74.8L74.9 32.1H75L75.1 32.2H75.2V32.3L75.3 32.5H75.4V32.6L75.3 32.8L75.1 32.9V33L75 33.1V33.2H74.9V33.3L74.8 33.4L74.7 33.5L74.5 33.8H74.4V33.9H74.3V34V34.1H74.4H74.5H74.6H74.7V34.2L74.6 34.3V34.4V34.5V34.6H74.7V34.7L74.6 34.8V34.9H74.7V35H74.8L74.9 35.1V35.2V35.3V35.4V35.5H75L75.1 35.6V35.7H75.2V35.8L75.3 35.9V36V36.1H75.4H75.5H75.6H75.7H75.8V36.2V36.3V36.4V36.5V36.6V36.7H75.9V36.8V36.9H76H76.1V37H76.2V37.1V37.2H76.3V37.3L76.4 37.4V37.5H76.3V37.6V37.7V37.8V37.9H76.4V38H76.5H76.6V38.1L76.7 38.2V38.3H76.8V38.4V38.5L76.6 39V39.1V39.2V39.3H76.7V39.4H76.8V39.5H76.9H77L77.1 39.6H77.3H77.4L77.5 39.7H77.4V39.8V39.9H77.3H77.2V40V40.1L77.3 40.2V40.3V40.4V40.5V40.6L77.4 40.7V40.8L77.5 40.9V41V41.1V41.2V41.3V41.4V41.5V41.6V41.7V41.8L77.6 41.9V42L77.5 42.1H77.4L77.3 42.2L77.1 42.4H77V42.5H76.9H76.8V42.6H76.7H76.6L76.5 42.7H76.4H76.3H76.2V42.8H76.1V42.9V43L76 43.1V43.2L75.9 43.3L75.8 43.4L75.7 43.5H75.6V43.6V43.7H75.5V43.8L75.4 43.9V44H75.3V44.1L75.2 44.2V44.3H75.1V44.4H75L74.9 44.5H75V44.6V44.7L75.1 44.8H75.2L75.3 44.9H75.4H75.5H75.6H75.7L75.8 45H75.9L76 45.1H76.1H76.2L76.3 45.2H76.4V45.3H76.5H76.6V45.4V45.5L76.7 45.6L76.8 45.7L76.9 45.8H77H77.1L77.2 45.9L77.4 46H77.5V46.1L77.6 46.2L77.7 46.5V46.6L77.8 46.7V46.9H77.9V47H78V47.1L78.1 47.2L78.2 47.3L78.3 47.4V47.5H78.4L78.5 47.6H78.6L78.7 47.7V47.8H78.8V47.9L78.9 48V48.1V48.2V48.3V48.4V48.5V48.6L79 48.7V48.8L79.1 48.9L79 49H78.9V49.1H78.8H78.7H78.6H78.5L78.4 49.2V49.3V49.4L78.5 49.5V49.6L78.6 49.7V49.8L78.7 50V50.1V50.2H78.6V50.3V50.4L78.5 50.5H78.4L78.3 50.6L78.2 50.7V50.8H78.1L78 50.7H77.9L77.8 50.6H77.7L77.6 50.5H77.5V50.4H77.4H77.3H77.2V50.5H77.1H77L76.9 50.6V50.7V50.8V50.9V51V51.1H76.8V51.2V51.3H76.7V51.4V51.5H76.6V51.6H76.5V51.7H76.4L76.3 51.8H76.2V51.9V52V52.1H76.1V52.2H76V52.3H75.9V52.4V52.5H75.8V52.6H75.7H75.6H75.5H75.4V52.7V52.8V52.9V53H75.5V53.1V53.2V53.3H75.6V53.4H75.7V53.5V53.6L75.8 53.7V53.8H75.9L76 53.9L76.1 54V54.1V54.2V54.3V54.4V54.5V54.6V54.7H76H75.9V54.8H75.8V54.9V55V55.1V55.2L75.9 55.3L76 55.4V55.5H76.1V55.6V55.7V55.8H76.2V55.9L76.1 56V56.1V56.2V56.3V56.4H76.2V56.5V56.6V56.7V56.8H76.3V56.9H76.4V57V57.1V57.2H76.3H76.2V57.3H76.1V57.4H76H75.9V57.5H75.8H75.7H75.6H75.5V57.4V57.3H75.4V57.2V57.1H75.5V57V56.9L75.4 56.8H75.3H75.2H75.1H75V56.7H74.9V56.8H74.8V56.9V57V57.1H74.7H74.6V57.2H74.5H74.4H74.3V57.3H74.2H74.1V57.4V57.5L74 57.6V57.7V57.8L73.9 57.9V58H73.8V58.1L73.7 58.2V58.3H73.6L73.4 58.5V58.6H73.3V58.7V58.8V58.9V59V59.2L73.2 59.3V59.4H73.3V59.5L73.2 59.6L73.1 59.7H73V59.8H72.9V59.9H72.8L72.7 60L72.6 60.1V60.2L72.5 60.3V60.4V60.5H72.6H72.7H72.8V60.6H72.9H73V60.7V60.8V60.9H73.1L73.2 61V61.1H73.3V61.2L73.4 61.3L73.5 61.4L73.6 61.5V61.6H73.7V61.7V61.8H73.8H73.9V61.9H74H74.1V62H74.2L74.3 62.1H74.4V62.2H74.5V62.3L74.6 62.4L74.7 62.5H74.8V62.6V62.7V62.8V62.9V63L74.9 63.1V63.2V63.3V63.4V63.5V63.6V63.7V63.8V63.9V64V64.1V64.2V64.3V64.5V64.6H74.8V64.7H74.9V64.8L75 64.9V65H75.1V65.1V65.2L75.2 65.3V65.4L75.4 65.5V65.6H75.5V65.7V65.8L75.4 65.9V66H75.3L75 66.3H75.1V66.4H75V66.5L75.1 66.6V66.7L75.2 66.9L75.3 67L75.4 67.1L75.5 67.2V67.3H75.6L75.7 67.4L75.8 67.5L75.9 67.6L76.1 67.5H76.2V67.6L76.3 67.8L76.5 68V68.1H76.6L76.7 68V68.1L76.8 68.2L76.9 68.3H76.8V68.4H76.7L76.6 68.5H76.7V68.6L76.8 68.7H76.9H77V68.8H77.1H77.2V68.9V69H77.1V69.1H77V69.2V69.3V69.4V69.5V69.6V69.7H76.9V69.8V69.9H76.8V70H76.9V70.1V70.2L76.8 70.3L76.7 70.4L76.6 70.5H76.5H76.4V70.6V70.7H76.5V70.8H76.6H76.7L76.8 70.9H76.9L77 71H77.1L77.2 71.1H77.3H77.4L77.5 71.2H77.6H77.7V71.3H77.6V71.4L77.5 71.5L77.4 71.6V71.7L77.3 71.8V71.9H77.2V72H77.1V72.1H77V72.2L77.1 72.3H77.2H77.3H77.4H77.5V72.4H77.6V72.5V72.6V72.7V72.8V72.9V73V73.1H77.5H77.4V73H77.3V72.9H77.2V72.8V72.7H77.1H77H76.9V72.8H76.8V72.9V73V73.1V73.2H76.7V73.3V73.7V74.3V74.4V74.5V74.6L76.8 74.7L76.9 74.8L77 74.9L77.1 75H77.2L77.3 75.2L77.5 75.3H77.6L77.7 75.5L77.8 75.6L78 75.8V75.9V76V76.1L77.9 76.2V76.3V76.4H77.8V76.5H77.7V76.6L77.8 76.7V76.8H77.9V76.9H78V77H78.1V77.1H78.2L78.3 77.2V77.3H78.4V77.4V77.5H78.3H78.2V77.6H78.1H78H77.9V77.7V77.8V77.9H78V78H78.1V78.1L78.2 78.2H78.3V78.3V78.4H78.2V78.5H78.1V78.4H78H77.9V78.3H77.8H77.7H77.6H77.5V78.4V78.5V78.6V78.7H77.6V78.8H77.7V78.9H77.8V79H77.9H78V79.1H78.1V79.2H78.2L78.3 79.3V79.4V79.5V79.6H78.2V79.7H78.1L78 79.8V79.9H77.9L77.8 80V79.9H77.7V80L77.6 80.1H77.5V80.2L77.6 80.3V80.4H77.7V80.5V80.6H77.8L77.7 80.7V80.8V80.9H77.6V81V81.1H77.5V81H77.4V80.9H77.3H77.2H77.1L77 80.8H76.9H76.8H76.7H76.6H76.5H76.4H76.3V80.9H76.2L76.1 80.8H76H75.9H75.8H75.7H75.6V80.9H75.5V81V81.1H75.4V81.2V81.3H75.5V81.4V81.5V81.6L75.6 81.7H75.7V81.8H75.8V81.9H75.7V82H75.6H75.5V82.1H75.4V82.2H75.3L75.4 82.3V82.4H75.5V82.5H75.6V82.6H75.5V82.7V82.8H75.4H75.3H75.2L75.1 82.7H75V82.8H74.9V82.9H75V83V83.1H75.1V83.2H75.2V83.3V83.4H75.1V83.5V83.6H75V83.7H74.9V83.8V83.9L74.8 84V84.1L74.7 84.2V84.3H74.6V84.4V84.5V84.6V84.7V84.8V84.9L74.7 85V85.1H74.8V85.2H74.9V85.3V85.4H75V85.5H75.1V85.6H75.2V85.7V85.8V85.9V86H75.1V86.1V86.2H75V86.3H74.9V86.4H74.8V86.5H74.9V86.6H75H75.1H75.2V86.7H75.3H75.4H75.5H75.6V86.8H75.7H75.8V86.9H75.9V87H75.8V87.1H75.9V87.2V87.3V87.4H75.8V87.5H75.7H75.6V87.6H75.5V87.5H75.4V87.4H75.3V87.3V87.2H75.2H75.1V87.3H75V87.4V87.5H74.9V87.6V87.7V87.8H75V87.9V88V88.1H75.1V88.2H75.2V88.3V88.4H75.3V88.5V88.6V88.7V88.8H75.2V88.9V89V89.1H75.1V89.2V89.3H75.2H75.3H75.4L75.5 89.4H75.6V89.5H75.7V89.6L75.6 89.5V89.6L75.5 89.7H75.4V89.8H75.3H75.2V89.9V90L75.3 90.1V90.2L75.4 90.3H75.3V90.4H75.4V90.5V90.6V90.7V90.8V90.9V91L75.5 90.9V91H75.6V91.1V91.2V91.3V91.4V91.5V91.6V91.7V91.8V91.9V92V92.1V92.2V92.3V92.4H75.5H75.4V92.5V92.6H75.3V92.7H75.4V92.8H75.3H75.2V92.9H75.3V93H75.2V93.1H75.3V93.2V93.3V93.4V93.5H75.2L75.1 93.6V93.7L75 93.8V93.9V94H75.1V94.1H75.2H75.3L75.4 94.2H75.5L75.6 94.1H75.7H75.8H75.9H76H76.1H76.2V94.2V94.3H76.1V94.4H76L75.9 94.5L75.8 94.6H75.7L75.6 94.7H75.5H75.4H75.3H75.2V94.8H75.1L74.9 94.9L74.8 95H74.7V95.1L74.6 95.2V95.3V95.4V95.5V95.6V95.7L74.7 95.8V95.9L74.8 96L74.9 96.1L75.1 96.3L75.2 96.4L75.3 96.5L75.5 96.7L75.6 96.8H75.7V96.9H75.8V97V97.1V97.2V97.3V97.4L75.7 97.5H75.6H75.5H75.4H75.3V97.6H75.4V97.7H75.3V97.8V97.9V98L75.4 98.1V98.2H75.5V98.3H75.6V98.4V98.5H75.7V98.6H75.8H75.9V98.7H76H76.1V98.8H76.2V98.9V99V99.1V99.2V99.3V99.4H76.1V99.5V99.6H76.2L76.1 99.7H76V99.8H75.9H75.8V99.7H75.7L75.6 99.8L75.5 99.7H75.4H75.3H75.2H75.1V99.6H75.2V99.5H75.1H75H74.9V99.6H74.8H74.7H74.6L74.5 99.7H74.4V99.8L74.3 99.9V100H74.2V100.1V100.2H74.3V100.3L74.4 100.4L74.5 100.5V100.6H74.6H74.7V100.7H74.8H74.9H75H75.1H75.2H75.3H75.4H75.5V100.6H75.6H75.7V100.7H75.8H75.9V100.8L76 100.9V101V101.1V101.2H75.9V101.3H75.8V101.4V101.5H75.7L75.6 101.6H75.5V101.7H75.4H75.3H75.2H75.1V101.6H75L74.9 101.5H74.8H74.7V101.4H74.6H74.5V101.5V101.6H74.4H74.3V101.7V101.8L74.2 101.9H74.3V102H74.2V102.1H74.3V102.2V102.3H74.4V102.4H74.5V102.5H74.6H74.7H74.8V102.6H74.9H75V102.7H75.1H75.2L75.3 102.8H75.4H75.5V102.9H75.6H75.7V103H75.8V103.1V103.2V103.3V103.4V103.5V103.6V103.7H75.7V103.8V103.9H75.6V104V104.1H75.5V104.2V104.3L75.4 104.4V104.5H75.3V104.6H75.2V104.7V104.8H75.1V104.9V105V105.1V105.2V105.3V105.4V105.5H75.2V105.6V105.7H75.3V105.8H75.4V105.9H75.3V106V106.1H75.2H75.1H75H74.9H74.8H74.7H74.6V106.2V106.3H74.7V106.4H74.6V106.5L74.7 106.6V106.7L74.8 106.8H74.9V106.9H75V107L75.1 107.1H75.2V107.2H75.3H75.4V107.1H75.5L75.6 107L75.7 106.9V106.8L75.8 106.7V106.6L75.9 106.5V106.4H76H76.1H76.2H76.3L76.4 106.5H76.5L76.6 106.6V106.7V106.8H76.7V106.9V107V107.1H76.6V107.2H76.5H76.4V107.3H76.3V107.4H76.2H76.1H76V107.5H75.9H75.8H75.7V107.6L75.6 107.7V107.8V107.9H75.7V108V108.1V108.2V108.3H75.8V108.4H75.9V108.5V108.6L76 108.7V108.8H76.1V108.9V109L76 109.1V109H75.9V109.1V109.2H75.8V109.3H75.7V109.4V109.5H75.8V109.6L75.9 109.7V109.8H76V109.9V110V110.1V110.2H75.9V110.3H75.8H75.7H75.6H75.5V110.4H75.4V110.5V110.6V110.7H75.5V110.8V110.9H75.6L75.7 111L75.9 111.1H76H76.1H76.2H76.3V111.2V111.3H76.4V111.4H76.5V111.5V111.6V111.7V111.8V111.9V112L76.4 112.1V112.2L76.3 112.3V112.4H76.4V112.5V112.6H76.5V112.7H76.6H76.7V112.8H76.8H76.9V112.9H77V113L77.1 113.1V113.2V113.3V113.4V113.5V113.6V113.7H77.2V113.8H77.3H77.4V113.7H77.5L77.6 113.6V113.5L77.8 113.4H77.9H78H78.1L78.2 113.5H78.3V113.6V113.7V113.8V113.9H78.4V114H78.3V114.1H78.2V114.2V114.3H78.1V114.4V114.5H78H77.9H77.8H77.7L77.6 114.4H77.5H77.4V114.3V114.2L77.3 114.1L77.2 114H77.1V114.1H77L76.9 114H76.8H76.7V114.1V114.2H76.6V114.3V114.4V114.5H76.7H76.8V114.6L76.9 114.7V114.8H76.8V114.9H76.9V115H77V115.1V115.2H77.1V115.3V115.4H77.2V115.5V115.6V115.7V115.8H77.1V115.9H77V115.8H76.9H76.8H76.7V115.7H76.6H76.5H76.4L76.3 115.6V115.5V115.4V115.3V115.2V115.1V115H76.2H76.1H76H75.9V115.1V115.2V115.3H75.8V115.4V115.5V115.6L75.9 115.7V115.8V115.9V116H76V116.1V116.2V116.3V116.4V116.5H76.1V116.6H76.2V116.7H76.3H76.4H76.5H76.6V116.6L76.7 116.7H76.8H76.9V116.6H77V116.7H77.1H77.2V116.8L77.3 116.9V117V117.1L77.4 117.2H77.3V117.3V117.4V117.5H77.2V117.6L77.1 117.7V117.8H77L76.9 117.9V118V118.1H77V118.2H77.1L77.2 118.3H77.3L77.4 118.4H77.5H77.6H77.7V118.5V118.6V118.7H77.6V118.8V118.9H77.5V119H77.4H77.3H77.2L77.1 118.9H77V118.8H76.9V118.7V118.6H76.8V118.5H76.7V118.6H76.6V118.7V118.8V118.9V119V119.1H76.7L76.8 119.2H76.9L77 119.3H77.1V119.4V119.5H77.2L77.3 119.6H77.4H77.5V119.7H77.6V119.8V119.9V120V120.1V120.2L77.5 120.3H77.4V120.4H77.3L77.2 120.5V120.6V120.7L77.3 120.9L77.4 121.1V121.2V121.3L77.3 121.4L77.2 121.5L77.1 121.6V121.7H77V121.8V121.9L76.9 122V122.1V122.2V122.3H77V122.4H77.1V122.5H77V122.6V122.7H77.1H77.2H77.3V122.8V122.9V123V123.1H77.2V123.2V123.3H77.1H77H76.9H76.8H76.7H76.6H76.5V123.4H76.4V123.5V123.6V123.7L76.5 123.8V123.9L76.6 124H76.7V124.1H76.8H76.9H77H77.1V124.2H77.2H77.3V124.1H77.4H77.5V124H77.6H77.7V124.1V124.2H77.6V124.3H77.5V124.4V124.5V124.6V124.7H77.6V124.8V124.9V125H77.7V125.1L77.8 125.2H77.9H78H78.1H78.2H78.3H78.4L78.5 125.1H78.6L78.7 124.9L78.8 124.8L78.9 124.7H79H79.1H79.2H79.3V124.8H79.4V124.9V125H79.5V125.1V125.2V125.3H79.4V125.4H79.3V125.5V125.6V125.7V125.8V125.9H79.2V126V126.1H79.1V126.2V126.3L79 126.4H78.9L78.8 126.5V126.6H78.9L79 126.7L79.1 126.8H79.2V126.7H79.3H79.4V126.8H79.5H79.6V126.7V126.6H79.7V126.7H79.8H79.9V126.6H80L80.1 126.5L80.2 126.4H80.3V126.3V126.2V126.1H80.4V126H80.5H80.6V125.9L80.7 126H80.8V126.1H80.9V126.2V126.3V126.4V126.5V126.6L80.8 126.7H80.7V126.8L80.6 126.9H80.5H80.4V127L80.3 127.1H80.2L80.1 127.2V127.1H80V127.2H79.9L79.8 127.3L79.9 127.4H80V127.5H80.1V127.6V127.7H80.2H80.3H80.4H80.5H80.6H80.7H80.8V127.6H80.9H81.1L81.2 127.5H81.3H81.4V127.6H81.5V127.7L81.6 127.8V127.9V128L81.7 128.1H81.6V128.2V128.3L81.5 128.4H81.4V128.5H81.3H81.2H81.1H81H80.9H80.8H80.7L80.6 128.4H80.5V128.3H80.4V128.2H80.3V128.3H80.2L80.1 128.4V128.5V128.6V128.7H80.2L80.3 128.8V128.9H80.4H80.5H80.6V129H80.7L80.8 129.1V129.2H80.9H81H81.1H81.2H81.3H81.4V129.3H81.5V129.4H81.6V129.5H81.7H81.8V129.6V129.7V129.8V129.9L81.7 130V130.1V130.2V130.3L81.6 130.4H81.7V130.5H81.8H81.9L82 130.6H82.1V130.7H82.2H82.3H82.4V130.6H82.5H82.6V130.7V130.8L82.7 130.9V131H82.6V131.1V131.2V131.3H82.5V131.4L82.6 131.5H82.7H82.8H82.9H83V131.4H83.1V131.3H83.2H83.3L83.4 131.2V131.3H83.5V131.4V131.5V131.6V131.7V131.8H83.4V131.9H83.3V132H83.2V132.1H83.1H83L82.9 132.2H82.8H82.7V132.3H82.6L82.5 132.4H82.4V132.5V132.6H82.3V132.7V132.8V132.9L82.4 133V133.1H82.5V133.2H82.6L82.7 133.3H82.8H82.9V133.4H83H83.1H83.2H83.3H83.4H83.5H83.6V133.5H83.7V133.6L83.8 133.7V133.8V133.9V134V134.1V134.2H83.7L83.6 134.3V134.4H83.5L83.4 134.5V134.6V134.7L83.5 134.8V134.9L83.6 134.8H83.7H83.8H83.9H84V134.7H84.1H84.2V134.6L84.3 134.5V134.4L84.4 134.3V134.2V134.1V134V133.9V133.8V133.7V133.6V133.5H84.3V133.4H84.2V133.3V133.2H84.3L84.4 133.1H84.5H84.6H84.7V133.2H84.8V133.3H84.9V133.4H85L85.1 133.5V133.6H85.2V133.7H85.3V133.8V133.9H85.4V134V134.1L85.5 134.2V134.3L85.6 134.4L85.7 134.5V134.6H85.8V134.7H85.9V134.8L86 134.9H86.1H86.2H86.4H86.5V134.8H86.6L86.7 134.7L86.8 134.5L86.9 134.4H87H87.1H87.2H87.3L87.4 134.5H87.5L87.6 134.6V134.7V134.8L87.7 134.9V135.1H87.6V135.2L87.4 135.3H87.3H87.1L87 135.4L86.8 135.3H86.7L86.3 135.2H86.2H86.1H86H85.9H85.7H85.4L85.2 135.3H85.1L84.9 135.4L84.8 135.5L84.7 135.6L84.6 135.7V135.9L84.5 136.1L84.4 136.2L84.3 136.3V136.4L84.2 136.5L84.1 136.7L84 136.9L83.9 137L83.8 137.1L83.7 137.2H83.6L83.4 137.4H83.3H83.2H83.1H83L82.6 137.3L82.5 137.2H82.4L82.2 137L82 136.8H81.9L81.8 136.7H81.7H81.6L81.5 136.8L81.4 136.9L81.1 137.2L81 137.3H80.9L80.8 137.4H80.7H80.6V137.3L80.4 137.2L80.3 137.1L80.2 137L80.1 136.8L79.9 136.2L79.7 135.9L79.6 135.7V135.6L79.5 135.4L79.4 135.2L79.3 135.1L79.2 135H79H78.8H78.7H78.6L78.3 135.1H78.1L78 135.2H77.9L77.7 135.3L77.5 135.4L77.4 135.5L77.1 135.6L76.9 135.7H76.8H76.7H76.6L76.5 135.8H76.4H76.3L76.2 135.9H76H75.8H75.7L75.6 136H75.4V136.1H75.2H75H74.9H74.8L74.7 136H74.6L74.5 135.9H74.4H74.3H74.2H74.1H74H73.9H73.8L73.7 135.8L73.6 135.7L73.5 135.6H73.4L73.3 135.5V135.4H73.2L73.1 135.3V135.2L73 135.1L72.9 135V134.9L72.8 134.8V134.7L72.7 134.6V134.5V134.3V134.2V134.1V134V133.9L72.6 133.8V133.7V133.6V133.3V133.1V132.9L72.5 132.8V132.7V132.6V132.4L72.6 132.2V132V131.8V131.7V131.6V131.4V131.1V131L72.7 130.9L72.6 130.8V130.7V130.6V130.5L72.5 130.4V130.3L72.4 130.2L72.3 130.1L72.2 130L72.1 129.9L72 129.7L71.8 129.4L71.7 129.2L71.6 129L71.5 128.9H71.4H71.3H71.2H71.1H71H70.9L70.7 129L70.6 129.1L70.5 129.2H70.4V129.3L70.3 129.4V129.5L70.2 129.6V129.8V129.9V130V130.2V130.3V130.4V130.5V130.6L70.3 130.7L70.4 130.8L70.5 130.9V131L70.6 131.1V131.2V131.3V131.5V131.6V131.7V131.8L70.7 131.9L70.8 132L70.9 132.1L71 132.2L71.1 132.3H71.2V132.4H71.3L71.4 132.5L71.5 132.6V132.7L71.6 132.8V132.9L71.7 133.1V133.2V133.3V133.4L71.8 133.5V133.6V133.7L71.7 133.9V134L71.6 134.2V134.3L71.5 134.4L71.4 134.5H71.3V134.6H71.2V134.7H71.1L71 134.8L70.9 134.9L70.8 135H70.6L70.5 135.1H70.4H70.2H70.1H70H69.9V135H69.8V134.9V134.8V134.7L69.7 134.6V134.5V134.4V134.3L69.6 134.2V134.1L69.5 134V133.9L69.4 133.8V133.7H69.3V133.6L69.1 133.4L69 133.3L68.9 133.2L68.8 133.1L68.6 133V132.9L68.5 132.8H68.4L68.3 132.7H68.2V132.6L68.1 132.5V132.4L68 132.3V132.2H67.9V132.1L67.8 131.9L67.7 131.8V131.7H67.6V131.6V131.5L67.5 131.4V131.3L67.6 131.2V131.1L67.7 131L67.8 130.8L67.9 130.7L68 130.6L68.2 130.5L68.3 130.4L68.4 130.3L68.5 130.2L68.6 130.1V130V129.9V129.8V129.7V129.6V129.5L68.5 129.4V129.3L68.4 129.1V129H68.3V128.9V128.8V128.7V128.6V128.5V128.4V128.3L68.4 128.2V128.1V128L68.5 127.9V127.8V127.7L68.4 127.6V127.5V127.3L68.3 127.2V127.1L68.2 127V126.9H68.1L68 126.8L67.9 126.7H67.8H67.7L67.6 126.6L67.4 126.7H67.3L67.2 126.8H67.1L67 127L66.9 127.1L66.8 127.3V127.5V127.6V127.7V127.8V128.1V128.3V128.6V128.7V128.8V128.9V129L66.7 129.1L66.5 129.4L66.4 129.6H66.3L66.2 129.7H66.1H66L65.9 129.6H65.8H65.7L65.6 129.5L65.5 129.4L65.2 129.2L65.1 129.1L65 129L64.7 128.9H64.6V128.8H64.5H64.4H64.3H64.2H64.1H64L63.9 128.9H63.8L63.7 129L63.6 129.1L63.5 129.3L63.4 129.4L63.3 129.6H63.2L63 129.9L62.9 130H62.8V130.1L62.7 130.2L62.6 130.3V130.4L62.5 130.6H62.4V130.7L62.2 130.9H62.1V131H62V131.1L61.8 131.2H61.7V131.3H61.6H61.4L61.3 131.4H61.1H61H60.9H60.8H60.7H60.6L60.5 131.3H60.4H60.3L60.2 131.2L60.1 131.1H60L59.9 131H59.8V130.9H59.7L59.6 130.8L59.5 130.7H59.4V130.6H59.3L59.2 130.5L59.1 130.4H59H58.9H58.8L58.7 130.5H58.6L58.5 130.6H58.4H58.2H58.1L58 130.7H57.9H57.8L57.7 130.6V130.5H57.6V130.4V130.3V130.2V130.1L57.7 130L57.8 129.8L58 129.5L58.1 129.4V129.3V129.2V129.1L58 128.9V128.8L57.9 128.7L57.8 128.5L57.6 128.4L57.5 128.3L57.4 128.2L57.3 128.1V128H57.2V127.9V127.8H57.1V127.7L57 127.6V127.5H56.9V127.4L56.8 127.3L56.7 127.2L56.6 127.1L56.5 127V126.9H56.4V126.8H56.3V126.7V126.6V126.5V126.4H56.2V126.3L56.1 126.2L55.7 125.6L55.6 125.5L55.5 125.3L55.4 125.2L55.3 125.1H55.1V125L55 124.9H54.9L54.7 124.8L54.6 124.7L54.5 124.6H54.4H54.3L54.1 124.7H54L53.9 124.8L53.7 124.9L53.6 125H53.5L53.4 125.1L53.3 125.3L53.1 125.6L53 125.8L52.9 126L52.7 126.2V126.3V126.4L52.6 126.6V126.7V126.8H52.5V126.9V127L52.6 127.2L52.5 127.4V127.5V127.6V127.7H52.4L52.3 127.8H52.2L52.1 127.9H52L51.9 127.8H51.8L51.7 127.7H51.6V127.6L51.5 127.5V127.4V127.3L51.4 127.2V127.1V126.9V126.8V126.7V126.6V126.5L51.3 126.4V126.3V126.2H51.2V126.1L51.1 125.9L51 125.8V125.7H50.9L50.8 125.6H50.7V125.5H50.5H50.4L50.2 125.4H50.1L49.9 125.5H49.8H49.7H49.6H49.4H49.3H49.2H49.1H49L48.9 125.4H48.7H48.6L48.5 125.3H48.4H48.3H48.2H48.1H47.9H47.8L47.7 125.2L47.5 125.1H47.4H47.3H47.2H47.1V125H46.9L46.8 124.9H46.6V124.8Z" fill="#6F9C76"/>
<path d="M10.4 95.9L10.5 96V96.1L10.6 96.2V96.3H10.7V96.4L10.8 96.5L11 96.6L11.1 96.8H11.2V96.9H11.3L11.4 97H11.5V97.1V97.2L11.6 97.3V97.4H11.7V97.5H11.8H11.9V97.6H12L12.1 97.7L12.2 97.8L12.3 97.9H12.4L12.5 98L12.6 98.1H12.7L12.8 98.2L12.9 98.3V98.4V98.5L13 98.6L13.1 98.7L13.2 98.8L13.3 98.9L13.4 99V99.1L13.5 99.2V99.3V99.4V99.5L13.4 99.6V99.7L13.3 99.8L13.2 99.9H13.1V100V100.1V100.2V100.4L13.2 100.3L13.5 100.2L13.7 100.1L14 100L14.3 99.8H14.4H14.5L14.8 99.6L15 99.5L15.1 99.4H15.2V99.3H15.3V99.2H15.4L15.5 99.1L15.6 99H15.7V98.9H15.8L15.9 99H16V99.1H16.1L16.2 99.2L16.3 99.3L16.4 99.4H16.5V99.5H16.6V99.6V99.7H16.7H16.8V99.8H16.9V99.9H17H17.1H17.2L17.3 100H17.4V100.1V100.2L17.5 100.3H17.6L17.7 100.4H17.8H17.9V100.5H18H18.1H18.2L18.4 100.6L18.5 100.7H18.6H18.7V100.8H18.8V100.9H18.7L18.8 101H18.9H19.2H19.3V101.3H19.4H19.5V101.2H19.6H19.7V101.1H19.8L19.7 101H19.8V100.9L19.9 100.8H20L20.1 100.7L20 100.6V100.5L20.1 100.4V100.3L20.2 100.2H20.3V100.1H20.4V100H20.5H20.6L20.7 100.1L20.8 100.2V100.3L20.7 100.4L20.5 100.6V100.7L20.4 100.8V100.9L20.3 101V101.2V101.3V101.4V101.5V101.6V101.7V101.8H20.4V101.9V102L20.5 102.1V102.2V102.3L20.4 102.4H20.3L20.4 102.5V102.6H20.5L20.6 102.7V102.8L20.8 102.9H20.9L21 103H21.2L21.3 103.1L21.4 103.2H21.5L21.6 103.3V103.4V103.5L21.7 103.6H21.8L21.9 103.7L22.1 103.8L22.2 103.9L22.3 104V104.1V104.2V104.3H22.2V104.4L22.1 104.5L22 104.6L21.9 104.7L21.8 104.8L21.7 104.9L21.5 105L21.4 105.1L21.1 105.2L21 105.3L20.9 105.4V105.5H20.8V105.6V105.7V105.8L20.9 105.9V106.1L21 106.3L21.1 106.4L21.2 106.6L21.3 106.7V106.8V106.9L21.4 107.1V107.2V107.3V107.5L21.5 107.6L21.6 107.9L21.7 108V108.1V108.2V108.3V108.4V108.5V108.6V108.7L21.8 108.8V108.9V109V109.1V109.2V109.3V109.4H22L22.1 109.5H22.2V109.6L22.3 109.7H22.4L22.5 109.8L22.6 109.9L22.7 110L22.9 110.1H23H23.1H23.2L23.3 109.9H23.4L23.5 109.8V109.6L23.6 109.5V109.4V109.3V109.2V109.1V109V108.9V108.7V108.6V108.5L23.5 108.4H23.4V108.3L23.3 108.2V108.1V108V107.9H23.4V107.8H23.5V107.7V107.6L23.6 107.5H23.7H23.8L23.9 107.4L24.1 107.1L24.3 106.9L24.6 106.7V106.6H24.7V106.5H24.8V106.4L24.9 106.3V106.2L24.8 106.1V106H24.7L24.6 105.9V105.8L24.5 105.7V105.6V105.5V105.4V105.3H24.6H24.7L24.8 105.4L24.9 105.5H25L25.1 105.6L25.2 105.7H25.3L25.4 105.8H25.5V105.7H25.6H25.7V105.6H25.8V105.5L25.9 105.4L26 105.3L26.1 105.2L26.2 105.1L26.3 105H26.4H26.5H26.6H26.7L26.8 105.1V105.2L26.9 105.3V105.4V105.5V105.6V105.7V105.8L26.8 106V106.1V106.2L26.7 106.3L26.6 106.4V106.5L26.5 106.6V106.7V106.8V106.9V107V107.1V107.2V107.3V107.5V107.6V107.7V107.8V107.9V108.1V108.2V108.3V108.4V108.5L26.4 108.6V108.8V108.9L26.3 109.1V109.2L26.2 109.4V109.5L26.1 109.6L26 109.8V110L25.9 110.1L25.8 110.3V110.4L25.7 110.5L25.6 110.7L25.5 110.8V111L25.4 111.2V111.3V111.4V111.5H25.5V111.6H25.6H25.7H25.8H26H26.2L26.3 111.5L26.4 111.4L26.5 111.3V111.1L26.6 110.8V110.6V110.5L26.7 110.4V110.3L26.8 110.2V110.1H26.9V110H27H27.2H27.4H27.5H27.6H27.7H27.9H28H28.1H28.2H28.4L28.6 110.1H28.7L28.9 110.2L29 110.3H29.1H29.2V110.4V110.5L29.3 110.6V110.7V110.8H29.4V110.9V111V111.1V111.2V111.3V111.4L29.5 111.5V111.6H29.6V111.7H29.7H29.8H29.9L30 111.8H30.1L30.2 111.7H30.3L30.5 111.6H30.6L30.7 111.5H30.8H30.9H31H31.1V111.6H31.2L31.3 111.7V111.8V111.9V112V112.2H31.4H31.5H31.9H32.3L32.2 112.1V111.9V111.8L32.1 111.7V111.6V111.5V111.4V111.3V111.2V111.1V111V110.9V110.8H32.2V110.7H32.3L32.4 110.6H32.5H32.7L32.8 110.5L32.9 110.6H33H33.1H33.2H33.3H33.4L33.5 110.7L33.6 110.8H33.8L33.9 110.9H34H34.1L34.3 111L34.4 111.1L34.5 111.2H34.6H34.7H34.8L34.9 111.3L35 111.4L35.2 111.5H35.4L35.7 111.6L35.9 111.7H36L36.1 111.8H36.3H36.4H36.5H36.6H36.8V111.7L36.9 111.6H37V111.5V111.4V111.3V111.2L36.9 110.9L36.7 110.7L36.6 110.6L36.5 110.4L36.4 110.3V110.2V110.1V110V109.9V109.8H36.5V109.7H36.6L36.7 109.6H36.8H36.9H37L37.1 109.7L37.2 109.8H37.3L37.4 109.9H37.6L37.7 110H37.8L37.9 110.2L38 110.3H38.1L38.2 110.4H38.3V110.5H38.4V110.6H38.5V110.7V110.8H38.6L38.5 110.9V111L38.4 111.2L38.3 111.3L38.2 111.4L38.1 111.5V111.6L37.9 111.8H37.8V111.9H37.7L37.6 112V112.1V112.2V112.3V112.5L37.7 112.6L37.8 112.7L37.9 112.8L38.1 112.9H38.2L38.3 113H38.4H38.5L38.6 113.1L38.7 113.2L38.9 113.3H39L39.1 113.4H39.2L39.3 113.5L39.4 113.6L39.5 113.7H39.6V113.8H39.7V113.9L39.8 114L39.9 114.2V114.3H40L40.1 114.4L40.2 114.5L40.3 114.6H40.4L40.6 114.7H40.7H40.8H40.9L41 114.8H41.1H41.2L41.3 114.9H41.4H41.5H41.7H41.9H42H42.2H42.3H42.4V115H42.5L42.6 115.1H42.7V115.2H42.8L43 115.4H43.1L43.2 115.5L43.3 115.6L43.5 115.8L43.6 115.9L43.7 116.1L43.8 116.2L43.9 116.4H44V116.5H44.1L44.2 116.7L44.3 116.8L44.5 117L44.7 117.3L44.8 117.4L45 117.6L45.1 117.7L45.2 117.8L45.3 117.9H45.4H45.5V118H45.6L45.8 118.1H45.9L46.1 118.2L46.2 118.3L46.3 118.4L46.6 118.6H46.7L46.9 118.7L47 118.9H47.1V119L47.2 119.1V119.2V119.3V119.4V119.5L47.1 119.6L47 119.7L46.9 119.8V119.9H46.8L46.7 120L46.5 120.1H46.3L45.9 120.5L45.7 120.6V120.7V120.8L45.6 120.9V121L45.7 121.2V121.3L45.8 121.4L45.9 121.5H46L46.2 121.6H46.4H46.7L46.9 121.7L47.1 121.8H47.3L47.5 121.9L47.6 122L47.7 122.1L47.8 122.2V122.3V122.4V122.5V122.6V122.7L47.7 122.8V122.9L47.6 123L47.5 123.2L47.4 123.3L47.3 123.4H47.2L47 123.6L46.8 123.7L46.6 123.8L46.5 123.9L46.4 124L46.3 124.1L46.2 124.2V124.3V124.4V124.5L46.3 124.6V124.7H46.4L46.5 124.8H46.6V124.9H46.8L46.9 125H47.1V125.1H47.2H47.3H47.4H47.5L47.7 125.2L47.8 125.3H47.9H48.1H48.2H48.3H48.4H48.5L48.6 125.4H48.7H48.9L49 125.5H49.1H49.2H49.3H49.4H49.6H49.7H49.8H49.9L50.1 125.4H50.2L50.4 125.5H50.5H50.7V125.6H50.8L50.9 125.7H51V125.8L51.1 125.9L51.2 126.1V126.2H51.3V126.3V126.4L51.4 126.5V126.6V126.7V126.8V126.9V127.1V127.2L51.5 127.3V127.4V127.5L51.6 127.6V127.7H51.7L51.8 127.8H51.9L52 127.9H52.1L52.2 127.8H52.3L52.4 127.7H52.5V127.6V127.5V127.4L52.6 127.2L52.5 127V126.9V126.8H52.6V126.7V126.6L52.7 126.4V126.3V126.2L52.9 126L53 125.8L53.1 125.6L53.3 125.3L53.4 125.1L53.5 125H53.6L53.7 124.9L53.9 124.8L54 124.7H54.1L54.3 124.6H54.4H54.5L54.6 124.7L54.7 124.8L54.9 124.9H55L55.1 125V125.1H55.3L55.4 125.2L55.5 125.3L55.6 125.5L55.7 125.6L56.1 126.2L56.2 126.3V126.4H56.3V126.5V126.6V126.7V126.8H56.4V126.9H56.5V127L56.6 127.1L56.7 127.2L56.8 127.3L56.9 127.4V127.5H57V127.6L57.1 127.7V127.8H57.2V127.9V128H57.3V128.1L57.4 128.2L57.5 128.3L57.6 128.4L57.8 128.5L57.9 128.7L58 128.8V128.9L58.1 129.1V129.2V129.3V129.4L58 129.5L57.8 129.8L57.7 130L57.6 130.1V130.2V130.3V130.4V130.5H57.7V130.6L57.8 130.7H57.9H58L58.1 130.6H58.2H58.4H58.5L58.6 130.5H58.7L58.8 130.4H58.9H59H59.1L59.2 130.5L59.3 130.6H59.4V130.7H59.5L59.6 130.8L59.7 130.9H59.8V131H59.9L60 131.1H60.1L60.2 131.2L60.3 131.3H60.4H60.5L60.6 131.4H60.7H60.8H60.9H61H61.1H61.3L61.4 131.3H61.6H61.7V131.2H61.8L62 131.1V131H62.1V130.9H62.2L62.4 130.7V130.6H62.5L62.6 130.4V130.3L62.7 130.2L62.8 130.1V130H62.9L63 129.9L63.2 129.6H63.3L63.4 129.4L63.5 129.3L63.6 129.1L63.7 129L63.8 128.9H63.9L64 128.8H64.1H64.2H64.3H64.4H64.5H64.6V128.9H64.7L65 129L65.1 129.1L65.2 129.2L65.5 129.4L65.6 129.5L65.7 129.6H65.8H65.9L66 129.7H66.1H66.2L66.3 129.6H66.4L66.5 129.4L66.7 129.1L66.8 129V128.9V128.8V128.7V128.6V128.3V128.1V127.8V127.7V127.6V127.5V127.3L66.9 127.1L67 127L67.1 126.8H67.2L67.3 126.7H67.4L67.6 126.6L67.7 126.7H67.8H67.9L68 126.8L68.1 126.9H68.2V127L68.3 127.1V127.2L68.4 127.3V127.5V127.6L68.5 127.7V127.8V127.9L68.4 128V128.1V128.2L68.3 128.3V128.4V128.5V128.6V128.7V128.8V128.9V129H68.4V129.1L68.5 129.3V129.4L68.6 129.5V129.6V129.7V129.8V129.9V130V130.1L68.5 130.2L68.4 130.3L68.3 130.4L68.2 130.5L68 130.6L67.9 130.7L67.8 130.8L67.7 131L67.6 131.1V131.2L67.5 131.3V131.4L67.6 131.5V131.6V131.7H67.7V131.8L67.8 131.9L67.9 132.1V132.2H68V132.3L68.1 132.4V132.5L68.2 132.6V132.7H68.3L68.4 132.8H68.5L68.6 132.9V133L68.8 133.1L68.9 133.2L69 133.3L69.1 133.4L69.3 133.6V133.7H69.4V133.8L69.5 133.9V134L69.6 134.1V134.2L69.7 134.3V134.4V134.5V134.6L69.8 134.7V134.8V134.9V135H69.9V135.1H70H70.1H70.2H70.4H70.5L70.6 135H70.8L70.9 134.9L71 134.8L71.1 134.7H71.2V134.6H71.3V134.5H71.4L71.5 134.4L71.6 134.3V134.2L71.7 134V133.9L71.8 133.7V133.6V133.5L71.7 133.4V133.3V133.2V133.1L71.6 132.9V132.8L71.5 132.7V132.6L71.4 132.5L71.3 132.4H71.2V132.3H71.1L71 132.2L70.9 132.1L70.8 132L70.7 131.9L70.6 131.8V131.7V131.6V131.5V131.3V131.2V131.1L70.5 131V130.9L70.4 130.8L70.3 130.7L70.2 130.6V130.5V130.4V130.3V130.2V130V129.9V129.8V129.6L70.3 129.5V129.4L70.4 129.3V129.2H70.5L70.6 129.1L70.7 129L70.9 128.9H71H71.1H71.2H71.3H71.4H71.5L71.6 129L71.7 129.2L71.8 129.4L72 129.7L72.1 129.9L72.2 130L72.3 130.1L72.4 130.2L72.5 130.3V130.4L72.6 130.5V130.6V130.7V130.8L72.7 130.9L72.6 131V131.1V131.4V131.6V131.7V131.8V132V132.2L72.5 132.4V132.6V132.7V132.8L72.6 132.9V133.1V133.3V133.6V133.7V133.8L72.7 133.9V134V134.1V134.2V134.3V134.5V134.6L72.8 134.7V134.8L72.9 134.9V135L73 135.1L73.1 135.2V135.3L73.2 135.4H73.3V135.5L73.4 135.6H73.5L73.6 135.7L73.7 135.8L73.8 135.9H73.9H74H74.1H74.2H74.3H74.4H74.5L74.6 136H74.7L74.8 136.1H74.9H75H75.2H75.4V136H75.6L75.7 135.9H75.8H76H76.2L76.3 135.8H76.4H76.5L76.6 135.7H76.7H76.8H76.9L77.1 135.6L77.4 135.5L77.5 135.4L77.7 135.3L77.9 135.2H78L78.1 135.1H78.3L78.6 135H78.7H78.8H79H79.2L79.3 135.1L79.4 135.2L79.5 135.4L79.6 135.6V135.7L79.7 135.9L79.9 136.2L80.1 136.8L80.2 137L80.3 137.1L80.4 137.2L80.6 137.3V137.4H80.7H80.8L80.9 137.3H81L81.1 137.2L81.4 136.9L81.5 136.8L81.6 136.7H81.7H81.8L81.9 136.8H82L82.2 137L82.4 137.2H82.5L82.6 137.3L83 137.4H83.1H83.2H83.3H83.4L83.6 137.2H83.7L83.8 137.1L83.9 137L84 136.9L84.1 136.7L84.2 136.5L84.3 136.4V136.3L84.4 136.2L84.5 136.1L84.6 135.9V135.7L84.7 135.6L84.8 135.5L84.9 135.4L85.1 135.3H85.2L85.4 135.2H85.7H85.9H86H86.1H86.2H86.3L86.7 135.3H86.8L87 135.4L87.1 135.3H87.3H87.4L87.6 135.2V135.1H87.7V134.9L87.6 134.8V134.7V134.6L87.5 134.5H87.4L87.3 134.4H87.2H87.1H87H86.9L86.8 134.5L86.7 134.7L86.6 134.8H86.5V134.9H86.4H86.2H86.1H86L85.9 134.8V134.7H85.8V134.6H85.7V134.5L85.6 134.4L85.5 134.3V134.2L85.4 134.1V134V133.9H85.3V133.8V133.7H85.2V133.6H85.1V133.5L85 133.4H84.9V133.3H84.8V133.2H84.7V133.1H84.6H84.5H84.4L84.3 133.2H84.2V133.3V133.4H84.3V133.5H84.4V133.6V133.7V133.8V133.9V134V134.1V134.2V134.3L84.3 134.4V134.5L84.2 134.6V134.7H84.1H84V134.8H83.9H83.8H83.7H83.6L83.5 134.9V134.8L83.4 134.7V134.6V134.5L83.5 134.4H83.6V134.3L83.7 134.2H83.8V134.1V134V133.9V133.8V133.7L83.7 133.6V133.5H83.6V133.4H83.5H83.4H83.3H83.2H83.1H83H82.9V133.3H82.8H82.7L82.6 133.2H82.5V133.1H82.4V133L82.3 132.9V132.8V132.7V132.6H82.4V132.5V132.4H82.5L82.6 132.3H82.7V132.2H82.8H82.9L83 132.1H83.1H83.2V132H83.3V131.9H83.4V131.8H83.5V131.7V131.6V131.5V131.4V131.3H83.4V131.2L83.3 131.3H83.2H83.1M10.4 95.9V95.8M10.4 95.9H10.3H10.2H10.1L9.99997 95.8V95.7V95.6V95.5V95.4H10.1V95.3V95.2V95.1V95V94.9V94.8V94.7H10.2V94.6H10.3H10.4H10.5V94.5V94.4V94.3V94.2H10.6V94.1V94L10.5 93.7H10.4L10.5 93.6L10.6 93.5L10.7 93.4L10.9 93.5V93.4H11L11.4 93.5L11.9 93.6L12 93.8L12.1 93.6L12.3 93.7H12.4L12.8 93.9H12.9V94L13 93.9L13.1 94V94.2H13.3H13.4H13.5L13.9 94.3H14L14.1 94.2L14.2 94.3H14.3H14.4V94.2L14.5 94V93.9V93.8V93.7H14.3V93.4H14.2V93.5V93.7H14L13.9 93.6L13.7 93.5L13.5 93.4L13.6 93.3V93.2V93.1H13.7L13.8 93V92.9H13.9L13.8 92.8V92.7V92.6V92.5L13.7 92.4L13.6 92.3V92.2L13.7 92.1V92V91.9V91.8V91.7H13.8V91.6V91.5H13.9V91.4V91.3L14 91.2V91.1M14 91.1H14.1M14 91.1V91V90.9V90.8M14 90.8H14.1M14 90.8V90.7H13.8V90.6L13.6 90.5H13.5L13.4 90.4H13.3V90.3L12.8 90H12.7V89.9L12.6 90L12.5 90.1H12.4H12.3H12.2L12 90H11.9H11.7H11.6H11.5H11.3H11.2V89.9H11.1H10.9H10.8H10.7H10.4H10.2H9.99997V89.8H9.89996H9.79997V89.7L9.69997 89.6V89.5V89.4H9.59998V89.3L9.49997 89.2V89.1V89H9.39996L9.19997 88.8L9.09998 88.7H8.99997V88.6H8.89996V88.5H8.79997V88.4L8.69997 88.2V88.1H8.59998L8.49997 87.8L8.39996 87.7L8.29997 87.6L8.19997 87.5V87.4V87.3H8.09998L7.99997 87.4L7.89996 87.5V87.4H7.79997V87.3V87.2H7.69997H7.59998V87.1L7.69997 87V86.9V86.8H7.59998V86.7V86.6L7.69997 86.5V86.4V86.3V86.2V86.1V86L7.79997 85.9L7.99997 85.7L8.09998 85.6L8.19997 85.5L8.29997 85.4L8.39996 85.3L8.49997 85.2L8.69997 84.9L8.99997 84.7L9.09998 84.6L9.19997 84.5V84.4L9.29997 84.2V84.1H9.39996V84L9.59998 83.5L9.79997 83.2L10.1 83L10.4 82.7L10.5 82.6H10.6V82.5H10.8L10.9 82.4L11 82.3L11.2 82.2L11.5 82.1V81.9V81.8V81.7V81.6L11.4 81.5H11.3L11.2 81.4H11H10.9H10.8H10.7H10.6L10.5 81.3H10.4H10.3L10.2 81.2H10.1L9.99997 81.1H9.89996V81H9.79997L9.69997 80.8H9.59998V80.7H9.49997V80.6H9.39996H9.29997V80.5L9.19997 80.4H9.09998V80.3H8.99997H8.89996L8.69997 80.2V80.1H8.59998L8.49997 80L8.39996 79.9H8.29997H8.19997H8.09998H7.99997H7.89996H7.79997L7.69997 79.8H7.59998L7.49997 79.7H7.39996L7.29997 79.6H7.19997H7.09998V79.5H6.99997V79.4V79.3V79.2V79V78.9V78.8V78.7L6.89996 78.4V78.2L6.79997 77.9H6.69997H6.59998L6.49997 77.8H6.39996H6.29997H6.19997V77.7V77.4V77.2L6.29997 77.1V77V76.8V76.6V76.4V76.3H6.39996V76.2V76.1H6.29997V76V75.9L6.19997 75.8V75.7V75.6V75.4V75.2V75L6.49997 75.1L6.59998 74.9V74.8L6.69997 74.7L6.79997 74.8V74.7V74.6L6.89996 74.5V74.4V74.3L6.99997 74.2V74.1V74V73.8L7.29997 73.9V73.7V73.4L7.39996 73.2V73.1H7.49997H7.59998H7.69997H7.79997V73L7.69997 72.9L7.59998 72.8L7.49997 72.7L7.39996 72.6H7.29997V72.5H7.09998L6.99997 72.4V72.3H6.89996L6.79997 72.2L6.69997 72.1L6.59998 72V71.9L6.49997 71.8V71.7L6.39996 71.6V71.5V71.3V71.2H6.29997V71.1L6.39996 71V70.9L6.29997 70.8V70.7V70.6L6.19997 70.4V70.3V70.2H6.29997V70.1V70H6.19997L6.09998 69.9H5.79997H5.59998L5.39996 69.6H5.29997L4.69997 70.2L4.59998 70.3H4.39996H4.09998H3.89996H3.69997V70.2H3.79997V70.1L3.69997 70H3.59998V69.9L3.49997 69.8V69.6V69.5V69.4H3.39996V69.3L3.49997 69.1V69V68.9V68.8V68.7V68.6V68.5L3.39996 68.4V68.3V68.2H3.49997V68.1V68V67.9V67.8H3.39996V67.7V67.6V67.5H3.29997V67.4V67.3V67.2H3.19997V67.1L3.09998 67V66.9H3.19997L3.29997 66.8V66.7V66.6V66.5V66.4L3.19997 66.3L3.09998 66.2V66.1V66H2.99997V65.9L2.89996 65.8V65.7L2.79997 65.6V65.5H2.69997L2.59998 65.4L2.49997 65.3L2.39996 65.2V65.1H2.29997V65V64.9V64.8L2.19997 64.7V64.6V64.5H2.09998V64.4V64.3H1.99997V64.2V64.1V64L2.09998 63.9L1.99997 63.8V63.7H1.89996V63.6H1.79997L1.69997 63.5V63.4L1.59998 63.3L1.49997 63.1H1.39996V63V62.9L1.29997 62.8V62.7H1.19997V62.6H1.09998H0.999969V62.5V62.4L1.19997 62.3V62.2V62V61.9H1.29997V61.8H1.19997V61.7H1.09998V61.6H0.999969L0.899963 61.5H0.799973V61.4V61.3V61.2V61.1V61V60.8V60.7L0.899963 60.6V60.5V60.4H0.799973V60.3V60V59.9V59.8L0.699966 59.6V59.5V59.4V59.3V59.1V59V58.9V58.8L0.599976 58.7H0.699966V58.6H0.799973H0.899963V58.5V58.4V58.3V58.2V58.1V58V57.9H0.999969V57.8V57.7H1.09998V57.6V57.5H1.19997V57.4L1.09998 57.3V57.1V57L0.999969 56.9V56.8V56.7V56.6V56.5H0.899963V56.4V56.3V56.2V56.1V56H0.799973V55.9V55.8L0.699966 55.7H0.599976L0.699966 55.6H0.799973L0.899963 55.5H0.999969H1.09998H1.19997V55.6V55.7L1.39996 55.6H1.59998H1.79997H1.99997H2.19997L2.39996 55.5H2.59998H2.69997L2.79997 55.6V55.5V55.4H2.89996H2.99997V55.5H3.09998H3.29997H3.59998H3.79997H3.99997H4.29997H4.39996V55.3L4.49997 55.1V54.9L4.59998 54.7V54.6L4.69997 54.5V54.4H4.79997V54.3H4.89996L5.29997 54.4H5.49997H5.59998V54.3H5.69997V54.2H5.79997V54.1H5.89996V54H5.99997L6.09998 53.9H6.19997H6.29997V54L6.39996 54.1V54.2V54.3V54.4V54.5V54.6V54.7L6.49997 54.9H6.59998H6.69997L6.79997 54.8V54.7V54.6V54.5V54.4V54.3L6.69997 54.2L6.59998 54.1L6.69997 54L6.59998 53.7L6.49997 53.6V53.4H6.99997V53.3H7.09998H7.19997H7.39996L7.59998 53.4H7.69997H7.99997H8.09998V53V52.9L8.19997 53H8.29997H8.39996V52.9H8.29997V52.8V52.7H8.39996V52.6H8.49997H8.59998L8.79997 52.7H8.89996H8.99997V52.8V52.9V53L9.09998 53.1V53.2H9.19997L9.29997 53.3H9.39996H9.59998H9.69997L9.79997 53.4H9.89996H9.99997L10.1 53.2H9.99997V53.1V53H9.89996V52.9V52.8H9.99997V52.7H9.89996V52.6H9.79997H9.69997V52.5H9.79997L9.89996 52.4L9.99997 52.3H10.1V52.2H10.2H10.3H10.4H10.6L10.7 52.3H10.8L11 52.5L11.1 52.6H11.3L11.5 52.7H11.8H11.9V52.6V52.4L11.8 52.3V52.2L11.6 52.1H11.5H11.4L11.3 52H11.6H11.9H12H12.1H12.2H12.3V52.1L12.2 52.2H12.4H12.5L12.6 52.1V52V51.9H12.7V51.8V51.7L12.8 51.6V51.5V51.4V51.3H13V51.2V51.1V51V50.9H13.1V50.8V50.7V50.6V50.5V50.4L13.2 50.2H13.3L13.6 50.3L14 50.5V50.4L14.1 50.3V50.2L14.2 50.1V50H14.3L14.4 49.8L14.3 49.7V49.6L14.2 49.5V49.4V49.3L14.3 49V48.8V48.6L14.4 48.5H14.5H14.6H14.7L14.6 48.4V48.3V48.2V48V47.8V47.6L14.7 47.1V46.9L14.8 46.7V46.4V46.2V46.1V46L14.9 45.9L14.8 45.6L14.9 45.5V45.4L15 45.2L15.1 45L15.3 44.5V44.4L15.5 44.1L15.6 43.8L15.7 43.5L15.8 43.3L15.9 43.1V43L16 42.8V42.7L16.1 42.8H16.3L16.4 42.9H16.5V43H16.6L16.7 43.1H16.8L17 43.2H17.1V43.3H17.2V43.4L17.5 43.7L17.7 44L17.9 44.2V44.3V44.4H18V44.5H18.1L18.2 44.6H18.3M18.3 44.6V44.7M18.3 44.6L18.6 44.4L18.5 44.2L18.8 44L18.9 43.9L19 43.7L19.2 43.5L19.6 43.2L19.7 43.3L19.8 43.1L19.9 43L20.2 42.7L20.4 42.4L20.5 42.3L20.6 42.2V42.1L20.7 42V41.9H20.6V41.8L20.5 41.7V41.6H20.4L20.2 41.3L20.1 41.2V41.1L19.8 41H19.6L19.5 40.9L19.4 40.8H19.3V40.7V40.6H19.2L19 40.4L18.9 40.3H18.8L18.7 40.2L18.5 40.1L18.6 40L18.7 39.9V39.7V39.4L19.2 39.5L19.3 39.4V39.3L19.4 39.2V39.1V39V38.9V38.8V38.7V38.6H19.3V38.5V38.4L19.2 38.3V38.2V38.1V38H19.1V37.8V37.7V37.5V37.4V37.3V37V36.8V36.7V36.6L19 36.4V36.2V36L19.1 35.7V35.6H19.2H19.4V35.7H19.5L19.7 36L19.8 36.1H20H20.1L20.2 36.2H20.3V36.3H20.4H20.5H20.6H20.7H20.8H20.9H21H21.1H21.2H21.3V36.4L21.4 36.3V36.4H21.5H21.6H21.7V36.5H21.8V36.6L21.9 36.5H22L22.1 36.4V36.3V36.2V36.1V36L22.2 35.9V35.8V35.7V35.6M22.2 35.6H22.1M22.2 35.6H22.3H22.4H22.5V35.5L22.6 35.4V35.3L22.5 35.2V35.1H22.6H22.7H22.8H22.9H23H23.1L23.2 35.2H23.3H23.4H23.5H23.6L24 34.8H24.1V34.9H24.2L24.4 35H24.5H24.6L24.7 35.1H24.8L24.9 35.2H25H25.1L25.2 35.3H25.3L25.4 35.4H25.5V35.5V35.6V35.7H25.6H25.7H25.8H25.9H26L26.1 35.8H26.2H26.3H26.4H26.6L26.8 35.9H26.9L27 35.8H27.2L27.3 35.7L27.4 35.6V35.5V35.4V35.1H27.8V34.9H28.1V35.1V35.2H28.2L28.3 35.3L28.4 35.2H28.5V35.3V35.4H28.6H28.7H28.8V35.5H28.9H29H29.1H29.2V35.6H29.3V35.5H29.4V35.4H29.5V35.3L29.6 35.2L29.7 35.1V35V34.9V34.8H29.6V34.7H29.5V34.6H29.6V34.4L29.7 34.3H29.8L29.9 34.2H30V34.1V34V33.9H29.9H29.8L29.9 33.8V33.7L30 33.6H30.1H30.2H30.3H30.4H30.5L30.6 33.5H30.7V33.4H30.8H30.9H31L31.4 33.3L31.8 33.1V32.8H31.9H32H32.1H32.2H32.3H32.4V32.9H32.5V32.8H32.6H32.7L32.8 32.7H32.9H33L33.2 32.6H33.3H33.5H33.6L33.8 32.5V32.4V32.3V32.2H33.7V32.1V32H33.6V31.9V31.8H33.7L33.8 31.7H33.9H34H34.1V31.6V31.5V31.4V31.3V31.2V31.1L34.2 31V30.9L34.3 30.8V30.7V30.6L34.4 30.5V30.3L34.5 30.2V30.1V30L34.4 29.9V29.8L34.3 29.7V29.6H34.2V29.5H34.1V29.4V29.3H34V29.2V29.1H33.9V29V28.9V28.8L34 28.6V28.5L34.1 28.4L34.2 28.3V28.2L34.3 28.1V28V27.9H34.4V27.8V27.7V27.6V27.5V27.4V27.3H34.5V27.2H34.6H34.7V27.3L34.8 27.2H34.9L35 27.1L35.1 27H35.2L35.3 27.1H35.4H35.5H35.6L35.7 27.2H35.8H35.9L36 27.1V27H36.1V26.9H36.2H36.3H36.4V26.8V26.6H36.3L36.2 26.5L36 26.3H35.9L35.8 26.4H35.7V26.3H35.6H35.5H35.4V26.2H35.3H35.2V26.1V26V25.9L35.1 25.8V25.7V25.6L35.2 25.5L35.3 25.3V25.1L35.4 24.9H35.5L35.6 24.6L35.7 24.5L35.6 24.4V24.2L35.5 24.1V24L35.4 23.9V23.8V23.7L35.3 23.6V23.5V23.4H35.2V23.2H35.1L34.9 23.1L34.7 23H34.5L34.3 22.9H34.1L33.9 22.8H33.8L33.7 22.7L33.6 22.6H33.5L33.4 22.5H33.2V22.4H33.1L33 22.3L32.9 22.2L32.8 22.1L32.5 21.9V21.8L32.7 20.7L32.8 20.8H32.9H33.1V20.6L33.2 19.3L33.3 18.5H33.4L33.5 18.4H33.6H33.8L34 18.3H34.2L34.3 18.2V18.3V18.4H34.4H34.5H34.6V18.3H34.7V18.2H34.8H35.1H35.4H35.5H35.7H35.9H36V18.1H36.1H36.2H36.3L36.4 18H36.5L36.6 17.9H36.7V17.6L36.8 17.3V17.2L36.9 16.9V16.6H37V16.5V16.4H37.2V16.3H37.3H37.4L37.6 16.2V16.1V16V15.7L37.9 15.6V15.4L37.8 14.9V14.8V14.7H38.1H38.4L38.3 14.4L38.6 14.3L39.1 14.2L39.5 14.1V14V13.9V13.8L39.4 13.7V13.5L39.3 13.3V13.1H39L38.7 13H38.5H38.3L38.1 12.9H38H37.9H37.8V12.8L37.7 12.7L37.6 12.5L37.5 12.4V12.3V12.2V11.9V11.2V10.7V10.6V10.5V10.3L37.6 10.2L37.7 10.1L37.8 10L38 9.8L38.4 9.5L38.6 9.3L38.9 9H39L39.3 9.10001H39.6H39.8H40L40.1 9.2H40.2L40.3 9.3V9.39999H40.2L40.1 9.5V9.7V9.8H40.3L40.6 9.89999H40.8L41.2 10H41.6L42.1 10.1L42.6 10.2H42.7H42.8M42.8 10.2V10.3M42.8 10.2H42.9V10.1L43 9.89999L43.1 9.8V9.7L43.2 9.60001L43.3 9.5V9.3L43.4 9.2L43.5 9.10001V8.89999H43.6V8.8L43.7 8.7V8.60001V8.5H43.8V8.39999L43.9 8.3V8.2L44.1 8.3H44.2V8.39999H44.3L44.5 8.60001L44.7 8.7L44.9 8.8L45.1 9L45.3 9.10001L45.4 9.2L45.6 9.3H45.7L45.9 9.60001L46.1 9.8V9.89999L46.2 10L46.4 10.1H46.5L46.8 9.89999L47.1 9.7L48.4 8.89999V8.8H48.5V8.7H48.6L48.7 8.60001H48.8L48.9 8.5L49.1 8.39999L49.3 8.3L49.5 8.10001H49.6L49.8 8V8.10001H49.9L50 8.2L50.1 8.39999L50.3 8.60001H50.4H50.5H50.7L50.8 8.5H50.9H51H51.1H51.2H51.3V8.39999V8.3H51.4L51.3 8.2H51.4V8.10001L51.5 7.7L51.6 7.39999L52.1 7.5V7.60001L52.5 7.7H52.6L52.7 7.8L52.9 7.89999L53 8H53.1H53.4L53.6 7.89999H53.7H53.9H54H54.2L54.5 7.7H54.7L54.9 7.60001L55 7.5H55.1V7.60001H55.2H55.3H55.4H55.5H55.6L55.7 7.7H55.8H55.9L56 7.8V7.7H56.1V7.8H56.2H56.3V7.7H56.4H56.5H56.6L56.7 7.60001M56.7 7.60001V7.7M56.7 7.60001H56.8H56.9V7.5H57L57.1 7.39999H57.2H57.3H57.4V7.3H57.5H57.7V7.2H57.8H57.9H58V7.10001H58.1V7H58.2L58.3 6.7L58.6 6.3L58.7 6.10001L58.8 6V5.89999V5.7H58.7V5.60001H58.8V5.5V5.39999L58.9 5.3H59V5.2L59.1 4.89999V4.8H59.2H59.3L59.4 4.7H59.5V4.60001L59.7 4.39999L59.9 4.10001L60.1 3.8L60.2 3.60001L60.8 3.10001L60.9 3L61.4 2.60001V2.5V2.3V2.2V2.10001H61.5L61.6 2H61.7L61.9 1.89999H62.1H62.2H62.3L62.4 1.8L62.5 1.89999H62.6L62.8 2L62.9 1.89999H63L63.1 1.8H63.2L63.3 1.89999H63.4H63.5V2.10001H63.6V2.2L63.7 2.3V2.39999V2.5H63.8V2.7L63.9 2.8H64.1H64.2H64.3H64.5H64.6H64.7V2.7H64.9V2.8V2.89999V3H65L65.2 3.10001L65.3 3.2H65.4L65.5 3.3V3.39999L65.6 3.5L65.7 3.60001V3.7V3.8V3.89999V4V4.10001H65.8H65.9H66H66.1H66.2H66.3L66.4 4L66.7 3.7L66.9 3.5L67 3.39999L67.4 3L67.6 2.8L67.7 2.7L67.8 2.60001L67.9 2.5L68 2.3H68.1L68.2 2.10001H68.3V2H68.4H68.5L68.6 2.10001H68.7L69 2.3H69.1V2.39999H69.4H69.5L69.7 2.5L70.3 2.7L70.7 2.89999L70.9 3L71.6 3.3L72 3.39999H72.1V3.5H72.2H72.3H72.4V3.60001H72.5H72.7L72.8 3.7H72.9H73L73.2 3.8H73.3L73.5 3.89999H73.6H73.7V3.8H73.6L73.7 3.7V3.60001V3.5L73.8 3.39999V3.3L73.9 3.2V3.10001H73.8V3H73.9V2.89999L74.2 2.5L74.3 2.3L74.6 1.89999V1.8L74.7 1.7H74.8L74.9 1.5L75 1.39999H75.3H75.5H75.8H75.9H76.1H76.2L76.3 1.3L76.2 1.10001H76.3H76.5V1.2V1.3V1.39999V1.5V1.60001V1.7V1.8L76.4 1.89999H76.3V2V2.10001V2.3V2.5V2.60001H76.2V2.8H76.3V3.10001V3.3V4H76.2H76.1H76H75.9H75.7L75.6 3.89999V4H75.5H75.4L75.3 4.10001H75.2V4.2H75.1H75L74.9 4.10001L74.8 4H74.7V4.10001V4.3V4.39999V4.5V4.7V4.8V5H74.8L75 4.89999L74.9 5L74.7 5.60001L74.4 6.60001L75.1 6.89999L75 7L75.1 7.2L75.2 7.3L75.3 7.39999H75.4V7.5H75.6H75.8H75.9L76 7.60001H76.1V7.7H76.2L76.4 8V8.10001H76.3L76.1 8.2L76 8.3V8.39999V8.5H76.1V8.60001L76.2 8.7L76.3 8.89999L76.4 9L76.5 9.10001L76.4 9.2H76.3V9.3H76.2V9.39999V9.5L76.3 9.60001V9.7L75.9 9.8H75.8V9.89999V10H75.9V10.1H76V10.2H76.1V10.3H76.2V10.4H76.3V10.5H76.4L76.5 10.6H76.6V10.7V10.8V10.9H76.7H76.8H76.9H77V10.8H77.1L77.2 10.7H77.3H77.4L77.5 10.8H77.6L77.3 11.5L77.2 11.6V11.7V11.8L77.4 11.9L77.5 12H77.6L77.7 12.1L77.8 12.2L78 12.3L78.1 12.4L78.2 12.5L78.3 12.6L78.6 12.8V12.9H78.7L78.8 13L78.9 13.1L79.1 13.2V13.4V13.5V13.6V13.7V13.8V14L78.6 14.1H78.5H78.4H78.1H78H77.9H77.8H77.6L77.4 14.2H77.3H77.2H77.1H76.8H76.7L76.5 14.3H76.4H76.3H75.9L75.7 14.4H75.5H75.4V14.5H75.5V14.6V14.7V14.8H75.6V14.9V15V15.1V15.2V15.3L75.5 15.4V15.5V15.6L75.4 15.8V15.9L75.7 16.1L75.5 16.6V16.8M75.5 16.8H75.4M75.5 16.8V16.9L75.7 17H76L76.1 17.1L76.2 17.2H76.3V17.3H76.4V17.4H76.5V17.5V17.7V17.8H76.6V17.9H76.7V18L76.6 18.1H76.7V18.2V18.3H76.8V18.4H76.7V18.5H76.6H76.4H76.3V18.6V18.7V18.9V19L76.2 19.2H76.1H76H75.9H75.8H75.7H75.6H75.5H75.4V19.3H75.3L75.2 19.4L75.1 19.5H75V19.6H74.9V19.7H74.8L74.7 19.8H74.6V19.9H74.5H74.4V20H74.3L74.2 20.1V20.2L74.3 20.3V20.2H74.4L74.5 20.3H74.6H74.7V20.4H74.8V20.5H74.9H75H75.1H75.2H75.3H75.4V20.6H75.5H75.6H75.7L75.6 20.8H75.7H75.8H75.9V20.9V21L75.8 21.1V21.2V21.3V21.4L75.7 21.5V21.7L75.6 21.8V21.9V22V22.2V22.3V22.4H75.5V22.5V22.6V22.7H75.4H75.3H75.2H75H74.9H74.8H74.7H74.6H74.5H74.4L74.3 22.6H74.2H74.1H74H73.9V22.7M73.9 22.7H73.8M73.9 22.7V22.8H73.8V22.9L73.9 23.1H73.8V23.2H73.7L73.6 23.3H73.5H73.4H73.3L73.2 23.4V23.5L73.1 23.6V23.7V23.8V23.9H73H72.9L72.8 24V24.1V24.5V24.6V24.7V24.8V24.9L72.7 25L72.6 25.1V25.2L72.7 25.5L72.9 25.9V26L73 26.5V26.6H73.1L73.2 27.1V27.3L73.3 27.4L73.4 27.7L73.6 28L73.7 28.2H73.6H73.5L73.4 28.3L73.3 28.4H73.2H73.1V28.5H73L72.9 28.6H72.8V28.7H72.6L72.5 28.8H72.4V28.9H72.3V29V29.1M72.3 29.1H72.2M72.3 29.1V29.2H72.2V29.3L72.1 29.4V29.5L72 29.6V29.8V30V30.1L72.1 30.2L72.3 30.3H72.5H72.6L72.9 30.4L73 30.5V30.6H73.1H73.2H73.3V30.7L73.5 30.8V30.9V31V31.1V31.2V31.3V31.4H73.6L73.7 31.5V31.6H73.8H73.9V31.7H74V31.8H74.1H74.2V31.9H74.3H74.4H74.5H74.6H74.7V32H74.8L74.9 32.1H75L75.1 32.2H75.2V32.3L75.3 32.5H75.4V32.6M75.4 32.6H75.5M75.4 32.6L75.3 32.8L75.1 32.9V33L75 33.1V33.2H74.9V33.3L74.8 33.4L74.7 33.5L74.5 33.8H74.4V33.9H74.3V34V34.1H74.4H74.5H74.6M74.6 34.1V34.2M74.6 34.1H74.7V34.2L74.6 34.3V34.4V34.5V34.6H74.7V34.7L74.6 34.8V34.9H74.7V35H74.8L74.9 35.1V35.2V35.3V35.4V35.5H75L75.1 35.6V35.7H75.2V35.8L75.3 35.9V36V36.1H75.4H75.5H75.6H75.7H75.8V36.2V36.3V36.4V36.5V36.6V36.7H75.9V36.8V36.9H76H76.1V37H76.2V37.1V37.2H76.3V37.3L76.4 37.4V37.5H76.3V37.6V37.7V37.8V37.9H76.4V38H76.5H76.6V38.1L76.7 38.2V38.3H76.8V38.4V38.5L76.6 39V39.1V39.2V39.3H76.7V39.4H76.8V39.5H76.9H77L77.1 39.6H77.3H77.4L77.5 39.7H77.4V39.8V39.9H77.3H77.2V40V40.1L77.3 40.2V40.3V40.4V40.5V40.6L77.4 40.7V40.8L77.5 40.9V41V41.1V41.2V41.3V41.4V41.5V41.6V41.7V41.8L77.6 41.9V42L77.5 42.1H77.4L77.3 42.2L77.1 42.4H77V42.5H76.9H76.8V42.6H76.7H76.6L76.5 42.7H76.4H76.3H76.2V42.8H76.1V42.9V43L76 43.1V43.2L75.9 43.3L75.8 43.4L75.7 43.5H75.6V43.6V43.7H75.5V43.8L75.4 43.9V44H75.3V44.1L75.2 44.2V44.3H75.1V44.4H75L74.9 44.5H75V44.6V44.7L75.1 44.8H75.2L75.3 44.9H75.4H75.5H75.6H75.7L75.8 45H75.9L76 45.1H76.1H76.2L76.3 45.2H76.4V45.3H76.5H76.6V45.4V45.5L76.7 45.6L76.8 45.7L76.9 45.8H77H77.1L77.2 45.9L77.4 46H77.5V46.1L77.6 46.2L77.7 46.5V46.6L77.8 46.7V46.9H77.9V47H78V47.1L78.1 47.2L78.2 47.3L78.3 47.4V47.5H78.4L78.5 47.6H78.6L78.7 47.7V47.8H78.8V47.9L78.9 48V48.1V48.2V48.3V48.4V48.5V48.6L79 48.7V48.8L79.1 48.9L79 49H78.9V49.1H78.8H78.7H78.6H78.5L78.4 49.2V49.3V49.4L78.5 49.5V49.6L78.6 49.7V49.8L78.7 50V50.1V50.2H78.6V50.3V50.4L78.5 50.5H78.4L78.3 50.6L78.2 50.7V50.8H78.1L78 50.7H77.9L77.8 50.6H77.7L77.6 50.5H77.5V50.4H77.4H77.3H77.2V50.5H77.1H77L76.9 50.6V50.7V50.8V50.9V51V51.1H76.8V51.2V51.3H76.7V51.4V51.5H76.6V51.6H76.5V51.7H76.4L76.3 51.8H76.2V51.9V52V52.1H76.1V52.2H76V52.3H75.9V52.4V52.5H75.8V52.6H75.7H75.6H75.5H75.4V52.7V52.8V52.9V53H75.5V53.1V53.2V53.3H75.6V53.4H75.7V53.5V53.6L75.8 53.7V53.8H75.9L76 53.9L76.1 54V54.1V54.2V54.3V54.4V54.5V54.6V54.7H76H75.9V54.8H75.8V54.9V55V55.1V55.2L75.9 55.3L76 55.4V55.5H76.1V55.6V55.7V55.8H76.2V55.9L76.1 56V56.1V56.2V56.3V56.4H76.2V56.5V56.6V56.7V56.8H76.3V56.9H76.4V57V57.1M76.4 57.1H76.3M76.4 57.1V57.2H76.3H76.2V57.3H76.1V57.4H76H75.9V57.5H75.8H75.7H75.6H75.5V57.4V57.3H75.4V57.2V57.1H75.5V57V56.9L75.4 56.8H75.3H75.2H75.1H75V56.7H74.9V56.8H74.8V56.9V57V57.1H74.7H74.6V57.2H74.5H74.4H74.3V57.3H74.2H74.1V57.4V57.5L74 57.6V57.7V57.8L73.9 57.9V58H73.8V58.1L73.7 58.2V58.3H73.6L73.4 58.5V58.6H73.3V58.7V58.8V58.9V59V59.2L73.2 59.3V59.4H73.3V59.5L73.2 59.6L73.1 59.7H73V59.8H72.9V59.9H72.8L72.7 60L72.6 60.1V60.2L72.5 60.3V60.4V60.5H72.6H72.7H72.8V60.6H72.9H73V60.7V60.8V60.9H73.1L73.2 61V61.1H73.3V61.2L73.4 61.3L73.5 61.4L73.6 61.5V61.6H73.7V61.7V61.8H73.8H73.9V61.9H74H74.1V62H74.2L74.3 62.1H74.4V62.2H74.5V62.3L74.6 62.4L74.7 62.5H74.8V62.6V62.7V62.8V62.9V63L74.9 63.1V63.2V63.3V63.4V63.5V63.6V63.7V63.8V63.9V64V64.1V64.2V64.3V64.5V64.6H74.8V64.7H74.9V64.8L75 64.9V65H75.1V65.1V65.2L75.2 65.3V65.4L75.4 65.5V65.6H75.5V65.7V65.8L75.4 65.9V66H75.3L75 66.3H75.1V66.4H75V66.5L75.1 66.6V66.7L75.2 66.9L75.3 67L75.4 67.1L75.5 67.2V67.3H75.6L75.7 67.4L75.8 67.5L75.9 67.6L76.1 67.5H76.2V67.6L76.3 67.8L76.5 68V68.1H76.6L76.7 68V68.1L76.8 68.2L76.9 68.3H76.8V68.4H76.7L76.6 68.5H76.7V68.6M76.7 68.6H76.6M76.7 68.6L76.8 68.7H76.9H77V68.8H77.1H77.2V68.9V69H77.1V69.1H77V69.2V69.3M77 69.3H76.9M77 69.3V69.4V69.5V69.6V69.7H76.9M76.9 69.7V69.6M76.9 69.7V69.8V69.9H76.8V70H76.9V70.1V70.2L76.8 70.3L76.7 70.4L76.6 70.5H76.5H76.4V70.6V70.7H76.5V70.8H76.6H76.7L76.8 70.9H76.9L77 71H77.1L77.2 71.1H77.3H77.4L77.5 71.2H77.6H77.7V71.3H77.6V71.4L77.5 71.5L77.4 71.6V71.7L77.3 71.8V71.9H77.2V72H77.1V72.1H77V72.2L77.1 72.3H77.2H77.3H77.4H77.5V72.4H77.6V72.5V72.6V72.7V72.8V72.9V73V73.1H77.5H77.4V73H77.3V72.9H77.2V72.8V72.7H77.1H77H76.9V72.8H76.8V72.9V73V73.1V73.2H76.7V73.3V73.7V74.3V74.4V74.5V74.6L76.8 74.7L76.9 74.8L77 74.9L77.1 75H77.2L77.3 75.2L77.5 75.3H77.6L77.7 75.5L77.8 75.6L78 75.8V75.9V76V76.1L77.9 76.2V76.3V76.4H77.8V76.5H77.7V76.6L77.8 76.7V76.8H77.9V76.9H78V77H78.1V77.1H78.2L78.3 77.2V77.3H78.4V77.4V77.5H78.3M78.3 77.5V77.6M78.3 77.5H78.2V77.6H78.1H78H77.9V77.7V77.8V77.9H78V78H78.1V78.1L78.2 78.2H78.3V78.3V78.4H78.2V78.5H78.1V78.4H78H77.9V78.3H77.8M77.8 78.3V78.2M77.8 78.3H77.7H77.6H77.5V78.4V78.5V78.6V78.7H77.6V78.8H77.7V78.9H77.8V79H77.9H78V79.1H78.1V79.2H78.2L78.3 79.3V79.4V79.5V79.6H78.2V79.7H78.1L78 79.8V79.9H77.9L77.8 80V79.9H77.7V80L77.6 80.1H77.5V80.2L77.6 80.3V80.4H77.7V80.5V80.6H77.8L77.7 80.7V80.8V80.9H77.6V81V81.1H77.5V81H77.4V80.9H77.3H77.2H77.1L77 80.8H76.9H76.8H76.7H76.6H76.5H76.4H76.3V80.9H76.2L76.1 80.8H76H75.9H75.8H75.7H75.6V80.9H75.5V81V81.1H75.4V81.2V81.3H75.5V81.4V81.5V81.6L75.6 81.7H75.7V81.8H75.8V81.9H75.7V82H75.6H75.5V82.1H75.4V82.2H75.3L75.4 82.3V82.4H75.5V82.5H75.6V82.6H75.5V82.7V82.8H75.4H75.3H75.2L75.1 82.7H75V82.8H74.9V82.9H75V83V83.1H75.1V83.2H75.2V83.3V83.4H75.1V83.5M75.1 83.5H75.2M75.1 83.5V83.6H75V83.7H74.9V83.8V83.9L74.8 84V84.1L74.7 84.2V84.3H74.6V84.4V84.5V84.6V84.7V84.8V84.9L74.7 85M74.7 85V84.9M74.7 85V85.1H74.8M74.8 85.1V85M74.8 85.1V85.2H74.9V85.3M74.9 85.3H75M74.9 85.3V85.4H75V85.5H75.1V85.6H75.2V85.7V85.8V85.9V86H75.1V86.1V86.2H75V86.3H74.9V86.4H74.8V86.5H74.9V86.6H75H75.1H75.2V86.7H75.3H75.4H75.5H75.6V86.8H75.7H75.8V86.9H75.9V87H75.8V87.1H75.9V87.2V87.3M75.9 87.3H76M75.9 87.3V87.4H75.8V87.5H75.7H75.6V87.6H75.5V87.5H75.4V87.4H75.3V87.3V87.2H75.2H75.1V87.3H75V87.4V87.5H74.9V87.6V87.7V87.8H75V87.9V88V88.1H75.1V88.2H75.2V88.3V88.4H75.3V88.5M75.3 88.5H75.4M75.3 88.5V88.6V88.7V88.8H75.2V88.9V89V89.1H75.1V89.2V89.3H75.2H75.3H75.4L75.5 89.4H75.6V89.5M75.6 89.5H75.7V89.6L75.6 89.5ZM75.6 89.5V89.6L75.5 89.7H75.4M75.4 89.7H75.3M75.4 89.7V89.8H75.3M75.3 89.8V89.9M75.3 89.8H75.2V89.9V90L75.3 90.1V90.2L75.4 90.3H75.3V90.4H75.4V90.5M75.4 90.5H75.3M75.4 90.5V90.6V90.7V90.8V90.9V91L75.5 90.9V91H75.6V91.1V91.2M75.6 91.2H75.5M75.6 91.2V91.3V91.4V91.5V91.6V91.7V91.8V91.9V92V92.1V92.2V92.3V92.4H75.5H75.4V92.5V92.6H75.3V92.7H75.4V92.8H75.3H75.2V92.9H75.3V93H75.2V93.1H75.3V93.2V93.3V93.4V93.5H75.2L75.1 93.6V93.7L75 93.8V93.9V94H75.1V94.1H75.2H75.3L75.4 94.2H75.5L75.6 94.1H75.7H75.8H75.9H76H76.1H76.2V94.2V94.3H76.1V94.4H76L75.9 94.5L75.8 94.6H75.7L75.6 94.7H75.5H75.4H75.3H75.2V94.8H75.1L74.9 94.9L74.8 95H74.7V95.1L74.6 95.2V95.3V95.4V95.5V95.6V95.7L74.7 95.8V95.9L74.8 96L74.9 96.1L75.1 96.3L75.2 96.4L75.3 96.5L75.5 96.7L75.6 96.8H75.7V96.9H75.8V97V97.1V97.2V97.3V97.4L75.7 97.5H75.6H75.5H75.4H75.3V97.6H75.4V97.7H75.3V97.8V97.9V98L75.4 98.1V98.2H75.5V98.3H75.6V98.4V98.5H75.7V98.6H75.8H75.9V98.7H76H76.1V98.8H76.2V98.9V99V99.1V99.2V99.3V99.4H76.1V99.5M76.1 99.5H76.2M76.1 99.5V99.6H76.2L76.1 99.7H76V99.8H75.9H75.8V99.7H75.7L75.6 99.8L75.5 99.7H75.4H75.3H75.2H75.1V99.6H75.2V99.5H75.1H75H74.9V99.6H74.8H74.7H74.6L74.5 99.7H74.4V99.8L74.3 99.9V100H74.2V100.1V100.2H74.3V100.3L74.4 100.4L74.5 100.5V100.6H74.6H74.7V100.7H74.8H74.9H75H75.1H75.2H75.3H75.4H75.5V100.6H75.6H75.7V100.7H75.8H75.9V100.8L76 100.9V101V101.1V101.2H75.9V101.3H75.8V101.4V101.5H75.7L75.6 101.6H75.5V101.7H75.4H75.3H75.2H75.1V101.6H75L74.9 101.5H74.8H74.7V101.4H74.6H74.5V101.5M74.5 101.5H74.6M74.5 101.5V101.6H74.4H74.3V101.7V101.8L74.2 101.9H74.3V102H74.2V102.1H74.3V102.2V102.3H74.4V102.4H74.5V102.5H74.6H74.7H74.8V102.6H74.9H75V102.7H75.1H75.2L75.3 102.8H75.4H75.5V102.9H75.6H75.7V103H75.8V103.1V103.2V103.3V103.4V103.5V103.6V103.7H75.7V103.8V103.9H75.6V104V104.1H75.5V104.2V104.3L75.4 104.4V104.5H75.3V104.6H75.2V104.7V104.8H75.1V104.9V105V105.1V105.2V105.3V105.4V105.5H75.2V105.6V105.7H75.3V105.8H75.4V105.9H75.3V106V106.1H75.2H75.1H75H74.9H74.8H74.7H74.6V106.2V106.3H74.7V106.4H74.6V106.5L74.7 106.6V106.7L74.8 106.8H74.9V106.9H75V107L75.1 107.1H75.2V107.2H75.3H75.4V107.1H75.5L75.6 107L75.7 106.9V106.8L75.8 106.7V106.6L75.9 106.5V106.4H76H76.1H76.2H76.3L76.4 106.5H76.5L76.6 106.6V106.7V106.8H76.7V106.9V107V107.1H76.6V107.2H76.5H76.4V107.3H76.3V107.4H76.2H76.1H76V107.5H75.9H75.8H75.7V107.6L75.6 107.7V107.8V107.9H75.7V108V108.1M75.7 108.1H75.6M75.7 108.1V108.2V108.3H75.8V108.4H75.9V108.5V108.6L76 108.7V108.8H76.1V108.9V109L76 109.1V109H75.9V109.1V109.2H75.8V109.3H75.7V109.4V109.5H75.8V109.6L75.9 109.7V109.8H76V109.9V110V110.1V110.2H75.9V110.3H75.8H75.7H75.6H75.5V110.4H75.4V110.5V110.6V110.7H75.5V110.8V110.9H75.6L75.7 111L75.9 111.1H76H76.1H76.2H76.3V111.2V111.3H76.4V111.4H76.5V111.5V111.6V111.7V111.8V111.9V112L76.4 112.1V112.2L76.3 112.3V112.4H76.4V112.5V112.6H76.5V112.7H76.6H76.7V112.8H76.8H76.9V112.9H77V113L77.1 113.1V113.2V113.3V113.4V113.5V113.6V113.7H77.2V113.8H77.3H77.4V113.7H77.5L77.6 113.6V113.5L77.8 113.4H77.9H78H78.1L78.2 113.5H78.3V113.6V113.7V113.8V113.9H78.4V114H78.3V114.1H78.2V114.2V114.3H78.1V114.4V114.5H78H77.9H77.8H77.7L77.6 114.4H77.5H77.4V114.3V114.2L77.3 114.1L77.2 114H77.1V114.1H77L76.9 114H76.8H76.7V114.1V114.2H76.6V114.3V114.4V114.5H76.7H76.8V114.6L76.9 114.7V114.8H76.8V114.9H76.9V115H77V115.1V115.2H77.1V115.3V115.4H77.2V115.5V115.6V115.7V115.8H77.1V115.9H77V115.8H76.9H76.8H76.7V115.7H76.6H76.5H76.4L76.3 115.6V115.5V115.4V115.3V115.2V115.1V115H76.2H76.1H76H75.9V115.1V115.2V115.3H75.8V115.4V115.5V115.6L75.9 115.7V115.8V115.9V116H76V116.1V116.2V116.3V116.4V116.5H76.1V116.6H76.2V116.7H76.3H76.4H76.5H76.6V116.6L76.7 116.7H76.8H76.9V116.6H77V116.7H77.1H77.2V116.8L77.3 116.9V117V117.1L77.4 117.2H77.3V117.3V117.4V117.5H77.2V117.6L77.1 117.7V117.8H77L76.9 117.9V118V118.1H77V118.2H77.1L77.2 118.3H77.3L77.4 118.4H77.5H77.6H77.7V118.5V118.6V118.7H77.6V118.8V118.9H77.5V119H77.4H77.3H77.2L77.1 118.9H77V118.8H76.9V118.7V118.6H76.8V118.5H76.7V118.6H76.6V118.7V118.8V118.9V119V119.1H76.7L76.8 119.2H76.9L77 119.3H77.1V119.4V119.5H77.2L77.3 119.6H77.4H77.5V119.7H77.6V119.8V119.9V120V120.1V120.2L77.5 120.3H77.4V120.4H77.3L77.2 120.5V120.6V120.7L77.3 120.9L77.4 121.1V121.2V121.3L77.3 121.4L77.2 121.5L77.1 121.6V121.7H77V121.8V121.9L76.9 122V122.1V122.2V122.3H77V122.4H77.1V122.5H77V122.6V122.7H77.1M77.1 122.7V122.8M77.1 122.7H77.2H77.3V122.8V122.9V123V123.1H77.2V123.2V123.3H77.1H77H76.9H76.8H76.7H76.6H76.5V123.4H76.4V123.5V123.6V123.7L76.5 123.8V123.9L76.6 124H76.7V124.1H76.8H76.9H77H77.1V124.2H77.2H77.3V124.1H77.4H77.5V124H77.6H77.7V124.1V124.2H77.6V124.3H77.5V124.4V124.5V124.6V124.7H77.6V124.8V124.9V125H77.7V125.1L77.8 125.2H77.9H78M78 125.2V125.3M78 125.2H78.1H78.2H78.3H78.4L78.5 125.1H78.6L78.7 124.9L78.8 124.8L78.9 124.7H79H79.1H79.2H79.3V124.8H79.4V124.9V125H79.5V125.1V125.2V125.3H79.4V125.4H79.3V125.5V125.6V125.7V125.8V125.9H79.2V126V126.1H79.1V126.2V126.3L79 126.4H78.9L78.8 126.5V126.6H78.9L79 126.7L79.1 126.8H79.2V126.7H79.3H79.4V126.8H79.5H79.6V126.7V126.6H79.7V126.7H79.8H79.9V126.6H80L80.1 126.5L80.2 126.4H80.3V126.3V126.2V126.1H80.4V126H80.5H80.6V125.9L80.7 126H80.8V126.1H80.9V126.2V126.3V126.4V126.5V126.6L80.8 126.7H80.7V126.8L80.6 126.9H80.5H80.4V127L80.3 127.1H80.2L80.1 127.2V127.1H80V127.2H79.9L79.8 127.3L79.9 127.4H80V127.5H80.1V127.6V127.7H80.2H80.3H80.4H80.5H80.6H80.7H80.8V127.6H80.9H81.1L81.2 127.5H81.3H81.4V127.6H81.5V127.7L81.6 127.8V127.9V128L81.7 128.1H81.6V128.2V128.3L81.5 128.4H81.4V128.5H81.3H81.2H81.1H81H80.9H80.8H80.7L80.6 128.4H80.5V128.3H80.4V128.2H80.3V128.3H80.2L80.1 128.4V128.5V128.6V128.7H80.2L80.3 128.8V128.9H80.4H80.5H80.6V129H80.7L80.8 129.1V129.2H80.9H81H81.1H81.2H81.3H81.4V129.3H81.5V129.4H81.6V129.5H81.7H81.8V129.6V129.7V129.8V129.9L81.7 130V130.1M81.7 130.1H81.8M81.7 130.1V130.2V130.3L81.6 130.4H81.7V130.5H81.8H81.9L82 130.6H82.1V130.7H82.2H82.3H82.4V130.6H82.5H82.6V130.7V130.8L82.7 130.9V131H82.6V131.1V131.2V131.3H82.5V131.4L82.6 131.5H82.7H82.8H82.9H83V131.4H83.1V131.3M83.1 131.3H83" stroke="white" stroke-width="0.5" stroke-linecap="round" stroke-linejoin="round"/>
</g>
</svg>
