<svg width="165" height="151" viewBox="0 0 165 151" fill="none" xmlns="http://www.w3.org/2000/svg">
<g id="UA63">
<path d="M160.8 44.2L160.9 44.4L161.2 44.8L161.3 44.9L161.4 45.1L161.7 45.5V45.6L162.2 46.5L162.3 46.6L162.5 47L162.7 47.3L162.8 47.4L163 47.7L163.2 47.9L163.4 48.1L163.6 48.4L163.8 48.5L164 48.8L164.2 49L164.3 49.1V49.2L163.9 49.6H163.8L163.6 49.8V49.9H163.5H163.4H163.3H163.2H163H162.6L162.4 49.8H162.3H162.2L162.1 49.7H162H161.9H161.7H161.6L160.7 49.8H160.6H160.5V49.9L160.6 50V50.1V50.3L160.5 50.4L160.4 50.7L160.3 51.2L160.2 51.4L160.1 51.6V51.7L161 52.5L161.2 52.6L161.3 52.7L161.5 53L161.6 53.1L161.7 53.2L162 53.3L162.4 53.4L162.3 54H161.7L161.5 54.1L161.4 54.3V54.4L160.9 54.7H160.8V54.9L160.5 55.1L160.4 55.3L160.2 55.5L160.1 56V56.1L159.9 56.2L159.5 56.4H159.1V56.3H159V56.2H158.9H158.8V56.1H158.7L158.6 55.5L158.5 55.4L158.4 55.3L158.2 55.7L158 56L157.9 56.3L157.6 56.9L157.3 57.8L157.2 57.9V58V58.1V58.2L157.4 58.6L157.6 59.1L157.8 59.4L158 59.6H158.1L158.3 59.9L159.1 59.3L159.3 59.4L159.4 59.5H159.5H159.8H160.1L160.5 59.6V59.7V60.1H160.4L160.2 60.3L159.6 60.5L159.9 60.9H160.3V61.2V61.5V61.6V61.7H160.2V61.8L160.3 61.9L160.4 62.2L160.2 62.3H160.6V62.5V62.6H160.7L160.8 62.8L160.9 62.9L161 63H161.2V63.1V63.2L161.1 63.3L161 63.4V63.5L161.1 63.6H161.2V63.7H161.3H161.4V63.6V63.5L161.6 63.6V63.7L161.9 63.9L161.5 64L159.6 64.6H159.5H159.4V64.7L159.1 65L159 65.1V65.3L159.1 65.6L159.2 65.7L159.3 65.9V66H159.4V66.1V66.2H159.3L158.7 66.3H158.6V66.4L158.5 66.6L158.4 66.7V66.8L158.5 67L158.4 67.1V67.2H158.3L158.4 67.4H158.3H157.7H157.2L157 67.5H156.8V68L156.7 68.8H156.3V69.1V69.2V69.3L156.4 69.4L156.5 69.6V69.7L156.6 69.8L156.8 70.1H156.9L157 70.2L157.1 70.3L157.2 70.4V70.5H157.3V70.6V70.7L157.2 70.8L156.8 70.7H156.3H156H155.8L155.7 70.9L155.5 70.8L155.3 70.7L155.1 70.6H154.8L154.6 70.4V70.5L154.4 71L153.9 72.2V72.3L155 72.4H155.9V72.8V72.9L155.6 73.2L155.5 73.5L155.3 73.6L155 73.7L154.6 74L154.3 74.2L154.2 74.3L153.9 74.6L153.8 74.7L153.2 74.6H152.9H152.5L152.2 74.5H151.9V74.6L151.8 74.9V75V75.1L151.7 75.2L151.6 75.4V75.5H151.7V75.6V75.8L151.8 75.9V76L151.7 76.1V76.2L151.6 76.3V76.4L151.5 76.5V76.6H151.4V76.7L151.7 76.8L151.8 76.9L152.1 77.1V77.4L152 77.6V78.4L151.9 78.9V79.2L151.8 79.5V79.9L151.7 80.4L152.7 80.3H153.4L153.3 81L153.5 81.1V81.5V82.1L153.4 82.4V82.5H153.5L153.6 82.6L153.5 82.7V82.8L153.6 82.7L154 83.2L154.4 83.6V83.7V83.9L154.3 84V84.3V84.7L154.2 85V85.3L154.1 85.7V86.1L154 86.5V86.6V86.8L153.9 86.9V87.1V87.5H153.8V87.6V87.8L153.9 88V88.2V88.4H153.8L153.7 88.5V88.7V88.8L153.5 89.1V89.2V89.3H153.4V89.4L153.5 89.5V89.6L153.6 89.8L153.7 90L153.8 90.3V90.4V90.6H153.9V90.7H154H154.1L154.6 90.8H154.7L155 90.9L155.4 91L156.2 91.2L156.6 91.3H156.7H156.8H156.9V91.4L157 91.7V91.8L157.1 91.9L157.2 92.2L157.3 92.4L157.5 92.8L157.3 92.9L157.2 93H157.1L156.8 93.1H156.5L156 93.2H155.8L155.6 93.3H155.5H155.3L155.2 93.4L155 93.5L154.6 93.9H154.5L155.2 94.7L155 94.8L154.9 94.9L154.5 95H154.3L154.4 95.1V95.2V95.3H154.3H154.2L154.1 95.4H153.9V95.5H153.8L153.7 95.6H153.5L153.4 95.7H153.3L152.9 95.8L153 96V96.1L153.2 96.4L153.1 96.5H153H152.9H152.8L152.7 96.6V96.7L152.6 96.8V96.9L152.4 97.1L152.3 97.3L152.2 97.6L152.1 97.7L152 98L151.9 98.9V99H151.8L151.7 99.2H151.4H151.3L150.8 99.1V98.9H150.6L150.3 98.8H150.2H150.1V98.9H150V98.8H149.9H149.8H149.7H149.6H149.5H149.4V98.9V99.1V99.2L148.9 99L148.4 98.9L147.7 98.6L146.8 98.4L145.6 98L145.2 97.8H145.1H144.9L144.7 97.7L144 97.6L143.2 97.4L142.6 97.3L141.9 97.1L141.2 97L140.5 96.9L140.3 96.8H140.2H140.1H140L139.8 96.9H139.7L139.5 97H139.4H139.3H139.1H139H138.6H138.5L138.4 96.9H138.2H138.1H137.9L137.8 97L137.6 97.1L137.5 97.2L137.2 97.7H137.1V97.8L137 97.9L136.8 98.2L136.7 98.3L136.5 98.5L136.1 98.8L135 99.5L134.9 99.6L134.8 99.7L134.7 99.9L134.6 100V100.2L134.5 100.3L134.4 100.7H134.3V100.8H134.4L134.5 100.9H134.6H134.7H134.8H134.9L135 101H135.1H135.2L135.4 101.1L135.6 101.2H135.7L135.9 101.3L136 101.4L136.2 101.5L136.4 101.6L136.7 101.8L136.9 101.9L137 102H137.1V102.1H137.2V102.2H137.3V102.3V102.4V102.6H137.4V102.7V102.8V102.9L137.5 103V103.2L137.6 103.3V103.4V103.5V103.6H137.5H137.4H137.3L137.1 103.4H137H136.9L136.7 103.5L136.5 103.6H136.6V103.7H136.7L136.8 103.8L137 103.9H137.1L137.2 104V104.1H137.3V104.2L137.5 104.5H137.6L137.8 104.3H137.9H138L138.1 104.4L138.2 104.5L138.3 104.7L138.4 104.8H138.5L138.7 105V105.1L138.1 105.4L136.7 106.1L136.1 106.3L134.6 106.7L134.3 106.8H134.2L134.1 106.7L133.9 107L133.7 107.1L133.9 107.3L134 107.4V107.5H134.1V107.6L134.3 107.7H134.4L134.3 108L134.4 108.1L134.5 108.2L134.6 108.3V108.4L134.7 108.5V108.6V108.7H134.8V108.8V108.9H134.7V109V109.1V109.2V109.3L134.6 109.4H134.5L134.4 109.5H134.3V109.6L134.2 109.7V109.8V109.9H134.1H133.9H133.6H133.5H133.4H133.3H133.2V110V110.1L133.1 110.3L132.9 110.4V110.5L132.8 110.6L132.7 110.5V110.4V110.3V110.2V110.1V110H132.6V110.1L132.5 110.2V110.3H132.4V110.4H132.3H132.2V110.5H132.1V110.6H132V110.7H131.9V110.6L131.8 110.5H131.9V110.4V110.3V110.2V110.1V110H131.8V110.1L131.7 110.2L131.6 110.3H131.5L131.4 110.2L131.3 110.1V110L131.1 110.1H131V110.2H130.9H130.8V110.1H130.7H130.5H130.4L130.3 110H130.2V110.1L130.1 110.2V110.3L130 110.4V110.5L129.9 110.6L129.8 110.7L129.7 110.8H129.6H129.5H129.4H129.3H129.2L129.1 110.9H129H128.9H128.8L128.7 111H128.6L128.5 111.1V111.2L128.6 111.3V111.4L128.7 111.6L128.8 111.8H128.7V111.9H128.6V112V112.1V112.2V112.3L128.7 112.4V112.5H128.8L128.9 112.6V112.7V112.8V112.9H128.8V112.8L128.7 112.9L128.6 112.8L128.1 112.7L128 113.2L127.9 113.5V113.9V114.4V114.5L128 114.8V115.1V115.2H127.9H127.8V115.3H127.6V115.4H127.5H127.4L127.3 115.3V115.1V114.9L127.2 114.8L127 114.7H126.9L126.8 114.6L126.6 114.5H126.5L126.4 114.7L126.3 114.9V115V115.1H126.2V115.2L125.8 115.4V115.3L125.5 115.5L125.4 115.6H125.3H125L124.9 115.8V115.9H125H125.1H125.3H125.4H125.5V116V116.1H125.4H125.3H125.2H125.1V116.2V116.3V116.5H125V116.4V116.3H124.9H124.8H124.7V116.2L124.6 116.3L124.5 116.4V116.5H124.4V116.6V116.7L124.3 116.6H124.2V116.7V116.8H124.3V116.9H124.2H124.1V117H124V117.1L124.1 117.2V117.3H124.2H124.3H124.4H124.5L124.7 117.2L124.8 117.3L124.9 117.4H124.8H124.7H124.6V117.5H124.5V117.6V117.7H124.6V117.8H124.7H124.8V117.9V118H124.9V118.1H125H125.1H125.2H125.3H125.4L125.3 118.2V118.3V118.4L125.1 118.5H124.8H124.7V118.8V118.9V119V119.1H124.8V119.2H124.9H125V119.3V119.4H125.1L125.2 119.5H125.3H125.4H125.5V119.6H125.6V119.5H125.7V119.2L125.9 119.3V119.4L125.7 119.6V119.7V119.8H125.8H125.9V120.1L125.8 120.4V120.5L125.7 120.8H125.6L125.3 120.7H125L124.6 120.9H124.4V121H124.3V120.9V120.8V120.7H124.1H123.7H123.5H122.7V121.5L122.6 121.9L121.5 121.8V121.9L120.8 121.8H120.7H120.5V121.9V122H120.4L120.5 122.1V122.2H120.4V122.3V122.4V122.5H120.3V122.6L120.2 122.7L120.1 122.8V122.9L120 123V123.1V123.2H119.9V123.3H119.8V123.4H119.7V123.5H119.6V123.6H119.5H119.4H119.3V123.7V123.8H119.2V123.9H119.1V123.8H119H118.9V123.9V124.1V124.2H118.8V124.3V124.4V124.5L118.7 124.6V124.7H118.8V124.9V125V125.3L118.9 125.7L119 126.1V126.3V126.4L118.9 128.7V129L118.1 128.7L117.9 128.6L117.8 128.5L117.6 128.4H117.5L117.4 128.3H117.3H117.2L117.1 128.2L117 128.1V128L116.9 127.9V127.8L116.8 127.6H116.3V127.5L116.4 127.2L116.5 127.1L116.6 126.9L116.2 126.8H116.1H116H115.9H115.8H115.7L115.2 126.6L114.8 126.5L114.7 126.4L114.2 126.2L113.5 127.8L113.1 128.8H113H112.6L112.5 129H112.2H111.6H111.4H111.3L111.2 128.9H111.1H111H110.9H110.8L110.7 128.8H110.6L110.4 128.7L110.2 129.3V129.6L110.1 130H110L109.9 129.9H109.8H109.5V130.1L109.4 130.3L109.2 130.6V130.7L108.9 131.1L109.2 131.3L109.5 131.5L109.8 131.7L109.9 131.8L110.1 131.9L110.3 132H110.4V132.1V132.3L110.3 132.6H110.4H110.9L111.4 132.7H111.3V133L111.2 133.5L111.1 133.8H111L110.8 134H110.7V133.9L110.6 133.8H110.5V133.7H110.4H110.3V133.6V133.5H110.2V133.4H110.1V133.3V133.2H110V133.1H109.9L109.8 133L109.7 132.9V132.8H109.6H109.5H109.4L109.3 132.7H109.2V132.6V132.5H109.1V132.4H109V132.3H108.9V132.2H108.8V132.1H108.7H108.6V132V131.9H108.5V131.8V131.7H108.4V131.6V131.5H108.3V131.4V131.3H108.2V131.2H108.1V131.1H108V131H107.9V130.9V130.8H107.8H107.7V130.7H107.6V130.6H107.5H107.4L106.7 130.5L106.6 130.4H106.5L106.4 130.7H106.3H105.8L105.5 130.6H105.3V130.5H105.2V130.4V130.3H105L103.9 130.2H103.2H103L102.6 130.1H101.8L101.6 130.6L101.4 131.1L101.3 131.5L101.2 131.8L101.1 131.9V132V132.1V132.2H100.9L100.4 132.3H100.2L100.1 132.1H100L99.9 131.8H99.7H99.6L99.4 131.7H99.1H99H98.8L98.6 131.6H98.5L98.6 131.3L98.7 131.2L98.3 130.9L98.4 130.6L98.6 130H98.5H98.4L98.3 130.1H98.1L98 130.2L97.7 130.3H97.6H97.5H97.4H97.3H97.2H97.1L96.9 130.2H96.7L96.4 130H96.3L96.1 129.9H96L95.9 129.8H95.8H95.7H95.6L95.5 129.7H95.3H95.2H95.1L94.9 130L94.8 130.3L94.6 130.6L94.5 130.8L94.4 130.9L94.3 131.1V131.2L94.2 131.3V131.4H94.1L94 131.5H93.9L93.8 131.6L93.7 131.8L93.5 131.9V132.1L93.6 132.4V132.5H93.7V132.4H93.8H93.9V132.5H94H94.1H94.2H94.3H94.4H94.5V132.6V132.7L94.6 133.1L94.7 133.5V133.6L94.6 133.7H94.7V133.8V133.9L94.8 134L94.9 134.1V134.3V134.4H94.8H94.7V134.5L94.9 135.2L95.1 135.9L95.3 136.6L95.4 136.7V136.8L95.5 136.9L95.6 137V137.1H95.7V137.2V137.3H95.8V137.4V137.6L95.7 137.8L95.6 137.9V138V138.1H95.5V138.2H95.4H95.3H95.2H95.1L95 138.3V138.2H94.9V138.3H94.8H94.7H94.6V138.4H94.7V138.5H94.8H94.9L95 138.6V138.7V138.8V138.9H95.1V139V139.1H95V139H94.9V139.1L95 139.2H94.9H94.8V139.3V139.4H94.9V139.5H95V139.6H94.9V139.7V139.8H95H95.1H95.2V139.9V140L95.3 140.1V140.2H95.4V140.3H95.3H95.2V140.4L95.1 140.5V140.6H95.2H95.3V140.7V140.8H95.4H95.5V140.9H95.6V141V141.1H95.5H95.4H95.3H95.2V141.2V141.3H95.3V141.4H95.4H95.5V141.5V141.6V141.7V141.8H95.6H95.7V141.9H95.8V142V142.1V142.2L95.9 142.5V142.6V142.7V142.8V142.9L96 143.1V143.4L94.8 143.6H94.6L94.2 143.7V143.3H94L93.3 143.4L92.9 143.5H92.7H92.6L92.7 144L91.7 144.2L91.8 144.5V144.7L91 144.8L90.2 144.9H90.1L89.9 145L88.5 145.2V144.8L88 144.9V144.8L87.9 144.2H87.4L87.3 144.1H87.1V144V143.9H87V143.8V143.7H87.1L87 143.6H86.9H86.8L86.7 143.5L86.2 143.1L85.5 142.5L85.2 142.3L84.9 142L84.7 141.9L84.5 141.7L84.2 141.5L83.9 141.2L83.7 141L83.2 140.6L83.1 140.5V140.6L82.8 141L82.4 141.4L81.8 142.2L81.6 142.6H81.5L81.3 142.9H81.2H81.1H81H80.9L80.4 142.8L80.3 142.7H80.1H79.9V142.8L80.2 143H80.4H80.6L80.8 143.1L81 143.2L80.9 143.4L80.6 143.9L80.3 144.2H80.4L80.5 144.3H80.6H80.7H80.8H80.9H81H81.1H81.2V144.4H81.1H81L80.9 144.5H80.8H80.7H80.6V144.4H80.5H80.4L80.3 144.3L80.2 144.4L80.1 144.6L80 144.7L79.9 144.8L79.5 145.3V145.4V145.5H79.4V145.6L79 146.1V146.2L78.8 146.5L78.6 146.7L78.3 147.2L78 147.7L78.5 148.1L77.7 149.1L77.4 149.6L77.2 149.8V149.9L76.7 150.5L76.6 150.6L76.4 150.3L76.6 150L76.2 149.7L75.5 149.1L75.3 148.9L75.1 148.8L74.6 149.3L74.3 149.7L74.1 150L73.8 150.4L73.7 150.6L72.4 149.7L72.5 149.5L73 148.9L73.2 148.6L73.3 148.5L73.5 148.1L74 147.5L74.2 147.2L74.5 146.8L74.7 146.5L74.8 146.4L73.7 145.5L72.7 144.8L72.2 144.5L72.1 144.4V144.3H72L71.4 143.8V143.7V143.6V143.5V143.4H71.5L71.6 143.5H71.7V143.6H71.8V143.5L71.9 143.4V143.3H72V143.2V143.1V143V142.9H72.1V142.8H72.2V142.7V142.6H72.3V142.5H72.2V142.4H72.1V142.3H72.2V142.4H72.3V142.3V142.2V142.1H72.2V142V141.9V141.8H72.1L72.2 141.7V141.6H72.3V141.5H72.4L72.7 141.2H72.8L73.1 140.9L72.5 140.5L72.3 140.3H72.2V140.4V140.5H72.3L72.2 140.6L71.8 140.3L71.5 140L71.3 139.9L70.9 139.6L70.1 139.1L69.3 138.4L68.5 137.8L67.5 137.1L66.7 136.5L65.9 135.9L66.4 134.9L66.9 134L66.5 133.7L65.8 132.7H66L66.1 132.6H66.2L66.7 132.5V132.4L66.6 132.1L66.5 131.9L66.4 131.6L66.5 131.5L66.7 131.3H66.8L66.5 131.1L65.9 130.4L65.5 130V129.9L65.4 129.8V129.7V129.6H65.3H65.2H65.1V129.7H65V129.6V129.5L64.3 129.4H64.1L64 129.6H63.9L63.8 129.5H63.7H63.6H63.5H63.4V129.4H63.3V129.5H63.2V129.4H63.1V129.5H63V129.4H62.9V129.5H62.8H62.7H62.6H62.5H62.4V129.4H62.3V129.5H62.2V129.4H62.1V129.3H62V129.2V129.1H62.1V129H62.2V128.9V128.8V128.7H62.3V128.6V128.5V128.4H62.2V128.3V128.2H62.3V128.1V128L62.4 127.9V127.8H62.5H62.6V127.7H62.5V127.6V127.5V127.4V127.3H62.4V127.2H62.3H62.2L62.1 127.1H62L61.9 127L61.8 126.9H61.7H61.6V126.8H61.5H61.4H61.2H61.1L61 126.7L60.9 126.8H60.8L60.5 126.5L60.1 126.2L59.9 126.1L59.7 125.9L60.3 125.1L60.7 124.6L60.8 124.5L60.4 124.2L60.2 124.1L60.1 124L59.9 123.8L59.3 123.4L59.7 122.9L59.9 122.7L60.9 121.3V121.2L60.8 121.1H60.7L60.4 120.9L60 120.5L59.8 120.4L58.8 119.6L58.5 119.4L58.9 118.9L58.7 118.7L57.6 117.9L58.2 117.2V117.1L57.8 116.8L57.5 116.4L57.2 116.2L57.1 116.1L56.7 115.8L56.3 115.4L55.7 114.8H55.6V114.9V115L55.5 115.1H55.4V115.2V115.3H55.5V115.4H55.6V115.5V115.6V115.7V115.8H55.5V115.9V116H55.4V116.1V116.2H55.3V116.3V116.4H55.4H55.5V116.3H55.6H55.7V116.4H55.8V116.5H55.9V116.6H55.8L55.7 116.7H55.6V116.8L55.3 116.7H55.2H55.1V116.8H55H54.9H54.8V116.9H54.7V117H54.6V117.1V117.2H54.5H54.4H54.3V117.1V117H54.2V116.9H54.1H54V116.8H53.9H53.8V116.9H53.7H53.6L52.9 116.7L52.6 117.6L52.2 117.7V117.8H52.1L51.4 118V118.1L51.5 118.9V119H51.4H51.3L51.2 118.9H51.1L50.6 118.8L50.5 119.1V119H50.4V118.9V118.8H50.3V118.7L50.2 118.6H50.1V118.7V118.8H50V118.9L49.9 119L49.8 119.1L49.7 119.2V119.3V119.4H49.6H49.5V119.3H49.4V119.2H49.3H49.2V119.3H49.1V119.4V119.5V119.6H49.2V119.7L49.3 119.9V120L49.4 120.1V120.2H49.3V120.3H49.2H49.1V120.4H49V120.3H48.9H48.8L48.7 120.4V120.3H48.6L48.5 120.2V120.1H48.4V120V119.9H48.3V119.8H48.2V119.7V119.6V119.5V119.4H48.3H48.5H48.6V119.3L48.7 119.2V119.1H48.6H48.5L48.3 119H48.2V118.9H48.1V118.8V118.7L48.2 118.6V118.5V118.4V118.3H48.1H48V118.2H47.9H47.8V118.3V118.4V118.5H47.7V118.6H47.6L47.5 118.7H47.4H47.3V118.6H47.2V118.5H47.1V118.4H47V118.3H46.9L46.8 118.2H46.7H46.6V118.3H46.5V118.4V118.5L46.6 118.6V118.7H46.5V118.8H46.4H46.3H46.2H46.1L46 118.7H45.9H45.8H45.7H45.6V118.6H45.5V118.5V118.4H45.6V118.3V118.2V118.1H45.5L45.4 118V117.9H45.5V117.8L45.6 117.7V117.6H45.5V117.5L45.4 117.4L45.3 117.3H45.2V117.4V117.5H45.1H45H44.9V117.4V117.3H44.8H44.7V117.4H44.6V117.5H44.5V117.6L44.4 117.7V117.8H44.3V117.9L44.2 118V118.1H44.3V118.2V118.3H44.4V118.4V118.5H44.3V118.6V118.7H44.2L44.1 118.8L44 118.9H43.9H43.8H43.7H43.6V118.8V118.7H43.5L43.4 118.8V118.9H43.5V119V119.1L43.4 119.2V119.1H43.3V119H43.2V118.9V118.8V118.7H43.1V118.6H43.2V118.5H43.3V118.4H43.4V118.3V118.2H43.3V118.1L43.2 118V117.9H43.3V117.8L43.4 117.7V117.6V117.5V117.4V117.3H43.3V117.2H43.2H43.1V117.1H43H42.9V117H42.8H42.7V116.9H42.6V117H42.5H42.4V116.9H42.3H42.2H42.1H42V117H41.9V117.1H41.8V117.2H41.7V117.1V117V116.9V116.8H41.6V116.7H41.5V116.8H41.4H41.3H41.2H41.1H41H40.9V116.9V117H40.8V117.1H40.7V117.2H40.8V117.3V117.6H40.7H40.6H40.5H40.4H40.1L39.9 117.3V117.2V117.1L39.8 117V116.9V116.8V116.7V116.6H39.9V116.5V116.4V116.3H40V116.2V116.1H39.9H39.8H39.7H39.6H39.5H39.4H39.3V116.2H39.2H39.1H39V116.1H38.9V116.2H38.8H38.7H38.6H38.5V116.1H38.4V116V115.9V115.8H38.3H38.2V115.9H38.1V116L38 115.9H37.9V115.8L37.8 115.7V115.8H37.7L37.8 115.9V116V116.1V116.2H37.7H37.6V116.3V116.4H37.5V116.5V116.6V116.7H37.4L37.3 116.8H37.2H37.1V116.7V116.6H37.2V116.5H37.1V116.4H37L36.9 116.5H36.8V116.6V116.7H36.7V116.8H36.6L36.5 116.7V116.6V116.5H36.4L36.3 116.6H36.2H36.1H36H35.9L35.8 116.5H35.7H35.6V116.4V116.3H35.5V116.2L35.4 116.1H35.3H35.2H35.1H35V116.2V116.3L35.1 116.4V116.5V116.6H35L34.6 116.5L34.3 116.4H34.2V116.3L34.1 116.1H33.9V116.2L33.8 116.3L33.7 116.4L33.6 116.5H33.5H33.4V116.4H33.3V116.5L33.2 116.6H33.1L33 116.7L32.9 116.8L32.8 116.9L32.7 116.8V116.7H32.8V116.6V116.5V116.4H32.9H33V116.3H32.9V116.2H32.8H32.7L32.6 116.3H32.5V116.4H32.4H32.3V116.3L32.2 116.2V116.1V116L32.1 115.9L32 115.8V115.7H31.9L31.8 115.6L31.7 115.7H31.6H31.5L31.4 115.6H31.3V115.5V115.4L31.5 115.2V115.1V115H31.4V114.9H31.3H31.2H31.1H31H30.9V114.8H30.8L30.7 114.7H30.6L30.5 114.6V114.5H30.4H30.3V114.4H30.2V114.3V114.2H30.3V114.1H30.4V114V113.9H30.3V113.8H30.2H30.1V113.7H30H29.9V113.8V113.9H29.8L29.7 113.8V113.7H29.6V113.8H29.5L29.4 113.7L29.3 113.6V113.7H29.2V113.8H29.1H29H28.9V113.7H28.8L28.7 113.6V113.5H28.6H28.5V113.4V113.3H28.4L28.5 113.2L28.6 113.3H28.7V113.2V113.1V113H28.6V112.9V112.8H28.7H28.8V112.7V112.6H28.7H28.6V112.5H28.5V112.4H28.4V112.5H28.3H28.2V112.6H28.1H28L27.9 112.7H27.8L27.7 112.6H27.6V112.5V112.4H27.5V112.3L27.4 112.2H27.3V112.1L27.2 112H27.1V111.9L27 111.8L26.9 111.7H26.7V111.6H26.6H26.5H26.4H26.3H26.2H26.1H26V111.5H25.9V111.4H25.8H25.7V111.3H25.6H25.5V111.2V111.1H25.4V111H25.3V110.9H25.4H25.5L25.6 110.8V110.7H25.7V110.6H25.6V110.5L25.5 110.4H25.4H25.3V110.3H25.2V110.2V110.1L25.1 110H25H24.9H24.8V109.9H24.7V110H24.6V109.9H24.5V109.8H24.4V109.7L24.3 109.6V109.5H24.2V109.6H24.1H24V109.5H23.9H23.8H23.7V109.4H23.6H23.5V109.3H23.6V109.2L23.7 109.1V109.2H23.8V109.1V109V108.9H23.9H24V108.8H24.1V108.7V108.6V108.5H24V108.4V108.3V108.2V108.1V108H23.9V107.9H23.8V107.8V107.7H23.7H23.6V107.8V107.9H23.5H23.4V107.8H23.3V107.7H23.2V107.6H23.1V107.5L23 107.4V107.5H22.9H22.8H22.7V107.6V107.7H22.6V107.8H22.5V107.7V107.6V107.5H22.6V107.4H22.5L22.4 107.3V107.4V107.5V107.6V107.7V107.8H22.3H22.2V107.7L22.1 107.6L22 107.5H21.9V107.4L21.8 107.3V107.2L21.9 107.1V107V106.9L21.8 106.8V106.7L21.7 106.6H21.6H21.5V106.7H21.4V106.6H21.3V106.5V106.4V106.3V106.2V106.1V106H21.2L21.1 106.1H21L20.9 106.2H20.8H20.7V106.1H20.6V106H20.5H20.4H20.3V106.1V106.2L20.2 106.3V106.4H20.1V106.5L20 106.6V106.7V106.8H19.9V106.9V107H19.8H19.7V106.9H19.6V107H19.5V106.9V106.8V106.7V106.6L19.4 106.5H19.3H19L18.9 106.4H18.8H18.7H18.6H18.5H18.4H18.3H18.2H18.1H18V106.3H17.9L17.8 106.2V106.1H17.9V106V105.9H18H18.1V105.8L18.2 105.7L18.3 105.6H18.4H18.6H18.7L18.9 105.7V105.5V105.4H18.8V105.3H18.9V105.2H19L19.1 105.1H19.2H19.3H19.4L19.6 105.2L19.7 105.1H19.8V105H19.7V104.9H19.6L19.5 104.8L19.3 104.7H19.2L19.1 104.6L18.7 104.3L18.6 104.2H18.5V104.3H18.4V104.2H18.3V104.1H18.2H18.1H18H17.9V104V103.9V103.8L17.8 103.9V103.8V103.7H17.9L17.8 103.6V103.5H17.9V103.4V103.3H18H18.1L18.2 103.2H18.3H18.4H18.5H18.7H18.8H18.9V103.1L18.8 103L18.7 102.9L18.6 102.8H18.5H18.4H18.3L18.2 102.7V102.6L18.1 102.5V102.4H18H17.9H17.8V102.3V102.2H17.7L17.6 102.3H17.5V102.4H17.4L17.3 102.5V102.4H17.2H17.1V102.3H17H16.9H16.7H16.6H16.4L16.3 102.4V102.5H16.2V102.6L16.1 102.7V102.8H16V102.9V103H15.9V103.1H15.8H15.7V103.2H15.6H15.5V103.1H15.4H15.3L15.2 103H15.1H15V102.9H14.9V102.8H15V102.7H15.1H15.2V102.6V102.5H15.1H15V102.4H14.9L14.8 102.3H14.7L14.8 102.4V102.5H14.7L14.6 102.4H14.5V102.3V102.2V102.1H14.4L14.3 102.2V102.3V102.4H14.2H14.1V102.5H14L13.9 102.6H13.8V102.7H13.7V102.6H13.6H13.5H13.4L13.3 102.7H13.2H13.1V102.8H13L12.9 102.9V103H12.8V103.1V103.2H12.7V103.3H12.6V103.4V103.5V103.6V103.7V103.8V103.9H12.5L12.4 103.8V103.7H12.3V103.6H12.2V103.5V103.4L12.1 103.3V103.2V103.1V103H12.2V102.9V102.8H12.3V102.7V102.6V102.5V102.4V102.3L12.1 102.4L11.9 102.5L11.8 101.9L12 101.7L11.9 101.6H11.8L11.7 101.5H11.6L11.5 101.4H11.4V101.3V101.2H11.3H11.2V101.3H11.1V101.2H11V101.1H10.9V101.2H10.8V101.3H10.7V101.4V101.5L10.8 101.6V101.7V101.8V101.9V102V102.1L10.7 102.2V102.3H10.6V102.4V102.5V102.6L10.5 102.7V102.8H10.4H10.3H10.2L10.1 102.9H10L9.90002 103H9.79999H9.70001H9.59998L9.40002 103.1H9.29999H9.20001L9.09998 102.8L9 102.4L8.90002 102.1V102L8.70001 101.3L8.59998 100.7L8.40002 100.1L8.29999 99.3L8.09998 98.7L8 98.2L7.79999 97.6V97.3L7.70001 97.1V97L7.59998 96.8V96.7L7.5 96.2L7.29999 95.5L7.40002 95.1L7.5 94.9V94.8L7.59998 94.6L7.70001 94.1L7.90002 93.8L8.20001 92.8V92.7V92.6H8.29999V92.5V92.4L8.40002 92.3V92.1V92L8.5 91.9L8.59998 91.5L8.90002 91.6L9.09998 91.3V91.2H9L9.09998 91.1V91L9.20001 90.9V90.8L9.29999 90.6H9.40002V90.5L9.5 90.3L9.29999 90.2V90.1L9.40002 89.8H9.5V89.7H9.59998V89.6L9.90002 89.3H10L10.1 89.2L10.9 89.6L11.2 89.8L11.8 90.1L12.3 90.3V90.4H12.2V90.5V90.6V90.7V90.8H12.3V90.9V91V91.1H12.4V91.2H12.5V91.3L12.6 91.4H12.7V91.5H12.8V91.6H12.9L13 91.5H13.1H13.2H13.3V91.6H13.4H13.5L13.6 91.5H13.7V91.6H13.8V91.5H13.9H14H14.1L14.6 91.4L14.8 91.5H14.9H15H15.1L15.3 91.6H15.4H15.5L15.7 91.7L16.1 91.8L16.5 91.9H16.8H16.9V92L17 91.9H17.1V92L17.7 91.9L18.1 92H18.9L19.1 91.9L19.2 91.8V91.7L20.1 91.8L20.4 91.9H20.5L20.7 92L21.1 92.2L21.6 92.5L21.5 92.7L21.3 93L21.7 93.2L22 93.4L22.1 93.2L22.3 92.8V92.7V92.6H22.4V92.5V92.4V92.3H22.5L22.6 92.2L22.9 92L22.4 90.2L22.5 90L23 89.4L23.5 88.9L23.7 88.6L24 88.2H24.1L24.2 88L24.3 87.9L25.1 86.9L25.2 86.8H25.3V86.7L25.4 86.5L25.7 86.3V86.2L26.1 85.7L26.3 85.4L26.7 84.9L27 84.4L27.2 84.2V84.1H27.3V84H27.2L25.9 83.5V83.4L26 83L26.1 82.5V82.4L26.5 80.8V80.7L26.6 80.2H26.5V80.3H26.4H26.3L26.2 80.4L25.8 80L25.3 79.8L24.5 79.7L24.2 79.6L24.3 79.3L24.4 78.7L24.5 78.4V78.3L24.7 77.4L24.8 77L24.9 76.9L25 76.5L24.8 76.4L25 75.8L25.3 75.9H25.4L25.7 76H26.1L26.5 76.1L26.8 76.2L27.1 76.3L27.5 76.4H27.6L28.1 76.5L29.4 76.8L29.8 76.9L30.2 77L30.6 77.1L30.7 77.2H30.9L31.4 77.3L31.5 77.4H31.6V77.1L31.9 77.2L32.3 77.3L32.6 77.4L32.9 76.3L33 75.9V75.5V75.4L32.9 75.2L32.8 75.1V75V74.9L32.7 74.8L32 74.7L31.4 74.5L31 74.4V74.3L30.5 74.2L29.9 74.1L30 73.6L30.1 73H29.7L29.8 72.8V72.3L28.9 72.1L28.8 72L28.7 71.8V71.7V71.6L28.8 71.4L29.3 71.3H29.6H29.9L30 71.2H30.1H30.5H30.6H30.7H30.8L30.9 71.1H31.2H31.4H31.5H31.6H31.7H31.8V71H31.9H32H32.1H32.2V70.9V70.8H32.3H32.4L32.5 70.7L32.8 70.6V70.5L32.7 70.4L32.6 70.1L32.5 69.8L32.4 69.6L32.3 69.4L32.2 69.3L32.1 69L32 68.9V68.7L31.9 68.6V68.4L31.7 68.2L31.6 67.8L31.5 67.4L31.4 67L31.3 66.9V66.7L31.2 66.3L31 65.9V65.8L30.9 65.6L30.8 65.5L30.7 65.2V65.1H30.6L30.5 65L30.4 64.8L30.3 64.6L30.2 64.5L30 64.3L29.8 64H29.7V63.9V63.4L30.2 63.2V63.1V62.6L29.8 62.7V62.8H29.7H29.5H28.8L28 62.9V63.1L26.8 63.2L25.7 63.3L25.3 62.6L25.1 62.2L25 61.9H24.9H24.8L24.7 61.8H24.6H24.4H24.3H24.2H24.1H24H23.9L23.6 61.7H23.5H23.4H23.3H23.2V61.6H23.1H23H22.9H22.8H22.7H22.6V61.7H22.4H22.3L22.2 61.6V61.7H22.1L22 61.6H21.9L21.8 61.7H21.7V61.6H21.6H21.5V61.5H21.4H21.3L21 61.3L20.9 61.2H20.8V61.1H20.7H20.6V60.9L20.9 60.4L21.2 59.9V59.7H21.1L21 59.6L20.9 59.7L20.7 59.8L20.6 59.7V59.6H20.5L20.7 59.5L20.8 59.4L20.9 59.5L21 59.6L21.1 59.5H21.2H21.3H21.4H21.5H21.6L21.7 59.4L21.6 58.9L21.5 58.6V58.5L21.4 57.9H21.2H21L20.6 57.8L20.4 57.7H20.3H20.1H19.9H19.6L19.5 57.6L19.2 57.3L18.9 57L18.8 56.9L19 56.8H18.9V56.7V56.6V56.5V56.4V56.3L18.7 56.2V56.1V55.9V55.6L18.9 55.4L18.8 55.3H18.9V55.2L19 55L18.9 54.8L18.8 54.5L18.7 54.1L19 53.6V53.5H18.9L18.8 53.4H18.7V53.3H18.6L18.5 53.2V53.1L18.6 53L18.4 52.7L18.6 52.6L18.7 52.4H18.8V52.3L18.9 52.4H19L19.1 52.5H19.2L19.4 52.4L19.5 52.2L19.3 52V51.9L19.2 51.8V51.6L19.1 51.3V51.2L19.2 51.1L19.3 50.7L19.4 50.6V50.5V50.4H19.3L19.2 50.3H19.1V50.1H19H18.9H18.8L18.7 50H18.5H18.4H18.2L18.3 49.8V49.6L18.2 49.5L17.8 49.4L16.9 49H16.8L16.5 48.6L15.9 48.3L15.5 48.2L15.3 48.1V48.2L15 48.4H14.9V48.5H14.8H14.7L14.5 48.6L14.3 48.7L13.9 48.5L13.7 48.3H13.6L13.5 48.2H13.2L12.8 48.1L12.6 48L12.5 48.1L12.2 48.2H12H11.9H11.8H11.7L11.6 48.1V48L11.5 47.9V47.8H11.4L11.3 47.7L11.2 47.6H11.1L11 47.5V47.4H10.9V47.5H10.8V47.4V47.3L10.7 47.2H10.6V47.1V47H10.7H10.8H10.9L11 46.9H11.1L11 46.5L11.1 46.4H11.5V46H11.2L10.5 45.9L10 45.8L9.70001 46.1L9.59998 46.2L9.5 46.4L9.40002 46.5L9.29999 46.6L9.09998 46.8L8.20001 46.3L7.90002 46.2L7.79999 46.1L7.70001 46L7.5 45.9L7.40002 45.8H7.29999L7 45.9L6.90002 46.1H6.79999L6.5 45.9H6.40002V45.8H6.29999L6.09998 45.6L5.90002 45.4V45.3H5.79999H5.70001L5.59998 45.2L5.5 45.1V45L5.40002 44.9L5.09998 44.6V44.5L5 44.3L4.70001 43.7L4.40002 43.2L4.29999 43L4.09998 42.7L4 42.5L3.90002 42.3V42.2L3.5 42.3L3 42.4H2.90002L2.79999 42.3L2.70001 42.2L2.29999 41.7L2.20001 41.6V41.5H2.09998L1.90002 41.4V41.3L1.70001 41.1H1.59998H1.5H1.40002H1.29999H1.20001V41H1.29999V40.9L1.40002 40.8H1.5L1.59998 40.7H1.70001V40.6H1.79999V40.5V40.4H1.70001V40.3H1.59998L1.5 40V39.9L1.40002 39.7L1.29999 39.2L1.20001 38.9L1.09998 38.4L1 38.1H1.09998L1.20001 38L1.29999 37.9L1.40002 37.8L1.5 37.7L1.90002 37.2L2.20001 36.6H2.29999L2.79999 35.6L3 35.3V35.2L3.29999 34.6H3.40002L3.70001 34.2L4.09998 33.8L5 32.8L5.09998 32.6V32.3L5.59998 31.9L6.20001 31.5L6.40002 31.3V31.2V30.7L6.09998 30.6V30.4V30V29.8L5.79999 29.7H5.70001V29.6V29.5L5.5 29.6H5.09998V29.3L5 28.6V28.1V27.6V27.3L4.90002 26.9V26.6L5.09998 26L5.29999 25.1L6.5 24.9L6.70001 24.7L7 24.6L6.90002 24.3L6.79999 23.8L6.5 22.9L6.40002 22.6H6.5L7.09998 22.8L7.5 22.7H7.79999H8H8.40002V22.8V22.9H8.5V23L8.40002 23.1H8.59998L8.70001 22.6L9.40002 22.8L9.79999 22.9H9.90002V23V23.1V23.5L9.79999 24L10.3 24.1L10.4 24L10.6 23.6L11.1 22.8L11.2 22.5L11.4 22.7L11.5 22.6L11.4 22.5L11.5 22.3H11.6L11.8 22.1V22V21.9L11.9 21.8V21.7L11.8 21.6L12.2 21.3L11.9 21L11.8 20.9L12 20.8L12.1 20.7L12.7 20.4H12.8H12.9H13V20.3H13.1H13.5L13.6 20.2L13.7 20.1L14 19.9L14.5 19.5L14.7 19.3L14.8 19.2L15.1 18.9L15.4 18.5L15.8 18L16.3 18.3L17.5 18.9L18 19.1L18.1 19V18.9V18.8L18.2 18.5L18.3 18.3L18.4 18.4V18.5L18.3 18.6L18.9 18.7L19.6 19L20 19.1H20.1L20.3 18.5L20.7 18.6H21.4V18.5H21.5V18.4H21.4V18.3V18.2V18V17.9V17.8V17.7H21.5V17.6V17.5V17.4V17.3V17.2V17.1V17L21.4 16.9V16.7L21.5 16.6V16.5H21.6L21.7 16.4V16.3V16.2L22.3 16.3H22.4L23.4 16.4L23.7 16.2L24.2 15.8L24.4 15.7L24.9 15.6V15.5L25 15.3L24.7 15.2L23.5 14.5L23.2 14.3L23.9 13.4L24.3 12.8L24.4 12.7L24.5 12.6L24.4 12.4L24.9 12L25.5 12.4L25.6 12.5H25.7V12.6H25.8L25.9 12.7L26 12.8L26.1 12.9L26.7 13.3L26.9 13.4L27.6 13.9L27.7 13.3V13L27.6 12.9L27.5 12.6L27.4 11.9L28.3 12L28.8 11.9V11.8H29V11.7V11.6H29.1V11.5L29.2 11.4V11.3V11.2H29.3V11.1H29.4L29.5 11V10.9V10.8H29.6V10.7L29.7 10.8L30.3 11.7V11.8L30.4 12.1L30.5 12.2L31.5 12.3L31.4 12.7L31.5 12.8L32 13.1L32.5 13.5L32.9 13.8L33.3 14.1L33.4 13.9L33.5 13.8L33.6 13.6H33.7V13.5L34.4 14L34.7 14.3L34.8 14.1L34.9 13.9L35 14.1L35.1 14L35 13.9V13.8L35.1 13.6H35.2L35.3 13.4V13.3L35.2 13.2L34.7 12.6L34.3 12.1H34.5H34.6L35 12L35.7 11.9L36.4 11.8H36.5H36.6H36.7L36.9 11.9H37.2L37.6 11.6L37.9 11.4L38.1 11.2L38.2 11L38.4 11.1L38.5 11.2H38.6L38.9 11.3H39L39.1 11.4H39.2H39.4H39.6L40 11.5H40.1L40 11.6L39.9 11.7L39.8 11.9L39.9 12L40 12.1H40.1L40.4 12.3V12.4L41.1 12.7V12.5H41.3H41.4L41.5 12L41.6 11.6V11.4H41.8H42.3V11.3L42.5 11.1V11H42.7V10.8V10.7H43L43.2 10.1V10V9.89999L43 9.8L42.7 9.7L42.6 10.1L41.6 9.89999L41.3 9.8V9.60001L41.5 9.39999H41.6H41.7L41.8 9.3H41.9L42 9.2L42.2 9.10001H42.3H42.5H42.9H43.2H43.4H43.8L44.1 9.2H44.2H44.6H45H45.1H45.3H45.5H45.6L45.7 9L45.8 8.89999V8.8L46 8.60001L46.2 8.39999L46.4 8.10001H46.5L46.6 7.89999L46.9 7.7L47.2 7.3L47.4 7.2L47.7 6.89999L47.9 6.8V6.7L48 6.60001L48.2 6.5V6.39999H48.3V6.3H48.4V6.2L48.5 6.10001L48.6 6V5.89999H48.7V5.8H48.8V5.7V5.60001L48.9 5.5V5.39999V5.3L49 5.2V5.10001V5V4.89999V4.8V4.7H48.9H48.8H48.7H48.6H48.5V4.60001H48.4V4.5V4.39999H48.3V4.3L49 3.8L49.1 3.7H49.2V3.60001H49.3L49.4 3.5H49.5V3.39999H49.6L49.7 3.3L49.8 3.2H49.9L50 3.10001L50.1 3L50.2 2.89999H50.3L50.4 3.60001L50.8 3.5L51 3.39999L51.4 3.2L51.6 3.39999L52 3.60001L52.4 3.5L52.5 3.39999L52.6 3.3V3.2L52.7 3.10001L52.8 2.89999H52.9L53 2.8L53.1 2.5H53.2V2.60001H53.3H53.4V2.5H53.5H53.6H53.7H53.8V2.60001H53.9V2.5H54V2.60001H54.1V2.7V2.8H54.2H54.3H54.4H54.5H54.6L54.7 2.7V2.60001H54.8V2.7H54.9L55 2.8H55.1V2.89999H55.2V3H55.3V3.10001H55.4H55.5H55.6V3V2.89999H55.7H55.8H55.9H56H56.1V2.8H56.2H56.3H56.4V2.89999H56.5H56.6V2.8H56.7H56.8L56.9 2.7H57H57.1H57.2L57.3 2.60001H57.4V2.5L57.5 2.39999L57.4 2.3H57.8H57.9H58H58.1H58.2L58.3 2.2H58.4H58.5H58.6H58.7V2.10001H58.8V2H58.9H59H59.1V1.89999H59.2V2H59.3H59.4H59.5H59.6H59.7V1.89999H59.8L59.9 2L60 1.89999H60.1V1.8H60.2H60.3H60.4H60.5H60.6V1.7H60.7H60.8H60.9H61V1.8H61.1V1.7H61.2H61.3V1.60001H61.4H61.5H61.6L61.7 1.5H61.8H62H62.1H62.2V1.60001V1.7V1.8V1.89999H62.3L62.4 1.8H62.5H62.6H62.7H62.8V1.7H62.9H63H63.1V1.8H63.2V1.89999H63.3V2H63.4L63.6 2.10001H63.7L63.8 2.2L64 2.3H64.1H64.2L64.3 2.39999H64.4V2.5H64.5H64.6H64.7H64.8H64.9H65V2.60001H65.1H65.2H65.3H65.5H65.6H65.7L65.8 2.7H66L66.1 2.8H66.2H66.3V2.89999H66.4H66.5L66.6 3V3.10001H66.7H66.8L66.9 3.2V3.3V3.39999V3.5H67V3.60001V3.7V3.8L67.1 3.89999V4V4.10001L67.2 4.2V4.3V4.39999V4.60001H67.3V4.7V4.8V4.89999H67.4V5L67.5 5.10001V5.2L67.6 5.39999H67.7L67.8 5.3L67.9 5.2L68 5.10001H68.1H68.2L68.3 5.2L68.4 5.3L68.5 5.39999H68.6L68.7 5.5L68.9 5.89999H69V6H69.1V6.10001H69.2V6.2H69.3V6.3V6.39999V6.5V6.60001H69.4V6.7V6.8H69.5V6.89999H69.6V7L69.7 7.10001L69.8 7.2V7.3H69.9L70 7.39999V7.5L70.1 7.60001L70.2 7.7H70.3V7.8H70.4V7.89999V8V8.10001V8.2L70.5 8.3V8.39999V8.5H70.6L70.8 8.7V8.8H70.9V8.89999H71H71.1L71.2 9H71.4L71.6 9.10001H71.7L71.8 9.2V9.3L71.9 9.39999V9.5H72L72.1 9.60001L72.3 9.89999L72.4 10L72.5 10.1L72.6 10.2L72.7 10.3L72.9 10.4L73 10.6V10.7V10.8L72.8 11V11.1L72.7 11.2L72.6 11.4V11.5L72.5 11.6H72.6H72.7H72.8L72.9 11.7H72.8V11.8V11.9L72.7 12V12.1V12.2V12.3L72.8 12.4V12.5H72.9V12.6V12.7L73 12.9H73.1V13V13.1V13.2V13.3V13.4V13.5H73.2V13.6H73.3L73.4 13.5H73.5H73.6H73.7H73.8V13.6V13.7V13.8V13.9H73.7V14V14.1H73.8H73.9H74H74.1H74.2H74.3L74.4 14.2H74.5H74.6H74.7H74.8H74.9L75 14.3H75.1H75.2H75.3H75.4H75.6H75.7H75.8H75.9H76L76.1 14.4H76.2H76.3H76.4H76.5H76.6L77 14.1L77.6 13.5V13.4H77.7H77.8V13.3H77.9H78H78.1L78.2 13.2L78.4 13.1H78.5L78.6 13H78.7H78.8L78.9 12.9V12.8H79L79.1 12.7H79.2V12.6H79.3L79.4 12.5L79.5 12.4V12.3H79.6V12.2V12.1L79.7 12L79.8 11.9L79.9 11.8V11.7L80 11.6V11.5V11.4H80.1V11.3H80.2V11.2L80.5 11.1H80.6L80.7 11.3V11.4V11.7L80.8 11.8V12V12.1V12.2L80.9 12.3V12.4V12.6H81H81.1H81.3L81.4 12.5H81.5H81.8H82.1H82.2H82.5V12.4H82.6L82.8 12.5H83H83.2L83.3 12.6H83.4V12.8V12.9V13H83.5V13.1H83.6V13.2H83.7L83.8 13.3H83.9V13.4L84 13.5V13.6H84.2L84.3 13.7L84.4 13.8H84.5H84.6H84.7H84.8V13.9L85.3 14V14.1H85.2V14.2V14.3H85.1V14.4V14.5L85.2 14.6H85.3H85.4H85.5V14.7H85.6H85.7H85.8H85.9H86V14.8H86.1H86.2L86.3 14.9H86.4H86.5H86.6H86.7H86.8H86.9V14.8H87V14.7H87.1H87.2L87.3 14.6H87.4H87.5H87.6H87.7H87.8H87.9H88H88.1H88.2H88.3V14.7H88.4V14.8V14.9V15L88.5 15.1L88.6 15.2H88.7V15.4H88.5H88.2H88.1H88H87.8V15.5H87.7L87.8 15.6V15.7V15.8V15.9V16L87.9 16.1V16.2L88 16.4L87.7 16.6H87.8L87.9 16.7L87.8 16.8L87.7 17V16.9H87.6H87.5V16.8H87.4V16.9L87.2 17.1L87.1 17.2L87 17.3V17.4H87.1V17.5H87.2V17.6L87.3 17.7L87.4 17.8L87.5 17.9H87.6L87.7 18H87.8V18.1V18.2H87.9V18.3H88L88.1 18.4V18.5H88.2L88.3 18.6H88.4L88.5 18.7L88.6 18.8H88.7L89 19H88.9H88.8L88.9 19.1H89V19.2H89.1L89.2 19.3H89.4V19.4H89.5L89.6 19.5H89.7V19.4V19.3V19.2H89.8H89.9H90L90.2 19.3L90.3 19.4H90.5L90.6 19.5H90.7H90.8L90.9 19.6H91L91.1 19.7H91.2L91.3 19.9H91.4V20L91.5 19.9H91.6H91.7L91.8 19.8L92 19.7H92.1L92.2 19.6L92.3 19.5V19.4H92.4V19.3L92.5 19.2L92.6 19.1V19V18.9H92.7V18.8H92.8V18.7L92.9 18.6V18.5H93V18.4V18.3V18.2H93.1V18.1V18V17.9V17.8L93.2 17.7V17.6V17.5V17.4V17.3V17.2V17.1V17V16.9V16.8V16.7H93.3V16.5L93.4 16.4V16.3V16.2L93.5 16.1L93.6 16H93.7V15.9H93.8V16H93.9V16.1L94.2 16V15.9L94.5 15.8V15.7H94.6L94.7 15.6L94.8 15.5L94.9 15.4L95 15.3H95.1H95.2H95.3H95.4L95.9 15L96.1 14.8L96.6 14.6V14.5H96.5V14.4H96.6L96.7 14.3H96.8H96.9H97L97.3 14.1L97.4 13.9V13.8V13.7L97.5 13.3H97.6L97.7 13.2H97.8H97.9H98H98.1H98.2H98.3V13.1H98.4H98.5H98.6L98.7 13H98.8H98.9H99H99.1L99.2 12.8L99.3 12.7L99.5 12.6H99.7L99.8 12.5H100H100.1L101.3 11.7L101.5 11.6L101.6 11.4L101.7 11.3L101.9 11.1L102.1 11H102.2L102.3 10.9L102.5 10.8L102.6 10.7H102.7L102.8 10.6H102.9H103H103.1H103.2L103.4 10.5H103.5L103.6 10.4H103.7L103.8 10.3H103.9L104.1 10.2L104.2 10.1H104.3L104.5 10L104.6 9.89999H104.8L104.9 9.8H105H105.1V9.7H105.2H105.3L105.5 9.60001H105.7L105.9 9.5H106H106.1H106.2H106.3H106.5L106.6 9.60001H106.7H106.8H106.9H107H107.5H107.7H107.8H107.9H108.1H108.2H108.4H108.5H108.8H108.9H109H109.2H109.3H109.4H109.5H109.6H109.7H109.8H109.9H110H110.1H110.2H110.3H110.4H110.5H110.6H110.7H110.8H110.9H111H111.1V9.7H111.2V9.8H111.3L111.4 9.89999H111.5H111.6L111.8 9.8H111.9H112H112.1H112.2H112.3H112.4H112.6H112.7H112.8H112.9L113 9.7H113.1H113.2H113.3H113.4L113.5 9.60001H113.7H113.8L113.9 9.5H114H114.2L114.4 9.39999H114.5V9.3V9.2V9.10001H114.4V9V8.89999H114.6H114.7H114.8H114.9L115.1 8.8H115.2H115.3H115.4H115.5L115.6 8.7H115.7H115.8H115.9H116H116.1H116.2L116.3 8.8H116.4L116.5 8.89999L116.6 9L116.7 9.10001L116.8 9H116.9H117L117.1 8.89999H117.2L117.3 8.8H117.5L117.6 8.7L117.8 8.60001H118H118.1H118.2V8.5H118.3H118.4V8.39999H118.5L118.6 8.3L118.8 8.2H118.9L119.1 8H119.2V7.89999H119.4L119.5 7.8H119.6L119.7 7.7H119.8L119.9 7.60001H120L120.1 7.5L120.3 7.39999L120.4 7.3V7.2L120.7 7L120.8 6.89999L121 6.8L121.2 6.7L121.4 6.60001L121.5 6.5L121.8 6.3L122.1 6.10001L122.2 6.3L122.3 6.2H122.4V6.10001L122.5 6H122.6H122.7L122.8 5.89999H122.9H123L123.1 5.8H123.2L123.3 5.7H123.4L123.5 5.60001H123.6H123.7L123.8 5.5H123.9L124 5.39999L124.1 5.2H124.2L124.3 5.10001V5L124.4 4.89999V4.8V4.7L124.5 4.60001V4.5V4.39999L124.6 4.3V4.2V4.10001L124.7 4V3.89999V3.8H124.8V3.7V3.60001V3.5L124.9 3.39999V3.3H125L125.1 3.2L125.2 3.10001V3H125.3V2.89999H125.4H125.5L125.6 2.8H125.7V2.7H125.8H125.9V2.60001H126H126.2H126.3H126.4H126.5H126.6H126.7H126.8H126.9H127H127.1V2.7H127.2L127.4 2.8H127.5H127.6L127.7 2.89999H127.8H128L128.1 3H128.2H128.3H128.5L128.8 3.10001H129H129.1H129.2H129.3L129.4 3H129.5H129.6H129.8H129.9L130 2.89999H130.2H130.3L130.4 2.8L130.5 2.7L130.6 2.60001L130.7 2.5L130.8 2.39999L130.9 2.3V2.2L131 2.10001L131.1 2H131.3L131.4 1.89999H131.5L131.6 1.8H131.8L131.9 1.7H132L132.3 1.5H132.5L132.6 1.39999H132.8V1.3H132.9L133 1.2L133.1 1.10001V1L133.2 0.899994H133.4H133.5H133.6V1H133.7H133.9V1.10001L133.8 1.3V1.39999V1.5V1.60001L133.7 1.7V1.8V1.89999H133.6V2V2.10001V2.2V2.3V2.39999V2.5V2.60001L133.7 2.7H133.6V2.8L133.5 2.89999V3V3.10001H133.4H133.3H133.2H133.1H133H132.9H132.8L132.6 3.2V3.3V3.5V3.60001V3.7V3.8V3.89999V4H132.7V4.10001V4.2L132.6 4.3V4.39999V4.5V4.60001L132.7 4.7V4.8V4.89999V5V5.10001V5.2V5.3V5.5V5.60001V5.7V5.89999V6.2V6.3V6.5V6.7V6.89999V7V7.10001V7.2V7.3H132.8V7.39999H132.9V7.5V7.60001V7.7V7.8V7.89999L133 8V8.10001H133.1V8.2H133.2V8.3L133.4 8.60001L133.6 8.89999V9H133.7L133.9 9.10001H134L134.2 9.2L134.5 9.3H134.6L134.7 9.39999V9.5L134.8 9.7V9.8L134.9 9.89999L135.1 10.1L135.2 10.2L135.4 10.5V10.6H135.5L135.7 10.7H135.8L136.1 10.8H136.2L136.4 10.9H136.5H136.6L136.7 11H136.8L137 11.1H137.2V11.2L137.3 11.3L137.4 11.4L137.5 11.6V11.7L137.6 11.9H137.7V12L137.8 12.1V12.2L137.9 12.3L138 12.5L138.1 12.7L138.3 13L138.4 12.8L138.5 12.7V12.6H138.6V12.5L138.7 12.4V12.3H138.8H138.9L139 12.2H139.1H139.2H139.3H139.5H139.7H139.9H140H140.2L140.5 12.3H140.6H140.7L140.8 12.4H140.9H141L141.1 12.5H141.2V12.6L141.3 12.8V13V13.2V13.3L141.2 13.4L141.1 13.6L140.9 13.7V13.8L140.8 13.9V14V14.2V14.9V15V15.2V15.3V15.4V15.5V15.6V15.7V16V16.1V16.2V16.3V16.4V16.8V17V17.1V17.2V17.3V17.4L140.7 17.5V17.6V17.7V17.8L140.8 17.9V18V18.1V18.2V18.3L140.7 18.4V18.5L140.6 18.6V18.7L140.5 18.8V19L140.4 19.1V19.2L140.3 19.3L140.2 19.6V19.7V19.8V19.9V20V20.1L140.3 20.2V20.3H140.4L140.5 20.4V20.5L140.6 20.6V20.7V20.8H140.7V20.9L140.8 21L140.9 21.1L141 21.2V21.3L141.2 21.4V21.5L141.3 21.6L141.4 21.7L141.5 21.9L141.6 22.1V22.2V22.3L141.5 22.4V22.5V22.6V22.7V22.8H141.4V22.9V23V23.1H141.5V23.2V23.3H141.6V23.4H141.7H141.8V23.5H141.9V23.6L142 23.7H142.1V23.8V23.9H142.2V24V24.1H142.3V24.2L142.4 24.3L142.5 24.4V24.5H142.6V24.6H142.7V24.7L142.8 24.8V24.9H142.9V25V25.1H143V25.2H143.1H143.2V25.3H143.3V25.4H143.4V25.5L143.5 25.6H143.6L143.7 25.7L143.8 25.8H143.9V25.9H144L144.1 26H144.2V26.1V26.2V26.3H144.3V26.4H144.4V26.5H144.5V26.6H144.6H144.7H144.8H144.9V26.7V26.8V26.9H144.8V27H144.9V27.1L145 27.2V27.4H145.1L145.2 27.6V27.7L145.3 27.8V27.9L145.4 28L145.5 28.2V28.3L145.6 28.4L145.7 28.5V28.6H145.8V28.7L146 28.9H146.1L146.2 29V29.1H146.3V29.2V29.3H146.4V29.4H146.5V29.5L146.6 29.6L146.7 29.7V29.8H146.8L146.9 30L147.1 30.4L147.3 30.9L147.6 30.8H148H148.1V30.7H148.2H148.5L148.8 30.6H148.9L149 30.5H149.2H149.4L149.5 30.6H149.6L149.7 30.8H149.8L149.9 30.9L150 31L150.1 31.1L150.2 31.2V31.3H150.3L150.4 31.5H150.5L150.7 31.7H150.8L150.9 31.8L151 31.9L151.3 32L151.4 32.1L151.5 32.2H151.7L151.8 32.3L152.1 32.5H152.2L152.3 32.6H152.4V32.7H152.5L152.6 32.8H152.8H152.9L153 32.9H153.2H153.3H153.4L153.6 33H153.7H153.9H154V33.1H154.1H154.2L154.3 33.2L154.5 33.3L154.6 33.4H154.7L154.8 33.5L154.9 33.6L155 33.7H155.1V33.8L155.3 33.9L155.4 34H155.5L155.6 34.1L155.7 34.2H155.8V34.3L155.9 34.4L156 34.6V34.8L156.1 34.9V35V35.1V35.2H156.2V35.3H156.3V35.4V35.5V35.6H156.4V35.7L156.6 36H156.7V36.1V36.2V36.3V36.4H156.8V36.5L156.9 36.6V36.7V36.8L157 36.9V37L157.1 37.1L157.2 37.3V37.4L157.3 37.5V37.6L157.4 37.7V37.8L157.5 37.9V38L157.6 38.2V38.3H157.7V38.4H157.8V38.5L157.9 38.6V38.7H158V38.8H158.1H158.3H158.4L158.5 38.9H158.6H158.7V39L158.8 39.1L159 39.3L159.1 39.4L159.2 39.6L159.4 39.7L159.5 39.9L159.6 40L159.8 39.7H159.9L160 39.8V39.9H160.1L160 40H160.1V40.1L160.2 40.2L160.3 40.3L160.4 40.4L160.5 40.5L160.6 40.6L160.7 40.7V40.8L160.8 40.9H160.9V41L161 41.1V41.2H161.1V41.3L161.2 41.5L161.3 41.6L161.4 41.7L161.5 41.8V41.9L161.7 42.1L161.8 42.3V42.4H161.7L161.6 42.5L161.4 42.6L161.2 42.7H161.1L160.9 42.8L160.8 42.9H160.7V43V43.1H160.8V43.2V43.3V43.4H160.9L160.6 43.7L160.8 44.2Z" fill="#6F9C76"/>
<path d="M161.2 63.2V63.1V63H161L160.9 62.9L160.8 62.8L160.7 62.6H160.6V62.5V62.3H160.2L160.4 62.2L160.3 61.9L160.2 61.8V61.7H160.3V61.6V61.5V61.2V60.9H159.9L159.6 60.5L160.2 60.3L160.4 60.1H160.5V59.7V59.6L160.1 59.5H159.8H159.5H159.4L159.3 59.4L159.1 59.3L158.3 59.9L158.1 59.6H158L157.8 59.4L157.6 59.1L157.4 58.6L157.2 58.2V58.1V58V57.9L157.3 57.8L157.6 56.9L157.9 56.3L158 56L158.2 55.7L158.4 55.3L158.5 55.4L158.6 55.5L158.7 56.1H158.8V56.2H158.9H159V56.3H159.1V56.4H159.5L159.9 56.2L160.1 56.1V56L160.2 55.5L160.4 55.3L160.5 55.1L160.8 54.9V54.7H160.9L161.4 54.4V54.3L161.5 54.1L161.7 54H162.3L162.4 53.4L162 53.3L161.7 53.2L161.6 53.1L161.5 53L161.3 52.7L161.2 52.6L161 52.5L160.1 51.7V51.6L160.2 51.4L160.3 51.2L160.4 50.7L160.5 50.4L160.6 50.3V50.1V50L160.5 49.9V49.8H160.6H160.7L161.6 49.7H161.7H161.9H162H162.1L162.2 49.8H162.3H162.4L162.6 49.9H163H163.2H163.3H163.4H163.5H163.6V49.8L163.8 49.6H163.9L164.3 49.2V49.1L164.2 49L164 48.8L163.8 48.5L163.6 48.4L163.4 48.1L163.2 47.9L163 47.7L162.8 47.4L162.7 47.3L162.5 47L162.3 46.6L162.2 46.5L161.7 45.6V45.5L161.4 45.1L161.3 44.9L161.2 44.8L160.9 44.4L160.8 44.2L160.6 43.7L160.9 43.4H160.8V43.3V43.2V43.1H160.7V43V42.9H160.8L160.9 42.8L161.1 42.7H161.2L161.4 42.6L161.6 42.5L161.7 42.4H161.8V42.3L161.7 42.1L161.5 41.9V41.8L161.4 41.7L161.3 41.6L161.2 41.5L161.1 41.3V41.2H161V41.1L160.9 41V40.9H160.8L160.7 40.8V40.7L160.6 40.6L160.5 40.5L160.4 40.4L160.3 40.3L160.2 40.2L160.1 40.1V40H160L160.1 39.9H160V39.8L159.9 39.7H159.8L159.6 40L159.5 39.9L159.4 39.7L159.2 39.6L159.1 39.4L159 39.3L158.8 39.1L158.7 39V38.9H158.6H158.5L158.4 38.8H158.3H158.1H158V38.7H157.9V38.6L157.8 38.5V38.4H157.7V38.3H157.6V38.2L157.5 38V37.9L157.4 37.8V37.7L157.3 37.6V37.5L157.2 37.4V37.3L157.1 37.1L157 37V36.9L156.9 36.8V36.7V36.6L156.8 36.5V36.4H156.7V36.3V36.2V36.1V36H156.6L156.4 35.7V35.6H156.3V35.5V35.4V35.3H156.2V35.2H156.1V35.1V35V34.9L156 34.8V34.6L155.9 34.4L155.8 34.3V34.2H155.7L155.6 34.1L155.5 34H155.4L155.3 33.9L155.1 33.8V33.7H155L154.9 33.6L154.8 33.5L154.7 33.4H154.6L154.5 33.3L154.3 33.2L154.2 33.1H154.1H154V33H153.9H153.7H153.6L153.4 32.9H153.3H153.2H153L152.9 32.8H152.8H152.6L152.5 32.7H152.4V32.6H152.3L152.2 32.5H152.1L151.8 32.3L151.7 32.2H151.5L151.4 32.1L151.3 32L151 31.9L150.9 31.8L150.8 31.7H150.7L150.5 31.5H150.4L150.3 31.3H150.2V31.2L150.1 31.1L150 31L149.9 30.9L149.8 30.8H149.7L149.6 30.6H149.5L149.4 30.5H149.2H149L148.9 30.6H148.8L148.5 30.7H148.2H148.1V30.8H148H147.6L147.3 30.9L147.1 30.4L146.9 30L146.8 29.8H146.7V29.7L146.6 29.6L146.5 29.5V29.4H146.4V29.3H146.3V29.2V29.1H146.2V29L146.1 28.9H146L145.8 28.7V28.6H145.7V28.5L145.6 28.4L145.5 28.3V28.2L145.4 28L145.3 27.9V27.8L145.2 27.7V27.6L145.1 27.4H145V27.2L144.9 27.1V27H144.8V26.9H144.9V26.8V26.7V26.6H144.8H144.7H144.6H144.5V26.5H144.4V26.4H144.3V26.3H144.2V26.2V26.1V26H144.1L144 25.9H143.9V25.8H143.8L143.7 25.7L143.6 25.6H143.5L143.4 25.5V25.4H143.3V25.3H143.2V25.2H143.1H143V25.1H142.9V25V24.9H142.8V24.8L142.7 24.7V24.6H142.6V24.5H142.5V24.4L142.4 24.3L142.3 24.2V24.1H142.2V24V23.9H142.1V23.8V23.7H142L141.9 23.6V23.5H141.8V23.4H141.7H141.6V23.3H141.5V23.2V23.1H141.4V23V22.9V22.8H141.5V22.7V22.6V22.5V22.4L141.6 22.3V22.2V22.1L141.5 21.9L141.4 21.7L141.3 21.6L141.2 21.5V21.4L141 21.3V21.2L140.9 21.1L140.8 21L140.7 20.9V20.8H140.6V20.7V20.6L140.5 20.5V20.4L140.4 20.3H140.3V20.2L140.2 20.1V20V19.9V19.8V19.7V19.6L140.3 19.3L140.4 19.2V19.1L140.5 19V18.8L140.6 18.7V18.6L140.7 18.5V18.4L140.8 18.3V18.2V18.1V18V17.9L140.7 17.8V17.7V17.6V17.5L140.8 17.4V17.3V17.2V17.1V17V16.8V16.4V16.3V16.2V16.1V16V15.7V15.6V15.5V15.4V15.3V15.2V15V14.9V14.2V14V13.9L140.9 13.8V13.7L141.1 13.6L141.2 13.4L141.3 13.3V13.2M161.2 63.2H161.1M161.2 63.2L161.1 63.3L161 63.4V63.5L161.1 63.6H161.2V63.7H161.3H161.4V63.6V63.5L161.6 63.6V63.7L161.9 63.9L161.5 64L159.6 64.6H159.5H159.4V64.7L159.1 65L159 65.1V65.3L159.1 65.6L159.2 65.7L159.3 65.9V66H159.4V66.1V66.2H159.3L158.7 66.3H158.6V66.4L158.5 66.6L158.4 66.7V66.8L158.5 67L158.4 67.1V67.2H158.3L158.4 67.4H158.3H157.7H157.2L157 67.5H156.8V68L156.7 68.8H156.3V69.1V69.2V69.3L156.4 69.4L156.5 69.6V69.7L156.6 69.8L156.8 70.1H156.9L157 70.2L157.1 70.3L157.2 70.4V70.5H157.3V70.6V70.7L157.2 70.8L156.8 70.7H156.3H156H155.8L155.7 70.9L155.5 70.8L155.3 70.7L155.1 70.6H154.8L154.6 70.4V70.5L154.4 71L153.9 72.2V72.3L155 72.4H155.9V72.8V72.9L155.6 73.2L155.5 73.5L155.3 73.6L155 73.7L154.6 74L154.3 74.2L154.2 74.3L153.9 74.6L153.8 74.7L153.2 74.6H152.9H152.5L152.2 74.5H151.9V74.6L151.8 74.9V75V75.1L151.7 75.2L151.6 75.4V75.5H151.7V75.6V75.8L151.8 75.9V76L151.7 76.1V76.2L151.6 76.3V76.4L151.5 76.5V76.6H151.4V76.7L151.7 76.8L151.8 76.9L152.1 77.1V77.4L152 77.6V78.4L151.9 78.9V79.2L151.8 79.5V79.9L151.7 80.4L152.7 80.3H153.4L153.3 81L153.5 81.1V81.5V82.1L153.4 82.4V82.5H153.5L153.6 82.6L153.5 82.7V82.8M153.5 82.8V82.9M153.5 82.8L153.6 82.7L154 83.2L154.4 83.6V83.7V83.9L154.3 84V84.3V84.7L154.2 85V85.3L154.1 85.7V86.1L154 86.5V86.6V86.8L153.9 86.9V87.1V87.5H153.8V87.6V87.8L153.9 88V88.2V88.4H153.8L153.7 88.5V88.7V88.8L153.5 89.1V89.2V89.3H153.4V89.4L153.5 89.5V89.6L153.6 89.8L153.7 90L153.8 90.3V90.4V90.6H153.9V90.7H154H154.1L154.6 90.8H154.7L155 90.9L155.4 91L156.2 91.2L156.6 91.3H156.7H156.8H156.9V91.4L157 91.7V91.8L157.1 91.9L157.2 92.2L157.3 92.4L157.5 92.8L157.3 92.9L157.2 93H157.1L156.8 93.1H156.5L156 93.2H155.8L155.6 93.3H155.5H155.3L155.2 93.4L155 93.5L154.6 93.9H154.5L155.2 94.7L155 94.8L154.9 94.9L154.5 95H154.3L154.4 95.1V95.2V95.3H154.3H154.2L154.1 95.4H153.9V95.5H153.8L153.7 95.6H153.5L153.4 95.7H153.3L152.9 95.8L153 96V96.1L153.2 96.4L153.1 96.5H153H152.9H152.8L152.7 96.6V96.7L152.6 96.8V96.9L152.4 97.1L152.3 97.3L152.2 97.6L152.1 97.7L152 98L151.9 98.9V99H151.8L151.7 99.2H151.4H151.3L150.8 99.1V98.9H150.6L150.3 98.8H150.2H150.1V98.9H150V98.8H149.9H149.8H149.7H149.6H149.5H149.4V98.9V99.1V99.2L148.9 99L148.4 98.9L147.7 98.6L146.8 98.4L145.6 98L145.2 97.8H145.1H144.9L144.7 97.7L144 97.6L143.2 97.4L142.6 97.3L141.9 97.1L141.2 97L140.5 96.9L140.3 96.8H140.2H140.1H140L139.8 96.9H139.7L139.5 97H139.4H139.3H139.1H139H138.6H138.5L138.4 96.9H138.2H138.1H137.9L137.8 97L137.6 97.1L137.5 97.2L137.2 97.7H137.1V97.8L137 97.9L136.8 98.2L136.7 98.3L136.5 98.5L136.1 98.8L135 99.5L134.9 99.6L134.8 99.7L134.7 99.9L134.6 100V100.2L134.5 100.3L134.4 100.7H134.3V100.8H134.4L134.5 100.9H134.6H134.7H134.8H134.9L135 101H135.1H135.2L135.4 101.1L135.6 101.2H135.7L135.9 101.3L136 101.4L136.2 101.5L136.4 101.6L136.7 101.8L136.9 101.9L137 102H137.1V102.1H137.2V102.2H137.3V102.3V102.4V102.6H137.4V102.7V102.8V102.9L137.5 103V103.2L137.6 103.3V103.4V103.5V103.6H137.5H137.4H137.3L137.1 103.4H137H136.9L136.7 103.5L136.5 103.6H136.6V103.7H136.7L136.8 103.8L137 103.9H137.1L137.2 104V104.1H137.3V104.2L137.5 104.5H137.6L137.8 104.3H137.9H138L138.1 104.4L138.2 104.5L138.3 104.7L138.4 104.8H138.5L138.7 105V105.1L138.1 105.4L136.7 106.1L136.1 106.3L134.6 106.7L134.3 106.8H134.2L134.1 106.7L133.9 107L133.7 107.1L133.9 107.3L134 107.4V107.5H134.1V107.6L134.3 107.7H134.4L134.3 108L134.4 108.1L134.5 108.2L134.6 108.3V108.4L134.7 108.5V108.6V108.7H134.8V108.8V108.9H134.7V109V109.1V109.2V109.3L134.6 109.4H134.5L134.4 109.5H134.3V109.6L134.2 109.7V109.8V109.9H134.1H133.9H133.6H133.5H133.4M133.4 109.9V110M133.4 109.9H133.3H133.2V110V110.1L133.1 110.3L132.9 110.4V110.5L132.8 110.6L132.7 110.5V110.4V110.3V110.2V110.1V110H132.6V110.1L132.5 110.2V110.3H132.4V110.4H132.3M132.3 110.4V110.5M132.3 110.4H132.2V110.5H132.1V110.6H132V110.7H131.9V110.6L131.8 110.5H131.9V110.4V110.3V110.2V110.1V110H131.8V110.1L131.7 110.2L131.6 110.3H131.5L131.4 110.2L131.3 110.1V110L131.1 110.1H131V110.2H130.9H130.8V110.1H130.7H130.5H130.4L130.3 110H130.2V110.1L130.1 110.2V110.3L130 110.4V110.5L129.9 110.6L129.8 110.7L129.7 110.8H129.6H129.5H129.4H129.3H129.2L129.1 110.9H129H128.9H128.8L128.7 111H128.6L128.5 111.1V111.2L128.6 111.3V111.4L128.7 111.6L128.8 111.8H128.7V111.9H128.6V112V112.1V112.2V112.3L128.7 112.4V112.5H128.8L128.9 112.6V112.7V112.8V112.9H128.8V112.8L128.7 112.9L128.6 112.8L128.1 112.7L128 113.2L127.9 113.5V113.9V114.4V114.5L128 114.8V115.1V115.2H127.9H127.8V115.3H127.6V115.4H127.5H127.4L127.3 115.3V115.1V114.9L127.2 114.8L127 114.7H126.9L126.8 114.6L126.6 114.5H126.5L126.4 114.7L126.3 114.9V115V115.1H126.2V115.2L125.8 115.4V115.3L125.5 115.5L125.4 115.6H125.3H125L124.9 115.8V115.9H125M125 115.9V115.8M125 115.9H125.1H125.3H125.4H125.5V116V116.1M125.5 116.1H125.6M125.5 116.1H125.4H125.3H125.2H125.1V116.2V116.3V116.5H125V116.4V116.3H124.9H124.8H124.7V116.2L124.6 116.3L124.5 116.4V116.5H124.4V116.6V116.7L124.3 116.6H124.2V116.7V116.8H124.3V116.9H124.2H124.1V117H124V117.1L124.1 117.2V117.3H124.2H124.3H124.4H124.5L124.7 117.2L124.8 117.3L124.9 117.4H124.8H124.7H124.6V117.5H124.5V117.6V117.7H124.6V117.8H124.7H124.8V117.9V118H124.9V118.1H125H125.1H125.2H125.3H125.4L125.3 118.2V118.3V118.4L125.1 118.5H124.8H124.7V118.8V118.9V119V119.1H124.8V119.2H124.9H125V119.3V119.4H125.1L125.2 119.5H125.3H125.4H125.5V119.6H125.6V119.5H125.7V119.2L125.9 119.3V119.4L125.7 119.6V119.7V119.8H125.8H125.9V120.1L125.8 120.4V120.5L125.7 120.8H125.6L125.3 120.7H125L124.6 120.9H124.4V121H124.3V120.9V120.8V120.7H124.1H123.7H123.5H122.7V121.5L122.6 121.9L121.5 121.8V121.9L120.8 121.8H120.7H120.5V121.9V122H120.4L120.5 122.1V122.2H120.4V122.3V122.4V122.5H120.3V122.6L120.2 122.7L120.1 122.8V122.9L120 123V123.1V123.2H119.9V123.3H119.8V123.4H119.7V123.5H119.6V123.6H119.5H119.4H119.3V123.7V123.8H119.2V123.9H119.1V123.8H119H118.9V123.9V124.1V124.2H118.8V124.3V124.4V124.5L118.7 124.6V124.7H118.8V124.9V125V125.3L118.9 125.7L119 126.1V126.3V126.4L118.9 128.7V129L118.1 128.7L117.9 128.6L117.8 128.5L117.6 128.4H117.5L117.4 128.3H117.3H117.2L117.1 128.2L117 128.1V128L116.9 127.9V127.8L116.8 127.6H116.3V127.5L116.4 127.2L116.5 127.1L116.6 126.9L116.2 126.8H116.1H116H115.9H115.8H115.7L115.2 126.6L114.8 126.5L114.7 126.4L114.2 126.2L113.5 127.8L113.1 128.8H113H112.6L112.5 129H112.2H111.6H111.4H111.3L111.2 128.9H111.1H111H110.9H110.8L110.7 128.8H110.6L110.4 128.7L110.2 129.3V129.6L110.1 130H110L109.9 129.9H109.8H109.5V130.1L109.4 130.3L109.2 130.6V130.7L108.9 131.1L109.2 131.3L109.5 131.5L109.8 131.7L109.9 131.8L110.1 131.9L110.3 132H110.4V132.1V132.3L110.3 132.6H110.4H110.9L111.4 132.7H111.3V133L111.2 133.5L111.1 133.8H111L110.8 134H110.7V133.9L110.6 133.8H110.5V133.7H110.4H110.3V133.6V133.5H110.2V133.4H110.1V133.3V133.2H110V133.1H109.9L109.8 133L109.7 132.9V132.8H109.6H109.5H109.4L109.3 132.7M109.3 132.7V132.8M109.3 132.7H109.2V132.6V132.5H109.1V132.4H109V132.3H108.9V132.2H108.8V132.1H108.7H108.6V132V131.9H108.5V131.8V131.7H108.4V131.6V131.5H108.3V131.4V131.3H108.2V131.2H108.1V131.1H108V131H107.9V130.9V130.8H107.8H107.7V130.7H107.6V130.6H107.5H107.4L106.7 130.5L106.6 130.4H106.5L106.4 130.7H106.3H105.8L105.5 130.6H105.3V130.5H105.2V130.4V130.3H105L103.9 130.2H103.2H103L102.6 130.1H101.8L101.6 130.6L101.4 131.1L101.3 131.5L101.2 131.8L101.1 131.9V132V132.1V132.2H100.9L100.4 132.3H100.2L100.1 132.1H100L99.9 131.8H99.7H99.6L99.4 131.7H99.1H99H98.8L98.6 131.6H98.5L98.6 131.3L98.7 131.2L98.3 130.9L98.4 130.6L98.6 130H98.5H98.4L98.3 130.1H98.1L98 130.2L97.7 130.3H97.6H97.5H97.4H97.3H97.2H97.1L96.9 130.2H96.7L96.4 130H96.3L96.1 129.9H96L95.9 129.8H95.8H95.7H95.6L95.5 129.7H95.3H95.2H95.1L94.9 130L94.8 130.3L94.6 130.6L94.5 130.8L94.4 130.9L94.3 131.1V131.2L94.2 131.3V131.4H94.1L94 131.5H93.9L93.8 131.6L93.7 131.8L93.5 131.9V132.1L93.6 132.4V132.5H93.7V132.4H93.8H93.9V132.5H94H94.1H94.2H94.3H94.4H94.5V132.6V132.7L94.6 133.1L94.7 133.5V133.6L94.6 133.7H94.7V133.8V133.9L94.8 134L94.9 134.1V134.3V134.4H94.8H94.7V134.5L94.9 135.2L95.1 135.9L95.3 136.6L95.4 136.7V136.8L95.5 136.9L95.6 137V137.1H95.7V137.2V137.3H95.8V137.4V137.6L95.7 137.8L95.6 137.9V138V138.1H95.5V138.2H95.4H95.3H95.2H95.1L95 138.3V138.2H94.9V138.3H94.8H94.7H94.6V138.4H94.7V138.5H94.8H94.9M94.9 138.5V138.4M94.9 138.5L95 138.6V138.7V138.8V138.9H95.1V139V139.1H95V139H94.9V139.1L95 139.2H94.9H94.8V139.3V139.4H94.9V139.5H95V139.6H94.9V139.7V139.8H95H95.1H95.2V139.9V140L95.3 140.1V140.2H95.4V140.3H95.3H95.2V140.4M95.2 140.4H95.3M95.2 140.4L95.1 140.5V140.6H95.2H95.3V140.7V140.8H95.4H95.5V140.9H95.6V141V141.1H95.5H95.4H95.3H95.2V141.2V141.3H95.3V141.4H95.4M95.4 141.4V141.3M95.4 141.4H95.5V141.5V141.6V141.7M95.5 141.7H95.4M95.5 141.7V141.8H95.6H95.7V141.9H95.8V142V142.1V142.2L95.9 142.5V142.6V142.7V142.8V142.9L96 143.1V143.4L94.8 143.6H94.6L94.2 143.7V143.3H94L93.3 143.4L92.9 143.5H92.7H92.6L92.7 144L91.7 144.2L91.8 144.5V144.7L91 144.8L90.2 144.9H90.1L89.9 145L88.5 145.2V144.8L88 144.9V144.8L87.9 144.2H87.4L87.3 144.1H87.1V144V143.9H87V143.8V143.7H87.1L87 143.6H86.9H86.8L86.7 143.5L86.2 143.1L85.5 142.5L85.2 142.3L84.9 142L84.7 141.9L84.5 141.7L84.2 141.5L83.9 141.2L83.7 141L83.2 140.6L83.1 140.5V140.6L82.8 141L82.4 141.4L81.8 142.2L81.6 142.6H81.5L81.3 142.9H81.2H81.1H81H80.9L80.4 142.8L80.3 142.7H80.1H79.9V142.8L80.2 143H80.4H80.6L80.8 143.1L81 143.2L80.9 143.4L80.6 143.9L80.3 144.2H80.4L80.5 144.3H80.6H80.7H80.8H80.9H81H81.1H81.2V144.4H81.1H81L80.9 144.5H80.8H80.7H80.6V144.4H80.5H80.4L80.3 144.3L80.2 144.4L80.1 144.6L80 144.7L79.9 144.8L79.5 145.3V145.4V145.5H79.4V145.6L79 146.1V146.2L78.8 146.5L78.6 146.7L78.3 147.2L78 147.7L78.5 148.1L77.7 149.1L77.4 149.6L77.2 149.8V149.9L76.7 150.5L76.6 150.6L76.4 150.3L76.6 150L76.2 149.7L75.5 149.1L75.3 148.9L75.1 148.8L74.6 149.3L74.3 149.7L74.1 150L73.8 150.4L73.7 150.6L72.4 149.7L72.5 149.5L73 148.9L73.2 148.6L73.3 148.5L73.5 148.1L74 147.5L74.2 147.2L74.5 146.8L74.7 146.5L74.8 146.4L73.7 145.5L72.7 144.8L72.2 144.5L72.1 144.4V144.3H72L71.4 143.8V143.7V143.6V143.5V143.4H71.5L71.6 143.5H71.7V143.6H71.8V143.5L71.9 143.4V143.3H72V143.2V143.1V143M72 143H71.9M72 143V142.9H72.1V142.8H72.2V142.7V142.6H72.3V142.5H72.2V142.4M72.2 142.4H72.1V142.3H72.2V142.4ZM72.2 142.4H72.3V142.3V142.2V142.1H72.2V142V141.9V141.8H72.1L72.2 141.7M72.2 141.7H72.3M72.2 141.7V141.6H72.3V141.5H72.4L72.7 141.2H72.8L73.1 140.9L72.5 140.5L72.3 140.3H72.2V140.4V140.5H72.3L72.2 140.6L71.8 140.3L71.5 140L71.3 139.9L70.9 139.6L70.1 139.1L69.3 138.4L68.5 137.8L67.5 137.1L66.7 136.5L65.9 135.9L66.4 134.9L66.9 134L66.5 133.7L65.8 132.7H66L66.1 132.6H66.2L66.7 132.5V132.4L66.6 132.1L66.5 131.9L66.4 131.6L66.5 131.5L66.7 131.3H66.8L66.5 131.1L65.9 130.4L65.5 130V129.9L65.4 129.8V129.7V129.6H65.3H65.2H65.1V129.7H65V129.6V129.5L64.3 129.4H64.1L64 129.6H63.9M63.9 129.6V129.7M63.9 129.6L63.8 129.5H63.7M63.7 129.5V129.6M63.7 129.5H63.6H63.5H63.4V129.4H63.3V129.5H63.2V129.4H63.1V129.5H63V129.4H62.9V129.5H62.8H62.7H62.6H62.5H62.4V129.4H62.3V129.5H62.2V129.4H62.1M62.1 129.4H62M62.1 129.4V129.3H62V129.2V129.1H62.1V129H62.2V128.9V128.8V128.7H62.3V128.6V128.5V128.4H62.2V128.3V128.2H62.3V128.1V128L62.4 127.9V127.8H62.5H62.6V127.7H62.5V127.6V127.5V127.4V127.3H62.4V127.2H62.3H62.2L62.1 127.1H62L61.9 127L61.8 126.9H61.7H61.6V126.8H61.5H61.4H61.2H61.1L61 126.7L60.9 126.8H60.8L60.5 126.5L60.1 126.2L59.9 126.1L59.7 125.9L60.3 125.1L60.7 124.6L60.8 124.5L60.4 124.2L60.2 124.1L60.1 124L59.9 123.8L59.3 123.4L59.7 122.9L59.9 122.7L60.9 121.3V121.2L60.8 121.1H60.7L60.4 120.9L60 120.5L59.8 120.4L58.8 119.6L58.5 119.4L58.9 118.9L58.7 118.7L57.6 117.9L58.2 117.2V117.1L57.8 116.8L57.5 116.4L57.2 116.2L57.1 116.1L56.7 115.8L56.3 115.4L55.7 114.8H55.6V114.9V115L55.5 115.1H55.4V115.2V115.3H55.5V115.4H55.6V115.5V115.6V115.7V115.8H55.5V115.9V116H55.4V116.1V116.2H55.3V116.3M55.3 116.3H55.2M55.3 116.3V116.4H55.4H55.5V116.3H55.6H55.7V116.4H55.8V116.5H55.9V116.6H55.8L55.7 116.7H55.6V116.8L55.3 116.7M55.3 116.7V116.8M55.3 116.7H55.2H55.1V116.8H55H54.9H54.8V116.9H54.7V117H54.6V117.1V117.2H54.5H54.4H54.3V117.1V117H54.2V116.9H54.1H54V116.8H53.9H53.8V116.9H53.7H53.6L52.9 116.7L52.6 117.6L52.2 117.7V117.8H52.1L51.4 118V118.1L51.5 118.9V119H51.4H51.3L51.2 118.9H51.1L50.6 118.8L50.5 119.1V119H50.4V118.9V118.8H50.3V118.7L50.2 118.6H50.1V118.7V118.8H50V118.9L49.9 119L49.8 119.1L49.7 119.2V119.3V119.4H49.6H49.5V119.3H49.4V119.2H49.3H49.2V119.3H49.1V119.4V119.5V119.6H49.2V119.7L49.3 119.9V120L49.4 120.1V120.2H49.3V120.3H49.2H49.1V120.4H49V120.3H48.9H48.8L48.7 120.4V120.3H48.6L48.5 120.2V120.1H48.4V120V119.9H48.3V119.8H48.2V119.7V119.6V119.5V119.4H48.3H48.5H48.6V119.3L48.7 119.2V119.1H48.6H48.5L48.3 119H48.2V118.9H48.1V118.8V118.7L48.2 118.6V118.5V118.4V118.3H48.1H48V118.2H47.9H47.8V118.3V118.4V118.5H47.7V118.6H47.6L47.5 118.7H47.4H47.3V118.6H47.2V118.5H47.1V118.4H47V118.3H46.9L46.8 118.2H46.7H46.6V118.3H46.5V118.4V118.5L46.6 118.6V118.7H46.5V118.8H46.4H46.3H46.2H46.1L46 118.7H45.9H45.8H45.7H45.6V118.6H45.5V118.5V118.4H45.6V118.3V118.2V118.1H45.5L45.4 118V117.9H45.5V117.8L45.6 117.7V117.6H45.5V117.5L45.4 117.4L45.3 117.3H45.2V117.4V117.5H45.1H45H44.9V117.4V117.3H44.8H44.7V117.4H44.6V117.5H44.5V117.6L44.4 117.7V117.8H44.3V117.9L44.2 118V118.1H44.3V118.2V118.3H44.4V118.4V118.5H44.3V118.6V118.7H44.2L44.1 118.8L44 118.9H43.9H43.8H43.7H43.6V118.8V118.7H43.5L43.4 118.8V118.9H43.5V119M43.5 119H43.4M43.5 119V119.1L43.4 119.2V119.1H43.3V119H43.2V118.9V118.8V118.7H43.1V118.6H43.2V118.5H43.3V118.4H43.4V118.3V118.2H43.3V118.1L43.2 118V117.9H43.3V117.8L43.4 117.7V117.6V117.5V117.4V117.3H43.3V117.2H43.2H43.1V117.1H43H42.9V117H42.8M42.8 117V116.9M42.8 117H42.7V116.9H42.6V117H42.5H42.4V116.9H42.3H42.2H42.1H42V117H41.9V117.1H41.8V117.2H41.7V117.1V117V116.9V116.8H41.6V116.7H41.5V116.8H41.4H41.3H41.2H41.1H41H40.9V116.9V117H40.8V117.1H40.7V117.2H40.8V117.3V117.6H40.7H40.6H40.5H40.4H40.1L39.9 117.3V117.2V117.1L39.8 117V116.9V116.8V116.7V116.6H39.9V116.5V116.4V116.3H40V116.2V116.1H39.9H39.8H39.7H39.6H39.5H39.4H39.3V116.2H39.2H39.1H39V116.1H38.9V116.2H38.8H38.7H38.6H38.5V116.1H38.4V116V115.9V115.8H38.3H38.2V115.9H38.1V116L38 115.9H37.9V115.8L37.8 115.7V115.8H37.7L37.8 115.9V116V116.1V116.2H37.7H37.6V116.3V116.4H37.5V116.5V116.6V116.7H37.4L37.3 116.8H37.2H37.1V116.7V116.6H37.2V116.5H37.1V116.4H37L36.9 116.5H36.8V116.6V116.7H36.7V116.8H36.6L36.5 116.7V116.6V116.5H36.4L36.3 116.6H36.2H36.1H36H35.9L35.8 116.5H35.7H35.6V116.4V116.3H35.5V116.2L35.4 116.1H35.3H35.2H35.1H35V116.2V116.3L35.1 116.4V116.5V116.6H35L34.6 116.5L34.3 116.4H34.2V116.3L34.1 116.1H33.9V116.2L33.8 116.3L33.7 116.4L33.6 116.5H33.5H33.4V116.4H33.3V116.5L33.2 116.6H33.1L33 116.7L32.9 116.8L32.8 116.9L32.7 116.8V116.7H32.8V116.6V116.5V116.4H32.9H33V116.3H32.9V116.2H32.8H32.7L32.6 116.3H32.5V116.4H32.4H32.3V116.3L32.2 116.2V116.1V116L32.1 115.9L32 115.8V115.7H31.9L31.8 115.6L31.7 115.7H31.6H31.5L31.4 115.6H31.3V115.5V115.4L31.5 115.2V115.1V115H31.4V114.9H31.3H31.2H31.1H31H30.9V114.8H30.8L30.7 114.7H30.6L30.5 114.6V114.5H30.4H30.3V114.4H30.2V114.3V114.2H30.3V114.1H30.4V114V113.9H30.3V113.8H30.2H30.1V113.7H30H29.9V113.8V113.9H29.8L29.7 113.8V113.7H29.6V113.8H29.5L29.4 113.7L29.3 113.6V113.7H29.2V113.8H29.1M29.1 113.8V113.7M29.1 113.8H29H28.9V113.7H28.8L28.7 113.6V113.5H28.6H28.5V113.4M28.5 113.4H28.6M28.5 113.4V113.3H28.4L28.5 113.2L28.6 113.3H28.7V113.2V113.1V113H28.6V112.9V112.8H28.7H28.8V112.7V112.6H28.7H28.6V112.5H28.5V112.4H28.4V112.5H28.3H28.2V112.6H28.1H28L27.9 112.7H27.8L27.7 112.6H27.6V112.5V112.4H27.5V112.3L27.4 112.2H27.3V112.1L27.2 112H27.1V111.9L27 111.8L26.9 111.7H26.7V111.6H26.6H26.5H26.4H26.3H26.2H26.1H26V111.5H25.9V111.4H25.8H25.7V111.3H25.6H25.5V111.2V111.1H25.4V111H25.3V110.9H25.4H25.5L25.6 110.8V110.7H25.7V110.6H25.6V110.5L25.5 110.4H25.4H25.3V110.3H25.2V110.2V110.1L25.1 110H25H24.9H24.8V109.9H24.7V110H24.6V109.9H24.5V109.8H24.4V109.7L24.3 109.6V109.5H24.2V109.6H24.1H24V109.5H23.9H23.8H23.7V109.4H23.6H23.5V109.3H23.6V109.2L23.7 109.1V109.2H23.8V109.1V109V108.9H23.9H24V108.8H24.1V108.7V108.6V108.5H24V108.4V108.3V108.2V108.1V108H23.9V107.9H23.8V107.8V107.7H23.7H23.6V107.8V107.9H23.5H23.4V107.8H23.3V107.7H23.2V107.6H23.1V107.5L23 107.4V107.5H22.9H22.8H22.7V107.6V107.7H22.6V107.8H22.5V107.7V107.6V107.5H22.6V107.4H22.5L22.4 107.3V107.4V107.5V107.6V107.7V107.8H22.3H22.2V107.7L22.1 107.6L22 107.5H21.9V107.4L21.8 107.3V107.2L21.9 107.1V107V106.9L21.8 106.8V106.7L21.7 106.6H21.6H21.5V106.7H21.4V106.6H21.3V106.5V106.4V106.3V106.2V106.1V106H21.2L21.1 106.1H21L20.9 106.2H20.8H20.7V106.1H20.6V106H20.5H20.4H20.3V106.1V106.2L20.2 106.3V106.4H20.1V106.5L20 106.6V106.7V106.8H19.9V106.9V107H19.8H19.7V106.9M19.7 106.9H19.8M19.7 106.9H19.6V107H19.5V106.9V106.8V106.7V106.6L19.4 106.5H19.3H19L18.9 106.4H18.8H18.7H18.6H18.5H18.4H18.3H18.2H18.1H18V106.3H17.9L17.8 106.2V106.1H17.9V106V105.9H18M18 105.9V106M18 105.9H18.1V105.8L18.2 105.7L18.3 105.6H18.4H18.6H18.7L18.9 105.7V105.5V105.4H18.8V105.3H18.9V105.2H19L19.1 105.1H19.2H19.3M19.3 105.1V105.2M19.3 105.1H19.4L19.6 105.2L19.7 105.1H19.8V105H19.7V104.9H19.6L19.5 104.8L19.3 104.7H19.2L19.1 104.6L18.7 104.3L18.6 104.2H18.5V104.3H18.4V104.2H18.3V104.1H18.2H18.1H18H17.9M17.9 104.1V104.2M17.9 104.1V104V103.9V103.8L17.8 103.9V103.8V103.7H17.9L17.8 103.6V103.5H17.9V103.4M17.9 103.4H17.8M17.9 103.4H18V103.3M17.9 103.4V103.3H18M18 103.3H18.1L18.2 103.2H18.3H18.4H18.5H18.7H18.8H18.9V103.1L18.8 103L18.7 102.9L18.6 102.8H18.5H18.4H18.3L18.2 102.7V102.6L18.1 102.5V102.4H18H17.9H17.8V102.3V102.2H17.7L17.6 102.3H17.5V102.4H17.4L17.3 102.5V102.4H17.2M17.2 102.4V102.5M17.2 102.4H17.1M17.1 102.4V102.5M17.1 102.4V102.3H17H16.9H16.7H16.6H16.4L16.3 102.4V102.5H16.2V102.6L16.1 102.7V102.8H16V102.9V103H15.9V103.1H15.8H15.7V103.2H15.6H15.5V103.1H15.4H15.3L15.2 103H15.1H15V102.9H14.9V102.8H15V102.7H15.1H15.2V102.6V102.5H15.1H15V102.4H14.9L14.8 102.3H14.7L14.8 102.4V102.5H14.7L14.6 102.4H14.5V102.3V102.2V102.1H14.4L14.3 102.2V102.3V102.4H14.2H14.1V102.5H14L13.9 102.6H13.8V102.7H13.7V102.6H13.6H13.5M13.5 102.6V102.7M13.5 102.6H13.4L13.3 102.7H13.2H13.1V102.8H13L12.9 102.9V103H12.8V103.1V103.2H12.7V103.3H12.6M12.6 103.3V103.2M12.6 103.3V103.4V103.5V103.6M12.6 103.6H12.5M12.6 103.6V103.7V103.8V103.9H12.5L12.4 103.8V103.7H12.3V103.6H12.2V103.5V103.4L12.1 103.3V103.2V103.1V103H12.2V102.9M12.2 102.9H12.1M12.2 102.9V102.8H12.3V102.7V102.6V102.5V102.4V102.3L12.1 102.4L11.9 102.5L11.8 101.9L12 101.7L11.9 101.6H11.8L11.7 101.5H11.6L11.5 101.4H11.4V101.3V101.2H11.3H11.2M11.2 101.2V101.3H11.1V101.2M11.2 101.2H11.1M11.1 101.2H11V101.1H10.9V101.2M10.9 101.2V101.3M10.9 101.2H10.8V101.3H10.7V101.4V101.5L10.8 101.6V101.7V101.8V101.9V102V102.1L10.7 102.2V102.3H10.6V102.4V102.5V102.6L10.5 102.7V102.8H10.4H10.3H10.2L10.1 102.9H10L9.90002 103H9.79999H9.70001H9.59998L9.40002 103.1H9.29999H9.20001L9.09998 102.8L9 102.4L8.90002 102.1V102L8.70001 101.3L8.59998 100.7L8.40002 100.1L8.29999 99.3L8.09998 98.7L8 98.2L7.79999 97.6V97.3L7.70001 97.1V97L7.59998 96.8V96.7L7.5 96.2L7.29999 95.5L7.40002 95.1L7.5 94.9V94.8L7.59998 94.6L7.70001 94.1L7.90002 93.8L8.20001 92.8V92.7V92.6H8.29999V92.5V92.4L8.40002 92.3V92.1V92L8.5 91.9L8.59998 91.5L8.90002 91.6L9.09998 91.3V91.2H9L9.09998 91.1V91L9.20001 90.9V90.8L9.29999 90.6H9.40002V90.5L9.5 90.3L9.29999 90.2V90.1L9.40002 89.8H9.5V89.7H9.59998V89.6L9.90002 89.3H10L10.1 89.2L10.9 89.6L11.2 89.8L11.8 90.1L12.3 90.3V90.4H12.2V90.5V90.6V90.7V90.8H12.3V90.9V91V91.1H12.4V91.2H12.5V91.3L12.6 91.4H12.7V91.5H12.8V91.6H12.9L13 91.5H13.1H13.2H13.3V91.6H13.4H13.5L13.6 91.5H13.7V91.6H13.8V91.5H13.9H14H14.1L14.6 91.4L14.8 91.5H14.9H15H15.1L15.3 91.6H15.4H15.5L15.7 91.7L16.1 91.8L16.5 91.9H16.8H16.9V92L17 91.9H17.1V92L17.7 91.9L18.1 92H18.9L19.1 91.9L19.2 91.8V91.7L20.1 91.8L20.4 91.9H20.5L20.7 92L21.1 92.2L21.6 92.5L21.5 92.7L21.3 93L21.7 93.2L22 93.4L22.1 93.2L22.3 92.8V92.7V92.6H22.4V92.5V92.4V92.3H22.5L22.6 92.2L22.9 92L22.4 90.2L22.5 90L23 89.4L23.5 88.9L23.7 88.6L24 88.2H24.1L24.2 88L24.3 87.9L25.1 86.9L25.2 86.8H25.3V86.7L25.4 86.5L25.7 86.3V86.2L26.1 85.7L26.3 85.4L26.7 84.9L27 84.4L27.2 84.2V84.1H27.3V84H27.2L25.9 83.5V83.4L26 83L26.1 82.5V82.4L26.5 80.8V80.7L26.6 80.2H26.5V80.3H26.4H26.3L26.2 80.4L25.8 80L25.3 79.8L24.5 79.7L24.2 79.6L24.3 79.3L24.4 78.7L24.5 78.4V78.3L24.7 77.4L24.8 77L24.9 76.9L25 76.5L24.8 76.4L25 75.8L25.3 75.9H25.4L25.7 76H26.1L26.5 76.1L26.8 76.2L27.1 76.3L27.5 76.4H27.6L28.1 76.5L29.4 76.8L29.8 76.9L30.2 77L30.6 77.1L30.7 77.2H30.9L31.4 77.3L31.5 77.4H31.6V77.1L31.9 77.2L32.3 77.3L32.6 77.4L32.9 76.3L33 75.9V75.5V75.4L32.9 75.2L32.8 75.1V75V74.9L32.7 74.8L32 74.7L31.4 74.5L31 74.4V74.3L30.5 74.2L29.9 74.1L30 73.6L30.1 73H29.7L29.8 72.8V72.3L28.9 72.1L28.8 72L28.7 71.8V71.7V71.6L28.8 71.4L29.3 71.3H29.6H29.9L30 71.2H30.1H30.5H30.6H30.7H30.8L30.9 71.1H31.2H31.4H31.5H31.6H31.7H31.8V71H31.9H32H32.1H32.2V70.9V70.8H32.3H32.4L32.5 70.7L32.8 70.6V70.5L32.7 70.4L32.6 70.1L32.5 69.8L32.4 69.6L32.3 69.4L32.2 69.3L32.1 69L32 68.9V68.7L31.9 68.6V68.4L31.7 68.2L31.6 67.8L31.5 67.4L31.4 67L31.3 66.9V66.7L31.2 66.3L31 65.9V65.8L30.9 65.6L30.8 65.5L30.7 65.2V65.1H30.6L30.5 65L30.4 64.8L30.3 64.6L30.2 64.5L30 64.3L29.8 64H29.7V63.9V63.4L30.2 63.2V63.1V62.6L29.8 62.7V62.8H29.7H29.5H28.8L28 62.9V63.1L26.8 63.2L25.7 63.3L25.3 62.6L25.1 62.2L25 61.9H24.9H24.8L24.7 61.8H24.6H24.4H24.3H24.2H24.1H24H23.9L23.6 61.7H23.5H23.4H23.3H23.2V61.6H23.1H23H22.9H22.8H22.7H22.6V61.7H22.4H22.3L22.2 61.6V61.7H22.1L22 61.6H21.9L21.8 61.7H21.7V61.6H21.6H21.5V61.5H21.4H21.3L21 61.3L20.9 61.2H20.8V61.1H20.7H20.6V60.9L20.9 60.4L21.2 59.9V59.7H21.1L21 59.6M21 59.6L20.9 59.7L20.7 59.8L20.6 59.7V59.6H20.5L20.7 59.5L20.8 59.4L20.9 59.5L21 59.6ZM21 59.6L21.1 59.5H21.2H21.3H21.4H21.5H21.6L21.7 59.4L21.6 58.9L21.5 58.6V58.5L21.4 57.9H21.2H21L20.6 57.8L20.4 57.7H20.3H20.1H19.9H19.6L19.5 57.6L19.2 57.3L18.9 57L18.8 56.9L19 56.8H18.9V56.7V56.6V56.5V56.4V56.3L18.7 56.2V56.1V55.9V55.6L18.9 55.4L18.8 55.3H18.9V55.2L19 55L18.9 54.8L18.8 54.5L18.7 54.1L19 53.6V53.5H18.9L18.8 53.4H18.7V53.3H18.6L18.5 53.2V53.1M18.5 53.1H18.4M18.5 53.1L18.6 53L18.4 52.7L18.6 52.6L18.7 52.4H18.8V52.3L18.9 52.4H19L19.1 52.5H19.2L19.4 52.4L19.5 52.2L19.3 52V51.9L19.2 51.8V51.6L19.1 51.3V51.2L19.2 51.1L19.3 50.7L19.4 50.6V50.5V50.4H19.3L19.2 50.3H19.1V50.1H19H18.9H18.8L18.7 50H18.5H18.4H18.2L18.3 49.8V49.6L18.2 49.5L17.8 49.4L16.9 49H16.8L16.5 48.6L15.9 48.3L15.5 48.2L15.3 48.1V48.2L15 48.4H14.9V48.5H14.8H14.7L14.5 48.6L14.3 48.7L13.9 48.5L13.7 48.3H13.6L13.5 48.2H13.2L12.8 48.1L12.6 48L12.5 48.1L12.2 48.2H12H11.9H11.8H11.7L11.6 48.1V48L11.5 47.9V47.8H11.4L11.3 47.7L11.2 47.6H11.1L11 47.5V47.4H10.9V47.5H10.8V47.4V47.3L10.7 47.2H10.6V47.1V47H10.7H10.8H10.9L11 46.9H11.1L11 46.5L11.1 46.4H11.5V46H11.2L10.5 45.9L10 45.8L9.70001 46.1L9.59998 46.2L9.5 46.4L9.40002 46.5L9.29999 46.6L9.09998 46.8L8.20001 46.3L7.90002 46.2L7.79999 46.1L7.70001 46L7.5 45.9L7.40002 45.8H7.29999L7 45.9L6.90002 46.1H6.79999L6.5 45.9H6.40002V45.8H6.29999L6.09998 45.6L5.90002 45.4V45.3H5.79999H5.70001L5.59998 45.2L5.5 45.1V45L5.40002 44.9L5.09998 44.6V44.5L5 44.3L4.70001 43.7L4.40002 43.2L4.29999 43L4.09998 42.7L4 42.5L3.90002 42.3V42.2L3.5 42.3L3 42.4H2.90002L2.79999 42.3L2.70001 42.2L2.29999 41.7L2.20001 41.6V41.5H2.09998L1.90002 41.4V41.3L1.70001 41.1H1.59998H1.5H1.40002H1.29999H1.20001V41H1.29999V40.9L1.40002 40.8H1.5L1.59998 40.7H1.70001V40.6H1.79999V40.5M1.79999 40.5H1.90002M1.79999 40.5V40.4H1.70001V40.3H1.59998L1.5 40V39.9L1.40002 39.7L1.29999 39.2L1.20001 38.9L1.09998 38.4L1 38.1H1.09998L1.20001 38L1.29999 37.9L1.40002 37.8L1.5 37.7L1.90002 37.2L2.20001 36.6H2.29999L2.79999 35.6L3 35.3V35.2L3.29999 34.6H3.40002L3.70001 34.2L4.09998 33.8L5 32.8L5.09998 32.6V32.3L5.59998 31.9L6.20001 31.5L6.40002 31.3V31.2V30.7L6.09998 30.6V30.4V30V29.8L5.79999 29.7H5.70001V29.6V29.5L5.5 29.6H5.09998V29.3L5 28.6V28.1V27.6V27.3L4.90002 26.9V26.6L5.09998 26L5.29999 25.1L6.5 24.9L6.70001 24.7L7 24.6L6.90002 24.3L6.79999 23.8L6.5 22.9L6.40002 22.6H6.5L7.09998 22.8L7.5 22.7H7.79999H8H8.40002V22.8V22.9H8.5V23L8.40002 23.1H8.59998L8.70001 22.6L9.40002 22.8L9.79999 22.9H9.90002V23V23.1V23.5L9.79999 24L10.3 24.1L10.4 24L10.6 23.6L11.1 22.8L11.2 22.5L11.4 22.7L11.5 22.6L11.4 22.5L11.5 22.3H11.6L11.8 22.1V22V21.9L11.9 21.8V21.7L11.8 21.6L12.2 21.3L11.9 21L11.8 20.9L12 20.8L12.1 20.7L12.7 20.4H12.8H12.9H13V20.3H13.1H13.5L13.6 20.2L13.7 20.1L14 19.9L14.5 19.5L14.7 19.3L14.8 19.2L15.1 18.9L15.4 18.5L15.8 18L16.3 18.3L17.5 18.9L18 19.1L18.1 19V18.9V18.8L18.2 18.5L18.3 18.3L18.4 18.4V18.5L18.3 18.6L18.9 18.7L19.6 19L20 19.1H20.1L20.3 18.5L20.7 18.6H21.4V18.5H21.5V18.4H21.4V18.3V18.2V18V17.9V17.8V17.7H21.5V17.6V17.5V17.4V17.3V17.2V17.1V17L21.4 16.9V16.7L21.5 16.6V16.5H21.6L21.7 16.4V16.3V16.2L22.3 16.3H22.4L23.4 16.4L23.7 16.2L24.2 15.8L24.4 15.7L24.9 15.6V15.5L25 15.3L24.7 15.2L23.5 14.5L23.2 14.3L23.9 13.4L24.3 12.8L24.4 12.7L24.5 12.6L24.4 12.4L24.9 12L25.5 12.4L25.6 12.5H25.7V12.6H25.8L25.9 12.7L26 12.8L26.1 12.9L26.7 13.3L26.9 13.4L27.6 13.9L27.7 13.3V13L27.6 12.9L27.5 12.6L27.4 11.9L28.3 12L28.8 11.9V11.8H29V11.7V11.6H29.1V11.5L29.2 11.4V11.3V11.2H29.3V11.1H29.4L29.5 11V10.9V10.8H29.6V10.7L29.7 10.8L30.3 11.7V11.8L30.4 12.1L30.5 12.2L31.5 12.3L31.4 12.7L31.5 12.8L32 13.1L32.5 13.5L32.9 13.8L33.3 14.1L33.4 13.9L33.5 13.8L33.6 13.6H33.7V13.5L34.4 14L34.7 14.3L34.8 14.1L34.9 13.9L35 14.1L35.1 14L35 13.9V13.8L35.1 13.6H35.2L35.3 13.4V13.3L35.2 13.2L34.7 12.6L34.3 12.1H34.5H34.6L35 12L35.7 11.9L36.4 11.8H36.5H36.6H36.7L36.9 11.9H37.2L37.6 11.6L37.9 11.4L38.1 11.2L38.2 11L38.4 11.1L38.5 11.2H38.6L38.9 11.3H39L39.1 11.4H39.2H39.4H39.6L40 11.5H40.1L40 11.6L39.9 11.7L39.8 11.9L39.9 12L40 12.1H40.1L40.4 12.3V12.4L41.1 12.7V12.5H41.3H41.4L41.5 12L41.6 11.6V11.4H41.8H42.3V11.3L42.5 11.1V11H42.7V10.8V10.7H43L43.2 10.1V10V9.89999L43 9.8L42.7 9.7L42.6 10.1L41.6 9.89999L41.3 9.8V9.60001L41.5 9.39999H41.6H41.7L41.8 9.3H41.9L42 9.2L42.2 9.10001H42.3H42.5H42.9H43.2H43.4H43.8L44.1 9.2H44.2H44.6H45H45.1H45.3H45.5H45.6L45.7 9L45.8 8.89999V8.8L46 8.60001L46.2 8.39999L46.4 8.10001H46.5L46.6 7.89999L46.9 7.7L47.2 7.3L47.4 7.2L47.7 6.89999L47.9 6.8V6.7L48 6.60001L48.2 6.5V6.39999H48.3V6.3H48.4V6.2L48.5 6.10001L48.6 6V5.89999H48.7V5.8H48.8V5.7V5.60001L48.9 5.5V5.39999V5.3L49 5.2V5.10001V5M49 5H48.9M49 5V4.89999V4.8V4.7H48.9M48.9 4.7V4.60001M48.9 4.7H48.8H48.7H48.6H48.5V4.60001H48.4V4.5V4.39999H48.3V4.3L49 3.8L49.1 3.7H49.2V3.60001H49.3L49.4 3.5H49.5V3.39999H49.6L49.7 3.3L49.8 3.2H49.9L50 3.10001L50.1 3L50.2 2.89999H50.3L50.4 3.60001L50.8 3.5L51 3.39999L51.4 3.2L51.6 3.39999L52 3.60001L52.4 3.5L52.5 3.39999L52.6 3.3V3.2L52.7 3.10001L52.8 2.89999H52.9L53 2.8L53.1 2.5H53.2V2.60001H53.3H53.4V2.5H53.5H53.6H53.7H53.8V2.60001H53.9V2.5H54V2.60001H54.1V2.7V2.8H54.2H54.3H54.4H54.5H54.6L54.7 2.7V2.60001H54.8V2.7H54.9L55 2.8H55.1V2.89999H55.2V3H55.3V3.10001H55.4H55.5H55.6V3V2.89999H55.7H55.8H55.9H56H56.1V2.8H56.2H56.3H56.4V2.89999H56.5H56.6V2.8H56.7H56.8L56.9 2.7H57H57.1H57.2L57.3 2.60001H57.4V2.5L57.5 2.39999L57.4 2.3H57.8H57.9H58H58.1H58.2L58.3 2.2H58.4H58.5H58.6H58.7V2.10001H58.8V2H58.9H59H59.1V1.89999H59.2V2H59.3H59.4H59.5H59.6H59.7V1.89999H59.8L59.9 2L60 1.89999H60.1V1.8H60.2H60.3H60.4H60.5H60.6V1.7H60.7H60.8H60.9H61V1.8H61.1V1.7H61.2H61.3V1.60001H61.4H61.5H61.6L61.7 1.5H61.8H62H62.1H62.2V1.60001V1.7V1.8V1.89999H62.3L62.4 1.8H62.5H62.6H62.7H62.8V1.7H62.9H63H63.1V1.8H63.2V1.89999H63.3V2H63.4L63.6 2.10001H63.7L63.8 2.2L64 2.3H64.1H64.2L64.3 2.39999H64.4V2.5H64.5H64.6H64.7M64.7 2.5V2.60001M64.7 2.5H64.8H64.9H65V2.60001H65.1H65.2H65.3H65.5H65.6H65.7L65.8 2.7H66L66.1 2.8H66.2H66.3V2.89999H66.4H66.5L66.6 3V3.10001H66.7H66.8L66.9 3.2V3.3V3.39999V3.5H67V3.60001V3.7V3.8L67.1 3.89999V4V4.10001L67.2 4.2V4.3V4.39999V4.60001H67.3V4.7V4.8V4.89999H67.4V5L67.5 5.10001V5.2L67.6 5.39999H67.7L67.8 5.3L67.9 5.2L68 5.10001H68.1H68.2L68.3 5.2L68.4 5.3L68.5 5.39999H68.6L68.7 5.5L68.9 5.89999H69V6H69.1V6.10001H69.2V6.2H69.3V6.3V6.39999V6.5M69.3 6.5H69.4M69.3 6.5V6.60001H69.4V6.7V6.8H69.5V6.89999H69.6V7L69.7 7.10001L69.8 7.2V7.3H69.9L70 7.39999V7.5L70.1 7.60001L70.2 7.7H70.3V7.8H70.4V7.89999V8V8.10001V8.2L70.5 8.3V8.39999V8.5H70.6L70.8 8.7V8.8H70.9V8.89999H71H71.1L71.2 9H71.4L71.6 9.10001H71.7L71.8 9.2V9.3L71.9 9.39999V9.5H72L72.1 9.60001L72.3 9.89999L72.4 10L72.5 10.1L72.6 10.2L72.7 10.3L72.9 10.4L73 10.6V10.7V10.8L72.8 11V11.1L72.7 11.2L72.6 11.4V11.5L72.5 11.6H72.6H72.7H72.8L72.9 11.7H72.8V11.8V11.9L72.7 12V12.1V12.2V12.3L72.8 12.4V12.5H72.9V12.6V12.7L73 12.9H73.1V13V13.1V13.2V13.3V13.4V13.5H73.2V13.6H73.3L73.4 13.5H73.5H73.6H73.7H73.8V13.6V13.7V13.8V13.9H73.7V14V14.1H73.8H73.9H74H74.1H74.2H74.3L74.4 14.2H74.5H74.6H74.7H74.8H74.9L75 14.3H75.1H75.2H75.3H75.4H75.6H75.7H75.8H75.9H76L76.1 14.4H76.2H76.3H76.4H76.5H76.6L77 14.1L77.6 13.5V13.4H77.7H77.8V13.3H77.9H78H78.1L78.2 13.2L78.4 13.1H78.5L78.6 13H78.7H78.8L78.9 12.9V12.8H79L79.1 12.7H79.2V12.6H79.3L79.4 12.5L79.5 12.4V12.3H79.6V12.2V12.1L79.7 12L79.8 11.9L79.9 11.8V11.7L80 11.6V11.5V11.4H80.1V11.3H80.2V11.2L80.5 11.1H80.6L80.7 11.3V11.4V11.7L80.8 11.8V12V12.1V12.2L80.9 12.3V12.4V12.6H81H81.1H81.3L81.4 12.5H81.5H81.8H82.1H82.2H82.5V12.4H82.6L82.8 12.5H83H83.2L83.3 12.6H83.4V12.8V12.9V13H83.5V13.1H83.6V13.2H83.7L83.8 13.3H83.9V13.4L84 13.5V13.6H84.2L84.3 13.7L84.4 13.8H84.5H84.6H84.7H84.8V13.9L85.3 14V14.1H85.2V14.2V14.3H85.1V14.4V14.5M85.1 14.5H85.2M85.1 14.5L85.2 14.6H85.3H85.4H85.5V14.7H85.6H85.7H85.8H85.9H86V14.8H86.1H86.2L86.3 14.9H86.4H86.5H86.6H86.7H86.8H86.9V14.8H87V14.7H87.1H87.2L87.3 14.6H87.4H87.5H87.6H87.7H87.8H87.9H88H88.1H88.2H88.3V14.7H88.4V14.8V14.9V15L88.5 15.1L88.6 15.2H88.7V15.4H88.5H88.2H88.1H88H87.8V15.5H87.7L87.8 15.6V15.7V15.8V15.9V16L87.9 16.1V16.2L88 16.4L87.7 16.6H87.8L87.9 16.7L87.8 16.8L87.7 17V16.9H87.6H87.5V16.8H87.4V16.9L87.2 17.1L87.1 17.2L87 17.3V17.4H87.1V17.5H87.2V17.6L87.3 17.7L87.4 17.8L87.5 17.9H87.6L87.7 18H87.8V18.1V18.2H87.9V18.3H88L88.1 18.4V18.5H88.2L88.3 18.6H88.4L88.5 18.7L88.6 18.8H88.7L89 19H88.9H88.8L88.9 19.1H89V19.2H89.1L89.2 19.3H89.4V19.4H89.5L89.6 19.5H89.7V19.4V19.3V19.2H89.8H89.9H90L90.2 19.3L90.3 19.4H90.5L90.6 19.5H90.7H90.8L90.9 19.6H91L91.1 19.7H91.2L91.3 19.9H91.4V20L91.5 19.9H91.6H91.7L91.8 19.8L92 19.7H92.1L92.2 19.6L92.3 19.5V19.4H92.4V19.3L92.5 19.2L92.6 19.1V19V18.9H92.7V18.8H92.8V18.7L92.9 18.6V18.5H93V18.4V18.3V18.2H93.1V18.1V18V17.9V17.8L93.2 17.7V17.6V17.5V17.4V17.3V17.2V17.1V17V16.9V16.8V16.7H93.3V16.5L93.4 16.4V16.3V16.2L93.5 16.1L93.6 16H93.7V15.9H93.8V16H93.9V16.1L94.2 16V15.9L94.5 15.8V15.7H94.6L94.7 15.6L94.8 15.5L94.9 15.4L95 15.3H95.1H95.2H95.3H95.4L95.9 15L96.1 14.8L96.6 14.6V14.5H96.5V14.4H96.6L96.7 14.3H96.8H96.9H97L97.3 14.1L97.4 13.9V13.8V13.7L97.5 13.3H97.6L97.7 13.2H97.8H97.9H98H98.1H98.2H98.3V13.1H98.4H98.5H98.6L98.7 13H98.8H98.9H99H99.1L99.2 12.8L99.3 12.7L99.5 12.6H99.7L99.8 12.5H100H100.1L101.3 11.7L101.5 11.6L101.6 11.4L101.7 11.3L101.9 11.1L102.1 11H102.2L102.3 10.9L102.5 10.8L102.6 10.7H102.7L102.8 10.6H102.9H103H103.1H103.2L103.4 10.5H103.5L103.6 10.4H103.7L103.8 10.3H103.9L104.1 10.2L104.2 10.1H104.3L104.5 10L104.6 9.89999H104.8L104.9 9.8H105H105.1V9.7H105.2H105.3L105.5 9.60001H105.7L105.9 9.5H106H106.1H106.2H106.3H106.5L106.6 9.60001H106.7H106.8H106.9H107H107.5H107.7H107.8H107.9H108.1H108.2H108.4H108.5H108.8H108.9H109H109.2H109.3H109.4H109.5H109.6H109.7H109.8H109.9H110H110.1H110.2H110.3H110.4H110.5H110.6H110.7H110.8H110.9H111H111.1V9.7H111.2V9.8H111.3L111.4 9.89999H111.5H111.6L111.8 9.8H111.9H112H112.1H112.2H112.3H112.4H112.6H112.7H112.8H112.9L113 9.7H113.1H113.2H113.3H113.4L113.5 9.60001H113.7H113.8L113.9 9.5H114H114.2L114.4 9.39999H114.5V9.3V9.2V9.10001H114.4V9V8.89999H114.6H114.7H114.8H114.9L115.1 8.8H115.2H115.3H115.4H115.5L115.6 8.7H115.7H115.8H115.9H116H116.1H116.2L116.3 8.8H116.4L116.5 8.89999L116.6 9L116.7 9.10001L116.8 9H116.9H117L117.1 8.89999H117.2L117.3 8.8H117.5L117.6 8.7L117.8 8.60001H118H118.1H118.2V8.5H118.3H118.4V8.39999H118.5L118.6 8.3L118.8 8.2H118.9L119.1 8H119.2V7.89999H119.4L119.5 7.8H119.6L119.7 7.7H119.8L119.9 7.60001H120L120.1 7.5L120.3 7.39999L120.4 7.3V7.2L120.7 7L120.8 6.89999L121 6.8L121.2 6.7L121.4 6.60001L121.5 6.5L121.8 6.3L122.1 6.10001L122.2 6.3L122.3 6.2H122.4V6.10001L122.5 6H122.6H122.7L122.8 5.89999H122.9H123L123.1 5.8H123.2L123.3 5.7H123.4L123.5 5.60001H123.6H123.7L123.8 5.5H123.9L124 5.39999L124.1 5.2H124.2L124.3 5.10001V5L124.4 4.89999V4.8V4.7L124.5 4.60001V4.5V4.39999L124.6 4.3V4.2V4.10001L124.7 4V3.89999V3.8H124.8V3.7V3.60001V3.5L124.9 3.39999V3.3H125L125.1 3.2L125.2 3.10001V3H125.3V2.89999H125.4H125.5L125.6 2.8H125.7V2.7H125.8H125.9V2.60001H126H126.2H126.3H126.4H126.5H126.6H126.7H126.8H126.9H127H127.1V2.7H127.2L127.4 2.8H127.5H127.6L127.7 2.89999H127.8H128L128.1 3H128.2H128.3H128.5L128.8 3.10001H129H129.1H129.2H129.3L129.4 3H129.5H129.6H129.8H129.9L130 2.89999H130.2H130.3L130.4 2.8L130.5 2.7L130.6 2.60001L130.7 2.5L130.8 2.39999L130.9 2.3V2.2L131 2.10001L131.1 2H131.3L131.4 1.89999H131.5L131.6 1.8H131.8L131.9 1.7H132L132.3 1.5H132.5L132.6 1.39999H132.8V1.3H132.9L133 1.2L133.1 1.10001V1L133.2 0.899994H133.4H133.5H133.6V1H133.7H133.9V1.10001L133.8 1.3V1.39999V1.5V1.60001L133.7 1.7V1.8V1.89999H133.6V2V2.10001V2.2V2.3V2.39999V2.5V2.60001L133.7 2.7H133.6V2.8L133.5 2.89999V3V3.10001H133.4H133.3H133.2H133.1H133H132.9H132.8L132.6 3.2V3.3V3.5V3.60001V3.7V3.8V3.89999V4H132.7V4.10001V4.2L132.6 4.3V4.39999V4.5V4.60001L132.7 4.7V4.8V4.89999V5V5.10001V5.2V5.3V5.5V5.60001V5.7V5.89999V6.2V6.3V6.5V6.7V6.89999V7V7.10001V7.2V7.3H132.8V7.39999H132.9V7.5V7.60001V7.7V7.8V7.89999L133 8V8.10001H133.1V8.2H133.2V8.3L133.4 8.60001L133.6 8.89999V9H133.7L133.9 9.10001H134L134.2 9.2L134.5 9.3H134.6L134.7 9.39999V9.5L134.8 9.7V9.8L134.9 9.89999L135.1 10.1L135.2 10.2L135.4 10.5V10.6H135.5L135.7 10.7H135.8L136.1 10.8H136.2L136.4 10.9H136.5H136.6L136.7 11H136.8L137 11.1H137.2V11.2L137.3 11.3L137.4 11.4L137.5 11.6V11.7L137.6 11.9H137.7V12L137.8 12.1V12.2L137.9 12.3L138 12.5L138.1 12.7L138.3 13L138.4 12.8L138.5 12.7V12.6H138.6V12.5L138.7 12.4V12.3H138.8H138.9L139 12.2H139.1H139.2H139.3H139.5H139.7H139.9H140H140.2L140.5 12.3H140.6H140.7L140.8 12.4H140.9H141L141.1 12.5H141.2V12.6L141.3 12.8V13V13.2M141.3 13.2H141.4" stroke="white" stroke-width="0.5" stroke-linecap="round" stroke-linejoin="round"/>
</g>
</svg>
