<svg width="191" height="132" viewBox="0 0 191 132" fill="none" xmlns="http://www.w3.org/2000/svg">
<g id="UA65">
<path d="M53.1 114H53.2H53.3H53.4H53.5V114.1L53.6 114H53.7V114.1H53.8H53.9H54H54.1L54.2 114.2H54.3H54.4H54.5H54.6H54.7H54.8H54.9V114.3H55H55.1H55.2H55.3L55.4 114.4L55.5 114.3V114.4H55.6H55.7H55.8H55.9V114.5H56H56.1H56.2H56.3H56.4H56.5V114.6H56.6H56.7L56.8 114.7V114.8H56.9H57V114.7H56.9V114.6H57V114.7H57.1H57.2V114.8H57.3H57.4V114.9H57.5H57.6L57.7 114.8H57.8V114.9H57.9H58V115H58.1H58.2H58.3V115.1H58.4H58.5L58.6 115.2H58.7H58.8V115.3H58.9H59V115.4H59.2L59.3 115.5V115.4H59.4H59.5H59.6H59.7V115.5H59.8H59.9L60 115.6H60.1V115.7H60.2H60.3H60.4V115.8H60.5H60.6H60.7H60.8V115.9H60.9H61V116H61.1H61.2H61.3V116.1H61.4H61.5H61.6H61.7H61.8H61.9H62V116.2H62.1H62.2H62.3H62.4H62.5H62.6L62.7 116.3H62.8H62.9V116.4H63H63.1H63.2V116.5H63.3H63.4H63.5V116.6H63.6H63.7H63.8H63.9H64H64.1H64.2H64.3V116.5H64.4H64.5H64.6V116.4H64.7V116.5H64.8H64.9V116.6H65V116.5H65.1H65.2V116.4H65.3H65.4H65.5H65.6V116.3H65.7V116.2H65.8H65.9H66V116.1V116H66.1V115.9L66.2 115.8L66.3 115.9V115.8V115.7V115.6H66.4V115.7H66.5V115.6H66.6H66.7H66.8H66.9V115.5H67V115.4H67.1H67.2V115.3H67.3H67.4V115.2V115.1H67.5L67.6 115.2V115.1H67.7V115H67.8H67.9V114.9H68V114.8V114.7H68.1V114.8V114.9H68.2V114.8H68.3H68.4L68.5 114.7H68.4V114.8H68.3V114.7H68.4V114.6H68.5L68.4 114.5V114.4H68.5H68.6L68.7 114.5H68.8V114.6H68.9V114.7H69V114.8H69.1V114.9V115H69.2V115.1H69.3V115.2H69.4H69.5V115.3L69.6 115.4H69.7V115.5H69.8V115.6V115.7H69.9V115.6H70V115.7H70.1L70.2 115.8H70.3V115.9H70.4L70.5 116H70.6L70.7 116.1H70.8H70.9V116.2H71H71.1H71.2H71.3L71.4 116.3V116.2H71.5H71.6H71.7H71.8L72 116.1H72.1V116H72.2V115.9V115.8L72.3 115.7L72.4 115.6V115.5L72.5 115.4V115.5H72.6V115.6L72.7 115.7L72.8 115.8H72.9V115.9H73H73.1V116H73.2V116.1H73.3L73.4 116.2H73.5V116.3H73.6V116.4L73.8 116.5H73.9L74 116.6H74.1L74.2 116.7H74.3H74.4H74.5H74.6H74.7H74.8V116.6H74.9H75H75.1H75.2H75.3H75.4V116.7H75.5H75.6L75.8 116.8H75.9H76V116.9H76.1L76.2 117H76.3H76.4H76.5H76.6V117.1H76.7H76.8H76.9H77L77.1 117H77.2V116.9L77.1 116.8H77H76.9V116.9H76.8L76.7 117V116.9H76.6V117H76.5V116.9H76.6L76.7 116.8H76.8H76.9H77H77.1H77.2V116.9H77.3L77.4 117H77.5L77.6 117.1H77.7V117.2H77.8H77.9L78 117.3H78.1L78.2 117.4H78.3H78.4V117.5H78.5H78.6V117.6V117.7H78.7L78.8 117.8H78.9H79H79.1H79.2L79.3 117.7H79.4V117.6H79.5V117.7V117.8L79.4 117.9H79.3H79.2H79.1H79H78.9H78.8H78.7H78.6H78.5H78.4L78.3 118H78.2H78.1L77.9 118.1H77.8H77.7L77.5 118.2H77.4L77.2 118.3H77.1H77H76.9H76.8H76.7H76.6H76.5H76.4H76.3H76.2V118.2H76.1H76H75.8H75.6L75.4 118.1H75.2H75H74.9H74.8H74.7H74.6L74.4 118H74.2H73.9L73.7 117.9H73.5H73.4L73.3 117.8H73.2H73.1L73 117.9H72.9H72.8H72.7L72.6 118H72.5H72.3H72.2H72.1H71.9H71.7H71.5H71.3L71 117.9H70.8L70.4 117.8H70.1H69.9H69.7L69.4 117.7H69.2H69L68.8 117.6L68.3 117.5H68.1L68 117.4H67.7L67.3 117.3L66.9 117.2H66.5L66.1 117.1H65.8H65.7V117H65.5H65.4H65.3H65.2L65.1 116.9H65H64.9H64.7H64.6L64.5 116.8H64.4L63.9 116.7H63.7L63.4 116.6L63.1 116.5H62.9L62.6 116.4H62.5L62.3 116.3H62L61.5 116.2L61.1 116.1L60.7 116L60.2 115.8L59.7 115.7L59.1 115.5L58.4 115.2L57.9 115.1L57.5 115L56.8 114.8L56.1 114.7L55.6 114.5L55 114.4L54.6 114.3L54.3 114.2H54.1H53.8L53.5 114.1H53.3H53.1H52.9H52.7H52.6V114H52.7H52.8H52.9H53H53.1ZM189.9 99.6V99.7H189.8V99.6H189.9ZM190.2 99.5L190.3 99.6L190.2 99.9L190 100L189.9 100.2V100.3L189.7 100.5L189.3 101.2L189.2 101.4L189 101.7L188.9 101.9L188.8 102L188.6 102.3L188.4 102.7L188.1 103.2L188 103.5L187.6 104.5L187.2 105.1L186.9 105.8L186.7 106.2L186.3 106.9L186 107.3L185.6 107.8V107.9L185.4 108L185.1 108.4L184.8 108.8L184.3 109.2L183.9 109.5L183.6 109.8L183.3 110H183.2L183.1 110.1L182.7 110.3L182.3 110.6L181.7 110.8L181.4 111H181.2L180.8 111.1L180.6 111.2H180.3L180.2 111.3H180.1H180V111.4H179.9L179.8 111.5H179.7H179.6H179.5L179.4 111.6L179 111.8L178.7 112L178.4 112.2L177.6 112.5L177.2 112.7L176.9 112.8L176.5 112.9L176.4 113H176.3L176.1 113.1H175.9L175.6 113.2L175.5 113.3V113.2H175.4V113.1L175.6 112.9L175.7 112.8V112.7V112.6V112.5V112.4V112.3V112.2L175.8 112.1V112L175.9 111.9L176 111.8V111.7V111.6V111.5H175.9V111.4H175.8V111.3V111.2L175.9 111.1H176L176.1 111L176.2 110.9L176.4 110.8H176.5L176.6 110.7L176.7 110.6L176.8 110.5L176.9 110.4L177 110.2L177.1 110H177.2L177.3 109.9H177.4V109.8H177.5H177.6L177.7 109.7H177.8V109.6L177.9 109.5V109.4V109.3V109.2L177.8 109.1V109V108.9V108.8V108.7V108.6V108.5L177.9 108.4H178V108.3L178.1 108.2H178.2V108.1H178.3L178.4 108H178.5H178.6H178.7H178.8H178.9L179 107.9H179.1H179.2H179.3V107.8H179.4H179.5H179.6H179.7H179.8V107.7H179.9H180H180.1H180.2H180.3L180.4 107.6H180.5H180.7H180.8H181.1H181.2L181.3 107.5H181.7L181.9 107.4H182.1L182.2 107.3H182.3H182.5L182.7 107.2L183 107.1H183.2L183.3 107H183.4V106.9H183.5H183.6L183.7 106.8L183.8 106.7L184 106.6L184.2 106.5L184.4 106.4H184.5L184.6 106.3H184.7L184.8 106.2H184.9V106.1H185L185.1 106H185.2H185.3V105.9H185.4H185.5L185.6 105.8H185.7L185.8 105.7H185.9H186H186.1V105.6H186.2H186.3L186.4 105.5H186.5L186.6 105.4H186.7L186.8 105.3H186.9L187 105.2H187.1V105.1V105H187.2V104.9V104.8H187.3V104.7L187.4 104.6V104.5V104.4L187.5 104.3V104.2L187.6 104.1V104V103.9V103.8L187.5 103.7V103.6V103.5H187.4V103.4V103.3H187.5V103.2V103.1V103V102.9V102.8V102.7H187.6V102.6H187.7V102.5V102.4H187.8H187.9H188H188.1L188.2 102.3H188.1V102.2V102.1H188.2V102H188.1V102.1H188V102H188.1H188.2H188.3H188.4H188.5L188.6 101.9H188.7V101.8H188.8V101.7V101.6H188.9V101.5H189V101.4V101.3V101.2L189.1 101.1V101L189.2 100.9H189.3V100.8L189.4 100.7H189.5V100.6H189.6V100.5L189.7 100.4V100.3H189.8V100.2V100.1V100V99.9H189.9H190V99.8V99.7V99.6H190.1L190.2 99.5ZM172.8 131H172.5H172.3L172.2 130.8V130.7L172.1 130.6L171.9 130.2L171.7 129.7L171.5 129.5L171.3 129.3L171.2 129.1L171 129H170.9L170.8 128.9H170.7H170.5L170.4 129H170.3L170.1 129.1L170 129.2L169.9 129.3L169.8 129.5V129.7L169.7 129.9V130.1V130.3L169.6 130.7V130.8V130.9V131H169.5V131.1V131.2H169.4L169.3 131.3V131.4H169.2H169.1L169 131.6L168.8 131.7H168.7L168.6 131.6V131.5L168.5 131.4H168.4L168.3 131.3H168.1L167.8 131.1L167.6 131H167.5H167.4H167.3H167.2H167.1L166.4 130.9H166.1L166.3 126.9V126L165.3 125.6H165.2V125.5H165.1H165L164.9 125.4V125.3H164.8V125.2H164.7V125.1H164.6L164.5 125L164.4 124.9L164.3 124.8L164.2 124.7L164.1 124.5V124.3L164 124.2V124.1L163.9 124V123.9V123.8V123.7L163.8 123.5V123.2V123.1L163.7 123V122.9V122.7L163.6 122.6V122.5V122.4L163.5 122.3V122.2H163.4V122.1V122L163.3 121.8L163.2 121.7L163.1 121.5V121.4V121.3L163 121.2V121.1L162.9 120.9L162.8 120.7V120.6H162.7L162.5 120.3L162.4 120.2V120.1L162.2 119.9L162 119.8L161.9 119.7V119.6H161.8H161.7H161.6V119.5H161.5L161.4 119.4L161.3 119.3V119.2H161.2V119.1L161.1 119L161 118.9L160.9 118.8L160.8 118.7H160.7H160.6V118.6H160.5L160.4 118.5V118.4L160.3 118.3L160.2 118.2V118.1V118H160.3H160.4H160.5H160.6H160.7H160.8H160.9H161H161.1L161.2 118.1H161.3V118.2H161.4V118.3H161.5L161.6 118.4H161.7V118.5L161.8 118.6H161.9V118.7V118.8L162 118.9H162.1V119L162.2 119.1V119.2H162.3H162.4V119.3H162.5H162.6H162.7H162.8H162.9H163H163.1H163.2L163.3 119.2H163.4H163.5L163.6 119.1H163.7L163.8 119L163.9 118.9V118.8V118.7H164V118.8H164.1H164.2H164.3V118.7V118.3L164.2 118.4H164.1V118.3V118.2V118.1V118L164 117.9V117.8L163.9 117.7V117.6V117.5H163.8V117.4V117.3L163.7 117.2V117.1V117L163.6 116.9V116.8V116.7L163.5 116.6H163.4V116.5L163.3 116.4V116.3H163.2L163.1 116.2V116.1H163V116L162.9 115.9L162.8 115.8L162.7 115.7L162.6 115.6H162.5V115.5H162.4L162.3 115.4H162.2L162.1 115.3H162H161.9L161.8 115.4H161.7L161.6 115.3L161.5 115.2V115.1V114.9V114.8H161.6V114.7H161.7V114.6H161.8V114.5L161.9 114.4V114.3H162V114.2V114.1V114V113.9V113.8V113.7V113.6V113.5V113.4H161.9V113.3V113.2L161.8 113.1V113H161.7L161.6 112.9V112.8L161.5 112.7H161.4V112.6L161.3 112.5H161.2H161.1L161 112.4H160.8H160.7H160.5H160.4H160.3H160.2V112.3H160.1H160H159.9H159.8H159.7V112.2V112.1H159.6V112H159.7V111.9L159.8 111.8V111.9V112V112.1V112.2L159.9 112.3V112.2H160H160.1V112.3H160.2V112.2V112.1V112L160.1 111.9V111.8V111.7L160 111.6L159.9 111.5H160H160.1H160.2V111.4H160.3L160.4 111.5H160.6H160.7L160.8 111.6H160.9H161L161.1 111.7H161.2H161.3L161.4 111.8H161.5H161.6H161.7L161.8 111.9H161.9H162H162.1H162.2H162.3H162.5H162.6L162.7 111.8H162.9H163V111.7H163.1H163.2L163.3 111.6H163.4V111.5H163.5L163.6 111.4H163.8L163.9 111.3L164 111.2V111.1H164.1H164.2V111.2V111.3V111.4H164.3V111.5V111.6V111.7V111.8V111.9H164.2H164.1V112V112.1V112.2L164.2 112.3V112.4H164.3L164.4 112.3V112.2H164.3V112.1H164.4V112.2V112.3L164.5 112.4V112.5L164.6 112.7L164.7 112.8L164.8 113V113.1H164.9V113.2L165 113.3V113.4H165.1V113.5H165.2V113.6H165.3H165.4H165.5H165.6H165.7L165.8 113.5H165.9L166 113.4L166.1 113.3L166.2 113.2V113.1H166.3V113V112.9H166.4V112.8V112.7V112.6L166.5 112.5V112.4V112.3V112.2V112.1L166.6 112V111.9V111.8V111.7V111.6V111.5V111.4H166.5V111.3V111.1V111H166.4V110.9V110.8V110.7V110.6V110.5V110.4L166.3 110.3V110.1V110H166.4V109.9V109.8H166.5H166.6V109.7V109.6V109.5H166.5H166.4V109.6H166.3V109.5H166.2V109.6H166.3V109.7V109.8H166.2V109.7V109.6L166.1 109.5V109.4V109.3L166 109.2L165.8 109.5V109.6V109.7V110.2L163.7 110.3H163.4L163.2 109.9L163 109.3L162.3 107.6L162.2 107.1L162.1 106.9L161.7 106.4L161.5 105.9L161 105.5H160.9H160.8H160.7H160.6L160.5 105.4H160.4H160.3H160.2V105.5H160.1H160H159.9H159.8H159.7H159.6L159.5 105.6H159.4H159.3H159.2V105.7H159.1H159V105.8H158.9H158.8H158.7V105.9H158.6H158.5H158.4V106H158.3H158.2H158.1H158V106.1H157.9H157.8L157.7 106.2H157.6H157.5V106.3L157.4 106.4L157.3 106.5V106.7V106.9L157.2 107V107.2V107.5V107.7V108L157.3 108.3L157.4 108.9L157.5 109.3L157.6 109.8L157.7 110.1L157.8 110.6L158 111V111.2L158.1 111.4V111.5H158.2V111.6L158.3 111.7V111.8V111.9L158.2 112.2V112.3V112.4H158.1V112.5L158 112.8L157.9 113L157.8 113.1V113.2L157.7 113.3V113.4L157.5 113.5L157.4 113.6V113.7L157.3 113.9L157.2 114L157.1 114.2V114.4L157 114.5V114.7V114.8L156.9 115L156.8 115.6V115.8L156.6 116.1L156.5 116.5L156.4 116.7L156.3 116.9L156 117.2L155.9 117.3L155.7 117.6V117.7L155.5 118L155.3 118.2L155.2 118.4L155 118.5V118.6H154.9L154.5 118.9L154.4 119L154.3 119.1H154.2V119.2H154.1V119.3H154H153.9V119.4H153.8V119.5H153.7V119.6V119.7V119.8H153.6V119.9H153.5V120H153.4V120.1L153.3 120.2H153.2V120.1V120V119.9V119.8L153.1 119.7V119.6L153 119.4H152.9V119.3H152.8L152.7 119.2L152.6 119.1V119H152.5H152.4H152.3H152.2H152.1H152V119.1H151.9L151.8 119.2L151.7 119.3V119.4H151.6V119.5H151.5V119.6L151.4 119.7L151.3 119.8H151.2V119.9H151.1H151H150.9V120H150.8V120.1L150.7 120.2V120.3V120.4V120.5V120.6V120.7V120.8V120.9L150.8 121V121.1H150.7V121.2V121.3H150.6V121.4V121.5H150.5V121.6L150.4 121.7H150.3V121.8V121.9H150.2V122V122.1V122.2H150.1V122.3H150V122.2H149.9V122.1V122V121.9V121.8L150 121.7V121.6L149.9 121.5V121.4V121.3V121.2V121.1V121L149.8 120.9V120.8V120.7L149.7 120.6V120.5V120.3L149.6 120.2V120.1V120V119.9V119.8V119.7V119.6L149.7 119.5L149.8 119.3L149.9 119.2V119.1L150 119V118.9V118.8V118.7V118.6L149.9 118.5L149.8 118.4L149.7 118.3L149.5 118.2V118.1H149.4L149.2 118L149.1 117.9H149H148.9H148.8H148.7V118H148.6H148.5H148.4H148.3H148.2H148.1V118.1H148.2V118.2V118.3V118.4L148.3 118.5H148.4H148.5V118.6H148.4V118.7V118.8V119V119.1V119.3L148.5 119.5V119.8L148.6 120V120.2V120.3V120.4V120.6V120.7V120.8V120.9H148.7V121V121.1H148.8V121.2L148.7 121.1L148.6 121L148.5 120.9L148.4 120.8V120.7V120.6V120.5V120.4L148.3 120.3V120.2L148.2 120.1V120L148.1 119.9L148 119.7L147.9 119.6L147.8 119.4L147.7 119.3V119.2L147.6 119.1V119V118.9V118.8L147.5 118.7V118.6H147.4V118.5V118.4H147.3V118.3H147.2V118.2V118.1V118H147.1V117.9V117.8L147 117.7V117.6H146.9V117.5V117.4V117.3L147 117.2V117L147.1 116.8V116.7V116.6V116.5L147.2 116.3L147.3 116.1L147.4 115.9L147.5 115.8L147.6 115.7L147.5 115.5L147.4 115.3L147.3 115.2L147.1 115L146.9 114.9L146.8 114.8L146.6 114.6H146.5L146.4 114.5H146.3V114.3L146.2 114.2V114V113.9V113.7V113.4V113.2L146.1 113V112.8L146 112.6L145.9 112.5L145.8 112.3V112.1H145.7L145.8 112V111.9L145.9 111.8L146 111.7L146.3 111.6L146.6 111.3L146.8 111.2L146.9 111.1H147L147.1 111V110.9L147.2 110.8L147.3 110.7V110.6L147.4 110.4V110.3L147.5 110.2L147.6 110.1L147.7 110H147.8H147.9H148H148.1H148.2V109.9H148.3H148.4H148.6H148.7H148.8H148.9H149H149.2H149.3H149.4H149.5V109.8H149.6V109.7H149.7H149.8H150V109.8H150.1V109.9H150.2V110V110.1L150.3 110.3V110.4H150.4V110.5V110.6L150.5 110.7V110.9V111V111.1V111.2V111.4V111.5V111.6V111.7V111.8L150.4 111.9L150.5 112H150.4L150.5 112.1V112.2V112.3V112.4V112.5H150.6V112.6H150.7H150.8L150.7 112.5H150.6V112.4L150.7 112.3L150.8 112.2H150.9V112.1V112V111.9H150.8L150.9 111.8L151 111.7H151.1V111.6V111.5H151.2V111.4V111.3V111.2V111.1V111V110.9V110.8V110.7V110.6V110.5L151.3 110.4V110.3H151.4V110.2H151.5L151.6 110.1H151.7V110H151.8H151.9V109.9H152H152.1L152.2 109.8H152.3V109.7H152.4H152.5V109.6H152.6H152.7L152.8 109.5L153 109.4H153.1H153.2H153.3H153.4L153.5 109.5V109.6V109.7V109.8H153.6V110V110.1V110.2L153.7 110.4L154 110.7L154.2 110.8V110.9L154.3 111V111.1H154.4V111.2V111.3V111.4V111.5V111.6H154.3H154.2H154.1L154 111.5H153.9H153.8L153.7 111.6V111.7V111.8V111.9V112V112.1L153.8 112.2V112.3H153.7V112.4H153.8L153.9 112.5L154 112.6H154.1H154.3L154.4 112.7H154.5L154.6 112.6H154.7V112.5H154.6V112.4V112.3V112.2V112.1H154.7V112H154.8L154.9 111.9L155 111.8V111.7L155.1 111.6V111.5L155.2 111.4L155.3 111.2L155.4 111.1L155.5 110.9V110.8L155.6 110.6V110.5V110.3L155.7 110.2V110.1L155.6 110V109.9V109.8V109.7L155.5 109.6V109.5V109.4V109.3V109.2V109V108.9V108.7L155.6 108.6V108.5V108.4L155.7 108.2V108.1V108V107.9V107.8V107.7V107.5V107.3V107.1V107L155.8 106.9V106.8V106.7V106.6V106.5H155.7V106.4V106.3L155.6 106.2L155.5 106.1L155.4 106L155.3 105.9H155.2H155.1H155H154.9V106H154.8V106.1H154.9V106.2H155H155.1V106.3H155L154.9 106.2H154.8H154.7H154.6H154.5V106.1H154.4V106V105.9H154.3V105.8V105.7V105.6L154.2 105.5V105.4L154.1 105.2L154 105.1L153.9 104.9H153.8V104.8H153.7L153.6 104.7L153.5 104.6H153.4L153.3 104.5H153.2H153.1H153H152.9L152.8 104.6H152.7L152.6 104.7L152.5 104.8V104.9L152.4 105V105.1L152.3 105.2V105.4V105.5V105.7L152.2 105.9V106L152.3 106.1V106.3L152.4 106.4V106.5V106.6H152.5V106.7V106.8L152.6 106.9V107V107.1V107.3V107.4V107.5L152.7 107.6V107.8H152.8V107.9V108H152.9V108.1H152.8H152.7H152.6H152.5H152.4H152.3L152.2 108.2H152.1H152H151.9V108.3H151.8H151.7H151.6V108.4H151.5V108.5V108.6H151.6V108.7V108.8V108.9V109H151.5H151.4V109.1H151.3L151 109L150.6 108.9L150.4 108.8H150.3H150.2H150.1H150L149.9 108.7H149.8L149.7 108.6L149.6 108.5L149.4 108.4L149.3 108.3V108.2L149.1 108.1V108L149 107.8L148.9 107.7H148.8V107.6H148.7H148.6H148.5H148.4L148.3 107.7H148.2H148.1V107.6H148V107.5H147.9V107.4V107.3V107.2L147.8 107V106.9V106.8L147.7 106.7L147.6 106.6H147.5H147.4H147.3H147.2H147.1H147H146.9H146.8V106.5V106.4H146.7V106.3L146.6 106.2L146.4 106L146.3 105.8L146.1 105.6L146 105.4L145.8 105.2L145.7 105.1L145.6 105H145.5V104.9L145.4 104.8L145.3 104.6L145.2 104.5L145 104.4H144.8H144.7H144.6H144.5H144.4L144.3 104.5L144.2 104.6L144.1 104.7L144 104.9L143.9 105V105.1H143.8V105.2H143.7H143.6H143.5V105.1V105V104.9L143.4 104.8L143.3 104.7L143.2 104.6L143.1 104.5V104.4L143 104.3L142.9 104.2L142.8 104.1V104V103.9L142.7 103.7V103.6L142.6 103.5V103.4V103.3V103.2V103.1H142.5V103V102.9H142.4V102.8H142.3L142.2 102.7H142.1H142V102.8H141.9H141.8V102.9H141.7H141.6V103H141.5L141.4 103.2V103.3L141.3 103.4V103.5L141.2 103.7V103.8V103.9V104V104.1V104.2V104.3L141.1 104.5V104.6V104.7H141.2L141.1 104.8V104.9L141 105H141.1V105.1H141.2L141.3 105.2V105.3L141.4 105.4V105.5H141.5V105.6V105.7V105.8V105.9L141.6 106V106.1V106.3L141.7 106.4V106.5V106.6L141.8 106.7H141.9H142H142.1H142.2V106.6H142.3V106.5V106.4V106.3H142.4V106.2H142.5V106.1V106H142.6V106.1V106.2H142.7V106.3H142.8V106.4H142.9H143L143.1 106.5V106.6V106.7V106.8V106.9V107V107.1L143 107.2V107.3L142.9 107.4V107.5H142.8V107.6H142.7V107.7L142.6 107.8V107.9H142.5V108V108.1H142.4V108.2H142.3V108.3L142.2 108.4V108.5H142.1V108.6V108.7V108.8V108.9V109H142V109.1V109.2V109.3L141.9 109.5V109.6V109.7V109.9V110V110.1V110.3V110.5V110.6V110.7V110.9V111V111.1H141.8V111.2H141.7V111.3V111.4V111.5V111.6H141.6V111.7H141.5V111.8H141.4L141.3 111.9L141.2 112L141.1 112.1L141 112.2V112.1H140.9V112V111.9V111.8L141 111.7V111.6L140.9 111.4V111.3V111.2V111.1L140.8 111V110.9L140.9 110.8V110.7L141 110.5L141.1 110.3V110.2V110.1V110V109.9V109.8L141 109.7V109.6H140.9V109.5L140.8 109.4V109.3V109.2V109.1V108.9V108.8V108.7H139.9L139.7 108.8L139.6 109V109.1V109.2L139.7 109.3V109.4V109.5V109.6H139.6H139.5V109.7H139.4L139.3 109.8L139.2 109.9V110V110.1H139.3V110.2V110.3H139.4V110.4V110.5V110.6V110.7V110.8V110.9V111V111.1V111.2H139.5V111.3V111.4V111.5H139.6H139.7V111.6V111.7V111.8H139.8V111.9V112V112.1V112.2V112.3V112.4H139.7H139.6V112.5H139.5H139.4H139.3V112.6V112.7H139.2V112.8V112.9V113V113.1H139.1H139H138.9H138.8H138.7H138.6V113.2H138.5H138.4H138.3V113.3L138.2 113.4V113.5V113.6H138.3V113.7V113.8L138.4 113.9V114L138.5 114.1H138.4H138.3H138.2H138.1H138H137.7H137.6H137.5H137.4H137.3H137.2V114L137.1 113.9V113.8V113.7V113.6L137.2 113.5L137.3 113.4L137.4 113.3L137.5 113.2L137.6 113.1L137.7 112.9V112.8V112.5V112.3V112.2L137.6 112.1L137.5 112L137.2 111.7L136.9 111.5L136.8 111.4H136.7H136.6V111.3V111.2H136.5V111.1H136.4V111.2H136.3V111.3V111.4V111.5L136.2 111.7V111.9V112V112.1L136.3 112.4V112.5V112.6V112.7V112.8V112.9V113L136.4 113.1L136.3 113.2L136.2 113.3L136.1 113.4V113.5H136H135.9L135.7 113.4H135.5L135.2 113.3L135 113.2H134.9L134.8 113.1L134.7 113H134.6L134.5 112.8L134.4 112.7V112.6L134.3 112.5V112.4L134.2 112.1L134.1 111.9L134 111.6L133.9 111.4L133.8 111.1L133.5 110.8L133.3 110.6L133.2 110.5L133 110.3L132.9 110.2L132.8 110.1L132.6 109.9H132.5L132.3 109.8H132.2H131.9L131.7 109.7L131.6 109.6H131.5H131.4V109.5V109.4H131.3L131.2 109.3L131.1 109.6L131 109.7L130.9 109.8H130.8L130.5 109.7H130.3L130.2 109.6H130.1L130 109.5L129.9 109.4L129.8 109.3H129.7H129.5H129.3H129.1H128.9L128.7 109.4H128.6L128.5 109.5L128.4 109.6L128.2 109.7L128.1 109.8L128 109.9V110V110.1L127.6 109.6V109.4L127.4 109.1V109L127.3 108.8L127.2 108.6L127 108.4L126.8 108.1L126.6 107.9L126.5 107.6L126.4 107.3L126.3 107L126.2 106.9L126.1 106.8V106.7L126 106.4L125.9 106L125.6 105.5L125.3 105L125 104.5L124.8 104.1L124.7 104L124.6 103.8L124.5 103.7V103.6L124.4 103.5L124.3 103.3L124.1 103.2L124 103.1L123.8 103H123.7V102.9H123.6V102.8L123.5 102.7H123.3L123.2 102.6H123.1H123L122.9 102.5H122.8L122.7 102.4H122.6H122.5H122.4H122.3L122.2 102.3V102.4H122.1H122V102.3H121.9H121.8H121.7L121.6 102.4H121.5H121.4V102.5H121.3H121.2H121.1H121V102.6H120.9V102.7H120.8H120.7V102.8H120.6H120.5V102.7H120.4L120.5 102.6L120.6 102.5V102.4V102.3L120.5 102.2H120.4L120.3 102.1L120.2 102H120.1V101.9H120H119.8L119.5 101.8V101.9H119.4V102V102.1L119.3 102.2V102.3L119.2 102.4H119.1H119H118.8H118.7V102.5H118.6H118.5V102.4H118.4H118.3V102.5H118.2V102.4H118.1H118H117.9H117.8V102.5V102.6H117.7H117.6V102.5H117.5H117.4V102.4H117.3L117.2 102.3V102.2H117.1V102.1H117H116.9L116.8 102.2V102.1L116.7 102L116.6 101.9L116.5 101.8V101.7H116.4H116.3L116.2 101.6L116.1 101.5H116L115.9 101.4L115.8 101.3H115.7V101.2L115.6 101.1L115.4 101V100.9H115.3V100.8L115.2 100.7L115.1 100.6H115L114.9 100.5V100.4H114.8H114.7L114.6 100.3H114.5H114.4V100.4H114.3V100.5L114.2 100.6V100.7V100.8V100.9V101V101.1L114.1 101.2H114H113.9V101.3H113.8H113.7L113.6 101.4H113.5H113.4H113.3V101.3H113.2H113.1H113H112.9H112.8H112.7H112.6H112.5V101.2L112.4 101.3H112.3V101.2H112.2V101.1H112.1L112 101.2H111.9V101.3L111.8 101.4V101.6L111.7 101.8V101.9V102V102.1H111.8V102.2H111.9L112 102.3L112.1 102.4V102.5V102.6V102.7V102.8V102.9V103L112 103.1V103.2L112.1 103.4V103.5V103.6L112.2 103.7H112.3V103.8H112.4V103.7H112.5H112.6V103.6V103.5V103.4V103.3H112.5L112.4 103.2V103.1V103H112.5V102.9L112.6 103L112.7 103.2V103.3L112.8 103.5L112.9 103.6V103.7L112.8 103.8V103.9V104L112.7 104.1V104.2H112.6H112.5H112.4V104.3H112.3H112.2H112.1H112H111.9L111.8 104.4V104.5L111.6 104.6L111.5 104.5L110.8 104.1L110.2 103.9L109.9 103.7L109.5 103.3L109 102.7L108.6 102.6L108.4 102.4L108.2 102.3L108 102.1H107.9L107.3 102.2L107.1 102.3H106.8H106.7L106.4 102.4L106.6 103L107 105.8L107.2 106.7L107.4 107.7L107.5 108.6L106.9 108.9H106.8L106.5 109V109.1H106.4L106.3 108.7V108.5H106.2L106.1 108.4V108.3L106 108.2L105.9 108L105.8 107.9L105.7 107.8L105.6 107.6L105.5 107.5L105.4 107.4L105.3 107.3H105.2H105.1L105 107.2V107.3H104.9H104.8H104.7H104.6V107.4H104.5V107.5H104.4V107.6H104.3V107.7H104.2V107.8V107.9L104.1 108V108.1L104 108.2V108.3V108.4H103.9V108.5V108.6V108.7V108.8H104V108.7H104.1V108.6V108.5H104.2L104.3 108.4H104.4V108.3H104.5V108.4H104.4V108.5H104.3L104.2 108.6H104.1V108.7H104V108.8H103.9L103.8 108.9H103.7H103.6H103.5H103.4H103.3L103.2 108.8H103.1L103 108.9H102.9V109V109.1H102.8V109.2V109.3H102.7V109.4V109.5V109.6V109.7V109.8H102.8H102.9V109.7H103V109.6V109.5L103.1 109.4V109.5L103.2 109.6H103.1L103 109.7H102.9V109.8V109.9L102.8 110L102.7 110.1L102.6 110.2H102.5V110.3H102.4H102.3H102.2H102.1H102H101.9V110.4H101.8H101.7V110.3V110.2H101.6V110.1H101.5V110H101.4V109.9H101.3H101.2V110V110.1H101.1V110.2V110.3V110.4V110.5V110.6L101.2 110.7V110.9V111V111.1L101.3 111.2V111.3V111.4L101.4 111.5V111.6L101.5 111.7H101.6V111.8H101.7V111.9H101.8L101.9 112H102L102.1 112.1V112.2H102.2L102.3 112.3H102.4V112.4H102.5H102.6V112.5H102.7H102.8H102.9H103L103.1 112.6V112.7L103.2 112.8L103.3 112.9H103.4V113L103.5 113.1L103.6 113.2L103.7 113.3H103.8H103.9H104H104.1V113.4H104H103.9H103.8V113.5H103.7H103.6H103.5H103.4H103.3H103.2L103.1 113.4H103H102.9L102.6 113.2L102.2 113.1L101.8 112.9H101.7H101.6H101.5H101.4H101.3H101.1L101 113H100.9H100.8V113.1H100.7V113.2H100.6L100.5 113.3L100.4 113.4V113.5L100.3 113.6V113.7L100.2 113.8V113.9V114L100.1 114.1V114.3V114.4V114.5V114.6H100.2V114.7V114.8V115H100.3V115.1L100.4 115.2L100.5 115.3H100.6V115.4H100.7V115.5V115.6L100.8 115.7V115.9L100.9 116L101 116.2V116.3H101.1V116.4H101.2V116.5V116.6H101.3V116.5H101.4H101.5V116.6L101.4 116.7H101.3H101.2L101.1 116.8H101H100.9H100.8H100.7H100.6H100.5L100.4 116.7L100.3 116.6H100.2H100.1V116.5H100H99.9V116.4H99.8V116.3H99.7V116.2H99.6V116.1L99.5 116H99.4V115.9L99.3 115.8L99.2 115.7L99.1 115.5V115.4L99 115.3H98.9V115.2H98.8H98.7V115.3V115.4L98.6 115.3H98.5V115.4H98.4H98.3V115.5H98.2V115.6L98.1 115.7V115.8H98L97.9 115.9H97.8H97.7H97.6H97.5H97.4H97.3H97.2H97.1H97H96.9H96.8V116H96.7V116.1V116.2V116.3V116.4H96.8V116.5H96.7V116.4H96.6V116.5H96.7H96.8H96.9V116.6H97L96.9 116.5H97V116.4H97.1V116.5V116.6H97H96.9V116.7H96.8L96.7 116.6H96.6L96.5 116.5L96.4 116.4L96.3 116.3L96.2 116.1L96.1 116V115.9L96 115.8H95.9L95.8 115.6L95.7 115.5L95.6 115.3V115.2H95.5V115.1H95.4V115L95.3 114.9V114.8H95.2V114.7H95.1V114.6H95V114.5H94.9V114.4L94.8 114.3L94.7 114.2L94.6 114.1H94.5V114L94.4 113.9L94.3 113.8L94.2 113.7L94.1 113.6H94V113.5L93.9 113.4V113.3H93.8V113.2V113.1L93.9 113V112.9H94V112.8H94.1V112.7V112.6V112.5V112.4L94.2 112.3H94.1H94V112.2H93.9H93.8L93.7 112.3H93.6H93.5H93.4V112.2L93.3 112.1H93.2V112H93.1H93L92.9 111.9L92.8 111.8H92.7L92.6 111.6V111.5H92.5V111.4V111.3H92.4V111.2V111.1V111H92.3V110.9V110.8V110.7L92.2 110.6L92.1 110.5V110.4L92 110.5V110.6H91.9H91.8V110.7V110.8H91.7L91.6 110.9H91.5V111H91.4L91.3 111.1L91.2 111.2V111.3L91.1 111.4V111.5V111.7V111.8L91 112V112.1V112.2L90.9 112.3V112.4V112.5V112.6V112.7V112.8V112.9V113V113.1H91H91.1V113.2H91.2H91.3V113.3H91.2H91.1H91L90.9 113.4H90.8H90.7H90.6H90.5H90.4H90.3H90.2V113.5L90.1 113.4H90L89.9 113.3H89.8V113.2H89.7L89.6 113.1V113V112.9V112.7V112.6V112.5V112.4L89.5 112.2V112.1V112V111.9V111.8H89.6H89.7V111.9L89.8 112L89.9 112.1H90L90.1 112.2H90.2H90.3H90.4H90.5L90.6 112.1H90.7L90.8 112H90.9V111.9L91 111.8L91.1 111.7V111.6V111.5V111.2V111.1V110.9V110.7V110.6V110.4L91 110.3V110.2L90.9 110.1V110L90.8 109.9V109.8H90.7V109.7H90.6L90.5 109.6H90.4L90.3 109.5L90.1 109.4H90V109.3H89.9V109.2H89.8L89.7 109.1H89.6H89.5L89.4 109.2V109.1H89.3H89.2H89.1H89L88.9 109H88.8H88.7V108.9H88.6V108.8H88.5L88.4 108.7H88.3H88.2H88.1H88V108.8H87.9H87.8V108.9H87.7V109H87.6H87.5H87.4H87.3V109.1H87.2H87.1H87H86.9H86.8H86.7H86.6V109.2H86.5H86.4V109.3H86.3H86.2V109.4H86.1L86 109.5L85.9 109.6V109.7V109.8V109.9V110L85.8 110.2H85.9V110.3V110.4V110.6H86V110.7V110.8V110.9L86.1 111V111.1H86H85.9H85.8H85.7L85.6 111L85.5 110.9V110.8L85.4 110.7V110.6V110.5V110.4V110.3H85.5V110.2H85.6V110.1H85.7V110L85.8 109.9V109.8V109.7V109.6V109.5V109.4V109.3H85.7V109.2L85.8 109.1V109V108.9V108.8L85.9 108.7V108.6V108.5H86V108.4V108.3H86.1H86.2V108.2L86.3 108.1H86.4V108H86.5L86.6 107.9V107.8H86.7H86.8V107.7H86.9V107.6V107.5L86.8 107.4L86.7 107.2H86.6V107.1L86.5 107L86.4 106.9V106.8H86.3V106.7H86.2V106.6H86.1V106.5H86V106.4H85.9V106.3H85.8V106.2V106.1V106L85.9 105.9V105.8H86V105.7L86.1 105.6V105.5V105.4H86V105.3V105.2H85.9V105.1V105H86V104.9V104.8V104.7L86.1 104.6V104.5L86.2 104.4H86.3V104.3V104.2H86.4V104.1H86.5V104.2H86.6V104.1V104V103.9V103.8V103.7V103.6V103.5L86.7 103.4V103.3V103.2H86.6V103.3H86.5V103.4L86.4 103.5V103.6V103.7V103.8H86.3V103.9H86.2V104V104.1H86.1V104.2H86H85.9V104.3H85.8V104.4H85.9V104.5H85.8V104.6H85.9V104.7H85.8V104.8V104.9H85.7V105H85.6L85.5 105.1H85.4H85.3V105H85.2V104.9H85.1V104.8H85L84.9 104.7V104.8H84.8V104.9V105V105.1L84.7 105.2V105.3L84.8 105.4H84.9V105.5H85H85.1V105.6H85.2V105.7L85.3 105.8V105.9H85.2V106V106.1V106.2V106.3L85.1 106.4L85 106.5V106.6V106.7L84.9 106.8V106.9H84.8V107V107.1V107.2H84.7V107.3V107.4V107.5H84.6H84.5V107.6H84.4V107.7V107.8H84.3H84.2L84.1 107.9H84V108H83.9V108.1H83.8V108.2H83.7V108.3H83.8V108.4H83.7L83.6 108.5H83.5L83.4 108.6V108.7H83.3H83.2H83.1V108.8H83L82.9 108.9H82.8V109L82.7 109.1V109.2V109.3V109.4V109.5H82.6H82.5H82.4V109.6L82.3 109.7L82.2 109.8H82.1H82H81.9H81.8L81.7 109.7L81.6 109.6H81.5L81.3 109.5L81.1 109.4H81V109.3H80.8L80.7 109.2H80.6H80.5H80.4H80.3L80.2 109.3H80.1V109.2V109.1H80H79.9H79.8H79.7L79.6 109L79.5 108.9H79.4V108.8L79.3 108.7V108.6H79.2V108.5L79.1 108.4V108.3L79 108.2V108.1V108V107.9V107.8H78.9V107.7L78.8 107.6H78.7H78.6H78.5H78.3H78.2H78.1L78 107.5H77.9H77.8H77.7H77.6H77.5H77.4H77.3H77.2H77.1H77H76.9L76.8 107.6H76.7V107.7H76.6L76.5 107.8V107.9V108V108.1V108.2L76.6 108.3H76.7V108.4H76.8V108.5L76.9 108.6V108.7V108.8L76.8 108.9V109.1L76.7 109.2V109.3H76.6V109.4V109.5V109.6H76.7V109.7L76.6 109.6H76.5H76.4L76.3 109.7V109.8H76.2V109.9H76.1V110L76.2 110.2V110.3V110.4L76.3 110.5H76.4H76.5V110.4H76.6V110.3H76.7V110.4V110.5V110.6V110.7H76.8V110.6H76.9L77 110.7V110.6H77.1V110.7H77H76.9H76.8L76.7 110.8H76.6H76.5H76.4H76.3H76.2H76.1H76H75.8H75.7H75.5H75.4V110.9H75.3H75.2H75H74.9H74.7L74.6 110.8H74.5H74.3H74.2L74.1 110.7H73.8H73.7H73.6H73.5L73.4 110.8H73.3L73.2 110.9H73.1H73H72.9L72.7 111H72.6L72.5 111.1H72.4H72.3H72.2H72.1H72H71.9H71.8H71.7L71.5 111H71.4H71.3H71.2V111.1H71.1L71 111.2V111.1V111V110.9L70.9 111V111.1V111.2H70.8V111.1V111H70.7L70.6 110.9H70.5H70.3H70.2L70.1 110.8H69.9H69.8H69.7L69.6 110.7H69.5H69.4L69.3 110.6H69.2L69.1 110.5H69V110.4H68.9H68.8H68.7H68.6H68.5V110.3H68.4V110.4L68.5 110.5H68.4V110.6H68.3V110.5H68.2H68.1H68H67.9H67.8H67.7H67.6H67.5L67.4 110.6H67.3H67.2H67.1V110.7H67H66.9V110.8H66.8H66.7H66.6L66.5 110.7H66.4L66.3 110.6H66.2L66.1 110.5V110.4H66H65.9H65.8H65.7H65.6H65.5V110.3H65.4H65.3L65.2 110.4H65.1L65 110.5V110.6H64.9V110.5H64.8L64.7 110.4H64.6L64.5 110.3L64.4 110.2H64.3V110.1H64.2L64 110H63.9H63.8V109.9H63.7H63.6V110H63.5H63.4V110.1H63.3H63.2H63.1L63 110.2H62.9V110.3H62.8H62.7H62.6H62.5V110.4H62.4L62.3 110.5V110.6V110.7V110.8H62.2V110.9H62.1L62 111H61.9H61.8H61.7V110.9H61.6H61.5H61.4L61.3 111H61.1H61H60.9H60.8H60.7H60.6H60.5L60.4 111.1H60.3H60.2L60.1 111.2H60V111.3H59.9H59.8H59.7H59.6V111.4H59.4V111.5H59.3H59.2L59.1 111.6H59H58.9L58.8 111.5H58.7H58.6L58.5 111.4H58.4V111.3L58.3 111.2H58.2H58.1L58 111.1H57.9H57.8H57.7H57.6H57.5H57.4V111.2H57.3H57.2H57.1H57L56.8 111.3H56.7H56.6H56.5L56.4 111.4H56.3V111.5H56.2V111.6H56.1V111.7H56H55.9H55.8H55.7H55.5H55.4H55.3H55.2L55.1 111.8H55V111.9H54.9H54.8H54.7V112H54.6H54.5H54.4L54.3 112.1L54.2 112.2H54V112.3H53.9V112.4H53.8V112.5H53.7H53.6L53.5 112.6H53.4H53.3V112.7H53.2H53.1L53 112.8H52.9H52.8H52.7V112.9H52.6H52.5V113L52.4 113.1H52.3V113.2L52.2 113.3V113.4V113.5H52.1V113.6V113.7V113.8H52.2V113.9H52.3H52.4V114H52.2H52.1H52L51.8 113.9H51.7H51.6V113.8H51.5H51.3L50.7 113.6L50.1 113.5L50 113.4H49.9L49.4 113.3L48.5 113L47.5 112.7H47.4H47.3L46.9 112.6L46.6 112.5L45.1 112.1L44.3 111.8L43.8 111.7L43.5 111.6L42.7 111.3L42.1 111.1L41.6 110.9L41.1 110.7H40.9H40.8L40.7 110.6H40.4V110.5L40 110.4L39.6 110.3L39.1 110.1L38.7 110L38 109.7H37.9L37.6 109.6L36.7 109.3L35.9 109.1L34.9 108.7L34.2 108.5H34.1L34 108.4L32.8 108L31.8 107.7L30.8 107.4L28.9 106.9L28.2 106.7L27.3 106.4L26.1 106.2L23.8 105.8L21.2 105.3L19.5 104.9L18.1 104.7L16.7 104.4L16.1 104.2L14.5 103.8L13 103.5L11.8 103.2L10.3 102.8L8.29999 102.3L7.09998 101.9L5.59998 101.3L4.59998 100.7L4.29999 100.5L3.70001 100.1L2.90002 99.5L2.40002 98.9L1.90002 98.4L1.59998 97.9L1.29999 97.5L0.900024 96.8L0.799988 96.5L0.599976 95.8L0.400024 95.2V94.7L0.299988 94.1V93.4L0.5 92.8L0.599976 92.4L0.700012 92.2L0.900024 92L1.09998 91.9H1.20001H1.29999H1.40002L1.5 92V92.1V92.2V92.3V92.4V92.5V92.8L1.59998 93.1V93.5V94V94.3L1.5 94.7V94.8V94.9V95V95.3L1.40002 95.5V95.7V95.8V95.9L1.5 96.1V96.3V96.5V96.6L1.59998 96.7V97L1.70001 97.2V97.3L1.79999 97.5L2 97.9L2.20001 98.2L2.40002 98.6L2.70001 99L2.90002 99.2L3 99.4L3.29999 99.6L3.79999 100L4.40002 100.4L4.70001 100.6L5.20001 100.8L5.90002 101H6H6.40002H6.79999H7.09998L7.79999 100.8L8.20001 100.7L8.70001 100.4L9 100.2L9.20001 100L9.59998 99.8L9.90002 99.4L10.7 98.6L11.6 97.5L12.4 96.4L12.8 95.8L13.1 95.5L13.4 95.3L13.7 95.1L14 94.9L14.7 94.7L14.6 94.4L14.3 93.6V93.5L14.6 93.4L14.7 93.3L14.8 93.2L15 93L15.2 92.7V92.6L15.3 92.4L15.4 92.2V92.1V91.5L15.3 89.5V89.4L15.2 88.6V88.5L15.1 87.5L15.2 83.9L15.3 83.8L15.4 83.5L15.5 83.2V83.1L15.6 82.9L15.9 82.7V82.6H16.1V82.5L16.4 82.4H16.5H16.6H16.7L17 82.5H17.2L17.3 82.4L17.8 81.1V80.9L18 80.8L18.9 79.8L20 78.6L20.2 78.2L20.7 77.6L21.1 77.1V77L21.6 76.3V76.1L22 73.2V71.3L24 70.8L24.1 70.7H24.4L24.3 70.3L24.9 70.2L25.4 70.1L25.8 70.2H26.2L26.6 70.1L26.5 70L26 69.3H26.2H26.3L26.9 69.2L27.4 69.1L27.9 69H28.1L28.6 68.9V69L29.3 68.9V68.7L29.1 67.5V67.1L29 66.7L28.9 66L28.8 65.8V65.5L28 65.6L27.8 64.4L29.3 64.1L29.9 63.9L30.4 63.8H30.5V64V64.1H30.7V64.3L31.6 64.2L32.1 64.1L33.4 63.9L33.6 63.8L33.5 63L34.7 62.7L35.5 62.6L36 62.4L35.9 62.1V61.8L35.7 61L35.6 60.4L35.5 59.9H35.7L36.2 59.8L36.4 59.7H36.5H36.6L36.9 59.5L37 59.4L37.5 59.1L37.7 58.9V58.8L37.4 58.5L37.2 58.3V58.2L37.1 58.1L36.8 57.8L36.7 57.6L36.6 57.5V57.4V57.3V57.2V57.1H36.5V57L36.8 57.2L36.9 57.3L37.2 57.5L37.4 57.6L38.2 58.1L38.8 58.5L39.4 58.9L39.6 59.1L39.9 59.3L40.1 59.4H40.2L40.4 59.6L40.9 59.9L41.1 60L41.4 60.2V60.3H41.5H41.6L41.9 60.5H42L42.1 60.6L42.2 60.7L42.5 60.6H42.7L43.2 60.5L43.6 60.4H43.8L43.7 60.1V59.7L43.6 59.3L43.5 58.8L43.4 58.2V58.1L44.8 57.9L45.5 57.8L45.9 57.7H46.1H46.2L46.4 57.6H46.8L46.9 57.5L47.7 57.4L48.3 57.3V57.4L48.4 57.7L48.5 58.6L48.6 59.1L49.2 59H49.5H49.8L49.9 58.9H50.1H50.2L50.7 58.8L51.1 58.7H51.2H51.3H51.4L51.7 58.6H51.8L51.7 58.1L51.6 57.6L51.5 57.2V56.9V56.8H51.4L52.3 56.6L52.1 55.4V55.3L52 54.8V54.5L51.9 54.4V54.3L52.4 54.2L52.5 54.6L52.6 55.2L53.2 55.1L53.8 55V55.3V55.4V55.7H54.1V56L54.4 55.9L54.5 56.3L54.8 56.2L55.8 56L55.9 56.3H56H56.1L56.8 56.2L57.3 56.1H57.7L59.7 55.7V55.9L60 57.8L60.1 58.2L60.2 58.7V58.8H60.3H60.4H60.6L60.7 58.6H61L61.9 58.4L62.5 58.3H62.6V58.4V58.5L63.1 58.4L63.5 58.3V58.5H63.6V58.6L63.7 58.9H63.8V58.8H63.9H64V58.7V58.6H64.1L64.2 58.5H64.3L64.2 58.3L64.1 58.2V58.1L64.4 58L65.9 57.8H66.1L66 57.4L66.7 57.3L67.1 57.2L68.1 57L69 56.9L69.8 56.7H69.9L70 56.6L70.6 56.5L71.3 56.4L71.8 56.3L72.7 56.1H72.8L72.7 55.4V55.3L71.7 55.4L71.4 55.5L71.3 55L71.2 54.6V54.3V54.2L70.7 54.3H70.3L70 54.4L69.4 54.5L69 54.6H68.6L68.3 54.7H68.2H68.1V54.6H68V54.5H67.9H67.8H67.7L67.1 54.1L67.2 54L67.3 53.9V53.8H67.4V53.7V53.6V53.5V53.4V53.3H67.3L67.4 53.2L67.5 53H67.6L68.2 52.9L69.4 52.6L70.5 52.4L71.6 52.2H71.7V52L71.6 51.8L71.5 51.3V51L71.9 50.9L72.9 50.7L73.9 50.5H74.3H74.4L74.3 49.8L74.2 49.3L74 49.4L73.6 49.5L72.8 49.6V49.1L72.7 48.8L72.5 47.7L72.1 46.8V46.6V46.5L72.3 46.3L72.9 45.3L73.7 45.8L74.9 46.6L76.5 47.6L76.7 47.4L77.5 46.1L78 45.3L78.8 43.9L78.9 44L79 44.1L79.9 42.5L80.1 42.7L80.7 41.6L81.8 39.7L83 37.6L83.4 36.9H83.3V36.8L82.7 36.5L82.1 36.2L81.9 36.1L81.6 35.9L81.1 35.7L81 35.6L80.9 35.5L80.7 35.4L80.1 36.5L79.9 36.9L79.7 37.2L79.6 37.5L79.5 37.6H79.6L79.9 37.8L80.2 37.9L80.5 38.1L80.6 38.2L80.5 38.4L80.4 38.5L80.2 38.9L79.9 39.5L79.5 40.1L79.4 40.4L79.1 40.9L78 40.3L77.6 41L77.3 41.7L77 42.2L76.8 42.6L76.3 42.4L76 42.2V42.1L75.4 41.8L73.6 40.7L73.5 40.6L73.1 40.4L72.9 40.2L71.8 39.5H71.7L71.6 39.4V39.3H71.5H71.4H71.3V39.2H71.2L71.1 39.1V39H71V38.9L70.9 38.8V38.7V38.6H70.8V38.5V38.4L70.9 38.3V38.2V38.1H71V38L71.1 37.9V37.8V37.7L71 37.6V37.4V37.3L70.9 37.2V37.1V37L70.8 36.9L70.7 36.7L70.8 36.6V36.5H70.9V36.4V36.3V36.2H71V36.1L71.1 36L71.2 35.9H71.3V35.8V35.7H71.4V35.6V35.5H71.3V35.4V35.3V35.2L71.2 35.1V35L71.3 34.9V34.8L71.4 34.7H71.5V34.6H71.6H71.7H71.8V34.5H71.9H72V34.4L72.2 34.2L72.3 34L72.5 33.9L72.6 33.7L72.7 33.6L72.8 33.5V33.4L72.9 33.3V33.2L73 33.1L73.1 32.7L73.2 32.5L73.3 32.2V32L73.4 31.9V31.8V31.5L74.3 31.4H74.4H74.5V31.3H74.6H74.7V31.2H74.8H74.9L75 31.3H74.9V31.4H74.8V31.5H74.9H75V31.4H75.1H75.2H75.3H75.4V31.5H75.5H75.6V31.4H75.5V31.3H75.4V31.2V31.1V31H75.5H75.6H75.7H75.8V31.1L75.9 31.2L76 31.3V31.4L76.1 31.5V31.6V31.7V31.8H76V31.9V32H76.1V32.1L76.2 32.2H76.3L76.4 32.3H76.5L76.6 32.4H76.7V32.5H76.8L76.9 32.4H77H77.1H77.2H77.3V32.3V32.2L77.2 32.1V32V31.9V31.8V31.7V31.6H77.3L77.4 31.5H77.5H77.6H77.7V31.4H77.8H77.9H78H78.1V31.3H78.2V31.2H78.3V31.1H78.4V31H78.5V30.9H78.6V30.8H78.7V30.7H78.8V30.6V30.5H78.7V30.4L78.8 30.3V30.2V30.1H78.7V30V29.9V29.8V29.7H78.6V29.6H78.7V29.5V29.4V29.3V29.2H78.8L78.9 29.3V29.4H79H79.1H79.2V29.3H79.1V29.2H79V29.1V29H79.1H79.2V29.1H79.3V29.2H79.4H79.5H79.6L79.7 29.1V29H79.8H79.9H80H80.1H80.2H80.3H80.4L80.5 29.1V29.2H80.6L80.7 29.4V29.5H80.8V29.6H80.7V29.7V29.8V29.9L80.8 30L80.9 30.1H81V30.2L81.1 30.3H81.2V30.4H81.3V30.5H81.4V30.4H81.5H81.6V30.5H81.7H81.8H81.9H82H82.1V30.4L82.2 30.3H82.3H82.4V30.2L82.5 30.1H82.6V30V29.9H82.5H82.3L82.2 29.8L82.1 29.7L82 29.5V29.4H81.9V29.3V29.2L81.8 29.1V29V28.9V28.8V28.7V28.6V28.5V28.4H81.9H82V28.3H82.1H82.2H82.3L82.4 28.4H82.5L82.6 28.5H82.7H82.8H82.9V28.4L83 28.3V28.2H83.1V28.1H83.2H83.3H83.4H83.5V28H83.6V28.1V28.2H83.5V28.3V28.4H83.6H83.7V28.3L83.8 28.2H83.9H84H84.1H84.2V28.1V28H84.3V27.9H84.4V28H84.5H84.6V27.9H84.7L84.2 27.5L84 27.3L83.2 26.6L82.8 26.2L82.3 25.7L82.5 25.4L82.2 25.3L82.1 25.2L81.5 25V24.9L81.4 24.7L80.7 24.8V24.6L80.6 24.1L80.5 24L80.7 23.9L80.9 23.8V23.7L81 23.2V23.1H80.9L80.7 22.3L80.6 21.7L81.4 21.5L81.7 21.4L81.8 21.3H82L82.1 21.2V21.1V21V20.9H82.4L82.3 20.6H82.2V20.5V20.4V20.2V20.1H82.1V20V19.9V19.8L82 19.4L81.9 18.7L81.8 17.9L81.7 17.5L81.6 17L81.5 16.6L80.5 16.8L79.7 17H79.4L77.4 17.4V17.3L77.3 16.9V16.7L77.2 16.4L77.1 16H77.2L77.1 15.7V15.4L77 15.2V14.8L76.9 14.4V14.1L77.3 14L77.2 13.2L77.1 12.8L78.1 12.6V12.4V12.3L78 11.7L77.8 10.8L78.7 10.4L78.9 10.3L79 10.7V11.1V11.7V11.8V12.6V13V13.7V14.4V15L79.6 14.9L80.4 14.8L81.2 14.6L81.9 14.5L82.4 14.4L82.1 13L82 12.5V11.7L81.9 10.7L81.8 10.2H81.9L81.8 9.89999H82L81.9 9.5L81.8 8.89999L81.6 7.79999H81.7L82.1 7.60001L82.8 7.29999L82.7 6.5L82.6 6L82.5 5.39999V5.20001L81.2 5.79999L80.2 6.39999V6.29999V6.20001L80.1 5.5L80 4.89999L79.9 4.5V4.10001L80 3.89999V3.39999L80.1 2.60001V2.5L81.6 2.79999L83.7 3.29999H83.8H83.9L84 3.39999H84.1H84.2L84.3 3.29999H84.4V3.20001L84.5 3.10001L84.6 3H84.7V2.89999H84.8H84.9L85 3H85.1V3.10001H85.2H85.3V3.20001H85.4H85.5H85.6H85.7H85.8H85.9H86H86.1L86.2 3.10001H86.3L86.4 3H86.5H86.6L86.7 2.89999H86.8H86.9V2.79999L87 2.70001V2.60001H87.1H87.2V2.70001L87.3 2.79999V2.89999L87.4 3V3.10001V3.20001V3.29999V3.39999V3.5H87.3V3.60001V3.70001V3.79999L87.2 3.89999V4V4.10001H87.1V4.20001L87 4.29999V4.39999H86.9L86.8 4.5H86.7V4.60001H86.6L86.5 4.70001H86.4V4.79999V4.89999H86.5V5H86.6V5.10001V5.20001V5.29999V5.39999V5.5H86.5V5.60001L86.4 5.70001L86.3 5.79999V5.89999V6H86.4H86.5V6.10001H86.6H86.7H86.8H86.9H87V6.20001H87.1H87.2H87.3V6.10001H87.4H87.5H87.6H87.7H87.8V6H87.9V5.89999H88H88.1V5.79999H88.2L88.3 5.70001H88.4V5.60001L88.5 5.5V5.39999H88.6L88.7 5.29999L88.8 5.20001H88.9V5.10001H89H89.1V5H89.2L89.3 4.89999H89.4V5H89.5H89.6H89.7V5.10001H89.8H89.9V5.20001V5.29999V5.39999V5.5H90V5.60001V5.70001V5.79999V5.89999V6V6.10001H89.9V6.20001V6.29999V6.39999V6.5H89.8V6.60001H89.7V6.70001H89.6V6.79999H89.5V6.89999V7V7.10001V7.20001H89.6V7.29999V7.39999H89.7V7.5H89.8V7.60001H89.9V7.70001L90 7.79999H90.1V7.89999H90.2V8H90.3V8.10001H90.4V8.20001H90.5H90.6H90.7H90.8H90.9H91V8.29999H91.1V8.39999V8.5V8.60001H91.2V8.70001V8.79999L91.3 8.89999V9V9.10001V9.20001H91.2V9.29999H91.1L91 9.39999H90.9L91.1 9.60001H91.2V9.70001L91.6 9.5L91.9 9.39999H92L92.1 9.29999H92.2H92.3L92.7 9.10001L92.9 8.89999H93L92.7 8.60001L92.5 8.20001L92.2 7.79999L92 7.70001L91.9 7.10001L91.8 6.79999V6.70001L92 6.60001H92.3L92.5 6.5H92.6H92.9L93.5 6.29999H93.7L94.3 6.20001L94.9 6.10001L95.4 6L96 5.89999L96.4 5.79999L96.9 5.70001H97L97.9 5.5L98.2 5.39999L99 5.29999L99.6 5.20001L99.9 5.10001L99.7 3.79999L99.5 2.89999L99.4 2.20001V2.10001L99.3 1.89999L99.9 1.79999L100.3 1.70001L100.8 1.60001H101.2L101.5 1.5L102 1.39999L102.8 1.29999L103.6 1.10001L104.2 1L104.7 0.899994L104.8 1.79999H105.1L105.3 2.89999L105.9 2.79999L106.1 3.70001V3.79999V3.89999L105.1 4.10001V4.20001L105.3 5.10001L105 5.5L104.8 5.79999L104.7 5.89999V6V6.29999L104.8 6.70001L105.1 8.20001L105.9 8.10001V7.60001L106.5 7.5L107 7.39999H107.5L107.6 8.29999L107.8 9.29999L107.9 9.5V9.60001L109.1 9.39999L109.2 9.29999H109.5L110.3 9.20001L110.8 9.10001L111.4 9L112.7 8.79999H112.8H112.9L113.7 8.60001L114.5 8.5L115.7 8.29999L117.4 8L118.5 7.89999L119.3 7.79999L120.4 7.60001H120.5L121 7.5H121.3L121.5 7.39999H121.7H121.8H121.9L122 7.29999H122.1H122.2L122.3 7.20001H122.4H122.5H122.6H122.7H122.8V7.29999H122.9V7.39999V7.5V7.60001V7.70001L123 7.79999V7.89999V8L123.1 8.20001V8.29999L123.2 8.39999V8.5L123.3 9.5V9.79999L123.4 10.5V11V11.1V11.2V11.3V11.4L123.5 11.5L123.6 11.6H123.7H123.8H123.9L124.5 11.5L124.7 11.4H124.8L124.9 11.5H125H125.1L125.2 11.6V11.5H125.3H125.4H125.5V11.4H125.6H125.8L126 11.6H126.3L126.7 11.4L127 11.3L127.1 11.2L127.8 11.1L128.3 10.9L128.7 10.8L129.1 10.7H129.4L129.7 10.6L130.1 10.5H130.5L130.9 10.4L131.3 10.3H131.8L132.2 10.2H132.5L132.7 10.1H132.9L134.1 10.6L134.5 10.8H134.7V10.9H134.8L135 11L135.2 11.1L136.3 11.6L136.8 11.9L137.2 12.2L137.5 12.5L137.8 12.9L138.1 13.3L138.2 13.7L138.3 13.9L138.4 14.3V14.4V14.5V14.6L138.5 14.8L138.8 16.2L138.5 16.5L138.6 16.8L138.8 17.8L139 18.8V18.9L139.6 18.8L139.8 19.7L139.9 20.5L140.1 21.3V21.4L140 21.5L140.1 21.8V22.2L140.2 22.5L140.3 23.1L140.4 23.5V24L140.5 24.5L140.6 24.7V24.8V24.9V25V25.1V25.2L140.7 25.3V25.2H140.8V25.3H140.9V25.4H141L141.1 25.5L141.3 25.6V25.5L141.8 24.9L142.1 24.5L142.2 24.3L142.4 24.1L142.5 24H142.7L143 23.9H143.4L143.6 23.8H143.7H143.9L144.1 24.1L144.4 24.4L144.5 24.5H144.6H144.7H144.8H144.9L145.2 24.4L145.9 24.3H146.1L146 23.4L146.8 23.3H147L146.9 22.5L146.7 21.6L148 21.4L148.8 21.2L149.3 21.1L150.1 21H150.3H150.4L150.5 20.9H150.6H150.7L150.8 20.8H150.9V20.7L151 20.6V20.5H151.1V20.4H151.2V20.5V20.6H151.3H151.4H151.5H151.6H151.7H151.8L151.9 20.7V20.8H151.8L151.7 20.9H151.6V21V21.1H151.5V21.2V21.3L151.4 21.4H151.5H151.6L151.7 21.5H151.8V21.6V21.7V21.8L151.9 21.9H151.8L151.7 22H151.6H151.5H151.2L150.9 22.1H150.8L150.2 22.2H150L150.2 23.1L150.3 24.1L150.5 24.8L151 24.7L151.8 24.6L152 24.5V24.7L152.1 25.1V25.3L152.2 25.7H152.4V25.9L152.5 26.1V26.5L152.6 26.7V26.9L152.4 27H152.3L152.1 26.9V27H152H151.9H151.8L151.7 27.1H151.6H151.4H151.3L151.2 27.2H151.1H150.8L150.6 27.3L150.7 28.3L150.8 29.2V29.3L150.9 29.9L151 30.5L151.2 31.6L151.3 32.4V32.5L151.4 32.8V32.9V33.1L151.6 34.7L151.8 36.1L151.9 36.8L152 37V37.8H152.8H152.9L153.1 37.7H153.3H153.6H153.7H153.8V38H153.7V38.1L153.9 39.2L154.2 41.6V41.7L154.3 42.4L154.4 43V43.5L154.5 43.7L155.6 43.6H155.7V43.7L155.8 44.3L155.9 44.6L156 45.6L156.1 46.1V46.2L156.5 46.1H156.6L156.8 46H157.1V46.2L157.2 46.7L157.3 47.5H157.8H158.1L158.2 47.4L158.8 47.3L159.6 47.2L160.2 47.1L160.4 47.9L160.5 48.7V48.8H160.6L161.2 48.7L161.6 48.6L162.2 48.5H162.6L162.8 48.4H163L163.1 49.2L163.3 50.4L163.5 51.7V52.1L163.6 52.5L163.7 53.3V53.8L163.8 54.2V54.3V54.4H164.5L165.9 54.3L166.4 54.2V54.3L166.5 55.1L166.6 55.6L166.7 56.4V56.8L166.8 57.4V57.9H166.9L167.1 58.2H167L166.5 58.3L164.7 58.5L164.1 58.6V58.7V58.8V58.9V59V59.1L164.2 59.3V59.4V59.6L164.3 59.9V60V60.1L164.4 61L164.5 61.2L164.6 61.7H163.7V62.5V63.4H163.6H163.4L162.9 63.5V64.2H162.6L161.4 64.4H161L160 64.6L159.1 64.7V65L159.2 65.7H158.8L158.5 65.8L157.4 65.9L157.5 66.9V67L157.6 67.4L157.7 68.5V68.6H158H158.2L159.5 68.4H159.6L160.2 68.3L160.3 69V69.2V69.4H160.4L160.7 69.3H161.1V69.2L162.2 69.1L162.9 69H163L163.5 68.9V69.1V69.5L163.6 69.6V69.9V70.1L163.7 70.2V70.3V70.5V70.8L163.8 71.3V71.5V71.6L163.9 71.9V72.1V72.5L164 73L163.2 73.2L161.8 73.5L162.2 75.9L162.3 76.4L163 76.3L163.6 76.2L163.7 77.1L163.8 77.8H163.9L164 78.3V78.6V78.7L165.9 78.4H166L167.9 78.1L170 77.8L170.3 77.7H170.6H170.8V77.8L170.9 78.3L171 79.3V79.6H170.9H170.6L170.5 79.7L170.6 80.5V80.8L170.8 81.8V81.9L170.9 81.8L172 81.7L172.8 81.6L173.4 81.5H173.6V81.4L173.7 81.7V81.8V81.9V82V82.1H173.8H173.9L174.2 82.2V82.3H174.3L174.4 82.4L175 82.7L175.6 83L176.5 83.5H176.7V83.6L177.1 83.8H177.3L177.4 83.9H177.5L178.1 83.8H178.3L178.9 83.7H179V84.4L179.1 84.8V85V85.3L179.2 86V86.1V86.3L179.3 87.1L179.4 87.5V87.8H179.5V87.9L179.6 88.3V88.7V89.1L179.7 89.8V89.9L179.8 90.6V91L179.9 91.2L179.8 91.4H179.7L179.2 91.5L179.3 91.7L179.5 92.9V93.2V93.3V93.6L179.6 93.9V94.1V94.3V94.4L179.7 94.5V94.6L179.8 94.8L179.7 94.9V95V95.2H179.8V95.6L179.9 96V96.1V96.4V96.6L180 97L180.6 96.9H180.8H181.2H181.3H181.5L181.4 97L181.3 97.1V97.2H181.2V97.3L181.1 97.4L181 97.5L180.9 97.6L180.8 97.8L180.6 98L180.5 98.2L180.3 98.3L180.2 98.4L180.1 98.5L180 98.6L179.9 98.7L179.8 98.8H179.7L179.6 98.9L179.4 99L179.3 99.1L179.2 99.2L179.1 99.3H179L178.9 99.4H178.8L178.7 99.5H178.6L178.5 99.6H178.4L178.3 99.7H178.2L178.1 99.8H178L177.9 99.9H177.8H177.7L177.6 100H177.5H177.4H177.3L177.2 100.1H177L176.9 100.2H176.8H176.6H176.4L176.3 100.3H176.1H176H175.8H175.7L175.6 100.4H175.5H175.4L175.1 100.5H175H174.9L174.4 100.6H174.3H174.2H174.1L174 100.7H173.9H173.8H173.7L173.6 100.8H173.5H173.4H173.3H173.2V100.9H173.1H173H172.9L172.8 101H172.7H172.6L172.5 101.1H172.3H172.2H172.1L171.9 101.2H171.8H171.7H171.5H171.4H171.3V101.3H171.2H171.1H171V101.4H170.9V101.5H170.8V101.6V101.7H170.7L170.6 101.8H170.5L170.4 101.9L170.3 102L170.1 102.1L170 102.2H169.9L169.8 102.3L169.7 102.4V102.5H169.6H169.5V102.6H169.4V102.7H169.3V102.8H169.2L169.1 102.9H169V103H168.9V103.1L168.7 103.2H168.6L168.5 103.3L168.4 103.4L168.3 103.6L168.1 103.7V103.8H168V103.9H167.9V104H167.8L167.7 104.2V104.3L167.6 104.4V104.5V104.6L167.5 104.7V104.8L167.4 104.9V105V105.1V105.2V105.3L167.3 105.4V105.5V105.6V105.7V105.8V105.9V106.1V106.2V106.3V106.4L167.2 106.5V106.6L167.1 106.8V106.9H167L166.9 107V107.1H166.8H166.7V107.2V107.3V107.4L166.8 107.5V107.6L166.9 107.7V107.8V107.9L167 108H167.1V108.1H167.2V108.2L167.3 108.5L167.4 108.6V108.7V108.8L167.5 109V109.3L167.6 109.7L167.7 109.9L167.8 110.6V111L167.9 111.6V111.8V111.9L168 112.2V112.3V112.4V112.8V112.9H168.1V113V113.1V113.2V113.3V113.4V113.5V113.6V113.7V113.8L168.2 114V114.4V114.5V114.6V114.7V114.8L168.3 114.9V115V115.1V115.2V115.3V115.4V115.5V115.6V115.7V115.8H168.4V115.9V116V116.1V116.2V116.3V116.4V116.5V116.6H168.5V116.7V116.8V116.9V117V117.1V117.2L168.6 117.3V117.4V117.5V117.6V117.7V117.8L168.7 117.9V118V118.2V118.3L168.8 118.4V118.5V118.7V118.8L168.9 119L169 119.7L169.1 120L169.3 120.7L169.4 121.3L169.5 121.7V121.8L169.7 122.5L169.8 122.9L169.9 123.2L170.1 123.7L170.2 123.9L170.5 124.9L170.7 125.6L170.9 126.2L171 126.4L171.3 127.1L171.5 127.8L171.8 128.5L171.9 128.9H172L172.1 129.4L172.4 130.1L172.7 130.8L172.8 131Z" fill="#6F9C76"/>
<path d="M53.5 114.1V114H53.4H53.3H53.2H53.1H53H52.9H52.8M53.5 114.1L53.6 114M53.5 114.1L53.8 114.2H54.1H54.3M53.5 114.1H53.3H53.1H52.9H52.7H52.6V114H52.7H52.8M53.6 114V114.1M53.6 114H53.7V114.1H53.8H53.9H54H54.1L54.2 114.2H54.3M54.3 114.2H54.4H54.5H54.6H54.7H54.8H54.9V114.3H55H55.1H55.2H55.3L55.4 114.4L55.5 114.3V114.4H55.6H55.7H55.8H55.9V114.5H56H56.1H56.2H56.3H56.4H56.5V114.6H56.6H56.7L56.8 114.7V114.8M54.3 114.2L54.6 114.3L55 114.4L55.6 114.5L56.1 114.7L56.8 114.8M56.8 114.8H56.9M56.8 114.8L57.5 115L57.9 115.1L58.4 115.2L59.1 115.5L59.7 115.7L60.2 115.8L60.7 116L61.1 116.1L61.5 116.2L62 116.3H62.3L62.5 116.4H62.6L62.9 116.5H63.1M56.9 114.8V114.7M56.9 114.8H57V114.7M56.9 114.7H57M56.9 114.7V114.6M57 114.7V114.6H56.9M57 114.7H57.1H57.2V114.8H57.3H57.4V114.9H57.5H57.6L57.7 114.8H57.8V114.9H57.9H58V115H58.1H58.2H58.3V115.1H58.4H58.5L58.6 115.2H58.7H58.8V115.3H58.9H59V115.4H59.2L59.3 115.5V115.4H59.4H59.5H59.6H59.7V115.5H59.8H59.9L60 115.6H60.1V115.7H60.2H60.3H60.4V115.8H60.5H60.6H60.7H60.8V115.9H60.9H61V116H61.1H61.2H61.3V116.1H61.4H61.5H61.6H61.7H61.8H61.9H62V116.2H62.1H62.2H62.3H62.4H62.5H62.6L62.7 116.3H62.8H62.9V116.4H63H63.1M56.9 114.6H56.8M63.1 116.4V116.5M63.1 116.4H63.2V116.5H63.3H63.4H63.5V116.6H63.6H63.7H63.8H63.9H64H64.1H64.2H64.3V116.5H64.4H64.5M63.1 116.5L63.4 116.6L63.7 116.7H63.9L64.4 116.8H64.5L64.6 116.9H64.7H64.9H65H65.1L65.2 117H65.3H65.4H65.5H65.7V117.1H65.8H66.1L66.5 117.2H66.9L67.3 117.3L67.7 117.4H68L68.1 117.5H68.3L68.8 117.6L69 117.7H69.2H69.4L69.7 117.8H69.9H70.1H70.4L70.8 117.9H71L71.3 118H71.5H71.7H71.9H72.1H72.2H72.3H72.5H72.6L72.7 117.9H72.8H72.9H73L73.1 117.8H73.2H73.3L73.4 117.9H73.5H73.7L73.9 118H74.2H74.4L74.6 118.1H74.7H74.8H74.9H75H75.2H75.4L75.6 118.2H75.8H76H76.1H76.2V118.3H76.3H76.4H76.5H76.6H76.7H76.8H76.9H77H77.1H77.2L77.4 118.2H77.5L77.7 118.1H77.8H77.9L78.1 118H78.2H78.3L78.4 117.9H78.5H78.6H78.7H78.8H78.9H79H79.1H79.2H79.3H79.4L79.5 117.8V117.7V117.6H79.4V117.7H79.3L79.2 117.8H79.1H79H78.9H78.8L78.7 117.7H78.6V117.6V117.5H78.5H78.4V117.4H78.3H78.2L78.1 117.3H78L77.9 117.2H77.8H77.7V117.1H77.6L77.5 117H77.4L77.3 116.9H77.2M64.5 116.5V116.4M64.5 116.5H64.6V116.4H64.7V116.5H64.8H64.9V116.6H65V116.5H65.1H65.2V116.4H65.3H65.4H65.5H65.6V116.3H65.7V116.2H65.8H65.9H66V116.1V116H66.1M66.1 116V116.1M66.1 116V115.9M66.1 115.9H66.2M66.1 115.9L66.2 115.8L66.3 115.9V115.8V115.7V115.6H66.4V115.7H66.5V115.6H66.6H66.7H66.8H66.9V115.5H67V115.4H67.1H67.2V115.3M67.2 115.3V115.2V115.1M67.2 115.3H67.3H67.4V115.2V115.1H67.5M67.5 115.1V115.2M67.5 115.1L67.6 115.2V115.1H67.7V115H67.8H67.9V114.9H68V114.8V114.7H68.1M68.1 114.7H68.2M68.1 114.7V114.8V114.9H68.2V114.8H68.3M68.3 114.8H68.4M68.3 114.8V114.7H68.4M68.4 114.8L68.5 114.7H68.4M68.4 114.8V114.7M68.4 114.7V114.6H68.5L68.4 114.5V114.4H68.5H68.6L68.7 114.5H68.8V114.6H68.9V114.7H69V114.8H69.1V114.9V115H69.2V115.1H69.3V115.2H69.4H69.5V115.3L69.6 115.4H69.7V115.5H69.8V115.6V115.7H69.9V115.6H70V115.7H70.1L70.2 115.8H70.3V115.9H70.4L70.5 116H70.6L70.7 116.1H70.8H70.9V116.2H71H71.1H71.2H71.3L71.4 116.3V116.2H71.5H71.6H71.7H71.8L72 116.1H72.1V116H72.2V115.9M72.2 115.9H72.1M72.2 115.9V115.8L72.3 115.7L72.4 115.6V115.5L72.5 115.4V115.5H72.6V115.6L72.7 115.7L72.8 115.8H72.9V115.9H73H73.1V116H73.2V116.1H73.3L73.4 116.2H73.5V116.3H73.6V116.4L73.8 116.5H73.9L74 116.6H74.1L74.2 116.7H74.3H74.4H74.5H74.6H74.7H74.8V116.6H74.9H75H75.1H75.2H75.3H75.4V116.7H75.5H75.6L75.8 116.8H75.9H76V116.9H76.1L76.2 117H76.3H76.4H76.5M76.5 117H76.6M76.5 117V116.9H76.6M76.6 117V117.1H76.7H76.8H76.9H77L77.1 117H77.2V116.9M76.6 117V116.9M77.2 116.9L77.1 116.8M77.2 116.9V116.8H77.1M77.1 116.8H77H76.9M76.9 116.8V116.9H76.8L76.7 117V116.9H76.6M76.9 116.8H76.8H76.7L76.6 116.9M52.8 114V113.9M188.1 102.1V102.2V102.3H188.2L188.1 102.4H188H187.9H187.8H187.7V102.5V102.6H187.6V102.7H187.5V102.8V102.9V103V103.1V103.2V103.3H187.4V103.4V103.5H187.5V103.6V103.7L187.6 103.8V103.9V104V104.1L187.5 104.2V104.3L187.4 104.4V104.5V104.6L187.3 104.7V104.8H187.2V104.9V105H187.1V105.1V105.2H187L186.9 105.3H186.8L186.7 105.4H186.6L186.5 105.5H186.4L186.3 105.6H186.2H186.1V105.7H186H185.9H185.8L185.7 105.8H185.6L185.5 105.9H185.4H185.3V106H185.2H185.1L185 106.1H184.9V106.2H184.8L184.7 106.3H184.6L184.5 106.4H184.4L184.2 106.5L184 106.6L183.8 106.7L183.7 106.8L183.6 106.9H183.5H183.4V107H183.3L183.2 107.1H183L182.7 107.2L182.5 107.3H182.3H182.2L182.1 107.4H181.9L181.7 107.5H181.3L181.2 107.6H181.1H180.8H180.7H180.5H180.4L180.3 107.7H180.2H180.1H180H179.9H179.8V107.8H179.7H179.6H179.5H179.4H179.3V107.9H179.2H179.1H179L178.9 108H178.8H178.7H178.6H178.5H178.4L178.3 108.1H178.2V108.2H178.1L178 108.3V108.4H177.9L177.8 108.5V108.6V108.7V108.8V108.9V109V109.1L177.9 109.2V109.3V109.4V109.5L177.8 109.6V109.7H177.7L177.6 109.8H177.5H177.4V109.9H177.3L177.2 110H177.1L177 110.2L176.9 110.4L176.8 110.5L176.7 110.6L176.6 110.7L176.5 110.8H176.4L176.2 110.9L176.1 111L176 111.1H175.9L175.8 111.2V111.3V111.4H175.9V111.5H176V111.6V111.7V111.8L175.9 111.9L175.8 112V112.1L175.7 112.2V112.3V112.4V112.5V112.6V112.7V112.8L175.6 112.9L175.4 113.1V113.2H175.5V113.3L175.6 113.2L175.9 113.1H176.1L176.3 113H176.4L176.5 112.9L176.9 112.8L177.2 112.7L177.6 112.5L178.4 112.2L178.7 112L179 111.8L179.4 111.6L179.5 111.5H179.6H179.7H179.8L179.9 111.4H180V111.3H180.1H180.2L180.3 111.2H180.6L180.8 111.1L181.2 111H181.4L181.7 110.8L182.3 110.6L182.7 110.3L183.1 110.1L183.2 110H183.3L183.6 109.8L183.9 109.5L184.3 109.2L184.8 108.8L185.1 108.4L185.4 108L185.6 107.9V107.8L186 107.3L186.3 106.9L186.7 106.2L186.9 105.8L187.2 105.1L187.6 104.5L188 103.5L188.1 103.2L188.4 102.7L188.6 102.3L188.8 102L188.9 101.9L189 101.7L189.2 101.4L189.3 101.2L189.7 100.5L189.9 100.3V100.2L190 100L190.2 99.9L190.3 99.6L190.2 99.5L190.1 99.6H190V99.7V99.8V99.9H189.9M188.1 102.1H188.2V102M188.1 102.1V102M188.1 102.1H188M188.2 102H188.1M188.2 102H188.3H188.4H188.5L188.6 101.9H188.7V101.8H188.8V101.7V101.6H188.9V101.5H189V101.4V101.3V101.2L189.1 101.1M188.1 102H188V102.1M188 102.1V102.2H187.9M189.1 101.1V101.2M189.1 101.1V101L189.2 100.9H189.3V100.8L189.4 100.7H189.5V100.6H189.6V100.5L189.7 100.4V100.3H189.8V100.2V100.1V100V99.9H189.9M189.9 99.9V99.8M164.3 118.7V118.8H164.2H164.1H164V118.7H163.9V118.8V118.9L163.8 119L163.7 119.1H163.6L163.5 119.2H163.4H163.3L163.2 119.3H163.1H163H162.9H162.8H162.7H162.6H162.5H162.4V119.2H162.3H162.2V119.1L162.1 119V118.9H162L161.9 118.8V118.7V118.6H161.8L161.7 118.5V118.4H161.6L161.5 118.3H161.4V118.2H161.3V118.1H161.2L161.1 118H161H160.9H160.8H160.7H160.6H160.5H160.4H160.3H160.2V118.1V118.2L160.3 118.3L160.4 118.4V118.5L160.5 118.6H160.6V118.7H160.7H160.8L160.9 118.8L161 118.9L161.1 119L161.2 119.1V119.2H161.3V119.3L161.4 119.4L161.5 119.5H161.6V119.6H161.7H161.8H161.9V119.7L162 119.8L162.2 119.9L162.4 120.1V120.2L162.5 120.3L162.7 120.6H162.8V120.7L162.9 120.9L163 121.1V121.2L163.1 121.3V121.4V121.5L163.2 121.7L163.3 121.8L163.4 122V122.1V122.2H163.5V122.3L163.6 122.4V122.5V122.6L163.7 122.7V122.9V123L163.8 123.1V123.2V123.5L163.9 123.7V123.8V123.9V124L164 124.1V124.2L164.1 124.3V124.5L164.2 124.7L164.3 124.8L164.4 124.9L164.5 125L164.6 125.1H164.7V125.2H164.8V125.3H164.9V125.4L165 125.5H165.1H165.2V125.6H165.3L166.3 126V126.9L166.1 130.9H166.4L167.1 131H167.2H167.3H167.4H167.5H167.6L167.8 131.1L168.1 131.3H168.3L168.4 131.4H168.5L168.6 131.5V131.6L168.7 131.7H168.8L169 131.6L169.1 131.4H169.2H169.3V131.3L169.4 131.2H169.5V131.1V131H169.6V130.9V130.8V130.7L169.7 130.3V130.1V129.9L169.8 129.7V129.5L169.9 129.3L170 129.2L170.1 129.1L170.3 129H170.4L170.5 128.9H170.7H170.8L170.9 129H171L171.2 129.1L171.3 129.3L171.5 129.5L171.7 129.7L171.9 130.2L172.1 130.6L172.2 130.7V130.8L172.3 131H172.5H172.8L172.7 130.8L172.4 130.1L172.1 129.4L172 128.9H171.9L171.8 128.5L171.5 127.8L171.3 127.1L171 126.4L170.9 126.2L170.7 125.6L170.5 124.9L170.2 123.9L170.1 123.7L169.9 123.2L169.8 122.9L169.7 122.5L169.5 121.8V121.7L169.4 121.3L169.3 120.7L169.1 120L169 119.7L168.9 119L168.8 118.8V118.7V118.5V118.4L168.7 118.3V118.2V118V117.9L168.6 117.8V117.7V117.6V117.5V117.4V117.3L168.5 117.2V117.1V117V116.9V116.8V116.7V116.6H168.4V116.5V116.4V116.3V116.2V116.1V116V115.9V115.8H168.3V115.7V115.6V115.5V115.4V115.3V115.2V115.1V115V114.9L168.2 114.8V114.7V114.6V114.5V114.4V114L168.1 113.8V113.7V113.6V113.5V113.4V113.3V113.2V113.1V113V112.9H168V112.8V112.4V112.3V112.2L167.9 111.9V111.8V111.6L167.8 111V110.6L167.7 109.9L167.6 109.7L167.5 109.3V109L167.4 108.8V108.7V108.6L167.3 108.5L167.2 108.2V108.1H167.1V108H167M164.3 118.7H164.2M164.3 118.7V118.3L164.2 118.4H164.1V118.3V118.2V118.1V118L164 117.9V117.8L163.9 117.7V117.6V117.5H163.8V117.4V117.3L163.7 117.2V117.1V117L163.6 116.9V116.8V116.7L163.5 116.6H163.4V116.5L163.3 116.4V116.3H163.2L163.1 116.2V116.1H163V116L162.9 115.9L162.8 115.8L162.7 115.7L162.6 115.6H162.5V115.5H162.4L162.3 115.4H162.2L162.1 115.3H162H161.9L161.8 115.4H161.7L161.6 115.3L161.5 115.2V115.1V114.9V114.8H161.6V114.7H161.7V114.6H161.8V114.5L161.9 114.4V114.3H162V114.2V114.1V114V113.9V113.8V113.7V113.6V113.5V113.4H161.9V113.3V113.2L161.8 113.1V113H161.7L161.6 112.9V112.8L161.5 112.7H161.4V112.6L161.3 112.5H161.2H161.1L161 112.4H160.8H160.7H160.5H160.4H160.3H160.2V112.3M160.2 112.3H160.1M160.2 112.3V112.2V112.1V112L160.1 111.9V111.8V111.7L160 111.6L159.9 111.5M160.1 112.3H160M160.1 112.3V112.2H160M160 112.3H159.9M160 112.3V112.2M159.9 112.3H159.8H159.7V112.2V112.1M159.9 112.3L159.8 112.2V112.1V112V111.9V111.8M159.9 112.3V112.2H160M159.7 112.1H159.6V112H159.7M159.7 112.1V112M159.7 112V111.9L159.8 111.8M159.8 111.8V111.7M160 112.2V112.1M159.9 111.5H159.8M159.9 111.5H160H160.1H160.2V111.4H160.3L160.4 111.5H160.6H160.7L160.8 111.6H160.9H161L161.1 111.7H161.2H161.3L161.4 111.8H161.5H161.6H161.7L161.8 111.9H161.9H162H162.1H162.2H162.3H162.5H162.6L162.7 111.8H162.9H163V111.7H163.1H163.2L163.3 111.6H163.4V111.5H163.5L163.6 111.4H163.8L163.9 111.3L164 111.2V111.1H164.1H164.2V111.2V111.3V111.4H164.3V111.5V111.6V111.7V111.8V111.9M164.3 111.9V112M164.3 111.9H164.2H164.1V112V112.1V112.2L164.2 112.3V112.4H164.3L164.4 112.3M164.3 112H164.2M164.3 112V112.1M164.4 112.3V112.2M164.4 112.3L164.5 112.4V112.5L164.6 112.7L164.7 112.8L164.8 113V113.1H164.9V113.2L165 113.3V113.4H165.1V113.5H165.2V113.6H165.3H165.4H165.5H165.6H165.7L165.8 113.5H165.9L166 113.4L166.1 113.3L166.2 113.2V113.1H166.3V113V112.9H166.4V112.8V112.7V112.6L166.5 112.5V112.4V112.3V112.2V112.1L166.6 112V111.9V111.8V111.7V111.6V111.5V111.4H166.5V111.3V111.1V111H166.4V110.9V110.8M164.4 112.2H164.3V112.1M164.4 112.2V112.1H164.3M166.4 110.8H166.5M166.4 110.8V110.7V110.6V110.5V110.4L166.3 110.3V110.1V110H166.4V109.9M166.4 109.9V109.8H166.5H166.6V109.7V109.6V109.5H166.5H166.4V109.6H166.3M166.4 109.9H166.3V109.8M166.3 109.6V109.5H166.2V109.6M166.3 109.6H166.2M166.3 109.6V109.7V109.8M166.2 109.6V109.7V109.8H166.3M166.2 109.6L166.1 109.5V109.4V109.3L166 109.2L165.8 109.5V109.6V109.7V110.2L163.7 110.3H163.4L163.2 109.9L163 109.3L162.3 107.6L162.2 107.1L162.1 106.9L161.7 106.4L161.5 105.9L161 105.5H160.9H160.8H160.7H160.6L160.5 105.4H160.4H160.3H160.2V105.5H160.1H160H159.9H159.8H159.7H159.6L159.5 105.6H159.4H159.3H159.2V105.7H159.1H159V105.8H158.9H158.8H158.7V105.9H158.6H158.5H158.4V106H158.3H158.2H158.1H158V106.1H157.9H157.8L157.7 106.2H157.6H157.5V106.3L157.4 106.4L157.3 106.5V106.7V106.9L157.2 107V107.2V107.5V107.7V108L157.3 108.3L157.4 108.9L157.5 109.3L157.6 109.8L157.7 110.1L157.8 110.6L158 111V111.2L158.1 111.4V111.5H158.2V111.6L158.3 111.7V111.8V111.9L158.2 112.2V112.3V112.4H158.1V112.5L158 112.8L157.9 113L157.8 113.1V113.2L157.7 113.3V113.4L157.5 113.5L157.4 113.6V113.7L157.3 113.9L157.2 114L157.1 114.2V114.4L157 114.5V114.7V114.8L156.9 115L156.8 115.6V115.8L156.6 116.1L156.5 116.5L156.4 116.7L156.3 116.9L156 117.2L155.9 117.3L155.7 117.6V117.7L155.5 118L155.3 118.2L155.2 118.4L155 118.5V118.6H154.9L154.5 118.9L154.4 119L154.3 119.1H154.2V119.2H154.1V119.3H154H153.9V119.4H153.8V119.5H153.7V119.6V119.7V119.8H153.6V119.9H153.5V120H153.4V120.1L153.3 120.2H153.2V120.1V120V119.9V119.8L153.1 119.7V119.6L153 119.4H152.9V119.3H152.8L152.7 119.2L152.6 119.1V119H152.5H152.4H152.3H152.2H152.1H152V119.1H151.9L151.8 119.2L151.7 119.3V119.4H151.6V119.5H151.5V119.6L151.4 119.7L151.3 119.8H151.2V119.9H151.1H151H150.9V120H150.8V120.1L150.7 120.2V120.3V120.4V120.5V120.6V120.7M150.7 120.7H150.8M150.7 120.7V120.8V120.9L150.8 121V121.1H150.7V121.2V121.3H150.6V121.4V121.5H150.5V121.6L150.4 121.7H150.3V121.8V121.9H150.2V122V122.1V122.2H150.1V122.3H150V122.2H149.9V122.1V122V121.9V121.8L150 121.7V121.6L149.9 121.5V121.4V121.3V121.2V121.1V121L149.8 120.9V120.8V120.7L149.7 120.6V120.5V120.3L149.6 120.2V120.1V120V119.9V119.8V119.7V119.6L149.7 119.5L149.8 119.3L149.9 119.2V119.1L150 119V118.9V118.8V118.7V118.6L149.9 118.5L149.8 118.4L149.7 118.3L149.5 118.2V118.1H149.4L149.2 118L149.1 117.9H149H148.9H148.8H148.7V118H148.6H148.5H148.4H148.3H148.2H148.1M148.1 118H148M148.1 118V118.1H148.2V118.2V118.3V118.4L148.3 118.5H148.4H148.5V118.6H148.4V118.7V118.8V119V119.1V119.3L148.5 119.5V119.8L148.6 120V120.2V120.3V120.4V120.6V120.7V120.8V120.9H148.7V121V121.1M148.7 121.1H148.8V121.2L148.7 121.1ZM148.7 121.1L148.6 121L148.5 120.9L148.4 120.8V120.7V120.6V120.5V120.4L148.3 120.3V120.2L148.2 120.1V120L148.1 119.9L148 119.7L147.9 119.6L147.8 119.4L147.7 119.3V119.2L147.6 119.1V119V118.9V118.8L147.5 118.7V118.6H147.4V118.5V118.4H147.3V118.3H147.2V118.2V118.1V118H147.1V117.9V117.8L147 117.7V117.6H146.9V117.5V117.4V117.3L147 117.2V117L147.1 116.8V116.7V116.6V116.5L147.2 116.3L147.3 116.1L147.4 115.9L147.5 115.8L147.6 115.7L147.5 115.5L147.4 115.3L147.3 115.2L147.1 115L146.9 114.9L146.8 114.8L146.6 114.6H146.5L146.4 114.5H146.3V114.3L146.2 114.2V114V113.9V113.7V113.4V113.2L146.1 113V112.8L146 112.6L145.9 112.5L145.8 112.3V112.1H145.7L145.8 112V111.9L145.9 111.8L146 111.7L146.3 111.6L146.6 111.3L146.8 111.2L146.9 111.1H147L147.1 111V110.9L147.2 110.8L147.3 110.7V110.6L147.4 110.4V110.3L147.5 110.2L147.6 110.1L147.7 110H147.8H147.9H148H148.1H148.2V109.9H148.3H148.4H148.6H148.7H148.8H148.9H149H149.2H149.3H149.4H149.5V109.8H149.6V109.7H149.7H149.8H150V109.8H150.1V109.9H150.2V110V110.1L150.3 110.3V110.4H150.4V110.5V110.6L150.5 110.7V110.9V111V111.1V111.2V111.4V111.5V111.6V111.7V111.8L150.4 111.9L150.5 112H150.4L150.5 112.1V112.2V112.3V112.4V112.5H150.6M150.6 112.5V112.6H150.7H150.8L150.7 112.5H150.6ZM150.6 112.5V112.4L150.7 112.3L150.8 112.2H150.9V112.1V112V111.9H150.8L150.9 111.8L151 111.7H151.1V111.6V111.5H151.2V111.4V111.3V111.2V111.1V111V110.9V110.8V110.7V110.6V110.5L151.3 110.4V110.3H151.4V110.2H151.5L151.6 110.1H151.7V110H151.8H151.9V109.9H152H152.1L152.2 109.8H152.3V109.7H152.4H152.5V109.6H152.6H152.7L152.8 109.5L153 109.4H153.1H153.2H153.3H153.4L153.5 109.5V109.6V109.7V109.8H153.6V110V110.1V110.2L153.7 110.4L154 110.7L154.2 110.8V110.9L154.3 111V111.1H154.4V111.2V111.3V111.4V111.5V111.6H154.3H154.2H154.1L154 111.5H153.9H153.8L153.7 111.6V111.7V111.8V111.9V112V112.1L153.8 112.2V112.3H153.7V112.4H153.8L153.9 112.5L154 112.6H154.1H154.3L154.4 112.7H154.5L154.6 112.6H154.7V112.5H154.6V112.4V112.3V112.2V112.1H154.7V112H154.8L154.9 111.9L155 111.8V111.7L155.1 111.6V111.5L155.2 111.4L155.3 111.2L155.4 111.1L155.5 110.9V110.8L155.6 110.6V110.5V110.3L155.7 110.2V110.1L155.6 110V109.9V109.8V109.7L155.5 109.6V109.5V109.4V109.3V109.2V109V108.9V108.7L155.6 108.6V108.5V108.4L155.7 108.2V108.1V108V107.9V107.8V107.7V107.5V107.3V107.1V107L155.8 106.9V106.8V106.7V106.6V106.5H155.7V106.4V106.3L155.6 106.2L155.5 106.1L155.4 106L155.3 105.9H155.2H155.1H155H154.9V106H154.8V106.1H154.9V106.2M154.9 106.2H155H155.1V106.3H155L154.9 106.2ZM154.9 106.2H154.8H154.7H154.6H154.5V106.1H154.4V106V105.9H154.3V105.8V105.7V105.6L154.2 105.5V105.4L154.1 105.2L154 105.1L153.9 104.9H153.8V104.8H153.7L153.6 104.7L153.5 104.6H153.4L153.3 104.5H153.2H153.1H153H152.9L152.8 104.6H152.7L152.6 104.7L152.5 104.8V104.9L152.4 105V105.1L152.3 105.2V105.4V105.5V105.7L152.2 105.9V106L152.3 106.1V106.3L152.4 106.4V106.5V106.6H152.5V106.7V106.8L152.6 106.9V107V107.1V107.3V107.4V107.5L152.7 107.6V107.8H152.8V107.9V108H152.9V108.1H152.8H152.7H152.6H152.5H152.4H152.3L152.2 108.2H152.1H152H151.9V108.3H151.8H151.7H151.6V108.4H151.5V108.5V108.6H151.6V108.7V108.8V108.9M151.6 108.9H151.7H151.8M151.6 108.9V109H151.5H151.4V109.1H151.3L151 109L150.6 108.9L150.4 108.8H150.3H150.2H150.1H150L149.9 108.7H149.8L149.7 108.6L149.6 108.5L149.4 108.4L149.3 108.3V108.2L149.1 108.1V108L149 107.8L148.9 107.7H148.8V107.6H148.7H148.6H148.5H148.4L148.3 107.7H148.2H148.1V107.6H148V107.5H147.9V107.4V107.3V107.2L147.8 107V106.9V106.8L147.7 106.7L147.6 106.6H147.5H147.4H147.3H147.2H147.1H147H146.9H146.8V106.5V106.4H146.7V106.3L146.6 106.2L146.4 106L146.3 105.8L146.1 105.6L146 105.4L145.8 105.2L145.7 105.1L145.6 105H145.5V104.9L145.4 104.8L145.3 104.6L145.2 104.5L145 104.4H144.8H144.7H144.6H144.5H144.4L144.3 104.5L144.2 104.6L144.1 104.7L144 104.9L143.9 105V105.1H143.8V105.2H143.7H143.6H143.5V105.1V105V104.9L143.4 104.8L143.3 104.7L143.2 104.6L143.1 104.5V104.4L143 104.3L142.9 104.2L142.8 104.1V104V103.9L142.7 103.7V103.6L142.6 103.5V103.4V103.3V103.2V103.1H142.5V103V102.9H142.4V102.8H142.3L142.2 102.7M142.2 102.7V102.6M142.2 102.7H142.1H142V102.8H141.9H141.8V102.9H141.7H141.6V103H141.5L141.4 103.2V103.3L141.3 103.4V103.5L141.2 103.7V103.8V103.9V104V104.1V104.2V104.3L141.1 104.5V104.6V104.7H141.2L141.1 104.8V104.9L141 105H141.1V105.1H141.2M141.2 105.1V105.2M141.2 105.1L141.3 105.2M141.3 105.2V105.1M141.3 105.2V105.3L141.4 105.4V105.5H141.5V105.6V105.7V105.8V105.9L141.6 106V106.1V106.3L141.7 106.4V106.5V106.6L141.8 106.7H141.9H142H142.1H142.2V106.6M142.2 106.6H142.1M142.2 106.6V106.5M142.2 106.6H142.3V106.5V106.4V106.3H142.4V106.2H142.5V106.1V106H142.6V106.1V106.2H142.7V106.3H142.8V106.4H142.9H143L143.1 106.5V106.6V106.7V106.8V106.9V107V107.1L143 107.2V107.3L142.9 107.4V107.5H142.8V107.6H142.7V107.7L142.6 107.8V107.9H142.5V108V108.1H142.4V108.2H142.3V108.3L142.2 108.4V108.5H142.1V108.6V108.7V108.8V108.9V109H142V109.1V109.2V109.3L141.9 109.5V109.6V109.7V109.9V110V110.1V110.3V110.5V110.6V110.7V110.9V111V111.1H141.8V111.2H141.7V111.3V111.4V111.5V111.6H141.6V111.7H141.5V111.8H141.4L141.3 111.9L141.2 112L141.1 112.1L141 112.2V112.1H140.9V112V111.9V111.8L141 111.7V111.6L140.9 111.4V111.3V111.2V111.1L140.8 111V110.9L140.9 110.8V110.7L141 110.5L141.1 110.3V110.2V110.1V110V109.9V109.8L141 109.7V109.6H140.9V109.5L140.8 109.4V109.3V109.2V109.1V108.9V108.8V108.7H139.9L139.7 108.8L139.6 109V109.1V109.2L139.7 109.3V109.4V109.5V109.6H139.6H139.5V109.7H139.4L139.3 109.8L139.2 109.9V110V110.1H139.3V110.2V110.3H139.4V110.4V110.5V110.6V110.7V110.8V110.9V111V111.1V111.2H139.5V111.3V111.4V111.5H139.6H139.7V111.6V111.7V111.8H139.8V111.9V112V112.1V112.2V112.3V112.4H139.7H139.6V112.5H139.5H139.4H139.3V112.6M139.3 112.6H139.2M139.3 112.6V112.7H139.2V112.8V112.9V113V113.1M139.2 113.1H139.3M139.2 113.1H139.1H139H138.9H138.8H138.7H138.6V113.2H138.5H138.4H138.3V113.3L138.2 113.4V113.5V113.6H138.3V113.7V113.8L138.4 113.9V114L138.5 114.1H138.4H138.3H138.2H138.1H138H137.7H137.6H137.5H137.4H137.3H137.2V114L137.1 113.9V113.8V113.7V113.6L137.2 113.5L137.3 113.4L137.4 113.3L137.5 113.2L137.6 113.1L137.7 112.9V112.8V112.5V112.3V112.2L137.6 112.1L137.5 112L137.2 111.7L136.9 111.5L136.8 111.4H136.7H136.6V111.3V111.2H136.5V111.1H136.4V111.2H136.3V111.3V111.4V111.5L136.2 111.7V111.9V112V112.1L136.3 112.4V112.5V112.6V112.7V112.8V112.9V113L136.4 113.1L136.3 113.2L136.2 113.3L136.1 113.4V113.5H136H135.9L135.7 113.4H135.5L135.2 113.3L135 113.2H134.9L134.8 113.1L134.7 113H134.6L134.5 112.8L134.4 112.7V112.6L134.3 112.5V112.4L134.2 112.1L134.1 111.9L134 111.6L133.9 111.4L133.8 111.1L133.5 110.8L133.3 110.6L133.2 110.5L133 110.3L132.9 110.2L132.8 110.1L132.6 109.9H132.5L132.3 109.8H132.2H131.9L131.7 109.7L131.6 109.6H131.5H131.4V109.5V109.4H131.3L131.2 109.3L131.1 109.6L131 109.7L130.9 109.8H130.8L130.5 109.7H130.3L130.2 109.6H130.1L130 109.5L129.9 109.4L129.8 109.3H129.7H129.5H129.3H129.1H128.9L128.7 109.4H128.6L128.5 109.5L128.4 109.6L128.2 109.7L128.1 109.8L128 109.9V110V110.1L127.6 109.6V109.4L127.4 109.1V109L127.3 108.8L127.2 108.6L127 108.4L126.8 108.1L126.6 107.9L126.5 107.6L126.4 107.3L126.3 107L126.2 106.9L126.1 106.8V106.7L126 106.4L125.9 106L125.6 105.5L125.3 105L125 104.5L124.8 104.1L124.7 104L124.6 103.8L124.5 103.7V103.6L124.4 103.5L124.3 103.3L124.1 103.2L124 103.1L123.8 103H123.7V102.9H123.6V102.8L123.5 102.7H123.3L123.2 102.6H123.1H123L122.9 102.5H122.8L122.7 102.4H122.6H122.5H122.4H122.3L122.2 102.3V102.4H122.1H122V102.3H121.9H121.8H121.7L121.6 102.4H121.5H121.4V102.5H121.3H121.2H121.1H121V102.6H120.9V102.7H120.8H120.7V102.8H120.6H120.5V102.7H120.4M120.4 102.7H120.3M120.4 102.7L120.5 102.6L120.6 102.5V102.4V102.3L120.5 102.2H120.4L120.3 102.1L120.2 102H120.1V101.9H120H119.8L119.5 101.8V101.9H119.4V102V102.1L119.3 102.2V102.3L119.2 102.4H119.1H119H118.8H118.7V102.5H118.6H118.5V102.4H118.4H118.3V102.5H118.2V102.4H118.1H118H117.9H117.8V102.5V102.6H117.7H117.6V102.5H117.5H117.4V102.4H117.3L117.2 102.3V102.2H117.1V102.1H117H116.9L116.8 102.2V102.1L116.7 102L116.6 101.9L116.5 101.8V101.7H116.4H116.3L116.2 101.6L116.1 101.5H116L115.9 101.4L115.8 101.3H115.7V101.2L115.6 101.1L115.4 101V100.9H115.3V100.8L115.2 100.7L115.1 100.6H115L114.9 100.5V100.4H114.8H114.7L114.6 100.3H114.5H114.4V100.4H114.3V100.5L114.2 100.6V100.7V100.8V100.9V101V101.1L114.1 101.2H114H113.9V101.3H113.8H113.7L113.6 101.4H113.5H113.4H113.3V101.3H113.2H113.1H113H112.9H112.8H112.7H112.6H112.5V101.2L112.4 101.3H112.3V101.2H112.2V101.1H112.1L112 101.2H111.9V101.3L111.8 101.4V101.6L111.7 101.8V101.9V102V102.1H111.8V102.2H111.9L112 102.3L112.1 102.4V102.5V102.6V102.7V102.8V102.9V103L112 103.1V103.2L112.1 103.4V103.5V103.6L112.2 103.7H112.3V103.8H112.4V103.7H112.5H112.6V103.6V103.5V103.4V103.3H112.5L112.4 103.2V103.1V103H112.5V102.9L112.6 103L112.7 103.2V103.3L112.8 103.5L112.9 103.6V103.7L112.8 103.8V103.9V104L112.7 104.1V104.2H112.6H112.5H112.4V104.3H112.3H112.2H112.1H112H111.9L111.8 104.4V104.5L111.6 104.6L111.5 104.5L110.8 104.1L110.2 103.9L109.9 103.7L109.5 103.3L109 102.7L108.6 102.6L108.4 102.4L108.2 102.3L108 102.1H107.9L107.3 102.2L107.1 102.3H106.8H106.7L106.4 102.4L106.6 103L107 105.8L107.2 106.7L107.4 107.7L107.5 108.6L106.9 108.9H106.8L106.5 109V109.1H106.4L106.3 108.7V108.5H106.2L106.1 108.4V108.3L106 108.2L105.9 108L105.8 107.9L105.7 107.8L105.6 107.6L105.5 107.5L105.4 107.4L105.3 107.3H105.2H105.1L105 107.2V107.3H104.9H104.8M104.8 107.3V107.4M104.8 107.3H104.7H104.6V107.4H104.5V107.5H104.4V107.6H104.3V107.7H104.2V107.8V107.9L104.1 108V108.1L104 108.2V108.3V108.4H103.9V108.5V108.6V108.7V108.8M103.9 108.8H104V108.7H104.1V108.6M103.9 108.8L103.8 108.9H103.7H103.6H103.5H103.4H103.3L103.2 108.8H103.1L103 108.9H102.9V109V109.1H102.8V109.2V109.3H102.7V109.4V109.5V109.6V109.7V109.8H102.8H102.9M104.1 108.6V108.5H104.2L104.3 108.4H104.4M104.1 108.6H104.2L104.3 108.5H104.4V108.4M104.4 108.4V108.3H104.5V108.4H104.4ZM102.9 109.8V109.7H103M102.9 109.8V109.9L102.8 110L102.7 110.1L102.6 110.2H102.5V110.3H102.4H102.3H102.2H102.1H102H101.9V110.4H101.8H101.7V110.3V110.2H101.6V110.1H101.5V110H101.4V109.9H101.3H101.2V110V110.1H101.1V110.2V110.3V110.4V110.5V110.6L101.2 110.7V110.9V111V111.1L101.3 111.2V111.3V111.4L101.4 111.5V111.6L101.5 111.7H101.6V111.8H101.7V111.9H101.8L101.9 112H102L102.1 112.1V112.2H102.2L102.3 112.3H102.4V112.4H102.5H102.6V112.5H102.7H102.8H102.9H103L103.1 112.6V112.7L103.2 112.8L103.3 112.9H103.4V113L103.5 113.1L103.6 113.2L103.7 113.3H103.8H103.9H104H104.1V113.4H104H103.9H103.8V113.5H103.7H103.6H103.5H103.4H103.3H103.2L103.1 113.4H103H102.9L102.6 113.2L102.2 113.1L101.8 112.9H101.7H101.6H101.5H101.4H101.3H101.1L101 113H100.9H100.8V113.1H100.7V113.2H100.6L100.5 113.3L100.4 113.4V113.5L100.3 113.6V113.7L100.2 113.8V113.9V114L100.1 114.1V114.3V114.4V114.5V114.6H100.2V114.7V114.8V115H100.3V115.1L100.4 115.2L100.5 115.3H100.6V115.4H100.7V115.5V115.6L100.8 115.7V115.9L100.9 116L101 116.2V116.3H101.1V116.4H101.2V116.5M103 109.7V109.6V109.5L103.1 109.4V109.5L103.2 109.6M103 109.7L103.1 109.6H103.2M103.2 109.6V109.5H103.3M101.2 116.5H101.1M101.2 116.5V116.6H101.3V116.5H101.4H101.5V116.6L101.4 116.7H101.3H101.2L101.1 116.8H101H100.9H100.8H100.7H100.6H100.5L100.4 116.7L100.3 116.6H100.2H100.1V116.5H100H99.9V116.4H99.8V116.3H99.7V116.2H99.6V116.1L99.5 116H99.4V115.9L99.3 115.8L99.2 115.7L99.1 115.5V115.4L99 115.3H98.9V115.2H98.8H98.7V115.3V115.4L98.6 115.3H98.5V115.4H98.4H98.3V115.5H98.2V115.6L98.1 115.7V115.8H98L97.9 115.9H97.8H97.7H97.6H97.5H97.4H97.3H97.2H97.1H97H96.9H96.8V116H96.7V116.1V116.2M96.7 116.2H96.6V116.3M96.7 116.2V116.3V116.4M96.7 116.4H96.8M96.7 116.4V116.5M96.7 116.4H96.6V116.5H96.7M96.8 116.4V116.3M96.8 116.4V116.5M96.8 116.5H96.7M96.8 116.5H96.9M96.9 116.5V116.6M96.9 116.5L97 116.6M96.9 116.5H97V116.4H97.1V116.5V116.6H97M96.9 116.6H97M96.9 116.6V116.7H96.8L96.7 116.6H96.6L96.5 116.5L96.4 116.4L96.3 116.3L96.2 116.1L96.1 116V115.9L96 115.8H95.9L95.8 115.6L95.7 115.5L95.6 115.3V115.2H95.5V115.1H95.4V115L95.3 114.9V114.8H95.2V114.7H95.1V114.6H95V114.5H94.9V114.4L94.8 114.3L94.7 114.2L94.6 114.1H94.5V114L94.4 113.9L94.3 113.8L94.2 113.7L94.1 113.6H94V113.5L93.9 113.4V113.3H93.8V113.2V113.1L93.9 113V112.9H94V112.8H94.1V112.7V112.6V112.5V112.4L94.2 112.3M94.2 112.3H94.3M94.2 112.3H94.1H94V112.2H93.9H93.8L93.7 112.3H93.6H93.5H93.4V112.2L93.3 112.1H93.2V112H93.1H93L92.9 111.9L92.8 111.8H92.7L92.6 111.6V111.5H92.5V111.4V111.3H92.4V111.2V111.1V111H92.3V110.9V110.8V110.7L92.2 110.6L92.1 110.5V110.4L92 110.5V110.6H91.9H91.8V110.7V110.8H91.7L91.6 110.9H91.5V111H91.4L91.3 111.1L91.2 111.2V111.3L91.1 111.4V111.5M91.1 111.5V111.7M91.1 111.5V111.6V111.7M91.1 111.5V111.2V111.1V110.9V110.7V110.6V110.4L91 110.3V110.2L90.9 110.1V110L90.8 109.9V109.8H90.7V109.7H90.6L90.5 109.6H90.4L90.3 109.5L90.1 109.4H90V109.3H89.9V109.2H89.8L89.7 109.1H89.6H89.5L89.4 109.2V109.1H89.3H89.2H89.1H89L88.9 109H88.8H88.7V108.9H88.6V108.8H88.5L88.4 108.7H88.3H88.2H88.1H88V108.8H87.9H87.8V108.9H87.7V109H87.6H87.5H87.4H87.3V109.1H87.2H87.1H87H86.9H86.8H86.7H86.6V109.2H86.5H86.4V109.3H86.3H86.2V109.4H86.1L86 109.5L85.9 109.6V109.7V109.8V109.9V110L85.8 110.2H85.9V110.3V110.4V110.6H86V110.7V110.8V110.9L86.1 111V111.1M91.1 111.7V111.8L91 112V112.1V112.2L90.9 112.3V112.4V112.5V112.6V112.7V112.8V112.9V113V113.1H91H91.1V113.2H91.2M91.1 111.7L91 111.8L90.9 111.9V112H90.8L90.7 112.1H90.6L90.5 112.2H90.4H90.3H90.2H90.1L90 112.1H89.9L89.8 112L89.7 111.9V111.8H89.6M91.2 113.2V113.3M91.2 113.2H91.3V113.3H91.2M91.2 113.3H91.1H91L90.9 113.4H90.8H90.7H90.6H90.5H90.4H90.3H90.2V113.5L90.1 113.4H90L89.9 113.3H89.8V113.2H89.7L89.6 113.1V113V112.9V112.7V112.6V112.5V112.4L89.5 112.2V112.1V112V111.9V111.8H89.6M89.6 111.8V111.7H89.7H89.8M86.1 111.1H86.2M86.1 111.1H86H85.9H85.8H85.7L85.6 111L85.5 110.9V110.8L85.4 110.7V110.6V110.5V110.4V110.3H85.5V110.2H85.6V110.1H85.7V110L85.8 109.9V109.8V109.7V109.6V109.5V109.4V109.3H85.7V109.2L85.8 109.1V109V108.9V108.8L85.9 108.7V108.6V108.5H86V108.4V108.3H86.1H86.2V108.2L86.3 108.1H86.4V108H86.5L86.6 107.9V107.8H86.7H86.8V107.7H86.9V107.6V107.5L86.8 107.4L86.7 107.2H86.6V107.1L86.5 107L86.4 106.9V106.8H86.3V106.7H86.2V106.6H86.1V106.5H86V106.4H85.9V106.3H85.8V106.2V106.1V106L85.9 105.9V105.8H86V105.7L86.1 105.6V105.5V105.4H86V105.3V105.2H85.9V105.1V105H86V104.9M86 104.9H85.9M86 104.9V104.8V104.7L86.1 104.6V104.5L86.2 104.4H86.3V104.3V104.2H86.4V104.1H86.5V104.2H86.6V104.1V104V103.9V103.8V103.7V103.6V103.5L86.7 103.4V103.3V103.2M86.7 103.2V103.1M86.7 103.2H86.6V103.3H86.5V103.4L86.4 103.5V103.6V103.7V103.8H86.3V103.9H86.2V104V104.1H86.1V104.2H86H85.9V104.3H85.8V104.4H85.9V104.5H85.8V104.6H85.9V104.7H85.8V104.8V104.9H85.7V105H85.6L85.5 105.1H85.4H85.3V105H85.2V104.9H85.1V104.8H85L84.9 104.7M84.9 104.7H84.8M84.9 104.7V104.8H84.8V104.9V105V105.1M84.8 105.1H84.7M84.8 105.1L84.7 105.2V105.3L84.8 105.4H84.9V105.5H85H85.1V105.6H85.2V105.7L85.3 105.8V105.9H85.2V106V106.1V106.2V106.3L85.1 106.4L85 106.5V106.6V106.7L84.9 106.8V106.9H84.8V107V107.1V107.2H84.7V107.3V107.4V107.5H84.6H84.5V107.6H84.4V107.7V107.8H84.3H84.2L84.1 107.9H84V108H83.9V108.1H83.8V108.2H83.7V108.3H83.8V108.4H83.7L83.6 108.5H83.5L83.4 108.6V108.7H83.3H83.2H83.1V108.8H83L82.9 108.9H82.8V109L82.7 109.1V109.2V109.3V109.4M82.7 109.4H82.8M82.7 109.4V109.5H82.6H82.5H82.4V109.6M82.4 109.6H82.3M82.4 109.6L82.3 109.7L82.2 109.8H82.1H82H81.9H81.8L81.7 109.7L81.6 109.6H81.5L81.3 109.5L81.1 109.4H81V109.3H80.8L80.7 109.2H80.6H80.5H80.4H80.3M80.3 109.2H80.2M80.3 109.2L80.2 109.3H80.1V109.2V109.1H80H79.9H79.8H79.7L79.6 109L79.5 108.9H79.4V108.8L79.3 108.7V108.6H79.2V108.5L79.1 108.4V108.3L79 108.2V108.1V108V107.9V107.8H78.9V107.7L78.8 107.6H78.7H78.6H78.5H78.3H78.2H78.1L78 107.5H77.9H77.8H77.7H77.6H77.5H77.4H77.3H77.2H77.1H77H76.9L76.8 107.6H76.7V107.7H76.6L76.5 107.8M76.5 107.8H76.4M76.5 107.8V107.9V108V108.1V108.2L76.6 108.3H76.7V108.4H76.8V108.5L76.9 108.6V108.7V108.8L76.8 108.9V109.1L76.7 109.2V109.3H76.6V109.4V109.5V109.6M76.6 109.6H76.7V109.7L76.6 109.6ZM76.6 109.6H76.5H76.4L76.3 109.7V109.8H76.2V109.9H76.1V110L76.2 110.2V110.3V110.4L76.3 110.5H76.4H76.5V110.4H76.6V110.3M76.6 110.3V110.2M76.6 110.3H76.7V110.4V110.5V110.6V110.7H76.8M76.8 110.7H76.9H77M76.8 110.7V110.6H76.9M76.8 110.7L76.7 110.8H76.6H76.5H76.4H76.3H76.2H76.1H76H75.8H75.7H75.5H75.4V110.9H75.3H75.2H75H74.9H74.7L74.6 110.8H74.5H74.3H74.2L74.1 110.7H73.8H73.7H73.6H73.5L73.4 110.8H73.3L73.2 110.9H73.1H73H72.9L72.7 111H72.6L72.5 111.1H72.4H72.3H72.2H72.1H72H71.9H71.8H71.7L71.5 111H71.4H71.3H71.2V111.1H71.1L71 111.2V111.1V111V110.9L70.9 111V111.1V111.2H70.8V111.1V111H70.7L70.6 110.9H70.5H70.3H70.2L70.1 110.8H69.9H69.8H69.7L69.6 110.7H69.5H69.4L69.3 110.6H69.2L69.1 110.5H69V110.4H68.9H68.8H68.7H68.6H68.5M76.9 110.6L77 110.7M76.9 110.6H77M77 110.7V110.6M77 110.7H77.1V110.6H77M68.5 110.4V110.3H68.4V110.4L68.5 110.5M68.5 110.4V110.5M68.5 110.5H68.4V110.6H68.3V110.5H68.2H68.1H68H67.9H67.8H67.7H67.6H67.5L67.4 110.6H67.3H67.2H67.1V110.7H67H66.9V110.8H66.8H66.7H66.6L66.5 110.7H66.4L66.3 110.6H66.2L66.1 110.5V110.4H66H65.9H65.8H65.7H65.6H65.5V110.3H65.4H65.3L65.2 110.4H65.1L65 110.5V110.6H64.9V110.5H64.8L64.7 110.4H64.6L64.5 110.3L64.4 110.2H64.3V110.1H64.2L64 110H63.9H63.8V109.9H63.7H63.6V110H63.5H63.4V110.1H63.3H63.2H63.1L63 110.2H62.9V110.3H62.8H62.7H62.6H62.5V110.4H62.4L62.3 110.5V110.6V110.7V110.8H62.2V110.9H62.1L62 111H61.9H61.8H61.7V110.9H61.6H61.5H61.4L61.3 111H61.1H61H60.9H60.8H60.7H60.6H60.5L60.4 111.1H60.3H60.2L60.1 111.2H60V111.3H59.9H59.8H59.7H59.6V111.4H59.4V111.5H59.3H59.2L59.1 111.6H59H58.9L58.8 111.5H58.7H58.6L58.5 111.4H58.4V111.3L58.3 111.2H58.2H58.1L58 111.1H57.9H57.8H57.7H57.6H57.5H57.4V111.2H57.3H57.2H57.1H57L56.8 111.3H56.7H56.6H56.5L56.4 111.4H56.3V111.5H56.2V111.6H56.1V111.7H56H55.9H55.8H55.7H55.5H55.4H55.3H55.2L55.1 111.8H55V111.9H54.9H54.8H54.7V112H54.6H54.5H54.4L54.3 112.1L54.2 112.2H54V112.3H53.9V112.4H53.8V112.5H53.7H53.6L53.5 112.6H53.4H53.3V112.7H53.2H53.1L53 112.8H52.9H52.8H52.7V112.9H52.6H52.5V113L52.4 113.1H52.3V113.2L52.2 113.3V113.4V113.5H52.1V113.6V113.7V113.8H52.2V113.9H52.3H52.4V114H52.2H52.1H52L51.8 113.9H51.7H51.6V113.8H51.5H51.3L50.7 113.6L50.1 113.5L50 113.4H49.9L49.4 113.3L48.5 113L47.5 112.7H47.4H47.3L46.9 112.6L46.6 112.5L45.1 112.1L44.3 111.8L43.8 111.7L43.5 111.6L42.7 111.3L42.1 111.1L41.6 110.9L41.1 110.7H40.9H40.8L40.7 110.6H40.4V110.5L40 110.4L39.6 110.3L39.1 110.1L38.7 110L38 109.7H37.9L37.6 109.6L36.7 109.3L35.9 109.1L34.9 108.7L34.2 108.5H34.1L34 108.4L32.8 108L31.8 107.7L30.8 107.4L28.9 106.9L28.2 106.7L27.3 106.4L26.1 106.2L23.8 105.8L21.2 105.3L19.5 104.9L18.1 104.7L16.7 104.4L16.1 104.2L14.5 103.8L13 103.5L11.8 103.2L10.3 102.8L8.29999 102.3L7.09998 101.9L5.59998 101.3L4.59998 100.7L4.29999 100.5L3.70001 100.1L2.90002 99.5L2.40002 98.9L1.90002 98.4L1.59998 97.9L1.29999 97.5L0.900024 96.8L0.799988 96.5L0.599976 95.8L0.400024 95.2V94.7L0.299988 94.1V93.4L0.5 92.8L0.599976 92.4L0.700012 92.2L0.900024 92L1.09998 91.9H1.20001H1.29999H1.40002L1.5 92V92.1V92.2V92.3V92.4V92.5V92.8L1.59998 93.1V93.5V94V94.3L1.5 94.7V94.8V94.9V95V95.3L1.40002 95.5V95.7V95.8V95.9L1.5 96.1V96.3V96.5V96.6L1.59998 96.7V97L1.70001 97.2V97.3L1.79999 97.5L2 97.9L2.20001 98.2L2.40002 98.6L2.70001 99L2.90002 99.2L3 99.4L3.29999 99.6L3.79999 100L4.40002 100.4L4.70001 100.6L5.20001 100.8L5.90002 101H6H6.40002H6.79999H7.09998L7.79999 100.8L8.20001 100.7L8.70001 100.4L9 100.2L9.20001 100L9.59998 99.8L9.90002 99.4L10.7 98.6L11.6 97.5L12.4 96.4L12.8 95.8L13.1 95.5L13.4 95.3L13.7 95.1L14 94.9L14.7 94.7L14.6 94.4L14.3 93.6V93.5L14.6 93.4L14.7 93.3L14.8 93.2L15 93L15.2 92.7V92.6L15.3 92.4L15.4 92.2V92.1V91.5L15.3 89.5V89.4L15.2 88.6V88.5L15.1 87.5L15.2 83.9L15.3 83.8L15.4 83.5L15.5 83.2V83.1L15.6 82.9L15.9 82.7V82.6H16.1V82.5L16.4 82.4H16.5H16.6H16.7L17 82.5H17.2L17.3 82.4L17.8 81.1V80.9L18 80.8L18.9 79.8L20 78.6L20.2 78.2L20.7 77.6L21.1 77.1V77L21.6 76.3V76.1L22 73.2V71.3L24 70.8L24.1 70.7H24.4L24.3 70.3L24.9 70.2L25.4 70.1L25.8 70.2H26.2L26.6 70.1L26.5 70L26 69.3H26.2H26.3L26.9 69.2L27.4 69.1L27.9 69H28.1L28.6 68.9V69L29.3 68.9V68.7L29.1 67.5V67.1L29 66.7L28.9 66L28.8 65.8V65.5L28 65.6L27.8 64.4L29.3 64.1L29.9 63.9L30.4 63.8H30.5V64V64.1H30.7V64.3L31.6 64.2L32.1 64.1L33.4 63.9L33.6 63.8L33.5 63L34.7 62.7L35.5 62.6L36 62.4L35.9 62.1V61.8L35.7 61L35.6 60.4L35.5 59.9H35.7L36.2 59.8L36.4 59.7H36.5H36.6L36.9 59.5L37 59.4L37.5 59.1L37.7 58.9V58.8L37.4 58.5L37.2 58.3V58.2L37.1 58.1L36.8 57.8L36.7 57.6L36.6 57.5V57.4V57.3V57.2V57.1H36.5V57L36.8 57.2L36.9 57.3L37.2 57.5L37.4 57.6L38.2 58.1L38.8 58.5L39.4 58.9L39.6 59.1L39.9 59.3L40.1 59.4H40.2L40.4 59.6L40.9 59.9L41.1 60L41.4 60.2V60.3H41.5H41.6L41.9 60.5H42L42.1 60.6L42.2 60.7L42.5 60.6H42.7L43.2 60.5L43.6 60.4H43.8L43.7 60.1V59.7L43.6 59.3L43.5 58.8L43.4 58.2V58.1L44.8 57.9L45.5 57.8L45.9 57.7H46.1H46.2L46.4 57.6H46.8L46.9 57.5L47.7 57.4L48.3 57.3V57.4L48.4 57.7L48.5 58.6L48.6 59.1L49.2 59H49.5H49.8L49.9 58.9H50.1H50.2L50.7 58.8L51.1 58.7H51.2H51.3H51.4L51.7 58.6H51.8L51.7 58.1L51.6 57.6L51.5 57.2V56.9V56.8H51.4L52.3 56.6L52.1 55.4V55.3L52 54.8V54.5L51.9 54.4V54.3L52.4 54.2L52.5 54.6L52.6 55.2L53.2 55.1L53.8 55V55.3V55.4V55.7H54.1V56L54.4 55.9L54.5 56.3L54.8 56.2L55.8 56L55.9 56.3H56H56.1L56.8 56.2L57.3 56.1H57.7L59.7 55.7V55.9L60 57.8L60.1 58.2L60.2 58.7V58.8H60.3H60.4H60.6L60.7 58.6H61L61.9 58.4L62.5 58.3H62.6V58.4V58.5L63.1 58.4L63.5 58.3V58.5H63.6V58.6L63.7 58.9H63.8V58.8H63.9H64V58.7V58.6H64.1L64.2 58.5H64.3L64.2 58.3L64.1 58.2V58.1L64.4 58L65.9 57.8H66.1L66 57.4L66.7 57.3L67.1 57.2L68.1 57L69 56.9L69.8 56.7H69.9L70 56.6L70.6 56.5L71.3 56.4L71.8 56.3L72.7 56.1H72.8L72.7 55.4V55.3L71.7 55.4L71.4 55.5L71.3 55L71.2 54.6V54.3V54.2L70.7 54.3H70.3L70 54.4L69.4 54.5L69 54.6H68.6L68.3 54.7H68.2H68.1V54.6H68V54.5H67.9H67.8H67.7L67.1 54.1L67.2 54L67.3 53.9V53.8H67.4V53.7V53.6V53.5V53.4V53.3H67.3L67.4 53.2L67.5 53H67.6L68.2 52.9L69.4 52.6L70.5 52.4L71.6 52.2H71.7V52L71.6 51.8L71.5 51.3V51L71.9 50.9L72.9 50.7L73.9 50.5H74.3H74.4L74.3 49.8L74.2 49.3L74 49.4L73.6 49.5L72.8 49.6V49.1L72.7 48.8L72.5 47.7L72.1 46.8V46.6V46.5L72.3 46.3L72.9 45.3L73.7 45.8L74.9 46.6L76.5 47.6L76.7 47.4L77.5 46.1L78 45.3L78.8 43.9L78.9 44L79 44.1L79.9 42.5L80.1 42.7L80.7 41.6L81.8 39.7L83 37.6L83.4 36.9H83.3V36.8L82.7 36.5L82.1 36.2L81.9 36.1L81.6 35.9L81.1 35.7L81 35.6L80.9 35.5L80.7 35.4L80.1 36.5L79.9 36.9L79.7 37.2L79.6 37.5L79.5 37.6H79.6L79.9 37.8L80.2 37.9L80.5 38.1L80.6 38.2L80.5 38.4L80.4 38.5L80.2 38.9L79.9 39.5L79.5 40.1L79.4 40.4L79.1 40.9L78 40.3L77.6 41L77.3 41.7L77 42.2L76.8 42.6L76.3 42.4L76 42.2V42.1L75.4 41.8L73.6 40.7L73.5 40.6L73.1 40.4L72.9 40.2L71.8 39.5H71.7L71.6 39.4V39.3H71.5H71.4H71.3V39.2H71.2L71.1 39.1V39H71V38.9L70.9 38.8V38.7V38.6H70.8V38.5V38.4L70.9 38.3V38.2V38.1H71V38L71.1 37.9V37.8V37.7L71 37.6V37.4V37.3L70.9 37.2V37.1V37L70.8 36.9L70.7 36.7L70.8 36.6V36.5H70.9V36.4V36.3V36.2H71V36.1L71.1 36L71.2 35.9H71.3V35.8V35.7H71.4V35.6V35.5H71.3V35.4V35.3V35.2L71.2 35.1V35L71.3 34.9V34.8L71.4 34.7H71.5V34.6H71.6H71.7H71.8V34.5H71.9H72V34.4L72.2 34.2L72.3 34L72.5 33.9L72.6 33.7L72.7 33.6L72.8 33.5V33.4L72.9 33.3V33.2L73 33.1L73.1 32.7L73.2 32.5L73.3 32.2V32L73.4 31.9V31.8V31.5L74.3 31.4H74.4H74.5V31.3H74.6H74.7V31.2H74.8H74.9L75 31.3H74.9V31.4H74.8V31.5H74.9H75V31.4H75.1H75.2H75.3H75.4V31.5H75.5H75.6V31.4H75.5V31.3H75.4V31.2V31.1V31H75.5H75.6H75.7H75.8V31.1L75.9 31.2L76 31.3V31.4L76.1 31.5V31.6V31.7V31.8H76V31.9V32H76.1V32.1L76.2 32.2H76.3L76.4 32.3H76.5L76.6 32.4H76.7V32.5H76.8L76.9 32.4H77H77.1H77.2H77.3V32.3V32.2L77.2 32.1V32V31.9V31.8V31.7V31.6H77.3L77.4 31.5H77.5H77.6H77.7V31.4H77.8H77.9H78H78.1V31.3H78.2V31.2H78.3V31.1H78.4V31H78.5V30.9H78.6V30.8H78.7V30.7H78.8V30.6V30.5H78.7V30.4L78.8 30.3V30.2V30.1H78.7V30V29.9V29.8V29.7H78.6V29.6H78.7V29.5V29.4V29.3V29.2H78.8L78.9 29.3V29.4H79H79.1H79.2V29.3H79.1V29.2H79V29.1V29H79.1H79.2V29.1H79.3V29.2H79.4H79.5H79.6L79.7 29.1V29H79.8H79.9H80H80.1H80.2H80.3H80.4L80.5 29.1V29.2H80.6L80.7 29.4V29.5H80.8V29.6H80.7V29.7V29.8V29.9L80.8 30L80.9 30.1H81V30.2L81.1 30.3H81.2V30.4H81.3V30.5H81.4V30.4H81.5H81.6V30.5H81.7H81.8H81.9H82H82.1V30.4L82.2 30.3H82.3H82.4V30.2L82.5 30.1H82.6V30V29.9H82.5H82.3L82.2 29.8L82.1 29.7L82 29.5V29.4H81.9V29.3V29.2L81.8 29.1V29V28.9V28.8V28.7V28.6V28.5V28.4H81.9H82V28.3H82.1H82.2H82.3L82.4 28.4H82.5L82.6 28.5H82.7H82.8H82.9V28.4L83 28.3V28.2H83.1V28.1H83.2H83.3H83.4H83.5V28H83.6V28.1M83.6 28.1H83.7M83.6 28.1V28.2H83.5V28.3M83.5 28.3H83.4M83.5 28.3V28.4H83.6H83.7V28.3L83.8 28.2H83.9H84H84.1H84.2V28.1V28H84.3V27.9H84.4V28H84.5H84.6V27.9H84.7L84.2 27.5L84 27.3L83.2 26.6L82.8 26.2L82.3 25.7L82.5 25.4L82.2 25.3L82.1 25.2L81.5 25V24.9L81.4 24.7L80.7 24.8V24.6L80.6 24.1L80.5 24L80.7 23.9L80.9 23.8V23.7L81 23.2V23.1H80.9L80.7 22.3L80.6 21.7L81.4 21.5L81.7 21.4L81.8 21.3H82L82.1 21.2V21.1V21V20.9H82.4L82.3 20.6H82.2V20.5V20.4V20.2V20.1H82.1V20V19.9V19.8L82 19.4L81.9 18.7L81.8 17.9L81.7 17.5L81.6 17L81.5 16.6L80.5 16.8L79.7 17H79.4L77.4 17.4V17.3L77.3 16.9V16.7L77.2 16.4L77.1 16H77.2L77.1 15.7V15.4L77 15.2V14.8L76.9 14.4V14.1L77.3 14L77.2 13.2L77.1 12.8L78.1 12.6V12.4V12.3L78 11.7L77.8 10.8L78.7 10.4L78.9 10.3L79 10.7V11.1V11.7V11.8V12.6V13V13.7V14.4V15L79.6 14.9L80.4 14.8L81.2 14.6L81.9 14.5L82.4 14.4L82.1 13L82 12.5V11.7L81.9 10.7L81.8 10.2H81.9L81.8 9.89999H82L81.9 9.5L81.8 8.89999L81.6 7.79999H81.7L82.1 7.60001L82.8 7.29999L82.7 6.5L82.6 6L82.5 5.39999V5.20001L81.2 5.79999L80.2 6.39999V6.29999V6.20001L80.1 5.5L80 4.89999L79.9 4.5V4.10001L80 3.89999V3.39999L80.1 2.60001V2.5L81.6 2.79999L83.7 3.29999H83.8H83.9L84 3.39999H84.1H84.2L84.3 3.29999H84.4V3.20001L84.5 3.10001L84.6 3H84.7V2.89999H84.8H84.9L85 3H85.1V3.10001H85.2H85.3V3.20001H85.4H85.5H85.6H85.7H85.8H85.9H86H86.1L86.2 3.10001H86.3L86.4 3H86.5H86.6L86.7 2.89999H86.8H86.9V2.79999L87 2.70001V2.60001H87.1H87.2V2.70001L87.3 2.79999V2.89999L87.4 3V3.10001V3.20001V3.29999V3.39999V3.5H87.3V3.60001V3.70001V3.79999L87.2 3.89999V4V4.10001H87.1V4.20001L87 4.29999V4.39999H86.9L86.8 4.5H86.7V4.60001H86.6L86.5 4.70001H86.4V4.79999V4.89999H86.5V5H86.6V5.10001V5.20001V5.29999V5.39999V5.5H86.5V5.60001L86.4 5.70001L86.3 5.79999V5.89999V6H86.4H86.5V6.10001H86.6H86.7H86.8H86.9H87V6.20001H87.1H87.2H87.3V6.10001H87.4H87.5H87.6H87.7H87.8V6H87.9V5.89999H88H88.1V5.79999H88.2L88.3 5.70001H88.4V5.60001L88.5 5.5V5.39999H88.6L88.7 5.29999L88.8 5.20001H88.9V5.10001H89H89.1V5H89.2L89.3 4.89999H89.4V5H89.5H89.6H89.7V5.10001H89.8H89.9V5.20001V5.29999V5.39999V5.5H90V5.60001V5.70001V5.79999V5.89999V6V6.10001H89.9V6.20001V6.29999V6.39999V6.5H89.8V6.60001H89.7V6.70001H89.6V6.79999H89.5V6.89999V7V7.10001V7.20001H89.6V7.29999V7.39999H89.7V7.5H89.8V7.60001H89.9V7.70001L90 7.79999H90.1V7.89999H90.2V8H90.3V8.10001H90.4V8.20001H90.5H90.6H90.7H90.8H90.9H91V8.29999H91.1V8.39999V8.5V8.60001H91.2V8.70001V8.79999L91.3 8.89999V9V9.10001V9.20001H91.2V9.29999H91.1L91 9.39999H90.9L91.1 9.60001H91.2V9.70001L91.6 9.5L91.9 9.39999H92L92.1 9.29999H92.2H92.3L92.7 9.10001L92.9 8.89999H93L92.7 8.60001L92.5 8.20001L92.2 7.79999L92 7.70001L91.9 7.10001L91.8 6.79999V6.70001L92 6.60001H92.3L92.5 6.5H92.6H92.9L93.5 6.29999H93.7L94.3 6.20001L94.9 6.10001L95.4 6L96 5.89999L96.4 5.79999L96.9 5.70001H97L97.9 5.5L98.2 5.39999L99 5.29999L99.6 5.20001L99.9 5.10001L99.7 3.79999L99.5 2.89999L99.4 2.20001V2.10001L99.3 1.89999L99.9 1.79999L100.3 1.70001L100.8 1.60001H101.2L101.5 1.5L102 1.39999L102.8 1.29999L103.6 1.10001L104.2 1L104.7 0.899994L104.8 1.79999H105.1L105.3 2.89999L105.9 2.79999L106.1 3.70001V3.79999V3.89999L105.1 4.10001V4.20001L105.3 5.10001L105 5.5L104.8 5.79999L104.7 5.89999V6V6.29999L104.8 6.70001L105.1 8.20001L105.9 8.10001V7.60001L106.5 7.5L107 7.39999H107.5L107.6 8.29999L107.8 9.29999L107.9 9.5V9.60001L109.1 9.39999L109.2 9.29999H109.5L110.3 9.20001L110.8 9.10001L111.4 9L112.7 8.79999H112.8H112.9L113.7 8.60001L114.5 8.5L115.7 8.29999L117.4 8L118.5 7.89999L119.3 7.79999L120.4 7.60001H120.5L121 7.5H121.3L121.5 7.39999H121.7H121.8H121.9L122 7.29999H122.1H122.2L122.3 7.20001H122.4H122.5H122.6H122.7H122.8V7.29999H122.9V7.39999V7.5V7.60001V7.70001L123 7.79999V7.89999V8L123.1 8.20001V8.29999L123.2 8.39999V8.5L123.3 9.5V9.79999L123.4 10.5V11V11.1V11.2V11.3V11.4L123.5 11.5L123.6 11.6H123.7H123.8H123.9L124.5 11.5L124.7 11.4H124.8L124.9 11.5H125H125.1L125.2 11.6V11.5H125.3H125.4H125.5V11.4H125.6H125.8L126 11.6H126.3L126.7 11.4L127 11.3L127.1 11.2L127.8 11.1L128.3 10.9L128.7 10.8L129.1 10.7H129.4L129.7 10.6L130.1 10.5H130.5L130.9 10.4L131.3 10.3H131.8L132.2 10.2H132.5L132.7 10.1H132.9L134.1 10.6L134.5 10.8H134.7V10.9H134.8L135 11L135.2 11.1L136.3 11.6L136.8 11.9L137.2 12.2L137.5 12.5L137.8 12.9L138.1 13.3L138.2 13.7L138.3 13.9L138.4 14.3V14.4V14.5V14.6L138.5 14.8L138.8 16.2L138.5 16.5L138.6 16.8L138.8 17.8L139 18.8V18.9L139.6 18.8L139.8 19.7L139.9 20.5L140.1 21.3V21.4L140 21.5L140.1 21.8V22.2L140.2 22.5L140.3 23.1L140.4 23.5V24L140.5 24.5L140.6 24.7V24.8V24.9V25V25.1V25.2L140.7 25.3V25.2H140.8V25.3H140.9V25.4H141L141.1 25.5L141.3 25.6V25.5L141.8 24.9L142.1 24.5L142.2 24.3L142.4 24.1L142.5 24H142.7L143 23.9H143.4L143.6 23.8H143.7H143.9L144.1 24.1L144.4 24.4L144.5 24.5H144.6H144.7H144.8H144.9L145.2 24.4L145.9 24.3H146.1L146 23.4L146.8 23.3H147L146.9 22.5L146.7 21.6L148 21.4L148.8 21.2L149.3 21.1L150.1 21H150.3H150.4L150.5 20.9H150.6H150.7L150.8 20.8H150.9V20.7L151 20.6V20.5H151.1V20.4H151.2V20.5V20.6H151.3H151.4H151.5H151.6H151.7H151.8L151.9 20.7V20.8H151.8L151.7 20.9H151.6V21V21.1H151.5V21.2M151.5 21.2H151.4M151.5 21.2V21.3L151.4 21.4H151.5H151.6L151.7 21.5H151.8V21.6V21.7V21.8L151.9 21.9H151.8L151.7 22H151.6H151.5H151.2L150.9 22.1H150.8L150.2 22.2H150L150.2 23.1L150.3 24.1L150.5 24.8L151 24.7L151.8 24.6L152 24.5V24.7L152.1 25.1V25.3L152.2 25.7H152.4V25.9L152.5 26.1V26.5L152.6 26.7V26.9L152.4 27H152.3L152.1 26.9V27H152H151.9H151.8L151.7 27.1H151.6H151.4H151.3L151.2 27.2H151.1H150.8L150.6 27.3L150.7 28.3L150.8 29.2V29.3L150.9 29.9L151 30.5L151.2 31.6L151.3 32.4V32.5L151.4 32.8V32.9V33.1L151.6 34.7L151.8 36.1L151.9 36.8L152 37V37.8H152.8H152.9L153.1 37.7H153.3H153.6H153.7H153.8V38H153.7V38.1L153.9 39.2L154.2 41.6V41.7L154.3 42.4L154.4 43V43.5L154.5 43.7L155.6 43.6H155.7V43.7L155.8 44.3L155.9 44.6L156 45.6L156.1 46.1V46.2L156.5 46.1H156.6L156.8 46H157.1V46.2L157.2 46.7L157.3 47.5H157.8H158.1L158.2 47.4L158.8 47.3L159.6 47.2L160.2 47.1L160.4 47.9L160.5 48.7V48.8H160.6L161.2 48.7L161.6 48.6L162.2 48.5H162.6L162.8 48.4H163L163.1 49.2L163.3 50.4L163.5 51.7V52.1L163.6 52.5L163.7 53.3V53.8L163.8 54.2V54.3V54.4H164.5L165.9 54.3L166.4 54.2V54.3L166.5 55.1L166.6 55.6L166.7 56.4V56.8L166.8 57.4V57.9H166.9L167.1 58.2H167L166.5 58.3L164.7 58.5L164.1 58.6V58.7V58.8V58.9V59V59.1L164.2 59.3V59.4V59.6L164.3 59.9V60V60.1L164.4 61L164.5 61.2L164.6 61.7H163.7V62.5V63.4H163.6H163.4L162.9 63.5V64.2H162.6L161.4 64.4H161L160 64.6L159.1 64.7V65L159.2 65.7H158.8L158.5 65.8L157.4 65.9L157.5 66.9V67L157.6 67.4L157.7 68.5V68.6H158H158.2L159.5 68.4H159.6L160.2 68.3L160.3 69V69.2V69.4H160.4L160.7 69.3H161.1V69.2L162.2 69.1L162.9 69H163L163.5 68.9V69.1V69.5L163.6 69.6V69.9V70.1L163.7 70.2V70.3V70.5V70.8L163.8 71.3V71.5V71.6L163.9 71.9V72.1V72.5L164 73L163.2 73.2L161.8 73.5L162.2 75.9L162.3 76.4L163 76.3L163.6 76.2L163.7 77.1L163.8 77.8H163.9L164 78.3V78.6V78.7L165.9 78.4H166L167.9 78.1L170 77.8L170.3 77.7H170.6H170.8V77.8L170.9 78.3L171 79.3V79.6H170.9H170.6L170.5 79.7L170.6 80.5V80.8L170.8 81.8V81.9L170.9 81.8L172 81.7L172.8 81.6L173.4 81.5H173.6V81.4L173.7 81.7V81.8V81.9V82V82.1H173.8H173.9L174.2 82.2V82.3H174.3L174.4 82.4L175 82.7L175.6 83L176.5 83.5H176.7V83.6L177.1 83.8H177.3L177.4 83.9H177.5L178.1 83.8H178.3L178.9 83.7H179V84.4L179.1 84.8V85V85.3L179.2 86V86.1V86.3L179.3 87.1L179.4 87.5V87.8H179.5V87.9L179.6 88.3V88.7V89.1L179.7 89.8V89.9L179.8 90.6V91L179.9 91.2L179.8 91.4H179.7L179.2 91.5L179.3 91.7L179.5 92.9V93.2V93.3V93.6L179.6 93.9V94.1V94.3V94.4L179.7 94.5V94.6L179.8 94.8L179.7 94.9V95V95.2H179.8V95.6L179.9 96V96.1V96.4V96.6L180 97L180.6 96.9H180.8H181.2H181.3H181.5L181.4 97L181.3 97.1V97.2H181.2V97.3L181.1 97.4L181 97.5L180.9 97.6L180.8 97.8L180.6 98L180.5 98.2L180.3 98.3L180.2 98.4L180.1 98.5L180 98.6L179.9 98.7L179.8 98.8H179.7L179.6 98.9L179.4 99L179.3 99.1L179.2 99.2L179.1 99.3H179L178.9 99.4H178.8L178.7 99.5H178.6L178.5 99.6H178.4L178.3 99.7H178.2L178.1 99.8H178L177.9 99.9H177.8H177.7L177.6 100H177.5H177.4H177.3L177.2 100.1H177L176.9 100.2H176.8H176.6H176.4L176.3 100.3H176.1H176H175.8H175.7L175.6 100.4H175.5H175.4L175.1 100.5H175H174.9L174.4 100.6H174.3H174.2H174.1L174 100.7H173.9H173.8H173.7L173.6 100.8H173.5H173.4H173.3H173.2V100.9H173.1H173H172.9L172.8 101H172.7H172.6L172.5 101.1H172.3H172.2H172.1L171.9 101.2H171.8H171.7H171.5H171.4H171.3V101.3H171.2H171.1H171V101.4H170.9V101.5H170.8V101.6V101.7H170.7L170.6 101.8H170.5L170.4 101.9L170.3 102L170.1 102.1L170 102.2H169.9L169.8 102.3L169.7 102.4V102.5H169.6H169.5V102.6H169.4V102.7H169.3V102.8H169.2L169.1 102.9H169V103H168.9V103.1L168.7 103.2H168.6L168.5 103.3L168.4 103.4L168.3 103.6L168.1 103.7V103.8H168V103.9H167.9V104H167.8L167.7 104.2V104.3L167.6 104.4V104.5V104.6L167.5 104.7V104.8L167.4 104.9V105V105.1V105.2V105.3L167.3 105.4V105.5V105.6V105.7V105.8V105.9V106.1V106.2V106.3V106.4L167.2 106.5V106.6L167.1 106.8V106.9H167L166.9 107V107.1H166.8H166.7V107.2V107.3V107.4L166.8 107.5V107.6L166.9 107.7V107.8V107.9L167 108M167 108V108.1M189.9 99.6V99.7H189.8V99.6H189.9Z" stroke="white" stroke-width="0.5" stroke-linecap="round" stroke-linejoin="round"/>
</g>
</svg>
