<svg width="91" height="168" viewBox="0 0 91 168" fill="none" xmlns="http://www.w3.org/2000/svg">
<g id="UA68">
<path d="M86 68.9H86.1V69H86.2L86.3 69.1H86.4H86.5H86.6L86.7 69.2H86.8H86.9H87V69.3H86.9L86.6 69.6L86.5 69.7L86.4 69.9H86.3V70L86.1 70.1L86 70.2V70.3L85.9 70.4H85.8L85.7 70.5L85.5 70.8V71L85.6 71.1V71.2L85.7 71.3V71.4H85.6L85.3 71.5H85.1H84.9H84.8L84.7 71.6H84.6L84.5 71.5H84.4V71.6H84.3H84.2H83.9L83.8 71.7H83.7H83.6H83.5L83.3 71.8H83.2L83.3 72.5V72.7V72.8V72.9H83.4V73.5V73.7V73.9V74.2L83.7 74.4L83.8 74.5L83.9 74.6L84.1 74.7H84.2L84.3 74.8L84.4 74.9L84.6 75L84.8 75.2L84.9 75.3L85.2 75.5L85.3 75.6L85.4 75.7H85.5V75.8H85.6L85.7 75.9H85.6V76H85.7V76.1V76.3V76.4V76.7V76.8V76.9V77.1V77.6V77.7V77.9V78.2L85.2 77.8L85.1 77.7L85 77.9V78L84.9 78.1V78.2V78.3H84.8V78.4V78.5V78.6H84.7V78.7V78.8V78.9V79L84.6 79.2L84.5 79.3L84.4 79.5L84.3 79.6H84.2H84.1H84H83.9H83.8L83.7 79.8V80V80.1V80.2L83.6 80.3H83.5V80.4L83.4 80.5H83.3L83.2 80.6L83.1 80.7V80.8V80.9V81H83V81.1V81.2V81.3V81.4V81.5H83.1H83.2H83.3V81.6H83.4V81.7H83.5H83.6V81.8H83.7L83.8 81.9L83.9 82V82.1H84L84.1 82.2L84.2 82.3H84.3V82.4H84.4H84.5V82.5L84.6 82.6V82.7L84.7 82.8V82.9L84.8 83V83.1L84.7 83.2L84.6 83.3H84.5V83.4V83.5H84.4V83.6V83.7V83.8V83.9H84.5V84H84.6H84.7V84.1V84.2L84.8 84.3V84.4V84.5V84.6V84.7V84.8H84.7H84.6L84.5 84.9L84.4 85V85.1H84.3L84.2 85.2V85.3H84.1V85.4L84 85.5H83.9H83.8V85.4H83.7H83.6L83.5 85.3V85.2V85.1H83.4V85L83.3 84.9V84.8H83.2H83.1V84.7H83V84.6H82.9H82.8L82.7 84.7H82.6V84.8H82.5H82.4H82.3V84.7H82.2V84.8L82.1 84.9V85V85.1V85.2V85.3V85.4V85.5H82V85.6V85.7L81.9 85.8V85.9V86V86.1V86.2H81.8V86.3V86.4H81.9V86.5V86.6V86.7V86.8V86.9V87V87.1H82V87.2V87.3L81.9 87.4H81.8V87.5H81.9V87.6H82V87.7H82.1H82.2H82.3H82.4H82.5H82.7H82.8H82.9H83H83.1H83.2H83.3L83.4 87.8L83.5 87.9H83.6H83.7L83.8 87.8H83.9H84.1H84.3L84.4 87.7H84.5V87.8H84.6V87.9L84.7 88V88.1H84.6H84.4H84.3V88.2L84.2 88.5L84.1 88.8L83.9 89.1L83.7 89H83.6L83.4 88.8H83.3L83.2 89V89.1V89.2V89.3L83.1 89.4V89.5L83 89.9V90H82.9L82.7 90.3L82.3 91L82.4 91.3L82.6 91.8L82.8 91.7H83L83.4 91.5L83.5 91.8L83.7 91.7L84.2 91.6L84.3 91.9L84.5 92L84.6 92.2L85 92.1L85.2 92L85.3 91.9H85.4V91.8H85.5V92L85.6 92.1L85.8 92.3V92.4H85.9V92.5H86V92.6L86.3 92.9L86.5 93.2L86.7 93H86.8V92.9H86.9L87.3 92.6L87.4 92.5H87.5V92.6H87.6V92.7L87.7 92.8L87.6 93.2V93.3L87.3 93.7L87.2 93.9L87 94.1L86.9 94.2H86.8V94.3V94.4H86.7V94.5V94.6V94.7V94.9L86.8 95.6H86.2V95.8H85.7V96.5H85.9L86 96.9L86.5 96.8L86.6 97.4H86.1H85.8H85.7V97.5V97.6V97.7L85.8 97.8V97.9V98V98.1V98.2L85.9 98.3L86 98.4H86.2L86.3 98.5L86.4 98.6L86.6 98.7H86.8H86.9H87V98.8L87.2 98.9V99H87.3L87.4 99.3L87.5 99.4L87.6 99.6V99.7H87.7V99.8V99.9H87.8V100V100.1H87.9V100.2L88 100.3V100.4L88.1 100.5H88L87.9 100.7L87.8 100.9L88 101V101.1V101.2V101.3H87.9V101.4L87.8 101.5V101.6L87.7 101.7V101.8V101.9H87.8V102L87.9 102.1L88 102.3L88.1 102.5L88.2 102.6V102.7V102.9L88.3 103V103.1V103.2L88.1 104V104.1L88.2 104.2V104.3H88.1H88V104.2L87.8 104.5V104.6L87.7 105.1L87.6 105.2V105.4L88 105.6V105.7V105.8V105.9V106.2H88.1L88.2 106.3L88.5 106.5L88.6 106.6L88.8 106.5V106.7V106.8V106.9L88.7 107.1H88.6H88.5L88.4 107.2H88.3H88.2H88.1V107.3H88V107.4L88.1 107.7L88.2 108V108.1V108.2L88.3 108.4L88.4 108.8V108.9L88.5 109H88.4V109.1L88.5 109.2V109.3H88.6H88.7H88.8H88.9H89H89.1L89.2 109.2L89.3 109.1L89.5 109.3L89.6 109.4V109.5H89.7V109.6H89.8L89.9 109.7V109.8V109.9V110.1V110.2L90 110.4V110.5V110.6V110.9V111.1L90.1 111.3V111.4L90 111.5H89.9H89.8H89.7L89.6 111.6H89.5V111.7H89.4V111.8L89.3 111.9V112V112.1H89.2H89.1L89 112.2H88.9H88.8H88.7H88.6L88.5 112.3V112.4H88.4H88.3V112.5H88.2H88.1V112.6H88H87.9H87.8L87.7 112.4V112.3V112.2H87.6V112.1H87.5V112H87.4H87.3L87.1 111.9H86.9H86.7H86.6H86.5V112H86.4L86.3 111.9V112H86.2V111.9V111.8V111.7L86.1 111.6V111.5V111.4V111.3H86V111.2H85.9H85.8V111.3H85.7V111.4H85.6H85.5H85.4H85.3V111.5V111.6H85.2V111.7V111.8V111.9V112H85.1V112.1L84.9 112.2L84.8 112.1L84.7 112L84.6 111.9L84.3 111.4L84.2 111.3V111.2V111.1H84.1H84H83.9V111.2V111.3L84 111.7L84.1 112V112.1L84.2 112.2L84.1 112.3V112.4V112.5H84V112.6L83.9 112.7L83.8 112.8L83.3 113.4V113.5L83.2 113.4L83.1 113.3H83L82.9 113.4V113.5H82.8L82.7 113.6L82.8 113.7V113.8H82.9H83V113.9V114L82.7 114.3L82.5 114.5H82.4V114.6L82.3 114.7H82.2V114.8H82.1L82.2 114.9V115V115.1L82.1 115.2V115.1V115H82V114.9H81.8L81.7 114.8H81.6H81.5H81.4L81.3 114.7H81.2V114.6H81.1V114.5H81L80.7 114.4L80.6 114.6L80.5 114.8V114.9H80.4L80.3 115L80 115.1H79.9L79.8 114.8V114.6H79.7V114.7H79.6L79.5 114.8L79.4 114.9L79.3 114.8V114.7H79.2V114.6L79.1 114.5L79 114.4L78.9 114.3L78.8 114.2L78.7 114.1H78.6V114H78.5L78.4 113.9H78.3V113.8H78.2V113.7H78.1H78V113.6H77.9L77.8 113.5V113.4H77.7L77.6 113.3V113.2L77.5 113.1L77.4 113H77.3H77.2L77.1 112.9H77L76.9 113L76.7 113.1H76.6L76.3 113.2H76.2H76.1L76 113.3H75.9H75.8H75.7H75.6H75.5H75.4H75.3H75.2H75.1V113.4H75V113.5V113.6H74.9L74.8 113.7V113.8H74.7V113.9V114H74.8V114.1V114.2V114.3V114.4V114.5V114.6V114.7H74.7V114.8V114.9H74.6L74.7 115V115.1H74.8V115.2H74.9V115.3V115.4L74.8 115.5L74.6 115.7L74.4 115.9L74.3 116L74 116.3L73.9 116.4H73.8H73.7H73.6H73.5V116.3H73.4L73.3 116.2L72.9 116L72.8 115.9H72.7L72.5 115.8L72.4 115.7L72.3 115.6V115.5H72.2V115.4H72.1V115.3L72 115.2L71.9 115.1L71.8 115H71.7V114.9H71.6L71.7 115V115.1V115.2L71.8 115.3V115.4V115.5V115.6V115.7V115.8H71.9V115.9V116.2L71.7 116.4H71.6H71.5H71.4V116.3H71.3H71.2V116.2V116.1H71.1L71 116H70.8H70.7V115.8L70.6 115.7H70.5H70.4V115.6L70.3 115.7V115.8V115.9V116H70.2H70.1V116.1H70H69.9L69.8 116.3L69.7 116.4H69.6L69.7 116.5L69.8 116.7L70.2 117.2V117.3H70.3L70 117.7L69.9 117.9L69.8 118.1L69.7 118.3V118.4H69.6V118.5H69.5V118.6H69.4L69.1 118.8L69 118.9H68.9L69 119V119.1L69.1 119.2V119.3L69.2 119.4L69.3 119.5L69.4 119.6H69.5L69.6 119.7L69.8 119.9H69.9V120H70V120.1L70.1 120.3V120.4H70.2V120.5V120.6L70.1 120.7H70V120.6H69.9H69.8H69.7L69.5 120.5L69.1 120.4H68.9H68.8L68.7 120.5L68.5 120.4H68.4H68.3L68.2 120.3H68.1H68V120.4H67.8H67.7H67.6H67.4H67.3H67.1H67H66.9H66.8V120.5V120.6H66.9V120.7L66.8 120.8H66.5H66.4H66.3V120.9V121.1V121.2V121.3V121.5V121.6V121.7L66.2 121.6H65.9H65.8H65.7V121.7V121.8L65.6 122V122.1V122.2V122.3H65.5V122.4V122.5V122.6H65.4V122.7V122.8V122.9L65.3 123V123.1V123.2V123.3H65.2V123.4V123.5L64.9 124L64.8 124.2L64.2 125.1H64.1V125.2H64.2V125.3L64.9 125.7L64.8 125.9L64.7 126V126.1V126.3V126.4V126.6H64.8V126.7V126.8L65 127.1V127.2V127.3H65.1V127.4L65.2 127.5L65.3 127.7H65.4V127.8H65.5L65.6 127.9H65.8L65.7 128.3V128.4L65.5 128.8L65.7 129L65.8 129.3L65.7 129.4L65.6 129.3L65.5 129.2V129.3V129.4V129.5H65.4H65.3V129.4H65.2H65.1L65 129.5L65.1 129.6V129.7V129.8H65V129.9V130L64.9 130.1L64.8 130.2H64.7V130.3H64.6V130.4L64.5 130.5L64.6 130.6L64.7 130.7V130.8V130.9H64.6V131H64.5L64.6 131.1V131.2H64.7H64.8V131.3H64.7V131.4H64.6L64.7 131.5H64.8L64.7 131.7V132.1V132.5V132.8L64.6 133.1V133.4L64.7 133.5L64.9 133.9L65 134V134.1H65.1L65.2 134.3L65.4 134.5L65.6 134.7L65.7 134.8V134.9V135V136.5L65.8 136.6V136.7V136.8L65.7 136.9V137.2L65.6 137.3V137.4V137.5H65.7V137.6V137.7L65.8 137.8V137.9V138V138.1V138.2L65.6 138.3V138.5L65.7 138.9L65.8 139V139.2V139.3V139.4V139.5V139.6L65.7 139.7V139.8H65.6L65.5 139.9V140V140.1V140.2V140.3V140.4H65.6V140.5H65.7V140.6H65.8V140.7V140.8H65.9V140.9V141V141.1L66 141.2H66.1V141.3H66.2H66.3V141.5L66.2 141.6V141.7H66.1H66V141.8V141.9H65.9H65.8L65.9 142.1L65.8 142.4L65.7 142.5V142.6L65.6 142.8L65.5 142.9L65.4 143H65.3L65.2 143.1H65.1V143.2H65.2V143.3H65.3L65.4 143.4V143.5V143.6H65.3V143.7H65.2H65.1L65 143.6H64.9H64.8L64.7 143.7H64.6H64.5V143.8H64.4V143.9H64.5V144V144.1V144.2V144.3V144.4V144.5L64.6 144.6V144.7H64.7L64.8 144.6H64.9V144.7V144.8H65V144.9L65.1 145V145.1L65.2 145.2V145.1H65.3V145.2V145.3H65.4H65.5V145.4L65.6 145.5V145.6V145.7H65.7L65.6 145.8V145.9H65.5H65.4V146L65.3 146.1L65 146.4L64.9 146.5V146.7L65.1 147.1V147.4L65.2 147.7L65.3 147.8L65.4 147.9L65.5 148V148.1L65.6 148.3L65.7 148.4V148.5V148.6V148.7V148.8L65.6 148.9V149V149.1H65.5V149.2L65.3 149.1L65.2 149.2L65.3 149.5V149.6V149.7V149.8H65.2L65.1 149.7H65H64.9V149.6L64.7 149.8V149.9H64.6V150V150.1H64.5V150.2H64.4V150.3V150.4V150.5V150.6V150.7V150.8H64.3V150.9V151V151.1L64.4 151.2V151.3V151.4H64.3V151.5H64.4V151.6V151.7L64.3 151.8V151.9L64.2 152V152.1V152.2L64.1 152.3L64 152.4L63.9 152.5V152.6V152.7V152.8V152.9L63.8 153V153.1H63.9L63.8 153.2V153.3V153.4V153.5H63.7V153.6V153.7V153.8L63.6 153.9V154V154.1H63.2H62.9H62.8H62.7L62.5 154.3L62.4 154.4V154.9V155.3L62.3 155.7L62.2 155.9L62.1 156L61.9 156.1L61.7 156.2L61.3 156.4L61.1 156.5H60.8L60.5 156.4L60.3 156.2L60.1 156.1V156L59.8 155.5L59.6 155.1L59.5 154.9L59.3 154.7L59.1 154.6L58.8 154.4H58.6L58.4 154.3L58.1 154.4L57.7 154.5L57.3 154.6L57.1 154.8L57 155L56.5 155.6V155.7L56.6 155.8L56.7 156H56.8L57.1 156.2H57.2L57.4 156.3L57.5 156.5L57.7 156.6L57.9 157L58 157.2L58.2 157.6V157.9L58.1 158.1V158.4L57.8 158.7L57.5 158.9L57.3 159L57 159.1H56.7H56.6H56.5V159.2H56.3H56.1L55.8 159L55.4 158.8L55 158.4L54.9 158.3L54.6 158.1L54.4 157.9L54.2 157.8L53.9 157.6L53.7 157.5H53.2L52.8 157.6L52.6 157.7L52.1 158.1L51.9 158.2L51.8 158.4L51.7 158.5L51.6 158.7L51.5 158.8L51.3 159.1L51.1 159.3L50.9 159.4L50.8 159.5L50.7 159.6L50.5 159.7H50.2L50.1 159.8H49.9H49.8L49.5 159.7L49.2 159.6L48.5 159.4L48.2 159.3L48 159.2L47.7 159.1H47.5L47.3 159H47.1H46.9H46.8H46.7L46.6 159.1L46.4 159H46.2L45.9 158.9H45.7L45.4 158.8H45.1L44.9 158.7L44.8 158.6H44.7L44.6 158.4L44.5 158.2V158.1L44.4 158V157.8L44.5 157.7V157.6L44.6 157.5V157.4V157.3H44.5H44.4H44.3H44.1L43.9 157.4L43.8 157.6L43.7 157.7L43.6 157.9L43.4 158.1L43.3 158.2L43.1 158.3H42.8H42.7H42.6H42.3L41.8 158.2H41.6H41.5L41.2 158.3L41 158.4L40.8 158.5L40.6 158.7L40.4 159.2L40.1 159.8L40 160L39.9 160.1V160.2L39.8 160.3H39.7V160.4L39.5 160.5H39.4L39.3 160.6L39.1 160.7L38.8 160.8H38.7H38.5L38.4 160.7H38.2L38 160.6L37.7 160.4H37.6L37.4 160.3V160.2H37.3L37.2 160.1L37.1 160L37 159.8L36.9 159.7H36.8V159.6H36.7L36.6 159.4L36.5 159.2L36.2 158.8L36 158.4L35.9 158.1L35.8 158L35.7 157.9V157.8V157.6V157.5V157.4V157.2L35.8 157L35.9 156.7V156.5L36 156.3L35.9 156.2V155.9L35.7 155.7L35.5 155.6H35.3H35.1H35L34.7 155.7L34.5 155.8L34.3 155.9L34.2 156L34 156.2L33.9 156.3L33.8 156.4L33.7 156.5V156.6L33.6 156.7V156.8V156.9V157V157.2V157.3L33.7 157.4V157.5L33.8 157.6L33.9 157.8L34 158L34.1 158.2L34.2 158.3L34.4 158.6V158.7V158.8V158.9V159.1V159.3L34.3 159.5L34.2 159.7L34.1 159.9L34 160L33.9 160.2L33.8 160.3L33.7 160.4H33.5H33.3L33.2 160.5L33.1 160.4H33H32.9H32.8V160.3H32.7L32.6 160.1L32.5 159.9V159.8L32.4 159.6V159.5V159.3V159.2L32.3 159.1V158.9V158.8L32.2 158.7V158.5L32.1 158.3V158.2V158L32 157.9L31.9 157.8L31.8 157.7L31.7 157.6H31.6V157.5H31.5L31.4 157.4H31.3H31.2H31.1H31H30.9H30.8H30.7V157.5L30.6 157.6V157.8V157.9V158L30.7 158.2L30.8 158.3L30.9 158.5H31L31.2 158.6L31.4 158.7V158.8L31.5 158.9L31.6 159.1L31.7 159.2V159.4V159.5L31.8 159.7V159.8V159.9V160V160.2L31.7 160.4V160.6V160.7V160.8L31.6 161L31.5 161.1L31.3 161.3L31.1 161.4L31 161.5L30.8 161.6H30.7H30.6H30.4H30.3L30.2 161.5H30.1H30L29.7 161.3L29.3 161L29.2 160.9L29 160.7L28.9 160.6L28.7 160.4L28.5 160.2L28.4 160L28.2 159.8L28 159.7L27.9 159.6L27.8 159.5L27.7 159.4H27.5H27.3L27.1 159.3H27H26.8H26.7H26.6L26.3 159.4L26.1 159.5L26 159.6L25.8 159.7L25.7 159.8L25.6 160L25.5 160.1V160.2V160.4V160.5V160.6V160.8L25.6 161L25.8 161.2H26H26.2L26.4 161.3L26.6 161.2L26.7 161.1H26.8H26.9L27 161H27.1L27.2 160.9H27.4H27.6L27.9 160.8L28 160.9H28.1H28.2L28.3 161L28.4 161.1L28.5 161.3V161.4V161.5V161.6V161.8L28.6 161.9V162.1L28.7 162.2L28.8 162.4L28.9 162.5L29.1 162.7H29.2V162.8L29.4 162.9L29.6 163L29.9 163.3L30.1 163.6L30.2 163.8L30.3 164.1V164.2V164.4V164.5L30.2 164.7L30 164.8L29.8 164.9V165H29.7H29.6L29.5 165.1H29.2H28.6H28.5H28.4H28.3H28.2H28.1H28H27.9L27.7 165L27.3 164.7L27.2 164.6L26.9 164.3L26.8 164.2L26.7 164L26.6 163.9L26.5 163.7H26.4V163.6H26.3L26.2 163.5L26.1 163.4H26H25.9L25.8 163.3H25.7L25.6 163.4H25.5H25.4L25.2 163.5L25.1 163.6L25 163.7L24.9 163.8V164.1V164.2H25V164.4V164.5H25.1V164.6V164.7L25.2 164.8V164.9L25.3 165L25.4 165.2V165.3L25.5 165.5L25.6 165.7V165.8L25.7 165.9V166V166.1L25.8 166.2V166.3L25.9 166.4V166.6V166.7V166.8L25.8 166.9L25.7 167.2L25.6 167.3L25.5 167.4L25.3 167.5L25.2 167.6H25L24.9 167.7H24.7H24.5H24.3H24.1H23.9H23.6L23.3 167.6H23.2L23 167.5H22.9L22.7 167.3L22.6 167.2L22.5 167.1L22.3 166.9L22.2 166.8L21.9 166.4V166.3L21.8 166.2L21.7 165.9L21.6 165.6L21.5 165.4L21.3 164.9H21.2L21.1 164.6L20.9 164.3L20.8 164.2L20.7 164.1V164H20.6V163.9L20.5 163.8V163.7L20.4 163.6V163.5L20.3 163.4L20.2 163.3V163.2H20.1V163.1L20 163V162.9L19.9 162.8V162.7L19.6 162.1L19.5 161.9V161.7L19.4 161.4L19.3 161.3V161.2L19.2 161L19.1 160.8L19 160.7L18.8 160.6L18.7 160.5H18.5H18.4H18.3H18.2H18.1H18H17.9L17.8 160.6H17.7L17.4 160.8H17.3L17.2 160.9L16.9 161H16.8H16.7V161.1V160.9L16.6 160.8V160.7V160.6L16.5 160.5H16.4L16.3 160.4H16.2H16.1H16H15.9L15.8 160.5L15.7 160.7L15.6 160.8H15.5V160.9H15.4H15.2H15.1H15L14.9 160.8V160.7H14.8V160.6H14.7V160.5L14.6 160.4L14.5 160.3V160.2L14.4 160.1V160V159.9H14.3V159.8V159.7H14.2V159.6H14.1V159.5L14 159.4H13.9V159.3H13.8V159.2H13.7V159.1H13.6H13.5H13.4L13.3 159.2H13.2V159.3V159.4H13.3V159.5H13.4V159.6V159.7V159.8V159.9V160V160.1V160.2V160.3L13.3 160.4V160.5L13.2 160.6V160.7H13.1H13V160.8H12.9H12.8H12.7H12.6L12.5 160.9V160.8L12.4 160.7V160.6V160.5L12.5 160.4H12.6V160.3L12.7 160.2H12.8V160.1V160V159.9V159.8V159.7L12.7 159.6V159.5H12.6V159.4H12.5H12.4H12.3H12.2H12.1H12H11.9V159.3H11.8H11.7L11.6 159.2H11.5V159.1H11.4V159L11.3 158.9V158.8V158.7V158.6H11.4V158.5V158.4H11.5L11.6 158.3H11.7V158.2H11.8H11.9L12 158.1H12.1H12.2V158H12.3V157.9H12.4V157.8H12.5V157.7V157.6V157.5V157.4V157.3H12.4V157.2L12.3 157.3H12.2H12.1V157.4H12V157.5H11.9H11.8H11.7H11.6L11.5 157.4V157.3H11.6V157.2V157.1V157H11.7V156.9L11.6 156.8V156.7V156.6H11.5H11.4V156.7H11.3H11.2H11.1V156.6H11L10.9 156.5H10.8H10.7V156.4H10.6L10.7 156.3V156.2V156.1V156L10.8 155.9V155.8V155.7V155.6V155.5H10.7H10.6V155.4H10.5V155.3H10.4V155.2H10.3H10.2H10.1H10H9.89999H9.8V155.1L9.7 155H9.60001V154.9H9.5H9.39999H9.3V154.8L9.2 154.7H9.10001V154.6V154.5V154.4L9.2 154.3H9.3V154.2H9.39999V154.3H9.5V154.4H9.60001L9.7 154.5H9.8H9.89999H10H10.1H10.2H10.3H10.4V154.4H10.5L10.6 154.3V154.2V154.1H10.7L10.6 154V153.9V153.8L10.5 153.7V153.6H10.4V153.5H10.3H10.2L10.1 153.6H9.89999H9.8V153.7H9.7H9.60001H9.5H9.39999H9.3H9.2H9.10001V153.6V153.5H9V153.4H8.89999L8.8 153.3L8.89999 153.2H9V153.1H9.10001V153.2L9.2 153.1H9.3L9.39999 153V152.9H9.5H9.60001L9.7 152.8V152.7H9.8L9.89999 152.6V152.5V152.4V152.3V152.2V152.1H9.8V152H9.7L9.60001 151.9V152H9.5H9.39999V152.1H9.3V152.2V152.3V152.4H9.2L9.10001 152.5L9 152.6H8.89999V152.7H8.8H8.7V152.6H8.60001V152.7V152.8H8.5H8.39999V152.7H8.3H8.2V152.8H8.10001L8 152.7L7.89999 152.6H7.8V152.5L7.89999 152.4H8L8.10001 152.3V152.2V152.1H8.2V152V151.9H8.3V151.8V151.7V151.6V151.5V151.4H8.39999V151.3H8.5V151.2V151.1V151H8.39999V150.9V150.8H8.3V150.7H8.2H8.10001H8H7.89999L7.8 150.8L7.7 150.9L7.60001 151.1H7.5L7.39999 151.2H7.3H7.2H7.10001H7H6.89999H6.8L6.7 151.1V151H6.60001V150.9V150.8V150.7H6.5V150.6V150.5V150.4V150.3H6.60001V150.2H6.7V150.1V150H6.60001H6.5V150.1H6.39999H6.3V150.2H6.2H6.10001V150.1H6H5.89999H5.8H5.7V150H5.60001L5.5 149.9V149.8L5.39999 149.7V149.6V149.5V149.4H5.5V149.3H5.60001H5.7H5.8H5.89999H6H6.10001H6.2V149.2V149.1H6.3V149V148.9V148.8V148.7H6.2H6.10001H6V148.6V148.5H6.10001V148.4H6V148.3H5.89999V148.2V148.1V148L6 147.9V147.8V147.7H6.10001V147.6L6.2 147.5L6.3 147.4L6.39999 147.3V147.2V147.1L6.3 146.9L6.2 146.7V146.6V146.5L6.3 146.4H6.39999V146.3H6.5L6.60001 146.2V146.1V146V145.9V145.8V145.7H6.5V145.6H6.39999H6.3L6.2 145.5H6.10001V145.4V145.3H6L5.89999 145.2H5.8L5.7 145.1H5.60001V145V144.9V144.8V144.7V144.6H5.7V144.5H5.8V144.6H5.89999V144.7V144.8H6V144.9H6.10001L6.2 145H6.3H6.39999H6.5V144.9H6.60001V144.8V144.7H6.7V144.6V144.5V144.4H6.60001H6.5H6.39999L6.3 144.3H6.2L6.10001 144.2H6V144.1H5.89999V144V143.9L6 143.8H6.10001V143.7L6.2 143.6V143.5H6.3V143.4V143.3V143.2H6.39999L6.3 143.1V143V142.9L6.2 142.8V142.7H6.10001H6V142.6H5.89999V142.7H5.8H5.7L5.60001 142.6V142.7H5.5H5.39999H5.3H5.2V142.6H5.10001V142.5H5V142.4V142.3V142.2V142.1V142H4.89999V141.9V141.8V141.7L4.8 141.6V141.5V141.4V141.3H4.89999V141.2V141.1V141H5H5.10001H5.2H5.3V141.1V141.2V141.3V141.4V141.5V141.6L5.39999 141.7H5.5H5.60001H5.7V141.8H5.8H5.89999H6V141.9H6.10001V141.8H6.2V141.7V141.6V141.5V141.4H6.10001V141.3V141.2H6V141.1V141H5.89999V140.9H5.8V140.8H5.89999V140.7L5.8 140.6V140.5H5.7H5.60001V140.4V140.3V140.2H5.7V140.1V140H5.8H5.89999L6 140.1H6.10001V140H6.2L6.3 140.1L6.39999 140.2V140.3V140.4H6.5H6.60001L6.7 140.5H6.8H6.89999H7H7.10001V140.4V140.3H7.2V140.2V140.1H7.3V140H7.39999V139.9H7.3V139.8V139.7V139.6V139.5H7.2L7.10001 139.4H7H6.89999H6.8L6.60001 139.5V139.6L6.5 139.7H6.39999V139.8H6.3H6.2V139.7H6.10001V139.6V139.5V139.4V139.3V139.2V139.1L6 139V138.9H5.89999V138.8H5.8H5.7V138.7H5.60001H5.5V138.6H5.39999V138.5V138.4H5.3V138.3L5.39999 138.2V138.1L5.5 138V137.9V137.8V137.7V137.6V137.5V137.4H5.39999V137.3H5.3V137.2V137.1H5.2H5.10001H5H4.89999L4.7 137L4.60001 136.9H4.5V136.8V136.7H4.39999V136.6V136.5V136.4H4.5V136.3H4.60001H4.7H4.8H4.89999V136.2H5V136.1V136V135.9V135.8H4.89999V135.7L4.8 135.6V135.5H4.7V135.4V135.3H4.8V135.2H4.89999V135.1V135H5V135.1L5.10001 135V134.9V134.8H5V134.7L4.89999 134.6V134.5V134.4H4.8V134.3H4.7V134.2V134.1V134V133.9H4.60001V133.8V133.7L4.7 133.6V133.5H4.8H4.89999H5V133.4H5.10001H5.2H5.3V133.3H5.39999V133.2H5.5H5.60001V133.1H5.7V133V132.9V132.8H5.60001V132.7V132.6L5.5 132.5H5.39999L5.3 132.4H5.2H5.10001H5H4.89999V132.5L4.8 132.6V132.7L4.7 132.8V132.9L4.60001 133L4.5 133.1H4.39999V133.2H4.3H4.2V133.1H4.10001L4 133V132.9H3.89999V132.8H3.8L3.7 132.7V132.6L3.60001 132.5V132.4H3.7V132.3H3.60001V132.2V132.1H3.7H3.8H3.89999H4H4.10001H4.2H4.3V132V131.9H4.39999V131.8H4.3V131.7H4.2V131.6V131.5H4.10001V131.4V131.3V131.2V131.1V131V130.9V130.8H4.2V130.7V130.6H4.3V130.5H4.39999V130.4L4.5 130.3V130.2V130.1H4.60001V130V129.9H4.7V129.8V129.7H4.8V129.6V129.5V129.4V129.3V129.2V129.1V129H4.7V128.9H4.60001H4.5V128.8H4.39999H4.3L4.2 128.7H4.10001H4V128.6H3.89999H3.8V128.5H3.7H3.60001H3.5V128.4H3.39999V128.3H3.3V128.2V128.1H3.2V128H3.3V127.9H3.2L3.3 127.8V127.7V127.6H3.39999H3.5V127.5V127.4H3.60001H3.7V127.5H3.8H3.89999L4 127.6H4.10001V127.7H4.2H4.3H4.39999H4.5V127.6H4.60001L4.7 127.5H4.8V127.4V127.3H4.89999V127.2H5V127.1V127V126.9L4.89999 126.8V126.7H4.8H4.7V126.6H4.60001H4.5V126.7H4.39999H4.3H4.2H4.10001H4H3.89999H3.8H3.7V126.6H3.60001H3.5V126.5L3.39999 126.4L3.3 126.3V126.2H3.2V126.1V126H3.3V125.9L3.39999 125.8V125.7H3.5L3.60001 125.6H3.7H3.8H3.89999V125.5H4H4.10001H4.2V125.6H4.10001V125.7H4.2H4.3H4.39999H4.5L4.60001 125.8L4.7 125.7H4.8V125.8H4.89999H5V125.7H5.10001L5.2 125.6H5.10001V125.5V125.4H5.2V125.3V125.2V125.1V125V124.9V124.8H5.10001V124.7H5H4.89999V124.6H4.8H4.7V124.5H4.60001V124.4V124.3H4.5V124.2H4.39999V124.1L4.3 124V123.9V123.8V123.7H4.39999V123.6H4.3V123.5H4.39999H4.5H4.60001H4.7L4.8 123.4V123.3V123.2V123.1V123V122.9H4.7V122.8H4.60001L4.5 122.7L4.3 122.5L4.2 122.4L4.10001 122.3L3.89999 122.1L3.8 122L3.7 121.9V121.8L3.60001 121.7V121.6V121.5V121.4V121.3V121.2L3.7 121.1V121H3.8L3.89999 120.9L4.10001 120.8H4.2V120.7H4.3H4.39999H4.5H4.60001L4.7 120.6H4.8L4.89999 120.5L5 120.4H5.10001V120.3H5.2V120.2V120.1H5.10001H5H4.89999H4.8H4.7H4.60001L4.5 120.2H4.39999L4.3 120.1H4.2H4.10001V120H4V119.9V119.8L4.10001 119.7V119.6L4.2 119.5H4.3V119.4V119.3V119.2V119.1H4.2V119H4.3V118.9H4.2V118.8H4.3H4.39999V118.7H4.3V118.6H4.39999V118.5V118.4H4.5H4.60001V118.3V118.2V118.1V118V117.9V117.8V117.7V117.6V117.5V117.4V117.3V117.2V117.1V117H4.5V116.9L4.39999 117V116.9V116.8V116.7V116.6V116.5V116.4H4.3V116.3H4.39999L4.3 116.2V116.1L4.2 116V115.9V115.8H4.3H4.39999V115.7H4.5L4.60001 115.6V115.5L4.7 115.6V115.5H4.60001V115.4H4.5L4.39999 115.3H4.3H4.2H4.10001V115.2V115.1H4.2V115V114.9V114.8H4.3V114.7V114.6V114.5V114.4H4.2V114.3V114.2H4.10001V114.1H4V114V113.9V113.8H3.89999V113.7V113.6V113.5H4V113.4V113.3H4.10001V113.2H4.2H4.3V113.3V113.4H4.39999V113.5H4.5V113.6H4.60001V113.5H4.7H4.8V113.4H4.89999V113.3V113.2V113.1H4.8V113H4.89999V112.9H4.8V112.8H4.7H4.60001V112.7H4.5H4.39999H4.3H4.2V112.6H4.10001H4H3.89999V112.5H3.8V112.4H3.89999V112.3H4V112.2H4.10001V112.1V112H4.2V111.9V111.8V111.7V111.6H4.10001V111.5H4V111.4H3.89999V111.3V111.2H3.8V111.1H3.7V111L3.60001 110.9V110.8V110.7V110.6V110.5V110.4V110.3H3.7V110.2L3.8 110.1V110L3.89999 109.9V109.8V109.7H4V109.6H4.10001V109.5V109.4H4.2V109.3V109.2H4.10001V109.1H4V109V108.9H3.89999V108.8H4V108.7H4.10001L4.2 108.8H4.3H4.39999H4.5V108.7V108.6H4.60001V108.5H4.5V108.4H4.39999V108.3L4.3 108.2H4.39999V108.1H4.5V108H4.60001H4.7V107.9H4.8V107.8H4.7V107.7H4.60001L4.5 107.6V107.5V107.4V107.3H4.39999V107.2V107.1H4.5V107V106.9H4.60001V106.8H4.7H4.8H4.89999H5H5.10001L5.2 106.9H5.3V106.8H5.39999H5.5H5.60001H5.7H5.8H5.89999H6L6.10001 106.9H6.2H6.3H6.39999V107H6.5V107.1H6.60001V107V106.9H6.7V106.8V106.7L6.8 106.6H6.7V106.5V106.4H6.60001V106.3L6.5 106.2V106.1H6.60001L6.7 106V105.9H6.8V106L6.89999 105.9H7V105.8L7.10001 105.7H7.2V105.6H7.3V105.5V105.4V105.3L7.2 105.2H7.10001V105.1H7V105H6.89999H6.8V104.9H6.7V104.8H6.60001V104.7H6.5V104.6V104.5V104.4V104.3H6.60001H6.7H6.8H6.89999V104.4H7H7.10001V104.5H7.2V104.4H7.3V104.3V104.2H7.2L7.10001 104.1V104H7V103.9H6.89999V103.8V103.7V103.6H7H7.10001H7.2V103.5H7.3H7.39999V103.4V103.3H7.3V103.2L7.2 103.1H7.10001V103H7V102.9H6.89999V102.8H6.8V102.7L6.7 102.6V102.5H6.8V102.4H6.89999V102.3V102.2L7 102.1V102V101.9V101.8L6.8 101.6L6.7 101.5L6.60001 101.3H6.5L6.3 101.2L6.2 101H6.10001L6 100.9L5.89999 100.8L5.8 100.7L5.7 100.6V100.5V100.4V100.3V99.7V99.3V99.2H5.8V99.1V99V98.9V98.8H5.89999V98.7H6H6.10001H6.2V98.8V98.9H6.3V99H6.39999V99.1H6.5H6.60001V99V98.9V98.8V98.7V98.6V98.5V98.4H6.5V98.3H6.39999H6.3H6.2H6.10001L6 98.2V98.1H6.10001V98H6.2V97.9H6.3V97.8L6.39999 97.7V97.6L6.5 97.5L6.60001 97.4V97.3H6.7V97.2H6.60001H6.5L6.39999 97.1H6.3H6.2L6.10001 97H6L5.89999 96.9H5.8L5.7 96.8H5.60001H5.5V96.7H5.39999V96.6V96.5H5.5H5.60001L5.7 96.4L5.8 96.3L5.89999 96.2V96.1V96H5.8V95.9H5.89999V95.8V95.7H6V95.6V95.5V95.4V95.3V95.2V95.1H6.10001V95H6.2V94.9V94.8H6.10001H6V94.7H5.89999H5.8L5.7 94.6V94.5H5.60001L5.7 94.4H5.8V94.3H5.89999L5.8 94.2L5.7 94.1V94L5.60001 94.1H5.5V94L5.3 93.8L5.2 93.6V93.5H5.10001L4.89999 93.6L4.8 93.5L4.7 93.4L4.60001 93.3H4.5V93.2L4.39999 93.1L4.3 93L4.2 92.9L4.10001 92.7V92.6L4 92.5V92.4H4.10001V92.3H4L4.3 92H4.39999V91.9L4.5 91.8V91.7V91.6H4.39999V91.5L4.2 91.4V91.3L4.10001 91.2V91.1V91H4V90.9L3.89999 90.8V90.7H3.8V90.6H3.89999V90.5V90.3V90.2V90.1V90V89.9V89.8V89.7V89.6V89.5V89.4V89.3V89.2V89.1L3.8 89V88.9V88.8V88.7V88.6V88.5H3.7L3.60001 88.4L3.5 88.3V88.2H3.39999V88.1H3.3L3.2 88H3.10001V87.9H3H2.89999V87.8H2.8H2.7V87.7V87.6H2.60001V87.5L2.5 87.4L2.39999 87.3L2.3 87.2V87.1H2.2V87L2.10001 86.9H2V86.8V86.7V86.6H1.89999H1.8V86.5H1.7H1.60001H1.5V86.4V86.3L1.60001 86.2V86.1L1.7 86L1.8 85.9H1.89999V85.8H2V85.7H2.10001L2.2 85.6L2.3 85.5V85.4H2.2V85.3L2.3 85.2V85V84.9V84.8V84.7V84.6H2.39999V84.5L2.60001 84.3H2.7V84.2L2.8 84.1V84H2.89999V83.9L3 83.8V83.7V83.6L3.10001 83.5V83.4V83.3H3.2H3.3V83.2H3.39999H3.5H3.60001V83.1H3.7H3.8V83V82.9V82.8H3.89999V82.7H4V82.8H4.10001H4.2H4.3H4.39999L4.5 82.9V83V83.1H4.39999V83.2V83.3H4.5V83.4V83.5H4.60001H4.7H4.8H4.89999V83.4H5H5.10001V83.3H5.2V83.2H5.3H5.39999V83.1V83V82.9H5.3V82.8H5.2V82.7V82.6V82.5V82.4H5.10001V82.3V82.2V82.1V82L5.2 81.9V81.8H5.10001V81.7V81.6V81.5H5V81.4L4.89999 81.3L4.8 81.2V81.1V81V80.9V80.8H4.89999V80.7H5H5.10001V80.6V80.5V80.4V80.3V80.2V80.1V80L5 79.9L4.89999 79.8H4.8V79.7L4.7 79.6V79.5V79.4H4.60001V79.3H4.5V79.2V79.1V79H4.39999V78.9V78.8V78.7V78.6H4.5H4.60001H4.7H4.8V78.5H4.89999V78.4V78.3H5V78.2H5.10001V78.1H5.2V78V77.9V77.8H5.3L5.39999 77.7H5.5V77.6H5.60001V77.5H5.7V77.4V77.3H5.8V77.2V77.1H5.89999V77V76.9V76.8V76.7V76.6L6 76.5H6.10001H6.2V76.4H6.3H6.39999H6.5V76.5H6.60001L6.7 76.6H6.8L6.89999 76.7H7L7.10001 76.8H7.2V76.7L7.3 76.6L7.39999 76.5H7.5L7.60001 76.4V76.3V76.2H7.7V76.1V76L7.60001 75.8V75.7L7.5 75.6V75.5L7.39999 75.4V75.3V75.2L7.5 75.1H7.60001H7.7H7.8H7.89999V75H8L8.10001 74.9L8 74.8V74.7L7.89999 74.6V74.5V74.4V74.3V74.2V74.1V74L7.8 73.9V73.8H7.7V73.7L7.60001 73.6H7.5L7.39999 73.5H7.3V73.4L7.2 73.3L7.10001 73.2L7 73.1V73H6.89999V72.9H6.8V72.7L6.7 72.6V72.5L6.60001 72.2L6.5 72.1V72H6.39999L6.2 71.9L6.10001 71.8H6H5.89999L5.8 71.7L5.7 71.6L5.60001 71.5V71.4V71.3H5.5H5.39999V71.2H5.3L5.2 71.1H5.10001H5L4.89999 71H4.8L4.7 70.9H4.60001H4.5H4.39999H4.3L4.2 70.8H4.10001L4 70.7V70.6V70.5H3.89999L4 70.4H4.10001V70.3H4.2V70.2L4.3 70.1V70H4.39999V69.9L4.5 69.8V69.7H4.60001V69.6V69.5H4.7L4.8 69.4L4.89999 69.3L5 69.2V69.1L5.10001 69V68.9V68.8H5.2V68.7H5.3H5.39999H5.5L5.60001 68.6H5.7H5.8V68.5H5.89999H6V68.4H6.10001L6.3 68.2L6.39999 68.1H6.5L6.60001 68V67.9L6.5 67.8V67.7V67.6V67.5V67.4V67.3V67.2V67.1V67V66.9L6.39999 66.8V66.7L6.3 66.6V66.5V66.4V66.3V66.2L6.2 66.1V66V65.9H6.3H6.39999V65.8V65.7H6.5L6.39999 65.6H6.3H6.10001L6 65.5H5.89999H5.8V65.4H5.7V65.3H5.60001V65.2V65.1V65L5.8 64.5V64.4V64.3H5.7V64.2L5.60001 64.1V64H5.5H5.39999V63.9H5.3V63.8V63.7V63.6V63.5H5.39999V63.4L5.3 63.3V63.2H5.2V63.1V63H5.10001V62.9H5H4.89999V62.8V62.7H4.8V62.6V62.5V62.4V62.3V62.2V62.1H4.7H4.60001H4.5H4.39999H4.3V62V61.9L4.2 61.8V61.7H4.10001V61.6L4 61.5H3.89999V61.4V61.3V61.2V61.1L3.8 61H3.7V60.9H3.60001V60.8L3.7 60.7V60.6H3.60001V60.5V60.4V60.3L3.7 60.2V60.1H3.60001H3.5H3.39999H3.3V60V59.9H3.39999V59.8H3.5L3.7 59.5L3.8 59.4L3.89999 59.3V59.2H4V59.1L4.10001 59V58.9L4.3 58.8L4.39999 58.6V58.5H4.3L4.2 58.3V58.2H4.10001L4 58.1H3.89999L3.8 58H3.7V57.9H3.60001H3.5H3.39999H3.3H3.2V57.8H3.10001H3V57.7H2.89999V57.6H2.8H2.7V57.5L2.60001 57.4H2.5V57.3V57.2V57.1V57V56.9V56.8L2.3 56.7V56.6H2.2H2.10001H2V56.5L1.89999 56.4L1.60001 56.3H1.5H1.3L1.10001 56.2L1 56.1V56V55.8V55.6L1.10001 55.5V55.4L1.2 55.3V55.2H1.3V55.1V55V54.9H1.39999V54.8H1.5L1.60001 54.7H1.8V54.6H1.89999L2 54.5H2.10001V54.4H2.2H2.3L2.39999 54.3L2.5 54.2H2.60001H2.7L2.60001 54L2.39999 53.7L2.3 53.4L2.2 53.3V53.1L2.10001 52.6H2V52.5L1.89999 52V51.9L1.7 51.5L1.60001 51.2V51.1L1.7 51L1.8 50.9V50.8V50.7V50.6V50.5V50.1V50L1.89999 49.9H2H2.10001V49.8V49.7V49.6L2.2 49.5V49.4L2.3 49.3H2.39999H2.5H2.60001L2.7 49.2H2.8V49.1H2.89999L2.8 48.9V48.8H2.89999V48.7V48.6H3H3.10001H3.2H3.3L3.39999 48.7H3.5H3.60001H3.7H3.8H3.89999H4H4.2H4.3H4.39999H4.5V48.6V48.5V48.4H4.60001V48.3V48.2V48V47.9V47.8L4.7 47.7V47.5L4.8 47.4V47.3V47.2V47.1L4.89999 47V46.9V46.8H4.8H4.7H4.60001L4.7 46.6H4.60001H4.5H4.39999V46.5H4.3H4.2H4.10001H4H3.89999H3.8V46.4H3.7V46.3H3.60001H3.5L3.39999 46.2H3.3V46.3L3.2 46.2V46.1L3.3 46H3.39999V45.9H3.5H3.60001V45.8H3.7L3.8 45.7H3.89999V45.6H4V45.5H4.10001L4.2 45.4L4.3 45.3H4.39999V45.2H4.5H4.60001H4.7H4.8H4.89999H5H5.10001H5.2L5.3 45V44.9V44.7V44.6V44.5H5.39999H5.60001H5.7V44.4H5.8V44.3H5.7V44.2V44.1H5.60001L5.7 44V43.9H5.60001V43.8H5.5V43.7V43.5V43.4H5.39999V43.3H5.3V43.2H5.2L5.10001 43.1L5 43H4.7L4.5 42.9V42.8V42.6L4.7 42.1L4.39999 41.9V41.8L4.5 41.6V41.5V41.4L4.60001 41.3V41.2V41.1V41V40.9V40.8H4.5V40.7V40.6V40.5H4.39999V40.4H4.5H4.7L4.89999 40.3H5.3H5.39999H5.5L5.7 40.2H5.8H6.10001H6.2H6.3H6.39999L6.60001 40.1H6.8H6.89999H7H7.10001H7.39999H7.5H7.60001L8.10001 40V39.8V39.7V39.6V39.5V39.4V39.2L7.89999 39.1L7.8 39L7.7 38.9H7.60001V38.8L7.3 38.6L7.2 38.5L7.10001 38.4L7 38.3L6.8 38.2L6.7 38.1L6.60001 38H6.5L6.39999 37.9L6.2 37.8V37.7V37.6L6.3 37.5L6.60001 36.8H6.5L6.39999 36.7H6.3H6.2L6.10001 36.8H6V36.9H5.89999H5.8H5.7H5.60001V36.8V36.7V36.6H5.5L5.39999 36.5H5.3V36.4H5.2V36.3H5.10001V36.2H5V36.1H4.89999V36H4.8V35.9V35.8H4.89999L5.3 35.7V35.6L5.2 35.5V35.4V35.3H5.3V35.2H5.39999L5.5 35.1L5.39999 35L5.3 34.9L5.2 34.7L5.10001 34.6V34.5H5V34.4V34.3L5.10001 34.2L5.3 34.1H5.39999V34H5.5V34.1H5.60001V34.2H5.7V34.3V34.4H5.8V34.5L5.89999 34.6V34.5H6H6.10001H6.2H6.3H6.39999L6.5 34.4H6.60001H6.7V34.3V34.2H6.8H6.89999V34.1H7V34H7.10001H7.2H7.3V33.9H7.39999H7.5V34H7.60001V34.1H7.7H7.8H7.89999H8V34H8.10001V33.9H8.2V33.8H8.3L8.39999 33.7H8.5V33.8H8.60001H8.7H8.8H8.89999V33.7V33.6V33.5V33.4H9V33.3H9.10001L9.2 33.2V33.1V33H9.3V32.9H9.39999L9.5 32.8V32.7V32.6H9.60001L9.7 32.5V32.4V32.3V32.2V32.1H9.60001V32H9.5V31.9H9.60001V31.8V31.7H9.7V31.6V31.5V31.4V31.3H9.8H9.89999V31.2H10H10.1V31.1H10.2V31V30.9V30.8H10.3H10.4V30.7V30.6H10.5V30.5H10.6V30.4H10.7V30.3V30.2L10.6 30.1V30H10.7V29.9H10.8H10.9V29.8H11V29.7H11.1V29.6H11.2H11.3H11.4V29.5H11.5H11.6V29.4V29.3H11.7H11.8H11.9H12V29.2V29.1H12.1V29H12.2V28.9H12.3V28.8H12.4L12.5 28.7V28.6V28.5V28.4V28.3H12.6H12.7V28.2H12.8H12.9H13H13.1V28.3H13.2V28.2H13.3V28.3H13.4V28.2H13.5H13.6V28.1V28H13.7V27.9H13.6V27.8H13.7V27.7H13.6V27.6H13.7H13.8H13.9V27.5V27.4H14H14.1H14.2V27.3H14.3V27.2H14.4V27.3H14.5H14.6V27.4H14.7V27.3H14.8L14.7 27.4H14.8H14.9H15H15.1V27.5H15.2V27.4H15.3V27.5H15.4V27.6H15.5V27.5H15.6H15.7H15.8V27.4H15.9V27.5V27.6H16H16.1H16.2V27.5H16.3V27.6H16.4H16.5H16.6V27.5V27.4H16.7H16.8V27.3H16.9V27.4H17V27.3H17.1H17.2L17.3 27.4H17.2V27.5H17.1V27.6H17.3H17.5H17.7H17.9H18H18.1L18.2 27.5L18.3 27.4L18.4 27.3L18.5 27.2H18.7H19L19.2 27.3V27.4H19.4H19.5L19.7 27.5H19.8L19.9 27.3L19.2 27L19.3 26.9L19.4 26.8L19.5 26.7L19.4 26.6L19.3 26.5L19.2 26.4V26.3H19.3L19.2 26.2V26.1V26L19.3 25.9L19.4 25.8H19.5H19.6V25.9H19.7V25.8L19.8 25.7H19.9L20 25.8L20.2 26L20.3 25.9V25.8V25.7L20.2 25.6H20.1L20 25.5V25.4V25.3L20.1 25.2L20.3 25.3V25.2V24.9V24.8L20.4 24.7H20.5H20.6L20.7 24.6V24.5V24.3L20.6 24.2L20.5 24.1L20.9 23.6L21 23.7L21.2 24L21.5 23.9H21.6H22L21.8 23.3L21.7 23L21.9 23.1H22.1H22.3H22.5H22.6L22.7 22.9V22.8V22.7H22.6L22.5 22.6L22.2 22.1H22.3L22.4 22H22.5L23.1 21.7L23.4 21.6L23.5 21.5L23.8 21.3H23.9V21.2L24 21.1V21V20.9V20.8V20.7V20.6H24.1V20.5V20.4H24.2V20.3L24.3 20.2V20L24.4 19.9L24.7 19.1L24.8 19H24.9H25L25.3 18.9H25.4H25.5L25.7 18.8V18.9H25.8H25.9H26V19H26.1H26.2V19.1H26.3L26.7 19.2L27 19.4V19.3V19.2H27.1V19.1V19V18.9L27.2 18.8V18.7V18.6V18.5L27.3 18.4V18.3V18.2L27.4 18.1V18V17.8L27.5 17.7V17.6V17.5V17.4L27.6 17.3V17.2H27.7H27.8V17.3H27.9H28H28.1H28.2H28.3H28.4H28.5V17.4H28.6H28.7L28.8 17.3V17.2V17.1V16.9L28.9 16.7V16.6V16.5V16.4L29 16.2V16.1V16V15.9L29.1 15.8V15.7V15.5V15.4V15.3H29.2V15H29.4H29.5V15.1H29.6H29.7H29.8L30 15.2H30.2H30.3V15.1V15V14.9V14.8L30.4 14.7V14.6V14.5V14.4V14.2V14.1V13.9V13.8V13.5V13.3V13.2L30.5 13H30.6H30.7L30.8 13.1H30.9H31H31.1H31.4H31.5V12.6L31.6 12.5V12.4H31.5V12.3L31.4 12.2H31.3L31.2 12.1H31.1V12H31L31.1 11.9V11.7H31.2L31.4 11.6V11.5V11.4V11.3V11.2V11.1V11V10.9H31.5L31.4 10.8V10.7V10.6V10.5V10.4H31.6V10.3H31.9V10.4V10.5L32 10.6V10.7V10.8V10.9L31.9 11V11.1V11.2L31.8 11.3V11.4V11.5H31.7V11.7H31.9L32.2 11.6H32.4L32.6 11.5V11.6H32.7L32.9 11.7V11.5L33 11.4V11.3V11.2H33.1V11.3L33.2 11.4V11.5H33.3V11.4L33.4 11.3V11.2L33.5 11.3H33.6H33.7H33.8H33.9V11.2H34V11V10.9V10.8H34.1V10.6H33.9L33.7 10.7H33.6H33.5H33.4V10.9H33.3L32.8 11H32.7V10.9V10.6V10.5H32.8L33 10.4H33.1L33 9.89999L33.1 9.8L33 9.7L33.1 9.60001L32.9 9.5L33 9.39999V9.3H33.2V9.39999H33.4H33.5L33.6 9.2L33.7 9.10001V9V8.89999V8.8L33.6 8.7H33.5L33.6 8.60001V8.5H33.7H33.8H33.9L34 8.39999H34.1H34.2H34.3H34.4H34.5L34.6 8.5H34.7H34.8H34.9H35H35.1V8.39999H35.2H35.4H35.5H35.6V8.3V8.10001L35.7 8V7.89999L35.6 7.7V7.5L35.7 7.39999L35.8 7.10001L36 7V6.89999V6.8H36.1H36.2H36.4V6.89999L36.5 7.10001L36.6 7.39999L36.8 7.5L36.9 7.60001H37L37.2 7.8L37.4 7.89999H37.5L37.7 7.5V7.39999L37.9 7.3V7.2H38L38.3 7L38.4 6.89999L38.5 6.60001V6.39999L38.6 6.2L38.7 6.10001V6V5.89999H38.8V5.8H38.9V5.7L39 5.60001H39.1V5.5H39.2V5.39999H39.3L39.4 5.2L39.6 5.10001L39.7 5L40 5.2L40.1 5.3V5.39999H40.2L40.3 5.5L40.5 5.60001V5.7H40.6H40.7H40.8L41 5.8H41.1L41.2 5.89999L41.3 6H41.4V6.10001H41.5L41.6 6.2H41.7H41.8V6.3L41.9 6.2H42H42.1V6.3H42.2H42.3H42.4H42.5H42.7H42.9H43H43.1V6.39999H43.2H43.3V6.5H43.4H43.5V6.60001H43.6V6.7H43.7L43.9 6.8V6.7L44 6.60001V6.5V6.39999L44.1 6.3V6.10001L44.2 6L44.4 5.89999L44.5 5.8H44.6L44.7 5.7L45.1 5.5L45.2 5.39999V5.3V5.2L45.3 5.10001L45.4 4.8V4.60001L45.6 4.2V4H45.8L45.9 4.10001H46H46.1L46.3 4.2H46.4H46.5L46.6 4.3H46.7H46.8L46.9 4.39999H47L47.1 4.5H47.2H47.3H47.4L47.5 4.60001H47.6H47.7H47.8H47.9H48H48.1H48.4L48.6 4.3L48.5 4.2L48.4 4.10001H48.3V4L48 3.7L48.1 3.60001V3.5H48.2V3.39999V3.3H48.3V3.2V3.10001V3L48.4 2.8V2.7V2.60001H48.5H48.6H48.7L48.6 2.5L48.7 2.3V2.10001L48.8 2L48.9 2.10001L49 2.2L49.1 2.3H49.2V2.10001L49.3 2V1.89999V1.8V1.7H49.4H49.5V1.8H49.6H49.7L49.8 1.89999H49.9V2H50V1.89999H50.1V1.8L50.2 1.7V1.60001V1.5V1.39999H50.3H50.4L50.3 1.3H50.4V1.2H50.5H50.6L50.7 1.10001V1.2V1.3V1.39999H50.8V1.5H50.9H51V1.60001H51.1H51.2H51.3V1.7V1.8V1.89999L51.2 2.2H51.3L51.2 2.7H51.1V2.8H51V2.89999L51.1 3L51.2 3.2V3.3V3.39999L51.3 3.5V3.60001V3.7V3.8H51.4H51.5H51.6H51.7L51.9 3.7H52H52.2H52.3L52.4 3.60001H52.5L52.7 3.7H52.8H52.9H53H53.1H53.2V3.8H53.3H53.4H53.6H53.7H53.8H54H54.2H54.3H54.4L54.5 3.7H54.6H54.7V3.8V3.89999V4.10001V4.2V4.3V4.39999V4.5L54.8 4.7V4.8L54.9 4.89999V5H55V5.10001V5.2L55.1 5.3V5.39999V5.5V5.7L55.2 5.89999V6V6.10001H55.3L55.4 6.2L55.6 6.3H55.8L55.9 6.39999H56L56.1 6.5V6.60001V6.7L56.2 6.8H56.3H56.4L56.7 7L56.9 7.10001L57.2 7.3L57.5 7.5H57.6L57.8 7.60001L58 7.89999V8L57.9 8.7L58 8.8V8.89999V9L58.1 9.10001H58.2V9.2V9.3H58.3H58.5L58.6 9.39999H58.7H58.8L58.9 9.3L59 9.2H59.1H59.2L59.3 9.10001H59.4H59.5V9.2L59.6 9.10001H59.7H59.8L59.9 9.2V9.3V9.39999V9.5V9.60001L59.8 9.7V9.8V9.89999H59.7V10L59.6 10.1V10.2L59.5 10.3V10.4L59.4 10.5V10.6V10.7V10.8V10.9V11V11.1V11.2V11.3V11.4V11.7H59.5V11.8V11.9V12H59.4V12.1V12.2L59.3 12.3L59.2 12.4L59 12.7V12.8L58.9 12.9V13L58.8 13.2H58.7V13.3H58.6V13.4L58.5 13.5L58.4 13.7L58.3 13.8V13.9L58.2 14V14.1L58.1 14.2V14.3L57.9 14.4L57.8 14.6V14.7V14.8L57.7 15V15.2V15.3L57.6 15.5V15.6L57.5 16.3L57.3 17.1L57.5 17.3H57.7L57.9 17.5L58.1 17.6H58.2L58.4 17.7L58.5 17.8H58.6H58.7V17.9L58.9 18L59.2 18.1L59.8 18.5H59.9H60.1L60.2 18.6L60.5 18.8L61 19.1V19.2H60.9V19.3V19.4H61V19.5V19.6V19.7V19.9V20.1V20.2L60.9 20.6V20.7V20.8H60.8L60.7 21L60.6 21.1V21.2L60.5 21.3V21.4L60.6 21.5V21.7V21.8L60.7 21.9V22H60.9V21.9H61H61.1L61.4 21.8V21.9H61.5H61.6H61.7H61.9L62.1 21.8L62.2 21.9L62.5 22H62.6H62.9V21.9H63H63.1V22H63.2V22.1H63.3L63.4 22.2H63.5V22.3L64.2 22.8L64.3 22.9H64.4L64.6 23L65.1 23.5L65.5 23.7L65.7 23.8L65.8 23.9V24V24.2V24.4V24.5H65.9V24.6V24.8H65.8V24.9H65.7V24.8H65.6V24.9H65.5H65.4H65.3H65.2H65.1V25H65.2L65.3 25.1H65.4L65.3 25.3H65.2H65.1H65L64.9 25.2L64.7 25.1L64.5 25.3L64.6 25.4H64.7V25.5H64.8V25.4H64.9V25.5V25.6H65V25.7H65.1V25.8L65.2 25.9H65.3V26H65.4V26.1H65.5V26.2L65.6 26.3L65.7 26.4V26.5H65.8H65.9V26.6H66V26.7H66.1V26.5V26.4V26.3L66.4 26.4H66.6H66.7H67H67.2V26.8L67.1 27.1V27.5L68 27.7V27.8H69V27.9V28V28.1V28.2V28.3L69.1 28.5L69.2 28.7L69.3 28.8V28.9V29L69.4 29.1V29.2V29.3H69.5L69.6 29.4H69.7L69.8 29.5L69.9 29.6H70V29.7H70.1L70.2 29.8H70.3L70.4 29.9L70.5 30L70.6 30.1H70.7L70.8 30.2H70.9V30.3H71L71.1 30.4H71.2H71.3L71.4 30.3V30.2V30.1H71.5V30L71.6 29.9V29.8L71.7 29.7V29.6L71.8 29.5V29.4L71.9 29.3V29.2L72 29.1V29L72.1 28.9V28.8V28.7H72.2H72.5H72.6H72.7H72.8H72.9V28.8H73L73.1 28.7V28.6H73.2H73.3V28.5V28.4V28.3V28.2H73.4H73.5H73.6V28.1H73.7V28L73.8 27.9V27.8L73.9 27.7H74H74.1H74.2H74.4H74.5H74.6H74.7H74.8H74.9V27.8V28V28.1V28.2L75 28.5V28.6V28.7L75.1 28.8V28.9V29V29.1V29.2V29.3V29.4L75 29.5V29.6V29.7V29.8V30H74.9L74.8 29.9L74.7 30V30.1V30.2V30.4V30.5V30.7V30.8V30.9V31V31.1H74.8H74.9H75H75.1H75.2V31.2H75.3H75.4V31.3V31.4V31.5H75.5V31.6V31.7V31.8V31.9V32V32.1V32.2V32.3H75.6V32.4V32.5H75.5H75.4V32.6H75.5H75.6V32.7V32.8H75.7V32.7H75.8V32.6H75.9V32.5H76H76.1V32.4H76.2V32.5V32.6V32.7V32.8V32.9V33V33.2H76.1V33.6V33.7V34.3V34.4V34.5V34.8H76.2L76.5 34.7L77.1 34.5V34.2L77 33.7L76.9 33.3L77 33.2H77.1L77.7 33L77.9 32.9H78L78.2 32.8V32.9H78.3L78.2 33V33.1V33.2V33.3V33.4V33.5V33.6V33.7V33.8V33.9L78.3 34H78.2V34.1V34.2V34.3H78.3V34.4L78.2 34.5V34.6V34.7L78.3 34.8H78.4V34.9L78.6 35V35.1H78.7V35.2H78.8V35.3L78.9 35.4H79L78.9 35.5V35.6V35.7H78.8V35.8L78.7 36H78.6L78.1 36.1H77.6V36.6H77.5V36.8H77.1H76.9V36.7H76.8V36.6H76.7H76.6V36.7V36.8V36.9L76.7 37L76.6 37.3L76.7 37.4L76.6 37.5V37.6H76.5H76.4V38.1L76.3 38.4L77 38.9V39H76.9H76.8H76.7H76.6V39.1V39.3H76.5H76.4H76.3L76.2 39.6V39.7V39.9H76.3H76.4L76.5 40V40.1L76.4 40.2V40.3L76.3 40.4L76.1 40.8L75.8 41.3L76.1 41.4L76.3 41.5H76.4H76.6L76.8 41.6H76.9H77L77.2 41.7H77.4L77.5 41.8H77.6H77.9V41.9H78H78.2L78.4 42H78.5V42.1V42.2V42.3H78.6V42.4V42.5L78.7 42.6H78.8V42.7V42.8H78.9V42.9V43H79V43.1V43.2H78.9L79 43.3V43.4H78.9V43.5H78.8V43.6V43.7H78.9V43.8H79V43.9V44V44.1H79.1V44.2V44.3L79.2 44.4H79.1V44.5H79V44.6V44.7V44.8H78.9V44.9H79V45H78.9V45.1H79V45.2H79.1V45.3V45.4H79V45.5H78.9H78.8V45.6V45.7V45.8H78.7V45.9H78.6V46V46.1H78.5H77.9L78 46V45.7V45.6V45.5H77.9H77.8H77.7V45.4H77.6H77.5V45.3H77.4H77.3V45.2H77.2H77.1V45.3L77 45.4L76.9 45.6L76.8 45.7L76.7 45.8V45.9L76.6 46V46.1L76.5 46.2L76.4 46.3L76.3 46.5L76.2 46.6V46.7L76.1 46.8L76 46.9V47H75.9V47.1V47.2L75.8 47.3L75.7 47.4V47.5L75.6 47.6H75.5L75.4 47.5H75.3V47.4H75.2L75.1 47.3H75V47.2H74.9L74.8 47.1H74.7V47H74.6L74.5 46.9H74.4L74.3 46.8H74.2V46.7H74.1H74H73.9H73.8L73.7 46.6H73.6V46.5L73.5 46.6H73.4H73.3H73.2V46.7H73.1V46.8V46.9V47H73V47.1H72.9L72.8 47.2H72.7H72.6H72.5H72.4H72.3V47.3V47.4V47.5V47.6V47.7V47.8V47.9H72.4V48V48.1V48.2V48.3V48.4H72.5V48.5V48.6H72.6V48.7V48.8V48.9H72.7V49V49.1H72.8V49.2H72.9V49.3H73H73.1V49.4V49.5V49.6V49.7V49.8V49.9V50V50.1H73.2V50.2V50.3V50.4V50.5V50.6V50.7V50.8V50.9L73.3 51V51.1V51.2V51.3V51.4H73.4V51.5H73.5L73.6 51.6V51.7L73.7 51.8V51.9V52H73.8V52.1L73.7 52.2H73.6H73.5V52.3H73.4L73.3 52.2H73.2V52.3H73.1H73V52.4H72.9H72.8V52.5V52.6V52.7H72.9V52.8V52.9V53V53.1H72.8V53.2H72.6H72.4V53.3V53.4V53.5V53.6V53.7V53.8V53.9V54V54.1V54.3V54.4V54.5V54.6V54.7H72.5V54.9V55.1V55.2V55.3H72.4V55.4V55.5V55.6H72.3V55.7H72.4V55.8L72.5 55.9H72.6H72.7H72.8V55.8H72.9H73H73.1H73.2V55.7H73.1V55.6V55.5V55.4V55.3V55.2H73.2H73.3H73.4H73.5H73.6L73.7 55.3V55.4H73.8V55.5V55.6H73.9L74 55.7H74.1V55.8H74.2L74.3 55.9V56H74.4V56.1H74.5V56.2H74.6H74.7V56.3H74.8V56.5V56.6V56.7H74.9H75V56.6H75.1H75.2H75.3H75.4V56.7L75.5 56.6H75.7L75.8 56.5L75.9 56.4H76L76.1 56.5H76.2H76.3V56.6L76.2 56.7V56.8L76.1 56.9H76V57V57.1L75.9 57.2V57.3H75.8V57.4L75.7 57.5V57.6L75.6 57.7L75.5 57.8L75.6 57.9H75.7V58H75.8V58.1V58.2V58.3V58.4V58.5V58.6V58.7V58.8H75.9H76V58.9H76.1V59H76.2L76.1 59.1V59.2V59.3H76V59.4V59.5L76.1 59.6V59.7H76.2H76.3V59.8H76.4V59.9V60H76.3L76.4 60.1H76.3L76.2 60.2H76.1V60.3L76.2 60.4V60.5H76.1V60.6L76.2 60.7H76.1V60.8H76.2H76.3V60.9V61H76.4H76.5V61.1V61.2V61.3H76.6V61.4H76.7V61.5H76.8V61.6V61.7H76.7V61.8V61.9H76.8V61.8H76.9H77V61.9V62H76.9V62.1V62.2H77H77.1V62.3V62.4H77.2V62.5V62.6H77.1V62.7V62.8H77.2V62.9H77.3V63V63.1V63.2H77.4H77.5V63.3H77.6V63.4H77.7H77.8V63.5V63.6V63.7H77.9H78V63.8H78.1V63.9H78H77.9V64H78V64.1H78.1V64.2H78.2V64.1L78.3 63.8V63.7L78.4 63.5V63.3L78.5 63.2H78.6H78.7H78.8V63.3H78.9H79H79.1L79.2 63.4H79.3H79.4V63.5H79.5L79.6 63.6H79.7V63.5L79.8 63.3V63.2L79.9 63.1V63L80 63.1H80.1H80.2H80.3L80.4 63.2H80.5H80.6H80.7H80.8L80.9 63.3H81L81.1 63.5L81.2 63.6L81.3 63.7H81.4V63.8V63.9V64L81.3 64.1V64.2V64.3H81.2V64.4L81.3 64.5L81.2 64.7H81.1V64.8H81V64.9H80.9V65L80.8 65.1H80.7H80.6V65.2L80.5 65.3H80.4V65.4V65.5V65.6L80.3 65.8V66.1V66.2H80.4L80.6 66.3H80.7L80.8 66.4H80.9H81H81.1V66.5H81.2H81.3L81.5 66.6H81.6H81.7V66.7H81.8V66.8H81.9L82 66.9H82.1V67H82.2H82.3V67.1H82.4H82.5H82.6V67.2L82.7 67.3V67.4H82.8V67.5H82.9V67.6H83V67.7H82.9V67.8V67.9H83V68H83.1V68.1H83.2L83.3 68.2V68.3H83.4V68.4H83.5V68.5L83.6 68.6V68.7H83.7V68.8L83.8 68.9H83.9V69H84V69.1L84.1 69.2V69.3H84.2H84.3H84.4V69.4H84.5L84.6 69.5V69.4H84.7H84.8H84.9L85 69.3H85.1H85.2H85.3V69.4H85.4H85.5V69.3L85.7 69.2L85.8 69.1L85.9 69V68.9H86Z" fill="#6F9C76"/>
<path d="M83.6 85.4H83.7H83.8V85.5H83.9H84L84.1 85.4V85.3H84.2V85.2L84.3 85.1H84.4V85L84.5 84.9L84.6 84.8H84.7H84.8V84.7V84.6V84.5V84.4V84.3L84.7 84.2V84.1V84H84.6H84.5V83.9H84.4V83.8V83.7V83.6V83.5H84.5V83.4V83.3H84.6L84.7 83.2L84.8 83.1V83L84.7 82.9V82.8L84.6 82.7V82.6L84.5 82.5V82.4H84.4H84.3V82.3H84.2L84.1 82.2L84 82.1H83.9V82L83.8 81.9L83.7 81.8H83.6V81.7H83.5H83.4V81.6H83.3V81.5H83.2H83.1H83V81.4V81.3V81.2V81.1V81H83.1V80.9V80.8V80.7L83.2 80.6L83.3 80.5H83.4L83.5 80.4V80.3H83.6L83.7 80.2V80.1V80V79.8L83.8 79.6H83.9H84H84.1H84.2H84.3L84.4 79.5L84.5 79.3L84.6 79.2L84.7 79V78.9V78.8V78.7V78.6H84.8V78.5V78.4V78.3H84.9V78.2V78.1L85 78V77.9L85.1 77.7L85.2 77.8L85.7 78.2V77.9V77.7V77.6V77.1V76.9V76.8V76.7V76.4V76.3V76.1V76H85.6V75.9H85.7L85.6 75.8H85.5V75.7H85.4L85.3 75.6L85.2 75.5L84.9 75.3L84.8 75.2L84.6 75L84.4 74.9L84.3 74.8L84.2 74.7H84.1L83.9 74.6L83.8 74.5L83.7 74.4L83.4 74.2V73.9V73.7V73.5V72.9H83.3V72.8V72.7V72.5L83.2 71.8H83.3L83.5 71.7H83.6H83.7H83.8L83.9 71.6H84.2H84.3H84.4V71.5H84.5L84.6 71.6H84.7L84.8 71.5H84.9H85.1H85.3L85.6 71.4H85.7V71.3L85.6 71.2V71.1L85.5 71V70.8L85.7 70.5L85.8 70.4H85.9L86 70.3V70.2L86.1 70.1L86.3 70V69.9H86.4L86.5 69.7L86.6 69.6L86.9 69.3H87V69.2H86.9H86.8H86.7L86.6 69.1H86.5H86.4H86.3L86.2 69H86.1V68.9H86H85.9V69L85.8 69.1L85.7 69.2L85.5 69.3V69.4H85.4H85.3V69.3H85.2H85.1H85L84.9 69.4H84.8H84.7H84.6V69.5L84.5 69.4H84.4V69.3H84.3H84.2H84.1V69.2L84 69.1V69H83.9V68.9H83.8L83.7 68.8V68.7H83.6V68.6L83.5 68.5V68.4H83.4V68.3H83.3V68.2L83.2 68.1H83.1V68H83V67.9H82.9V67.8V67.7H83V67.6H82.9V67.5H82.8V67.4H82.7V67.3L82.6 67.2V67.1H82.5H82.4H82.3V67H82.2H82.1V66.9H82L81.9 66.8H81.8V66.7H81.7V66.6H81.6H81.5L81.3 66.5H81.2H81.1V66.4H81H80.9H80.8L80.7 66.3H80.6L80.4 66.2H80.3M83.6 85.4V85.3M83.6 85.4L83.5 85.3V85.2V85.1H83.4V85L83.3 84.9V84.8H83.2H83.1V84.7H83V84.6H82.9H82.8L82.7 84.7H82.6V84.8H82.5H82.4H82.3V84.7H82.2V84.8L82.1 84.9V85V85.1V85.2V85.3V85.4V85.5H82V85.6V85.7L81.9 85.8V85.9V86V86.1V86.2H81.8V86.3V86.4H81.9V86.5V86.6V86.7V86.8V86.9V87V87.1H82V87.2V87.3L81.9 87.4H81.8V87.5H81.9V87.6H82V87.7H82.1H82.2H82.3H82.4H82.5H82.7H82.8H82.9H83H83.1H83.2H83.3L83.4 87.8L83.5 87.9H83.6H83.7L83.8 87.8H83.9H84.1H84.3L84.4 87.7H84.5V87.8H84.6V87.9L84.7 88V88.1H84.6H84.4H84.3V88.2L84.2 88.5L84.1 88.8L83.9 89.1L83.7 89H83.6L83.4 88.8H83.3L83.2 89V89.1V89.2V89.3L83.1 89.4V89.5L83 89.9V90H82.9L82.7 90.3L82.3 91L82.4 91.3L82.6 91.8L82.8 91.7H83L83.4 91.5L83.5 91.8L83.7 91.7L84.2 91.6L84.3 91.9L84.5 92L84.6 92.2L85 92.1L85.2 92L85.3 91.9H85.4V91.8H85.5V92L85.6 92.1L85.8 92.3V92.4H85.9V92.5H86V92.6L86.3 92.9L86.5 93.2L86.7 93H86.8V92.9H86.9L87.3 92.6L87.4 92.5H87.5V92.6H87.6V92.7L87.7 92.8L87.6 93.2V93.3L87.3 93.7L87.2 93.9L87 94.1L86.9 94.2H86.8V94.3V94.4H86.7V94.5V94.6V94.7V94.9L86.8 95.6H86.2V95.8H85.7V96.5H85.9L86 96.9L86.5 96.8L86.6 97.4H86.1H85.8H85.7V97.5V97.6V97.7L85.8 97.8V97.9V98V98.1V98.2L85.9 98.3L86 98.4H86.2L86.3 98.5L86.4 98.6L86.6 98.7H86.8H86.9H87V98.8L87.2 98.9V99H87.3L87.4 99.3L87.5 99.4L87.6 99.6V99.7H87.7V99.8V99.9H87.8V100V100.1H87.9V100.2L88 100.3V100.4L88.1 100.5H88L87.9 100.7L87.8 100.9L88 101V101.1V101.2V101.3H87.9V101.4L87.8 101.5V101.6L87.7 101.7V101.8V101.9H87.8V102L87.9 102.1L88 102.3L88.1 102.5L88.2 102.6V102.7V102.9L88.3 103V103.1V103.2L88.1 104V104.1L88.2 104.2V104.3H88.1H88V104.2L87.8 104.5V104.6L87.7 105.1L87.6 105.2V105.4L88 105.6V105.7V105.8V105.9V106.2H88.1L88.2 106.3L88.5 106.5L88.6 106.6L88.8 106.5V106.7V106.8V106.9L88.7 107.1H88.6H88.5L88.4 107.2H88.3H88.2H88.1V107.3H88V107.4L88.1 107.7L88.2 108V108.1V108.2L88.3 108.4L88.4 108.8V108.9L88.5 109H88.4V109.1L88.5 109.2V109.3H88.6H88.7H88.8H88.9H89H89.1L89.2 109.2L89.3 109.1L89.5 109.3L89.6 109.4V109.5H89.7V109.6H89.8L89.9 109.7V109.8V109.9V110.1V110.2L90 110.4V110.5V110.6V110.9V111.1L90.1 111.3V111.4L90 111.5H89.9H89.8H89.7L89.6 111.6H89.5V111.7H89.4V111.8L89.3 111.9V112V112.1H89.2H89.1L89 112.2H88.9H88.8H88.7H88.6L88.5 112.3V112.4H88.4H88.3V112.5H88.2H88.1V112.6H88H87.9H87.8L87.7 112.4V112.3V112.2H87.6V112.1H87.5V112H87.4H87.3L87.1 111.9H86.9H86.7H86.6H86.5V112H86.4L86.3 111.9V112H86.2V111.9V111.8V111.7L86.1 111.6V111.5V111.4V111.3H86V111.2H85.9H85.8V111.3H85.7V111.4H85.6H85.5H85.4H85.3V111.5V111.6H85.2V111.7V111.8M85.2 111.8H85.3M85.2 111.8V111.9V112H85.1V112.1L84.9 112.2L84.8 112.1L84.7 112L84.6 111.9L84.3 111.4L84.2 111.3V111.2V111.1H84.1H84H83.9V111.2V111.3L84 111.7L84.1 112V112.1L84.2 112.2L84.1 112.3V112.4V112.5H84V112.6L83.9 112.7L83.8 112.8L83.3 113.4V113.5L83.2 113.4L83.1 113.3H83L82.9 113.4V113.5H82.8L82.7 113.6L82.8 113.7V113.8H82.9H83V113.9V114L82.7 114.3L82.5 114.5H82.4V114.6L82.3 114.7H82.2V114.8H82.1L82.2 114.9V115V115.1L82.1 115.2V115.1V115H82V114.9H81.8L81.7 114.8H81.6H81.5H81.4L81.3 114.7H81.2V114.6H81.1V114.5H81L80.7 114.4L80.6 114.6L80.5 114.8V114.9H80.4L80.3 115L80 115.1H79.9L79.8 114.8V114.6H79.7V114.7H79.6L79.5 114.8L79.4 114.9L79.3 114.8V114.7H79.2V114.6L79.1 114.5L79 114.4L78.9 114.3L78.8 114.2L78.7 114.1H78.6V114H78.5L78.4 113.9H78.3V113.8H78.2V113.7H78.1H78V113.6H77.9L77.8 113.5V113.4H77.7L77.6 113.3V113.2L77.5 113.1L77.4 113H77.3H77.2L77.1 112.9H77L76.9 113L76.7 113.1H76.6L76.3 113.2H76.2H76.1L76 113.3H75.9H75.8H75.7H75.6H75.5H75.4H75.3H75.2H75.1V113.4H75V113.5V113.6H74.9L74.8 113.7V113.8H74.7V113.9V114H74.8V114.1V114.2V114.3V114.4V114.5V114.6V114.7H74.7V114.8V114.9H74.6L74.7 115V115.1H74.8V115.2H74.9V115.3V115.4L74.8 115.5L74.6 115.7L74.4 115.9L74.3 116L74 116.3L73.9 116.4H73.8H73.7H73.6H73.5V116.3H73.4L73.3 116.2L72.9 116L72.8 115.9H72.7L72.5 115.8L72.4 115.7L72.3 115.6V115.5H72.2V115.4H72.1V115.3L72 115.2L71.9 115.1L71.8 115H71.7M71.7 115V114.9H71.6L71.7 115ZM71.7 115V115.1V115.2L71.8 115.3V115.4V115.5V115.6V115.7V115.8H71.9V115.9V116.2L71.7 116.4H71.6H71.5H71.4V116.3H71.3H71.2V116.2V116.1H71.1L71 116H70.8H70.7V115.8L70.6 115.7H70.5H70.4V115.6L70.3 115.7V115.8V115.9V116H70.2H70.1V116.1H70H69.9L69.8 116.3L69.7 116.4H69.6L69.7 116.5L69.8 116.7L70.2 117.2V117.3H70.3L70 117.7L69.9 117.9L69.8 118.1L69.7 118.3V118.4H69.6V118.5H69.5V118.6H69.4L69.1 118.8L69 118.9H68.9L69 119V119.1L69.1 119.2V119.3L69.2 119.4L69.3 119.5L69.4 119.6H69.5L69.6 119.7L69.8 119.9H69.9V120H70V120.1L70.1 120.3V120.4H70.2V120.5V120.6L70.1 120.7H70V120.6H69.9H69.8H69.7L69.5 120.5L69.1 120.4H68.9H68.8L68.7 120.5L68.5 120.4H68.4H68.3L68.2 120.3H68.1H68V120.4H67.8H67.7H67.6H67.4H67.3H67.1H67H66.9H66.8V120.5V120.6H66.9V120.7L66.8 120.8H66.5H66.4H66.3V120.9V121.1V121.2V121.3V121.5V121.6V121.7L66.2 121.6H65.9H65.8H65.7V121.7V121.8L65.6 122V122.1V122.2V122.3H65.5V122.4V122.5V122.6H65.4V122.7V122.8V122.9L65.3 123V123.1V123.2V123.3H65.2V123.4V123.5L64.9 124L64.8 124.2L64.2 125.1H64.1V125.2H64.2V125.3L64.9 125.7L64.8 125.9L64.7 126V126.1V126.3V126.4V126.6H64.8V126.7V126.8L65 127.1V127.2V127.3H65.1V127.4L65.2 127.5L65.3 127.7H65.4V127.8H65.5L65.6 127.9H65.8L65.7 128.3V128.4L65.5 128.8L65.7 129L65.8 129.3L65.7 129.4L65.6 129.3L65.5 129.2V129.3V129.4V129.5H65.4H65.3V129.4H65.2H65.1L65 129.5L65.1 129.6V129.7V129.8H65V129.9V130L64.9 130.1L64.8 130.2H64.7V130.3H64.6V130.4L64.5 130.5L64.6 130.6L64.7 130.7V130.8V130.9H64.6V131H64.5L64.6 131.1V131.2H64.7H64.8V131.3H64.7V131.4H64.6L64.7 131.5H64.8L64.7 131.7V132.1V132.5V132.8L64.6 133.1V133.4L64.7 133.5L64.9 133.9L65 134V134.1H65.1L65.2 134.3L65.4 134.5L65.6 134.7L65.7 134.8V134.9V135V136.5L65.8 136.6V136.7V136.8L65.7 136.9V137.2L65.6 137.3V137.4V137.5H65.7V137.6V137.7L65.8 137.8V137.9V138V138.1V138.2L65.6 138.3V138.5L65.7 138.9L65.8 139V139.2V139.3V139.4V139.5V139.6L65.7 139.7V139.8H65.6L65.5 139.9V140V140.1V140.2V140.3V140.4H65.6V140.5H65.7V140.6H65.8V140.7V140.8H65.9V140.9V141V141.1L66 141.2H66.1V141.3H66.2H66.3V141.5L66.2 141.6V141.7H66.1H66V141.8V141.9H65.9H65.8L65.9 142.1L65.8 142.4L65.7 142.5V142.6L65.6 142.8L65.5 142.9L65.4 143H65.3L65.2 143.1H65.1V143.2H65.2V143.3H65.3L65.4 143.4V143.5V143.6H65.3V143.7H65.2H65.1L65 143.6H64.9H64.8L64.7 143.7H64.6H64.5V143.8H64.4V143.9H64.5V144V144.1V144.2V144.3V144.4V144.5L64.6 144.6V144.7H64.7L64.8 144.6H64.9V144.7V144.8H65V144.9L65.1 145V145.1L65.2 145.2V145.1H65.3V145.2V145.3H65.4M65.4 145.3V145.2M65.4 145.3H65.5V145.4L65.6 145.5V145.6V145.7H65.7L65.6 145.8V145.9H65.5H65.4V146L65.3 146.1L65 146.4L64.9 146.5V146.7L65.1 147.1V147.4L65.2 147.7L65.3 147.8L65.4 147.9L65.5 148V148.1L65.6 148.3L65.7 148.4V148.5V148.6V148.7V148.8L65.6 148.9V149V149.1H65.5V149.2L65.3 149.1L65.2 149.2L65.3 149.5V149.6V149.7V149.8H65.2L65.1 149.7H65H64.9V149.6L64.7 149.8V149.9H64.6V150V150.1H64.5V150.2H64.4V150.3V150.4V150.5V150.6V150.7V150.8H64.3V150.9V151V151.1L64.4 151.2V151.3V151.4H64.3V151.5H64.4V151.6V151.7L64.3 151.8V151.9L64.2 152V152.1V152.2L64.1 152.3L64 152.4L63.9 152.5V152.6V152.7V152.8V152.9L63.8 153V153.1H63.9L63.8 153.2V153.3V153.4V153.5H63.7V153.6V153.7V153.8L63.6 153.9V154V154.1H63.2H62.9H62.8H62.7L62.5 154.3L62.4 154.4V154.9V155.3L62.3 155.7L62.2 155.9L62.1 156L61.9 156.1L61.7 156.2L61.3 156.4L61.1 156.5H60.8L60.5 156.4L60.3 156.2L60.1 156.1V156L59.8 155.5L59.6 155.1L59.5 154.9L59.3 154.7L59.1 154.6L58.8 154.4H58.6L58.4 154.3L58.1 154.4L57.7 154.5L57.3 154.6L57.1 154.8L57 155L56.5 155.6V155.7L56.6 155.8L56.7 156H56.8L57.1 156.2H57.2L57.4 156.3L57.5 156.5L57.7 156.6L57.9 157L58 157.2L58.2 157.6V157.9L58.1 158.1V158.4L57.8 158.7L57.5 158.9L57.3 159L57 159.1H56.7H56.6H56.5V159.2H56.3H56.1L55.8 159L55.4 158.8L55 158.4L54.9 158.3L54.6 158.1L54.4 157.9L54.2 157.8L53.9 157.6L53.7 157.5H53.2L52.8 157.6L52.6 157.7L52.1 158.1L51.9 158.2L51.8 158.4L51.7 158.5L51.6 158.7L51.5 158.8L51.3 159.1L51.1 159.3L50.9 159.4L50.8 159.5L50.7 159.6L50.5 159.7H50.2L50.1 159.8H49.9H49.8L49.5 159.7L49.2 159.6L48.5 159.4L48.2 159.3L48 159.2L47.7 159.1H47.5L47.3 159H47.1H46.9H46.8H46.7L46.6 159.1L46.4 159H46.2L45.9 158.9H45.7L45.4 158.8H45.1L44.9 158.7L44.8 158.6H44.7L44.6 158.4L44.5 158.2V158.1L44.4 158V157.8L44.5 157.7V157.6L44.6 157.5V157.4V157.3H44.5H44.4H44.3H44.1L43.9 157.4L43.8 157.6L43.7 157.7L43.6 157.9L43.4 158.1L43.3 158.2L43.1 158.3H42.8H42.7H42.6H42.3L41.8 158.2H41.6H41.5L41.2 158.3L41 158.4L40.8 158.5L40.6 158.7L40.4 159.2L40.1 159.8L40 160L39.9 160.1V160.2L39.8 160.3H39.7V160.4L39.5 160.5H39.4L39.3 160.6L39.1 160.7L38.8 160.8H38.7H38.5L38.4 160.7H38.2L38 160.6L37.7 160.4H37.6L37.4 160.3V160.2H37.3L37.2 160.1L37.1 160L37 159.8L36.9 159.7H36.8V159.6H36.7L36.6 159.4L36.5 159.2L36.2 158.8L36 158.4L35.9 158.1L35.8 158L35.7 157.9V157.8V157.6V157.5V157.4V157.2L35.8 157L35.9 156.7V156.5L36 156.3L35.9 156.2V155.9L35.7 155.7L35.5 155.6H35.3H35.1H35L34.7 155.7L34.5 155.8L34.3 155.9L34.2 156L34 156.2L33.9 156.3L33.8 156.4L33.7 156.5V156.6L33.6 156.7V156.8V156.9V157V157.2V157.3L33.7 157.4V157.5L33.8 157.6L33.9 157.8L34 158L34.1 158.2L34.2 158.3L34.4 158.6V158.7V158.8V158.9V159.1V159.3L34.3 159.5L34.2 159.7L34.1 159.9L34 160L33.9 160.2L33.8 160.3L33.7 160.4H33.5H33.3L33.2 160.5L33.1 160.4H33H32.9H32.8V160.3H32.7L32.6 160.1L32.5 159.9V159.8L32.4 159.6V159.5V159.3V159.2L32.3 159.1V158.9V158.8L32.2 158.7V158.5L32.1 158.3V158.2V158L32 157.9L31.9 157.8L31.8 157.7L31.7 157.6H31.6V157.5H31.5L31.4 157.4H31.3H31.2H31.1H31H30.9H30.8H30.7V157.5L30.6 157.6V157.8V157.9V158L30.7 158.2L30.8 158.3L30.9 158.5H31L31.2 158.6L31.4 158.7V158.8L31.5 158.9L31.6 159.1L31.7 159.2V159.4V159.5L31.8 159.7V159.8V159.9V160V160.2L31.7 160.4V160.6V160.7V160.8L31.6 161L31.5 161.1L31.3 161.3L31.1 161.4L31 161.5L30.8 161.6H30.7H30.6H30.4H30.3L30.2 161.5H30.1H30L29.7 161.3L29.3 161L29.2 160.9L29 160.7L28.9 160.6L28.7 160.4L28.5 160.2L28.4 160L28.2 159.8L28 159.7L27.9 159.6L27.8 159.5L27.7 159.4H27.5H27.3L27.1 159.3H27H26.8H26.7H26.6L26.3 159.4L26.1 159.5L26 159.6L25.8 159.7L25.7 159.8L25.6 160L25.5 160.1V160.2V160.4V160.5V160.6V160.8L25.6 161L25.8 161.2H26H26.2L26.4 161.3L26.6 161.2L26.7 161.1H26.8H26.9L27 161H27.1L27.2 160.9H27.4H27.6L27.9 160.8L28 160.9H28.1H28.2L28.3 161L28.4 161.1L28.5 161.3V161.4V161.5V161.6V161.8L28.6 161.9V162.1L28.7 162.2L28.8 162.4L28.9 162.5L29.1 162.7H29.2V162.8L29.4 162.9L29.6 163L29.9 163.3L30.1 163.6L30.2 163.8L30.3 164.1V164.2V164.4V164.5L30.2 164.7L30 164.8L29.8 164.9V165H29.7H29.6L29.5 165.1H29.2H28.6H28.5H28.4H28.3H28.2H28.1H28H27.9L27.7 165L27.3 164.7L27.2 164.6L26.9 164.3L26.8 164.2L26.7 164L26.6 163.9L26.5 163.7H26.4V163.6H26.3L26.2 163.5L26.1 163.4H26H25.9L25.8 163.3H25.7L25.6 163.4H25.5H25.4L25.2 163.5L25.1 163.6L25 163.7L24.9 163.8V164.1V164.2H25V164.4V164.5H25.1V164.6V164.7L25.2 164.8V164.9L25.3 165L25.4 165.2V165.3L25.5 165.5L25.6 165.7V165.8L25.7 165.9V166V166.1L25.8 166.2V166.3L25.9 166.4V166.6V166.7V166.8L25.8 166.9L25.7 167.2L25.6 167.3L25.5 167.4L25.3 167.5L25.2 167.6H25L24.9 167.7H24.7H24.5H24.3H24.1H23.9H23.6L23.3 167.6H23.2L23 167.5H22.9L22.7 167.3L22.6 167.2L22.5 167.1L22.3 166.9L22.2 166.8L21.9 166.4V166.3L21.8 166.2L21.7 165.9L21.6 165.6L21.5 165.4L21.3 164.9H21.2L21.1 164.6L20.9 164.3L20.8 164.2L20.7 164.1V164H20.6V163.9L20.5 163.8V163.7L20.4 163.6V163.5L20.3 163.4L20.2 163.3V163.2H20.1V163.1L20 163V162.9L19.9 162.8V162.7L19.6 162.1L19.5 161.9V161.7L19.4 161.4L19.3 161.3V161.2L19.2 161L19.1 160.8L19 160.7L18.8 160.6L18.7 160.5H18.5H18.4H18.3H18.2H18.1H18H17.9L17.8 160.6H17.7L17.4 160.8H17.3L17.2 160.9L16.9 161H16.8H16.7V161.1V160.9L16.6 160.8V160.7V160.6L16.5 160.5H16.4L16.3 160.4H16.2H16.1H16H15.9L15.8 160.5L15.7 160.7L15.6 160.8H15.5V160.9H15.4H15.2H15.1H15L14.9 160.8V160.7H14.8V160.6H14.7V160.5L14.6 160.4L14.5 160.3V160.2L14.4 160.1V160V159.9H14.3V159.8V159.7H14.2V159.6H14.1V159.5L14 159.4H13.9V159.3H13.8V159.2H13.7V159.1H13.6H13.5H13.4L13.3 159.2H13.2V159.3V159.4H13.3V159.5H13.4V159.6V159.7V159.8V159.9V160V160.1V160.2V160.3L13.3 160.4V160.5L13.2 160.6V160.7H13.1H13V160.8H12.9H12.8H12.7H12.6L12.5 160.9V160.8L12.4 160.7V160.6V160.5L12.5 160.4H12.6V160.3L12.7 160.2H12.8V160.1V160V159.9V159.8V159.7L12.7 159.6V159.5H12.6V159.4H12.5H12.4H12.3H12.2H12.1H12H11.9V159.3H11.8H11.7L11.6 159.2H11.5V159.1H11.4V159L11.3 158.9V158.8V158.7V158.6H11.4V158.5V158.4H11.5L11.6 158.3H11.7V158.2H11.8H11.9L12 158.1H12.1H12.2V158H12.3V157.9H12.4V157.8H12.5V157.7V157.6V157.5V157.4V157.3H12.4V157.2L12.3 157.3H12.2H12.1M12.1 157.3H12M12.1 157.3V157.4H12V157.5H11.9H11.8H11.7H11.6L11.5 157.4V157.3H11.6V157.2V157.1V157H11.7V156.9L11.6 156.8V156.7V156.6H11.5H11.4V156.7H11.3H11.2H11.1V156.6H11L10.9 156.5H10.8H10.7V156.4H10.6L10.7 156.3V156.2V156.1M10.7 156.1H10.8M10.7 156.1V156L10.8 155.9V155.8V155.7V155.6V155.5H10.7H10.6V155.4H10.5V155.3H10.4V155.2H10.3H10.2H10.1H10H9.89999H9.8V155.1L9.7 155H9.60001V154.9H9.5H9.39999H9.3V154.8L9.2 154.7H9.10001V154.6V154.5V154.4L9.2 154.3H9.3V154.2H9.39999V154.3H9.5V154.4H9.60001L9.7 154.5H9.8H9.89999H10H10.1H10.2H10.3H10.4V154.4H10.5L10.6 154.3V154.2V154.1H10.7L10.6 154V153.9V153.8L10.5 153.7V153.6H10.4V153.5H10.3H10.2L10.1 153.6H9.89999H9.8V153.7H9.7H9.60001H9.5H9.39999H9.3H9.2H9.10001V153.6V153.5H9V153.4H8.89999L8.8 153.3L8.89999 153.2H9V153.1H9.10001V153.2L9.2 153.1H9.3L9.39999 153V152.9H9.5H9.60001L9.7 152.8V152.7H9.8L9.89999 152.6V152.5V152.4V152.3V152.2V152.1H9.8V152H9.7L9.60001 151.9V152H9.5H9.39999V152.1H9.3V152.2V152.3V152.4H9.2L9.10001 152.5L9 152.6H8.89999V152.7H8.8H8.7V152.6H8.60001V152.7V152.8H8.5H8.39999V152.7H8.3H8.2V152.8H8.10001L8 152.7L7.89999 152.6H7.8V152.5L7.89999 152.4H8L8.10001 152.3V152.2V152.1H8.2V152V151.9H8.3V151.8V151.7V151.6V151.5V151.4H8.39999V151.3H8.5V151.2V151.1V151H8.39999V150.9V150.8H8.3V150.7H8.2H8.10001H8H7.89999L7.8 150.8L7.7 150.9L7.60001 151.1H7.5L7.39999 151.2H7.3H7.2H7.10001H7M7 151.2V151.3M7 151.2H6.89999H6.8L6.7 151.1V151H6.60001V150.9V150.8V150.7H6.5V150.6V150.5V150.4V150.3H6.60001V150.2H6.7V150.1V150H6.60001H6.5V150.1H6.39999H6.3V150.2H6.2H6.10001V150.1H6H5.89999H5.8H5.7V150H5.60001L5.5 149.9V149.8L5.39999 149.7V149.6V149.5V149.4H5.5V149.3H5.60001H5.7H5.8H5.89999H6H6.10001H6.2V149.2V149.1H6.3V149V148.9V148.8V148.7H6.2H6.10001M6.10001 148.7V148.8M6.10001 148.7H6V148.6V148.5H6.10001V148.4H6V148.3H5.89999V148.2V148.1V148L6 147.9V147.8V147.7H6.10001V147.6L6.2 147.5L6.3 147.4L6.39999 147.3V147.2V147.1L6.3 146.9L6.2 146.7V146.6V146.5L6.3 146.4H6.39999V146.3H6.5L6.60001 146.2V146.1V146V145.9V145.8V145.7H6.5V145.6H6.39999H6.3L6.2 145.5H6.10001V145.4V145.3H6L5.89999 145.2H5.8L5.7 145.1H5.60001V145V144.9V144.8V144.7V144.6H5.7V144.5H5.8V144.6H5.89999V144.7V144.8H6V144.9H6.10001L6.2 145H6.3H6.39999H6.5V144.9H6.60001V144.8V144.7H6.7V144.6V144.5V144.4H6.60001H6.5H6.39999L6.3 144.3H6.2L6.10001 144.2H6V144.1H5.89999V144V143.9L6 143.8H6.10001V143.7L6.2 143.6V143.5H6.3V143.4V143.3V143.2H6.39999L6.3 143.1V143V142.9L6.2 142.8V142.7H6.10001H6V142.6H5.89999V142.7H5.8H5.7L5.60001 142.6V142.7H5.5H5.39999H5.3H5.2V142.6H5.10001V142.5H5V142.4V142.3V142.2V142.1V142H4.89999V141.9V141.8V141.7L4.8 141.6V141.5V141.4V141.3H4.89999V141.2V141.1V141H5H5.10001H5.2H5.3V141.1V141.2V141.3V141.4V141.5V141.6L5.39999 141.7H5.5H5.60001H5.7V141.8H5.8H5.89999H6V141.9H6.10001V141.8H6.2V141.7V141.6V141.5V141.4H6.10001V141.3V141.2H6V141.1V141H5.89999V140.9H5.8V140.8H5.89999V140.7L5.8 140.6V140.5H5.7H5.60001V140.4V140.3V140.2H5.7V140.1V140H5.8H5.89999L6 140.1H6.10001V140H6.2L6.3 140.1L6.39999 140.2V140.3V140.4H6.5H6.60001L6.7 140.5H6.8H6.89999H7H7.10001V140.4V140.3H7.2V140.2V140.1H7.3V140H7.39999V139.9H7.3V139.8V139.7V139.6V139.5H7.2L7.10001 139.4H7H6.89999H6.8L6.60001 139.5V139.6L6.5 139.7H6.39999V139.8H6.3H6.2V139.7H6.10001V139.6V139.5V139.4V139.3V139.2V139.1L6 139V138.9H5.89999V138.8H5.8H5.7V138.7H5.60001H5.5V138.6H5.39999V138.5V138.4H5.3V138.3L5.39999 138.2V138.1L5.5 138V137.9V137.8V137.7V137.6V137.5V137.4H5.39999V137.3H5.3V137.2V137.1H5.2H5.10001H5H4.89999L4.7 137L4.60001 136.9H4.5V136.8V136.7H4.39999V136.6V136.5V136.4H4.5V136.3H4.60001H4.7H4.8H4.89999V136.2H5V136.1V136V135.9V135.8H4.89999V135.7L4.8 135.6V135.5H4.7V135.4V135.3H4.8V135.2H4.89999V135.1V135H5V135.1L5.10001 135V134.9V134.8H5V134.7L4.89999 134.6V134.5V134.4H4.8V134.3H4.7V134.2V134.1M4.7 134.1H4.60001M4.7 134.1V134V133.9H4.60001V133.8V133.7L4.7 133.6V133.5H4.8H4.89999H5V133.4H5.10001H5.2H5.3V133.3H5.39999V133.2H5.5H5.60001V133.1H5.7V133V132.9V132.8H5.60001V132.7V132.6L5.5 132.5H5.39999L5.3 132.4H5.2H5.10001H5H4.89999V132.5L4.8 132.6V132.7L4.7 132.8V132.9L4.60001 133L4.5 133.1H4.39999V133.2H4.3H4.2V133.1H4.10001L4 133V132.9H3.89999V132.8H3.8L3.7 132.7V132.6L3.60001 132.5V132.4H3.7V132.3H3.60001V132.2V132.1H3.7H3.8H3.89999H4H4.10001H4.2H4.3V132V131.9H4.39999V131.8H4.3V131.7H4.2V131.6V131.5H4.10001V131.4V131.3V131.2V131.1V131V130.9V130.8H4.2V130.7V130.6H4.3V130.5H4.39999V130.4L4.5 130.3V130.2V130.1H4.60001V130V129.9H4.7V129.8V129.7H4.8V129.6V129.5V129.4V129.3V129.2V129.1V129H4.7V128.9H4.60001H4.5V128.8H4.39999H4.3L4.2 128.7H4.10001H4V128.6H3.89999H3.8V128.5H3.7H3.60001H3.5V128.4H3.39999V128.3H3.3V128.2V128.1H3.2V128H3.3V127.9H3.2L3.3 127.8V127.7V127.6H3.39999H3.5V127.5M3.5 127.5H3.60001M3.5 127.5V127.4H3.60001H3.7V127.5H3.8H3.89999L4 127.6H4.10001V127.7H4.2H4.3H4.39999H4.5V127.6H4.60001L4.7 127.5H4.8V127.4V127.3H4.89999V127.2H5V127.1V127V126.9L4.89999 126.8V126.7H4.8H4.7V126.6H4.60001H4.5V126.7H4.39999H4.3H4.2H4.10001H4H3.89999H3.8H3.7V126.6H3.60001H3.5V126.5L3.39999 126.4L3.3 126.3V126.2H3.2V126.1V126H3.3V125.9L3.39999 125.8V125.7H3.5L3.60001 125.6H3.7H3.8H3.89999V125.5H4H4.10001H4.2V125.6H4.10001V125.7H4.2H4.3H4.39999H4.5L4.60001 125.8L4.7 125.7H4.8V125.8H4.89999H5V125.7H5.10001L5.2 125.6H5.10001V125.5M5.10001 125.5H5.2M5.10001 125.5V125.4H5.2V125.3V125.2V125.1V125V124.9V124.8H5.10001V124.7H5H4.89999V124.6H4.8H4.7V124.5H4.60001V124.4V124.3H4.5V124.2H4.39999V124.1L4.3 124V123.9V123.8V123.7H4.39999V123.6H4.3V123.5H4.39999H4.5H4.60001H4.7L4.8 123.4V123.3V123.2V123.1V123V122.9H4.7V122.8H4.60001L4.5 122.7L4.3 122.5L4.2 122.4L4.10001 122.3L3.89999 122.1L3.8 122L3.7 121.9V121.8L3.60001 121.7V121.6V121.5V121.4V121.3V121.2L3.7 121.1V121H3.8L3.89999 120.9L4.10001 120.8H4.2V120.7H4.3H4.39999H4.5H4.60001L4.7 120.6H4.8L4.89999 120.5L5 120.4H5.10001V120.3H5.2V120.2V120.1H5.10001H5H4.89999H4.8H4.7H4.60001L4.5 120.2H4.39999L4.3 120.1H4.2H4.10001V120H4V119.9V119.8L4.10001 119.7V119.6L4.2 119.5H4.3V119.4V119.3V119.2V119.1H4.2V119H4.3V118.9H4.2V118.8H4.3H4.39999V118.7H4.3V118.6H4.39999V118.5V118.4H4.5H4.60001V118.3V118.2V118.1V118V117.9V117.8V117.7V117.6V117.5V117.4V117.3V117.2M4.60001 117.2H4.5M4.60001 117.2V117.1V117H4.5V116.9L4.39999 117V116.9V116.8V116.7V116.6V116.5M4.39999 116.5H4.3M4.39999 116.5V116.4H4.3V116.3H4.39999L4.3 116.2V116.1L4.2 116V115.9V115.8H4.3M4.3 115.8V115.9M4.3 115.8H4.39999V115.7M4.39999 115.7H4.3M4.39999 115.7H4.5L4.60001 115.6V115.5M4.60001 115.5L4.7 115.6V115.5H4.60001ZM4.60001 115.5V115.4H4.5L4.39999 115.3H4.3H4.2H4.10001V115.2V115.1H4.2V115V114.9V114.8H4.3V114.7V114.6V114.5M4.3 114.5H4.39999M4.3 114.5V114.4H4.2V114.3V114.2H4.10001V114.1H4V114V113.9V113.8H3.89999V113.7V113.6V113.5H4V113.4V113.3H4.10001V113.2H4.2H4.3V113.3V113.4H4.39999V113.5H4.5V113.6H4.60001V113.5H4.7H4.8V113.4H4.89999V113.3M4.89999 113.3H5M4.89999 113.3V113.2V113.1H4.8V113H4.89999V112.9H4.8V112.8H4.7H4.60001V112.7H4.5H4.39999H4.3H4.2V112.6H4.10001H4H3.89999V112.5H3.8V112.4H3.89999V112.3H4V112.2H4.10001V112.1V112H4.2V111.9V111.8V111.7V111.6H4.10001V111.5H4V111.4H3.89999V111.3M3.89999 111.3H4M3.89999 111.3V111.2H3.8V111.1M3.8 111.1V111M3.8 111.1H3.7V111M3.7 111V110.9M3.7 111L3.60001 110.9V110.8V110.7V110.6V110.5V110.4V110.3H3.7V110.2L3.8 110.1V110L3.89999 109.9V109.8V109.7H4V109.6H4.10001V109.5M4.10001 109.5H4.2M4.10001 109.5V109.4H4.2V109.3V109.2H4.10001V109.1H4V109V108.9H3.89999V108.8H4V108.7H4.10001L4.2 108.8H4.3H4.39999H4.5V108.7V108.6H4.60001V108.5H4.5V108.4H4.39999V108.3L4.3 108.2H4.39999V108.1H4.5V108H4.60001H4.7V107.9H4.8V107.8H4.7V107.7H4.60001L4.5 107.6V107.5V107.4V107.3H4.39999V107.2V107.1H4.5V107V106.9H4.60001V106.8H4.7H4.8H4.89999H5H5.10001L5.2 106.9H5.3V106.8H5.39999H5.5H5.60001H5.7H5.8H5.89999H6L6.10001 106.9H6.2H6.3H6.39999V107H6.5V107.1H6.60001V107V106.9H6.7V106.8V106.7L6.8 106.6H6.7V106.5V106.4H6.60001V106.3L6.5 106.2V106.1H6.60001L6.7 106V105.9H6.8V106L6.89999 105.9H7V105.8L7.10001 105.7H7.2V105.6H7.3V105.5V105.4V105.3L7.2 105.2H7.10001V105.1H7V105H6.89999H6.8V104.9H6.7V104.8H6.60001V104.7H6.5V104.6V104.5V104.4V104.3H6.60001H6.7H6.8M6.8 104.3V104.2M6.8 104.3H6.89999V104.4H7H7.10001V104.5H7.2V104.4H7.3V104.3V104.2H7.2L7.10001 104.1V104H7V103.9H6.89999V103.8V103.7V103.6H7H7.10001H7.2V103.5H7.3M7.3 103.5V103.6M7.3 103.5H7.39999V103.4V103.3H7.3V103.2L7.2 103.1H7.10001V103H7V102.9H6.89999V102.8H6.8V102.7L6.7 102.6V102.5H6.8V102.4H6.89999V102.3V102.2L7 102.1V102V101.9V101.8L6.8 101.6L6.7 101.5L6.60001 101.3H6.5L6.3 101.2L6.2 101H6.10001L6 100.9L5.89999 100.8L5.8 100.7L5.7 100.6V100.5V100.4V100.3V99.7V99.3V99.2H5.8V99.1V99V98.9V98.8H5.89999V98.7H6H6.10001H6.2V98.8V98.9H6.3V99H6.39999V99.1H6.5H6.60001V99V98.9V98.8V98.7V98.6V98.5V98.4H6.5V98.3H6.39999H6.3H6.2H6.10001L6 98.2V98.1H6.10001V98H6.2V97.9H6.3V97.8L6.39999 97.7V97.6L6.5 97.5L6.60001 97.4V97.3H6.7V97.2H6.60001H6.5L6.39999 97.1H6.3H6.2L6.10001 97H6L5.89999 96.9H5.8L5.7 96.8H5.60001H5.5V96.7H5.39999V96.6V96.5H5.5H5.60001L5.7 96.4L5.8 96.3L5.89999 96.2V96.1V96H5.8V95.9H5.89999V95.8V95.7M5.89999 95.7V95.6M5.89999 95.7H6V95.6V95.5V95.4V95.3M6 95.3H5.89999M6 95.3V95.2V95.1H6.10001V95H6.2V94.9V94.8H6.10001H6V94.7H5.89999H5.8L5.7 94.6M5.7 94.6H5.60001M5.7 94.6V94.5H5.60001L5.7 94.4H5.8V94.3H5.89999L5.8 94.2L5.7 94.1V94L5.60001 94.1H5.5V94L5.3 93.8L5.2 93.6V93.5H5.10001L4.89999 93.6L4.8 93.5L4.7 93.4L4.60001 93.3H4.5V93.2L4.39999 93.1L4.3 93L4.2 92.9L4.10001 92.7V92.6L4 92.5V92.4H4.10001V92.3H4L4.3 92H4.39999V91.9L4.5 91.8V91.7V91.6H4.39999V91.5L4.2 91.4V91.3L4.10001 91.2V91.1V91H4V90.9L3.89999 90.8V90.7H3.8V90.6H3.89999V90.5V90.3V90.2V90.1V90V89.9V89.8V89.7V89.6V89.5V89.4V89.3V89.2V89.1L3.8 89V88.9V88.8V88.7V88.6V88.5H3.7L3.60001 88.4L3.5 88.3V88.2H3.39999V88.1H3.3L3.2 88H3.10001V87.9H3H2.89999V87.8H2.8H2.7V87.7V87.6H2.60001V87.5L2.5 87.4L2.39999 87.3L2.3 87.2V87.1H2.2V87L2.10001 86.9H2V86.8V86.7V86.6H1.89999H1.8V86.5H1.7H1.60001H1.5V86.4V86.3L1.60001 86.2V86.1L1.7 86L1.8 85.9H1.89999V85.8H2V85.7H2.10001L2.2 85.6L2.3 85.5V85.4H2.2V85.3L2.3 85.2V85V84.9V84.8V84.7V84.6H2.39999V84.5L2.60001 84.3H2.7V84.2L2.8 84.1V84H2.89999V83.9L3 83.8V83.7V83.6L3.10001 83.5V83.4V83.3H3.2H3.3V83.2H3.39999H3.5H3.60001V83.1H3.7H3.8V83V82.9V82.8H3.89999V82.7H4V82.8H4.10001H4.2H4.3H4.39999L4.5 82.9V83V83.1H4.39999V83.2V83.3H4.5V83.4V83.5H4.60001H4.7H4.8H4.89999V83.4H5H5.10001V83.3H5.2V83.2H5.3H5.39999V83.1M5.39999 83.1H5.3M5.39999 83.1V83V82.9H5.3V82.8H5.2V82.7V82.6V82.5V82.4H5.10001V82.3V82.2V82.1V82L5.2 81.9V81.8H5.10001V81.7V81.6V81.5H5V81.4L4.89999 81.3L4.8 81.2V81.1V81V80.9V80.8H4.89999V80.7H5H5.10001V80.6V80.5V80.4V80.3V80.2V80.1V80L5 79.9L4.89999 79.8H4.8V79.7L4.7 79.6V79.5V79.4H4.60001V79.3H4.5V79.2V79.1V79H4.39999V78.9V78.8V78.7V78.6H4.5H4.60001H4.7H4.8V78.5H4.89999V78.4V78.3H5V78.2H5.10001V78.1H5.2V78V77.9V77.8H5.3L5.39999 77.7H5.5V77.6H5.60001V77.5H5.7V77.4V77.3H5.8V77.2V77.1H5.89999V77V76.9V76.8V76.7V76.6L6 76.5H6.10001H6.2V76.4H6.3H6.39999H6.5V76.5H6.60001L6.7 76.6H6.8L6.89999 76.7H7L7.10001 76.8H7.2V76.7L7.3 76.6L7.39999 76.5H7.5L7.60001 76.4V76.3V76.2H7.7V76.1V76L7.60001 75.8V75.7L7.5 75.6V75.5L7.39999 75.4V75.3V75.2L7.5 75.1H7.60001H7.7H7.8H7.89999V75H8L8.10001 74.9L8 74.8V74.7L7.89999 74.6V74.5V74.4V74.3V74.2V74.1V74L7.8 73.9V73.8H7.7V73.7L7.60001 73.6H7.5L7.39999 73.5H7.3V73.4L7.2 73.3L7.10001 73.2L7 73.1V73H6.89999V72.9H6.8V72.7L6.7 72.6V72.5L6.60001 72.2L6.5 72.1V72H6.39999L6.2 71.9L6.10001 71.8H6H5.89999L5.8 71.7L5.7 71.6L5.60001 71.5V71.4V71.3H5.5H5.39999V71.2H5.3L5.2 71.1H5.10001H5L4.89999 71H4.8L4.7 70.9H4.60001H4.5H4.39999H4.3L4.2 70.8H4.10001L4 70.7V70.6V70.5H3.89999L4 70.4H4.10001V70.3H4.2V70.2L4.3 70.1V70H4.39999V69.9L4.5 69.8V69.7H4.60001V69.6V69.5H4.7L4.8 69.4L4.89999 69.3L5 69.2V69.1L5.10001 69V68.9V68.8H5.2V68.7H5.3H5.39999H5.5L5.60001 68.6H5.7H5.8V68.5H5.89999H6V68.4H6.10001L6.3 68.2L6.39999 68.1H6.5L6.60001 68V67.9L6.5 67.8V67.7V67.6V67.5V67.4V67.3V67.2V67.1V67V66.9L6.39999 66.8V66.7L6.3 66.6V66.5V66.4V66.3V66.2L6.2 66.1V66V65.9H6.3H6.39999V65.8V65.7H6.5L6.39999 65.6H6.3H6.10001L6 65.5H5.89999H5.8V65.4H5.7V65.3H5.60001V65.2V65.1V65L5.8 64.5V64.4V64.3H5.7V64.2L5.60001 64.1V64H5.5H5.39999V63.9H5.3V63.8V63.7V63.6V63.5H5.39999V63.4L5.3 63.3V63.2H5.2V63.1V63H5.10001V62.9H5H4.89999V62.8V62.7H4.8V62.6V62.5V62.4V62.3V62.2V62.1H4.7H4.60001H4.5H4.39999H4.3V62V61.9L4.2 61.8V61.7H4.10001V61.6L4 61.5H3.89999V61.4V61.3V61.2V61.1L3.8 61H3.7V60.9H3.60001V60.8L3.7 60.7V60.6H3.60001V60.5V60.4V60.3L3.7 60.2V60.1H3.60001M3.60001 60.1V60.2M3.60001 60.1H3.5H3.39999H3.3V60V59.9H3.39999V59.8H3.5L3.7 59.5L3.8 59.4L3.89999 59.3V59.2H4V59.1L4.10001 59V58.9L4.3 58.8L4.39999 58.6M4.39999 58.6H4.5M4.39999 58.6V58.5H4.3L4.2 58.3V58.2H4.10001L4 58.1H3.89999L3.8 58H3.7V57.9H3.60001H3.5H3.39999H3.3H3.2V57.8H3.10001H3V57.7H2.89999V57.6H2.8H2.7V57.5L2.60001 57.4H2.5V57.3V57.2V57.1V57V56.9V56.8L2.3 56.7V56.6H2.2H2.10001H2V56.5L1.89999 56.4L1.60001 56.3H1.5H1.3L1.10001 56.2L1 56.1V56V55.8V55.6L1.10001 55.5V55.4L1.2 55.3V55.2H1.3V55.1M1.3 55.1H1.2M1.3 55.1V55V54.9H1.39999V54.8H1.5L1.60001 54.7H1.8V54.6H1.89999L2 54.5H2.10001V54.4H2.2H2.3L2.39999 54.3L2.5 54.2H2.60001H2.7L2.60001 54L2.39999 53.7L2.3 53.4L2.2 53.3V53.1L2.10001 52.6H2V52.5L1.89999 52V51.9L1.7 51.5L1.60001 51.2V51.1L1.7 51L1.8 50.9V50.8V50.7V50.6V50.5V50.1V50L1.89999 49.9H2H2.10001V49.8V49.7V49.6L2.2 49.5V49.4L2.3 49.3H2.39999H2.5H2.60001L2.7 49.2H2.8V49.1H2.89999L2.8 48.9V48.8H2.89999V48.7M2.89999 48.7H2.8M2.89999 48.7V48.6H3H3.10001H3.2H3.3L3.39999 48.7H3.5H3.60001H3.7H3.8H3.89999H4H4.2H4.3H4.39999H4.5V48.6V48.5V48.4H4.60001V48.3V48.2V48V47.9V47.8L4.7 47.7V47.5L4.8 47.4V47.3V47.2V47.1L4.89999 47V46.9V46.8H4.8H4.7H4.60001L4.7 46.6H4.60001H4.5H4.39999V46.5H4.3H4.2H4.10001H4H3.89999H3.8V46.4H3.7V46.3H3.60001H3.5L3.39999 46.2H3.3V46.3L3.2 46.2V46.1L3.3 46H3.39999V45.9H3.5H3.60001V45.8H3.7L3.8 45.7H3.89999V45.6H4V45.5H4.10001L4.2 45.4L4.3 45.3H4.39999V45.2H4.5H4.60001H4.7H4.8H4.89999H5H5.10001H5.2L5.3 45V44.9V44.7V44.6V44.5H5.39999H5.60001H5.7V44.4H5.8V44.3H5.7V44.2V44.1H5.60001L5.7 44V43.9H5.60001V43.8H5.5V43.7V43.5V43.4H5.39999V43.3H5.3V43.2H5.2L5.10001 43.1L5 43H4.7L4.5 42.9V42.8M4.5 42.8H4.39999M4.5 42.8V42.6L4.7 42.1L4.39999 41.9V41.8L4.5 41.6V41.5V41.4L4.60001 41.3V41.2V41.1V41V40.9V40.8H4.5V40.7V40.6V40.5H4.39999V40.4H4.5H4.7L4.89999 40.3H5.3H5.39999H5.5L5.7 40.2H5.8H6.10001H6.2H6.3H6.39999L6.60001 40.1H6.8H6.89999H7H7.10001H7.39999H7.5H7.60001L8.10001 40V39.8V39.7V39.6V39.5V39.4V39.2L7.89999 39.1L7.8 39L7.7 38.9H7.60001V38.8L7.3 38.6L7.2 38.5L7.10001 38.4L7 38.3L6.8 38.2L6.7 38.1L6.60001 38H6.5L6.39999 37.9L6.2 37.8V37.7V37.6L6.3 37.5L6.60001 36.8H6.5L6.39999 36.7H6.3H6.2L6.10001 36.8H6V36.9H5.89999H5.8H5.7H5.60001V36.8V36.7V36.6H5.5L5.39999 36.5H5.3V36.4H5.2V36.3H5.10001V36.2H5V36.1H4.89999V36H4.8V35.9V35.8H4.89999L5.3 35.7V35.6L5.2 35.5V35.4V35.3H5.3V35.2H5.39999L5.5 35.1L5.39999 35L5.3 34.9L5.2 34.7L5.10001 34.6V34.5H5V34.4V34.3L5.10001 34.2L5.3 34.1H5.39999V34H5.5V34.1H5.60001V34.2H5.7V34.3V34.4H5.8V34.5L5.89999 34.6V34.5H6H6.10001H6.2H6.3H6.39999M6.39999 34.5V34.4M6.39999 34.5L6.5 34.4H6.60001H6.7V34.3V34.2H6.8H6.89999V34.1H7M7 34.1V34.2M7 34.1V34H7.10001H7.2H7.3V33.9H7.39999H7.5V34H7.60001V34.1H7.7H7.8H7.89999H8V34H8.10001V33.9H8.2V33.8H8.3L8.39999 33.7H8.5M8.5 33.7H8.60001M8.5 33.7V33.8H8.60001H8.7H8.8M8.8 33.8V33.9M8.8 33.8H8.89999V33.7V33.6V33.5V33.4H9V33.3H9.10001L9.2 33.2V33.1V33H9.3V32.9H9.39999L9.5 32.8V32.7V32.6H9.60001L9.7 32.5V32.4V32.3V32.2V32.1H9.60001V32H9.5V31.9H9.60001V31.8V31.7H9.7V31.6V31.5V31.4V31.3H9.8H9.89999V31.2H10H10.1V31.1H10.2V31V30.9V30.8H10.3M10.3 30.8V30.9M10.3 30.8H10.4V30.7V30.6H10.5M10.5 30.6V30.7M10.5 30.6V30.5H10.6V30.4H10.7V30.3V30.2M10.7 30.2H10.6M10.7 30.2L10.6 30.1M10.6 30.1H10.7M10.6 30.1V30H10.7V29.9H10.8H10.9V29.8H11V29.7H11.1V29.6H11.2H11.3H11.4V29.5H11.5M11.5 29.5V29.6M11.5 29.5H11.6V29.4M11.6 29.4H11.5M11.6 29.4V29.3H11.7M11.7 29.3V29.4M11.7 29.3H11.8H11.9H12V29.2V29.1H12.1V29H12.2V28.9H12.3V28.8H12.4L12.5 28.7V28.6V28.5V28.4V28.3H12.6H12.7V28.2H12.8H12.9H13H13.1V28.3H13.2V28.2H13.3V28.3H13.4V28.2H13.5H13.6V28.1V28H13.7V27.9H13.6V27.8M13.6 27.8H13.5M13.6 27.8H13.7V27.7H13.6V27.6H13.7H13.8M13.8 27.6V27.5M13.8 27.6H13.9V27.5V27.4H14H14.1M14.1 27.4V27.3M14.1 27.4H14.2V27.3H14.3V27.2H14.4V27.3H14.5H14.6M14.6 27.3H14.7M14.6 27.3V27.4H14.7M14.7 27.3V27.4M14.7 27.3H14.8M14.7 27.4L14.8 27.3M14.7 27.4H14.8M14.8 27.3V27.4M14.8 27.4H14.9H15M15 27.4V27.5H14.9M15 27.4H15.1V27.5H15.2V27.4H15.3M15.3 27.4H15.4M15.3 27.4V27.5H15.4M15.4 27.5H15.5M15.4 27.5V27.6H15.5V27.5M15.5 27.5H15.6H15.7M15.7 27.5V27.6M15.7 27.5H15.8V27.4H15.9V27.5V27.6H16M16 27.6V27.5M16 27.6H16.1H16.2V27.5H16.3V27.6H16.4H16.5H16.6V27.5M16.6 27.5H16.5M16.6 27.5V27.4H16.7H16.8V27.3H16.9V27.4H17V27.3H17.1H17.2L17.3 27.4H17.2V27.5H17.1V27.6H17.3H17.5H17.7H17.9H18H18.1L18.2 27.5L18.3 27.4L18.4 27.3L18.5 27.2H18.7H19L19.2 27.3V27.4H19.4H19.5L19.7 27.5H19.8L19.9 27.3L19.2 27L19.3 26.9L19.4 26.8L19.5 26.7L19.4 26.6L19.3 26.5L19.2 26.4V26.3H19.3L19.2 26.2V26.1V26L19.3 25.9L19.4 25.8H19.5H19.6V25.9H19.7V25.8L19.8 25.7H19.9L20 25.8L20.2 26L20.3 25.9V25.8V25.7L20.2 25.6H20.1L20 25.5V25.4V25.3L20.1 25.2L20.3 25.3V25.2V24.9V24.8L20.4 24.7H20.5H20.6L20.7 24.6V24.5V24.3L20.6 24.2L20.5 24.1L20.9 23.6L21 23.7L21.2 24L21.5 23.9H21.6H22L21.8 23.3L21.7 23L21.9 23.1H22.1H22.3H22.5H22.6L22.7 22.9V22.8V22.7H22.6L22.5 22.6L22.2 22.1H22.3L22.4 22H22.5L23.1 21.7L23.4 21.6L23.5 21.5L23.8 21.3H23.9V21.2L24 21.1V21V20.9V20.8V20.7V20.6H24.1V20.5V20.4H24.2V20.3L24.3 20.2V20L24.4 19.9L24.7 19.1L24.8 19H24.9H25L25.3 18.9H25.4H25.5L25.7 18.8V18.9H25.8H25.9H26V19H26.1H26.2V19.1H26.3L26.7 19.2L27 19.4V19.3V19.2H27.1V19.1V19V18.9L27.2 18.8V18.7V18.6V18.5L27.3 18.4V18.3V18.2L27.4 18.1V18V17.8L27.5 17.7V17.6V17.5V17.4L27.6 17.3V17.2H27.7H27.8V17.3H27.9H28H28.1H28.2H28.3H28.4H28.5V17.4H28.6H28.7L28.8 17.3V17.2V17.1V16.9L28.9 16.7V16.6V16.5V16.4L29 16.2V16.1V16V15.9L29.1 15.8V15.7V15.5V15.4V15.3H29.2V15H29.4H29.5V15.1H29.6H29.7H29.8L30 15.2H30.2H30.3V15.1V15V14.9V14.8L30.4 14.7V14.6V14.5V14.4V14.2V14.1V13.9V13.8V13.5V13.3V13.2L30.5 13M30.5 13V12.9M30.5 13H30.6H30.7L30.8 13.1H30.9H31H31.1H31.4H31.5V12.6L31.6 12.5V12.4H31.5V12.3L31.4 12.2H31.3L31.2 12.1H31.1V12H31L31.1 11.9V11.7H31.2L31.4 11.6V11.5V11.4V11.3V11.2V11.1V11V10.9H31.5L31.4 10.8V10.7V10.6V10.5V10.4H31.6V10.3H31.9V10.4V10.5L32 10.6V10.7V10.8V10.9L31.9 11V11.1V11.2L31.8 11.3V11.4V11.5H31.7V11.7H31.9L32.2 11.6H32.4L32.6 11.5V11.6H32.7L32.9 11.7V11.5L33 11.4V11.3V11.2H33.1V11.3L33.2 11.4V11.5H33.3V11.4L33.4 11.3V11.2L33.5 11.3H33.6H33.7H33.8H33.9V11.2H34V11V10.9V10.8H34.1V10.6H33.9L33.7 10.7H33.6H33.5H33.4V10.9H33.3L32.8 11H32.7V10.9V10.6V10.5H32.8L33 10.4H33.1L33 9.89999L33.1 9.8L33 9.7L33.1 9.60001L32.9 9.5L33 9.39999V9.3H33.2V9.39999H33.4H33.5L33.6 9.2L33.7 9.10001V9V8.89999V8.8L33.6 8.7H33.5L33.6 8.60001V8.5H33.7H33.8H33.9L34 8.39999H34.1H34.2H34.3H34.4H34.5L34.6 8.5H34.7H34.8H34.9H35H35.1V8.39999H35.2H35.4H35.5H35.6V8.3V8.10001L35.7 8V7.89999L35.6 7.7V7.5L35.7 7.39999L35.8 7.10001L36 7V6.89999V6.8H36.1H36.2H36.4V6.89999L36.5 7.10001L36.6 7.39999L36.8 7.5L36.9 7.60001H37L37.2 7.8L37.4 7.89999H37.5L37.7 7.5V7.39999L37.9 7.3V7.2H38L38.3 7L38.4 6.89999L38.5 6.60001V6.39999L38.6 6.2L38.7 6.10001V6V5.89999H38.8V5.8H38.9V5.7L39 5.60001H39.1V5.5H39.2V5.39999H39.3L39.4 5.2L39.6 5.10001L39.7 5L40 5.2L40.1 5.3V5.39999H40.2L40.3 5.5L40.5 5.60001V5.7H40.6H40.7H40.8L41 5.8H41.1L41.2 5.89999L41.3 6H41.4V6.10001H41.5L41.6 6.2H41.7H41.8V6.3L41.9 6.2H42H42.1V6.3H42.2H42.3H42.4H42.5H42.7H42.9H43H43.1V6.39999H43.2H43.3V6.5H43.4H43.5V6.60001H43.6V6.7H43.7L43.9 6.8V6.7L44 6.60001V6.5V6.39999L44.1 6.3V6.10001L44.2 6L44.4 5.89999L44.5 5.8H44.6L44.7 5.7L45.1 5.5L45.2 5.39999V5.3V5.2L45.3 5.10001L45.4 4.8V4.60001L45.6 4.2V4H45.8L45.9 4.10001H46H46.1L46.3 4.2H46.4H46.5L46.6 4.3H46.7H46.8L46.9 4.39999H47L47.1 4.5H47.2H47.3H47.4L47.5 4.60001H47.6H47.7H47.8H47.9H48H48.1H48.4L48.6 4.3L48.5 4.2L48.4 4.10001H48.3V4L48 3.7L48.1 3.60001V3.5H48.2V3.39999V3.3H48.3V3.2V3.10001V3L48.4 2.8V2.7V2.60001H48.5H48.6H48.7L48.6 2.5L48.7 2.3V2.10001L48.8 2L48.9 2.10001L49 2.2L49.1 2.3H49.2V2.10001L49.3 2V1.89999V1.8V1.7H49.4H49.5V1.8H49.6H49.7L49.8 1.89999H49.9V2H50V1.89999H50.1V1.8L50.2 1.7V1.60001V1.5V1.39999H50.3H50.4L50.3 1.3H50.4V1.2H50.5H50.6L50.7 1.10001V1.2V1.3V1.39999H50.8V1.5H50.9H51V1.60001H51.1H51.2H51.3V1.7V1.8V1.89999L51.2 2.2H51.3L51.2 2.7H51.1V2.8H51V2.89999L51.1 3L51.2 3.2V3.3V3.39999L51.3 3.5V3.60001V3.7V3.8H51.4H51.5H51.6H51.7L51.9 3.7H52H52.2H52.3L52.4 3.60001H52.5L52.7 3.7H52.8H52.9H53H53.1H53.2V3.8H53.3H53.4H53.6H53.7H53.8H54H54.2H54.3H54.4L54.5 3.7H54.6H54.7V3.8V3.89999V4.10001V4.2V4.3V4.39999V4.5L54.8 4.7V4.8L54.9 4.89999V5H55V5.10001V5.2L55.1 5.3V5.39999V5.5V5.7L55.2 5.89999V6V6.10001H55.3L55.4 6.2L55.6 6.3H55.8L55.9 6.39999H56L56.1 6.5M56.1 6.5H56.2M56.1 6.5V6.60001V6.7L56.2 6.8H56.3H56.4L56.7 7L56.9 7.10001L57.2 7.3L57.5 7.5H57.6L57.8 7.60001L58 7.89999V8L57.9 8.7L58 8.8V8.89999V9L58.1 9.10001H58.2V9.2V9.3H58.3H58.5L58.6 9.39999H58.7H58.8L58.9 9.3L59 9.2H59.1H59.2L59.3 9.10001H59.4H59.5V9.2L59.6 9.10001H59.7H59.8L59.9 9.2M59.9 9.2H60M59.9 9.2V9.3V9.39999V9.5V9.60001L59.8 9.7V9.8V9.89999H59.7V10L59.6 10.1V10.2L59.5 10.3V10.4L59.4 10.5V10.6V10.7V10.8V10.9V11V11.1V11.2V11.3V11.4V11.7H59.5V11.8V11.9V12H59.4V12.1V12.2L59.3 12.3L59.2 12.4L59 12.7V12.8L58.9 12.9V13L58.8 13.2H58.7V13.3H58.6V13.4L58.5 13.5L58.4 13.7L58.3 13.8V13.9L58.2 14V14.1L58.1 14.2V14.3L57.9 14.4L57.8 14.6V14.7V14.8L57.7 15V15.2V15.3L57.6 15.5V15.6L57.5 16.3L57.3 17.1L57.5 17.3H57.7L57.9 17.5L58.1 17.6H58.2L58.4 17.7L58.5 17.8H58.6H58.7V17.9L58.9 18L59.2 18.1L59.8 18.5H59.9M59.9 18.5V18.4M59.9 18.5H60.1L60.2 18.6L60.5 18.8L61 19.1V19.2H60.9V19.3V19.4H61V19.5V19.6V19.7V19.9V20.1V20.2M61 20.2H61.1M61 20.2L60.9 20.6V20.7V20.8H60.8L60.7 21L60.6 21.1V21.2L60.5 21.3V21.4L60.6 21.5V21.7V21.8L60.7 21.9V22H60.9V21.9H61H61.1L61.4 21.8V21.9H61.5H61.6H61.7H61.9L62.1 21.8L62.2 21.9L62.5 22H62.6H62.9V21.9H63H63.1V22H63.2V22.1H63.3L63.4 22.2H63.5V22.3L64.2 22.8L64.3 22.9H64.4L64.6 23L65.1 23.5L65.5 23.7L65.7 23.8L65.8 23.9V24V24.2V24.4V24.5H65.9V24.6V24.8H65.8V24.9H65.7V24.8H65.6V24.9H65.5H65.4H65.3H65.2H65.1V25H65.2L65.3 25.1H65.4L65.3 25.3H65.2H65.1H65L64.9 25.2L64.7 25.1L64.5 25.3L64.6 25.4H64.7V25.5H64.8V25.4H64.9V25.5V25.6H65V25.7H65.1V25.8L65.2 25.9H65.3V26H65.4V26.1H65.5V26.2L65.6 26.3L65.7 26.4V26.5H65.8H65.9V26.6H66V26.7H66.1V26.5V26.4V26.3L66.4 26.4H66.6H66.7H67H67.2V26.8L67.1 27.1V27.5L68 27.7V27.8H69V27.9V28V28.1V28.2V28.3L69.1 28.5L69.2 28.7L69.3 28.8V28.9V29L69.4 29.1V29.2V29.3H69.5L69.6 29.4H69.7L69.8 29.5L69.9 29.6H70V29.7H70.1L70.2 29.8H70.3L70.4 29.9L70.5 30L70.6 30.1H70.7L70.8 30.2H70.9V30.3H71L71.1 30.4H71.2H71.3L71.4 30.3V30.2V30.1H71.5V30L71.6 29.9V29.8L71.7 29.7V29.6L71.8 29.5V29.4L71.9 29.3V29.2L72 29.1V29L72.1 28.9V28.8V28.7H72.2H72.5H72.6H72.7H72.8H72.9V28.8H73L73.1 28.7V28.6H73.2H73.3V28.5V28.4V28.3V28.2H73.4H73.5H73.6V28.1H73.7V28L73.8 27.9V27.8L73.9 27.7H74H74.1H74.2H74.4H74.5H74.6H74.7H74.8H74.9V27.8V28V28.1V28.2L75 28.5V28.6V28.7L75.1 28.8V28.9V29V29.1V29.2V29.3V29.4L75 29.5V29.6V29.7V29.8V30H74.9L74.8 29.9L74.7 30V30.1V30.2V30.4V30.5V30.7V30.8V30.9V31V31.1H74.8H74.9H75H75.1H75.2V31.2H75.3H75.4V31.3V31.4V31.5H75.5V31.6V31.7V31.8V31.9V32V32.1V32.2V32.3H75.6V32.4V32.5H75.5M75.5 32.5H75.4V32.6H75.5M75.5 32.5V32.6M75.5 32.6H75.6V32.7V32.8H75.7V32.7H75.8V32.6H75.9V32.5H76H76.1V32.4H76.2V32.5V32.6V32.7V32.8V32.9V33V33.2H76.1V33.6V33.7V34.3V34.4V34.5V34.8H76.2L76.5 34.7L77.1 34.5V34.2L77 33.7L76.9 33.3L77 33.2H77.1L77.7 33L77.9 32.9H78L78.2 32.8V32.9H78.3L78.2 33V33.1V33.2V33.3V33.4V33.5V33.6V33.7V33.8V33.9L78.3 34H78.2V34.1V34.2V34.3H78.3V34.4L78.2 34.5V34.6V34.7L78.3 34.8H78.4V34.9L78.6 35V35.1H78.7V35.2H78.8V35.3L78.9 35.4H79L78.9 35.5V35.6V35.7H78.8V35.8L78.7 36H78.6L78.1 36.1H77.6V36.6H77.5V36.8H77.1H76.9V36.7H76.8V36.6H76.7H76.6V36.7V36.8V36.9L76.7 37L76.6 37.3L76.7 37.4L76.6 37.5V37.6H76.5H76.4V38.1L76.3 38.4L77 38.9V39H76.9H76.8H76.7H76.6V39.1V39.3H76.5H76.4H76.3L76.2 39.6V39.7V39.9H76.3M76.3 39.9V40M76.3 39.9H76.4L76.5 40M76.5 40H76.6M76.5 40V40.1L76.4 40.2V40.3L76.3 40.4L76.1 40.8L75.8 41.3L76.1 41.4L76.3 41.5H76.4H76.6L76.8 41.6H76.9H77L77.2 41.7H77.4L77.5 41.8H77.6H77.9V41.9H78H78.2L78.4 42H78.5V42.1V42.2V42.3H78.6V42.4V42.5L78.7 42.6H78.8V42.7V42.8H78.9V42.9V43H79V43.1V43.2H78.9L79 43.3V43.4H78.9V43.5H78.8V43.6V43.7H78.9V43.8H79V43.9V44V44.1H79.1V44.2V44.3L79.2 44.4H79.1V44.5H79V44.6V44.7V44.8H78.9V44.9H79V45M79 45H79.1M79 45H78.9V45.1H79V45.2H79.1V45.3V45.4H79V45.5H78.9H78.8V45.6V45.7V45.8H78.7V45.9H78.6V46V46.1H78.5H77.9L78 46V45.7V45.6V45.5H77.9H77.8M77.8 45.5V45.4M77.8 45.5H77.7V45.4H77.6H77.5V45.3H77.4M77.4 45.3V45.2M77.4 45.3H77.3V45.2H77.2H77.1V45.3L77 45.4L76.9 45.6L76.8 45.7L76.7 45.8V45.9L76.6 46V46.1L76.5 46.2L76.4 46.3L76.3 46.5L76.2 46.6V46.7L76.1 46.8L76 46.9V47H75.9V47.1V47.2L75.8 47.3L75.7 47.4V47.5L75.6 47.6H75.5L75.4 47.5H75.3V47.4H75.2L75.1 47.3H75V47.2H74.9L74.8 47.1H74.7V47H74.6L74.5 46.9H74.4L74.3 46.8H74.2V46.7H74.1H74H73.9H73.8L73.7 46.6H73.6V46.5L73.5 46.6H73.4M73.4 46.6V46.7M73.4 46.6H73.3H73.2V46.7H73.1V46.8V46.9V47H73V47.1H72.9L72.8 47.2H72.7H72.6H72.5H72.4H72.3V47.3V47.4V47.5V47.6V47.7V47.8V47.9H72.4V48V48.1V48.2V48.3V48.4H72.5V48.5V48.6H72.6V48.7V48.8V48.9H72.7V49V49.1H72.8V49.2H72.9V49.3H73H73.1V49.4V49.5V49.6V49.7V49.8V49.9V50V50.1H73.2V50.2V50.3V50.4V50.5V50.6V50.7V50.8V50.9L73.3 51V51.1V51.2V51.3V51.4H73.4V51.5H73.5L73.6 51.6V51.7L73.7 51.8V51.9V52H73.8V52.1L73.7 52.2H73.6H73.5V52.3H73.4L73.3 52.2H73.2V52.3H73.1H73V52.4H72.9H72.8V52.5V52.6V52.7H72.9V52.8V52.9V53V53.1H72.8V53.2H72.6H72.4V53.3V53.4V53.5V53.6V53.7V53.8V53.9V54V54.1V54.3V54.4V54.5V54.6V54.7H72.5V54.9V55.1V55.2V55.3H72.4V55.4V55.5V55.6H72.3V55.7H72.4V55.8L72.5 55.9H72.6H72.7H72.8V55.8H72.9H73H73.1H73.2V55.7H73.1V55.6V55.5V55.4V55.3V55.2H73.2H73.3H73.4H73.5H73.6L73.7 55.3V55.4H73.8V55.5V55.6H73.9L74 55.7H74.1V55.8H74.2L74.3 55.9V56H74.4V56.1H74.5V56.2H74.6H74.7V56.3H74.8V56.5V56.6V56.7H74.9H75V56.6H75.1H75.2H75.3H75.4V56.7L75.5 56.6H75.7L75.8 56.5L75.9 56.4H76L76.1 56.5H76.2H76.3V56.6L76.2 56.7V56.8L76.1 56.9H76V57V57.1L75.9 57.2V57.3H75.8V57.4L75.7 57.5V57.6L75.6 57.7L75.5 57.8L75.6 57.9H75.7V58H75.8V58.1V58.2V58.3V58.4V58.5V58.6V58.7V58.8H75.9H76V58.9H76.1V59H76.2L76.1 59.1V59.2V59.3H76V59.4V59.5L76.1 59.6V59.7H76.2H76.3V59.8H76.4V59.9V60H76.3L76.4 60.1H76.3L76.2 60.2H76.1V60.3L76.2 60.4V60.5H76.1V60.6L76.2 60.7H76.1V60.8H76.2H76.3V60.9V61H76.4H76.5V61.1V61.2V61.3H76.6V61.4H76.7V61.5H76.8V61.6V61.7H76.7V61.8V61.9H76.8M76.8 61.9H76.9M76.8 61.9V61.8H76.9H77V61.9V62H76.9V62.1M76.9 62.1H77M76.9 62.1V62.2H77H77.1V62.3V62.4H77.2V62.5V62.6H77.1V62.7V62.8H77.2V62.9H77.3V63V63.1V63.2H77.4H77.5V63.3H77.6M77.6 63.3V63.2M77.6 63.3V63.4H77.7H77.8V63.5V63.6M77.8 63.6H77.7M77.8 63.6V63.7H77.9M77.9 63.7V63.6M77.9 63.7H78V63.8H78.1V63.9H78H77.9V64H78V64.1H78.1V64.2H78.2V64.1L78.3 63.8V63.7L78.4 63.5V63.3L78.5 63.2M78.5 63.2V63.1M78.5 63.2H78.6H78.7H78.8V63.3H78.9H79H79.1L79.2 63.4H79.3H79.4V63.5H79.5L79.6 63.6H79.7V63.5L79.8 63.3V63.2L79.9 63.1V63L80 63.1H80.1H80.2H80.3L80.4 63.2H80.5H80.6H80.7H80.8L80.9 63.3H81L81.1 63.5L81.2 63.6L81.3 63.7H81.4V63.8V63.9V64L81.3 64.1V64.2V64.3H81.2V64.4L81.3 64.5L81.2 64.7H81.1V64.8H81V64.9H80.9V65L80.8 65.1H80.7H80.6V65.2L80.5 65.3H80.4V65.4V65.5V65.6L80.3 65.8V66.1V66.2M80.3 66.2H80.2" stroke="white" stroke-width="0.5" stroke-linecap="round" stroke-linejoin="round"/>
</g>
</svg>
