<svg width="168" height="139" viewBox="0 0 168 139" fill="none" xmlns="http://www.w3.org/2000/svg">
<g id="UA71">
<path d="M19.5 137.2L19.3 137.1H19.1V137L19.2 136.7V136.5L19.3 136.2L19.4 135.7H19.5H19.6L19.7 135.8H19.9L20.1 135.6V135.5H20.5L20.7 135.6H21.1L21.2 135.3V135L21.3 134.6V134.5V134.3L21.4 134.2V134.1V134H21.3V133.8L21.1 134H21H20.9L20.6 133.9L20.5 133.7L20.7 133.5L20.8 133.4H20.9H21H21.1L21.2 133.5H21.3V133.6H21.4V133.5H21.5H21.6H21.7H21.8L21.9 133.6L22 133.7L22.1 133.6V133.5V133.4H22V133.3V133.1L22.1 132.8V132.4V132.3H22L22.1 132.1V132H22H21.9L21.8 131.9V131.8H21.6H21.5L21.6 131.6H21.5V131.3L21.4 131.2L21.3 131.1V130.8L21.4 130.7V130.6L21.3 130.5V130.4V129.9V129.8L21.4 129.6V129.5V129.4H21.2L20.7 129L20.3 128.9L19.9 128.7L19.6 128.6L19 128.7L18.9 128.6L18.7 128.4L18.6 128.1L18.5 128V127.9V127.8L18.4 127.7H18.5L18.6 127.3V127L18.7 126.9L18.6 126.7H18.8H19L19.4 126.6H19.5L19.6 126.5H19.9H20.2V126.6L20.3 126.5H20.4L20.5 126.4H20.6V126.3V126.2V126.1L20.5 126H20.4V125.8H20.5V125.7V125.6V125.4V125.3L20.6 125.2L20.7 125.1V125V124.9L20.6 124.6L20 124.7L19.9 124.5V124.2H19.6L19.5 124.1L19.4 124V123.8V123.5L19 123.6L18.9 122.9L18.3 123L18.2 122.7V122.6V122.5V122.4L18.3 122.3L18.4 122.1L17.6 122L16.9 121.9L16.6 121.6L16.3 121.3L16 121L15.8 120.8L15.4 120.4L15.1 120L14.7 119.6L14.6 119.5L14.1 119.8L14.3 119.1H14.1L14.2 118.8L13.8 118.7L14.1 118.2L14 118.1L14.1 118L14.2 117.6L14.3 117.5L14.4 117.1L14.7 117.2L15.1 117.4L15.2 117.1V117V116.9V116.8H15.1V116.7H15V116.6V116.5H14.9V116.4V116.3L14.7 116.2H14.6L14.3 115.7L14.1 115.5L14 115.3L14.3 115.2V114.9H14L13.7 114.8L13.5 114.7H13.4L12 114.3H11.8L11 114.1L11.1 114V113.9H11.2L11.3 113.7H11.2H11L10.9 113.6H10.8H10.7H10.6L10.5 113.5L10.4 113.4L10.3 113.3L10.2 113.2H10.1H10L9.89999 113.3H9.79999L9.70001 113.4L9.60001 113.3L9.29999 113.2V113.1V112.9V112.6L9.20001 112.2V111.8V111.3V110.8V110.4L9.10001 109.8V109.7V109V108.5H9L8.79999 108.4H8.70001L8.39999 108.2L8.10001 108.1V108H8H7.79999L7.5 107.9V107.8V107.5V107L7.39999 106.7V106.4V105.9V105.8L7.29999 105.7L7.39999 105.5L7.29999 105.4V105.3H7.20001L7.10001 105.2V105.1H7H6.89999H6.79999H6.70001V105H6.60001H6.5V104.9L6.39999 104.8V104.7V104.6H6.5H6.60001L6.89999 104.5L7 104.4L7.10001 104.3L7.5 104.1L7.60001 104V103.9H7.70001V103.8L7.39999 103.7H7.29999L6.79999 103.6H6.70001H6.60001L6.5 103.5H6.39999V103.4L6.20001 103.3L6 103.2L5.29999 103.5L4.5 102.8L4.29999 102.6H4.10001V102.5L4.20001 102.4L4.39999 102.3L4.29999 102.2V102.1L4.10001 102L3.79999 101.8L3.70001 101.7L3.79999 101.6L3.60001 101.5L3.70001 101.3L3.89999 100.8L4 100.7L3.89999 100.6L3.70001 100.2L3.5 99.9L3.70001 99.6L3.89999 99.4L4.39999 98.7L4.60001 98.3L5 97.7L5.20001 97.4L5.70001 96.7L5.29999 96.4L5.10001 96.3L5.20001 96.2L5.29999 96L5.5 95.8L5.39999 95.6L5.20001 95.7H5.10001V95.6V95.4L5 95.3L5.10001 95.1V94.9V94.7L5 94.8L4.70001 95.1V95H4.60001V94.9H4.5H4.39999V95V95.1H4.29999V95.2H4.20001L4.10001 95.3H4V95.4H3.89999V95.5H3.79999V95.6H3.70001H3.60001V95.7L3.5 95.5H3.39999L2.89999 95.9L2.70001 95.6L2.39999 95.1V95H2.29999V94.9V94.8V94.7V94.6L2.10001 94.1V94L2 93.9V93.8L1.89999 93.7L1.79999 93.6H1.70001V93.5L1.60001 93.4V93.3V93.2H1.5V93.1V93V92.9V92.8V92.7H1.39999V92.6L1.29999 92.5L1.20001 92.4V92.3L1.60001 92.4H1.70001V92.5H1.79999L1.89999 92.7V92.8H2L2.10001 92.9V93H2.20001L2.29999 93.1L2.39999 93.2L2.5 93.1L2.39999 92.9V92.8L2.5 92.7H2.60001H2.70001H2.79999L2.89999 92.6V92.5L3 92.4L2.60001 92.1L2.79999 91.7L3 91L3.10001 90.7V90.5L3.29999 90L3.39999 89.5L3.5 89.3L3.60001 89.4L3.70001 89.5H3.79999H3.89999H4L4.20001 89.6H4.29999V89.7H4.39999L4.5 89.8H4.60001H4.70001H4.79999L4.89999 89.9H5L5.20001 90L5.29999 89.9L5.20001 89.7V89.6V89.5L5.10001 89.4V89.3V89.2L5 89.1V89V88.9L4.79999 88.1H4.89999H5L5.20001 87.8L6 87.7L6.39999 87.6H6.70001V87.5H6.79999H6.89999H7H7.10001L7.20001 87.4H7.29999H7.39999L7.60001 87.3V86.8L7.5 86.6H6.89999L6.79999 86.3L6.70001 86.1L6.60001 85.9V85.8H6.5V85.3V85L6.39999 84.8H6.70001L6.79999 84.7V84.5V84.4V84.2V84L6.89999 83.6H6.79999V83.2V82.9L6.89999 82.7L7 82.6V82.7H7.10001H7.20001L7.29999 82.8V82.7V82.5V82.1V81.7V81.1L6.70001 80.9L6.5 80.8L6.20001 79.8L6.10001 79.4H6.20001H6.29999V79.5H6.39999H6.5V79.6H6.60001H6.70001L6.79999 79.7H6.89999H7H7.10001H7.20001H7.29999L7.39999 79.6V79.5L7.5 79.4L7.60001 79.3H7.70001L7.79999 79.2H7.89999V79.3H8V79.4H8.10001H8.20001L8.29999 79.5L8.70001 79.3V79.4H8.60001V79.5H8.5H8.39999L8.29999 79.6V79.5L8.20001 79.6L8.29999 79.7H8.20001V79.8V79.9V80H8.10001L8 80.1V80.2L8.10001 80.5H8H7.89999L7.79999 80.6H7.60001L7.5 80.7H7.39999H7.29999L7.5 81L7.79999 81.3L7.89999 81.4L8 81.5L8.20001 81.8L8.29999 81.9V82L8.5 82.2L8.70001 82.5L8.89999 82.8L9 82.9L9.70001 82.8L10.1 82.7L10.4 82.6L11.3 82.5H11.4L11.6 82.4H11.7H11.8V82.5L11.9 82.6V82.7V82.8L12 83L12.3 82.9H12.4L12.5 82.8H12.6L12.9 82.7V82.6L13.2 82.5L13.5 82.4L13.7 82.3L13.9 82.2L14 82.3H14.2H14.5H14.6L14.8 82.4H15.1H15.2V82.2V82.1V82V81.9V81.8H15.1V81.7L15 81.6L14.9 81.5V81.4V81.3H15H15.1L15.4 81.2L15.7 81H15.9L15.7 80.7L16.2 80.3L16.5 80.1L16.4 80H16.5L16.4 79.9L16.3 79.7L16.6 79.4L17 79.1L17.1 79V78.9L17.3 78.6L17.5 78.3V78.2L17.6 78.1V78V77.9V77.8V77.7L17.7 77.6H17.8H17.9H18H18.1H18.2L18.5 77.5H18.6H18.7H18.8V77.4V77.3L18.9 77.2V77.1V77V76.9V76.8V76.7V76.5V76.4V76V75.6V75.4V75.1V74.8V74.7V74.6V74.5L18.8 74.4L18.7 74.1L18.6 74L18.5 73.9L18.4 73.7L18.3 73.5V73.4V73.3V73.2L18.4 73.1V73L18.5 72.9V72.8V72.7H18.6H18.7H18.8V72.8H18.9V72.9L19 73V73.1H19.1L19.3 73H19.4L19.5 72.9L19.6 72.8L19.8 72.7L20.1 72.5L20.2 72.4H20.3H20.4H20.6H20.7H20.9H21H21.2H21.3L21.4 72.5L21.5 72.2V72.1V72V71.9L21.6 71.6V71.5L21.7 71.4H21.8H21.9H22H22.1L22.4 71L22.7 71.1L22.8 71.2L23.4 71.4L24.6 71.7H24.7V71.8H24.8H24.9V71.9H25L25.1 72.1V72.2V72.3H25.2L25.3 72.4V72.5H25.4V72.7V72.8V72.9V73L25.3 73.1L25.4 73.2V73.3V73.4V73.5H25.3V73.6H25.2V73.7L25.3 73.8V73.9H25.4V74H25.5V74.1V74.2V74.3V74.4V74.5V74.6L25.6 74.7V74.8V74.9H25.7H25.8V75H25.9V75.1L26 75.2V75.3L26.1 75.4V75.5L26.3 75.6V75.7H26.4H26.5L26.6 75.8L26.7 75.9H26.8V75.8H26.9V75.7V75.6H27V75.5V75.4V75.3L27.1 75.2L27.2 75.1H27.3V74.9V74.8V74.7V74.6V74.5L27.2 74.3L27.1 74.2V74.1L27.2 74H27.1V73.9L27 73.8L26.9 73.7L26.8 73.6H26.7V73.5H26.6L26.5 73.4V73.3H26.6V73.2L26.7 73.1V73H26.8V72.9H26.9V73H27.1V72.9H27.2V72.8H27.3H27.4H27.5V72.7L27.6 72.6H27.7L27.8 72.4V72.2L27.9 71.6L28 71.2H28.1H28.2V71.1H28.3L28.5 71L28.6 70.9V71V71.2V71.3V71.6L29 71.5H29.1H29.3H29.6H29.9H30H30.1L30.9 71.4H31.2L31.1 72L31 72.6L30.9 73.3V73.4V73.8V74.1V74.3L30.8 74.6V74.7V74.8L30.7 75.1L30.6 75.6H30.7L31.1 75.7H31.5H31.7L32.3 75.8H32.7L33 76L33.1 75.9H33.2H33.3L33.4 76H33.5H33.6H33.7H33.8H33.9L34 76.1H34.1V75.8L34.3 75.9L34.8 76L35.2 76.1H35.3H35.4L35.5 76.2L35.9 76.3H36L36.3 76.4H36.4L36.7 76.5L37.3 76.6L37.6 76.7H37.8L38 76.8L39 77H39.3L39.6 77.1V77.2V77.3V77.4V77.5H39.5V77.6V77.7V77.8V77.9L39.8 78H40L39.9 78.2V78.3V78.4L39.8 78.5L40 78.6L40.1 78.4L40.2 78L40.3 77.7L40.4 77.3V77.1L40.5 77V76.9V76.8L40.6 76.5V76.2V75.9L40.7 75.8L40.8 75.3V75L40.9 74.7V74.4L41 74L41.1 73.4H41.2H41.3H41.4H41.5H41.7H41.8H42H42.1H42.2H42.3V73.3V73.1L42.2 72.7L42 71.3L42.2 71.2H42.3H42.5H42.6L42.8 71.1H42.9H43H43.1L43.2 71H43.3V70.9H43.4V70.8L43.3 70.2L43.2 70.1V70V69.6H43.3H43.4V69.5H43.5V69.4H43.6V69.3V69.2H43.7H43.8H43.9H44V69.1H44.1H44.2H44.3V69H44.4V68.9H44.5H44.6L44.7 68.8L44.8 68.7L44.9 68.6H45L45.2 68.9L45.5 69.4L45.9 69.9V70L46.1 70.2L46.2 70.4L46.5 70.8L46.9 71.2L47.1 71.5L47.3 71.4H47.4L47.7 71.3L48.2 71.5V71.2H48.3H48.4H48.5L48.6 71.1L48.5 71V70.9V70.8H48.6V70.7H48.7L48.8 70.6H48.9H49H49.1V70.5H49.2V70.4V70.3V70.2H49.3V70.1V70H49.4V69.9H49.5V69.8H49.6V69.7H49.7V69.6V69.5H49.8V69.4H49.9H50L50.1 69.5H50.2V69.6V69.7H50.3V69.8H50.4H50.5L50.6 69.7L50.8 69.4L51.2 68.9L51.7 68.2H51.8V68.3H51.9L52 68.4L52.1 68.5L52.2 68.6H52.4L52.5 68.7V68.8H52.6L52.8 68.9V69H52.9H53V69.1H53.1L53.2 69.2L53.3 69.3L53.6 69.2L53.9 69.1H54L54.2 69H54.4V69.1V69.2V69.3V69.4H54.5L54.6 69.5V69.4H54.7V69.3H54.8H54.9V69.4H55.1H55.2H55.3L55.4 69.5L55.5 69.6L55.7 69.7V69.8H55.8L56.1 70.2L56.4 70.5L56.6 70.6L56.8 70.8L57.2 70.6L57.4 70.8L57.5 70.9L57.7 71.1H57.8V71.2L57.9 71.1L58.3 70.8L58.4 70.6L58.5 70.5H58.6L58.7 70.4L58.8 70.2H58.9V70.1L59.2 70.2H59.3H59.4H59.5H59.6H59.7H59.9H60H60.2H60.3L60.6 70.1V70H60.7L61 69.8L61.3 69.5H61.4L61.5 69.4L61.7 69.5H62.1H62.2V69.4H62.4H62.6L62.7 69.5H62.8L62.9 69.6H63V69.7H63.1H63.2H63.3V69.6H63.4V69.5L63.5 69.6L63.9 69.5H64.1H64.3H64.4L64.5 69.6H64.6H64.9V69.5L65 69.4V69.3H65.1H65.2L65.4 69.1V68.9L65.8 68.7L66.1 68.8H66.2H66.3L66.9 69.1L67 69V68.9V68.7L67.1 68.6V68.5L67.2 68.3V68.2L67.3 68.1V67.9V67.8H67.4V67.7V67.6L67.5 67.5V67.4V67.3H67.6V67.4H67.7V67.5H67.8H67.9V67.4H68V67.3V67.2V67.1L67.9 66.9V66.8V66.6V66.4L68 66.3L68.2 66.2V65.9V65.7L68.3 65.6V65.4V65.3L68 65.2L67.9 65L67.6 64.7H67.5L68 64.5V64.4L68.3 64.3L68.6 64.2L68.9 64.1H69H69.1H69.2L69.3 64H69.7L70.2 64.1H70.3H70.5H70.7H70.8H70.9V64.2H71H71.1H71.2V64.1H71.3V64L71.4 63.9L71.5 63.8L71.7 63.7V63.6L71.8 63.5V63.1V62.7V62.4V62.3V62.2V61.9L71.9 61.7L72 61.6L72.5 61L72.9 60.5V60.4L73 60.3H73.1V60.4V60.5H73.2V60.6V60.7L73.3 60.9V61V61.1V61.2H73.4V61.3L73.5 61.4V61.5H73.6H73.7H73.8V61.4L73.7 61.2L73.8 61.1V61L73.6 60.6L73.5 60.5V60.2L73.7 60.1V60H73.8L73.9 59.9V59.8H74H74.4L74.6 59.9V59.7V59.6V59.5L74.7 59.4H74.8H74.9V59.3H75H75.1V59.2H75.2H75.3H75.4V59.1H75.5V59H75.6H75.7V58.9H75.8H75.9V58.8V58.7V58.6V58.5V58.4H76L76.1 58.5H76.2V58.4H76.3V58.3V58.2H76.2V58.1V58V57.9H76.3V58H76.4V57.9H76.5V57.8V57.7H76.4L76.3 57.8V57.7H76.2V57.6H76.3V57.5V57.4H76.2H76.1V57.3H76.2V57.2L76.3 57.1H76.4V57H76.3V56.9H76.2V56.8H76.3V56.7L76.4 56.6V56.5V56.4H76.5H76.6V56.3V56.2H76.5V56.1V56V55.9V55.8H76.6V55.7H76.7V55.6V55.5V55.4L76.6 55.3L76.5 55.2H76.6V55.1V55H76.5V54.9V54.8H76.4L76.5 54.7V54.6V54.5L76.6 54.4V54.3H76.7H76.8H76.9V54.2V54.1V54V53.9H77V53.8V53.7V53.6H77.1V53.7H77.2H77.3H77.4H77.5V53.6V53.5V53.4H77.6L77.8 53.5L77.9 53.6L78.1 53.8L78.2 53.9H78.3V54H78.4H78.5L78.6 54.1V54V53.9L78.7 53.6L78.8 53.7H78.9L79 53.8H79.1H79.2L79.1 53.7V53.6V53.5V53.4V53.3V53.2V53.1V53V52.9L79 52.8V52.7H78.9L78.8 52.6H78.7H78.6H78.5L78.7 52.4L78.8 52.3L78.9 52.2L79 52.1L79.1 52L79.2 51.9L79.1 51.8H78.9H78.8L78.6 51.7H78.5H78.4L78 51.6L78.1 51.4V51.3V51.2V51.1L78.2 51V50.9V50.8V50.7V50.6H78.3V50.5V50.4L78.4 50.3V50.2V50.1V50V49.9H78.5V49.8V49.7H78.6V49.6V49.5L78.7 49.4V49.3L79 48.7L79.1 48.5L79.2 48.4L79.3 48.2V48.1L79.4 48L79.5 47.9L79.6 47.7L79.8 47.5V47.4L79.9 47.3L80 47.1L80.1 47L80.4 46.5L80.7 46L81 45.6L81.2 45.3L81.5 44.9L81.7 44.5V44.4L81.6 44.1H81.5V44L81.4 43.9V43.8L81.5 43.7L81.7 43.5L81.6 43.4L81.8 43.2L82 43.3L81.9 43.5L82.1 43.6H82.2L82.3 43.4L82.4 43.2V43.1L82.5 43L82.4 42.9H82.3L82.2 42.7H82.1L82 42.6H81.9H81.8L81.4 42.4L81.6 41.9L81.7 41.8L81.8 41.4L81.9 41L82.2 40.2H82.3H82.4L82.5 40.1L82.7 40L82.6 39.8L82.5 39.7V39.5L82.4 39.3V39.2V39.1V39H82.3V38.9L82.2 38.7L82.1 38.6V38.5L82 38.2H82.1L82.2 38.1L82.1 37.9H82V37.8L82.1 37.6L82.2 37.2L82.4 36.6L82.1 36.3L81.4 35.8L81.1 35.5L81.2 35.4L81.3 35.1L81.6 34.5V34.4L81.7 34.2L81.8 34L81.9 33.9H81.8V33.8V33.7H81.9L82.1 33.4V33.3L82.4 32.7L82.6 32.4L82.7 32.2L82.5 31.8L82.4 31.5L82.3 31.4V31.3H82.2V31.2L82.1 31.1V31H82V30.9V30.8V30.7V30.6H82.1L82.4 30.4L84 29.5L84.2 29.6L84.3 29.7V29.8H84.4V29.9L84.5 30V30.1L84.6 30.2H84.7V30.1L84.9 30V29.9H85L85.4 29.3L85.5 29.2L85.7 28.9L86.1 28.4H86.2V28.3L86.6 28.1L87.3 27.8V27.7H87.4H87.5V27.5H87.6L88.2 27.4H88.3L88.4 27.3H88.5H88.6L89 27.2H89.3H89.4H89.5H89.7H89.9H90L90.2 27H90.4L90.5 26.7L90.7 26.4V26.3L90.5 26L89.6 24.7L89 24L88.4 23.9L88.5 23.4L88.9 23.2L89.2 23L89 22.9L88.3 22.4L87.2 21.8L86.7 22.2L86.6 22.4H86.4L86 22.6L86.3 22.2V22.1H86.4L86.5 22L87 21.4L87.4 21L87 20.6L86.6 21L86.4 20.9L86.6 20.4V20.2L86.8 20L87.1 19.7H87.2L87.7 19.6H88L88.4 19.7L88.9 19.8H89.4H89.5L89.6 19.7H89.8H89.9H90.1L90.9 19.5H91.1L91.8 19.7L92.4 19.9L92.6 19.7L92.8 19.8L93.2 20L93.5 20.3L93.8 20.7L93.9 20.8L94 21V21.1V21.2L93.9 21.3L93.7 21.4L93.4 22V22.2L93.3 22.6V22.9V23V23.2L93.4 23.3V23.5L93.3 23.6L93 24.1L92.9 24.2V24.3V24.5V24.7V24.8V25.2L92.8 25.6V25.8V26.1L93 27H93.3L93.5 28L93.7 28.7H94.8L94.9 29H95.3L95.4 29.8L95.5 30H95.6L95.8 30.2H96L96.3 30H96.5V30.3L96.6 30.8L96.7 31V31.1L96.8 31.3H96.9H97.1H97.2L97.3 31.2L97.4 31.1L97.5 31V30.9L97.2 30.5L97.3 30.4V30.3V30.2L97.4 30.1L97.6 30L97.7 29.9V29.7V29.6L97.6 29.5H97.5V29.4V29.3L97.6 29.2L97.8 29L98 29.2L98.1 29.1L98.4 29V28.9L98.5 28.8L98.6 28.9L98.8 28.8V28.7L98.9 28.6L99 28.8L99.1 29L99.2 28.9L99.3 29L99.4 28.9H99.6L99.7 28.6V28.4H99.8L99.9 28.2H100V27.9H100.1L100.2 27.7V27.5V27.3H100.3H100.4H100.7V27H100.8H100.9V26.8V26.7V26.6V26.4H101.4H101.7H102.2H102.4V26.9V27.1L102.5 27.6H102.4L102.3 27.7H102.2L102.3 27.8L102.4 27.9L102.5 28.1L102.6 28.3L102.7 28.5V28.7V28.9L102.6 29.4L102.5 30.4L103 30.3H103.1L103.9 30.2H104V30.3H104.2H104.5H104.6H104.8H104.9H105H105.1L105.2 30.2L105.3 30.3H105.4H105.5L105.9 30.4L106.5 30.6H106.7L107.1 30.7L107.3 30.8H107.4L107.5 30.7H107.7V30.6H107.6L107.7 30.5L107.9 30.3L108.1 29.9L108.2 29.7L108.3 29.6V29.5L108.9 28.4L109.2 27.9L109.4 27.5L109.5 27.4H110.1H110.2H110.5H110.6L110.5 27V26.9V26.4L110.4 26.1V26V25.9V25.6V25.4L110.5 25.2H110.6L110.8 25L110.9 24.9L111.1 24.8L111.2 24.7L111.4 24.5L111.5 24.4L111.6 24.3L111.7 24.1L112 23.4L112.1 23.2L112.3 22.8L112.5 22.5L112.6 22.3V22.2V22.1V21.7L113 21.8H113.8L114.5 21.9H115L115.4 22H116H116.4V22.3V22.6V22.8V22.9H116.5H116.6L116.8 23L116.9 23.2L117 23.5L117.1 23.3L117.2 23.1L117.4 22.8L117.5 22.7V22.6H117.6V22.5L117.7 22.4V22.3L117.8 22.2V22.1V22V21.8V21.7V21.6V21.5V21.4V21.3V21.2V21.1V21V20.9L117.7 20.8V20.7V20.6V20.5V20.4V20.3V20.2V20.1L117.6 20V19.9L117.5 19.6V18.9L117.4 18.6V18.4V18.1H117.3V18L117.2 17.9H117.1V17.8L117 17.7L116.9 17.6H117L117.3 17.5L117.2 17.2H117.3L117.4 17.1L117.5 17H117.6V16.9H117.7H117.8V16.8H118.1L118.3 16.7L118.4 16.6H118.5L118.7 16.5L118.9 16.4L119.2 16.2H119.3L119.6 16L120 15.8L120.2 15.7L120.4 15.6V15.7H120.5V15.8H120.6L120.9 16L121 15.8L121.1 15.4L121.2 15.1L121.3 15L121.1 14.9H120.9H120.8H120.6L120.3 14.8L120 14.7L119.6 14.6H119.5H119.3H119.1V14.5H118.9L118.5 14.4H118.3H118.2H118L117.7 14.5L117.4 14.7L117.2 14.6L117.3 14.4V14.3V14.2V13.7L117.4 13.4V13.3V13.2V13V12.8V12.6V12.4V12.3V12.2V12.1V12L117.5 11.4V11.2L117.7 11.1L117.8 11L118.3 10.7L118.4 10.6L118.7 10.5L118.8 10.4L118.9 10.3L119.1 10.2H119.2L119.4 10.1V10L119.8 9.8H119.9V9.7H120L120.1 9.60001H120.2L120.3 9.5H120.4V9.39999H120.5L120.6 9.3H120.7L120.5 9V8.89999L120.4 8.8L120.3 8.60001H120.2V8.5L120.1 8.39999L120 8.3V8.2L119.9 8.10001V8H119.8L119.5 8.2L119.3 8.39999L119.2 8.10001L119 7.60001L118.9 7.39999L118.8 7.2V7L118.7 6.8L118.6 6.60001L118.7 6.7H118.8L119 6.8H119.2L119.3 6.89999H119.4L119.6 7L120.2 7.2L120.5 6.39999H120.6V6.2L120.7 6.10001V6V5.89999L120.8 5.8L120.9 5.7L121 5.5V5.39999L121.1 5.10001L121.2 5L121.3 4.89999L121.4 4.60001L121.5 4.5V4.39999L121.7 4.3V4.2L121.8 4.10001L121.9 3.89999L122 3.8L121.7 3.7H121.6L121.5 3.60001L121.6 3.3L122 3.10001L122.3 3L122.7 2.89999L122.9 3.10001L123.1 3.39999L123.3 3.60001L123.4 3.7L123.5 3.89999L123.7 4L123.8 4.10001L124 4.3H124.2H124.3H124.5H124.8L124.9 4.2L125 4L125.1 3.8L125.2 3.7V3.60001L125.3 3.5L125.4 3.2H125.5V3.10001L125.8 2.5H125.9V2.39999L126.1 2.10001L126.3 1.7H126.5H126.8L127.4 1.8L127.9 1.10001L128.3 1.39999L127.8 2.2L127.6 2.39999L128.7 3.3L129 3.60001L129.1 3.7L129.2 3.8H129.3L129.8 4.3H130.1L130.2 4.39999V4.60001V4.7V4.8V4.89999L130.3 5.10001L130.4 5.3H130.5V5.39999L130.6 5.60001L130.7 5.7V5.8L130.8 5.89999V6H130.9V6.10001L131.3 6.2L131.4 6.3L132.5 6.60001L133 6.7L133.1 6.8L134.1 7L135.4 7.39999L136.1 7.60001L136.7 7.8L137 7.89999L137.2 9L137.3 9.7L136.4 9.60001L134.9 10H134.7L134.6 10.1V10.2V10.3L134.7 10.4L134.8 10.5L134.9 10.6V10.7V10.8H135V10.9H135.1H135.2H135.3V11H135.4V11.1L135.5 11.2H135.6L135.7 11.3H135.8V11.4H135.9V11.5H135.8L135.7 11.8L135.4 12.2H135.3V12.3L135.2 12.6L135.3 12.9L135.4 13L135.5 13.1V13.2V13.3L135.6 13.4L135.7 13.6L135.8 13.8H135.9V13.9V14H136V14.1L136.1 14.2L136.2 14.3L136.3 14.4L136.4 14.5L136.6 14.7L136.7 14.9L136.8 15L137.1 15.3L137.3 15.5L137.4 15.6V15.7L137.5 15.8H137.6L137.8 16V16.1L138.2 16V15.9V15.8L138.3 15.5L138.4 15.1V15L138.5 14.9L138.7 14.6L138.8 14.5L138.9 14.6L139.1 14.8V14.9H139.2L139.3 15V15.1H139.4V15.2L139.5 15.3H139.6V15.4H139.7L139.6 15.5L139.5 15.6V15.7V15.8V15.9L139.4 16.3L140.3 16.5L140.4 17V17.3L140.5 17.6V18V18.6L140.6 18.9L140.7 19H141L141.1 20.2V20.6L141.8 21.1L142.4 21.4L142.7 21.6L143.3 22L143.4 22.1L143.5 22.2H143.6L143.5 22.5V22.6V22.7L143.4 22.8V22.9V23V23.1L143.3 23.3L143.2 23.6V23.8L143.1 23.9V24.2L143.4 24.3L143.7 24.5L143.6 24.8H143.4L143.1 24.7V25.3V25.5V25.6L143 25.7V25.9L142.9 26.3V26.5V26.7L143 26.9L143.1 27.1L143.3 27.3L143.4 27.4L143.5 27.5L143.7 27.6L143.9 27.8V27.9L143.7 28L143.4 28.2L143.1 28.4L142.8 28.6L142.4 28.8L142.3 28.9L142.2 28.7L141.8 28.1L141.3 28.5L141.2 28.6L140.8 28.9L140.9 29L141 29.1L141.1 29.2L141.3 29.4L141.5 29.7L141.8 30V30.1H141.9V30.2L142.2 30.5L142.5 30.8L142.6 30.9V31L142.7 31.2L142.8 31.4V31.5L142.9 31.6L143 31.7V31.8H143.1L143.2 31.9L143.3 32L143.2 32.1L143.3 32.3L143.6 32.5V32.6L143.8 32.8V32.9L144 33.1V33.2L144.2 33.6V33.7L144.4 34.2L144.6 35L147.1 34.5L147.4 34.4V34.6V34.8L147.5 35L147.6 35.5L147.7 36L147.8 36.4L147.9 36.8H148H148.2H149H149.4H149.6H150L150.3 37.5L150.5 37.8L150.8 38.3V38.4V38.5V38.6V38.7H150.7V38.8H150.6L150.7 39.6L150.8 41V41.3L150.9 41.8V41.9V42.4L151.9 42.7L152.6 43L153.5 43.3L155.5 44.1L155.3 44.4H155.4H155.5H155.6H155.7H155.8H155.9L156 44.5L156.1 44.7L155.9 44.8L156 44.9L156.1 45H156.2H156.3V45.1V45.2V45.3H156.4V45.4L156.5 45.5H156.6V45.6H156.7V45.7H156.8V45.8H156.9H157H157.1V45.7H157.2V45.8H157.3V45.9V46H157.4H157.5H157.6V45.9H157.7V46H157.6V46.1H157.7V46.2V46.3H157.6H157.5V46.4H157.6H157.7V46.5V46.6H157.6H157.5H157.4H157.3V46.7H157.4V46.8V46.9V47H157.5L157.6 47.1V47.2V47.3V47.4L157.5 47.5V47.6H157.6L157.7 47.7V47.8V47.9V48H157.8V47.9H157.9H158V48H157.9V48.1V48.2V48.3V48.4H157.8V48.5V48.6H157.9H158V48.7V48.8H158.1V48.9H158H157.9H157.8V49H157.7V49.1H157.6L157.7 49.2H157.8H157.9H158V49.3V49.4H157.9V49.5H157.8V49.6L157.7 49.7V49.8L157.6 49.9H157.5L157.4 50L157.1 50.1V50.2H157.2H157.3L157.4 50.3L157.5 50.4L157.6 50.5L157.9 50.8H158L158.1 50.7H158.2H158.3H158.4L159.1 51.4L159.2 51.5L159.3 51.6L159.5 51.9L159.6 52.1L159.7 52.3V52.4H159.8V52.3V52.2H159.9H160H160.1H160.2V52.3H160.1L160 52.4H159.9V52.5H159.8V52.6L159.7 52.7L159.8 52.8V52.7H159.9V52.8H159.8V52.9H159.9V53H160V53.1H159.9L159.8 53.2H159.9V53.3V53.4H159.8V53.5V53.6H159.9V53.7V53.8H159.8V53.9V54.4H159.7V54.5V54.6V54.7H159.8H159.9V54.8H159.8V54.9V55.1V56.3H159.7H159.6V56.4V56.5H159.5L159.4 56.6L159.3 56.7L159.2 56.8L159.1 56.9H159L158 58L157.8 58.2L157.7 58.3H157.6H157.5L157.4 58.2L157 58.1H156.7H156.4H156.3H156.2L156.1 58.2V58.3V58.4L156 58.5V58.6H155.9V58.7V58.8H155.8V58.9V59V59.1H155.7V59.2V59.3L155.8 59.5V59.6V59.7V59.8H155.7L155.8 59.9V60V60.1H155.7L155.8 60.2H155.7L155.6 60.3V60.4V60.5V60.6V60.7V60.8V60.9V61V61.1V61.2H155.5V61.3H155.6V61.4L155.7 61.5V61.6H155.8V61.7V61.8V61.9L155.9 62V62.1V62.2L155.8 62.3L155.7 62.4H155.6V62.5H155.5H155.4H155.3L155.2 62.6H155.1L155 62.7H154.9V62.8L154.8 62.9V63V63.1V63.2L154.9 63.3H155L155.1 63.4H155.2V63.5V63.6V63.7H155.3H155.4V63.8H155.6L155.7 63.9H155.8H155.9H156H156.1H156.2V64H156.3V64.1V64.2V64.3V64.4V64.5V64.6V64.7V64.8V64.9V65V65.2V65.3L156.2 65.4V65.5V65.6V65.7H156.1V65.8L156.2 65.9V66V66.1H156.3V66.2V66.3H156.4V66.4L156.5 66.5V66.6H156.6V66.7V66.8H156.7V66.9V67H156.8V67.1H156.9V67.2H157H157.1L157.2 67.3V67.2H157.3H157.4H157.5H157.6V67.1H157.7H157.8H157.9H158V67.2L158.1 67.3L158.2 67.4L158.3 67.5V67.6H158.4L158.5 67.7L158.6 67.8L158.7 67.9H158.8L158.9 68H159H159.1V68.1V68.2V68.3V68.4V68.5V68.6H159L159.1 68.7V68.8V68.9V69V69.1L159.2 69.2V69.3V69.4V69.5H159.1V69.6H158.9H158.8H158.7H158.6L158.5 69.5H158.4H158.2H158.1H158V69.4H157.9H157.8H157.7H157.6H157.5H157.4L157.3 69.5H157.2H157.1H157H156.9H156.8L156.7 69.6H156.6H156.5H156.4H156.3H156.2H156.1V69.5H156H155.9H155.8V69.4H155.7V69.3H155.6H155.5H155.4H155.3H155.2H155.1H155V69.2H154.9H154.8H154.7L154.6 69.1H154.5L154.4 69H154.3V68.9H154.2V68.8H154.1V68.7H154L153.9 68.6H153.8H153.7L153.6 68.5L153.5 68.4H153.4H153.3V68.3H153.2L153.1 68.2H153H152.9V68.1H152.8V68H152.7H152.6V67.9H152.5V67.8H152.4H152.3V67.7H152.2H152.1L152 67.6H151.9H151.8H151.7H151.6H151.5H151.4H151.3V67.5H151.2H151.1H151H150.9H150.8V67.4H150.7V67.3H150.6H150.5L150.4 67.2H150.3H150.2V67.3H150.1H150V67.4H149.9H149.8H149.7L149.6 67.3H149.5H149.4L149.3 67.2H149.2V67.1L149.1 67H149H148.9V66.9L148.8 66.8L148.7 66.7H148.6V66.6V66.5H148.5V66.4V66.3V66.2H148.4V66.1H148.5V66H148.4V65.9V65.8L148.3 65.7V65.6H148.2L148.1 65.5H148L147.9 65.4H147.8V65.3H147.7H147.6V65.4L147.5 65.5L147.4 66H147.3L147.1 66.1V66.2L147 66.4V66.5L146.9 66.9V67L146.7 67.3V67.4V67.6L146.6 67.7V67.8L146.5 67.9L146.2 68.4L146.1 68.5V68.6V68.7V69V69.1V69.2L146 69.3L145.9 69.4L145.4 69.7V69.8H145.3L145.2 70V70.1V70.2V70.3L145.3 70.4V70.5H145.4H145.6H145.7H145.8L146 70.4H146.1V70.5V70.6V70.7H146L145.9 70.8L145.8 70.9L145.6 71.2L145.5 71.3V71.4V71.5H145.6L145.9 71.8L146.5 72.3L147.1 72.8L147.2 72.9L147.4 73L147.6 73.1L147.8 73.2L148.1 73.3H148.4H148.5V73.4H148.7L148.8 73.5L149 73.7L149.5 74L149.7 74.2H149.8L150.1 74.5L150.2 74.6L150.4 74.8L150.5 74.9L150.6 75H150.7L151 75.1H151.3L151.6 75.3L151.9 75.4L152 75.5H152.1V75.6L152.2 75.8V75.9L152.3 76.2L152.4 76.6V76.8L152.5 77V77.1L152.6 77.2H152.7H152.8L152.9 77.1L153.3 76.8L153.4 76.7H153.5H153.6H153.7H153.9H154L154.1 76.8L154.2 76.9L154.5 77.3L154.7 77.5L154.9 77.6L155 77.7H155.2L155.4 77.6L155.7 77.5L155.8 77.4H155.9V77.3L156 77.1H156.1H156.2V77H156.3L156.4 77.1H156.6H156.7L156.9 77H157.2L157.6 76.9H157.9H158H158.1L158.2 77L158.3 77.1V77.2H158.4H158.5H158.9H159L159.1 77.3L159.3 77.5L159.4 77.6L159.6 77.9H159.7V78H159.8H160H160.1L160.2 78.1V78.2V78.4H160.1V78.5H160.2V78.6V78.7H160.3L160.4 78.8H160.5H160.6L160.7 78.7L160.9 78.6L161 78.5H161.1L161.2 78.4H161.4H161.8H162.1L162.3 78.3L162.5 78.1L162.6 78L162.7 77.9L162.8 77.8V77.7L162.9 77.6H163H163.1H163.2H163.3H163.4L163.6 77.7H163.7H163.9H164.1H164.2L164.3 77.6L164.5 77.5H164.6H164.7L164.8 77.6H164.9L165 77.7L165.1 77.8V78L164.9 78.7L164.8 78.9L164.7 79L164.3 79.3L164.1 79.5L163.8 79.7L163.5 79.9L163.1 80.1L162.8 80.4L162.7 80.6L162.6 80.7L162.3 81.1L161.8 81.6L161.5 82L161.1 82.4L160.9 82.8L160.8 83.1V83.3V83.5L160.7 83.6L160.6 83.7L160.4 83.8L160.2 83.9V84V84.1V84.2V84.3V84.4V84.5L160.3 84.7V84.8L160.4 85L160.6 85.3L160.9 85.5L161.1 85.6L161.2 85.7L161.7 85.9L163.4 86.4L164.9 86.8L166.8 87.4L166.9 88.1L167 88.3V88.8V89V89.2L166.9 89.3V89.4H166.8L166 89.6L165.4 89.7V89.8L164.8 90L163.4 90.8L163.2 90.9L163.1 91H163V91.1L163.1 91.2L163.5 91.4L163.8 91.6L163.9 92.4L164 92.9V93.5L164.1 94L164.2 94.6H164.5V94.8L164.4 94.9H164.3V95H164.2V95.1H164.3V95.2H164.2V95.3H164.3V95.5H164.2H164.1V95.6V95.7L164 95.6H163.9L163.8 95.5H163.7L163.6 95.6V95.7L163.7 95.9L163.8 96.1H163.9H164H164.1H164.2H164.3L164.4 96L164.5 95.9L164.6 95.8V95.9V96V96.3L164.7 96.4V96.5H164.8V96.6L164.9 96.7L165 96.8L165.2 96.9H165.3H165.5L165.7 96.8H165.9H166V97.4H165.2L164.5 97.5L164.6 98.3H164.4L163 98.5L162.1 98.6V99L161.4 99.1L160.3 99.3L159.6 99.4L159 99.5L158.8 98.5L157.2 98.7L157.1 98.6V98.1L156.3 98.2L156.1 97.9H156V98H155.9L155.8 98.1V98.2V98.3V98.4L155.7 98.5L155.6 98.6L155.7 98.8L155.8 99.1L155.9 99.2L156.2 99.9V100H156.3L156.1 100.1V100V99.9H156V99.8H155.9V99.9H155.8H155.7H155.6V100H155.5V100.1L155.4 100.2L154.9 100.3V100.2L154.4 100.4L154.3 100.3V100H154.2V100.1V100.2H154.1H153.5H153.2L153.1 100.3H152.8L152.7 100.2H152.6V100.1L152.7 99.9V99.7V99.6L152.6 99.5L152.4 99.7H152.3L152.1 99.8H151.8V100L151.9 100.1V100.2H151.8L151.7 100.3V100.4H151.6V100.5L151.5 100.4V100.5H151.4L151.3 100.6V100.5H151.2H151.1V100.4V99.9L150.8 100H150.6L150.4 99.9L150.3 99.8L150 99.6H149.9L150 99.5V99.4H149.8H149.6V99.3H149.1V99.4L149.2 99.5V99.7L149.4 99.8H149.5L149.6 99.9H149.5V100L149.4 100.1L149.3 100.2L149.2 100.4L149.3 100.5H149.4V100.6V100.7V100.8H149.5V100.9H149.6V101H149.7V101.1H149.8V101.2L149.7 101.5L149.4 101.4H149.3H149.2H148.7L148.3 101.5V101.4H148.2L148.1 101.3L148.2 101.2H148.3L148.4 101.1L148.3 101V100.9L148.2 100.8L148.3 100.7V100.6H148.2L148.1 100.5V100.4V100.3H148H147.9V100.2V100.1H147.8V100V99.9H147.7V99.8L147.8 99.6H147.9V99.5V99.4H147.8L147.9 99.2L147.7 99L147.9 98.8H148V98.7V98.6L147.9 98.5V98.4V98.3L147.8 98.2V98.1V98L147.6 97.9H147.5H147.4V97.8L147.3 97.7V97.6V97.4H147.4V97.3L147.3 97.2V97.1H147.2V97V96.9H147.1V96.8H147V96.7L147.1 96.6V96.5V96.4V96.3V96.1L147 96H147.1V95.9V95.8H147.2V95.7H147.1H147V95.6L146.9 95.7H146.8H146.7V95.8H146.6V95.9L146.4 96L146.3 96.1L146.1 96.2L146 96.3H145.9L145.8 96.2V96.1V96V95.9V95.8L145.9 95.7V95.6H145.8V95.5V95.4L145.5 94.7L145.4 94.3H145.6H145.7L145.8 94.2L145.7 94.1V94H145.6H145.5H145.4V93.9H145.3H145.2V93.8L145.3 93.7H145.2V93.6H145.1V93.7H145V93.8H144.9H144.8L144.7 93.7V93.6V93.5V93.4H144.6V93.3H144.5V93.2V93.1H144.4V93L144.3 92.8V92.7L144.2 92.8L144.1 93.1L143.9 93.7L143.6 93.6H143.5L143.4 93.8V93.9H143.3V94V94.2L143.2 94.3V94.4L143.1 94.5L143 94.6V94.7H142.9H142.8H142.5H142.3H142.2L142 94.6H141.9V94.5H141.8V94.4H141.7H141.6H141.5V94.3H141.4H141.3H141.2V94.2L141.1 94.1V94V93.9H141V94H140.9H140.8V93.9H140.7V93.8L140.6 93.7V93.6V93.5H140.7V93.4H140.6V93.3V93.2H140.7H140.8V93.1L140.9 93V92.9V92.8L140.8 92.7L140.6 92.1L140.5 91.4L140.4 91.2L140.2 91.3L139.8 91.4L139.6 91L139.5 91.1V90.7L138.9 90.6H138.7L137.8 90.5L137.7 91L137.6 91.1H137.5L137.4 91H137.3L137.1 91.1H137V90.8V90.6H136.9V90.7H136.8H136.7H136.6L136.5 90.6L136.4 90.5V90.4L136.2 90.2V90.5L136.3 90.7H136.2H136.1L136 90.6H135.9H135.8L135.6 90.5H135.5H135.4H135.3V90.6L135.1 90.7V90.8H135V90.9V91V91.1H134.9L135 91.2L134.9 91.3V91.4V91.5V91.6H135.1L135.2 91.5H135.3V91.6V91.8L135.2 92V92.1V92.2L135 92.3V92.2L134.8 92.3H134.7H134.6V92.2H134.5H134.4H134.3V92.1V92H134.2H134.1H134L133.8 92.2V92.3V92.5V92.7L133.9 92.8L133.8 93.1L133.5 94.6L133.3 96.1L133.2 96.3L133.1 96.8V97.2L133 97.6L132.9 97.7L132.8 97.6L132.7 97.5H132.5V97.4H132.4H132.3H132.2H132.1H132V97.5H131.9L131.8 97.4V97.3V97.2V97.1H131.7H131.6H131.5H131.4H131.3V97H131.2V97.1V97.2L131.1 97.3L131 97.4V97.5L131.2 97.6V97.7V97.8V97.9H131.1V98V98.1V98.2L131 98.3V98.4V98.5V98.6V98.7V98.8L130.9 98.9H130.8H130.7H130.6H130.5H130.4H130.3H130.2H130.1V99L130 99.1H129.9L129.6 99.2H129.2L128.8 99.4V99.5L128.7 99.6L128.8 100.3L128.6 100.5H129.2L129.3 100.6H129.4V100.7V100.8H129.5L129.6 100.9V100.8L129.7 101V101.1V101.2L129.6 101.4V102.1V102.3V102.5V102.7V103.2L129.5 103.3L129.3 103.5H128.4H127.9H127.7L127.3 103.6V104.3L126.9 104.2V103.9H126.8L126.9 104H126.8L126.7 103.9L126.6 104H126.5L126.3 104.1V104H126.4V103.9H126.5L126.4 103.8H126.5H126.6V103.7L126.7 103.5V103L126.2 103.1L126.1 103L126 102.8H125.9L125.7 102.9H125.6H125.5L125.4 103H125.3V103.1L125.2 103L124.7 103.1L124.5 103.2H124.4L124.2 102.7H124.1H124L123.4 102.1H123.3L123 102.4H122.9L122.8 102.6L122.7 102.7V102.8V102.9L122.6 103V103.1H122.5H122.4V103.2H122.3V103.3V103.4H122.2H122.1V103.3H122L121.9 103.2L121.7 103.3L121.6 103.4L121.4 103.5L120.8 103.7L120.2 103.9L120 104L119.9 103.8L119.8 103.9L119.7 103.7H119.6L119.7 103.8L119.6 103.9V104H119.5H119.4H119.3L119.2 104.1V104.2V104.3L119.1 104.4V104.5H119V104.6H118.9V104.7H118.8V104.8H118.7H118.6V104.9H118.5V105V105.1V105.2H118.4V105.3V105.4H118.3V105.5L118.2 105.6L118 106L117.6 105.5H117.5L117.6 105.2L117.9 104.7L117.8 104V103.9L117.1 103.6H117L116.9 103.5H116.8H116.7L116.5 103.4L115.8 103.1V103L115.3 102.7L115 102.5L114.8 102.3H114.7L114.6 102.2H114.5L114.4 102L114.1 101.9L113.9 101.7L113.6 101.6V101.7L113.5 101.8L113.4 101.7H113.3H113.2H113.1V101.6H113L112.9 101.5L112.8 101.4H112.7H112.6V101.3L112.5 101.2V101.1L112.3 101L112.4 100.8L112.3 100.7L112.1 100.6V100.7L112 100.9L111.8 101.2V101.3L111.7 101.4H111.6L111.1 101.6H111L110.8 101.7H110.5H110.4H110.3V101.8H110.2V101.9H110.1H110L109.8 102V102.1L109.7 102.2L109.5 102.3L109.4 102.4L108.1 101.8L107.8 101.9H107.7L107.1 102L106.8 102.1L106.7 102.2L106.6 102.3L106.7 102.4V102.5L106.8 102.6V102.8L106.7 103H106.8L106.6 103.7V103.8V103.9L106.5 104.1L106.3 104.7L106 104.6L105.8 104.3V104.4H105.7H105.6H105.5H105.4H105.3H105.2H105.1H105H104.9H104.8V104.3H104.7H104.6H104.5H104.4H104.3H104.2V104.4H104.1H104H103.9H103.8V104.3V104.2H103.7V104.1L103.8 104V103.9V103.8L103.5 103.9H103.4L103.3 104H102.9H102.8V104.1L102.7 104.2L102.6 104.3L102.4 104.4L102.2 104.5L102 104.4L101.9 104.3L101.8 104.4L101.7 104.5L101.6 104.6L101.8 104.8V104.9V105H101.7L101.6 105.1H101.5H101.4L101.3 105.2H101.2H101.1H101V105.3H100.9L100.8 105.4V105.3V105.2V105.1L100.7 105L100.9 104.8L101.2 104.3L101.5 104L100.9 103.5L100.3 104.2L100.1 104.5L100.4 104.4V104.5H100.5V104.6H100.6V104.7L100.7 104.8H100.6L100.2 105.1L100.3 105.3H100.4V105.4L100.6 105.5L100.8 105.6L100.7 105.7V105.8H100.6V105.9H100.5V106H100.6L100.7 106.1H100.8V106.2V106.3H100.9V106.4L100.8 106.5V106.6H100.7H100.6V106.5L100.5 106.6L100.4 106.7H100.3L99.9 107.1L99.7 107.3L99.8 107.4L100.1 107.7L99.9 108.2V108.3V108.4L99.8 108.5L99.5 109.3L99.7 109.4H99.9L99.8 109.6L99.7 109.9L99.3 110.1L99 110.3L98.1 110.9L98.2 111.5V111.8L97.4 112L96.7 112.3L96.2 112.5L96 112.6H95.9L95.1 113L95 113.1L94.2 113.7L94.1 113.8L93 114.8L92.8 114.9L92.9 115H93L93.4 115.6H93.5L93.3 115.9V116L93 116.4H92.9V116.5L92.8 116.4L92.9 116.3V116.2V116.1V116L92.8 115.9L92.7 115.8V115.7V115.6V115.5H92.6H92.5H92.4V115.4H92.3V115.5H92.2V115.6H92.3V115.7V115.8H92.4V115.9V116V116.1H92.3V116.2L92.2 116.3V116.4V116.5H92.1L92 116.6V116.7H91.9L91.8 116.8H91.7L91.6 116.9L91.5 117H91.4V117.1H91.3V117V116.9L91.4 116.8V116.7H91.5V116.6L91.6 116.5V116.4V116.3V116.2H91.7V116.1H91.6L91.5 116H91.4V116.1H91.3V116.2V116.3V116.4H91.2H91.1V116.5H91V116.6V116.7V116.8H90.9V116.9H91L90.9 117V117.1V117.2V117.3V117.4H91V117.5H90.9V117.6H90.8H90.7H90.6L90.5 117.5H90.4H90.3H90.2V117.4V117.3V117.2V117.1V117H90.1H90V116.9H89.9V116.8V116.7H89.8H89.7V116.6H89.6H89.4H89.3V116.7V116.8V116.9V117V117.1V117.2H89.4V117.3V117.4V117.5V117.6V117.7H89.3H89.2V117.6H89.1H89H88.9H88.8H88.7H88.6V117.7H88.5H88.4V117.8H88.3H88.2H88.1V117.7H88L87.9 117.6H88V117.5V117.4H87.9H87.8H87.7H87.6L87.9 117.1V117L87.8 116.7H87.7V116.6H87.6V116.5V116.4H87.5H87.4V116.3V116.2H87.3V116.1V116H87.2V115.9H87.3V115.8V115.7V115.6V115.5L87.2 115.4V115.3L87.1 115.2H87V115.3H86.9H86.8V115.2H86.7V115.3H86.6H86.5H86.4V115.4H86.3H86.2H86.1H86V115.3H85.9H85.8V115.4V115.5H85.7V115.6H85.6H85.5H85.4H85.3H85.2V115.7H85.1H85V115.8H84.9V115.9L84.8 116H84.7H84.6V115.9H84.5V115.8H84.4V115.7V115.6V115.5V115.4H84.3V115.3L84.2 115.2V115.1L84.3 115V114.9V114.8V114.7H84.2V114.6H84.1H84H83.9V114.5H83.8L83.7 114.6H83.6H83.5H83.4V114.7H83.3H83.2H83.1L83 114.6H82.9H82.8H82.7V114.5H82.6H82.5H82.4L82.3 114.6H82.2V114.7V114.8V114.9V115V115.1V115.2L82.1 115.3H82V115.4H81.9H81.8V115.3H81.7L81.6 115.2H81.5V115.1H81.4H81.3H81.2H81.1H81H80.9H80.8H80.7H80.6V115H80.5H80.4H80.3H80.2V115.1H80.1V115.2H80V115.3V115.4H79.9V115.5L79.8 115.6V115.7H79.7V115.8V115.9H79.6V116H79.5V116.1V116.2H79.4V116.3V116.4H79.3V116.5L79.2 116.6V116.7H79.1V116.6V116.5V116.4H79H78.9V116.3H78.8V116.2H78.7H78.6V116.3H78.5H78.4V116.4V116.5H78.3V116.6V116.7H78.2V116.8H78.1V116.9H78V116.8H77.9V116.7V116.6H77.8H77.7V116.7H77.6V116.8L77.5 116.9V117V117.2V117.3V117.4V117.5H77.4V117.6H77.3H77.2H77.1V117.5H77H76.9H76.8V117.4V117.3V117.2V117.1H76.7V117V116.9V116.8H76.6V116.7H76.5H76.4H76.3V116.6H76.2V116.7H76.1V116.8H76L75.9 116.9V117L76 117.1V117.2V117.3H75.9H75.8L75.7 117.2V117.1H75.6H75.5H75.4V117H75.3H75.2H75.1H75V116.9H74.9V116.8V116.7H75V116.6V116.5H75.1V116.4V116.3H75V116.2H74.9H74.8H74.7V116.1H74.6V116V115.9V115.8H74.5V115.7V115.6H74.4V115.5H74.3H74.2L74.1 115.6V115.7H74V115.8H73.9L73.8 115.7H73.7V115.6V115.5H73.6V115.4V115.3V115.2H73.5V115.1H73.4H73.3L73.2 115.2H73.1V115.1H73H72.9H72.8L72.7 115H72.6H72.5V115.1H72.4H72.3V115.2H72.2H72.1H72H71.9V115.3L71.8 115.4H71.7H71.6V115.3H71.5V115.2H71.4V115.1H71.3V115V114.9V114.8H71.2H71.1H71H70.9V114.9H70.8H70.7H70.6V115H70.5H70.4H70.3V115.1H70.2H70.1H70V115H69.9V115.1H69.8V115H69.7L69.6 114.9H69.5V114.8V114.7H69.4V114.6H69.3V114.5H69.4V114.4H69.3H69.2H69.1V114.3H69H68.9H68.8H68.7V114.2H68.6V114.3V114.4V114.5V114.6L68.7 114.7V114.8H68.8V114.9V115V115.1V115.2V115.3H68.7V115.2H68.6L68.5 115.1H68.4H68.3H68.2V115H68.1H68V115.1H67.9H67.8H67.7H67.6H67.5H67.4H67.3H67.2H67.1H67V115H66.9H66.8H66.7H66.6H66.5V115.1H66.4V115.2H66.3V115.3L66.2 115.4V115.5V115.6V115.7H66.3V115.8V115.9L66.4 116V116.1H66.3V116.2H66.2L66.1 116.3H66V116.2L65.9 116.3H65.8H65.7L65.6 116.4L65.5 116.3H65.4V116.2V116.1L65.3 116L65.2 115.9H65.1H65L64.6 115.8H64.3H64.2H64.1H64H63.9H63.8H63.7H63.6L63.5 115.9L63.4 116L63.3 115.9V116H63.1V115.9H63V115.8V115.7L62.9 115.6V115.5V115.4H62.8V115.3L62.7 115.2V115.1H62.6V115L62.5 114.9V114.8H62.4V114.7V114.6H62.3H62.2L62.1 114.5H62L61.8 115.1L61.6 115.4L60.4 114.9L59.7 114.7L59.3 114.5L59.1 114.4L59 115V115.1H58.9H58.8H58.5H58.2H57.4L56.9 114.9L56.4 114.6H56.3L55.6 114.9L53.6 115.7L53.3 115.8H53.2L53.1 116.8H53H52.8L52.5 116.7L52.3 117L52.1 117.7L51.8 118.3L51.4 118.2H51.2H51.1H51H50.9L50.7 118V118.1H50.6H50.5H50.4H50.3H50.2L50.1 118.2L50.3 118.4L50.6 118.6L51 119.1L51.1 119.3L51.2 119.5L51.4 119.8L51.9 119.9L51.8 120.7V120.8H51.7H51.6V120.9V121V121.1H51.5V121.2H51.4V121.3V121.4V121.5V121.6V121.7V121.8L51.3 121.9V122V122.1V122.2V122.3V122.4V122.5V122.6H51.2L50 123L49.5 123.1L49 123.3H48.9L48.8 123.4L48.3 124.4L47.9 125.1L47.8 125.3L48.1 125.6L48.5 125.9V125.8L48.6 125.9L49.1 126.3L49.5 126.6L49.9 127L49.7 127.1L49.5 127.4L49.2 127.7L49.3 127.8H49.4L49.5 127.9H49.6L49.7 128H49.8L49.7 128.2L49.6 128.7L49.5 129H49.7L49.8 129.1L49.7 129.8V129.9L48.6 129.7L48.3 129.6V129.7V129.8H48.2V129.9H48H47.9H47.8V130H47.7L47.6 129.9V130H47.5V129.9H47.1H47L46.9 129.8H46.7L46.6 130V130.1H46.4V130V129.8H46.3H46H45.9L45.6 129.7L45.7 129.9L45.6 130V130.1H45.5L45.4 130H45.3H45.2H45.1L45 129.9L44.9 129.8L44.6 129.4L44.2 129L44 128.7H43.9H43.8L43.2 128.8L42.4 129.1H42.3L41.4 129.4L41.3 129.7L41.2 130.1L41.1 130.4L41 130.7L40.9 131L40.8 131.3L40.6 131.7V131.8V131.9V132V132.4V132.6V133H40.4H39.9H39.6H39.4H39.3L38.9 133.1H38.8H38.6L38.5 133.2L37.5 133.4L37.1 133.6L36.7 133.9L36.6 134.1H36.4L36 134.2L34.5 134.5L33.9 134.6V134.7L34 135V135.2V135.8L33.5 136.1L32.9 136.3H32.7L32.2 136.5L31.8 136.2H31.7L30.9 135.7L30.1 135.2L29.3 134.7L29.1 134.9L29 135L28.7 135.2V135.3V135.5V135.6V135.7L28.8 135.8V136H28.9L29 136.1L28.8 136.3H28.7V136.4V136.5H28.6V136.6V136.7H28.5V136.8L28.4 136.9V137V137.1L28 137.3H27.9H27.8H27.7V137.4V137.6V137.7L27.6 137.8H27.5V137.9L27.3 137.8L27.2 138H27.1V138.1V138.2V138.3V138.4H27.2V138.5L27 138.6H26.9L26.8 138.7H26.7H26.6L26.5 138.6L26.2 138.5L25.9 138.4H25.8H25.7L25.6 138.3H25.5L25.4 138.1L25.3 137.9V137.8V137.6H25.2H25.1V137.5H25H24.9L24.8 137.4H24.7L24.5 137.2V137.1L24.3 136.9L24.2 136.8V136.7L24 136.6L23.8 136.5L23.6 136.4V136.3H23.5L22.6 136.5L21.9 136.6L21.1 136.7L21.2 137.1H21H20.7H20.1H19.5V137.2Z" fill="#6F9C76"/>
<path d="M8.29999 79.5L8.20001 79.4H8.10001H8V79.3H7.89999V79.2H7.79999L7.70001 79.3H7.60001L7.5 79.4L7.39999 79.5V79.6L7.29999 79.7H7.20001H7.10001H7H6.89999H6.79999L6.70001 79.6H6.60001H6.5V79.5H6.39999H6.29999V79.4H6.20001H6.10001L6.20001 79.8L6.5 80.8L6.70001 80.9L7.29999 81.1V81.7V82.1V82.5V82.7V82.8L7.20001 82.7H7.10001H7V82.6L6.89999 82.7L6.79999 82.9V83.2V83.6H6.89999L6.79999 84V84.2V84.4V84.5V84.7L6.70001 84.8H6.39999L6.5 85V85.3V85.8H6.60001V85.9L6.70001 86.1L6.79999 86.3L6.89999 86.6H7.5L7.60001 86.8V87.3L7.39999 87.4H7.29999H7.20001L7.10001 87.5H7H6.89999H6.79999H6.70001V87.6H6.39999L6 87.7L5.20001 87.8L5 88.1H4.89999H4.79999L5 88.9V89V89.1L5.10001 89.2V89.3V89.4L5.20001 89.5V89.6V89.7L5.29999 89.9L5.20001 90L5 89.9H4.89999L4.79999 89.8H4.70001H4.60001H4.5L4.39999 89.7H4.29999V89.6H4.20001L4 89.5H3.89999H3.79999H3.70001L3.60001 89.4L3.5 89.3L3.39999 89.5L3.29999 90L3.10001 90.5V90.7L3 91L2.79999 91.7L2.60001 92.1L3 92.4L2.89999 92.5V92.6L2.79999 92.7H2.70001H2.60001H2.5L2.39999 92.8V92.9L2.5 93.1L2.39999 93.2L2.29999 93.1L2.20001 93H2.10001V92.9L2 92.8H1.89999V92.7L1.79999 92.5H1.70001V92.4H1.60001L1.20001 92.3V92.4L1.29999 92.5L1.39999 92.6V92.7H1.5V92.8V92.9V93V93.1V93.2H1.60001V93.3V93.4L1.70001 93.5V93.6H1.79999L1.89999 93.7L2 93.8V93.9L2.10001 94V94.1L2.29999 94.6V94.7V94.8V94.9V95H2.39999V95.1L2.70001 95.6L2.89999 95.9L3.39999 95.5H3.5L3.60001 95.7V95.6H3.70001H3.79999V95.5H3.89999V95.4H4V95.3H4.10001L4.20001 95.2H4.29999V95.1H4.39999V95V94.9H4.5H4.60001V95H4.70001V95.1L5 94.8L5.10001 94.7V94.9V95.1L5 95.3L5.10001 95.4V95.6V95.7H5.20001L5.39999 95.6L5.5 95.8L5.29999 96L5.20001 96.2L5.10001 96.3L5.29999 96.4L5.70001 96.7L5.20001 97.4L5 97.7L4.60001 98.3L4.39999 98.7L3.89999 99.4L3.70001 99.6L3.5 99.9L3.70001 100.2L3.89999 100.6L4 100.7L3.89999 100.8L3.70001 101.3L3.60001 101.5L3.79999 101.6L3.70001 101.7L3.79999 101.8L4.10001 102L4.29999 102.1V102.2L4.39999 102.3L4.20001 102.4L4.10001 102.5V102.6H4.29999L4.5 102.8L5.29999 103.5L6 103.2L6.20001 103.3L6.39999 103.4V103.5H6.5L6.60001 103.6H6.70001H6.79999L7.29999 103.7H7.39999L7.70001 103.8V103.9H7.60001V104L7.5 104.1L7.10001 104.3L7 104.4L6.89999 104.5L6.60001 104.6H6.5H6.39999V104.7V104.8L6.5 104.9V105H6.60001H6.70001V105.1H6.79999H6.89999H7H7.10001V105.2L7.20001 105.3H7.29999V105.4L7.39999 105.5L7.29999 105.7L7.39999 105.8V105.9V106.4V106.7L7.5 107V107.5V107.8V107.9L7.79999 108H8H8.10001V108.1L8.39999 108.2L8.70001 108.4H8.79999L9 108.5H9.10001V109V109.7V109.8L9.20001 110.4V110.8V111.3V111.8V112.2L9.29999 112.6V112.9V113.1V113.2L9.60001 113.3L9.70001 113.4L9.79999 113.3H9.89999L10 113.2H10.1H10.2L10.3 113.3L10.4 113.4L10.5 113.5L10.6 113.6H10.7H10.8H10.9L11 113.7H11.2H11.3L11.2 113.9H11.1V114L11 114.1L11.8 114.3H12L13.4 114.7H13.5L13.7 114.8L14 114.9H14.3V115.2L14 115.3L14.1 115.5L14.3 115.7L14.6 116.2H14.7L14.9 116.3V116.4V116.5H15V116.6V116.7H15.1V116.8H15.2V116.9V117V117.1L15.1 117.4L14.7 117.2L14.4 117.1L14.3 117.5L14.2 117.6L14.1 118L14 118.1L14.1 118.2L13.8 118.7L14.2 118.8L14.1 119.1H14.3L14.1 119.8L14.6 119.5L14.7 119.6L15.1 120L15.4 120.4L15.8 120.8L16 121L16.3 121.3L16.6 121.6L16.9 121.9L17.6 122L18.4 122.1L18.3 122.3L18.2 122.4V122.5V122.6V122.7L18.3 123L18.9 122.9L19 123.6L19.4 123.5V123.8V124L19.5 124.1L19.6 124.2H19.9V124.5L20 124.7L20.6 124.6L20.7 124.9V125V125.1L20.6 125.2L20.5 125.3V125.4V125.6V125.7V125.8H20.4V126H20.5L20.6 126.1V126.2V126.3V126.4H20.5L20.4 126.5H20.3L20.2 126.6V126.5H19.9H19.6L19.5 126.6H19.4L19 126.7H18.8H18.6L18.7 126.9L18.6 127V127.3L18.5 127.7H18.4L18.5 127.8V127.9V128L18.6 128.1L18.7 128.4L18.9 128.6L19 128.7L19.6 128.6L19.9 128.7L20.3 128.9L20.7 129L21.2 129.4H21.4V129.5V129.6L21.3 129.8V129.9V130.4V130.5L21.4 130.6V130.7L21.3 130.8V131.1L21.4 131.2L21.5 131.3V131.6H21.6L21.5 131.8H21.6H21.8V131.9L21.9 132H22H22.1V132.1L22 132.3H22.1V132.4V132.8L22 133.1V133.3V133.4H22.1V133.5V133.6L22 133.7L21.9 133.6L21.8 133.5H21.7H21.6H21.5H21.4V133.6H21.3V133.5H21.2L21.1 133.4H21H20.9H20.8L20.7 133.5L20.5 133.7L20.6 133.9L20.9 134H21H21.1L21.3 133.8V134H21.4V134.1V134.2L21.3 134.3V134.5V134.6L21.2 135V135.3L21.1 135.6H20.7L20.5 135.5H20.1V135.6L19.9 135.8H19.7L19.6 135.7H19.5H19.4L19.3 136.2L19.2 136.5V136.7L19.1 137V137.1H19.3L19.5 137.2V137.1H20.1H20.7H21H21.2L21.1 136.7L21.9 136.6L22.6 136.5L23.5 136.3H23.6V136.4L23.8 136.5L24 136.6L24.2 136.7V136.8L24.3 136.9L24.5 137.1V137.2L24.7 137.4H24.8L24.9 137.5H25H25.1V137.6H25.2H25.3V137.8V137.9L25.4 138.1L25.5 138.3H25.6L25.7 138.4H25.8H25.9L26.2 138.5L26.5 138.6L26.6 138.7H26.7H26.8L26.9 138.6H27L27.2 138.5V138.4H27.1V138.3V138.2V138.1V138H27.2L27.3 137.8L27.5 137.9V137.8H27.6L27.7 137.7V137.6V137.4V137.3H27.8H27.9H28L28.4 137.1V137V136.9L28.5 136.8V136.7H28.6V136.6V136.5H28.7V136.4V136.3H28.8L29 136.1L28.9 136H28.8V135.8L28.7 135.7V135.6V135.5V135.3V135.2L29 135L29.1 134.9L29.3 134.7L30.1 135.2L30.9 135.7L31.7 136.2H31.8L32.2 136.5L32.7 136.3H32.9L33.5 136.1L34 135.8V135.2V135L33.9 134.7V134.6L34.5 134.5L36 134.2L36.4 134.1H36.6L36.7 133.9L37.1 133.6L37.5 133.4L38.5 133.2L38.6 133.1H38.8H38.9L39.3 133H39.4H39.6H39.9H40.4H40.6V132.6V132.4V132V131.9V131.8V131.7L40.8 131.3L40.9 131L41 130.7L41.1 130.4L41.2 130.1L41.3 129.7L41.4 129.4L42.3 129.1H42.4L43.2 128.8L43.8 128.7H43.9H44L44.2 129L44.6 129.4L44.9 129.8L45 129.9L45.1 130H45.2H45.3H45.4L45.5 130.1H45.6V130L45.7 129.9L45.6 129.7L45.9 129.8H46H46.3H46.4V130V130.1H46.6V130L46.7 129.8H46.9L47 129.9H47.1H47.5V130H47.6V129.9L47.7 130H47.8V129.9H47.9H48H48.2V129.8H48.3V129.7V129.6L48.6 129.7L49.7 129.9V129.8L49.8 129.1L49.7 129H49.5L49.6 128.7L49.7 128.2L49.8 128H49.7L49.6 127.9H49.5L49.4 127.8H49.3L49.2 127.7L49.5 127.4L49.7 127.1L49.9 127L49.5 126.6L49.1 126.3L48.6 125.9L48.5 125.8V125.9L48.1 125.6L47.8 125.3L47.9 125.1L48.3 124.4L48.8 123.4L48.9 123.3H49L49.5 123.1L50 123L51.2 122.6H51.3V122.5V122.4V122.3V122.2V122.1V122V121.9L51.4 121.8V121.7V121.6V121.5V121.4V121.3V121.2H51.5V121.1H51.6V121V120.9V120.8H51.7H51.8V120.7L51.9 119.9L51.4 119.8L51.2 119.5L51.1 119.3L51 119.1L50.6 118.6L50.3 118.4L50.1 118.2L50.2 118.1H50.3H50.4H50.5H50.6H50.7V118L50.9 118.2H51H51.1H51.2H51.4L51.8 118.3L52.1 117.7L52.3 117L52.5 116.7L52.8 116.8H53H53.1L53.2 115.8H53.3L53.6 115.7L55.6 114.9L56.3 114.6H56.4L56.9 114.9L57.4 115.1H58.2H58.5H58.8H58.9H59V115L59.1 114.4L59.3 114.5L59.7 114.7L60.4 114.9L61.6 115.4L61.8 115.1L62 114.5H62.1L62.2 114.6H62.3H62.4V114.7V114.8H62.5V114.9L62.6 115V115.1H62.7V115.2L62.8 115.3V115.4H62.9V115.5V115.6L63 115.7V115.8V115.9H63.1V116H63.3V115.9L63.4 116L63.5 115.9L63.6 115.8H63.7H63.8H63.9H64H64.1H64.2H64.3H64.6L65 115.9H65.1H65.2L65.3 116L65.4 116.1V116.2V116.3H65.5L65.6 116.4L65.7 116.3H65.8H65.9L66 116.2V116.3H66.1L66.2 116.2H66.3V116.1H66.4V116L66.3 115.9V115.8V115.7H66.2V115.6V115.5V115.4L66.3 115.3V115.2H66.4V115.1H66.5V115H66.6H66.7H66.8H66.9H67V115.1H67.1H67.2H67.3H67.4H67.5H67.6H67.7H67.8H67.9H68V115H68.1H68.2V115.1H68.3H68.4H68.5L68.6 115.2H68.7V115.3H68.8V115.2V115.1V115V114.9V114.8H68.7V114.7L68.6 114.6V114.5V114.4V114.3V114.2H68.7V114.3H68.8H68.9H69H69.1V114.4H69.2H69.3H69.4V114.5H69.3V114.6H69.4V114.7H69.5V114.8V114.9H69.6L69.7 115H69.8V115.1H69.9V115H70V115.1H70.1H70.2H70.3V115H70.4H70.5H70.6V114.9H70.7H70.8H70.9V114.8H71H71.1H71.2H71.3V114.9V115V115.1H71.4V115.2H71.5V115.3H71.6V115.4H71.7H71.8L71.9 115.3V115.2H72H72.1H72.2H72.3V115.1H72.4H72.5V115H72.6H72.7M8.29999 79.5L8.70001 79.3V79.4H8.60001V79.5H8.5H8.39999L8.29999 79.6V79.5ZM8.29999 79.5L8.20001 79.6L8.29999 79.7H8.20001V79.8V79.9V80H8.10001L8 80.1V80.2L8.10001 80.5H8H7.89999L7.79999 80.6H7.60001L7.5 80.7H7.39999H7.29999L7.5 81L7.79999 81.3L7.89999 81.4L8 81.5L8.20001 81.8L8.29999 81.9V82L8.5 82.2L8.70001 82.5L8.89999 82.8L9 82.9L9.70001 82.8L10.1 82.7L10.4 82.6L11.3 82.5H11.4L11.6 82.4H11.7H11.8V82.5L11.9 82.6V82.7V82.8L12 83L12.3 82.9H12.4L12.5 82.8H12.6L12.9 82.7V82.6L13.2 82.5L13.5 82.4L13.7 82.3L13.9 82.2L14 82.3H14.2H14.5H14.6L14.8 82.4H15.1H15.2V82.2V82.1V82V81.9V81.8H15.1V81.7L15 81.6L14.9 81.5V81.4V81.3H15H15.1L15.4 81.2L15.7 81H15.9L15.7 80.7L16.2 80.3L16.5 80.1L16.4 80H16.5L16.4 79.9L16.3 79.7L16.6 79.4L17 79.1L17.1 79V78.9L17.3 78.6L17.5 78.3V78.2L17.6 78.1V78V77.9V77.8V77.7L17.7 77.6H17.8H17.9H18H18.1H18.2L18.5 77.5H18.6H18.7H18.8V77.4V77.3L18.9 77.2V77.1V77V76.9V76.8V76.7V76.5V76.4V76V75.6V75.4V75.1V74.8V74.7V74.6V74.5L18.8 74.4L18.7 74.1L18.6 74L18.5 73.9L18.4 73.7L18.3 73.5V73.4V73.3V73.2L18.4 73.1V73L18.5 72.9V72.8V72.7H18.6H18.7H18.8V72.8H18.9V72.9L19 73V73.1H19.1L19.3 73H19.4L19.5 72.9L19.6 72.8L19.8 72.7L20.1 72.5L20.2 72.4H20.3H20.4H20.6H20.7H20.9H21H21.2H21.3L21.4 72.5L21.5 72.2V72.1V72V71.9L21.6 71.6V71.5L21.7 71.4H21.8H21.9H22H22.1L22.4 71L22.7 71.1L22.8 71.2L23.4 71.4L24.6 71.7H24.7V71.8H24.8H24.9V71.9H25L25.1 72.1V72.2V72.3H25.2L25.3 72.4V72.5H25.4V72.7V72.8V72.9V73L25.3 73.1L25.4 73.2V73.3V73.4V73.5H25.3V73.6H25.2V73.7L25.3 73.8V73.9H25.4V74H25.5V74.1V74.2V74.3V74.4V74.5V74.6L25.6 74.7V74.8V74.9H25.7H25.8V75H25.9V75.1L26 75.2V75.3L26.1 75.4V75.5L26.3 75.6V75.7H26.4H26.5L26.6 75.8L26.7 75.9H26.8V75.8H26.9V75.7V75.6H27V75.5V75.4V75.3L27.1 75.2L27.2 75.1H27.3V74.9V74.8V74.7V74.6V74.5L27.2 74.3L27.1 74.2V74.1L27.2 74H27.1V73.9L27 73.8L26.9 73.7L26.8 73.6H26.7V73.5H26.6L26.5 73.4V73.3H26.6V73.2L26.7 73.1V73H26.8V72.9H26.9V73H27.1V72.9H27.2V72.8H27.3H27.4M27.4 72.8V72.9M27.4 72.8H27.5V72.7L27.6 72.6H27.7L27.8 72.4V72.2L27.9 71.6L28 71.2H28.1H28.2V71.1H28.3L28.5 71L28.6 70.9V71V71.2V71.3V71.6L29 71.5H29.1H29.3H29.6H29.9H30H30.1L30.9 71.4H31.2L31.1 72L31 72.6L30.9 73.3V73.4V73.8V74.1V74.3L30.8 74.6V74.7V74.8L30.7 75.1L30.6 75.6H30.7L31.1 75.7H31.5H31.7L32.3 75.8H32.7L33 76L33.1 75.9H33.2H33.3L33.4 76H33.5H33.6H33.7H33.8H33.9L34 76.1H34.1V75.8L34.3 75.9L34.8 76L35.2 76.1H35.3H35.4L35.5 76.2L35.9 76.3H36L36.3 76.4H36.4L36.7 76.5L37.3 76.6L37.6 76.7H37.8L38 76.8L39 77H39.3L39.6 77.1V77.2V77.3V77.4V77.5H39.5V77.6V77.7V77.8V77.9L39.8 78H40L39.9 78.2V78.3V78.4L39.8 78.5L40 78.6L40.1 78.4L40.2 78L40.3 77.7L40.4 77.3V77.1L40.5 77V76.9V76.8L40.6 76.5V76.2V75.9L40.7 75.8L40.8 75.3V75L40.9 74.7V74.4L41 74L41.1 73.4H41.2H41.3H41.4H41.5H41.7H41.8H42H42.1H42.2H42.3V73.3V73.1L42.2 72.7L42 71.3L42.2 71.2H42.3H42.5H42.6L42.8 71.1H42.9H43H43.1L43.2 71H43.3V70.9H43.4V70.8L43.3 70.2L43.2 70.1V70V69.6H43.3H43.4V69.5H43.5V69.4H43.6V69.3V69.2H43.7H43.8H43.9H44V69.1H44.1H44.2H44.3V69H44.4V68.9H44.5H44.6L44.7 68.8L44.8 68.7L44.9 68.6H45L45.2 68.9L45.5 69.4L45.9 69.9V70L46.1 70.2L46.2 70.4L46.5 70.8L46.9 71.2L47.1 71.5L47.3 71.4H47.4L47.7 71.3L48.2 71.5V71.2H48.3H48.4H48.5L48.6 71.1L48.5 71V70.9V70.8H48.6V70.7H48.7L48.8 70.6H48.9H49H49.1V70.5H49.2V70.4V70.3V70.2H49.3V70.1V70H49.4V69.9H49.5V69.8H49.6V69.7H49.7V69.6V69.5H49.8V69.4H49.9H50L50.1 69.5H50.2V69.6V69.7H50.3V69.8H50.4H50.5L50.6 69.7L50.8 69.4L51.2 68.9L51.7 68.2H51.8V68.3H51.9L52 68.4L52.1 68.5L52.2 68.6H52.4L52.5 68.7V68.8H52.6L52.8 68.9V69H52.9H53V69.1H53.1L53.2 69.2L53.3 69.3L53.6 69.2L53.9 69.1H54L54.2 69H54.4V69.1V69.2V69.3V69.4H54.5L54.6 69.5V69.4H54.7V69.3H54.8H54.9V69.4H55.1H55.2H55.3L55.4 69.5L55.5 69.6L55.7 69.7V69.8H55.8L56.1 70.2L56.4 70.5L56.6 70.6L56.8 70.8L57.2 70.6L57.4 70.8L57.5 70.9L57.7 71.1H57.8V71.2L57.9 71.1L58.3 70.8L58.4 70.6L58.5 70.5H58.6L58.7 70.4L58.8 70.2H58.9V70.1L59.2 70.2H59.3H59.4H59.5H59.6H59.7H59.9H60H60.2H60.3L60.6 70.1V70H60.7L61 69.8L61.3 69.5H61.4L61.5 69.4L61.7 69.5H62.1H62.2V69.4H62.4H62.6L62.7 69.5H62.8L62.9 69.6H63V69.7H63.1H63.2H63.3V69.6H63.4V69.5L63.5 69.6L63.9 69.5H64.1H64.3H64.4L64.5 69.6H64.6H64.9V69.5L65 69.4V69.3H65.1H65.2L65.4 69.1V68.9L65.8 68.7L66.1 68.8H66.2H66.3L66.9 69.1L67 69V68.9V68.7L67.1 68.6V68.5L67.2 68.3V68.2L67.3 68.1V67.9V67.8H67.4V67.7V67.6L67.5 67.5V67.4V67.3H67.6V67.4H67.7V67.5H67.8H67.9V67.4H68V67.3V67.2V67.1L67.9 66.9V66.8V66.6V66.4L68 66.3L68.2 66.2V65.9V65.7L68.3 65.6V65.4V65.3L68 65.2L67.9 65L67.6 64.7H67.5L68 64.5V64.4L68.3 64.3L68.6 64.2L68.9 64.1H69H69.1H69.2L69.3 64H69.7L70.2 64.1H70.3H70.5H70.7H70.8H70.9V64.2H71H71.1H71.2V64.1H71.3V64L71.4 63.9L71.5 63.8L71.7 63.7V63.6L71.8 63.5V63.1V62.7V62.4V62.3V62.2V61.9L71.9 61.7L72 61.6L72.5 61L72.9 60.5V60.4L73 60.3H73.1V60.4V60.5H73.2V60.6V60.7L73.3 60.9V61V61.1V61.2H73.4V61.3L73.5 61.4V61.5H73.6H73.7H73.8V61.4L73.7 61.2L73.8 61.1V61L73.6 60.6L73.5 60.5V60.2L73.7 60.1V60H73.8L73.9 59.9V59.8H74H74.4L74.6 59.9V59.7V59.6V59.5L74.7 59.4H74.8H74.9V59.3H75H75.1V59.2H75.2H75.3H75.4V59.1H75.5V59H75.6H75.7V58.9H75.8H75.9V58.8V58.7V58.6V58.5V58.4H76L76.1 58.5H76.2V58.4H76.3V58.3V58.2H76.2V58.1V58V57.9H76.3V58H76.4V57.9H76.5V57.8V57.7H76.4L76.3 57.8V57.7H76.2V57.6H76.3V57.5V57.4H76.2H76.1V57.3H76.2V57.2L76.3 57.1H76.4V57H76.3V56.9H76.2V56.8H76.3V56.7L76.4 56.6V56.5V56.4H76.5H76.6V56.3V56.2H76.5V56.1V56V55.9V55.8H76.6V55.7H76.7M76.7 55.7H76.8M76.7 55.7V55.6V55.5V55.4L76.6 55.3L76.5 55.2H76.6V55.1V55H76.5V54.9V54.8H76.4L76.5 54.7V54.6V54.5L76.6 54.4V54.3H76.7H76.8H76.9V54.2V54.1V54V53.9H77V53.8V53.7V53.6H77.1V53.7H77.2H77.3H77.4H77.5V53.6V53.5V53.4H77.6L77.8 53.5L77.9 53.6L78.1 53.8L78.2 53.9H78.3V54H78.4H78.5L78.6 54.1V54V53.9L78.7 53.6L78.8 53.7H78.9L79 53.8H79.1H79.2L79.1 53.7V53.6V53.5V53.4V53.3V53.2V53.1V53V52.9L79 52.8V52.7H78.9L78.8 52.6H78.7H78.6H78.5L78.7 52.4L78.8 52.3L78.9 52.2L79 52.1L79.1 52L79.2 51.9L79.1 51.8H78.9H78.8L78.6 51.7H78.5H78.4L78 51.6L78.1 51.4V51.3V51.2V51.1L78.2 51V50.9V50.8V50.7V50.6H78.3V50.5V50.4L78.4 50.3V50.2V50.1V50V49.9H78.5V49.8V49.7H78.6V49.6V49.5L78.7 49.4V49.3L79 48.7L79.1 48.5L79.2 48.4L79.3 48.2V48.1L79.4 48L79.5 47.9L79.6 47.7L79.8 47.5V47.4L79.9 47.3L80 47.1L80.1 47L80.4 46.5L80.7 46L81 45.6L81.2 45.3L81.5 44.9L81.7 44.5V44.4L81.6 44.1H81.5V44L81.4 43.9V43.8L81.5 43.7L81.7 43.5L81.6 43.4L81.8 43.2L82 43.3L81.9 43.5L82.1 43.6H82.2L82.3 43.4L82.4 43.2V43.1L82.5 43L82.4 42.9H82.3L82.2 42.7H82.1L82 42.6H81.9H81.8L81.4 42.4L81.6 41.9L81.7 41.8L81.8 41.4L81.9 41L82.2 40.2H82.3H82.4L82.5 40.1L82.7 40L82.6 39.8L82.5 39.7V39.5L82.4 39.3V39.2V39.1V39H82.3V38.9L82.2 38.7L82.1 38.6V38.5L82 38.2H82.1L82.2 38.1L82.1 37.9H82V37.8L82.1 37.6L82.2 37.2L82.4 36.6L82.1 36.3L81.4 35.8L81.1 35.5L81.2 35.4L81.3 35.1L81.6 34.5V34.4L81.7 34.2L81.8 34L81.9 33.9H81.8V33.8V33.7H81.9L82.1 33.4V33.3L82.4 32.7L82.6 32.4L82.7 32.2L82.5 31.8L82.4 31.5L82.3 31.4V31.3H82.2V31.2L82.1 31.1V31H82V30.9V30.8V30.7V30.6H82.1L82.4 30.4L84 29.5L84.2 29.6L84.3 29.7V29.8H84.4V29.9L84.5 30V30.1L84.6 30.2H84.7V30.1L84.9 30V29.9H85L85.4 29.3L85.5 29.2L85.7 28.9L86.1 28.4H86.2V28.3L86.6 28.1L87.3 27.8V27.7H87.4H87.5V27.5H87.6L88.2 27.4H88.3L88.4 27.3H88.5H88.6L89 27.2H89.3H89.4H89.5H89.7H89.9H90L90.2 27H90.4L90.5 26.7L90.7 26.4V26.3L90.5 26L89.6 24.7L89 24L88.4 23.9L88.5 23.4L88.9 23.2L89.2 23L89 22.9L88.3 22.4L87.2 21.8L86.7 22.2L86.6 22.4H86.4L86 22.6L86.3 22.2V22.1H86.4L86.5 22L87 21.4L87.4 21L87 20.6L86.6 21L86.4 20.9L86.6 20.4V20.2L86.8 20L87.1 19.7H87.2L87.7 19.6H88L88.4 19.7L88.9 19.8H89.4H89.5L89.6 19.7H89.8H89.9H90.1L90.9 19.5H91.1L91.8 19.7L92.4 19.9L92.6 19.7L92.8 19.8L93.2 20L93.5 20.3L93.8 20.7L93.9 20.8L94 21V21.1V21.2L93.9 21.3L93.7 21.4L93.4 22V22.2L93.3 22.6V22.9V23V23.2L93.4 23.3V23.5L93.3 23.6L93 24.1L92.9 24.2V24.3V24.5V24.7V24.8V25.2L92.8 25.6V25.8V26.1L93 27H93.3L93.5 28L93.7 28.7H94.8L94.9 29H95.3L95.4 29.8L95.5 30H95.6L95.8 30.2H96L96.3 30H96.5V30.3L96.6 30.8L96.7 31V31.1L96.8 31.3H96.9H97.1H97.2L97.3 31.2L97.4 31.1L97.5 31V30.9L97.2 30.5L97.3 30.4V30.3V30.2L97.4 30.1L97.6 30L97.7 29.9V29.7V29.6L97.6 29.5H97.5V29.4V29.3L97.6 29.2L97.8 29L98 29.2L98.1 29.1L98.4 29V28.9L98.5 28.8L98.6 28.9L98.8 28.8V28.7L98.9 28.6L99 28.8L99.1 29L99.2 28.9L99.3 29L99.4 28.9H99.6L99.7 28.6V28.4H99.8L99.9 28.2H100V27.9H100.1L100.2 27.7V27.5V27.3H100.3H100.4H100.7V27H100.8H100.9V26.8V26.7V26.6V26.4H101.4H101.7H102.2H102.4V26.9V27.1L102.5 27.6H102.4L102.3 27.7H102.2L102.3 27.8L102.4 27.9L102.5 28.1L102.6 28.3L102.7 28.5V28.7V28.9L102.6 29.4L102.5 30.4L103 30.3H103.1L103.9 30.2H104V30.3H104.2H104.5H104.6H104.8H104.9H105H105.1L105.2 30.2L105.3 30.3H105.4H105.5L105.9 30.4L106.5 30.6H106.7L107.1 30.7L107.3 30.8H107.4L107.5 30.7H107.7V30.6H107.6L107.7 30.5L107.9 30.3L108.1 29.9L108.2 29.7L108.3 29.6V29.5L108.9 28.4L109.2 27.9L109.4 27.5L109.5 27.4H110.1H110.2H110.5H110.6L110.5 27V26.9V26.4L110.4 26.1V26V25.9V25.6V25.4L110.5 25.2H110.6L110.8 25L110.9 24.9L111.1 24.8L111.2 24.7L111.4 24.5L111.5 24.4L111.6 24.3L111.7 24.1L112 23.4L112.1 23.2L112.3 22.8L112.5 22.5L112.6 22.3V22.2V22.1V21.7L113 21.8H113.8L114.5 21.9H115L115.4 22H116H116.4V22.3V22.6V22.8V22.9H116.5H116.6L116.8 23L116.9 23.2L117 23.5L117.1 23.3L117.2 23.1L117.4 22.8L117.5 22.7V22.6H117.6V22.5L117.7 22.4V22.3L117.8 22.2V22.1V22V21.8V21.7V21.6V21.5V21.4V21.3V21.2V21.1V21V20.9L117.7 20.8V20.7V20.6V20.5V20.4V20.3V20.2V20.1L117.6 20V19.9L117.5 19.6V18.9L117.4 18.6V18.4V18.1H117.3V18L117.2 17.9H117.1V17.8L117 17.7L116.9 17.6H117L117.3 17.5L117.2 17.2H117.3L117.4 17.1L117.5 17H117.6V16.9H117.7H117.8V16.8H118.1L118.3 16.7L118.4 16.6H118.5L118.7 16.5L118.9 16.4L119.2 16.2H119.3L119.6 16L120 15.8L120.2 15.7L120.4 15.6V15.7H120.5V15.8H120.6L120.9 16L121 15.8L121.1 15.4L121.2 15.1L121.3 15L121.1 14.9H120.9H120.8H120.6L120.3 14.8L120 14.7L119.6 14.6H119.5H119.3H119.1V14.5H118.9L118.5 14.4H118.3H118.2H118L117.7 14.5L117.4 14.7L117.2 14.6L117.3 14.4V14.3V14.2V13.7L117.4 13.4V13.3V13.2V13V12.8V12.6V12.4V12.3V12.2V12.1V12L117.5 11.4V11.2L117.7 11.1L117.8 11L118.3 10.7L118.4 10.6L118.7 10.5L118.8 10.4L118.9 10.3L119.1 10.2H119.2L119.4 10.1V10L119.8 9.8H119.9V9.7H120L120.1 9.60001H120.2L120.3 9.5H120.4V9.39999H120.5L120.6 9.3H120.7L120.5 9V8.89999L120.4 8.8L120.3 8.60001H120.2V8.5L120.1 8.39999L120 8.3V8.2L119.9 8.10001V8H119.8L119.5 8.2L119.3 8.39999L119.2 8.10001L119 7.60001L118.9 7.39999L118.8 7.2V7L118.7 6.8L118.6 6.60001L118.7 6.7H118.8L119 6.8H119.2L119.3 6.89999H119.4L119.6 7L120.2 7.2L120.5 6.39999H120.6V6.2L120.7 6.10001V6V5.89999L120.8 5.8L120.9 5.7L121 5.5V5.39999L121.1 5.10001L121.2 5L121.3 4.89999L121.4 4.60001L121.5 4.5V4.39999L121.7 4.3V4.2L121.8 4.10001L121.9 3.89999L122 3.8L121.7 3.7H121.6L121.5 3.60001L121.6 3.3L122 3.10001L122.3 3L122.7 2.89999L122.9 3.10001L123.1 3.39999L123.3 3.60001L123.4 3.7L123.5 3.89999L123.7 4L123.8 4.10001L124 4.3H124.2H124.3H124.5H124.8L124.9 4.2L125 4L125.1 3.8L125.2 3.7V3.60001L125.3 3.5L125.4 3.2H125.5V3.10001L125.8 2.5H125.9V2.39999L126.1 2.10001L126.3 1.7H126.5H126.8L127.4 1.8L127.9 1.10001L128.3 1.39999L127.8 2.2L127.6 2.39999L128.7 3.3L129 3.60001L129.1 3.7L129.2 3.8H129.3L129.8 4.3H130.1L130.2 4.39999V4.60001V4.7V4.8V4.89999L130.3 5.10001L130.4 5.3H130.5V5.39999L130.6 5.60001L130.7 5.7V5.8L130.8 5.89999V6H130.9V6.10001L131.3 6.2L131.4 6.3L132.5 6.60001L133 6.7L133.1 6.8L134.1 7L135.4 7.39999L136.1 7.60001L136.7 7.8L137 7.89999L137.2 9L137.3 9.7L136.4 9.60001L134.9 10H134.7L134.6 10.1V10.2V10.3L134.7 10.4L134.8 10.5L134.9 10.6V10.7V10.8H135V10.9H135.1H135.2H135.3V11H135.4V11.1L135.5 11.2H135.6L135.7 11.3H135.8V11.4H135.9V11.5H135.8L135.7 11.8L135.4 12.2H135.3V12.3L135.2 12.6L135.3 12.9L135.4 13L135.5 13.1V13.2V13.3L135.6 13.4L135.7 13.6L135.8 13.8H135.9V13.9V14H136V14.1L136.1 14.2L136.2 14.3L136.3 14.4L136.4 14.5L136.6 14.7L136.7 14.9L136.8 15L137.1 15.3L137.3 15.5L137.4 15.6V15.7L137.5 15.8H137.6L137.8 16V16.1L138.2 16V15.9V15.8L138.3 15.5L138.4 15.1V15L138.5 14.9L138.7 14.6L138.8 14.5L138.9 14.6L139.1 14.8V14.9H139.2L139.3 15V15.1H139.4V15.2L139.5 15.3H139.6V15.4H139.7L139.6 15.5L139.5 15.6V15.7V15.8V15.9L139.4 16.3L140.3 16.5L140.4 17V17.3L140.5 17.6V18V18.6L140.6 18.9L140.7 19H141L141.1 20.2V20.6L141.8 21.1L142.4 21.4L142.7 21.6L143.3 22L143.4 22.1L143.5 22.2H143.6L143.5 22.5V22.6V22.7L143.4 22.8V22.9V23V23.1L143.3 23.3L143.2 23.6V23.8L143.1 23.9V24.2L143.4 24.3L143.7 24.5L143.6 24.8H143.4L143.1 24.7V25.3V25.5V25.6L143 25.7V25.9L142.9 26.3V26.5V26.7L143 26.9L143.1 27.1L143.3 27.3L143.4 27.4L143.5 27.5L143.7 27.6L143.9 27.8V27.9L143.7 28L143.4 28.2L143.1 28.4L142.8 28.6L142.4 28.8L142.3 28.9L142.2 28.7L141.8 28.1L141.3 28.5L141.2 28.6L140.8 28.9L140.9 29L141 29.1L141.1 29.2L141.3 29.4L141.5 29.7L141.8 30V30.1H141.9V30.2L142.2 30.5L142.5 30.8L142.6 30.9V31L142.7 31.2L142.8 31.4V31.5L142.9 31.6L143 31.7V31.8H143.1L143.2 31.9L143.3 32L143.2 32.1L143.3 32.3L143.6 32.5V32.6L143.8 32.8V32.9L144 33.1V33.2L144.2 33.6V33.7L144.4 34.2L144.6 35L147.1 34.5L147.4 34.4V34.6V34.8L147.5 35L147.6 35.5L147.7 36L147.8 36.4L147.9 36.8H148H148.2H149H149.4H149.6H150L150.3 37.5L150.5 37.8L150.8 38.3V38.4V38.5V38.6V38.7H150.7V38.8H150.6L150.7 39.6L150.8 41V41.3L150.9 41.8V41.9V42.4L151.9 42.7L152.6 43L153.5 43.3L155.5 44.1L155.3 44.4H155.4H155.5H155.6H155.7H155.8H155.9L156 44.5L156.1 44.7L155.9 44.8L156 44.9L156.1 45H156.2H156.3V45.1V45.2V45.3H156.4V45.4L156.5 45.5H156.6V45.6H156.7V45.7H156.8V45.8H156.9M156.9 45.8V45.9M156.9 45.8H157H157.1V45.7H157.2V45.8H157.3V45.9V46H157.4H157.5M157.5 46V46.1M157.5 46H157.6M157.6 46V45.9H157.7V46H157.6ZM157.6 46V46.1H157.7V46.2V46.3H157.6H157.5V46.4H157.6H157.7V46.5M157.7 46.5H157.8M157.7 46.5V46.6H157.6H157.5H157.4H157.3V46.7H157.4V46.8V46.9V47H157.5L157.6 47.1V47.2V47.3V47.4L157.5 47.5V47.6H157.6L157.7 47.7V47.8V47.9V48H157.8V47.9H157.9H158V48H157.9V48.1V48.2V48.3V48.4H157.8V48.5V48.6H157.9H158V48.7V48.8H158.1V48.9H158H157.9H157.8V49H157.7V49.1H157.6L157.7 49.2H157.8H157.9H158V49.3V49.4H157.9V49.5H157.8V49.6L157.7 49.7V49.8L157.6 49.9H157.5L157.4 50L157.1 50.1V50.2H157.2H157.3L157.4 50.3L157.5 50.4L157.6 50.5L157.9 50.8H158L158.1 50.7H158.2H158.3H158.4L159.1 51.4L159.2 51.5L159.3 51.6L159.5 51.9L159.6 52.1L159.7 52.3V52.4H159.8V52.3V52.2H159.9H160H160.1H160.2V52.3H160.1L160 52.4H159.9V52.5H159.8V52.6L159.7 52.7L159.8 52.8M159.8 52.8V52.7H159.9V52.8H159.8ZM159.8 52.8V52.9H159.9M159.9 52.9H160M159.9 52.9V53H160V53.1H159.9L159.8 53.2H159.9V53.3M159.9 53.3H160M159.9 53.3V53.4H159.8V53.5V53.6H159.9V53.7V53.8H159.8V53.9V54.4H159.7V54.5V54.6V54.7H159.8H159.9V54.8H159.8V54.9V55.1V56.3H159.7H159.6V56.4V56.5H159.5L159.4 56.6L159.3 56.7L159.2 56.8L159.1 56.9H159L158 58L157.8 58.2L157.7 58.3H157.6H157.5L157.4 58.2L157 58.1H156.7H156.4H156.3H156.2L156.1 58.2V58.3V58.4L156 58.5V58.6H155.9V58.7V58.8H155.8V58.9V59V59.1H155.7V59.2V59.3L155.8 59.5V59.6V59.7V59.8H155.7L155.8 59.9V60V60.1H155.7L155.8 60.2H155.7L155.6 60.3V60.4V60.5V60.6V60.7V60.8V60.9V61V61.1V61.2H155.5V61.3H155.6V61.4L155.7 61.5V61.6H155.8V61.7V61.8V61.9L155.9 62V62.1V62.2L155.8 62.3L155.7 62.4H155.6V62.5H155.5H155.4H155.3L155.2 62.6H155.1L155 62.7H154.9V62.8L154.8 62.9V63V63.1V63.2L154.9 63.3H155L155.1 63.4H155.2V63.5V63.6V63.7H155.3H155.4V63.8H155.6L155.7 63.9H155.8H155.9H156H156.1M156.1 63.9V63.8M156.1 63.9H156.2V64H156.3V64.1V64.2V64.3V64.4V64.5V64.6V64.7V64.8V64.9V65V65.2V65.3L156.2 65.4V65.5V65.6V65.7H156.1V65.8L156.2 65.9V66V66.1H156.3V66.2V66.3H156.4V66.4L156.5 66.5V66.6H156.6V66.7V66.8H156.7V66.9V67H156.8V67.1H156.9V67.2H157H157.1L157.2 67.3V67.2H157.3H157.4H157.5H157.6V67.1H157.7H157.8H157.9H158V67.2L158.1 67.3L158.2 67.4L158.3 67.5V67.6H158.4L158.5 67.7L158.6 67.8L158.7 67.9H158.8L158.9 68H159H159.1V68.1V68.2V68.3V68.4V68.5V68.6H159L159.1 68.7V68.8V68.9V69V69.1L159.2 69.2V69.3V69.4V69.5H159.1V69.6H158.9H158.8H158.7H158.6L158.5 69.5H158.4H158.2H158.1H158V69.4H157.9H157.8H157.7H157.6H157.5H157.4L157.3 69.5H157.2H157.1H157H156.9H156.8L156.7 69.6H156.6H156.5H156.4H156.3H156.2H156.1V69.5H156H155.9H155.8V69.4H155.7V69.3H155.6H155.5H155.4M155.4 69.3V69.2M155.4 69.3H155.3H155.2H155.1H155V69.2H154.9H154.8H154.7L154.6 69.1H154.5L154.4 69H154.3V68.9H154.2V68.8H154.1V68.7H154L153.9 68.6H153.8H153.7L153.6 68.5L153.5 68.4H153.4H153.3V68.3H153.2L153.1 68.2H153H152.9V68.1H152.8V68H152.7H152.6V67.9H152.5V67.8H152.4H152.3V67.7H152.2H152.1L152 67.6H151.9H151.8H151.7H151.6H151.5H151.4H151.3V67.5H151.2H151.1H151H150.9H150.8V67.4H150.7V67.3H150.6H150.5L150.4 67.2H150.3H150.2V67.3H150.1H150V67.4H149.9H149.8H149.7L149.6 67.3H149.5H149.4L149.3 67.2H149.2V67.1L149.1 67H149H148.9V66.9L148.8 66.8L148.7 66.7H148.6V66.6V66.5H148.5V66.4V66.3V66.2H148.4V66.1H148.5V66H148.4V65.9V65.8L148.3 65.7V65.6H148.2L148.1 65.5H148L147.9 65.4H147.8V65.3H147.7H147.6V65.4L147.5 65.5L147.4 66H147.3L147.1 66.1V66.2L147 66.4V66.5L146.9 66.9V67L146.7 67.3V67.4V67.6L146.6 67.7V67.8L146.5 67.9L146.2 68.4L146.1 68.5V68.6V68.7V69V69.1V69.2L146 69.3L145.9 69.4L145.4 69.7V69.8H145.3L145.2 70V70.1V70.2V70.3L145.3 70.4V70.5H145.4H145.6H145.7H145.8L146 70.4H146.1V70.5V70.6V70.7H146L145.9 70.8L145.8 70.9L145.6 71.2L145.5 71.3V71.4V71.5H145.6L145.9 71.8L146.5 72.3L147.1 72.8L147.2 72.9L147.4 73L147.6 73.1L147.8 73.2L148.1 73.3H148.4H148.5V73.4H148.7L148.8 73.5L149 73.7L149.5 74L149.7 74.2H149.8L150.1 74.5L150.2 74.6L150.4 74.8L150.5 74.9L150.6 75H150.7L151 75.1H151.3L151.6 75.3L151.9 75.4L152 75.5H152.1V75.6L152.2 75.8V75.9L152.3 76.2L152.4 76.6V76.8L152.5 77V77.1L152.6 77.2H152.7H152.8L152.9 77.1L153.3 76.8L153.4 76.7H153.5H153.6H153.7H153.9H154L154.1 76.8L154.2 76.9L154.5 77.3L154.7 77.5L154.9 77.6L155 77.7H155.2L155.4 77.6L155.7 77.5L155.8 77.4H155.9V77.3L156 77.1H156.1H156.2V77H156.3L156.4 77.1H156.6H156.7L156.9 77H157.2L157.6 76.9H157.9H158H158.1L158.2 77L158.3 77.1V77.2H158.4H158.5H158.9H159L159.1 77.3L159.3 77.5L159.4 77.6L159.6 77.9H159.7V78H159.8H160H160.1L160.2 78.1V78.2V78.4H160.1V78.5H160.2V78.6V78.7H160.3L160.4 78.8H160.5H160.6L160.7 78.7L160.9 78.6L161 78.5H161.1L161.2 78.4H161.4H161.8H162.1L162.3 78.3L162.5 78.1L162.6 78L162.7 77.9L162.8 77.8V77.7L162.9 77.6H163H163.1H163.2H163.3H163.4L163.6 77.7H163.7H163.9H164.1H164.2L164.3 77.6L164.5 77.5H164.6H164.7L164.8 77.6H164.9L165 77.7L165.1 77.8V78L164.9 78.7L164.8 78.9L164.7 79L164.3 79.3L164.1 79.5L163.8 79.7L163.5 79.9L163.1 80.1L162.8 80.4L162.7 80.6L162.6 80.7L162.3 81.1L161.8 81.6L161.5 82L161.1 82.4L160.9 82.8L160.8 83.1V83.3V83.5L160.7 83.6L160.6 83.7L160.4 83.8L160.2 83.9V84V84.1V84.2V84.3V84.4V84.5L160.3 84.7V84.8L160.4 85L160.6 85.3L160.9 85.5L161.1 85.6L161.2 85.7L161.7 85.9L163.4 86.4L164.9 86.8L166.8 87.4L166.9 88.1L167 88.3V88.8V89V89.2L166.9 89.3V89.4H166.8L166 89.6L165.4 89.7V89.8L164.8 90L163.4 90.8L163.2 90.9L163.1 91H163V91.1L163.1 91.2L163.5 91.4L163.8 91.6L163.9 92.4L164 92.9V93.5L164.1 94L164.2 94.6H164.5V94.8L164.4 94.9H164.3V95H164.2V95.1H164.3V95.2H164.2V95.3H164.3V95.5H164.2H164.1V95.6V95.7L164 95.6H163.9L163.8 95.5H163.7L163.6 95.6V95.7L163.7 95.9L163.8 96.1H163.9H164H164.1H164.2H164.3L164.4 96L164.5 95.9L164.6 95.8V95.9V96V96.3L164.7 96.4V96.5H164.8V96.6L164.9 96.7L165 96.8L165.2 96.9H165.3H165.5L165.7 96.8H165.9H166V97.4H165.2L164.5 97.5L164.6 98.3H164.4L163 98.5L162.1 98.6V99L161.4 99.1L160.3 99.3L159.6 99.4L159 99.5L158.8 98.5L157.2 98.7L157.1 98.6V98.1L156.3 98.2L156.1 97.9H156V98H155.9L155.8 98.1V98.2V98.3V98.4L155.7 98.5L155.6 98.6L155.7 98.8L155.8 99.1L155.9 99.2L156.2 99.9V100H156.3L156.1 100.1V100V99.9H156V99.8H155.9V99.9H155.8H155.7H155.6V100H155.5V100.1L155.4 100.2L154.9 100.3V100.2L154.4 100.4L154.3 100.3V100H154.2V100.1V100.2H154.1H153.5H153.2L153.1 100.3H152.8L152.7 100.2H152.6V100.1L152.7 99.9V99.7V99.6L152.6 99.5L152.4 99.7H152.3L152.1 99.8H151.8V100L151.9 100.1V100.2H151.8L151.7 100.3V100.4H151.6V100.5L151.5 100.4V100.5H151.4L151.3 100.6V100.5H151.2H151.1V100.4V99.9L150.8 100H150.6L150.4 99.9L150.3 99.8L150 99.6H149.9L150 99.5V99.4H149.8H149.6V99.3H149.1V99.4L149.2 99.5V99.7L149.4 99.8H149.5L149.6 99.9H149.5V100L149.4 100.1L149.3 100.2L149.2 100.4L149.3 100.5H149.4V100.6V100.7V100.8H149.5V100.9H149.6V101H149.7V101.1H149.8V101.2L149.7 101.5L149.4 101.4H149.3H149.2H148.7L148.3 101.5V101.4H148.2L148.1 101.3L148.2 101.2H148.3L148.4 101.1L148.3 101V100.9L148.2 100.8L148.3 100.7V100.6H148.2L148.1 100.5V100.4V100.3H148H147.9V100.2V100.1H147.8V100V99.9H147.7V99.8L147.8 99.6H147.9V99.5V99.4H147.8L147.9 99.2L147.7 99L147.9 98.8H148V98.7V98.6L147.9 98.5V98.4V98.3L147.8 98.2V98.1V98L147.6 97.9H147.5H147.4V97.8L147.3 97.7V97.6V97.4H147.4V97.3L147.3 97.2V97.1H147.2V97V96.9H147.1V96.8H147V96.7L147.1 96.6V96.5V96.4V96.3V96.1L147 96H147.1V95.9V95.8H147.2V95.7H147.1H147V95.6L146.9 95.7H146.8H146.7V95.8H146.6V95.9L146.4 96L146.3 96.1L146.1 96.2L146 96.3H145.9L145.8 96.2V96.1V96V95.9V95.8L145.9 95.7V95.6H145.8V95.5V95.4L145.5 94.7L145.4 94.3H145.6H145.7L145.8 94.2M145.8 94.2H145.9M145.8 94.2L145.7 94.1V94H145.6H145.5H145.4V93.9H145.3H145.2V93.8L145.3 93.7H145.2V93.6H145.1V93.7H145V93.8H144.9H144.8L144.7 93.7V93.6M144.7 93.6H144.8M144.7 93.6V93.5V93.4H144.6V93.3H144.5V93.2V93.1H144.4V93L144.3 92.8V92.7L144.2 92.8L144.1 93.1L143.9 93.7L143.6 93.6H143.5L143.4 93.8V93.9H143.3V94V94.2L143.2 94.3V94.4L143.1 94.5L143 94.6V94.7H142.9H142.8H142.5H142.3H142.2L142 94.6H141.9V94.5H141.8V94.4H141.7H141.6H141.5V94.3H141.4H141.3H141.2V94.2L141.1 94.1V94V93.9H141V94H140.9H140.8V93.9H140.7V93.8L140.6 93.7V93.6V93.5H140.7V93.4H140.6V93.3V93.2H140.7H140.8V93.1L140.9 93V92.9V92.8L140.8 92.7L140.6 92.1L140.5 91.4L140.4 91.2L140.2 91.3L139.8 91.4L139.6 91L139.5 91.1V90.7L138.9 90.6H138.7L137.8 90.5L137.7 91L137.6 91.1H137.5L137.4 91H137.3L137.1 91.1H137V90.8V90.6H136.9V90.7H136.8H136.7H136.6L136.5 90.6L136.4 90.5V90.4L136.2 90.2V90.5L136.3 90.7H136.2H136.1L136 90.6H135.9H135.8L135.6 90.5H135.5H135.4H135.3V90.6L135.1 90.7V90.8H135V90.9V91V91.1H134.9L135 91.2L134.9 91.3V91.4V91.5V91.6H135.1L135.2 91.5H135.3V91.6V91.8L135.2 92V92.1V92.2L135 92.3V92.2L134.8 92.3H134.7H134.6V92.2H134.5H134.4H134.3V92.1V92H134.2H134.1H134L133.8 92.2V92.3V92.5V92.7L133.9 92.8L133.8 93.1L133.5 94.6L133.3 96.1L133.2 96.3L133.1 96.8V97.2L133 97.6L132.9 97.7L132.8 97.6L132.7 97.5H132.5V97.4H132.4H132.3H132.2H132.1H132V97.5H131.9L131.8 97.4V97.3V97.2V97.1H131.7H131.6H131.5H131.4H131.3V97H131.2V97.1V97.2L131.1 97.3L131 97.4V97.5L131.2 97.6V97.7V97.8V97.9H131.1V98V98.1V98.2L131 98.3V98.4V98.5V98.6V98.7V98.8L130.9 98.9H130.8H130.7H130.6H130.5H130.4H130.3H130.2H130.1V99L130 99.1H129.9L129.6 99.2H129.2L128.8 99.4V99.5L128.7 99.6L128.8 100.3L128.6 100.5H129.2L129.3 100.6H129.4V100.7V100.8H129.5L129.6 100.9V100.8L129.7 101V101.1V101.2L129.6 101.4V102.1V102.3V102.5V102.7V103.2L129.5 103.3L129.3 103.5H128.4H127.9H127.7L127.3 103.6V104.3L126.9 104.2V103.9H126.8L126.9 104H126.8L126.7 103.9L126.6 104H126.5L126.3 104.1V104H126.4V103.9H126.5L126.4 103.8H126.5H126.6V103.7L126.7 103.5V103L126.2 103.1L126.1 103L126 102.8H125.9L125.7 102.9H125.6H125.5L125.4 103H125.3V103.1L125.2 103L124.7 103.1L124.5 103.2H124.4L124.2 102.7H124.1H124L123.4 102.1H123.3L123 102.4H122.9L122.8 102.6L122.7 102.7V102.8V102.9L122.6 103V103.1H122.5H122.4V103.2H122.3V103.3V103.4H122.2H122.1V103.3H122L121.9 103.2L121.7 103.3L121.6 103.4L121.4 103.5L120.8 103.7L120.2 103.9L120 104L119.9 103.8L119.8 103.9L119.7 103.7H119.6L119.7 103.8L119.6 103.9V104H119.5H119.4H119.3L119.2 104.1V104.2V104.3L119.1 104.4V104.5H119V104.6H118.9V104.7H118.8V104.8H118.7H118.6V104.9H118.5V105V105.1V105.2H118.4V105.3V105.4H118.3V105.5L118.2 105.6L118 106L117.6 105.5H117.5L117.6 105.2L117.9 104.7L117.8 104V103.9L117.1 103.6H117L116.9 103.5H116.8H116.7L116.5 103.4L115.8 103.1V103L115.3 102.7L115 102.5L114.8 102.3H114.7L114.6 102.2H114.5L114.4 102L114.1 101.9L113.9 101.7L113.6 101.6V101.7L113.5 101.8L113.4 101.7H113.3H113.2H113.1V101.6H113L112.9 101.5L112.8 101.4H112.7H112.6V101.3M112.6 101.3H112.5M112.6 101.3L112.5 101.2V101.1L112.3 101L112.4 100.8L112.3 100.7L112.1 100.6V100.7L112 100.9L111.8 101.2V101.3L111.7 101.4H111.6L111.1 101.6H111L110.8 101.7H110.5H110.4H110.3V101.8H110.2V101.9H110.1H110L109.8 102V102.1L109.7 102.2L109.5 102.3L109.4 102.4L108.1 101.8L107.8 101.9H107.7L107.1 102L106.8 102.1L106.7 102.2L106.6 102.3L106.7 102.4V102.5L106.8 102.6V102.8L106.7 103H106.8L106.6 103.7V103.8V103.9L106.5 104.1L106.3 104.7L106 104.6L105.8 104.3V104.4H105.7H105.6H105.5H105.4H105.3H105.2H105.1H105H104.9H104.8V104.3H104.7H104.6H104.5H104.4H104.3H104.2V104.4H104.1H104H103.9H103.8V104.3V104.2H103.7V104.1L103.8 104V103.9V103.8L103.5 103.9H103.4L103.3 104H102.9H102.8V104.1L102.7 104.2L102.6 104.3L102.4 104.4L102.2 104.5L102 104.4L101.9 104.3L101.8 104.4L101.7 104.5L101.6 104.6L101.8 104.8V104.9V105H101.7L101.6 105.1H101.5H101.4L101.3 105.2H101.2H101.1H101V105.3H100.9L100.8 105.4V105.3V105.2V105.1L100.7 105L100.9 104.8L101.2 104.3L101.5 104L100.9 103.5L100.3 104.2L100.1 104.5L100.4 104.4V104.5H100.5V104.6H100.6V104.7L100.7 104.8H100.6L100.2 105.1L100.3 105.3H100.4V105.4L100.6 105.5L100.8 105.6L100.7 105.7V105.8H100.6V105.9H100.5V106H100.6L100.7 106.1H100.8V106.2V106.3H100.9V106.4L100.8 106.5V106.6H100.7H100.6V106.5L100.5 106.6L100.4 106.7H100.3L99.9 107.1L99.7 107.3L99.8 107.4L100.1 107.7L99.9 108.2V108.3V108.4L99.8 108.5L99.5 109.3L99.7 109.4H99.9L99.8 109.6L99.7 109.9L99.3 110.1L99 110.3L98.1 110.9L98.2 111.5V111.8L97.4 112L96.7 112.3L96.2 112.5L96 112.6H95.9L95.1 113L95 113.1L94.2 113.7L94.1 113.8L93 114.8L92.8 114.9L92.9 115H93L93.4 115.6H93.5L93.3 115.9V116L93 116.4H92.9V116.5L92.8 116.4L92.9 116.3V116.2V116.1V116L92.8 115.9L92.7 115.8V115.7V115.6V115.5H92.6H92.5H92.4V115.4H92.3V115.5H92.2V115.6H92.3V115.7V115.8H92.4V115.9V116V116.1H92.3V116.2L92.2 116.3V116.4V116.5H92.1L92 116.6V116.7H91.9L91.8 116.8H91.7L91.6 116.9L91.5 117H91.4V117.1H91.3V117V116.9L91.4 116.8V116.7H91.5V116.6L91.6 116.5V116.4V116.3V116.2H91.7V116.1H91.6L91.5 116H91.4V116.1H91.3V116.2V116.3V116.4H91.2H91.1V116.5H91V116.6V116.7V116.8H90.9V116.9H91L90.9 117M90.9 117H91M90.9 117V117.1V117.2V117.3V117.4H91V117.5H90.9V117.6H90.8H90.7H90.6L90.5 117.5H90.4H90.3H90.2V117.4V117.3V117.2V117.1V117H90.1H90V116.9H89.9V116.8V116.7H89.8H89.7V116.6H89.6H89.4H89.3V116.7V116.8V116.9V117V117.1V117.2H89.4V117.3V117.4V117.5V117.6V117.7H89.3H89.2V117.6H89.1H89H88.9H88.8H88.7H88.6V117.7H88.5H88.4V117.8H88.3H88.2H88.1V117.7H88L87.9 117.6H88V117.5V117.4H87.9H87.8M87.8 117.4V117.5M87.8 117.4H87.7H87.6L87.9 117.1V117L87.8 116.7H87.7V116.6H87.6V116.5V116.4H87.5H87.4V116.3V116.2H87.3V116.1V116H87.2V115.9H87.3V115.8V115.7V115.6V115.5L87.2 115.4V115.3L87.1 115.2H87V115.3H86.9H86.8V115.2H86.7V115.3H86.6H86.5H86.4V115.4H86.3H86.2H86.1H86V115.3H85.9H85.8V115.4V115.5H85.7V115.6H85.6H85.5M85.5 115.6V115.7M85.5 115.6H85.4H85.3H85.2V115.7H85.1H85V115.8H84.9V115.9L84.8 116H84.7H84.6V115.9H84.5V115.8H84.4V115.7V115.6V115.5V115.4H84.3V115.3L84.2 115.2V115.1L84.3 115V114.9V114.8V114.7H84.2V114.6H84.1H84H83.9V114.5H83.8L83.7 114.6H83.6H83.5H83.4V114.7H83.3H83.2H83.1L83 114.6H82.9H82.8H82.7V114.5H82.6H82.5H82.4L82.3 114.6H82.2V114.7V114.8V114.9V115V115.1V115.2L82.1 115.3H82V115.4H81.9H81.8V115.3H81.7L81.6 115.2H81.5V115.1H81.4H81.3H81.2H81.1H81H80.9H80.8H80.7H80.6V115H80.5H80.4H80.3H80.2V115.1H80.1V115.2H80V115.3V115.4H79.9V115.5L79.8 115.6V115.7H79.7V115.8V115.9H79.6V116H79.5V116.1V116.2H79.4V116.3V116.4H79.3V116.5L79.2 116.6V116.7H79.1V116.6V116.5V116.4H79H78.9V116.3H78.8V116.2H78.7H78.6V116.3H78.5H78.4V116.4V116.5H78.3V116.6V116.7H78.2V116.8H78.1V116.9H78V116.8H77.9V116.7V116.6H77.8H77.7V116.7H77.6V116.8L77.5 116.9V117V117.2V117.3V117.4V117.5H77.4V117.6H77.3H77.2H77.1V117.5H77H76.9H76.8V117.4V117.3V117.2V117.1H76.7V117V116.9V116.8H76.6V116.7H76.5M76.5 116.7V116.8M76.5 116.7H76.4H76.3V116.6H76.2V116.7H76.1V116.8H76L75.9 116.9V117L76 117.1V117.2V117.3H75.9H75.8L75.7 117.2V117.1H75.6H75.5H75.4V117H75.3H75.2H75.1H75V116.9H74.9V116.8V116.7M74.9 116.7V116.6M74.9 116.7H75V116.6V116.5H75.1V116.4V116.3H75V116.2H74.9H74.8H74.7V116.1H74.6V116V115.9V115.8H74.5V115.7V115.6H74.4V115.5H74.3H74.2L74.1 115.6V115.7H74V115.8H73.9L73.8 115.7H73.7V115.6V115.5H73.6V115.4V115.3V115.2H73.5V115.1H73.4H73.3L73.2 115.2H73.1V115.1H73H72.9H72.8L72.7 115M72.7 115V115.1" stroke="white" stroke-width="0.5" stroke-linecap="round" stroke-linejoin="round"/>
</g>
</svg>
