<svg width="153" height="165" viewBox="0 0 153 165" fill="none" xmlns="http://www.w3.org/2000/svg">
<g id="UA74">
<path d="M148.8 2.9L148.5 3.49999V3.59999H148.4V3.7V3.79999H148.3V3.9V3.99999L148.2 4.09999L148.1 4.2L148 4.29999H147.9H147.8V4.4V4.49999L147.7 4.7V4.79999L147.6 4.9V4.99999H147.5H147.4L147.3 4.9L147.2 4.79999L147.1 4.7H147H146.9V4.79999V4.9H147V4.99999V5.09999V5.2L147.5 5.4V5.49999H147.6V5.59999V5.7V5.79999V5.9H147.7V6.09999H147.6V6.2L147.3 5.9L146.9 6.29999L147.2 6.59999V6.7H147.3V6.79999V6.9H147.2H147.1L147 6.79999L146.9 6.9V6.99999H146.8V7.09999H146.9V7.2H146.8V7.29999V7.4V7.49999H146.9V7.59999L146.8 7.7H146.7V7.79999H146.8L146.9 7.7V7.79999V7.9H146.8L146.7 7.99999V7.9H146.6V7.99999H146.5L146.4 8.09999V8.2H146.5H146.6H146.7H146.8V8.29999H146.7V8.4H146.8V8.29999H146.9V8.4V8.49999L146.7 8.9H146.6L146.2 9.49999H146L145.7 9.79999L145.6 9.49999H145.5V9.59999V9.7V9.79999H145.4V9.9H145.5V9.99999V10.1H145.6V10.2V10.3V10.4V10.5V10.6H145.7H145.8H145.9V10.7V10.8V10.9L145.8 11L145.7 11.2H145.6V11.3H145.7V11.4L145.8 11.5H145.9V11.6V11.7H145.8H145.7L145.6 11.8L145.5 11.9H145.4V12V12.1H145.3V12.2V12.3V12.5H145.2V12.6L145.1 12.7H145V12.6H144.9H144.8H144.7H144.6V12.7H144.5V12.8L144.4 12.9V13H144.3L144.2 13.1H144.1H144V13H143.9V12.9V12.8V12.7V12.6H143.8V12.5H143.7V12.6H143.6L143.5 12.8L143.3 13.1V13.2L143.4 13.3H143.5H143.6H143.7H143.8V13.4V13.5V13.6L144 13.9V14H144.1V14.1V14.2V14.3H144V14.4V14.5H143.9V14.6V14.7H143.8V14.8H143.7V14.7H143.6V14.8V14.9V15.1V15.2H143.5V15.1H143.4V15H143.3H143.2H143.1V15.1V15.2V15.3H143.2V15.4V15.5H143.1H143V15.6H143.1V15.7H143.2V15.6H143.3V15.7V15.8H143.4V15.9H143.5V16H143.4V16.1V16.2L143.3 16.3H143.4V16.4H143.5V16.5V16.6H143.6L143.7 16.9H143.8V16.8H143.9H144L144.2 17.1L144.1 17.2V17.3L144.2 17.4H144.4V17.5V17.8V17.9V18H143.9L143.8 18.4V18.6V18.7L143.7 19V19.2V19.3V19.4V19.5V19.6H144.7V19.5V19.4H144.6H144.5H144.4H144.3H144.2H144.1V19.3H144V19.2V19.1L144.3 19L144.5 18.9L144.6 18.8H144.7H144.8H144.9L145 18.9L145.7 19.3L146.1 19.4L146.4 19.6L146.7 19.8L147.2 20L147.8 20.3L147.9 20.4L148.5 20.7L148.1 21.3L148.5 21.5L149.3 21.8L149.5 22.1L149.7 22.5V22.6L149.8 22.7H149.9L149.8 22.9V23V23.1H149.7V23.2L149.6 23.3L149.5 23.4V23.5V23.6L149.6 23.5H149.7L149.8 23.4H149.9H150H150.1H150.2H150.3H150.4H150.5H150.6V23.6L151.2 23.7L152.1 24L152.2 23.9V23.6H152.4L152.5 23.5V23.4H152.6V23.5V24V25.1L152.7 25.9V27.6H152.6H151.6H151.2H151.1H151H150.9H150.8H150.7V27.7H150.6H150.5V27.8H150.4H150.3L150.2 27.9L150 28H149.8H149.7L149.6 28.1H149.5V28.2L149.4 28.3H149.3V28.4V28.5L149.2 28.6H149.1L148.9 28.5L148.2 28L148.1 27.8L147.9 27.3L147.7 26.6H147.5H147.4L147.2 26.7H147.1L146.4 27.1L146.3 27.2L146.1 27.3L145.9 27.4L145.8 27.5L145.7 27.6V27.7H145.6V27.8L145.5 27.9V28L145.4 28.1V28.2H145.3H145.2H145.1H145L144.9 28.3H144.8H144.7H144.6H144.5H144.4H144.3V28.2H144.2H144.1H143.8H143.7L143.4 28.1L143.3 28.2L143.2 28.3V28.4V28.5V28.6V28.7V28.8L143.3 28.9V29L143.4 29.1V29.2V29.3V29.4L143.3 29.5H143.2H143.1H143H142.9V29.4V29.3H142.8V29.4V29.5H142.7V29.6H142.8V29.7H142.9H143H143.1H143.2L143.3 29.8L143.4 29.9H143.5V30H143.7L143.8 30.1H143.9H144V30.2H144.2H144.3H144.4L144.6 30.5L144.7 30.6V30.7L144.8 30.8H144.9L145 30.9V31V31.1V31.2H144.9V31.3H145V31.4V31.5L145.1 31.6H145V31.7V31.8V31.9V32H145.1V32.1V32.2H145.2H145.3H145.4V32.3H145.5H145.6V32.4H145.7L145.8 32.5H145.9V32.3L146.1 32.4L146.2 32.5L146.3 32.6V32.7L146.2 32.8V32.9V33V33.1H146.3H146.4L146.5 33H146.6H146.7H146.8L146.9 33.1V33.2H147V33.3L147.1 33.4L147.2 33.5L147.3 33.6V33.7V33.8H147.4V33.9V34.1V34.2V34.3V34.4L147.3 34.5H147.2V34.6H147.1H147H146.9H146.8H146.7V34.5H146.6H146.5V34.4H146.4L146.3 34.5H146.2L146.1 34.6V34.7H146V34.8V34.9L146.1 35V35.1V35.2H146H145.9H145.8L145.7 35.1H145.6V35.2V35.3V35.5V35.6L145.4 35.7L145.5 35.9V36.1L145.4 36.2V36.3V36.4H145.3V36.5H145.1H145H144.7H144.1L144 36.3V36.2H143.5H143.4V36.1V36V35.9L143.1 36.1H143L142.7 36.2H142.6L142.4 36.1V36.2L142.3 36.4V36.5L142.2 36.6V36.7V36.8V36.9H142.1V37H142V37.1H141.9H141.8H141.7H141.6L141.3 37H141.2H141.1L141 37.1H140.9V37.2L140.8 37.3L140.7 37.4V37.3H140.6L140.5 37.1L140.4 37V36.9L140.2 36.8H140.1V36.9H140.2V37V37.1H140.1V37.2H140H139.9H139.8V37.3V37.4H139.9V37.5H140L139.9 37.6H139.8H139.7H139.6V37.7H139.5H139.4V37.8V37.9V38V38.1H139.3L139.2 38.2H139.1H139H138.9L138.8 38.1V38L138.7 37.9H138.6V37.8H138.5V37.9V38V38.1V38.2H138.6V38.3H138.7V38.4V38.5H138.6H138.5H138.4H138.3V38.4V38.3V38.2V38.1V38V37.9H138.2H138.1H138H137.9V38H137.8L137.7 38.1H137.6H137.5V38.2H137.4L137.3 38.1H137.2V38H137.1L137 37.9H136.9H136.8V38V38.1V38.3V38.4V38.5H136.7V38.6V38.7H136.6L136.5 38.6V38.5H136.4H136.3H136.2V38.6V38.7H136.1V38.8H136V38.9V39H136.1H136.2H136.3V39.1H136.4V39.2V39.3L136.5 39.4V39.5V39.6V39.7V39.8V39.9V40V40.1L136.4 40.2L136.3 40.3H136.2L136.1 40.4L136 40.5H135.9H135.8H135.7H135.5H135.4L135.3 40.6H135.2L135.1 40.7H135H134.9L134.7 40.8V40.9V41H134.8V41.1L134.7 41.2H134.6V41.3L134.5 41.2H134.4L134.3 41.1L134.2 41.2H134.1L134.2 41.3V41.4V41.5V41.7V41.8V41.9V42V42.1H134.1H134V42V41.9H133.9V41.8H133.8H133.7L133.6 41.9V42V42.1L133.7 42.2L133.9 42.3L134 42.4L134.1 42.5V42.6H134H133.9H133.8H133.7V42.7V42.8V42.9V43L133.6 43.2V43.3V43.4V43.5H133.7L133.8 43.4V43.3H133.9V43.4L134 43.5V43.6H133.9H133.8L133.9 43.7L133.8 44.2L133.9 44.3H134L134.2 44.4H134.3V44.5H134.4L134.5 44.7V44.8L134.6 45L134.7 45.2L134.8 45.3V45.4V45.5V45.6V45.7V45.8V45.9H134.7L134.6 46H134.5H134.4V45.9L134.3 45.8H134.2H134.1L134 45.9L133.8 46.1H133.7V46.2H133.6L133.5 46.3V46.4V46.5V46.6L133.4 46.8L133.3 47L133.2 47.1L133.1 47.2V47.3L133 47.4L132.9 47.5H132.8V47.6L132.7 47.7L132.6 47.8V47.9H132.5V48V48.2V48.3V48.4L132.6 48.5V48.6H132.5H132.4L132.3 48.5H132.2L132.1 48.4H132V48.5H132.1V48.6H132H131.9H131.8H131.7V48.7L131.6 48.9H131.5V49H131.4H131.3L131.4 49.1V49.2H131.5V49.3L131.6 49.4V49.5V49.6H131.7L131.8 49.5V49.4V49.3H131.9V49.2H132L132.1 49.4V49.6V49.7V49.8V49.9V50H132.2V50.1H132.3V50.2V50.3H132.2V50.4V50.5V50.6L132.3 50.7V50.8H132.4V50.9V51V51.1V51.2H132.5V51.3L132.6 51.4V51.5H132.7V51.6L132.8 51.7V51.8H132.9V51.9H133L133.1 52L133.2 52.1H133.3V52.2H133.4L133.5 52.3L133.6 52.4H133.7V52.5V52.6H133.8L133.9 52.7L134 52.8H134.1V52.9H134.2L134.3 53.1H134.4L134.3 53.2L134.1 53.5L134.3 53.7L134.4 53.8L134.5 53.9H134.6L134.7 54L134.8 54.1L134.9 54.2V54.3L135 54.5L135.1 54.6V54.7V54.8L135.2 54.9V55L135.3 55.1L135.4 55.2H135.5H135.6H135.7L135.8 55.1H135.9L136 55.2L136.1 55.3V55.4L136 55.5V55.6L135.9 55.7V55.8L135.8 55.9L135.6 56L135.4 56.1H135.3L135.2 56.2L135.1 56.1H135H134.9V56H134.8V55.9H134.7V56V56.1V56.2L134.8 56.5V56.6L134.9 56.7H135H135.1L135.2 56.8L135.3 56.7H135.4H135.6H135.7V56.8V56.9L135.6 57H135.5H135.4H135.2H135.1H134.9H134.8L134.7 56.9H134.6H134.5V57L134.4 57.1V57.2H134.5V57.3L134.4 57.4H134.5H134.6V57.5H134.7V57.6H134.8V57.7L134.7 57.9L134.6 58.1L134.5 58.2L134.4 58.4H134.3H134.2L134.1 58.5V58.6L134 58.7L133.9 58.8V58.9H133.8V59.1V59.2L133.7 59.3V59.4V59.5V59.6L133.8 59.7V59.8V59.9H133.9L134.1 59.8L134.5 60.1L135.1 60H135.2V60.3V60.9V61.1V61.7V62.8H135.3L135.6 63L136.3 63.6L136.4 63.7L136.5 63.9L136.7 64.2L136.9 64.4L137.1 64.7L137.8 64.8L138.3 64.9L138.6 65L138.3 65.1H138.2V65.2L138 65.6L137.9 65.7V65.8L137.2 65.6H137H136.9H136.8L136.1 65.8H135.9H135.8L135.4 65.7L135.5 66V66.1L135.4 66.2H135.3V66.3V66.7V67L135.7 67.1V67.2V67.3V67.4L135.8 67.5V67.9L136.2 68.1L136.6 68.3L136.7 68.4L136.8 68.5V68.9V69.1L136.9 69.2V69.3L137 69.4L137.1 69.5V69.6L137.2 69.7V69.8V70.2L137.1 70.5V70.8V71L136.5 70.9H136.4L136.2 71.4V71.5L135.8 71.6V71.7L135.5 71.9L135.3 72H135.2L135.1 72.1H135H134.9V72H134.8L134.9 71.9L135 71.8L134.9 71.7H134.7H134.6V71.8H134.5H134.4H134.3V71.9L134.2 72.1L134.1 72.4L134 72.6V72.9V73V73.2V73.3V73.4L134.2 74.1V74.2L133.7 74.7L133.6 75.2L133.4 75.8V76L133.1 77.2V77.3L134 78.1L134.2 78.2V78.3L134.1 78.4L133.8 79.1L133.6 79.3H133.4V79.5H133.7L134 79.6H134.2L134.3 80L134.1 80.1V80.6V80.9V81H134V81.1H133.9H133.8H133.7H133.6H133.5L133.4 81L133.3 80.9V80.7H133.2L133.1 80.5H133L132.9 80.4H132.8H132.7H132.6H132.5H132.4H132.3V80.5L132.2 80.4H132.1H132L131.9 80.6L132.1 80.7L132.2 80.8H132.3H132.4H132.5V80.9H132.7L132.8 81H132.9V81.1L133 81.2L132.9 81.3L132.8 81.2L132.7 81.4L132.9 81.6L132.8 81.7V81.8L133 82L132.8 82.4L132.6 82.3H132.5L132.4 82.2H132.2L132.1 82L131.9 82.2H131.8V82.1H131.7V82V81.9V81.8H131.6V81.9V82.1H131.5H131.2H131.1L131 82H130.8H130.7H130.6H130.5H130.4V81.9V81.8V81.6V81.5H130.5L130.6 81.2L130.5 81.1L130.4 81L130.3 80.9H130.2H130.1L130 80.8L129.9 80.7H129.7L129.6 80.5L129.4 80.3L129.5 80.2V80.1H129.4V80L129.6 79.9L129.7 80L130 79.9H130.1L130 79.8L130.2 79.6L130.3 79.3L129.8 78.8L129.7 78.7L129.6 78.8V78.9V79V79.1V79.2L129.4 79.3V79.5L128.6 79.8L128.2 79.9L128.4 80.4L128.6 80.8V80.9L128.7 81.1L129 81.7V81.8H129.1V82L129.4 82.1L129.5 82.2L129.4 82.3V82.4L129.2 82.8V83.4V83.6L129.3 84L129.4 84.1H129.5V84.2H129.6V84.3H129.7V84.2H129.8L129.6 84.1L129.8 83.9L129.9 84.1H130V84H130.1H130.2L130.3 83.9H130.4V83.8H130.7L130.6 83.9L131.2 84.4L130.9 84.9V85V85.1V85.2L131 85.3V85.4H131.1V85.5H131.2V85.6V85.7H131.3V85.8H131.4V85.9L131.1 86.2V86.5L131.2 86.6H131.3L130.9 86.7V86.8L131 86.9V87L130.9 87.1L130.8 87.2H130.7H130.6V87.1V87L130.4 87.2L130.2 87.4H129.9V87.3H129.8L129.7 87.4V87.5L130 87.7V87.8V87.9H130.1V87.8H130.2V87.7H130.3H130.4H130.5L130.4 87.8H130.5V87.9H130.4V88H130.3H130.2H130.1V88.1L130 88H129.9L129.8 88.1H129.7L129.6 88L129.5 88.4V88.5L129.6 88.6H129.7H129.8H129.9H130L130.1 88.5H130.2L130.5 88.4L130.7 88.3L130.6 88.4V88.5V88.6H130.5V88.7L130.4 88.6V88.7H130.5L130.6 88.8L130.7 88.7H130.8V88.6V88.5H130.9V88.4H131V88.5V88.6H131.1L131.2 88.5H131.3V88.6L131 88.7H131.1V88.8L131.2 88.9H131.1H130.9V89H130.8H130.7L130.8 89.1L130.9 89H131H131.1V89.6V89.7H130.7V89.9V90L130.8 90.2L130.3 90.4L130.4 90.9L130.5 91.1L130.6 91.2H130.7L130.9 91.3L130.7 91.5L129.8 92.4L129.5 92.8L129.1 93.2L128.9 93.5L129.1 93.9L129.4 94.1V94.8H129.5V95V95.3H128.9V95.7H128.6L128 95.8H127.7L127.5 95.9H127.3H127.1H126.9L126.8 96L126.3 96.7L126.6 96.9L126.7 97L126.6 97.2L126.2 97.7L125.7 98.4H125.6L125.4 98.7L126 99.3L126.1 99.5L126.5 99.8L126.6 99.9L126.9 100.2H127V100.3L126.8 100.7L126.2 101.7L125.9 102.2L125.8 102.5L125.6 102.8L125.5 102.9L124.9 103.8L124.8 104L124.5 104.6L124.8 104.7V104.8L125.1 105L125.5 104.7H125.8L126.6 104.8L127.2 104.9L127.9 105L129.1 105.2H129.5L129.3 106L129.5 106.1H130.1L130.5 106.2H130.9V106.3L131 106.7L130.8 107.2L130.4 107.8L131 108.3L131.6 108.6L131.7 108.7L131.3 109.3V109.4L131.1 109.2L130.9 109.6L130.6 110L130.5 109.9L130.4 110V110.1V110.2L130.3 110.3V110.4H130.4L130.3 110.5V110.6L130.2 110.7L130 110.8V110.9L129.9 111.2L129.8 111.4L129.7 111.5V111.6H129.6V111.7V111.8V111.9H129.5V112V112.1H129.4V112.2L129.3 112.3L129.5 112.4L129.7 112.5H129.8V112.6L129.9 112.7H130V112.8H130.1H130.2H130.3H130.4V112.9H130.5V113H130.6H130.7L130.8 113.1H130.9H131V113.2H131.1H131.2H131.3V113.3H131.4V113.2V113V112.8V112.7L131.3 112.4L131.6 112.3L132.3 111.8L132.5 111.7L132.9 111.5L133 111.4H133.1L133.4 111.2V111.3L133.5 111.4L133.6 111.5L133.7 111.6L133.8 111.7L133.7 111.8V111.9H133.6L133.5 112L133.6 112.1V112.2V112.3L133.8 112.8L134 113.2L134.3 113.9V114.1L134.4 114.4V114.5L134.3 114.9L134.4 114.8H134.5H134.7H134.9L135.5 114.9L135.9 115H136.1L136.6 115.1H136.7H136.8L136.9 115V114.9V114.8H137H137.1H137.2H137.3H137.4L137.5 114.9V115V115.9V116.5V117L137.3 117.3V117.9V118.2L137.6 118.7L137.8 119.2L137.9 119.4L138 119.6V119.7H137.9H137.8V119.8L137.6 119.9L137.9 120.3H137.8V120.4H137.7V120.3H137.6H137.5V120.2V120.1H137.4V120.2V120.3L137.5 120.4V120.5H137.4H137.3V120.4H137.2H137.1V120.5H137H136.9V120.4V120.3V120.2H136.8L136.7 120.3V120.4L136.5 120.2L136.4 120.3L136.3 120.4L136.2 120.5L136.1 120.6V120.7H136V120.8V120.9L135.9 121V121.1V121.2V121.3V121.4H136V121.5V121.6V121.7V121.8H136.1H136.2L136.1 121.9H136.2L136.3 122H136.2V122.1H136.3V122.2V122.3V122.4H136.4L136.2 122.5L136.1 123.2V123.3V123.4L136 123.5V123.7H135.9L136.2 123.8H136.7L136.8 123.9L136.7 124V124.1H136.6V124.2H136.5V124.3H136.4V124.2H136.3V124.3H136.2V124.4H136.1V124.5H136V124.6V124.7L135.9 124.9L135.8 125.1V125.2V125.3L135.6 125.4L135.5 125.5H135.4H135.3H135.2V125.6V125.7V125.8V125.9V126H135.3V126.1H135.4H135.5V126.2V126.3V126.4H135.6V126.5V126.6H135.7H135.8V126.9V127.2L135.7 127.4V127.5V127.6V127.7H135.8L135.9 127.8L135.7 128.4L135.4 128.3H135.3H135.2H135.1L135.4 128.9L135.7 129.7L136 130.1L136.4 130.8L136.6 131.3L136.8 131.7H136.9L137 131.9V132H137.3H137.8H137.9V132.1L138 132.3L138.1 132.7V132.9H138.3L139 132.7L139.1 132.8V132.9V133L139.3 132.9L139.5 133.2L139.3 133.3H139.2L138.9 133.4H138.8L138.6 133.5H138.5L138.2 133.6V134L138 134.1H137.9V134H137.8H137.7H137.6H137.5H137.4H137.3H137.2H137.1V134.1L137 134.2H136.9H136.8H136.7H136.6V134.3H136.5H136.4V134.4H136.3H136.2H136.1V134.5H135.9H135.8H135.7L135.6 134.6H135.5L135.4 134.5V134.6H135.3V134.7V134.8V134.9L135.2 135H135.1H135H134.9H134.8L134.7 134.9H134.6H134.5L134.4 134.8L134.3 134.9L134.4 135.1L134.5 135.3L134.7 135.6V135.7L134.8 135.8V135.9L134.9 136L135 136.1V136.2V136.3V136.7V136.9V137.2L134.9 137.6L134.8 138.2V138.3V138.6V138.9V139.3V139.4L134.7 139.5L134.4 139.7V139.8H134.3H134.2H134.1H134L133.9 139.7H133.8H133.7L133.6 139.8H133.5V139.9H133.4H133.3V140V140.1V140.2L133.4 140.3V140.4V140.5H133.5V140.6V140.7L133.3 141.4L133.2 141.8L133.1 142.5L133 142.6V142.8V142.9H132.9L132.8 143.1V143.2L132.7 143.3L132.6 143.5L132.9 143.6L133.3 143.7H133.4H133.5L133.6 143.8V143.9V144V144.1L133.5 144.2V144.3H133.4V144.4L133.3 144.3L132.7 144.2L132.5 144.4L132.4 144.5L132.2 144.7L132.1 144.9V145L132.2 145.1L132.3 145.3L132.2 145.4L132.1 145.5L131.9 145.7L131.7 145.9L131.5 146.2L131.4 146.4L131.3 146.5V146.6L131.2 146.9V147.1H131.1V147.2L131 147.3L130.8 147.5L130.5 147.7L130.4 147.8V147.9H130.3V148H130.2V148.1L130 148.3H129.9V148.4L130 148.5L130.1 148.7L130.5 149.5V149.6V149.9L130.7 150.1L130.6 150.2H130.5H130.4L130.3 150.3V150.4L130.1 150.7L129.9 151L129.7 151.3L129.6 151.5L129.4 151.4L129.3 151.5H129.2H129.1H129V151.4H128.9H128.8H128.7V151.5H128.6V151.6V151.7V151.8H128.5V151.9V152H128.6V152.1H128.7V152.2L128.6 152.3L128.4 152.7L128.2 153L128.1 153.2L128.2 154L128 153.9L127.9 153.8L127.6 153.7H127.5L127.3 153.6L126.9 153.4L126.8 153.7H126.7H126.4H126.3V153.6H126.2H126L125.9 153.7L126.1 154.1V154.2L126.3 154.5V154.6L126.2 154.8L125.9 154.9H125.8V155V155.1V155.2H125.7V155.3L125.8 155.4V155.5H125.9V155.6V155.7H125.8V155.8L125.7 155.9V156H125.6L125.3 156.2L125.1 156.1L125 156H124.9L124.8 155.9L124.7 156V156.1L124.3 156.4L124 156.6V156.7V156.8H124.1H124.2V156.9V157H124.3V157.1V157.2H124.4V157.3L124.3 157.2H124.2H124.1V157.3H124H123.9V157.2L123.4 157.3V157.6L123.1 157.7H123V157.8V158.1L123.1 158.3V158.5V158.6V158.7V158.8H123.2V158.9V159H123.1V159.1H123H122.3L122.2 159.2L121.8 159.5L121.1 160L120.6 160.5H120.5L119.8 161.1L119.2 161.6H118.6H117.9H117.8L117.5 161.7L117.4 161.8H117.3H117.2H117.1V161.9H117H116.8V162V162.1H116.7H116.6L116.7 162.2V162.3H116.8L116.9 162.4V162.5H116.8H116.7V162.6H116.6L116.8 162.7L117 162.9H117.1L117.4 163L117.3 163.1L117.2 163.3L117.1 163.5L117 163.7V163.8L115.8 163.3H115.7V163.4H115.6L115.5 163.6H115.4H115.3V163.5H115.2L115.1 163.3L115 163.1V163H114.9L114.8 162.9V162.8H114.7L114.6 162.9L114.5 163.2V163.4H114.4L114.3 163.2V163.1H114.4V163V162.9H114.3L114 163H113.9L113.8 163.1L113.6 163H113H112.5H112.4H112.3H112.2L111.7 162.9H111.1H111H110.8V162.1V161.9V162H110.7H110.6L110.4 162.1H109.9H109.7L109.6 162.2H109.5H109.4H109.3H109H108.9V162.6L109 163H108.9H108.8H108.4H108.3H107.9L107.1 163.1H106.7H106.6H106.5H106.4V163L106.3 162.9H106.2H106.1H106V162.8H105.9H105.8H105.7H105.6H105.4H105.3V162.9H105.2L105.1 163V163.1L105 163.2H104.8H104.7L104.6 163.3L104.4 163.2V163.3L104.3 163.4L104 163.6V163.7H103.9L103.6 163.9H103.5H103.4V163.8L103.2 163.6L102.7 162.8L102.4 162.6L102.2 162.5L101.9 162.4V162.2L101.5 162.1V162V161.8H101.4V161.7V161.6H101.5V161.5H101.8V161.4V160.5V160.4L101.7 160.2L101.6 160.1H101.7L101.8 160.2L101.9 160L101.8 159.9V159.8H101.9V159.7V159.6L101.6 159.8L101.4 159.5L101 159.8H100.6H100.3L99.5 159.7L98.9 159.4L98.2 159.1L97.2 158.6L97 159L95.6 158.4V158.3V158.2L95.5 158.1L95.4 157.6V157.5L94.8 157.4H94.3H94.1V157.3H94V157.4H93.9V157.5H93.8H93.7H93.6H93.5V157.6H93.4H93.3H93.2V157.7H93.1V157.8L92.9 158.1V158.2V158.3L93.1 158.6L93.3 159.1V159.2L93.4 159.3L92.5 159.4H92.4L92.2 159.8L91.9 159.7L91.8 160.1L91.7 160.9L91.6 161.2L91 161.1V161.6H89.8H89.7L89.8 161.9V162.1L90.1 162.2V162.3V162.4L90.3 162.5V162.7L90.1 162.8L90 162.9H89.9L89.8 163.3V163.4L90.3 163.2H90.4L90.5 163.3V163.4L90.3 163.5L89.8 163.8L89.7 163.7L89 163.5V163.4H89.1V163.3L88.9 163.2L88.8 163.3L88.7 163.4L88.6 163.5H88.5L88.4 163.4H88.3V163.3V163.2H88.2V163.1H88.1V163H88V162.9H87.9H87.8L87.3 163L86.4 163.1L85.9 163.2L85.4 163.3L85.1 163.4L84.4 163.6H84.3L84.2 163.7V163.6L84.1 163.3V163.2L84.5 162.8L85.1 162.1L84.8 161.4H84.7H84.6H84.1H84H83.9L83.6 161.3L83.4 161.2L83 161.1H82.9L82.3 161.3L82.2 161.6L81.9 161.8H81.8L81.6 162L81.3 161.8L80.8 161.6L81.2 161.2L81.1 160.9L81.2 160.7L80.8 160.2L81.2 159.8L82.1 158.6L81.8 158.3V158.2L81.2 158.7L81.1 158.8L80.9 159H80.8L80.5 159.3L80.4 159.4L79.8 159.8L79.4 159.5L79.3 159.4V158.9H79.2V158.8V158.7L79.1 158.5V158.4L79 157.9V157.3H78.9V157.2L78.4 156.8V156.7L78.3 156.3V155.9V155.7L78.2 155.3V155.1V155L78.1 154.9L77.6 154.8L76.7 154.6L75.9 154.4L75.6 154.3V154.2L75.5 153.7L75.6 153.6V153.5L75.7 153.4L75.8 153.3H75.9V153.2V153.1H75.8L75.7 153.2H75.6V153.1V153L75.5 152.9V153L75.4 153.1L75.3 153V152.9H75.2V152.8H75.1L75.2 152.7V152.6H75.3H75.4H75.5H75.6L75.7 152.5H75.8V152.6V152.8H75.9V152.9L76.1 153L76.2 152.9V152.8V152.7H76.3V152.6L76.2 152.5V152.3V152.2V152.1V152L76.3 151.9V152L76.6 152.1V152H76.7L76.8 151.9H76.9L77 152L77.1 151.9V152L77.2 152.1V152.5L77.3 152.6V152.7L77.6 152.6L79.3 152L80.2 150.7L79.6 149.8L80.1 149.3V149.2V149V148.7L80.2 148.4H80.1L79.3 148.3L77.5 148.4H76.6L75.8 148.5H75.7L74.7 148.2V148.1L74.6 147.7L74.5 147.5L74.3 147.2V147.1L74.2 146.9V146.8V146.7V146.6V146.5H74.1V146.4V146.3H74V146.2V146.1V146L73.9 145.9V145.8H73.8V145.7H73.7V145.6L73.5 145.5V145.4L73.4 145.3H73.3V145.2L73.2 145.1V145L73.1 144.8V144.6V144.4L73 144.2L72.9 144.1L72.8 143.9L72.6 143.8L72.2 143.6L71.8 143.4L71.3 143L71.1 143.1L70.5 142.2H70.3L69.9 141.2L69.2 141.4V141.5L67.4 141.8V141.9V142L67.5 142.6V143.2H67.4H67.3L67.2 143.3V143.2H67.1H67H66.9H66.8H66.7H66.6H66.5H66.4H66.3H66.2H66.1H66V143.3L66.1 143.9L66.2 144V144.5L66.3 144.8V145.4H66.2H66.1H66L65.9 145.5H65.8H65.7L65.8 145.9L65.9 146.3L66 146.9H65.8H65.7H65.5H64.8H63.9H63.8H63.2L62.6 146.8L61.9 146.7H61.1L60.8 147L60.7 147.2L60.5 147.6L60.4 147.7L60.3 147.8L60 147.6L59.9 147.4H59.8L59.4 147.5H59.1V149V149.1V149.2L58.9 149.4V149.6L58.8 149.7L58.3 150H58.1L57.9 149.9H57.8H57.7H57.6L57.2 149.8H57L56.7 149.7H56.5L56.1 149.6L55.8 149.5H55.3V149.8L55.2 149.9L55 150.2L54.7 150.1V150H54.6L54.5 150.1H54.4V150H54.3H54.2H54.1H54V149.9H53.9L53.5 149.4L53.2 149.5L53.1 149.3H52.7V149.9H52.6L52.5 150H52.3V149.8L52 149.9H51.9H51.8H51.7L51.4 149.8V150L50.7 150.4L50.1 150.6L49.5 150.8L49.4 151.1L49.3 151.2H49V151.4V151.6L48.3 151.5L47.7 151.4V151.2V151.1V151H47.8L47.7 150.9L47.4 150.4V150.3L47.1 150.2L46.8 149.9L46.7 149.8H46.6H46.5L46.3 149.7H46.1L45.9 149.6V149.5H45.7H45.6H45.5V149.4H45.4L45.3 149.3V149.2L45.2 149L44.9 149.2L44.6 149.3L44.5 149.5L44.2 150.1L44.1 150.3L44 150.4L43.8 150.7L43.7 150.8L43.6 150.9L43.2 151.6L43.1 151.5L43 151.3V151.2V151.1L42.8 150.6L42.7 150V149.7V149.5L42.5 149.4H42.4L42.1 149.3H42L42.1 149.2L41.6 149.1H41.5L41.4 149H41.3L41.2 148.9L41.1 149H41V148.9H40.9H40.8V148.8H40.7H40.6H40.5V148.7H40.4H40.3H40.2L40 148.6H39.9H39.8L39.7 148.5L39.6 148.4H39.5V148.3H39.4V148.2V148.1V148H39.5V147.9L39.6 147.8V147.7V147.6V147.5V147.3V147.2V147.1H39.5L39.2 147.2L39 146.8V146.7V146.6V146.3H38.9H38.8H38.7H38.6H38.5V146.2L38 146.1H37.3V145.9V145.8H37.1H36.9H36.8H36V144.6H35.4L34.9 144.5V144.1V143.9V143.1H35.6H36H36.5L36.9 143.2H37.7L38 142.7V142.6L37.8 142.5L37.5 142.1L38 141.6L37.9 141.5L37.5 141.2L37.1 140.9L36.8 140.7L36.6 140.1L36.7 139.4L36.8 139.2L37.3 138.7L37.8 138.3L37.7 138.2V138.1V138V137.7L37.6 137L37.5 136.7V136.5V136.4L37.6 136.1L37.5 136H37.4H37.3H36.9V135.8V135.7V135.6V135.2L36.7 135.3L36.2 135.5H36.1L36.2 134.9L36.1 133.8H34.8V133.7V133.6L34.9 133.3V133.1L34.7 133L34.4 132.7H34.1L34 132.5L33.9 132.4V132.3L33.7 132H33.4H33.2H33.1L33 131.9H32.9L32.7 131.8V131.2V130.8V130.7L32.8 130.3L32.9 130V129.8L32.5 129.7L32 129.5H31.7L31.5 129.4H31.4H31.1L30.8 129.3H30.5H30.4H30.3L30.1 130.1V130.4L30 130.6H29.7H29.4H29.3L29 130.7H28.8H28.6H28.5L28.3 130.8H28.2H28.1H28L27.9 130.7H27.8H27.7H27.4H27.3L27.2 130.6V130.5L26.1 130.7H26L25.9 130.8H25.8H25.7H25.3V130.9L25.1 130.8H24.7L24.2 130.7L24.1 131L24 131.2H23.9L23.8 131.1H23.7H23.6H23.4H23.3H23.2V131V130.9V130.8V130.7H22.7L22.5 130.6H22.4H22.3H22.2H21.8H21.7L21.4 130.5H21.3H21.2H21.1V130.4V130.3V130.2V130.1V130L21 129.9L20.5 130.2L20.3 130.3V130.4V130.7V131L20.2 131.3V131.4V131.5V131.9V132L19.7 132.1L18.4 132.2H18.2L18.1 131.9L17.8 131.8V131.2L18.5 131.4L18.6 131.3L18.4 131.2V131.1V131L18.5 130.9V130.8V130.7H18.6L18.7 130.6L18.8 130.5V130.4H18.9L19 130.2H19.1L19.2 130.1V130L19.4 130.1L20.1 129.6H20.2L20 129.3L19.7 129.4L19.5 129.5L19.3 129.7H19.1L19 129.8V129.9H18.9H18.8H18.7V130H18.6L18.7 130.1V130.2V130.3L18.6 130.4H18.5H18.4V130.5V130.6L18.3 130.7V130.8H18.1L17.9 130.7H17.8H17.7V130.6H17.6H17.5L17.4 130.5L17.3 130.4H17.2V130.3H17.1H17L16.9 130.2H16.8H16.7H16.6H16.5H16.4L16.3 130.1H16.2H16.1L16 130L15.8 129.9H15.6L15.4 129.8V129.7H15.3V129.6H15.2L14.9 129.5V129.7V129.8L14.8 129.9V130V130.1H14.7V130H14.6H14.5H14.4H14.3V129.9V129.8H14.2V129.7H14.1L14 129.8H13.9V129.9H13.8H13.7H13.6V130H13.5H13.4H13.3V129.9V129.8H13.4V129.7H13.3V129.6V129.5V129.4H13.4V129.3H13.3V129.2H13.2V129.1H13.3V129.2L13.4 129.1H13.3V129H13.4L13.5 128.9H13.6H13.7V128.8V128.7L13.8 128.6V128.5H13.9L13.8 128.4H13.7V128.3H13.6V128.2H13.5L13.6 128.1L13.7 128V127.9V127.8H13.6V127.7V127.6L13.7 127.5V127.4L13.6 127.3V127.2H13.5V127.1H13.4H13.3H13.2L13.1 126.8L13 126.4H13.3L13.6 126.2L13.8 126.5L13.9 126.6L14 126.7V126.8H14.1V126.9H14.2H14.3H14.4H14.5H14.6L14.8 126.8V126.7V126.6H14.9V126.5H15V126.4V126.3H14.9V126.2V126.1V126V125.9H14.8H14.7V125.8V125.7L14.8 125.6H14.9H15H15.1L15.2 125.5V125.4H15.3V125.3V125.2V125.1H15.2V125V124.9L15.1 124.8V124.7V124.6V124.5V124.4V124.3V124.2V124.1H15V124V123.9V123.8V123.7V123.6H15.1V123.5H15.2V123.4H15.3V123.3L15.2 122.7L15.1 122.6L15 122.5V122.4V122.3H14.9V122.2L14.8 122L15 121.8H14.9L14.8 121.7H14.7L14.6 121.6L14.5 121.5L14.2 121.4L14.1 121.3H14L13.9 121.2L13.8 121.1L13.7 121H13.6L13.2 120.8V120.5V120.3V120.2H13.1L13 120.1L12.8 120.2H12.7H12.5V120.1H12.4L12.3 120H12.2V119.9L12.1 119.8L11.2 119.7V119.5L10.6 119.6L10.4 119L10.3 118.8L10.2 118.7V118.6V118.5L10.1 118.4V118.3V118.2H10V118.1V118V117.9V117.7H9.89999L9.79999 117.4V117.2L9.70001 117.1V117H9.79999V116.9V116.8L9.70001 116.7L9.5 116.2L9.29999 115.5L8.60001 114.7L8.70001 114.1V113.8V113.7V113.6H8.79999V113.4V113.3V113.2L8.89999 113.1V113H8.79999V112.9V112.8L8.70001 112.5L8.5 111.9V111.8V111.6L7.60001 111.1V111H7.5H7.29999H6.79999H6.60001H6.5V110.8V110.5V110.4L6.39999 109.8V109.6L4.70001 109.7L1.29999 110L1.39999 109.7V109.5V109.2L1.29999 108.7L1.10001 108.4L1 108.1V107.9V107.8V107.7L1.10001 107.5L1.39999 107.2L1.5 107L1.60001 106.8L1.70001 106.6L1.79999 106.3V106.1V105.9V105.8V105.7L1.70001 105.6L1.29999 105.3L1 105L0.799988 104.8L0.600006 104.6L0.5 104.5V104.4L0.600006 104.2L0.799988 104L1.10001 103.8L1.29999 103.7H1.5H1.79999L1.89999 103.6H2L2.10001 103.4V103.2L2.20001 102.9L2.10001 102.7L2 102.4L1.89999 102.2L1.70001 102L1.39999 101.7L1.29999 101.5L1.10001 101.2L1 101V100.8L0.899994 100.5L0.799988 100.3V100.1V99.5V98.7L0.899994 98.5L1 98.1L1.10001 98L1.20001 97.8L1.39999 97.6H1.5H1.60001H1.79999H1.89999L2 97.7L2.20001 97.8L2.39999 97.9H2.60001H2.79999L3 97.8H3.10001L3.20001 97.7V97.6L3.29999 97.5V97.3L3.20001 97.2V97.1L3 97H2.89999H2.70001L2.60001 97.1H2.39999H2.29999L2.20001 97V96.9H2.10001V96.8V96.7V96.6H2.20001V96.5L2.29999 96.4L2.39999 96.3L2.60001 96.2L2.70001 96.1L2.79999 96V95.9V95.8V95.7V95.6V95.5L2.70001 95.4L2.60001 95.2V95.1L2.5 95V94.8L2.39999 94.7L2.29999 94.6L2.20001 94.5L2 94.4L1.79999 94.2H1.70001V94.1H1.60001V94V93.9V93.8V93.6V93.5V93.4L1.70001 93.3L1.79999 93.2V93.1H1.89999H2L2.10001 93H2.20001V92.9H2.39999L2.5 92.8H2.60001H2.70001H2.79999L3 92.9L3.10001 93L3.20001 93.1L3.29999 93.2H3.39999L3.60001 93.3H3.70001H3.79999H4H4.10001L4.20001 93.2V93.1L4.29999 93V92.9V92.8V92.7V92.6V92.5L4.20001 92.4V92.3V92.2V92.1V92L4.10001 91.9L4.20001 90.3L4.29999 90.1L5.20001 88.5V88.3L5.29999 87.4L6.89999 86.2L8.10001 84.9H8.20001H8.39999H8.5L8.60001 84.8H8.70001H8.79999V84.7H8.89999V84.6H9V84.5V84.4L9.10001 84.3V84.2V84.1L9 84V83.9H8.89999L8.79999 83.7L8.70001 83.6L8.60001 83.5L8.5 83.4L8.39999 83.3L8.29999 83.2H8.20001V83.1L8.10001 83V82.9L8 82.8V82.7V82.6H8.10001V82.5V82.4L8.60001 82.2V82H8.70001L8.79999 81.9H8.89999V81.8H9V81.7V81.6H9.10001V81.5L9 81.4V81.3V81.2L8.79999 80.9L8.70001 80.7L8.60001 80.5V80.4L8.5 80.3V80.2L8.39999 80.1L8.20001 79.9V79.8L8.10001 79.7V79.6V79.5H8V79.4L7.89999 79.2V79.1V79V78.9L7.79999 78.8V78.7L7.70001 78.6V78.5V78.4L7.60001 78.2L7.5 78.1V78L7.39999 77.9V77.8V77.7V77.6V77.5V77.4V77.3H7.29999V77.2H7.20001H7.10001H7H6.89999L6.79999 77.3H6.70001V77.4L6.60001 77.5L6.5 77.6H6.10001L5.70001 77.4L5.5 76.4L5.60001 75.4L5.89999 75L6 74.9H6.10001H6.20001L6.29999 74.8L6.39999 74.7H6.5L6.60001 74.6L7.29999 74.8V74.2L6.70001 73.9L6.20001 73.6L5.79999 73L5.70001 72.8V72.7V72.6V72.3V72.2V72.1V72V71.9V71.8V71.7L5.79999 71.3L5.60001 70.7L5.10001 70.2L4.79999 69.9L4.5 69.7L4.89999 69.3L5.20001 69L5.5 68.1L4.70001 67.7L4.5 67.6L3.39999 67.3V67.2L3.29999 67.1L3.20001 67L3.10001 66.9L3 66.8L2.89999 66.7V66.6L2.79999 66.5V66.4H2.70001V66.3V66.2V66.1V66V65.9V65.8V65.7L2.89999 65.5L3.10001 65.4L3.5 65.3V64.8L3.39999 64.7L3 64.5L2.10001 63.7V63.1V63H2.20001L2.29999 63.1H2.39999L2.5 63.2H2.60001H2.70001H2.79999L2.89999 63.1H3V63L3.10001 62.9V62.8V62.7V62.6V62.5V62.4H3V62.3H2.89999L3.5 61.7L3.79999 61.6L4.20001 61.5L4 60.8V60.7L3.79999 60.4L4.10001 60.1L4.29999 59.8H4.39999L4.5 59.9H4.60001H4.70001H4.79999H4.89999H5L5.10001 59.8H5.20001L5.29999 59.7V59.6L5.39999 59.5V59.4V59.3V59.2L5.29999 59.1V59L5.20001 58.9V58.8L5.10001 58.7L5 58.6V58.5V58.4V58.3V58.2V58.1H5.10001V58L5.20001 57.9V57.8V57.7V57.6V57.5V57.4V57.3H5.29999V57.2V57.1V57L5.20001 56.9V56.8V56.7L5.10001 56.6V56.5V56.4L4.79999 55.3L5.5 55.1L7 55L7.60001 54.8L7.89999 54L8 53L8.10001 52L8.70001 51.4V51.3V51.2L8.79999 51.1V51L8.89999 50.9V50.8V50.7V50.6V50.5V50.4V50.3V50.2L8.79999 50.1L8.70001 50H8.60001L8.5 49.9H8.39999H8.29999L8.20001 50H8.10001L8 50.1H7.89999V50.2H7.79999V50.3H7.70001L7.60001 50.4H7.5L7.29999 50.3L7.89999 49.5L9 48.8L9.5 48.3L9.79999 48L9.89999 47.9V47.6V47.4V46.6L9.5 45.8V45.6V45.5H9.60001V45.4H9.70001L9.79999 45.3H9.89999H10H10.1H10.2V45.2H10.3H10.4H10.5H10.6V45.1H10.7L10.8 45H10.9V44.9L11 44.8V44.7V44.6H11.1V44.5V44.3V44.2L11.2 44V43.9V43.7L11.3 43.5V43.3V43.2L11.4 43V42.9L11.5 42.7L11.8 42.2L12.1 41.6L13.1 41.1L13.3 40.4V39.6L13.4 39.4V39.3H13.5V39.2L13.6 39.1L13.9 39L15.4 39.1L15.6 39L15.8 39.1H15.9H16H16.1L16.2 39.2H16.3V39.1H16.4H16.5V39H16.6V38.9V38.8V38.7V38.6V38.5L16.7 38.4V38.3L16.8 38.2L16.9 38.1L17 38L17.1 37.9H17.2L17.3 37.8V37.7L17.4 37.6H17.5L17.6 37.5V37.4H17.7V37.3V37.2V37.1V37L17.6 36.9V36.8L17.5 36.7V36.6L17.4 36.5V36.4H17.3L17.2 36.2L17.1 36.1L17 35.9V35.8L16.9 35.7V35.6L18 35.2L18.7 34.7L19.4 34.2L19.9 33.6L20 33.5H20.1H20.2H20.3H20.4H20.5V33.4H20.6H20.7H20.8L20.9 33.3H21V33.2V33.1V33V32.9V32.8V32.7H20.9L20.8 32.6V32.5L20.7 32.4V32.3V32.2V32.1V32H20.8V31.9H20.9H21H21.1L21.3 32H21.4H21.5H21.6H21.7H21.8H21.9V31.9H22V31.8V31.7V31.6V31.5V31.4H21.9V31.3H21.8H21.7H21.6H21.5H21.4H21.3V31.2H21.2H21.1V31.1L21.3 30.9L21.6 30.8L21.9 30.9L22.2 31.4L23.6 31.3L24 30.2L23.5 29.1V29L23.6 28.9L23.7 28.8V28.7H23.8V28.6L23.7 28.5V28.4H23.6L23.5 28.3H23.4V28.2L23.3 28.1V28L23.2 27.9V27.8V27.7V27.6V27.5V27.4V27.3H23.3V27.2L23.4 27.1H23.5H23.6V27H23.7V26.9H23.8V26.7V26.6H23.9V26.5V26.4V26.3V26.2V26.1V26H23.8V25.9V25.8H23.7V25.7H23.6L23.5 25.6H23.4L23.3 25.5V25.4H23.2V25.3V25.2V25.1V25L24.5 24.6L31.4 24.2L33.3 24.5L34.6 25.2L36.9 27.2L38.1 27.6L39.1 27.2L39.3 27.3H39.4V27.2H39.5L40 27L40.6 26.8L41.3 26.6L41.5 26.5L41.6 26.3L41.7 26.2L41.9 25.7L42.2 25.2L42.3 24.9L42.4 24.6L42.6 24.3L42.7 24.1V24V23.9L42.5 23.8L42.4 23.7L42.2 23.6L42.4 23.5H42.5L42.6 23.4V23.3H42.7V23.2V23.1H42.8V23V22.9V22.8V22.7V22.6V22.5V22.4L42.9 22.3L45.8 21.1H50.5L50.9 21.2H51H51.1H51.2L59.3 22.8L62.8 22.6H63.7L65.1 22.5L66.8 22.3L68.2 22.2L68.5 22.3L69.8 22.6L71 23.7L71.3 25V26.5L71.5 27.8L72.4 28.4L73.3 28.2L76 26.8L77.7 26.7H77.8H77.9L78.2 26.8V26.9H78.3H78.4H78.5L78.6 27H78.7H78.8V27.1L78.9 27.2V27.3H79V27.4L79.2 27.5H79.3H79.4V27.6H79.5H79.6V27.7H79.7H79.8L79.9 27.8H80H80.1L80.2 27.9H80.3H80.4H80.5H80.6H80.8H81H81.2H81.3H81.5V28H81.6H81.8V27.8V27.7V27.5V27.4L82.7 27L83.7 26.5H83.8L84.1 26.3H84.2L86.6 25.1L87.1 24.9L88.7 24.1L89.6 23.4H89.7V23.3H89.8H89.9H90H90.1V23.2V23.1H90.2V23.2H90.3V23.1H90.4V23V22.9H90.5V22.8H90.6H90.7H90.8V22.7H90.9H91V22.6H91.1H91.2V22.5H91.3H91.4V22.4V22.3H91.5H91.6V22.2V22.1H91.7V22V21.9V21.8H91.8V21.7H91.9H92V21.6H91.9V21.5H92V21.4H91.9V21.3H91.8V21.2V21.1V21V20.9H91.9H92H92.1V20.8V20.7H92.2V20.8H92.3H92.4H92.5H92.6H92.7H92.8H92.9L93 20.7V20.6V20.4V20.3V20.2L93.1 20.1V20V19.8V19.7V19.6V19.5L93.2 19.6H93.3L93.4 19.7L93.5 19.8H93.6L93.7 19.6V19.5V19.4V19.3H93.8V19.2H94.1H94.6H94.8H95.1H95.2V19.1H95.3V19L95.4 18.9L95.5 18.8V18.7H95.6V18.6L95.5 18.4V18.3L95.4 18.1V17.9H95.3H95H94.7H94.6H94.5H94.2H94.1H94H93.9H93.8H93.7H93.6V18V18.1H93.5V18.2V18.3H93.4V18.4H93.3V18.3L93.4 18.2V18.1V18H93.5V17.9H93.4L93.5 17.8V17.7H93.4V17.6H93.5V17.5V17.4H93.4L93.5 17.3V17.4H93.6V17.3H93.5V17.2H93.6V17.1V17L93.7 16.9V17H93.8V16.9H93.7L93.8 16.8V16.7H93.9V16.6V16.5H94H94.1V16.4H94V16.5L93.9 16.4V16.3H94H94.1V16.2V16.1V16V15.9H94.2V15.8H94.3H94.4V15.7H94.5V15.6L94.4 15.3V15.2V15V14.9V14.8L94.3 14.7V14.6H94.2L93.9 14.3L93.8 14.2L93.7 14.1V14V13.9H93.6V13.8V13.7L93.5 13.5L93.4 13.3V13.2L93.5 12.8L94 12.2L94.6 11.9L95.2 11.4L95.3 11H95.4H95.5H95.6H95.7H95.8H95.9H96H96.1H96.2H96.3V10.9H96.4H96.5V10.8H96.6L96.7 10.7V10.6H96.8L96.9 10.5H97.1V10.4V10.3L97 10.2H96.9V10.1V9.99999H96.8H96.7V9.9H96.6V9.79999V9.7V9.59999H96.5V9.49999V9.4V9.29999H96.4V9.2V9.09999H96.3V8.99999V8.59999V8.49999H96.4L96.5 8.29999L96.7 7.99999L96.8 7.9H96.7V7.79999H96.6H96.5L96.4 7.9V7.79999H96.3H96.2V7.9L96 7.99999V8.09999L95.8 8.2H95.7V8.09999L95.6 7.99999V7.9L95.5 7.7V7.59999V7.49999V7.4H95.4V7.29999V7.09999V6.99999V6.9V6.79999V6.7V6.59999V6.4L95.3 6.29999V6.2V6.09999V5.99999V5.9H95.2V5.79999V5.7L95.1 5.59999V5.4L95 5.29999L94.9 5.09999V4.99999V4.9H94.8V4.79999L94.7 4.7V4.59999L94.8 4.49999V4.29999L96.9 3.9L101.2 5.49999L103.6 4.79999L111.5 8.99999L112.9 9.7L113.6 9.99999H115.1L117.9 9.29999L118.1 9.2H118.3H119.5L120.4 9.59999L121.9 10.8L122.8 10.9L123.7 10.5L126.2 8.2H126.3H126.4H126.5L126.6 8.29999H126.7L126.8 8.4H126.9H127H127.1H127.2V8.29999V8.2V8.09999V7.99999H127.3H127.4V7.9V7.79999V7.59999L127.3 7.49999V7.4V7.29999L127.6 6.99999L128.9 5.79999L129.7 5.4L129.8 5.29999L130.3 5.4L130.5 5.49999L131 5.7L131.4 5.59999L131.8 5.2L132.1 4.59999L132.4 3.99999L132.9 3.79999L133.4 3.59999L133.9 3.4L134.5 2.79999L134.7 2.49999H134.8V2.59999L134.9 2.7H135V2.79999H135.1L135.2 2.9H135.3H135.4V2.79999H135.5H135.6H135.7L135.8 2.7H135.9L136 2.59999V2.4V2.29999V2.2V2.09999V1.99999V1.89999V1.79999V1.7V1.59999V1.49999V1.39999V1.29999L136.1 1.2V1.09999V0.999994V0.899994L136.6 0.499994L137.3 0.399994L141.9 1.29999L142.3 1.39999L145.3 1.29999H145.5L146.4 1.49999L147.6 2.4L147.8 2.49999L148.6 2.9H148.8ZM15.3 70.7V70.6V70.5L15.1 70.6V70.8L15.3 70.7ZM9.60001 70.7L9.70001 70.6V70.5V70.4L9.5 70.5V70.6L9.60001 70.7ZM14.2 70.3H14L13.8 70.2V70.3L14.1 70.4H14.2V70.3ZM13.7 68.2H13.6H13.5H13.2V68.1V67.9V67.8V67.7V67.5H13.1H13H12.9L12.8 67.4H12.6L12.3 67.3L12 67.2H11.9H11.8V67.4L11.9 68V68.1V68.3V68.9V69H11.8H11.7H11.6H11.5V69.1H11.4H11.3H11.2H11.1H11L10.9 69H10.8H10.7H10.6H10.4H10.1H10H9.89999V69.1V69.2H9.79999L9.60001 69.3H9.5H9.39999L9 69.6H8.89999L8.60001 69.8L8.20001 70L7.89999 70.2H7.79999V70.3H7.70001H7.5L6.89999 70.2H6.79999H6.70001H6.60001V70.1V70L6.5 69.9V69.8L6.39999 69.6V69.5H6V69.8L5.60001 69.7V70.2H5.89999H6H6.10001V70.1L6 69.9V69.8H6.10001L6.20001 69.9V70.1L6.29999 70.2L6.20001 70.3H6.10001L6.20001 70.4L6.29999 70.7L6.39999 70.6L6.5 70.5H6.60001V70.2H6.70001H6.79999H6.89999H7.10001L7.39999 70.3H7.5H7.70001H7.79999H7.89999V70.2L8.39999 69.9H8.5L8.70001 69.7L9 69.6V69.7L9.10001 69.8V69.9L9.20001 69.8V69.9H9.29999V70L9.5 69.9L9.70001 69.8L9.89999 69.7H10.1H10.2H10.3H10.4H10.5H10.6H10.8H10.9H11H11.2H11.3H11.4H11.5L11.6 69.8H11.8H11.9H12L12.2 69.9H12.3H12.6L12.7 70H12.9H13.1V70.1H13.2H13.3H13.4H13.5H13.6L13.7 70.2H14.1L14.5 70.3H14.7V70.4H14.9L15.3 70.5H15.5L15.6 70.3V70.2V70.1V69.9V69.5H15.7V69.6H15.9V69.5H15.8V69.4L15.7 69.5L15.6 69.4V69.3V69.2V69L15.7 68.9V68.8V68.7V68.6V68.4V68.3H15.6H15.5H15.4H15.3H15H14.8H14.5H14.3V68.2H14.2H14H13.9H13.8H13.7Z" fill="#6F9C76"/>
<path d="M147.6 5.9V5.79999V5.7V5.59999V5.49999H147.5V5.4L147 5.2V5.09999V4.99999V4.9H146.9V4.79999V4.7H147H147.1L147.2 4.79999L147.3 4.9L147.4 4.99999H147.5H147.6V4.9L147.7 4.79999V4.7L147.8 4.49999V4.4V4.29999H147.9H148L148.1 4.2L148.2 4.09999L148.3 3.99999V3.9V3.79999H148.4V3.7V3.59999H148.5V3.49999L148.8 2.9H148.6L147.8 2.49999L147.6 2.4L146.4 1.49999L145.5 1.29999H145.3L142.3 1.39999L141.9 1.29999L137.3 0.399994L136.6 0.499994L136.1 0.899994V0.999994V1.09999V1.2L136 1.29999V1.39999V1.49999V1.59999V1.7V1.79999V1.89999V1.99999V2.09999V2.2V2.29999V2.4V2.59999L135.9 2.7H135.8L135.7 2.79999H135.6H135.5H135.4V2.9H135.3H135.2L135.1 2.79999H135V2.7H134.9L134.8 2.59999V2.49999H134.7L134.5 2.79999L133.9 3.4L133.4 3.59999L132.9 3.79999L132.4 3.99999L132.1 4.59999L131.8 5.2L131.4 5.59999L131 5.7L130.5 5.49999L130.3 5.4L129.8 5.29999L129.7 5.4L128.9 5.79999L127.6 6.99999L127.3 7.29999V7.4V7.49999L127.4 7.59999V7.79999V7.9V7.99999H127.3H127.2V8.09999V8.2V8.29999V8.4H127.1H127H126.9H126.8L126.7 8.29999H126.6L126.5 8.2H126.4H126.3H126.2L123.7 10.5L122.8 10.9L121.9 10.8L120.4 9.59999L119.5 9.2H118.3H118.1L117.9 9.29999L115.1 9.99999H113.6L112.9 9.7L111.5 8.99999L103.6 4.79999L101.2 5.49999L96.9 3.9L94.8 4.29999V4.49999L94.7 4.59999V4.7L94.8 4.79999V4.9H94.9V4.99999V5.09999L95 5.29999L95.1 5.4V5.59999L95.2 5.7V5.79999V5.9H95.3V5.99999V6.09999V6.2V6.29999L95.4 6.4V6.59999V6.7V6.79999V6.9V6.99999V7.09999V7.29999V7.4H95.5V7.49999V7.59999V7.7L95.6 7.9V7.99999L95.7 8.09999V8.2H95.8L96 8.09999V7.99999L96.2 7.9V7.79999H96.3H96.4V7.9L96.5 7.79999H96.6H96.7V7.9H96.8L96.7 7.99999L96.5 8.29999L96.4 8.49999H96.3V8.59999V8.99999V9.09999H96.4V9.2V9.29999H96.5V9.4V9.49999V9.59999H96.6M147.6 5.9V5.99999M147.6 5.9H147.7V6.09999H147.6V6.2L147.3 5.9L146.9 6.29999L147.2 6.59999V6.7H147.3V6.79999V6.9H147.2H147.1L147 6.79999L146.9 6.9V6.99999H146.8V7.09999H146.9V7.2H146.8V7.29999V7.4V7.49999M146.8 7.49999V7.59999M146.8 7.49999H146.9V7.59999L146.8 7.7H146.7V7.79999H146.8L146.9 7.7V7.79999V7.9H146.8L146.7 7.99999M146.7 7.99999V8.09999V8.2M146.7 7.99999V7.9H146.6V7.99999H146.5L146.4 8.09999V8.2H146.5H146.6H146.7M146.7 8.2H146.8V8.29999M146.8 8.29999H146.7V8.4M146.8 8.29999V8.4H146.7M146.8 8.29999H146.9V8.4V8.49999L146.7 8.9H146.6L146.2 9.49999H146L145.7 9.79999L145.6 9.49999H145.5V9.59999V9.7V9.79999H145.4V9.9H145.5V9.99999V10.1H145.6V10.2V10.3V10.4V10.5V10.6H145.7H145.8H145.9V10.7M146.7 8.4H146.6M146.6 8.4V8.29999M146.6 8.4H146.5M146.6 8.4V8.49999M145.9 10.7H146M145.9 10.7V10.8V10.9L145.8 11L145.7 11.2H145.6V11.3H145.7V11.4L145.8 11.5H145.9V11.6V11.7H145.8H145.7L145.6 11.8L145.5 11.9H145.4V12V12.1H145.3V12.2V12.3V12.5H145.2V12.6L145.1 12.7H145V12.6H144.9H144.8H144.7H144.6V12.7H144.5V12.8L144.4 12.9V13H144.3L144.2 13.1H144.1H144V13H143.9V12.9V12.8V12.7V12.6H143.8V12.5H143.7V12.6H143.6L143.5 12.8L143.3 13.1V13.2L143.4 13.3H143.5H143.6H143.7H143.8V13.4V13.5V13.6L144 13.9V14H144.1V14.1V14.2V14.3H144V14.4V14.5M144 14.5H144.1M144 14.5H143.9V14.6V14.7H143.8V14.8H143.7V14.7H143.6V14.8V14.9V15.1M143.6 15.1H143.7M143.6 15.1V15.2H143.5V15.1H143.4V15H143.3H143.2H143.1V15.1V15.2V15.3H143.2V15.4V15.5H143.1H143V15.6H143.1V15.7H143.2V15.6H143.3V15.7V15.8H143.4V15.9H143.5V16H143.4V16.1V16.2L143.3 16.3H143.4V16.4H143.5V16.5V16.6H143.6L143.7 16.9H143.8V16.8H143.9H144L144.2 17.1L144.1 17.2V17.3L144.2 17.4H144.4V17.5V17.8V17.9V18H143.9L143.8 18.4V18.6V18.7L143.7 19V19.2V19.3V19.4V19.5V19.6H144.7V19.5V19.4H144.6H144.5H144.4H144.3H144.2H144.1V19.3H144V19.2V19.1L144.3 19L144.5 18.9L144.6 18.8H144.7H144.8H144.9L145 18.9L145.7 19.3L146.1 19.4L146.4 19.6L146.7 19.8L147.2 20L147.8 20.3L147.9 20.4L148.5 20.7L148.1 21.3L148.5 21.5L149.3 21.8L149.5 22.1L149.7 22.5V22.6L149.8 22.7H149.9L149.8 22.9V23V23.1H149.7V23.2L149.6 23.3L149.5 23.4V23.5V23.6L149.6 23.5H149.7L149.8 23.4H149.9H150H150.1H150.2H150.3H150.4H150.5H150.6V23.6L151.2 23.7L152.1 24L152.2 23.9V23.6H152.4L152.5 23.5V23.4H152.6V23.5V24V25.1L152.7 25.9V27.6H152.6H151.6H151.2H151.1H151H150.9H150.8H150.7V27.7H150.6H150.5V27.8H150.4H150.3L150.2 27.9L150 28H149.8H149.7L149.6 28.1H149.5V28.2L149.4 28.3H149.3V28.4V28.5L149.2 28.6H149.1L148.9 28.5L148.2 28L148.1 27.8L147.9 27.3L147.7 26.6H147.5H147.4L147.2 26.7H147.1L146.4 27.1L146.3 27.2L146.1 27.3L145.9 27.4L145.8 27.5L145.7 27.6V27.7H145.6V27.8L145.5 27.9V28L145.4 28.1V28.2H145.3H145.2H145.1H145L144.9 28.3H144.8H144.7H144.6H144.5H144.4H144.3V28.2H144.2H144.1H143.8H143.7L143.4 28.1L143.3 28.2L143.2 28.3V28.4V28.5V28.6V28.7V28.8L143.3 28.9V29L143.4 29.1V29.2V29.3V29.4L143.3 29.5H143.2H143.1H143H142.9V29.4V29.3H142.8V29.4V29.5H142.7V29.6H142.8V29.7H142.9H143H143.1H143.2L143.3 29.8L143.4 29.9H143.5V30H143.7L143.8 30.1H143.9H144V30.2H144.2H144.3H144.4L144.6 30.5L144.7 30.6V30.7L144.8 30.8H144.9L145 30.9V31V31.1V31.2H144.9V31.3H145V31.4V31.5L145.1 31.6H145V31.7V31.8V31.9V32H145.1V32.1V32.2H145.2H145.3H145.4V32.3H145.5H145.6V32.4H145.7L145.8 32.5H145.9V32.3L146.1 32.4L146.2 32.5L146.3 32.6V32.7L146.2 32.8V32.9V33V33.1H146.3H146.4L146.5 33H146.6H146.7H146.8L146.9 33.1V33.2H147V33.3L147.1 33.4L147.2 33.5L147.3 33.6V33.7V33.8H147.4V33.9V34.1V34.2V34.3V34.4L147.3 34.5H147.2V34.6H147.1H147H146.9H146.8H146.7V34.5H146.6H146.5V34.4H146.4L146.3 34.5H146.2L146.1 34.6V34.7H146V34.8V34.9L146.1 35V35.1V35.2H146H145.9H145.8L145.7 35.1H145.6V35.2V35.3V35.5V35.6L145.4 35.7L145.5 35.9V36.1L145.4 36.2V36.3V36.4H145.3V36.5H145.1H145H144.7H144.1L144 36.3V36.2H143.5H143.4V36.1V36V35.9L143.1 36.1H143L142.7 36.2H142.6L142.4 36.1V36.2L142.3 36.4V36.5L142.2 36.6V36.7V36.8V36.9H142.1V37H142V37.1H141.9H141.8H141.7H141.6L141.3 37H141.2H141.1L141 37.1H140.9V37.2L140.8 37.3L140.7 37.4V37.3H140.6L140.5 37.1L140.4 37V36.9L140.2 36.8H140.1V36.9H140.2V37V37.1H140.1V37.2H140H139.9H139.8V37.3V37.4H139.9V37.5H140L139.9 37.6H139.8H139.7H139.6V37.7H139.5H139.4V37.8V37.9V38V38.1H139.3L139.2 38.2H139.1H139H138.9L138.8 38.1V38L138.7 37.9H138.6V37.8H138.5V37.9V38V38.1V38.2H138.6V38.3H138.7V38.4V38.5H138.6H138.5M138.5 38.5V38.6M138.5 38.5H138.4H138.3V38.4V38.3V38.2V38.1V38V37.9H138.2H138.1H138H137.9V38H137.8L137.7 38.1H137.6H137.5V38.2H137.4L137.3 38.1H137.2V38H137.1L137 37.9H136.9H136.8V38V38.1V38.3V38.4V38.5H136.7V38.6V38.7H136.6L136.5 38.6V38.5H136.4H136.3H136.2V38.6V38.7H136.1V38.8H136V38.9V39H136.1H136.2H136.3V39.1H136.4V39.2V39.3L136.5 39.4V39.5V39.6V39.7V39.8V39.9V40V40.1L136.4 40.2L136.3 40.3H136.2L136.1 40.4L136 40.5H135.9H135.8H135.7H135.5H135.4L135.3 40.6H135.2L135.1 40.7H135H134.9L134.7 40.8V40.9V41H134.8V41.1L134.7 41.2H134.6V41.3L134.5 41.2H134.4L134.3 41.1L134.2 41.2H134.1L134.2 41.3V41.4V41.5V41.7V41.8V41.9V42V42.1H134.1H134V42V41.9H133.9V41.8H133.8H133.7L133.6 41.9V42V42.1L133.7 42.2L133.9 42.3L134 42.4L134.1 42.5V42.6H134H133.9H133.8H133.7V42.7V42.8V42.9V43L133.6 43.2V43.3V43.4V43.5H133.7L133.8 43.4V43.3H133.9V43.4L134 43.5V43.6H133.9H133.8L133.9 43.7L133.8 44.2L133.9 44.3H134L134.2 44.4H134.3V44.5H134.4L134.5 44.7V44.8L134.6 45L134.7 45.2L134.8 45.3V45.4V45.5V45.6V45.7V45.8V45.9H134.7L134.6 46H134.5H134.4V45.9L134.3 45.8H134.2H134.1L134 45.9L133.8 46.1H133.7V46.2H133.6L133.5 46.3V46.4V46.5V46.6L133.4 46.8L133.3 47L133.2 47.1L133.1 47.2V47.3L133 47.4L132.9 47.5H132.8V47.6L132.7 47.7L132.6 47.8V47.9H132.5V48V48.2V48.3V48.4L132.6 48.5V48.6H132.5H132.4L132.3 48.5H132.2L132.1 48.4H132V48.5H132.1V48.6H132H131.9H131.8H131.7V48.7L131.6 48.9H131.5V49H131.4H131.3L131.4 49.1V49.2H131.5V49.3L131.6 49.4V49.5V49.6H131.7L131.8 49.5V49.4V49.3H131.9V49.2H132L132.1 49.4V49.6V49.7V49.8V49.9V50H132.2V50.1H132.3V50.2V50.3H132.2V50.4V50.5V50.6L132.3 50.7V50.8H132.4V50.9V51V51.1V51.2H132.5V51.3L132.6 51.4V51.5H132.7V51.6L132.8 51.7V51.8H132.9V51.9H133L133.1 52L133.2 52.1H133.3V52.2H133.4L133.5 52.3L133.6 52.4H133.7V52.5V52.6H133.8L133.9 52.7L134 52.8H134.1V52.9H134.2L134.3 53.1H134.4L134.3 53.2L134.1 53.5L134.3 53.7L134.4 53.8L134.5 53.9H134.6L134.7 54L134.8 54.1L134.9 54.2V54.3L135 54.5L135.1 54.6V54.7V54.8L135.2 54.9V55L135.3 55.1L135.4 55.2H135.5H135.6H135.7L135.8 55.1H135.9L136 55.2L136.1 55.3V55.4L136 55.5V55.6L135.9 55.7V55.8L135.8 55.9L135.6 56L135.4 56.1H135.3L135.2 56.2L135.1 56.1H135H134.9V56H134.8V55.9H134.7V56V56.1V56.2L134.8 56.5V56.6L134.9 56.7H135H135.1L135.2 56.8L135.3 56.7H135.4H135.6H135.7V56.8V56.9L135.6 57H135.5H135.4H135.2H135.1H134.9H134.8L134.7 56.9H134.6H134.5V57L134.4 57.1V57.2H134.5V57.3L134.4 57.4H134.5H134.6V57.5H134.7V57.6H134.8V57.7L134.7 57.9L134.6 58.1L134.5 58.2L134.4 58.4H134.3H134.2L134.1 58.5V58.6L134 58.7L133.9 58.8V58.9H133.8V59.1V59.2L133.7 59.3V59.4V59.5V59.6L133.8 59.7V59.8V59.9H133.9L134.1 59.8L134.5 60.1L135.1 60H135.2V60.3V60.9V61.1V61.7V62.8H135.3L135.6 63L136.3 63.6L136.4 63.7L136.5 63.9L136.7 64.2L136.9 64.4L137.1 64.7L137.8 64.8L138.3 64.9L138.6 65L138.3 65.1H138.2V65.2L138 65.6L137.9 65.7V65.8L137.2 65.6H137H136.9H136.8L136.1 65.8H135.9H135.8L135.4 65.7L135.5 66V66.1L135.4 66.2H135.3V66.3V66.7V67L135.7 67.1V67.2V67.3V67.4L135.8 67.5V67.9L136.2 68.1L136.6 68.3L136.7 68.4L136.8 68.5V68.9V69.1L136.9 69.2V69.3L137 69.4L137.1 69.5V69.6L137.2 69.7V69.8V70.2L137.1 70.5V70.8V71L136.5 70.9H136.4L136.2 71.4V71.5L135.8 71.6V71.7L135.5 71.9L135.3 72H135.2L135.1 72.1H135H134.9V72H134.8L134.9 71.9L135 71.8L134.9 71.7H134.7H134.6V71.8H134.5H134.4H134.3V71.9L134.2 72.1L134.1 72.4L134 72.6V72.9V73V73.2V73.3V73.4L134.2 74.1V74.2L133.7 74.7L133.6 75.2L133.4 75.8V76L133.1 77.2V77.3L134 78.1L134.2 78.2V78.3L134.1 78.4L133.8 79.1L133.6 79.3H133.4V79.5H133.7L134 79.6H134.2L134.3 80L134.1 80.1V80.6V80.9V81H134V81.1H133.9H133.8H133.7H133.6H133.5L133.4 81L133.3 80.9V80.7H133.2L133.1 80.5H133L132.9 80.4H132.8H132.7H132.6H132.5H132.4H132.3V80.5L132.2 80.4H132.1H132L131.9 80.6L132.1 80.7L132.2 80.8H132.3H132.4H132.5V80.9H132.7L132.8 81H132.9V81.1L133 81.2L132.9 81.3L132.8 81.2L132.7 81.4L132.9 81.6L132.8 81.7V81.8L133 82L132.8 82.4L132.6 82.3H132.5L132.4 82.2H132.2L132.1 82L131.9 82.2H131.8V82.1H131.7V82V81.9V81.8H131.6V81.9V82.1M131.6 82.1V82.2M131.6 82.1H131.5H131.2H131.1L131 82H130.8H130.7H130.6H130.5H130.4V81.9V81.8V81.6V81.5H130.5L130.6 81.2L130.5 81.1L130.4 81L130.3 80.9H130.2H130.1L130 80.8L129.9 80.7H129.7L129.6 80.5L129.4 80.3L129.5 80.2V80.1H129.4V80L129.6 79.9L129.7 80L130 79.9H130.1L130 79.8L130.2 79.6L130.3 79.3L129.8 78.8L129.7 78.7L129.6 78.8V78.9V79V79.1V79.2L129.4 79.3V79.5L128.6 79.8L128.2 79.9L128.4 80.4L128.6 80.8V80.9L128.7 81.1L129 81.7V81.8H129.1V82L129.4 82.1L129.5 82.2L129.4 82.3V82.4L129.2 82.8V83.4V83.6L129.3 84L129.4 84.1H129.5V84.2H129.6V84.3H129.7V84.2H129.8L129.6 84.1L129.8 83.9L129.9 84.1H130V84H130.1H130.2L130.3 83.9H130.4V83.8H130.7L130.6 83.9L131.2 84.4L130.9 84.9V85V85.1V85.2L131 85.3V85.4H131.1V85.5H131.2V85.6V85.7H131.3V85.8H131.4V85.9L131.1 86.2V86.5L131.2 86.6H131.3L130.9 86.7V86.8L131 86.9V87L130.9 87.1L130.8 87.2H130.7H130.6V87.1V87L130.4 87.2L130.2 87.4H129.9V87.3H129.8L129.7 87.4V87.5L130 87.7V87.8V87.9H130.1V87.8H130.2V87.7H130.3H130.4H130.5L130.4 87.8H130.5V87.9H130.4V88H130.3H130.2H130.1V88.1L130 88H129.9L129.8 88.1H129.7L129.6 88L129.5 88.4V88.5L129.6 88.6H129.7H129.8H129.9H130L130.1 88.5H130.2L130.5 88.4L130.7 88.3L130.6 88.4V88.5V88.6H130.5V88.7M130.5 88.7L130.4 88.6V88.7H130.5ZM130.5 88.7L130.6 88.8L130.7 88.7H130.8V88.6V88.5H130.9V88.4H131V88.5V88.6H131.1L131.2 88.5H131.3V88.6L131 88.7H131.1V88.8L131.2 88.9H131.1H130.9V89M130.9 89H130.8H130.7L130.8 89.1L130.9 89ZM130.9 89H131H131.1V89.6V89.7H130.7V89.9V90L130.8 90.2L130.3 90.4L130.4 90.9L130.5 91.1L130.6 91.2H130.7L130.9 91.3L130.7 91.5L129.8 92.4L129.5 92.8L129.1 93.2L128.9 93.5L129.1 93.9L129.4 94.1V94.8H129.5V95V95.3H128.9V95.7H128.6L128 95.8H127.7L127.5 95.9H127.3H127.1H126.9L126.8 96L126.3 96.7L126.6 96.9L126.7 97L126.6 97.2L126.2 97.7L125.7 98.4H125.6L125.4 98.7L126 99.3L126.1 99.5L126.5 99.8L126.6 99.9L126.9 100.2H127V100.3L126.8 100.7L126.2 101.7L125.9 102.2L125.8 102.5L125.6 102.8L125.5 102.9L124.9 103.8L124.8 104L124.5 104.6L124.8 104.7V104.8L125.1 105L125.5 104.7H125.8L126.6 104.8L127.2 104.9L127.9 105L129.1 105.2H129.5L129.3 106L129.5 106.1H130.1L130.5 106.2H130.9V106.3L131 106.7L130.8 107.2L130.4 107.8L131 108.3L131.6 108.6L131.7 108.7L131.3 109.3V109.4L131.1 109.2L130.9 109.6L130.6 110L130.5 109.9L130.4 110V110.1V110.2L130.3 110.3V110.4H130.4L130.3 110.5V110.6L130.2 110.7L130 110.8V110.9L129.9 111.2L129.8 111.4L129.7 111.5V111.6H129.6V111.7V111.8V111.9H129.5V112V112.1H129.4V112.2L129.3 112.3L129.5 112.4L129.7 112.5H129.8V112.6L129.9 112.7H130V112.8H130.1H130.2H130.3H130.4V112.9H130.5V113H130.6H130.7L130.8 113.1H130.9H131V113.2H131.1H131.2H131.3V113.3H131.4M131.4 113.3V113.4M131.4 113.3V113.2V113V112.8V112.7L131.3 112.4L131.6 112.3L132.3 111.8L132.5 111.7L132.9 111.5L133 111.4H133.1L133.4 111.2V111.3L133.5 111.4L133.6 111.5L133.7 111.6L133.8 111.7L133.7 111.8V111.9H133.6L133.5 112L133.6 112.1V112.2V112.3L133.8 112.8L134 113.2L134.3 113.9V114.1L134.4 114.4V114.5L134.3 114.9L134.4 114.8H134.5H134.7H134.9L135.5 114.9L135.9 115H136.1L136.6 115.1H136.7H136.8L136.9 115V114.9V114.8H137H137.1H137.2H137.3H137.4L137.5 114.9V115V115.9V116.5V117L137.3 117.3V117.9V118.2L137.6 118.7L137.8 119.2L137.9 119.4L138 119.6V119.7H137.9H137.8V119.8L137.6 119.9L137.9 120.3H137.8V120.4H137.7V120.3H137.6H137.5V120.2V120.1H137.4V120.2V120.3L137.5 120.4V120.5H137.4H137.3V120.4H137.2H137.1V120.5H137H136.9V120.4V120.3M136.9 120.3H136.8M136.9 120.3V120.2H136.8L136.7 120.3V120.4L136.5 120.2L136.4 120.3L136.3 120.4L136.2 120.5L136.1 120.6V120.7H136V120.8V120.9L135.9 121V121.1V121.2V121.3V121.4H136V121.5V121.6V121.7V121.8H136.1H136.2L136.1 121.9H136.2L136.3 122H136.2V122.1M136.2 122.1V122.2M136.2 122.1H136.3V122.2V122.3V122.4H136.4M136.4 122.4H136.5M136.4 122.4L136.2 122.5L136.1 123.2V123.3V123.4L136 123.5V123.7H135.9L136.2 123.8H136.7L136.8 123.9L136.7 124V124.1H136.6V124.2H136.5V124.3H136.4V124.2H136.3V124.3H136.2V124.4H136.1V124.5H136V124.6V124.7L135.9 124.9L135.8 125.1V125.2V125.3L135.6 125.4L135.5 125.5H135.4H135.3H135.2V125.6V125.7V125.8V125.9V126H135.3V126.1H135.4H135.5V126.2V126.3V126.4H135.6V126.5V126.6H135.7H135.8V126.9V127.2L135.7 127.4V127.5V127.6V127.7H135.8L135.9 127.8L135.7 128.4L135.4 128.3H135.3H135.2H135.1L135.4 128.9L135.7 129.7L136 130.1L136.4 130.8L136.6 131.3L136.8 131.7H136.9L137 131.9V132H137.3H137.8H137.9V132.1L138 132.3L138.1 132.7V132.9H138.3L139 132.7L139.1 132.8V132.9V133L139.3 132.9L139.5 133.2L139.3 133.3H139.2L138.9 133.4H138.8L138.6 133.5H138.5L138.2 133.6V134L138 134.1H137.9V134H137.8H137.7H137.6H137.5H137.4H137.3H137.2H137.1V134.1L137 134.2H136.9H136.8H136.7H136.6V134.3H136.5H136.4V134.4H136.3H136.2H136.1V134.5H135.9H135.8H135.7L135.6 134.6H135.5L135.4 134.5V134.6H135.3V134.7V134.8V134.9L135.2 135H135.1H135H134.9H134.8L134.7 134.9H134.6H134.5L134.4 134.8L134.3 134.9L134.4 135.1L134.5 135.3L134.7 135.6V135.7L134.8 135.8V135.9L134.9 136L135 136.1V136.2V136.3V136.7V136.9V137.2L134.9 137.6L134.8 138.2V138.3V138.6V138.9V139.3V139.4L134.7 139.5L134.4 139.7V139.8H134.3H134.2H134.1H134L133.9 139.7H133.8H133.7L133.6 139.8H133.5V139.9H133.4H133.3V140V140.1V140.2L133.4 140.3V140.4V140.5H133.5V140.6V140.7L133.3 141.4L133.2 141.8L133.1 142.5L133 142.6V142.8V142.9H132.9L132.8 143.1V143.2L132.7 143.3L132.6 143.5L132.9 143.6L133.3 143.7H133.4H133.5L133.6 143.8V143.9V144V144.1L133.5 144.2V144.3H133.4V144.4L133.3 144.3L132.7 144.2L132.5 144.4L132.4 144.5L132.2 144.7L132.1 144.9V145L132.2 145.1L132.3 145.3L132.2 145.4L132.1 145.5L131.9 145.7L131.7 145.9L131.5 146.2L131.4 146.4L131.3 146.5V146.6L131.2 146.9V147.1H131.1V147.2L131 147.3L130.8 147.5L130.5 147.7L130.4 147.8V147.9H130.3V148H130.2V148.1L130 148.3H129.9V148.4L130 148.5L130.1 148.7L130.5 149.5V149.6V149.9L130.7 150.1L130.6 150.2H130.5H130.4L130.3 150.3V150.4L130.1 150.7L129.9 151L129.7 151.3L129.6 151.5L129.4 151.4L129.3 151.5H129.2H129.1H129V151.4H128.9H128.8H128.7V151.5H128.6V151.6V151.7V151.8H128.5V151.9V152H128.6V152.1H128.7V152.2L128.6 152.3L128.4 152.7L128.2 153L128.1 153.2L128.2 154L128 153.9L127.9 153.8L127.6 153.7H127.5L127.3 153.6L126.9 153.4L126.8 153.7H126.7H126.4H126.3V153.6H126.2H126L125.9 153.7L126.1 154.1V154.2L126.3 154.5V154.6L126.2 154.8L125.9 154.9H125.8V155V155.1V155.2H125.7V155.3L125.8 155.4V155.5H125.9V155.6V155.7H125.8V155.8L125.7 155.9V156H125.6L125.3 156.2L125.1 156.1L125 156H124.9L124.8 155.9L124.7 156V156.1L124.3 156.4L124 156.6V156.7V156.8H124.1H124.2V156.9V157H124.3V157.1V157.2M124.3 157.2H124.4V157.3L124.3 157.2ZM124.3 157.2H124.2H124.1V157.3H124H123.9V157.2L123.4 157.3V157.6L123.1 157.7H123V157.8V158.1L123.1 158.3V158.5V158.6V158.7V158.8H123.2V158.9V159H123.1V159.1H123H122.3L122.2 159.2L121.8 159.5L121.1 160L120.6 160.5H120.5L119.8 161.1L119.2 161.6H118.6H117.9H117.8L117.5 161.7L117.4 161.8H117.3H117.2H117.1V161.9H117H116.8V162V162.1H116.7H116.6L116.7 162.2V162.3H116.8L116.9 162.4V162.5H116.8H116.7V162.6H116.6L116.8 162.7L117 162.9H117.1L117.4 163L117.3 163.1L117.2 163.3L117.1 163.5L117 163.7V163.8L115.8 163.3H115.7V163.4H115.6L115.5 163.6H115.4H115.3V163.5H115.2L115.1 163.3L115 163.1V163H114.9L114.8 162.9V162.8H114.7L114.6 162.9L114.5 163.2V163.4H114.4L114.3 163.2V163.1H114.4V163V162.9H114.3L114 163H113.9L113.8 163.1L113.6 163H113H112.5H112.4H112.3H112.2L111.7 162.9H111.1H111H110.8V162.1V161.9V162H110.7H110.6L110.4 162.1H109.9H109.7L109.6 162.2H109.5H109.4H109.3H109H108.9V162.6L109 163H108.9H108.8H108.4H108.3H107.9L107.1 163.1H106.7H106.6H106.5H106.4V163L106.3 162.9H106.2H106.1H106V162.8H105.9H105.8H105.7H105.6H105.4H105.3V162.9H105.2L105.1 163V163.1L105 163.2H104.8H104.7L104.6 163.3L104.4 163.2V163.3L104.3 163.4L104 163.6V163.7H103.9L103.6 163.9H103.5H103.4V163.8L103.2 163.6L102.7 162.8L102.4 162.6L102.2 162.5L101.9 162.4V162.2L101.5 162.1V162V161.8H101.4V161.7V161.6H101.5V161.5H101.8V161.4V160.5V160.4L101.7 160.2L101.6 160.1H101.7L101.8 160.2L101.9 160L101.8 159.9V159.8H101.9V159.7V159.6L101.6 159.8L101.4 159.5L101 159.8H100.6H100.3L99.5 159.7L98.9 159.4L98.2 159.1L97.2 158.6L97 159L95.6 158.4V158.3V158.2L95.5 158.1L95.4 157.6V157.5L94.8 157.4H94.3H94.1V157.3H94V157.4H93.9V157.5H93.8H93.7M93.7 157.5V157.4M93.7 157.5H93.6H93.5V157.6H93.4H93.3H93.2V157.7H93.1V157.8L92.9 158.1V158.2V158.3L93.1 158.6L93.3 159.1V159.2L93.4 159.3L92.5 159.4H92.4L92.2 159.8L91.9 159.7L91.8 160.1L91.7 160.9L91.6 161.2L91 161.1V161.6H89.8H89.7L89.8 161.9V162.1L90.1 162.2V162.3V162.4L90.3 162.5V162.7L90.1 162.8L90 162.9H89.9L89.8 163.3V163.4L90.3 163.2H90.4L90.5 163.3V163.4L90.3 163.5L89.8 163.8L89.7 163.7L89 163.5V163.4H89.1V163.3L88.9 163.2L88.8 163.3L88.7 163.4L88.6 163.5H88.5L88.4 163.4H88.3V163.3V163.2H88.2V163.1H88.1V163H88V162.9H87.9H87.8L87.3 163L86.4 163.1L85.9 163.2L85.4 163.3L85.1 163.4L84.4 163.6H84.3L84.2 163.7V163.6L84.1 163.3V163.2L84.5 162.8L85.1 162.1L84.8 161.4H84.7H84.6H84.1H84H83.9L83.6 161.3L83.4 161.2L83 161.1H82.9L82.3 161.3L82.2 161.6L81.9 161.8H81.8L81.6 162L81.3 161.8L80.8 161.6L81.2 161.2L81.1 160.9L81.2 160.7L80.8 160.2L81.2 159.8L82.1 158.6L81.8 158.3V158.2L81.2 158.7L81.1 158.8L80.9 159H80.8L80.5 159.3L80.4 159.4L79.8 159.8L79.4 159.5L79.3 159.4V158.9H79.2V158.8V158.7L79.1 158.5V158.4L79 157.9V157.3H78.9V157.2L78.4 156.8V156.7L78.3 156.3V155.9V155.7L78.2 155.3V155.1V155L78.1 154.9L77.6 154.8L76.7 154.6L75.9 154.4L75.6 154.3V154.2L75.5 153.7L75.6 153.6V153.5L75.7 153.4L75.8 153.3H75.9V153.2V153.1H75.8L75.7 153.2H75.6V153.1V153L75.5 152.9V153L75.4 153.1L75.3 153V152.9H75.2V152.8H75.1L75.2 152.7V152.6H75.3H75.4H75.5H75.6L75.7 152.5H75.8V152.6V152.8H75.9V152.9L76.1 153L76.2 152.9V152.8V152.7H76.3V152.6L76.2 152.5V152.3V152.2V152.1V152L76.3 151.9V152L76.6 152.1V152H76.7L76.8 151.9H76.9L77 152L77.1 151.9V152L77.2 152.1V152.5L77.3 152.6V152.7L77.6 152.6L79.3 152L80.2 150.7L79.6 149.8L80.1 149.3V149.2V149V148.7L80.2 148.4H80.1L79.3 148.3L77.5 148.4H76.6L75.8 148.5H75.7L74.7 148.2V148.1L74.6 147.7L74.5 147.5L74.3 147.2V147.1L74.2 146.9V146.8V146.7V146.6V146.5H74.1V146.4V146.3H74V146.2V146.1V146L73.9 145.9V145.8H73.8V145.7H73.7V145.6L73.5 145.5V145.4L73.4 145.3H73.3V145.2L73.2 145.1V145L73.1 144.8V144.6V144.4L73 144.2L72.9 144.1L72.8 143.9L72.6 143.8L72.2 143.6L71.8 143.4L71.3 143L71.1 143.1L70.5 142.2H70.3L69.9 141.2L69.2 141.4V141.5L67.4 141.8V141.9V142L67.5 142.6V143.2H67.4H67.3L67.2 143.3V143.2H67.1H67H66.9H66.8H66.7H66.6H66.5H66.4H66.3H66.2H66.1H66V143.3L66.1 143.9L66.2 144V144.5L66.3 144.8V145.4H66.2H66.1H66L65.9 145.5H65.8H65.7L65.8 145.9L65.9 146.3L66 146.9H65.8H65.7H65.5H64.8H63.9H63.8H63.2L62.6 146.8L61.9 146.7H61.1L60.8 147L60.7 147.2L60.5 147.6L60.4 147.7L60.3 147.8L60 147.6L59.9 147.4H59.8L59.4 147.5H59.1V149V149.1V149.2L58.9 149.4V149.6L58.8 149.7L58.3 150H58.1L57.9 149.9H57.8H57.7H57.6L57.2 149.8H57L56.7 149.7H56.5L56.1 149.6L55.8 149.5H55.3V149.8L55.2 149.9L55 150.2L54.7 150.1V150H54.6L54.5 150.1H54.4V150H54.3H54.2H54.1H54V149.9H53.9L53.5 149.4L53.2 149.5L53.1 149.3H52.7V149.9H52.6L52.5 150H52.3V149.8L52 149.9H51.9H51.8H51.7L51.4 149.8V150L50.7 150.4L50.1 150.6L49.5 150.8L49.4 151.1L49.3 151.2H49V151.4V151.6L48.3 151.5L47.7 151.4V151.2V151.1V151H47.8L47.7 150.9L47.4 150.4V150.3L47.1 150.2L46.8 149.9L46.7 149.8H46.6H46.5L46.3 149.7H46.1L45.9 149.6V149.5H45.7H45.6H45.5V149.4H45.4L45.3 149.3V149.2L45.2 149L44.9 149.2L44.6 149.3L44.5 149.5L44.2 150.1L44.1 150.3L44 150.4L43.8 150.7L43.7 150.8L43.6 150.9L43.2 151.6L43.1 151.5L43 151.3V151.2V151.1L42.8 150.6L42.7 150V149.7V149.5L42.5 149.4H42.4L42.1 149.3H42L42.1 149.2L41.6 149.1H41.5L41.4 149H41.3L41.2 148.9L41.1 149H41V148.9H40.9H40.8V148.8H40.7H40.6H40.5V148.7H40.4M40.4 148.7V148.8M40.4 148.7H40.3H40.2L40 148.6H39.9H39.8L39.7 148.5L39.6 148.4H39.5V148.3H39.4V148.2V148.1V148H39.5V147.9L39.6 147.8V147.7V147.6V147.5V147.3V147.2V147.1H39.5L39.2 147.2L39 146.8V146.7V146.6V146.3H38.9H38.8H38.7H38.6H38.5V146.2L38 146.1H37.3V145.9V145.8H37.1H36.9H36.8H36V144.6H35.4L34.9 144.5V144.1V143.9V143.1H35.6H36H36.5L36.9 143.2H37.7L38 142.7V142.6L37.8 142.5L37.5 142.1L38 141.6L37.9 141.5L37.5 141.2L37.1 140.9L36.8 140.7L36.6 140.1L36.7 139.4L36.8 139.2L37.3 138.7L37.8 138.3L37.7 138.2V138.1V138V137.7L37.6 137L37.5 136.7V136.5V136.4L37.6 136.1L37.5 136H37.4H37.3H36.9V135.8V135.7V135.6V135.2L36.7 135.3L36.2 135.5H36.1L36.2 134.9L36.1 133.8H34.8V133.7V133.6L34.9 133.3V133.1L34.7 133L34.4 132.7H34.1L34 132.5L33.9 132.4V132.3L33.7 132H33.4H33.2H33.1L33 131.9H32.9L32.7 131.8V131.2V130.8V130.7L32.8 130.3L32.9 130V129.8L32.5 129.7L32 129.5H31.7L31.5 129.4H31.4H31.1L30.8 129.3H30.5H30.4H30.3L30.1 130.1V130.4L30 130.6H29.7H29.4H29.3L29 130.7H28.8H28.6H28.5L28.3 130.8H28.2H28.1H28L27.9 130.7H27.8H27.7H27.4H27.3L27.2 130.6V130.5L26.1 130.7H26L25.9 130.8H25.8H25.7H25.3V130.9L25.1 130.8H24.7L24.2 130.7L24.1 131L24 131.2H23.9L23.8 131.1H23.7H23.6H23.4H23.3H23.2V131V130.9V130.8V130.7H22.7L22.5 130.6H22.4H22.3H22.2H21.8H21.7L21.4 130.5H21.3H21.2H21.1V130.4V130.3V130.2V130.1V130L21 129.9L20.5 130.2L20.3 130.3V130.4V130.7V131L20.2 131.3V131.4V131.5V131.9V132L19.7 132.1L18.4 132.2H18.2L18.1 131.9L17.8 131.8V131.2L18.5 131.4L18.6 131.3L18.4 131.2V131.1V131L18.5 130.9V130.8V130.7H18.6L18.7 130.6L18.8 130.5V130.4H18.9L19 130.2H19.1L19.2 130.1V130L19.4 130.1L20.1 129.6H20.2L20 129.3L19.7 129.4L19.5 129.5L19.3 129.7H19.1L19 129.8V129.9H18.9H18.8H18.7V130H18.6L18.7 130.1V130.2V130.3L18.6 130.4H18.5H18.4V130.5V130.6L18.3 130.7V130.8H18.1L17.9 130.7H17.8H17.7V130.6H17.6H17.5L17.4 130.5L17.3 130.4H17.2V130.3H17.1H17L16.9 130.2H16.8H16.7H16.6H16.5H16.4L16.3 130.1H16.2H16.1L16 130L15.8 129.9H15.6L15.4 129.8V129.7H15.3V129.6H15.2L14.9 129.5V129.7V129.8L14.8 129.9V130V130.1H14.7V130H14.6H14.5H14.4H14.3V129.9V129.8H14.2V129.7H14.1L14 129.8H13.9V129.9H13.8H13.7H13.6V130H13.5H13.4M13.4 130V130.1M13.4 130H13.3V129.9M13.3 129.9H13.4M13.3 129.9V129.8H13.4V129.7H13.3V129.6V129.5V129.4H13.4V129.3H13.3V129.2M13.3 129.2H13.2V129.1H13.3M13.3 129.2V129.1M13.3 129.2L13.4 129.1H13.3M13.3 129.1V129H13.4L13.5 128.9H13.6H13.7V128.8V128.7L13.8 128.6V128.5H13.9L13.8 128.4H13.7V128.3H13.6V128.2H13.5L13.6 128.1L13.7 128V127.9V127.8H13.6V127.7V127.6L13.7 127.5V127.4L13.6 127.3V127.2H13.5V127.1H13.4H13.3H13.2L13.1 126.8L13 126.4H13.3L13.6 126.2L13.8 126.5L13.9 126.6L14 126.7V126.8H14.1V126.9H14.2H14.3H14.4H14.5H14.6L14.8 126.8V126.7V126.6H14.9V126.5H15V126.4V126.3H14.9V126.2V126.1V126V125.9H14.8H14.7V125.8V125.7L14.8 125.6H14.9H15H15.1L15.2 125.5V125.4H15.3V125.3V125.2V125.1H15.2V125V124.9L15.1 124.8V124.7V124.6V124.5V124.4V124.3M15.1 124.3H15.2M15.1 124.3V124.2V124.1H15V124V123.9V123.8V123.7V123.6H15.1V123.5H15.2V123.4H15.3V123.3L15.2 122.7L15.1 122.6L15 122.5V122.4V122.3H14.9V122.2L14.8 122L15 121.8H14.9L14.8 121.7H14.7L14.6 121.6L14.5 121.5L14.2 121.4L14.1 121.3H14L13.9 121.2L13.8 121.1L13.7 121H13.6L13.2 120.8V120.5V120.3V120.2H13.1L13 120.1L12.8 120.2H12.7H12.5V120.1H12.4L12.3 120H12.2V119.9L12.1 119.8L11.2 119.7V119.5L10.6 119.6L10.4 119L10.3 118.8L10.2 118.7V118.6V118.5L10.1 118.4V118.3V118.2H10V118.1V118V117.9V117.7H9.89999L9.79999 117.4V117.2L9.70001 117.1V117H9.79999V116.9V116.8L9.70001 116.7L9.5 116.2L9.29999 115.5L8.60001 114.7L8.70001 114.1V113.8V113.7V113.6H8.79999V113.4V113.3V113.2L8.89999 113.1V113H8.79999V112.9V112.8L8.70001 112.5L8.5 111.9V111.8V111.6L7.60001 111.1V111H7.5H7.29999H6.79999H6.60001H6.5V110.8V110.5V110.4L6.39999 109.8V109.6L4.70001 109.7L1.29999 110L1.39999 109.7V109.5V109.2L1.29999 108.7L1.10001 108.4L1 108.1V107.9V107.8V107.7L1.10001 107.5L1.39999 107.2L1.5 107L1.60001 106.8L1.70001 106.6L1.79999 106.3V106.1V105.9V105.8V105.7L1.70001 105.6L1.29999 105.3L1 105L0.799988 104.8L0.600006 104.6L0.5 104.5V104.4L0.600006 104.2L0.799988 104L1.10001 103.8L1.29999 103.7H1.5H1.79999L1.89999 103.6H2L2.10001 103.4V103.2L2.20001 102.9L2.10001 102.7L2 102.4L1.89999 102.2L1.70001 102L1.39999 101.7L1.29999 101.5L1.10001 101.2L1 101V100.8L0.899994 100.5L0.799988 100.3V100.1V99.5V98.7L0.899994 98.5L1 98.1L1.10001 98L1.20001 97.8L1.39999 97.6H1.5H1.60001H1.79999H1.89999L2 97.7L2.20001 97.8L2.39999 97.9H2.60001H2.79999L3 97.8H3.10001L3.20001 97.7V97.6L3.29999 97.5V97.3L3.20001 97.2V97.1L3 97H2.89999H2.70001L2.60001 97.1H2.39999H2.29999L2.20001 97V96.9H2.10001V96.8V96.7V96.6H2.20001V96.5L2.29999 96.4L2.39999 96.3L2.60001 96.2L2.70001 96.1L2.79999 96V95.9V95.8V95.7V95.6V95.5L2.70001 95.4L2.60001 95.2V95.1L2.5 95V94.8L2.39999 94.7L2.29999 94.6L2.20001 94.5L2 94.4L1.79999 94.2H1.70001V94.1H1.60001V94V93.9V93.8V93.6V93.5V93.4L1.70001 93.3L1.79999 93.2V93.1H1.89999H2L2.10001 93H2.20001V92.9H2.39999L2.5 92.8H2.60001H2.70001H2.79999L3 92.9L3.10001 93L3.20001 93.1L3.29999 93.2H3.39999L3.60001 93.3H3.70001H3.79999H4H4.10001L4.20001 93.2V93.1L4.29999 93V92.9V92.8V92.7V92.6V92.5L4.20001 92.4V92.3V92.2V92.1V92L4.10001 91.9L4.20001 90.3L4.29999 90.1L5.20001 88.5V88.3L5.29999 87.4L6.89999 86.2L8.10001 84.9H8.20001H8.39999H8.5L8.60001 84.8H8.70001H8.79999V84.7H8.89999V84.6H9V84.5V84.4L9.10001 84.3V84.2V84.1L9 84V83.9H8.89999L8.79999 83.7L8.70001 83.6L8.60001 83.5L8.5 83.4L8.39999 83.3L8.29999 83.2H8.20001V83.1L8.10001 83V82.9L8 82.8V82.7V82.6H8.10001V82.5V82.4L8.60001 82.2V82H8.70001L8.79999 81.9H8.89999V81.8H9V81.7V81.6H9.10001V81.5L9 81.4V81.3V81.2L8.79999 80.9L8.70001 80.7L8.60001 80.5V80.4L8.5 80.3V80.2L8.39999 80.1L8.20001 79.9V79.8L8.10001 79.7V79.6V79.5H8V79.4L7.89999 79.2V79.1V79V78.9L7.79999 78.8V78.7L7.70001 78.6V78.5V78.4L7.60001 78.2L7.5 78.1V78L7.39999 77.9V77.8V77.7V77.6V77.5V77.4V77.3H7.29999V77.2H7.20001H7.10001H7H6.89999L6.79999 77.3H6.70001V77.4L6.60001 77.5L6.5 77.6H6.10001L5.70001 77.4L5.5 76.4L5.60001 75.4L5.89999 75L6 74.9H6.10001H6.20001L6.29999 74.8L6.39999 74.7H6.5L6.60001 74.6L7.29999 74.8V74.2L6.70001 73.9L6.20001 73.6L5.79999 73L5.70001 72.8V72.7V72.6V72.3V72.2V72.1V72V71.9V71.8V71.7L5.79999 71.3L5.60001 70.7L5.10001 70.2L4.79999 69.9L4.5 69.7L4.89999 69.3L5.20001 69L5.5 68.1L4.70001 67.7L4.5 67.6L3.39999 67.3V67.2L3.29999 67.1L3.20001 67L3.10001 66.9L3 66.8L2.89999 66.7V66.6L2.79999 66.5V66.4H2.70001V66.3V66.2V66.1V66V65.9V65.8V65.7L2.89999 65.5L3.10001 65.4L3.5 65.3V64.8L3.39999 64.7L3 64.5L2.10001 63.7V63.1V63H2.20001L2.29999 63.1H2.39999L2.5 63.2H2.60001H2.70001H2.79999L2.89999 63.1H3V63L3.10001 62.9V62.8V62.7V62.6V62.5V62.4H3V62.3H2.89999L3.5 61.7L3.79999 61.6L4.20001 61.5L4 60.8V60.7L3.79999 60.4L4.10001 60.1L4.29999 59.8H4.39999L4.5 59.9H4.60001H4.70001H4.79999H4.89999H5L5.10001 59.8H5.20001L5.29999 59.7V59.6L5.39999 59.5V59.4V59.3V59.2L5.29999 59.1V59L5.20001 58.9V58.8L5.10001 58.7L5 58.6V58.5V58.4V58.3V58.2V58.1H5.10001V58L5.20001 57.9V57.8V57.7V57.6V57.5V57.4V57.3H5.29999V57.2V57.1V57L5.20001 56.9V56.8V56.7L5.10001 56.6V56.5V56.4L4.79999 55.3L5.5 55.1L7 55L7.60001 54.8L7.89999 54L8 53L8.10001 52L8.70001 51.4V51.3V51.2L8.79999 51.1V51L8.89999 50.9V50.8V50.7V50.6V50.5V50.4V50.3V50.2L8.79999 50.1L8.70001 50H8.60001L8.5 49.9H8.39999H8.29999L8.20001 50H8.10001L8 50.1H7.89999V50.2H7.79999V50.3H7.70001L7.60001 50.4H7.5L7.29999 50.3L7.89999 49.5L9 48.8L9.5 48.3L9.79999 48L9.89999 47.9V47.6V47.4V46.6L9.5 45.8V45.6V45.5H9.60001V45.4H9.70001L9.79999 45.3H9.89999H10H10.1H10.2V45.2H10.3H10.4H10.5H10.6V45.1H10.7L10.8 45H10.9V44.9L11 44.8V44.7V44.6H11.1V44.5V44.3V44.2L11.2 44V43.9V43.7L11.3 43.5V43.3V43.2L11.4 43V42.9L11.5 42.7L11.8 42.2L12.1 41.6L13.1 41.1L13.3 40.4V39.6L13.4 39.4V39.3H13.5V39.2L13.6 39.1L13.9 39L15.4 39.1L15.6 39L15.8 39.1H15.9H16H16.1L16.2 39.2H16.3V39.1H16.4H16.5V39H16.6V38.9V38.8V38.7V38.6V38.5L16.7 38.4V38.3L16.8 38.2L16.9 38.1L17 38L17.1 37.9H17.2L17.3 37.8V37.7L17.4 37.6H17.5L17.6 37.5V37.4H17.7V37.3V37.2V37.1V37L17.6 36.9V36.8L17.5 36.7V36.6L17.4 36.5V36.4H17.3L17.2 36.2L17.1 36.1L17 35.9V35.8L16.9 35.7V35.6L18 35.2L18.7 34.7L19.4 34.2L19.9 33.6L20 33.5H20.1H20.2H20.3H20.4H20.5V33.4H20.6H20.7H20.8L20.9 33.3H21V33.2V33.1V33V32.9V32.8V32.7H20.9L20.8 32.6V32.5L20.7 32.4V32.3V32.2V32.1V32H20.8V31.9H20.9H21H21.1L21.3 32H21.4H21.5H21.6H21.7H21.8H21.9V31.9H22V31.8V31.7V31.6V31.5V31.4H21.9V31.3H21.8H21.7H21.6H21.5H21.4H21.3V31.2H21.2H21.1V31.1L21.3 30.9L21.6 30.8L21.9 30.9L22.2 31.4L23.6 31.3L24 30.2L23.5 29.1V29L23.6 28.9L23.7 28.8V28.7H23.8V28.6L23.7 28.5V28.4H23.6L23.5 28.3H23.4V28.2L23.3 28.1V28L23.2 27.9V27.8V27.7V27.6V27.5V27.4V27.3H23.3V27.2L23.4 27.1H23.5H23.6V27H23.7V26.9H23.8V26.7V26.6H23.9V26.5V26.4V26.3V26.2V26.1V26H23.8V25.9V25.8H23.7V25.7H23.6L23.5 25.6H23.4L23.3 25.5V25.4H23.2V25.3V25.2V25.1V25L24.5 24.6L31.4 24.2L33.3 24.5L34.6 25.2L36.9 27.2L38.1 27.6L39.1 27.2L39.3 27.3H39.4V27.2H39.5L40 27L40.6 26.8L41.3 26.6L41.5 26.5L41.6 26.3L41.7 26.2L41.9 25.7L42.2 25.2L42.3 24.9L42.4 24.6L42.6 24.3L42.7 24.1V24V23.9L42.5 23.8L42.4 23.7L42.2 23.6L42.4 23.5H42.5L42.6 23.4V23.3H42.7V23.2V23.1H42.8V23V22.9V22.8V22.7V22.6V22.5V22.4L42.9 22.3L45.8 21.1H50.5L50.9 21.2H51H51.1H51.2L59.3 22.8L62.8 22.6H63.7L65.1 22.5L66.8 22.3L68.2 22.2L68.5 22.3L69.8 22.6L71 23.7L71.3 25V26.5L71.5 27.8L72.4 28.4L73.3 28.2L76 26.8L77.7 26.7H77.8H77.9L78.2 26.8V26.9H78.3H78.4H78.5L78.6 27H78.7H78.8V27.1L78.9 27.2V27.3H79V27.4L79.2 27.5H79.3H79.4V27.6H79.5H79.6V27.7H79.7H79.8L79.9 27.8H80H80.1L80.2 27.9H80.3H80.4H80.5H80.6H80.8H81H81.2H81.3H81.5V28H81.6H81.8V27.8V27.7V27.5V27.4L82.7 27L83.7 26.5H83.8L84.1 26.3H84.2L86.6 25.1L87.1 24.9L88.7 24.1L89.6 23.4H89.7V23.3H89.8H89.9M89.9 23.3V23.4M89.9 23.3H90H90.1V23.2M90.1 23.2H90.2M90.1 23.2V23.1H90.2V23.2M90.2 23.2H90.3V23.1H90.4V23V22.9H90.5V22.8H90.6M90.6 22.8V22.7M90.6 22.8H90.7H90.8V22.7H90.9M90.9 22.7V22.8M90.9 22.7H91V22.6H91.1H91.2V22.5H91.3H91.4V22.4V22.3H91.5H91.6V22.2V22.1H91.7V22V21.9V21.8H91.8M91.8 21.8H91.9M91.8 21.8V21.7H91.9H92V21.6H91.9V21.5M91.9 21.5H92V21.4H91.9M91.9 21.5V21.4M91.9 21.4V21.3H91.8V21.2V21.1M91.8 21.1H91.9M91.8 21.1V21V20.9H91.9H92M92 20.9V20.8M92 20.9H92.1V20.8V20.7H92.2V20.8H92.3H92.4H92.5H92.6H92.7H92.8H92.9L93 20.7V20.6V20.4V20.3V20.2L93.1 20.1V20V19.8V19.7V19.6V19.5L93.2 19.6H93.3L93.4 19.7L93.5 19.8H93.6L93.7 19.6V19.5V19.4V19.3H93.8V19.2H94.1H94.6H94.8H95.1H95.2V19.1H95.3V19L95.4 18.9L95.5 18.8V18.7H95.6V18.6L95.5 18.4V18.3L95.4 18.1V17.9H95.3H95H94.7H94.6H94.5H94.2H94.1H94H93.9H93.8H93.7H93.6V18V18.1H93.5V18.2V18.3H93.4V18.4H93.3V18.3L93.4 18.2V18.1V18H93.5V17.9H93.4L93.5 17.8V17.7M93.5 17.7H93.6M93.5 17.7H93.4V17.6H93.5V17.5M93.5 17.5H93.4M93.5 17.5V17.4M93.5 17.4H93.4L93.5 17.3M93.5 17.4V17.3M93.5 17.4H93.6V17.3H93.5M93.5 17.3V17.2H93.6V17.1V17L93.7 16.9M93.7 16.9V17M93.7 16.9H93.8V17H93.7M93.7 16.9L93.8 16.8V16.7M93.7 17V17.1M93.8 16.7V16.6M93.8 16.7H93.9V16.6V16.5H94M94 16.5V16.6M94 16.5H94.1V16.4H94V16.5ZM94 16.5L93.9 16.4V16.3M93.9 16.3H93.8M93.9 16.3H94H94.1V16.2V16.1V16V15.9H94.2V15.8H94.3H94.4V15.7H94.5V15.6L94.4 15.3V15.2V15V14.9V14.8L94.3 14.7V14.6H94.2L93.9 14.3L93.8 14.2L93.7 14.1V14V13.9H93.6V13.8V13.7L93.5 13.5L93.4 13.3V13.2L93.5 12.8L94 12.2L94.6 11.9L95.2 11.4L95.3 11H95.4H95.5H95.6H95.7H95.8H95.9H96H96.1H96.2H96.3V10.9H96.4H96.5V10.8H96.6L96.7 10.7V10.6H96.8L96.9 10.5H97.1V10.4V10.3L97 10.2H96.9V10.1V9.99999H96.8H96.7V9.9M96.7 9.9H96.8M96.7 9.9H96.6V9.79999V9.7V9.59999M96.6 9.59999H96.7M96.6 9.59999V9.49999M15.3 70.5V70.6V70.7L15.1 70.8V70.6L15.3 70.5ZM15.3 70.5L14.9 70.4H14.7V70.3H14.5L14.1 70.2H13.7L13.6 70.1H13.5H13.4H13.3H13.2H13.1V70H12.9H12.7L12.6 69.9H12.3H12.2L12 69.8H11.9H11.8H11.6L11.5 69.7H11.4H11.3H11.2H11H10.9H10.8H10.6H10.5H10.4H10.3H10.2H10.1H9.89999L9.70001 69.8L9.5 69.9L9.29999 70V69.9H9.20001V69.8L9.10001 69.9V69.8L9 69.7V69.6M15.3 70.5H15.5L15.6 70.3V70.2V70.1V69.9V69.5H15.7M9 69.6L9.39999 69.3H9.5H9.60001L9.79999 69.2H9.89999V69.1V69H10H10.1H10.4H10.6H10.7H10.8H10.9L11 69.1H11.1H11.2H11.3H11.4H11.5V69H11.6H11.7H11.8H11.9V68.9V68.3V68.1V68L11.8 67.4V67.2H11.9H12L12.3 67.3L12.6 67.4H12.8L12.9 67.5H13H13.1H13.2V67.7V67.8V67.9V68.1V68.2H13.5H13.6H13.7H13.8H13.9H14H14.2H14.3V68.3H14.5H14.8H15H15.3H15.4H15.5H15.6H15.7V68.4V68.6V68.7V68.8V68.9L15.6 69V69.2V69.3V69.4L15.7 69.5M9 69.6H8.89999L8.60001 69.8L8.20001 70L7.89999 70.2M9 69.6L8.70001 69.7L8.5 69.9H8.39999L7.89999 70.2M7.89999 70.2H7.79999V70.3M7.89999 70.2V70.3H7.79999M7.79999 70.3H7.70001H7.5M7.5 70.3L6.89999 70.2M7.5 70.3H7.39999L7.10001 70.2H6.89999M6.89999 70.2H6.79999H6.70001H6.60001M6.60001 70.2V70.1V70L6.5 69.9V69.8L6.39999 69.6V69.5H6V69.8M6.60001 70.2V70.5H6.5L6.39999 70.6L6.29999 70.7L6.20001 70.4L6.10001 70.3H6.20001L6.29999 70.2L6.20001 70.1V69.9L6.10001 69.8H6M6 69.8L5.60001 69.7V70.2H5.89999H6H6.10001V70.1L6 69.9V69.8ZM15.7 69.5V69.6H15.9V69.5H15.8V69.4L15.7 69.5ZM9.60001 70.7L9.70001 70.6V70.5V70.4L9.5 70.5V70.6L9.60001 70.7ZM14.2 70.3H14L13.8 70.2V70.3L14.1 70.4H14.2V70.3Z" stroke="white" stroke-width="0.5" stroke-linecap="round" stroke-linejoin="round"/>
</g>
</svg>
