<svg width="133" height="73" viewBox="0 0 133 73" fill="none" xmlns="http://www.w3.org/2000/svg">
<g id="UA77">
<path d="M0.999985 72.4H0.899979V72.3V72.2V72.1V72V71.9H0.999985V71.8V71.7V71.6V71.5V71.4V71.3L1.09999 71.2V71.1H1.19998V71V70.9V70.8V70.7V70.6H1.29999V70.5L1.39998 70.4V70.3H1.49998L1.59999 70.2V70.1H1.69998V70V69.9V69.8V69.7H1.79999V69.6V69.5V69.4V69.3V69.2V69.1V69V68.9V68.8H1.89998V68.7V68.6V68.5H1.99998L1.89998 68.4V68.3H1.99998V68.2V68.1V68V67.9H2.09999V67.8V67.7V67.6L2.19998 67.5V67.4V67.3H2.29999V67.2V67.1H2.39998V67H2.49998V66.9H2.59999H2.69998V66.8V66.7V66.6V66.5H2.79999H2.89998V66.4V66.3V66.2H2.99998V66.1H3.09999V66V65.9V65.8H3.19998V65.7H3.29999V65.6H3.39998H3.49998L3.59999 65.5V65.4V65.3H3.49998V65.2H3.59999V65.1V65H3.69998H3.79999H3.89998H3.99998V64.9V64.8H4.09999V64.7V64.6H3.99998V64.5H4.09999H4.19998V64.4V64.3V64.2V64.1V64H4.29999V63.9V63.8V63.7V63.6V63.5H4.39998L4.49998 63.4V63.3H4.59999V63.2V63.1V63H4.69998V62.9V62.8V62.7V62.6H4.59999L4.49998 62.7H4.39998V62.6H4.29999L4.19998 62.5V62.4H4.09999V62.5H3.99998L3.89998 62.4H3.99998V62.3L4.09999 62.2V62.1H4.19998V62L4.09999 61.9V61.8H3.99998H3.89998H3.79999V61.7H3.69998L3.59999 61.6V61.5V61.4H3.49998V61.3V61.2H3.39998H3.29999V61.1H3.19998V61.2H3.09999H2.99998H2.89998V61.1H2.79999L2.69998 61V60.9V60.8V60.7V60.6V60.5V60.4H2.59999V60.3H2.49998V60.2H2.39998H2.29999V60.1V60V59.9V59.8H2.19998V59.7H2.09999V59.6V59.5L2.19998 59.4V59.3H2.29999V59.2H2.39998H2.49998H2.59999H2.69998H2.79999H2.89998V59.1V59H2.79999H2.69998V58.9H2.79999V58.8H2.89998V58.7V58.6V58.5H2.79999H2.69998V58.4V58.3V58.2V58.1V58V57.9H2.59999H2.49998V57.8V57.7H2.39998V57.8H2.29999H2.19998V57.7V57.6V57.5H2.09999V57.4V57.3V57.2L1.99998 57.1H1.89998H1.79999L1.69998 57V56.9V56.8H1.59999L1.49998 56.7V56.6H1.39998L1.29999 56.7H1.19998V56.6H1.09999V56.5L0.999985 56.4V56.3H0.899979V56.2V56.1V56H0.799988V55.9V55.8V55.7V55.6V55.5H0.899979V55.4H0.999985H1.09999V55.5H1.19998L1.29999 55.4V55.3H1.19998H1.09999L0.999985 55.2H0.899979V55.3H0.799988V55.2V55.1V55H0.699982V54.9V54.8L0.599991 54.7V54.6H0.699982H0.799988V54.7H0.899979H0.999985V54.6V54.5H0.899979H0.799988L0.699982 54.4L0.599991 54.3V54.2V54.1V54V53.9H0.699982V53.8V53.7H0.599991V53.6H0.499985V53.5V53.4V53.3V53.2V53.1V53V52.9H0.399979V52.8V52.7H0.299988V52.6L0.399979 52.5V52.4V52.3H0.299988V52.2V52.1V52H0.399979V51.9H0.499985V51.8V51.7V51.6L0.599991 51.5V51.4H0.699982V51.3H0.799988V51.2V51.1V51L0.699982 50.9H0.599991H0.499985V50.8V50.7V50.6H0.399979V50.5V50.4V50.3V50.2V50.1V50V49.9V49.8H0.499985H0.599991V49.7H0.699982V49.6H0.799988H0.899979V49.5V49.4V49.3H0.999985H1.09999V49.2H1.19998V49.1H1.29999V49H1.39998V48.9H1.49998L1.59999 48.8H1.69998V48.7V48.6H1.79999H1.89998V48.5H1.99998V48.4H1.89998V48.3H1.79999V48.2H1.89998L1.99998 48.1L2.09999 48H2.19998V47.9H2.29999V47.8H2.39998V47.7L2.49998 47.6L2.59999 47.5H2.69998V47.4H2.79999V47.3V47.2H2.89998V47.1V47L2.99998 46.9V46.8H3.09999V46.7H3.19998V46.6H3.29999V46.5H3.39998H3.49998H3.59999V46.6H3.69998V46.5V46.4H3.59999V46.3L3.69998 46.2H3.79999L3.89998 46.1H3.99998H4.09999V46H4.19998V45.9V45.8H4.29999V45.7L4.39998 45.6L4.49998 45.5V45.4H4.59999V45.3V45.2V45.1L4.69998 45V44.9H4.59999L4.49998 44.8H4.39998H4.29999V44.7V44.6V44.5L4.19998 44.4V44.3V44.2V44.1L4.09999 44H3.99998V43.9H3.89998V43.8V43.7L3.79999 43.6V43.5H3.89998V43.4L3.99998 43.3L4.09999 43.2L4.19998 43.1L4.29999 43H4.39998V42.9H4.49998H4.59999V42.8H4.69998H4.79999H4.89998H4.99998V42.9H5.09999H5.19998V43H5.29999V43.1V43.2H5.39998L5.49998 43.3H5.59999L5.79999 43.4V43.5H5.99998L6.09999 43.6H6.19998H6.29999H6.39998H6.49998L6.59999 43.5H6.69998L6.79999 43.4L6.89998 43.3V43.2V43.1V43H6.79999V42.9V42.8H6.69998V42.7V42.6V42.5V42.4L6.79999 42.3L6.89998 42.2H6.99998V42.1H7.09999H7.19998H7.29999H7.39998H7.49998H7.69998H7.79999H7.89998H7.99998H8.09999V42H8.19998V41.9H8.29999V41.8V41.7V41.6V41.5V41.4V41.3L8.39998 41.2V41.1H8.49998V41V40.9V40.8V40.7H8.39998L8.29999 40.6L8.19998 40.5V40.4V40.3V40.2V40.1V40H8.29999V39.9H8.39998H8.49998V39.8H8.59999H8.69998H8.79999H8.89998H8.99998H9.09999H9.19998H9.29999H9.39998H9.49998V39.7H9.59999V39.6V39.5L9.49998 39.4L9.39998 39.3H9.29999V39.2H9.19998V39.1H9.09999V39L8.99998 38.9V38.8V38.7V38.6H9.09999V38.5V38.4H9.19998V38.3L9.29999 38.2L9.39998 38.1H9.49998L9.59999 38L9.69998 37.9H9.79999V37.8H9.89998L9.99998 37.9H10.1H10.2H10.3H10.4H10.5H10.6L10.7 38H10.8V38.1H10.9L11 38.2V38.3H11.1V38.4H11.2L11.3 38.5H11.4H11.5V38.4H11.6L11.7 38.3L11.8 38.2V38.1V38L11.9 37.9V37.8V37.7V37.5L11.8 37.4H11.9V37.3L11.8 37.2V37.1L11.7 37L11.6 36.9H11.5V36.8H11.4V36.7V36.6L11.3 36.5H11.2V36.4H11.1H11L10.9 36.3H10.8L10.7 36.2V36.1H10.6V36V35.9L10.7 35.8L10.8 35.7H10.9V35.6V35.5V35.4L10.8 35.3V35.2H10.7L10.6 35.1H10.5H10.4H10.3V35H10.2V34.9H10.3V34.8H10.4H10.5L10.6 34.7L10.8 34.6V34.5L11 34.4H11.1H11.2V34.3V34.2V34.1H11.3L11.4 34L11.5 33.9H11.6L11.7 33.8L11.8 33.7L11.9 33.6L12 33.5V33.4H12.1V33.3H12.2H12.3L12.4 33.2H12.5V33.1H12.6L12.7 33.2H12.8H13H13.1L13.2 33.3H13.3H13.4L13.6 33.4H13.7H13.8V33.3L14 33.2L14.1 33.1L14.3 32.9L14.4 32.7H14.5L14.6 32.6H14.7V32.5V32.4V32.3L14.8 32.2V32.1L14.9 32L15 31.9H15.1V31.8L15.2 31.7V31.6V31.5L15.3 31.4L15.4 31.2V31.1H15.5L15.7 30.9L15.8 30.7L15.9 30.6V30.5V30.4L16 30.3V30.2L16.1 30.1L16.2 30L16.3 29.9L16.5 29.8L16.6 29.7V29.6L16.7 29.5V29.4V29.3V29.2H16.8V29.1L16.9 28.9V28.8L17 28.6L17.1 28.5L17.2 28.3L17.3 28.1V28H17.4L17.5 28.1H17.6H17.7L17.8 28H17.9V27.9V27.8V27.7V27.6H18V27.5V27.4V27.3H18.1L18.2 27.2V27.1H18.3V27H18.4V27.1H18.5H18.6H18.7V27H18.8V26.9L18.7 26.8L18.6 26.7L18.7 26.6H18.8H18.9L19 26.5V26.4V26.3V26.2V26.1L19.1 26V25.9H19.2H19.3L19.4 25.8H19.5L19.6 25.7V25.8H19.7V25.7H19.8V25.6V25.5V25.4H19.9V25.3V25.2H20V25.1H20.1V25H20.2H20.3V24.9H20.4V24.8V24.7H20.5V24.6H20.6V24.5H20.7V24.4V24.3L20.8 24.2H20.9V24.1H21H21.1V24H21.2H21.3H21.4L21.5 23.9H21.6V23.8H21.7L21.8 23.7L22 23.6L22.2 23.5L22.3 23.4L22.4 23.3H22.5L22.6 23.2H22.7H22.8V23.1H22.9V23H23L23.1 22.9H23.2H23.3V22.8H23.4H23.5L23.6 22.7H23.7L23.8 22.5L23.9 22.4H24V22.3H24.1L24.2 22.4H24.3L24.4 22.5H24.5H24.6V22.4H24.7H24.8H24.9H25H25.1H25.2V22.3V22.2V22.1H25.3H25.4V22H25.5H25.6L25.7 22.1L25.8 22.2H25.9V22.1H26V22H26.1H26.2H26.3H26.4H26.5H26.6H26.7H26.8L26.9 21.9L27 21.8L27.1 21.7V21.6H27.2H27.3V21.5H27.4H27.5H27.6H27.7V21.4H27.8V21.5H27.9L28 21.6H28.1H28.2H28.3H28.4V21.5H28.5H28.6L28.7 21.6L28.8 21.7H28.9L29 21.6H29.1L29.2 21.5L29.3 21.6H29.4L29.5 21.7H29.6V21.6H29.7H29.8H29.9H30H30.1H30.2H30.3H30.4H30.5V21.7H30.6H30.7H30.8H30.9H31H31.1H31.2V21.8H31.3V21.9H31.4L31.5 22V22.1H31.6L31.7 22.2H31.8V22.3L31.9 22.4V22.5V22.6H32V22.7H32.1H32.2V22.8H32.3H32.4H32.5V22.9V23H32.6H32.7L32.8 22.9H32.9V23H33H33.1H33.2L33.3 23.1H33.4H33.5V23.2H33.6H33.7H33.8L33.9 23.1H34H34.1H34.2V23.2H34.3H34.4L34.5 23.3H34.6H34.7H34.8H34.9H35H35.1V23.4H35.2H35.3V23.3H35.4H35.5V23.2H35.6H35.7V23.1H35.8H35.9H36H36.1H36.2V22.9V22.8V22.7V22.6V22.5H36.1V22.4L36 22.3V22.2V22.1V22L36.1 21.9V21.8H36.2V21.7V21.6L36.1 21.5V21.4H36V21.3H36.1V21.2V21.1L36.2 21V20.9H36.1V20.8H36V20.7H35.9V20.6H35.8H35.7V20.7V20.8H35.6H35.5L35.4 20.9H35.3V20.8L35.2 20.7V20.6V20.5H35.1L35.2 20.4H35.3V20.3H35.4V20.2V20.1V20H35.5V19.9H35.6V19.8V19.7V19.6H35.7V19.5V19.4V19.3H35.6V19.2V19.1H35.5V19V18.9V18.8V18.7V18.6H35.4V18.5V18.4V18.3H35.3V18.2V18.1V18V17.9H35.4V17.8H35.5V17.7V17.6V17.5V17.4V17.3H35.4V17.2H35.5V17.1V17V16.9V16.8H35.4V16.7V16.6H35.3V16.5H35.2V16.4V16.3H35.1V16.2V16.1H35V16L35.1 15.9V15.8L35.2 15.7V15.6V15.5V15.4V15.3V15.2V15.1V15V14.9V14.8V14.7V14.6V14.5V14.4L35.1 14.3V14.2V14.1V14V13.9L35.2 13.8V13.7V13.6L35.3 13.5V13.4V13.2L35.4 13.1V13V12.9L35.5 12.8V12.7V12.6V12.5V12.4L35.6 12.2V12.1V12V11.9V11.8V11.7V11.6V11.5H35.5V11.4V11.3V11.2V11.1H35.4H35.3H35.2V11V10.9L35.1 10.8V10.7L35.2 10.6V10.5V10.4H35.3V10.3V10.2V10.1V10L35.2 9.89999L35.1 9.70001L35 9.60001H35.1V9.5V9.39999H35.2V9.29999H35.1V9.20001V9.10001H35V9H35.1H35.2L35.3 8.79999V8.70001V8.60001H35.2V8.5H35.1V8.39999H35V8.29999V8.20001H34.9V8.10001V8L34.8 7.79999V7.70001V7.60001L34.7 7.5V7.39999L34.6 7.29999L34.5 7.20001V7L34.6 6.89999V6.79999V6.70001V6.60001V6.29999L34.7 6V5.89999V5.79999L34.6 5.5V5.39999V5L34.5 4.79999H34.6V4.70001V4.60001L34.5 4.39999L34.4 4.29999V4.20001V4.10001V3.89999V3.79999V3.70001H34.5L34.6 3.5H34.7V3.39999L34.8 3.29999L34.9 3H35L35.1 2.79999L35.2 2.70001V2.60001L35.4 2.5L35.5 2.29999L35.6 2.20001H35.7V2.10001L35.9 2H36V1.89999L36.1 1.79999H36.2L36.3 1.70001L36.2 1.39999L36.3 1.29999L36.5 1V0.899994L36.6 0.799988V0.899994H36.8L36.9 1H37.1V1.10001H37.2H37.3H37.4H37.5L37.7 1.20001L37.8 1.29999H37.9H38.1H38.2H38.3H38.4H38.5L38.6 1.39999H38.7H38.9L39 1.5H39.1H39.2H39.3H39.4H39.6H39.7H39.8H39.9L40.1 1.39999H40.2L40.4 1.5H40.5H40.7V1.60001H40.8L40.9 1.70001H41V1.79999L41.1 1.89999L41.2 2.10001V2.20001H41.3V2.29999V2.39999L41.4 2.5V2.60001V2.70001V2.79999V2.89999V3.10001V3.20001L41.5 3.29999V3.39999V3.5L41.6 3.60001V3.70001H41.7L41.8 3.79999H41.9L42 3.89999H42.1L42.2 3.79999H42.3L42.4 3.70001H42.5V3.60001V3.5V3.39999L42.6 3.20001L42.5 3V2.89999V2.79999H42.6V2.70001V2.60001L42.7 2.39999V2.29999V2.20001L42.9 2L43 1.79999L43.1 1.60001L43.3 1.29999L43.4 1.10001L43.5 1H43.6L43.7 0.899994L43.9 0.799988L44 0.700012H44.1L44.3 0.600006H44.4H44.5L44.6 0.700012L44.7 0.799988L44.9 0.899994H45L45.1 1V1.10001H45.3L45.4 1.20001L45.5 1.29999L45.6 1.5L45.7 1.60001L46.1 2.20001L46.2 2.29999V2.39999H46.3V2.5V2.60001V2.70001V2.79999H46.4V2.89999H46.5V3L46.6 3.10001L46.7 3.20001L46.8 3.29999L46.9 3.39999V3.5H47V3.60001L47.1 3.70001V3.79999H47.2V3.89999V4H47.3V4.10001L47.4 4.20001L47.5 4.29999L47.6 4.39999L47.8 4.5L47.9 4.70001L48 4.79999V4.89999L48.1 5.10001V5.20001V5.29999V5.39999L48 5.5L47.8 5.79999L47.7 6L47.6 6.10001V6.20001V6.29999V6.39999V6.5H47.7V6.60001L47.8 6.70001H47.9H48L48.1 6.60001H48.2H48.4H48.5L48.6 6.5H48.7L48.8 6.39999H48.9H49H49.1L49.2 6.5L49.3 6.60001H49.4V6.70001H49.5L49.6 6.79999L49.7 6.89999H49.8V7H49.9L50 7.10001H50.1L50.2 7.20001L50.3 7.29999H50.4H50.5L50.6 7.39999H50.7H50.8H50.9H51H51.1H51.3L51.4 7.29999H51.6H51.7V7.20001H51.8L52 7.10001V7H52.1V6.89999H52.2L52.4 6.70001V6.60001H52.5L52.6 6.39999V6.29999L52.7 6.20001L52.8 6.10001V6H52.9L53 5.89999L53.2 5.60001H53.3L53.4 5.39999L53.5 5.29999L53.6 5.10001L53.7 5L53.8 4.89999H53.9L54 4.79999H54.1H54.2H54.3H54.4H54.5H54.6V4.89999H54.7L55 5L55.1 5.10001L55.2 5.20001L55.5 5.39999L55.6 5.5L55.7 5.60001H55.8H55.9L56 5.70001H56.1H56.2L56.3 5.60001H56.4L56.5 5.39999L56.7 5.10001L56.8 5V4.89999V4.79999V4.70001V4.60001V4.29999V4.10001V3.79999V3.70001V3.60001V3.5V3.29999L56.9 3.10001L57 3L57.1 2.79999H57.2L57.3 2.70001H57.4L57.6 2.60001L57.7 2.70001H57.8H57.9L58 2.79999L58.1 2.89999H58.2V3L58.3 3.10001V3.20001L58.4 3.29999V3.5V3.60001L58.5 3.70001V3.79999V3.89999L58.4 4V4.10001V4.20001L58.3 4.29999V4.39999V4.5V4.60001V4.70001V4.79999V4.89999V5H58.4V5.10001L58.5 5.29999V5.39999L58.6 5.5V5.60001V5.70001V5.79999V5.89999V6V6.10001L58.5 6.20001L58.4 6.29999L58.3 6.39999L58.2 6.5L58 6.60001L57.9 6.70001L57.8 6.79999L57.7 7L57.6 7.10001V7.20001L57.5 7.29999V7.39999L57.6 7.5V7.60001V7.70001H57.7V7.79999L57.8 7.89999L57.9 8.10001V8.20001H58V8.29999L58.1 8.39999V8.5L58.2 8.60001V8.70001H58.3L58.4 8.79999H58.5L58.6 8.89999V9L58.8 9.10001L58.9 9.20001L59 9.29999L59.1 9.39999L59.3 9.60001V9.70001H59.4V9.79999L59.5 9.89999V10L59.6 10.1V10.2L59.7 10.3V10.4V10.5V10.6L59.8 10.7V10.8V10.9V11H59.9V11.1H60H60.1H60.2H60.4H60.5L60.6 11H60.8L60.9 10.9L61 10.8L61.1 10.7H61.2V10.6H61.3V10.5H61.4L61.5 10.4L61.6 10.3V10.2L61.7 10V9.89999L61.8 9.70001V9.60001V9.5L61.7 9.39999V9.29999V9.20001V9.10001L61.6 8.89999V8.79999L61.5 8.70001V8.60001L61.4 8.5L61.3 8.39999H61.2V8.29999H61.1L61 8.20001L60.9 8.10001L60.8 8L60.7 7.89999L60.6 7.79999V7.70001V7.60001V7.5V7.29999V7.20001V7.10001L60.5 7V6.89999L60.4 6.79999L60.3 6.70001L60.2 6.60001V6.5V6.39999V6.29999V6.20001V6V5.89999V5.79999V5.60001L60.3 5.5V5.39999L60.4 5.29999V5.20001H60.5L60.6 5.10001L60.7 5L60.9 4.89999H61H61.1H61.2H61.3H61.4H61.5L61.6 5L61.7 5.20001L61.8 5.39999L62 5.70001L62.1 5.89999L62.2 6L62.3 6.10001L62.4 6.20001L62.5 6.29999V6.39999L62.6 6.5V6.60001V6.70001V6.79999L62.7 6.89999L62.6 7V7.10001V7.39999V7.60001V7.70001V7.79999V8V8.20001L62.5 8.39999V8.60001V8.70001V8.79999L62.6 8.89999V9.10001V9.29999V9.60001V9.70001V9.79999L62.7 9.89999V10V10.1V10.2V10.3V10.5V10.6L62.8 10.7V10.8L62.9 10.9V11L63 11.1L63.1 11.2V11.3L63.2 11.4H63.3V11.5L63.4 11.6H63.5L63.6 11.7L63.7 11.8L63.8 11.9H63.9H64H64.1H64.2H64.3H64.4H64.5L64.6 12H64.7L64.8 12.1H64.9H65H65.2H65.4V12H65.6L65.7 11.9H65.8H66H66.2L66.3 11.8H66.4H66.5L66.6 11.7H66.7H66.8H66.9L67.1 11.6L67.4 11.5L67.5 11.4L67.7 11.3L67.9 11.2H68L68.1 11.1H68.3L68.6 11H68.7H68.8H69H69.2L69.3 11.1L69.4 11.2L69.5 11.4L69.6 11.6V11.7L69.7 11.9L69.9 12.2L70.1 12.8L70.2 13L70.3 13.1L70.4 13.2L70.6 13.3V13.4H70.7H70.8L70.9 13.3H71L71.1 13.2L71.4 12.9L71.5 12.8L71.6 12.7H71.7H71.8L71.9 12.8H72L72.2 13L72.4 13.2H72.5L72.6 13.3L73 13.4H73.1H73.2H73.3H73.4L73.6 13.2H73.7L73.8 13.1L73.9 13L74 12.9L74.1 12.7L74.2 12.5L74.3 12.4V12.3L74.4 12.2L74.5 12.1L74.6 11.9V11.7L74.7 11.6L74.8 11.5L74.9 11.4L75.1 11.3H75.2L75.4 11.2H75.7H75.9H76H76.1H76.2H76.3L76.7 11.3H76.8L77 11.4L77.1 11.3H77.3H77.4L77.6 11.2V11.1H77.7V11H77.8H77.9L78.2 10.9L78.3 10.8H78.4L78.7 10.6H78.8L78.9 10.5H79H79.1H79.2H79.3H79.4H79.5H79.7L79.8 10.6L80 10.7L80.1 10.8L80.2 11L80.3 11.2V11.3L80.4 11.4L80.5 11.7V11.9L80.6 12.1L80.9 12.7V12.8L81 12.9V13L81.1 13.1V13.2H81.2V13.3L81.3 13.4L81.4 13.5V13.6L81.5 13.7V13.8L81.6 13.9V14H81.7V14.1L81.8 14.2L81.9 14.3L82.1 14.6L82.2 14.9H82.3L82.5 15.4L82.6 15.6L82.7 15.9L82.8 16.2L82.9 16.3V16.4L83.2 16.8L83.3 16.9L83.5 17.1L83.6 17.2L83.7 17.3L83.9 17.5H84L84.2 17.6H84.3L84.6 17.7H84.9H85.1H85.3H85.5H85.7H85.9L86 17.6H86.2L86.3 17.5L86.5 17.4L86.6 17.3L86.7 17.2L86.8 16.9L86.9 16.8V16.7V16.6V16.4L86.8 16.3V16.2L86.7 16.1V16V15.9L86.6 15.8V15.7L86.5 15.5L86.4 15.3V15.2L86.3 15L86.2 14.9V14.8L86.1 14.7V14.6V14.5H86V14.4V14.2H85.9V14.1V13.8L86 13.7L86.1 13.6L86.2 13.5L86.4 13.4H86.5H86.6L86.7 13.3H86.8L86.9 13.4H87H87.1L87.2 13.5L87.3 13.6H87.4V13.7H87.5L87.6 13.9L87.7 14L87.8 14.2L87.9 14.3L88.2 14.6L88.3 14.7L88.7 15L88.9 15.1H89H89.1H89.2H89.3H89.4H89.5H89.6H90.2H90.5L90.6 15H90.7H90.8V14.9L91 14.8L91.2 14.7L91.3 14.5V14.4V14.2V14.1L91.2 13.8L91.1 13.6L90.9 13.3L90.6 13L90.4 12.9L90.2 12.8V12.7H90.1L89.9 12.5L89.8 12.4L89.7 12.2L89.6 12.1V11.9L89.5 11.8V11.6V11.5V11.4V11.3L89.4 11.1L89.3 11L89.2 10.9H89.1H89L88.9 10.8L88.6 10.9H88.4H88.2L88.1 11H88L87.9 11.1H87.8H87.7L87.6 11.2L87.4 11.3L87.2 11.2H87H86.8L86.6 11L86.5 10.8V10.6V10.5V10.4V10.2V10.1L86.6 10L86.7 9.79999L86.8 9.70001L87 9.60001L87.1 9.5L87.3 9.39999L87.6 9.29999H87.7H87.8H88H88.1L88.3 9.39999H88.5H88.7L88.8 9.5L88.9 9.60001L89 9.70001L89.2 9.79999L89.4 10L89.5 10.2L89.7 10.4L89.9 10.6L90 10.7L90.2 10.9L90.3 11L90.7 11.3L91 11.5H91.1H91.2L91.3 11.6H91.4H91.6H91.7H91.8L92 11.5L92.1 11.4L92.3 11.3L92.5 11.1L92.6 11L92.7 10.8V10.7V10.6V10.4L92.8 10.2V10V9.89999V9.79999V9.70001L92.7 9.5V9.39999V9.20001L92.6 9.10001L92.5 8.89999L92.4 8.79999V8.70001L92.2 8.60001L92 8.5H91.9L91.8 8.29999L91.7 8.20001L91.6 8V7.89999V7.79999V7.60001L91.7 7.5V7.39999H91.8H91.9H92H92.1H92.2H92.3H92.4L92.5 7.5H92.6V7.60001H92.7L92.8 7.70001L92.9 7.79999L93 7.89999L93.1 8V8.20001V8.29999L93.2 8.5V8.70001L93.3 8.79999V8.89999V9.10001L93.4 9.20001V9.29999V9.5V9.60001L93.5 9.79999V9.89999L93.6 10.1L93.7 10.3H93.8V10.4H93.9H94H94.1L94.2 10.5L94.3 10.4H94.5H94.7L94.8 10.3L94.9 10.2L95 10L95.1 9.89999L95.2 9.70001L95.3 9.5L95.4 9.29999V9.10001V8.89999V8.79999V8.70001V8.60001L95.2 8.29999L95.1 8.20001L95 8L94.9 7.79999L94.8 7.60001L94.7 7.5V7.39999L94.6 7.29999V7.20001V7V6.89999V6.79999V6.70001L94.7 6.60001V6.5L94.8 6.39999L94.9 6.29999L95 6.20001L95.2 6L95.3 5.89999L95.5 5.79999L95.7 5.70001L96 5.60001H96.1H96.3H96.5L96.7 5.70001L96.9 5.89999V6.20001L97 6.29999L96.9 6.5V6.70001L96.8 7L96.7 7.20001V7.39999V7.5V7.60001V7.79999V7.89999L96.8 8L96.9 8.10001L97 8.39999L97.2 8.79999L97.5 9.20001L97.6 9.39999L97.7 9.60001H97.8V9.70001H97.9L98 9.79999L98.1 10L98.2 10.1L98.3 10.2H98.4V10.3L98.6 10.4H98.7L99 10.6L99.2 10.7H99.4L99.5 10.8H99.7H99.8L100.1 10.7L100.3 10.6L100.4 10.5H100.5L100.7 10.4V10.3H100.8L100.9 10.2V10.1L101 10L101.1 9.79999L101.4 9.20001L101.6 8.70001L101.8 8.5L102 8.39999L102.2 8.29999L102.5 8.20001H102.6H102.8L103.3 8.29999H103.6H103.7H103.8H104.1L104.3 8.20001L104.4 8.10001L104.6 7.89999L104.7 7.70001L104.8 7.60001L104.9 7.39999L105.1 7.29999H105.3H105.4H105.5H105.6V7.39999V7.5L105.5 7.60001V7.70001L105.4 7.79999V8L105.5 8.10001V8.20001L105.6 8.39999L105.7 8.60001H105.8L105.9 8.70001L106.1 8.79999H106.4L106.7 8.89999H106.9L107.2 9H107.4L107.6 9.10001L107.7 9H107.8H107.9H108.1H108.3L108.5 9.10001H108.7L109 9.20001L109.2 9.29999L109.5 9.39999L110.2 9.60001L110.5 9.70001L110.8 9.79999H110.9H111.1L111.2 9.70001H111.5L111.7 9.60001L111.8 9.5L111.9 9.39999L112.1 9.29999L112.3 9.10001L112.5 8.79999L112.6 8.70001L112.7 8.5L112.8 8.39999L112.9 8.20001L113.1 8.10001L113.6 7.70001L113.8 7.60001L114.2 7.5H114.7L114.9 7.60001L115.2 7.79999L115.4 7.89999L115.6 8.10001L115.9 8.29999L116 8.39999L116.4 8.79999L116.8 9L117.1 9.20001H117.3H117.5V9.10001H117.6H117.7H118L118.3 9L118.5 8.89999L118.8 8.70001L119.1 8.39999V8.10001L119.2 7.89999V7.60001L119 7.20001L118.9 7L118.7 6.60001L118.5 6.5L118.4 6.29999L118.2 6.20001H118.1L117.8 6H117.7L117.6 5.79999L117.5 5.70001V5.60001L118 5L118.1 4.79999L118.3 4.60001L118.7 4.5L119.1 4.39999L119.4 4.29999L119.6 4.39999H119.8L120.1 4.60001L120.3 4.70001L120.5 4.89999L120.6 5.10001L120.8 5.5L121.1 6V6.10001L121.3 6.20001L121.5 6.39999L121.8 6.5H122.1L122.3 6.39999L122.7 6.20001L122.9 6.10001L123.1 6L123.2 5.89999L123.3 5.70001L123.4 5.29999V4.89999V4.39999L123.5 4.29999L123.7 4.10001H123.8H123.9H124.2H124.6L124.9 4.20001L125.2 4.29999L125.4 4.39999L125.8 4.60001L126.2 4.79999L126.5 5L126.7 5.10001L126.9 5.20001L127.2 5.39999L127.4 5.60001L127.7 5.79999L127.9 6H128L128.1 6.20001L128.4 6.5L128.5 6.70001L128.6 6.89999V7H128.7L128.8 7.10001V7.20001V7.29999L128.9 7.39999L129 7.5V7.60001V7.70001L129.1 7.79999L129.2 8V8.20001L129.3 8.29999V8.39999V8.5V8.60001L129.4 8.70001V8.79999V8.89999V9L129.5 9.10001V9.20001L129.6 9.29999V9.5L129.7 9.60001V9.70001L129.8 9.89999V10.1L129.9 10.3V10.4V10.5L130 10.6V10.7V10.8V11L130.1 11.1V11.3V11.4V11.5V11.6V11.8V11.9V12.1V12.2V12.3V12.4V12.5L130 12.7V12.9V13V13.1H129.9V13.2V13.3V13.4V13.5V13.6H130V13.7L130.1 13.8L130.2 13.9V14L130.3 14.3L130.4 14.5L130.5 14.6V14.8L130.6 14.9L130.7 15V15.1L130.8 15.3H130.9V15.4L131.1 15.5L131.2 15.6L131.3 15.7L131.5 15.8V15.9L131.6 16L131.7 16.1H131.8L131.9 16.2L132 16.3H132.1H132.2H132.4H132.5H132.6H132.7L132.6 16.4V16.5H132.5L132.4 16.6H132.3V16.7V16.8V16.9H132.2V16.8H132.1L132 16.9L131.6 17.2H131.5L131.4 17.3L131.3 17.4H131.2H131.1L130.9 17.3L130.5 17.2L130.3 17.3L130.1 17.4L129.9 17.5L129.7 17.6L129.4 17.8L129.3 17.9L129.2 18L129.1 18.5V18.7V18.8V19L129 19.2V19.3V19.4L128.7 20.1L128.5 20.5L128.4 20.6V20.8H128.3V20.9L128.2 21H128.1V20.9H128L127.8 20.8H127.7H127.6H127.5H127.3H127.2H127.1L127 20.7H126.9H126.8H126.7H126.6L126.5 20.8H126.4H126.3H126.2H126.1H126V20.7H125.9H125.8H125.7H125.6V20.8H125.5H125.4V20.9H125.3H125.2H125.1V20.8H125V20.7L124.9 20.6H124.8V20.5V20.4V20.3V20.1V19.9L124.7 19.5V19.4V19.3V19.1V19V18.9V18.8V18.7H124.6V18.6V18.4L124.5 18.5H124.4H124.3V18.4H124.2H124.1L123.9 18.2L123.8 18.1L123.7 18L123.6 17.9L123.4 18.1V18.2L123.5 18.3V18.4L123.6 18.5H123.5L123.4 18.4L123.2 18.3L123 18.2V18.1H122.9V18H122.8L122.7 18.3L122.8 18.4V18.5L121.9 18.3V18.4H121.8V18.5V18.6L121.7 18.8V18.9V19V19.1H121.6V19.3L121.5 19.4V19.5V19.7L121.6 19.8V19.9L121.5 20L121.4 20.1L121.3 20.3L121.2 20.4L121.1 20.5L120.8 20.9L120.7 21V21.1L120.6 21.6V21.9L120.5 22.4L120.4 22.8V23L120.3 23.2V23.3V23.5V23.6L120.2 23.7V23.8H120.1V23.7H120L119.9 23.6L119.7 23.5L119.5 23.4L119.2 23.2L119.1 23.1L119 23.2H118.9L118.7 23.3L118.4 23.5H118.3H118.1H118H117.9V23.6H117.8L117.7 23.7H117.6L117.5 23.5L117.4 23.4L117.3 23.3L117.2 23.1L117.1 23L117 22.9L116.9 22.8V22.7L116.6 22.5V22.4H116.5V22.3L116.4 22.4H116.3H116.2H116.1H116L115.9 22.5L115.8 22.4L115.7 22.3L115.6 22.2H115.5V22.1L115.4 22L115.3 22.1L115.2 22.2L115.1 22.3H115V22.4L114.9 22.5L114.8 22.6L114.7 22.7L114.6 22.8H114.5L114.4 22.9L114.3 23.1H114.2H114.1L113.9 23.2L113.8 23.1V23.2H113.7V23.3H113.6L113.4 23.4H113.3H113.2H113.1L112.9 23.5H112.8V23.6L112.7 23.5H112.6L112.5 23.4H112.3V23.3H112.2L112.1 23.2H112V23.1H111.9L111.8 23L111.7 22.8L111.6 22.7V22.6L111.5 22.4L111.4 22.3L111.3 22.1L111.2 22L111.1 21.9V21.8L111 21.6L110.9 21.5H110.8V21.4L110.7 21.3L110.6 21.2V21.1H110.5V21H110.4V20.9L110.3 20.8L110.2 20.7V20.6H110.1V20.4V20.3V20.1V19.9V19.7V19.5V19.3L110 19.1V19H109.9H109.8L109.7 19.1H109.6H109.5H109.4H109.3V19.2V19.3H109.2L109.1 19.4L109 19.5V19.6V19.8V19.9V20H108.9H108.8L108.7 19.9H108.6L108.5 19.8L108.4 19.7H108.3L108.2 19.8H108.1V19.7H108L107.9 19.8H107.8H107.7H107.6H107.5H107.4V19.7H107.3V19.6H107.2H107.1L106.8 19.7H106.5L106.4 19.8V19.9V20H106.5L106.6 20.1L106.7 20.2H106.8V20.3H106.9H107H107.1L107.3 20.4L107.4 20.5L107.6 20.6L107.8 20.8L107.9 21.1L108 21.4V21.8L108.1 21.9V22.1V22.3L108.2 22.4V22.5H108.3V22.6L108.2 22.7V22.8L108.1 23.2V23.3V23.4V23.5V23.6L108 23.5H107.9L107.8 23.4L107.7 23.3H107.6V23.2H107.5L107.4 23.1L107.3 23H107.2V22.9H107.1H107H106.9V23H106.8H106.7H106.6H106.5H106.4H106.3L106.1 23.1H106L105.9 23.2H105.8V23.3V23.4V23.6V23.8V23.9V24V24.1L105.9 24.3H105.8L105.7 24.4L105.5 24.7L105.3 24.6L104.9 24.5H104.7L104.2 24.3L103.9 24.2L103.6 24.1L103.2 24L102.9 23.9H102.6L102.4 23.8H102.3V23.9V24L102.4 24.1V24.2V24.3V24.4H102.3L102.2 24.3L102 24.2L101.8 24L101.7 23.9L101.6 23.8L101.3 23.5H101.2L101 23.3L100.9 23.2H100.8L100.6 23L100.5 22.9H100.4V22.8L100.5 22.7V22.6V22.5V22.4L100.6 22.3V22H100.7V21.9H100.8L100.7 21.7L100.6 21.6L100.5 21.4L100.4 21.3L100.3 21.2V21.1L100.2 21V20.9L100 20.7L99.9 20.5L99.8 20.4L99.4 20.1H99.3H99.2V20.2H99.1V20.3H99L98.9 20.4H98.8H98.7L98.6 20.5H98.5L98.3 20.6H98.2H98.1H97.9L97.8 20.5H97.6H97.4L97.2 20.4H97.1H97H96.9H96.8H96.7L96.6 20.3H96.5H96.3H96.1H95.9L95.5 20.2H95.3H95.2H95.1H94.9H94.7H94.5H94.4V20.4H94.3V20.5L94.2 20.7L94.1 20.9V21.1L93.9 21L93.8 21.1L93.7 21.2V21.3L93.6 21.4L93.5 21.5L93.4 21.6L93.3 21.7L93.1 21.6L92.9 21.5L92.8 21.4L92.6 21.3L92.5 21.2L92.4 21.1L92.2 20.9H92.1L91.9 20.7L91.7 20.8H91.6L91.5 20.9H91.4L91.3 21L91.1 21.2L91.2 21.4L91.3 21.5L91.5 21.7L91.6 21.8L91.7 22L91.8 22.2L92 22.4L92.2 22.7L92.5 23L92.6 23.2H92.7L92.8 23.5L92.9 23.6L93.1 23.8V23.9L93.2 24L93.3 24.2L93.5 24.4L93.6 24.5L93.7 24.6L93.8 24.8V25H93.9V25.1L94.1 25.2L94.4 25.3L94.6 25.4L94.9 25.5V25.6L95.2 25.8L95.3 25.9H95.4L95.5 25.8L95.6 25.7L95.8 25.6L96 25.4L96.1 25.3L96.4 25.5L96.7 25.7L96.9 25.8V26L97 26.2V26.4V26.6V26.8V27V27.2V27.3L96.8 27.4V27.6V27.7L96.9 27.8V27.9H97V28H97.1V28.1H97.2L97.3 28.2H97.2H97.1L96.9 28.3V28.4L97 28.9L96.8 29V29.1L96.6 29.4V29.5L96.5 29.6L96.4 29.7H96.3H96.2H96.1L96 29.8H95.9H95.8H95.7H95.6H95.5V29.9H95.4H95.3V29.8H95.2V29.7L95.1 29.6H95L94.9 29.5L94.8 29.4L94.6 29.3H94.5L94.2 29.1L94 29L93.9 28.8L93.8 28.6V28.4L93.7 28.3V28.2V28.1V28V27.9V27.8V27.7V27.6H93.6V27.5H93.5V27.6L92.9 28L92.6 28.2L92.4 27.9V27.8H92.3V27.7L92.2 27.6L92 27.2L91.7 26.7L91.5 26.5L91.4 26.3L91.3 26L91.1 25.9V25.8V25.7H91L90.8 25.5L90.7 25.3L90.3 24.7L90.1 24.8L89.8 25H89.7L89.9 25.3V25.4L90 25.5V25.6L90.1 25.8V25.9V26L90.2 26.3L90.3 26.6V26.8L90.4 27V27.1L90.2 27.2H90L89.8 27.3H89.7H89.5L89.4 27.4V27.5V27.6V27.7V27.8V27.9L89.3 28L89.2 28.1H89L88.9 28.2L88.6 28.4L88 28.8L88.1 29V29.1V29.2V29.3V29.4H88L87.9 29.6L87.8 29.8L87.7 29.9V30H87.6L87.4 30.3L87.2 30.4L87.1 30.6H87L86.9 30.7V30.8H86.8L86.7 30.9L86.6 31L86.5 31.1L86.4 31.2L86.6 31.5L86.7 31.6L86.8 31.7V31.8L86.9 31.9L87 32.1L87.1 32.3V32.4L87 32.5L87.1 32.6V32.7V32.8V32.9V33L87 33.1V33.2V33.3H86.9L86.8 33.2V33.1H86.7V33H86.6H86.5V32.9L86.4 33H86.3V33.1L86.4 33.2L86.5 33.4L86.6 33.5V33.6V33.7V33.8H86.5H86.4L86.2 33.7H86.1L86 33.8H85.9H85.8H85.7H85.6H85.5H85.4H85.3L85.2 33.6V33.5L85.1 33.4L85 33.3H84.9H84.8L84.7 33.4V33.5L84.6 33.6H84.5L84.4 33.5L84.3 33.6L84.2 33.7V33.8H84.1V33.9V34V34.1V34.2V34.3L84 34.4V34.5V34.6L84.1 34.7L84.2 34.8V35V35.1V35.2V35.3H84.1H84L83.9 35.2H83.8L83.7 35.1H83.6H83.5L83.4 35L83.3 34.9H83.2H83.1H83V35H82.9V35.1L83 35.2V35.3V35.4V35.5V35.6H82.9H82.8V35.7H82.6H82.5L82.4 35.8H82.2L82 36L81.9 36.1H81.8V36.2H81.7V36.1V36V35.9V35.8H81.6H81.5L81.4 35.9L81.3 36H81.2L81.1 35.9L81 35.8L80.9 35.7L80.8 35.6L80.7 35.5H80.6H80.5L80.3 35.4H80.2H80.1L80 35.5H79.9V35.6H79.8H79.7H79.6H79.5H79.4L79.3 35.5L79.2 35.4V35.3H79.1V35.2H79H78.9L78.8 35.3V35.4V35.5L78.7 35.6H78.6H78.5L78.4 35.7H78.3V35.8V35.9L78.4 36V36.1V36.2V36.3H78.3V36.4H78L77.9 36.5H77.8H77.7L77.5 36.4H77.4H77.3V36.5H77.2V36.6H77.1V36.7L77.2 36.8L77.4 37H77.5V37.1V37.2L77.4 37.3H77.3H77.2H77.1V37.2V37.1L77 37L76.9 36.9L76.8 36.8L76.7 36.7H76.6H76.5H76.4V36.8L76.3 37V37.1L76.1 37.2L76 37.3L75.9 37.4L75.8 37.5L75.7 37.6H75.6H75.5L75.4 37.7V37.6H75.3H75.2H75.1H75L74.9 37.7V37.8H74.8H74.7V37.7H74.6V37.6L74.5 37.5L74.4 37.4H74.5L74.6 37.3V37.2H74.7V37.1H74.6V37H74.5H74.4H74.3H74.2H74.1L74 37.1V37.2V37.3V37.4V37.5H73.9L73.8 37.6L73.7 37.7H73.6L73.5 37.8L73.4 37.9H73.3L73.2 37.8V37.7L73.1 37.6V37.5V37.4H73H72.9V37.5H72.8V37.6L72.9 37.8L73 37.9H72.9V38L72.8 38.1H72.7H72.6H72.5H72.4H72.3V38H72.2H72.1V38.1L71.9 38.3V38.5V38.6V38.8L72 38.9L72.1 39.3L72.2 39.4V39.7V39.9L72 40.1L71.9 40.4L71.6 40.5L71.3 40.7L70.9 41V41.1L70.6 41.6L70.3 41.8V41.9L70.1 42.2L70 42.7L69.8 42.9V43L69.7 43.2V43.4V43.5V43.8L69.6 44.2V44.3L69.4 44.5L69.3 44.7V45.1L69.2 45.4L69.1 45.6V45.7L68.9 45.9L68.8 46.1L68.7 46.2L68.5 46.3H68.4L68.1 46.5L67.6 47.1L66.3 48.3L65.9 48.7V48.9V49.2L65.8 49.3V49.4V49.5V49.6V49.7L65.7 50.1L65.6 50.4L65.5 50.7L65.4 51V51.3L65.1 51.7L64.8 52.1L64.7 52.2L64.6 52.3L63.9 52.6L63.7 52.7H63.6H63.5L63.4 52.8H63.2H63.1L62.9 52.9H62.7H62.6L62.4 53H62.3V53.1L62.2 53H62.1L62 52.9H61.9L61.8 52.8H61.7L61.3 53.2L61.2 53.3H61L60.7 53.4H60.6L60.4 53.5L59.6 53.2L59 53L58.4 52.8H58.3L57.9 52.9L57.6 53H57.3L57.1 53.1H56.9L56.7 53.2H56.6H56.5H56.4L56.2 53.3L55.9 53.4H55.6L55.4 53.5H55.1L54.9 53.6H54.8H54.7H54.6L54.4 53.7H54.2H54.1L54 53.8L52.9 54.1L52.5 53.9L52.3 53.7L51.8 53.6H51.5H51V53.7L50.9 53.8L50.8 54V54.1V54.2H50.7V54.3V54.4L50.3 54.5L49.6 54.8L49.3 54.7L49 54.5L48.7 54.4L48.5 54.2L48.3 54.1L47.6 54.3H47.4L47.1 54.4H47L46.7 54.6H46.5L46.2 55.2V55.4H46L45.8 55.6L45.5 55.7L43.8 56.4H43.4H42.9L42.3 56.3H42.2H42.1L41.9 56H41.7L41.4 56.1H41.2L41.1 56.3H41H40.9H40.8H40.7H40.6V56.2H40.5V56.1H40.4H40.3H40.2V56H40.1H40H39.9H39.8V56.1H39.7V56H39.6V55.9H39.5V56V56.1H39.4H39.3L39.2 56H39.1H39L38.9 55.9H38.8H38.7H38.6L38.5 55.8H38.4H38.3H38.2H38.1V55.7L38 55.8V55.7H37.9V55.8H37.8H37.7H37.6H37.5V55.7H37.4H37.3H36.9H36.8H36.7L36.5 55.8H36.4H36.3L36.2 55.9L35.6 56.1L35.2 56.3L34.9 56.5H34.8H34.7H34.6V56.6H34.5H34.3H34.1H34H33.9H33.8H33.7H33.6L33.5 56.7H33.3H33.1H33H32.6H32.5L32.4 56.8H32.3H32.2H32L31.9 56.7H31.8V56.8H31.7L31.2 56.9H30.9H30.8H30.5H30.3L30.2 57H30H29.9L29.4 57.1L28.9 57.2H28.8H28.7L28.4 57.3H28.3H27.9L27.5 57.4H27.4H27.3H27.2L27.1 57.5H27H26.7L26.3 57.6H26.1L25.7 57.7L25.3 57.8H25.1L24.6 57.9H24.3L24.1 58H23.8L23.6 58.1H23.3H23.2H23.1H23L22.6 58.2H22.5H22.4H22.3V58.3H22.2H22.1V58.4H22H21.9H21.8H21.7H21.6H21.5H21.4H21.3H21.1H20.8H20.7H20.6L20.4 58.5H20.3L20.2 58.6L20 58.8L19.9 58.9L19.7 59L19.6 59.1L19.5 59.2L19.4 59.3L19.2 59.4L18.1 59.5L17.6 59.8L16.1 60.9L15.9 61L11.4 68.5V68.6L11.3 68.7L11 69.2L10.7 69.4L9.39998 70.8L9.29999 70.9L9.09999 71L8.89998 71.2L7.09999 72L6.29999 72.3V72.2H6.19998V72.1H6.09999H5.99998H5.89998H5.79999H5.69998H5.59999V72H5.49998V71.9H5.39998H5.29999H5.19998V72L5.09999 72.1H4.99998V72.2L4.89998 72.3V72.4L4.69998 72.6H4.59999V72.5H4.49998L4.39998 72.4L4.29999 72.3L4.09999 72.2H3.99998L2.99998 72.3H2.19998H1.99998H1.89998H1.69998L1.39998 72.4H1.19998H0.999985Z" fill="#6F9C76"/>
<path d="M4.29999 63.6V63.7V63.8V63.9V64H4.19998V64.1V64.2V64.3V64.4V64.5H4.09999H3.99998V64.6H4.09999V64.7V64.8H3.99998V64.9V65H3.89998H3.79999H3.69998H3.59999V65.1V65.2H3.49998V65.3H3.59999V65.4V65.5L3.49998 65.6H3.39998H3.29999V65.7H3.19998V65.8H3.09999V65.9V66V66.1H2.99998V66.2H2.89998V66.3V66.4V66.5H2.79999H2.69998V66.6V66.7V66.8V66.9H2.59999H2.49998V67H2.39998V67.1H2.29999V67.2V67.3H2.19998V67.4V67.5L2.09999 67.6V67.7V67.8V67.9H1.99998V68V68.1V68.2V68.3H1.89998V68.4L1.99998 68.5H1.89998V68.6V68.7V68.8H1.79999V68.9V69V69.1V69.2V69.3V69.4V69.5V69.6V69.7H1.69998V69.8V69.9V70V70.1H1.59999V70.2L1.49998 70.3H1.39998V70.4L1.29999 70.5V70.6H1.19998V70.7V70.8V70.9V71V71.1H1.09999V71.2L0.999985 71.3V71.4V71.5V71.6V71.7V71.8V71.9H0.899979V72V72.1V72.2V72.3V72.4H0.999985H1.19998H1.39998L1.69998 72.3H1.89998H1.99998H2.19998H2.99998L3.99998 72.2H4.09999L4.29999 72.3L4.39998 72.4L4.49998 72.5H4.59999V72.6H4.69998L4.89998 72.4V72.3L4.99998 72.2V72.1H5.09999L5.19998 72V71.9H5.29999H5.39998H5.49998V72H5.59999V72.1H5.69998H5.79999H5.89998H5.99998H6.09999H6.19998V72.2H6.29999V72.3L7.09999 72L8.89998 71.2L9.09999 71L9.29999 70.9L9.39998 70.8L10.7 69.4L11 69.2L11.3 68.7L11.4 68.6V68.5L15.9 61L16.1 60.9L17.6 59.8L18.1 59.5L19.2 59.4L19.4 59.3L19.5 59.2L19.6 59.1L19.7 59L19.9 58.9L20 58.8L20.2 58.6L20.3 58.5H20.4L20.6 58.4H20.7H20.8H21.1H21.3H21.4H21.5H21.6H21.7H21.8H21.9H22H22.1V58.3H22.2H22.3V58.2H22.4H22.5H22.6L23 58.1H23.1H23.2H23.3H23.6L23.8 58H24.1L24.3 57.9H24.6L25.1 57.8H25.3L25.7 57.7L26.1 57.6H26.3L26.7 57.5H27H27.1L27.2 57.4H27.3H27.4H27.5L27.9 57.3H28.3H28.4L28.7 57.2H28.8H28.9L29.4 57.1L29.9 57H30H30.2L30.3 56.9H30.5H30.8H30.9H31.2L31.7 56.8H31.8V56.7H31.9L32 56.8H32.2H32.3H32.4L32.5 56.7H32.6H33H33.1H33.3H33.5L33.6 56.6H33.7H33.8H33.9H34H34.1H34.3H34.5H34.6V56.5H34.7H34.8H34.9L35.2 56.3L35.6 56.1L36.2 55.9L36.3 55.8H36.4H36.5L36.7 55.7H36.8H36.9H37.3H37.4H37.5V55.8H37.6H37.7M4.29999 63.6H4.39998M4.29999 63.6V63.5H4.39998L4.49998 63.4V63.3H4.59999V63.2V63.1V63H4.69998V62.9V62.8V62.7V62.6H4.59999L4.49998 62.7H4.39998V62.6H4.29999L4.19998 62.5V62.4H4.09999V62.5H3.99998L3.89998 62.4H3.99998V62.3L4.09999 62.2V62.1H4.19998V62L4.09999 61.9V61.8H3.99998H3.89998H3.79999V61.7H3.69998L3.59999 61.6V61.5V61.4H3.49998V61.3M3.49998 61.3H3.39998M3.49998 61.3V61.2H3.39998H3.29999M3.29999 61.2V61.3M3.29999 61.2V61.1H3.19998V61.2H3.09999H2.99998H2.89998V61.1H2.79999L2.69998 61V60.9V60.8V60.7V60.6V60.5V60.4H2.59999V60.3H2.49998V60.2H2.39998H2.29999V60.1V60V59.9V59.8H2.19998V59.7H2.09999V59.6V59.5L2.19998 59.4V59.3H2.29999V59.2H2.39998H2.49998H2.59999H2.69998H2.79999H2.89998V59.1V59H2.79999H2.69998V58.9H2.79999V58.8H2.89998V58.7V58.6V58.5H2.79999H2.69998V58.4V58.3V58.2V58.1V58V57.9H2.59999H2.49998V57.8V57.7H2.39998V57.8H2.29999M2.29999 57.8V57.9M2.29999 57.8H2.19998V57.7M2.19998 57.7H2.09999M2.19998 57.7V57.6V57.5H2.09999V57.4V57.3V57.2L1.99998 57.1H1.89998H1.79999L1.69998 57V56.9V56.8H1.59999L1.49998 56.7V56.6H1.39998L1.29999 56.7H1.19998V56.6H1.09999V56.5L0.999985 56.4V56.3H0.899979V56.2V56.1V56H0.799988V55.9V55.8V55.7V55.6V55.5H0.899979V55.4H0.999985H1.09999V55.5H1.19998L1.29999 55.4V55.3H1.19998H1.09999L0.999985 55.2H0.899979V55.3H0.799988V55.2V55.1V55H0.699982V54.9V54.8L0.599991 54.7V54.6H0.699982H0.799988V54.7H0.899979H0.999985V54.6V54.5H0.899979H0.799988L0.699982 54.4L0.599991 54.3V54.2V54.1V54V53.9H0.699982V53.8V53.7H0.599991V53.6H0.499985V53.5V53.4V53.3V53.2V53.1V53V52.9H0.399979V52.8V52.7H0.299988V52.6L0.399979 52.5V52.4V52.3H0.299988V52.2V52.1V52H0.399979V51.9H0.499985V51.8V51.7V51.6L0.599991 51.5V51.4H0.699982V51.3H0.799988V51.2V51.1V51L0.699982 50.9H0.599991H0.499985V50.8V50.7V50.6H0.399979V50.5V50.4V50.3V50.2V50.1V50V49.9V49.8H0.499985H0.599991V49.7H0.699982V49.6H0.799988H0.899979V49.5M0.899979 49.5H0.999985M0.899979 49.5V49.4M0.899979 49.4H0.799988M0.899979 49.4V49.3H0.999985H1.09999V49.2H1.19998V49.1H1.29999V49H1.39998V48.9H1.49998L1.59999 48.8H1.69998V48.7V48.6H1.79999H1.89998V48.5H1.99998V48.4H1.89998V48.3H1.79999V48.2H1.89998L1.99998 48.1L2.09999 48H2.19998V47.9H2.29999V47.8H2.39998V47.7L2.49998 47.6L2.59999 47.5H2.69998V47.4H2.79999V47.3V47.2H2.89998V47.1V47L2.99998 46.9V46.8H3.09999V46.7H3.19998V46.6H3.29999V46.5H3.39998H3.49998H3.59999V46.6H3.69998V46.5V46.4H3.59999V46.3L3.69998 46.2H3.79999L3.89998 46.1H3.99998H4.09999V46H4.19998V45.9V45.8H4.29999V45.7L4.39998 45.6L4.49998 45.5V45.4H4.59999V45.3V45.2V45.1L4.69998 45V44.9H4.59999L4.49998 44.8H4.39998H4.29999V44.7V44.6V44.5L4.19998 44.4V44.3V44.2V44.1L4.09999 44H3.99998V43.9H3.89998V43.8V43.7L3.79999 43.6V43.5H3.89998V43.4L3.99998 43.3L4.09999 43.2L4.19998 43.1L4.29999 43H4.39998V42.9H4.49998H4.59999V42.8H4.69998H4.79999H4.89998H4.99998V42.9H5.09999H5.19998V43H5.29999V43.1V43.2H5.39998L5.49998 43.3H5.59999L5.79999 43.4V43.5H5.99998L6.09999 43.6H6.19998H6.29999H6.39998H6.49998L6.59999 43.5H6.69998L6.79999 43.4L6.89998 43.3V43.2V43.1V43H6.79999V42.9V42.8H6.69998V42.7V42.6V42.5V42.4L6.79999 42.3L6.89998 42.2H6.99998V42.1H7.09999H7.19998H7.29999H7.39998H7.49998H7.69998H7.79999H7.89998H7.99998H8.09999V42H8.19998V41.9H8.29999V41.8V41.7V41.6V41.5V41.4V41.3L8.39998 41.2V41.1H8.49998V41V40.9V40.8V40.7H8.39998L8.29999 40.6L8.19998 40.5V40.4V40.3V40.2V40.1V40H8.29999V39.9H8.39998H8.49998V39.8H8.59999H8.69998H8.79999H8.89998H8.99998H9.09999H9.19998H9.29999H9.39998H9.49998V39.7H9.59999V39.6V39.5L9.49998 39.4L9.39998 39.3H9.29999V39.2H9.19998V39.1H9.09999V39L8.99998 38.9V38.8V38.7V38.6H9.09999V38.5V38.4H9.19998V38.3L9.29999 38.2L9.39998 38.1H9.49998L9.59999 38L9.69998 37.9H9.79999V37.8H9.89998L9.99998 37.9H10.1H10.2H10.3H10.4H10.5H10.6L10.7 38H10.8V38.1H10.9L11 38.2V38.3H11.1V38.4H11.2L11.3 38.5H11.4H11.5V38.4H11.6L11.7 38.3L11.8 38.2V38.1V38L11.9 37.9V37.8V37.7V37.5L11.8 37.4H11.9V37.3L11.8 37.2V37.1L11.7 37L11.6 36.9H11.5V36.8H11.4V36.7V36.6L11.3 36.5H11.2V36.4H11.1H11L10.9 36.3H10.8L10.7 36.2V36.1H10.6V36V35.9L10.7 35.8L10.8 35.7H10.9V35.6V35.5V35.4L10.8 35.3V35.2H10.7L10.6 35.1H10.5H10.4H10.3V35H10.2V34.9H10.3V34.8H10.4H10.5L10.6 34.7L10.8 34.6V34.5L11 34.4H11.1H11.2V34.3V34.2V34.1H11.3L11.4 34L11.5 33.9H11.6L11.7 33.8L11.8 33.7L11.9 33.6L12 33.5V33.4H12.1V33.3H12.2H12.3L12.4 33.2H12.5V33.1H12.6L12.7 33.2H12.8H13H13.1L13.2 33.3H13.3H13.4L13.6 33.4H13.7H13.8V33.3L14 33.2L14.1 33.1L14.3 32.9L14.4 32.7H14.5L14.6 32.6H14.7V32.5V32.4V32.3L14.8 32.2V32.1L14.9 32L15 31.9H15.1V31.8L15.2 31.7V31.6V31.5L15.3 31.4L15.4 31.2V31.1H15.5L15.7 30.9L15.8 30.7L15.9 30.6V30.5V30.4L16 30.3V30.2L16.1 30.1L16.2 30L16.3 29.9L16.5 29.8L16.6 29.7V29.6L16.7 29.5V29.4V29.3V29.2H16.8V29.1L16.9 28.9V28.8L17 28.6L17.1 28.5L17.2 28.3L17.3 28.1V28H17.4L17.5 28.1H17.6H17.7L17.8 28H17.9V27.9V27.8V27.7V27.6H18V27.5V27.4V27.3H18.1L18.2 27.2V27.1H18.3V27H18.4V27.1H18.5H18.6H18.7V27H18.8V26.9L18.7 26.8L18.6 26.7L18.7 26.6H18.8H18.9L19 26.5V26.4V26.3V26.2V26.1L19.1 26V25.9H19.2H19.3L19.4 25.8H19.5L19.6 25.7V25.8H19.7V25.7H19.8V25.6V25.5V25.4H19.9V25.3V25.2H20V25.1H20.1V25H20.2H20.3V24.9H20.4V24.8V24.7H20.5V24.6H20.6V24.5H20.7V24.4V24.3L20.8 24.2H20.9V24.1H21H21.1V24H21.2H21.3H21.4L21.5 23.9H21.6V23.8H21.7L21.8 23.7L22 23.6L22.2 23.5L22.3 23.4L22.4 23.3H22.5L22.6 23.2H22.7H22.8V23.1H22.9V23H23L23.1 22.9H23.2H23.3V22.8H23.4H23.5L23.6 22.7H23.7L23.8 22.5L23.9 22.4H24V22.3H24.1L24.2 22.4H24.3L24.4 22.5H24.5H24.6V22.4H24.7H24.8H24.9H25H25.1H25.2V22.3V22.2M25.2 22.2H25.1M25.2 22.2V22.1H25.3H25.4V22H25.5H25.6L25.7 22.1L25.8 22.2H25.9V22.1H26V22H26.1H26.2H26.3H26.4H26.5H26.6H26.7M26.7 22V22.1M26.7 22H26.8L26.9 21.9L27 21.8L27.1 21.7V21.6H27.2H27.3V21.5H27.4H27.5H27.6H27.7V21.4H27.8V21.5H27.9L28 21.6H28.1H28.2H28.3H28.4V21.5H28.5H28.6L28.7 21.6L28.8 21.7H28.9L29 21.6H29.1L29.2 21.5L29.3 21.6H29.4L29.5 21.7H29.6V21.6H29.7H29.8H29.9H30H30.1H30.2H30.3H30.4H30.5V21.7H30.6H30.7H30.8H30.9H31H31.1H31.2V21.8H31.3V21.9H31.4L31.5 22V22.1H31.6L31.7 22.2H31.8V22.3L31.9 22.4V22.5V22.6H32V22.7H32.1H32.2V22.8H32.3H32.4H32.5V22.9V23H32.6H32.7L32.8 22.9H32.9V23H33H33.1H33.2L33.3 23.1H33.4H33.5V23.2H33.6H33.7H33.8L33.9 23.1H34H34.1H34.2V23.2H34.3H34.4L34.5 23.3H34.6H34.7H34.8H34.9H35H35.1V23.4H35.2H35.3V23.3H35.4H35.5V23.2H35.6H35.7V23.1H35.8H35.9H36H36.1H36.2V22.9V22.8V22.7V22.6V22.5H36.1V22.4L36 22.3V22.2V22.1V22L36.1 21.9V21.8H36.2V21.7V21.6L36.1 21.5V21.4H36V21.3H36.1V21.2V21.1L36.2 21V20.9H36.1V20.8H36V20.7H35.9V20.6H35.8H35.7V20.7V20.8H35.6H35.5L35.4 20.9H35.3V20.8L35.2 20.7V20.6V20.5H35.1L35.2 20.4H35.3V20.3H35.4V20.2V20.1V20H35.5V19.9H35.6V19.8V19.7V19.6H35.7V19.5V19.4V19.3H35.6V19.2V19.1H35.5V19V18.9V18.8V18.7V18.6H35.4V18.5V18.4V18.3H35.3V18.2V18.1V18V17.9H35.4V17.8H35.5V17.7V17.6V17.5V17.4V17.3H35.4V17.2H35.5V17.1V17V16.9V16.8H35.4V16.7V16.6H35.3V16.5H35.2V16.4V16.3H35.1V16.2V16.1H35V16L35.1 15.9V15.8L35.2 15.7V15.6V15.5V15.4V15.3V15.2V15.1V15V14.9V14.8V14.7V14.6V14.5V14.4L35.1 14.3V14.2V14.1V14V13.9L35.2 13.8V13.7V13.6L35.3 13.5V13.4V13.2L35.4 13.1V13V12.9L35.5 12.8V12.7V12.6V12.5V12.4L35.6 12.2V12.1V12V11.9V11.8V11.7V11.6V11.5H35.5V11.4V11.3V11.2V11.1H35.4H35.3H35.2V11V10.9L35.1 10.8V10.7L35.2 10.6V10.5V10.4H35.3V10.3V10.2V10.1V10L35.2 9.89999L35.1 9.70001L35 9.60001H35.1V9.5V9.39999H35.2V9.29999H35.1V9.20001V9.10001H35V9H35.1H35.2L35.3 8.79999V8.70001V8.60001H35.2V8.5H35.1V8.39999H35V8.29999V8.20001H34.9V8.10001V8L34.8 7.79999V7.70001V7.60001L34.7 7.5V7.39999L34.6 7.29999L34.5 7.20001V7L34.6 6.89999V6.79999V6.70001V6.60001V6.29999L34.7 6V5.89999V5.79999L34.6 5.5V5.39999V5L34.5 4.79999H34.6V4.70001V4.60001L34.5 4.39999L34.4 4.29999V4.20001V4.10001V3.89999V3.79999V3.70001H34.5L34.6 3.5H34.7V3.39999L34.8 3.29999L34.9 3H35L35.1 2.79999L35.2 2.70001V2.60001L35.4 2.5L35.5 2.29999L35.6 2.20001H35.7V2.10001L35.9 2H36V1.89999L36.1 1.79999H36.2L36.3 1.70001L36.2 1.39999L36.3 1.29999L36.5 1V0.899994L36.6 0.799988V0.899994H36.8L36.9 1H37.1V1.10001H37.2H37.3H37.4H37.5L37.7 1.20001L37.8 1.29999H37.9H38.1H38.2H38.3H38.4H38.5L38.6 1.39999H38.7H38.9L39 1.5H39.1H39.2H39.3H39.4H39.6H39.7H39.8H39.9L40.1 1.39999H40.2L40.4 1.5H40.5H40.7V1.60001H40.8L40.9 1.70001H41V1.79999L41.1 1.89999L41.2 2.10001V2.20001H41.3V2.29999V2.39999L41.4 2.5V2.60001V2.70001V2.79999V2.89999V3.10001V3.20001L41.5 3.29999V3.39999V3.5L41.6 3.60001V3.70001H41.7L41.8 3.79999H41.9L42 3.89999H42.1L42.2 3.79999H42.3L42.4 3.70001H42.5V3.60001V3.5V3.39999L42.6 3.20001L42.5 3V2.89999V2.79999H42.6V2.70001V2.60001L42.7 2.39999V2.29999V2.20001L42.9 2L43 1.79999L43.1 1.60001L43.3 1.29999L43.4 1.10001L43.5 1H43.6L43.7 0.899994L43.9 0.799988L44 0.700012H44.1L44.3 0.600006H44.4H44.5L44.6 0.700012L44.7 0.799988L44.9 0.899994H45L45.1 1V1.10001H45.3L45.4 1.20001L45.5 1.29999L45.6 1.5L45.7 1.60001L46.1 2.20001L46.2 2.29999V2.39999H46.3V2.5V2.60001V2.70001V2.79999H46.4V2.89999H46.5V3L46.6 3.10001L46.7 3.20001L46.8 3.29999L46.9 3.39999V3.5H47V3.60001L47.1 3.70001V3.79999H47.2V3.89999V4H47.3V4.10001L47.4 4.20001L47.5 4.29999L47.6 4.39999L47.8 4.5L47.9 4.70001L48 4.79999V4.89999L48.1 5.10001V5.20001V5.29999V5.39999L48 5.5L47.8 5.79999L47.7 6L47.6 6.10001V6.20001V6.29999V6.39999V6.5H47.7V6.60001L47.8 6.70001H47.9H48L48.1 6.60001H48.2H48.4H48.5L48.6 6.5H48.7L48.8 6.39999H48.9H49H49.1L49.2 6.5L49.3 6.60001H49.4V6.70001H49.5L49.6 6.79999L49.7 6.89999H49.8V7H49.9L50 7.10001H50.1L50.2 7.20001L50.3 7.29999H50.4H50.5L50.6 7.39999H50.7H50.8H50.9H51H51.1H51.3L51.4 7.29999H51.6H51.7V7.20001H51.8L52 7.10001V7H52.1V6.89999H52.2L52.4 6.70001V6.60001H52.5L52.6 6.39999V6.29999L52.7 6.20001L52.8 6.10001V6H52.9L53 5.89999L53.2 5.60001H53.3L53.4 5.39999L53.5 5.29999L53.6 5.10001L53.7 5L53.8 4.89999H53.9L54 4.79999H54.1H54.2H54.3H54.4H54.5H54.6V4.89999H54.7L55 5L55.1 5.10001L55.2 5.20001L55.5 5.39999L55.6 5.5L55.7 5.60001H55.8H55.9L56 5.70001H56.1H56.2L56.3 5.60001H56.4L56.5 5.39999L56.7 5.10001L56.8 5V4.89999V4.79999V4.70001V4.60001V4.29999V4.10001V3.79999V3.70001V3.60001V3.5V3.29999L56.9 3.10001L57 3L57.1 2.79999H57.2L57.3 2.70001H57.4L57.6 2.60001L57.7 2.70001H57.8H57.9L58 2.79999L58.1 2.89999H58.2V3L58.3 3.10001V3.20001L58.4 3.29999V3.5V3.60001L58.5 3.70001V3.79999V3.89999L58.4 4V4.10001V4.20001L58.3 4.29999V4.39999V4.5V4.60001V4.70001V4.79999V4.89999V5H58.4V5.10001L58.5 5.29999V5.39999L58.6 5.5V5.60001V5.70001V5.79999V5.89999V6V6.10001L58.5 6.20001L58.4 6.29999L58.3 6.39999L58.2 6.5L58 6.60001L57.9 6.70001L57.8 6.79999L57.7 7L57.6 7.10001V7.20001L57.5 7.29999V7.39999L57.6 7.5V7.60001V7.70001H57.7V7.79999L57.8 7.89999L57.9 8.10001V8.20001H58V8.29999L58.1 8.39999V8.5L58.2 8.60001V8.70001H58.3L58.4 8.79999H58.5L58.6 8.89999V9L58.8 9.10001L58.9 9.20001L59 9.29999L59.1 9.39999L59.3 9.60001V9.70001H59.4V9.79999L59.5 9.89999V10L59.6 10.1V10.2L59.7 10.3V10.4V10.5V10.6L59.8 10.7V10.8V10.9V11H59.9V11.1H60H60.1H60.2H60.4H60.5L60.6 11H60.8L60.9 10.9L61 10.8L61.1 10.7H61.2V10.6H61.3V10.5H61.4L61.5 10.4L61.6 10.3V10.2L61.7 10V9.89999L61.8 9.70001V9.60001V9.5L61.7 9.39999V9.29999V9.20001V9.10001L61.6 8.89999V8.79999L61.5 8.70001V8.60001L61.4 8.5L61.3 8.39999H61.2V8.29999H61.1L61 8.20001L60.9 8.10001L60.8 8L60.7 7.89999L60.6 7.79999V7.70001V7.60001V7.5V7.29999V7.20001V7.10001L60.5 7V6.89999L60.4 6.79999L60.3 6.70001L60.2 6.60001V6.5V6.39999V6.29999V6.20001V6V5.89999V5.79999V5.60001L60.3 5.5V5.39999L60.4 5.29999V5.20001H60.5L60.6 5.10001L60.7 5L60.9 4.89999H61H61.1H61.2H61.3H61.4H61.5L61.6 5L61.7 5.20001L61.8 5.39999L62 5.70001L62.1 5.89999L62.2 6L62.3 6.10001L62.4 6.20001L62.5 6.29999V6.39999L62.6 6.5V6.60001V6.70001V6.79999L62.7 6.89999L62.6 7V7.10001V7.39999V7.60001V7.70001V7.79999V8V8.20001L62.5 8.39999V8.60001V8.70001V8.79999L62.6 8.89999V9.10001V9.29999V9.60001V9.70001V9.79999L62.7 9.89999V10V10.1V10.2V10.3V10.5V10.6L62.8 10.7V10.8L62.9 10.9V11L63 11.1L63.1 11.2V11.3L63.2 11.4H63.3V11.5L63.4 11.6H63.5L63.6 11.7L63.7 11.8L63.8 11.9H63.9H64H64.1H64.2H64.3H64.4H64.5L64.6 12H64.7L64.8 12.1H64.9H65H65.2H65.4V12H65.6L65.7 11.9H65.8H66H66.2L66.3 11.8H66.4H66.5L66.6 11.7H66.7H66.8H66.9L67.1 11.6L67.4 11.5L67.5 11.4L67.7 11.3L67.9 11.2H68L68.1 11.1H68.3L68.6 11H68.7H68.8H69H69.2L69.3 11.1L69.4 11.2L69.5 11.4L69.6 11.6V11.7L69.7 11.9L69.9 12.2L70.1 12.8L70.2 13L70.3 13.1L70.4 13.2L70.6 13.3V13.4H70.7H70.8L70.9 13.3H71L71.1 13.2L71.4 12.9L71.5 12.8L71.6 12.7H71.7H71.8L71.9 12.8H72L72.2 13L72.4 13.2H72.5L72.6 13.3L73 13.4H73.1H73.2H73.3H73.4L73.6 13.2H73.7L73.8 13.1L73.9 13L74 12.9L74.1 12.7L74.2 12.5L74.3 12.4V12.3L74.4 12.2L74.5 12.1L74.6 11.9V11.7L74.7 11.6L74.8 11.5L74.9 11.4L75.1 11.3H75.2L75.4 11.2H75.7H75.9H76H76.1H76.2H76.3L76.7 11.3H76.8L77 11.4L77.1 11.3H77.3H77.4L77.6 11.2V11.1H77.7V11H77.8H77.9L78.2 10.9L78.3 10.8H78.4L78.7 10.6H78.8L78.9 10.5H79H79.1H79.2H79.3H79.4H79.5H79.7L79.8 10.6L80 10.7L80.1 10.8L80.2 11L80.3 11.2V11.3L80.4 11.4L80.5 11.7V11.9L80.6 12.1L80.9 12.7V12.8L81 12.9V13L81.1 13.1V13.2H81.2V13.3L81.3 13.4L81.4 13.5V13.6L81.5 13.7V13.8L81.6 13.9V14H81.7V14.1L81.8 14.2L81.9 14.3L82.1 14.6L82.2 14.9H82.3L82.5 15.4L82.6 15.6L82.7 15.9L82.8 16.2L82.9 16.3V16.4L83.2 16.8L83.3 16.9L83.5 17.1L83.6 17.2L83.7 17.3L83.9 17.5H84L84.2 17.6H84.3L84.6 17.7H84.9H85.1H85.3H85.5H85.7H85.9L86 17.6H86.2L86.3 17.5L86.5 17.4L86.6 17.3L86.7 17.2L86.8 16.9L86.9 16.8V16.7V16.6V16.4L86.8 16.3V16.2L86.7 16.1V16V15.9L86.6 15.8V15.7L86.5 15.5L86.4 15.3V15.2L86.3 15L86.2 14.9V14.8L86.1 14.7V14.6V14.5H86V14.4V14.2H85.9V14.1V13.8L86 13.7L86.1 13.6L86.2 13.5L86.4 13.4H86.5H86.6L86.7 13.3H86.8L86.9 13.4H87H87.1L87.2 13.5L87.3 13.6H87.4V13.7H87.5L87.6 13.9L87.7 14L87.8 14.2L87.9 14.3L88.2 14.6L88.3 14.7L88.7 15L88.9 15.1H89H89.1H89.2H89.3H89.4H89.5H89.6H90.2H90.5L90.6 15H90.7H90.8V14.9L91 14.8L91.2 14.7L91.3 14.5V14.4V14.2V14.1L91.2 13.8L91.1 13.6L90.9 13.3L90.6 13L90.4 12.9L90.2 12.8V12.7H90.1L89.9 12.5L89.8 12.4L89.7 12.2L89.6 12.1V11.9L89.5 11.8V11.6V11.5V11.4V11.3L89.4 11.1L89.3 11L89.2 10.9H89.1H89L88.9 10.8L88.6 10.9H88.4H88.2L88.1 11H88L87.9 11.1H87.8H87.7L87.6 11.2L87.4 11.3L87.2 11.2H87H86.8L86.6 11L86.5 10.8V10.6V10.5V10.4V10.2V10.1L86.6 10L86.7 9.79999L86.8 9.70001L87 9.60001L87.1 9.5L87.3 9.39999L87.6 9.29999H87.7H87.8H88H88.1L88.3 9.39999H88.5H88.7L88.8 9.5L88.9 9.60001L89 9.70001L89.2 9.79999L89.4 10L89.5 10.2L89.7 10.4L89.9 10.6L90 10.7L90.2 10.9L90.3 11L90.7 11.3L91 11.5H91.1H91.2L91.3 11.6H91.4H91.6H91.7H91.8L92 11.5L92.1 11.4L92.3 11.3L92.5 11.1L92.6 11L92.7 10.8V10.7V10.6V10.4L92.8 10.2V10V9.89999V9.79999V9.70001L92.7 9.5V9.39999V9.20001L92.6 9.10001L92.5 8.89999L92.4 8.79999V8.70001L92.2 8.60001L92 8.5H91.9L91.8 8.29999L91.7 8.20001L91.6 8V7.89999V7.79999V7.60001L91.7 7.5V7.39999H91.8H91.9H92H92.1H92.2H92.3H92.4L92.5 7.5H92.6V7.60001H92.7L92.8 7.70001L92.9 7.79999L93 7.89999L93.1 8V8.20001V8.29999L93.2 8.5V8.70001L93.3 8.79999V8.89999V9.10001L93.4 9.20001V9.29999V9.5V9.60001L93.5 9.79999V9.89999L93.6 10.1L93.7 10.3H93.8V10.4H93.9H94H94.1L94.2 10.5L94.3 10.4H94.5H94.7L94.8 10.3L94.9 10.2L95 10L95.1 9.89999L95.2 9.70001L95.3 9.5L95.4 9.29999V9.10001V8.89999V8.79999V8.70001V8.60001L95.2 8.29999L95.1 8.20001L95 8L94.9 7.79999L94.8 7.60001L94.7 7.5V7.39999L94.6 7.29999V7.20001V7V6.89999V6.79999V6.70001L94.7 6.60001V6.5L94.8 6.39999L94.9 6.29999L95 6.20001L95.2 6L95.3 5.89999L95.5 5.79999L95.7 5.70001L96 5.60001H96.1H96.3H96.5L96.7 5.70001L96.9 5.89999V6.20001L97 6.29999L96.9 6.5V6.70001L96.8 7L96.7 7.20001V7.39999V7.5V7.60001V7.79999V7.89999L96.8 8L96.9 8.10001L97 8.39999L97.2 8.79999L97.5 9.20001L97.6 9.39999L97.7 9.60001H97.8V9.70001H97.9L98 9.79999L98.1 10L98.2 10.1L98.3 10.2H98.4V10.3L98.6 10.4H98.7L99 10.6L99.2 10.7H99.4L99.5 10.8H99.7H99.8L100.1 10.7L100.3 10.6L100.4 10.5H100.5L100.7 10.4V10.3H100.8L100.9 10.2V10.1L101 10L101.1 9.79999L101.4 9.20001L101.6 8.70001L101.8 8.5L102 8.39999L102.2 8.29999L102.5 8.20001H102.6H102.8L103.3 8.29999H103.6H103.7H103.8H104.1L104.3 8.20001L104.4 8.10001L104.6 7.89999L104.7 7.70001L104.8 7.60001L104.9 7.39999L105.1 7.29999H105.3H105.4H105.5H105.6V7.39999V7.5L105.5 7.60001V7.70001L105.4 7.79999V8L105.5 8.10001V8.20001L105.6 8.39999L105.7 8.60001H105.8L105.9 8.70001L106.1 8.79999H106.4L106.7 8.89999H106.9L107.2 9H107.4L107.6 9.10001L107.7 9H107.8H107.9H108.1H108.3L108.5 9.10001H108.7L109 9.20001L109.2 9.29999L109.5 9.39999L110.2 9.60001L110.5 9.70001L110.8 9.79999H110.9H111.1L111.2 9.70001H111.5L111.7 9.60001L111.8 9.5L111.9 9.39999L112.1 9.29999L112.3 9.10001L112.5 8.79999L112.6 8.70001L112.7 8.5L112.8 8.39999L112.9 8.20001L113.1 8.10001L113.6 7.70001L113.8 7.60001L114.2 7.5H114.7L114.9 7.60001L115.2 7.79999L115.4 7.89999L115.6 8.10001L115.9 8.29999L116 8.39999L116.4 8.79999L116.8 9L117.1 9.20001H117.3H117.5V9.10001H117.6H117.7H118L118.3 9L118.5 8.89999L118.8 8.70001L119.1 8.39999V8.10001L119.2 7.89999V7.60001L119 7.20001L118.9 7L118.7 6.60001L118.5 6.5L118.4 6.29999L118.2 6.20001H118.1L117.8 6H117.7L117.6 5.79999L117.5 5.70001V5.60001L118 5L118.1 4.79999L118.3 4.60001L118.7 4.5L119.1 4.39999L119.4 4.29999L119.6 4.39999H119.8L120.1 4.60001L120.3 4.70001L120.5 4.89999L120.6 5.10001L120.8 5.5L121.1 6V6.10001L121.3 6.20001L121.5 6.39999L121.8 6.5H122.1L122.3 6.39999L122.7 6.20001L122.9 6.10001L123.1 6L123.2 5.89999L123.3 5.70001L123.4 5.29999V4.89999V4.39999L123.5 4.29999L123.7 4.10001H123.8H123.9H124.2H124.6L124.9 4.20001L125.2 4.29999L125.4 4.39999L125.8 4.60001L126.2 4.79999L126.5 5L126.7 5.10001L126.9 5.20001L127.2 5.39999L127.4 5.60001L127.7 5.79999L127.9 6H128L128.1 6.20001L128.4 6.5L128.5 6.70001L128.6 6.89999V7H128.7L128.8 7.10001V7.20001V7.29999L128.9 7.39999L129 7.5V7.60001V7.70001L129.1 7.79999L129.2 8V8.20001L129.3 8.29999V8.39999V8.5V8.60001L129.4 8.70001V8.79999V8.89999V9L129.5 9.10001V9.20001L129.6 9.29999V9.5L129.7 9.60001V9.70001L129.8 9.89999V10.1L129.9 10.3V10.4V10.5L130 10.6V10.7V10.8V11L130.1 11.1V11.3V11.4V11.5V11.6V11.8V11.9V12.1V12.2V12.3V12.4V12.5L130 12.7V12.9V13V13.1H129.9V13.2V13.3V13.4V13.5V13.6H130V13.7L130.1 13.8L130.2 13.9V14L130.3 14.3L130.4 14.5L130.5 14.6V14.8L130.6 14.9L130.7 15V15.1L130.8 15.3H130.9V15.4L131.1 15.5L131.2 15.6L131.3 15.7L131.5 15.8V15.9L131.6 16L131.7 16.1H131.8L131.9 16.2L132 16.3H132.1H132.2H132.4H132.5H132.6H132.7L132.6 16.4V16.5H132.5L132.4 16.6H132.3V16.7V16.8V16.9H132.2V16.8H132.1L132 16.9L131.6 17.2H131.5L131.4 17.3L131.3 17.4H131.2H131.1L130.9 17.3L130.5 17.2L130.3 17.3L130.1 17.4L129.9 17.5L129.7 17.6L129.4 17.8L129.3 17.9L129.2 18L129.1 18.5V18.7V18.8V19L129 19.2V19.3V19.4L128.7 20.1L128.5 20.5L128.4 20.6V20.8H128.3V20.9L128.2 21H128.1V20.9H128L127.8 20.8H127.7H127.6H127.5H127.3H127.2H127.1L127 20.7H126.9H126.8H126.7H126.6L126.5 20.8H126.4H126.3H126.2H126.1H126V20.7H125.9H125.8H125.7H125.6V20.8H125.5H125.4V20.9H125.3H125.2H125.1V20.8H125V20.7L124.9 20.6H124.8V20.5V20.4V20.3V20.1V19.9L124.7 19.5V19.4V19.3V19.1V19V18.9V18.8V18.7H124.6V18.6V18.4L124.5 18.5H124.4H124.3V18.4H124.2H124.1L123.9 18.2L123.8 18.1L123.7 18L123.6 17.9L123.4 18.1V18.2L123.5 18.3V18.4L123.6 18.5H123.5L123.4 18.4L123.2 18.3L123 18.2V18.1H122.9V18H122.8L122.7 18.3L122.8 18.4V18.5L121.9 18.3V18.4H121.8V18.5V18.6L121.7 18.8V18.9V19V19.1H121.6V19.3L121.5 19.4V19.5V19.7L121.6 19.8V19.9L121.5 20L121.4 20.1L121.3 20.3L121.2 20.4L121.1 20.5L120.8 20.9L120.7 21V21.1L120.6 21.6V21.9L120.5 22.4L120.4 22.8V23L120.3 23.2V23.3V23.5V23.6L120.2 23.7V23.8H120.1V23.7H120L119.9 23.6L119.7 23.5L119.5 23.4L119.2 23.2L119.1 23.1L119 23.2H118.9L118.7 23.3L118.4 23.5H118.3H118.1H118H117.9V23.6H117.8L117.7 23.7H117.6L117.5 23.5L117.4 23.4L117.3 23.3L117.2 23.1L117.1 23L117 22.9L116.9 22.8V22.7L116.6 22.5V22.4H116.5V22.3L116.4 22.4H116.3H116.2H116.1H116L115.9 22.5L115.8 22.4L115.7 22.3L115.6 22.2H115.5V22.1L115.4 22L115.3 22.1L115.2 22.2L115.1 22.3H115V22.4L114.9 22.5L114.8 22.6L114.7 22.7L114.6 22.8H114.5L114.4 22.9L114.3 23.1H114.2H114.1L113.9 23.2L113.8 23.1V23.2H113.7V23.3H113.6L113.4 23.4H113.3H113.2H113.1L112.9 23.5H112.8V23.6L112.7 23.5H112.6L112.5 23.4H112.3V23.3H112.2L112.1 23.2H112V23.1H111.9L111.8 23L111.7 22.8L111.6 22.7V22.6L111.5 22.4L111.4 22.3L111.3 22.1L111.2 22L111.1 21.9V21.8L111 21.6L110.9 21.5H110.8V21.4L110.7 21.3L110.6 21.2V21.1H110.5V21H110.4V20.9L110.3 20.8L110.2 20.7V20.6H110.1V20.4V20.3V20.1V19.9V19.7V19.5V19.3L110 19.1V19H109.9H109.8L109.7 19.1H109.6H109.5H109.4H109.3V19.2V19.3H109.2L109.1 19.4L109 19.5V19.6V19.8V19.9V20H108.9H108.8L108.7 19.9H108.6L108.5 19.8L108.4 19.7H108.3L108.2 19.8H108.1V19.7H108L107.9 19.8H107.8H107.7H107.6H107.5H107.4V19.7H107.3V19.6H107.2H107.1L106.8 19.7H106.5L106.4 19.8V19.9V20H106.5L106.6 20.1L106.7 20.2H106.8V20.3H106.9H107H107.1L107.3 20.4L107.4 20.5L107.6 20.6L107.8 20.8L107.9 21.1L108 21.4V21.8L108.1 21.9V22.1V22.3L108.2 22.4V22.5H108.3V22.6L108.2 22.7V22.8L108.1 23.2V23.3V23.4V23.5V23.6L108 23.5H107.9L107.8 23.4L107.7 23.3H107.6V23.2H107.5L107.4 23.1L107.3 23H107.2V22.9H107.1H107H106.9V23H106.8H106.7H106.6H106.5H106.4H106.3L106.1 23.1H106L105.9 23.2H105.8V23.3V23.4V23.6V23.8V23.9V24V24.1L105.9 24.3H105.8L105.7 24.4L105.5 24.7L105.3 24.6L104.9 24.5H104.7L104.2 24.3L103.9 24.2L103.6 24.1L103.2 24L102.9 23.9H102.6L102.4 23.8H102.3V23.9V24L102.4 24.1V24.2V24.3V24.4H102.3L102.2 24.3L102 24.2L101.8 24L101.7 23.9L101.6 23.8L101.3 23.5H101.2L101 23.3L100.9 23.2H100.8L100.6 23L100.5 22.9H100.4V22.8L100.5 22.7V22.6V22.5V22.4L100.6 22.3V22H100.7V21.9H100.8L100.7 21.7L100.6 21.6L100.5 21.4L100.4 21.3L100.3 21.2V21.1L100.2 21V20.9L100 20.7L99.9 20.5L99.8 20.4L99.4 20.1H99.3H99.2V20.2H99.1V20.3H99L98.9 20.4H98.8H98.7L98.6 20.5H98.5L98.3 20.6H98.2H98.1H97.9L97.8 20.5H97.6H97.4L97.2 20.4H97.1H97H96.9H96.8H96.7L96.6 20.3H96.5H96.3H96.1H95.9L95.5 20.2H95.3H95.2H95.1H94.9H94.7H94.5H94.4V20.4H94.3V20.5L94.2 20.7L94.1 20.9V21.1L93.9 21L93.8 21.1L93.7 21.2V21.3L93.6 21.4L93.5 21.5L93.4 21.6L93.3 21.7L93.1 21.6L92.9 21.5L92.8 21.4L92.6 21.3L92.5 21.2L92.4 21.1L92.2 20.9H92.1L91.9 20.7L91.7 20.8H91.6L91.5 20.9H91.4L91.3 21L91.1 21.2L91.2 21.4L91.3 21.5L91.5 21.7L91.6 21.8L91.7 22L91.8 22.2L92 22.4L92.2 22.7L92.5 23L92.6 23.2H92.7L92.8 23.5L92.9 23.6L93.1 23.8V23.9L93.2 24L93.3 24.2L93.5 24.4L93.6 24.5L93.7 24.6L93.8 24.8V25H93.9V25.1L94.1 25.2L94.4 25.3L94.6 25.4L94.9 25.5V25.6L95.2 25.8L95.3 25.9H95.4L95.5 25.8L95.6 25.7L95.8 25.6L96 25.4L96.1 25.3L96.4 25.5L96.7 25.7L96.9 25.8V26L97 26.2V26.4V26.6V26.8V27V27.2V27.3L96.8 27.4V27.6V27.7L96.9 27.8V27.9H97V28H97.1V28.1H97.2L97.3 28.2H97.2H97.1L96.9 28.3V28.4L97 28.9L96.8 29V29.1L96.6 29.4V29.5L96.5 29.6L96.4 29.7H96.3H96.2H96.1L96 29.8H95.9H95.8H95.7H95.6H95.5V29.9H95.4H95.3V29.8H95.2V29.7L95.1 29.6H95L94.9 29.5L94.8 29.4L94.6 29.3H94.5L94.2 29.1L94 29L93.9 28.8L93.8 28.6V28.4L93.7 28.3V28.2V28.1V28V27.9V27.8V27.7V27.6H93.6V27.5H93.5V27.6L92.9 28L92.6 28.2L92.4 27.9V27.8H92.3V27.7L92.2 27.6L92 27.2L91.7 26.7L91.5 26.5L91.4 26.3L91.3 26L91.1 25.9V25.8V25.7H91L90.8 25.5L90.7 25.3L90.3 24.7L90.1 24.8L89.8 25H89.7L89.9 25.3V25.4L90 25.5V25.6L90.1 25.8V25.9V26L90.2 26.3L90.3 26.6V26.8L90.4 27V27.1L90.2 27.2H90L89.8 27.3H89.7H89.5L89.4 27.4V27.5V27.6V27.7V27.8V27.9L89.3 28L89.2 28.1H89L88.9 28.2L88.6 28.4L88 28.8L88.1 29V29.1V29.2V29.3V29.4H88L87.9 29.6L87.8 29.8L87.7 29.9V30H87.6L87.4 30.3L87.2 30.4L87.1 30.6H87L86.9 30.7V30.8H86.8L86.7 30.9L86.6 31L86.5 31.1L86.4 31.2L86.6 31.5L86.7 31.6L86.8 31.7V31.8L86.9 31.9L87 32.1L87.1 32.3V32.4L87 32.5L87.1 32.6V32.7V32.8V32.9V33L87 33.1V33.2V33.3H86.9L86.8 33.2V33.1H86.7V33H86.6H86.5V32.9L86.4 33H86.3V33.1L86.4 33.2L86.5 33.4L86.6 33.5V33.6V33.7V33.8H86.5H86.4L86.2 33.7H86.1L86 33.8H85.9H85.8H85.7H85.6H85.5H85.4H85.3L85.2 33.6V33.5L85.1 33.4L85 33.3H84.9H84.8L84.7 33.4V33.5L84.6 33.6H84.5L84.4 33.5L84.3 33.6L84.2 33.7V33.8H84.1V33.9V34V34.1V34.2V34.3L84 34.4V34.5V34.6L84.1 34.7L84.2 34.8V35V35.1V35.2V35.3H84.1H84L83.9 35.2H83.8L83.7 35.1H83.6H83.5L83.4 35L83.3 34.9H83.2H83.1H83V35H82.9V35.1L83 35.2V35.3V35.4V35.5V35.6H82.9H82.8V35.7H82.6H82.5L82.4 35.8H82.2L82 36L81.9 36.1H81.8V36.2H81.7V36.1V36V35.9V35.8H81.6H81.5L81.4 35.9L81.3 36H81.2L81.1 35.9L81 35.8L80.9 35.7L80.8 35.6L80.7 35.5H80.6H80.5L80.3 35.4H80.2H80.1L80 35.5H79.9V35.6H79.8H79.7H79.6H79.5H79.4L79.3 35.5L79.2 35.4V35.3H79.1V35.2H79H78.9L78.8 35.3V35.4V35.5L78.7 35.6H78.6H78.5L78.4 35.7H78.3V35.8V35.9L78.4 36V36.1V36.2V36.3H78.3V36.4H78L77.9 36.5H77.8H77.7L77.5 36.4H77.4H77.3V36.5H77.2V36.6H77.1V36.7L77.2 36.8L77.4 37H77.5V37.1V37.2L77.4 37.3H77.3H77.2H77.1V37.2V37.1L77 37L76.9 36.9L76.8 36.8L76.7 36.7H76.6H76.5H76.4V36.8L76.3 37V37.1L76.1 37.2L76 37.3L75.9 37.4L75.8 37.5L75.7 37.6H75.6H75.5L75.4 37.7V37.6H75.3H75.2H75.1H75L74.9 37.7V37.8H74.8H74.7V37.7H74.6V37.6L74.5 37.5L74.4 37.4H74.5L74.6 37.3V37.2H74.7V37.1H74.6V37H74.5H74.4H74.3H74.2H74.1L74 37.1V37.2V37.3V37.4V37.5H73.9L73.8 37.6L73.7 37.7H73.6L73.5 37.8L73.4 37.9H73.3L73.2 37.8V37.7L73.1 37.6V37.5V37.4H73H72.9V37.5H72.8V37.6L72.9 37.8L73 37.9H72.9V38L72.8 38.1H72.7H72.6H72.5H72.4H72.3V38H72.2H72.1V38.1L71.9 38.3V38.5V38.6V38.8L72 38.9L72.1 39.3L72.2 39.4V39.7V39.9L72 40.1L71.9 40.4L71.6 40.5L71.3 40.7L70.9 41V41.1L70.6 41.6L70.3 41.8V41.9L70.1 42.2L70 42.7L69.8 42.9V43L69.7 43.2V43.4V43.5V43.8L69.6 44.2V44.3L69.4 44.5L69.3 44.7V45.1L69.2 45.4L69.1 45.6V45.7L68.9 45.9L68.8 46.1L68.7 46.2L68.5 46.3H68.4L68.1 46.5L67.6 47.1L66.3 48.3L65.9 48.7V48.9V49.2L65.8 49.3V49.4V49.5V49.6V49.7L65.7 50.1L65.6 50.4L65.5 50.7L65.4 51V51.3L65.1 51.7L64.8 52.1L64.7 52.2L64.6 52.3L63.9 52.6L63.7 52.7H63.6H63.5L63.4 52.8H63.2H63.1L62.9 52.9H62.7H62.6L62.4 53H62.3V53.1L62.2 53H62.1L62 52.9H61.9L61.8 52.8H61.7L61.3 53.2L61.2 53.3H61L60.7 53.4H60.6L60.4 53.5L59.6 53.2L59 53L58.4 52.8H58.3L57.9 52.9L57.6 53H57.3L57.1 53.1H56.9L56.7 53.2H56.6H56.5H56.4L56.2 53.3L55.9 53.4H55.6L55.4 53.5H55.1L54.9 53.6H54.8H54.7H54.6L54.4 53.7H54.2H54.1L54 53.8L52.9 54.1L52.5 53.9L52.3 53.7L51.8 53.6H51.5H51V53.7L50.9 53.8L50.8 54V54.1V54.2H50.7V54.3V54.4L50.3 54.5L49.6 54.8L49.3 54.7L49 54.5L48.7 54.4L48.5 54.2L48.3 54.1L47.6 54.3H47.4L47.1 54.4H47L46.7 54.6H46.5L46.2 55.2V55.4H46L45.8 55.6L45.5 55.7L43.8 56.4H43.4H42.9L42.3 56.3H42.2H42.1L41.9 56H41.7L41.4 56.1H41.2L41.1 56.3H41H40.9H40.8H40.7H40.6V56.2H40.5V56.1H40.4H40.3H40.2V56H40.1H40H39.9H39.8V56.1H39.7V56H39.6V55.9H39.5V56V56.1H39.4H39.3L39.2 56H39.1H39L38.9 55.9H38.8H38.7H38.6L38.5 55.8H38.4H38.3H38.2H38.1V55.7L38 55.8V55.7H37.9V55.8H37.8M37.8 55.8V55.7M37.8 55.8H37.7M37.7 55.8V55.7" stroke="white" stroke-width="0.5" stroke-linecap="round" stroke-linejoin="round"/>
</g>
</svg>
